<svg xmlns="http://www.w3.org/2000/svg" viewBox="0 0 52.917 52.917" height="200" width="200"><path d="M28.966 4.202c-3.303.332-5.82 2.77-8.513 4.465-2.89 2.258-5.983 5.484-5.514 9.454.524 3.805 3.457 6.578 5.822 9.351 1.508.953 3.764 2.557 1.62 4.172-.738 1.125-.478 4.982-2.128 4.303-1.007-2.125-6.955-2.28-4.794.79.274 1.301.698.92 1.543.789.566-.053 1.135.176 1.634.48.853-.042 1.286.882.188.9-.708.054-1.458-.227-1.987-.327-1.052-.626-.356.352-.203 1.265-.357 2.105-4.18-.192-4.47-1.609-.125-2.321-2.125-5.138-4.715-4.24-1.504.597-.873 4.154.429 2.254.62.511.226 1.288-.128 1.785-.277.41-.434 1.406.466.78 1.115-.227.858 1.08.386 1.493.58.508 1.343.282 2.036.522.583.268 1.997.408 1.56 1.31-.702.377-1.431.275-2.074.07-.585-.268-1.191-.148-.426.313a4.313 4.313 0 0 0 2.09-.026c.759-.28 1.887.343 1.554 1.06-.419.316-.268.73-.7.96-.243.578-1.216.515-1.52.735-1.001.013-1.897.118-2.574-.623-.483-.541-.268-1.112-.664-1.69-.174-.588-.147-.802-.368-1.441-.159-.407-.464-1.164-.19-1.357-.295-.824.036-2.243-.28-.404.168 2.154.455 5.244 3.032 5.774 1.167-.723 4.046 1.484 1.422 1.266-1.75-.043-5.065.886-5.53 1.464 2.322-1.127 4.801-.97 7.101-.055 4.938.352 9.963 1.463 14.879.272 2.966-.236 5.92.234 8.878.373-8.084.246-16.193 1.25-24.267.25-.985-.07-3.799-.21-3.688-.06 7.398.554 14.842.986 22.243.226 4.514-.25 9.03-.497 13.526-.986-1.773-.053-4.92.46-5.84.252 2.595-.569 5.16-1.684 7.869-1.38-1.828-.703-4.004.081-5.735-.8 1.844-.99 3.803-2.248 4.462-4.48.883-1.062.082-4.033.928-4.247.106.891.382 3.663.396 1.143-.134-2.069-.451-5.768-1.3-6.66.846.976.425 4.29.104 1.526.09-2.081-3.05-3.322-1.34-4.706.766.09 2.385 1.187 1.028-.23-1.8-1.09-3.952 1.6-5.923-.218-3.66-1.591-.072-5.006-.051-7.59-.217-1.954-1.183-3.758-1.47-5.716-.595-1.844-.174-4.018-1.43-5.594a30.333 30.333 0 0 0-6.644-5.246l-.356-.079-.374-.033ZM43.863 30.32c.557.789 2.122 2.116.79.572-.22-.242-.479-.455-.79-.572zM8.146 43.592c.042.054-.075-.265 0 0zm.001.006c0 .019.012.002 0 0zm13.865-28.92c.661.281-1.225.231 0 0zm1.575.478c.315-.005-.003.46 0 0zm-3.624.068c.481.63-.252 1.235 0 0zm5.58.302c.67.3-1.993.185 0 0zm-2.295.22c.85.27.528.542 0 0zm3.968.08c.113 1.086-1.1 1.377.43 1.015 1.637.807 2.952.833 3.598 2.561 1.049 1.51 3.8 2.115 2.19 4.359-.443 1.545-2.814 2.034-.609 2.872-.924 1.376-2.298 2.665-3.442 3.964-1.94 1.837-2.688-2.343-.622-2.972-1.96.49-3.938.19-5.282-1.238-1.592-1.432-1.548-4.38-1.951-5.572-2.15-.868-.496-4.303 1.264-2.255 1.022.608 3.374-1.415 3.094-1.253-.997.427 1.616-.81 1.33-1.482zm-.978 1.382.385-.163zm2.523 10.417c.722-.171 1.23-.543.22-.12zm-7.74-11.45c-.333.63-.81.617 0 0zm4.496.335c-1.431.531-1.456.175 0 0zm-6.263.512c1.35.354-1.765.097 0 0zm4.87.443c.018-.018.392.027 0 0zm5.019.143.049.018zm-3.624.017-.054.063zm-4.601.175c-1.261.631-1.81.25 0 0zm8.555.076.066.021zm.167.072.075.034zm-8.473.453.047.015zm2.252.452-.05.04zm-2.834.51.004.01zm.285.828.02.021zm10.602.61c-.035.29.3.137 0 0zm-9.217.17-.024.026zm-.313.232-.05.04zm10.655.088-.02.017zm1.002.431-.077.06zm-.61.2c.017.198.148-.005 0 0zM22.98 23.655l.043.085zm-.708.04-.072.215zm-.032.372c.015.194.012.153 0 0zm.5 1.062.017.098zm9.534.116c-.035.206-.024.142 0 0zm-.372.858-.027.028zm-7.357.34.092.008zm5.939.518-.066.025zm-.17.065c-.217.093-.162.07 0 0zm-.178.048c-.151.014-.016.046 0 0zm-.48.191-.046.026zm-.111.119-.043.017zm-.474.253.019.005zm-.986.564-.034.05zm-.035.052-.018.092zm15.613.557c-.552.645-.97.757 0 0zm-3.32.337c1.1.114 2.455 2.378.9.582a4.06 4.06 0 0 0-.9-.582zm-12.78.9.012.05zm2.011.068.082.006zm11.596.479c.96.48 1.107 3.782.56 1.172-.152-.407-.364-.787-.56-1.172zm-13.324.01.024.042zm.121.155.004.072zm.256.102.004.021zm3.349.141c.103 1.072-.763 1.672-.159.306zm-6.434 1.072c.072.966-.786 1.15 0 0zm2.64.13c.04 1.147-.607 4.125-.291 1.279.06-.433.15-.863.29-1.278zm-19.114 2.19c1.986-.339 3.204 3.613 3.005 3.671-.39-1.862-1.874-3.83-3.987-3.57.323-.086.656-.052.982-.1zm15.905.046c.25 1.198-.4 2.25-.127.503.004-.172.09-.335.127-.503zm-6.78.556c1.495-.196 3.252 2.924 3.06 2.693-1.048-2.129-3.889-2.358-5.508-2.55.806-.163 1.647.023 2.448-.143zm-1.725.17.097.02zm-7.902.058c1.884.095-1.3.773-.328.128zm34.333.24c.133 1-.157 3.23-.061.991.007-.33.022-.662.061-.99zm-25.971.42c.944-.094.556.238-.072.064zm2.154.025c1.158.229-.507.708 0 0zm-1.743.235c2.222.423-1.909.215 0 0zm-9.287.216c-.067.064 0 .009 0 0zm-.486.483c-.036.032-.024.207 0 0zm14.043.704c.652.017.817.477 1.417.523.367.28 1.33.282 1.577.79.33.234.795.588 1.135.71.357.378.64.336 1.142.655.533.08 1.061.743 1.469 1.048.392.298.902.712.74 1.293.056.744-.442 1.92-1.317 1.437-.314-.362-.39-.774-.912-.436-.996.098-2.28.19-3.081-.153-.322-.136-.892-.353-1.216-.665-.823-.266-1.703-.536-2.501-.565-.845.025-1.257-.398-1.788-.844-.215-.477-.359-1.113-.914-1.428-.239-.29.015-1.333.628-.89 1.11.703 2.407.6 3.678.963.811-.083 1.608.112 2.384-.086-.935-.378-1.936-1.053-2.444-1.869-.049-.195-.416-.396.003-.483zm-.022.449c.053.096-.053-.179 0 0zm-4.714-.43-.033.017zm-9.26.048c-.006.013.011.004 0 0zm.71.177c-.015.017.003.007 0 0zm13.469.172.043.022zm-13.642.02c-.006.014-.003.018 0 0zm13.722.026c-.08.01-.02.012 0 0zm-4.436.083c-.011.005-.038.032 0 0zm6.024.174c.09.032.014-.007 0 0zm-3.577.094c.036.066.014.001 0 0zm-.188.027c-.009-.014-.067.025 0 0zm-11.71 0c-.053.078-.004.025 0 0zm13.968.04c.006.009.04.01 0 0zm-2.833.062c-.03.07.12-.03 0 0zm4.351.198c.064.028.017.004 0 0zm.265.086c-.019.04.03-.008 0 0zm-5.517.012c.023.013.106-.002 0 0zm.195.066c.007.009.04-.005 0 0zm.974.014c-.027.018.005.008 0 0zm-6.904.226c.637 1.18.34 2.055 0 0zm10.202.041c.016.015.084.018 0 0zm-5.32.06c-.076.09.04.021 0 0zm7.781.042c0 .006.018.008 0 0zm-15.73.078c-.01.026.01.03 0 0zm7.899.115c-.006.003-.009.028 0 0zm8.33.12c.03.032.012.004 0 0zm-2.102.1c.029.017.007-.007 0 0zm.227.132c.031.03.011-.004 0 0zm-.239.221c.005.006.03-.003 0 0zm-6.02.01c-.002.007.02.02 0 0zm-9.793.067c.003.013.024.043 0 0zm5.742.14c.562.402-.296.735 0 0zm13.536.065c.052.05.017.007 0 0zm-5.722.017c.014.11.104-.007 0 0zm-3.379.115c-.009.015.033.064 0 0zm.124.24c.01.043.008.007 0 0zm-8.408.013c.004.007.027.007 0 0zm1.434.166c.03.01.029 0 0 0zm7.47.172c.066.125.172.138 0 0zm.27.257c.18.157.108.06 0 0zm.044.03c-.008-.009-.052-.036 0 0zm.073.056c-.09-.006.709.493 0 0zm-.161-.085c.08.038.018-.003 0 0zm.044.012c-.006.006.014.008 0 0zm4.3.126c.006.012.01-.008 0 0zm-15.158.027c-.01.028.01.073 0 0zm10.509.013c-.006.008.028.039 0 0zm10.16.072c.013.04.01.007 0 0zm-9.427.018c-.001.01.012 0 0 0zm-11.147.281c-.002.018.035.048 0 0zm11.793.003c-.006.01.04-.003 0 0zm-.944.005c.008.004 0 .002 0 0zm.99.02c-.015.004-.002.003 0 0zm-10.294.072c.006.018.007-.002 0 0zm12.949.064c.116.137.345.172 0 0zm-10.373 0c.054.208.042.042 0 0zm16.432.01c.001.151.262.366 0 0zm-5.906.038c.005.035.1.12 0 0zm1.449.027c-.03.01-.003.009 0 0zm-4.568.068c.002.012.063.032 0 0zm.467.037c.005.009.078.022 0 0zm.624.046c.008.014.056.02 0 0zm.156.058c-.015.003.025.005 0 0zm.512.109c-.024.035.088.013 0 0zm.03.017c.007.026.063-.017 0 0zm1.684.045c-.14.083-.002.042 0 0zm-1.336.027c.005.006.026.006 0 0zm1.262.108c.006.043.333.166 0 0zm-14.731.038c-.002.006.005.035 0 0zm14.354.136c.004.01.04.017 0 0zm.725.032.001.002zm-.01.013c-.047-.003.022.008 0 0zm-14.846.18c-.082.071.023.401 0 0zm14.569.07c.016.01.066.01 0 0zm5.815.06h-.001zm-20.4.117c0 .017.035.043 0 0zm.04.123c0 .013.033.042 0 0zm5.266.03c-.054.223.007.053 0 0zm14.55.125c-.009-.001 0 .006 0 0zm.021.017c-.004.005.014.008 0 0zm-.003.01c-.009.018.007.072 0 0zm-15.693.008c-.015-.014-.108.036 0 0zm14.823.021c-.018.017.03.127 0 0zm-1.061.035c.008.008.084-.007 0 0zm-12.664.017c-.03.068.007.012 0 0zm15.093.094c-.023.024.003.007 0 0zm-10.14.061c.606 1.183-.112 1.805-.368.43l.129-.277zm-8.738.135c-.071.032.107.202 0 0zm2.539.057c-.123.088-.011.035 0 0zm.918.06c-.014.006-.002.05 0 0zm-.65.005c-.513-.007.04.184 0 0zm-2.75.064c.38.23.903.116 1.418.062-.408.018-.95-.085-1.419-.062zm7.913.058c-1.19 1.165 1.8 2.063-.465 2.1-1.48.568-2.916-.678-.885-1.484.414-.275.87-.485 1.35-.616zm-6.289.004c-.052.022.022-.002 0 0zm1.73.04c-.04.038.018.018 0 0zm5.441.374-.004.031zm24.07 0c.609 1.737-3.154.607-.704.117.238-.016.47-.074.705-.117zm-20.189.19c2.378 1.867-3.375 2.86-2.195 1.092.772-.238 1.81-.23 2.195-1.092zm-10.115.196c-.118.007-.024.013 0 0zm4.392 1.645c2.126.384 5.817.229 6.968.932-2.863.25-5.668-.581-8.517-.679.173-.393 1.168-.133 1.549-.253zm.848.239c1.091.158 3.544.602 3.804.393-1.258-.212-2.538-.245-3.804-.393zm-1.696.19c1.483.152 5.014.508 5.279.665-1.785.04-3.522-.437-5.28-.664zm32.09.477c-6.716 2.778-14.129 1.529-21.161 2.48-6.875.409-13.724-.512-20.572-.96 4.897.858 9.89.962 14.847 1.158 6.982.027 13.945-.614 20.913-.955 2.069-.209 4.156-.673 5.972-1.723z" style="fill:#edc599;stroke-width:1"/><path style="fill:#4e98b3;fill-opacity:1;stroke-width:1" d="M28.76 4.205c-2.198.094-3.924 1.701-5.785 2.706-3.166 1.956-6.163 4.522-7.713 7.98-1.13 2.906.3 6.107 1.982 8.493 1.554 1.673 2.93 3.502 4.61 5.057.701.884 2.974 1.223 1.2 2.177-1.554 1.663-1.013 4.535-2.438 6.066-.723-1.831-2.523-2.446-4.406-2.118-1.947-.585-1.974 1.43-.508 2.145.566.935-.31 1.757.827 2.621 1.359 2.046-1.63 1.885-2.309.48-1.202-.16-1.73.196-1.924-1.346-.85-1.781-.93-5.14-3.76-4.409-1.482-.483-3.114.779-1.505 2.04.05 2.01-.401 4.19.523 6.134-.125 1.918 1.758 4.268 3.985 3.052.68 1.028 2.593 1.492.382 1.4-2.103.358-4.48.352-6.233 1.703 1.005-.685 3.366-.9 4.97-1.086 1.383-.071.557.113-.033.335 2.046.584 4.133.737 6.284.92 3.368.285 6.815.889 10.143-.004 3.256-.429 6.522.126 9.776.28-6.492.071-12.96 1.069-19.457.557-3.05-.074-6.092-.55-9.144-.41 5.487.289 10.987.895 16.483.653 6.644-.458 13.309-.65 19.933-1.37-1.891.008-5.66.413-6.354.355 2.44-.217 4.635-1.801 7.147-1.398 1.13.074 2.658-.397.714-.242-1.863-.268-4.037-.132-5.703-.587 2.405-.752 4.598-2.712 5.227-5.343.42-.952.027-4.132.566-3.975.484.738-.158 3.874.564 3.004.028-2.345-.422-4.507-.823-6.805-.018-1.786-2.236-2.689-2.705-3.68.903-1.341 2.218-.6 2.414.359 1.052-1.846-2.749-2.102-3.393-.58-1.556-.86-4.465-.816-4.853-2.69-.57-1.169 1.87-2.917 1.564-4.741.347-2.254-.458-4.423-1.275-6.47-.65-1.906.178-4.179-1.264-5.806-1.477-1.9-3.758-2.922-5.383-4.673a3.965 3.965 0 0 0-2.326-.784Zm-.145.531c2.19.184 3.63 2.14 5.365 3.268 1.685 1.24 3.302 3.1 2.959 5.342.1 3.153 2.598 6.064 1.487 9.286-.702 2.546-2.787 4.405-4.448 6.252.907-.207 2.943-3.11 2.851-1.387-1.294 1.458-3.22 2.513-5.076 2.961-1.151 1.25-3.743 1.168-3.42 3.612-.106 1.02-.532 3.856-.36 3.824.722-.508.294-2.955.72-4.589-.398-1.43 2.302-1.401 2.316-1.338-.63 2.113-.378 4.35-.825 6.476.8.981.76-2.194.896-2.979.176-1.86.07-4.395 2.348-4.959-1.708 2.938-1.02 6.506-.056 9.562-1.332-.997-2.62 1.043-3.764-.517-1.757.25-3.366.93-4.693-.711-1.069-.39.005-1.712-.178-2.027.301-1.523-.166-4.581 1.254-5.026 2.622.239.63 3.339.944 5.196-.498 1.045.419 2.513.476.67.431-2.372-.098-5.292 2.248-6.82 2.264-1.767 4.945-3.969 4.777-7.15.01-4.34-3.87-7.511-7.716-8.705-2.828-.853-5.932-1.254-8.834-.59-1.357-.084-2.908 2.853-2.33 2.55.778-.429.422 2.371 1.137 3.168 2.068 4.405 5.69 8.093 10.035 10.25.771.273 1.36 1.695.136.628-2.524-1.423-5.25-2.693-6.928-5.174-2.305-2.527-4.74-5.514-4.8-9.097.22-3.23 4.152-3.364 6.599-3.737.677-.166-2.07.076-2.745.29-1.056-.086-3.947 2.091-2.276.139 2.848-3.782 6.878-6.56 11.135-8.543.247-.08.506-.123.766-.125zm.22.85c-1.332.1-2.61.65-3.72 1.37 1.228-.487 2.423-1.085 3.72-1.37zM26.8 6.587c-2.561 1.288-3.858 4.102-4.437 6.646-.853.27-2.514.342-.69.324 4.802-.07 9.93 2.164 12.4 6.424 1.743 3.054 1.199 7.163-1.254 9.67 1.462-1.071 2.478-2.864 2.786-4.663.566-4.766-2.857-9.312-7.243-10.91-1.143-.58-4.056-1.149-4.28-1.078 4.31.775 8.912 2.896 10.649 7.205.959 2.188 1.182 4.861-.041 6.995 1.642-4.26-.605-9.288-4.537-11.405-2.201-1.44-4.796-2.17-7.392-2.463-.07-2.79 1.87-5.21 4.04-6.745Zm7.42 1.862c1.544 1.708 2.21 4.011 2.312 6.306.004 1.162 1.293 3.586.35 1.195-.353-2.604-.523-5.677-2.662-7.501Zm-12.03 6.232c-.446.6-1.39.134 0 0zm1.406.491c.16-.05.258.418 0 0zm-3.632.05c.587 1.174-.21 1.216 0 0zm6.651.28c-.093 1.474-4.467 1.562-1.644 1.157.659-.173 1.322-.527 1.644-1.157zm-.785.026c-.56.691-2.308.002-.572.107l.366-.07.206-.037zm-2.58.216c.964.383 1.02.732 0 0zm3.966.068c.026 1.996-3.677 1.914-3.707 1.416 1.319.668 3.256.063 3.707-1.416zm-6.185.34c-.507.853-.817.698 0 0zm6.864.12c-.074.734-.62.68 0 0zm-5.5.535c-.81.736-1.128.653 0 0zm-2.314.213c-.732.6-2.303-.173-.591.074l.302-.017zm7.499.023c.82.601 2.06.348.352.447-.222-.013-.376-.237-.352-.447zm-.595.444c.702.747 2.315.107 2.429.591.177 1.327 2.64 1.172 2.639 3.023.35 1.365 1.665-1.388 1.73.724-.889.513-.527.854-.505 1.332-.973 1.035-1.879 3.74-4.092 4.12-2.766 1.357-6.655-.498-6.872-3.698-.649-1.213-1.124-2.562.67-2.497.066-1.316-2.295.51-2.055-1.358-.266-1.05-.34-1.961.81-1.122 1.657 1.078 3.502-.644 5.246-1.115zm-5.755.086c-.543.761-2.994.74-.848.402.276-.144.542-.322.848-.402zm8.7.657c1.766-.095-.361.503 0 0zm-.783 1.634c-.744.015-4.142.081-2.17.813.455.005 4.207.129 2.17-.813zm-.138 2.2c-.628.066-2.169.19-.95 1.146.758.493 2.07-.732.95-1.146zm-5.104.438c-.674-.14-1.63.77-.374 1.268.765.256.988-1.056.374-1.268zm1.309.909c-1.995.905 1.261 2.507.74.713-.282.028-.778 1.029-1.014-.167-.151-.355.925-.431.274-.546zm1.131 2.285c-3.23.57 3.152.184.348.017l-.348-.017zm5.29.65c-.41.482-.712.51 0 0zm-4.696.31c-.315.652.97.241 0 0zm2.684 1.04c-.221.035-.947.3 0 0zm4.029.243c-.939 1.566-2.652 2.377-3.92 3.627 1.413-1.065 3.217-1.884 3.92-3.627zm-2.57.164c-.065.046-.023.01 0 0zm12.582.706c-.953 1.016-1.125.87 0 0zm-3.32.337c.97-.03 3.203 3.193 1.506 1.157-.436-.46-.925-.89-1.507-1.157zm-1.936.283c1.755.917-.554.351-1.082.451.276-.294.689-.428 1.082-.451zm-3.274.194c-1.82 2.725-1.708 6.27-.787 9.295-1.162-2.286.924 2.402-.385.272-1.25-2.693-1.73-6.283.166-8.785a3.558 3.558 0 0 1 1.006-.782zm-5.508.022c-.402.587-.142.092 0 0zm-4.87.342c2.1.844-1.033.865 0 0zm13.373.048c2.153.077 2.236 2.904 2.548 4.53.17 1.674.096 3.36.22 5.038-.091-.893-.677-4.007-.63-3.395.383 3.27 1.327 7.04-.703 9.962-1.646 2.077-4.752 1.665-7.003 1.01-2.161.24.888-3.486-.57-1.404-.481 1.215-2.058 1.167-.438.259.9-1.202-.06-3.983-.331-4.266.67 1.53 1.136 4.795-1.28 4.75.35-.444 1.576-2.71.354-.996-.993 1.66-1.744-.083-.454-.878.613-1.413-.719 1.316.038-.516.69-1.427.168-3.338-.835-4.122 1.052-.453 2.508 2.394 2.576 1.544-1.216-1.673 1.866.807 1.227 1.856-.013 1.2.144 2.084.145.388.408-1.319-1.354-2.954-1.075-3.49 2.225.42 2.65 3.182 3.647 4.88 1.516 2.128-.679-1.335-.904-2.243-.175-.708-1.893-2.774-.377-1.237.778.653 1.964 3.475 1.03.997-.483-.851-2.507-2.509-.263-1.58 1.55.509 2.453 3.552 2.71 3.895-.07-1.316-1.648-3.398-1.823-3.713 1.227.325 2.24 2.709 2.692 2.701-.462-1.804-1.86-3.321-3.765-3.557 1.601-.975 3.655 1.625 4.07 1.797-.455-1.149-2.782-2.099-2.939-2.288 1.164-.356 3.582 1.87 3.187 1.365-.582-1.29-3.372-1.533-3.511-1.674.681-.524 4.53.45 2.152-.278-.367-.251-2.011-.33-.103-.526 1.13.061 2.132.398.544-.178-1.21-.978-4.575 2.162-2.587-.165.284-.984 3.334-1.438 2.549-1.57-1.224.249-2.584 1.202-2.108.474-.7.873-1.318 1.67-.708.137.253-1.01 3.234-3.952 1.125-2.093-.702.622-1.76 2.491-1.136.58-.003-1.109 3.233-3.302 1.062-1.953-.82.527-1.62 2.447-.995.5.1-1.516 2.62-3.38 2.74-3.516-1.253.178-2.945 3.698-1.987.69.223-.938.863-1.744 1.91-1.715zm5.512.22c1.68.88 3.174 3.986 2.059 5.366.054-1.954-.51-4.066-2.059-5.366zm-19.698.123c1.746.65.24 2.858.284 4.452-.316.764-.004 2.705.221.9-.078-.78.17-2.38.176-.66.066.909-.798 3.972-.688 1.578-.096-1.282-.16-4.4-.346-4.72.03 1.488-.009.771-.379-.018-.14 1.063.495 3.326-.295 1.303a6.999 6.999 0 0 1 .185 2.907c-.395-1.013-.835-1.592-.278-.138.393.903.57 1.871-.11.428.397.928.97 2.433-.223.904-1.352-1.483 1.034 1.36-.476.09-1.536-.583.615-2.837.45-4.258.275-1.016.7-2.032 1.479-2.768zm1.818.126c.984.303 2.453 1.818.493.783-.26-.161-1.24-.453-.493-.783zm15.41.089c.983.67 1.382 4.66.738 1.832-.105-.671-.439-1.243-.738-1.832zm-9.599.408c-.033.712-.674 2.829-.357.867.109-.29.148-.622.357-.867zm-2.952.19c.242.178-.415.242 0 0zm-.783.235c.104 1.408-.432 2.809-.447 4.233-.077-1.39.16-2.868.447-4.233zm-2.698.647c-.009 1.037-.698 1.476 0 0zm14.943.344c.265 1.094.553 3.893.611 4.067a10.814 10.814 0 0 0-.61-4.067zm-6.068 2.028c.259 1.021.179 2.197.002.411zm-26.316.058c2.13-.48 3.488 1.065 3.841 3.056.346.826.652 1.992.007.407-.776-1.363-.409-.93-.12-.54-.604-2.131-2.134-3.483-4.417-2.698-1.023.166.562-.346.69-.225Zm9.16.559c2.152-.442 3.264 1.409 4.257 3.012.553.801 1.55 2.569.31.739-1.102-1.733-2.163-3.976-4.626-3.32-1.027.329-2.911-.682-.735-.328l.374-.079zm-.794.103c-.098.023.359.03 0 0zm-7.902.058c2.234.18-1.87.96-.252.032zm34.334.243c.09.812-.128 4.438-.066 1.76 0-.586-.003-1.177.066-1.76zm-25.972.417c1.776.048.504.285-.306.015zm2.155.025c1.097.43-.612.562 0 0zm-1.743.235c2.32.353-1.56.354-.488.026l.488-.026zm-8.932.292c.605.559-1.272 3.707-.928 1.225.034-.538.302-1.178.928-1.225zm24.522.88c-.037.982.954 3.716.326 1.23-.107-.408-.198-.836-.326-1.23zm-15.918.317c.861-.057 4.179.826 1.912 1.142-.492.086-3.632-.515-1.912-1.142zm4.695.05c1.96.9 4.022 1.75 5.711 3.15 2.5.033 1.357 4.674.087 2.423-1.57.563-3.947.225-5.571-.943-1.285-.41-3.323-.071-3.903-1.584 1.02.167 3.573.967 3.84.436-1.438-.457-4.796-.185-4.405-2.106 2.255 1.102 4.869 1.123 7.33.927-.828-.72-3.41-1-3.089-2.304zm-12.6 1.14c1.678.776-2.67 1.42-.009 1.761.92.409 4.283.4 3.345 1.52-.747.478-4.373-1.406-2.997.226 1.122 1.382 3.838-.164 4.328 1.099-.999 1.078-3.869-.146-4.165.427.579 1.417 5.167-.61 2.731.889-1.783 1.018-4.166-.135-4.052-2.266.03-1.258-2.057-3.542.818-3.657zm3.378.268c.482.98.835 2.875.203.898-.075-.297-.185-.59-.203-.898zm1.512 1.01c3.142.526 2.202 5.955.255 5.778 1.475.033 1.551-3.38 1.316-2.553.349 1.397-1.87 3.197-2.419 2.329 2.129-.282 2.473-3.412 1.247-4.823-.396-.407-1.556-.247-.399-.73zm14.33.03c2.774.42 2.363 4.723.2 5.728-.959.168-1.547-.798-.196-.356 1.244-1.052 1.65-3.775.2-4.813-.242-.074-.84-.544-.204-.56zm1.81.418c1.252.886.687 4.053.705 4.208.537-1.378.403-3.141-.705-4.208zm-16.434.659c1.523.412.94 4.389.368 1.482a10.43 10.43 0 0 1-.368-1.482zm3.558.064c1.707.545 4.646 1.902 3.022 4.044.654-1.2-1.518-3.528-1.393-3.046 1.617 1.691 1.055 3.012 1.027 2.578-.523 1.862-4.326 1.328-4.837 1.31 1.147-1.243 1.527-3.219.769-4.756 1.345.364 1.01 4.827 1.196 2.191-.192-1.128-1.143-2.648.27-1.149 1.132 1.11-.252 3.996 1.382 3.428.275-1.41-.996-1.913-1.382-3.624-.385-.635-1.723-1.24-.237-.76 1.576.015 2.214 3.623 2.325 3.122.01-1.38-1.04-2.627-2.142-3.338zm21.51.94c.428.76 1.8 2.946.716.884-.175-.34-.438-.626-.715-.884zm-18.332.336c1.573.182.486 3.592.49 1.408-.03-.481-.587-.965-.49-1.408zm.89.148c1.057-.277 1.388 1.727.264.221zm-.122.188c.918.321.54 2.316.255.528.24-.077-.45-.38-.255-.528zm.738.595c.743.202-.074.821 0 0zm1.657.207c.632.828-.407 2.817-.245.837-.054-.269-.032-.68.245-.837zm2.971.188c.633.675.095 2.906 1.6 2.695-.28-.808 3.16 1.264.852.848-1.673-.689-5.504.454-4.205-2.54.113-1.008 1.088-.762 1.753-1.003zm-2.436.092c.041.95-.358 1.344 0 0zm-2.58.099c.347.397-.01.138 0 0zm21.287.485c1.067.754-2.98 2.005-1.256.219.395-.144.825-.08 1.256-.22zm-20.19.19c1.006.957.307 2.716-1.261 1.854-1.328.046-2.474-.327-.683-.901.882.001.73.248.937-.443.514.92.468-.507 1.007-.51zm-6.252 1.81c3.191.195 6.373.77 9.563.748 1.107 1.18-2.686 1.164-3.701 1.157-2.816-.201-5.599-.74-8.415-.91-.565-1.035 2.541-.234 3.479-.222 2.241.204 4.582 1.023 6.784.236-1.778.18-4.094.193-6.067-.219-.978-.144-3.107-.464-.942-.248 1.35.145 4.636.677 4.778.47-2.217-.331-4.625-.556-6.758-.722.418-.132.852-.198 1.28-.29zm1.377.27c1.486.251 3.267.473 4.606.556-1.509-.366-3.071-.377-4.606-.556zm30.393.667c-3.917 1.758-8.317 1.798-12.54 1.985-5.183.018-10.335.91-15.523.528-4.254-.238-8.512-.59-12.753-.911-1.332-.38-1.643-.018-.093.107 4.917.672 9.893.786 14.844 1.04 5.962-.103 11.906-.664 17.867-.833 2.791-.19 5.74-.478 8.198-1.916z"/><path style="fill:#22262f;stroke-width:1" d="M28.875 4.237c-2.346.095-4.287 1.748-6.21 2.946-3.425 2.063-6.646 5.022-7.794 8.974-.273 3.892 2.116 7.31 4.786 9.891.972 1.708 2.96 2.673 4.098 3.997-2.265 1.394-1.794 5.489-3.133 6.747-.762-2.24-2.972-2.467-5.004-2.225-2.998.39 1.961 2.647.075 3.369.603.955 2.34 3.71-.232 2.892-.951-1.583-3.319-.252-3.286-2.562-.71-1.791-.994-4.912-3.7-4.2-1.535-.376-2.992.74-1.44 2.048.11 1.77-.365 3.85.362 5.639.115 2.065 1.483 4.64 3.976 3.588.932.118 1.173 1.444 2.377 1.193-2.662.399-5.553.268-7.92 1.739 2.132-.927 4.533-.952 6.822-1.089.734 1.653 3.755.666 5.402 1.347 2.718.38 5.665.855 8.24-.33 1.347-1.35 4.222.355 6.204.26 1.66.183 4.009.528 5.288.05-4.59.166-9.012-1.409-13.576-1.634-.363-1.598.655-3.702 2.274-2.733-.191 2.891 3.544 2.664 5.526 3.55 2.629.53 5.737 1.06 8.062-.606 2.269-.088 4.62.279 6.922.03-2.195-.39-4.509-.247-6.66-.638 1.255-.538 2.838-1.018 3.272-2.306 2.397-1.251 2.229-4.4 2.349-6.714.797-1.493.276-3.442-.34-5.136-.051-1.078-3.083-3.001-1.112-1.477 1.024.966 2.333 4.087 1.211 4.552.25-2.23-1.34-4.373-2.53-5.714.73-1.221 2.392-1.061 2.425.3 1.283-1.822-2.742-2.133-3.454-.504-1.521-1.11-4.471-.99-4.924-2.896.496-1.78 2.16-3.538 1.825-5.7.065-2.271-1.054-4.315-1.559-6.452.178-2.678-.656-5.358-3.147-6.723-1.75-1.12-3.291-3.36-5.475-3.473zm-.26.5c2.464.224 3.963 2.506 5.948 3.716 2.108 1.368 2.517 3.816 2.509 6.113.574 2.504 2.113 4.911 1.468 7.575-.538 2.89-2.88 4.9-4.812 6.924 1.098-.34 2.556-2.677 3.212-1.987-.655 2.465-4.58 2.242-5.377 4.25-.553 1.947-.635 3.97-.896 5.965-.405-2.1.593-4.989.733-6.57-1.666.976-3.511 1.581-3.12 4.07-.149.87-.69 4.608-.15 2.68.597-1.295.103-3.703.863-5.321.856.382 2.71-1.21 1.82.658-.113 1.833-.81 4.817-.324 5.954.8-1.892.402-4.192.972-6.215-.277-1.348 3.113-3.012 1.418-.863-.995 2.77-.287 5.767.539 8.484-1.488-1.15-2.574.9-3.741-.519-1.695-.118-3.305 1.08-4.598-.642-1.507-1.31.25-4.083.067-5.995-.128-1.93 1.102-1.248 2.275-.612-.117 1.84-.866 5.108-.305 6.17.863-2.023.125-4.557 1.306-6.541 1.851-1.978 4.501-3.376 5.588-6.01 1.44-3.641-.882-7.684-4.062-9.536-3.65-2.155-8.184-2.977-12.333-2.012-1.276.03-2.453 2.638-2.15 2.626.241-.858.743-1.278.741-1.042-.615 2.678.956 5.297 2.452 7.407 1.705 2.13 3.786 4.517 6.069 5.65-3.807-2.612-7.293-6.28-8.484-10.856-.805-2.183 1.014-4.026 3.182-3.881.13-.283-.153 1.467-.306 1.856-.576-.041-.12-1.87-.725-.53-.976 2.817 4.57.526 1.885-.53-.595 1.082-.779.08.21-.14 2.488 1.819-3.57 3.545-2.194.447-.832 1.028.064 3.092.769 4.184 1.693-1.48 2.123 2.472 2.633 3.732.382 1.882 1.377 3.85 3.276 4.474-.004.007.41.137.415.116.668.117 1.308.217 1.842.22.385-.074 1.014-.003 1.415-.206 1.515.232 2.95-2.382 3.747-1.684-1.002 1.82-3.296 3.953-4.049 4.87-.62-.523-1.414-.517-.481.331-.059 1.901-.482 3.782-.594 5.674-.376-1.367.27-3.493.404-5.133.128-1.318-2.617-1.78-3.878-2.758-2.526-1.428-4.149-3.882-6.025-6.002-1.444-2.036-2.841-4.477-2.602-7.051.346-2.113 2.63-2.657 4.412-2.965.892-.167 3.8-.495 1.389-.331-1.684.174-3.357.6-4.873 1.363 2.753-4.253 7.09-7.202 11.565-9.402.313-.089.64-.103.956-.176zm.22.848c-.993-.127-3.859 1.287-3.174 1.156 1.029-.456 2.061-.942 3.174-1.156Zm-2.093.946c-2.342 1.484-4.016 4.039-4.282 6.815-.805-.066-2.351.337-.661.168 4.747.02 9.778 2.226 12.266 6.399 1.63 2.99 1.383 7.06-1.121 9.507.681-.011 2.39-2.58 2.625-4.284.658-4.59-2.498-9.078-6.659-10.812-1.227-.736-4.675-1.403-4.737-1.303 4.553.744 9.37 3.26 10.856 7.925.797 2.237.72 4.918-.707 6.89 2.224-4.15.095-9.532-3.833-11.812-2.274-1.533-4.96-2.41-7.684-2.658-.187-2.63 1.624-5.018 3.649-6.51zm7.261 1.785c2.169 1.963 2.408 5.038 2.785 7.743 1.033 2.541-.35-1.523-.223-2.333-.277-1.976-.822-4.21-2.562-5.41zm-18.978 4.112c-.09.205.254.054 0 0zm7.298 1.938c.117.912-1.782.559-.3.371zm1.016.428c.293 1.506 4.074.39 1.585 1.053-.656-.046-1.322-.432-1.585-1.053zm3.326.63c-.082 1.68-4.756 1.586-1.745 1.239.706-.178 1.388-.585 1.745-1.24zm-3.501.26c.613.485 2.618.82.697.498l-.384-.21Zm4.064.06c.149 2.182-3.997 1.91-3.637 1.483 1.343.65 3.206.005 3.637-1.483zm-7.04.243.237.066zm7.851.101c-1.294 1.373 1.107 1.59 1.488.946-.795 1.05-3.038.258-1.488-.946zm-5.439.467c-.33.985-3.432 2.007-2.901 1.548 1.117-.137 2.073-.83 2.901-1.548zm-1.828.542c-.574.86-3.08.642-.905.427.32-.103.614-.264.905-.427zm6.376.129c.631 1.72 2.938-.455 2.264 1.238 1.35.63 2.582 1.615 2.958 3.103.74-1.145 2.126-.138 1.01.811-1.247-.295 1.118 1.132-.515.766-.617 4.197-6.87 6.232-9.604 2.838-.653-1.23-1.981-4.11-1.286-4.615 1.607-.077.748-1.29-.362-.624-1.047-.48-1.393-3.653.329-2.09 1.331.796 3.88-.608 5.206-1.427zm2.894.333c.481.22-.341.786 0 0zm-7.166.011c.84.67.11.76 0 0zm3.128.005c-.78.79-3.309.282-1.073.265.367-.04.731-.122 1.073-.265zm-4.411.133c.94.079-.841.49 0 0zm8.04.172c1.377.563.267.997 0 0zm2.207 1.409c.137.466-.043 1.283 0 0zm-2.344.612c-.888-.104-4.714.132-2.28.79.47-.268 3.546.328 2.28-.79zm-.626 2.08c-.33.65-2.205-.092-.864 1.207.874.67 2.255-1.145.864-1.208zm-5.03.464c-1.23.046-1.06 1.624.175 1.175.392-.31.349-1.023-.176-1.175zm1.24.913c-1.56.984 1.19 2.446.869.884-1.025 1.029-1.326-.376-.565-.796zm2.08 2.213c-.764.336-2.796.265-.799.35.36.03 1.937-.028.8-.35zm-.288 1.094c-.1.806.935.011 0 0zm-1.843 1.229c.089.056.03-.008 0 0zm12.607.038c3.162.895-.748.386 0 0zm-4.012.038c-.687 1.373-3.451 2.993-3.642 3.408 1.32-.983 3-1.802 3.642-3.408zm-7.843.082c.06.03.013-.002 0 0zm.478.097c.022.014.008 0 0 0zm11.327.236c-3.224 1.128-4.054 5.275-3.134 8.224-.522-.423-.69-3.572.004-5.002.526-1.411 1.549-2.947 3.13-3.222zm6.117.347c-.682 1.109-1.59 1.068 0 0zm-3.774.272c1.94-.005 3.39 3.439 3.178 3.778-.302-1.712-1.574-3.148-3.178-3.778zm-1 .148c2.367.499 3.434 2.997 3.477 5.196.366 3.024-.05 6.078-.682 9.036-.888.916.32-2.4.148-3.229.35-2.929.766-6.054-.39-8.85-.563-1-1.642-1.598-2.552-2.153zm-14.162.004c.01.011.054.034 0 0zm.072.043c.072.124.212.099 0 0zm.099.07c.044.042.046.03 0 0zm13.4.08c1.86 1.146-.835.161-1.031.81 2.515-.939 3.044 2.109 3.322 3.893.266 1.948.152 3.92.295 5.877-.06-.874-.653-4.104-.599-3.375.387 3.155 1.218 6.793-.73 9.605-1.595 2.094-4.581 1.795-6.817 1.114-2.134.009-.222-1.764-.45-2.211.205 1.62-3.468 2.31-1.04 1.29 1.316-.98.242-4.33.02-4.236.719 1.507.859 4.346-1.35 4.54.093-.463 1.769-3.09.5-1.303-.714 1.05-.41.101-.502.341-1.826 1.921-.112-1.438.104-2.249.352-1.211.027-2.865-1.27-3.363 1.134-.838 3.959 3.332 2.388 1.027.672-.687 2.327 2.396 1.685 3.734.218-.343.238-3.663-1.336-4.411 2.404-.362 3.035 2.936 3.964 4.622 1.61 2.346-.656-1.342-.938-2.312-.497-1.073-1.826-2.655-.254-1.04.76.722 2.006 3.453 1.067 1.209-.247-1.029-2.769-2.733-.497-1.882 1.641.376 2.534 3.444 2.867 3.801-.47-1.319-.896-2.73-2.052-3.613 1.416.14 2.624 3.07 2.965 2.757-.514-1.693-1.9-3.377-3.785-3.458 1.467-1.246 3.631 1.648 3.943 1.545-.599-1.035-2.187-1.737-2.852-2.095 1.188-.279 3.298 1.5 3.327 1.45-.773-1.345-3.468-1.824-3.96-1.62.74-.897 5.048.455 2.64-.388-1.05-.27-2.597-.177-.657-.549 1.157-.063 2.796.417.824-.235-1.11-.57-3.207 1.09-3.213.906.25-1.617 3.78-2.572 3.54-2.583-1.131-.326-3.585 2.138-2.181.313-.641.601-1.65 2.303-.918.422.303-1.243 1.226-1.687 2.02-2.95-1.1.542-2.914 3.853-1.916 1.106.17-1.003 3.092-3.2.956-1.706-.834.529-1.545 2.447-.97.492.486-1.548 1.558-3.003 3.104-3.611-1.488-.316-3.254 3.994-2.486 1.18.399-1.126.97-2.582 2.272-2.845zm-2.888.045c-2.408 2.744-1.87 6.714-1.029 9.964-.108 1.254-1.186-1.87-1.318-2.618-.497-2.17-.3-4.616 1.044-6.456.452-.27.87-.593 1.303-.89Zm5.926.134c1.059.845 1.398 1.423.206.22zm-16.862.308c2.139.57-.36 1.542 0 0zm-.392.38c1.611 1.39-.097 3.402.044 5.159-.159 2.826.37-1.087.478-2.1.046-.835.873-3.45.507-1.19-.445 1.492-.452 5.009-1.203 5.222-.142-1.628-.155-5.093-.373-5.58.107 1.272.116 2.406-.151.517-.533-1.126.305 3.864-.375 1.202-.415-.799.62 2.676-.013 1.871.482 1.473-.064.705-.447-.152.414 1.212.787 2.433.358 1.828.93 2.026-.672-.016-1.012-.1 1.586 1.72-1.735-.095-.184-1.085.649-1.906.694-4.215 2.371-5.593zm3.4.039c.008.011.044.006 0 0zm-.186.007c-.053 0-.153.092 0 0zm.367.029c.017.008.036.005 0 0zm-2.125.095c1.139.47 2.777 1.896.567.902-.381-.094-.818-.467-.567-.902zm1.562.284c.01.011.03.003 0 0zm.035.009v.001zM42 30.696c.462.263.442.638 0 0zm-14.782.022c.012.015.062.021 0 0zm.093.047c.02.014.05.015 0 0zm.309.048c.017.033.135.06 0 0zm.354.124c.032.015.012 0 0 0zm14.29.215c.628 1.297.262 1.254 0 0zm-1.19.267c1.074 2.344.886 5.227.667 7.62-.197-2.539-.46-5.079-.668-7.62zm.054.242c.07 1.423.44.74 0 0zm-1.056.774c.307 1.158.533 3.711.632 4.03-.003-1.363-.155-2.745-.632-4.03zm-31.217 2.06c1.936-.216 2.28 2.205 2.925 3.553.441 1.508 1.077 2.998 1.481 4.487-.366-1.968-3.922-1.292-4.01-2.666 1.344 1.442 2.898-.496.808-1.042-.072-1.232-.712-4.283-2.472-2.844-.327.943-1.821-2.353.177-1.453.364-.015.727-.037 1.091-.035zm33.277.473c.244 1.439-.174 1.594 0 0zm-27.077.02c1.583.302 3.833-.556 4.744 1.226.74.867 2.339 3.263 2.14 3.422-1.24-1.357-1.796-4.134-3.957-4.09-.61-.266-3.668.449-2.927-.558zm1.236.824c2.78.154-1.135.342 0 0zm2.306.091c1.176.163-.247.885 0 0zm-2.301.189c1.394-.016 1.702.508.101.29-.25.163-.736-.511-.101-.29zm-8.484.288c1.132.356-.539 2.078-.584 2.424-.54-.862-.114-1.822.584-2.424Zm38.697.07c.003 1.045.579.377 0 0zm-.153.068c-.036 1.064-.065 2.986.319 3.707.128-1.206.13-2.554-.32-3.707zm-37.685.533c.817.349-.734.52 0 0zm25.515.329c.336.946.257 1.795.008.348zm-3.59.014c.087.922-.5 1.749-.097.356zm-9.723.095c2.505 1.09 4.996 2.286 7.143 3.972 1.47.91.05 3.6-.99 1.932.156-.58-2.774.82-3.75-.106-1.184-.957-1.899 1.55-2.822 1.347.312-.928-1.337-3.116.213-1.543.514 1.048-.675-1.426.394-.19.67.761.896.491.048-.066 3.013-.184-1.304-.72-2.207-1.049-1.213-.064-1.657-1.633-.039-.816.959.521 4.26.35 1.48.005-1.102-.128-4.25-.581-3.159-1.965 1.889 1.193 5.7 1.245 6.988.832-1.22-.565-2.755-.969-3.299-2.353zm-.01 5.947c.042.829.317.666 0 0zm-12.56-5.872c1.262 1.482-.506.362 0 0zm7.934.057c.947-.192 4.654.835 2.249 1.185-.476-.332-3.325-.076-2.249-1.185zm-8.244.482c.618.245-.168 1.237 0 0zm25.912.034c.302 1.127.505.748 0 0zm-25.051.642c1.382 1.015-2.753 1.378-.08 1.826.827.265 4.576.46 3.195 1.56-1.22.15-4.716-1.458-2.478.41.841 1.112 4.467-.568 3.606 1.04-1.237.587-3.05.037-4.046.086.812 1.387 3.408.11 3.723.55-1.31.99-3.607 1.389-4.532-.3-.363-1.56-.941-2.778-.948-4.5.24-.538 1.048-.586 1.56-.672Zm.921.495c1.321.434.08 1.068 0 0zm3.323.793c3.587-.21 2.845 6.106.888 5.688 1.397-.005 1.357-3.727.954-1.218-.096 1.652-3.943 1.445-1.44.884 1.574-1.078 1.653-4.042-.064-4.993-.183.109-.32.692-.48-.19zm14.675.032c2.688.217 2.608 4.13.872 5.475-.826 1.011-2.72-.914-.994-.062 1.727-.766 1.917-3.95.318-5.02-.467-.175-.8-.131-.196-.393zm1.958.45c1.214.971.763 3.928.701 4.213.529-1.376.412-3.15-.701-4.213zm12.712.567c1.578.32-.164.299-.118 1.418.006-.58.533-1.11.118-1.418zm-25.211.075c1.333.982 4.037 1.669 2.879 3.927-.372-.652-.456-2.467-1.68-2.972 2.059 1.455 1.346 4.448-1.426 4.097-.789-.322-3.591.713-1.818-.754 1.133-.944.198-4.053.552-3.854.905.63.89 4.325.831 1.718-.158-.947-1.094-2.412.207-1.088 1.106.676.45 4.579.798 1.884.388-1.256-1.88-2.916-1.606-2.903 1.952-.004 3.068 3.181 2.981 3.699.715-1.594-2.192-3.375-1.718-3.754zm-4.017.013c1.645.21 1.008 4.462.457 1.513-.168-.5-.327-1.002-.457-1.513zm23.544.244c1.227.981 1.15 1.474 0 0zm1.47.617c.546.81 1.844 2.825.759.889a4.482 4.482 0 0 0-.76-.89zm-25.335.04c.265 1.346-3.48.393-.796.278.275-.042.586-.07.796-.278zm10.05 1.445c1.262.169-.229 3.666.006 1.352-.013-.45-.01-.9-.006-1.352zm-.321.203c-.2 1.26-1.78 1.351-.23.22zm-9 .006c1.065 1.04-.94 1.09 0 0zm10.023.131c.308 1.053-.685 3.716-.143 1.275.054-.424.096-.85.143-1.275zm-5.315.448c-.256.664-.527 1.838-.05.395zm24.526.157c-.24 1.452-3.469 1.64-1.486.2.477-.23 1.01.03 1.486-.2zm-15.652.005c.73.229.2.962 0 0zm-4.684.01c.501 1.464.005 2.884-1.691 2.07-1.142-.07-3.256-.094-1.074-.619 1.024-.945 1.371.587 1.496-.91.447 1.81.362-.68 1.27-.54zm-6.324 1.986c3.3.371 6.607.69 9.921.911-1.276 1.625-4.185.953-6.162.863-2.276-.222-4.54-.55-6.813-.801 1.6-1.218 5.148.427 7.458.347.897.396 4.641-.571 1.87-.233-2.667.477-5.39-.504-8.07-.672.536-.26 1.224-.211 1.796-.415zm-.239.434c-.57.117 1.905.119 0 0zm.973.127c1.343.265 3.705.55 4.581.525-1.508-.28-3.056-.351-4.581-.525zm30.831.407c-5.394 2.508-11.505 1.702-17.263 2.244-5.285.42-10.603.603-15.879-.038-1.762-.112-3.07-.102-3.503-.25-1.86-.025-3.712-.227-5.548-.51 4.299.907 8.729.83 13.093 1.18 5.696.43 11.358-.472 17.048-.515 3.947-.199 8.097-.189 11.744-1.887zm-3.372.762c-2.001.255-6.425.39-6.896.58 2.276-.18 4.753-.169 6.896-.58zm-38.56.047-.116.075zm2.936.632c1.742.317 3.696.248 5.523.455 5.783.433 11.592.345 17.365-.173.927-.064 4.034-.216 3.484-.257-5.944.094-11.873 1.029-17.822.466a653.181 653.181 0 0 1-8.55-.49z"/></svg>