<svg xmlns="http://www.w3.org/2000/svg" width="200" height="200.087" viewBox="0 0 52.917 52.94"><path d="M6.124 52.869c.218-2.016 3.348-5.637-.5-5.681-2.513-1.2-3.036-5.025-1.037-6.92 1.357-2.43-1.864-5.667.01-7.503 3.63.033 1.343-4.193 3.726-5.668 2.471-1.651 2.974 2.117 4.704 2.984 2.38 1.655 5.583.822 7.611-1.001 1.78-1.972 5.348-3.791 6.672-.615 1.045-2.557 3.288-.813 3.808 1.09 1.643 2.1 4.9 2.72 7.364 1.748 2.66-1.008 4.222-3.67 6.76-4.848 2.269-.759 3.7 1.676 3.984 3.568.739 5.393 1.35 10.909.402 16.321-.871 2.212-5.483 2.652-3.507 5.704-.461 2.366-1.503-2.96-1.008-.363.172 2.585-3.454.668-5.064 1.227-2.726-.02-5.469.097-8.173-.131-1.464.056-4.92 1.026-3.554-1.592.536-2.111-2.32-.083-2.99-1.864-.74-1.497-2.702-1.112-1.556.585 1.192 1.66.255 4.183-2.017 3-4.818 0-9.637.044-14.456-.036.17-1.282 1.535-3.933 1.085-4.306-.873 1.34-.5 3.658-2.264 4.3zm32.026-2.63c1.792-1.057-.24-5.336 1.423-5.174.678.718 2.812 2.39 1.506.23.496.94 2.352.648.798-.596-.769-1.673-5.264-2.874-3.776.15 1.14 1.706-.144 4.808-.38 5.372l.231-.029zm-9.496-1.417c-2.365-.921-.728-4.245-1.123-5.387-1.14 1.028-.934 5.312 1.123 5.387zm.756-2.257c1.141-.661-3.002.357-.483.099.165-.007.322-.068.483-.1zm-4.376-.383c-.022-2.257-.865-.782 0 0zm8.032.057c-.984-.72-3.142-.552-.91-.033.28.082.648.32.91.033zm-27.072-.484c-2.655-.86-.591-5.094-.602-5.347-2.364 1.283-.66 5.235.602 5.347zm1.602-.303c1.567.058 2.212-3.937 1.2-.85-.967 2.118-4.622-.436-2.834-1.055-.533-.776-.287-3.91-.636-1.555-.33 1.455.026 4.55 2.27 3.46zm10.909-.183c.154-.997-.781.935 0 0zm14.767.044c-.964-.468-4.864-1.044-1.908-.22.613.186 1.265.35 1.908.22zm14.367-.49c-1.112-1.251.178.529 0 0zm-3.98.136c-.756-1.346 2.502.456.597-1.144-.948-1.207-4.028.12-1.347.605.226.146.375.801.75.539zm-9.321-.121c-.967-1.322-4.328-1.337-4.719-1.07 1.532.53 3.183.562 4.719 1.07zm-7.519-.517c1.499-1.089.254-2.179-.713-.739-.905.931.194-.184.148.869.191.178.452.048.565-.13zm19.583.34c-.486-1.01-3.943-1.86-1.4-.525.442.235.933.35 1.4.525zm-28.531-.352c-.815-.819-1.392-1.178-.357-.077-.012.017 1.141.412.357.077zm1.756-.478c-1.267-1.543 1.686-3.495 1.097-.765 1.642 2.547-.102-3.152.991-.624 1.637 2.24.665-1.08-.593-1.297-2.624-3.079-2.48 3.662-1.495 2.686zm.82.1c.514-1.935-.35-.977 0 0zm-12.87.298c2.01.198 1.368-4.987 1.324-1.472.06.601-2.864 1.8-1.324 1.472zm29.983-.183c-.47-.78-.54-.109 0 .002zm11.425-.44c.21-1.795-4.585-1.782-3.422-1.314 1.224.184 2.315.802 3.422 1.314zm-1.953.034c-.493-.886-3.793-1.047-1.353-.373.414.157.889.692 1.353.373zm-5.889-.118c-.399-1.187-.311.307 0 0zm-4.307-.097c.018-1.38-3.244-2.952-2.81-1.966.997.564 1.913 1.257 2.81 1.966zm-2.523-.303c-.558-.989-3.704-.767-1.245-.096.368.19.87.403 1.245.096zm-16.44-.127c-.656-.675-.536.213 0 0zm7.247.008c1.67-.309.423-.787-.262.038.039.044.37.147.262-.038zm3.35-.229c.562-.84.742-1.332-.164-.33l.02.212zm5.16-.455c-.607-2.545-3.161-3.971-5.56-2.872-.767 1.23 2.367-.598 3.055.475 1.013.498 2.16 1.362 2.506 2.397zm-5.736-2.64c1.249-.344 4.685.112 1.468.04-.49.014-.982.033-1.468-.04zm3.513 2.644c-.899-1.007-.672.363 0 0zm-24.147-.11c-.57-.672-1.583-1.863-.78-.28.156.203.505.484.78.28zm2.27-1.26c.903-.312-1.216-.498-.15.531.002 1.212.046-.112.15-.532zm18.57.638c-.913-1.776-.164.455.075.202l-.047-.127zm-9.775-1.275c-.842-.988-3.368-3.69-3.73-3.236 2.097 2.477-4.026.917-3.744 1.008 2.188.984 4.592 1.584 6.59 2.344.444.417 1.264 1.074.884-.116zm-7.251.718c2.16-.01-2.04-2.043-.372-.056zm19.243-.124c-.156-.803-1.603-.573-.201-.242-1.389.62-1 .317.2.242zm2.725.092c1.127-.1-.612-.341 0 0zm-4.103-.495c-.611-.5-.889.43 0 0zm17.07-.34c.447-.51-1.218.834 0 0zm-31.677.077c-.851-.52-4.567-1.586-1.862-.463.592.244 1.215.448 1.862.463zm12.023-.106c-.702-1.312-1.107.432 0 0zm-19.657-.196c-2.675-1.456 1.667-3.93 1.516-3.659-2.155.114-4.583 2.285-1.516 3.66zm2.751-.265c1.05-.779-2.893.418-.478.076zM7.773 38.51c1.133-.282 1.621-.95.172-.395-.884.16-1.764 1.061-.172.395zm15.516-.377c1.287-1.743-.12-.526-.313.468l.111-.144Zm-9.127-.152c-.21-1.67-4.744-2.224-1.637-.963.548.317 1.062.695 1.637.963zm30.623-.553c.629-.812 2.294-4.509.883-1.787-.26.592-.76 1.185-.883 1.787zm-28.606-.353c-1.13-1.232.324.708 0 0zm19.34-.196c-.134-1.24 1.389-5.339-.781-4.24-.468.955-1.1 6.27.78 4.24zm-.74-.712c-.344-1.429 1.436.335 0 0zm.313-2.213c-.621-1.246 1.345.118 0 0zm-1.141 2.098c-.107.793.074 1.415 0 0zm-20.508.594c-.7-1.128-.283-3.31-2.029-3.471 1.49.532 1.1 2.473 2.029 3.471zm9.774-.323c.697-.91 1.539-2.783 1.128-3.605-.412 1.19-.885 2.366-1.128 3.605zm-17.33.246c-.78-.564-1.002-5.098-1.29-2.317.273.85.81 1.576 1.29 2.317zm39.956-.143c.771-.913 1.267-3.064.357-.922.087.09-.867.976-.357.922zm-30.935-.425c-.514-.783-1.714-.314 0 0zm19.122-.983c-.054-1.728-.108 1.588 0 0zm-8.981-.119c-.215-.886-.157 1.539 0 0zm-10.86-1.396c.705 3.133 1.15-3.072-.045-.844-.1 1.062-.26 3.53.016 1.098l.016-.135zm9.327.43c.217-1.768 2.342-5.296.503-6.06-.865.823-1.445 4.503.052 1.886.095 1.41-2.133 4.192-1.026 5.05.216-.26.443-.526.471-.876zm22.478.534c.711-.439 1.859-3.552.308-2.184a24.955 24.955 0 0 0-.308 2.184zm-32.765.095c.255-.782-.889-.605 0 0zm22.944-.939c.204-2.447-.35 2.18 0 0zm-24.529.208c-1.398-.342-4.78-.337-5.007.043 1.67.004 3.341.092 5.007-.043zm35.756-.5c-.624-.497-.433.49 0 0zm.142-.47c.369-.804-.571.269 0 0zm-39.64-.392c.195-1.158.948-4.497 1.362-4.03.171 1.952.774-3.101-.409-.966-.813 1.312-2.092 3.963-.952 4.996zm.27-.38c-.096-1.473-.127 1.857 0 0zm40.542-.511c.382-2.255-2.456-6.903-4.281-3.65.717.39 1.83-2.048 2.608-.016 1.138 1.052.128 4.718 1.778 4.308l-.028-.273zm-3.474-.003c.35-1.941 1.364 1.636 1.64-.867.738-1.514-1.37-3.643-1.933-1.282-.901 1.263.07 1.946.61.406.994-1.261-1.294 3.2-.317 1.743zm-14.93.136c-.197-1.024-.035 1.495 0 0zm-2.829-.982c.77-1.285-.5-2.005-.067-.225.01.081-.17 1.56.067.225zm-.27.017c-.104-1.35-.076 1.437 0 0zm2.061-.75c-.092-1.461-.026 1.603-.004.37zm-6.856-.388c.06-1.676-.672 1.698 0 0zm21.4-.205c.158-.86-.801 1.442 0 0zm1.071-.207c.26-1.065-.72 1.43 0 0zm-.515-.21.218-.282zm.874-.397c1.091-.81.63-1.44 0 0zm1.271-.68c.244-.795-.424.465 0 0zm-12.182 3.2c-2.795-.934-5.277-4.213-3.328-7.006-.292-2.675-3.584-4.027-3.356-7.032-1.213-2.521-1.999-5.947.503-7.985.632-.85 3.549-2.395 3.29-1.926-.988.593-3.314 2.403-.765 1.348 3.982-.625 7.707 3.103 7.688 7.005.453-.386-.324-3.504-1.001-4.355 1.478 1.664 1.267 3.938 1.647 5.962.766-2.971.843-6.913-1.991-8.852 1.887.974 2.97 3.316 3.28 5.397.42.972-.549 3.888-.138 3.78 1.308-1.964.65-4.342.144-6.448.25 1.377.922 1.901.842.157.543-2.919-2.08-5.63-4.976-5.508-3.193-.169-6.241 1.41-8.502 3.57 2.31-3.977 8.195-5.656 12.068-3.052 2.317 2.276 4.994 4.873 5.048 8.355-1.414 2.308-2.382 4.894-1.85 7.565.94 1.557 5.551 3.233 1.717 4.178-2.632 1.623-4.542 4.655-7.897 4.878a9.094 9.094 0 0 1-2.423-.031zm3.148-.756c3.133-.841 5.297-3.412 7.792-5.304-2.931-.322-4.622 2.808-7.212 3.672-1.368 1.24 4.365-2.094 1.765-.34-2.19 1.002-5.097 1.979-7.132.115-.805-.72-1.309-3.043-2.052-2.997-.856 1.146.758 1.889.5 1.331.102 2.924 3.861 4.344 6.339 3.523zm-5.674-2.22c-.14-1.096.754-.554 0 0zm-.586-1.03c.244-1.615-.108 1.83 0 0zm6.438 1.52c1.928-.67 4.542-2.887 5.438-3.576-1.135 1.224 1.835-1.418-.31-.423-2.217 1.127-3.905 3.217-6.479 3.714-1.01.242-2.238.403-.498.533.623.047 1.268-.002 1.85-.247zm1.087-.732c.876-.81 1.94-.964 0 0zm-6.02.25c-.2-1.254-.849.377 0 0zm3.438-.17c2.37-1.192 5.047-2.73 5.79-5.477.643-.942.39-4.364-.219-1.683.074 1.228-2.145 3.908-.955 1.304.12-1.281-.936 2.032-1.657 2.168-1.181 1.951-5.226 1.313-5.59 1.358 2.021 1.792 5.424.483 6.893-1.444.546-.72 1.52-1.938.496-.397-1.473 2.388-4.868 4.705-7.578 2.935-.81-.658-1.446-4.378-1.444-1.659-.04 2.106 2.372 3.5 4.264 2.895zm8.414-2.295c2.077-1.065-1.656.918 0 0zm-2.932-.769c.15-.937 3.01-1.581.88-1.841-.876.174-2.583 3.82-.88 1.841zm-3.848.256c2.086-1.273-1.513-.153-.372.108zm-.08-.647c1.292.399 2.194-3.057.862-1.028-.909.556-3.905 1.403-1.136 1.113zm-.583-.577c1.439-.086 3.506-2.691 2.554-3.308-.83.732-3.214 2.486-2.554 3.308zm-2.612-.537c1.161-.066 3.9-3.197 2.305-2.968-1.708 1.688-6.06 2.477-6.73-.438.92-.979.836-1.236-.335-1.559-.642-1.397 2.575-.362.336-1.09-2.317-.965-.533 4.225 1.017 4.815.93.778 2.102 1.837 3.407 1.24zm-1.3-.41c-.197-1.615 1.495.877 0 0zm.473-1.048c1.003-.945-2.45.348-.238.113l.122-.058zm.443-.889c.625-1.972 5.62-1.648 3.014-4.443-.926-.958-3.88.875-1.245.518 2.086 1.123-2.425 2.807-2.462.438-1.745-1.827 2.294-2.494 1.905-2.138-1.84-1.153-5.175-2.303-6.17.285 2.55-.808 2.837 1.755 3.04 3.67.493.804 2.272.433.546 1.46-.938.495 1.171.532 1.372.21zm7.41-2.726c1.98-1.983 3.41-5.257 1.257-7.667-.48-1.115-1.953-2.377-.982-.316.536 1.317-.671 5.033.242 4.71.296-1.132.647-3.886.544-1.116.306 1.704-1.553 4.597-1.67 5.066.214-.215.431-.43.608-.677zm-12.816.124c-.478-1.706.086 1.09 0 0zm9.553.195c.296-3.74-1.01-8.285-4.896-9.653-2.916-1.18-6.79 1.248-6.336 4.55.079 1.129 1.384 3.305.403.939-.928-2.75 1.639-5.738 4.488-5.337 3.444.273 5.88 3.658 5.936 6.961.104.85.168 1.712.405 2.54zm-2.45-1.168c-.688-1.056-2.302.679-.477.124zm1.25-2.236c-.93-2.57-2.955-5.542-6.08-5.078-1.67.293-3.56 2.024-2.805 3.839 1.719-2.99 5.225-.533 7.254.74.482.126 1.149.713 1.632.499zM15.732 30.52c-3.053-.213-4.454-3.335-5.807-5.639-.518-1.17 2.667-3.057.047-3.907C6.662 16.613 6.908 9.466 11.323 5.94c3.026-2.08 7.381-2.32 10.545-.43 2.966 2.208 3.092 6.225 3.354 9.577 1.008 2.639-.891 4.594-.83 7.08.156 1.418 3.545 4.176.319 3.962-2.483.374-4.237 3.016-6.637 3.957-.721.35-1.539.565-2.343.436zm-.47-2.27c1.49-.053-1.697-.37 0 0zm1.2-1.61c-.853-.29-.702.218 0 0zm-.609-3.05c2.783-.675 4.771-4.194 3.069-6.743-1.735-1.7-4.387-4.468-6.949-2.688-2.697 1.859-1.798 6.063.316 8.027.925.894 2.211 1.775 3.564 1.404zm-1.51-.991c-1.965-.82-3.21-2.343-3.505-4.357-1.109-2.202 1.686-3.175 2.35-.848.77 1.687-2.522 2.22-.175 2.718 1.365 2.835 3.477.456 5.143-.479 1.478 1.886-3.665 2.283-3.392 2.541 1.734-.164.374.954-.42.425zm1.213-.797c-1.565-.757-1.52.723 0 0zm-3.057-3.674c-.51-.994-1.25.607 0 0zm.2-.37c-1.412-1.338-.94.72 0 0zm1.44 3.207c-1.153-.446-.32-1.927.194-.954 1.602-.478 1.15 1.621-.195.954zm2.426-1.84c-2.956-.715.07-5.33 1.748-2.748-1.284-.535-2.835 1.797-.694 1.168 2.265-.153-.341 1.553-1.054 1.58zm.903-1.276c-1.289-.666-1.36.554 0 0zm3.384 3.988c.94-.749 2.32-3.812.79-1.196-.198.378-.822.794-.79 1.196zM10.613 20.55c-2.438-4.152-2.732-10.301 1.198-13.659 2.813-2.147 7.001-1.92 9.889-.058 1.898 1.629 2.031 4.288 2.739 6.518-.025-3.072-.997-6.826-4.258-7.904-4.474-1.859-10.585.693-11.394 5.733-.757 3.247-.228 6.897 1.874 9.552l-.035-.131-.013-.051Zm11.606-5.827c.737-.802-.434-5.127-.03-2.251.145.56-.49 4.538.03 2.251zm-11.435-.562c.847-.68 2.428-2.769.37-1.316-.615.433-1.445 3.134-.37 1.316zm6.717-.549c-.25-1.2-4.148-1.8-1.536-.657.505.176.938.91 1.536.657zm-6.985-1.145c.667-1.52-1.067 1.503 0 0zm-.095-2.672c.526-.887 2.838-2.453.693-1.117-.597.39-1.75 2.967-.693 1.117Zm11.586-.063c-.41-1.27-1.12-1.116 0 0z" style="fill:#f4cdb1;stroke-width:1"/><path d="M6.132 52.865c-.185-1.744 3.335-5.105.138-5.427-2.864-.762-3.889-4.929-1.799-6.99 1.046-2.452-.72-5.03-.456-7.396 1.282-.666 3.837-.726 2.815-2.92-.277-3.088 4.099-4.705 4.814-1.246 1.833 2.351 5.575 2.868 7.892.932 1.042-.584 3.928-2.933 3.65-2.489-2.067 2.23-5.082 3.2-7.615 4.259-.57 1.027-.603 3.047-.323.69-.224-2.082-3.36-1.792-4.07-3.694-1.4.845-1.873 4.504.538 4.183 1.702 1.302 1.811 3.493 4.04 4.302 1.324 1.37 5.588 5.257 5.794 1.247.666-2.667-.363-5.23-.06-7.9.338-1.111 1.078-2.081.346-.434-.848 1.192.346 4.838.404 1.659-.167-2.057 1.808-5.9 4.094-3.86.53 2.396 3.367-3.03 3.968.515 1.498 3.369 6.302 4.558 9.261 2.412 2.686-1.042 4.545-5.544 7.857-3.985 2.383 2.006 1.872 5.559 2.446 8.35.283 3.883.453 7.888-.374 11.701-1.447 1.765-5.073 2.37-3.454 5.38-.591 2.04-1.389-3.928-1.088-1.069.79 1.24-.656 2.037-.268.337.287-1.306-1.351-1.87-.57-.16.391 1.321-.403 1.585-.173.033-.762-1.982-.653.295-.475 1.121-.377-.87-.774-2.834-2.572-1.916-2.53 1.51-4.732-.22-5.55-2.67-2.07-2.26-3.252 1.321-2.622 3.094.035 1.148-.658 2.279-.318.397.412-1.374.607-5.65-1.612-4.204-.704 1.554-.595 4.69-.965 5.435.122-.895.418-5.044-.632-2.355.5 1.213-1.657 3.794-.869 1.156.445-2.121-2.843-.71-3.522-2.553-2.45-1.738-.782 1.703-.56 2.826-.108 2.681-.88-1.513-1.499-2.016-1.672-2.245-5.981-1.637-6.173-5.03.066-1.319-1.025-3.62-.922-1.002.039 2.808 0 5.617-.125 8.424l.014-10.195c-3.52-.862-2.082 3.861-2.684 5.812-.097 1.184-.382 5.218-.313 2.12.083-2.716.486-5.41.627-8.122-.97 1.624-.154 3.749-.932 5.351.399-2.012 1.305-6.935-1.754-6.507-.847 2.077 1.144 3.278-.282 5.111-.86 2.415-1.813 4.807-2.39 7.31-1.215-1.297 1.73-4.458.615-4.591-.845 1.464-.485 3.791-2.292 4.574zM39.7 50.158c2.99-.47 6.07-1.163 8.566-2.967 1.706-2.688.975-6.03 1.149-9.035-.2-3.54-.395-7.248-1.848-10.514-2.41-2.665-5.208 1.707-6.466 2.422-1.556 1.659-4.87 1.176-5.296 3.897.5 1.26.122 5.113-1.77 3.511-.681-2.168 1.857-6.092-1.773-6.395-1.396-1.084-3.452-5.621-4.751-2.001-.898 2.87-1.054 6.246-.062 9.052 2.02 1.883.466-.968.408-1.86-.102.93 1.948 3.604 1.157 1.511-1.143-1.714-1.868-5.913-1.68-6.523.253 2.157.738 4.422 2.025 6.214-.006-2.81-2.297-5.282-1.555-8.147-.277 1.897.932 5.275 1.552 5.988-.128-1.603-.83-3.17-.826-4.755.749 2.826.11-3.987.641-.666.113 1.157-.005 4.895.6 4.198.11-1.018.395-5.4.317-2.43-.048 2.443-.21 4.883-.218 7.327 3.196-.431 5.007 3.16 8.064 3.273 2.106.597 5.404 1.291 4.857-2.035-.27-2.75.062-5.49.18-8.238.033-1.326.934-3.26 1.797-3.689-1.03.963-2.239 4.356-1.309 4.54-.034-1.582 2.06-4.728 2.313-4.618-1.02 1.083-2.586 4.987-1.673 5.058.287-.908 2.182-4.755 1.02-1.8-.657 1.226-2.313 4.708-1.696 4.877.256-1.175 2.027-4.24.726-1.413-.532.904-1.28 4.003-.291 3.614.703-1.772 2.484-4.823 3.145-5.482-1.424 2.688-3.085 5.324-3.759 8.328.687-.78.067 1.17.87-.374.544-1.024 3.325-1.54.999-.336-1.535.578-.775 1.629.468.684 1.244-.902 4.666 3.072 2.6 1.097-.827-.853-4.474-.398-3.877-.048 1.491-.61 4.217 1.614 3.961 2.03-.3-1.1-4.174-2.218-3.31-1.208.814.344 2.188 1.997.59.684-.705-.71-2.82-.886-.966-.022-.99-.825-4.24-.55-2.22 1.047.252 1.384-1.568-1.959-2.45-1.853-1.859-.944-2.944.846-1.669 2.273.992 1.785-.247 6.327-1.987 2.823.192 1.724 1.88 2.524 3.447 1.961zm7.737-5.58c-.948-1.219 1.331 1.25 0 0zm-5.7-2.927c.123-1.768-.027 1.933 0 0zm.25-5.684c.01-1.758.05 1.567 0 0zm5.074-1.585c.059-.537.75-1.552.238-.444zM27.868 49.398c1.575.375 3.521-4.522 1.49-1.567-.84.876 1.156-.39-.434.574-2.689-.082-1.163-4.167-1.226-5.111-.177-1.328-3.527 1.152-2.518 2.935-.36.45-.7-2.345.64-2.745.815-.612 2.258-1.464.383-1.097-3.059 1.12-2.442 6.431.722 7.034.309.072.639.074.943-.023zm-1.921-2.821c-.55-1.301.557-2.768.04-.577-.014.182.34 1.658-.04.577zm-1.28-2.667c1.096-1.385 1.664-1.028 0 0zm13.283 4.332c.043-.76-.237-1.947-.846-.642-1.61-1.346-.758.543.403.671zm-15.867-.317c-.99-.133-3.692-1.993-2.882-1.849 1.462 2.192 5.657 1.556 4.704-1.492.539-1.058-1.677-3.15-.616-.972.606.978-.866 4.958-.193 1.88.575-2.36-1.97-5.288-3.913-5.012.054 1.367-.024 4.865-1.664 4.59-.647.165 1.448 2.393 2.698 2.359.61.204 1.236.363 1.866.496zm6.994-1c-.957-.12-1.062.246 0 0zm-21.345-.208c2.595-.087 2.664-5.589 1.8-5.477.64 2.274-2.959 6.302-3.973 2.684.509-.861 2.336 1.675 3.003-.346.787-.839.447-4.125.448-1.307-.598 2.73-4.38 1.761-3.339-.922-.264-.764-1.377 3.06.154 3.548.98 1.856 3.789-.715 3.359-.331-1.497 3.164-6.053.255-4.304-2.606.708-1.202.902-2.395-.214-.68-1.494 2.183.051 6.288 3.066 5.437zm26.759-.03c.904.318 3.37-2.165 2.388-.237.885-.575.936-1.552.76-.115.823-2.193-1.124-4.096-2.917-5.082-.913-.935-2.297.11-.588.502 2.212 2.397-3.538-.617-2.786.932 1.149-.142 3.08 1.662.816 1.202-1.176.038-3.756-.316-2.98-2.074-2.047.271-1.348 5.187.67 3.57-1.52-1.224-1.123-1.753.648-1.132 1.21-.06 4.603 1.377 1.731.722-.982-.607-3.595-.28-1.186.348 1.048.19 3.314.974.92.493-3.232-.704 2.356 1.42 2.524.872zm-5.155-.076c1.682-1.06-2.398.859-1.712-1.007-.159.925.995 1.439 1.712 1.007zm-11.302-2.267c-.94-.9-1.675-1.24-.449-.067-.035.03 1.452.496.449.067zm23.165-.815c-.674-1.373-.168.672 0 0zm-34.24-.268c1.54.48 1.64-2.453.141-1.22-.798-1.15-1.267-1.703-.95.11.094.4.18 1.308.81 1.11zm11.248-.377c1.51-.943-1.646-.011-.963-.1.242.246.679.344.963.1zm5.7-.136c-1.185-1.138-.557-1.03.534-.296.689-2.047-3.993-2.407-1.24-1.276 2.073 1.558-.291-.265-1.085.151.346.608 1.082 1.36 1.79 1.42zm9.71-.46c-.572-2.588-3.21-3.763-5.54-2.903-1.179 1.663 2.87-.729 3.716.748.916.404 1.252 1.644 1.824 2.156zm-3.929-2.685c1.45-.15 1.331.192-.096.06-3.05.017-.28-.03.096-.06zM18.356 42.01c.928-2.568-2.635-4.227-4.297-5.308.717.857 1.505 2.208-.393 1.841-1.136-.237-4.727-.925-2.061.186 1.017.165 3.533 1.57 1.148.846-.967-.492-3.022-.624-1.172.61 1.514 2.029 5.33.6 6.56 2.01l.215-.185zm-5.184-1.36c-1.226-.184-2.711-1.682-.653-.465.4.117 2.085.858.653.466zm14.963 1.446c-1.116-1.82-.874-6.072-1.722-6.635-.007 2.283-1.156 4.728-1.095 6.7.728-.378.076-1.32 1.2-.349.48.271 1.07.512 1.617.284zM24.82 40.1c.792-3.406 1.2-6.906 1.637-10.355.228-2.157-2.528-3.408-2.994-.82-.584.893-1.34 5.402-.258 2.338.429-1.21 1.248-1.786.464-.11-.634 1.691-1.835 5.3-1.366 6.055.34-1.277 1.746-4.742 1.94-4.407-.694 1.895-1.984 5.03-2.02 6.26.88-.782 1.954-3.518 2.35-3.349-.308 1.643-4.171 4.322-1.046 4.866.638.657 1.34.517 1.293-.478zm-17.437.966c-1.132-.855.225.299 0 0zm22.96-.054c-.165-1.045-1.915-.555-.26-.292-1.715.477-1.021.237.26.292zm-1.335-.49c-.653-.535-.943.378 0 0zM8.48 40.317c1.858-.011 1.233-1.623-.228-.698-1.356.426-1.817-.88-.242-.72 1.986-.801.274-1.32-.745-.464-2.928-.35 3.081-2.184.332-2.091-3.39.156-2.296 4.955.784 3.869-.807.038-.422.484.1.104zm5.713-2.27c.093-1.546-4.722-2.485-2.105-1.074.719.323 1.458.612 2.105 1.073zm21.315-.718c-.205-1.368 1.545-5.722-.789-4.744-.328 1.068-1.375 6.187.79 4.744zm-.629-1.16c-.685-1.074 1.321.01 0 0zm.136-2.282c-.153-1.383 1.282.65 0 0zm-22.027 1.319c.348-1.247-2.33-3.085-.64-1.01.509 1.074 1.342 3.53.64 1.014zm-7.063 1.438c-.828-.834-.66-3.822-1.327-3.434-.522 1.209.762 2.465 1.327 3.434zm3.686-2.73c1.365.34 2.178-.522.314-.274-.886-.222-5.252.204-2.263.286.65-.009 1.3-.018 1.949-.012zm-3.066-.773c-.771-.757-1.185.677 0 0zm3.065-.76c-.398-.78-.678-4.258-.054-1.58.994-1.108 1.172-5.195-.922-3.176-.552 1.466-2.63 5.19.242 5.069.235.014.79.1.734-.314zm.06-2.477c.01-1.758.052 1.567 0 0zM23.054 51.99c-.57-1.808.752 1.788 0 0zm6.055.566c-.109-1.239 1.075-4.258.389-1.308-.035.058-.4 2.257-.389 1.308zm4.102.053c-.21-1.396 1.255.55 0 0zM9.998 50.884c.02-2.025.86-6.362 1.379-6.716-.714 2.179-1.002 4.463-1.379 6.716zm23.368-.534c-.51-1 1.053.128 0 0zm-12.11-.62c-1.024-.222-.6-2.042.319-.965-1.84-1.292.547 2.125-.32.965zm11.957-1.563c-.167-.97.923.29 0 0zM14.695 45.2c.05-2.142.109.514.017.781l-.009-.29zm-.63-10.198c.142-2.095.403-.52 0 0zm.211-2.7c-.457-1.234 1.192.233 0 0zm20.106-1.197c-2.455-.859-5.1-3.677-3.665-6.384 1.109-2.89-3.395-4.171-2.946-7.193-.972-2.484-2.299-5.719-.041-7.929.618-1.06 3.62-2.792 3.517-2.322-.975.6-3.245 2.382-.744 1.281 4.089-.764 7.953 3.088 7.841 7.112.28 2.87.343-1.826-.175-2.59-.327-1.023-1.462-2.99-.159-.978 1 2.067.69 4.429.853 6.642 1.948-3.391 1.29-8.27-1.962-10.631 3.636 2.214 4.382 7.47 2.17 10.96-.783.934-1.415 2.672-.04.962 1.927-2.166 3.417-4.876 3.548-7.825.683 1.604-1.437 5.191-1.142 5.105 2.166-1.641-1.9 2.519-1.565 2.503 2.088-1.743 4.908-4.308 3.888-7.338-.355-1.076-2.006-3.82-2.312-3.198 1.098 3.278.211 6.872-1.861 9.563-.495.737-2.387 3.076-.933 1.186 2.252-3.282 3.56-7.672 2.224-11.545-1.822-3.535-6.7-3.463-9.764-1.721-.985.276-3.31 2.456-3.154 1.986 2.55-3.687 8.336-5.199 12.024-2.373 2.128 2.162 4.571 4.551 4.78 7.766-.946 2.65-2.905 5.341-1.647 8.232 1.086 1.263 5.1 2.997 1.603 3.823-2.525 1.573-4.364 4.347-7.488 4.849a7.196 7.196 0 0 1-2.85.057zm2.248-.55c3.673-.456 5.877-3.836 9.07-5.318-3.187-.998-5.118 2.756-7.843 3.698-2.629 1.269-5.82-.721-6.448-3.396-1.368-1.112-.801 2.918.465 3.337 1.232 1.156 3.037 2.019 4.756 1.68zm-2.242-1.033c-1.772-.94.088-.371.541.161l-.274-.063zm2.991-.334c1.07-.256 4.032-1.795 1.582-.375-.19.075-2.342.735-1.582.375zm-.143-.354c2.434-.899 4.388-2.715 6.538-4.082-1.246-1.03-3.163 1.734-4.617 2.327-1.58 1.144-3.596 1.64-5.491 1.118.708.705 2.66 1.523 3.57.637zm-.189-.828c2.8-1.402 4.71-4.077 5.471-7.014.54-1.376-1.258-3.133-1.315-.768-.49 3.16-3.543 6.356-6.944 5.436-.993-.27-2.849-3.13-2.403-.48-.324 2.902 4.387 3.108 5.191 2.826zm-2.01-.782c-1.08-.105-2.697-2.311-.799-.659 2.357 1.377 4.829-.77 6.333-2.445 1.059-1.25-1.037 1.646-1.661 1.931-1.061.893-2.48 1.429-3.873 1.173zm5.067-3.5c.337-1.092 2.064-2.652.704-.728-.211.263-.43.526-.704.728zm1.044 1.631c.838-.226 3.37-2.555 1.104-2.153-.285.58-3.413 4.062-1.104 2.153zm-4.699.202c-1.074-.122-4.555-1.813-1.95-.178.62.228 1.3.287 1.95.178zm1.363-.366c1.33-1.082 3.352-3.848 2.44-5.033-1.158.558-3.374 1.86-3.507 2.43.801-.43 3.231-2.182 1.326-.475-1.019.527-3.778 2.04-1.026 1.082.89-.267-2.67 1.316-.533.878 1.217.262 3.581-2.257 1.643-.266-.793.946-5.416.283-2.411 1.111.785-.186 3.773-.706 1.498.019-1.13.044-1.885.18-.282.38l.439.008zm-3.302-1.754c2.751-.917 4.839-5.282 2.248-7.365-2.126-1.156-5.243-4.157-7.557-2.42-1.319 1.624.384 2.711 1.718 2.254.109.788-3.154.235-1.927 2.245.147 2.619 2.754 5.77 5.518 5.286zm-1.662-1.213c-2.159-1.33.965-.462 1.68-1.267 1.636-.347-1.31 1.929-1.68 1.267zm1.091-.385c.941-1.021-2.605.6-.301.144zm-3.041-1.053c-.342-.716.485-.507 0 0zm.92-.288c-1.038-1.165 3.46.12.934.109l-.487-.027zm-1.794-2.083c-1.127-1.496 2.65.195.288.064zm4.29-.035c-.769-1.867 4.172-.497.999.027a2.93 2.93 0 0 1-1-.027zm-1.09-2.085c-.259-2.292 4.898.455 1.573-.11-.517.063-1.066.427-1.574.11zm5.128 2.343c.156-3.587-.888-7.945-4.533-9.47-2.916-1.55-7.305.861-6.761 4.352-.151 1.053 1.604 3.868 1.353 3.236-1.59-2.35-1.492-6.481 1.705-7.358 3.593-1.128 7.208 2.113 7.62 5.613.268.608.3 5.972.616 3.627zm-9.555.007c-.433-1.735-.078.993 0 0zm8.6-3.021c-.818-2.342-1.597-5.202-4.468-5.727-2.722-1.058-5.743 1.635-4.856 4.438.334 1.584.265-2.157 1.864-1.735 2.9-.433 4.804 2.439 7.46 3.024zm4.263-1.736c.32-1.401-.104-1.439-.226.036-.297 1.322-.053 1.364.226-.036zM15.376 30.446c-3.068-.414-4.102-3.726-5.74-5.865 1.127-1.22 2.028-2.946.11-3.925-3.07-4.386-2.734-11.34 1.628-14.758 2.788-1.856 6.575-2.13 9.656-.885 3.134 1.62 3.959 5.438 4.06 8.67.173 2.503.89 4.984-.706 7.156-1.1 2.125 2.51 3.39 1.487 5.284-2.86-.579-4.641 2.383-7 3.518-1.065.555-2.261 1.154-3.495.805zm-.114-2.196c.69-.547-2.382-.275 0 0zm1.826-1.696c-1.077-.125-1.799.262-.28.053zm-1.453-2.89c3.327-.618 5.29-5.108 3.148-7.845-2.015-.888-3.67-3.197-6.089-2.707-2.902 1.383-3.07 5.442-1.41 7.862.915 1.433 2.563 2.848 4.35 2.69zm-1.269-1.13c.68-.813 1.449.569 0 0zm-.069-.463c-1.503-.246-1.438-1.52.022-.549.883-.07 3.403-.703 1.264.397-.411.129-.853.273-1.286.152zm1.07-.189c1.355-.816-2.64.189-.188.05l.13-.034zm-1.496-1.26c-1.006-.4.357-.519 0 0zm.478.003c.895-1.303 1.627.44 0 0zm-2.74-1.751c-2.554-1.285 2.852-1.448.818.076l-.412-.005zm1.043-.812c-1.008-1.162-1.57.88 0 0zm4.013.757c-2.818-1.261 3.662-1.868.873-.261-.264.078-.556.431-.873.261zm.87-.963c-1.225-.788-1.836.766 0 0zm-5.822-1.264c-2.29.353.737-1.453.682.087l-.341-.031zm3.666-.138c.44-1.724 4.357.369 1.383-.08-.45.094-.927.229-1.383.08zm5.634 5.218c.977-.85 1.921-3.275.513-.948-.031.068-1.115 1.57-.513.948zm-10.434-1.26c-2.43-4.15-2.673-10.366 1.379-13.605 2.831-2.069 6.968-1.812 9.818.061 1.85 1.37 2.054 5.287 2.734 6.259-.235-3.001-1.138-6.724-4.388-7.745-4.468-1.766-10.591.785-11.343 5.823-.791 3.324-.173 7.066 2.026 9.74l-.113-.266zm11.578-5.295c.411-1.017.237-3.714-.078-3.71.3.54-.28 4.827.078 3.71zm-11.38-.927c.781-.51 2.432-2.9.435-1.379-.81.41-1.533 3.53-.435 1.379zm7.97.91c-1.36-.539-3.895-2.607-4.394-2.382 1.316 1.017 2.68 2.176 4.394 2.383zm-.98-1.263c-.158-1.313-4.403-2.071-1.787-.879.21.024 2.379 1.766 1.786.879zm-7.251-1.37c.667-1.52-1.067 1.503 0 0zm-.128-2.614c.433-.91 3.12-2.564.792-1.257-.619.384-1.918 3.16-.792 1.257Zm11.497-.433c-.942-1.573.341 1.252 0 0zm4.895 19.06c-1.08-1.773-.047-1.714 0 0zm-2.165-1.797c1.104-.081.697.117 0 0zm15.878-14.82c-.597-1.979.648 1.591 0 0z" style="fill:#5ab9c3;stroke-width:1"/><path d="M6.132 52.865c.326-1.89 1.438-3.537 1.86-5.389-1.29.154-2.69-.135-3.539-1.194-1.437-1.472-1.328-3.997-.23-5.636.14-.565 1.5-.87.78-1.372-.76-.544-.525-1.495-.227-2.23-.65-.654-.087-1.551-.56-2.283-.239-.646-1.016-1.544-.136-2.045.746-.216 1.595-.043 2.38-.125.454-1.754.609-3.6 1.413-5.245.504-.477.804-.985 1.627-.823.476.396 1.392.64 1.333 1.306 1.081 1.198 2.073 2.746 3.803 3.032 1.66.375 3.45.087 4.805-1.008.987-.646 1.991-1.255 2.882-2.011.671-.212 1.028-1.083 1.754-1.085-.747.576-1.547 1.076-2.28 1.654-1.048.814-2.22 1.51-3.352 2.215-.887.446-1.89.543-2.87.518-.308.994-.276 2.103-.573 3.066.039-1.006.06-2.015.295-2.997-.651-.061-1.3-.44-1.94-.675-1.05-.624-1.724-1.646-2.536-2.514-.382 1.525-.783 3.06-.888 4.636.962.055 2.41-.332 2.787.872l.825 2.4c1.5-.421 2.312 1.264 3.303 2.068.431.652.945 1.537 1.86 1.35.843.255 1.504.88 2.27 1.299.658-1.77.48-3.742 1.071-5.523-.53-1.06.12-.127-.167-.844-.5-.845-.807-1.831-.492-2.797.186-.966.442-1.929.937-2.787-.406 1.33-1.146 2.724-.7 4.134-.076-.947-.06-1.382.175-.17.17.995.461 1.572.303.225.1-2.13.668-4.488 2.398-5.873 1.06-.608 1.911.75 2.121 1.657.143 1.129.394.219.663-.298.458-.526 1.023-.966 1.618-1.445.781-.624.894.844 1.265 1.285.667 1.63 2.295 2.562 3.78 3.304 1.526.318 3.133.447 4.602-.175.674-.629 1.641-.753 2.276-1.48.557-.416 1.036-.769 1.467-1.167 1.063-.783 1.716-1.915 2.992-2.321 1.096.029 2.432-.045 3.017 1.083.8 1.296.723 2.917 1.186 4.344.662 4.323.69 8.727.437 13.083-.179 1.882-1.528 3.48-3.31 4.065-.897.183-1.471.541-.931 1.49.184.826.409 1.644.555 2.478-1.028.31-.784-.997-1.06-1.632-.075-.363-.47-2.386-.395-1.228.145.95.315 1.898.366 2.86-.785.01-.364-1.345-.617-1.913.192-.658-.531-1.938-.61-.747.107.89.228 1.779.391 2.66-.53-.276-.355-1.372-.572-1.989.167-1.1-.922-1.159-.434-.064.067.628.402 1.635.118 2.053-.381-.39-.198-1.414-.375-2.033.115-1.208-1.056-.373-1.754-.327-1.469.19-3.233.8-4.521-.197-1.077-.802-1.098-2.25-1.396-3.423-.786.321-1.615.574-2.429.184-.305 1.917-.207 3.876-.433 5.796-.44-.285.042-1.442-.071-2.075.073-1.26.106-2.524.228-3.782-.631.225-1.363-.762-1.67-.646-.38 1.226-.794 2.457-.82 3.767-.141.862-.106 1.809-.351 2.621.009-1.447.065-2.904.325-4.33-1.055 1.23-1.25 2.899-1.497 4.445-1.12.326-.507-.896-.44-1.53-.127-.454.877-1.781-.092-1.317-1.686.474-3.468-.815-4.17-2.299-.9.365-.833.781-.426 1.622.339 1.178.759 2.344 1.063 3.524-1.003.303-.86-.968-1.187-1.592-.28-.9-.64-1.81-1.124-2.608-1.946-.19-3.472-1.504-5.186-2.3-.707-.736.065-1.957-.765-2.594-.274-.646-.057-1.344.079-2-1.177-.347-.62 1.05-.75 1.756-.012 2.918-.025 5.836-.142 8.752l.014-10.5a3.698 3.698 0 0 1-1.894-.245c-.702.095-.215 1.467-.437 2.08-.247 2.595-.447 5.39-.697 7.865-.034-3.294.458-6.613.658-9.914-.747.02-.267 1.372-.452 1.943.012 1.284-.272 2.543-.44 3.81.079-1.985.44-3.948.474-5.936-.702-.552-1.538-.917-2.193-1.54-.527.287-.035 1.556-.156 2.234.071.6-.077 1.593.11 1.981.11-.68.782-1.64.369-.41-1.08 3.04-2.311 6.042-3.07 9.183-.983.244-.008-1.112.008-1.64.437-1.306.802-2.64 1.285-3.93-.862 1.067-1.12 2.541-1.715 3.779-.366.527-.18 1.814-.922 1.826-.067-.046-.357.079-.334-.052zm34.08-2.767c2.718-.485 5.496-1.172 7.825-2.7 1.54-1.312 1.112-3.565 1.378-5.365.198-4.091-.178-8.218-1.02-12.226-.183-1.332-.886-2.916-2.38-3.073-1-.157-2.114.404-2.58 1.305-.554.732-1.492 1.017-1.835 1.93-.59.693.896-1.27-.387-.03-.885.823-2.028 1.276-3.07 1.842-.623.139-1.312.237-1.901.362-.354 1.946-.416 3.937-.629 5.89-.671-.074-1.958.358-1.645-.76.077-1.797.133-3.6.457-5.373-1.378-.294-2.57-1.207-3.592-2.144-.817-.71-.981-1.853-1.591-2.657-.64.327-1.481.764-1.572 1.607-.959 2.303-.984 4.885-.765 7.33.142 1.053.473 2.121 1.139 2.962.831.01 1.98.233 1.142-.873-1.055-2.258-2.055-4.676-1.882-7.223.057 2.514 1.128 4.809 2.043 7.097.244-2.855-1.98-5.292-1.665-8.153.165-1.403.139.45.134.97.233 1.807 1.053 3.463 1.604 5.185-.19-2.146-.834-4.222-1.17-6.339.233.734.463 1.47.69 2.205-.074-1.168.068-2.366-.148-3.514.735 1.569.243 3.406.593 5.076.083.536.187 1.808.293 1.886.08-1.867.4-3.712.412-5.584.073 3.013-.224 6.012-.206 9.026-.081.537 1.37.037 1.908.235.88-.034 1.026 1.178 1.48 1.387 1.07.022 1.973.767 2.894 1.23.53.89 1.269.81 2.166.671.744-.083 1.484.181 2.034.645.619-.618 1.007.518 1.58-.132 1.076.175.57-1.003.666-1.678-.106-1.505.121-.549.235-.15.01-1.908-.463-3.83.03-5.722.094-1.808-.333-3.759.723-5.368.378-.78.9-1.507 1.558-2.073-1.228 1.463-2.193 3.303-2.021 5.262-.095 1.483.242-.141.372-.703.628-1.645 1.214-3.499 2.618-4.638.733-.369-.92.696-.897 1.245-.76 1.467-1.433 3.039-1.605 4.69.546-1.64-.228.798.21.065.78-1.28 1.174-2.897 1.953-4.081-.597 1.792-1.46 3.589-2.319 5.306-.36.742-.305 1.56-.334 2.362a15.745 15.745 0 0 1 1.83-4.219c-.652 1.65-1.73 3.34-1.548 5.225-.125.958.114 1.63.36.362a46.049 46.049 0 0 1 3.64-6.397c-1.496 2.93-3.418 5.735-4.112 8.991-.25.828 1.276-1.3.2.173-.478 1.16.29-.159.714-.481.606-.696 1.59-1.2 2.439-1.289-1.048.571-2.155 1.352-2.876 2.2 1.105-.487 2.53-.423 3.737-.094.406.143 1.032.736 1.37 1.25.525 1.096.203.731-.315-.05-1.236-1.347-3.342-1.15-4.936-.67-1.04.775.317.135.83.162 1.272-.212 2.431.546 3.483 1.157.445.313.85 2.06.253.912-.503-1.123-1.811-1.212-2.763-1.788-.336.02-2.23-.069-1.362.212 1.131.302 2.02 1.134 2.878 1.894-1.267-.522-2.22-1.86-3.72-1.724.484.238 1.496.656 1.548 1.03-1.038-.437-2.145-1.299-3.306-.667.205.927.845 1.657 1.547 2.276-.912-.144-1.517-1.205-1.975-1.988-1.026-1.208.822.792.098-.423-.53-.692-.7.641-1.299-.288-.851-.203-1.788-.088-2.67-.173 1.397 1.578 1.213 3.873 1.229 5.845.017.624-.459 1.476-1.134.913-.618-.468-.76-1.524-1.225-2.018.267.877.505 2.52 1.812 2.313-.903.09-1.074.14-.01.337.791-.03 1.581-.04 2.36-.195zm7.223-5.528c-1.138-.945.357-.246.56.428.115.387-.471-.391-.56-.428zm-5.698-2.919c.038-1.47.118-.392.07.414-.195.954-.057-.134-.07-.414zm-12.984-2.946c-.535-.882-.946-1.884-1.044-2.91.31 1.093.878 2.092 1.299 3.135-.166.046-.16-.142-.255-.225zm13.233-2.738c0-1.684.07 1.078 0 .384v-.384zm5.077-1.585c.14-.53.849-2.09.348-.727-.094.233-.225.623-.348.727zM27.868 49.398c1.42-.5 2.604-1.79 2.65-3.337-.45.857-.762 1.836-1.734 2.227-.578.557 1.8-1.085.545-.052-.489.603-1.47.486-1.632-.326-.52-1.429-.457-3.172.321-4.498.756-.977-1.212.616-.515-.292 1.293-.37-.12-.607-.651-.172-.864.603-2.004 1.475-1.646 2.677.05.57.725 1.813-.054.773-.452-1.008-.295-2.341.707-2.97.511-.721 1.374-.946 2.218-.857-1.252-.563-3.204-.287-3.544 1.268-.375 1.22-.283 2.62.11 3.824.495 1.103 1.81 1.804 2.97 1.83.086-.023.168-.073.255-.095zm-1.854-2.666c-.401-.781-.217-1.78.17-2.531-.19.913-.279 1.937-.045 2.788l-.125-.257zm-1.347-2.816c.203-.567.852-1.111 1.446-1.083-.503.277-1.226.799-1.446 1.083zm13.283 4.326c.318-.707-.701-.515-.044-1.554.077-1.105-.053.741-.584.903-.689.229-1.109-.48-1.413-.944.098.96 1.108 1.772 2.041 1.595zm-15.867-.317c-1.303-.495-2.637-1.228-3.617-2.16.842-.57.12.497 1.274.696 1.055.411 2.094 1.325 3.252 1.159 1.18-.609.614-2.122.745-3.19.348-.619.416-1.298-.384-1.635-1.115-1.056-.311-.031-.163.76a4.984 4.984 0 0 1-.13 3.292c-.985.909-.488.447.03-.328.277-.874-.848.264-.06-.895.415-1.21-.078-2.595-.787-3.596-.824-.926-2.22-1.054-2.924-2.137-.314.005.08 1.47-.17 2.033-.218 1.372-.272 3.188-1.722 3.844.596-.189-.025-1.194-.196-1.295.022.683-.105 1.547.76 1.746 1.385.727 2.741 1.783 4.369 1.796-.093-.028-.184-.062-.277-.09zm7.097-1.04c.77-.072-1.647-.044-1.24.104.411-.037.855.075 1.24-.104zm-21.448-.168c1.001-.46 1.964-1.265 2.154-2.418.131-1.29.172-2.63-.05-3.922-1.035-.069-.293 1.169-.52 1.817.102 1.27-.492 2.56-1.677 3.099-.764.603-1.97.148-1.946-.878-.108-.812-.297-1.618.371-.557.793.99 2.713.32 2.874-.922.17-.777.222-1.653.09-2.43-.503.487-.074 1.49-.298 2.17-.056 1.156-1.454 1.929-2.405 1.24-.93-.689-.7-1.948-.607-2.944.347-1.208-.449.395-.378.828-.175 1.322-.39 3.1.963 3.878 1.257.273 2.412-.792 3.07-1.764.149.056-.486 1.281-.964 1.548-.908.755-2.45.663-3.133-.364-.822-.906-.96-2.31-.253-3.33.15-.685.751-1.222.951-1.82-.446.223-1.202.995-1.443 1.663-.825 1.605-.521 3.89 1.154 4.826.557.455 1.393.553 2.047.28zm26.759-.03c.95-.521 2.612-.226 2.795-1.607.19-.095-.168 1.463-.987 1.422.552 0 1.301-.149 1.324-.832.048-1.407.435.233-.03.696-.99.761.45.057.329-.628-.065-.893-.152-1.85-.944-2.407-.444-.842-1.096-1.504-1.987-1.856-.417-.61-1.214-.538-1.72-.754-1.052-.076.319.907.687 1.086.39.253 1.926 1.09.769.902-1.36.288-2.61-.78-3.92-.61-.675.571.822.598 1.183.822.527.325 1.657.34 1.703 1.017-1.543-.014-3.226-.374-4.811-.615-.462-.723 1.235-1.014.529-1.648-.665-.128-1.6.714-.889 1.242-.584.832-.817 2.008-.015 2.781.303.718 2.092-.233 1.26-.429-.77-.236-.369-1.032-1.23-1.295-.466-.436.788.483 1.315.075 1.395.499 2.926.531 4.286 1.129-.608.229-1.076-.336-1.835-.186a6.904 6.904 0 0 1-2.472-.709c-.964.454.668.85 1.112 1.02.941.364 2.084.256 2.915.861-1.153-.155-2.376-.396-3.458-.727.873.868 2.4.761 3.465 1.416.231.041.417-.092.626-.165zm-5.2-.042c.614-.009 1.42-1.367.441-.445-.704.704-2.05.365-2.127-.703-.187.174.366 1.58 1.228 1.218.16.021.308-.023.458-.07zm-11.139-2.263a1.73 1.73 0 0 1-1.323-1.628c-.256.872.327 1.457 1.124 1.7.298.126.793.038.2-.072zm-9.831-2.146c.628-1.19-.165-.13-.847-.206-1.035.063-1.3-1.144-1.244-1.964-.278.89-.214 1.95.133 2.804.372.697.644.359.837.435.725-.428.588-.129.37.118.39-.326.61-.698.75-1.187Zm9.807.72c.619-.18.94-1.51.84-1.59-.109.7-.745 1.827-1.542 1.388-.642-1.05-.487-.1.106.312.186.129.422-.036.596-.11zm5.779-.208c-.113-.38-1.711-1.668-.88-1.165.738.035 1.312 1.902 1.43.847.325-1.098-1.072-2.006-2.077-1.839-1.374.06-.488.105.355.286.65.262 1.34.785 1.656 1.373-.228-.003-1.093-.81-1.618-1.03-1.16-.3-1.046.08-.171.668.292.281 1.236 1.201 1.332.93zm9.794-.356c-.27-.64-.912-1.118-1.11-1.763.488-.41-.305-1.477-.9-1.316l-3.958.038c-.79.304.194 1.513.186 1.425-.713-.814.368-1.027 1.032-.883.954.055 2.016-.157 2.904.062.756.805 1.125 2.035 1.979 2.695l-.133-.258zm-5.124-2.756c.761-.055 1.84.066.43.025-.316-.004-1.343.015-.43-.025zm-10.22 2.374c.616-.634.64-1.773-.273-2.15-1.316-.907-2.088-2.42-3.548-3.147-.945-.906-.767.5.025.774.208.672 1.577.679.39.685-.811.698-2.066.235-3.007.005-.67-.072-1.643-.823-2.125-.135.61.286 1.356.357 1.984.754.774.428 1.637.597 2.46.888-.077.66-1.345-.074-1.838-.146-.701-.206-1.343-.721-2.093-.677-.015.61.987 1.031 1.444 1.495.753.68 1.795.803 2.675 1.182.879-.053 1.768.008 2.639-.134-.181-.978.314.747.544.718.913-.386.976-.59.252.274.196-.094.373-.182.47-.386zm-5.197-1.362c-.806-.23-1.688-.707-2.245-1.219.879.372 1.786.977 2.79 1.168.718.402-.417.1-.545.051zm14.973 1.453c.265-.731-.7-1.348-.976-2.004-.291-.853.954-1.048.118-1.795-.497-1.123-.546-2.67-.74-3.675-.238 1.606-.66 3.258-.5 4.873.617 1.325-.54-.658-.426.46-.309.65-.811 1.263-.54 2.049-.21.605 2.03-.098.92-.042-.707-.43-.699-1.202.071-.438.602.382 1.275.625 1.95.842.039-.089.084-.182.123-.27zm-20.21-.621c-.182.068-1.46-.122-1.385-.972-.206-.159.29 1.24.934 1.035.148-.024.335.065.452-.063zm-.236-.131c-.792-.406-1.172-.357-.142.051.033-.025.28.076.142-.051zm17.133-1.25c.628-1.764.552-3.713.995-5.536.353-1.991.75-4.026.28-6.034.122-.914-.986-2.025-1.76-1.155-1.095 1.746-1.869 3.84-1.79 5.94.293-1.42 1.006-2.977 1.778-4.014-.873 2.497-1.886 5.02-2.23 7.654-.093 1.18-.026 1.308.278.09.517-1.699 1.27-3.58 2.158-4.96-.5 1.812-1.67 3.508-1.873 5.339.461-1.196-.185.764-.378 1.112-.59 1.009-.373 1.206.215.134.838-1.31 1.914-2.505 2.305-4.046-.425 2.207-2.075 3.927-3.17 5.84.97-.374 2.198-.127 2.797.775.115-.388.19-.786.395-1.14zm-17.476.934c-.905-.744-.64-.233.132.17.518.04-.046-.084-.132-.17zM30.35 41c.262-.648-1.557-1.094-1.205-.595-.02.039-.9-.292-.955.117 1.298-.199.168.772 1.368.545.229-.053.637.1.792-.067zm-1.273-.126c-.104-.741 1.15-.483 1.056-.014-.312-.027-.874.177-1.056.014zm-19.938-.776c.983-.284.858-.38 1.058-.728-.478-.076-1.514.188-2.196.224-.429.267-2.133-.287-1.212-.37.948.01 1.694-.781 2.585-1.097.2-.768-1.037-.076-1.453.025-.496.346-1.746.252-1.866-.013a10.482 10.482 0 0 1 2.546-1.501c.976-.517-.595-.74-.953-.282-.918.357-1.92.778-2.548 1.516.14.717.52 1.284 1.093 1.787.405.705 1.162.94 1.881.534 1.104-.313.806-.034-.15.116-.004.386.997-.188 1.215-.211zm5.08-2.046c-.333-1.124-1.686-1.455-2.635-1.918-.695-.462-1.61-.076-.45.342.717.372 1.406.792 2.095 1.211-.51-.585-1.257-.862-.061-.28.235.043 1.125 1.297 1.052.645zm21.29-.62c.16-1.758.331-3.517.573-5.267-.686-.083-1.739-.61-1.515.54-.185 1.625-.378 3.298-.359 4.914.267.028 1.342.311 1.302-.187zm-.78-1.357c-.315-.798 1.22-.26.366.079-.125-.014-.314.112-.365-.079zm.287-2.188c-.406-.936 1.309-.186.277.083-.09-.035-.235.067-.277-.083zm-21.97 1.443c-.398-.798-.334-2.234-1.4-2.409-1.169.211.594.184.516.897.481 1.073.72 2.352 1.458 3.252l-.573-1.74zm-7.152 1.206c-.284-1.044-.884-2.005-1.209-3.01.195-.693 1.443-.072 1.86-.385-.455-.288-1.483-.38-1.965-.093-.617.7.358 1.518.486 2.265.136.255.696 1.898.828 1.223zm1.405-.301c.503-.4-.454-1.338-.561-1.939-.615-.605-1.305-.249.11-.368 1.62-.055 3.313.063 4.89-.098-.724-.454-1.726-.079-2.56-.202l-3.537-.003c-.119.461.464.597.67 1.48.263.334.408 1.437.988 1.13zm-.953-1.236c-.629-1.351-.076-.553.226.307.437 1.124-.05.156-.226-.307zm-.971-1.097c.28-.671-.569.18 0 0zm4.234-1.537c-.176-1.11-.642-2.18-.501-3.322.148.793.337 1.576.591 2.343.127-.815.081-1.74.38-2.48-.201 1.279.217-.307.275-.803.434-.636-.566-1.712-1.117-1.184-1.465 1.3-1.414 3.467-1.952 5.225-.438.966.975.394 1.538.524.257-.111 1.073.248.786-.303zm.062-2.46c0-1.685.07 1.077 0 .384v-.385zm13.383 22.085c-.52-1.272-.161-.917.15.12.457 1.222.101.77-.15-.12zm6.055.566c.219-1.132.187-2.394.802-3.393-.287 1.225-.48 2.628-.778 3.755-.178.055.017-.285-.024-.362zm4.1.015c-.338-.88 1.148-.139.275.14-.144-.004-.244.053-.275-.14zM10 50.884c.24-2.545.46-5.147 1.553-7.498.222-.265-.372 1.404-.484 1.876-.566 1.855-.732 3.79-1.062 5.691l-.007-.069zm23.342-.58c-.532-.554.939-.617.343.018-.152.165-.206.117-.343-.017zm-12.085-.574c-.125-.438-1.546-1.687-.59-1.287 1.053.166 1.577.55.227.157-.9-.325.646.897.625 1.365.313.68-.17-.098-.262-.235zm11.958-1.563c-.083-.923.887.184 0 0zM14.694 45.2c-.05-.855.042-2.04.117-.57-.035.419-.115 2.522-.115 1.646 0-.358-.003-.72 0-1.076zm-.628-10.163c-.028-.306.24-2.075.226-1.339-.055.268-.208 1.799-.226 1.339zm.195-2.794c-.324-.818.976-.385.28.128-.114.02-.27.065-.28-.128zm20.362-1.098c-1.85-.329-3.104-1.933-3.943-3.426-.198-.583-1.098-1.346-.437-1.804.343-.787.512-1.64 1.038-2.372.077-.703-1.033-.9-1.258-1.446-.91-.862-1.359-2.115-1.9-3.159-.735-1.143-.208-2.754-1.136-3.843-1.031-1.604-.558-3.742.492-5.19 1.13-1.428 2.726-2.399 4.38-3.084-1.068.732-2.18 1.562-3.098 2.395 1.393-.68 3.104-1.032 4.63-.473 2.234.82 4.174 2.682 4.637 5.072.358 1.321.351 2.735.557 4.054-.066-1.886.049-3.946-.647-5.673 1.05 1.82.88 4.11.814 6.155-.244 1.291-.076.88.386-.061.862-2.296 1.3-4.998.066-7.248-.447-1.267-1.44-2.215-2.445-3.061 1.961 1.13 3.06 3.384 3.5 5.541.414 2.4-.695 4.77-1.928 6.764-.252.423-1.059 1.446-.305.794a16.42 16.42 0 0 0 4.105-6.197c.336-.939.33-1.954.505-2.929.163 1.971-.402 3.933-1.54 5.543-.718 1.158.315-.116.677-.501.508-.752.9-1.105.338-.08a14.682 14.682 0 0 1-3.044 3.377c1.426-.632 2.645-1.924 3.52-3.282.751-1 1.735-2.042 1.467-3.394-.374-1.956-1.576-3.719-2.916-5.166-.187-.07.541 1.376.558 1.952.738 2.886-.316 5.868-1.97 8.236-.545.788-1.137 1.633-1.77 2.307 1.501-1.907 2.78-4.079 3.087-6.529.491-2.081.758-4.416-.417-6.326-.618-1.097-1.597-1.914-2.84-2.193-2.415-.657-5.046-.197-7.152 1.146-1.084.71-2.373 1.203-3.024 2.396.052-.522.671-1.114 1.126-1.59.7-.942 1.851-1.469 2.831-2.078 1.79-.715 3.865-1.188 5.73-.61.943.13 2.12.505 2.735 1.276.957 1.116 2.272 2.071 3.017 3.424 1.138 1.625 2.287 3.688 1.407 5.687-.373.89-1.254 1.565-1.662 2.348.212 1.119.27 2.365.314 3.412-.49.611-.529.874.231 1.26.486.358 1.128.725 1.383 1.4.492.333 1.328.39 1.791.942.67.741-.776.8-1.249 1.005-1.312.245-1.966 1.552-3.02 2.236-1.133 1.007-2.334 1.93-3.757 2.533-1.235.415-2.545.63-3.864.46zm2.653-.712c3.063-.667 5.113-3.232 7.647-4.862 1.338-.097.681-.815-.306-.697-1.977.312-3.255 2.06-5.002 2.899-.963.552-1.874 1.25-2.96 1.536.115.232-1.313.024-1.81-.09-.896-.138-1.431-.95-2.06-1.52.698.208-.454-.22-.586-.542-.508-.645-1.069-1.52-.724-2.353-.839.355-1.558 1.557-.79 2.38 1.119 2.076 3.367 3.785 5.821 3.423.262-.013.513-.122.77-.174zm-2.76-.865c-.51-.12-1.792-1.197-.594-.45.457.313 1.856.802.594.45zm2.588-.292c1.176-.271 2.248-.816 3.307-1.378-1.045.744-2.287 1.335-3.583 1.45l.276-.072zm.175-.451c1.876-.853 3.717-1.864 5.249-3.254.217-.506 2.011-.786 1.38-1.113-1.221-.517-2.011.931-2.997 1.393-1.49.857-2.82 2.226-4.56 2.495-1.102.008-2.262.145-3.224-.52.266.366 1.017.785 1.558 1.072.727.083 1.505.631 2.047.16l.547-.233zm-.447-.736c2.398-1.077 4.114-3.236 5.353-5.496-.897-.628.491-1.215.327-1.93.076-.751-.245-1.453-.292-2.195-.698.573-1.11 1.268-.99 2.192-.424 1.182-1.146 2.31-1.922 3.295-.726.792-1.503 1.636-2.66 1.664-1.477.364-3.5.093-4.194-1.44-.323-1.378-.75-.642-.535.395-.084 1.077.095 2.272 1.138 2.83 1.232.949 3.012.937 4.323.14-.261.307-1.698.972-.58.558l.033-.013zm-1.744-.846c.16-.264-1.09-.381-1.43-.742-.628-.51-1.305-1.618-.297-.52 1.002.741 2.199 1.16 3.453.994 1.626-.74 3.147-1.935 4.15-3.41-.592 1.244-1.766 2.316-2.992 3.064-.832.746-1.972.607-3.004.652l.12-.038zm5.084-3.549c.366-.751.876-1.458 1.306-2.162.056.832-.88 1.678-1.306 2.162zm.342 2.124c.951-.51 1.645-1.45 2.567-1.937 1.215.066.404-.44-.183-.89-.6-.704-.938.819-1.368 1.16-.476.837-1.147 1.515-1.84 2.173.294-.136.555-.327.824-.506zm-3.97-.264c.552-.038-1.19-.183-1.524-.403-.852-.104-1.706-.812-2.223-1.192.753 1.305 2.285 1.844 3.748 1.595zm1.249-.363c1.547-.96 2.09-2.883 2.923-4.417.21-.814.317-1.42-.545-.591-1.488.748-2.835 1.775-4.235 2.692 1.197-.432 2.356-1.068 3.304-1.941-1.145 1.239-2.583 2.24-4.238 2.644.478.333 1.51-.117 2.094-.416 1.075-.695.215.08-.377.393-.33.27-2.245.587-1.264.621 1.413.016 2.881-.387 3.752-1.572.662-.672-.6 1.033-1.043 1.115-1.23.755-2.933.933-4.187.296.344.57 1.144.838 1.79 1.065.647.176 1.394.484 2.026.111zm-2.102-.254c-1.203-.23.937-.008 1.33-.178.456.125 2.057-.938 1.468-.368-.797.644-1.815.708-2.798.546zm-1.32-1.448c1.525-.618 2.87-1.9 3.42-3.473-.064-1.2.152-2.43-.176-3.6-1.694-.87-3.305-1.904-5.054-2.679-.89-.42-1.821-1.314-2.839-.707-.98.492-.794 1.864-.9 2.8-.125.622 1.11-.62 1.8-.19.797-.03.71 1.358-.142.795-.497-.095-2.016-.483-1.48.47.368 1.446-.182 3.32 1.17 4.384 1.14.9 2.19 2.39 3.772 2.344l.428-.144zm-1.868-1.5c-.596-.31-1.324-1.168-.212-.552.833.204 1.84-.041 2.512-.504-.493-.933.857.097.51.152-.567.135-1.107 1.01-1.849 1.17-.373-.017-.721.11-.961-.266zm1.43-.14c.954-.507 1.007-.709-.09-.287-.344.334-1.99-.17-1.13.452.343.217.89.016 1.22-.165zm-3.035-1.063c.038-1.588.399.206 0 0zm.92-.288c-.6-.361-.258-1.397.01-.373.464.478 1.4.02 1.79-.083.272.118-.39.674-1.053.518-.255-.011-.537.133-.748-.062zm-1.653-2.081c-.258-.192-1.208-.749-.23-.692.45-.124 1.9.211 1.152.633-.306.095-.607.135-.922.059zm4.148-.03c.335-.585-.75.095-.222-.92.356.453 1.505.1 2.131-.081 1.265.09-.423.205.262.538-.625-.132-.24.205-.585.336.024.178-1.058.08-1.585.176v-.048zm-.94-1.985c-.637-.748-.281-.35-.061-.867 1.052-.015 2.273-.243 3.046.629-.086.259-1.339-.134-1.87.063-.356.047-.768.327-1.115.175zm4.907 2.965c.26-2.213-.103-4.518-.853-6.615-.97-2.249-3.293-3.92-5.744-4.07-1.91-.024-3.793 1.144-4.39 3.001-.772 1.887.295 3.89 1.24 5.513.713 1.173-.09-.629-.325-1.025-.587-1.174-.987-2.548-.823-3.86.61-2.584 3.877-3.914 6.193-2.72 2.45.91 3.971 3.434 4.168 5.976.3 1.596.526 3.259.217 4.862.205-.327.259-.689.317-1.062zm-9.472-.72c-.158-1.114-.665-1.2-.186-.066.097.406.343.763.186.065zm8.614-3.03c-.811-.321-1.152-.493-.072-.183-.224-.428-.7-1.596-.62-1.652.342.245-.355-1.154-.526-1.455-1.278-1.856-3.747-3.153-5.99-2.404-1.774.637-2.57 2.867-2.176 4.579.413 1.01.66 1.027.163-.03-.226-.772.663-1.242 1.21-1.6a2.017 2.017 0 0 1 2.455-.033c1.924.84 3.668 2.202 5.607 2.902.103-.02-.106-.139-.05-.124zm4.085-1.205a5.682 5.682 0 0 0 .296-2.389c-.166 1.158-.447 2.297-.667 3.445.179-.333.284-.69.371-1.056zM28.07 11.403c-.05-.564-.392 1.935-.106.489.036-.163.072-.326.106-.489zM15.557 30.486c-.823-.16-1.675-.319-2.261-.882-1.005-.766-1.553-2.046-2.334-2.959-.399-.439-.519-1.188-.956-1.583-.706-.6-.34-1.153.208-1.562-.026-.862 1.466-.374 1.185-1.023-.466-.376-.998-.845-1.36-1.455-1.12-1.612-2.146-3.393-2.2-5.408-.248-3.025.254-6.368 2.351-8.694 1.888-2.047 4.783-2.732 7.478-2.603 2.24-.195 4.4 1.013 5.759 2.743.168.479.705 1.153.835 1.863.941 2.723.776 5.646 1.155 8.465.144.717.446 1.972-.54 2.18-.088.63-.414 1.267-.996 1.42.348.54.857 1.226.927 1.988-.076.868.415 1.282 1.158 1.57.5.352.386 1.531.13 1.76-.209-.177-1.043-.22-1.69-.388-.694-.048-1.106.78-1.73 1.014-.842.823-2.027 1.308-2.777 2.065-1.233.64-2.46 1.69-3.961 1.517-.116-.025-.28.03-.38-.028zm1.994-.757c2.338-1 4.42-2.505 6.316-4.185.59-.522 1.343.312 1.809-.383-.2-.377-1.008-.316-.94-.025-.357-.394-1.788.679-1.12.142.627-.486.328-.032.6-.836-.308-.89-.107.05-.686.465-.696.545.749-1.102.024-.435-.613.986-1.56 1.679-2.366 2.496.628-.546 1.214-1.562.28-.428-.37.066-1.002.626-1.203.725-.294.198-.611.441-.694.434-.185.064-.15.287-.417.216-.114.458-.326-.277-.533.29-.647.237-1.27.807-1.954.748.54-.161 1.37-.438 1.64-.772-1.386.72-3.102.5-4.418-.3-1.345-.968-.103.662-.442-.027.281.242.517.662 1.159 1.068 1.056.977 2.374-.016 3.538-.212-.048.298 1.219-.421 1.617-.61 1.203-.76.088.04-.484.393-.972.762-2.131 1.172-3.302 1.514.539.17 1.085-.063 1.576-.278zm-2.516.003c-1.903-.819-3.028-2.65-3.717-4.522-.396-.918-.288-.975.092-.048.585 1.105 1.262 2.258 2.535 2.652 1.61 1.088 3.63.54 5.203-.329.598-.229 1.297-.777 1.762-.96.556-.403.723-.581 1.24-1.186.415-.61.953-1.246 1.07-1.981-.57.31-1.022 1.105-1.592 1.567-1.606 1.318-3.41 2.42-5.349 3.154-1.206.321-2.319-.593-3.351-1.085-.903-.803-1.562-1.91-1.891-3.069.897-.947-1.05-.287-.696.305.925 1.276 1.26 2.891 2.369 4.057.696.921 1.657 1.815 2.897 1.752l-.572-.307zm1.157-2.038c2.238-.592 4.212-2.06 5.7-3.805.52-.799 1.37-1.775.911-2.77-.063.34-.043-.156-.2.89-.045.42-.838 1.833-.701 1.375.254-.35.87-2.049.257-.835-.922 1.878-2.853 2.921-4.606 3.886.405-.283 1.083-.64-.076-.145-1.185.425-2.605.265-3.664-.457-.99-.482-1.812-1.306-1.952-2.44-.207 1.803 1.092 3.66 2.835 4.062-.12.184 1.016.041.565.303.312-.017.637.068.931-.064zm-1.15-.64c-.911-.312.714.11 1.047.075-.35-.016-.712.06-1.046-.075zm.068-.217c-1.128-.304-2.294-.961-2.798-2.067.716.686 1.18 1.39 2.215 1.662.83.337 1.937.416 2.699.126-.555.511-1.41.43-2.116.279zm2.355-1.035c1.85-.531 3.488-1.768 4.243-3.575.61-1.123.315-.916-.14.069-1.057 1.876-3.26 2.449-5.13 3.169-1.438.52-2.887-.426-3.75-1.528-.58-1.064-.028-.397.427.144-.357-.301-.818-1.7-.77-.861-.07.81.828 1.687 1.581 2.128 1.029.715 2.368.903 3.54.454zm5.297-.88c.662-.941.645-1.255 0-.116-.43.576-1.172 1.883 0 .116zm-5.769.05c1.74-.34 3.417-1.183 4.397-2.711.307-.37 1.032-1.742.3-.712-.478.564-1.107.956-1.674 1.416.32-.065-1.017.89-1.404 1.05-1.388.84-3.391 1.316-4.66.003.653.957 1.969 1.243 3.041.955zm-.115-.752c.999-.11 2.18-.622 2.839-1.15-1.164.709-2.5 1.033-3.835 1.234.339.046.665-.019.996-.084zm-1.168-.556c1.253-.404 2.43-1.254 3.246-2.287 1.068-1.703.718-3.908.03-5.692-2.05-.62-3.711-2.119-5.496-3.214-.129.312-1.134.68-1.503 1.238-.99.935-2.243 2.118-1.745 3.622.443 1.649.314 3.766 1.955 4.8 1.029.688 2.142 2.006 3.513 1.533zm-1.344-1.13c-1.026-.735.392.145.922-.191.903-.373-.517.665-.922.191zm-.216-.52c-.474-.181-1.806-.688-1.137-1.284-.007.864 1.28.764 1.93.776.747.096 1.57-.618 2.034-.56a2.812 2.812 0 0 1-2.603 1.127l-.13-.035-.094-.025zm1.25-.134c.82-.085.785-.666-.132-.286-.362.24-1.969-.317-1.193.188.399.249.891.265 1.325.098zm-1.529-1.259c-.905-.737.475-.296.086.01zm.474-.033c-.088-.092 1.406-.784.943-.066-.28.098-.692.276-.943.066zm-3.109-1.778c.136-.633-1.115-.832-.048-.959.686-.548 2.028.043 1.847.94-.584.217-1.654-.005-1.799.02zm1.442-.758c-.422-.78-1.917.08-.657.127.119-.056 1.215.143.657-.127zm3.99.772c-.683.049-1.347-.793-.475-1.22.821-.514 1.766.63 2.496-.11-.41.599-1.025.933-1.013.974-.122.125-.137.075-.57.128-.245.15-.412.28-.438.228zm.799-.938c.751-.136-1.041-.48-1.344-.037.072.284 1.046.106 1.344.037zm-5.754-1.294c-.6-.065-1.977.115-.775-.514.487-.138 1.949.036 1.476.592a3.198 3.198 0 0 1-.7-.078zm3.653-.158c-.014-.718 1.366-.504 1.963-.6.725.238 1.779.728.416.469-.8-.16-1.675.439-2.38.13zM19.2 23.15c1.013-.507 1.794-1.435 2.525-2.282 1.691-2.262 2.112-5.226 1.998-7.978-.186-1.614-.283-3.51-1.164-4.812.49 1.645.99 3.427.822 5.205-.224 2.137-.372 4.374-1.235 6.363-.648 1.624-2.002 2.86-3.645 3.431.852-.131-.604.245-.142.383.315.01.565-.191.84-.31zm5.12-.19c-.038-.853-.644-.825-.128-.298.026.386-.058.393.255.764l-.127-.465zm-.562-.516c.441-.881-.868-.986-.281.1-.006.56.208.14.281-.1zm-3.426-1.935c1.1-2.06 1.68-4.393 2.075-6.688.173-1.025-.103-2.025-.216-3.039.413 1.428.555 2.923.134 4.37a56.612 56.612 0 0 1-1.016 3.907c.273-.153.72-1.326.91-1.94 1.143-3.134 1.25-6.782-.341-9.78-.458-.477-1.007-1.1-1.534-1.247.91.133 1.845 1.016 2.153 1.831.331.283.814 1.247.973 1.906.758 2.157.817 4.477.76 6.74-.1-1.512-.099-.299-.167.014-.344-.07.131 1.174-.112 1.597-.089.815-.402 1.567-.672 2.333.811.167 1.15-.998 1.69-1.463.278-.842-.356-1.733-.209-2.628-.188-3.056-.244-6.34-1.887-9.024-1.432-2.079-4.21-2.654-6.594-2.507-3.1.106-6.258 2.079-7.157 5.152-1.035 3.067-1.015 6.638.717 9.458.334.6.704 1.274 1.191 1.72a25.589 25.589 0 0 1-1.995-4.651c-.428-3.098-.146-6.556 2.007-9 1.778-1.764 4.396-2.462 6.84-2.088-.962.08-1.917.215-2.874.336 3.033.08 5.89 2.199 6.712 5.142.956 3.209-.332 6.529-1.477 9.515-.752.873-.666 1.086.049.097l.041-.063zm3.385-1.52c.167-1.186.066-.457-.074-.697.072.489-.386 1.558-.22 1.6.15-.285.221-.594.294-.903zm-3.668.13c.09-.49.085 1.355.269-.212.296-1.024-.2-2.102-.215-3.068.124.93.445 1.664.123.31-.233-.596-.166-.655-.536-1.577-.884-2.3-2.618-4.476-5.138-5-1.687-.555-3.456.453-4.249 1.96-1.066 1.676-1.196 3.86-.606 5.727-.165-1.308-.005-2.627.686-3.772.721-1.45 2.482-1.989 4.005-1.728 2.672.364 4.753 2.743 5.36 5.283.24.905.171 1.84.19 2.766.053-.228.118-.453.111-.689zm.788-1.93c.174-.683-.02-1.563-.169-2.326-.18-.901-.663-1.699-1.241-2.4-.048-.251-1.05-.98-1.513-1.407-1.044-.98-.084.204.332.654 1.165 1.72 2.343 3.535 2.558 5.652.153.038.04-.089.033-.173zm-10.153-2.858c.581-.881 1.45-1.517 2.166-2.284-1.723.178-2.744 1.886-2.867 3.49.194-.428.406-.839.701-1.206zm8.06.763c-.82-.603-1.91-.93-2.744-1.59-.847-.501-1.636-1.106-2.53-1.522 1.467 1.386 3.205 2.532 5.1 3.24.091-.033.403.104.174-.128zm2.377-1.414a7.388 7.388 0 0 0-1.235-3.164c.767.776 1.02 1.954 1.441 2.939.245.92.304-.112.3-.778.129-3.54-3.178-6.667-6.656-6.6-1.638.112-3.462.889-4.183 2.423-.244.712.83-.576 1.305-.594.961-.309-.895.478-1.045.889-.954.796-1.438 2.02-1.608 3.227.552-2.2 2.254-4.153 4.54-4.582 2.778-.191 5.23 1.916 6.344 4.323.37.852.699 1.848.883 2.674.028-.226-.068-.514-.086-.757zm-3.192.323c-.845-1.107-2.244-1.951-3.597-1.926 1.23.783 2.648 1.412 3.87 2.254-.09-.11-.182-.219-.273-.328zm2.685-.595c.025-.403-.543-1.344-.742-1.937-1.026-2.195-3.222-4.1-5.773-3.855-1.628.127-2.88 1.38-3.615 2.763-.588.925.694-.736 1.14-.837 1.477-.978 3.512-.806 4.952.164 1.154.557 1.907 1.627 2.792 2.514-.62-.882-1.147-1.855-1.962-2.575 1.101.494 1.658 1.897 2.442 2.706.371.112.512 1.56.766 1.057zm6.154 14.927c.061-.576-1.096-1.539-.66-1.533.208.638.756.7.725 1.405.118.55-.036.156-.065.128zM40.564 12c-.423-1.137-.086-.748.128.125.23.85-.004.417-.128-.125z" style="fill:#1a1a1d;stroke-width:1"/></svg>