<svg xmlns="http://www.w3.org/2000/svg" viewBox="0 0 52.917 52.923" height="200.025" width="200"><path d="M-633.994 15.365c-.17-4.284.077-8.576.564-12.833-2.99-1.954-1.704-7.463 1.837-7.93 1.677-.532-.58-2.151.738-3.23.052-1.527 1.221-2.863-.172-4.26-1.32-3.468-.32-7.273.743-10.668.7-1.974 1.457-3.954 1.66-6.048.82-1.935 2.92-3.275 4.777-4.043 3.937-.234 7.766 1.273 11.208 3.04 4.005 2.063 6.947 6.514 6.29 11.11-.392 2.096-1.21 4.06-1.728 6.129-1.042 2.568-2.083 5.28-4.293 7.086-2.244 1.277 1.25 3.029 1.315 4.94.485.96.915 3.83 1.649 1.488.427-2.255 2.643-2.522 4.514-2.257 1.568-.3 4.928-.292 3.158 2.012-.82 1.338-2.2 2.581-.33 3.61.075 1.58.505 4.533-1.407 5.223-1.729-.174-.083 3.036-1.889 3.811-1.322 1.356-3.522 1.925-5.26 1.06.365.772.151 3.492-.346 1.488-.273-2.328-.46-4.668-.627-7.006-1.503 1.404-.158 4.212-.427 6.186.387 1.06-.283 2.467-.517.688a271.666 271.666 0 0 0-.228-6.249c-3.136-.01-1.234 3.463-1.524 5.412.15.78.213 2.696-.311.978-.224-1.807.077-4.697-.702-5.8-.59.815.057 3.523-.384 3.422-.192-1.165.861-4.509-1.264-2.882-2.101.74-3.079 3.106-5.463 3.544-1.226.38-2.921.648-2.46 2.36-1.544.892-.251-2.368-2.113-1.536-2.266.683-4.386-2.005-2.85-3.927.59-1.46 3.47-2.24 3.783-2.457-1.352-.43-3.648 1.49-4.05 1.082.846-1.74 5.532-.627 3.256-3.059-.688-1.162-2.207-3.955-3.04-3.563-.083 1.942-.025 3.895-.275 5.828-.001-2.176-.083-4.36.182-6.525 2.15.99 3.63 4.936 4.451 5.577-.277-2.829-2.034-5.25-4.292-6.884-1.29-1.08 1.791.887 2.2 1.57.775.955 1.296 1.608.774-.07-.132-1.731-2.027-4.17-2.642-4.631 2.549 1.327 2.999 4.436 3.519 6.97.96 2.035.206-2.366.092-3.194-.381-2.092-1.185-4.197-2.75-5.694 2.81 2.017 3.255 5.76 3.553 8.945-.05 1.407-.597 4.248 1.652 3.164 1.72-.621 3.597-.059 4.822-1.663 2.359-.994.988-3.52.528-5.294-.347-1.81-2.919-.775-3.777-2.331.68 1.764 1.836 4.733.4 6.095-1.242-1.317.084-3.613-.714-5.293-1.502-2.11-4.097-3.638-6.326-5.074-2.361-.544-3.182 2.252-3.747 3.982-.759 3.693-.955 7.484-1.236 11.239-.119 2.308-.135 4.627.073 6.931-.424.173-.716-.154-.594-.569zm8.501-1.706c1.816-.102 4.908-1.394 5.443-2.216-2.516.217-.554-5.121-2.682-3.392-.647 1.845-1.461 3.886-3.245 4.905 1.349-1.243 2.91-3.705 2.663-5.157-2.593.224-4.212 2.542-6.12 4.044 0-.877 2.317-2.737 3.61-3.557-2.015.22-4.694 1.989-4.007 4.288.881 1.473 2.887 1.204 4.338 1.085zm17.653-.27c2.319-.123 4.624-4.105 1.947-5.196.018 1.907-2.188 4.024-4.087 2.672-.914-.643-.32-2.6-.13-.59 1.172 1.955 4.264-.879 3.579-1.213-1.113 2.23-4.934.355-3.241-1.855-2.413.317-.794 3.841-.827 5.518.489.94 1.879.884 2.759.664zm-11.813-2.34c.972-.575-1.528-1.022-1.118-2.232.086-1.03-.202-2.43-.677-.74.137.964.206 3.645 1.795 2.972zm1.718-1.328c2.308-1.496 5.308-.898 7.477-2.795.522-.597 3.227-1.92 1.45-.429-2.05 1.4 1.068 4.592 1.844 1.876.589-2.096 4.213 1.16 3.888-.68-.891.456-4.186-1.273-2.127-1.088.63.834 3.7 1.018 2.438-.377-.796.101-4.492-.522-2.663-1.071.752.352 3.89 1.316 2.974-.302-.853-.285-4.243-.412-3.274-1.39 2.244 1.096 2.2-2.121 3.397-3.254-1.98.536-4.98-.726-6.26.885-.426 1.076-2.952 3.99-.413 2.555 1.486-.755 1.543.675.017.604-1.841.56-3.804 1.274-5.766.875.912-1.617 5.405-.934 4.346-3.968-.43-1.021-1.49-4.738-1.522-1.844-.95 1.405-.544 3.14-.376 4.415-2.755-.678-4.914 1.644-6.816 3.253-1.5.826-.266 3.684 1.386 2.735zm5.6-3.39c1.379-.614 3.186-1.594 4.445-1.671-.831.99-3.007 1.576-4.445 1.67zm-.619-1.732c1.243.052 1.55-.983.168-.423-1.08.098-1.857.875-.168.423zm-3.101-.92c-.677-1.312-.122-4.192-1.786-4.31-.274 1.284.82 3.94 1.178 4.77.213-.127.53-.181.608-.46zm13.53.325c-.075-1.19-2.559.2-.53.183.171.065.477.04.53-.183zm-12.888-.482c.18-1.034-.651-3.544-1.143-3.634.363 1.08.341 3.083 1.143 3.634zm-5.848-1.093c.184-1-.604-4.062-.348-1.615-.085.765.183 4.277.348 1.615zm6.978.766c2.41.26.16-3.15.377-4.487-.327-1.105-.332-4.357-1.13-1.7-1.957 1.79-.373 3.698.115 5.794.1.506.153.545.638.393zm1.847-3.758c1.071-1.342-.693-4.585-1.595-4.037.355 1.541.507 4.151 1.22 5.087.167-.333.248-.7.375-1.05zm-5.688-.85c-.874-2.146-3.7-4.525-5.036-5.099 1.707 1.88 3.72 3.535 4.987 5.772.824.22.078-.404.049-.672zm-.731.31c-1.975-2.804-4.635-5.03-6.922-7.56-1.39-1.796-.627-4.236-.085-6.213.8-2.305 2.448-4.207 3.531-6.39 1.712-3.2 4.47-6.192 8.218-6.771 1.14-.156 1.79-.26.206-.169-4.267.424-7.309 4.032-9.06 7.666-2.01 3.359-4.574 7.048-3.731 11.176.767 2.473 3.068 3.98 4.764 5.785.974.447 2.794 3.077 3.079 2.477zm1.784.121c-.038-1.89 1.376-3.524 1.567-5.404.213-1.791-2.76-1.606-1.444.204.137 1.47-1.522 4.817-.123 5.2zm9.813-.51c1.753-.255 4.126-.063 5.511-.226-2.004.03-4.197-.422-6.107.25-.858 1.029.138.19.596-.023zm4.122.545c-1.2-.285-1.996.203-.299.08l.175-.001zm-16.986-.593c-2.294-2.199-5.032-4.106-6.643-6.893-1.35-3.547.44-7.284 2.311-10.274 1.888-3.182 3.472-6.844 6.854-8.74 2.25-1.451 5.478-1.689 7.49.315 2.461 2.195 3.03 5.665 2.993 8.797 1.529-5.022-1.953-10.4-6.618-12.273-3.146-1.51-6.622-2.709-10.143-2.567-1.755.843-3.7 2.163-4.385 4.01-.323 3.562-2.359 6.74-2.667 10.319-1.131 4.247 1.276 8.457 4.191 11.382-.372.013-4.072-2.257-4.128.343 2.06.774 5.102.672 6.938 2.646 1.32.763 3.312 3.787 4.065 3.197zm-6.958-17.63c2.485-4.17 5.23-8.983 10.223-10.412.834-.45 4.485-.24 1.95-.148-4.26.45-7.556 3.661-9.714 7.145-.784 1.163-1.495 2.387-2.459 3.416zm.414-8.957c.794-1.914 4.543-4.117 5.07-3.999-1.996.892-3.5 2.533-5.07 3.999zm11.008 25.526c.616-1.848 1.884-3.33 3.433-4.46 2.397-2.538 3.738-5.944 4.4-9.325.252-2.524.404-5.293-.736-7.62.015 1.8 1.111 4.058.442 6.09-.883 3.849-1.968 7.964-5.05 10.687-1.927 1.3-2.948 3.627-3.236 5.835.414-.155.496-.86.747-1.207zm-6.814.19c-.709-1.463-3.822-3.027-4.15-3.094 1.305.936 3.202 2.616 4.15 3.094zm4.46-1.464c.642-.982-.056-4.235-.055-1.65-.445 1.165-2.248 1.111-.703 2.262.599.964.73-.072.758-.612zm-10.12-4.737c-.556-.959-2.406-2.743-2.2-.487.482-.167 3.445 1.603 2.2.487zm11.732.417c2.382-.885 4.776-3.075 4.56-5.75-1.326 1.693-3.149-.396-1.513-1.676.49-.97 3.04-.315 1.056-.357-1.222.2-2.054 2.177-.162 1.448 1.438.145 2.227-2.896.048-2.184-1.398-1.264 1.135-.32 1.663-.604-.12-1.006-.417-3.317-1.25-1.32-.877 1.27-.282-.669-1.428.705-1.445.902-.062.208.49-.062-.89.884-3.032 1.576-4.124 1.924-1.845.29-4.983-1.94-5.79.423-1.318 2.094.256 5.207 2.325 6.332 1.173.833 2.665 1.51 4.125 1.12zm-.361-1.542c.198-.567 2.222-.026.342.114l-.183-.028zm.189-.576c-1.564-.568 2.061-.043 1.436-.152-.457.267-.94.339-1.436.152zm1.502-1.108c-1.069-1.765.879 1.028.704-.787-.486-1.97.92 1.383-.704.787zm-3.848-1.765c-1.194-.047-2.469-2.706-.496-1.378 1.098-.01 3.235.178 1.389 1.284-.272.128-.6.214-.893.094zm.95-1.11c-1.65-.02-.494.06 0 0zm.796-.85c-.312-.99-3.133-.356-1.068-.78.242-.24 1.797 1.11 1.068.78zm4.052-2.877c.678-1.02.444-.005 0 0zm-11.01 3.435c-.006-1.033-.503.6-.163.37zm-.496-.32c.174-1.58.214.97.584-.654-1.24-2.645-1.323 2.558-.584.654zm12.634-3.833c.898-1.33-.735.129-.021.11z" style="fill:#9e9d9e;stroke-width:1" transform="translate(644.994 36.983)"/><path d="M-633.994 15.303c-.176-4.263.094-8.533.556-12.77-3.001-1.99-1.677-7.482 1.888-7.95 1.837-.516-.998-2.284.922-3.23-.845-1.31 1.318-2.54-.214-3.834-1.526-3.379-.62-7.176.393-10.557.757-2.226 1.6-4.435 1.901-6.775.936-1.747 2.885-3.23 4.755-3.807 3.232-.338 6.37.927 9.319 2.081 3.757 1.6 7.221 4.63 8.007 8.802.5 2.192.039 4.475-.835 6.496-.645 3.132-1.953 6.17-3.847 8.745-.718 1.147-3.315 1.997-1.405 3.27 1.31 1.294 1.655 4.767 2.742 5.164.584-1.938 2.022-3.673 4.247-3.037 1.522-.032 5.65-.707 3.867 1.917-.966 1.328-2.08 2.796-.264 3.861-.146 1.633.425 4.391-1.543 5.01-1.743.17-.032 2.796-1.697 3.686-1.302 1.471-3.595 2.127-5.405 1.242.31.813.143 3.565-.345 1.377-.329-2.295-.38-4.617-.676-6.915-1.527 1.329-.123 4.196-.417 6.144.372 1.048-.212 2.547-.473.73-.027-2.093-.174-4.195-.182-6.298-3.205.02-1.374 3.476-1.597 5.487.134.764.127 2.659-.278.929-.079-1.965-.225-3.93-.394-5.892-1.793.311-3.589 1.126-4.561 2.644-1.457 1.483-4.082 1.411-5.337 2.791.459 1.922-.552.54-.43.748-.806 1.515.132-2.047-1.382-1.185-1.962.597-4.392-1.134-3.472-3.26.475-1.823 3.613-2.902 4.178-3.06-1.387-.496-3.717 1.343-4.156 1.1.79-1.436 3.74-1.1 3.954-1.907-.879-1.604-2.494-4.786-3.714-4.856-.072 1.409-.08 4.745-.292 4.92.208-1.537-.409-4.948.6-5.242 1.936 1.07 3.16 4.727 4.152 5.38-.424-2.546-1.701-4.904-3.77-6.49-1.056-.81-1.016-.932.065-.194 1.123.322 3.103 3.968 2.329 1.323-.121-1.69-1.906-4.12-2.491-4.603 2.525 1.444 2.74 4.61 3.417 7.12.734 1.372.212-1.857.171-2.57-.307-2.307-1.06-4.645-2.646-6.4 2.655 2.297 3.124 6.09 3.229 9.396-.353 1.807.081 3.493 2.163 2.441 1.86-.424 3.696-.358 4.972-2.06 1.722-1.206.125-3.713-.296-5.333-.746-1.06-2.773-.498-3.556-1.826.61 1.782 1.813 4.697.415 6.072-1.26-1.308.048-3.623-.716-5.303-1.568-2.053-4.08-3.71-6.39-5.031-2.663-.571-3.418 2.924-3.917 4.872-.55 3.337-.812 6.724-1.036 10.098-.082 2.389-.007 4.78-.035 7.17-.499.234-.479-.345-.473-.63zm8.883-1.68c1.767-.111 4.673-1.548 5.24-2.209-2.624.597-.773-5.127-2.86-3.356-.323 1.622-2.322 4.582-2.883 4.582 1.172-1.232 2.577-3.63 2.42-4.878-2.755.162-4.37 2.705-6.435 4.176.473-1.562 3.535-3.141 3.525-3.654-1.94.344-4.828 2.38-3.575 4.57 1.139 1.26 3.079.893 4.568.77zm17.767-.368c2.1-.426 3.976-4.003 1.517-5.11-.155 1.745-2.127 4.131-4.174 2.693-.718-.333-.474-2.481-.132-.677 1.134 2.254 4.459-.911 3.723-1.375-.651 2.35-4.956 1.03-3.405-1.24.344-1.397-2.254.777-1.21 1.769-.144 2.14.43 5.178 3.298 4.07l.383-.13zm-12.134-2.289c.249-.679-2.041-1.44-1.289-2.874-.337-2.228-1.155 1.474-.245 2.204.184.732.863 1.243 1.534.67zm1.577-1.232c2.285-1.504 5.274-.886 7.42-2.775.735-.636 3.101-1.99 1.33-.311-1.86 1.507 1.25 4.269 1.943 1.836.511-2.191 3.295.844 4.222-.616-.775-.199-3.763-.52-2.86-1.407.713.652 3.87 1.521 3.054-.167-.823-.214-3.996-.181-3.127-1.136.96.087 3.65 1.524 3.435-.17-.88-.616-4.204-.38-3.486-1.533 2.136 1.22 2.368-2.042 3.364-3.24-1.972.462-4.962-.75-6.232.925-.487 1.082-2.9 3.985-.29 2.5 1.338-.553 1.472.502.073.574-1.908.59-3.899 1.234-5.922.93.86-1.711 5.037-.69 4.505-3.726-.98-2.21-1.577-4.802-3.468-6.452-.2 1.952.721 3.923.962 5.889.601-.819 1.152-4.408.874-1.69-.723 1.495-.935 2.907-.38 4.455-3.08-.488-5.299 2.093-7.438 3.853-.494 1.219.615 3.041 2.021 2.26zm5.566-3.41c1.398-.536 3.308-1.753 4.5-1.543-1.255.813-2.984 1.499-4.5 1.543zm-.921-1.659c1.021.091 2.452-.972.591-.533-.826-.026-2.292.882-.591.533zm-2.785-.852c-.626-1.367-.122-4.606-1.93-4.36.112 1.407.8 3.81 1.302 4.718.212-.114.43-.22.628-.358zm13.53.24c-.059-1.272-2.751.194-.497.152.125.04.477.078.497-.151zm-12.734-.645c-.19-1.176-.95-3.798-1.397-3.882.411.933.4 4.287 1.397 3.882zm-6-1.134c.183-1.157-.899-4.788-.396-1.915-.032.767.189 4.501.388 2.286zm7.515.947c1.407-.626-.321-3.228-.183-4.65-.331-1.106-.334-4.28-1.105-1.616-1.323 1.449-1.201 2.793-.341 4.44.441 1.021.125 2.334 1.63 1.826zm11.525-3.943c-.137-1.264-.02.499 0 0zm-15.641-.189c-1.132-2.555-3.274-4.533-5.66-5.916 1.818 1.97 3.976 3.696 5.28 6.084-.03-.034.713.128.38-.168zm-.827.065c-1.661-2.556-4.026-4.545-6.079-6.768-1.806-1.21-2.01-3.424-1.602-5.376.637-3.412 2.968-6.124 4.537-9.128 1.856-3.204 5.026-5.916 8.88-6.043.761-.142-1.942-.097-2.55.248-3.562 1.06-5.913 4.217-7.498 7.402-2.05 3.325-4.57 7.042-3.719 11.151.705 2.469 3.031 3.958 4.723 5.73 1.19.74 2.044 2.42 3.308 2.784zm1.608-.48c.06-2.084 2.465-4.245 1.096-6.216-2.511-1.046-.255 2.523-1.379 3.723-.544.422-.102 4.372.283 2.492zm13.963.375c-1.17-.293-2.163.236-.427.086l.254-.009zm-4.653-.2c1.647-.862 3.638-.327 5.425-.474 1.794-.192-2.308-.28-2.975-.212-.813-.046-3.163-.022-2.743.902zm-12.17-.197c-2.29-2.32-5.171-4.188-6.804-7.072-1.41-3.548.44-7.299 2.304-10.297 1.886-3.2 3.506-6.859 6.906-8.751 2.249-1.444 5.471-1.626 7.45.392 2.444 2.251 3.03 5.781 2.908 8.942 1.587-4.761-1.465-10.104-5.864-12.131-3.29-1.705-6.953-2.988-10.687-2.968-1.887.983-4.523 2.342-4.615 4.757-.685 3.464-2.399 6.656-2.752 10.2-.588 3.217.669 6.448 2.682 8.925.65.946 2.925 2.928.698 1.496-1.11-1.408-4.71.178-2.323 1.255 2.23-.394 4.395.917 6.15 2.186 1.594.943 2.31 3.026 4.247 3.398zm-7.086-17.888c2.305-3.884 4.798-8.235 9.192-10.014.778-.542 4.594-.719 2.122-.385-4.173.803-7.201 4.143-9.317 7.618-.636.947-1.253 1.912-1.997 2.78zm.414-8.955c.774-1.717 4.132-3.873 4.632-3.788-1.783.936-3.218 2.384-4.632 3.788zm11.17 25.122c.544-1.815 2.059-2.99 3.415-4.174 2.167-2.44 3.449-5.592 4.144-8.745.58-3.578.413-7.824-2.29-10.537.767 1.257 1.697 3.103 1.968 4.807.504 2.127.05 4.296-.601 6.326-.762 3.661-2.737 7.097-5.746 9.353-.93 1.2-2.011 3.49-1.712 4.602.376-.487.49-1.12.822-1.632zm-2.221-.427c-.491 1.093-.329 2.221 0 0zm-4.857.987c-.792-1.458-4.03-3.103-4.346-3.118 1.566 1.079 2.982 2.358 4.538 3.45zm4.507-1.298c.197-1.012.725-2.463-.365-3.155 1.389 1.174-.952 2.677-1.132 2.729.613.585 1.306 2.652 1.497.426zm-9.99-4.702c-.748-.573-1.92-3.024-2.481-.934.472.954 2.506.752 2.922 1.346a14.877 14.877 0 0 1-.44-.412zm11.319.395c2.495-.776 4.86-2.879 4.886-5.631-.626-.126-2.218 1.198-2.2-.647-.408-1.752 4.013-2.095 1.268-1.46-.85.522-1.655 1.957-.1 1.35 1.565.77 2.856-3.15.526-2.132-1.394-.74.613-1.091 1.236-.467.788-.7-.283-4.088-1.228-1.855-.869 1.438-4.501 2.32-4.65 2.184 1.962.987-1.343.69-2.093.41-1.736-.191-3.603-1.12-4.146 1.08-.794 2.528.968 5.215 3.205 6.377.994.51 2.154 1.05 3.296.791zm.087-1.562c-.99-.448 2.182-.22.241.033zm-.162-.688c-.982-.335 2.533.088 1.409-.064-.452.122-.96.28-1.41.064zm1.791-1.041c-.74-1.095-.343-.485.266-.085.909-.308-.299-2.41.46-.77.124.468-.212.947-.726.855zm-3.533-1.78c-1.155.443-3.12-2.694-.928-1.345.942.26-1.408-.18.208.22 1.388-.032 3.204.015.72 1.125zm1.272-2.026c-.777-.8-2.427-.58-.51-.596.204-.016 1.227 1.296.51.596zm-6.903.57c.76-2.224-1.955-1.63-.822.171.752-.914.328-.806.646.34l.092-.152zm8.821-5.718c1.137-1.281-1.546 1.501 0 0zm-.318 31.573c.002-2.58.056 1.975.001.442z" style="fill:#6b696d;stroke-width:1" transform="translate(644.994 36.983)"/><path d="M-633.994 15.303c-.176-4.263.094-8.533.556-12.77-2.593-1.71-1.966-6.124.608-7.524 1.24-.267 2.768-.929 1.494-2.098.598-1.46.214-2.613 1.225-4-1.723-2.616-1.856-5.919-1.132-8.885.543-3.285 2.265-6.263 2.624-9.582.68-1.942 2.844-3.178 4.563-4.024 3.247-.479 6.42.854 9.396 1.967 3.812 1.557 7.308 4.588 8.177 8.768.539 2.282.016 4.651-.856 6.769-.697 3.173-2.01 6.293-4.043 8.839-1.1 1.108-2.903 1.999-.95 3.337 1.178 1.184 1.42 4.601 2.556 4.816.474-2.068 2.127-3.584 4.33-3.033 1.409.036 5.351-.76 3.844 1.782-1.033 1.29-2.15 2.9-.458 4.028.04 1.64.482 4.518-1.514 5.03-1.672-.116.125 2.638-1.47 3.463-1.24 1.604-3.46 2.19-5.36 1.573-.442.314.397 2.967-.54 1.61-.463-2.215.007-5.823-1.053-7.16-.725 1.89.048 4.276-.034 6.359.43 1.039-.337 1.973-.463.46-.029-2.123-.197-4.255-.204-6.388-3.164-.001-1.417 3.42-1.616 5.429.114.74.177 2.761-.244 1.01-.1-1.966-.215-3.936-.404-5.898-1.53.289-3.467.889-4.152 2.26-1.512 1.412-3.557 2.036-5.462 2.677-.047.695-.691 2.716-.604.74.097-1.938-.465 2.757-.54.377.2-2.256-3.61.001-4.348-2.277-.94-2.227 1.393-4.411 3.442-4.85 2.165-.412-1.767-.43-2.15.36-.99.617-2.025.781-.596-.109.904-1.225 4.452-.139 2.816-2.037-.763-1.366-2.264-4.187-3.333-4.11-.106 1.338-.062 4.473-.28 4.662.179-1.483-.345-4.45.536-4.97 2.061 1.287 2.886 3.735 4.14 5.642-.06-2.52-1.504-4.906-3.407-6.542-.86-.723-1.807-1.463-.268-.444 1.113.31 3.092 3.941 2.377 1.342-.107-1.647-1.857-4.028-2.374-4.53 2.579 1.595 2.56 4.884 3.426 7.441.617-.453-.033-3.268-.266-4.594-.398-1.708-1.1-3.38-2.258-4.715 2.662 2.468 3.133 6.401 3.094 9.84-.199 1.439.08 2.861 1.716 2.023 1.707-.6 3.686-.056 4.87-1.691 2.34-.927 1.029-3.45.573-5.182-.267-1.982-3.084-.837-3.908-2.578.647 1.771 1.967 4.975.366 6.182-.955-1.459.11-3.593-.59-5.275-1.575-2.076-4.108-3.73-6.43-5.065-2.036-.575-3.073 1.938-3.508 3.492-1.1 4.167-1.163 8.514-1.467 12.79-.049 1.964.025 3.929.027 5.894-.497.233-.487-.342-.474-.63zm8.74-1.65c1.663-.043 5.281-1.713 5.159-2.205-2.36.025-.582-4.318-2.386-3.755-.933 1.792-1.494 3.948-3.279 5.125 1.45-1.379 2.174-3.251 2.832-5.09-2.887.046-4.585 2.658-6.7 4.21.524-1.58 3.53-3.163 3.607-3.678-1.97.319-4.75 2.245-3.738 4.495 1.06 1.375 3.012 1.038 4.505.898zm17.662-.308c2.218-.345 4.261-3.847 1.848-5.242-.357 1.558-1.882 4.047-4.052 2.882-.823-.191-.772-2.74-.36-.851.973 1.745 4.076.287 3.797-1.564-.352 2.22-4.087 1.796-3.738-.446 1.548-2.093-2.054-.398-.957.971.08 2.064.033 5.283 3.078 4.362zm-11.886-2.365c.19-.719-2.025-1.503-1.262-2.936-.705-2.163-1.088 2.292.115 2.932.21.423.853.204 1.147.004zm1.255-1.147c1.532-.831 3.15-1.27 4.862-1.441 1.773-.353 3.623-2.294 4.939-2.53-2.333.974-.786 5.213 1.19 2.921.154-2.638 3.28.539 4.235-.907-.734-.26-3.612-.469-2.833-1.415.707.69 3.86 1.546 3.064-.164-.895-.344-3.71-.018-3.267-1.115.89.153 4.478 1.426 3.38-.326-.866-.376-4.182-.41-3.252-1.375 2.247 1.21 2.148-2.23 3.457-3.27-2.02.45-5.071-.765-6.378.91-.475 1.056-2.952 4.043-.4 2.563 1.531-.658 1.406.572-.051.578-1.81.645-3.734 1.058-5.67.923.915-1.705 5.523-.892 4.336-4.194-.763-1.825-1.435-3.754-2.6-5.364-1.748-1.581-.282 2.163-.192 3.12.058 1.148.477 2.901 1.003.822.108-1.069.559-2.062.287-.326-.931 1.383-.634 3.094-.476 4.415-2.884-.574-5.005 1.91-7.028 3.527-1.041.793.004 3.286 1.394 2.648zm5.932-3.463c1.292-.666 3.16-1.593 4.397-1.678-1.001.943-2.923 1.463-4.397 1.678zm-.304-1.83c2.756-.767-2.124-.489-1.18.228.406-.006.789-.14 1.18-.227zm-3.842-.498c.664-1.278-.19-3.383-.861-4.605-1.854-.227.353 2.484.167 3.659.265.37-.095 1.727.694.946zm13.942-.115c-.445-1.15-2.56.357-.533.283.185.1.589-.006.533-.283zm-12.702-.464c-.248-1.225-1.014-3.864-1.445-4.02.426 1.07.307 4.235 1.445 4.02zm-6.04-.867c.167-1.104-.424-3.488-.593-3.562.467 1.354-.114 3.495.562 4.42.103-.283-.042-.572.032-.858zm7.528.63c1.316-.79-.335-3.32-.231-4.827-.313-1.227-.336-3.966-1.079-1.462-1.218 1.47-1.31 2.803-.34 4.463.446 1.074.09 2.333 1.65 1.827zm-19.965-1.67c.125-1.644-.142-3.479 1.242-4.811-1.53 1.4 1.354-1.85-.45-.262-1.373 1.215-1.642 3.957-.792 5.074zm-.401-.302c-1.344-2.19.806-4.787 1.879-5.974-2.409.765-3.186 4.232-1.77 6.184l-.11-.21zm1.143-2.538c.328-2.673-.991 3.238-.181 1.019.006-.35.113-.68.18-1.02zm24.385.911c.393-1.14-.828 1.48 0 0zm-9.542-1.04c-1.155-2.35-3.208-4.13-5.442-5.425 1.8 1.994 3.994 3.693 5.296 6.09.791.31.29-.408.146-.665zm16.099.627c-.577-.12.263-.88-.537-.122-.045.323.393.286.537.122zm-16.683-.063c-1.6-2.524-3.939-4.449-5.938-6.635-1.836-1.214-2.168-3.4-1.751-5.403.605-3.487 3.02-6.239 4.592-9.31 1.876-3.173 5.058-5.846 8.889-5.965.466-.16-2.202-.085-2.916.332-3.378 1.145-5.61 4.17-7.148 7.237-2.015 3.24-4.346 6.765-3.903 10.766.635 2.684 3.037 4.372 4.867 6.239 1.254.654 2.08 2.444 3.308 2.739zm1.608-.479c.102-2.06 2.33-4.097 1.217-6.106-2.583-1.315-.45 2.833-1.61 4.076-.54.448.146 3.838.393 2.03zm9.28.214c1.627-.928 3.61-.301 5.385-.523 2.047-.183-2.299-.24-3.08-.208-.768-.052-3.071.052-2.53.946zm4.08.237c1.828-.266-2.44-.072-.473 0zm-16.288-.565c-2.134-2.017-4.485-3.855-6.296-6.173-1.969-3.16-.48-7.082 1.205-10.02 1.437-2.196 2.535-4.606 4.078-6.726 2.027-2.618 5.45-4.966 8.888-3.941 3.593 1.318 5.006 5.489 4.927 9.022.008.721-.087 2.138.231.606 1.117-4.747-1.88-9.723-6.208-11.675-3.21-1.665-6.781-2.86-10.418-2.904-1.9.515-3.418 2.115-4.585 3.573-.385 3.897-2.515 7.383-2.899 11.294-.66 3.467.796 6.937 3.058 9.52.751.907 2.13 2.13.304 1.002-1.054-1.208-4.479-.205-2.54 1.268 1.854-.414 3.778.537 5.37 1.473 1.688.923 2.765 2.57 4.236 3.73.386.252 1.474.635.649-.049zm-6.803-18.195c2.47-4.06 5.245-8.77 10.207-9.985.917-.27 2.61-.242.74 0-4.005.852-6.968 4.007-9.02 7.376-.423.616-1.99 3.048-1.927 2.61zm.482-8.991c.813-1.396 3.8-3.375 4.165-3.281-1.648.956-3.032 2.284-4.386 3.608zm10.167 27.044c.917-2.124 1.995-4.214 3.989-5.5 2.392-2.63 3.816-6.087 4.395-9.564.458-3.462.162-7.55-2.579-10.046 2.158 2.965 3.11 7.253 1.635 10.8-.671 3.872-2.722 7.515-5.87 9.893-.794.834-2.337 4.46-1.57 4.417zm-1.432-2.223c-.485 1.006-.496 2.625-.097.614l.065-.306zm-4.906 1.325c-.805-1.528-4.172-3.2-4.507-3.214 1.385.764 3.907 3.296 4.507 3.214zm4.756-2.947c.554-.759-1.36-2.482-.273-.835.506 1.861-2.838 1.491-.923 2.837.991 2.031 1.066-1.464 1.196-2.002zm-10.38-3.218c-.531-1.107-2.597-2.66-2.207-.381.57-.21 4.045 1.824 2.207.381zm11.608.496c2.446-.83 4.739-2.949 4.74-5.657-.643.198-2.607 1.022-2.15-.747-.125-1.453 3.545-2.11 1.136-1.252-.886.573-1.533 1.892.017 1.321 1.719.61 2.669-3.16.28-2.241-1.232-1.709 2.663.735 1.66-1.425-.096-1.102-.73-2.452-1.505-.761-.954 1.42-4.326 2.26-4.786 2.131 2.298.795-.958.817-1.804.423-1.53-.147-3.98-1.088-4.033.746-.987 1.537-.18 3.637.862 4.988 1.344 1.503 3.502 2.867 5.583 2.474zm-.282-1.654c1.569-.397 1.15.242 0 0zm.039-.562c-.701-.578 1.332.453 1.793-.221-.538.226-1.224.48-1.793.221zm1.562-1.178c-.61-1.02.679.87.916-.238-.174.262-.667.623-.916.238zm.928-.53c-.721-1.219-.012-.747 0 0zm-4.626-1.2c-1.208-.043-2.258-2.478-.675-1.246.242.598 3.784-.223 1.46 1.227a.764.764 0 0 1-.785.02zm1.666-1.936c-.852-.747-2.099-.609-.31-.501.229.002.973 1.295.31.5zm-5.435 5.806c-1.303-1.068-.862-4.014-1.863-4.464.149 1.526.296 4.559 1.863 4.464zm-.55-.241c-1.263-1.505.797.444.182.201zm-.594-.144c-.758-.448-.925-3.514-1.275-2.708-.093.677 1.05 3.36 1.275 2.708zm-.936-.603c-.469-.707-.746-3.45-.622-1.094-.115.371 1.22 2.314.622 1.094zm.101-4.19c1.446-.852-.436-2.702-.558-.72.144.708.667 2.507.558.72zm.511-.022c-.367-1.209-.372 1.52 0 0zm14.322-1.323c2.044-1.663 1.304-4.636.825-6.86-.426-1.585-1.295-3.604-2.597-4.334.356.757 1.184.55.42.957.544 2.035 1.368 3.972 2.008 5.978.357 1.397-.163 3.9-.656 4.259zm-.325-.292c.956-1.15-.54-4.038-.876-4.081.387 1.377 1.55 3.253.876 4.081zm-8.271-.88c2.46-.486 3.111-1.645 4.55-2.415 1.196-1.334 1.837-2.338 2.163-4.282.082-.856-.238-3.253-.362-1.3-.097.504-.48 3.371-1.58 4.486-1.33 1.965-3.46 3.226-5.777 3.65.336.08.682-.086 1.006-.138zm5.016-3.391c1.005-1.045.302.39 0 0zm-6.022 3.277c2.181-.527 2.907-1.175 4.357-2.207 1.825-1.746 3.194-4.384 2.505-6.95-.139 1.608-.452 4.273-1.984 5.779-1.44 1.88-3.6 2.927-5.814 3.473.31.028.632-.037.936-.095zm-1.506-.27c3.836-.603 7.518-3.559 7.92-7.586.057-2.495-.195 1.543-.716 2.073-1.325 3.208-4.886 4.98-7.952 5.643l.305-.04.443-.09zm11.326-1.24c-.17-.886-.607-3.407-1.058-3.156-.403 1.312 1.191 4.1 1.108 4.214.023-.353.028-.711-.05-1.058zm-5.95.97c2.657-1 4.623-3.77 4.205-6.655.624-.888-1.373-4.25-.55-2.06 1.206 3.038-.323 6.694-3.094 8.283-.143.114-1.756.996-.56.432zm6.267-1.197c.024-1.208-.77-3.87-1.211-3.908.48 1.086 1.1 4.135 1.229 4.207l-.018-.299zm-3.748.1c2.039-1.51 2.791-4.513 1.735-6.814.64 2.66-.11 5.8-2.499 7.346.281-.129.522-.343.764-.532zm-6.389.378c1.388-.134.694-.86.324-1.131.637-.67 1.488.572 2.114-.854 1.88-1.706 2.934-4.264 2.867-6.797-.954 1.673-1.814 3.721-3.431 5.03-.269.381-1.94 1.14-.53.952-.574.614-.284.297-1.443.424-1.024.551-1.617.668-.088.298-.297-.489 1.29.399.477.346 1.69-.934 3.173-2.384 4.102-4.11.493-.529 1.002-3.335.693-1.31-.514 2.18-2.43 4.593-4.102 5.417-.58.847-2.055.968-.983 1.735zm2.393-1.221c2.452-1.456 4.146-4.44 3.68-7.332-1.253 1.588-.833 4.533-2.76 6.053-.407.221-1.942 2.206-.92 1.279zm-2.701-.099c1.277-1.008-1.415.407 0 0zm.875-1.88c1.43-1.088 3.07-2.612 3.573-4.194-1.907.507-2.67 2.597-4.425 3.407.85-.448.57 1.48.209 1.168l.361-.164zm-.274-1.693c.83-.618 2.67-2.165.794-.83-.145-.002-2.081 1.64-.794.83z" style="fill:#535154;stroke-width:1" transform="translate(644.994 36.983)"/><path d="M-634.007 14.642c-.12-4.072.163-8.153.604-12.199-2.068-1.093-1.98-4.064-.963-5.887.542-1.117 1.742-1.834 2.974-1.91 1.296-.748.081-1.047.083-2.01-.191-.855 1.143-1.156.398-1.831-.18-1.003 1.47-1.665.456-2.605-1.531-2.527-1.305-5.569-.732-8.342.533-3.327 2.373-6.302 2.644-9.675.306-1.478 2.084-1.674 2.816-2.873 1.55-1.508 4.05-1.01 5.965-.555 4.391 1.038 9.03 2.886 11.698 6.719 1.529 2.476 2.324 5.584 1.393 8.443-.912 2.06-1.036 4.395-2.127 6.404-.94 2.157-2.056 4.312-3.998 5.747-1.425.603.237 1.293.567 2.172.808 1.699 1.659 3.4 2.177 5.217.848-1.241 1.099-3.58 2.977-3.545 1.827.046 3.7-.145 5.5.043 1.031.66-.288 1.813-.61 2.573-.353.867-1.748 1.98-.284 2.494.81.6.101 1.636.602 2.428-.347.859-.313 1.727-.598 2.616-.157 1.17-2.29.216-1.905.99.86 2.954-2.663 5.572-5.4 4.822-1.417-.931-.613.91-.644 1.746-.5 1.02-.588-1.046-.633-1.572-.213-2.008-.352-4.023-.537-6.032-1.241.273-.589 1.558-.675 2.447.095 1.823.122 3.654.346 5.467-1.025.008-.336-1.779-.631-2.489-.073-1.602-.063-3.235-.185-4.818-.956.5-2.472.157-1.846 1.68.115 1.877.234 3.754.38 5.627-.602-.467-.257-1.968-.467-2.849l-.257-3.87c-1.387-.303-2.349 1.146-3.686 1.219-.349 1.449-2.093 2.058-3.302 2.733-.923.43-1.91.682-2.9.91.287.915-.42 2.898-.369.955.127-1.948-.363.039-.182.902-1.14.205.47-2.133-.82-1.757-1.52.127-3.774.02-4.092-1.863-.232-2.15 1.942-3.935 3.917-4.236 1.647-.2-.703-.448-1.24-.1-.931.228-1.882.889-2.674 1.14 1.029-1.144 2.868-1.74 4.358-1.64-1.127-2.006-2.135-4.195-3.976-5.66-.093 1.539-.13 3.08-.18 4.62-.167-1.539-.005-3.193.102-4.768 2.28 1.351 3.233 3.997 4.605 6.081-.297-2.755-1.661-5.376-3.898-7.06-1.213-.979.668.185 1.022.633.575.18 1.65 2.332 1.605 1.358-.304-1.95-1.07-3.833-2.48-5.248 2.265 1.413 2.52 4.289 3.105 6.63.532 1.754.573 1.075.473-.377-.098-2.805-.772-5.723-2.526-7.976 2.083 1.99 2.615 5.069 2.868 7.819.182 1.394-.282 2.808.28 4.125 1.331-.284 2.711-.41 3.967-.88.973.565 1.735-.603 2.525-1.176.767-.659 1.726-1.19 1.134-2.319-.303-1.329-.497-2.817-1.3-3.93-1.191-.14-2.638-.41-3.33-1.434.849 1.836 1.23 4.019.938 5.993-1.104.748-1.057-.951-.891-1.695.026-1.362.02-2.807-.494-4.085-2.116-1.326-3.833-3.304-6.103-4.345-1.205-.474-2.263.334-2.76 1.406-1.703 2.98-1.587 6.58-2.01 9.899-.413 3.602-.332 7.227-.29 10.845-.819.242-.305-.853-.484-1.292zm9.029-1.014c1.969-.291 3.802-1.175 5.423-2.302-1.22.477-1.836-.81-1.971-1.817-.513-.614.53-2.634-.711-1.9-.96.468-.819 1.954-1.505 2.745-.5.925-1.105 1.85-1.994 2.44 1.417-1.34 2.246-3.276 2.749-5.055-1.395.012-2.595.62-3.586 1.575-1.104.765-2.037 1.836-3.06 2.624.901-1.59 2.464-2.704 3.965-3.685-1.862.077-3.859 1.45-4.372 3.28-.236 1.845 1.983 2.477 3.443 2.227.544-.015 1.086-.01 1.619-.132zm17.26-.218c1.972-.48 3.91-2.767 2.735-4.79-1.159-1.238-1.243-.065-1.277 1.027-.662 1.53-3.398 2.401-4.138.534-.189-1.838-.034.557.93.656 1.428.402 3.49-.78 3.089-2.448-.115 2.008-3.314 2.223-3.752.293.038-.909 1.206-2.473-.293-1.31-1.338.382-.427 1.918-.532 2.927.278.91-.178 2.268.653 2.868.787.444 1.729.514 2.585.243zm-11.812-2.372c1.118-.578-.914-.489-.922-1.392-.553-.771-.131-1.903-.44-2.56-.965.415-.43 1.75-.38 2.545.178.824.687 2.128 1.742 1.407zm1.496-1.242c1.16-.471 2.181-1.276 3.51-1.13 2.166-.282 4.02-1.668 5.784-2.866 1.176-.304-.811.843-.729 1.33-.311.843-.396 1.97.705 2.255 1.037.474 1.701-.61 1.649-1.278.823-.605 1.405-.616 2.265-.025.548.44 2.39.287 1.776-.41-1.054.093-2.377-.235-3.101-.94.239-.792 1.525.633 2.28.54 1.001.59 2.196-1.067.687-1.052-1.033-.12-2.084-.265-3.063-.618.206-1.012 1.759.21 2.563.13.6.187 1.857.143 1.312-.745-1.17-.519-2.658-.5-3.873-1.063-.03-1.253 2.026.83 2.096-.839.579-.956 1.085-1.96 1.716-2.883-2 .065-4.004.018-6 .178-.645 1.302-1.543 2.645-2.183 3.84.873-.135 1.835-.972 2.675-.65.147.653-1.481.479-2.066.931-1.57.472-3.346.874-4.912.594-.013-.838 1.63-.86 2.346-1.15 1.21.024 1.782-.837 2.194-1.85-.26-2.017-1.446-3.959-2.32-5.829-.271-.36-1.275-1.925-1.404-.864.352 1.79.772 3.72 1.107 5.442.524-.754.792-1.784.96-2.721.128 1.195-.549 2.288-.86 3.336-.134.732 1.069 2.577 0 2.107-2.915-.269-4.888 2.229-6.98 3.829-.526 1.109.405 3.158 1.866 2.4zm5.768-3.47c.945-.705 2.452-.828 3.518-1.526 1.134-.853 1.064.524-.043.474-1.099.546-2.277.904-3.475 1.154zm-.83-1.66c.69.056 2.538-.889.901-.643-.43.09-2.789.579-1.79.749.304.029.593-.054.888-.107zm-3.456-.543c1.109-.364.06-1.704.055-2.53-.454-.8.05-2.543-1.296-2.214-1.114-.089.437 1.522.275 2.2.386.73.248 2.396.801 2.628l.16-.082.005-.002zm14.079-.132c.272-.905-2.12-.437-1.414.103.373-.027 1.3.368 1.414-.103zm-12.941-.424c.426-.693-.383-2.08-.601-2.99-.322-1.153-.947-1.84-.503-.243.313 1.082.46 2.351.86 3.335l.166-.07zm-5.849-1.311c.08-1.227-.233-2.78-.712-3.713.573 1.603.133 3.417.499 4.994.467-.003.102-.954.213-1.281zm7.64.977c1.23.225.021-1.678.151-2.415-.32-1.74-.656-3.48-.964-5.223-.512 1.193-1.037 2.396-1.875 3.403.67 1.378 1.118 2.847 1.462 4.337a3.874 3.874 0 0 1 1.225-.102zm-19.659-1.544c-.536-1.568-.504-3.416.737-4.669-.26 0 .913-1.4.199-1.072-1.798 1.333-2.548 4.262-1.047 6.07.05-.106.176-.19.111-.329zm-.829-.59c-.942-2.12.317-4.732 2.334-5.705-.268-.543-1.719.47-2.11 1.084-.925 1.51-1.198 3.7-.028 5.124l-.196-.503zm24.78-.134c.696-1.195 1.458-2.733 3.1-2.513 1.561.01 3.37-.183 4.783-.024-.7-.625-1.948-.098-2.859-.26-1.362.205-3.34-.586-4.079.988-.398.748-1.064 1.714-1.274 2.377l.33-.568zm-23.83-.758c.007-.908.385-1.833.515-2.67-.766.96-.947 2.483-.596 3.514l.082-.844zm31.179-1.003c.453-1.52-1.579.643 0 0zm-15.797.038c-1.075-2.69-3.337-4.714-5.816-6.133 1.802 2.016 3.999 3.733 5.343 6.116.07.03.547.233.473.017zm.678-.042c-.1-.83.371-1.59.615-2.455.311-1.302 1.596-2.848.725-4.113-.748-.772-2.25-.353-1.3.72.374 1.985-1.235 4.024-.286 5.908.084-.013.186.032.246-.06zm-1.76-.405c-1.496-2.114-3.452-3.866-5.207-5.765-1.103-1.125-2.743-2.236-2.354-4.052-.283-3.302 1.677-6.117 3.314-8.792 1.709-3.337 4.051-6.785 7.835-7.909.911-.293 1.893-.336 2.81-.497-3.743-.467-7.118 2.161-9.073 5.138-1.508 2.792-3.4 5.382-4.616 8.318-.944 2.515-1.345 5.747.795 7.788 1.704 1.992 3.746 3.638 5.626 5.443.027.471 1.673 1.27.87.328zm15.129.35c1.637-.174-.774-.322-1.092-.058.138.248.785.022 1.092.059zm-16.099-.42c-1.643-1.693-3.58-3.081-5.142-4.87a6.136 6.136 0 0 1-2.143-5.92c.474-4.083 3.339-7.25 5.096-10.82 1.755-2.845 4.642-5.546 8.142-5.65 2.928-.149 5.235 2.419 6.039 5.045.622 1.887.78 3.949.528 5.903 1.753-4.36-.53-9.56-4.43-11.948a25.284 25.284 0 0 0-10.954-3.727c-1.527-.214-2.795.69-3.68 1.842-1.13.465-2.016 1.422-1.934 2.712-.484 3.147-2.14 5.99-2.554 9.167-.61 2.579-.53 5.373.863 7.697.766 1.713 2.093 3.08 3.286 4.5-1.108-.589-2.667-1.63-3.836-.748-.983.875.17 1.9 1.164 1.36 2.704.227 5.16 1.818 7.05 3.683.697.964 1.576 1.843 2.779 2.102-.09-.109-.185-.22-.274-.327zm-6.76-18.689c2.304-3.683 4.736-7.848 9.068-9.375.62-.292 2.28-.532 2.36-.437-3.692.603-6.778 3.073-8.769 6.16-1.022 1.359-1.852 2.863-2.941 4.169l.283-.517zm.325-8.69c1.028-1.34 2.459-2.675 4.013-3.181-1.624.89-2.929 2.206-4.228 3.5l.215-.32zm10.704 25.92c.61-1.526 1.467-2.95 2.898-3.829 2.46-2.274 3.742-5.51 4.693-8.652.71-3.839.721-8.437-2.214-11.398-.974-.603.882 1.082.893 1.671 1.339 2.77 1.806 6.089.585 8.98-.668 3.725-2.484 7.347-5.578 9.63-1.249 1.313-1.89 3.189-2.184 4.936.19.504.77-1.158.907-1.338zm-2.122-.435c.39-1.734.17-1.28-.151.125-.485 1.755.034 1.1.15-.125zm-4.756.758c-1.133-1.731-3.133-2.685-4.95-3.562 1.783 1.215 3.443 2.608 5.142 3.923l-.192-.361zm4.736-2.792c.494-.725-.71-2.152-.842-1.887 1.156.867.216 2.775-1.149 2.728.727.424 1.506 2.866 1.596 1.056.14-.631.337-1.25.395-1.897zm-10.325-3.375c-.735-.36-1.177-1.821-1.8-1.846-1.06.592-.71 1.961.579 1.61.505-.027 2.541 1.52 1.587.597l-.366-.361zm12.124.21c1.965-.919 3.85-2.481 4.068-4.786.584-1.226-.539-.908-.913-.179-1.158.274-1.461-1.012-.896-1.796.371-.913 2.209-1.349.616-.49-.794.755-1.175 1.564.196 1.15 1.33.492 1.598-1.068 1.979-1.962-.165-.624-2.639.188-1.832-1.08.744.088 2.424 1.007 1.914-.42-.27-.478-.372-2.802-.947-1.692-1.384 1.935-3.804 2.89-6.125 2.897-.227.246 2.414-.348 1.501.714-1.778-.244-3.725-.481-5.547-.825-.887-.026-1.41 1.267-.672.49-.795.818.075.775-.813 1.09-.126 2.124.457 4.496 2.398 5.66 1.37 1.082 3.37 2.101 5.073 1.23zm-.874-1.44c.262-.038 1.977-.082.176.112l-.038.002zm-.034-.63c-.896-.6 1.324.58 1.833-.21-.067.43-1.383.417-1.833.21zm-2.024-2.828c-.772-.15-.092-.518-.958-.344.326-.108-1.015-1.064-.645-1.313.711.689 2.153.863 3.22.66-.161.637-.976 1.263-1.617.997zm-3.795 3.84c-1.021-1.318-1.278-3.166-1.482-4.795.039-.682.267-2.393-.72-2.01-.923.903.18 1.79.1 2.728-.07.649.432 3.085.218 1.302.077-1.013-.586-2.262.364-2.837-.818.935-.127 2.358-.122 3.483.155 1.064.725 2.33 1.945 2.409-.1-.093-.205-.188-.303-.28zm-.953-.151c-1.18-1.353-1.224-3.261-1.491-4.927-.141.48-.121 2.107.177 2.979.273.903.663 1.96 1.62 2.31l-.306-.362zm-.88-.402c-.948-1.323-.808-2.97-.764-4.507-.643 1.515-.413 3.513.781 4.72.303.055.024-.1-.017-.213zm14.431-5.825c1.887-.92 1.715-3.484 1.455-5.268-.432-2.317-1.114-5.021-3.23-6.333.76 1.28 1.489 3.18 1.331 4.87.757 1.908 1.498 4.05 1.034 6.101-.061.56-1.992.839-.59.63zm.813-2.558c.126-1.725-.658-3.392-1.142-4.932.958 1.728 1.62 3.806 1.156 5.776l-.014-.844zm-.965 2.205c1.164-1.288-.335-2.949-.602-4.327-.474-.903-.09 1.375.31 1.726.469.855.932 2.126.005 2.79.147.044.197-.105.287-.19zm-13.724.014c-.59-1.127-.383.146 0 0zm4.818-.8c3.567-.51 7.386-3.267 7.409-7.154.146-1.31-.386-2.956-1.474-3.611 1.528 3.542-.854 7.551-3.977 9.3-1.12.727-2.446 1.02-3.71 1.405 4.432-.083 8.616-3.896 8.53-8.428.073-.552.262 1.615-.093 2.163-.928 3.695-4.578 6.427-8.368 6.364.555.167 1.123.024 1.683-.04zm-3.32-.125c2.27-.585 4.716-1.016 6.518-2.663 2.14-1.791 3.684-4.966 2.588-7.709.893 3.72-1.626 7.537-5.035 8.947-1.42.737-3.466.927-4.63 1.63l.56-.205zm12.83-1.828c-.147-1.16-.532-2.28-.942-3.371-.784 1.847 1.014 3.456.98 5.3.009-.645.098-1.291-.038-1.93zm-6.508 1.411c2.47-.904 4.76-2.984 4.799-5.781.175-.624-.118-2.941.147-1.237.276 2.2-.446 4.57-2.314 5.888-.508.43-2.313 1.326-.694.57 2.778-1.342 4.231-4.907 2.886-7.745.086-.819-1.955-2.732-.993-1.374 1.918 3.197.112 7.512-3.036 9.157-.547.43-2.882 1.186-.795.522zm-5.409-.266c3.791-.767 7.724-3.395 8.232-7.502-.017-.755.311-2.414-.687-2.418-.765.667-.727 2.047-1.464 2.861-1.58 2.574-4.215 4.352-7.08 5.206.069.778-.28 1.195.977.612 3.231-1.052 6.102-3.52 7.181-6.794-.741 3.645-4.128 6.217-7.57 7.199-.932-.11-1.605 1.115-.408.684 1.69-.411-.442.175-.764.396.443.143 1.104-.178 1.583-.244zm4.573-2.713c1.94-1.75 2.939-4.383 2.89-6.976.469 2.866-1.042 5.944-3.38 7.601-.942.67.394-.48.49-.625zm-4.446.18c3.103-1.267 6.007-3.765 6.824-7.121-2.49.559-4.714 2.37-6.055 4.482.609-.373 1.476-.947 1.998-1.124-.528.449-2.29 1.448-2.126 1.604 1.783-.63 2.972-2.205 4.513-3.17 1.18-.583-1.108.785-1.287 1.276-1.15 1.372-2.8 2.168-4.252 3.098.192.593-.887 1.619.385.955z" style="fill:#0c0c0d;stroke-width:1" transform="translate(644.994 36.983)"/></svg>