<svg xmlns="http://www.w3.org/2000/svg" viewBox="0 0 52.917 52.951" height="200.13" width="200"><path d="M-607.286 109.86c.533-2.46 1.138-5.626-1.826-6.557-1.818-2.622-.575-5.901-.551-8.817.341-3.056 1.075-6.068 1.825-9.038 1.594-2.72 3.944.25 4.416 2.12 1.741 2.659 5.464 4.422 8.413 2.605 2.793-.877 3.09-5.048 5.595-5.634 1.026.636 2.37 1.386 2.836-.226 3.107-1.596 3.807 2.857 5.02 4.666 1.907 2.213 5.686 2.109 7.627-.005 2.001-1.146 1.682-4.24 3.835-5.167 2.756-.072 3.722 3.216 3.896 5.454.514 4.18 1.815 8.338 1.469 12.573-.592 2.318-3.836 2.862-4.002 5.344.73.974.04 4.48-.69 1.752-.11-1.604.279 2.985-.296.496-.234-1.738-2.082-4.81-3.29-4.554.023 1.521 1.187 3.694.68 4.806-.516-2.652-1.301-5.3-2.394-7.755-1.702-.754-3.497-1.79-5.41-2.11-2.84 1.118-2.015 4.803-1.948 7.203.068 2.661-.344-2.897-.67-.393-.295.625-.401 4.15-.573 1.99-.081 1.172-.866 1.89-.62.278.405-.868.37-4.807-.605-2.155-.193 1.202-2.522 2.234-1.37.217-.01-2.267-.872 1.768-.838 2.564-1.303 1.094.913-4.484-1.674-3.593-1.016 1.177 2.139 4.798-1.081 4.607H-606.1c-.266-.972.656-4.4-.205-3.83-.224.612.326 4.205-.981 3.159zm11.09-3.433c.212-.864-.958-.236 0 0zm9.646-1.706c1.322-1.17 1.41-5.012-.059-5.291-.485.652-1.247.599-.452-.192-.987-.01-3.084 3.098-1.826.823.485-.213 2.1-1.33.542-.834 2.183-.957-2.187.381-1.43 1.853-.276 1.447 1.342 5.908 3.225 3.64zm.35.62c1.567-1.173.263-.608-.466.232zm-9.094-.252c1.242-1.164-2.082-4.108-.117-1.48.118.484.114.985.117 1.48zm26.49.132c2.425-.308 2.612-3.095 3.636-4.695.294-2.65-.818-5.207-.963-7.846-.322-2.368-.7-4.754-1.565-6.994-1.014-.554-2.122 3.187-1.176 1.656-.18.526-1.01 3.253-.228 1.575-.202.803-1.386 4.435-.227 2.091.5-1.172 1.7-2.828.522-.63-.395.772-1.854 3.642-.706 3.377.692-.926 2.168-4.184 2.14-3.599-.773 2.454-3.353 4.437-2.68 7.237.099-.459 1.841-3.054 1.314-1.513.566-.792 1.844-3.892 1.032-1.27-.92 1.172-2.985 4.016.054 3.284 1.376.225 1.8 1.303.154.594-1.471-.184-1.503.163-.062.245 1.316.6.976 1.183-.12.264-2.309-.653 1.397 1.85.74 1.736-.337-.927-3.4-2.457-2.716-.66-1.165-1.857-2.08-.64-1.503.902-1.552 1.87-1.431 4.256 1.45 4.299.301.036.61.023.903-.053zm2.397-4.422c-1.179-.84.779-.22 0 0zm.463-2.776c-.585-.583-3.73-.378-1.575-.965.242.148 2.12.692 1.575.965zm-30.074 6.455c-.098-2.458-3.124-3.432-4.21-5.403-.612-1.86-1.572-5.623-4.248-3.78-1.215.715.562 3.32-.25 1.136.676-2.972 4.521-.464 3.81 1.908.068 1.053.822 2.99.66.853 2.503.533.683 4.08-1.175 1.706-1.033-.7-2.896-.278-.8.398 1.188.313 2.527 1.495.406.98.44 1.145 3.443 1.69 4.939 2.058.288.055.578.103.868.144zm-6.936-3.725c-.592-.628.954.503 0 0zm19.99 3.233c.14-1.621-.402 1.434 0 0zm-17.052.066c-1.442-1.113-2.311-.024 0 0zm16.163-1.048c1.143-1.093-.934.726 0 0zm-20.356-.325c-1.418-.649-1.827.335 0 0zm32.064-.082c-.72-1.004-1.22.235 0 0zm-11.162-.333c.44-.302.176-1.269 0 0zm-22.734-.879c.658-1.591-.555-1.263 0 0zm2.087-.106c-.043-.799-.662.034 0 0zm28.364-.252c-.335-1.06-2.852-.702-.957-.157.272.153.645.324.957.157zm-7.338-.83c2.7-.613-2.375-.776 0 0zm10.99-.095c1.036-1.716-1.373-4.118-2.875-3.933 1.818.395 1.593 2.575-.065.945-.88-.566-3.737-1.185-1.29-.351 1.636.958.384 2.12-.948 1.139-1.273-.397-2.307-.042-.505.374 1.878.65 4.043.582 5.684 1.826zm-2.467-.1c-1.03-.628-3.676-1.161-3.98-.846 1.275.438 2.585 1.23 3.98.845zm-6.274-.156c.038-1.009-1.81.555 0 0zm-24.403-.34c.904.055 3.775-.797 1.229-.746-.256.153-1.79.166-1.23.747zm3-.134c-1.459-.18-1.29.266 0 0zm19.62-.089c1.228.465 3.508-1.742.96-.708-1.794.37-1.888-1.163-.524-1.464-2.065-.354-2.98 2.364-.436 2.172zm-6.066-.544c1.058-.462 3.168-.826.822-1.01-.165-.635 3.628.357 1.467-1.064 1.453-.157-2.126-2.763-.141-1.32 1.77 1.156-.259-2.407-.254-3.203.433-.7.848 2.625 1.618 3.435.564-1.379-1.398-4.82-1.083-4.939 1.49 1.586-.5-1.975-.924-2.543-1.601-1.325-1.136 2.837-1.413 3.866a36.785 36.785 0 0 1-.644 6.678c.052.252.405.202.552.1zm17.645-1.867c.56-1.615-1.403.956-.52-.83.57-2.761-.405-5.498-1.138-8.127.02.592-.095 1.581-.29.346-1.462 1.287-5.147 2.873-4.66 4.3.081-2.688-3.765-1.514-4.428-4.029-1.863-2.495-1.087 1.818-1.238 3.08.202 1.663-.33 4.027.413 5.24 2.29-.012.788-3.59 3.519-3.12 2.643-.248 4.524 1.82 6.629 3.029.849.431 2.218 2.52 1.713.111zm-12.05-2.262c-.344-1.137.088-4.357.041-1.387.02.462.037.928-.04 1.387zm9.238-.58c-2.813-.521 1.342-3.97 1.55-1.208-.185.695-.888 1.093-1.55 1.208zm1.224-.684c.788-1.154-1.861-1.222-.264-.49-.888.413-.344.724.264.49zm-1.224-.147c-1.042-1.07-.782 1.09 0 0zm0-.829c-.949-.9-.397 1.657 0 0zm.103-1.269c-1.333-1.518 2.063-.198 0 0zm-29.472 7.02c1.122-1.668-.96-.17 0 0zm22.005-.3c1.515-1.227-1.26-.134-.233.049l.127-.027zm-2.559-.663c.596-3.125-.173-6.308.194-9.458.133-1.048-.146-2.269-.335-.466-.57 3.41-.265 6.874-.375 10.31.153-.157.324-.282.516-.386zm4.402-.725c-.03-1.376-1.207.819 0 0zm-23.693-.508c-.473-.388-.62.518 0 0zm.946-.366c-.846-.514-2.745.305-.801.038.239.018.594.204.8-.038zm21.075-1.055c1.115-.28 3.689.288 3.891-.292-1.296-.237-2.63-.037-3.891.292zm-27.704-2.436c1.011-.52.305-2.889-.001-.94l-.053.47zm22.772-2.634c-.562-.995-1.796-2.893-.356-1.959.1-.396-1.123-1.874-.151-1.018-2.008-1.948-.67 3.106.507 2.977zm15.469-.417c-.029-1.64.68-2.487.69-1.245 1.801-1.087 1.06-5.144-.807-2.617-.434 1.257-.079 2.596.117 3.862zm-35.183-3.39c-.25-2.548-1.788 1.764.013.63l.005-.372zm19.291-.187c-.658-1.474-.154 1.335 0 0zm9.98 24.841c-.492-.786-.087-1.646-.012-.288zm-2.31-.934c-1.103-2.405-1.673-5.045-1.869-7.675.399 2.448 1.282 6.126 1.87 7.675zm1.582-1.935c-.39-1.18-1.004-3.928-.759-4.227.268 1.406.654 2.795.76 4.227zm-21.474-17.003c-3.254-.493-4.557-3.888-6.538-6.06-.188-2.099 3.696-2.536 2.12-5.093-.488-2.868-2.5-5.411-2.324-8.38.44-3.407 3.046-6.91 6.753-6.896 4.236-.538 8.768 2.55 9.2 6.914.265 2.54-1.753 4.461-2.417 6.783-.52 1.649-1.416 3.963.378 5.17 2.609 1.724-1.477 3.5-2.065 5.32-1.213 1.52-3.125 2.571-5.107 2.242zm2.664-9.954c2.888-1.145 4.744-4.964 3.077-7.782.525 1.425-3.436.51-.608 1.384 1.116 2.088-4.154 1.923-2.29-.499.707-.988 3.828-.835 1.612-2.359-1.518-2.426-6.27.251-5.349 1.515 1.504-.66 2.37 1.47.532.647-3.43-.461-2.952 4.7-.656 5.974.948.927 2.355 1.588 3.682 1.12zm-1.715-.567c-1.552-1.146-.454-2.397 1.045-1.721 3.29-.361.224 2.185-1.045 1.72zm.807-.93c-.484-1.044-1.008.478 0 0zm.69-.003c.672-.893-1.557.442 0 0zm-1.108-1.314c-1.811-1.507 3.675-.548.551.066l-.267-.011zm-2.318-2.103c-2.605-2.245 4.651-2.07 1.374-.044-.39.283-.98.375-1.374.044zm6.25-1.375c-.518-.71-.553.321 0 0zm.019-2.374c-.621-.97-1.869-1.678-.418-.406-.02-.154.6 1.161.418.406zm-5.496-.903c.918-.887-1.289 1.082 0 0zm-2.293-5.786c1.209-.584-1.576.54 0 0zm22.699 25.073c-2.923-.214-3.703-3.467-5.097-5.492-2.415-1.53 1.225-4.708-1.817-5.866-2.49-2.42-4.723-6.182-3.137-9.682 2.252-5.18 10.124-6.836 13.971-2.502 2.075 2.122 3.267 5.377 2.25 8.275-2.405 1.168-2.596 4.468.027 5.508 2.048 1.129 1.792 3.288.237 4.652-1.261 2.405-3.488 5.203-6.434 5.107zm1.643-.89c3.079-1.093 4.047-4.514 5.924-6.852-2.22-.947-1.812 3.453-3.982 3.798-.764.692-3.903.685-3.337.682 1.077.185 4.552-1.658 1.74-.708-1.694.388-3.929.214-4.865-1.475 2.431 2.105 6.426 1.322 8.225-1.181 1.31-.93.278-3.91-.724-1.665-.23 1.738-4.02 2.712-3.715 2.415 2.411-.205 4.955-3.158 3.248-5.43-.672 2.127-3.11 4.269-5.83 3.379-2.757-.984 1.194 1.342 2.424.576 1.456.115 3.37-2.235 3.553-2.156-.76 2.215-3.642 3.223-5.778 2.685-.902-.311-3.942-2.78-2.244-.636.711.545 4.142 2.508 1.626 1.261-3.332.598 1.195 3.293 1.846 3.483-.978.194-4.446-2.965-3.191-.21 1.035 1.658 3.187 2.523 5.08 2.034zm-1.757-.503c-1.459.297-3.35-2.457-3.106-2.218.828 1.899 4.548 1.796 5.169 2.054-.66.229-1.376.26-2.063.164zm-2.353-4.015c-.496-1.05.791.459 0 0zm1.767-.8c.077-.368.953.62 0 0zm-2.885.505c-.139-1.4-.096.22-.295-.043.073.451.433.956.295.043zm-.512-.9c.555-1.788-1.218-1.443-.746-.168-.317-1.339-1.034-1.74-.846-.103.045.873 2.297 1.838 1.592.272zm-1.045.265c-.913-1.228.667.224 0 0zm2.547-1.164c-.782-1.117-2.04-1.43-.527-.259.16.114.354.17.527.26zm3.41-.737c1.775.66 3.212-4.13 1.175-1.359-.516.832-4.275.562-3.103 1.24 1.102.163 1.909.017.332.007-2.174.2 1.4.47 1.597.112zm.345-1.24c1.618.327 2.687-4.472.932-1.958-.373.73-3.418 2.966-.932 1.957zm-2.94-.155c3.12-1.174 3.876-5.298 1.729-7.712-1.187-1.45-4.922-2.062-5.349-2.044 1.542 2.144-2.774-1.733-2.173 1.12.33 1.406 4.072 3.589.945 4.155-1.117-.072-1.496-2.265-.088-1.977-3.196 1.57.453 5.468 2.606 6.309.697.39 1.602.59 2.33.149zm-2.162-.842c-1.732-.11-1.774-4.38.036-2.728 1.818-.414.473.345.165 1.052.71.47 2.952-.56 1.372-1.135 3.121-.194.035 3.704-1.573 2.811zm1.355-.146c1.016-.909-1.482.893 0 0zm-.334-.295c1.25-.626-2.255.173-.064.002zm-.363-.36c-.59-.882-1.057.584 0 0zm.534-.034c.357-1.156-1.12.461 0 0zm.706-.445c-.75-.64-.044.967 0 0zm.07-2.8c-3.004.405-1.812-4.786.658-2.801 1.385.732-2.692.618-.43.999 2.222.001.74 1.244-.229 1.802zm.372-1.01c-.423-.759-.86.777 0 0zm.213-.461c-.419-.445-.889.78 0 0zm2.313 5.308c1.496.045 2.148-3.392.735-.925-.067.18-1.404.873-.735.925zm.721-1.566c1.065-1.443-.143-.404-.338.313zm-9.953-1.859c-1.346-2.318-2.483-6.16.269-7.921 2.897-1.676 6.566-.03 8.428 2.45.394-.836-2.531-3.142-1.982-3.155 2.085 1.077 2.888 3.349 3.283 5.513.956 2.691-.256-3.612.762-.952.212 2.813 1.041-1.143.087-1.947-.676-1.06-.607-2.584.245-.638.727 1.21.116 4.154.393 4.474.87-.987.216-4.72.96-4.382.732 1.65-.408 4.866-.493 5.347 1.513-.843.566-4.663 1.5-4.596.462 1.73-.69 3.328-1.05 4.938.437-.669 1.932-3.767 1.366-1.237-.555.744-1.334 2.947-.019 1.15 1.775-3.342-.441-7.368-3.3-9.3-4.643-2.982-12.197.32-12.309 6.073.191 1.466.73 3.193 1.86 4.183zm6.413-8.056c-1.414-1.508 1.705 1.385.258.258zm-2.009-1.233c-1.313.009-2.506-.363-.475-.292.206.012 1.681.52.475.292zm5.256 7.107c-.618-1.08-2.6-3.05-2.893-3.117 1.056.953 1.795 2.207 2.893 3.117zm.085-.433c-.828-3.907-5.464-6.846-9.269-5.162-1.7 1.505.01 1.604 1.067.56 2.904-.803 5.716 1.216 7.262 3.533.299.369.6.738.94 1.069zm-10.872-2.141c-.111 1.037.09.791 0 0zm1.623-.61c-.646.284-.35.67 0 0zm5.1.46c-1.51-.577.81.491 0 0z" style="fill:#a7ced0;stroke-width:1" transform="translate(613.934 -57.615)"/><path d="M-607.286 109.963c.87-2.656.666-5.862-2.076-7.068-1.467-2.812-.255-6.012-.207-8.986.432-2.868.895-5.789 1.828-8.526 2.057-2.673 4.008 1.234 4.833 2.916 1.933 2.398 5.637 3.515 8.325 1.704 2.537-.978 2.43-4.82 5.199-5.392 1.229 1.394 2.337.52 3.256-.424 3.589-.797 3.074 4.415 5.597 5.634 2.633 1.86 6.594.464 7.798-2.426.743-1.576 2.143-4.487 4.264-3.215 2.424 1.892 2.069 5.317 2.694 8.037.587 3.263 1.43 6.595.931 9.92-1.23 2.306-4.818 3.425-3.664 6.644-.15 2.14-1.229-.028-1.123-.957.345.688.152 3.18-.186 1.176.224-1.644-1.697-5.453-3.25-3.833.155 1.321 1.11 2.991.646 4.143-1.183-2.54.176-6.926-3.173-7.9-1.834-.928-4.3-2.356-6.137-.663-2.12 2.426-1.402 5.883-1.877 8.824-1.106-.18.791-3.89-.354-4.3-.13.938.449-1.65-.677-.485-2.074 1.046-1.782 3.414-2.458 5.173-.138-1.011.5-5.017-1.448-3.537.365 1.168 1.242 4.71-1.499 4.267-2.187-.283-5.274.138-6.487-2.226-.357-.937-2.07-2.123-1.371-.203.398 1.401-.856 2.058-.305.3.611-2.87-5.525-4.96-4.577-1.019.379.99-.282 3.88-.572 1.495.187-.773.422-3.838-.214-2.887.24 1.174-.813 5.012-.604 1.961.186-.768-.507-1.469-.672-.4-.8-2.238-.303 4.03-1.248 1.337.225-.795.264-4.754-.22-2.115-.142.622.22 3.837-.972 3.031zm11.502-2.46c-.415-.9-.563.027 0 0zm.66-.192c.698-.557-.049-.528-.148 0zm-.293-.793c-1.336-1.275-1.684.27 0 0zm-.323-.57c.507-.67-1.258.782 0 0zm.39-.463c1.403-.81-1.656-4.228-.107-1.979.2.64.182 1.321.108 1.979zm9-.074c1.94-.358 1.26-2.151.495-3.08.467-1.7-.342-3.877-1.333-2.79-.21-1.003-2.77 2.583-1.742.631 1.23-.213 1.7-2.103.18-.907-2.282 1.62-.756 6.245 1.99 6.236zm17.769-.252c3.297-1.264 4.07-5.501 3.053-8.541-.68-3.674-.792-7.497-2.2-11.003-1.216-.257-2.426 3.875-1.289 2.206-.195.474-1.209 3.105-.214 1.674-.515 1.02-1.021 3.717.043 1.246.429-.966 1.15-1.762.332-.312-.37.87-1.803 3.714-.863 3.664.621-.954 1.952-3.644 2.132-3.407-.553 1.592-3.65 4.945-1.832 5.72.41-.624 1.166-1.619.535-.297.56-.915 2.001-3.562.863-1.028-.97.82-2.337 3.851.134 2.723 1.086-.145 2.137 1.53.506.628-1.272-.219-1.959.255-.188.322 1.784 1.227-.048.127-.917.221.54.806 1.686 1.673.2.643-.622-.578-2.66-.823-1.276.375-1.32-1.542-2.274-.617-1.498.952-.6 1.325-2.85 3.4-.088 3.902.792.368 1.71.54 2.567.312zm2.247-4.31c-1.253-.59.054-1.433 0 0zm.356-2.857c-.99-.257-3.409-.947-1.024-.731.25.194 1.232.303 1.024.73zm-30.351 7.116c1.114-2.52-2.06-3.78-3.372-5.37-1.065-1.783-1.843-6.398-4.84-4.477-1.15.899.771 3.915-.049 1.137 1.004-3.026 4.541.167 3.749 2.424.053.815.797 3.115.522 1.01 2.386-.626.63 3.558-.973 1.157-.589-.585-3.718-1.064-1.69-.04 1.235.156 2.979 2.212.794.769-1.389-1.05-2.128.67-.423.878 1.038.339 2.733 1.523.635.627-2.09-.302 2.122 2.322 2.778.865 1.66-.004.077 1.589 2.869 1.02zm-3.077-1.325c-.932-.179-3.236-1.496-1.107-.495.041.063 1.966.558 1.107.495zm6.97.898c1.293-1.799-4.12-3.332-2.026-1.175.593-.781.201-1.223.997.08.27.421.555.875 1.029 1.095zm.898-.88c.597-1.895-3.362-2.899-2.678-1.792 1.074.307 1.616 1.46 2.678 1.791zm6.965-.23c1.147.01 1.528-2.641.756-.563-.013.382-2.177.849-.756.563zm11.877-.37c-.398-.891-1.27-.552 0 0zm-31.488-.539c-1.897 1.31-1.833-4.239-2.039-1.181.114.889 1.172 1.838 2.039 1.181zm31.943 0c-.872-1.226-1.255.003 0 0zm-36.23-1.238c1.162-.048 3.833-3.06 1.306-1.699-.553.46-1.035 1.027-1.305 1.7zm3.7.25c-1.39-1.726 1.61-2.741 1.812-2.863-1.622-.854-4.334 1.979-1.812 2.863zm8.773.03c3.502.009 2.64-4.253 2.275-6.5.003-1.858 1.165.94.879-.971.302-2.05 1.232-4.099.725-6.196-1.502 2.263-3.848 4.986-6.892 4.258-2.602.075-3.688-5.04-5.32-4.465-.148 2.242-1.402 6.563 1.961 6.744 2.476.756 1.747 3.875 3.614 5.292.722.834 1.608 1.705 2.758 1.839zm.541-1.972c.102-2.183.142 2.771-.004.22l.002-.131zm12.056 1.688c-.528-.923.08.634 0 0zm-7.747.05c-1.294-.569-1.722-.237 0 0zm6.808-.254c-.678-.419-.51-1.477-.004-.274-.8-1.465.598-1.697 1.212-.496 1.354.17 4.07-1.53 1.16-.91-1.53.113 3.56-1.156 1.05-1.076-1.098.554-2.925-.713-1.077-1.348-1.745-.12-4.472 2.524-2.795 3.98zm9.262-.273c2.877 1.21 4.692-3.312 1.816-4.482-.754-.644-2.752-.318-.918.271 1.807 1.661-1.912.107-2.42-.336-1.487-.242 1.302 1.118.151.512 1.635.376 1.171 1.813-.28 1.021-1.113-.457-2.965.127-.727.378 1.194-.177 4.016 1.774 1.346 1.092-1.008-.52-3.487-.368-1.14.168 1.632.523.932.59-.39.06 1.047.178 2.194 1.17.402.613-.508.417 1.633 1.172 2.16.703zm-4.032-3.078c.607-1.054.117.687 0 0zm1.505-1.335c.15-.596.378.494 0 0zm-30.706 3.837c.836-.391.635-1.221 0 0zm15.59-1.34c-.397-1.011-.078-3.188-.84-3.536.268 1.13-.116 2.705.84 3.536zm-16.084.13c1.29.086 1.766-1.289.32-.346.053-.03-.908.731-.32.346zm6.964.213c-1.304-.183-1.784.307 0 0zm-7.657-.307c1.8-.292.439-4.055 2.952-2.654.64-.633-1.386-2.08.231-2.33.203-.822-1.249-4.185-.833-3.305.041 1.215 2.081 3.652.937.987-.663-.954-1.396-4.737-.501-1.925-.044 1.032 1.73 3.312 1.049 1.012-.28-.98-1.379-3.978-1.145-3.622.176.923 1.624 2.423.888.494.319-2.189-2.778-1.792-2.02.288-.989 3.605-1.082 7.367-1.558 11.055zm3.73-8.042c-.786-.476.205-1.208 0 0zm14.612 8.031c1.93.107-.266-1.157 0 0zm2.6-.272c.958-.153 3.128-1.119.885-1.248 2.587.523 2.265-1.318.74-2.55 2.713 2.158-.265-3.381.634-2.579.1 1.008 1.753 4.44 1.26 1.556-.491-1.257-1.07-2.937-.729-3.577-.26-1.286-2.342-4.13-2.424-1.17-.479 3.128-.144 6.346-.905 9.437.097.187.367.262.539.13zm-13.792-.518c.67-2.935-2.566.664 0 0zm-.642-.112c-.883-1.724 1.675.498 0 0zm32.153-.589c.138-3.234-.924-6.338-1.587-9.462-1.567 1.33-4.044 1.939-4.885 3.843-.33 1.612-.442-1.48-1.649-1.302-1.582-.406-3.533-2.254-4.018-2.81-.685 2.35.257 4.861-.312 7.23-.024 2.096 2.525 1.962 2.09-.212 1.642-2.562 5.066-.452 6.967.78.973.14 3.061 2.938 3.394 1.933zm-2.858-3.522c-2.947-.65 1.887-3.924 1.474-.958-.263.57-.883.87-1.474.958zm.015-.801c-1.028-1.746-1.274 1.232 0 0zm1.07.163c.896-.864-1.204-1.312-.423-.453-.534.312.036.852.424.453zm-1.085-1.007c-1.144-.99-.161 1.635 0 0zm.103-1.292c-1.216-1.265 1.643-.054 0 0zm-32.415 6.895c-.59-1.112-3.007-.007-.78-.256.244.035.549.572.78.256zm25.097-.186c.46-1.472-1.452.83 0 0zm-10.251-.3c1-.255 2.655-3.52.589-1.95-.386.575-.538 1.27-.59 1.95zm7.602-.378c.435-3.463-.116-6.966.15-10.433-.504-.928-.59 2.695-.66 3.498.154 2.248-.584 5.269.39 7.076l.12-.14zm-23.243.043c-.832-.344-.67.255 0 0zm27.767-.77c-.558-1.69-1.618 1.176 0 0zm-23.84-.481c-.874-.447-1.282.36 0 0zm11.868-.645c1.87-2.343 2.372-5.407 2.69-8.304-1.769-.356-2.16 3.879-1.614 3.63 1.486-2.631-1.173 2.8.137.844-.124 1.298-1.396 2.632-1.213 3.83zm-10.869.302c-1.178-.582-2.556.323-.486.094l.25-.011zm23.827-.604c-2.182-.038-.908.07.383.019zm2.051-.33c-1.015-.845-3.911-.56-4.057-.168 1.351-.16 2.72-.056 4.057.169zm-13.047-1.72c-.209-.804.058 1.532 0 0zm-7.377-.954c1.976-.379.438-1.513-.684-.606-1.037.222-3.628-1.401-3.693-.533 1.192.973 2.84 1.699 4.377 1.14zm-8.573-2.199c-.18.816.16.712 0 0zm10.35.575c.968-.474.299-.432-.145.016zm8.958-.605c-.476-.901-1.754-3.132-.374-1.602-.22-1.006-.794-1.86-.178-2.002-1.11-1.559-1.969 2.636-.15 2.792.205.294.435.573.702.812zm-.796-3.74c-1.289-.552.494-.37 0 0zm16.229 2.616c-.392-.849.792-2.343.387-.675 1.938-.952 1.396-5.294-.686-2.765-.231 1.017-.429 2.718.299 3.44zm-20.276.138c1.944.282 1.413-4.602.44-1.411-.083.393-.655 1.111-.44 1.41zm-.353-.86c.186-.953 1.852-3.952.073-1.936-.105.327-.582 3.422-.073 1.936zm-.098-.581c-.134-.565.37-.812 0 0zm20.024-.473c-.126.696.115.853 0 0zm-34.545-1.181c-.558-2.628-1.345 2.357.021.645-.01-.215-.015-.43-.021-.645zm.37-.126c-.25.557.277.766 0 0zm28.73 24.236c-.866-.759.46-.262 0 0zm-2.24-.596c-.995-1.793-1.724-6.176-1.669-6.668.416 2.254.924 4.497 1.669 6.668zm-3.555-1.344c-.33-.843.138-3.274.033-1.016-.086.166.23 1.157-.033 1.016zm5.2-.494c-.488-1.024-1.097-5.67-.423-2.445.177.808.35 1.62.422 2.445zm-5.164-5.3c.11-1.667.017 1.759 0 0zm7.922.388c-.6-.834.412-.492 0 0zm-24.269-12.037c-3.228-.565-4.58-3.895-6.493-6.136.341-2.056 3.932-2.92 2.07-5.383-.422-2.96-3.012-5.622-2.09-8.72.813-2.648 2.348-5.665 5.443-5.978 4.196-.973 9.177 1.422 10.17 5.807.821 3.22-1.825 5.708-2.635 8.61-1.344 2.322.578 3.732 1.628 5.488-.61 1.64-2.196 3-3.307 4.478-1.234 1.263-2.979 2.169-4.786 1.834zm1.44-.775c2.335-.177 4.506-2.126 4.987-4.397-.249-1.152-1.515 2.636-2.936 2.896-2.028 1.511-4.922.843-6.536-.952-.852-.911-2.288-1.604-.812.012 1.23 1.577 3.209 2.92 5.298 2.44zm-.674-1.552c2.208-.554-1.866.052-2.388-.821-1.648-.645-3.691-3.064-4.525-3.397 1.459 2.36 4.21 3.856 6.913 4.218zm1.378-.653c.787-.304 3.539-2.423 1.274-1.243-2.116 1.724-4.259.443-6.261-.989-.747-.893-3.143-1.989-1.353-.188 1.756 1.357 4.008 2.971 6.34 2.42zm-.483-1.168c-.994-.16-3.885-1.39-1.395-.277.452.144.92.247 1.395.277zm.345-.688c-.294-1.492-.325 1.329 0 0zm.384.44c1.465-.212 3.54-2.251 3.532-2.894-1.1.603-3.884 1.865-3.532 2.895zm3.148-.034c1.063-2.406-1.899.388 0 0zm-4.365-.138c-.468-.88-3.236-2.695-2.85-2.099 1.854 2.071-1.128-.782-1.26-1.735-1.362-1.17.811 2.53 1.821 2.705.7.49 1.476.868 2.29 1.13zm.293-.372c-.272-.978-.098.974 0 0zm5.436-.378c2.071-1.086-1.749-1.528-.13.19zm-5.075-1.187c.416-.555 2.83-.275 1.127-.988-.211-.008-2.169 1.125-1.127.988zm1.476.029c-.739-1.259-1.06 1.207 0 0zm-2.423-.405c-.975-1.016-3.469-2.887-3.87-2.91.997 1.296 2.37 2.276 3.87 2.91zm3.69-.001c-.066-1.378-1.875.219-.12-.27.467-.324-.415.19.12.27zm.215-1.02c2.079-2.483-1.921.85 0 0zm-1.034-.644c1.611-.641.924-1.49-.206-.315-.682.368-.25.629.206.315zm-.828-1.482c3.765-1.439 4.789-7.373 1.363-9.72 1.598 1.275 1.717 3.785-.755 2.752.013-1.19 2.256-.485 1.115-2.06-1.694-2.305-4.419-1.078-5.772.784.15-.692 2.298-2.235.555-.947-2.566 1.927-3.066 6.349-.249 8.302.982.877 2.469 1.588 3.743.89zm-1.92-.51c-1.544-1-.178-2.247.996-1.619 3.132-.228.233 1.766-.996 1.62zm1.727-.699c-1.217-.187-1.976.35 0 0zm-.93-.278c-.79-1.312-.912.78 0 0zm.704.096c1.079-1.124-1.62.572 0 0zm-1.29-1.454c-.656-1.049 3.365-.155 1.022.074l-.513-.007zm-2.09-1.983c-1.29-.888.842-1.469 1.264-1.26-2.23-1.173 2.44-.007.296.982-.567.174-.86.832-1.56.278zm4.443.045c1.91-.17-1.554-.484.034-1.63.648-.096 3.226.324 1.264 1.442-.37.243-.878.438-1.298.188zm1.816-1.154c-1.267-.571-1.704.56 0 0zm-5.146-.897c-2.105.63-1.563-1.661.202-.751.972.298.745.993-.202.751zm-3.371 7.013c-.384-1.013-.99-.999 0 0zm-.068-4.466c-1.072-3.336-1.058-7.484 1.526-10.144-.448 1.468 2.06-1.942 3.151-.86 3.607-.028 5.893 3.916 5.445 7.21-.054.922.186 2.63.246.687.588-2.194-1.288-6.17-1.542-6.723 1.905 1.035 2.689 4.443 3.13 5.43.233-4.84-5.654-8.778-10.04-6.666-3.194 1.715-3.712 5.89-2.759 9.07-.095.197 1.25 3.495.843 1.996zm-.6-6.782c.018-1.042.629-1.69.135-.305.078-.096-.342 1.27-.136.305zm-.875 6.064c-1.217-.726-.938-3.774-1.67-3.746.167 1.365.573 2.828 1.67 3.746zm3.055-3.549c1.208-2.633 5.658-3.411 7.139-.633 1.734.304-.824-3.28-2.247-2.99-2.88-.682-6.223 1.96-5.759 4.998.511-.297.5-.963.867-1.375zm-4.05.242c.21-2.566 1.551-4.858 3.01-6.913-2.344 1.34-3.552 4.298-3.01 6.913zm13.336-2.55c-.226.884-.557.445-.088 1.792.401-.203.068-1.303.088-1.792zm-10.573 2.14c.64-2.774 4.008-4.99 6.708-3.562.982-.307 2.622 2.057 1.534.022-1.753-2.642-6.733-2.618-7.68.727-.367.879-.854 1.837-.562 2.813zm.699-4.394c1.15-2.336 5.05-.649 6.07-1.314-2.246-1.67-5.677-.304-6.734 2.128.257-.24.447-.539.664-.814zm.416-.49c.427-.956.472.283 0 0zm22.197 23.443c-2.816-.088-3.67-3.159-5.05-5.067-2.518-1.66.906-5.336-2.164-6.596-2.53-2.35-4.616-6.185-2.894-9.588 2.36-5.063 10.21-6.62 13.942-2.215 1.91 2.022 3.077 4.994 2.297 7.757-2.587 1.423-2.615 5.483.447 6.248 2.33 2.141-.697 4.852-1.898 6.718-1.16 1.426-2.787 2.628-4.68 2.743zm.817-.398c2.924-1.23 4.56-4.115 6.23-6.638-.122-2.821-1.722 1.49-2.479 2.002-1.238 1.286-3.142 2.125-4.924 1.602 1.178.749 5.043-1.612 2.417-.537-1.175.598-4.875-.446-4.236-.797 2.712 1.104 5.924.183 7.71-1.932.88-1.157-.483-3.809-1.102-1.325-.72 1.154-2.328 1.942-3.52 2.055 2.302.028 4.974-3.485 2.842-5.265-.376 3.104-4.356 4.282-6.83 2.902 1.977 2.336 4.918.54 7.033-.547-1.714 2.299-5.435 2.94-7.542.868.276-1.032-1.959-1.244-.646.053.224 1.15 3.344 1.646 2.624 2.37-1.25-.724-2.727-2.21-3.708-1.972-.92-1.073-.078 2.334 1.206 2.497.995.963 2.992 1.18 3.568 2.3-.896-.216-4.195-2.542-3-.095 1.003 1.404 2.655 2.28 4.357 2.459zm-1.265-1.076c-1.394.442-4.046-3.455-1.78-.981 1.006.65 5.554.765 2.271 1.122zm-2.652-3.993c.583-.815.571.172 0 0zm-1.057-.843c-.569-.57.53-.722 0 0zm4.812-1.941c1.631.906 3.156-3.913 1.247-1.49-.591 1.334-4.197.263-3.638 1.452.759.301 1.619.278 2.39.038zm-2.205-.119c1.298-.088 1.637.299 0 0zm.448-.581c-.954-.27-.247.205 0 0zm1.688-.428c1.777.475 3.3-4.454 1.06-1.86-.475.94-3.986 2.624-1.06 1.86zm-2.718-.188c2.57-.928 4.457-4.505 2.486-6.831-.981-1.692-2.931-3.022-4.427-2.784-.894-.418-1.858-.534-1.176.4-1.11-.068-2.694-1.477-2.597.649-1.48 3.663 1.23 8.711 5.39 8.632zm-2.25-1.1c-1.405-1.712 3.19-1.475 2.84-2.131.749 1.337-1.867 2.166-2.84 2.131zm1.757-.458c-1.223-.633-1.45 1.052 0 0zm-.286-.208c-.757-1.077-1.611.893 0 0zm.638-.237c.351-1.193-.752.663 0 0zm-2.994-.795c-.554-1.065.61-2.08.622-.52.637.506-.233.632-.622.52zm1.403-.433c.568-1.545 1.06.596 0 0zm-3.233-1.47c-1.114-.715 1.301-.86-.264-1.277.744-1.477 3.3 2.063.264 1.276zm4.32-.432c-2.213-1.145 1.615-2.406 1.912-.956-.388.585-1.173 1.179-1.912.956zm1.02-.903c.315-.916-1.442.546-.303.115zm-6.442-.505c.216-1.647 2.76.422.359.072l-.191.022zm4.005-.636c.037-2.048 4.481.204 1.502-.109-.483.123-1.01.335-1.502.11zm5.385 5.73c1.488-.097 1.309-2.93.271-.746-.52.378-1.569 1.645-.271.747zm.121-1.003c1.213-.876-.03-1.361-.228.044-.594.886-.026.32.228-.044zm-9.86-2.341c-1.29-2.255-2.172-5.669.103-7.613 3.09-1.892 7.215-.073 8.965 2.826.164-1.531-2.532-3.126-2.32-3.693 2.553 1.53 3.328 4.676 3.663 7.433.752-.636-.659-3.963.286-3.142-.048 1.262.648 2.487.725.524.202-1.25-1.103-2.766-.8-3.71 1.743 1.847.51 6.144.375 6.911 1.352-1.233.699-5.337 1.57-5.515.274 1.72.202 3.652-.895 5.092.85-.47.736-3.22.408-1.079-.529.79-1.07 2.385.048.869 1.484-.748.486-4.865 1.373-4.438.855 1.785-1.786 5.026-1.27 5.412.388-.598 2.07-3.916 1.586-1.694-.65.826-1.601 2.882-.068 1.142 1.813-2.855.076-6.547-2.167-8.612-3.83-3.43-10.639-2.01-12.764 2.668-.95 1.855-.696 4.111.455 5.815.156.216.315 1.033.727.804zm6.478-7.897c-1.046-1.25 1.245 1.21 0 0zm-1.926-1.211c-1.217.12-2.402-.493-.483-.284.194.03 1.674.554.483.284zm5.51 7.85c-.543-1.8-3.564-4.385-4.033-4.46 1.572 1.26 2.853 2.837 4.033 4.46zm-.24-1.335c-.954-3.948-5.923-6.95-9.66-4.729-1.13 1.019.155 1.811.802.551 2.583-1.175 5.677.25 7.2 2.467.843.249.72 1.675 1.657 1.711zm-10.685-.203c-.868-.909.774-5.131-.222-2.084-.071.7-.004 1.417.222 2.084zm1.149-.165c.503-2.294-.462.238 0 0zm-.377-1.458c1.38-1.642-.88.965-.108.22l.057-.117zm12.686-.77c-.126.696.116.853 0 0zm-10.02.45c.048-.713-.555-.35 0 0zm-1.97-.92c-.728-.185-.23.85 0 0zm5.394.279c-.776-.575-1.802-.347-.255-.086z" style="fill:#92a7ab;stroke-width:1" transform="translate(613.934 -57.615)"/><path d="M-607.25 110.17c.055-1.876.387-3.747.904-5.546-1.295.164-2.566-.59-3.014-1.824-.96-1.781-.877-3.921-.299-5.807-.34-2.425.474-4.769.801-7.146.41-1.754.708-3.612 1.58-5.193.409-.416 1.243-1.06 1.703-.374.471.172.504 1.19.777.994.71 1.207 1.313 2.497 2.42 3.45.385.463.81 1.048 1.42 1.364.695.358 1.368.487 2.097.716 1.169.271 2.41.27 3.457-.386.776-.383 1.372-.963 2.073-1.425.383-.376.604-.682 1.03-1.102.54-.843 1.007-1.765 1.579-2.56.481-.381 1.187-1.312 1.758-1.005.553.584.928 1.44 1.006 2.24.304-.72.758-1.496 1.257-1.97.36-.301.783-.48.948-.82.423-.368 1.063.199 1.449.65.554.575 1.47.945 1.376 1.915.295 1.875 1.82 3.447 3.565 4.105.814.396 1.657.085 2.515.176.601-.238 1.413-.245 1.88-.848.993-.719 1.912-1.559 2.543-2.596.106-.264 1.089-1.473.63-.693-.625.63-.194 1.637-.23 2.435.298.95.423 2.117 1.025 2.87.067.176.32.49.029-.607-.314-1.445-.672-2.874-.56-4.365a4.417 4.417 0 0 1 .983-3.25c.585-.28 1.072.383 1.69.483 1.997.918 2.271 3.365 2.617 5.284a400.093 400.093 0 0 1 1.58 9.841c.1 2.22-.708 4.676-2.669 5.891-.421.436-1.43.353-1.653.749.37 1.544.338 3.153.606 4.716-.97.28-.663-1.003-.928-1.586-.255-.856-.383-1.818-.815-2.583.35 1.377.643 2.774.92 4.169-.79.002-.433-1.344-.722-1.91-.21-1.08-.323-2.184-.712-3.22-1.032-.143-1.938-.8-2.665-1.52.224 1.657.695 3.256 1.148 4.858.02.333-.419-1.183-.503-1.633-.112.2.278 1.425.357 1.992.234.926.187 1.5-.101.294-.422-2.272-.91-4.554-1.364-6.805.21-.981-.038-1.498-1.097-1.19-.79.064-1.538.197-2.178-.389-.83-.284-1.327-1.064-2.004-1.516-.66-.078-1.214.674-1.926.835-.286.698-1.302.492-1.541 1.028-.906 2.971-.953 6.102-1.19 9.176-.519-.213-.037-1.38-.128-1.979.131-1.609.178-3.228.42-4.826-.887.89-1.771 1.842-2.952 2.336-.229 1.48-.35 3-.512 4.469-.976.162-.274-1.297-.363-1.907.056-.859.25-1.696.422-2.537-.69.272-1.365-.513-1.796-.526-.713.601.157 1.354.167 2.093.275.944.405 1.92.623 2.878-.926.28-.682-.905-.917-1.472-.148-.849-.288-1.708-.594-2.516-1.07.165-.503.857-.273 1.57.268.799.525 1.612.616 2.452-.507-1.134-.679-2.418-1.262-3.539-.746.303-1.566.367-2.312.67.101.942.63 2.009.67 2.835-.5-.737-.49-1.857-.874-2.716-.412.159-1.337.064-1.996.075-.717-.116-1.856.501-1.999-.584-.403-.535.035-1.86-.894-1.651-.967.048-1.86-.503-2.82-.477-.912-.558-1.855-1.143-2.842-1.606-.186 1.2-.267 2.411-.406 3.616-.061-.918-.158 1.078-.26 1.456-.085.398-.205 2.188-.314 1.66.051-2.321.43-4.618.82-6.901-.657-.55-.509.992-.767 1.38-.144.37-.447 2.334-.35 1.232.163-.9.2-1.83.55-2.686-.739.666-1.487 1.37-1.597 2.418-.292 1.074-.116-.663.075-1.022-.247-.236-.494 1.021-.61 1.43-.324 1.435-.342 2.914-.468 4.375-.35-.064-.746.219-.61-.362zm38.012-2.963c.043-.309-.277-2.002-.28-.964-.02.34.353 2.133.293 1.143l-.01-.13zm-25.219.325c1.67.038 3.356-.532 4.765-1.394.573-.431 1.114-1.096.322-1.64-.457-.844-.804-1.727-.94-2.682-.59-.714-1.656-.89-2.505-.598 1 .082.623.098 1.296.347.69.843.545.557-.242.11-.821-.416-1.779-.26-2.589.078-1.184.14.123.187.544.489 1.22.653.203.312-.494.016-.347-.216-1.99-.383-1.465-.065 1.055.564.926 2.064.869 3.096-.088.726.059 1.858-.712 2.196-.576-.032-1.281-1.506-.72-.284.357.755 1.228.176 1.871.331zm-.99-.945c.659-1.054-.53.335-.927-.513-.597-1.184-.262.585.458.6.156-.028.357.071.468-.087zm-.118-.777c.61-.659.36-1.719.299-2.531-.08-.7-.9-1.115-1.495-1.119.283.534 1.282.523 1.357 1.375.045.777.199 1.997-.623 2.38-.464.055.478.318.462-.105zm8.934-.243c.941-.417 1.825-1.232 2.577-1.834-.292.274-1.835.002-.805-.085 1.271.008 1.756-1.415 1.925-2.452-.444 1.073-1.06 2.395-2.404 2.428-.606-1.24-.64-2.768-.475-4.13.292-.744 1.022-1.247-.182-.655a10.098 10.098 0 0 0-1.761 1.668c.197-.62.665-1.125 1.208-1.47-.358-.207-1.888.085-.832-.138 1.138.116.773-.36-.148-.218-1.388.388-2.694 1.717-2.31 3.25.284 1.493 1.018 3.154 2.52 3.708.233-.003.467.026.687-.072zm-2.802-4.105c-.23-1.304 1.337-1.98 2.293-2.262-1.02.525-2.168 1.19-2.226 2.478-.033.213-.043-.197-.067-.216zm-6.625 3.892c.667-.48.553-1.586.188-2.25-.703-.105-1.364-.364-1.603-1.106-.529-.834-1.342-1.476-1.746-2.393-.163-.712-1.548-.607-1.347-.838-.35-1.179-.36-2.497-.905-3.588-1.04-.426-2.244-.08-3.353-.18-.619.544.218 1.437.262 2.108.12.328.406 1.982.55 1.217-.228-.94-.51-1.888-.759-2.813.53-.575 1.476-.141 2.188-.275.99-.274 1.229.821 1.29 1.56.343 1.463.604 2.96 1.149 4.365.46-.285-.77-1.661.016-1.781.729-.265.936 1.14.25.662.23.51 1.154 1.208 1.042 1.61-.914.102-1.794-.477-2.66-.745-.966-.34-1.938-.948-2.965-.951-.039.804 1.231.778 1.762 1.222.855.482 1.874.672 2.648 1.285-1.576.033-2.96-1.043-4.279-1.696-.228.669.942.671 1.178 1.236-.422-.145-1.735-.916-.986-.099 1.134.651 2.356 1.106 3.536 1.655.631.643-1.045-.293-1.447-.344-.495.033-1.43-.918-1.62-.494.91.93 2.265 1.28 3.265 2.023 1.412.169 2.792.567 4.227.448-.149.159-.38.361.119.162zm27.66-.24c2.096-.833 3.263-3.163 3.282-5.342.044-1.834-.613-3.612-.729-5.443-.46-2.818-.707-5.723-1.724-8.407-.29-1.145-.808.127-1.177.522-.521 1.151-1.3 2.222-1.374 3.52.255-.817.714-1.725 1.171-2.339-.373 1.146-1.114 2.266-1.06 3.49.333-.753.678-1.668.974-2.336-.215 1.298-1.054 2.484-1.096 3.86-.143.986.401-.925.647-1.212.427-.825.824-1.752 1.37-2.461-1.047 1.93-2.03 4.017-2.195 6.226.007.248.409-1.163.779-1.485.773-1.112 1.594-2.37 2.081-3.548-.533 2.124-2.604 3.734-2.76 6.007.087.392-.156 2.245.277 1.102.462-.876 1.113-1.859 1.681-2.537-.312.66-.791 1.422-1.003 2.02.834-.938 1.34-2.442 1.9-3.397-.543 1.413-1.14 2.83-2.161 3.963-.509.648-.967 1.47.104.69 1.136-.274 2.312.203 3.399.487.863.787-.48.447-.927.155-.865-.308-2.09-.656-2.78.119 1.373-.432 3.003.057 3.755 1.307-.929-.785-2.094-1.424-3.356-1.245.953.349 1.811 1.011 2.335 1.883-.939-1.058-2.405-1.908-3.747-1.85.607.343 1.365.9 1.494 1.654-.487-.534-.993-1.312-1.722-1.705-.954-.92-.106.63-.258 1.117-.044 1.294-.32 2.736-1.323 3.643-.695-.23-1-1.146-.146-.275.76-.074-.735-.185-.618-.861-.136-1.379-.092-.417-.058.416.188 1.201 1.584 1.513 2.474 2.082.766.406 1.683.564 2.49.18zm1.958-4.383c-.735-.958-.014-.571.324.118-.059.128-.275-.011-.324-.118zm.565-2.715c-.92-.697-2.151-.529-3.226-.391.991-.815 2.7-.435 3.39.502-.071.005-.108-.078-.164-.11zm-40.308 5.965c.434-.173 2.166-.655.955-.783-1.323-.387-1.39-2.226-.852-3.242-.185.463-.355 1.508.056 2.143.26.76 1.625 1.155 2.029.35-.67.42-1.646.236-1.821-.623-.392-.982-.129-2.218.641-2.938-1.624.088-2.968 1.424-3.601 2.86.064-.688.665-1.418.675-1.378.354-.409.244-.462 1.04-1.103.577-.384-1.074.022-1.224.425-1.47 1.173-.949 4.202 1.062 4.427.364.022.704.01 1.04-.138zm34.13-1.4c-.123.022-1.222-.288-1.16-1.052-.27-.076.177 1.467.822 1.191.118-.042.276.015.337-.139zm-12.117-.22c.255-.362 1.306-1.216.89-1.338-.401.091-1.356-.856-.905-.833.744.573 1.833.724 2.644.239.444-.51-1.947-.091-.36-.325.78-.11 1.84-.17 2.28-.883-.387-.341-1.313.459-1.941.31-.451.143-2.123-.163-.929-.212 1.09.13 2.089-.41 3.073-.796-.322-.917-1.356-.037-2.021-.097-.593-.096-1.803.456-1.765-.51.53-.375 1.53-.23 1.787-.82-.128-.799-1.299.009-1.767.221-.905.243-1.034 1.303-1.893 1.608-.852.602-.59 1.882-.423 2.78.13.481.889 1.32 1.33.656zm-20.6-.407c.392-.567-.435-1.165.04-1.497-.76-.527.188-.998.821-1.005.751-.08 1.621.126 2.303-.118-.28-.598-1.22-.58-1.833-.572-.844-.062-1.976.118-2.054 1.164-.353.685-.123 1.728.442 2.13.104-.011.245.054.28-.102zm32.961-.121c.573-1.486.287-3.223-.703-4.484-.226-.858-1.04-.884-1.725-1.174-.402-.282-1.68-1.006-1.266.014.638.581 1.698.698 2.318 1.286-.732-.444.914.92-.406.226-1.098-.145-1.94-1.02-2.988-1.376-.36-.477-1.813-.266-1.044.358 1.032.125 2.022.687 2.86 1.297-.716.216-1.66.15-2.422-.066-.708-.126-1.444-.548-2.16-.326-.125.831 1.182.594 1.73.966.97.47 2.271.243 3.044 1.041-1.442-.204-2.906-.315-4.257-.914-.882.058-.166.763.396.704.884.53 2.042.515 2.834 1.152-.818.171-1.761-.432-2.555-.66.502.536 1.373.927 2.073 1.215.98-.003 1.924-.473 2.9-.115.575.461 1.537-.603 1.513-.332.14.85-1.716.645-.655 1.185.18.055.428.332.513.003zm-24.1-.124c.885-.187 1.674-.745 2.628-.7-.245-1.57-.249-3.183-.24-4.774.246 1.553.144 3.18.602 4.685.03-1.367-.3-.621.395-.165.032-.853-.28-1.89-.276-2.768.145.333.37 2.1.534 1.36.054-.827.032-1.663.057-2.492.07.425.143 2.38.21 1.068.093-1.49.4-2.966.589-4.429-.18-1.657-.394-3.307-.47-4.976.266.974.508 1.954.6 2.962.052-1.563-.278-3.117.045-4.671-.06-.566-.644 1.09-1.001 1.307-.564.67-1.13 1.319-1.568 2.08-.71.806-1.49 1.513-2.527 1.862-1.921.88-4.212-.043-5.412-1.687-.736-.802-.988-1.92-1.87-2.611-.225-.326-1.002-1.983-.919-1.154l-.04 7.94c.984.06 2.047-.112 2.986.08 1.03.709.775 2.168 1.158 3.231-.124.925.71.658 1.183 1.15.744.61.982 1.592 1.743 2.205.42.756.803.64 1.593.497zm-13.421-1.736c.47-1.082 1.91-1.405 2.907-1.251-.72-.66-1.841-.307-2.584.19.226-.455 1.5-.534 1.037-.707 1.008-.282 1.019-.361-.052-.126-1.054 0 .256-.408.85-.354.493-.2 1.211.808 1.3.35-.376-.42-1.528-.857-.35-.392.415.054-.84-.802-1.247-.769-1.252-.171-.285-.37-.084-.347-.476-.126-1.692.325-.697-.186 1.277-.21 2.513.652 2.911 1.856.315.388 1.044.731.63-.142a24.658 24.658 0 0 0-1.475-4.37c-.466-1.334-1.108-2.671-1.125-4.105.283 2 1.223 3.793 1.954 5.65.158-.462-.594-1.907-.01-.766.49.608-.202-1.141-.306-1.506-.63-1.588-1.53-3.155-1.622-4.885.114.333.398 1.34.589 1.92.445 1.35 1.233 2.548 1.591 3.928-.36-1.67-.376-3.404-1.137-4.965-.307-.774-.648-1.644-.685-2.437.294 1.32 1.095 2.424 1.545 3.681-.102-.967-.45-2.212-.719-2.91.33.745.74 1.38.323.224-.43-.82-.8-1.682-1.266-2.477-1.114 2.877-1.506 5.996-2.085 9.022-.035 1.658.099 3.338-.474 4.927-.205.75-.168 1.562.051 2.307.083-.45-.013-.952.23-1.36zm19.03 1.125c.043-.58-2.063-.264-.84-.458 1.294.258.73-.168-.235-.096-1.277.022.317.461.82.553.134.074.318.428.255 0zm.277-1.027c-.792-.177.782-.27-.364-.334-.427-.016-1.765.722-.628.477.302-.141 1.095.337.992-.143zm-1.542-.364c.579-.432 1.366-.635 2.044-.314.235-.993-.692-1.074-1.418-.953-.636.108.945-.344 1.29-.345-.03-.756.903-1.491-.206-.758-.95.436-2.11 1.042-2.036 2.264-.107.51.01.304.326.106zm3.211-1.033c.788-.715 1.908-.128 2.773-.599-.713-.272-1.441-.496-2.202-.585.85-.364 1.731.066 2.465.507.225-.498-1.176-1.316-1.102-1.498.481-.052 1.456 1.171.878.212-.444-.812-1.283-1.324-1.755-2.123.719.72 1.667 1.25 2.11 2.198-.488-1.75-1.1-3.482-1.529-5.237.749 1.745 1.47 3.507 1.848 5.375-.044-1.892-.138-3.84-1.034-5.552-.133-.3-.938-1.904-.354-1.01.31.464.845 1.557 1.03 1.61.001-1.605-1.357-2.647-1.899-4.062-.64-1.338.16.112.468.631.33.546.945 1.253 1.081 1.718-.105-1.353-1.355-2.365-1.707-3.67.54.731.991 1.665 1.43 2.363-.331-.835.01-2.075-.927-2.61-.862-1.182.834.881.547.204-.16-.387.352-1.98-.337-1.489-.693.522-.974 1.475-1.287 2.259-.47 2.433-.682 4.923-.788 7.395.355 1.198-.248 2.356-.463 3.491.123.632.027 1.117.754.472zm-13.918-.457c.58-.6-.705-1.49-1.058-.7-.339.561.65 1.167 1.058.7zm-.775-.156c-.69-.7.999-.815.61-.067.098.297-.317-.949-.702-.118.19.12.634.586.092.185zm32.222-1.327c.15-2.994-1.063-5.789-1.58-8.683.08-1.285-.589.16-.993.54-1 .739-1.838 1.837-3.13 2.037-.741.292-1.103.29-.888 1.363.15.786-.223 2.1-.207.602-.174-.53.42-2.026-.439-1.666-.627.115-1.119-.487-1.752-.577-1.611-.765-2.922-2.296-3.25-4.06-.13.32-.125 1.468-.138 2.117.018 2.785-.006 5.611.139 8.37.593-.083 1.396-.451 1.995-.09.53.726-1.414 1.277-.368 1.22.982.218.645-.56.452-1.142-.112-.804-.71-1.69-.405-2.462.568-.737 1.653-.225 2.463-.377.891.056 1.862-.11 2.702.084.744.243.267 1.47 1.09 1.393.777.287 1.48.806 2.33.898.656.693 1.01 1.852 2.025 2.104l-.046-1.67zm-2.87-2.739c.04-.609-1.326-.167-1.121-1.188.12-.683.915-1.201 1.574-1.021.908-.006 1.547 1.63.488 1.865-1.107-.567-.596 1.407-.941.344zm.069-.754c-.44-.34-1.43-.389-.06-.417.286-.596-.152-1.214-.713-.464-.648.654.298 1.515.773.954zm1.107.132c.426-.507-.24-1.44-.9-1.46-.594 1.082 1.05.784.604 1.118-1.029-.218-.697.703.163.413l.115-.061zm-1.062-2.255c-.396-.018-.493-.864-.045-.696.114-.21.9-.065.556.572-.306.004-.424-.073-.512.124zm-16.926 6.15c.714-.327 1.757-.587 1.591-1.585-.947.329.091.062-.11-.945.024-1.017-.071-2.043.108-3.05-.708 2.096-1.925 3.989-2.496 6.131.239-.295.565-.414.907-.55zm10.555.367c.473-.34.929-.89 1.657-.54.63.127 1.32.425 1.922.428-.68-.258-1.626-.265-1.925-1.061-.425 1.002-.37-.064.094-.475.623-.37 1.53-.179 2.145.213.082-.433-.062-1.6-.911-1.24-1.292.061-2.666-.12-3.91.086-.172.636.324 1.513.4 2.238.077.376.088.569.528.351zm-3.706-.428c.654-.439.133-1.545.289-2.266.048-3.148-.225-6.308.104-9.444-.572-.593-.333 1.188-.528 1.62-.547 3.495-.334 7.039-.375 10.56.12-.217.277-.373.51-.47zm-19.32-.968c-.207-.14-1.804.1-.308.033.102-.013.209.005.308-.033zm11.71-.323c.653-1.41 1.776-2.612 2.148-4.167.42-1.636.564-3.35.877-4.993-.173-.536-.109-1.655-.894-1.58-.594.57-.884 1.395-1.095 2.17.237-.434 1.111-1.872.474-.661-.712 1.149-1.13 2.473-1.09 3.83.489-1.48 1.6-2.694 1.848-4.271-.27 2.022-1.763 3.709-1.848 5.794-.216 1.37.274-.257.58-.695.262-.522 1.169-2.03.522-.696-.465.979-.927 2.063-1.135 3.073.259-.371.983-1.971.536-.758-.45 1.086-1.002 2.25-1.107 3.376.1-.06.118-.308.185-.422zm-12.468.094c1.296.054.717-.264-.246-.154-.335.217.054.283.246.154zm1.843-.447c-.728-.2-1.725-.028-2.555-.086.212.396 1.436.062 2.046.172.085-.072.648.135.509-.086zm25.925-.876c-.47-.875-1.681-.338-2.49-.485-.853.087-1.851-.177-2.61.138-.525 1.025.328-.2 1.005.138 1.312.087 2.687-.177 3.957.135.045.174.333.64.138.074zm-28.868-3.676c.172-1.745.004-3.505.025-5.256-.559-1.264-.43-.186-.387.604.098 2.028.19 4.055.169 6.086.116-.47.15-.952.193-1.434zm19.978.744c-.218-1.829.045-3.745-.313-5.53.506 1.219.097.093.057-.636.582 1.038.12-.007.047-.381-.197-1.084.684.3.21-.6.306.241-.206-.197.092-.249-.141-.92-1.467.114-.547-.337-.005.3-.956.37-.66.775.024 1.743-.013 3.517.666 5.158.186.684.284 1.84.51 2.281-.021-.16-.04-.323-.062-.481zm-.526-3.928c-.119-1.017.313-1.028.06-.33-.011.07.079.689-.06.33zm-10.967 4.145c1.322-.426 2.37-1.448 3.013-2.657-.16.12-.57.358-1.171.775-.913.66-1.94 1.21-3.1 1.086-1.404-.061-2.749-.51-3.983-1.174-.34-.482-1.22-1.448-.454-.417.958 1.387 2.543 2.34 4.186 2.615.53.011 1.029.043 1.509-.228zm25.801-1.18c-.12-1.74-.66-3.479-.22-5.22-.074-.494.974-1.85.24-1.673-1.04 1.289-.847 3.13-.753 4.688.155 1.077.442 2.132.652 3.2.191-.313.083-.653.081-.996zm-13.686-2.24c.126-1.163.326-2.316.5-3.473-.687-.932-.594.465-.767.953-.453 1.764-.277 3.595-.049 5.38.097-.955.191-1.909.316-2.86zm13.99.203c.07-.825.086-1.695.478-2.442-.076.604-.307 1.893-.153 2.082.442-1.144 1.023-2.317 1.968-3.127-.5-.595-1.249-.93-1.969-1.207-.954 1.37-.74 3.186-.617 4.767.102 1.1.288 1.023.294-.073zm-20.746.117c.027-.892.294-1.748.714-2.53.099.13.575-1.28 1.239-1.472.11-.698-1.133.085-1.4.5-.885 1.24-.744 2.904-.667 4.355.095-.257.064-.576.114-.853zm-14.48-3.012c.076-.654-.003-2.078-.929-1.306-.826.327.166 1.255.405 1.736.472.876.657.982.532-.098l-.01-.332zm-.292 24.611c-.012-.928-.082-1.947.155-2.868-.051.974-.003 1.986-.112 2.938zm2.828-.439c-.09-1.587-.043-3.181-.077-4.771.109 1.455.037-.024.163.13l.089 5.14c-.277.084-.1-.358-.175-.499zm25.741-3.479c-.252-1.133-.51-2.272-.628-3.428.268 1.326.57 2.698.802 4.003-.085-.018-.118-.438-.174-.575zm-21.098-16.114c-.959-.267-2.022-.392-2.641-1.288-1.198-1.068-2.272-2.259-3.066-3.66-.367-.67-.662-.97-1.147-1.513-.855-.548.158-.813.687-.894.632-.114.948-.9 1.585-.836-.109-.715.294-1.457.302-2.115-.678-1.468-.842-3.148-1.313-4.678-.832-1.249-1.383-2.75-1.5-4.239.065-1.33 1.147-2.283 1.455-3.55.61-1.565 1.812-3.365 3.715-3.196 1.201-.142 2.375-.708 3.622-.489 2.744.21 5.146 2.089 6.605 4.334 1.088 2.24.92 5.162-.75 7.085-.516.622-1.04 1.244-.932 2.105.064 1.213-.51 2.282-1.095 3.3.554.535.083 1.63 1.002 1.59.26.527 1.003.81 1.326.955.756.068.606.716-.003.934-.554.402-.87.837-1.29 1.41-.417 1.064-1.057 2.119-2.003 2.846-.828.812-1.88 1.45-2.993 1.769-.521.016-1.062.145-1.566.13zm.89-.577c1.53-.146 2.857-1.123 3.99-2.097.969-.73 1.198-1.99 1.976-2.848.282-.393 1.652-.902.606-1.182-.653-.36-1.057-.494-1.295.29-.551.493-.418.299-1.169.804-.463.541-.697.271-1.467.932-.457.253-1.395 1.13-1.602.74.514-.437.833-.507 1.559-1.01 1.132-.748 2.214-1.584 3.142-2.576-.414-.102-.758-.782-1.23.014-.877.993-2.041 1.695-3.292 2.07-1.01.034-2.073.108-2.89-.601-1.535-.902-2.21-2.638-3.214-3.976-.16.816-.312 1.89.403 2.578 1.343 1.156 2.895 2.181 4.419 2.989-2.161-.339-3.91-1.806-5.369-3.344.558.924.74.989-.113.189-.536-.005-.161.383.341.918 1.403 1.7 3.573 2.53 5.658 3.011-.061.146-1.416-.003-1.926-.238-1.905-.72-3.498-2.055-4.846-3.554-.2.624.512.588-.48.225-.342.447.884 1.02 1.149 1.5 1.339 1.195 2.782 2.393 4.564 2.828 1.234.304 2.593-.104 3.7-.675.958-.355.189-.606.776-.488.328-.386 1.84-.584.81-.028-1.203 1.821-3.534 3.151-5.736 2.447-1.746-.637-3.08-2.042-4.42-3.284 1.75 1.301 3.677 3.112 6.04 2.612.793-.088 1.786-.495 2.29-.93-1.63.654-3.56.968-5.134-.01-1.719-1.001-3.306-2.23-4.64-3.715-.884-.041.569.685.65 1.178.957 1.473 1.895 2.987 3.315 4.066.87.953 2.16 1.434 3.435 1.165zm.936-1.269a5.364 5.364 0 0 0 3.081-2.211c-1.216 1.437-3.041 2.414-4.954 2.25-.357.103-1.917-.628-1.074-.163.914.378 1.995.336 2.947.124zm-.356-4.123c.34-.04.992.168 1.657-.018.773-.584.151-.576.91-.644-.065-.193 1.07-.315.584-.674-1.238-.339-.096-.27.339-.976.745-.372.316-1.74-.205-.553-.387.373-1.282 1.225-.993 1.212-.713-.11-1.208.336-1.901.258.066.604-1.232-.122-1.722-.265-1.407-.796-2.85-1.755-3.425-3.35-.625-1.024-.981-2.247-1.672-3.172.424 1.475.441 3.149 1.559 4.342.942 1.28 1.59 2.911 3.153 3.565.482.185 1.28.506 1.716.275zm1.4-1.78c.39.007 1.954-.963 1.039-.62-1.06.603-2.26.44-3.427.453.764.248 1.608.48 2.387.166zm2.098-.138c.964-.754.405-1.037-.224-.084-.525.444-.131.492.224.084zm-2.109-.407c1.821-.485 2.967-2.223 3.417-3.963-.462.61-1.233.915-1.515 1.513-.64.63-.952 1.669-2.008 1.763-1.613.482-3.345-.418-4.204-1.8-.79-.993.042.66.414.935.843.966 2.195 1.31 3.439 1.241-1.453.557-3.025-.258-3.92-1.42-.566-.605-.577-1.658-1.529-1.866-.488-.343-.91-.707-1.237-1.192.593 1.056 1.408 1.984 2.03 3.027 1.12 1.62 3.234 2.38 5.113 1.762zm-.377-.901c1.089-.174 1.694-1.203 2.49-1.856-.944.638-1.741 1.682-2.963 1.9-.743.23.397.013.473-.044zm-2.939-.702c-.692-.814-.864-.932-.146-.017.342.351.673.53.146.017zm3.144-.136c1.038-.53 1.94-1.393 2.658-2.29.804-1.403 1.124-3.182.642-4.735-.709-1.658-1.88-3.43-3.84-3.624-2.356.08-3.965 2.199-4.824 4.198-.867 1.494-.218 3.405.778 4.659.829.811 1.756 1.629 2.83 2.08.6-.051 1.236.09 1.756-.288zm-1.55-1.321c-.67-.046-1.118-.852-1.62-.929.23-.422 1.181.556 1.8.415.85.074 1.636-.14 2.362-.56.034.041-.577.962-1.237 1.078-.39.142-.908.131-1.305-.004zm1.461-.223c.532-.552-1.255-.138-1.686-.266-.832-.06.595.683 1.063.42.224-.023.464.05.623-.154zm-1.318-1.394c-.635.266-.983-.782-.212-.832-.841.516.116.598.436.765.11.18-.185.173-.224.067zm.856-.075c.244-.2 1.066-.116.517-.723.805.423-.067 1.057-.517.723zm-2.963-2.035c-.939-.472-.742-.32-.892-.697-.83-.728.867.065 1.255-.156.694-.203 1.423.629.601.75-.696.489-1.118-.916-1.24-.213.214.502 1.915.336.731.41-.18.01-.312.04-.455-.094zm4.462-.017c1.227-.028.58.065-.293.027l.293-.027zm.27-.131c-.914.251-1.083-.739-.088-.65.494.217 1.846-.48 1.672-.11-1.08.71.305.331-.838.742-.232-.023-.56.156-.747.018zm-6.006-1.886c.607-.941 1.89-.357 2.823-.46.979.683-.398.791-.974.603-.655-.016-1.355-.325-1.953.057l.06-.115zm5.032.026c-.364.203-.004-.654.912-.483.716-.106 1.651-.267 1.953.596-.863-.438-1.824.141-2.751.085l-.065-.113zm2.063-1.246c-.306-.701-.916-1.165-1.436-1.7.818.574 1.545 1.44 1.868 2.341-.143-.042-.3-.476-.432-.641zm-6.377-.002c.345-.537 1.231-1.452.397-.43-.191.293-1.031 1.343-.397.43zm7.194 6.256c.422-.15.648-1.532.528-1.235-.289.608-.47.914-.827 1.387-.472.54.208-.076.3-.152zm-8.577-.332c-1.787-1.899-3.43-4.257-3.57-6.935.186-1.151-.18-1.29-.306-.09-.01 1.74.888 3.347 1.703 4.839.626.986 1.237 2.291 2.453 2.543.08-.08-.242-.264-.28-.357zm-.222-.894c-1-2.215-1.262-4.746-.908-7.137.37-1.385.664-2.922 1.845-3.87-.6.886-1.29 1.905-1.336 2.962a3.729 3.729 0 0 1 2.326-2.71c1.804-.947 4.054-.612 5.621.649 1.809.954 2.104 3.163 2.169 5.008.1 1.442-.174 2.936-.344 4.323.78-1.79.64-3.769.548-5.666-.298-1.76-.775-3.582-2.058-4.894 1.78 1.06 2.035 3.353 2.358 5.212l.012 2.35c.455-1.558.335-3.24.088-4.823.132-.073.627 1.072.668 1.566a9.331 9.331 0 0 1-.625 4.262c.02.372-.98 1.952-.485 1.335 1.082-1.301 1.879-2.928 1.665-4.66.08-2.473-1.944-4.346-3.845-5.612-2.018-1.266-4.77-1.502-6.782-.101-1.982 1.265-2.673 3.761-2.545 5.998-.044 2.144.593 4.36 1.762 6.135.075-.018-.14-.261-.134-.327zm7.742-10.284c-1.424-1.855-4.331-2.268-6.16-.771-.431.423-1.561 1.497-.598.42 1.208-1.415 3.423-1.785 5.098-1.046 1.016.385 1.922 1.243 2.4 2.147-.254-.24-.492-.502-.74-.75zm-9.049 8.25c-.718-2.3-1.238-4.861-.238-7.167-.148.08-.729 1.284-.087-.07.609-1.269 1.493-2.47 2.794-3.083-1.975.088-2.973 2.038-3.663 3.63-.856 1.75-.795 3.932.315 5.56.454.89.664 1.085.476.477.068.134.62 1.364.403.654zm-.821-1.58c-.404-.894-.431-1.883-.458-2.846.026 1.114.378 2.277.63 3.279l-.172-.434zm2.136.461c.83-1.822 1.99-3.803 4.013-4.443 1.543-.533 3.277.155 4.14 1.518.522.764.887 1.63 1.168 2.512.056-1.34-.082-2.755-1.032-3.79-1.074-1.479-3.03-2.316-4.813-1.709-1.599.805-2.846 2.202-3.42 3.899-.189.356-.741 2.16-.394 1.359.158-.586.781-1.693.255-.438-.392.672-.26 1.453-.312 2.195.102-.38.214-.751.395-1.103zm-.264-1.915c.663-1.948 1.961-4.046 4.167-4.355 1.09-.086 2.203.02 3.089.727.873.73 1.765 1.54 2.27 2.58-.234-1.931-1.407-3.775-3.26-4.5-1.668-.746-3.809-.368-4.997 1.07-.346.354.82-.913 1.183-1.093-1.288.734-2.511 1.96-2.767 3.434.333-.643.37-.747.812-1.37-.113.598-.683 1.308-.76 2.027-.247 1.272-.116.976.207-.065.393-1.075.505-.947.123.084-.21.75-.547 1.729-.456 2.377.168-.276.255-.618.39-.916zm11.073-1.478c0-.488-.196-1.754-.36-1.705.225.746.17 1.615.37 2.308.077-.103-.022-.436-.01-.603zm12.363 19.582c-2.303-.435-4.485-2.402-4.413-4.885-.514-.837-1.584-1.436-2.074-2.287-.017-.602.499-1.045.802-1.549.745-.02.576-1.329-.042-1.477-1.009-.612-1.913-1.542-2.407-2.589-.327-.588-1.06-1.035-1.348-1.727-1.07-1.848-1.775-4.18-.806-6.217.3-1.002 1.062-1.62 1.626-2.469 1.54-1.682 3.819-2.675 6.077-2.807a7.831 7.831 0 0 1 4.984 1.41c1.937 1.105 2.993 3.273 3.745 5.298.443 1.858.237 4.124-1.318 5.424-.566.41-1.564.23-1.178 1.088-.04.704.594.974 1.082 1.398.505.492.176 1.207.872 1.483.302.554.81.93 1.481 1.07.375.403 1.411.786.645 1.416-.994.949-1.423 2.246-2.139 3.373-.53.648-.73 1.493-1.45 2.015-.869.878-2.043 1.486-3.251 1.725-.273-.67 1.113-.45 1.454-.95 2.509-1.29 3.2-4.243 4.968-6.241.812-.65-.708-1.098-.905-1.01-.278 1.672-1.44 3.103-2.653 4.242-1.184.835-2.754 1.205-4.164.893 1.476.15 2.99-.204 4.116-1.208.652-.466 1.428-1.198.271-.361-1.55.87-3.432 1.552-5.167.812-.72-.222-1.442-.506-2.015-1.008.669.236 1.356.301 1.993.748 2.338.798 4.921-.439 6.436-2.244.13-.05.842-.927.861-1.527.337-.675-.675-.976-.888-1.577-.319-.093-.402 1.352-.942 1.71-.94 1.328-2.56 2.359-4.21 2.23-.252-.196 1.316-.018 1.745-.37 1.342-.518 2.616-1.718 2.82-3.185.076-.864-.052-1.782-.84-2.283-.686-.858-.076.674-.257 1.055-.307 1.563-2.018 2.28-3.384 2.724-1.38.513-2.846-.2-3.798-1.207.052.607.962.977 1.429 1.403 1.659.801 3.745.699 5.17-.535.45-.075 1.312-1.596 1.215-.994-.745 1.393-2.399 2.174-3.928 2.349-1.746.321-3.395-.728-4.386-2.101-.703-1.079-.693-.116-.292.605.74 1.272 2.102 2.065 3.417 2.656 1.267.324-.485.162-.905-.203-1.052-.583-2.242-1.22-2.852-2.292-.397-.891-.054.739-.081 1.082-.6-.278-.17-2.058-.755-1.132-.517.58-.766 1.1-.045 1.596 1.284 1.31 2.746 2.479 4.335 3.395.398.24 2.1.42.884.448-1.488-.08-2.598-1.184-3.707-2.06-.044 2.031 1.746 3.604 3.569 4.19.344.358 1.716.17 1.461.676-.288.11-.567.04-.858-.02zm.726-8.209c1.433-.355 2.857-1.76 2.49-3.336-.368 1.533-2.045 2.305-3.454 2.594-.69-.072-1.4 0-2.074-.177.494.451 1.588.117 1.872.286-.732.253-1.559.26-2.247-.14.114.448.992.776 1.518.948.63-.032 1.289.037 1.895-.175zm-.3-1.087c1.527-.24 2.576-1.818 2.741-3.275.144-1.267-.292-.077-.666.413-.136-.04.39-.943.458-1.09-.755-.34-.842.896-1.312 1.312-.485.775-1.353 1.22-2.064 1.69a6.251 6.251 0 0 0 2.584-1.45c-.776.748-1.499 1.82-2.716 1.696-.773.35.241.228.96.074 1.154-.345.304.095-.276.317-.342.231-2.118.026-1.225.331.498.1 1.024.122 1.515-.018zm-2.813-.142c1.255-.45 2.324-1.475 3.059-2.574.97-1.464.658-3.496-.565-4.716-.87-.759-1.345-2.117-2.613-2.248-.55.032-1.382-.74-1.563-.635.115.538 1.866.796 1.021.765-.98.09-1.844-.474-2.466-1.184.031.552-.781-.299-.166.798.305.352 1.564.568.503.596-.84.134-1.957-.542-1.43-1.48-.577.815-1.905 1.279-1.872 2.446.213 2.02.181 4.31 1.54 5.946.945.969 2.134 1.729 3.36 2.286.378.16.81.128 1.192 0zm-2.41-1.89c-.973-.594-.132-.307.602-.343.345.157 1.983-.446 1.073-.057-.476.127-2.069.201-.824.535.598-.009 1.624.008 1.806-.624-.87-.19-.137-.093.597-.582.611-.37-.975-.628.296-.384.426.692-.157.558-.585 1.086-.353-.632.018.017-.558.365-.745.162-1.783.599-2.406.005zm-.381-1.457c-.468-.31.52-2.015.42-1.268-.557.56-.196 1.249-.137 1.413-.143.069-.197-.077-.283-.145zm1.316.018c.56.102.906-1.041.827-.166-.109.167-.779.322-.827.166zm-3.342-1.712c-1.171-.561.23-.496.822-.477 1.158-.237.5.783-.272.59-.2.006-.386.025-.55-.113zm4.15-.51c-.465-.665.507-.33 1.055-.476.32-.223 1.965-.928 1.068-.336-.412.688-1.1 1-1.892.927-.083-.034-.401.13-.23-.115zm-4.167-.251c1.253-.031.779.061-.195.026-.366.008.14-.018.195-.026zm-.982-.798c.218-.784 1.402-.984 1.998-.522-.102.742-1.355.127-1.878.578l-.12.05zm4.272-.671c-.148-.105-.653-.087-.172-.536 1.098-.196 2.393-.442 3.335.307-1.073-.085-2.117.119-3.163.302v-.073zm4.288 6.481c.973-.45.843-.671-.02-.054-.594.133-.81.346.02.054zm1.67-2.743c.343-.992 1.51-1.167 1.968-2.086.794-.88 1.322-1.94 1.431-3.13.143 1.358-.346 2.782-1.505 3.568.809-.465.558-.435-.044.34.902-.292-.34.33-.793.533-.103.157 1.18-.193 1.517-.506 1.552-1.28 1.647-3.619 1.005-5.392-.882-2.214-2.31-4.404-4.638-5.277-2.123-.935-4.584-.78-6.68.168-2.307.977-4.203 3.107-4.656 5.587-.163 1.765.694 3.421 1.544 4.909.537.877.918 1.003.299-.077-.735-1.6-1.61-3.28-1.281-5.097.125-1.133.615-2.343 1.8-2.71 1.789-.992 3.983-.616 5.679.394 1.478.775 2.665 2.15 3.286 3.678-.199-.213-.645-1.073-1.014-1.496-1.69-1.965-4.384-3.454-7.018-2.75-.823.216-1.533.672-1.776 1.53-.207.376-.703 1.872-.179.765 1.145-1.29 3.017-1.747 4.674-1.351 2.367.498 3.801 2.65 5.334 4.33.548 1.138.445.658.214-.306-.252-.676-.265-1.343-.697-1.995-.693-1.542-1.643-3.093-3.223-3.844 2.486.725 3.628 3.361 4.217 5.668.176.956.393 1.945.23 2.914.425-1.523.364-3.23-.125-4.754.268.231.44 1.597.527 1.592-.092-.503-.194-1.619-.61-1.688.392-.399.833 1.131.826 1.658.071.94-.119 1.858-.284 2.779.776-1.547.985-3.384.405-5.039-.162-.866-.635-1.614-1.003-2.403 1.647 1.883 2.029 4.715.998 6.986.073.405-1.068 1.686-.38 1.408 1.75-.823 2.28-2.819 2.606-4.564.101-.84-.153-1.713-.226-2.49.965 1.973.347 4.3-.689 6.102-.507.535-.867.985-1.339 1.011-1.086.39-.198.303.351-.104-.256.584-1.12.61-1.242 1.258-.26.714-.723 1.348-1.231 1.909.619-.646 1.321-1.212 1.722-2.028zm-.102-1.148c1.287-1.49 1.545-3.536 1.75-5.43.06-.422 0-2.448.152-1.63.37 1.666.133 3.419-.397 5.026-.149.04-.186.6-.628 1.17-.212.301-.561.828-.877.864zm1.884-5.067c.058-1.465 0-.444-.096.407-.026.427-.308 2.385-.088 1.253.156-.545.182-1.095.184-1.66zm-5.812-3.007c-1.01-.917-.436-.654.216.12.836.88.342.49-.216-.12zm-2.17-1.31c-.561-.23-1.833.046-1.988-.097.852-.219 1.802-.162 2.609.2-.214.014-.414-.06-.62-.103zm5.733 8.111c-.338-1.47-1.659-2.483-2.625-3.576-.743-.816-1.64-1.622-2.763-1.81.97.477.61.365-.207.187-.723-.031 1.133.22 1.439.519 1.5 1.097 2.631 2.642 3.783 4.09.177.145.494 1.592.373.59zm-10.385-.534c-.471-1.166-.32-2.603.729-3.406.414-.402 1.558-1.138.408-.492-1.036.6-1.731 1.79-1.437 2.995-.018.363.569 2.106.45 1.397l-.15-.494zm-.45-.818c-.547-1.649-.382-3.704.83-5.016-1.116.754-1.274 2.35-1.235 3.593.082.655.16 1.45.566 1.944l-.16-.52zm.578-2.526c.05-.484 1.987-1.22.903-.891-.898.17-1.397 1.052-1.433 1.905.127-.371.247-.728.53-1.014zm2.808.257c-.415-.317-.427-1.702-.453-.48-.073.268 1.153 1.161.453.48zm3.887-.39c-.823-.603-1.93-.953-2.896-.975 1.073.248 2.11.571 3.068 1.119l-.1-.084zm1.964 18.017c-1.785-.19-3.226-1.605-3.931-3.124 1.018 1.544 2.677 3.087 4.681 2.85.405.23 1.992-.473 1.567-.12-.743.295-1.513.49-2.317.394z" style="fill:#1c1f26;stroke-width:1" transform="translate(613.934 -57.615)"/></svg>