<svg xmlns="http://www.w3.org/2000/svg" viewBox="0 0 52.917 52.917" height="200" width="200"><path d="M-771.983 303.642c-2.167-1.109-4.712-.328-7.004-.307-.598-.795-.275-1.96-1.32-.6-2.199 1.732-6.231.959-6.909-1.99-1.382-1.753-1.4-3.698-1.333-5.766-1.278-1.922.141-4.581-1.528-6.563-1.633-1.48-2.03-5.218 1.198-4.251 2.105-.126 5.203-1 6.225 1.541.982 2.07 1.692 4.293 2.944 6.22.889-1.573 1.234-4.654 1.349-6.89.183-1.988 2.904-4.376.03-5.625-2.627-2.457-3.964-5.956-4.352-9.472-.614-2.363-.912-5.179.902-7.107 2.99-3.734 7.203-6.82 12.092-7.273 2.482-1.928 5.025.998 7.101 2.142 1.97 2.27 1.451 5.5 2.342 8.196.61 2.622 1.24 5.277 1.203 7.986 1.49 1.62 4.059 2.781 3.398 5.445 1.442 1.824 2.929 3.618 3.24 6.056 1.23 4.971 1.51 10.18 1.064 15.273.042 1.733-.55 2.888-2.398 2.391-4.076.133-8.153-.02-12.225.158-1.949.68-4.036-.01-6.019.436zm-6.422-3.922c2.286-.748-1.743-1.854-1.902-.515.542.366 1.252.54 1.902.515zm-3.26-.368c1.157-1.052-1.5-.542 0 0zm-3.65-2.117c-.676-.772-.639-.098 0 0zm14.366-20.395c1.599-.12 2.836-1.994.716-2.384-.723-.805-2.855-3.706-.693-2.76 2.17-.202.89-2.322-.693-1.53-.915.63-3.031-.344-1.071-.671-.9-.374-2.962-1.288-3.872-2.54-2.363-.47-1.887 4.35.547 2.945 1.065.987-2.708.569-.896 1.846 1.103 1.208 2.036-.908 2.223.68.56-1.827 1.227.775 1.26 1.591 1.761 1.12-1.524.462-1.39-.304-.963-.385-1.672-.693-.85.605.886 1.48 2.915 3 4.72 2.522zm-2.64-.795c.448-.992 2.983.166.863-.022-.29-.025-.578.126-.863.022zm.167-.621c.221-.842.892.55 0 0zm3.436-2.102c1.078-.966-.373.197 0 0zm-10.528-10.466c2.32-1.067 3.686-3.449 5.996-4.562 2.5-1.477-.977-.427-1.736.38-1.421.953-4.067 3.078-4.26 4.182z" style="fill:#dde2dd;stroke-width:1" transform="translate(797.442 -252.723)"/><path d="M-771.948 303.64c-1.768-.938-3.825-1.115-5.541-1.834-1.077-.443-1.749 2.848-1.886.692-.153-1.364-2.119 1.837-3.47 1.147-2.031.187-4.173-1.165-4.47-3.267-1.794-1.721-.758-3.882-1.433-5.922-1.12-1.794.376-4.228-1.38-6.076-1.261-1.204-2.225-4.81.678-4.207 2.252.07 5.62-1.244 6.753 1.532 1.26 1.849 1.636 5.198 3.307 6.232.688-2.676.77-5.603 1.421-8.353.905-1.535 1.814-3.309-.396-4.198-2.627-2.514-3.964-6.056-4.348-9.615-.524-2.282-.935-5.062.903-6.884 2.897-3.578 6.858-6.756 11.598-7.188 2.451-1.896 5.07.264 7.125 1.548 2.473 2.12 1.917 5.688 2.82 8.53.6 2.657 1.252 5.34 1.224 8.081 1.532 1.64 4.038 2.87 3.426 5.55 1.535 1.806 2.927 3.69 3.25 6.148 1.253 5.088 1.439 10.407 1.007 15.61-.244 1.169-.483 1.827-1.237 1.726-1.172-.126.361-3.114.078-4.39.327-5.28-.441-10.615-1.933-15.675-.552-1.866-2.45-4.755-4.592-3.03-3.587 2.754-4.256 7.593-4.682 11.777-.312 1.135-1.143 1.707-.542.167.463-3.137.713-6.367 1.966-9.318-2.517 1.113-2.892 4.243-3.128 6.67-.175 2.445-.027 4.895-.044 7.341 2.11.222 2.158-2.17 2.966-3.584.35-2.086.408-4.212.513-6.277-.022 1.1.549 2.528.95.59.496-1.567 3.055-4.6 3.744-4.377-2.706 2.056-4.08 5.4-4.588 8.675 1.599-2.54 3.028-5.29 5.367-7.248-2.102 2.691-4.282 5.427-5.446 8.68 1.889-1.605 2.598-4.17 4.33-5.893-1.57 2.895-3.303 5.831-5.672 8.174.212 2.53 3.445-.66 4.904.822 1.477.622 3.261 1.474 3.854 3.058-1.67-2.078-5.073-3.806-7.506-2.443.472.742 3.382 1.211 1.102.929 1.156 1.528 2.835 2.68 4.19 4.068 1.478 1.983-1.585-.957-2.115-1.438-1.176-.462 1.83 1.9 1.482 2.829-1.802-1.713-2.77-4.807-5.22-6.086-1.023-.453-4.058.36-1.385.527 1.927.893 3.422 3.942 3.294 5.555-1.148-1.752-1.388-4.67-3.812-5.256-1.674.072-3.875.683-5.222-.58-.573-.8-3.39-.743-1.37.186 1.872 1.725.133 5.24-.822 5.747 1.786-.41 3.95-.56 5.407.27-1.775.268-3.625-.05-5.419.278zm-10.36-.683c1.955-.18 1.861-1.516-.051-1.224-1.325-.2-4.77-3.597-3.964-.47.763 1.408 2.484 2.06 4.015 1.694zm10.404-.531c1.8-1.16 1.713-4.88-.728-5.12-2.508-.64-.375 3.166-1.24 2.889 1.126-1.478-2.337-4.428-2.164-2.18.929 1.177-1.087 5.097 1.602 3.518 1.612-1.5-.515.89 1.266.893.406.1.867.183 1.264 0zm-7.346-1.27c2.55 1.11 4.14-1.97 2.125-3.698-1.188-1.664-2.504-5.775-4.783-4.907 1.268 1.529 1.862 3.557 3.153 5.112-1.665-.62-2.725-2.478-4.78-2.267-1.065-.448-3.276-2.606-3.854-1.308.7 1.225 3.75 1.574 3.477 2.768-.915-.018-3.555-2.826-3.065-.794.619.524 3.53 2.62 1.268 1.567-1.916-1.563-.229 1.539.884 1.388-.1 2.038 3.083 2.057 4.64 2.234.313-.01.626-.041.935-.095zm-6.83-1.932c-.022-.7-1.209-.13-.816-1.203-1.752-2.616-1.322 2.524.816 1.203zm20.041-6.386c-.08-3.11-.166-6.446 1.47-9.22-2.363-.792-2.205 3.96-1.827 3.908.366.138-.562 3.13-.5 4.251-1.198 1.339.037-2.575-.218-3.465.095-1.962.14-3.946.6-5.866.794-.115.604 1.408 1.366-.218 1.777-1.99 3.398-4.576 2.548-7.35-.289-1.053-.38-2.14.178-.456.306.854.124 4.365.584 1.848.458-4.142-2.858-7.477-6.157-9.418-2.406-1.637-5.03-3.019-7.54-4.408 2.583.68 4.752 2.398 7.086 3.65 3.132 1.986 6.631 4.765 6.899 8.76.116 2.876-1.53 5.432-3.407 7.463-.534 1.527 2.396-.54 2.956-.937 1.586-1.561 3.563-3.028 5.618-2.932.872-1.152-1.64-3.72-1.299-1.695-.505-.68-1.559-3.14-1.357-.84-.782 2.329-2.643 4.308-4.8 5.425 2.69-1.899 4.625-5.138 4.127-8.51-.095-3.708-1.558-7.22-1.914-10.872.144-2.878-2.281-4.769-4.552-5.889-2.407-1.27-5.046.898-7.513 1.168-3.004 1.284-5.502 3.517-7.545 6.03 2.26-1.074 4.948-1.536 6.53-3.671.724-.8 4.016-3.088 1.555-1.09-1.96 2.465-4.666 3.859-7.57 4.84-2.827 1.326-1.502 4.556-1.213 6.882.544 3.47 1.835 7.066 4.754 9.235.97 1.416 2.636 2.468 3.84 3.162.718 2.821.098 5.762.3 8.635.181 1.484-.404 5.005.187 5.182 1.468-1.88 5.443 2.672 4.656-1.007-.218-3.716-.09-7.465.597-11.13-1.146-1.056-3.65.115-4.763-1.239-.402 2.591-1.04-1.778-.19-2.514-.006-1.122 3.852-1.781 2.027-2.115-1.236.524-4.241.834-2.785 2.813.336-1.676-3.22-2.69-1.393-.746.638.646 1.484 1.924.158.656-3.321-3.03-6.149-6.968-6.499-11.584-.602-2.427-.624-6.222 2.743-5.98 2.417-1.12 3.79-3.563 5.854-5.167.447-.685 3.303-2.362 2.98-1.72-2.365 1.022-3.86 3.21-5.878 4.741-1.308 1.043-1.93 2.475.187 2.687 4.368 2.067 8.812 4.746 11.34 9.007 1.163 2.022 1.676 5.012-.356 6.69-2.665 1.643-3.112 4.73-3.272 7.589-.305 3.223-.296 6.467-.194 9.701 2.76.873 1.215-2.958 1.602-4.284zm-10.215 3.993c1.108-.252 2.69.35.941-.888-1.233-.33-1.99-1.204-.284-.535 1.644-.347-.308-3.25.004-4.58-.181-.772-.321-3.487.128-1.303.5 1.788.57 5.875 1.17 6.243-.401-4.223-1.005-8.543-.051-12.738-2.106-1.676-1.508 2.839-1.912 4.052-.265 2.204.243 4.475-.262 6.642-.124-1.333-3.912-1.762-1.488-.517 1.101.857.413 3.238 1.754 3.624zm2.574-5.988c-.04-2.761.303-5.547-.18-8.286-.153 4.708-.803 9.464.033 14.145.169-1.949.08-3.907.147-5.86zm-13.702 5.674c-.14-2.387-1.345-.253 0 0zm9.81-1.265c-.19-1.026-1.499-1.732-.384-.39-.15-.28.516.884.384.39zm-10.563-1.17c-.417-1.298 3.654-2.343.82-2.535-1.233.112-2.292 1.85-.82 2.534zm10.127-.357c-.81-1.13-.244.401 0 0zm1.386-2.193c.031-3.128-.1-6.368 1.062-9.335-1.74-1.007-2.137 2.94-2.245 4.244.334 2.421.918-4.239.87-1.243.24 2.358-2.508 4.862-1.253 6.842.95.946 2.085 1.433 1.566-.508zm-10.347-6.253c-1.991-.397-1.594.488 0 0zm18.812-1.826c1.539.133 1.753-3.28.053-1.444-1.237.87-4.663-1.798-3.947.748 1.032.883 2.622.795 3.894.696zm2.388-2.97c.842-.929 2.665-3.559 1.987-3.803-.42 1.455-2.414 3.65-2.368 4.398.148-.185.257-.395.38-.596zm-10.198-3.09c-.394-1.421-.59-.376.22.257zm5.12-.56c2.263-.357 4.69-3.806 2.9-5.623-1.664-.733-2.218-2.232-4.323-1.894-2.132.141-3.282-1.942-4.776-2.647-1.886.988-1.265 4.585 1.174 3.304-.077.629-2.555.799-.805 2.056.953-.168 3.036 1.109.999.888-1.47.512 1.231 3.059 2.22 3.553.785.433 1.738.637 2.612.364zm-2.255-.823c-1.202-.653 2.958-.035.44.026l-.44-.026zm-.338-.656c.61-.52.74.594 0 0zm-.574-.725c-.678-.608.055-2.81-.049-2.766.856.871-.38 2.89 1.28 2.421-.058.539-.868.393-1.23.345zm-1.717-1.308c.294-.56.216.756 0 0zm.378.166c-.15-.51.592.13 0 0zm4.261-.33c-.719-.792.62.155 0 0zm.48.047c-.603-1.036.554-.06 0 0zm-.688-.774c-2.422-1.424 3.475-1.24.852.044-.278.08-.585.073-.852-.044zm-3.97-.535c-.986-.888.792.044 0 0zm1.965-1.6c-.68-2.069 5.635.12 2.032-.26-.68.07-1.344.271-2.032.26zm-4.19 6.022c-.772-.754-.993-1.356-.346-.134-.042.057 1.14.577.346.134zm10.57-.286c.116-2.012-.908-.162-.004.217zm.56.086c-.025-.94-.495-.284.003.003zm-10.58-.233c-1.597-.15-.275-4.147-1.187-1.468-.074.45 1.171 1.784 1.187 1.468zm11.358-.42c-.663-1.913-.066-4.369-2.056-5.673 1.783 1.58 1.195 4.061 2.056 5.673zm1.266-.08c-.815-1.338-.763-.605.174.196zm-2.736-1.696c.358-.957-.637.567 0 0zm.238-.696c.772-2.435-.91-.072 0 0zm-12.363-2.595c-.47-1.152-.62-1.67-.248-.18-.047.068.915.96.248.18zm-.76-.695c-.747-1.2 2.977-4.144.599-2.091-.38.573-1.085 1.408-.6 2.091zm.958-1.392c-.358.75-.104.953 0 0zm6.554.012c-1.475-.878.673.637 0 0zm-7.482-1.88c.684-2.675-.987 3.517-.112.3zm8.42 1.54c-.72-.692-1.432-1.069-.309-.151-.037-.037.546.485.308.15zm-5.538-2.358c-.23-1.814 0 1.54 0 0zm13.89 37.38c-.35-.963-1.968-3.624-1.488-3.718.512.944 2.096 3.29 1.488 3.718zm7.37-1.021c-.849-.823-2.61-2.856-.58-1.137.077.055 1.246 1.66.58 1.137zm-3.649-.254c-1.122-1.815-2.776-3.218-4.377-4.598 2.18.466 4.22 3.658 4.565 4.805zm4.042-.799c-.812-.515-3.357-2.15-.98-1.124.482.109 2.684 2.337.98 1.124zm.482-1.524c-.906-1.268-4.291-1.464-4.282-2.003 1.6-.157 4.946 1.585 4.59 2.26zm-.296-3.478c-1.797-1.782-4.634-2.208-6.846-.96-1.075.016 2.054-1.397 2.753-1.119 1.594-.599 5.084 2.189 4.548 2.438l-.202-.155-.253-.204zm-3.838-.352c-.995-.622-3.528.476-3.637-.32.87-.426 4.093-.27 3.637.32zm-1.873-2.038c.6-1.356 3.142-2.736 3.767-2.69-.8.62-3.265 1.922-2.899 2.292 1.12-.826 4.336-.606 4.266-.206-1.74-.342-3.433.369-5.134.604zm-.435-6.416c.031-1.395 1.496-4.102 1.9-4.197-.788 1.326-1.166 2.845-1.9 4.197zm2.345-1.237c.405-.92 3.518-3.678 1.484-1.476-.472.514-.947 1.028-1.484 1.476z" style="fill:#9fa2a1;stroke-width:1" transform="translate(797.442 -252.723)"/><path d="M-771.948 303.629c-1.879-.915-3.958-1.237-5.812-1.882-.873-.046-1.505 2.733-1.595.696-.086-1.452-1.72 1.606-2.887 1.126-2.13.433-4.77-.829-5.027-3.16-2.061-1.899-.502-4.314-1.69-6.516-.143-2.191-.267-5.054-2.02-6.98-1.598-2.11 1.071-3.393 2.9-2.785 2.117-.486 5.04-.415 5.648 2.162.98 2.037 1.815 4.144 2.856 6.153.717-2.76 1.107-5.592 1.443-8.414.918-1.625 2.134-3.865-.356-4.78-2.592-2.505-3.827-6.04-4.243-9.55-.57-2.391-.833-5.302 1.177-7.122 2.874-3.39 6.69-6.453 11.273-6.86 1.98-1.265 4.19-.86 5.76.73 2.737 1.008 3.536 3.841 3.647 6.471.507 3.05 1.646 5.97 1.654 9.092-.188 2.686 2.952 3.468 3.58 5.718-.695 2.413 2.392 3.535 2.666 5.778 1.73 5.187 1.94 10.727 1.761 16.148-.191.698-.207 3.576-.9 2.937.173-1.068.64-3.576.229-3.773-.176 1.08-.286 4.294-1.161 3.814 1.25-5.88.509-11.958-.775-17.76-.744-1.97-1.079-4.874-3.392-5.56-2.757-.088-4.152 2.854-5.1 5.018-.937 2.52-1.12 5.226-1.637 7.846-1.141 1.593.198-1.904-.01-2.52-.015-2.251 1.479-6.032 1.345-7.136-2.508 1.58-2.731 4.907-2.899 7.595-.08 2.097.037 4.193.023 6.29 2.126.368 2.402-2.574 3.09-4.039.4-1.97.064-3.963.476-5.831-.02.962.22 2.706.84.906.763-1.91 2.021-3.956 3.884-4.84-2.18 1.78-3.731 4.396-4.373 7.177-.257.984-.63 2.68.195.914 1.35-2.321 2.792-4.654 4.823-6.449-2.116 2.622-4.174 5.368-5.408 8.531 1.994-1.422 2.588-4.054 4.3-5.746-1.543 2.844-3.23 5.668-5.53 7.974-.369 2.752 3.24-.421 4.593 1.001 1.687.522 3.434 1.497 4.16 3.192-1.734-2.255-4.94-3.84-7.727-2.72.292.806 3.754 1.395 1.093.995 1.371 1.761 3.404 3.014 4.815 4.78-.516.275-2.88-2.738-3.276-2.579.572.862 2.705 3.167 1.916 3.152-1.686-1.932-2.65-4.721-5.014-5.93-1.05-.513-4.325.524-1.433.547 1.964.78 3.515 4.116 3.326 5.544-1.078-1.901-1.59-5.318-4.345-5.273-2.462.998-4.811-.944-6.867-1.029 2.321 1.31 2.16 5.356-.357 6.395 1.857-.174 4.3-.709 5.685.313-1.755.183-3.557-.069-5.324.239zm-10.103-.712c1.86-.219 1.25-1.508-.284-1.212-1.446.013-4.209-3.543-4.158-.728.747 1.666 2.71 2.537 4.442 1.94zm9.918-.383c2.29-1 1.927-5.495-.898-5.253-2.091-.199.025 3.199-.83 2.8 1.164-1.631-2.77-4.403-2.15-1.892.93 1.225-1.128 4.826 1.42 3.45 1.027-.793.666-.502.66.335.486.393 1.157.754 1.798.56zm-5.924-1.339c3.227.35 1.217-3.826.163-5.191-.938-1.311-2.18-4.155-3.985-3.558 1.133 1.799 1.876 3.283 2.886 5.062-1.13-.183-2.94-2.346-4.795-2.407-1.194.054-3.242-2.434-3.581-1.042.547 1.206 4.014 1.884 3.356 2.678-.822-.108-3.795-2.742-2.985-.613 1.045.537 3.483 2.814.954 1.25-1.795-.5 1.086 1.727 1.235 1.984 1.16 2.43 4.515 1.768 6.752 1.837zm-7.885-1.995c-.915-.238-1.054-2.04-1.871-1.908-.495 1.244.446 2.783 1.87 1.908zm19.92-4.475c.03-3.692-.506-7.7 1.481-11.024-2.567-.529-2.08 3.102-2.099 4.687.85-2.878-.19 2.048-.227 2.958-1.059 2.269-.125-1.806-.251-2.748.109-2.061.167-4.143.646-6.16.666.433.723.99 1.38-.255 1.834-2.004 3.37-4.69 2.48-7.48-.195-2.943.623 2.9.501 2.868 1.338-3.898-1.42-7.763-4.536-9.859-2.802-1.917-5.767-3.603-8.74-5.222 2.728.847 5.075 2.569 7.528 3.991 2.918 1.978 6.147 4.724 6.295 8.522.048 2.948-1.728 5.495-3.618 7.585 1.252.905 3.85-1.88 5.173-2.863 1.03-1.108 2.492-1.188 3.683-1.125.636-1.115-1.23-3.638-1.48-2.008-.509-.924-1.538-3.005-1.297-.615-.268 2.002-3.882 5.197-4.393 5.094 2.121-1.58 3.767-3.95 3.79-6.677.304-4.882-1.907-9.472-2.189-14.28-.45-2.376-2.962-2.966-4.546-4.287-2.308-.789-4.383 1.048-6.657 1.123-3.285 1.31-6.064 3.667-8.256 6.411 2.255-1.142 4.987-1.554 6.608-3.691.73-.776 4.032-3.192 1.562-1.152-1.935 2.373-4.527 3.85-7.409 4.731-2.963 1.208-1.666 4.594-1.36 6.948.52 3.432 1.769 6.997 4.655 9.143.962 1.521 2.743 2.624 3.934 3.315.837 2.958.066 6.05.33 9.065.177 1.267-.695 4.469.423 4.525 1.546-1.304 5.202 2.832 4.431-.847-.265-3.745-.027-7.526.603-11.215-1.366-.759-3.441.11-4.804-1.052-.349 2.546-1.01-1.789-.131-2.631.075-.99 3.894-1.875 1.933-2.068-1.074.49-3.895.629-2.925 2.44.519-1.537-3.207-2.152-1.362-.489.88.79 1.734 2.16.246.685-3.39-3.045-6.095-7.11-6.465-11.754-.328-2.129-.706-5.866 2.412-5.557 2.708-1.047 4.166-3.756 6.403-5.463.64-.841 2.875-1.987 3.073-1.745-2.906 1.345-4.886 3.963-7.247 6.01-.756 1.969 2.973 1.727 4.041 2.98 3.899 2.24 8 5.165 9.41 9.65.708 2.143-.445 4.316-2.171 5.588-2.402 1.712-2.002 4.79-2.358 7.357-.238 3.003-.256 6.02-.138 9.03 1.895.725 1.74-1.222 1.637-2.44zm-9.47 1.972c2.768.653-1.83-1.902-1.095-1.516 1.213.45 2.22.449 1.493-1.053-.107-1.898-.758-3.76-.637-5.666.8 1.928.583 6.73 1.464 7.138-.509-4.172-.933-8.443-.092-12.609-2.001-1.56-1.539 2.606-1.874 3.762-.187 2.155-.098 5.74-.128 7.015-.284-1.272-4.062-1.897-1.596-.477 1.171.82.225 4.51 2.466 3.406zm1.751-.308c-.085-4.521.431-9.137-.084-13.598-.238 1.864-.21 3.872-.36 5.794-.108 2.792-.103 5.603.308 8.373.343.037.005-.423.136-.569zm-13.643.172c-.052-2.368-1.491-.555 0 0zm9.895-1.17c-.182-1.203-1.73-1.958-.43-.445.065.061.75 1.168.43.444zm-10.58-1.15c-.798-1.412 3.777-2.474.749-2.733-1.343.035-2.233 2.129-.75 2.733zm10.114-.462c-1.136-1.175-.696-.33 0 0zm1.331-1.972c.051-3.296-.103-6.722 1.169-9.836-2.271-.224-2.301 3.419-2.308 5.103.449.336.894-4.49.816-1.817.298 2.423-3.119 5.318-.812 7.13 1.066.836 1.444.787 1.135-.58zm2.247-3.996c-.075-.254.008 2.564.016.43l-.016-.43zm-12.54-2.515c-2.084-.392-1.8.463 0 0zm19.022-1.88c1.363-.394 1.566-3.192-.182-1.46-1.386.833-5.192-1.825-3.811.91 1.132.804 2.68.82 3.993.55zm2.211-3.03c.73-1.06 2.392-2.534 1.864-3.778-.31 1.519-2.45 3.71-2.306 4.462.161-.219.302-.451.442-.683zm-9.67-2.66c-1.073.01-.989-2.544-.99-.543-.104.253 1.653.907.99.542zm4.84-.974c2.162-.413 4.647-4.451 2.279-5.648-1.725-2.406-4.753-1.234-6.815-2.84-1.09-.397-2.401-3.695-2.083-3.113.585 1.789-2.57 3.696-.078 4.974.751-.424 2.241.306.585.403-2.168.57.935 2.162 1.777 2.034-.453.82-2.081-.31-1.174 1.25.954 1.895 3.277 3.802 5.509 2.94zm-2.95-.83c1.89-.707 1.935.562 0 0zm.024-.568c.55-.549.676.631 0 0zm-.82-.89c-.203-1.059.46-3.852.525-1.303-.808 1.554.901.602.905 1.286-.37.317-1.04.275-1.43.017zm3.637-1.34c-.408-1.293.528.555 0 0zm-.62-.704c-2.421-1.307 3.333-1.26.82.027-.266.082-.56.08-.82-.027zm-4.114-.663c-.354-.832.758.8 0 0zm1.91-1.567c-.03-1.917 5.506.235 2-.16-.658.101-1.33.338-2 .16zm-3.707 6.275c-1.37-.063-1.078-3.388-1.16-.83-.15.276 2.028 1.435 1.16.83zm10.255-.409c-.472-.953.814-2.804-.34-1.078-.275.174.164 2.074.34 1.078zm.573.019c-.47-1.541-.052.488 0 0zm-10.23-.064c-2.08.242-.61-4.614-1.524-1.918-.052.859.614 1.877 1.524 1.918zm12.718-.38c-1.01-.48-1.481-2.301-.83-.38.005.123 1.45.745.83.38zm-1.455-.066c-1.199-2.154-.435-5.315-3.159-6.565-.88-.75-2.415-1.7-.589-.355 2.272 1.465 3.164 4.252 3.097 6.655.081.129.941.601.65.265zm-1.8-1.825c.574-.918-.756.484 0 0zm-11.37-1.87c-.132-1.014-.363 2.239-.085.49zm11.706.8c.08-1.814-.698 1.463 0 0zm-12.154-2.02c-.967-.636-.548-3.202-.817-.901-.097.331 1.767 1.946.817.9zm11.367.107c-.76-.857-2.267-2.04-.753-.478.22.2.47.378.753.478zm-12.372-1.087c-.804-1.203 2.209-2.964 1.542-3.108-.79.753-2.037 1.917-1.542 3.108zm.903-.305c.22-1.798-.444-.707.076.297zm5.79-.735c-1.464-.357-2.753-3.115-3.258-3.223.666 1.23 1.958 3.005 3.258 3.223zm1.309-.115c-1.51-.354-3.1-3.374-3.547-3.276.955 1.34 2.757 3.585 3.547 3.276zm1.092-.25c-1.111-.14-3.614-3.592-1.878-1.102.309.333 1.901 1.467 1.878 1.102zm-9.285-.307c-.583-1.41 1.782-3.412 1.642-3.487-1.194.64-2.043 2.135-1.642 3.487zm9.606.101c-.787-.653-3.26-2.544-1.188-.743.365.293.757.557 1.188.743zm-8.036-1.645c2.2-2.805-3.054 3.135 0 0zm4.107.899c-.511-.919-2.785-3.887-1.22-1.504.086.145 1.628 2.194 1.22 1.504zm1.027-.517c-.433-.932-2.25-2.163-.713-.686.315.411 1.653 1.938.713.686zm-5.056-1.122c1.815-1.834-1.307.746-.238.229l.238-.23zm15.202 37.089c-.412-1.03-1.653-3.288-1.473-3.568.643 1.05 2.081 3.21 1.574 3.826l-.08-.118zm7.57-.7c-.727-.84-2.926-3.04-.722-1.204.194.31.952.836.722 1.203zm-3.716-.335c-.799-1.628-3.988-4.193-4.101-4.477 1.994.603 3.94 3.628 4.284 4.679zm4.508-.471c-.724-.529-3.93-2.514-1.433-1.368.263.217 2.04 1.167 1.433 1.368zm.134-1.775c-.903-1.293-4.33-1.574-4.362-2.061 1.612-.061 4.646 1.4 4.601 2.257zm.038-3.23c-1.895-1.857-4.815-2.736-7.231-1.343-1.042-.002 2.14-1.373 2.853-1.052 1.92-.01 3.69 1.142 4.759 2.675l-.38-.28zm-4.03-.641c-1.154-.671-3.514.305-3.984-.3 1.11-.384 3.3-.51 3.984.3zm-2.144-2.06c.638-1.414 3.308-2.741 3.88-2.812-.869.673-3.415 2.047-3.11 2.45 1.154-.853 4.427-.618 4.391-.263-1.75-.41-3.455.365-5.161.625zm-.343-6.723c.023-1.314 1.464-3.769 1.806-3.928-.744 1.24-1.12 2.664-1.806 3.928zm2.247-.938c.485-.912 3.603-3.745 1.458-1.453-.472.498-.956.985-1.458 1.453z" style="fill:#769aaa;stroke-width:1" transform="translate(797.442 -252.723)"/><path d="M-772.454 303.476c-.776-.263-.984-.828-1.482-.317.055-.68-.776-.934-1.433-.71-.684-.058-1.687.011-1.97-.743-.799-.124-1.257.11-1.27.957-.008.952-1.406.663-.68-.218.583-1.001-.446-.63-.767-.056-.965 1.208-2.669 1.302-4.081 1.117-1.772-.215-3.079-1.843-3.203-3.579-.863-.496-1.493-1.66-1.108-2.69.584-.536-.295-1.05-.105-1.712.702-.74-.397-1.114-.64-1.787-.348-.61-.216-1.456.363-1.886-.5-.598-.004-1.488-.596-2.086-.658-1.45-1.565-2.832-2.065-4.327-.274-.958.82-1.289 1.571-1.211 1.897-.144 3.836-.268 5.718-.133 1.566.658 1.766 2.571 2.515 3.907.721 1.49 1.35 3.065 2.14 4.5.29-.365.212-.985.158-1.597.325-1.225 1.125-2.34.899-3.652-.08-2.219.53-4.538 2.027-6.22-2.14-1.796-4.189-3.878-5.115-6.579-.847-2.413-1.213-4.973-1.532-7.502-.159-1.47.273-2.95 1.301-4.032 2.275-2.888 5.261-5.329 8.73-6.607 1.049-.48 2.253-.397 3.317-.697 1.1-.628 2.699-1.13 3.749-.18.668.963 1.832 1.174 2.776 1.743.898.608 1.401 1.67 1.861 2.623.334.795-.073 1.637.343 2.414.46 1.934.74 3.91 1.244 5.837.406 1.87.772 3.803.671 5.713.406.407 1.148.905 1.198 1.66 1.552-.001 2.369 1.739 2.164 3.11-.261.767-.016 1.015.626 1.535 2.39 2.377 2.914 5.892 3.44 9.076.559 4.517.932 9.172-.077 13.65-.651.764-.228-.765-.163-1.198.46-2.626.231-5.31.245-7.96-.381-3.58-.705-7.376-2.114-10.65 1.196 3.97 1.774 8.19 1.92 12.353.043 2.601-.02 5.256-.85 7.748-.873.122-.039-1.14-.103-1.65.991-5.388.221-10.91-.893-16.215-.558-2.293-1.314-4.895-3.524-6.118-1.109-.188-2.024.822-2.778 1.524-2.623 2.658-3.19 6.555-3.666 10.1-.083.782-.195 1.939-.926 2.277.4-.955.55-2.132.664-3.216.342-2.525.646-5.136 1.794-7.442-.737.389-1.631.71-1.945 1.588-1.881 3.375-1.343 7.373-1.46 11.08.149.546-.437 2.126.558 1.447.308-.348 1.718.1 1.191-.503-.205-1.024.696-1.681 1.31-2.344.013-1.568.337-3.141.58-4.658a4.269 4.269 0 0 1 0-2.717c.067.831.026 1.68.288 2.48.961-2.417 2.238-5.016 4.626-6.296.292-.024-.993.82-1.262 1.088-2.06 2.216-3.312 5.161-3.669 8.14.235-.002.624-1.179.96-1.605 1.213-2.077 2.573-4.11 4.364-5.736-2.04 2.514-4.01 5.168-5.256 8.175-.427 1.152.315.322.633-.231 1.293-1.724 2.289-3.684 3.652-5.34-.123.333-.678 1.188-.98 1.712-1.35 2.224-2.668 4.52-4.604 6.295-.438.448-.205 1.465.309 1.512 1.18-.615 2.535-.933 3.84-.536 1.858.46 3.726 1.538 4.65 3.256-.19-.152-.786-1.009-1.296-1.286-1.893-1.401-4.54-2.51-6.791-1.273.802.549 2.181.519 2.689 1.256-.373-.04-1.843-.882-1.511-.454 1.733 1.747 3.685 3.347 5.325 5.152-.597-.126-1.21-.967-1.792-1.393-.75-.646-1.447-1.35-2.165-2.03.878 1.35 2.046 2.537 2.786 3.955-.535.313-.744-.821-1.111-1.134-1.325-1.615-2.151-3.768-4.022-4.839-1.11-.628-2.595-.414-3.549.32 1.227-.467 2.51.164 3.265 1.156 1.133 1.282 1.411 3.034 2.219 4.503-.806.095-.715-1.151-1.114-1.668-.588-1.486-1.352-3.268-3.01-3.775-.655-.113-1.345.145-1.86.363-.878-.361-1.869-.373-2.773-.095-.636-1.04-1.985-1.724-3.17-1.282 1.444.397 2.046 2.135 1.894 3.528-.083 1.191-.776 2.595-2.013 2.887.897.327 1.884-.017 2.626-.562.52.497 1.49.51 2.226.619.53-.005 1.942.089.705.304-1.031.169-2.12.144-3.12-.177-.747.434-1.71.557-2.515.244zm-9.537-.562c.603-.14 1.317-.485 1.637-.976-1.697-.032-3.352-.693-4.768-1.576-.47-.592-.317-1.124-1.2-.637-.88-.043-.093 1.128.006 1.57.747 1.558 2.759 2.051 4.325 1.619zm9.902-.374c1.165-.52 1.554-1.972 1.411-3.162-.01-1.13-.943-2.251-2.149-2.076-.405-.008-1.613.221-1.354.612.611.673.533 1.745.408 2.551-.13-.28.065-1.247-.182-1.784-.322-.81-.892-1.877-1.939-1.55-.923.042-.263.855-.044 1.308.222 1.088.448 2.516-.486 3.329 1.046.412 2.317.04 2.788-1.028.05.719-1.191 1.176.026 1.479.46.247.996.53 1.52.32zm-6.769-1.354c.749-.199 1.57.243 2.26.015.536-.576.325-1.58.262-2.317-.21-.586-.9-.914-.918-1.65-.503-1.627-1.82-2.843-2.754-4.232-.519-.432-1.32-1.302-2-.771-.008.897 1.196 1.258 1.377 2.148.266.675.12 1.453.875 1.868.355.372 1.255 1.225.72 1.606-.775-.128-.832-1.255-1.537-1.596-1.017-.657-2.406-.483-3.432-1.201-1.104-.435-1.983-1.296-3.096-1.7-1.016.228-.166 1.187.441 1.351a47.623 47.623 0 0 0 3.17 1.88c-.319.575-1.322-.215-1.828-.468-.644-.315-1.234-1.03-1.918-1.096-.536.801.625 1.403 1.173 1.837.438.515 1.473.653 1.575 1.326-.861-.134-1.57-.953-2.343-1.297-.144 1.28 1.465 1.64 2.188 2.328-.69.022-.24 1.011.416 1.122 1.405.598 2.887 1.148 4.438.896.31-.011.621-.033.931-.05zm-7.313-1.894c.958-.185-.47-.883-.591-.567.513-.462-.722-.832-.568-1.513-.267-.636-1.066.523-.686 1.003.086.91 1.028 1.374 1.845 1.077zm19.898-2.232c.654-.507.155-1.49.283-2.215-.005-3.516-.462-7.253 1.119-10.524.553-.83.552-1.113-.436-.6-.902-.12-1.207.543-1.202 1.34-.13 1.171-.152 2.347-.122 3.525.06-.316.468-2.028.345-.98-.35 1.585-.478 3.277-.86 4.815-.698.236-.074-1.161-.1-1.607.292-2.619.11-5.283.696-7.87-.261-.81.929-.792.497-.114-.389.753.825.09.772-.43 1.07-1.51 2.668-2.858 2.807-4.843.26-1.355-.085-2.736-.379-4.06.7 1.452.832 3.189.46 4.742.268.002-.417 1.196-.66 1.59-.717 1.158-1.774 2.072-2.414 3.28 1.982-.528 3.707-1.74 5.195-3.132.931-.76 2.09-1.75 3.349-1.422.707.94.773-.424.7-.994-.112-.806-.87-1.745-1.658-1.677.253.615.694 1.503-.127.496-.38-.584-.45-1.466-1.067-1.826-.029.51.258 1.219-.1 1.769-.99 2.126-2.706 3.906-4.666 5.171-.307.098.979-.859 1.317-1.207 1.464-1.57 2.885-3.456 2.825-5.713.236-3.5-.787-6.895-1.542-10.273-.075-.976-.42-1.915-.607-2.85.383-1.355-.545-2.656-1.388-3.627-.897-.755-2.222-.81-2.936-1.826-1.086-.97-2.645-.415-3.738.256-1.054.43-2.302.198-3.349.737-2.732 1.116-5.086 2.996-7.075 5.153-.279.277-1.575 1.647-.622 1.043 1.406-.797 3.048-1.038 4.439-1.842 1.393-1.283 2.824-2.725 4.362-3.714-1.629 1.35-3.093 2.972-4.788 4.255-1.736.622-3.677 1.063-5.067 2.322-1.015 1.57-.301 3.521-.068 5.223.46 3.249 1.316 6.702 3.782 9.03 1.39 1.33 2.74 2.755 4.154 4.027.086-.851 1.053-.173.89.522.495 2.535.118 5.14.187 7.705.012 2.04-.103 4.225-.073 6.172.491-1.031 2.015-.965 2.97-.57.78.15 1.148 1.237 2.02.85.302-.422-.041-1.363 0-1.98-.317-3.185-.043-6.406.37-9.571.047-.639.301-1.242.378-1.87-1.693.271-3.638.27-5.05-.85-.183.346.072 2.052-.36.88-.216-1.312-.217-2.969.814-3.954.775-.65 2.014-.566 2.469-1.607-1.468.282-2.84 1.013-4.332 1.188.016.51.64 1.602.443 1.676-.442-.52-.211-1.73-1.085-1.662-.528.05-1.724-.707-.904.254.563.813 1.263 1.525 1.898 2.283-1.21-.816-2.122-2.039-3.214-3.016-1.309-1.625-2.61-3.288-3.311-5.281-.723-1.868-.985-3.887-1.225-5.859.011-1.134.072-2.26.404-3.353-.133-.508 1.116-.545 1.599-.685.924-.13 1.97-.155 2.515-1.048 1.047-1.047 1.907-2.254 3.115-3.135 1.436-1.159 2.652-2.863 4.597-3.135-2.184.82-3.624 2.723-5.42 4.114-.84.943-1.769 1.845-2.612 2.762.606.46 1.653.7 2.428 1.076 2.318 1.038 4.423 2.496 6.492 3.952 2.123 1.645 3.952 3.783 4.983 6.277.66 1.818.38 4.1-1.199 5.364-.715.82-1.678 1.467-2.32 2.314-.854 3.265-.923 6.666-1.072 10.019l.018 4.814c.502.002 1.13.513 1.456-.074zm4.04-19.026c.688-1.911.677-4.105-.387-5.881-1.203-2.574-3.606-4.219-5.927-5.702-2.014-1.351-4.195-2.434-6.26-3.695-1.034-.214-1.135-.483-.031-.176 3.975 2.048 8.104 4.119 11.173 7.456 1.68 2.005 2.743 4.864 1.699 7.41-.083.08-.145.785-.267.588zm-14.4 19.07c.57-.467 1.695-.64 2.264-.01.244-.32-.678-1.136-1.171-1.335-.308-.293-2.157-.536-.97-.593.574-.06 1.55.578 1.75.55-.484-2.219-.677-4.502-1.022-6.75-.223-1.299.233-.211.274.42.436 2.196.56 4.478 1.018 6.65.624 1.12.264.022.204-.64-.36-3.826-.95-7.714-.171-11.53.385-.765-.228-1.215-.768-1.642-.412-.006-.388 1.245-.644 1.669-.618 2.852-.43 5.801-.57 8.7-.041.538.388 2.01-.184.9-.63-.594-1.437-1.253-2.328-1.29-.696.562.613.534.815 1.01.634.8.991 1.866 1.226 2.847.024.177.08 1.292.277 1.044zm3.003-5.57c-.04-3.013.277-6.054-.19-9.046-.305.215-.013 1.388-.132 1.983-.283 2.775-.231 5.58-.33 8.364.17 1.394.119 2.847.474 4.2.276-.657.056-1.593.142-2.356l.036-3.145zm-13.718 5.08c-.316-.274-.085-1.78-.507-1.41-.482.36-.033 1.641.507 1.41zm9.76-1.515c-.206-.49-.607-1.321-1.127-1.32.432.577.9 1.469 1.31 1.866.043-.169-.147-.374-.183-.546zm-3.935.14c-.318-.932.177-.912.236-.348-.218.778.903.36.297-.4-.296-.911-1.774-1.464-1.359-2.528.436-.538 1.308-.237 1.713-.005-.986-1.995-1.896-4.024-2.796-6.06-2.382.104-4.802.06-7.161.192.757 1.75 1.752 3.537 2.6 5.3.739-.37 2.135-.582 2.334.492.17.702-1.177.7-.247 1.204 1.235 1.118 2.742 2.195 4.455 2.288-.114.037-.028-.107-.072-.134zm-6.524-.95c-.455-.958.62-1.583 1.401-1.822.882-.033.752-1.149-.108-.952-.933-.042-2.324.56-2.166 1.644.088.353 1.033 1.707.882 1.153l-.01-.022zm10.208-.346c.027-.585-1.563-1.1-.634-.475.286.016 1.102 1.404.634.475zm1.273-.917c-.188-2.493.04-5.03.21-7.529.153-1.178.385-2.397.969-3.44-.526-.94-1.086-.347-1.38.42-.865 1.411-1.104 3.07-1.038 4.7-.054 1.222.406-.658.5-1.03.166-.718.218-1.46.391-2.177.053 2.157-.72 4.234-1.53 6.2-.483.652-.553 1.804.417 2.026.565.205 1.225.802 1.53 1.066-.086.005.014-.236-.069-.236zm2.218-4.991c-.01-.376.074-2.4-.006-1.55-.084 1.107-.111 2.59-.025 3.48l.032-1.93zm-12.567-2.685c-.246-.377-1.331-.205-1.792-.049.45.251 1.243.024 1.792.05zm3.055-.089c-.202-.5-1.125-.876-1.42-.638.506.073 1.118.347 1.486.758l-.061-.111-.005-.01zm15.495-1.742c.922.03 1.364-.464 1.376-1.35.622-.983.392-1.07-.515-.447-1.454.533-3.331.577-4.425-.69-.227.621-.8 1.505.06 1.867 1.047.635 2.303.813 3.504.62zm2.286-2.495c.78-1.533 2.51-2.595 2.537-4.46.017-1.048-.451.5-.55.829-.66 1.365-1.892 2.547-2.252 3.993.108-.076.173-.252.265-.362zm-9.004-3.257c-.915-.02-1.422-.979-1.08-1.79-.744.7.203 2.087 1.149 1.815zm4.339-.94c1.738-.447 3.16-1.917 3.354-3.731-.066-.529.614-1.546-.158-1.712-.997-.162-1.84-.908-2.22-1.833-1.86-.29-3.98-.059-5.455-1.457-1.086-.808-1.942-2.026-1.821-3.434-.04-1.108-.368.611-.153.965.508.747-.04 1.195-.644 1.63-.663.9-.136 2.124.125 3.102.545-.407 1.502-.74 2.048-.181-.126.646-1.276.175-1.804.481.153.604.658 1.742 1.568 1.703.602-.09 1.17-.416 1.112.54-.57.365-1.552-.245-1.67-.316.48 1.802 1.693 3.41 3.463 4.096.662.422 1.537.41 2.255.146zm-2.627-.88c-.48-.388 1.101-.041 1.44-.215.762.126-.765.353-1.144.274-.11.037-.2-.015-.296-.059zm-.023-.554c-.257-.422 1.054.1.102.065zm-.724-.843c-.795-.44.326-1.22.06-1.874-.235-.659-.37-1.38.22-.431.46.65-.056 1.34-.177 1.978.381.272 1.417-.742 1.123.26-.36.2-.86.217-1.227.067zm2.945-2.12c-.403.045-1.274-1.263-.626-.92.593.234 1.37.194 1.952-.094.237.885-.603 1.216-1.326 1.014zm-4.043-.524c-.716-.885.536.1.02.02l-.02-.02zm1.837-1.698c-.725-.68.655-.803 1.16-.66.823.058 1.815-.14 2.434.534-.602.096-1.33-.255-1.988-.024-.537.01-1.087.412-1.606.15zm-3.87 6.165c-.897-.288-1.249-1.356-.88-2.187.028.887.658 1.789 1.56 1.891.403-.041-1.13-.408-1.109-1.057-.492-.818.129-1.711.427-2.488a5.573 5.573 0 0 0-1.12 2.321c-.157.932.725 1.793 1.634 1.779l-.512-.259zm10.433-.084c-.358-.635-.13-1.491.205-2.164.323-1.095-.443.724-.652 1.068-.226.367-.12 1.352.447 1.096zm.64-.076c-.52-.212-.22-1.756-.54-.6-.146.307.716.947.54.6zm2.255-.644c-.726-.241-1.046-1.056-.93-1.77-.62.744.368 2.02 1.275 1.929l-.345-.16zm-.965.03c.03.028-1.45-.205-1.021-1.041.449-2.336-.998-4.599-2.899-5.846-.646-.442-1.212-1.014-1.936-1.329 1.784 1.356 3.821 2.733 4.48 5.007.347.93-.05 1.992.249 2.934.33.277.696.475 1.127.275zm-2.074-1.963c.022-1.078-.905 1.027-.036.055zm-11.524-1.518c.251-.753.315-1.112-.431-1.457-.66-.617-.78-1.562-.543-2.401-.71 1.054-.015 2.494 1.109 2.916-.346.557-.544 1.434-.318 2.114.02-.397.11-.783.183-1.172zm11.731.568c.163-1.172-.389-.73-.37.204.09.55.422.231.37-.204zm-1.67-2.79c-.485-.577-1.328-1.253-.458-.205.42.393.747.923 1.329 1.085l-.872-.88zm-.408.242c-.517-1.036-.56-.47.074.15.202.05-.068-.103-.074-.15zm-11.01-.291c-.46-1.303.857-2.354 1.674-3.183 1.009-1.048-.051-.347-.546.24-.756.714-1.823 1.838-1.279 2.94.135.196.364.386.151.003zm.944-.157c-.375-.693-.125-1.468.337-2.05-.675.511-.917 1.422-.376 2.119.042.096.219.061.04-.07zm6.29-.836c-1.876-.575-3.042-2.353-3.996-3.96-.52-.824.264.86.47 1.098.86 1.423 2.159 2.926 3.944 2.981l-.418-.119zm1.21-.176c-1.076-.22-1.993-.986-2.588-1.932a15.77 15.77 0 0 0-1.993-2.069c1.026 1.102 1.783 2.476 2.941 3.434.45.347 1.121.609 1.64.567zm.438-.51c-1.241-.45-1.876-1.663-2.792-2.498-.057.141.768 1.159 1.162 1.529.571.676 1.38 1.175 2.26 1.299-.21-.11-.422-.219-.63-.33zm-9.11-.36c-.15-1.386.746-2.602 1.849-3.349.89-.631-.676.198-.943.484-.858.762-1.234 1.908-1.086 3.038.184.852.26.351.18-.172zm9.775.391c-.896-.694-1.82-1.424-2.722-2.136.76.86 1.717 1.71 2.722 2.136zm-2.545-.645c-.652-.865-1.257-1.958-2.228-2.43.873.79 1.533 1.85 2.373 2.62l-.077-.102zm-5.606-1.198c.576-.38 1.262-1.682.33-.622-.53.645-1.376 1.113-1.563 1.975.373-.486.806-.915 1.233-1.353zm4.06.991c-.794-1.018-1.34-2.224-2.326-3.083.842 1.13 1.527 2.437 2.536 3.41.092-.008-.195-.26-.21-.327zm-3.359-2.454c.557-1.15.062-.143-.46.294-.369.27-1.614 1.627-.674.917.38-.4.904-.692 1.134-1.211zm-.32-.199c.95-.858-.272.02-.602.388-.653.58.559-.298.603-.388zm14.73 37.862c-.618-1.24-1.091-2.547-1.742-3.77 1.154 1.195 1.566 2.91 2.36 4.336-.402.24-.444-.29-.618-.566zm6.692-1.543c-.39-.384-1.604-1.617-.462-.708.603.46 1.367 1.085 1.52 1.8l-1.058-1.092zm-2.71.785c-1.363-1.731-2.618-3.76-4.756-4.616 1.102-.097 2.05.892 2.808 1.63.871.966 1.59 2.053 2.241 3.175-.152.047-.196-.11-.294-.189zm4.363-.636c-.88-.678-1.85-1.23-2.791-1.819 1.044.19 2.07.886 2.893 1.61.614.647.076.318-.102.209zm.368-1.594c-1.353-1.21-3.136-1.72-4.89-2.002-.422-.454 1.103.07 1.49.058 1.426.243 3.076 1.001 3.742 2.22l-.342-.276zm-.687-3.76c-1.306-1.1-3.002-1.962-4.745-1.5-.837.133-1.673.534-2.435.764.673-.674 1.883-1.04 2.886-1.167 1.461-.194 2.89.342 3.979 1.316.267.262 1.58 1.308 1.108 1.172l-.793-.584zm-7.752-.218c.75-.735 2.062-.46 3.066-.52.363.005 2.192.657 1.132.492-1.382-.33-2.82-.186-4.198.103zm2.197-2.02c.173-.87 1.231-1.28 1.875-1.83.697-.48 1.42-.938 2.233-1.19-1.325.96-2.807 1.744-3.979 2.894 1.074-.372 2.147-.939 3.337-.816.628-.083 1.45.091 1.904.368-1.498-.322-3.146-.185-4.585.445-.197.04-.715.34-.785.129zm-.367-6.741c.287-1.519.951-3.072 1.964-4.203-.877 1.401-1.448 3-2.01 4.513l.046-.31zm2.304-1.008c.705-.963 1.63-1.835 2.507-2.678-.767.972-1.715 1.794-2.507 2.75z" style="fill:#0d0e0f;stroke-width:1" transform="translate(797.442 -252.723)"/></svg>