<svg xmlns="http://www.w3.org/2000/svg" viewBox="0 0 52.917 52.925" height="200.032" width="200"><path d="M-781.31 391.315c-2.346-1.45-.685-5.363-2.881-6.293-1.907-1.047-2.818-3.31-2.994-5.36.975-1.928-3.33-4.156-.146-4.799 2.797-.67 3.959 2.11 5.239 3.958.59 1.874 1.225-1 2.524.503 1.059.805 2.995 1.839 2.606-.277 1.037-2.506 1.606-5.208 3.141-7.496 1.424-2.269 2.946 2.74 5.192 2.197 3.22.396 5.47-2.346 7.792-4.099.983-1.53 4.258-1.688 4.606-1.884-2.268-1.627-4.52 1.245-6.233 2.496-1.887 1.772-4.398 3.634-7.119 2.68-3.495-1.026-2.557-5.028-4.06-7.43-2.295-2.428-4.173-5.436-4.442-8.843-.269-2.238.523-4.382.47-6.603.5-3.277 3.305-5.533 5.902-7.259 3.809-2.417 9.374-2.795 12.735.61 1.434 1.734 2.905 3.436 4.031 5.392 1.543 3.548 1.383 7.916-.902 11.123-1.214 1.524-.906 3.868.863 4.64 1.06 1.671.904 3.672 1.016 5.496 1.328 2.217 1.92 4.715 2.18 7.273.418 4.352.182 8.751-.101 13.1-.419 2.425-3.16.981-4.804 1.31-4.626 0-9.253 0-13.88-.002.652-1.551-1.654-4.552-1.56-1.58-.073.991-.516 1.92-.309.304 1.197-1.919-1.915-4.297-1.69-1.092.315 2.988-2.674 2.294-4.6 2.414-.87.031-1.833.047-2.576-.48zm1.318-2.979c1.903.656 1.57-4.608.552-1.585.016.777-2.357 2.346-.552 1.585zm10.09-.393c.819-1.31 2.193-4.325-.038-4.83-.59 1.602-.777 3.516-1.648 4.92.374.6 1.326.443 1.685-.09zm6.936-3.548c-.347-4.846.483-9.734 2.137-14.287-2.065 1.95-4.658 3.232-6.85 4.875-1.07 2.305-1.131 5.087-1.035 7.572 1.31 1.547 4.001.947 5.801 2.11l-.053-.27zm-6.062-3.291c.41-.981-.346-3.927-.796-1.567-.296.785.242 4.448.774 2.183l.01-.308.012-.308zm-1.338 1.344c.975-2.089-.51-4.51.812-6.596 1.397-1.902-2.488-4.17-2.492-1.357-1.053 2.267-2.209 5.564.23 7.388.398.344.909.612 1.45.565zm-14.088-1.709c.306-1.23 3.66.842 1.814-1.26-1.012-1.978-2.482-4.06-5.033-3.208-.753.78 2.24 2.902 1.149.777.799-.368 2.087 1.298 1.885 1.833-1.695.354.13 2.189.185 1.859zm15.592-3.975c-.363.738-.17 1.516 0 0zm1.304-4.012c-1.176-.91-3.913-3.136-4.125-3.203-.64.89 1.848 3.285 3.457 3.265l.257.015zm.28-.912c-.546-.594-1.039.17 0 0zm1.01-.214c.7-.203 3.548-2.829 1.996-1.916-.633 1.245-4.414 1.124-1.997 1.916zm1.309-1.22c1.666-1.856.722.183 0 0zm-3.851.832c-2.071-1.263-1.96-4.023-3.324-5.89-1.462-1.628-3.138-3.174-3.905-5.302-1.039-1.533-.66-4.624-1.468-5.453-.708 2.284.452 4.834 1.452 6.9 1.545 2.4 3.415 4.48 4.452 7.172.641 1.054 1.764 2.156 2.793 2.573zm1.806-.633c1.375-.784 3.342-1.37 3.825-3.197.527-1.158-1.624 1.241-2.129 1.439-1.017.56-5.003 2.096-1.696 1.758zm-1.949-.042c-.841-.865-1.437-.164 0 0zm1.774-1.251c1.276-.124 2.795-2.455.575-1.025-.586.104-2.367 1.325-.575 1.025zm-1.71-.519c-.731-.885-.891-.606 0 0zm1.624-.504c.561-.209 3.219-1.654 1.293-.93 2.865-.511-4.297.844-1.293.93zm-2.218-.534c-1.204-1.083.953 1.206 0 0zm.254-.052c-.316-.82-.526-.177 0 0zm1.482-.138c-.586-1.057-2.231-.133-.49-.027-.099-.064.976.223.49.027zm8.162-.211c1.015-.016 3.24-1.982.891-1.15-.023.547-1.23.606-.891 1.15zm-7.473-.375c2.88-.446 4.394-3.441 5.267-5.924 1.134-3.526.041-7.35-1.677-10.494-1.795-2.91-4.85-5.65-8.506-5.28-1.804.029-4.665 1.503-4.289 3.188 1.353-.964 2.944-2.736 4.968-2.774 2.875.85 5.504 2.756 6.95 5.44 1.833 3.402 2.957 7.602 1.352 11.306-.85 2.073-2.477 4.116-4.747 4.612-.068.255.624-.04.682-.074zm7.677-.938c-.706-.738-.423.813 0 0zm.34-.151c-.093-.994-1.12.431 0 0zm-3.357-.84c-.016-.342-1.08 1.518 0 0zm3.635.643c1.439-.981 2.644.2 3.252-1.149-.876-.775-2.755.425-3.406.95zm2.955-.074c.59-.587-1.493.281 0 0zm-11.664-.124c-1.27-.098-.998.228 0 0zm-1.652-.236c-1.075-.71-1.559-.701-.144.03l.221.059zm10.041-2.542c1.601-2.585 3.779-5.21 3.601-8.436.979.679-.705 3.558-.363 3.536.282-1.488.754.759.92-.816.935-2.903.485-6.114-.624-8.89.86.966-.486 1.621-.39 1.587-.056 1.984.557 4.169-.372 5.945-.445 2.083-1.772 4.097-2.618 5.811 1.58-1.009-2.081 3.814-.154 1.264zm-1.627-.093c1.238-1.726 2.322-5.079 2.566-6.261-.195 1.378-.498 3.908.49 1.292 2.195-4.593 1.98-10.983-2.192-14.403-4.283-3.405-10.769-1.701-14.26 2.042 1.236-.015 3.652-1.31 5.465-.986 2.817.045 5.873 1.464 7.247 3.903-2.001-2.43-5.148-3.914-8.316-3.64 2.07 1.792 5.086 2.59 6.283 5.278 1.644 2.525 2.308 5.55 2.529 8.518 1.038.965.513-2.253.895-2.963.379-4.003.438-8.326-1.594-11.917 2.2 2.914 2.204 6.872 2.07 10.378-.188 2.874-.516 5.768-1.59 8.46 1.198-1.601-.058 1.136.231.589l.176-.29zm2.82-.45c1.028-1.697-.968 1.28 0 0zm1.431-2.247c.764-.856 1.328-2.57.256-.712-.39.569-1.23 2.255-.256.712zm-2.24-.118c.446-1.154-.768 1.312 0 0zm-11.609-.375c-.115-1.495-.091 1.427 0 0zm14.067-.538c.7-1.34-.722.535 0 0zm-16.88.053c-.744-1.2-.767.178 0 0zm2.714-.037c1.086-.156 1.51-2.307.097-1.34-.987-.028.033.91-.097 1.34zm-.33-.434c-.478-1.25-.02.528 0 0zm-1.171-1.03c.246-.472-.6-1.26-.22-.36zm1.494-.066c.866-1.053-.8-.425 0 0zm-3.37-.734c-.656-.611-.612.455 0 0zm5.54-.51c-.547-.59-.984.454 0 0zm-2.561-.434c2.334.322-1.282-1.5-1.413-1.485.43.463 1.609 1.712 1.413 1.485zm-.333-.084c-.156-.836-.286.547 0 0zm-2.19-1.878c.698-.8.132-.424-.185.15zm17.26-5.073c-.297-1.462.013.904 0 0z" style="fill:#eac3b7;stroke-width:1" transform="translate(792.207 -338.833)"/><path d="M-781.194 391.423c-2.474-1.452-.742-5.554-3.1-6.425-1.768-1.236-2.964-3.462-2.812-5.64.637-1.743-3.273-3.982-.288-4.47 2.892-.706 4.052 2.112 5.363 4.05.538.681 1.123 1.692.677.285 1.57-1.083 3.44 1.806 4.788 1.247-1.257-1.488.881-3.728 1.078-5.554.745-1.282 1.876-5.77 3.461-3.179 1.674 2.056 4.829 2.777 7.041 1.16 2.574-1.425 4.4-4.146 7.286-4.96.83.09 2.65.364 1.014-.587-2.783-.606-4.56 2.203-6.573 3.59-1.993 2.018-5.557 3.293-7.842 1.002-2.329-1.915-.894-5.462-3.282-7.375-3.077-3.129-4.55-7.911-3.301-12.18-.375-2.853.967-5.613 3.147-7.404 3.494-3.443 9.287-5.488 13.823-2.889 2.998 1.71 4.683 5.064 4.841 8.445.514 5.183-2.326 9.85-5.08 13.989-1.749 2.352-4.06 4.47-6.843 5.475-3.123 1.039-3.005-3.024-4.334-4.733-2.068-1.924-3.862-4.266-4.505-7.079-.625-1.947-.4-4.256-.374-6.088-1.778 4.055-.031 8.641 2.604 11.884 2.06 1.948 2.14 5.225 4.723 6.794 2.107 2.392 4.739.38 6.354-1.401 2.192-1.959 4.634-4.526 7.844-4.183-.598.307-1.888.377-.144.716 1.943-.033-.939-3.195-1.919-1.43-3.738 1.156-5.478 5.396-9.289 6.467-.884.482-3.513-.333-1.196-.254 2.214.14 3.748-1.532 5.169-2.968 2.466-2.875 4.62-6.04 6.454-9.351.566-.766 1.033-3.268 1.042-3.161-.16 3.486-2.726 6.139-4.444 8.976-.542.856-2.537 2.956-2.195 2.998 3.086-2.554 4.907-6.234 6.92-9.61 1.35-3.207.577-6.806-.525-9.963 2.486 4.01 2.2 9.623-.913 13.22-.295 1.662.265 3.042 1.637 3.823 1.24 2.1.303 4.381 1.408 6.428 1.724 3.345 1.849 7.263 1.919 10.956-.111 2.885-.022 5.804-.427 8.66-.872 2.301-.252-2.06-.208-2.843.357-5.476.432-11.177-1.508-16.391-.452-2.637-3.75-3.92-4.977-1.02-1.435 2.94-2.16 6.19-2.768 9.39-.195.937-.37 4.448-.02 1.813.747-4.135 1.698-8.359 3.836-12.016 2.092-1.585 2.657 2.547 2.473 4.002-.045 3.281-.504 6.68-1.987 9.631-.71 1.149-5.503 1.276-2.228 1.72 1.02.044 4.264.25 3.844.57-2.04.024-4.739-.668-6.358-.5 2.057.896 4.233 1.471 6.396 2.053-.345.276-3.352-.5-4.633-.976-.863-.266-3-1.38-1.462.024.622.641 3.63 2.625 1.277 1.407-1.708-1.215 2.268 2.482.28.772-1.425-1.608-3.28-4.211-5.566-3.868-.184 1.029.495 3.401-.099 1-.675-2.734-.37 1.413-.474 2.255-.254.975.352 4.113.145 3.597-1.003-1.947.05-5.398-.557-6.598-.53.787-.834 3.194-1.167 3.143.254-.99 1.37-3.667.641-3.55-.283 1.99-.887 4.207-2.453 5.308.324.778.68 3.11-.244 1.28-.447-2.015-.346.014-.581.668.056-.933-.82-3.95-1.79-2.328.318 1.03-.6 3.42-.222 1.075.852-1.103-1.513-5.288-1.464-2.403-.168.928-.468 4.068-1.31 3.383.387-1.293 1.262-4.188.9-4.464-.123 1.422-1.33 4.675-2.097 4.443.99-1.68 3.148-5.02.038-5.702-1.429-.745-3.728-3.086-4.923-2.402 1.53.68 3.606 1.442 3.1 3.681.11 2.093-2.426 4.257-3.948 2.355.02.689 3.175 3.577.907 2.21zm1.354-2.08c.179-.577-2.69.141-2.513-1.588-.944-2.747.2 3.096 2.513 1.588zm10.412-.288c1.518-.994 2.228-3.889 1.735-5.168-1.338 1.376-.75 4.185-2.803 5.24.279.18.76-.075 1.068-.072zm-10.75-.646c2.48.567 1.435-4.403 1.157-3.632.913 2.268-3.06 5.017-3.357 1.7-.504-2.194.155 3.61 2.2 1.932zm10.181-.266c.885-1.388 2.358-4.408.074-5.114-.551 1.613-.973 3.74-1.686 5.155.495.039 1.363.691 1.612-.04zm-2.107-.472c-.836-.567-.955-1.788-.63-.17.028.155 1.252.454.63.17zm.74-1.64c1.549-2.328-.985-4.602-2.787-5.793-.546-.907-4.017-1.25-1.969-.101.9.243 2.343 1.88.41 1.171-1.574-.474-5.865-.985-5.767-.532.845.673 3.2.746 4.567 1.47-.23.826-4.094-1.538-4.1-.13 1.128.642 2.93.447 3.676 1.506-.98-.464-4.074-1.14-1.46-.1 1.891 1.302 3.687 2.776 6.116 2.588.4.062 1.01.353 1.314-.08zm-5.469-6.389c.115-.648.773.347 0 0zm-3.237 6.426c1.498-1.321-1.916-3.127-2.108-3.247-.79.986-4.355.852-1.93 1.926 1.591-.086 2.704 1.801 4.038 1.32zm-2.318-1.13c.903-.906 1.301-1.141.367.006.02.087-1.195.23-.367-.006zm19.505-.268a32.17 32.17 0 0 1 2.241-14.778c-2.198 1.466-3.97 3.987-6.83 4.117-1.052 2.945-1.604 6.113-1.277 9.24 1.929.142 3.905.652 5.866 1.421zm.95-2.187c.025-4.128 1.493-8.063 2.69-11.938.587-.942 3.489-2.986.69-2.104-2.776 1.345-2.995 4.798-3.67 7.446a32.153 32.153 0 0 0-.445 8.411c.854.896.755-1.482.735-1.815zm.697 2.032c2.737.242 5.16-2.116 5.135-4.83.674-3.185 1.321-6.654.088-9.784-2.101-1.685-2.78 2.943-3.335 4.42-.237.89-1.091 3.51-.614 3.423.631-1.268 1.668-3.907 2.154-4.257-1.17 2.46-2.257 4.963-3.11 7.551.855-.783 2.71-3.286 2.838-3.06-1.166 1.407-2.519 2.775-3.032 4.58.635-.745 2.34-2.417.816-.715-.874.572-1.923 2.936.025 1.778 2.003-.518-.694.571-1.196.907zm.723-1.207c1.45-.053 3.464-2.343 3.695-2.456-.714 1.39-2.223 2.15-3.695 2.456zm1.381-5.58c.508-.876 2.712-2.982 1.013-1.043-.114.147-1.983 2.27-1.013 1.043zm-24.963 5.722c1.048-.124 3.445-2.303.908-1.193-.68.508-3.063.623-1.145-.19 1.207-.295 2.059-1.97.174-.966-1.291.692-2.025.242-1.438-.308-2.354-.414 1.63-4.276.845-1.701-1.654-.321.308 2.743.747 1.067 1.313.16 1.882 1.35.484 1.808 3.467-.424.148-3.295-.597-4.821-.776-1.475-5.241-1.55-3.048.57.997 1.023 1.374-.18.762-.674 1.296-.374.983 1.843-.21 1.644-.81 1.59.22 4.99 2.138 4.918l.38-.154zm15.064-1.743c-.05-2.484.314-4.996 1.257-7.293-1.117-.486-1.086 3.778-1.57 3.559-.024-1.031 1.086-3.372.52-3.667-.92 1.09-.906 4.353-1.35 4.456-.034-2.137 2.394-5.416-1.131-5.736-1.135 1.79-2.165 4.343-2.002 6.63-.116 1.594 3.363 4.25 3.402 1.55-.496-1.026.283-3.259.045-.948-.313.866.617 4.137.83 1.45zm-11.6.955c-.98-1.15-.693.59 0 0zm-3.48-2.005c.904-.195-.46-.288 0 0zm5.716-.066c-.623-.978-3.872-1.795-1.309-.655.364.191.91.826 1.31.655zm4.587-2.411c-.142-1.976 1.486-5.152 1.141-6.283a31.395 31.395 0 0 0-1.901 7.76c1.073 1.117.546-1.064.76-1.477zm-.967 1.15c.292-2.801 1.1-5.524 2.15-8.13-2.224 1.547-2.353 4.607-3.483 6.884-.358.93.515 1.458 1.333 1.246zm-11.072-1.906c-.18-.996-.62.404.003.01zm13.764-3.468c1.063-1.802-.588-1.482-.531.163-.303.799-.661 3.332 0 1.165.172-.445.35-.887.53-1.328zm5.236-1.265c3.663-1.322 5.667-5.514 9.669-6.107 1.362-.185 2.682 3.78 2.916 1.176-.694-2.335-3.969-2.411-5.577-.959-2.487 1.635-4.228 4.303-7.05 5.44-2.168.354-3.989-2.692-5.117-2.893.361 2.11 3.013 4.208 5.16 3.343zm11.226-5.963c-1.434-.382-1.433-.6-.008-.212.198-.07.647.813.008.212zm-12.378 3.136c-1.005-.388-3.295-2.84-2.004-.443.482.587 1.324.62 2.004.443zm-1.357-.412c-.96-.707 1.43.704 0 0zm2.341-.153c3.48-1.802 5.596-5.343 7.422-8.665.627-1 1.339-3.69 1.391-3.823-.547 3.807-2.975 6.981-5.014 10.096 2.904-2.766 4.255-6.701 6-10.228 1.893-4.706 1.152-11.064-3.376-14.002-4.422-2.663-10.394-.914-13.68 2.766 1.084-.109 3.476-1.257 5.193-1.125 2.908-.113 5.92 1.27 7.554 3.698-2.328-2.66-6.233-4.34-9.703-3.074 5.013.194 8.6 4.822 9.676 9.385.971 3.25.613 6.875-1.268 9.735-1.184 2.006-3.189 3.826-5.646 3.822-1.038-.313-2.16-2.985-1.593-.493.437 1.168 1.71 2.365 3.044 1.908zm-1.483-.813c-1.02-.48-1.1-1.208-.082-.262 2.782.674 4.712-2.172 6.088-4.141 2.69-4.47 2.725-9.9 2.713-14.946-.06-1.546-1.492-4.812-1.4-5.031 2.292 3.96 1.628 8.728 1.345 13.081-.511 4.498-2.803 9.168-6.998 11.242-.528.2-1.128.258-1.666.057zm1.88-1.185c4.498-2.47 6.474-8.406 4.677-13.155-1.09-4.359-4.63-8.72-9.393-8.947-2.67-.096-5.37 1.71-5.813 4.442-.556 2.557.804-1.335 1.744-1.762 1.536-1.719 4.15-2.655 6.224-1.298 4.515 2.155 6.79 7.337 6.867 12.134.013 2.95-1.356 5.941-3.688 7.72-.761.857-4.883.007-2.502 1.093.621.193 1.332.13 1.884-.226zm-.317-1.973c2.716-1.244 4.212-4.51 3.45-7.365-1.441-1.441-4.171-.66-5.693-.785-2.194-.443 1.007-1.182 1.273-1.276-1.761-.68-3.58-1.577-4.738-2.947.133 1.367 4.068 2.955 1.249 1.709-.866-1.224-2.303-2.162-2.665.032-.497.835.71-1.907-.275-.396-1.033 1.984.473 2.67 2.065 2.719-.285.663-3.001.242-1.37 1.757.943.36 1.742-.212.427.487 1.122-.596 2.889.514.994.927-2.22 1.07.603 3.902 2.028 4.625.92.65 2.196 1.194 3.255.513zm-2.717-1.207c.994-.683 2.026.234 0 0zm-.834-.667c-.513-.554 2.447.542 2.902-.532.047.372-2.102 1.17-2.902.532zm.136-.882c-1.43-.671.114-4.02-.59-4.015 1.004 1.255-.598 5.089 2.181 3.196-.291.41-1.059 1.318-1.59.82zm2.964-2.597c-1.569-.702-.47-1.603.66-1.377 2.42-.746.602 1.71-.66 1.377zm-.666-1.455c.65-.39 3.535-.572 1.09.026-.358.078-.738.088-1.09-.026zm-5.927-.732c1.94-.373 1.94-.03 0 0zm15.987 6.026c1.176-.392 1.512-3.74.343-1.299-.468.793-2.995 3.911-.343 1.299zm.787.331c1.41-.546-.744-1.152-.858.12-.942.65.675-.052.858-.12zm-16.366-.791c-1.775-1.647-2.326-5.586-2.763-6.76-.345 2.547 1.261 4.97 2.776 6.889.672.852.057-.127-.013-.13zm8.552-6.37c-.742-.892-3.94-.266-1.343-.099.22.053 2.741.647 1.343.099zm9.273 34.714c1.733-3.342 1.583-7.263 1.486-10.92-.173-1.037-.129-2.537.125-.598.253 3.658.291 7.514-1.102 10.96-.13.156-.218.637-.51.558zm-24.025-.872c-.156-.305 1.816-.448 1.69-1.616.927-.974.36-4.236.478-4.01.81 1.762-.017 5.504-2.168 5.626zm22.995-2.42c-.946-.192-2.926-1.596-.957-.523.436.212 2.471.99.957.523z" style="fill:#5b686d;stroke-width:1" transform="translate(792.207 -338.833)"/><path d="M-781.29 391.285c-1.356-1.61-2.178-3.876-1.547-5.943-.865.17-1.394-.661-2.205-.749-.204-.63-.574-.861-1.033-1.309.044-.735-.814-1.073-.579-1.839-.662-.355-.708-1.052-.255-1.604-.474-.644.301-1.266-.34-1.787-.452-.827-1.25-1.545-1.471-2.444-.006-.872 1.213-.444 1.779-.594.926-.026 2.059-.326 2.635.632 1.152 1.588 2.103 3.346 3.427 4.802-.643-.38-1.515.669-.609.757-.124-.197-.11-.911.272-.087 1.467.215 2.882.772 4.332.984.74.644-.926.115-1.302.078-1.084-.232-2.146-.583-3.25-.713-.238.845.924.72 1.44 1.01.998.412 2.171.498 3.051 1.129-.598.081-1.315-.433-1.986-.495-.362-.024-1.901-.79-1.154-.126 1.29.562 2.542 1.184 3.579 2.153 1.126 1.012 2.713.858 4.098.939.738.62 1.259-.006 1.347-.78.155-.816.543-1.856-.281-2.434-1.35-1.738-3.178-3.316-5.413-3.655-.825.176.106 1.011.62 1.02.723.174 1.203.72 1.718 1.214-1.206-.053-2.435-.435-3.654-.593-.793-.666-1.654-1.361-2.622-1.723-.934.008-.18.916.35.45-.538.136-1.027-.38-.076-.3.46.626 1.414 1.144 1.899 1.444-.77-.132-1.65-.1-2.35-.38-.327-.36-.997-1.226-.168-1.409 1.12-.176 1.906.833 2.87 1.24.766.322 1.132.264 1.607.687.592-.431-.737-.793-.694-1.384.305-.594.896-.861.871-1.755.7-2.52 1.726-5.002 3.265-7.125.61.017.853.822 1.144 1.207 1.017 1.257 2.6 2.097 4.25 1.95.84.012 1.718-.074 2.374-.633 1.259-.667 2.334-1.562 3.382-2.515.682-.381 1.218-.962 1.816-1.456 1.058-.565 2.135-1.602 3.441-1.12.813.169 1.343.44.533-.42-.736-.514-1.817-.572-2.542-.099-.741.165-1.602.92-2.264 1.49-.687.652-1.556 1.162-2.114 1.802-1.507 1.09-3.028 2.557-5.03 2.308-1.549.18-2.806-.965-3.726-2.049-.203-.519-.514-.814-.566-1.327-.417-1.19.005-2.546-.759-3.644-1.342-1.756-2.95-3.358-3.793-5.447-1.034-2.36-1.58-5.094-.769-7.606.274-1.525-.133-3.168.596-4.613.893-1.946 2.576-3.4 4.184-4.755 2.953-2.156 6.863-3.366 10.464-2.355 2.227.766 4.131 2.407 5.332 4.416 1.134 2.395 1.415 5.102 1.226 7.719-.41 3.74-2.535 6.957-4.379 10.136-.67 1.217-1.637 2.22-2.62 3.186 2.448-2.521 3.657-5.907 5.29-8.957.865-1.968 1.5-4.062 1.413-6.233.002-2.95-.902-6.072-3.22-8.04-2.254-2.119-5.64-2.685-8.564-1.832-2.594.65-5.002 2.16-6.736 4.123 1.68-.734 3.56-1.34 5.424-1.499 2.942-.137 5.973 1.182 7.749 3.56a10.468 10.468 0 0 0-6.202-3.35c-1.173-.164-2.402-.056-3.51.374 2.359.096 4.595 1.192 6.166 2.944 2.622 2.46 3.685 6.093 4.099 9.561.159 2.61-.824 5.216-2.283 7.352-1.073 1.46-2.598 2.777-4.425 3.072-1.197.023-2.348-.846-2.333-2.108-.601 1.109.21 2.402 1.098 3.108.866 1.006 2.323.551 3.201-.199 1.843-1.36 3.245-3.243 4.537-5.114 1.291-1.898 2.32-3.985 2.933-6.201-.506 2.663-2.02 5.002-3.378 7.306-1.294 2.012-2.864 4-5.131 4.948-.875.473-1.978.675-2.91.364-1.016-.601-.995-2.027-1.516-3.006-.7-2.272-3.047-3.395-4.039-5.5a12.642 12.642 0 0 1-1.723-7.235c-.073-.847.15-1.799.156-2.563-.684 1.703-1.26 3.689-.79 5.573.471 3.09 2.263 5.77 4.294 8.07.782.814.953 1.933 1.25 2.963.711 1.21 1.91 2.058 2.968 2.942.85.473 1.924 1.279 2.862.557 2.844-1.758 4.85-4.686 7.91-6.11.987-.41 2.099-.303 3.108-.584-.437.582-1.294.357-1.93.478a5.827 5.827 0 0 1 2.184.603c.453-.894-.404-1.96-1.267-2.235-.518.553-1.462.511-2.143.837.386-.364 1.361-.593 1.881-.837-.298-.516-.628-.935-1.044-.083-.638.433-.884.954-1.37 1.148-2.84 1.885-4.807 5.126-8.231 6.067-.744-.038-1.65.182-2.205-.45 1.55.486 3.25.091 4.45-.998 2.342-1.563 3.756-4.037 5.431-6.224 1.383-1.973 2.744-4.008 3.673-6.239.13-.672.493-1.785.24-.46-.496 2.04-1.851 3.737-2.895 5.526-1.345 1.932-2.702 3.865-4.284 5.613 2.312-1.638 4.005-3.954 5.388-6.397 1.394-2.079 2.963-4.26 3.01-6.865.15-2.262-.442-4.476-1.115-6.615 1.092 1.74 1.459 3.975 1.505 6.04-.031 2.46-.974 4.838-2.519 6.736-.018.812.129 1.656-.326 2.382.457.726 1.546.718 1.96 1.54.285.5.49 1.122.124 1.644 1.031.762.901 2.21.342 3.22 1.872 2.688 2.384 6.056 2.702 9.248.11 4.34.093 8.697-.453 13.011-.88.18-.12-1.062-.224-1.602.49-5.102.682-10.314-.32-15.366-.543-2.137-1.095-4.537-2.838-6.013-1.133-.604-2.373.437-2.984 1.36-1.252 2.053-1.732 4.47-2.388 6.76-.469 2.159-.91 4.34-.866 6.56.534-3.266 1.169-6.562 2.294-9.693.62-1.548.958-3.399 2.332-4.471-.001.114-.966.9-1.038 1.472a47.387 47.387 0 0 0-2.256 7.88c.857-1.468 1.509-3.29 2.357-4.8-.806 1.788-1.54 3.85-2.417 5.7-.33.746-.445 1.55-.662 2.327.646-1.432 1.736-2.588 2.865-3.652-1.148 1.197-2.18 2.502-2.785 4.062-.536 1.134.47-.326.848-.617.893-.938-.454.573-.73.912-.243.259-1.182 1.729-.457 1.428.366-.093 2.006-.698 1.579-.33-.58.413-1.397.586-1.938.919 1.184.07 2.31.598 3.522.519 1.059.05 2.308.155 3.222.485-1.3-.134-2.652-.273-3.98-.294-1.193-.012-2.372-.807-3.548-.38 2.001.565 3.863 1.54 5.926 1.908.683.128 1.987.54.536.277-2.054-.238-4.022-.883-5.895-1.738-1.262-.488.188.47.487.844.702.733 1.478 1.38 2.391 1.834-.936-.135-1.668-.82-2.325-1.374-1.035-1.325-2.633-2.164-4.255-2.495-.048.875.207 1.843.285 2.632-.403-.858-.241-1.847-.623-2.7-.626-.055.183.978-.089 1.416-.204 2.06-.332 4.156.23 6.175-.28-.338-.347-1.322-.49-1.92-.239-1.8.136-3.612.019-5.405-.342-.44-.462 1.176-.69 1.576-.1.386-.676 2.106-.344.875.244-.993.698-1.999.634-3.028-.543.25-.456 1.296-.684 1.879-.297 1.374-.573 3.167-2.16 3.598-.275.41.22 1.299.413 1.84.751.866-.663.852-.583-.03-.17-.35-.281-2.127-.466-1.086-.175.525.387 1.789-.345 1.758-.069-.737.137-1.611-.1-2.265-.502-.15-1.361-1.686-1.375-.677-.114.98-.225 1.96-.316 2.942-.418-.26.089-1.392.027-2.008-.087-.581.545-1.492-.268-1.66-.656-.324-.809-1.072-.827-1.74-.507.106-.205 1.283-.482 1.81-.235 1.212-.563 2.403-.867 3.598-1.007.2.015-1.097-.011-1.603.325-1.267.687-2.542.775-3.85-.685.094-.187 1.236-.542 1.741-.294 1.35-1 2.565-1.748 3.712-.67-.027.532-1.037.535-1.453.656-1.24 1.247-2.575 1.238-4.003-1.706-.21-2.755-1.69-4.25-2.356-.773-.425-1.517-.898-2.392-1.088-.55-.585-.37.871.294.75.87.282 2.22.089 2.462 1.241.425 1.65.126 3.606-1.041 4.895-.944.554-2.24.16-2.712-.845-.446-.618.373 1.045.59 1.302.272.577 1.253 1.242 1.296 1.556-.494.072-.746-.034-1.004-.463zm1.251-1.842c1.14-.485.464-.554-.397-.312-1.288.176-2.027-1.292-2.178-2.361-.17-.706-.128 1.02.192 1.227.376.925 1.298 1.915 2.383 1.446zm10.624-.363c1.395-.634 1.44-2.422 1.852-3.713-.01-.545.717-1.546-.05-1.751-.776.126-.61 1.247-.866 1.851-.407 1.15-.637 2.569-1.628 3.347-1.043.072-.584.339.234.454.16.005.307-.138.458-.188zm-10.64-.682c.615-.25 1.115.463 1.193-.588.372-1.106.516-2.471-.118-3.5-.748-.537.298.915-.12 1.455-.312.966-.675 2.32-1.807 2.55-1.009-.29-1.678-1.444-1.405-2.481-.078-.72-.413.805-.18 1.115.337 1.084 1.23 1.982 2.437 1.449zm9.962-.076c.837-1.224 1.434-2.695 1.468-4.193-.308-.627-.856-1.408-1.637-1.336.04 1.693-.447 3.396-1.27 4.866-1.017.494-.379.362.423.632.353.056.81.558 1.016.03zm-1.823-.565c.046-.06-1.133-.42-.861-1.111-.012-1.016-.342.384-.03.705.145.326.54.61.891.406zm-8.393-1.524c.792-.28 1.125-1.524.634-2.131.267.756.108 1.022-.522.222-.422-.592-1.853-.632-1.396-1.604.337-.705-.979.289-1.32.365-.151.626-1.387.875-1.466.534.899-.43 1.762-.952 2.658-1.355.514-.568-.7-1.12-.267-1.663.244-.436-.74-1.15-.954-1.703-.665-.9-1.226-1.882-1.967-2.72-1.032.043-2.232-.083-3.164.06.515.678.938 1.518 1.54 2.076.49-.238 1.29-.718.638-1.036-.545-.87-.61.563.14.35-.18.492-1.19-.539-.54-.75.54-.095 1.243 1.239.482 1.225-.545.292-1.582.849-.957 1.554.013.561-.782 1.179.075 1.543.8.15-.299 1.233.65 1.382-.08.696.678.992.884 1.33-.134.868 1.082.517 1.52.999.836.247 1.785.339 2.313 1.143.248.257.698.326 1.019.18zm-1.847-1.398c.426-.21 1.121-1.63.617-.507.077.305-1.26 1.011-.617.507zm-3.161-2.179c.042-.393 1.17-.623 1.614-.94.617-.108 1.64-.95.52-1.069-.514.218-1.505.777-1.19-.229.495-.777.701.508 1.157.14.994-.088.77 1.12-.103 1.139-1.123.67.355.269.821-.043 1.205-.458.09.149-.48.36-.747.308-1.516.925-2.34.642zm1.451-1.864c.456-1.012-1.116-.003-.022.012zm-2.169.629c-.167-.412 1.545-.177.47-.848-.672 0-1.313-.409-.697-1.062.132-.555 1.546-.456.94-.996-.198-.856 1.124-.414.9.271-.273.425-1.65.015-.976.859.05.52 1.353 1.292.706 1.565-.403.075-1 .597-1.343.21zm1.332-2.752c.15-.812-1.044-.143-.117.126.082.035.086-.073.117-.126zm21.839 5.76c-.432-4.679.361-9.431 1.953-13.834.641-1.142-.057-.527-.664-.032-.9.638-1.597 1.492-2.555 2.06-.628.486-1.384.825-2.054 1.21-.832.026-1.629.092-1.632 1.107a20.779 20.779 0 0 0-1.026 6.371c.088.796-.42 1.809.368 2.348.091-.223.413-.296 1.096-.384.573.13.931.66 1.638.542 1.08-.033 1.951.766 2.928 1.042l-.052-.43zm.598.014c.655-.466.19-1.452.343-2.152.033-2.762.839-5.454 1.53-8.11.712-2.052 1.174-4.602 3.258-5.718 1.125-.235-.489-.457-.89-.24-.844.305-1.658.868-2.313 1.448-1.461 3.243-2.212 6.8-2.403 10.341.01 1.57-.054 3.142.05 4.71.182.033.284-.202.425-.279zm-8.555-1.553c-.907-1.46.61 1.336 0 0zm1.87-2.536c.155-.896-.161-1.2.066-1.77.284-1.567.76-3.104 1.207-4.62-.83-.016-.767 1.22-1.037 1.827-.24.91-.424 1.835-.621 2.753-.24-.635.235-1.499.31-2.216.145-.796.466-1.61.693-2.335-.805-.31-.776.993-1.029 1.513-.338 1.084-.488 2.213-.711 3.325-.033-1.692.603-3.37 1.046-4.936-.808-.19-1.695-.619-2.33-1.149-.627 1.415-1.247 2.832-1.76 4.293.264-1.548 1.172-2.99 1.556-4.479-.577-.911-.677.4-.875.859-.44 1.463-.777 2.959-.807 4.481-.102.843-.16 1.837-.028 2.603.121-.135.888.844 1.272 1.265.287.645 1.121.64 1.428.778.748.312.536-.939.6-1.485.084-.687-.076-1.549.085-2.127.113.929.006 2.137.066 3.174-.177.561 1.125 1.322.773.285.056-.679.068-1.36.096-2.04zm-11.706 2.19c-.83-.667-.914.173-.01.308-.005-.1.195-.247.01-.308zm4.615-1.996c-.413-.401.01.866.037.099zm2.403-3.566c.272-1.78.775-3.509 1.373-5.204-.394-.88-.59.85-.824 1.179-.714 2.178-1.286 4.412-1.49 6.7.834.954.714-.13.755-.87.038-.605.064-1.21.186-1.805zm-1.136 2.501c.307-2.823 1.084-5.584 2.151-8.212-.327-.86-.757.566-1.042.851-1.114 2.115-2.042 4.336-2.567 6.673-.27.446 1.085.426 1.406.758.085.094.039-.11.052-.07zm8.022-6.784c3.359-1.338 5.337-4.873 8.824-5.987 1.277-.223 2.477.656 2.877 1.853.366 1.096.747.27.81-.46.18-1.45-1.493-2.077-2.65-2.33-2.069-.134-3.632 1.53-5.107 2.745-1.577 1.295-2.934 3.032-4.917 3.695-1.672.135-2.946-1.279-4.126-2.277-.394-.142-1.34-1.743-1.121-.91.39 2.125 2.328 4.05 4.588 3.806.282-.01.558-.025.822-.135zm11.228-5.962c-.428-.303-1.838-.486-.603-.348.233-.117 1.333.778.603.348zm-12.567 3.168c1.29-.186-.227-.146-.675-.513-.704-.333-1.26-.917-1.667-1.574.024.859.225 2.104 1.317 2.111.338.078.688.043 1.025-.024zm1.482-2.563c3.067-1.63 4.88-5.015 5.344-8.376.21-2.22-.502-4.436-1.235-6.512-.943-2.783-3.077-5.107-5.652-6.478-2.1-1.167-4.73-.977-6.793.178-1.571 1.114-2.316 3.08-2.45 4.953.285-.613.487-1.43.97-2.012.976-1.538 2.597-2.436 4.229-3.129.644-.606 1.29.128 1.984.264 2.055.63 3.78 2 5.027 3.732 1.438 1.738 2.01 3.995 2.608 6.123.787 3.415-.114 7.308-2.777 9.693-1.1.994-2.942 1.762-4.268.776-.632-.76.212.754.617.806.729.348 1.694.402 2.396-.018zm-.14-2.078c1.457-.768 2.64-2.152 3.19-3.708.393-1.337.306-2.757.01-4.105-1.111-.29-2.187-.924-3.308-1.026-.757.064-1.435.443-.27.327.703.143 1.402.317 2.103.472-1.447-.063-2.926-.589-4.329-.064-.76.333-1.098-.935-.23-.864.845-.087 1.702-.082 2.551-.134-1.98-.703-4.15-1.466-5.423-3.233-.547-.803-.195.724.29.89.507.48 1.363 1.245.296.433-.521-.181-.795-1.564-1.2-1.187-.531.622-.367.51-.791.725-.771.277-.796.835-.656 1.578.14.417-.06 1.828.51 1.521.506-.206 1.51-.338 1.825.18.005.754-1.321.194-1.875.367-.688.25.436 1 .48 1.508.128.47 1.724-.55 1.132-.031-.567.086-1.626.565-.48.485.606-.15 1.524-.756 1.515.214-.008.53-.806.418-.956.684-.586-.409-.635.315-.82-.149-.12 1.803.982 3.424 2.487 4.328.885.657 1.87 1.384 3.035 1.128.346.054.61-.225.914-.34zm-2.892-1.176c-.375-.068 1.235-.072 1.3-.23-.33.289-.886.462-1.3.23zm-.722-.628c-1.075-.38-.298-.22.345-.034.846.154 1.854-.066 2.543-.576.745-.227-.81.717-1.21.662-.56.135-1.14.218-1.678-.052zm.011-.914c-.926-.079-.725-1.063-.487-1.687.38-.843.172-1.76-.363-2.481 1.165.66.678 2.15.41 3.19-.315.684.908 1.204 1.2.495.674-.256 1.202-.498.447.138-.521.045-.616.755-1.207.345zm2.93-2.698c-.356-.067-.417-.101-.64-.408.202-.076-.78-1.01.014-.69.901.36 1.722-.287 2.575-.417-.027.478-.298.458-.224.95-.312-.024-.3.064-.4.532-.407-.182-.432-.14-.725.114-.194-.215-.329.118-.6-.08zm-.526-1.328c-.959-.468.79.054 1.165-.186.625-.243 1.87-.556.545-.07-.537.202-1.137.454-1.71.256zm9.7 5.602c.879-.755 1.677-1.856 1.423-3.068a31.158 31.158 0 0 1-2.823 4.203c.47-.373.955-.73 1.4-1.135zm-14.819-.157c-1.496-1.783-2.618-3.915-2.89-6.25-.388-2.582-.319-5.257.284-7.802.27-.747.743-1.353 1.328-1.881-1.547 1.688-1.57 4.1-1.532 6.258.166-1.083.035-.322.345-1.14.278-1.107.426-.868.114.111-.666 2.523-.272 5.246.714 7.634.354.422.955 1.54 1.18 1.53-.74-1.319-.498-2.901-1.213-4.224-.825-1.52-.766-3.311-.242-4.92.603-2.185 1.547-4.32 3.179-5.939.94-.729.146-.813-.598-.447-1.322.666-2.252 2.072-2.704 3.415.54-.702.756-.9.104.049-.466.704-.57 1.562-.804 2.358.257-1.897.73-4.06 2.33-5.282 1.126-.698-.381.05-.786.287-1.747 1.15-2.58 3.262-2.522 5.305-.318 4.052.896 8.372 3.889 11.23.207.054-.197-.246-.176-.292zm10.144-6.907c-.455-2.601-1.472-5.151-3.08-7.255-.956-1.095-2.119-1.971-3.477-2.506-.22.717.702 1.242 1.174 1.685 1.498.886 2.712 2.202 3.352 3.832.879 1.798 1.815 3.608 2.065 5.622.028-.463.075-.922-.034-1.378zm-1.62-.818c-1.679-.72-3.563-1.243-4.706-2.78-.596-.684-1.18-1.473-1.458-2.328.93 2.03 2.792 3.383 4.765 4.304.75.32 1.569.91 2.34.911-.582-.96-1.688-1.499-2.476-2.3-1.573-1.61-3.06-3.53-3.49-5.785.135-.842-.245-1.295-1.084-1.399-.743-.42-.997.723-1.175 1.25-.516 2.468.966 4.998 3.048 6.28.969.673-.44-.15-.758-.412-1.683-1.31-2.755-3.493-2.493-5.632.113-.623-.9.73-1.138 1.06-.485.68.085 1.544.38 2.205 2.043 2.97 5.657 4.265 9.038 4.99.248.013-.67-.289-.792-.364zm.425-1.159c-.826-1.115-1.932-2.019-2.602-3.26.616.722 1.18 1.5 1.886 2.136-.52-1.261-.861-2.662-1.957-3.586-.843-.926-2.094-1.444-2.758-2.546.301 2.408 1.96 4.377 3.656 5.99.674.51 1.37 1.258 2.019 1.633l-.244-.367zm8.747 35.946c.896-1.747.906-3.785 1.147-5.696.05-1.937.099-3.914-.066-5.82.346 1.08.185 2.54.22 3.775.05 2.328-.156 4.694-.781 6.939-.034.344-.93 1.858-.764 1.299l.244-.497zm-24.536-.318c-.474-.286.879.29 1.063-.264 1.148-1.434 1.63-3.337 1.248-5.138.409.793.205 1.748.19 2.6-.423 1.068-.748 2.576-1.966 2.947-.212.01-.379.023-.535-.145zm19.579-2.715c-.407-.34-1.22-1.518-.352-.516.24.275 1.322 1.563.482.66l-.085-.094zm2.28-.176c-1.267-.637-.107-.174.485.168.848.448-.331-.045-.485-.168zm-2.153-3.442c1.576-.122 3.39-.98 3.61-2.72.902-3.027 1.452-6.21 1.253-9.369-.023-1.127-.629-2.345-1.055-3.206 1.346 1.7 1.311 4.112 1.145 6.204-.184 2.545-.61 5.135-1.644 7.476-.87 1.343-2.629 1.728-4.136 1.742l.827-.127zm0-1.224c1.181-.426 2.487-.91 3.12-2.1.516-.7-.39.848-.687.955-.663.694-1.639.876-2.502 1.207zm1.176-5.523c.442-.527.828-1.114 1.361-1.554-.402.46-1.184 1.455-1.363 1.557zm-9.135-9.026c-.49-.092-1.466-.892-1.36-1.037.644.62 1.534 1.185 2.434.728 1.935-.502 3.164-2.2 4.327-3.697 1.343-1.89 1.93-4.195 2.468-6.418.333-2.421.615-4.85.502-7.298.156-2.552-.572-5.086-1.761-7.328 1.564 2.268 1.992 5.089 1.997 7.795-.037 3.941-.22 8.03-1.976 11.639-.992 1.845-2.46 3.42-4.047 4.771-.808.37-1.671.956-2.584.845z" style="fill:#090a0d;stroke-width:1" transform="translate(792.207 -338.833)"/></svg>