<svg xmlns="http://www.w3.org/2000/svg" viewBox="0 0 52.917 52.917" height="200" width="200"><path d="M-890.002 565.385c-1.58-.467 3.245-.03 1.04-.704-1.996-1.675-.937-4.524-1.208-6.764.02-10.295-.08-20.59-.017-30.886.32-2.719 3.608-2.72 5.69-2.504 3.258.07 6.535-.216 9.778.155 1.414 1.1 1.295 3.16 2.705 4.3 1.845-.186 3.792-1.384 5.867-1.149 1.181-2 3.311-.003 3.812 1.494 1.985 2.088 1.184 5.234.535 7.7-.69 1.722-1.593 4.327.305 5.604 1.887 1.245 4.412 1.312 5.91 3.139 1.264 1.659 1.845 3.722 2.69 5.61.573 1.732 1.247 3.917.08 5.536-1.17 1.77-4.503-.354-3.618 2.498.245 1.883-.993 5.61 1.788 5.253-.6 1.032 2.269.207 3.138.5.967.001 1.889.09.402.122-9.133.346-18.275.052-27.412.147-3.828.003-7.657 0-11.485-.05zm14.525-.513c-4.07-.099-8.155.22-12.215-.125-.862-.059-2.21-2.395-1.221-.62 1.85 1.589 4.427.656 6.621.878 2.272-.02 4.552.126 6.815-.133zm12.485.096c-.887-.215-4.735.016-2.003.068.668.01 1.34.024 2.003-.068zm7.786.002c-1.172-.11-3.792-.076-4.062-.003 1.352.092 2.71.086 4.062.003zm-16.31-.052c-1.616-.029-1.214.063 0 0zm3.757-.001c-1.052-.057-4.37.049-1.516.02.366-.002 3.697.013 1.516-.02zm-1.09-.43c2.67.757 1.926-2.388 1.885-3.983-.788-1.48-3.37.232-4.331-1.686-.724-.878-2.056-2.568-2.133-.406.103 2.039.174 4.165-.292 6.08 1.591.11 3.253-.057 4.871-.005zm2.639-.506c.346-1.76 2.933.263 4.216-.303 1.157.155 4.181-.75 3.842-1.444-2.235 1.39-4.976.866-7.457.805-1.51-1.485.236-4.088-.168-6.035.548-.929-1.213-3.223-.898-1.263.243 2.858.205 5.724.315 8.583.009.352.48-.824.15-.343zm6.49.436c.838.07 3.411-1.53 1.499-1.207-1.111 1.135-4.688.011-4.641 1.15 1.015.368 2.102.052 3.143.057zm-3.871-.31c-.638-1.039-2.799.239-.807.156.222-.042.86.305.807-.156zm-12.251-.68c2.166-1.76.355-4.8 1.136-7.057-.483-1.232-1.691-2.611-.745-3.61-.95-1.184-4.697.35-3.366-2.341 1.157-2.23 4.61 1.446 4.027-1.66-.159-2.22.282-4.823-.304-6.821-.986 1.839.37 4.149-.785 5.979-2.008 1.138-4.405.198-6.583.506-2.099.041-4.698.392-5.963-1.307.114 5.058.037 10.135.077 15.2 1.35 2.35 4.5.798 6.663 1.254 1.93-.098 3.968.166 5.843-.142zm-7.087-1.22c-2.082-1.836 2.583-3.784 2.816-1.196.132 1.43-1.845 1.975-2.816 1.196zm.857.023c-1.378-.524-.402.25.394-.006zm3.774.038c-2.55-1.38 1.974-4.097 2.292-1.308.147 1.214-1.371 1.672-2.292 1.308zm-8.205-.05c-2.702-.998 1.404-4.15 2.048-1.51.324 1.189-1.058 1.989-2.048 1.51zm1.321-.22c.06-.545.385-1.993.49-.538.783-2.736-4.47-1.02-1.873.582.457.11.924-.01 1.383-.044zm-.064-.802c-.22-1.736.486 1.008 0 0zm-1.448.076c-.543-2.035 2.36-.036.42-.038 1.5-.897-.82-1.293-.42.038zm-.624-2.812c-1.42-2.37 3.365-3.947 2.987-.853-.242 1.347-2.022 1.24-2.987.853zm1.231-.105c.582-.675-1.555-1.502.116-1.365-1.329-.873-1.725.623-.458 1.07-.04.385.172.302.342.295zm.805-.264c.338-1.809-1.162.707-.138.247zm.591-.547c1.198-1.61-3.01-1.742-1.15-1.122.783-.383 1.03 1.484 1.15 1.122zm1.683 1.017c-1.796-1.89 2.192-4.36 2.793-1.669.397 1.782-1.532 2.092-2.793 1.67zm.965-.517c-2.273-1.19 1.68-2.504 1.287-.9-1.005.327-1.2 1.835.105.958 1.508-2.165-3.304-3.332-2.481-.43.047.57.759 1.15 1.089.372zm4.136.538c-2.739-.162 1.215-3.863 1.806-1.089.587 1.18-1.077 1.283-1.806 1.089zm-.06-3.39c-2.4.116-.265-3.33 1.145-1.485-.655-1.139 1.835.875.209 1.456-.437.148-.909.109-1.354.03zm.35-1.028c.478-1.673-1.385.583 0 0zm-9.668.819c-1.39-2.478 3.613-3.289 2.777-.328-.52.991-1.936.494-2.777.328zm1.676-.057c-2.005-.036.293.106 0 0zm2.462-.003c-1.74-2.56 4.725-2.187 2.418.098-.653.66-1.828.409-2.418-.098zm2.265.012c1.447-1.69-2.508.26-2.098-1.515-.982 1.662 1.034 1.698 2.098 1.515zm-1.258-1.002c-.155-.298-.48-.532-.337.068l.182.027zm.872-.16c-.525-.86-.214.557 0 0zm.396.042c-.248-1.363-.335.744 0 0zm.343-.078c.208-.75-.962-.17 0 0zm-6.999-1.688c-.777-1.75 4.463-1.454 2.652.109-.811.356-1.85.097-2.652-.11zm2.332-.101c.324-1.895-4.004.213-.948.018l.948-.018zm1.956.13c-.362-1.138 1.513-1.914 1.455-2.825.994.105.366 2.345 1.651 2.286-.268 1.327-2.206.512-3.106.54zm2.742-.172c-.014-1.812-4.44.263-1.344.093.449.01.92.12 1.344-.093zm-5.74-1.017c-.5-1.58 1.677.292 0 0zm-.112-.918c-1.52-1.187 2.031-1.025.298.115l-.298-.115zm12.557 10.243c.042-.846-.088-4.728-.098-1.989-.003 1.662-.006 3.324-.007 4.986.26-.982.048-2 .106-2.997zm-15.7 1.694c-.161-.583-.03 1.396 0 0zm28.361-2.395c3.013.249-1.825-1.176-1.826-.034.602.095 1.219.017 1.826.034zm-7.432-.555c1.598-.422.781-2.53.382-2.668 1.827.67-3.183-2.041-1.989.414-.676.94-.438 3.283 1.607 2.254zm6.689-.23c-.598-.278.037-1.03-.498.06.144.133.38.078.498-.06zm-27.635-3.733c-.09-9.34-.036-18.68-.016-28.02.457-2.463 3.388-1.963 5.247-1.912 3.11-.01 6.269-.233 9.351.136.922.484 1.285 3.552.984 1.029-.96-1.955-3.498-1.253-5.246-1.342-2.944.016-5.891-.089-8.831.116-2.758 1.142-1.336 4.653-1.67 6.93l.043 24.878c.555-.394-.089-1.26.138-1.815zm35.403 1.785c2.246-1.03 1.365-3.94.561-5.676-.973-2.488-1.808-5.656-4.625-6.627-2.267-.999-1.94 2.25-3.693 2.593-1.006-.138-2.178.46-.734.966 1.575-.224 1.91 1.256 3.31.977 1.097.28 1.368 2.73 1.6 2.56.052-1.633-1.775-3.695-.541-5.035.396.81.237 3.02.492.84-.343-1.115 1.599-2.125.556-.648-.81 1.837.641 3.434 1.242 4.842.82.008-.405.658.882.698 1.56.325-2.05.2.062.806 2.146.797-2.275-.351-.343.522 1.899 1.244-1.003-.189-1.716-.15-1.905-.86-.929 2.247-.656 3.016 1.048.66 2.44.58 3.603.316zm-.851-1.703c-.612-.459 1.373.515 0 0zm-.455-1.653c-.305-.488 1.234.508 0 0zm-18.087 2.652c2.156-1.545-2.133.093 0 0zm14.689-.256c1.278-.408-.223-3.75.229-1.39.135.216-.73 1.768-.229 1.39zm-5.202-.02c1.052-1.21-2.96.008-.33.075l.33-.075zm-4.48-.254c1.392-.058-.594-.132 0 0zm1.318-.19c-.022-1.342-1.475-1.632-.984-3.328-.658-.272-1.415 3.914.707 3.27-.077.061.532.528.277.058zm-6.91-.08c-.496-1.047-.913.07 0 0zm3.018-.075c-.672-.981-.013.639 0 0zm1.76-.279c-.286-1.884 1.296-3.817.033-5.58.241-1.57.76-3.485 2.253-4.283 1.02-.407 1.783-2.048 2.377-.47 2.433 1.516 2.91-2.253 1.775-3.715-.438-1.132-1.09 1.961-2.113 2.19-2.636 2.197-7.025-.014-7.22-3.339-.064-.74-1.151-4.228-1.118-1.869-.053 4.8-.02 9.6-.039 14.4.546 1.472 2.914 3.3 4.05 2.666zm7.83-.082c-.844-.84-1.445.04 0 0zm-1.35-.069c-.914-.257-4.593.017-1.84.067.613-.013 1.231.018 1.84-.067zm3.835-1.078c-1.178-1.45-2.909-1.779-4.32-2.595.57.465 2.167 1.287.492 1.937-.66.193-3.413-1.488-1.994-.09 1.599.876 4.629 2.365 5.868 1.187l-.046-.44zm-4.652-.445c-1.281-.77 1.844.774 0 0zm-11.337.971c1.003-.83-1.763-.621-.15.079-.005.284.278.049.15-.079zm16.265-1.483c1.023-1.303-.634-4.825-1.57-2.985.65.277 1.192.356.186.624.246.734 1.052 2.62 1.384 2.361zm-17.562-.821c-.634-.63-3.666-.614-1.654.027.548.005 1.118.141 1.654-.027zm10.788-1.255c.43-.972-.571-.188 0 0zm.454-.118c-.052-.566-.447.383 0 0zm-8.755-6.933c-.032-2.63.084-5.263-.099-7.89 0 4.938-.003 9.876-.004 14.814.226-2.302.044-4.617.103-6.924zm7.726 5.094c.901-.064 3.91-.003 3.449-.132-1.723-.024-5.092-.064-5.848.204.8.013 1.599-.123 2.4-.072zm-1.893-.805c-.156-.58 1.04-.342.648-1.19.366.728.375 2.043 1.595 1.411 1.804.62 1.636-1.9.043-1.164-.83-.3-.702-2.789-1.85-1.147-.556-.095-1.272 3.273-.436 2.09zm4.409-.396c-.027-1.847-.977.31-.035.48l.026-.187zm-21.905-.793c-.26-1.113.338-.584-.014-.987-1.09-1.777-2.85 2.102.014.987zm2.381-.002c.71-2.677-3.102.353-.161.044l.111-.03zm3.412-.097c1.391-2.668-4.109-1.519-1.75.174.58-.074 1.21.121 1.75-.174zm2.901.114c1.42-2.379-3.765-2.176-2.144.039.715.013 1.433.057 2.144-.039zm-.667-1.607c-1.432.14.05-.484.05.021zm15.548 1.259c1.16-.138 2.567-3.862.8-2.474-.052.727-3.187 3.056-.8 2.474zm-2.557-.282c1.09-.554 2.494-.462 2.884-2.042.511-1.21-.379-1.413-.322-.087-.463 1.39-3.164 2.16-3.295.171-1.153.276.256 1.68.733 1.958zm-22.446-2.055c-.158-2.455-1.653 2.205-.003.84.047-.28-.012-.56.003-.84zm.722.88c.093-.585-.104-1.836.132-1.574.271-.984-.642-2.894-.509-.845.177.685-.629 2.187.377 2.42zm2.67-1.93c.492-1.09-.66-2.674-.554-.714-.099.756-.035 3.867.596 1.958-.01-.412-.165-.836-.042-1.244zm-.385.62c.032-2.5.017 2.497 0 0zm2.954-1.645c.143-.658-.11-3.333-.162-1.275.07.846-.137 3.347.152 3.209.019-.645-.007-1.29.01-1.934zm.713 2.014c.315-.988-.55-2.966-.571-.884-.11.35.21 2.469.571.884zm2.272-2.591c-.128-.676.328-4.049-.549-2.739-.045 1.872-.003 3.744-.025 5.616-.04-.933.208-4.77.175-2-.442.7.301 3.16.425 1.264-.016-.714-.043-1.427-.026-2.141zm-.465-1.688c-.04-.84.124-1.544.024-.263zm11.75 3.662c2.723-.754 4.567-4.413 2.891-6.863-1.124 1.463-1.543-.93-1.602-1.683-1.21-.907-3.175-2.172-2.29-3.95-1.258 1.974-4.462 2.108-5.51 3.747.32 2.074 1.181 4.025 1.586 6.08.7 1.94 2.88 3.31 4.924 2.669zm-2.22-1.064c-1.197.195-1.823-1.704-.274-.962.934-.57 2.38-.545.643.004-2.526.65 1.86 1.479 1.8-.415.794-1.301-1.967-.99-.236-1.63 1.819 1.265-.172 3.505-1.933 3.003zm-1.979-2.067c-.522-.483-1.169-2.172-.164-1.165.506-.46.97-1.057.406.131-.684.82 1.631.656.279.348 1.741-.87.58 1.825-.52.686zm3.431-1.199c-.84-1.53 1.047-.518 0 0zm1.21-.052c.078-1.046.672.213 0 0zm-.573-.124c-.303-.732.637-.71 0 0zm-1.807-.26c-1.878-1.996 2.28-.748 0 0zm-3.167-.817c.206-1.003.877.597 0 0zm-.668-1.1c.201-1.696 2.006-.05 0 0zm3.417-.042c-.068-1.128 1.097.42 0 0zm-.506-1.29c.246-1.496 3.127.526.698.14-.237.02-.505.025-.698-.14zm-16.596 2.242c.445-1.194-.668-2.369-.61-.518-.301 1.011.643 3.272.593 1l.008-.24.01-.242zm2.515.52c-.118-1.471.508-3.198-.212-4.505-.184 1.219-.239-1.025-.183.427.16.977-.562 3.967.395 4.077zm2.63-.514c-.075-1.628-.306 1.893.001.06zm18.572-.33c1.476-1.569-1.845-3.282-1.29-1.723 1.67-.724 1.517 1.151.967 1.916l.126-.03.197-.164zm-.359-2.07c-1.467-.528 1.182.3 0 0zm-18.25-1.3c-.2-.53.007 3.577.056.998.007-.333.001-.669-.056-.998zm.503 2.028c.94-.652-.343-3.822-.237-1.48.132.295-.323 1.716.237 1.48zm-5.617-.96c-.2-2.012-.93 1.533.002.151 0-.05 0-.1-.002-.151zm7.861.291c1.361-1.505-1.363-1.032 0 0zm-.18-2.375c-.085-1.952.525 1.981.516-.16-.256-2.758-.918.94-.533.678l.008-.222.009-.296zm14.444.758c1.146-1.049-2.093-.092-.045-.415-.06.163-.44.644.045.415zm2.201-2.858c-.68-1.445.091.671 0 0zm-13.186-3.87c-.284-1.531-4.09-.52-1.415-.891.616-.498 1.608 1.624 1.415.891zm-3.474-.048c-2.147-.336-5.001.755-6.604-.646-.777-.571-3.59.118-1.37-.065 1.672.032 3.08 1.42 4.833.802 1.047.007 2.098.027 3.141-.091zm-2.354-.959c-.657-.283-2.973.102-1.014.07.33-.14.71.155 1.014-.07z" style="fill:#94cde1;stroke-width:1" transform="translate(897.478 -517.494)"/><path d="M-889.014 565.386c-.46-.126-1.576.194-1.661-.216l3.2-.087c-.677-.19-1.524-.187-1.96-.87-.923-.977-.584-2.462-.714-3.692l.01-33.828c.331-1.02 1.119-1.824 2.176-2.072 2.208-.155 4.466-.037 6.693-.087 1.984.045 3.99-.12 5.961.058 1.254.256 2.051 1.578 1.898 2.825-.219 1.24.36.085.871.322-.462.781.527 1.68 1.294 1.254 1.578-.447 3.188-1.55 4.87-1.016.72.786.222-.703.884-.793.963-.564 2.357.072 2.474 1.212-.354.64.846.684 1.05 1.328 1.31 1.96.908 4.486.287 6.618-.333.79-.408 1.648-.593 2.46-.53.446-.546 1.03-.38 1.678l.462 1.942c.588-.089 1.087.236 1.373.634.727-.158.972.548 1.393.778 1.841.239 3.702 1.18 4.485 2.949 1.155 2.423 2.398 4.907 2.739 7.596.137 1.278-.317 2.795-1.662 3.221-.868.33-1.8.184-2.694.049.183 2.298.064 4.61.112 6.913.502.122 1.747-.312 1.773.178-.971.191-2.133.035-3.178.093l-17.229.065c-1.05.35.678.137 1.054.198 7.114.037 14.235.013 21.345.087 1.122.153-.632.177-1.034.209-11.608-.007-23.217.061-34.825.006-.158-.005-.318-.006-.474-.013zm12.983-.357c1.554-.09 2.507-1.7 2.324-3.155.023-1.726-.037-3.45-.09-5.174-.462.259-.06 1.368-.177 1.968-.065 1.565.255 3.185-.14 4.71-.42.968-1.418 1.682-2.504 1.482-3.366-.023-6.74.11-10.101-.012-1.372.023-2.721-1.047-2.706-2.482-.122-4.062-.027-8.138-.065-12.205l-.03-23.4a2.483 2.483 0 0 1 2.768-1.688l11.22.035a2.23 2.23 0 0 1 1.58 2.503c-.191.809.357 1.432.234.283.053-1.029-.148-2.235-1.155-2.746-1.252-.538-2.675-.169-4.002-.28-2.918.019-5.848-.053-8.757.023-1.199.174-2.267 1.239-2.093 2.496.027 11.703.003 23.41.062 35.11.012 1.333 1.156 2.28 2.39 2.51 1.736.204 3.525.035 5.281.093 1.984-.047 3.988.103 5.96-.07zm9.189-1.147c-.084-1.362-.083-2.727-.13-4.09-.988.207-2.1.252-3.066-.117-.808-.361-1.554-.973-2.01-1.712-.023-.818-.843-.664-1.363-1.049-.05 2.044.07 4.2-.026 6.268-.172.532-.442 1.065-.897 1.407l7.532-.037-.04-.67zm1.104.362c.64-.752-.242-.63-.458-1.13 2.029.704 4.255.637 6.354.333.8-.233 1.702-.45 2.122-1.223.258.185.833 1.727.621.601-.167-.413-.652-1.95-.2-.797.19.55.662 1.857.542.546-.021-1.674.062-3.35-.087-5.02-.711-.255-1.347-.696-1.895-1.21-.522.53-1.053-.424-1.204-.893-.19-.43-1.121.04-1.645-.184-.5.137-1.715-.475-1.656.248.053 1.133-.047 2.284.1 3.405 1.008.197.47-.991.746-1.378.722-.418.729.82.266 1.04.31-.217.284-1.427-.274-.87.068.542-.3 1.427.559 1.157.314-.356.034-1.31.13-1.887.27-.938.216.62.164.981-.374.832.416 1.125.944.759.18-.775-.056-1.67.126-2.398.216.426.156 1.338.07 1.95-.402 1.048 1.221.553.533-.18-.889-.437.475-.231.293.455-.108.788-1.191.356-1.762.48-.623-.089-1.478.217-1.953-.123-.16-1.201-.005-2.487-.069-3.721-.723 0-1.447 0-2.17.002-.075 2.3-.122 4.62-.527 6.888-.193-.326.096-1.21.063-1.74.173-1.713.27-3.428.223-5.15-.542.32-1.147-1.167-1.011-.377.336 3.186.26 6.407.366 9.596-.037.288.81.179.689-.16zm1.533-1.142c-.662-.08-1.483-.106-2.005-.486.546-.076 1.212.358 1.84.293 1.336.106 2.71.088 4.036-.095.715-.077 1.351-.405 2.027-.613-1.038.954-2.61.8-3.927.973-.658-.013-1.316.002-1.97-.072zm1.558-.683c.145-.841.626.301 0 0zm-.793-2.821c.047-.248 1.054.159 1.643-.004h2.361c-.53.317-1.387.049-2.044.137-.596-.088-1.594.177-1.96-.133zm6.615 4.474c.19-.7-.844-.518-.85-1.309-1.56 1.28-3.73 1.023-5.627 1.124.121.851 1.09.51 1.704.596 1.59.046 3.182.055 4.773.071v-.482zm-6.673.105c-.093-.674-1.264-.307-1.814-.53-.585.802-.136.972.694.838.314-.12 1.36.292 1.12-.308zm-12.496-.67c.953-.24 1.361-1.295 1.192-2.208l-.041-5.67c-.364-.447-.425-.992-.91-1.388-.553-.5-.006-1.287.676-.998-.479-.391-.701-1.235-1.447-1.043-.78-.083-1.662.067-2.381-.158-.131-.494-.41-1.39.147-1.729.719.129.581-.837 1.304-.71.39-.046 1.24-.094 1.383.551.557-.332 1.48.776 1.26-.084l.002-14.862c-.596-.342-.163-1.324-.314-1.551-.81-.01-.236 1.153-.404 1.687-.015 3.972.082 7.964-.003 11.923-.256.912-1.227 1.28-2.1 1.128-3.119-.015-6.237.007-9.355-.034-.624-.406-1.049-1.04-.882-1.81-.062-6.56-.044-13.12-.068-19.68.272.856.041 1.845.125 2.75l.082 17.82c.366.582.949.942 1.646.782 3.168-.027 6.357.055 9.512-.04.798-.251 1.116-1.112.96-1.885-.034-4.216.02-8.443-.07-12.652.716-.491.244-.365-.355-.961-.662-.771-.298-1.834.383-2.452-.29.822.242 1.805 1.161 1.794.888.098-.538-.19-.624-.567-.42-.589-.423-1.542.168-1.958.33-.422.04-1.323.138-1.924.091-.935-.768-1.744-1.7-1.544-.578.117-1.536-.385-1.704.397-.365.722-1.388.266-2.04.405l-4.195.037c-.344-.554-.755-1.029-1.466-.902-.856.062-1.998-.242-2.4.761-.384.748-.07 1.68-.171 2.504-.015 10.98.02 21.96.111 32.94.182.883 1.007 1.6 1.94 1.392 3.417.08 6.844.072 10.256-.016-.052.103.2-.11.184-.045zm-6.139-1.067c-.604.08-1.339-.513-1.218-1.148-.17-.631.224-1.067.723-1.384.639.078 1.481-.202 2 .176.593.42.38 1.316.253 1.877-.452.59-1.09.526-1.758.479zm1.496-.429c.523-.406.32-1.395-.054-1.855-.562-.266-1.37-.19-1.968-.048-.68.266-.651 1.144-.474 1.692.396.719 1.146.547 1.836.525.33.067.457-.086.66-.314zm-1.958-.28c-.416-.042-.114-1.952-.117-1.092-.279.818.293 1.223 1.06 1.022.877.27.961-.544.794-1.182.093.29.39 1.25-.202 1.309-.51-.03-1.034.036-1.535-.057zm.51-.415c-.409-.507-.17-.37.237-.069.955.384.171-1.048.496-.65.477.785-.068.809-.733.719zm3.408.63c-.651-.465-.365-1.52.24-1.918.522-.235 1.342-.143 1.881-.011.614.37.412 1.06.438 1.662-.39.674-1.071.648-1.76.602-.39.062-.565-.022-.8-.335zm2.165-.026c.568-.52.383-1.651-.31-1.982.367.786.34.203-.415.069-.689-.14-1.318.117-1.58.787-.29.736.366 1.568 1.154 1.34.393-.053.897.183 1.151-.214zm-1.908-.058c-.368-.407-.297-1.5.478-1.304.812-.117.824-.06.326.494-.561 1.003.559-.693-.35-.405-.88-.111-.634 1.146-.116 1.423-.19.058-.228-.094-.338-.208zm1.216-.253c.385-.23.91-1.427.544-.444-.19.305-1.398 1.388-.678.58-.12.024.199-.137.134-.136zm-9.844.302c-.495-.407-.413-1.37-.006-1.826.541-.465 1.37-.1 2.031-.216.56.435.639 1.139.44 1.77-.343.927-1.413.463-2.164.573l-.3-.301zm2.146-.065c.554-.479.366-1.75-.35-1.881-.671.16-1.718-.26-1.96.626-.12.666.057 1.645.933 1.483.45-.082 1.074.204 1.377-.228zm-.311-.638c-.209-.85.207-.397.15.246-.252.051-.12-.087-.15-.246zm-1.093.12c.43-.238.928-.806.172-.998-.177-.184 1.042.239.456.738-.104.101-.636.44-.628.26zm-.377-.127c-.384-.507.643-1.253.006-.449-.046.035.168.659-.006.45zm-.52-2.651c-.674-.193.11-1.672-.154-.538.373 1.266.857-.673.832-.048-.396.689 1.482.675 1.265.111-.186-.728.755-.377.034.013.2.894.895-.284.588-.755.141-.663-.407-1.377-1.018-1.462-1.356.155.237-.381.594.216.79.45.48 1.389.589 2.141-.437.632-1.353.224-2.016.364-.236-.018-.496.066-.714-.042zm4.043-.11c-.3-.78.051-.86.183-.101.619.096 1.2.128 1.01-.675-.664.251-.953-.719-.542-1.102 1.165 0-.345-.041-.012.648.497.843.698-.155.677-.664.604-.337 1.247.39.746.88-.606.348-.812.145-.747.971.472-.1 1.593.175 1.411-.607.076-.631.41 1.087-.41.77-.748-.061-1.606.12-2.288-.087zm1.91-1.053c.628-.442-.442-1.195-.533-.537-.075.619-.174.884.534.537zm2.445 1.035c-.567-.626.377-.97.538-1.417.111-.69 1.165-.434 1.624-.313-.035.636.754.727.638 1.417-.295.794-1.369.326-2.026.45-.253-.049-.614.126-.774-.137zm2.411-.157c.723-.268-.387-1.303-.413-.562-.233.266-.442-.664-1.162-.304-.556-.159-1.177.854-.48.945.672-.054 1.422.12 2.055-.08zm-1.254-1.073c.574-.681-.821-.554-.307.059.102-.02.23.045.307-.059zm.908-.074c.27-.571-1.078-.622-.687.089.113.032.63.159.687-.09zm-6.545.081c-.216-.587.271-1.11.795-1.317.564-.077 1.366-.251 1.791.2.53.084.472 1.63.24 1.203.3-.748-.43-1.578-1.207-1.406-.805-.168-1.745.496-1.514 1.366.053.367-.177.246-.105-.046zm-4.011.052c-.417-.537.708-1.173.725-1.11-.523.15-.753 1.289-.725 1.11zm1.29.067c-1.273-.098-.388.083.155-.216-.107-.35.54.595.638-.152 0-.611-1.22-.004-1.516-.32.36-.022 1.61-.361 1.654.305.19.703-.544.31-.93.383zm-.55-2.182c-.942.199-.94-.768-.834-1.426.032-.708.942-.6 1.208-1.13.725-.229.133.975.969.891.076.82-.155 1.299-.06.182-.556-.263-.566-.488-.766-1.019-.483.52-.077.503-.995.637-.354.389-.308 1.129-.156 1.596.522.287 1.32.027 1.947.108.83.111.468-.955.508-1.444-.151-.361-1.317-1.122-.297-.508.754.327.329 1.238.439 1.864-.458.439-1.362.213-1.963.25zm4.248-.016c-.71.174-1.241-.397-1.045-1.095-.166-.751.709-1.038 1.267-.722.494.495 1.23-.553 1.682.114.143.418.306 1.26-.093 1.612-.527.311-1.222.059-1.811.09zm1.752-.315c.292-.404.297-1.326-.24-1.572-.997.11.43.208.045.765-.552.2-1.23.076-1.826.16-.786-.4.706-1.17-.346-.845-.418.299-.436 1.215-.05 1.56.655.248 1.514.03 2.245.104l.172-.172zm-1.556-.861c.575-.604-.914-.661-.483.04.15.066.378.179.483-.04zm1.296-.117c.022-.517-1.218-.325-1.09.092.087.103 1.076.19 1.09-.092zm2.31 1.293c-.763.026-.593-1.155-.332-1.522.4-.469.906-.17 1.4-.108.85.217-.54 1.378-.228.772.71-.45-.307-1.046-.673-.498.039.405-.055 1.393.617 1.213.458-.019 1.613.195 1.344-.569.229-.707-.872-1.029-.664-1.051.794-.4.556.68.875.903.303.618-.461 1.122-1.048.916-.43-.02-.867.03-1.291-.056zm.051-.434c-.838-1.071-.16 1.135 0 0zm-.143-.616c.395-1.252-.635.623 0 .088zm-7.912.365c-.435-.541-.033-1.24-.082-.192.078.087.371.376.082.192zm.415-.405c-.166-1.061.161-.382.157.287-.055.37-.22-.127-.157-.287zm-1.356-1.974c-.497-.39.033-1.237.628-1.006.76.108 1.677-.231 2.323.199.426.777-.411 1.129-1.092.953-.575-.09-1.42.24-1.86-.146zm2.45-.162c.065.304.842-.431.127-.638-.222.144-.9-.086-1.494 0-.517-.098-1.416-.03-.967.675.704.202 1.567.022 2.33.083l.005-.115v-.005zm2.98.261c-.495-.093-1.414.244-1.4-.54.087-.748 1.056-.223.926-1.083.509-.48.743-.33.383-1.067.255-.66 1.48-.032.822.457-.872.35.48.185.114.858-.274.742 1.063-.14.993.749.119 1.049-1.26.542-1.838.626zm1.622-.352c.378-.876-.935-.452-1.438-.547-.457.093-1.518-.305-1.378.492.302.575 1.212.119 1.778.246.311-.1.903.192 1.038-.191zm-1.438-1.063c.13-.96-1.061.066-.435.379.358.02.526.063.435-.38zm.482 0c.016-.999-.651.191-.312.379.373.066.324-.055.312-.38zm-.008-1.036c.31-.693-1.079-.075-.27.143.103-.032.21-.038.27-.143zm-4.844 1.169c-.62-.725.776-1.037.586-.13-.136.126-.424.403-.586.13zm.43-.323c-.393-1.014-.602 1.009 0 0zm-.66-.67c-.712-.224-.082-1.19.535-.897.662.313 0 1.368-.534.897zm.47-.073c.572-.403-.423-1.084-.613-.373.178.67 1.114-.408.487.336-.488.177.049.123.126.037zm-1.185-2.977c-.55-.517-.213-1.425.374-1.778l-.07-10.88c.505-.403 1.055-.167.808-1.161-.226-.7-.889-.01-.62.495-.032 1.021-.42-.591-.125-.856.549-.496 1.14.261.847.848-.333 1.173.474.278.888-.14.518-.477.892-1.289 1.712-1.065.749.889-.452-.097-.76.533-.624.55-1.135 1.245-1.883 1.635l.033 8.02c.683.066 1.069-.4 1.44-.9.7.126.19-1.088.333-1.599l-.07-6.764c.481-.501 1.224-.01.96.661v3.611c.488-.575.742-1.503 1.446-1.805.497-.31 1.097 1.084.926.02.051-.831-.148-1.78.056-2.539.706-.613.975.448.812 1.01-.103.95.02 1.358.695.44.691-.418.792-1.077.678-1.824.103-.566-.353-1.535.463-1.646.748.121.288 1.137.434 1.691-.13.888.626-.361 1.038.108.39.591-.534 1.04-1.034 1.109v2.224c.652-.34 1.301.617.666 1.028-.86 0-.807.03-.672.967l.005 3.61c.375-.413 1.411-.393 1.354.25-.149.825-1.531.21-1.354.996.137.533-.242 1.53.537 1.504.795.283 1.068 1.308.846 2.014-.476.643-1.398.209-2.088.335-.71.147-.864-.632-1.328-.03-.713-.058-1.522.112-2.179-.082-.407-.424-.368-1.234.014-1.694.279-.613 1.38-.429 1.098-1.268v-4.432c-.548-.285-.968-.085-1.484.35-.672.3-1.155.68-.928 1.485v3.642c.558.32.833.88.66 1.513-.132.725-1.146.379-1.677.527-.647-.378-.57-1.466.027-1.872.226-.712.027-1.61.095-2.39.17-.92-.19-1.082-.667-.297-.57.394-1.347.093-1.037 1.172.008.702-.233 1.464.545 1.772.64.495.279 1.855-.64 1.586-.375-.057-.913.205-1.174-.134zm1.76-.212c.512-.64-.2-1.639-.985-1.39-.945-.116-1.244 1.762-.146 1.57.343-.049.948.207 1.13-.18zm2.453.056c.422-.549.03-1.635-.784-1.55-.758.106-1.1 1.143-.559 1.634.379.117 1.015.146 1.343-.084zm3.14.067c.55-.32.37-1.376-.17-1.71-.831-.716-2.193.096-2.074 1.152-.139.932 1.096.581 1.655.604.196-.016.397.004.589-.046zm3.181-.086c.482-.988-.706-2.275-1.75-1.777-.685.23-1.223 1.291-.687 1.873.716.228 1.579-.027 2.351.015l.071-.092zm-2.316-1.72c.439-.482.082-1.418.198-2.085v-4.823c-.449.055-.816 1.11-1.308.614-.333-.791.017-1.793-.152-2.543-.242.436-.824.814-.608 1.447-.37.885.871.558.666 1.415-.01.345.027 2.124-.02 1.272-.102-.586.097-1.706-.51-.776-.21.639-.055 1.449-.123 2.154.76.317.2-.407.655-.716.731-.392 1.388.55.831 1.13-.943-.154-.751.547-.741 1.297.062.6-.239 1.356.423 1.7.373.792.218.189.69-.086zm-7.122-1.826c-.113-.584.195-1.536-.17-1.9-.765.106-.313 1.21-.434 1.769v2.008c1.005.293.5-.908.607-1.505 0-.124-.002-.248-.004-.372zm2.634-.128c-.142-.575.293-1.729-.231-1.922-.787-.078-.215 1.202-.389 1.737v2.157c.999.213.508-.95.62-1.555v-.417zm3.226.288c-.02-.49.167-1.765-.535-1.346l-.038 2.575c.906.414.512-.664.573-1.199zm2.29-1.967c-.044-1.09.073-2.247-.07-3.296-.944-.163-.432 1.086-.576 1.637.008 1.604-.11 3.23-.024 4.82.785.537.745-.605.678-1.198l-.007-1.963zm.789 1.11c.922-.187.252-.982-.317-.438-.532.257-.244.906.317.439zm-2.313-.708c.63-.583-.877-1.018-.738-.248-.054.357.595.626.738.248zm-6.846-.645c.237-.142.357-1.449-.067-1.554-.678.062-.147 1.133-.302 1.632.121-.054.234-.1.37-.078zm2.709-.228c.29-.177.055-1.32.147-1.862.306-.865-1.02-.519-.622.235.146.448-.324 1.855.283 1.585.07-.083.129.01.192.042zm.752-1.069c.474-.404 1.222-.55 1.406-1.146.651-.315.459-.966.5-1.645-.414-.11-.778-.549-.925-1.03-.601.627-1.074 1.461-1.45 2.223.057.589-.11 1.402.076 1.862l.393-.264zm-3.26-2.183c-.17-.552.4-1.793-.408-1.752-.407.249-.065 1.302-.177 1.868.175.498-.41 1.813.408 1.62.412-.209.06-1.239.177-1.736zm5.531 1.535c.524-.407-.175-.917-.594-.528-.44.452.175.941.594.528zm1.19-1.043c.515-.399.893-.34.684-1.301l-.004-2.382c-.54.689-1.608 1.206-1.367 2.233.124.55-.256 1.586.184 1.847.299.004.37-.166.502-.397zm-4.206.165c.255-.559.038-1.38.119-2.034-.035-.944.1-1.938-.041-2.851-.796-.458-.63.765-.603 1.252l.065 3.7c.15-.025.34.058.46-.068zm5.453-.483c.193-.392-.051-1.226.234-1.722.25-.913-.956-.474-.632.203.144.443-.376 1.737.285 1.52l.113-.002zm.898-.667c.542-.433-.512-.987-.632-.385-.148.43.343.692.632.385zm-3.663-.609c-.038-.309-1.189-.748-.353.07.083.046.317.09.353-.07zm.489-.642c.435-.722.088-1.672.2-2.488-.845-.55-.602.698-.62 1.202.116.426-.251 1.621.22 1.601l.2-.315zm-5.726-.895c.328-.598-.526-1.29-.622-.448-.337.673.627 1.721.622.66v-.116zm8.2-.265c.325-.96-.999-.625-.62.157-.343 1.03.898.558.62-.157zm-.044-1.177c.09-.664.021-1.338.043-2.007-.859-.404-.592.71-.62 1.225-.148.603.07 1.779.566.866zm.504.253c.875-.228.408-.943-.158-.314-.206.214-.258.57.158.314zm-2.762-1.69c-.403-.103-1.488-.021-.91-.84.507-.512 1.189.124 1.009.762.063.13-.033.33-.099.078zm-.118-.528c-.338-.77-1.272.434-.218.156.14-.05.451.124.218-.156zm-7.112.04c-.039-.645.943.008.497-.288-.292 0-.426.355-.497.288zm1.676-.092c-.646-.177.707-.695.22-.007-.073.001-.151.159-.22.007zm7.442-.466c-.754.24-.798-1.061-.023-.774.61-.312 1.261.461.563.757-.181.027-.358.047-.54.017zm0-.352c-.37-1.065-.673 1 0 0zm.62-.008c-.499-.812-.77.7 0 .09zm-7.433-1.371c-.88.532-.592-1.304-.578-.507.258 1.029.318-.325.785-.305.798.238-.638.571.05.67.442-.127-.162.364-.257.141zm2.315.019c-.035-1.157-.093-.3.368-.095.233-.807.25.546-.368.095zm.719-.319c-.057-.739.637.229.58-.28.232 1.33-.715-.617-.57.676l-.01-.396zm-4.286.276c-.115-.753.13-1.016.073-.121.731-.06.401.245-.073.12zm2.936-.136c-.503-.636.848-.744.065-.317-.143.384.863.581-.065.317zm2.154-.02c-.359-.919 1.3-.285.17-.099.627-.047.186.605-.17.1zm2.634.074c-.462-.65.885-.992.61-.105-.062.264-.47.289-.61.105zm.479-.113c-.868-.033.465-.484-.395-.306-.358.257.448.71.395.306zm-8.889.005c-.702-.599.919-.634.381-.412-.907-.16.214.746-.053.546-.153.038-.238-.016-.328-.134zm9.515-.123c-.325-.236-.543-.013-.155-.339.484 1.09.359-.76.482.358-.094.4-.13.163-.327-.018zm.683.123c-.71-.597 1.022-.832.166-.552-.75.359.61.806.023.256.218-.526.575.752-.19.296zm-9.876-2.044c-.341-.554.726-.725.394-.063.024.188-.327.124-.394.063zm19.54 32.498c.577-.267.104-1.322.257-1.908.077-.677.03-1.413-.834-1.338-.876-.245-1.691-.678-2.558-.96.142.347.282 1.537.023 1.401-.015-.821-.187-1.884-1.166-2.029-.303-.56.997-.062 1.137.374.563.254 1.33.482 1.093-.47.092-1.265.17-2.582.732-3.741-.265-.72-.93-1.343-.866-2.142.54-.396.75-.708.705-1.415.146-1.385 1.395-2.356 2.7-2.61-.197-.603.876-1.399 1.094-.612.197.551.607 1.246 1.268 1.188.536-.613 1.287-1.066 1.646-1.81-.516-.556-.405-1.32-.685-1.977-.183-.317-.173-1.853-.455-1.158-.29.902-.94 1.65-1.462 2.434a4.147 4.147 0 0 1-3.373 1.087c-1.731.029-3.267-1.333-3.91-2.87a55.371 55.371 0 0 0-1.44-5.088c-.156 1.55-.03 3.217-.078 4.812l-.033 11.494c.821 1.251 1.786 2.56 2.578 3.735-.173-.52-.368-1.486.041-.446.328.877.425 2.098-.459 2.67-.834.155.65.54.675-.22.23-.93.519-.481.112.185-.66.488-.234.959.414 1.18.89.419 1.9.434 2.843.234zm-4.19-1.927c.579-.562-.83-.11-.07.026zm17.411-.343c1.36-.395 1.579-2.021 1.34-3.223-.443-2.573-1.64-4.944-2.744-7.288-.822-1.668-2.686-2.453-4.452-2.6-.508 1.144-1.268 2.328-2.43 2.841-.606.293-1.286-1.513-1.124-.505.215.47-.237 1.675.51 1.565.922-.191 1.98.11 2.307 1.076.737.081 1.915-.338 2.105.685-.056 1.26.077.306-.293-.327-.451-.443-1.197-.186-1.774-.31-.034.804.595.883 1.254.81.008.317-1.52-.166-.7.791.209.665.577 1.3.687 1.984.594-.075 1.116.415 1.78.226.011-.974.082-2.058-.467-2.95-.533-1.044-.598-2.232-.555-3.382.809-.598.372.64.454 1.095-.138 1.16.55 2.294 1.04 3.214-.488-1.44-1.173-3.143-.367-4.638.402-.801 1.029-.215.255.272-.499 1.268-.274 2.746.34 3.942.038-1.291-.088.304.2.017.417-.346-.714.894.248.23-.626.406-.898.467.007.335-.612.481.306.312-.177.754.666-.311 1.458-.377.422.153-.661.524.92.206 1.263.27 1.102.408-.514.061-.9.35-1.148.284.376.201.793.378.798.187.802.747-.043.26-.414-.248-1.845-.004-.756.124.443.067 1.467.665 1.19.904-1.109-.798-2.525-.885-3.832-1.1.51.632.414 1.76.1 2.546-.628.635.582.862.968 1.217 1.031.465 2.273.658 3.351.284zm-16.891-.296c-.52-1.388-1.576-2.53-2.361-3.785-.798-.823-1.155-2.124-2.25-2.606-.683-.144-1.63.095-.755.779.677.66 1.124 1.549 1.763 2.2.65.233-.105.954.798 1.187.592.274 1.346.52 1.432 1.256.92.488-.83.965.25.986.291-.001.987.186 1.123-.017zm-1.513-.467c.31-.548-.848-.196-1.105.01.225.214.815.11 1.105-.01zm-.982-.408c.895-.16.542-1.115-.181-.628-.701.195-.726.853.028.707-.045.142.152-.139.153-.079zm.36.03c.994-.175.175-.395-.276.072.026.108.214-.042.275-.071zm5.963-.085c-.151-1.057-.003-2.173-.618-3.113-.247-.311-.572-1.96-.806-1.194-.34 1.102-.379 2.28-.405 3.428.578-.07 1.306.071 1.654.496-.35.013-1.093-.404-1.654-.255.34.46 1.295.356 1.757.823.205.053.076-.076.072-.185zm8.48-.423c.498-.795.464-2.06-.372-2.626-.489.035.662.867.246 1.432.04.634-.157 1.256-.6 1.72.223.183.64-.304.725-.526zm-.677.116c.206-.066-.627-1.129-.389-.322.033.15.2.598.389.322zm-14.76-.41c1.189-.253-.527-.902-.082-.33-.444-.36-1.089-.184-.406.322.177.081.363.296.489.009zm15.093-.866c.305-1.04-.917-1.415-1.53-1.978-.8-.631-1.847-.97-2.672-1.486-.926.073.215.748.61.813.684.208.677.624.184.972-.33.723-1.202-.04-1.74-.13-.44-.079-1.412-.801-1.51-.167 1.059.765 2.358 1.213 3.512 1.853-.025.587-1.528-.746-1.183-.225.822.723 1.953 1.027 3.038.902.481-.312 1.16-.04 1.182.101.14-.18.063-.443.109-.655zm-3.902.29c-1.171-.217-2.418-.034-3.618-.098.603.435 1.466.09 2.18.197.271-.057 2.034.111 1.438-.098zm-11.576-.12c-.076-.851-.502.35 0 0zm-.586-.188c.791-.537.239-.83-.53-.924-.593.074.374 1.388.53.924zm11.363-.06c.893-.003-.529-.766-.852-.942-.476-.375-1.61-.548-1.308-1.347.998-.369 1.937.592 2.928.625 1.048-.507-.21-.678-.619-1.102-.634-.46.17-1.083.661-.743.964.434 1.961.994 2.82 1.5-.737-.958-1.01-2.2-1.487-3.286-.875-.354-1.91-.064-2.849-.159-1.436.03-2.894-.059-4.317.044-.577.454.276 1.194.395 1.746.545 1.194 1.04 2.41 1.628 3.586.935.263 2.026.096 3 .077zm-2.18-3.314c-.597-.211-.664-1.274.08-1.313.83-.224 1.71.965.888 1.516-.352-.009-.692.076-.969-.203zm.732-.385c.392-.442-.817-.997-.785-.318.196.252.462.654.785.318zm2.968-1c.053-.77.69.405 0 0zm4.803 2.753c-.01-1.27-.167.115-.163.61.355.172.103-.43.163-.61zm-2.762-.79c-.508-1.01-.62-2.27-1.489-3.05-1.763-.197-3.562.025-5.34-.009-.699.13-1.595-.24-2.134.294-.043.87.365-.5 1.026-.086l6.352-.09c.833.668.798 1.846 1.361 2.704.074.282.662 1.695.545 1.05l-.32-.814zm-16.29.11c-.513-.309-.69-1.274-.471-1.369-.663-.254-.795.985-.097.788.172.354-1.202.078-1.615.165-.822.125.062 1.069.716.689.412-.122 2.004.28 1.48-.258zm2.605-5.463c.004-3.586-.006-7.173-.033-10.76-.4.495-.062 1.297-.177 1.91l-.035 13.962c.477.91.151-.836.245-1.157 0-1.318-.003-2.64 0-3.955zm-4.26 4.65c.262-.796-.88-.691-.871-.052-.273.453 1.237.448.87.053zm.493-.171c.05-1.189-.83.555-.061.402.105-.036.022-.3.061-.402zm1.116-.65c.017-.888-1.34-.107-.572.065.138-.052.63.198.572-.066zm-1.049-.12c-.04-.758-.792.568-.027.061zm9.989-2.54c-.273-.848.538-1.18.345-.136-.294 1.03.565.847 1.295.8.451-.18 1.643.296 1.644-.289-.114-.577.064-1.343-.662-1.554-.36.069-.837 1.147-1.279.406-.498-.382-.025-1.462-.316-1.578-1.139.436-1.996 1.507-1.956 2.757-.282.646 1.424.51.933-.242l-.003-.116zm3.968.312c-.15-.337.066-1.9-.45-1.199-.093.353-.28 1.519.22 1.527.369.073.233-.056.23-.328zm-1.925-1.395c.816-.465-.24-.769-.453-1.394-.3.204-.29 1.317.084 1.739.192.041.243-.248.37-.345zm3.39.166a5.726 5.726 0 0 0 2.026-2.687c-.105-.836-1.179-.573-1.185.201-.427.74-.973 1.468-1.71 1.93-.002.367.49 1.053.87.556zm-1.764-.37c.654-.848-.957.501-.063.052zm-.551-.065c.123-.589 1.028-.68 1.31-.118.638-.863 1.69-1.63 1.722-2.776-.038-.62-1.273-.612-.416-.084-.032 1.016-.937 1.779-1.748 2.282-.758.115-1.813-.431-1.626-1.313-.696-.22-.586.85-.24 1.213.191.127.897 1.256.998.796zm-2.463-2.657c1.675-.372 2.932-1.862 3.502-3.422.333-.865.025-1.89.414-2.708-.142.463.858.06.683-.61.025-.696.13-1.757-.743-1.938-.7-.131-1.167.601-1.014 1.234-.185.596-.366 1.66-.584.504-.192-.925-.081.235-.003.598-.185-.496-.415-1.142-.596-1.526.222 1.016-.053.37-.176-.32.51-.256.822-.045-.1-.416-.669-.39-.835-.887.082-.601-.353-.04-1.614-.674-.832-.688 1.087-.395.355-.219-.363-.204-1.394-.076-1.78-2.177-.682-2.925.218-.31 1.386-1.241 1.052-1.04-1.148.689-1.913 1.895-3.134 2.506-1.163.854-2.51 1.396-3.89 1.784-.314 1.577.644 3.074.957 4.593.426 1.555.575 3.395 2.032 4.381.928.778 2.217 1.09 3.396.798zm-2.36-1.24c-.452-.128-1.44-.59-.953-1.056.282.47 1.09.158 1.651.01.433.123 1.112-.94.968-.183-.65.45-1.68.425-2.244.722.967.941 2.735.407 3.14-.86.169-.587.088-1.406-.637-.84-.864.12-.044-.916.446-.697.725.42.61 1.603.07 2.185-.51.755-1.61.965-2.441.719zm-1.524-1.874c-.638-.515.05-1.431.157-2.09.594.167-.268 1.084-.205 1.592.167.453 1.21.274.986-.249-.985.11-.11-.59.244-.022.369.692-.7.89-1.182.769zm-.89-.889c-.456-.56.5-1.22.553-.406.151.443-.278.902-.552.406zm2.758-.995c-.52-.415.242-1.35.668-.728.533.42-.22 1.245-.668.728zm-2.893-.75c.397-.849.599.63 0 .083zm8.354-.673c-.148-.239 1.223-.159.878-.941.182-.708-1.366-.608-.83-.178.411.37.921.688.038.68.044-.126-.362-.473-.247-.92.323-.743 1.408-.217 1.177.524.143.558-.519 1.03-1.016.835zm-9.044-.403c-.316-.41.977-1.097.966-.462-.13.118-.927.857-.966.462zm3.403.005c-.14-.884 1.043.156.038.099l-.038-.1zm.188-1.206c-.912.25-.933-.783-.018-.473.337.023 1.542-.05 1.048.466-.295.147-.704-.025-1.03.007zm-5.362-1.036c.565-.671-.62.606-.32-.416-.331.161-.23 1.183.32.416zm10.422-.932c.56-.396-.233-.597-.68-.309-.234-.743-.62.34-.357.343-.184.443.756-.428.689.275.121-.088.233-.212.348-.309zm2.139-2.095c-.196-1.367-1.324-2.52-2.727-2.61-1.028.074.59.107.858.42 1.423.596 1.99 2.25 1.904 3.702.043 1.16.045-.645.066-1.024l-.101-.488zm-11.272 1.817c.296-.01 1.995-.64 1.076-.405-.398.167-1.576.403-1.524.508.15-.034.3-.07.448-.103zm6.856-1.075c.792-.767-.01-.25-.44.133.143.225.313-.037.44-.133zm-7.175-.922c-.792-.004-1.488-.667-1.266-1.48-.75.035-.402 1.153.164 1.289.302.328 1.745.337 1.366.239l-.264-.048zm.905-.802c-.767-.174-1.315-.871-1.377-1.643-.482.377.224 1.136.56 1.47.219.195 1.829.48.817.173zm-.826-1.704c-.045-1.254.288 1.084.194-.014.29-1.067-.43-.479-.234.263.103.315.074-.18.04-.25zm6.558-.376c-.663-.093-1.39-.104-2.054.06h2.204c.074-.106-.152-.005-.15-.06zm2.777.04c-.22-.654-1.318-.83-1.515-.05.469-.007 1.146.117 1.515.05zm-1.378-.756c.536-.415 1.47.315 1.55.396-.336-.85-2.096-.934-2.014.182-.11.455.298-.719.464-.578zm-14.396-1.467c.587-.45-.858-.876-.831-.24-.057.388.617.364.831.24zm-1.282-.16c.074-.341-1.2-.028-1.638-.097-1.233.108.356.274.833.19.258-.043.6.097.805-.093z" style="fill:#262f47;stroke-width:1" transform="translate(897.478 -517.494)"/></svg>