<svg xmlns="http://www.w3.org/2000/svg" viewBox="0 0 52.917 52.917" height="200" width="200"><path d="M-1270.413 946.2c-.38-2.517-1.552-4.915-.945-7.515.727-2.108.32-4.552-2.246-4.653-1.648-.786-1.105-3.248-1.142-3.99-2.07-1.112-1.557-3.941-1.13-5.678-.583-.76-2.916-1.176-.828-1.546.814-.56.89-1.829 2.467-1.487 2.449.666 3.79-1.051 5.752-2.003 2.201-1.224-1.647-2.407-1.834-4.022-1.154-.742-1.248-1.294-1.43-2.562-1.092-1.215-2.685.74-3.04-1.444-1.054-1.256-.142-3.697 1.415-2.55.853-1.959 1.428-4.59 4.005-4.971.611-.316 3.006-.374 1.765-.962 1.846-.598 2.194 1.927 3.784.692 1.079.257-.889.66.579 1.008 2.674 1.256 2.573 4.654 2.14 7.132-1.252 1.897-1.578 3.992.766 5.206 1.62 1.716 4.336 2.645 4.848 5.253.782 3.658.92 7.46.474 11.167-1.184 1.795-2.6 3.463-1.7 5.768-.078 2.306.278 5.332-1.06 7.069-2.251.108-5.412.245-7.022-.444-1.604 1.235-3.805.14-5.618.532zm-3.29-24.304c-2.176-.052.467.112 0 0zm-10.441 20.2c-.892-.645-4.14-.365-2.377-2.137 1.248-.562-1.024 2.001.865 1.319 3.816-.103 7.632-.037 11.448-.073.516-.672-1.306-1.819.244-1.088.884 2.326-3.266 1.75-4.605 1.511-1.88.01-4.188-.13-5.575.469zm-1.117-2.08c-1.512-2.147.276-4.574.194-6.755.186-1.01.595-4.809.623-2.135-.796 1.725 2.234 4.428 2.227 1.62-.453-.82 1.688-1.819.129-2.186.48-.403.902-2.712 1.125-.95.283.663.82 1.16-.347 1.103-.374 1.426 1.905 4.132 1.93 1.53.653-.848-.582-1.815.903-1.329-.72 1.186.896 2.426.983 2.893-1.218.85-1.4-3.034-1.673-.322-.66 2.054 2.197.792 1.805 2.753 1.105 1.83-.773 5.387-2.75 3.36-.33-.67.11-3.632-.433-2.878.995 2.123-1.303 4.911-2.99 2.542-.59.243-.877 1.368-1.726.754zm2.449-.455c-.274-.716-.243-2.162-.325-.5-.059-.078.378 1.013.325.5zm3.23-.024c-.142-1.05-.02-2.765-.382-.764-.134.118.552 1.147.383.764zm-.043-3.203c.57-1.097-.867.704 0 0zm3.39 3.687c-1.568-1.608.578-4.425-.793-5.857.906-.254 2.023.255.766.687.062 1.172 2.273 1.217 1.27 2.803.115 1 .459 2.887-1.243 2.367zm28.375-26.55c-3.178.484-2.5-3.707-2.441-5.685.34-2.202-1.307-6.426 2.01-6.69 2.038.476 5.622-1.222 6.113 1.79.136 2.107-.263 4.214.028 6.321.378 2.028-.43 5.306-3.14 4.264-.855.064-1.713.018-2.57 0z" style="fill:#edcbb8;stroke-width:1" transform="translate(1290.774 -895.144)"/><path d="M-1270.41 946.062c-.484-2.632-1.462-5.225-.91-7.936.57-1.638.559-4.048-1.76-3.823-2.012-.617-1.748-3.376-1.65-4.314-2.207-1.167-1.313-4.145-1.185-5.769-.424-.764-2.751-.824-.906-1.336 1.027-.41.987-1.954 2.65-1.55 2.454.771 3.679-.967 5.594-1.939 2.643-1.182-1.578-1.971-1.155-3.836.673 1.122 2.536 3.222 4.453 1.87 2.887-.496.945-5.519 3.371-5.416-.54.766-.279 1.049-.736.818-.35 2.389 2.666-2.21-.1-1.424-.9.539-.73 2.625-1.91 1.925-.52 1.672-3.456 3.123-3.162.34.817-.693 4.362.194 2.71-1.659-1.085-2.879-2.447 1.042-4.446.329-1.099-.291-2.846.181-1.062 1.092 1.793-.169 1.695 2.077 2.92 2.208-.745 1.306-1.354-1.955-2.125-.301-2.153.22-1.546-4.606-3.921-2.72-1.156-.835-2.418-4.228-.195-4.028.844.697 1.425-2.403 2.26-3.159.73-1.987 4.16-1.858 4.922-2.221-2.078-1.26 2.319.351 1.677.871.653-.972 2.5-.34.658.036 1.83.524 3.604 1.88 3.553 4.135.122 2.25-.46 4.381-1.293 6.421.797 1.857 2.952 3.179 4.716 4.464 2.533 2.046 2.463 5.636 2.633 8.603-.045 2.687.645 5.95-1.775 7.872-.85 2.524.637 5.259-.418 7.793.254 1.795-.663 3.41-2.67 2.76-1.813.151-4.073-.06-5.125-.458-1.347.797-3.966.513-5.612.353zm4.35-13.24c2.195-1.759-.988-4.338-2.896-3.46-.609-.555-4.117-1.377-2.205-.22.905.113 3.835 1.808 1.29.774-1.377-.715.01.62-1.167-.17-.334-.144 3.236 1.805.985.705-2.551-.851.768.833.706 1.232-.644-.547-2.29-1.184-.806-.032 1.11.87 2.668 1.622 4.094 1.17zm-6.665-1.124c2.322-1.755-2.98-2.015-.513.165l.267-.004zm-1.41-2.236c.489-1.321-2.53.619 0 0zm-.275-.681c.489-1.238-2.769.209-.413.036l.413-.036zm.38-.9c-1.36-1.152-2.1.825 0 0zm-.741-.74c.578-1.492-2.723.372-.344.047l.344-.048zm1.52-2.937c.089-1.175-1.103 1.015 0 0zm-.453-2.308c-2.175-.052.468.112 0 0zm9.044-2.672c2.207.05 3.749-4.035 1.688-4.4-.127 1.651-2.222 3.042-1.704 4.018-.74-1.463-1.226.25-.309.571zm-1.733-4.28c1.735-1.024-2.074-1.975-.926-.175l.444.194zm-3.196-.161c-.1-2.167-2.74.326 0 0zm-14.486 27.35c-.87-.737-4.36-.366-2.313-2.168.58-.233-1.03 1.991.812 1.318 3.767-.069 7.535-.022 11.303-.052.64-.64-1.098-1.883.391-1.006.432 2.351-3.467 1.448-4.861 1.42-1.55.026-3.107-.002-4.66.008.033.323-.356.712-.672.48zm-.984-2.06c-1.839-1.938-.027-4.47.067-6.543-.041-1.178.57-5.1.61-1.986-.72 1.884 2.577 4.113 2.189 1.005.022-.998 1.235-.853.44-2.145-.174-.82.564-2.248 1.009-.787-.267.59.726.872-.515 1.205-.642 1.04 2.111 4.303 1.973 1.454.198-.937.049-2.187.876-1.072-1.286 1.244 2.252 2.674.293 2.635-.661-.922-1.033-2.327-1.141-.236-.338 1.883 2.326.905 1.877 2.95 1.077 1.822-1.13 5.242-2.664 2.71-.29-1.048-.342-4.63-.559-1.75.637 2.143-1.886 3.68-2.97 1.626-.443.342-.785 1.17-1.485.935zm3.945-.48c1.358-1.52-.676-5.293-2.108-2.799-.198 1.367 0 4.09 2.108 2.8zm3.07-.083c1.504-1.322.103-5.028-1.803-2.996-.65 1.173-.077 4.236 1.803 2.996zm-.495-1.57c-.367-1.047.598-.568 0 0zm-4.912-1.059c.628-1.3-.844-3.972-1.59-1.531-.362.896 1.601-.006 1.27 1.399.201 1.205.26 2.21.32.132zm3.118-1.915c-.467-.837-1.028-4.246-1.595-1.862.057 1.35-1.166 1.996.75 1.713.287.008.577.04.845.15zm-.78-4.928c.53-1.21-.77-.168-.016.059zm4.906 9.967c-1.32-1.58.14-4.582-.538-5.874.958.029 1.425.253.512.712.286 1.149 2.022 1.6 1.26 3.088.167.894.175 2.572-1.234 2.074zm.652-.289c1.681-2.282-2.923-.19 0 0zm.338-1.977c-.556-2.62-2.2 2.12.01.579l-.033-.315zm-.984-.151c.857-.407.47.32 0 0zm8.51-20.413c-1.013-.441 2.404-.678.719.022-.218.125-.517.137-.72-.022zm1.365-1.644c1.347-.38-.47.267 0 0zm16.962-2.216c-2.073-2.62-.344-6.083-1.035-9.047-.723-3.053 2.559-3.578 4.755-3.112 2.725-.836 4.03 1.5 3.413 3.84-.015 2.5.01 5 0 7.5-1.74 1.883-4.612.632-6.839.902l-.292-.083z" style="fill:#b5d5e2;stroke-width:1" transform="translate(1290.774 -895.144)"/><path d="M-1270.409 946.067c-.485-2.634-1.464-5.228-.91-7.94.583-1.654.54-4.08-1.803-3.817-2.039-.581-1.517-3.419-1.632-4.321-2.478-1.147-.886-4.346-1.337-5.94-.873-.535-2.357-.774-.582-1.212 1.087-2.712 5.005-.288 6.778-2.52.808-.718 3.832-2.09 1.175-2.815-1.364-.51-.925-3.4-.273-.89 1.453 2.342 5.525.881 5.573-1.733-.31-.982.938-3.871 1.311-2.708-.15 1.06-.222.612-.537.66-.35 2.389 2.666-2.21-.1-1.423-.9.538-.73 2.624-1.91 1.923-.526 1.672-3.448 3.13-3.166.332 1.208-.433 4.681-.097 2.413-2.107-1.295-1.852-2.658 1.841-4.593.755-2.333-.55-1.046 1.644.512 1.488 1.112.21.672 2.127 1.748 1.709-.22 1.696-1.442-1.878-1.889-.203-2.565.625-1.253-4.43-3.891-2.781-1.25-.36-2.706-3.415-.649-4.06 1.399 1.17 1.41-2.523 2.678-3.25.862-1.843 4.24-1.746 4.995-1.884-2.842-.852 1.823-.753 1.314.906.557-1.11 2.912-.54.97-.337-.698.892 2.32.355 2.395 1.817 1.738 2.449.856 5.591-.056 8.156-.923 2.068 1.806 2.796 2.83 4.191 2.032.93 3.423 2.788 3.777 4.988.608 3.052.502 6.202.437 9.295.014 2.462-3.02 2.974-1.933 5.546.153 2.046.314 4.176-.39 6.146.499.901-.73 3.099-.42.952-.95-1.955-1.129 2.773-1.136.126-.554-2.258-3.58-.399-5.294-.859-.98.312 1.089 2.865-.434 1.19-.386.227-1.344 1.286-2.174.073-.637-1.78-4.533-2.587-3.335.166.183.286-.104.931-.462.381zm3.466-2.571c-1.29-2.102-.459-4.681-.396-6.981 1.018-2.08-.926-4.586-2.972-3.757-.305 2.289-.398 4.635-.606 6.959-.772 2.64.703 4.744 3.554 4.074.044.017.56-.076.42-.295zm-.644.087c-.467-1.48 1.34.565 0 0zm-3.062-3.966c.034-1.516.39-3.774.264-1.141-.059.276-.151 1.08-.264 1.141zm9.778 4.103c3.408.577 2.079-3.45 2.398-5.415.168-3.128-4.042-1.112-5.78-2.529-1.319-.077-2.817-2.952-2.835-.443-.065 2.616-1.185 5.993.475 8.177 1.785.761 3.855.194 5.742.21zm.655-1.166c1.59-1.579.336.436 0 0zm2.308.292c2.076-.266.321-5.198-.182-1.73.04.385-.528 1.81.182 1.73zm.74-4.796c-.122.841.09 1.736 0 0zm-.74-2.835c2.85-.246 2.793-3.707 2.676-5.85-.047-3.042 0-6.327-1.554-9.038-.795-2.244-4.064-1.332-3.983-.36.36-.881.81-1.927-.202-.621-.98 1.459-2.972 1.738-4.154 1.098-1.222 1.301-2.804-.117-3.162-.831-2.7.646-1.386 3.36-.762 5.032-.157-.737.173-4.871.292-2.488.429-2.746.055 2.813.5.291.655-1.337-.568 2.103-.425 2.737.01 2.822 2.642 4.84 5.137 5.578 1.37.496 3.576 1.19 3.134-1.114a36 36 0 0 1 1.053-7.457c-.147-1.29 2.438-1.94 2.037-1.612-1.495-.314-2.25 3.774-1.775 3.06.506-.582-.675 2.397-.384 3.2-.164 1.393-.126 3.961 1.975 3.487-1.097-.506-2.37.617-.554.393 1.156-.033 2.7 2.61.966.739-1.344-.997-1.547.271-.173.586 2.034 2.34-2.096-1.65-1.037.278 1.886 2.202-2.255-2.272-1.781-.381 2.181 1.237-4.522-1.616-1.932-.047 1.559 1.234-2.16-1.298-.803.75.32 1.165-2.114 2.452.217 2.391 1.537.337 3.136.425 4.693.179zm-8.079-5.867c-.227-.62.065-1.732.076-.394zm1.896-.804c-1.328-1.803.057-4.698 2.317-3.1 1.134 1.513-.288 4.573-2.317 3.1zm1.181-.285c.494-.22.502-1.76.977-.626 1.01-2.947-4.379-1.13-1.808.733.277.102.577.012.831-.107zm1.075-2.669c-.74-.552-3.3.219-1.115.168.376-.005.764-.016 1.115-.168zm4.194 3.057c.426-.94.35.316 0 0zm-8.348-1.162c.037-1.798.46-6.138.804-6.39-.415 2.075-.448 4.486-.804 6.39zm6.36-7.951c1.11-1.046-.638.928 0 0zm-3.823 13.133c.313-.884-.28-1.859.01-.404-.284.903-.339 1.235-.01.404zm-2.607.155c2.185-1.493-.885-4.491-2.67-3.414-.628-.316-3.882-1.62-2.686-.349.889.087 4.18 1.892 1.545.858-1.37-.728-.027.596-1.081-.181-.433-.014 3.327 1.838 1.074.795-1.013-.572-1.765-.323-.414.39 1.717.835.552.812-.442-.093.103.938 3.033 2.66 4.674 1.993zm-6.63-1.144c2.26-1.775-3.034-1.962-.539.178l.265-.02zm1.055-1.17c0-.907-.303.282 0 0zm-.072-.813c-2.049-1.948 1.34-2.77 2.521-1.24-.427-1.951-.221-4.238-1.162-6.091-1.43-.79-4.194-.998-5.5.202-.125 2.007 1.647 3.464 2.016 5.348.507 1.036-.747 2.381 1.15 1.835l.975-.054zm.506-2.743c-.252-1.063 1.415-2.08.859-1.78-.517.12-.34 1.478-.86 1.78zm-1.238-.945c.148-1.435-1.942-.588-.724-1.754.307-2.24-1.677 1.728-.667-.519.925-2.169 2.743 3.225 1.228.4-2.02-2.318 1.36 3.936.163 1.873zm-1.37-3.382c-.28-1.315 1.387.407 0 0zm-.327 6.837c.489-1.321-2.53.619 0 0zm-.275-.682c.488-1.237-2.769.21-.413.037l.413-.037zm.407-.829c-1.187-1.234-2.326.582 0 0zm-.768-.81c.578-1.493-2.723.372-.344.047l.344-.048zm6.293-.182c-.105-1.146-.836-2.245-.538-.46-.065.174.62 1.051.538.46zm1.359-6.604c1.84.236 1.448-3.267.043-1.601-.126.385-.742 1.474-.043 1.601zm4.726-.367c1.364-.142 2.42-3.81.954-3.019-.552 1.165-4.373 2.807-1.397 3.374.196-.048.298-.231.443-.355zm-2.016-.892c2.109-.389 3.37-3.257 1.526-4.52-.076 1.614-1.523 2.534-1.903 3.689.848 1.54-1.495-1.237-.507.954.177.429.748.211.884-.123zm-1.612-4.32c.046-3.3-3.349.963 0 0zm-3.64.076c.7-1.728-2.562-.43-.385.076.139.052.257-.049.386-.076zm-4.092-2.823c.124-1.15-.324.269 0 0zm3.723-1.011c.843-.6-1.592.704 0 0zm3.66-.768c1.492-1.879-1.737 1.757 0 0zm-6.807-.786c.952-.673.873-1.25 0 0zm1.488-3.269c.383-.88-1.04 1.976 0 0zm3.081-1.946c1.41-.256 1.814-.481.176-.143-.748.201-1.346.706-.176.143zm-15.46 37.886c-.766-.862-4.316-.195-2.386-2.095.856-.558-.942 1.845.7 1.243 3.826-.059 7.654-.028 11.481-.052.641-.64-1.098-1.883.391-1.006.79 1.809-2.733 1.697-3.502 1.506-2.01-.159-4.057-.041-6.084-.078.185.326-.325.703-.6.482zm-.991-2.061c-1.91-1.999.126-4.599.044-6.764.035-1.23.635-4.96.565-1.903-.45 1.666 1.302 2.4 1.297 3.504 1.396-.144 4.111.94 2.57-1.218-.241 1.09-.605-3.179-1.307-1.012.714 1.073-1.479 2.284-1.092 1.78 1.308-.44.13-3.544 2.176-2.425-.43 1.56 1.759 2.251 1.53.215 1.152-1.146.264 1.644 1.93 1.2-1.31 1.7-1.653-3.026-1.926.043-.612 2.07 2.57 1.008 1.973 3.373.53 1.714-.79 4.633-2.582 2.615-.645-.815-.363-4.896-.746-2.18.68 1.83-1.46 4.218-2.726 1.932-.546-2.037.627-4.47-1.097-5.647-.444-2.901.108 1.534-.854 2.199 2.376-.899 1.874 4.645.244 4.288zm.52-.35c1.015-.812.688-5.027-.936-3.115.455.842-.741 3.308.937 3.115zm-.787-1.246c.395-.754.445.248 0 0zm4.212 1.115c1.358-1.52-.676-5.293-2.109-2.799-.197 1.367 0 4.09 2.109 2.8zm3.343-.026c1.198-1.598-.583-5.23-2.198-2.906-.238 1.42.028 4.255 2.198 2.906zm-.945.022c2.178-.15-1.874.2 0 0zm.177-1.65c-.368-1.046.598-.567 0 0zm-1.798-2.141c-.263-2.011-4.371.42-1.432.067.476-.061.968.11 1.432-.067zm2.714-.043c-.396-1.144-2.41-.18-2.046-1.715-1.215.686.377 2.903 1.602 1.755l.444-.04zm.01-2.27c-.581-.67-.834.728 0 0zm1.407 6.52c-1.246-1.118-.67-5.633 1.145-3.716-.16 1.157 1.051 4.062-1.145 3.716zm.652-.289c1.682-2.282-2.922-.192 0 0zm.352-1.971c-.587-2.63-2.206 2.12.016.582l-.024-.314zm-.999-.158c.858-.406.47.322 0 0zm.3-1.016c1.886-.02-1.397-1.438-.431.193.146.05.45.042.43-.193zm-.486-1.55c-1.71-1.242 2.01-1.02.034-.067-.196.465.156.747-.034.067zm-2.81-3.217c.575-.53-1.02-1.243.69-.982.415.159-.4 1.35-.69.982zm-2.744-.125c.427-.535.257.502 0 0zm.445-.139c-.698-.773.016-3.805.75-1.946-.1.575.54.971-.509 1.297l-.179.265zm.438-1.773c-.14-1.497-.389 1.542 0 0zm13.436-12.58c-1.172-.404 2.4-.707.628.027l-.313.06zm1.296-1.656c1.347-.38-.469.267 0 0zm16.963-2.216c-2.073-2.62-.344-6.083-1.035-9.047-.723-3.053 2.558-3.578 4.755-3.112 2.724-.836 4.03 1.5 3.413 3.84-.015 2.5.01 5 0 7.5-1.74 1.883-4.612.632-6.839.902l-.292-.083zm6.179-.435c1.199-3 .085-6.275.651-9.376-.025-2.97-3.494-1.74-5.348-1.914-3.029.024-1.746 3.186-1.972 5.073-.083 2.097-.408 4.377.716 6.275 1.98.159 3.98.206 5.953-.058zm-5.697-.28c-1.775-2.214 2.727-1.187 3.898-1.638 2.395.031 1.578 2.361-.481 1.675-1.14.003-2.28.025-3.417-.037zm2.64-.24c1-1.569-2.38-.217-.231.052l.124-.028zm-3.122-4.73c-.23-.754.1-4.701.44-2.192 1.373.238.222.71-.248.112-.212 1.211.2 4.429-.196 4.562-.039-.827.04-1.655 0-2.481zm3.396 2.842c-.03-2.003 4.415.161 1.247.1-.417.005-.84.005-1.247-.1zm2.465-.215c-.614-1.225-3.621.459-1.139.162.348-.16.914.261 1.14-.162zm-5.31-.3c1.59.12-.848-.706.738-.465-1.327-.027.671-.485-.702-.331 1.512-.346-1.094-.408.503-.862-.148-.072-.896-.136.228-.289-1.705.252.01-2.482.128-.412.566.599.464 3.289-.895 2.36zm.895-1.394c-.475-.28-.729.635 0 0zm0-.776c-.551-.464-.798.309 0 0zm1.838 1.575c.941-.465 3.342.171 1.053.015-.35.01-.708.091-1.052-.015zm-.049-.82c.383-.992.407-4.76.318-1.77-.329 1.639 2.24 1.016 1.377-.334-.537 1.069 2.397 2.526-.217 2.256-.476-.025-1.088.226-1.478-.153zm2.717-.1c-.534-1.363-3.986.367-1.335.148.435-.147.907.035 1.335-.149zm-3.52-1.334c.323-2.274.1 2.439 0 0zm-.52.473c-.337-1.164.341-2.658.11-.627-.03.08.018 1.405-.11.627zm.843-.655c.142-2.043.148 2.43 0 .005zm2.962-.325c-.257-.665-.027-2.983.3-1.447-.243.635-.153 3.592-.3 1.447zm.244-1.68c.655-1.413-.922.684 0 0zm-1.777 2.655c-.277-.73.162-3.615.147-1.266-.015.425-.06.85-.147 1.266zm-4.063-4.065c-.631-2.356 3.436-1.646 4.84-1.294 2.462.21.524 1.987-.925 1.403-1.306.031-2.614.015-3.915-.109z" style="fill:#71a7c0;stroke-width:1" transform="translate(1290.774 -895.144)"/><path d="M-1270.405 945.976c-.192-.696-.052-1.544-.293-2.165-1.187-.802-.488-2.424-.664-3.62.001-1.78.29-3.602.4-5.34-1.87-.07-3.975-1.398-3.975-3.432-.206-.724 1.667-1.302.347-1.335-.875.117-.653-1.043-1.292-1.036-.556-.624.525-1.415-.407-1.796-.046-.675.294-.932-.013-1.623.877-.324.528-.941.322-1.846-.447-.314-1.988.325-1.665-.768.665-.249 1.876.285 1.442-.789.322-1.275 1.91-.656 2.864-.813.82-.047 1.657.068 2.463-.084.625-1.297 2.05-1.963 3.359-2.424.771-.973-.58-.783-1.092-1.346-.6-.539-1.085-1.355-1.25-2.07.862-.397.459 1.076 1.202 1.54.809 1.003 2.294.919 3.363.435 1.061-.537 1.732-1.544 2.021-2.657.25-.314-.206-.668.098-1.437-.01-.712.546-1.853 1.35-1.294-.554-.24-.038.347-.622.293-.72.187-.032.919-.611 1.01.214.848 1.361.058 1.384-.59.586-.825-.649-2.05-1.334-1.195-.631.207-.323 1.958-.817 1.326-.289 1.435-.05-.345-.713.322-.76.422-1.118 1.01-1.234 1.772-.8.823-2.466-.03-2.143-1.198-.216-.336 1.153-.82 1.642-.441.721.61 1.379-.32 1.932-.87.7-.182-1.309-.222-1.212-1.06-.723-.369.257-2.147-.365-1.047-.986 1.335-2.8 2.238-4.447 1.944-1.09-.597-1.407-.135-.79.885.063.966.978-.259 1.62.46.882.415.54 1.832 1.51 1.99-.583-.628.99-.195.13.251-.839.125-.95-.785-1.19-1.347.096.201-.59 1.122-1.246.68-.686-.417-1.22-1.02-1.265-1.277.54-.379-.242-1.439-.476-1.753-.994-.374-.888-.015-1.514.414-.798.219-1.339-1.36-.487-1.388-1.012-.013-1.659-1.383-.934-2.058 0-.5 1.28-1.554.796-.401.698.8 1.45-.47 1.41-1.158.36-2.332 2.648-3.99 4.896-4.189.445-.27 2.545.502 1.536-.06-.33-.525-2.257-.244-1.078-.675 1.109-.12 2.174.725 2.316 1.831.05-.927 1.464-1.485 1.823-.612-.502-.415-1.535-.086-1.497.72 1.086-.918 2.433.3 3.073 1.208.93 1.357.916 3.052.767 4.612-.652 1.06.108 2.557-1.044 3.378-.717.369-.012 1.266.135 1.874.485.24 1.297.395 1.504 1.104.02.823 1.067.84 1.545 1.428 2.104.918 3.417 3.042 3.604 5.291.51 3.01.401 6.096.305 9.127-.135 1.217-.818 2.423-2.045 2.795.27 2.47.217 4.97.246 7.454-.798.854-.293 2.123-.568 3.156-.788.327-.057-1.32-.27-1.825.517-1.076-1.514-.632-1.052.18.03.384.256 2.387-.142 1.329-.08-.706.276-2.295-.894-1.795a39.44 39.44 0 0 1-5.032.23c.237.544 1.187 1.42.822 1.965-.43.14-.572-1.67-.89-.622-.124 1.2-.942.225-.37-.485.652-.779-.173-1.008-.964-.875-1.395.036-2.858-.248-4.2-.19-.117.658.608 2.07-.079 2.205-.098.018-.012-.173-.05-.223zm7.054-2.118c2.029-.128 4.228.011 6.097-.826.327-.926.035-2.089.128-3.104-.02-1.44.071-2.897-.22-4.313-2.782.455-5.75.126-8.244-1.25-.368-.748-.558-1.269-1.539-.974-1.127-.101-2.232-.694-3.157-1.227-.37 3.555-.846 7.185-.621 10.767.242 1.007 1.559.6 2.327.808.547-.091 2.559.522 1.623-.32-.966-1.27-.483-3.022-.566-4.51.106-1.536.249-3.068.455-4.594-.09 2.814-.788 5.696-.136 8.471.287 1.094 1.446 1.288 2.414 1.124.474-.018.989-.034 1.439-.052zm-7.119-5.478c-.01-.87.33-1.963.109-.427-.065.362-.214 1.405-.109.427zm12.86-3.197c1.55-.188 2.412-1.721 2.343-3.178.03-3.725.312-7.624-1.129-11.146-.712-1.06-1.802-2.088-3.078-2.288-.231.735-.36-.976-1.13.097-.62.868-1.467 1.784-2.493 2.118-.766.377-1.519-1.46-1.6-.964-.609 1.31-.07-.45-.55-.19-.293.591-.923.402-1.64 1.144-1.358.508-.397-1.718-1.25-1.232-.94.351-1.78.94-2.258 1.842 1.254.768.683 2.457 1.36 3.559.081-1.324-.07-2.718.157-3.997.139-.286-.067 2.1.196 1.269-.01-1.053.193-1.59.232-.235-.23 1.651-.353 3.36.053 4.973-.215-.216-.277-1.469-.751-1.976.015.338.1 1.775.453 2.136 1.09-.267.524 1.255 1.162 1.45.93.294 1.804.899 2.224 1.799.52-.749 1.232.391 1.334.542.834-.45 1.703.468 2.6.436.88.222 1.806.055 1.645-1.002-.09-2.475-.301-5 .174-7.442.337-1.026.837-2.551 2.162-2.461.782.336-1.089.066-1.099.899-.673 1.063-.967 2.357-.913 3.608.019-.344.709-2.424.391-1.22-.553 1.664-.516 3.397-.423 5.127-.26 1.144.43 1.442 1.437 1.337 1.254.313-.903-.038-1.349.006-.125 1.045 1.244.314 1.822.795.698.094 1.603 1.604.624.522-.73-.412-1.825-.799-2.547-.383.138.345 1.58.2 2.038.838.567.358 1.206 1.707.288.577-.564-.655-1.42-.977-2.26-1.095.798.303 1.412 1.048 1.689 1.823-.556-1.054-1.619-1.871-2.86-1.678-.49-.128 2.018 1.174.835.703-1.01-.658-2.24-.645-3.344-1.042.252 1.194-.295 2.764-1.384 3.221 2.063.884 4.59 1.12 6.838.709zm-4.511-3.16c-1.343-.774-.396-.522.341.12.738.582-.077.073-.341-.12zm-1.954-3.483c-.844-.758.07-2.132-.516-2.905.25-.811 1.475-.253 2.14-.415 1.12-.28.979.63.823 1.33 0 .844.251 2.21-.98 2.218-.469-.092-1.156.22-1.467-.228zm2.014-.273c.274-.516.435-1.811 0-2.186-.68.216-2.193-.506-2.163.51-.155.78-.028 2.172 1.09 1.894.353-.075.842.136 1.07-.218zm-.338-2.53c1.373-.143-.268-.456-.86-.285-1.457-.184-.745.655.288.285h.572zm-3.521 1.067c.06-1.49.156.113-.048.69l.048-.69zm.13-1.584c.085-1.542.239-3.238.69-4.632-.364 1.748-.544 3.589-.722 5.39.01-.253.022-.506.033-.758zm-2.793-1.423c.151-.722.41-1.433.575-2.158 0 .637-.394 1.92-.575 2.158zm-2.638 10.31c.873-.209.332-1.521.594-2.188-.739-.918-.48.765-1.196.898-.63.484-1.624.135-2.208.162.612.752 1.786 1.535 2.81 1.127zm6.764-.032c.9-.546 1.574-2.049.865-2.958-.794-.192-.153 1.355-.65 1.845-.598.667-.683.965-1.322.974.19.355.812.348 1.107.14zm-.577-.723c.734-.498.868-1.824.475-2.584-.85-.922.01.722-.258 1.178-.068-.024-.028-1.255-.335.272.033.6-1.318 1.342-.213.92.244-.093-.669.526.33.213zm-.98-.515c.692-.29.867-1.421.636-2.05-.613-.919-1.462-1.605-2.568-1.81.082-.085.479.871-.627.44-1.175-.3-2.222-1.065-3.456-1.081-.465.854 1.143.706 1.613 1.11.5.28 2.098.745 1.936.975-.315-.192-1.261-.541-1.948-.748-.892-.799-1.315.545-.468.853.38.386 2.028 1.015 1.644 1.197-.557-.326-1.748-1.192-1.922-1.158.303 1.095 1.658 1.372 2.506 1.978.809.363 1.805.618 2.654.294zm-3.332-2.037c-.42-.268-2.03-.75-1.688-.873.668.347 1.542.564 2.102.976.018.21-.34-.089-.414-.103zm-2.894 1.922c.747-.244 1.16-1.407.53-1.969-.437.901-.389 1.18-1.172 1.241-.873-.226-1.318.326-1.258-.339-.353-.517-.083 1.546-.302.096.23-.695.514-1.181-.138-.29-.278 1.36 1.407 1.658 2.34 1.261zm-.53-.964c.655-.095 1.066-1.406.42-1.135.41-.526-.467-.585-1.298-.471-.452.083-.01 1.86.599 1.717.107.021.184-.083.279-.111zm1.375-1.12c0-.994-1.09-.495-.143.128.073-.01.198.048.143-.128zm-.959-.881c1.373.013.374-.565-.093-1.049-.055-.807.772-.509.936-1.175.988-.138 1.682.854 2.483 1.235-.451-2.137-.627-4.349-1.105-6.464-.608-.917-1.958-.326-2.894-.495-.866.098-1.861-.076-2.655.198-.507.671.185 1.687.196 2.492-.28 1.033 1.289.824.82 1.775.783.04.123 1.256.84 1.316-.05.713.247 1.404-.039 1.98-.703.493 1.229.123 1.511.187zm-.493-4.52c-.477-.513-.488-1.638-.194-.558.196.386.834 1.705.194.558zm2.17.224c.103-1.286.999.529.573-.345-.487.876-.033-.606-.493.315-.099.22-.18.65-.08.03zm-3.308-1.258c.118-.725.756-1.515 1.228-.543.607 1.235-.439-1.053-.788-.19-.149.338-1.024 2.175-.44.733zm.121-1.736c.108-.965 1.328.486.051.169-.066.007-.032-.12-.05-.169zm-.245 7.008c.892-.627-1.34-.649-1.024-.005.21.327.762.208 1.024.005zm-.517-.645c1.351-.285-.115-.699-.773-.522-1.205.08.2.954.773.522zm3.971-.648c-1.311-.727-.088.282.587.304-.196-.1-.391-.202-.587-.304zm2.483-.218c-.217-1.327-.226.36.079.402l-.08-.402zm-.278.094c-.088-1.205-.506-.348-.061.259.13-.025.043-.173.06-.26zm-5.977-.024c1.226-.109-.587-.793-1.02-.454-.734.604.729.532 1.02.454zm-.81-.82c1.037.177.89-.997-.09-.65-1.143-.282-1.058 1.166.09.65zm.031-1.042c.358-.044.204-.687-.722-.363-.166.573.349.421.722.363zm-.908-2.86c-1.282-.455-.855.396 0 0zm9.348-3.13c.574-.479 1.783-.741.84-1.453.115-1.035-1.208-.569-1.256.225-.18.524-.664 2.073.416 1.227zm4 .12c1.028-.771 2.474-1.865 2.099-3.324-.766-1.214-.59-.01-1.192.543-.667.846-1.802 1.335-2.571 1.91.506.317 1.012 1.39 1.665.87zm-1.421-1.325c.971-.574 2.091-1.222 2.57-2.272-.56-.749-.882-1.744-1.185-2.544-.37.827-.32 1.991-1.086 2.712-.241.67-1.639.827-.901 1.603 1.132.192-.234.94-.407.015-.109-1.237-.41.816-.418-.472-.347.5.384 1.903 1.088 1.155.11-.063.245-.138.339-.197zm-1.895-4.132c.85-.805-1.187-2.011-1.438-.751-.26.849.91 1.128 1.438.75zm-3.51.032c.48-.618-.423-1.25-1.078-1.06-.684.246.268 1.467.938 1.102h.03zm-4.076-2.732c-.085-.631.044-1.128-.295-.215.04.066.464.498.295.215zm5.184-.416c1.183-.503 2.468-1.404 2.837-2.644-.717 1.268-2.106 2.506-3.663 2.864.304.062.553-.125.826-.22zm-1.959-.367c1.116-.333-1.774.308-.15-.093.503.133 2.013-1.32 1.238-.793-.91.819-2.248.942-3.4.653.698.438 1.539.499 2.312.233zm5.886.015c-1.001-.445-.633.014.173.085.41.027-.084-.053-.173-.085zm.68-.455c.356.086-1.77-.183-1.281-.06.292.29 1.001.38 1.28.06zm-9.261-1.376c1.188-.73.707-2.461 1.537-3.481.873-1.248-.392.217-.53.815-.292.962-.278 2.625-1.66 2.596-1.182-.39-.45.362.385.206.095.006.173-.143.268-.136zm7.822-1.805c.092-1.287-.334 1.816 0 0zm3.76-.272c.078-.514-1.664-1.837-.731-.922.346.024 1.102 2.111.73.922zm-3.323-.646c-.052-1.628-.144-.073-.098.693.059.312.129-.643.099-.693zm-2.966.347c1.458-.827-1.148.466-.06.031l.06-.031zm4.39-1.198c-.735-1.125-.577-.799 0 .155.19.725.245.206 0-.155zm-4.989.04c.238-.425-1.445.893-.174.126.062-.036.115-.086.174-.127zm.276-1.873c.432-.236 2.58 0 1.463-.233a4.58 4.58 0 0 0-3.292 1.007c.61-.255 1.163-.68 1.83-.774zm2.1.708c-.548-.306-2.285.037-.82-.028.176-.01 1.134.21.82.028zm-18.077 37.205c-.067-.882-1.432-.237-2.101-.434-1.1.01-.993-1.282-.193-1.658 1.217-.451-.24.35-.27.84.233.928 1.559.333 2.277.5h10.03c.915-.316.08-1.163-.49-1.355.546-.377 1.732.69 1.101 1.36-.68.695-2.003.023-2.665.492-.477.965-.83-.632-1.642-.143h-5.372c.121.405-.409.654-.675.399zm-1.155-2.09c-.851-.557-.278-1.82-.444-2.686 0-.858-.245-1.967.827-2.272v-2.79c-.8-.309 1.468-.591.62.456-.36 1.207.478.95 1.187 1.265-.546.378-.534 1.615.428 1.128.853-.365 2.203-.42 2.477.56-.185-.654.344-1.78-.45-2 .244-1.115-.069.256.811-.032 1.1.077-.317-2 1.006-1.653 1.012-.404-.137 2.16.666 1.309 1.245-.298.854.95-.17.506-.728-.275.214-1.824-.786-1.609-.35.488-.029 1.686-.21 2.437-.113.814 1.46-.179 1.892.652.01 1.372.131 2.79.12 4.132-.357.91-1.609.671-2.354.533-1.013-.546-.39-1.881-.537-2.818.337-1.303-.707-1.355-.434-.03-.12.896.193 1.922-.229 2.726-.65.346-1.637.357-2.288.01-.626-.795-.164-1.994-.264-2.957.135-.89.013-1.698-.179-2.548-1.158.267-.685-1.083-.747-1.752-.43-1.163-.512.874-.4 1.422.488.872-.657 1.567-.635 1.845.91-.104 1.898-.11 1.516 1.116-.17 1.037.46 2.468-.57 3.156-.285-.033-.604.08-.853-.107zm.788-.177c.8-.444.272-1.646.422-2.42.123-.893.107-1.8-1.045-1.363-.745.165-.137 1.592-.321 2.28 0 .611-.187 1.78.944 1.503zm3.366-.098c.594-.819.162-2.035.293-3.015.297-1.106-1.215-.403-1.826-.602-1.01-.306-.317 1.395-.517 2.044-.153.798.02 1.952 1.108 1.678.307-.048.69.112.942-.105zm3.299-.026c.737-.62.018-1.726.234-2.567.422-1.34-.683-1.128-1.638-1.068-1.275-.315-.539 1.323-.71 2.08-.127.79.036 1.91 1.108 1.682.335-.041.73.121 1.006-.127zm-2.385-3.855c-.323-1.074-1.594-.93-2.394-.514-.867-.296-.6 1.038.472.573.617-.037 1.405.076 1.922-.059zm2.403.016c.726-.46-.82-1.025-1.313-.742-.883.4.333-1.93-.883-1.266.182.751-.53 2.396.749 2.05.48-.022.975.05 1.447-.042zm.178-2.255c.279-.647-1.365.124-.127.093l.121-.088zm1.293 6.325c-.696-.685-.166-1.848-.3-2.736-.183-1.08.08-1.618 1.23-1.404.8.012.155 1.652.362 2.331-.01.632.52 1.678-.437 1.912-.275-.046-.64.118-.855-.103zm1.023-.301c.89-.814-.848-1.323-1.175-.636-.192.67.749 1.174 1.175.636zm.133-1.876c.609-1.033-1.422-1.164-1.24-.333-.253 1.077.214 1.408 1.24 1.16v-.827zm0-1.373c.105-.737-1.886-.635-1.31.396.337-.028 1.585.33 1.31-.396zm-1.171-1.338c.133-.986-1.751-.515.05-.797 1.139-.313.804.71.087.22.067.385-.095 2.075-.137.577zm-6.928-.453c.249-.372 1.552-.399 1.132-1.305-.207-1.07-.12-1.556 1.05-1.282.752.103-.01 1.502.421 2.04.85.319-.765-.16-.282-.942.6-1.055-1.362-1.385-1.028-.32.158.82.11 1.628-.889 1.756-.12.003-.324.246-.404.053zm-1.313-3.785c-.034-1.702.063-.618.028.449-.047 1.4-.02.12-.028-.449zm5.771.748c-.276-.474-1.32-.56.197-.664.966-.527-.726 1.635-.197.664zm-2.616-.093c.386-.919-1.37-1.02-.049-1.137.279-.852-.833-1.343.33-1.296.927-.187-.555 1.459.664 1.319.546.449-1.545-.079-.919 1.154-.018.478-.01.337-.027-.04zm.4-1.642c.114-1.493-.927.612-.023.505.051-.115.01-.35.023-.505zm13.56-12.567c-1.156-.852-.204-.009.53-.271.888-1.025.252.611-.533.271zm18.317-3.84c-1.4-.523-1.008-2.176-1.073-3.35-.014-2.667-.147-5.346.073-8.004.649-1.169 2.06-.736 3.154-.837 1.293.057 2.646-.204 3.9.056 1.379.515.767 2.176.904 3.295-.037 2.62.113 5.286-.04 7.877-.441 1.433-2.1.961-3.237 1.041-1.22-.054-2.49.14-3.68-.077zm5.962-.466c1.035-.607.398-2.046.574-3.035-.05-2.568.103-5.191-.076-7.725-.604-1.072-2.071-.41-3.076-.582-1.17.067-2.42-.105-3.538.112-1 .728-.366 2.159-.544 3.213.062 2.43-.125 4.903.095 7.308.363 1.356 2.027.711 3.044.86 1.149-.096 2.446.202 3.52-.151zm-5.023-.324c-.86.285-1.66-.668-1.087-1.382 1.898-.015 3.798-.024 5.697-.036.817.594.05 1.765-.863 1.407-1.249.003-2.5.094-3.747.011zm2.097-.247c.774-.632-.668-1.27-1.083-.633-.19.663.615.936 1.083.633zm-3.173-2.284c-.055-1.8-.107-3.652.024-5.429.26-.632.39.019.095.272-.073 1.881.019 3.854-.077 5.684-.013-.175-.033-.357-.042-.527zm3.345.375c-.401-1.016 1.296-.473 1.87-.606 1.518.081-.69.136-1.196.103-1.465-.002-.074.82.737.524 1.65.033.6.042-.418.051-.304-.065-.753.14-.993-.072zm-1.867-.813c.039-.473-.256-2.632.09-1.767-.024.559 0 2.028-.082 2.066v-.15zm3.094-.275c-1.575-.07.726-.043 1.274-.06-.386.24-.85.03-1.274.06zm-1.333-.741c.706-.12 1.817-.016 2.676-.052.133-.917-1.248-.46-1.81-.604-1.515-.042.893-.012 1.393-.017 1.243.421-.13 1.024-.889.724-.443-.036-.978.07-1.37-.05zm-1.326-1.946c-.034-1.703.063-.618.028.448-.047 1.4-.021.12-.028-.448zm1.602.223c-.144-.598.05-2.716.093-1.068-.024.346.06 2.414-.063 1.648l-.03-.58zm1.362.165c-.118-1.43.324.285.014.7 0-.234-.01-.467-.014-.7zm-3.806.146c-.025-1.39.211 1.64 0 .05zm1.64-.293c-.056-1.657.332.178.07.758-.164.095-.022-.628-.07-.758zm1.476-.586c-.01-1.373.01-1.306.046 0-.05 1.229-.05 1.872-.046 0zm1.5.09c.383-.642-.817-1.686.094-1.861.925.285-.384 1.145-.036 1.795-.046.953-.045 1.498-.058.066zm.263-1.619c-.607-.693-.225 1.083 0 0zm-5.54.966c-.71-.294 1.487-.167.582.125-.2-.035-.527.174-.583-.125zm-.221-2.192c-.884-.27-.327-1.833.494-1.278.56.132 1.18-.68 2.074-.377 1.164-.315 1.244.557 2.192.413 1.016-.469 1.79.99.68 1.31-1.802-.044-3.684.074-5.44-.068zm-13.863 8.612c.929-.82.506-.126 0 0z" style="fill:#282e38;stroke-width:1" transform="translate(1290.774 -895.144)"/></svg>