<svg xmlns="http://www.w3.org/2000/svg" viewBox="0 0 52.917 52.947" height="200.115" width="200"><path d="M-1153.662 870.893c.564-2.825 1.108-5.68 2.191-8.362-1.908.797-4.918.02-5.033-2.384.198-2.29-1.634-3.971-1.137-6.197.344-1.745-2.392-4.062.741-4.123 1.552-.379 2.933 1.558 3.32 2.014 1.263-1.97.66-5.214 2.874-6.469 1.615 1.364 2.467 4.078 5.085 4.007 2.786.534 5.773.568 7.42-2.228.352-1.268 4.179-.998 1.554-1.845-1.994.975-3.348 4.3-6.266 4.006-2.491-.323-5.617-.667-6.656-3.377-1.25-1.202.515-2.824.813-3.303-2.205-1.767-4.282-4.203-4.187-7.198-.255-4.043 2.107-8.408 6.146-9.602 3.628-1.314 8.115-.54 10.563 2.61 1.524 1.761 2.625 3.985 2.342 6.372.104 2.663-2.659 4.996-.223 7.384 1.91 1.928.972 4.257.403 6.387.248 2.176 1.416 4.206 1.11 6.454-.108 2.514 1.43 5.86-.748 7.78-1.506.727-4.609.94-2.927 3.318.416 1.15 1.291 4.416.647 4.39-.545-1.553-.56-4.936-1.7-5.28-.286 1.811 1.462 4.06.892 5.589-.464-1.913-.706-3.894-1.413-5.746-1.72.966.767 3.705.505 5.417-.627-.072-.764-3.603-1.345-4.864-.44-1.465-2.299-.79-3.346-.906.244 1.115.532 4.792.232 1.798.346-2.393-2.606-3.152-2.63-5.322.243-1.544-.276-3.306-2.158-2.939-2.222-.34-2.97-3.539-3.31-4.424.399 1.826.12 4.613.178 5.802.493-1.045 1.84-3.099.618-.882-1.992 2.775-2.798 6.182-3.624 9.433-.279.755.01 2.492-.93 2.69zm17.118-7.362c2.333-.09 4.725-2.04 3.898-4.57-.444-4.114-.311-8.461-2.359-12.2-2.49-2.024-3.504 2.653-5.87 2.924-2.243.765-4.758.15-6.865-.665-1.528-.718-3.002-5.166-4.041-1.643-.564 1.85-1.769 4.087.424 5.189 1.668.23-1.58-3.178.88-3.35.253-.36-.763-3.52-.101-1.853-.203 1.416 1.074 1.227.813-.047-.637 2.04 1.2 2.18 2.563 2.299 1.024 1.604 2.074 3.056 2.548 4.648 1.529 1.424 3.24 3.423 5.179 2.072.99-2.13.748-4.598.799-6.872.826 2.722.594-1.533 1.726-2.055.877-1.202-1.131 2.216-1.02 3.075-.374 2.612 1.77-3.069.721-.139-.614 1.214-1.194 4.794-.258 4.702.451-1.368.836-1.502.317-.036.567-.39 1.384-1.855.555-.213-.573.76-1.598 2.505-.06 1.108.96-.925 1.44-.74.314.162-2.146 1.86.927-.944 1.773.488 1.076.702 1.536 1.53.172.236-.97-.812-4.637 1.345-1.872.713 1.063.007 2.443.25 2.034.596 1.042.789 1.482 2.24.144.527-.912-.743-3.445-.873-1.112.033 1.162.781.991 1.574-.016.284-.61-.78-3.553-1.13-1.388-.081 1.029.446 2.014 4.155.89 1.676-.337-1.116-1.952-2.329-.536-.639.592.92.864 3.338.235.958-.482-1.643-3.425-4.323-4.602-2.863.702 1.71-1.919 4.862.615 5.33 1.134.314 2.338.419 3.5.206zm-.485-2.798c-.481-.723-1.614-2.455-.407-.88.113.036.988 1.843.406.88zm2.972-.934c-1.42-1.788.613-.426.367.584-.24-.074-.25-.42-.367-.584zm-4.352-.045c-.715-.532-1.632-2.745-.371-.96.02.084 1.026 1.694.37.96zm-1.844-.695c-.43-1.184.408-1.733 0 0zm-1.08-4.404c-3.134.39-2.419-5.207.658-4.033 1.73.643 1.187 4.121-.658 4.033zm1.338-1.611c1.42-2.665-4.022-2.936-3.28-.096.144 1.219 3.765 1.314 3.28.096zm-1.816-.073c-1.525-.701.342-1.207.253.25l-.079-.026zm.754-.21c1.165-.617-1.796-.567-.056-.588.8-.777.675.834.056.587zm4.203-.546c.118-.935 2.45-3.835.92-1.574-.284.457-.604 1.364-.92 1.574zm1.136-.132c-.246-2.128 1.96.024 1.188-.31-.339-1.26-.94-.364-1.188.31zm-9.567-.064c-.651-1.7 1.66-.128 0 0zm-7.575 10.035c1.131-.496 1.737-2.92 1.829-3.254-1.007-1.689.845.924.165-.927-.26-1.706-2.47-.947-1.103.376.994 2.52-3.346 4.81-3.876 1.622-.537-2.963-.792 2.134 1.045 2.093.68.48 1.502-.497 1.39.28l.275-.063.274-.127zm11.242-2.72c-.263.127-.548-.246-.225.63l.136-.223zm-10.64-.749c-.367-.788.248 1.637 0 0zm10.916.075c.248-2.139-1.045 1.12 0 0zm-8.673-.617c.144-1.35.128-4.807-.4-4.783.138 1.467-.404 5.275.345 5.257zm9.034-.272c-.06-2.032-1.282.539-.619-.076.077-1.41.808 1.157.619.076zm-14.89-.673c-.978-.926-1.944-.789-.397.03l.237.027zm11.748-.83c-1.156-.343-3.816-1.68-3.854-1.681 1.134.805 2.375 2.202 3.854 1.682zm-10.458-.071c.878-.114 2.144-1.39.582-.476-.07.12-1.812.94-.582.476zm7.857-.02c-1.554-1.076-1.713-.031 0 0zm-10.58-.301c.579-.727 3.696-1.836 1.26-1.002-.354.28-1.885.237-1.26 1.002zm6.314-.478c-1.623-1.015-.076.965 0 0zm7.036-.097c-.658-.715-1.64-.812 0 0zm-6.867-.22c-.046-1.261-3.28-2.478-1.477-.54-.057.44 1.402.83 1.477.54zm-.032-1.189c.329-1.369-2.705-3.327-2.34-.992.862-.159 2.328 1.664 1.946.52.217.317.63 1.65.394.472zm-6.047-.342c.855-1.509-1.744 1.882 0 0zm11.124-.52c-.79-1.344.792 1.666 0 0zm-11.527-2.152c-2.139-.042.46.106 0 0zm8.41-.2c-.188-.816-2.159.365 0 0zm-7.851-.165c3.072-.008-2.386-.53-1.31.057.438.005.87-.176 1.31-.057zm9.588-.28c-1.072-1.486-5.889.107-2.278-.204.76.005 1.547-.047 2.278.204zm4.548-2.352c1.003-.736 3.496-1.834 2.77-.205.636-.776 2.955-2.378 2.46-2.735-2.268.546-3.929 2.69-6.394 2.671-.891.057-2.261.263-.54.218.56.062 1.152.306 1.704.05zm-3.077-1.062c-1.217-.235-3.98-2.805-2.46-2.94 2.049 1.514-.815-2.242-1.274.23-.032 1.36 2.405 2.78 3.734 2.71zm3.422-.773c1.382-.949 4.545-1.882 5.071-2.38-2.017-.362-3.415 1.724-5.347 1.968-1.037.168-4.921.087-2.046.581.777.067 1.561-.008 2.322-.169zm8.613-.974c.983-1.264-1.814-3.847-1.626-4.178.512 1.34 1.131 3.107 1.626 4.178zm-9.727-.889c-1.075.173-5.195-1.174-2.35.076.77.195 1.596.172 2.35-.076zm-.39-.54c2.327.114 3.835-2.088 5.98-2.61 3.085-2.13 4.619-6.43 2.916-9.902-1.371-2.612-3.71-4.97-6.766-5.367-2.434-.444-4.963.09-7.06 1.387 3.434-1.317 7.353 1.097 8.334 4.51.607 1.365.487 4.746.953 4.956.933-3.758-.47-8.73-4.492-9.988-2.57-.872 2.985.374 3.124 1.761 2.308 2.348 2.624 5.911 1.814 8.963 1.496-.88 1.353-3.63 1.578-5.333.03-1.01-.93-3.942.026-1.585.909 2.854-.47 5.737-1.549 8.335.42-.986 1.725-3.707 1.35-1.22.574-1.037 1.884-4.061 1.39-6.001-.027-2.073-2.704-4.283-4.416-3.39-1.179-.379-3.096-2.134-.713-1.996 3.521.502 6.13 4.089 5.818 7.596-.334 2.05-1.053 4.245-2.165 6.069-1.3 1.598-3.241 2.633-5.106 3.391-.851.244-3.208.362-1.016.423zm8.558-9.5c-1.178-1.235 1.584-1.642.784-.18-.391-1.164-.197.085-.784.18zm.018-1.397c-.639-.988 1.152-.313 0 0zm-1.904-1.853c-.106-1.43.205.7 0 0zm-6.58 10.963c1.412-.044 3.19-2.654 2.726-2.923-.374 2.01-4.34.542-2.698 1.838-1.53.75-4.414-.221-4.987-1.518.023-1.107-1.25-2.16-.811-.353.714 2.115 3.633 4.048 5.77 2.956zm-4.961-.604c-2.91-1.331-3.681-4.833-3.783-7.737-.476 2.557.19 5.662 2.336 7.32a2.11 2.11 0 0 0 1.447.417zm2.554-1.94c.821-.837-1.49.367 0 0zm4-.349c1.013-.861-.29-.743 0 0zm.448-.412c.89-1.318-.794-1.926-.792-.42-.014.191 1.335.908.792.42zm-9.787-.99c-.592-1.9.212-3.91.01-5.858.345-2.688 3.052-5.052 5.815-4.245 3.07.692 5.006 3.683 5.333 6.675.204 1.351.383 1.62.182.11-.347-3.284-2.578-6.825-6.155-7.068-3.168-.447-5.692 2.375-5.914 5.36-.307 1.64.417 4.58.733 5.027zm2.001-.377c-.388-1.064-.121.477 0 0zm4.254-.363c-1.918-1.635 2.945-2.075.695-1.885-1.068-.3.727-.46-.568-.644-1.204-.974-3.09-3.015-3.756-.396-.683.482-1.916 2.123-.199 1.188 2.076-1.046 1.826 2.745 3.828 1.737zm-2.641.192c.013-1.014-.843.616 0 0zm-1.217-1.104c1.21-.848-2.263.913-.127.119l.095-.089zm7.408-.315c-1.057-.25-1.27.228 0 0zm-1.813-1.538c-1.07-.372-3.026-1.411-.932-.228.299.1.604.272.932.228zm-6.258-1.848c.811-.916-1.184.883 0 0zm7.333.074c-1.413.234-3.493-1.903-3.83-1.804.759 1.07 3.537 2.04 3.83 1.804zm-.184-1.335c-1.102-.164-4.479-2.732-1.86-.75.591.312 1.21.586 1.86.75zm-6.877-.533c1.583-1.174-2.043 1.274 0 0zm-3.63 40.678c.686-3.792 1.932-7.506 3.865-10.849-1.58 3.456-3.005 7.23-3.663 10.85-.063-.002-.163.105-.203 0zm6.295-1.232c.051-.972.103-3.84.267-3.683-.25 1.411 1.07 4.362-.278 4.84-.154-.387.1-.766.012-1.157zm-4.022 1.033c.315-2.916.43-5.894 1.368-8.699-.604 2.899-.974 5.84-1.26 8.785-.032.057-.233-.029-.108-.086zm-14.47-2.459c-1.283.333-1.625-2.717-.685-.758 2.139 1.075 4.629.164 6.92.472 1.7.13 4.14.054 5.126-.691-1.56 1.934-4.497.663-6.656 1.037-1.568.004-3.137 0-4.704-.06zm-.301-.694c-1.433-2.257-1.005-5.54.287-7.713.767-1.404-1.317-5.626 1.275-4.81.445 1.493-.789 5.503.916 5.426-.39-2.287 2.005-.234 1.734-.035 1.415-1.326-1.2-4.854 1.463-4.974.351 2.308-.268 4.78 1.418 6.664.366 2.019 1.184 1.467 1.766-.064 1.106.848 1.217 2.733 2.52 3.618.226 2.837-3.112 1.885-4.876 1.926-2.168.016-4.337.066-6.503-.038zm.599-.257c-1.415-1.773-.831-4.83.125-6.612.315-.873-.473-4.26.468-3.442-.477 1.653.015 3.634 1.245 4.813-1.112-1.625-.963-4.722-1.428-5.744-1.218 1.453.48 3.936-1.262 5.183-.557 1.788-.282 6.173.852 5.802zm1.461-2.36v-2.377c0 1.425.049 4.346-.302 4.696.697-.557.092-1.587.302-2.32zm6.665 2.36c-1.31-.052-1.32.103 0 0zm-1.372-.713c.69-.619 4.494-.366 1.86-.683-.731.143-1.816-.288-2.323.22-.242.512.588 1.682.463.463zm-1.212-1.802c-.1.844.063 1.727.01.11zm4.883.955c.012-2.176-5.028-.98-3.062-.029.852-.008 2.803-.073.868-.067-2.874-.08 1.96-1.742 1.932.087.044.025.606.566.262.009zm-5.538.188c.85-.045-.565-.614 0 0zm1.904-1.117c1.707-.406-1.591-1.948.015-.457.096.384-.876 1.486-.015.457zm-6.384-.164c-.64-1.23.244 1.696 0 0zm.501.327c-.09-1.888-.648.813 0 0zm4.307-.618c-.351-.906-.855.943 0 0zm.846-.225c.143-1.522-.376 1.076 0 0zm2.962-.22c-.532-1.348-2.151.725-.214-.021-.125.446.302.206.214.02zm-3.82-.418c-.518-.236-.172 1 0 0zm1.377-.198c.456-1.113-2.028-.382-.35-.424-1.132.349-.291.622.35.424zm-5.808-1.094c.114-.318-.34 1.616-.023.192l.015-.128zm3.34.77c.88-.961.614-2.568.215-.726-.024.146-.684.957-.215.725zm-1.902-.942c1.392-.693-1.376 1.028 0 0zm1.456.16c1.05-1.297.592-3.556.977-4.64.044 1.612.269 3.673 1.5 4.462-1.19-1.562-.815-3.498-1.578-5.117-.725 1.374.085 3.448-1.287 4.736-.071.124.524 1.174.388.56zm-1.138-.72c-.5-.582.4-1.296.244-.183.884-2.042-1.317-1.068-.735.24l.196.021zm.482-1.627c-1.142-.832-1.179.878 0 0zm1.81-3.353c1.076-1.501-1.975-.076 0 0zm-.37-.073c-.361-.922 1.243.23 0 0zm-3.774-.57c.812-1.23-2.154.211 0 0zm15.817 10.472c.125-2.118.245-4.271.79-6.328-.348 1.969-.612 5.953-.793 6.68l.01-.352zm-.53-4.765c.277-1.233.985-2.202.226-.427zm19.947-8.861c-2.494-1.66-.622-5.127-1.209-7.577.4-2.463-1.423-7.212 2.351-7.381 2.227.57 6.256-1.262 6.79 1.985.064 3.666.087 7.35 0 11.022-.224 3.365-4.553 1.61-6.734 2.054-.4.003-.814.034-1.2-.103zm2.185-.344c-.952-.06-1.961.062-.424.023-.226.024 1.292-.018.424-.023zm3.62 0c-1.149-.058-2.39.058-.554.022.151-.01 1.647.024.555-.022zm-6.46-.745c1.194-.816-1.042-4.065.144-3.983-.097.58-.016 1.742.151.313-.077-1.716 0-4.932-.182-5.799-.211 2.11-.431-2.37-.363-.042-.01 2.92-.011 5.838-.017 8.757.396-.65-.023 1.378.266.754zm4.325.057c-.957-.069-.706.08.035.029zm3.953-4.945c-.104-.326.183-2.245-.341-1.065-.04-.988-.18-2.832-.12-.845-.47 1.438.88 3.94-.097 4.499-.25 1.004.647 2.514.616.588-.09-1.052.03-2.12-.057-3.177zm-1.783 4.53c-1.816-.035-.61.072.486.022l-.486-.021zm.863-.451c.704-2.515-3.51-.969-5.04-1.364-1.246-.418-2.778.492-1.146 1.447 2.025.14 4.087.062 6.125-.005l.061-.078zm-5.79-.364c-.929-1.93 1.538.82 0 0zm.266-.139c-.485-1.003-.216.5 0 0zm3.967.214c-1.134-1.286 2.248-.187.22.149l-.22-.15zm.594-.117c.18-1.306-1.613.551 0 0zm-3.087-3.48c.16-1.432-1.493.98-.085.311.27.721-.083.1.085-.312zm.435.372c-.411-1.802.683.194.315-.159-.077-1.218.653-4.41-.513-4.334-.188 1.498.069 3.002.198 4.493zm3.691-1.186c-.399-1.672-1.024 1.222-.554-.39 1.057.337.17 1.585-.18 1.2.511.95 1.336-.02.734-.81zm-2.086 1.101c-.32-1.329.302-4.336.227-1.616.038.786.029 2.875.01.864.56-1.142-.54-4.205-.474-1.503.108.44-.327 2.47.242 2.255zm.748.055c.974-.023.108-1.242 0 0zm-1.336-.12c.392-1.677-1.507.882 0 0zm1.371-.402c.527-.573.88-3.397-.096-3.808-.098 1.013-.554 3.124.096 3.808zm.1-.426c-.355-1.3.321-1.041 0 0zm-3.836-2.636c-.039-1.082-.032 4.734.01 1.617 0-.538.03-1.079-.01-1.617zm2.502 1.55c.51-1.106-.663-3.05-.654-.874-.23 1.144.685 3.281.654.874zm-.486-.263c-.125-2.752.799 1.556-.028.891-.055-.296-.016-.597.028-.89zm3.1.463c-.822-3.02-.897 1.539 0 0zm-4.728-.738c-.33-1.032 1.039-1.068.499.002.6-2.039-1.138-1.36-.67.228.01 1.15.217.465.175-.23zm-.834-2.42c-.402 1.31.048 2.327-.106.443v-.26zm6.308-1.744c.833-2.63-2.922-2.866-4.178-1.644-1.542.113-.292-.89-.474-.628-1.364-.06-4.151-.52-3.843 1.672.664-1.031 4.269-.469 6.206-.748 1.384-.193 2.39 1.017 1.87 2.018.336-2.073.487 2.18.428-.332 0-.112-.01-.227-.01-.338zm-5.857 1.188c-.835-.758-.47.379 0 0zm1.29-.058c.304-.652-.23-.043 0 0zm3.718-1.474c-.767-1.443-.837 1.363 0 0zm-5.547.067c-1.21-.248-.304.448 0 0zm2.653-1.8c-1-.158-.862.129 0 0z" style="fill:#a5d8da;stroke-width:1" transform="translate(1169.996 -818.2)"/><path d="M-1153.662 870.893c.534-2.887 1.207-5.757 2.192-8.526-1.917 1.207-5.08.01-5.072-2.448.13-2.32-1.673-3.994-1.099-6.295.29-1.546-2.278-3.428.364-3.768 1.682-.61 3.37 1.57 3.737 1.98 1.208-1.934.573-5.584 3.052-6.35 1.504 1.96 2.836 4.198 5.716 3.971 2.683.867 5.519-.353 6.971-2.709.55-1.382 3.625-.2 1.456-1.357-2.355.478-3.18 3.95-5.92 3.861-2.413-.332-5.398-.122-6.856-2.508-1.497-1.476-.299-3.086.297-4.25-2.645-1.806-4.55-4.926-4.121-8.215.189-3.83 2.671-7.625 6.534-8.565 3.755-1.248 8.381-.142 10.592 3.3 2.48 2.728 2.57 7.096.566 10.108-.099 2.75 3.81 5.05 1.789 7.771-.832 2.645 1.166 5.139.843 7.823-.16 2.572 1.41 5.823-.521 7.922-1.438.941-4.857 1.026-3.136 3.508.433 1.17 1.285 4.428.65 4.421-.56-1.619-.507-4.836-1.733-5.392-.251 1.437 1.582 5.028.851 5.35-.548-1.727-.463-4.243-1.625-5.42-1.026 1.57 1.015 3.762.787 5.642-.878-1.35-.614-4.006-1.64-5.64-.746-.666-2.157-.327-3.066-.378.25 1.112.551 4.805.256 1.807.347-2.39-2.606-3.142-2.638-5.304.371-1.83-.508-3.183-2.384-3.084-1.985-.45-2.862-3.267-2.967-4.29-.103 2.162.559 4.397-.392 6.466a45.285 45.285 0 0 0-3.102 10.793c-.053.084-.71.031-.38-.224zm17.146-7.36c2.538-.05 4.804-2.376 3.825-4.966-.36-3.99-.345-8.19-2.313-11.807-2.49-2.023-3.504 2.654-5.87 2.925-2.249.764-4.774.152-6.882-.676-1.52-.65-2.855-5.056-3.994-1.75-.617 1.99-1.832 4.202.625 5.352 1.317.94-1.717-3.535.781-3.397-.49-1.06-.561-3.814-.13-1.19.58 1.855.821-1.93.708.286-.142 2.24 3.135-.005 3.348 2.43.578 1.71 1.458 2.053 1.879 3.645 1.423 1.437 3.603 3.603 5.204 1.615.828-1.796.516-5.199.7-6.314.773 2.384.692-2.385 2.014-2.759-.738 1.229-1.596 3.53-1.463 4.832.369-.911 1.674-3.684.73-1.192-.642 1.22-1 4.742-.218 4.644.13-.874 1.043-2.094.423-.476-.526 1.56 1.72-2.258.491.082-.667.68-1.487 2.485-.063 1.076.975-1.039 1.469-.499.167.271-1.077.847-1.244 1.487-.146.242 1.156-1.344 4.727 2.47 2.23.347-1.255-.536-4.568 1.255-1.673.75.442-.07 2.794.43 1.156.336 1.07-.113 2.606 2.94 1.007.95-.83-.97-3.847-1.053-1.256-.093 1.232.944.934 1.446-.104.217-.73-.776-3.649-1.17-1.395-.105 1.102.423 2.058 4.265.945 1.593-.462-1.002-1.98-2.297-.574-.557.63 1.06.833 3.03.179.771-.693-1.655-2.787-3.43-4.525-3 .166 1.794-.34 3.517-.483 5.179 1.206.99 3.191.893 4.677.738zm-.514-2.8c-.48-.723-1.613-2.455-.406-.88.113.036.988 1.843.406.88zm3.135-.658c-.585-.752-.968-1.854-.035-.551.308.11.435 1.578.035.551zm-4.483-.286c-.689-.545-1.662-2.709-.372-.955.028.058.887 1.602.372.955zm-1.874-.73c-.338-1.596.447-.896.07.232l-.037-.124zm-1.08-4.404c-3.124.374-2.416-5.206.658-4.033 1.73.642 1.19 4.127-.659 4.033zm.714-.42c2.105-1.574-.265-4.904-2.275-2.816-1.073 1.453.505 3.96 2.275 2.816zm-1.09-1.101c-.197-.465-1.467-1.084-.23-.8.015.054.748.88.23.8zm.65-.37c.933-.717-1.954-.506.447-.637.073.236-.171.852-.446.638zm4.204-.55c.118-.934 2.45-3.834.92-1.573-.284.457-.604 1.364-.92 1.574zm1.136-.131c-.246-2.128 1.96.023 1.188-.31-.339-1.26-.94-.365-1.188.31zm-9.634-.098c-.428-1.595 1.58.102 0 0zm-7.508 10.069c1.131-.496 1.737-2.92 1.829-3.254-1.031-1.669.933.946.21-1.012-.701-1.762-2.258-.566-1.085.721.697 2.7-3.83 4.323-4.009 1.075-.566-3.335-.845 2.314 1.173 2.355.737.158 1.333.2 1.882.115zm9.563-.721c1.95-.108 1.861-3.501 2.105-3.664.32.87-.038 2.41.252.67.249-2.099-1.504-1.174-.676.372-.022 1.758-2.64 3.34-2.453.671-.254.457-.106 2.23.772 1.951zm-10.314-.348c-1.55-.029 1.6-.87.954-2.138.661-1.687-.717 3.254.32.799.677-1.005-1.035-3.492-.634-1.055.604 1.348-2.08 1.826-1.076 1.916-1.116 1.503-1.875-2.434-1.228.084.27.673 1.111.586 1.664.394zm12.438-.662c.476-.711-.383-.309-.184.07zm-.133-.63c-.03-.793-.555.723 0 0zm-8.781-1.086c.11-1.834.52-3.936-.346-5.617.06 1.661-.194 5.45.317 5.835l.017-.128zm-5.784-1.509c-.614-.35-2.101-1.458-.856-.129.267.12.566.163.856.13zm11.748-.83c-1.158-.34-3.813-1.685-3.855-1.681 1.135.805 2.375 2.202 3.855 1.682zm-10.458-.071c1.044-.183 2.051-1.407.482-.39-.219.098-1.695.858-.482.39zm7.857-.02c-1.554-1.077-1.713-.031 0 0zm-10.58-.301c.586-.729 3.696-1.841 1.253-.997-.358.278-1.917.215-1.253.997zm6.39-.438c-1.922-1.236-.556.83 0 0zm6.793-.275c-1.818-1.134 1.158.991 0 0zm-6.691-.083c-.03-1.307-3.395-2.444-1.407-.56-.34.375 1.561.955 1.407.56zm-.032-1.144c.566-1.43-2.967-3.28-2.2-1.009.626-.238 2.383 1.86 1.642.346.256.008.811 2.005.558.663zm-6.056-.387c1.055-1.567-1.809 1.724-.064.054zm11.37.015c-.386-1.047-.869-1.443-.164-.193.072.319.681 1.203.164.193zm-8.292-.863c-.412-.923-1.297-1.985-.356-.455.012.083.7.955.356.455zm-1.601-1.772c-.887-.155-3.84.014-1.455-.003.484-.038.976.112 1.455.003zm6.633-.25c-1.017-.987-1.672.588 0 0zm-7.908-.165c3.028-.017-2.435-.574-1.294.044.433.002.861-.138 1.294-.044zm9.545-.34c-.573-.961-4.405-.564-3.321-.095 1.102.043 2.237-.138 3.32.095zm5.792-1.482c1.607-.77 4.407-3.64 4.57-3.976-2.628.414-4.433 2.983-7.204 2.979-1.287.417-3.936-1.164-3.905-1.316 1.628 1.059 3.742 1.196 5.569.748 1.593-1.082 5.022-2.284 5.471-3.32-2.354-.84-4.06 1.995-6.433 1.94-.971.52-4.082-.655-3.384-.568.904.406 4.802.116 1.936.332-.71.202 2.455.003 3.143-.505.836-.381 3.996-1.758 3.041-2.197-1.087.952 1.017-1.567-.597-.424-1.798 1.99-4.645 3.694-7.364 2.35-.866-1.131-2.911-2.192-3.032.063.135 1.99 2.198 3.802 4.258 3.64 1.39-.43 2.523 1.247 3.93.254zm-4.093-.805c1.614-.188 1.43.193 0 0zm.745-.844c-1.46-.52-3.763-1.246-3.817-3.05 1.118 2.334 4.044 2.71 6.335 2.669-.681.423-1.745.673-2.518.38zm4.685-3.03c.948-.701 2.595-1.545.802-.322-.255.13-.503.313-.802.322zm6.593 2.667c.95-2.055-1.174-4.903-2.11-6.02-2.039 1.578.734 4.728 1.237 4.837.204-.932-.01-2.405.306-.67.219.808-.047 2.58.65.877-.089.349-.75 2.376-.083.976zm-10.394-2.065c2.792-.206 4.65-2.594 6.765-4.14 2.654-2.291 3.827-6.324 2.11-9.516-1.583-2.914-4.477-5.356-7.938-5.344-1.862-.287-5.145.926-5.723 1.56 3.46-1.412 7.406 1.24 8.271 4.685.643 1.372.485 4.812.826 5.013 1.13-3.79-.26-8.81-4.268-10.241-2.51-.667 1.8-.01 2.22 1.035 1.85 1.396 2.227 3.413 2.6 5.544.195 2.476-.382 5.002-1.561 7.19 2.28-2.304 3.173-5.745 3.096-8.91-.205-1.192-.355-2.308.162-.585.694 3-.83 5.917-2.024 8.573-.542.8-1.839 1.842-1.335 1.998-.912.608-2.587 1.268-.606.545 2.556-1.625 3.834-4.576 5.016-7.229.447-.91-.376-4.128.341-3.52 1.028 2.739-.676 5.59-1.529 8.143-1.426 1.979-3.324 2.72-5.418 3.834-2.828 1.099-4.745-1.857-7.099-2.851-2.11-1.691-2.256-4.57-2.521-7.053-.654 3.01.536 6.263 3.006 8.113 1.473 1.708 3.432 3.354 5.855 2.96-.94-.086-3.6-.071-1.303.244.353.012.705-.022 1.057-.048zm-1.259-.585c-1.11.22-4.033-2.192-1.766-.814-.827-.694-3.295-2.61-.868-1.287 1.316 1.713 2.916 1.983 5.034 1.916-.74.299-1.61.277-2.4.185zm-2.328-1.935c-1.061-.518-.996-.104 0 0zm.551.548c-.947-1.154.776.422 0 0zm7.877-5.667c.613-1.499.076-4.912.016-5.268.623 1.686.452 3.567-.016 5.268zm2.168-.964c.22-1.215.77-2.173.212-.42.04-.117-.356.89-.212.42zm-4.94 8.268c1.669-.945-1.138.437 0 0zm-5.133-.138c-.418-.947-.707-.2 0 0zm9.227-.714c.326-.957-.65.276 0 0zm-5.009-.4c3.054-.993-3.27.724 0 0zm5.058-.61c.012-.912 2.574-3.68 1.427-1.331-.558 1.007-.207 1.625.114.263.548-.798.67-2.746-.281-1.056-.472.538-1.687 1.313-1.26 2.124zm-6.071-.556c1.418-.04 3.198-2.657 2.734-2.929-.373 2.01-4.339.542-2.697 1.838-1.53.75-4.415-.221-4.987-1.519.042-.997-1.254-2.304-.834-.472.642 2.223 3.576 4.168 5.784 3.082zm5.366-1.615c.85-.795 2.04-4.017.632-1.362-.467.591-2.504 3.276-.855 1.594zm-.25-.394c.484-.696 1.424-2.02.336-.646-.482.595-1.255 2.105-.336.646zm-11.499.017c-1.717-1.877-1.5-5.915-1.286-7.426-.13-2.904 2.638-5.787 5.627-5.032 3.599.74 5.463 4.55 5.674 7.934.12-1.155-.423-3.984-1.574-5.422-1.768-2.757-6.083-3.86-8.586-1.476-2.64 2.626-2.332 6.871-.923 10.03-.025.537 2.119 2.422 1.068 1.392zm.147-.5c-.734-.636-1.267-4.21-1.012-1.638-.098.386 1.968 3.336 1.012 1.639zm3.838-.058c.82-.837-1.49.367 0 0zm4-.349c1.013-.862-.29-.743 0 0zm.448-.412c.89-1.318-.794-1.926-.792-.42-.014.191 1.335.907.792.42zm-7.786-1.367c-.388-1.064-.122.477 0 0zm4.254-.363c-1.918-1.635 2.945-2.075.695-1.885-1.069-.3.727-.46-.568-.644-1.204-.974-3.09-3.015-3.756-.396-.683.482-1.917 2.123-.2 1.188 2.077-1.045 1.827 2.744 3.829 1.737zm-2.642.192c.013-1.014-.842.616 0 0zm-1.703-.727c2.042-.62-1-.988-.225.157l.105-.03zm-1.674-.42c-.042-1.072-.366-1.306 0 0zm9.57-.272c-1.059-.25-1.271.228 0 0zm-.673-1.345c-1.828.18-4.723-2.26-4.713-2.632.489 1.865 4.7 2.893 4.713 2.632zm6.74-1.348c-.389-1.95-.341.34-.08.656l.054-.358zm-14.069.301c1.634-1.235-1.35.771 0 0zm5.666.073c-.733-.43-.695-.147-.016.044zm-6.431-.64c1.071-.342 2.44-2.419.806-.636.001.075-1.532.91-.806.636zm8.768-.268c-1.731.314-4.578-2.003-4.786-2.23 1.072 1.482 2.978 2.304 4.786 2.23zm-7.738-1.978c1.157-.815 1-.935-.132-.052-.95.621-1.386 1.074.132.052zm6.27.32c-.95-.161-3.552-2.332-1.616-.693.306.416 3.402 1.419 1.617.693zm-9.964 40.375c.69-3.796 1.961-7.496 3.853-10.863-1.49 3.51-3.045 7.06-3.594 10.858l-.103.064zm6.296-1.121c.047-1.01.13-3.89.25-3.792-.24 1.338 1.104 4.496-.294 4.734-.067-.32.108-.622.044-.942zm-4.022.973c.321-2.93.43-5.922 1.368-8.742-.593 2.9-.958 5.842-1.259 8.785l-.08.003zm-14.47-2.502c-1.37.25-1.702-2.76-.574-.699 2.288.945 4.836.168 7.232.377 1.459.45 4.05-.236 4.643-.608-1.163 1.87-3.48.658-5.27.987-2.01.007-4.021.018-6.03-.057zm-.263-.69c-1.532-2.257-1.043-5.681.365-7.788.348-1.389-1.192-5.453 1.112-4.727.629 1.931-.862 4.416.94 5.96-1.006-2.166 2.017-1.274 1.71-.634 1.305-1.22-.983-5.867 1.683-4.424-.013 2.161-.417 4.348 1.236 5.98-.068 1.243 1.149 2.562 1.127.642 1.884-1.574 1.371 2.24 2.855 2.908 1.488 2.637-2.64 2.106-4.169 2.124-2.286.021-4.574.03-6.858-.042zm.56-.26c-1.414-1.774-.83-4.832.126-6.613.315-.873-.473-4.26.468-3.442-.48 1.653.018 3.628 1.24 4.812-1.181-1.6-.951-4.706-1.386-5.739-1.17 1.48.367 3.959-1.292 5.228-.705 1.772-.194 6.022.844 5.753zm1.478-2.379c-.02-1.321 0-3.03-.051-.74.278.953-.283 3.15-.151 3.114.65-.604-.05-1.633.203-2.374zm.419 1.794c.911-.625.619 1.18.73-.639-.225-.955.098-4.955.156-1.893.862 2.273 1.454-3.76-.85-1.904-.321 1.16-.138 4.13-.036 4.436zm.063-.308c-.407-.75.926.381 0 0zm.982-2.088c.636-.895.01 1.108 0 0zm-.07-1.585c-1.35-1.122 1.368.026.024.095zm.62 4.168c-.447-1.555-1.136 1.583.014.172l-.01-.13zm-.62 0c.78-1.332.347 1.392 0 0zm5.255.397c-1.311-.052-1.32.103 0 0zm-1.372-.713c.69-.619 4.494-.366 1.86-.683-.731.143-1.817-.288-2.324.22-.242.512.589 1.682.464.463zm-3.262-.993c-.36-2.058-.806 2.016-.016.118l.034-.07zm2.05-.81c-.101.846.062 1.728.01.11zm4.882.956c.02-2.187-5.044-.983-3.061-.03.852-.007 2.803-.073.868-.067-2.874-.08 1.96-1.741 1.932.088.044.025.606.566.261.009zm-5.537.188c.85-.044-.565-.615 0 0zm1.895-1.102c1.808-.442-1.58-1.879.053-.563.067.69-1.35 2.075-.053.563zm-6.35-.612c-.692.444.462 1.515 0 0zm.476.76c-.09-1.888-.648.813 0 0zm4.307-.618c-.613-1.117-.963.955 0 0zm.846-.226c.143-1.52-.377 1.077 0 0zm2.89-.007c.12-1.678-2.472.554-.247.057l.126-.029zm-3.748-.63c-.518-.236-.172 1 0 0zm1.372-.176c-.02-1.943-2.49.907 0 0zm-5.803-1.116c.114-.318-.34 1.616-.023.192l.015-.128zm7.94.978c.492-2.194-1.986.481 0 0zm-4.6-.209c.88-.96.614-2.567.214-.725-.024.146-.683.956-.214.725zm-.446-.78c1.038-1.269.614-3.605.96-4.596.077 1.456.326 4.006 1.522 4.286-1.375-1.455-.702-3.515-1.59-4.986-.386 1.599-.379 3.484-1.17 5.119-.15.216.505.688.278.176zm-1.139-.721c-.502-.583.4-1.295.256-.187.94-2.14-1.292-1.093-.75.268l.197.014zm.403-1.483c-.391-1.207-1.69.657 0 0zm2.095-3.535c.248-1.918-2.03.647 0 0zm-.575-.035c-.362-.922 1.243.229 0 0zm-3.87-.547c1.24-1.024-2.14-.108-.018.003zm15.911 10.517c.12-2.158.26-4.343.782-6.447-.34 1.997-.635 6.22-.8 6.92.01-.157.011-.315.018-.473zm-.528-4.834c.277-1.232.985-2.201.226-.426zm-.959-1.78c.56-.883 2.055-3.645.835-1.137-.138.147-.834 1.485-.835 1.137zm20.906-7.08c-2.493-1.66-.621-5.127-1.208-7.577.4-2.463-1.426-7.214 2.35-7.382 2.226.573 6.256-1.259 6.789 1.987.062 3.666.087 7.35 0 11.021-.225 3.366-4.553 1.611-6.735 2.054-.4.003-.813.036-1.198-.104zm2.184-.344c-.952-.06-1.96.061-.423.023-.226.024 1.292-.018.423-.023zm3.621 0c-1.15-.059-2.391.058-.555.021.152-.009 1.648.024.555-.021zm-6.461-.746c1.195-.815-1.04-4.064.145-3.982-.167.548.032 1.765.15.313-.075-1.716 0-4.932-.181-5.799-.212 2.11-.433-2.37-.365-.042-.01 2.919-.01 5.838-.016 8.757.397-.65-.023 1.377.267.753zm4.325.058c-.957-.07-.705.08.035.028zm4-5.53c-.437-2.572.985-5.982-1.102-7.949-1.523-.518-3.877 1.505-4.148-.011-1.076-.409-3.918.552-3.093 1.218 1.939-.018 4.062-.223 6.096-.155 2.74-.586 1.59 2.991 1.624 4.569.323 2.307-.18 4.889.216 7.05 1.039-.854.025-3.364.408-4.723zm-1.83 5.116c-1.815-.036-.61.07.487.02l-.486-.02zm.741-.383c.772-2.906-3.7-.723-5.228-1.558-2.125-.435-1.565 2.46.258 1.638 1.656-.024 3.32.106 4.97-.08zm-5.701-.47c-.769-1.335.994-.049.424.212zm.396.114c-.076-.946-.844-.108 0 0zm3.881.009c-1.162-1.326 2.245-.208.208.142l-.107-.073zm.584-.129c.075-1.4-1.558.566 0 0zm.954-1.21c-1.913-.305-5 .473-6.213-.541 2.276-.324-2.062-.22.252.611 1.957.02 3.973-.003 5.96-.07zm.062-3.137c-.486-1.502-.96 1.291-.456-.37 1.276.895-1.128 1.552-.038 2.475.028-1.248.94 1.127.639-.779-.042-.44.146-.932-.144-1.326zm-4.17 2.544c.34-.941-.703-.376 0 0zm-.285-.388c-.389-.378.066.734 0 0zm1.077.125c.26-1.924.063-3.897.122-5.844-1.388.8-.341 3.011-.62 4.489.01.701-.017 1.44.498 1.355zm-.441-1.451c.171-1.453.685-.186.127.326zm-2.29 1.274c2.186.381.642-3.273 1.166-4.593.09-1.837-1.023-1.138-.674.231.2 1.275-.378 4.195-.491 4.362zm.402.01c.502-.57.125.26 0 0zm3.12.074c-.58-.491-.436.42 0 0zm.49-.256c-.119-.926.015-4.049.206-3.48.17.685-.022 2.861.204 1.009.291-1.295-.878-2.639-.582-.587 0 .652-.271 3.566.172 3.058zm.363.103c.213-1.55-.619.746 0 0zm.352-.12c.989.878.368-1.215.08-1.485 1.218-.727.112-5.333-.224-2.684-.115 1.272-.137 3.969.145 4.168zm.202-1.654c-.353-1.297.318-1.043 0 0zm-3.57 1.272c.157-1.284 1.127 1.163.69-.882-.064-1.867-1.158 2.04-.69.882zm1.81.191c1.287-.142-.605-2.165-.14-.094.01.241.128-.07.14.094zm.425-2.548c.511-1.107-.663-3.051-.653-.875-.231 1.144.685 3.281.653.875zm-.486-.264c-.125-2.752.8 1.556-.028.891-.055-.296-.016-.597.028-.89zm3.115.475c.067-1.613-1.651-.483-.247.327.207.37.662-.007.247-.327zm-4.742-.75c-.33-1.032 1.038-1.068.498.002.595-2.054-1.128-1.37-.668.23.01 1.15.215.458.173-.232zm3.847-2.211c-.479-.918-1.3.67 0 0zm-2.685-.24c.904-.435-1.607.223 0 0zm-1.642-.273c.333-1.348-1.453.381 0 0zm1.386-.31c.305-.652-.23-.042 0 0zm3.121-1.165c1.964-.332-1.488-1.37-2.238-.88-1.302.04-3.562-.018-3.573.2-1.595 1.086 2.103.768 2.843.785.99-.002 1.982-.015 2.968-.105zm-4.895-.272c-.75-.68.588.358 0 0zm2.599-1.77c-1-.158-.862.129 0 0z" style="fill:#dfa4a4;stroke-width:1" transform="translate(1169.996 -818.2)"/><path d="M-1153.64 870.928c.557-3.043 1.215-6.103 2.393-8.968-.968 1.128-2.649 1.082-3.842.344-1.067-.46-1.52-1.623-1.476-2.728-.128-.625-.239-1.29.028-1.896-.455-.528-1.199-1.042-1.19-1.63.219-.561.01-1.093-.135-1.662-.228-.729.82-1.1.346-1.585-.433-.725-1.033-1.4-1.256-2.221.24-.94 1.434-.436 2.138-.602.915-.185 1.894.108 2.294 1.006.263.316.89 2.114.887 1.344.516-2.174.878-4.475 2.011-6.432.261-.72 1.062-.931 1.296-.102.804 1.369 1.826 2.8 3.33 3.423.71.253 1.542.215 2.176.054 1.032.564 2.242.763 3.348.271 1.08-.307 1.9-1.176 2.757-1.79.752-.612 1.035-1.554 1.928-1.983.493-.203 1.776.999.92.001-.365-.635-1.157-.808-1.593-.157-1.301 1.316-2.516 3.018-4.403 3.488-.9.348-2.021.276-2.816-.327-1.11-.024-2.406.315-3.21-.678-1.074-1.01-2.113-2.247-2.367-3.723.496-.303.305-1.234 1.294-1.301.95-.151-.603-.699-.786-1.198-1.654-1.404-3.075-3.25-3.296-5.477-.385-2.904.49-5.948 2.331-8.218 1.725-1.698 4.12-2.74 6.527-2.91 2.25-.18 4.594.403 6.387 1.8.96.942 2.022 1.912 2.56 3.137.33.72 1.036 1.377 1.03 2.267.312 2.19.197 4.664-1.236 6.464-.1 1.178.611 2.222 1.035 3.283.39.668 1.08 1.268 1.204 2.154.337 1.227.01 2.67-1 3.499.808 2.332 1.316 4.794 1.447 7.257-.127 2.196.788 4.424.073 6.57-.83 1.666-2.876 1.978-4.53 2.27.97 2.276 1.403 4.735 1.859 7.156-.717-.129-.415-1.345-.712-1.92-.299-1.41-.625-2.816-1.067-4.19-1.166-.398-.457.713-.322 1.321.428 1.56.808 3.2 1.014 4.771-.376-.531-.382-1.546-.586-2.268-.255-1.35-.571-2.756-1.095-3.996.91.309 1.088-.366.432-.813-1.614-.05-3.337-.396-4.648-1.363-.474-.555-.935-1.118-1.67-1.081-1.009-.646-.653-2.01-.572-3.013-1.035-.151-2.183-.04-2.969-.849-.574-.516-1.58-.725-1.871-1.441.334-.63-.336-1.02-.19-1.587-.039-.305-.121-1.47-.497-1.29.136 2.548.742 5.295-.58 7.65-1.335 3.225-2.212 6.62-2.8 10.057-.179-.047-.48.136-.33-.189zm16.993-7.352c1.32-.232 2.87-.61 3.676-1.767 1.027-1.796-.01-3.859.093-5.782-.147-3.207-.627-6.497-2.137-9.37-.61-.055-1.33-1.194-1.858-.417-.735.494-1.071 1.53-1.911 1.984-.941.802-1.95 1.549-3.208 1.746-.802.299-1.669-.043-2.426-.338-.438.895-.679-.497-1.46-.003-1.269-.074-2.3-.832-3.074-1.791-.733-.644-1.16-1.56-1.63-2.363-1.545 1.572-1.747 3.91-2.339 5.936 1.037-.01 1.558 1.05 2.042 1.81.04-.775.301-1.607-.346-2.202-.502-.56-.44-1.482.415-1.603 1.14.279.137-.852.13-1.468-.347-.349-.016-2.184-.02-1.022.091.671.22 1.283.282 1.35.04.241.262 1.18.119.157.229 1.356.387.213.455-.544.072-1.229.288.41.108.846-.524.953.564.634 1.176.692.827-.133 1.689.15 1.985 1 .354.933.812 1.822 1.23 2.728-.185-1.097.826-.423.306.172-.48-.015.236 1.109.622 1.29 1.115.295 1.407 1.667 2.37 2.099.227-.895 1.019.502 1.375.143.72-.026 1.12.916 1.913.755.603.786 1.035-.363.648-.9.284-.888-.227-1.8-.176-2.725-.228-1.394-.066-2.846-.34-4.21.199.167.32 1.964.4.979.259-1.337.7-2.734 1.576-3.791-1.008 1.72-1.58 3.717-1.52 5.719.125-1.105.749-2.559 1.237-3.215-.846 1.98-1.48 4.195-.806 6.324.424.26.814-1.17 1.254-1.564.694-.998-.224.688-.433.997-.278.634-.93 1.034-.994 1.73.635-.846 1.697-1.136 2.387-1.925-.511 1.139-2.028 1.475-2.364 2.732 1.737-.43 3.835.013 4.758 1.675.385.887-.54-.515-.863-.696-.814-.596-1.935-1.017-2.887-.797.355.145 1.283.395 1.742.822.394.256 1.406 1.524.436.675-.92-.897-2.126-1.479-3.425-1.48 1.422.837 2.173 2.467 2.514 4.023-.596-1.735-1.557-3.675-3.458-4.202-.662.281-1.346-1.14-1.668-.391.201 1.53-.08 3.108-.297 4.62-.375.862-.689.641-.23-.138.316-1.331.094-.164-.86-.398-1.089-.146-.1.687.255 1.013 1.328.98 3.125 1.279 4.759 1.147.155-.02.312-.043.467-.062zm1.04-2.807a8.32 8.32 0 0 0-1.239-1.983c.84.667.629.656 1.116 1.345.196.291.892 1.909.517 1.424l-.395-.786zm1.647-.862c-.08-.395-1.22-1.734-.392-.835.398.132.988 1.654.582 1.2l-.19-.365zm-4.6-.383c-.23-.41-1.121-1.369-.945-1.501.586.397 1.068 1.368 1.208 1.863l-.264-.362zm-1.678-.981c-.141-1.291.262-.26.06.398-.036.647-.041-.197-.06-.398zm2.867-1.324c.704-.738 1.985-.9 2.9-.54-.03-.065-1.362-.077-1.9.207-.35-.004-1.904 1.111-1 .333zm-.237-1.398a5.98 5.98 0 0 1 .752-2.17c-.176.778-.406 1.553-.754 2.273v-.103zm-3.665-1.172c-.596-.325-1.653-.105-1.957-.789.081-.925-.247-1.929.166-2.79.834-.58 1.954-.142 2.913-.279.78.558.26 1.653.32 2.465.214.908-.713 1.022-1.256 1.462-.075.013-.122-.045-.186-.07zm.71-.424c1-.347.483-1.596.662-2.393.312-.993-.81-.83-1.436-.838-.68-.058-1.971-.182-1.77.87.096.688-.308 1.603.158 2.15.623.205 1.376.5 2.013.431l.372-.22zm-1.165-1.198c-.107-1.186-1.382.155-.56-.711-.234-.427.24-.292.467.393.518-.133.177.863.093.318zm.909-.482c.65-.922-.498.249-.82-.286-.182-.91.294.67.858-.166.25-.896.216 1.121-.12.536l.083-.083zm4.439-1.254c.41-.898.939-1.52.207-.278-.274.647-.891 1.622-.265.392zm-8.993.556c-.228-.751.98-.788.522-.016-.04.24-.56.337-.522.016zm-7.053 10.554c1.077-.335 1.637-1.334 1.98-2.34.127-.936-.441-1.802-.617-2.698-.818-1.101.287-.125.253.552.262 1.144.054-.129.038-.57.09-.773-.39-1.444-1-1.867.633-.086 1.09 1.382 1.003.196-.016-.476-1.569-.871-1.107-.22.433.499.745 1.415-.18 1.525-1.161-.206-.193.515-.027 1.072.276 1.034.097 2.326-.853 2.976-.618.46-1.777.615-2.337.017-.519-.973-.95-2.035-.822-3.157-.703.218-.07 1.405-.107 2.024-.046 1.829 2.222 2.934 3.775 2.49zm1.583-2.153c.05-.454-.54-1.868 0-.79.066.094.127 1.483 0 .79zm8.606 1.01c.951.205 1.151-.728 1.254-1.457-.057-1.028.47-2.39-.54-3.084-.373.416-.061 1.436-.324 2.066-.217.844-.361 2.34-1.558 2.137-.432-.68-.427-1.491-.66-2.24-.192.89-.38 2.148.484 2.734.447-.056.895-.106 1.344-.156zm-.014-.178c.25-.252.436-1.785.738-1.067-.388.045-.634 1.023-.275.82.288-.11.191-.76.592-1.258-.25.512-.221 1.866-1.055 1.505zm.618-1.538c-.164-.818.906-1.007.323-.517-.026.18-.144.875-.323.517zm.438-1.746c-.72-.997.315-.285 0 0zm-12.195 3.11c1.14-.397 1.308-1.818 1.07-2.822-.474-.926-.76-1.183-.625.025-.15.806-.154 1.761-.911 2.27-.436.008-1.605-.883-.76-.142 1.21.107.08.861-.152.477-.498-.556-.85-1.22-.954-1.965.01.832.276 1.765.842 2.391.501-.065 1.046.06 1.49-.234zm-.965.124c.399-.56 1.63-.431.448-.064-.13.007-.359.105-.448.064zm1.171-.788c.253-.65.342.556 0 0zm.376-.752c.187-.444.267-.982.24-.08-.201-.282-.03.516-.24.08zm2.868-1.847c.182-1.557-.141-3.12-.163-4.682-.402-1.177-.409.434-.394.923.09 1.663-.134 3.37.17 5.003.193 1.287.332-.992.387-1.244zm7.438 1.278c.678-.25.564-1.404.351-1.823-.98-.744-1.595-1.965-2.75-2.531-.827.256.405.936.644 1.284.619.356-.895-.047-1.196-.04-1.295-.524-2.392-1.528-3.784-1.793-.197.772 1.143.624 1.509 1.179.659.246 1.763 1.1.4.674-.637-.267-1.351-.688-1.882-.968-.248.85.977 1.124 1.533 1.499.3.28 1.856.491 1.306.815-.459-.604-1.435-.446-2.013-.98-1.044-.778-.637.592.142.745.695.326 1.258.89 1.929 1.205 1.185.18 2.506.087 3.485.872.12.01.215-.105.326-.138zm-11.204-.123c.53-.143.75-1.813.099-1.36-.75.54-1.476.286-.32-.135.544-.334 1.453-.58 1.57-1.275-1.012.144-1.839 1.232-2.894 1.106.393-.446 1.238-.603 1.735-1.06 1.088-.317.788-1.33-.186-.564-.638.371-1.348.598-2.037.858.59-.921-1.442-.034-.52-.526.653-.44 1.35-.831 2.023-1.204.08-.787-1.204-.232-1.61.048-.464.533-1.937.307-1.598 1.17 0 .589.556 1.322 1.307 1.274.861.3-1.186-.114-.043.562.736.404 1.268.542.876.97.344.414 1.15.382 1.597.136zm1.865-2.632c-.332-.84-.671.498 0 0zm.919-1.482c-.598-.693-1.393-1.32-2.281-1.57.312.565.758 1.213.915 1.612.174.722 1.141-.064 1.432.592.086.462.16-.736-.067-.634zm-6.03.374c.489-.186-.68-1.154.459-1.347 1.07-.38-.186-1.17-.556-.353-.603.352-1.014 1.51-.166 1.773.088-.022.174-.05.262-.073zm4.015-.874c-.683-1.054-1.212-2.286-1.97-3.244.05.246.66 1.21.937 1.706.505.737.882 1.648 1.47 2.28l-.437-.742zm2.136-.132c-.01-1.02-.835-1.912-1.647-2.403-.668-.357-1.064 1.064-.747 1.272.957.04 1.73.874 2.323 1.53.167.444.09-.3.072-.399zm5.61.133c-.62-1.412-1.453-2.758-2.036-4.171-.796-.766-2.047-.23-3.044-.358-.652-.29-1.692.655-.471.43 1.062.047 2.19-.115 3.212.058.8.495.87 1.594 1.39 2.344.39.61.508 1.491 1.027 1.955.207.063-.09-.208-.079-.258zm-2.53-.707c0-.745-1.496-.486-.763-.27.168.013.876.656.764.27zm-7.667-2.54c-.858-.302-1.997-.077-2.963-.136.38.387 1.306.087 1.895.187.314-.047.86.099 1.068-.051zm6.739-.336c-.18-.293-2.209-.177-1.009.12.265-.077 1 .157 1.009-.12zm-6.533-.079c-.794-.564-2-.162-2.962-.283-1.037.453.703.35 1.144.344.578-.04 1.347.082 1.818-.061zm13.455-1.622c1.899-.764 3.149-2.476 4.646-3.766.541-.509 1.263-.267 1.587.35.613.967-.012-.887-.543-.843-1.384-.414-2.558.785-3.706 1.395-1.482.923-3.132 1.704-4.923 1.58a4.738 4.738 0 0 1-2.764-.892c1.505.795 3.273.99 4.892.436 1.942-.62 3.49-2.083 5.366-2.808 1.245.165.835-.478-.091-.753-.21-.921-.928-.394-1.186.022-1.83 1.08-3.823 2.215-6.003 2.186-.415-.014-2.058-.334-1.534-.323 1.652.367 3.312.003 4.854-.617 1.19-.5 2.286-1.252 3.252-2.104-.096-.85-1.553.983-.857-.033.556-.252.753-1.356-.058-.622-1.099.482-1.5 1.82-2.667 2.236-1.55.806-3.508 1.251-5.106.324-.655-.33-1.294-.872-1.443-1.612-.527.126-1.706.582-1.246 1.102-.704.363-.363 1.043-.01 1.654.7 1.22 1.716 2.444 3.146 2.774.764-.309 1.615-.53 2.31.064.633.325 1.402.478 2.082.25zm-2.878-1.859c-1.473-.473-3.087-1.096-3.968-2.444-.258-.854-.01-1.115.192-.137.66 1.134 2.01 1.693 3.186 2.177.656.44 1.421.383 2.175.38-.516.132-1.07.178-1.585.024zm11.135-.193c.85-1.547-.052-3.27-.981-4.545-.437-.712-.642-1.542-1.006-2.27-.023.912-.649 1.64-.988 2.454.25-1.062.972-2.122.883-3.204-.556.946-1.649 1.59-2.16 2.557-.26.662.626 1.038.895 1.536a4.082 4.082 0 0 1 1.912 2.901c.308.617.738 1.193.83.838-.474 1.173.449.141.615-.267zm-9.89-1.92c1.555-.311 2.81-1.33 3.785-2.536 1.96-1.233 3.785-2.858 4.818-4.954.684-1.532.66-3.28.452-4.903-.464-1.97-1.962-3.473-3.247-4.96-2.3-2.005-5.615-2.324-8.486-1.643-1.042.342-2.143.748-2.978 1.453a6.268 6.268 0 0 1 4.616-.18c2.213.981 3.791 3.08 4.245 5.443.45 1.47.341 3.018.401 4.533-.26-2.681-.401-5.685-2.297-7.784-1.157-1.367-2.874-2.417-4.719-2.205-1.794-.164-3.597.808-4.384 2.444-.733 1.288-1.241 2.746-1.067 4.249.169 2.13.551 4.482 2.095 6.07.25.244 1.694 1.327 1.1.683-2.064-2.498-2.667-5.973-2.178-9.118.246-2.05 1.848-4 3.996-4.131 2.656-.331 5.08 1.658 6.13 3.967.84 2.157 1.165 4.484 1.203 6.79 1.216-2.952.986-6.545-.793-9.226-1.015-1.342-2.52-2.358-4.208-2.586 2.59.03 4.674 2.225 5.368 4.598.635 1.677.532 3.51.43 5.262-.31 1.54-.734 3.08-1.621 4.398 1.418-.997 2.098-2.832 2.64-4.459.693-1.947 1.104-4.106.443-6.118 1.114 2.134.274 4.614-.492 6.72-.728 2-1.712 4.322-3.907 5.031-.913.317.897-.087 1.134-.37.051.106-.923.68-1.342.792-1.464.227-.578.192.398.147 1.125-.353 2.046-1.308 2.733-2.246 1.264-2.025 2.894-4.005 3.03-6.496.157-.86-.115-1.77-.12-2.588.404 1.475.75 3.042.152 4.518-.36 1.547-1.48 2.678-2.377 3.92-.659 1.054-1.323 2.132-2.45 2.742a6.05 6.05 0 0 1-3.62.898c-1.083-.43-.334.215.36.254.86.026 1.674-.328 2.473-.618-1.43.779-3.554 1.253-4.795-.11-1.036-1.138-2.75-1.353-3.773-2.521-1.865-1.875-2.081-4.678-2.186-7.18-.4 1.665-.256 3.461.27 5.083.532 1.411 1.548 2.577 2.735 3.471.366.71 1.044 1.125 1.597 1.628.676 1.65 2.828 2.238 4.435 1.838zm-2.079-.965c-1.059-.02-1.534-1.087-2.264-1.618-.455.018-1.763-1.282-1.062-.792.354.535 1.377.528 1.507.647a2.805 2.805 0 0 0 2.574 1.742c.373.13 2.232-.158 1.33.055-.68.045-1.406.068-2.085-.034zm5.691-2.428c1.363-.912 2.39-2.286 2.927-3.852.44-.975-.243.903-.405 1.257-.498 1.144-1.414 2.149-2.522 2.595zm1.128-7.454c-.019-1.579.09.631 0 .56v-.56zm-4.965 7.766c1.937-.607 3.248-2.576 3.058-4.598.048-.812.037-1.622-.06-2.43-2.046-.048-4.182-.422-5.767-1.817-.593-.48-1.467-1.08-1.435-1.848-.27 1.086-.742 2.348-1.798 3-.954.11-.658.812-.447 1.487.2-.146.916-.789 1.62-.473.713-.411 1.653.83.492.568-.677-.066-1.38-.155-2.028.112.418 1.661.165 3.74 1.71 4.866.712.768 1.798 1.014 2.679 1.546.699-.008 1.391-.037 1.976-.413zm-2.863-1.275c-1.13-.52.46.143.88.034.621.299 1.17-.672 1.626-.264-.796.315-1.653.581-2.506.23zm-.207-.874c-.723-.598.494-1.22.374-1.931.583.567-1.008 1.19-.244 1.782.537.151.143.481-.13.149zm.775-.069c.101-.783 1.057.085 0 0zm-2.334-1.772c-.265-.257-.36.12-.288-.3-.521.66.336-.685-.624.03-.771.148.542-.385-.315-.716-.613-.67.796.723 1.292.203.533-.22 1.672.165 1.032.522-.149.378-.807.483-1.097.26zm4.487.033c-.274-.531-.297-.264-.421-.536-.703.532.218-.314-.422-.06.296-.105.202-1.372.547-1.076-.69.774.32 1.084.993.925.535.189 1.373-.994 1.487-.597-.52.289-.671 1.002-.75 1.053-.23.05-.25.4-1.018.368-.152-.004-.297.027-.416-.077zm-.982-1.346c.274-.797 1.212-.71 1.895-.518-.78.086-1.087-.144-1.472.193-.095.037-.444.532-.423.325zm-2.713-.12c-.278-.233-2.13-.436-1.2-.495.38-.152 1.637.591 1.2.496zm2.214-.747c-.484-.731.854-.681 1.316-.631.808-.063 1.656.035 2.319.524a10.494 10.494 0 0 0-3.514.201l-.102-.08zm4.565-1.325c-1.815-.071-3.694-.37-5.167-1.52-.747-.525-1.253-1.284-1.585-2.127.326 1.704 2.01 2.78 3.546 3.319 1.052.427 2.2.348 3.31.352l-.103-.024zm-9.842-.405a2.653 2.653 0 0 0 1.995-1.42c-.632.83-1.543 1.312-2.552 1.493-.01.092.44-.067.557-.073zm8.774-.25c-2.133-.154-4.476-1.104-5.513-3.074-.425-1.163-.146.092.189.561.598.92 1.864 1.519 2.588 2.036-.985-.343-.08.124.442.124a7.307 7.307 0 0 0 2.99.407c-.232-.017-.464-.04-.696-.054zm-7.983-.418c.49-.07 1.658-1.529.678-.696-.404.53-1.22.631-1.618 1.068.354-.028.648-.184.94-.372zm7.975-.132c-.36.067-2.095-.462-1.302-.12.367.181 2.317.232 1.474.137l-.129-.012-.043-.004zm-3.403-.098c-.317-.1-1.483-1.293-1.085-.794-.06.163.61.615 1.005.804.01.014.114.054.08-.01zm-5.057-.485c.897-.467 1.663-1.393 2.073-2.238-.716 1.046-1.7 2.004-2.907 2.492.298-.038.576-.09.834-.254zm5.239-.274c.118-.383-1.343-.818-.01-.099-.144.104.11.382.01.099zm3.918.068c-1.522-.061-3.047-.415-4.296-1.336-.896-.608-1.777-1.646-1.468-2.797-.491.9.3 1.919.88 2.587 1.322 1.145 3.057 1.76 4.808 1.57-.058-.023.305.03.076-.024zm-9.25-.358c.505-.097 1.61-1.41 1.348-1.124-.387.244-.69.227-1.322.815-.423.22-1.015.854-.168.384l.115-.06zm.955-1.615c.861-.53 1.52-1.325 2.075-2.16-.902 1.253-2.213 2.086-3.442 2.954.224-.016 1.007-.54 1.367-.794zm7.054.605c-1.47-.461-3.144-1.321-3.893-2.562.724 1.677 2.668 2.329 4.307 2.778.79.094-.34-.152-.414-.216zm-10.6 39.32c.653-3.272 1.735-6.47 3.347-9.398-.19.752-.724 1.617-1.012 2.43-1.091 2.468-1.82 5.083-2.276 7.738-.466.215-.017-.553-.06-.77zm6.12-.072c.06-1.327.138-2.653.194-3.98.203 1.612-.017 3.24-.01 4.858-.436.105-.1-.63-.184-.878zm.422-.163c-.101-1.138.025-1.26.096-.057.214.997-.095 1.474-.09.193l-.01-.13v-.006zm8.886.979c-.46-2.059-.824-4.164-1.506-6.173.57.781.622 1.885.906 2.813.279 1.135.47 2.292.763 3.422-.057-.017-.158.046-.163-.062zm-13.257-.497c.241-2.69.433-5.45 1.2-8.046-.036.511-.32 1.356-.368 2.003-.375 2.083-.58 4.19-.817 6.292-.087 0 .073-.25-.014-.25zm-13.723-2.123c-.942.124-2.129-.24-2.216-1.34.335-.98.164.793.867.831 1.132.518 2.456.128 3.673.243 2.374-.055 4.776.084 7.132-.094.571-.011 1.088-1.057 1.154-1.066.118 1.076-1.184 1.5-2.069 1.463-2.844.03-5.696.031-8.54-.037zm-.21-.694c-.75.123-1.762-.164-1.619-1.112.043-1.64-.14-3.318.045-4.936.014-.81 1.127-.995 1.065-1.718-.06-1.296.063-2.659-.107-3.914-.41-.582.172-1.355.863-1.136.787-.01.786 1.115.379 1.508.039 1.298-.048 2.684.18 3.923.503.415.95 1.56.785.264-.46-.736.125-1.284.926-1.041.983.067.068 1.11.27 1.728-.167.099.987-.811.87-1.292.082-1.025-.082-2.122.154-3.1-.389-.238-.377-1.24.13-1.3.768-.262 1.4.34 1.105 1.094-.47.234-.018 1.183-.16 1.81.111.803-.308 1.835.55 2.314.643.411.665 1.29.79 1.833.673.186-.03 1.423.883 1.423.342-.548.184-1.371.627-1.835 1.081-.347.868.73 1.078 1.306.216.604-.068 1.083.815 1.315.89.58 1.351 2.149.298 2.79-3.048.17-6.117.065-9.172.102-.252-.01-.503-.017-.754-.026zm.126-1.016c.559-.975-1.174-.892.015-.921.062-1.21-.122-2.52.092-3.667.675-.906 1.045 1 1.24.097.317-.798-.66-1.371-.937-1.99-.036-1.293-.105-2.586-.12-3.879-1.137-.274-.616 1.032-.738 1.725-.07.81.11 1.728-.115 2.471-.777.517-1.103 1.398-.952 2.308.046 1.397-.09 2.845.068 4.21.118.57 1.398.756 1.44.23 0-.192.016-.4.01-.584zm1.024.789c.012-1.728.102-3.532-.021-5.248-.655-.66-1.017.462-.815 1.052l-.037 4.205c.272.117.603.042.872-.009zm1.14-2.391c-.01-.816-.015-1.631-.022-2.446.401.655.1 1.61.207 2.39-.078.689-.078 1.972.766 1.304.356-.817-.465-1.691-.396-1.431.835.015.193-1.308.368-1.89.115-.895-1.234-1.536-1.64-.57-.277 1.213-.064 2.563-.147 3.83-.067.795-.177 1.635.885 1.259-.01-.816-.014-1.63-.02-2.446zm1.62 2.411c.225-.575.017-1.58.075-2.32-.318-.814.505-1.413.956-1.273-.169-.752-.062-1.517.886-1.317.432-.872-.467-1.625-1.047-2.172-.076-1.147.011-2.342-.166-3.46-1.16-.349-.641.98-.75 1.684-.106.77.321 1.754-.459 2.257-.791.512-.348 1.258-.023 1.865v4.822c.175-.024.358-.094.528-.086zm.946-.04c.26-.686.031-1.575.109-2.337-.428-.905-1.11.176-.807.89.092.57-.386 1.805.593 1.556l.09-.093zm1.28.068c-.627-.784-.344-2.055.454-2.653.991-.522.432-.487-.173-1.03-.322-.311-1.709-.325-1.318.54v3.184c.326-.027.782.054 1.037-.041zm3.673-.121c.972-.488.353-1.886-.373-2.348-.768-.738-2.17-.563-2.894.147-1.002.86.212.743.95.71.72.091 1.646-.185 2.24.137h-3.73c-.111.68.025 1.688.952 1.47.935.005 1.966.09 2.855-.116zm-6.567-.39c.073-1.182-1.38-.074-.628.483.454.01.761.108.628-.482zm1.696-2.45c-.021-1.043-1.526.205-.38.108.088-.057.554.124.38-.109zm3.75-.344c.4-.778-.735-.71-1.203-.608-.686.959.779.974 1.202.608zm-2.413-.754c.457-.833-.637-.806-1.207-.62-.354 1.069.549.683 1.207.62zm2.17-.482c.073-1.063-1.375-.028-.671.448.372-.075.852.177.67-.448zm-6.45-1.247c.874.223.715-1.029.497-1.406-1.1-.322-.772.566-.766 1.311-.055.339.07.177.27.095zm.72-1.647c.146-.763-1.878-.104-.726.104.212-.061.641.132.727-.104zm2.03-3.47c.647-.777-1.291-1.094-.952-.193-.185.423.752.245.952.193zm-4.186-.632c.577-.583-.744-.877-1.034-.416-.3.648.683.54 1.034.416zm21.956 8.099c-.093-.678-.018-1.905.03-.517.072.39.053 1.464-.03.517zm12.87-11.362c-.962-.322-1.115-1.363-.997-2.243.02-3.735-.042-7.48.032-11.209.1-1.042 1.23-1.463 2.154-1.299 1.894.022 3.817-.103 5.692.008 1.16.314 1.392 1.633 1.257 2.664-.041 3.632.09 7.278-.03 10.9-.1 1.114-1.293 1.512-2.26 1.343-1.868-.037-3.77.074-5.618-.055-.085 0-.145-.109-.23-.108zm7.097-.249c1.19-.54.701-2.087.795-3.127-.044-3.326.015-6.668-.092-9.984-.159-.932-1.14-1.245-1.973-1.081-1.865.031-3.751-.056-5.604.048-1.283.299-.947 1.85-.974 2.832.034 3.455-.018 6.922.07 10.37.185 1.022 1.348 1.066 2.183.998 1.861-.008 3.755.166 5.596-.056zm-4.42-.447c-.103-.652 1.02.36 1.503-.31.785.231-.52.602-.929.413-.156-.07-.543.141-.574-.103zm-2.354-.733c-.76-.447-.26-1.55-.428-2.291-.076-3.022-.055-6.044-.072-9.066.478-.825 1.561-.32 2.345-.473 1.67.056 3.376-.193 5.022.062.702.65-.141 1.465.08 2.24-.01 2.974.126 5.976.032 8.933-.284 1.038-1.578.513-2.362.639-1.536-.03-3.096.059-4.618-.044zm6.529-.264c.436-.25.442-1.969.02-1.483l-6.78.037c.028.61-.142 1.706.798 1.547 1.977-.06 4.028.089 5.962-.101zm-5.509-.209c.61-.238-.814-1.272-.24-.414.178.744-.646-1.259.398-.22.33.173.07.889-.158.634zm4.13-.138c-.352.093 1.33-.318.267-.689-.751.422-1.046.32-.155-.069.88-.24.706 1.211-.042.82zm1.539-1.427c.318-.652.03-1.57.115-2.324-.056-1.959.034-3.98-.113-5.9a57.968 57.968 0 0 0-7.001-.045c.054 2.79.01 5.61.123 8.381 2.177.13 4.505-.014 6.74.01l.096-.086zm-1.743-1.157c-.06-1.423.092-2.851-.077-4.272-.95-.681-.394.917-.54 1.453-.047.766.095 1.722-.07 2.371.191-.493-.496-1.465-.763-.625.032 1.286-.223-.167-.076-.7.032-1.234-.06-2.47-.077-3.704-1.085-.306-.49 1.048-.623 1.683.036 1.29.039 2.578-.097 3.863-.143-.466.28-2.31-.297-1.72-.722.392-.55 1.167-.572 1.858-.18-2.005-.08-4.02-.12-6.03-1.006-.166-.549.962-.655 1.56-.054 1.316.052 2.646-.11 3.953-.407.12.154-1.167-.063-1.762v-2.337c-.8-.555.162.137.078-.53.068-.566-.536-1.733.398-1.74.912-.042.416 1.1.55 1.656-.085.937 1.12-.326.622-.885.709-.257-.277.417.832.198.946-.633-1.118-.294-.627-.603.614-.018 1.296.306.902 1.012.525 1.128.602-.479.62-.589.16.564-.177 1.427.702 1.517.09-.484-.414-1.405.192-1.586.774-.231 1.328.285.887.894-.262.726.31 1.75.62 1.8-.723-.84-.761-.23-.603.553 1.155 1.245-.069-.38-.08.517.098.922.232.596 0 1.173.051.62-.047 2.062-.096.704.135-.94-.515-.806-.05-1.284v-3.668c-1.141-.338-.607.998-.723 1.683 0 1.358.029 2.716-.08 4.07.01-.146-.051-.373 0-.483zm-2.359-3.488c-.03-.63.169-2.038-.682-1.004-.286 1.035-.047 2.165-.126 3.238.707-.501 1.017-1.16.814-2.02v-.13zm1.603.43c-.112-.685.386-1.876-.646-1.941-.01.579.05 1.545.024 2.274-.33.667.402 1.967.62.924l.002-1.257zm1.723-2.402c.438-.549-1.207-.569-.964-.04.168.161.818.11.964.04zm-4.286-.582c.43-.645-1.048-.764-.744-.01.144.137.596.155.744.01zm3.428-.142c.78-.64.089-.17.229.057 1.275-.14.027.389-.229-.057zm1.406-1.214c.9.285.661-1.283-.107-.998-2.102.055-4.227-.057-6.314.098-.893.562 0 1.297.84.957 1.86-.032 3.724.043 5.58-.057zm-4.132-1.903c.304-.251 1.5-.175 1.845-.079-.16.458-1.325.063-1.845.216v-.137z" style="fill:#24212d;stroke-width:1" transform="translate(1169.996 -818.2)"/></svg>