<svg xmlns="http://www.w3.org/2000/svg" viewBox="0 0 52.917 52.94" height="200.088" width="200"><path d="M-1361.05 1119.512c-1.578-2.54-3.61-5.418-2.912-8.564 1.045-.883-2.345-2.928.268-3.198 2.305.732 5.056.467 7.25.736-.045-2.374 1.988-4.018 1.946-6.435.033-1.534 1.269-4.76 2.664-2.276 2.023 2.165 4.598 4.526 7.816 4.033 3.245-.394 6.066-2.316 8.664-4.173 1.23-1.741 4.256-2.916 5.446-2.952-1.595-1.997-4.008.015-5.354 1.281-2.336 2.1-4.996 4.012-8.04 4.893-3.022.69-6.027-.937-7.784-3.349-1.801-1.584-1.323-3.882-.428-5.628-1.499-2.174-3.66-3.945-4.185-6.73-1.01-3.333-1.233-7.087 0-10.376 1.523-2.702 4.122-4.613 6.716-6.2 4.019-2.067 9.874-1.672 12.42 2.482 1.945 2.649.57 5.989 1.45 8.873 1.104 2.434 2.563 5.176 1.11 7.71 2.27.701 2.301 3.89 4.282 5.105 1.32 1.314 1.212 3.105 2.475 4.608 1.127 2.96 1.46 6.155 1.962 9.262.438 3.741.572 7.532.181 11.283h-35.578c-.11.104-.27-.486-.37-.385zm.94-4.036c.322-.912-.865.097 0 0zm.8-2.98c-.208-.715-.49-.29-.067.065zm.575-1.323c-.088-1.245-1.199.524 0 0zm-2.133-1.21c-.645-1.27-.26 1.03 0 0zm6.24-.206c-.104-.814-.617.759 0 0zm-.61-.05c.64-1.257-.418.199 0 0zm-1.943-.198c-.116-1.026-1.201.468 0 0zm10.766-17.536c1.26-.655 3.544-2.935 2.996-3.615-1.205.136-.763-2.755-2.478-1.385-.84.178-1.58 1.156-.743.957.347 1.102 2.854 1.566.441 1.796-.653 1.462-3.684 1.533-3.495-.034 1.923 1.347-2.37-2.118-1.031-.222 1.09 1.214 2.454 2.956 4.31 2.503zm.81-.764c-.117-.557 1.025.364 0 0zm.258-2.519c-.176-1.158 1.297.022 0 0zm-2.803 1.93c-1.001-.7-.206.558 0 0zm.478-.988c2.236-.66-1.297 0-.447.064l.447-.064zm1.49-.174c.683-.7-1.414.725 0 0zm-.077-.473c-1.46-.653.166.615 0 0zm-3.947-.705c.898-1.21-1.918-1.141-1.716-1.298-.59 1.228 1.952 1.83 1.716 1.298zm1.163-.325c-.056-1.295-1.026.594 0 0zm1.16-2.823c-1.118-1.737.75-2.325 1.832-2.59-.806-3.1-4.032-1.055-5.658-1.022-.825.678-.723 2.544.639 1.746.644.73 1.204 1.513 1.974.694.51.217.709 1.12 1.213 1.172zm-1.642-.3c-.412-1.325.063.717 0 0z" style="fill:#d1e4e4;stroke-width:1" transform="translate(1371.134 -1066.969)"/><path d="M-1361.036 1119.524c-1.605-2.545-3.593-5.414-2.95-8.58.73-.94-2.079-3.036.59-3.23 2.09 1.102 4.484.179 6.627.91.502-1.786 1.691-3.833 2.172-5.84-.06-1.84 1.248-5.768 2.968-2.765 2.004 2.277 4.858 4.387 8.068 3.745 2.238-.356 4.224-1.558 6.162-2.657 2.072-1.138 3.434-3.33 5.732-4.045.95-.297 2.838.05 1.182-.973-2.255-1.02-4.048 1.347-5.642 2.588-2.773 2.163-6.049 4.785-9.796 4.228-2.655-.612-5.018-2.576-6.16-5.031-1.177-2.159 1.874-3.89-.575-5.417-1.876-2.125-3.278-4.69-3.583-7.544-.612-3.512-.62-7.749 2.17-10.376 2.806-3.005 6.628-5.54 10.92-5.177 3.917.035 7.522 3.251 7.697 7.222-.346 3.098.279 6.08 1.764 8.83 1.336 1.666-1.545 4.376.933 4.908.78 2.318 2.744 3.729 3.926 5.738.2 1.845 2.1 3.3 2.237 5.361 1.379 6.042 2.07 12.283 1.452 18.472-2.337-.11-4.698-.025-7.021-.043-1.617-.046-3.482-.01-4.895-.185-2.405.466-5.277-.033-7.863.216-3.756-.03-7.513-.114-11.265-.016-1.58-.291-3.378.491-4.85-.34zm13.811-.586c-.574-.974.175.692.054.04zm-13.014-.586c.82-.828-2.161.154-.15.098h.11zm13.411-.233c-.786.472-.36-.618-.906.223.307.133.674-.01.906-.223zm-12.662-.136c1.335-.63 1.309-3.594.8-3.547.485.893-.676 2.837-.8 3.547zm13.557-1.214c.98-1.441 1.336-5.254-.443-5.164 1.967 1.462.126 3.803.123 5.538.01.514.44-.82.32-.374zm10.381.102c-.767-.978-.152-.043.24.393zm-.548-.128c-.678-1.03-1.968-2.125-.512-.537.07.061.982 1.334.512.537zm-19.953-.268c-.99-1.535-.056 1.244.162.172l-.088-.094zm30.377-2.395c-.045-1.025-.023 4.542.01 1.538 0-.512.027-1.026-.01-1.538zm-12.423 2.005c-.743-1.941.162.927.023.081zm.976-.041c-.575-.681-1.315-1.419-.28-.225-.089-.065.762.849.28.225zm-2.348-.689c.03-1.163-1.898-2.143-.343-.692.059.077.464 1.605.343.692zm-20.677.147c.24-.672-.53.01 0 0zm34.038-2.162c.62 1.123.308-2.245.286-2.874.182-1.514-.636 1.257-.592-.434.03 1.364.461 1.066.151 2.282.016 1.238-.012 2.475.093.553l.061.473zm-33.414.728c-.354-1.163-.669 1.129 0 0zm-.19-1.003c.291-1.999-.587.548 0 0zm.452-.604c-.319-1.386-.464.072 0 0zm.49-1.23c.317-1.201-1.407.253 0 0zm-2.109-1.247c-.95-1.211-.785 1.16 0 0zm6.31-.195c-.162-1.348-1.508.537 0 0zm-.647-.139c.376-.914.878.601 0 0zm-1.969-.073c.05-1.034-1.18.356 0 0zm13.565-7.374c4.054-1.077 6.92-4.336 10.327-6.544.769-1.106 4.476.501 2.379-1.122-1.746-1.135-3.482.703-4.971 1.517-2.315 1.62-4.053 4.008-6.752 5.064-.729.652-4.149 1.293-1.57.456 2.164-.698 3.397-2.66 5.055-4.054 1.468-1.487 2.77-3.187 4.561-4.312 1.536.383 2.31-3.211.683-1.126-.834.834-2.896 2.509-3.096 2.503.748-.991 3.48-3.28 3.224-3.175-1.238-.689-2.577 2.396-3.87 3.377-1.953 2.331-4.267 4.886-7.404 5.448-.876.193-4.025-1.045-1.58-.426.8.206 3.34-.208 1.097-.135-2.593.047-4.709-1.825-6.195-3.746-.328 1.815 1.364 3.354 2.588 4.575 1.491 1.302 3.537 2.098 5.524 1.7zm8.041-9.634c.647-.953 1.448-.349 0 0zm-5.236 7.086c1.954-1.381 3.583-3.18 5.49-4.597.844-.449 4.853-1.732 2.447-2.191-2.99.668-4.48 3.726-6.79 5.465-.286.13-2.517 2.57-1.147 1.323zm3.752-3.834c1.395-1.382-1.079 1.567-.034.037zm-7.45 3.39c3.381-.476 5.567-3.34 7.622-5.762 1.038-.626 2.532-4.103.66-1.785-2.583 2.416-4.8 5.571-8.289 6.712-1.502.735-4.595-.576-4.902-.657 1.31 1.16 3.151 1.932 4.91 1.491zm-.075-1.132c2.1-1.062-2.28-.764-2.963-1.322-1.134-.14-2.552-2.53-3.15-1.899.548 2.645 3.692 3.87 6.113 3.221zm-5.155-.868c-.681-.726-1.744-.992-.43-.039.062.04.363.228.43.04zm6.425-.41c3.14-.51 4.832-3.563 6.978-5.579 2.162-1.86 2.854-4.86 1.314-7.316-.392-1.645-1.514-2.154-1.01-.094.246 2.639-.03 5.424-1.597 7.646-1.322 1.903-3.358 3.322-5.491 4.168-2.5.978-4.649-.818-6.504-2.23 1.714.932 4.247 2.203 6.273.917 2.366-1.505 4.523-3.95 4.601-6.875-.384-1.09-.637 2.078-1.185 2.433-1.228 2.247-3.314 4.673-6.14 4.373-2.729-.122-5.087-1.974-6.932-3.842-2.095-2.662-2.522-6.26-2.479-9.55-.245-2.308.94-4.487 3.488-4.512 3.401-.424 6.59 1.79 8.156 4.702 1.96 2.818 3.663 6.558 2.026 9.922-.527.766-3.085 3.366-.984 1.887 2.876-2.38 4.446-6.379 3.412-10.045-1.071-3.851-3.07-8.124-7.13-9.515-2.238-.733-4.965-.316-6.624 1.427.97.152 3.601-.585 5.115.35 4.036 1.54 6.737 5.553 7.641 9.66.157 1.036-.74-2.12-1.178-2.727-1.715-3.929-5.56-7.538-10.101-7.158-2.286.085-3.986 2.05-3.965 4.291-.73 4.811.402 10.18 4.14 13.534 1.957 2.242 4.526 4.525 7.735 4.177l.441-.042zm-7.547-.366c-.412-.9-.788-.641 0 0zm6.958-1.042c3.198-.322 4.877-3.536 5.75-6.273 1.6-4.174 2.074-8.72 1.927-13.151-.526-3.514-3.911-6.174-7.447-5.954-1.89-.31-5.909 1.142-5.857 1.73 4.546-1.083 9.429 2.244 10.518 6.699-1.625-3.943-5.743-7.324-10.203-6.519-1.647.432-.822 1.399.42.773 3.762-.153 6.88 2.787 8.19 6.114 1.054 2.16 1.864 4.533 1.729 6.968 1.113-2.078.708-4.597.398-6.832-.206-.835-1.216-4.212-.248-1.864 1.422 3.91.866 8.232-.096 12.179-.932 3.19-3.74 6.228-7.298 5.98.306.357 1.598.317 2.217.15zm6.434-13.438c.407-1.334.64-4.482.846-4.716.169 1.518-.186 3.765-.846 4.716zm-7.82 11.884c-1.35-.301-3.437-.438-4.659-1.703-1.57-.63-2.757-3.432-3.445-3.706 1.129 2.743 3.836 4.563 6.586 5.398.498.059 1.026.166 1.518.01zm5.494-.237c1.952-2.033 3.512-4.766 3.505-7.626-1.41 1.838-1.611 4.282-2.855 6.223 1.7-.593-1.791 1.493-.65 1.403zm-3.979-.974c.852-.54 1.956-2.627.567-.762-.043.164-1.614 1.109-.567.762zm.491-1.107c.977-.703.865-2.187.051-.46-.617.857-1.183 1.607-.05.46zm.044-.19c.69-1.355-.044.433 0 0zm-3.062.609c1.504-1.187 3.735-2.707 3.213-4.944-.995-2.987.942 2.515-1.186 1.09.893-2.287-2.701-1.602-2.82-.177 1.705-.172.059 1.963-1.16 1.657-.94.188 2.212-.036 1.507-.525 1.093-.56 2.662.69.782.533-1.153 1.089-2.884 2.046-3.872.415.878.41 2.106.947.64.05-.427-.898-3.489-2.078-.943-1.718.588-1.255-1.219-1.325-1.743-1.13.16 2.08 2.022 3.267 3.487 4.462.6.426 1.42.61 2.095.287zm-3.435-1.962c0-.804.639.45 0 0zm3.56-.518c1.08-.673-1.608.565 0 0zm4.425.075c1.039-1.16-.919-4.315-.164-1.35.102.443.129.898.164 1.35zm-7.3-1.572c-.011-1.154-.99.621 0 0zm-4.115-1.366c-.36-.961-1.36-4.852-.715-1.789.203.598.293 1.295.715 1.789zm14.673-.541c-.402.55.011 1.15 0 0zm-3.584-.46c-.067-1.245-1.92-2.619-.832-.51.067.526 1.459 1.891.832.51zm-7.282.028c-.164-1.482.01 1.781 0 0zm1.502-.452c-1.163-1.678.473-2.492 1.743-2.576-.118-1.466-2.434-2.674-2.457-1.705-1.387.072-2.65.646-3.423 1.113-1.556 1.88 1.247.727 1.497 1.93-.195.444 1.51 1.471.9.124.73-.71 1.141.99 1.74 1.114zm-5.361-2.859c-.205-2.07-.228 1.328-.022.362zm-1.116-.79c-.11 1.113.085 1.09 0 0zm7.482-2.03c-.764-1.543-.396.384.151.175l-.084-.098-.067-.078z" style="fill:#f9cfb7;stroke-width:1" transform="translate(1371.134 -1066.969)"/><path d="M-1360.846 1119.71c-.527-.517-1.057-1.228-.987-2.011-.766-.441-1.428-1.283-1.307-2.215-.784-.464-.347-1.439-.879-2.063-.218-.696.346-1.348-.225-1.986-.136-.656 1.43-.856.55-1.414-.39-.583-1.19-1.026-1.17-1.791.452-.699 1.384-.316 2.081-.357.733.17 1.328.643 2.153.489.939-.01 1.908.229 2.799-.058 1.293-.111 1.738 1.401 2.497 2.177.66.824-.143-.573-.46-.786-.623-.585-.906-1.435-.559-2.242.467-1.784 1.847-3.268 1.857-5.168.13-1.248.483-2.497 1.11-3.587.896-.14 1.206.767 1.673 1.338.326.586.915.914 1.416 1.324.686.604 1.567 1.413 2.372 1.781.701.363 1.605.629 2.43.779 1.874-.198 3.927-.183 5.452-1.458.861-.267 1.688-.848 2.56-1.11 1.025-.65 1.733-1.7 2.82-2.234.717-.6 1.291-1.182 2.046-1.725.897-.58 1.972-.335 3.023-.37-.523-1.3-2.247-1.67-3.345-.846-1.26.502-2.08 1.649-3.143 2.444-1.237.95-2.48 2.026-3.887 2.676-.519.323-1.089.754-1.708 1.005-1.365.435-2.835.93-4.265.615-1.258-.292-2.381-.917-3.423-1.655-.24-.392-.893-.844-1.293-1.282-.585-.646-1.033-1.434-1.392-2.232-.284.05-.405-1.165-.36-1.67.134-.664.524-1.242 1.123-1.578.062-1.181-1.3-1.624-1.807-2.566-1.434-1.797-2.56-3.868-2.967-6.15-.552-2.881-.699-5.958.246-8.775.97-2.05 2.866-3.443 4.533-4.904 3.097-2.58 7.615-3.523 11.38-1.946 2.926 1.326 4.79 4.605 4.442 7.804a11.068 11.068 0 0 0 1.462 6.733c.853 1.343.885 3.118-.03 4.442-.702.734.431.478.853.74.655.39.916 1.168.832 1.902.667.448 1.821 1.17 1.13 2.056 1.484.233 2.418 1.722 2.41 3.155 2.174 2.253 2.293 5.546 2.991 8.43.673 3.667.948 7.408.863 11.136.017 1.118 0 2.251-.25 3.344-1.102.32-.469-.875-.53-1.516.273-4.7.04-9.453-1-14.057-.424-2.444-.833-5.064-2.499-7.011-1.166-.156-2.735-.494-3.468.7-1.72 2.074-2.445 4.863-2.467 7.517.757-2.795 1.746-5.674 3.746-7.832 1.178-.536.463-.26-.156.278-1.683 2-2.374 4.62-3.14 7.072a9.322 9.322 0 0 0-.509 3.79c.605-2.509 1.917-4.901 3.207-7.038-1.04 2.606-2.653 5.134-3.078 7.982.195.738.584-1.052.934-1.345.866-1.607 2.242-2.895 3.249-4.388-.59 1.263-1.875 2.287-2.555 3.562-.863 1.775-1.847 3.556-1.976 5.568.507-1.213.918-2.493 1.762-3.54 1.086-1.463 2.452-2.785 3.338-4.35-.946 2.537-3.344 4.185-4.322 6.715-.443.828.72-.579 1.07-.618 2.12-1.224 3.818-3.22 4.35-5.644.225-.947.228-1.929.233-2.898.529 2.85-.65 5.945-2.98 7.688-.986.836-2.322 1.382-3.032 2.467.384-.09 1.174-.72 1.842-.523.36-.106 2.178.084 1.32.088-1.355-.123-.71.064.249.3.48.067 2.415.317 1.01.26-1.737-.048-3.624-.28-5.13.79-.853.58.807-.198 1.13-.06 1.653-.135 3.098.964 4.377 1.872.447.493 1.118.86 1.275 1.55-.588.743-1.653.099-2.295-.278-1.472-.983-2.881-2.426-4.75-2.475.56.244 1.28.446 1.86.805a12.563 12.563 0 0 1 3.83 4.423c-.25.519-.734-.832-1.08-1.081-1.371-1.572-2.852-3.34-4.98-3.801-1.047-.148.331.791.501 1.137.904 1.217 1.821 2.473 2.359 3.893-.592-.277-.763-1.264-1.192-1.816-1.013-1.385-1.868-3.135-3.527-3.824-1.372-.326.126.396.525.777 1.322 1.368 2.57 2.98 2.953 4.874-.59-.373-.618-1.404-1.089-1.992-.851-1.407-1.818-3.001-3.418-3.599 1.047.99 1.324 2.512 1.538 3.881-.49-.926-.565-2.08-1.32-2.893-.597-.827.12.996-.073 1.397.111 1.086-.125 2.17-.469 3.196-.765-.01.246-1.298.136-1.862.15-1.398.327-3.167-.82-4.194-1.13-.145.116.18.119.778.435 1.79-.06 3.654-.85 5.278-.9.13.174-1.008.203-1.515.429-1.029.578-2.234.295-3.296-.297-.781-.883-1.121-.448-.056-.01.67.167 1.36-.074 2.007-.07-1.127.216-2.721-.974-3.336-1.145-.228-1.906-1.427-3.078-1.51.376 2.119-.29 4.483-1.633 6.202-.76.628-1.666-.174-.312-.072 1.21-1.138 1.767-2.889 1.921-4.52 0-.921-.02-2.24-1.173-2.418-.85-.51-.894 1.457-.626.724-.063-.918 1.2-.543 1.118.231.44 1.975-.187 4.106-1.498 5.619-.771.766-.187-1.29-.665-.276-.353.747.493 1.33 1.098 1.532 1.583.048 2.46-1.624 3.064-2.87.3-.676.52-1.393.587-2.133.122 1.656-.664 3.32-1.754 4.53-.763.799-2.204 1.307-3.029.314-.174-.17-.398 1.723-.377.227-.064-.771-.16-1.508.171-2.26.454-1.101-.987-.393-1.321-.06-.25.96-.196 2.028-.49 2.95-.134-.903.228-1.96.337-2.914.047-.22-1.356.218-1.559.344-.084.848-.087 1.707-.242 2.546-1.137.329-.529-.725-.451-1.393.345-.583-.117-1.945-.219-.725-.07.662.055 1.686-.345 2.118-.724.01.189-1.213-.107-1.772.274-.892-.346-1-1.05-1.167-.675-.222.288 1.124.25 1.49.072.366.481 1.762-.09 1.325-.297-1.011-.478-2.07-.874-3.045-1.05-.577-.966-.432-.366.456.22.86.216 1.855-.048 2.715-.782.097.132-1.007-.027-1.453.125-.877-.429-1.818-1.079-2.337.091.3 1.033 1.671.11.808-.123-.344-1.236-1.693-.896-.801.355.7.229 1.59.124 2.34-.236.64-.465 1.643-1.339 1.443-.066-.21.785-1.01.891-1.568.38-1.186.096-2.562-.985-3.277-.235-.159.1 1.325-.341 1.773-.504 1.012-1.41 2.197-2.696 1.867.33.644.982 1.035 1.671 1.196-.479-.094-1.165.2-1.53-.178zm.929-1.406c1.172-.723 2.08-2.368 1.415-3.706-.13-1.221-.905-.08-.296.474.435 1.223-.47 2.846-1.78 3.027-.672-.343-1.198-.128-.398.334.354-.036.76.1 1.059-.129zm-.117-.85c.48-.435.867-1.169.889-1.827-.111-1.254-.104-.297-.58.253-.254.339-1.783 1.021-1.17.283.502-.353 1.615-.7 1.315-1.434-.53-.156-1.136.672-1.773.661-1.18-.016-.256-.382.379-.517.61-.387 1.533-.595 1.906-1.179-.096-.792-1.123-.033-1.55.112-.473.137-1.86.73-1.773.216.984-.283 1.992-.597 2.908-1.057.106-.828-1.023-.512-1.512-.308-.633.121-1.227.47-1.874.476.545-.595 1.502-.892 2.271-1.234.873-.62-.652-.902-1.116-.432-.747.432-2.069.594-2.04 1.674.48.54.4 1.181.552 1.783.678.382.296 1.165.777 1.646.45.675 1.634 1.357 2.391.885zm30.916-.199c-.364-.879-1.618-1.056-2.336-1.661-1.178-.85-2.524-1.574-4.023-1.43 2.292.519 3.904 2.422 6.063 3.237.093-.054.346.063.296-.146zm-21.163-.706c1.102-.277 2.173-1.023 3.334-.496.628.05.592-1.09.844-1.547-.023-.69.286-1.645-.726-1.633-1.744-.325-2.625-2.08-4.252-2.656-1.25-.548-2.652-.912-3.995-.969-.901.379.451 1.005.918 1.06 1.214-.017 2.272.798 3.341 1.106-.821-.105-1.878-.171-2.802-.116-1.93-.067-3.803-.711-5.732-.705-.68.573.292 1.021.858.89 1.455.349 3.004.527 4.403.974.178.572-1.216-.034-1.654 0-1.265-.083-2.533-.503-3.762-.582-.669.456.549.948 1 .946 1.343.398 2.767.561 4.083 1 .463.583-1.04-.12-1.39.01-1.029-.056-2.085-.41-3.026-.646-.372.582.77.893 1.226 1.025 1.178.507 2.523.48 3.664 1.067.622.917-.868-.33-1.414-.125-.848-.046-1.591-.56-2.418-.63-.13.68 1.036.745 1.507 1.038 1.602.49 3.154 1.406 4.888 1.124.377-.01.747 0 1.105-.135zm-9.032-5.34c-.464-.868.561.75.66-.258-.17-.683.462.794-.536.392l-.088-.095zm22.608 3.042c.686-.498.814-1.285.744-2.082-.017-1.168.152-2.383.024-3.524-.74-1.81-.683-3.87-.495-5.792.096-.848.28-1.69.536-2.501-.547.624-1.305 1.083-1.94 1.53-1.086 2.404-1.617 5.015-1.672 7.649-.094 1.405-.088 2.814-.134 4.221.953-.113 1.89.16 2.694.613.106.06.203-.096.243-.114zm-3.067-1.928c-.078-3.541.303-7.158 1.716-10.439-.683.156-1.428.685-2.134.98-1.159 1.817-2 3.821-2.306 5.964a44.184 44.184 0 0 0-.429 3.828c.568.314 1.23.75 1.784.893.436-.366 1.07-.346 1.398.134-.012-.45-.01-.922-.03-1.36zm-3.25-.172c.234-3.032.55-6.255 2.34-8.824.28-.581-1.11.588-1.604.444-.974-.036-1.278.991-1.747 1.657-.406 1.039-.406 2.226-.426 3.303-.412.588.174 1.72-.732 1.918.871-.07.809-1.283.912-1.938.043-.083.192-.98.316-1.632.156-.711.556-1.418 1.004-1.942-.679 1.289-1.116 2.68-1.244 4.136.022.737-.483 1.748-1.35 1.386-1.026-.265-.556-1.414-.627-2.178.031-1.474.044-2.953.278-4.412-.615-.09-1.611-.678-2.005-.47.216 2.535.468 5.068.853 7.584.873-.417 1.678.148 2.395.579.572 0 1.34.908 1.647.678-.012-.053.02-.289-.01-.289zm-4.467-.187c.19-.64.284-1.286.07-2.003-.302-2.183-.554-4.375-.667-6.576-.711-.4-1.386-1.115-2.032-1.437-.75 2.53-1.025 5.18-.965 7.813.855.494.34-1.028.516-1.494.02-.826.056-1.651.153-2.472l-.07 4.204c1.202.438 1.994 1.585 3.022 2.238-.013-.087-.012-.189-.027-.273zm-15.719-.177c.705-.669 1.64-1.141 2.367-1.726-.25-.95-1.354-.132-1.852.265-.376.383-1.553.73-1.177 1.362.203.179.457.478.662.099zm1.802-1.749c-.139-.953.638.806 0 0zm16.22.286c.345-.438.288-1.218.373-1.693-.297 1.09-1.038-.63-.018-.25.153.324.068-1.283.187-1.747.13-.84.236-1.685.352-2.528-.891-.184-.705 1.081-.95 1.665-.223 1.424-.254 2.88-.41 4.318.141.092.273.425.466.235zm0-3.841c-.545-.694 1.019-.78.437 0-.048.112-.384.183-.436 0zm-.632 2.469c-.032-.537-.454 1.4-.121 1.102.047-.366.026-.744.121-1.102zm-11.275.481c-.059-.803-1.356.077-.374.176.13-.059.446.096.374-.176zm5.394-.038c.137-2.845-.064-5.724.395-8.55-.43-.212-.972-1.723-1.146-1.054-.037 2.252-.181 4.536.292 6.761.208.938.096 1.946.322 2.86.026-.022.14.036.137-.017zm-.874-.758c-.623-1.93-1.125-3.943-.802-5.983.12-1.127.525-2.192.936-3.239-.609-.836-.744.83-1.014 1.272-.468 2.22-1.175 4.447-1.188 6.724-.01.392.261 2.043.393 1.347-.177-.75-.262-1.506-.18-2.274.202.83.245 1.91.738 2.534.59-.072 1.67.815 1.117-.38zm-2.435.309c.954.122-.024-1.148.257-1.73-.047-.872.113-1.732.222-2.593-.573 1.411-1.42 2.92-1.196 4.466.154-.034.454-.19.717-.143zm-6.447.01c-.795-.018-1.737-.108-2.446-.01.78.115 1.787 0 2.653.03l-.129-.013zm15.74-1.66c.072-1.073.268-2.133.467-3.189-.946-.178-.459 1.23-.645 1.832.021.868-.22 1.765-.01 2.612.152-.403.14-.833.186-1.255zm-16.7 1.046c-.487-.23-1.831-.017-1.943-.07.683.08 1.464-.058 2.077.177.066-.098-.135-.046-.134-.107zm9.798-1.721a21.469 21.469 0 0 1-.136-5.398c.216-.808.257-1.652-.155-.394-.76 2.364-.319 4.874.399 7.189.234.69-.13-1.235-.108-1.397zm17.035-.543c.1-3.05.915-6.217 3.066-8.48-1.01.664-1.78 1.637-2.788 2.316-.905 2.5-1.052 5.396-.44 7.89.094-.555.101-1.156.162-1.727zm-8.378-1.002c.128-.506 1.058-1.414.012-1.047-.044.233-.427 1.945-.105 1.285l.047-.12zm-6.635-2.918c.463-.762-.679-1.365-.395-.174-.089.74-.116 1.482-.08 2.226.157-.684.273-1.378.474-2.052zm6.597.154c2.931-.609 5.36-2.53 7.682-4.32 1.403-1.081 2.766-2.534 4.593-2.78.924-.107 1.841.414 2.29 1.219-.215-1.238-1.314-2.428-2.66-2.135-1.643-.026-3.006 1.172-4.232 2.142-2.683 1.995-5.077 4.688-8.433 5.51-1.332.274-.133-.137.527-.333 3.175-1.195 5.554-3.697 8.123-5.807 1.25-.95 2.683-1.984 4.316-1.952.109-.57-.284-1.698-.956-1.095-1.695.598-3.21 1.616-4.35 3.014-1.419 1.385-2.8 3.015-4.478 3.986 2.076-1.734 3.956-3.742 5.833-5.696.86-.71 1.971-1.08 2.847-1.708-.414-.308.487-1.754-.125-1.24-1.197 1.44-2.835 2.46-4.146 3.802.981-1.51 2.665-2.493 3.88-3.84.63-.622-.728-.852-1.159-.995.356 1.448-1.137 2.27-1.932 3.232-1.136 1.15-1.977 2.553-3.208 3.622-1.5 1.34-3.067 2.86-5.108 3.257-1.005.062-2.293-.136-3.036-.554 1.515.403 3.257.643 4.64-.275.386-.092 2.022-1.23.914-.663-1.955 1.095-4.487 1.374-6.445.133-1.136-.822-2.597-1.622-2.952-3.085 1.461 1.825 3.484 3.388 5.86 3.684 2.616-.168 5.062-1.478 6.74-3.478 1.122-1.449 2.373-2.804 3.528-4.217.282-.565.712-1.18.656-1.82-1.946 2.232-3.933 4.463-6.196 6.378-1.844 1.452-4.44 1.169-6.508.4-1.361-.497-2.384-1.578-3.364-2.565.069 2.35 2.296 4.097 4.545 4.142 1.407.185 2.774-.513 4.034-.94-1.163.724-2.686 1.32-4.16 1.21-1.891-.102-3.97-1.272-4.509-3.178-.276-.471-1.345.468-1.004 1.028.49 1.887 1.875 3.483 3.397 4.653 1.274.944 3.002 1.596 4.556 1.264zm1.087-5.543c2.245-.432 3.605-2.475 5.156-3.969 1.454-1.658 3.372-3.272 3.688-5.572.058-2.145-1.632-3.839-1.876-5.939-.2-1.111-.272.616-.255 1.024.035 2.172.544 4.428-.26 6.532-.634 1.827-1.764 3.48-3.145 4.823 1.657-2.38 3.594-4.97 3.354-8.034.062-.951-.18-1.528-.302-.25-.987 2.893-1.767 5.994-3.745 8.394-1.22 1.357-3.058 2.197-4.894 2.02-.643-.001-1.545-.3-1.925-.644 1.835.589 3.903.436 5.564-.577 2.4-1.71 3.15-4.76 4.052-7.413 1.06-2.709 1.017-5.667 1.365-8.518.14-2.061-.172-4.231-1.478-5.902-1.771-2.349-4.959-3.08-7.757-2.706-2.072.257-4.028 1.187-5.682 2.436 2.593-1.554 5.979-.97 8.33.772 1.61 1.115 2.918 2.753 3.486 4.637-1.22-2.481-3.275-4.577-5.86-5.602-2.037-.808-4.506-.7-6.25.727-1.12.67-.191.338.467.047 1.19-.41 2.5-.27 3.728-.19 2.266.411 4.106 1.97 5.345 3.851 1.403 2.394 2.702 5.022 2.848 7.835.095 2.383-.386 4.888-1.96 6.752-1.173 1.66-2.997 3.251-5.175 2.914-2.177-.195-4.123-1.432-5.83-2.714-1.797-1.53-2.814-3.768-3.151-6.075-.686-2.524-.456-5.18.012-7.72 1.277-1.055 2.945-1.575 4.592-1.326 2.405.155 4.509 1.702 5.86 3.636 1.866 2.585 3.648 5.593 3.393 8.9-.42 1.823-1.519 3.687-3.299 4.436-2.062.853-4.187-.357-5.817-1.574-1.523-1.341-2.912-2.948-3.354-4.984-.797-2.21-1.283-4.61-.833-6.94.24-1.033.797-1.96 1.529-2.719-1.776 1.25-2.06 3.66-1.785 5.664.337 2.136.687 4.346 1.66 6.297 1.088 2.21 3.29 3.64 5.507 4.546 1.73.64 3.812.302 5.144-1.023 2.12-2.063 3.588-4.99 3.323-8.004-.063-2.24-1.128-4.32-2.051-6.321-1.385-2.873-4.208-5.511-7.589-5.29-2.017-.188-3.893.956-5.236 2.373 1.448-.857 3.21-.99 4.823-.6 2.915.696 5.38 2.715 6.825 5.318.771 1.34 1.568 2.75 1.822 4.28-.868-2.295-2.05-4.53-3.676-6.38-1.911-2.011-4.688-3.405-7.502-3.204-1.715.27-3.62 1.317-3.797 3.228-.473 1.883-.382 3.853-.284 5.771.305 2.371.873 4.781 2.395 6.688 1.242 1.824 2.94 3.282 4.504 4.815 1.643 1.287 3.986 1.874 5.995 1.474zm-3.77-1.722c-1.21-.185-2.259-1.036-3.095-1.84 1.654 1.109 3.7 2.183 5.72 1.434 1.816-.734 3.364-2.198 4.291-3.916 1.367-2.587 1.503-5.61 1.614-8.476-.017-2.17-.462-4.425-1.189-6.392 1.091 1.923 1.51 4.248 1.37 6.468.027 2.604-.245 5.274-1.175 7.719-1.016 2.388-2.947 4.755-5.68 5.057-.62 0-1.249.121-1.856-.054zm9.243-13.13c.257-1.683.788-3.334.718-5.06.255 1.73-.126 3.472-.717 5.098v-.039zm-6.962 11.107c1.55-.74 2.556-2.437 2.853-4.09.312-2.97-1.524-5.578-3.263-7.806-.837-1.133-1.638-2.328-2.79-3.17 1.192 1.065 2.185 2.311 2.852 3.77 1.004 1.603 2.074 3.273 2.482 5.131-.053.18-.433-1.181-.71-1.562-.822-1.891-2.088-3.543-3.105-5.325-.846-1.202-2.087-1.993-3.429-2.546-.845.6.626.468.966.87 1.067.582 2.003 1.488 2.576 2.56-1.056-1.277-2.378-2.512-4.03-2.894.216.358 1.137.578 1.593.976 2.485 1.362 3.874 3.957 5.098 6.4.807 1.439 1.955 3.123 1.24 4.82-.668 1.295-1.747 2.603-3.226 2.905-.704.075-1.585-.293-.454.157.45-.049.96.042 1.347-.196zm-.312-.383c1.304-.644 2.407-1.938 2.636-3.378.068-1.13-.312-1.158-.428-.015-.466 1.482-1.423 3.094-3.007 3.5-1.344-.233-.555.359.317.131l.482-.238zm-1.37-.764c.947-.544 1.645-1.489 2.39-2.28.749-.879 1.058-2.144.361-3.145-.392-.992-1.087-1.814-1.488-2.8-1.13-.345-2.333.227-3.442.12-.255-.86.82-.723 1.356-.886.412-.377 1.803.417 1.519-.062-.684-.674-.978-1.695-1.799-2.204.303.96-.135-.45-.808-.143-1.018.047-1.873-.826-2.203-1.653.19.63.18 1.178-.061.138-.355.2-.935 1.375-1.044 1.303.188-.408.576-.879.396-.76a2.554 2.554 0 0 0-1.321 2.244c-.065.662-.667 1.668-.223.434-.095-.35.487-2.107.011-1.355-.197.886-.257 1.825-.317 2.74.697-.081 1.614-.662 2.15-.026.115.893-1.3.335-1.888.556-.408.31.429 1.203.817 1.443.513.43 1.337-.31 1.709.028-.172.507-.024.211-.448.904-.46-.064-.321-.066-.592.02-.104.05-.295-.105-.373.144-.214-.37-.689-.651-.53.52-.049 1.735 1.495 2.907 2.698 3.93.759.781 1.878 1.365 2.944.886.046-.055.137-.044.186-.096zm-2.423-1.413c-.657-.433-1.393-1.047-1.66-1.784 0-1.233.9-2.594.103-3.73-.508-.51-1.51-.992-.275-.642 1.137.476.846 1.954.702 2.928-.246.568-.418 1.427.416 1.552.469-.235 1.445-.213 1.455-.825.362.024-.11 1.01-.739.888-.367.337-1.207-.198-1.415-.02.349.952 1.719 1.011 2.574.75.658-.043 1.138-.604 1.708-.765-.592.686-1.671 1.019-2.579 1.103-.8-.089-1.436-.339-.43.327.48.312 1.254.05 1.62.071-.3.329-1.076.417-1.48.147zm1.898-4.01c.351-.994-.613.057-.377-.775-.329-1.078-.109-.77.675-.314.722.214 1.356-.326 1.97-.551.156.601.032.81 0 .88-.07.207-.285-.38-.274.36-.057-.59-.346.67-.534.093-.286.639-.3-.376-.562.327.052-.65-.525.384-.611-.196.032-.517-.076.306-.288.176zm-4.635-1.207c1.288-.03.662.063-.291.026.095-.01.197-.014.29-.026zm3.567-1.327c1.051-.243 1.274.012.087.038-.173 0-.507.069-.087-.038zm-3.973 6.08c-.494-.69-1.028-1.35-1.506-2.05.415.92 1.135 1.736 1.797 2.446l-.29-.397zm-.245-.961c-1.108-1.895-1.853-4.026-2.255-6.18-.046-1.42-.065-2.873.637-4.16.323-.64.77-1.2 1.247-1.73-.98.381-1.443 1.544-1.813 2.47-.67 2.266-.24 4.704.611 6.866.308 1.075.931 2.272 1.704 2.927.099.016-.215-.201-.13-.193zm-.434-3.62c-.841-1.112-.971-2.61-.826-3.946.132-1.315 1.39-1.91 2.336-2.586.76-.784-.678.413-1.074.552-1.437.59-1.688 2.285-1.5 3.652.1 1.015.692 1.913 1.213 2.77.206-.109-.125-.303-.149-.443zm-1.245-3.429c-.066-1.617.902-3.107 2.269-3.923.513-.269 1.46-1.26.393-.538-.94.886-.49.418.145-.235-.037-.457-1.094.454-1.374.824-1.17 1.129-1.737 2.935-1.461 4.492.055-.15.01-.435.028-.62zm5.411-2.136c-.803-.779-.839-.212-.095.275-.458.062-1.205-1.58-1.181-.749.296.763 1.222.907 1.949.964-.22-.164-.468-.32-.673-.49zm-3.425-1.022c.613-.348 1.337-1.096 1.545-1.582-.922.573-1.83 1.461-2.646 2.254-.808 1.01.028.252.465-.24l.636-.432zm8.586 40.899c.427-1.674.557-3.396.623-5.116.278 1.753.26 3.562-.258 5.27-.117-.05-.588.13-.365-.154zm6.282-.276c-.096-1.282-.565-2.54-1.055-3.671.876 1.09 1.286 2.674 1.502 4.102-.43.052-.436-.01-.447-.431zm5.35-.034c-1.064-1.272-2.296-2.425-3.527-3.533-.702-.399-1.341-1.255-.301-.33 1.564 1.076 3.043 2.362 4.156 3.905.477.743-.075.428-.328-.042zm3.74.338c1.054-3.49.34-7.169.28-10.74-.026-1.544-.168-3.142-.265-4.641.85 3.158 1.268 6.445 1.309 9.71-.068 1.942-.202 3.887-.535 5.799-.13-.083-1.008.164-.788-.128zm1.054-6.78c-.04-1.386-.017.661-.023 1.153-.026 1.514.065-.3.032-.903v-.128zm-17.767 6.51c.413-.646.842-1.422 1.086-2.063-.152.776-.603 1.621-1.152 2.184l.062-.113zm14.062-8.25c.951-1.152 1.108-2.724 1.451-4.134-.153 1.593-.405 3.43-1.75 4.478l.299-.344z" style="fill:#0e0e0e;stroke-width:1" transform="translate(1371.134 -1066.969)"/></svg>