<svg xmlns="http://www.w3.org/2000/svg" viewBox="0 0 52.917 52.916" height="199.997" width="200"><path d="M-1541.797 1286.863v-4.295c1.754-2.24 4.142-1.287 5.965.198 1.435.725 1.526-.367-.06-.508-1.664-1.533-4.402-2.331-5.879-.048-.063-3.124-.01-6.248-.027-9.372.324-2.43 2.829-3.944 2.885-6.353 0-2.193.935-5.42 3.405-2.966 1.93 1.299 5.196 2.123 6.684-.221 2.062-1.784.432 3.806 2.96 2.817-.113 1.638-2.681 3.63-.455 4.948.517 1.81-1.9 2.467-2.488 2.582a62.165 62.165 0 0 1 1.704 9.475c.304.897-.402 1.803-.357 2.805-.352.967 2.816.304 3.92.479 1.194-.096.896-2.821-.476-2.989.136-3.829.238-7.801 1.202-11.567-4.224-.048-1.843-5.104-2.053-7.646-.107-1.74.5-5.933 2.994-4.277 1.808 1.006 4.012 1.591 5.946.548 2.945-2.39 3.186 3.103 3.411 5.095.45 2.221 1.019 6.447-1.844 5.981.776 3.765.944 7.612 1.151 11.442.28-2.907 4.012-2.713 5.799-1.728.02 1.595-2.848 4.45-1.461 5.149 3.24.93 1.871-3.113 2.494-5.08.222-2.52.736-5.04 1.099-7.513-2.763-1.484-.948-4.987-2.008-7.283-.378-1.073-2.327-2.937.198-2.663 1.34-.331 2.154 2.114 2.302-.284 1.201-1.733 2.286 2.48 4.1 2.378 2.318.776 4.766-.371 5.734-2.565.21-.827 2.539-1.914.752-1.518-1.296 2.192-3.334 4.762-6.25 3.798-2.204-.632-4.619-3.618-2.583-5.551-.74-1.628-1.583-3.051-1.786-4.88-.817-3.101 3.524-4.922 4.74-4.967 1.562-.922 4.944.715 5.64 2.836 1.39 1.776-.667 4.3-.286 5.387.439 2.187 3.676 2.512 3.639 5.306.73 2.184.012 4.976 1.662 6.714 1.04 1.706.249 3.978.502 5.927-.402 1.523 1.08 5.403-1.43 4.064-2.07.18-3.258 2.812-5.556 2.237-.735-.5-1.857-.663-.524.205 2.727 1.34 4.223-2.311 6.64-1.988 1.594.44.617 2.471.866 3.717v6.467c-3.382-.038-6.765.077-10.145-.058-.57-.95-1.627-1.696-2.834-1.137 1.584-.285-2.134.797-.143.367 2.415-.436-.955 1.17-1.055-.224 1.359-.359 2.706-.269.627-.838-2.332-.783-4.893-1.904-7.201-.405 2.087.988 4.444 1.425 6.602 2.303h-25.128c1.279-1.359 4.887-2.307 4.91-3.538-1.154-.072-3.107-.854-3.796-.421 1.044.3 2.165.27.433.265-1.372.1 1.904.306-.177.27-1.57.162 2.133.244-.01.245-1.198.444-.08.424.283.1 1.625.261-2.147.58-.131.665 1.955.377-1.969.988.174.724 1.48-.027-4.483.785-2.09.311 2.245-.83-4.292.64-.986 1.014 2.552.874-1.373-.58-1.96.441-3.403-.156-6.837-.029-10.253-.07 0-1.435.01-2.872.01-4.306zm13.048 2.65c1.242-.121 1.722-.69.201-.402-.193.244-1.122.6-.2.401zm26.337-.521c-.514-.634-1.84-.772-1.135-1.248-1.511.328.952-.465-.624-.147 2.544-.86-4.275.26-.683.641.698.17 1.95.802 2.442.754zm-9.278-.363c-2.447-.017 1.322.09 0 0zm-1.756-.07c-1.413-.038-.517.079.316.022zm2.875-2.042c-.982-.533-1.702-3.4-1.693-3.255.473 1.188-2.406.587-.134.786.736.294 1.05 2.703 1.827 2.469zm4.511-.505c-.037-1.153.697-5.08-.28-2.634.036.365-.683 4.274.28 2.634zm-.483.12c.418-1.312.345 1.106 0 0zm4.802-.425c-.343-.864-.384.683 0 0zm-27.884-1.083c-1.169-.176 0 .715 0 0zm26.99-.024c-.993-.618-.705.385.028.091zm-26.286-.561c-.336-.321-.522 1.193 0 0zm27.372-.038c-.824-.807-3.788 0-1.16-.129.164-.179 1.206.38 1.16.129zm-7.493-1.639c-1.993-.044.269.104 0 0zm-.634-.779c-1.008-.085-3.565-.054-1.146.023.72.03 3.16.02 1.146-.023zm4.442-3.852c.036-.919.958-4.901.146-2.529.04-1.946-.454 1.65-.207 2.224-.105 1.01-.538 2.191-.259.405.116-1.673-.572 2.706-.209 2.066.105 2.643.42-1.67.53-2.166zm.89-5.37c.366-2.651-.76 2.56 0-.001zm-8.927-1.402c1.235-.64-2.109.554 0 0zm-8.698-.567c.079-1.449-.414-1.516-.06-.13l-.031.315zm-4.722-3.802c-.965-.245-1.003.278 0 0zm12.899-.064c-1.22-.033-.205.074.329.026zm7.167-1.72c-.91-.88-.656.55 0 0zm.887-.144c-.99-.836-.46-.132.166.174zm-1.627-.354c1-.342-2.2.038.013.066l.035-.022zm-14.435-3.492c-.59-1.077-1.433-1.416-.272-.224.246.027.489.888.272.224zm23.651-6.163c-.308-1.367-3.537-2.893-3.678-2.303 1.624-.219 2.95 1.677 3.678 2.303zm.303-1.41c-.53-.872-1.532-1.613-.39-.375l.185.28zm-31.128 37.177c.185-1.083 1.78.237 0 0zm24.764-.205c-.153-1.864 2.833-.421.321-.02l-.198.071zm-1.927-.464c-1.21-.299-4.046-1.261-1.36-.556-1.557-1.508 3.018-.446.37.068-.177.118 1.85.513.99.488zm-19.13-1.375c-.302-1.013 2.829-.058.352.069zm.787-.267c1.333-.086-1.977.01 0 0zm-8.16-23.855c-1.638-.597-4.484-1.348-4.997-2.847 1.498-.362 1.814-2.17.562-3.374-1.307-2.224.082-4.446 1.468-6.185 1.324-2.02 4.258-1.871 6.233-1.06 2.244.887 3.38 3.72 2.225 5.876 0 1.745-1.463 3.03-2.308 4.363 3.06.764-1.642 4.126-3.182 3.227zm13.91-3.62c-1.653-.072-5.171-1.489-2.534-3.196.355-2.115-2.839-3.54-2.125-6.11-.182-3.066 2.618-5.824 5.692-5.475 3.64.376 6.301 4.65 5.057 8.088-.37 1.845-4.735 3.044-2.386 4.71.218 1.68-2.546 2.071-3.704 1.983zm3.687-4.969c-.197-.727-.832.845 0 0zm-.555-6.302c-.604-1.524-3.792-1.063-4.244-.193 1.319-.864 3.125-.862 4.244.193z" style="fill:#f3c7ab;stroke-width:1" transform="translate(1541.807 -1238.277)"/><path d="M-1541.797 1286.886v-4.272c1.857-2.856 4.874-.307 6.96.351-1.195-1.234-4.303-3.206-6.296-1.51-1.62 1.538 1.25-2.08 2.503-.866 1.367-.212 3.356 2.456 4.087 1.142-1.905-1.181-3.716-3.397-6.21-2.711-1.282 1.113 2.18-.185 2.838.855 1.945.966-2.743-1.237-3.327.752-1.306 1.96-.062-3.227 1.024-3.955-2.082-1.118-1.731-3.808-.813-5.767 2.037-2.136 2.15-5.23 2.995-7.869 2.48-.887 4.7 3.05 7.421 1.677 1.23-1.093 3.301-2.696 3.137.138.27 1.585 2.663 1.243.946 2.794-2.2 1.946 2.118 4.75-1.306 5.637-2.116.571.336 3.444.07 5.11.237 1.88.705 3.83.674 5.678-1.127 1.803.187 3.067 2.2 2.36 2.36.852 2.828-2.292.797-3.092.418-3.807.239-7.71 1.312-11.422-3.084.175-2.842-3.632-2.165-5.634.117-2.338-.288-8.043 3.564-6.25 2.33 2.112 4.803.462 7.211-.125 2.06 2.31 1.416 6.27 1.98 9.256.662 1.853-.954 2.371-2.332 2.341 1.076 3.673 1.01 7.614 1.287 11.426.112-2.566 5.192-3.1 5.649-1.049-.537 1.712-3.545 5.762.392 4.425 1.103-1.8.476-4.4 1.028-6.531-.05-1.986 1.239-4.608.611-6.135-1.727-.845-1.484-4.186-.966-5.014.894.32 3.74.692 1.255.599.435.404 2.22.778.673.508.748 2.07 5.08.768 2.382-.965-.974-.714-4.7-.757-1.742-.019-2.386.219-3.64-1.499-3.867-3.597-1.67-1.768 1.958-1.306 2.773-.527.07-2.453 1.973-1.096 2.519.256 2.083 2.078 5.953 1.74 7.276-1.003.765-.809 2.336-3.087.547-1.191-1.424 2.457-4.548 4.438-7.127 2.322-2.43-1.195-1.652-3.585-1.456-5.567-1.075-2.176-2.541-4.911-.654-7.134 1.524-2.196 4.421-1.847 6.672-1.297 2.232-.315-4.941-1.012-1.547-.935 3.716.04 6.32 5.021 3.825 7.947.682 1.538.745 2.34 2.427 2.92 2.811 2.87.896 7.67 3.646 10.593-.166 2.212.43 4.747-.544 6.685 1.094 1.775-.01 1.667-1.365 1.477-1.015.329-4.171 3.057-2.03.93 1.894-.99 4.262-1.843 1.962-2.1 3.21.171-1.123-1.207-1.97.146-.85.239-3.213.998-1.056.573 2.603-.75-3.33 1.124-.397.746 2.015-.59-1.979 1.357-1.957-.327-.497 3.133 3.534.846 4.311-.213-1.351 1.371-3.223 3.26-5.03 1.33.868 4.01 4.583.03 6.687-.413.958.07 2.001.898.438.19-2.481.056-4.67 3.415-7.036 1.958 2.187 2.204 4.505-1.099 6.678-1.558 2.64.998.782 4.915 1.317 7.178.046 1.616.517 3.688-1.677 3.065l-8.412-.03c-1.517-2.12-4.536-1.683-6.584-2.98-1.413-.67-5.58.814-2.286 1.446 1.083.383 4.37 1.167 4.026 1.518-1.898-.376-4.786-1.008-5.847-2.063 1.442-1.78 4.194-1.045 6.01-2.13-1.669-.53-5.662-1.224-6.787 1.148-.211 2.824-3.718 1.506-5.53 1.346.077-1.29 1.767-3.737-.926-2.859-3.431.034-6.865-.082-10.293.093 1.08.724 5.317-.01 4.014 1.94-1.315.576-3.98 2.713-4.517 2.19.94-1.05 5.227-1.978 3.868-3.309-1.015-.257-4.176-.55-2.188-.066-1.86-.03-1.492 1.756-3.252 2.125-1.032 1.073-2.226 1.928-3.767 1.621h-8.713c-.01-1.435-.013-2.873-.02-4.307zm43.072 2.76c.387-1.095-2.664-3.071-2.074-2.713.217 1.665-3.256-1.915-1.536.204 1 .76 1.545 1.578.088.295-.979-.52-.365-2.692-1.03-.732-.11 2.35 2.711 3.187 4.397 3.348zm-3.187-1.2c-1.44-1.105-.242-.525.38.19zm-27.526.968c1.52-.134 2.41-2.362 1.677-2.452.012-.676-.43-.661.323-1.64-.514 1.909-5.064 2.552-3.192 4.746.459-.1.762-.494 1.192-.654zm34.096.281c1.04-1.962 1.56-4.18 1.601-6.38-2.089.459-1.868 3.703-2.3 5.531-.35-1.852 1.006-3.708.919-5.33-.576 1.906.169-1.16-.811.362-.666 1.656-2.13 4.824.08 5.776l.27.06zm-7.001-.703c-.745-1.39-1.508-2.375-3.064-1.423-2.013.345 2.194 1.18 3.064 1.423zm5.13-1.179c-.291-1.37 2.128-5.099-.046-4.634-.605.773-1.107 5.248-.117 2.534.328-.876 1.383-2.52.45-.65-.497.751-1.492 4.115-.333 3.156l.046-.406zm-13.774.802c-.886.01-4.24-.072-1.728.038.575.026 1.156.05 1.728-.038zm-22.828-.62c2.143-.63-.134-2.514-.671-.656-.136.462.107 1.46.671.655zm22.865.271c-1.737-.16-1.644.106 0 0zm-20.877-.524c.497-1.004 1.869-3.396 0-1.56-.454.404-1.477 2.583 0 1.56zm17.007.315c-1.624-.202.986.21 0 0zm16.349-1.684c.795-2.108.834-4.487 1.744-6.46-.73-1.4-3.192-3.361-2.546-4.457.675.415-.098 2.536 1.461 1.903-1.01 1.374 2.375.472.847 1.646 3.481.886 2.832-4.742-.076-4.943-.886-.987-4.09-2.638-3.087.07 1.597 1.403-.744.129-.223 1.663-.097 3.09-.16 6.181-.208 9.272.542.244 2.031 3.67 2.088 1.306zm1.177-10.007c-.53-1.238 2.077-.24.182.088l-.136.045zm.184-.953c-1.825-.382.703.046 0 0zm-1.649-.587c.407-1.045 2.503.405.37.163l-.135-.018zm-35.457 11.425c1.706-1.422-2.4-4.635-.692-1.391.126.306.305 2.948.692 1.39zm23.645.265c-1.548-.771-.897-4.017-2.6-2.506 1.785-.365 1.276 2.23 2.6 2.506zm-21.449-.29c1.714-1.022 2.046-5.033 1.867-5.252.028 1.057-.118 2.569 1.238 1.848 3.053.554.485-3.697.803-5.31-.466-2.19-1.756-5.577-2.073-6.962-.58 1.877.029 4.051-1.38 5.567.408.888-.295 2.375-.15 1.673.684-1.247-1.035-1.049-1.473-.97-.88-1.31 2.161.157.87-1.065-1.284.62 1.685-.65-.668-.442-.328-.67 2.885.351 2.302-1.525.233-2.675-2.215 1.242-3.432 1.72-2.318 1.019-1.142 5.432 1.226 4.004-.222-.845-.253-1.386.814-.846-.423 1.865-3.26.654-2.149 2.875.37 1.613.033 3.833.611 4.985.548.034 1.077-.151 1.594-.3zm16.925.148c1.15-2.108-2.702-2.682-2.043-.397-.323-5.485-.246-11.001-.532-16.496-1.898.684-.714 3.24-1 4.87v10.051c-1.314 2.922 2.012 1.852 3.575 1.972zm11.335.06c1.348-.79-1.752-2.913.442-2.92.55-3.79.13-7.652.796-11.424-.642-2.659-1.174 1.907-1.342 2.784-.613 3.796-.841 7.644-.892 11.486.293.201.678.108.996.074zm-10.31-1.697c.639-2.61-2.323 2.138-.55 1.188.18-.397.307-.82.55-1.188zm8.009 1.36c.307-4.974.985-9.92 1.903-14.817-1.745 4.711-1.8 9.813-2.435 14.74-.146.456.448.502.532.077zm4.325-.396c-.465-.816-.414.847 0 0zm-27.53-.74c.35-.928-.79 1.13 0 0zm-.41-.143c-.142-.782-.888.663 0 0zm29.046-3.816c-.457-2.716 1.207-6.172-.786-8.387-1.055-.494-.644-2.42-1.053-.47-.323 1.908-.179 5.516-.268 6.283-.057 2.094-1.182 5.098 1.453 5.819 1.358 1.667.258-2.983.654-3.245zm-2.085.93c.059-2.563.351.962-.036.81v-.324l.033-.486zm.097 2.683c-.855-.717-1.196.43 0 0zm-26.303-.566c-.64-.188-.192 1.129 0 0zm27.285-.133c-.961-.778-3.319.249-.924-.058.081-.096 1.432.534.924.058zm-32.758-.534c-.554-.75-.214.657 0 0zm25.353-1.02c-.738-.063-1.178.096 0 0zm.983-.697c-1.086-.21-5.787-.167-2.477-.026.824.053 1.654.12 2.477.026zm-11.912-.482c.041-2.79-2.395.71 0 0zm-14.542-.298c-1.35-1.133-1.182-1.995-3.374-2.386-1.211-.376-2.627.236-.607.456 1.435.467 2.56 1.927 3.981 1.93zm37.682-2.37c-.097-.64-1.043.794 0 0zm-18.551-.68c1.588-1.51-1.689-1.73-.899-.411-.42.503.702.376.899.41zm-13.677-4.156c-.356-1.27-.755-.502 0 0zm1.403-.715c2.134-.101.094-4.217.27-1.06-.555 1.068-2.561-1.063-1.24.748-1.102-.346-.63-3.313-.976-.883.06.943 1.066 1.605 1.946 1.195zm-.068-1.466c1.243-2.06-1.32.638 0 0zm28.132-.987c1.752-1.13 5.18-2.418 3.6-5.07-1.368.71-2.848 1.093-4.265 1.06-.877.595-.317 4.002-.2 1.44.426-2.21-.352 2.01.388 2.586-.21.858.31.303.477-.017zm-28.371.432c.796-1.734-.271.872-1.09-.096.268.214.88.57 1.09.096zm14.785 0c1.575-1.064-3.235.736 0 0zm-7.889-.077c-2.42.37.7-4.512-1.135-1.674-.221.673.094 2.36 1.135 1.674zm7.512-.382c1.366-.541-.231-2.497.335-.495-.711.82-2.186.278-.412.506zm-15.677-.33c2.391-.49-.617-.239-1.143-.359 1.116.054 4.566-1 1.67-.488-1.074.135-2.777-.442-.646-.2 1.142.423 3.363-1.235.922-.363-1.199.525-2.111-.602-.419-.52-.01-1.656-4.018 1.39-2.252 1.544-.07.7 1.444.436 1.868.385zm14.219.11c-.711-.667-3.18-.4-1.052-.086l.555.051zm1.17-.164c1.766-1.681-2.067-1.186-1.367-.597 2.469.68-3.502-.796-.677.331.668.062 1.396.77 2.044.266zm8.538.06c-1.302-.954-1.243.12 0 0zm-15.94-.344c1.198-1.007 3.985.02 2.585-.598 1.08-.156 2.203-.774.288-.393-1.14.121-2.12-.778-.434-.226 1.203.445 2.71-1.042.66-.42-2.494.093 1.346-.76-.525-.784-1.2-.614-4.022 2.318-2.574 2.421zm16.035-.193c-.907-1.71-2.41-.33 0 0zm4.524-2.002c.748-2.894-3.654-2.497-1.892.39.567 1.438 2.476 1.7 1.892-.39zm-31.212 1.263c2.56-1.223.566-4.928-1.903-4.37-1.891-.38-1.55 4.022.617 4.027.42.148.851.254 1.286.343zm17.978-.049c-.465-1.107-1.716.618-.03.021zm-7.6-.784c-.843.141-.442 1.055 0 0zm-5.926.183c.508-.962-1.538.485 0 0zm-9.876-.621c1.723.576 2.706-.661 1.344-1.983-.635-1.04 1.438 2.493.474-.053-.595-1.25-.857-2.297-.03-.494.998 3.06.461-3.256-1.902-2.12-1.4.89-1.207 3.623-1.146 5.081.457.12.884-.24 1.26-.431zm23.258.404c-.332-.617-.447.62 0 0zm10.495-.284c-.572-1.888-3.63-4.391-4.366-3.53 2.291-.635 3.968 3.371 4.366 3.533zm-26.76.078c2.691.043 1.78-5.807-.124-2.565-.109 1.4.474 2.024-.11.282-.783-1.758-.17 3.382.234 2.283zm23.754-.132c3.339-1.512-2.208-.213 0 0zm-11.192-2.448c.199-.877-.233-5.424-.928-3.035.262 1.288-.708 5.214.997 4.696.117-.563-.169-1.1-.07-1.661zm-9.516 1.886c-.539-.832-.886.747 0 0zm20.782-.61c-.17-1.147-1.191 1.455 0 0zm-9.3.297c.589-1.016 3.23-.278.937-.72-.316-.038-1.214.287-.937.72zm-10.871-.258c-1.062-.338-.883.395 0 0zm12.88-.016c-1.69.013 1.269.075 0 0zm-13.613-.655c-.035-1.208-1.104-3.954-1.008-1.083-.044.559.2 1.923 1.008 1.083zm32.22-1.429c.507-1.174 2.915-2.98.535-1.3-.559.542-1.37 3.47-.536 1.3zm-11.44.362c-.784-.963-.749.574 0 0zm-12.967-.475c-1.328-.84-2.235-4.22-2.842-4.167 1.042 1.19 1.531 3.775 2.842 4.167zm5.405-2.75c-.687-2.548-.87 3.397-.08.36zm13.785-1.07c3.475-.21 3.002-5.394-.406-5.134-1.282-3.01-4.978.384-2.446 2.207.366-1.032 1.895.27.982 1.228 1.409.664-.58.329-.053-.694-2.211-.78-.974 2.186.565 2.278.419.195.916.277 1.358.116zm-1.012-.48c.42-.439-1.05-.321.491-.46.577.01-.256.738-.491.46zm1.296-2.019c-.398-1.143 2.22-.529.2.094-.018.1-.339.016-.2-.094zm-3.224-1.395c-1.416-.735 2.223.114 0 0zm2.07-.156c.901-.973 2.78.29.685.129-.198-.074-.554.143-.686-.129zm.882-1.421c-.954-1.081-1.702-.734-.277.22.687.561 1.53.313.277-.22zm2.315-.03c-.019-1.703-3.359-2.968-3.565-2.71 1.543.224 2.712 1.5 3.565 2.71zm.228-1.765c-1.066-1.603-1.172-.841 0 0zm-31.798 37.668c-1.866-.713 2.173.582.185-.033zm27.595-.149c.374-.882 1.958.013 0 0zm-.672-.273c.853-.334.863.05 0 0zm-26.045-.207c.883-.348.468.138 0 0zm25.735.01c1.49-.788 1.94-.374 0 0zm-.964-.19c-.066-.298 1.337-.378.086-.384 2.789-.418-.533.61-.086.383zm-16.284-.145c-3.055-1.345 5.934-2.499 2.556-.507-.826.284-1.699.37-2.556.507zm1.927-.835c3.328-.98-3.507-.127-.665.2l.333-.103zm11.637.447c-1.156-.25-2.765-.976-.724-.328.505.11 2.266.773.724.328zm2.307.07c.4-.315 1.58-.398.473-.095zm-3.18-.555c-.901-1.528 2.875.274.246.109l-.128-.056zm1.097-.03c-.129-1.509-2.282.553-.184-.259-.564.342-.623.518.184.26zm-18.436-.635c1.213-.136-1.529-.264.142-.474 1.25-.282.756.6-.142.474zm.949-.325c-.729-.396-1.676.411-.331.076zm-3.064-.146c.673-.245.907.257 0 0zm-5.425-23.688c-1.689-.422-4.537-1.47-4.997-2.706 3.086-2.03-1.58-4.67.274-7.27.997-2.362 3.29-4.652 6.06-3.98 2.527.24 5.048 2.642 4.246 5.32.308 2.232-1.936 3.731-2.35 5.292 2.284 1.623-1.708 3.853-3.233 3.344zm1.449-.338c1.413.232 3.255-3.58.975-1.63-1.993 1.565-5.193-1.559-6.336-.807 1.892 1.681-.02-.321-.984.207 1.833 1.13 4.024 2.676 6.345 2.23zm.529-1.615c1.935-.55.25-1.911-.874-.904-.99.04-1.776-.827-.36-.26-1.968-1.321-4.791-2.176-5.003-5.037.944 2.978.626-4.663-.36-1.503-.75 2.247.666 4.93 2.657 6.01.888 1.09 4.19 1.148 3.927 1.243-1.998 1.207-4.128-2.6-5.706-.978 1.863.56 3.671 2.116 5.719 1.43zm.646-1.584c.728-.441 3.128-2.608 1.166-2.653 1.312 1.297-2.274 1.448-.085.812-.465-1.842 2.961-3.08.61-4.587-.772-2.693-4.196.966-3.488.692.401-1.5 4.15-2 2.197-.193-2.35.887-4.81 4.29-1.567 5.74.351.191.771.297 1.167.19zm-.6-.939c.136-.489 2.116.327.468.05zm-.268-1.634c-1.924-.707 1.433-1.89.667-1.16-2.765.443 2.043.551-.356 1.194l-.186.017zm1.067-1.43c-1.9-.028-1.553-.757.068-.49.655.137 1.068.617-.068.49zm-2.49 3.698c-2.155-.122-3.612-4.3-3.412-4.402.06 1.132 2.193 4.406.988 1.553-.454-.973-.741-3.318-.155-1.07.024 1.156 2.478 4.388 1.123 1.803-1.064-2.3-1.055-5.887 1.629-7.011-2.077 1.146-2.47 3.56-1.877 5.687.063 1.034 1.24 2.732.432.685-.444-1.232.175-4.034.616-4.157-.939.886-.462 5.686.25 2.664.641-2.176 3.08-4 5.19-2.925-1.357-3.379-7.22-3.886-8.563-.236-.535 2.833.273 7.08 3.778 7.41zm-3.577-5.822c.034-1.83.016 1.87 0 0zm8.13 2.81c.232-1.39-1.874 1.533 0 0zm.7-2.62c.643-1.774-3.486-1.578-.841-1.362.372-.01.873 2.005.842 1.361zm7.733 5.764c-2.43.212-3.75-2.38-2.087-3.806-1.316-2.256-2.997-4.752-1.82-7.453 1.091-3.175 5.598-4.643 8.15-2.265 2.389 1.766 3.631 5.799 1.45 8.16-1.417.913-3.142 2.39-1.608 4.005-.618 1.382-2.763 1.568-4.085 1.36zm2.406-.413c1.719-.032 1.574-2.435.144-.624-1.622 1.507-4.158-1.957-4.98-.87.785 1.753 3.21 1.994 4.836 1.494zm-1.713-.728c-.462-.43 3.353.229 2.306-1.434-.26 1.45-5.438.031-2.306 1.434zm1.102.01c-.957-.141-.658.24 0 0zm.172-1.65c1.745-.175 2.18-2.615.104-1.598-1.522.062-1.378.036-.084-.298.522-1.585-1.473-1.29-1.67-.122-1.37 1.04-2.63-3.012-2.214-.343.38 1.597 2.185 3.166 3.864 2.36zm-.379-.651c-2.038-.278-1.085-.5.402-.301zm2.338-1.21c1.544-1.839-3.823-1.17-.864.108l.431.06zm.587-.386c.421-1.986-.5.615-.043.053zm-4.059-.1c1.559-1.462-3.57-1.657-1.516-.063.465.221 1.037.275 1.516.064zm-2.922-1.573c-.905-2.888 2.374-6.48 5.287-4.929 1.436-.01 2.46 4.66 2.053 1.482-.757-3.092-5.65-3.403-6.923-.527-.687.994-.751 3.87-.417 3.974zm6.126.477c-1.012-.501-.641.372 0 0zm-1.376-.183c.877-.776 2.126-.242.389-.184 2.212.318.879-.61-.094-.713 1.19-.503 2.373.426 1.037-1.152-1.132-2.393-6.832-.42-4.867 1.549 1.659.732 1.468-.525 2.724.67a.85.85 0 0 0 .812-.17zm-2.209-.889c-3.23-.477 1.281-.96.41.114l-.41-.113z" style="fill:#66b6c6;stroke-width:1" transform="translate(1541.807 -1238.277)"/><path d="M-1538.569 1291.12c-.242-1.015.165-.966-.213-1.638-.174-.097.129 1.59-.217-.064-.215-.652.033-.912-.416-1.162-.136-.137-.599-.674-.381-.73.088.172-.616-.464-.848-.914-.105-.12 1.662 1.462.756.396-.675-.715-.828-1.756-.93-2.696.225.638.196 1.504.684 1.962-.315-.27-.63-2.308-.368-1.355.02.535.933 1.891.315.69-.55-1.348-.587-2.991.365-4.17-.75.29-1.21 1.12-1.953 1.323.547-.61 1.39-1.274 2.238-1.619.826-.123 1.559.17 2.118.77.97.403 1.819 1.28 2.94 1.124-.05-.71-1.198-.52-1.67-.964a20.909 20.909 0 0 0-2.308-1.393c-1.275-.136-2.441.452-3.208 1.44-.265-.35.81-1.136 1.313-1.333 1.373-.839 2.938-.051 4.054.853.556.39 1.41.946 2.044.462.222-.942-1.286-.542-1.672-1.32-1.346-1.362-3.415-2.403-5.305-1.624-.388.458-.01.648.126.848 1.128-.888 2.66-.606 3.77.148.76.623-1.047-.566-1.535-.482-1.141-.1-2.139.608-2.905 1.384.06-.783-.3-1.841.662-2.164.297-.336-.416-1.32.509-1.532 1.04-.258.257-1.277-.458-1.438-.99-.903-.82-2.445-.363-3.583.277-1.545.983-3.102 2.322-3.999.33-1.93.302-4.01 1.224-5.784.909-.09 1.602.776 2.454 1.015a8.73 8.73 0 0 0 3.1 1.235c1.19 0 2.608-.027 3.298-1.163.337-.49 1.132-1.51 1.284-.363.21.912.336 1.846.576 2.75.788-.157 2.043.07 1.049.982-.6.622-.703 1.337-.937 2.076-.807.604-.216 1.124.463 1.48.82 1.248-.436 3.252-1.978 2.792-.793-.236.15 1.237.12 1.785.67 2.619 1.038 5.303 1.347 7.985.715.424-.397 1.226-.487 1.79.86-.025.139 1.104-.25 1.439.435.536-.795.419-.093-.092.513-.337.993-1.758.29-.786-.937.895-1.65 2.222-2.938 2.744-.97.503-1.015.559-.289 1.223-.01 1.078.674.436 1.22.116.614-.452 1.513-.666 1.987-1.197-.116-.58.952-1.487.148-1.365-1.291.966.359-.09-.076-.486-.173-.204 1.41.069 1.92-.046.935-.01 1.869-.015 2.803-.023-.075-.774.198-1.793-.084-2.42-.934-.127-1.248-.803-.993-1.672.27-3.535.23-7.175 1.251-10.583-1.386.369-2.874-.903-2.582-2.343-.134-1.34.496-2.584.396-3.93.19-1.837-.088-3.934 1.03-5.507.466-.44 1.382-.897 1.834-.174.769.609 1.829.663 2.64 1.195 1.686.203 3.549-.152 4.747-1.398 1.655.602 1.556 2.67 1.897 4.11.178 2.046.542 4.094.622 6.138.127 1.246-1.598 2.215-2.465 1.175 1.014 3.547 1.062 7.322 1.309 10.997-.157 1.335.222 1.048.57-.047.171-.783.809-1.461 1.666-1.217 1.095.097 2.306-.075 3.333.182.85.547-.228 1.378-.36 2.056-.538 1.144-1.054 2.315-1.56 3.461.937-.01 1.872-.013 2.808-.02.403-4.243.745-8.514 1.679-12.681-1.723-.495-1.919-2.693-1.629-4.178.632-.496-.664-1.914.29-1.045.35-.033.686.639 1.436.457.51-.034 2.19.297.793.215-.61-.109-2.144-.259-.813.161.458.075 2.2.775.986.42-1.245-.558-.15.508.428.638.608.443 1.6.068 2.066.694.088-.72.725-1.712-.227-2.086-.904-.986-2.376-.573-3.53-1.042-.851.104.752.647 1.146.627 1.303.23-.546.11-.957-.069-.884-.21-1.107-.322-1.393-.898.228-.263 1.904-.712.98-.783-.453.077-2.014.33-1.361.91.685.447-.89-.133-.206-.734-.498-.485.305-1.027-.604-1.594-.265-.429-1.326-1.3-.346-1.498.745-.02 1.642-.174 2.31.208.567 1.334.803.48 1.02-.498.202-1.17 1.003-.635 1.33.156.808.94 1.69 1.875 2.91 2.228a8.76 8.76 0 0 0 3.054-.062c.713-.406 1.82-.97 2.014-1.965.692-.584 1.045-1.877 2.134-2.029-.414-.646-1.226-.08-1.384.517-.663.99-1.258 1.893-2.178 2.718-1.279.617-2.776.8-4.1.239-.738-.239-1.253-.903-1.768-1.405-.614-.66-1.059-1.6-1.153-2.512.367-.39.857-.772.925-1.434-.23-.584-.873-1.165-.861-1.94.146-.29-.386-1.001-.731-1.58-.64-1.975-.01-4.543 2.011-5.476 1.723-.922 4.003-.751 5.511.49a3.393 3.393 0 0 1 1.185 1.844c-.02-.809-.609-1.7-1.137-2.03 1.359.646 1.634 2.354 1.51 3.722.093.991-.454 2.02-.835 2.818.335-.216.942-2 .579-.951.416-.28.613-1.387.687-2.047.082-1.592.111.172-.054.823-.588 2.256-2.525 3.863-4.41 5.06-.285.414-2.41.136-1.41.083.775.026 1.517-.319 2.067-.852-.986.704-2.38 1.14-3.425.307.273.495.8 1.506 1.646 1.601.646.262 1.29-.073 1.916-.24-1.077.804-2.728.503-3.308-.754-.405-.966-1-1.263-.617-.03.339.852 1.005 1.49 1.564 2.199-.79-.796-1.709-1.621-1.812-2.809-.559.698-.194 1.58.362 2.164.645.95 1.437 2.165 2.758 2.182 1.68-.039 2.896-1.49 4.108-2.501.311-.624 1.32-1.168 1.24-1.795-.603.31-1.152 1.098-1.734 1.589.523-.989 1.795-1.702 1.672-2.919-.126.343-.56 1.33-1.146 1.739-1.02.911-.175-.036.265-.551.53-.511 1.05-1.394.222-1.896-1.029 1.69-2.844 2.812-4.672 3.454.767-.323-.788-.033-1.208-.515-1.107-.613-.723-.597.161-.001 1.377.479 2.827-.397 3.93-1.184.266-.4.675-.834 1.259-1.626.902-1.19 1.893-2.61 1.404-4.18-.505-2.476-2.928-4.338-5.456-4.129-1.167-.04.976-.263 1.384-.053 2.102.305 3.863 2.016 4.237 4.106.366 1.408-.197 2.906-1.061 3.96.692.36 1.12 1.223.739 1.953.482-.069 2.05.723 1.462.565-.689-.484-1.841-.37-.766.424 1.376.877 1.175 2.62 1.35 4.032.09 1.07.183 2.138.269 3.207 1.395.512 2.399 1.757 3.202 2.96v6.314c-1.478.157-.39.284-.24 1.076-.16.761.731 1.482-.483.945-1.888-.441-3.1 1.426-4.544 2.27 1.292-1.212 2.812-2.928 4.766-2.548.465-.377-1.022-1.042-1.584-.857-.784-.077 1.096-.283 1.431.088.892.568-.101-.921-.732-.693-1.723.07-3.197 1.167-4.918 1.27-.54.434 1.202.109 1.544-.091 1.333-.594.07.192-.594.366-.512.31-2.016.067-.807.518.412.264 2.041-.667 1.524-.216-.736.606-2.108.92-2.554-.186-.41-.322-.663 1.213-.07 1.388.788.557 1.911.535 2.487-.315.547-.57 1.305-1.303 2.019-1.386-1.023.406-1.643 1.36-2.408 2.056-.982.463-2.688.303-2.806-1.034-.363.732-.097 1.495.614 1.88-.347-.257-1.023-.574.097.218 1.558.467 3.132-.4 4.181-1.518.914-.596 2.275-.887 3.108 0-.478-.066-1.284-.657-1.997-.348-.89.227-1.507.896-2.191 1.44-.715.373-1.378.908-2.212.744-.734.459-1.427-.696-1.81-.528-.126.758 1.11 1.042 1.742.93.986.08 2.16-.27 2.693-.927.588-.365.945-.819 1.507-1.068.467-.569 1.388-.133 1.933.113.655.353.144 1.506.306 2.219v7.686h-5.211c-.062-.463-1.345-1.518-1.023-1.046.323.167 1.13 1.279.1 1.048-1.397-.11-2.875.23-4.215-.19-.475-.514-.1-.99-1.228-1.098-.668-.404-1.522-.188-2.09-.775-1.397-.125-2.698-.88-4.052-1.17-1.027.216-2.137.416-3.075.898.382.534 1.491.537 2.157.865 1.453.478 2.922.913 4.35 1.466-1.706.102-3.248-.835-4.88-1.22-.584-.342-1.872-.18-1.772-1.103.958-.726 2.285-.785 3.412-1.177 1.03-.247 2.111-.378 3.073-.821-.355-.719-1.542-.127-2.24-.305l-4.037.045c-.622.992-.687 2.41-1.558 3.188-1.293.192-2.681-.195-4.017-.176-1.008.228-1.105-.852-.528-1.44.119-.534 1.37-1.815.18-1.606h-11.699c.336.528 1.363.286 1.962.51.857.242 1.872.239 2.632.634.416.78-.861.954-1.31 1.331-1.3.651-2.52 1.577-3.827 2.134-.72-.096 1.061-.832 1.433-1.162 1.18-.716 2.362-1.427 3.579-2.08-.52-.594-1.614-.407-2.368-.658-.57.038-1.775-.575-2.002-.174-.048.574-.332 1.539-1.002 1.844-.528.265-1.49.813-1.534.832-.526.036-1.064 1.037-1.321 1.376-1.025.29-.4-.426.037-.538-1.104.764.725-.033-.04-.734-.274-.97-1.274-.876-1.924-.329-.642.52-1.444.446-2.014.958-.912.983-.692.128.026-.341 1.007-.233.128-1.261.091-1.909-.627-1.928-.784-4.21-2.443-5.59-.452-.573.78.723.32.1.735.914.725.687.182-.227-.6-.44-1.163-.832-1.844-1.158-1.404.326-1.633 2.132-1.468 3.355.035.282.536 2.217.48 1.127.01-.606-.134-1.537.29-1.881-.375 1.272-.088.51.264-.267-.51 1.377-.505 3.074.138 4.478.287 1.033.757 2.005 1.18 2.976-.778-.01-.634-1.237-.534 0-.463-.985-.185-.933-.292.027zm45.66-.19c-.48-.398-.983-.937-1.611-1.078.583.264 1.124.821 1.61 1.077zm-5.796-1.29c.835-.85-.498-.873-.936-1.473-.556-.468-.72-1.314-1.262-1.708.23.506.316 1.622-.552.9-.475-.342-1.25-1.17-1.442-1.281 1.2-.35-.773-.597-.503.41.423.956 1.145 1.666 1.985 2.259-.67-.173-1.42-1.369-1.688-1.304-.256.837.732 1.1 1.102 1.513-.151.388-.734-.284-1.073-.715-.334-.546.154-1.726-.901-1.034-.751.335-1.63.307-2.366.624 1.522.408 3.016.986 4.48 1.507.948.065 1.828.485 2.686.862-.04.638.419-.474.47-.56zm-2.57-1.432c-.632-.551-1.414-1.158-1.825-1.848.104-.16.812 1.009 1.273 1.253.073.095 1.267 1.064.551.595zm6.085 1.212c.565-1.341 1.255-2.661 1.23-4.149.094-.743.253-1.524.396-2.225-.877-.035-1.3.629-1.503 1.4-.613 1.487-.759 3.105-.993 4.682a13.842 13.842 0 0 1 1.35-5.827c-.833.275-.408.825-.603.028-.93-.134-.775 1.26-1.163 1.853-.484 1.19-.418 2.504-.642 3.755.562.271 1.315 1.047 1.825.718l.056-.127zm-38.27.143c.042-.277 1.381-.468.983-.746-.695-1.03-.913-.253-.822.102-.13-1.758-.035.67-.233-.409-.111-.118.079 1.883-.123.1-.179-.599.098 1.94-.13.378.064.273-.244 1.082.325.575zm19.805-.453c-1.41-.03-.915.06.199.025.42.01-.055-.014-.199-.025zm16.407-.622c-.014-1.833.64-3.552 1.24-5.25-.7.055-1.406-1.158-1.367.165-.103 1.285-1.178 2.591-.443 3.84.13-1.077.685-2.023 1.188-2.93.34-.337-.532 1.214-.691 1.577-.23.792-.303 1.643-.747 2.356.207.143.956 1.036.82.242zm-13.747.158c.213-.507.923-1.646.63-1.935-.695.36-.906.212-.124-.028.936-.637 1.14-1.917 1.644-2.885.108-.52.92-1.72-.038-1.457-1.246-.06-2.493-.106-3.74-.156-.475.636.827.173-.3.656-.241.583-1.134 1.655.08 1.262.223-.022-.69.564-.465 1.263.042.868 0 .364-.176 1.35-.162 1 0-1.035.085-1.387.448-.97-.085-1.53-.537-.373-.53 1.174-1.24 2.286-1.637 3.51 1.46.262 2.99.166 4.476.294-.269-.153.136-.05.102-.114zm-.815-.105c.276-.223 1.145-.302.312-.028.407.135-.575.15-.312.028zm-1.223-.256c1.23-.028.58.064-.292.026.097-.01.195-.017.292-.026zm-.32-1.327c.396-.652.944-1.022 1.507-1.391.334-.494.634.063-.123.2-.601.428-1.207 1.127-1.406 1.239l.023-.047zm3.384-1.663c-.234-1 .881.486 0 0zm-.465-.885c-1.429.022-1.054-.147.148-.073 1.179-.018 1.341.154.048.08h-.14zm.583 2.032a114.939 114.939 0 0 0 2.272-5.06c-.275-.206-.585 1.338-.897 1.826-.697 1.89-1.824 3.63-2.336 5.575.323-.778.588-1.589.961-2.341zm11.626 2.152c-.635-1.32-1.876-2.372-2.7-3.625-.519-.104-1.99-.052-1.99-.214 1.2-.111-1.089-.614-.581-.212.362.508.992 1.048 1.638 1.397.552.13 1.286.422 1.682 1.056.52.661.994 1.709 1.93 1.708zm-34.063-.233c-.508-.92-.943-1.113-.317-.024.194.274.982.658.317.024zm-2.383-1.099c-.046-1.496-.488-2.927-1.079-4.291-1.153-.677-.319.315-.203.967.496 1.479.994 2.966 1.317 4.49.15-.307-.055-.807-.035-1.166zm1.192.536c.315-.451 1.6-1.48.308-1.184-.772-.204-1.609.236-1.288 1.127-.106 1.176.397.304.98.057zm2.065-.725c-.43-.503.22-.498.752-1.148-.278-.304.467-.301-.041-.685-.642.672-1.512 1.246-2.002 1.988.212 1.247.743 1.096 1.209.045-.076-.064.12-.135.082-.2zm.422 1.143c.967-.323 1.817-1.162 2.397-1.994.32-.896 1.024-1.584 1.322-2.492-.771-.198-1.565-.294-2.345-.456-.852.85.663.848.282 1.572-.266.648-.995.365-1.195 1.251-.432.499-.529 1.255-.839 1.756.617-.906-.352.648.187.445.038-.068.179.027.191-.082zm32.816-.154c.427-.313-.165-1.928-.177-1.416-.167.451-.209 1.432.177 1.416zm-.278-1.717c.675-1.431.504-3.142 1.278-4.517-.331-.846.195-1.6.623-2.29-.607-.322-.952-1.127-1.588-1.521-.195-.553-1.501-.554-1.073-1.372.789-.64-.696-1.425-.396-1.437.78.124 1.074 1.123.562 1.729-.096.737 1.276.528 1.284.524-.789.482.324 1.1.98.785 1.166-.103-1.143.612.064 1.06 1.3.143 2.51-1.263 2.377-2.542-.334-1.411-1.903-2.05-2.986-2.854-.787-.366-1.392-1.22-2.156-1.461-.65-.101-.356.148-.677-.122-.414.329-.159 1.437.104 2.021 1.007.74.583 1.12-.142.162-.227.397-.136 1.624-.195 2.342-.105 2.746-.117 5.494-.167 8.241.344.547 1.215 1.415 1.198 1.62.841 1.127.537.438.91-.368zm1.18-9.903c-.76-.747.116-.311.808-.724-.66-.478.949.184-.329.591-.062.31-.173-.262-.48.133zm-1.473-1.622c-.742-.536 1.058-.352 1.432-.213.707.292-.942.198-1.214.366l-.114-.08zm-35.44 11.355c.41-.748.24-1.747-.145-2.419-.852-.224.683-.438-.583-.504.476.426-1.386-.807-.432.503.442 1.018.74 2.098.801 3.21.228-.19.232-.535.36-.79zm32.466.2c-.793-.504.183.759 0 0zm-30.25-.187c.728-.332.634-1.309 1.24-1.797.554-.755.778-1.457.544-2.396-.074-.531-.158-2.299.01-.817.081.67.166 1.615.22 2.13.235-1.034 1.259-.406 1.99-.365 1.164.497.366-1.065.425-1.64-.344-2.383-.67-4.806-1.394-7.1-.418-.604-.987-1.811-.22-.494.482.36-.457-.986-.619-1.317-.2-.648-.149-1.397.11-2.028-1.271-.276-.15.416-.822.961-.397.489.256 1.237.062 1.914-.325.832-.174 1.804-.959 2.38-.52.554-.338 1.044-.149 1.62 1.024.718-1.064 1.135-.511.417.873.493.547-.305.208-.786-.331-.765.472-1.431-.814-1.087.103-.167 1.963-.163.698-.322-.464-.278-2.207.034-.986-.42.667-.407 1.851.632 2.027-.396.198-.825.468-1.712.083-2.533-.224 1.32-1.484 2.22-2.58 2.852-1.27.487-2.155 1.933-2.136 3.277.327.862 1.17 1.643 2.11 1.706.41-.486 1.38-.882.298-1.086-.866-.314.713-.137 1.082-.34.626-.155-.5.79-.767 1.052-.278 1.022-1.619.025-1.743.528.573.473-.056 1.081.534 1.537.08.68-.738 1.126-.04 1.77.102.952.604 1.907.055 2.817-.157.557 1.422.253 1.858.082-.124.066.271-.164.185-.12zm-1.25-9.613c-1.138-.946 1.488-.093.047-.35.124.56 1.442.033 1.005.414-.463.637-.416 0-.823.21-.07-.083-.165-.22-.229-.274zm17.273 9.832c1.248.4.806-.816.816-1.6.2-1.11-1.07-.151-1.647-.333-.783-.248-.091 2.201-.328 1.616-.272-5.195-.301-10.401-.467-15.6.168.435.069 1.545.135 2.236.144 3.864.18 7.76.335 11.605 1.189-.08 2.521-.328 3.582-.899.23-.895-.067-1.978-.033-2.943-.31-3.25-.232-6.64-1.46-9.711-.485-.798-1.753-.264-2.468-.83.208-.735-1.277-.527-1.18.14-.057 5.468.013 10.939-.142 16.405.95-.034 1.915-.117 2.856-.085zm1.953-1.807c.728-1.135.32-.891-.647-.494-.732.222-.165 1.416-.26 2.061.102.7.564-1.172.874-1.497l.033-.07zm7.935 1.687c.384-5.298.97-10.603 2.157-15.786-.776-.83-.232.377-.862.7-.551.422-1.495.23-1.849-.373.018.996.317 2.379 1.444 2.624.107-.688.499-1.444.8-1.969-1.356 4.427-1.64 9.18-2.187 13.79-.07.579-.306 1.826.497 1.014zm1.249-2.049c.069-3.385.335-6.783.933-10.117.216-1.095.458-2.19.709-3.273-.946-.704-.701.943-.974 1.468-.94 4.645-1.451 9.398-1.728 14.112 1.06.418 1.156-.5 1.044-1.378.01-.27.01-.541.016-.812zm1.115 2.198c.526-.459.482-1.153-.214-1.703-.732-.548-.215-1.387.614-1.223.286-.619.138-1.663.227-2.448.09-3.375.287-6.747.566-10.112-.994-.328-.613 1.16-.922 1.734-1.027 4.521-1.25 9.172-1.338 13.793.34-.03.782.057 1.067-.04zm10.125-1.458c.118-.454.298-2.262-.01-.88-.109.328-.472 2.146-.105 1.506.046-.206.072-.418.11-.626zm-36.066-.192c.077-1.063-1.3.34-.163.166.165.1.131-.079.163-.166zm28.98-.393c.056-3.304.033-6.612.227-9.912-.076-.452-.265-1.742-.89-1.825-.728-.087-.922-1.08-.624-1.648-.836-.064-.412 1.308-.602 1.88-.273 3.534-.296 7.08-.508 10.617.782.01 1.663.035 1.968.907.315.345.54 1.066.43-.019zm-2.05-2.427c-.067-.911.229-2.133.124-.54.036.43-.155 2.582-.147 1.291.01-.25.015-.5.022-.751zm1.473 2.472c-.4-1.072-1.593-.705-2.482-.8-.995.39 1 .29 1.398.33.738-.213.992.687 1.356.877l-.272-.407zm-.283.254c-.678-.662-.97-.062 0 .07v-.062zm8.67-1.394c.697-1.116-.198-.988-.33-.02-.135.664-.36 2.125.11.696.068-.22.17-.47.22-.677zm3.04-.127c-.13-.796.064 1.128.025 1.55-.01-.517.11-1.043-.025-1.55zm-28.992-1.882c-.015-3.843.058-7.684.092-11.527-.719.119-1.697-.793-1.606.426-.049.792-.724 1.485-1.549 1.276-1.08.318-.911 1.688-1.2 2.579-.407 3.133-.645 6.289-.782 9.444 1.593.643 3.347.76 5.046.854v-3.052zm26.98 1.046c.904-1.107-1.084 1.161-.334.41.113-.135.222-.274.334-.41zm-16.259-.654c-.795-.194-2.004-.102-2.96-.185-.94-.143-2.023.101-.463.12 1.133.037 2.27.144 3.4.134zm-26.39-.866c.248-.497-1.129-.259-1.205-.974-.798-.804 1.406.803.212-.239-1.25-.848-2.835-1.59-4.339-1.064-.633.283 1.127.205 1.48.526 1.14.384 2.006 1.289 3.014 1.846.25.022.735.225.838-.096zm-2.313-2.722c-1.12-1.056-1.833-2.46-2.827-3.621-.452-1.011-.994-2.213-.625-3.316-.033 1.319.621 2.604 1.281 3.684-.304-.916-.691-1.888-.401-2.858-.02.831.2.499.222.274.263-.818.05.1.473-.821-.79 2.036.032 4.274 1.427 5.837.909 1.166.336-.186.01-.786-.316-.722-.683-1.352-.52-1.544-.173-1.116.336 1.585.298-.043-.107-1.03.198-1.021-.034-1.646.179-.082.462-1.079.649-1.02.07-.42 1.092-1.794.937-1.49-1.214 1.963-1.76 4.729-.601 6.767-.028-.53-.434-1.883-.317-1.947.186.448.601 2.517.616 1.748.06-1.02.097-2.043.228-3.056.196.75.3-1.228.459-1.598.225-.731.443-1.558.868-2.155-.329.98-.643 1.97-.797 2.995.198.095.965-1.325 1.075-1.378-.143 1.111-1.441 1.946-1.274 3.07.625-.912 1.424-1.759 2.058-2.621-.664 1.452-2.079 2.95-2.288 4.371 1.525-1.903 2.507-4.182 4.023-6.077.741-.613 1.229-.525.153-1.145-1.566-1.003-3.243-2.08-5.187-1.91-2.338.201-4.117 2.365-4.371 4.625-.17.943.178 1.873.967 2.429.767.763 1.713 1.38 2.368 2.221.536.568.95 1.562 1.817 1.75-.19-.221-.633-.58-.683-.74zm-2.562-2.995c-.411-.513-.83-1.22-.826-1.84.14.887.803 1.724 1.24 2.34-.166-.088-.275-.356-.414-.5zm42.624 3.268c-1.114-.165-.567.645-.07.136-.01-.05.295-.123.07-.136zm-40.399-.194c-.658-.758-1.691-.98-2.56-1.413a3.871 3.871 0 0 0 2.867 1.735l-.307-.322zm-2.062.122c.624-.14-1.177-.29-1.464-.7-.73.626.576.904 1.09.752.121 0 .264-.028.374-.052zm.073-.752c-1.01-.897-.35-.13.252.305.37.147-.247-.258-.252-.305zm-.314-.05c-1.243-.939.914.938.03.031l-.032-.028zm47.496-.057c.385-.105 1.325-.715 1.737-1.254.465-.361 1.236-1.49.53-1.77-.217-.318-.595 1.015-.984 1.398-.637 1.115.203-.263-.594.627.037.288-.73.543-.607.494-.575.713-.591.394-.684.663.085-.02.24.43.602-.158zm-1.568-1.056c.177-1.107.09-2.25-.018-3.363-.162 1.285-.116 2.722-.111 3.926.08-.16.062-.404.129-.563zm-45.754-.056c-1.023-.826-2.157-1.868-2.048-3.306-.193-.47-.398 1.277-.246 1.751.244.879 1.009 1.38 1.902 1.382.073.018.66.473.392.173zm-1.535-.915c-.578-.73-.55-1.382-.059-.258.14.17.451.713.06.258zm46.416-.475c-.729-1.845-1.569-3.884-3.319-4.982-1.291-.012.523.72.752 1.248 1.193 1.375 1.969 3.005 2.739 4.639.131-.31-.113-.603-.172-.905zm-38.462-1.193c1.234-.625 1.558-2.086 2.54-2.967-.484-.579-1.358.241-1.68.741-.785.874-1.26 1.957-1.92 2.917.35-.236.7-.47 1.06-.691zm5.43-.883c1.094-.394 1.09-2.343 0-2.592.233.758.323 1.985-.76 2.031-.747.105-1.111-1.685-.943-.385.823 1.092.2.804-.22-.16.084-.73.08-2.118-.293-.643-.164.94.395 2.18 1.518 1.94.275.064.467-.08.7-.19zm26.41-.739c-.997-.338-1.049.158 0 0zm.262-.522c.495-.465.711-1.46.28-1.98-.775-.2-.24 1.328-.57 1.827-.328.954.123-.967.061-1.323.033-1.392-.232.1-.232.7-.093.498-.307 1.663.46.776zm-26.91-.173c.442-.284-.074-2.114-.054-1.233-.104.657-1.043 1.179-1.44.431.154.933 1.412.521 1.559-.188.417.809-1.09 1.168-.836 1.17.257-.066.668.16.772-.18zm5.34-.036c.941-.064-.497-.828-.08-1.51 0-.73.329-1.517.998-1.873-.873.703-1.311 2.104-.438 2.98.812.263 1.114-.47 1.302-1.109.172-.894-.404 1.14-1.027 1.034-.906-.712-.505-2.3.395-2.883-1.109.06-2.599-.137-3.234 1.04-.495 1.01.074-.79.659-.797 1.411-.336-.351-.334-.814.106-1.239.8-.51 2.958.879 3.174.44.106.946 0 1.36-.162zm23.453-1.303c.577-.272 1.002-.773 1.63-1.148.508-.481 1.811-.28 1.45-1.226-.053-.84.029-1.821-.108-2.578-.914.905-2.142 1.261-3.404 1.212-.926-.193-1.372.029-1.294 1.074-.065.67-.347 2.456-.191.847-.097-.68.616-1.82-.06-2.171-.667-.111-1.096-.678-1.646-.96a18.204 18.204 0 0 0-.334 3.088c.75.201 1.181.94 1.904 1.178-.233-.462.778.249.832.583.016.998-.375 1.591.525.538.196-.242.393-.414.696-.437zm-1.779-.792c.123-.835.167-1.744.413-2.53-.104.88-.167 1.831-.41 2.661v-.132zm-12.545 1.665c.667-.404.853-1.67.471-.271.361-.024.503-1.217.338-1.768-.447-2.722-.439-5.545-1.282-8.184-.454-1.11-1.012-.45-1.122.439-.058.827-.1 1.655.034 2.478.118-.666.427-1.67.663-2.065-.338 1.09-.65 2.21-.618 3.367.385-.571 1.016-1.796.376-.435-.398.593-.847 1.805.33 1.44 1.076-.234.99.913.439 1.47-.58.756 1.134.368 1.127 1.33.093-.064-1.394-1.398-1.22-.385.644.383 1.014 1.029.84 1.818-.14 1.003-1.508.841-2.082.411.325.45 1.149.602 1.706.355zm8.048-.184c.9-.734.375-.19-.388-.098-.766.238-1.348-1.351-.81-.096.348.246.849.397 1.198.194zm-8.222-.33c.69-.349.573-1.664-.163-1.747.616.63.381 1.803-.6 1.807-1.066-.403-2.254-.567-3.251-1.043-.625.169.681.904 1.277.736.931-.029 1.869.62 2.737.247zm-.409-.407c.71-.475.061-1.718-.112-1.283.309-1.256-.098.222-.917-.21-1.194-.21.386.595.833.413-.305.464-1.416.264-1.875-.073-.585-.672.43-1.128.993-1.07.804-.781.67.225 1.22-.755 1.01-.808-.222-1.012-.967-.925-.897-.343-1.325.382-1.6 1.109-.746 1.124.115.273.37-.383.331-.983 1.52-.394 2.286-.552.496.548-.151.15-.905.22-.983-.282-1.354.42-1.665 1.218-.045.722-.75 1.123-.936 1.505.585.728 1.801.604 2.586 1.104.226-.112.52-.11.69-.318zm-1.787-.46c-.898-.109-1.566-.812-.277-.252.546.216 2.248.436.77.384-.162-.045-.338-.08-.493-.132zm-13.556.571c.455.21 1.935-.754 1.382-.65-.92.504-2.023.299-3.034.396 1.038-.438 2.326-.076 3.374-.636.695-.701-.491-.029-.964-.043-.83.034-1.909.269-2.581-.22.825.247 2.02.074 2.995.081.639-.365.78-.31 1.007-.564-.169-.703-.903.549-1.476.188-.4-.031-2.305.253-1.548-.22.408-.273 1.936-.16 1.447-.797-.878.018-1.782.058-2.35.841-.688.425-1.46 1.169-.134.922.727-.091-1.035.347.278.823.519.012 1.076-.063 1.604-.122zm23.982 0c.05-.281-1.26.017-1.292-.78-.126.71.795 1.068 1.292.78zm-16.113-.324c.582-.503 1.297-.812 1.958-.201.45.01 1.862-.259 1.64-.448-.343.078-2.254.361-1.206.054.794-.17 1.725-.155 2.375-.672-.167-.316-.632-.304.068-.312-.69-.651-1.755.176-2.62-.115-.866-.386.939-.285 1.295-.506-.427-.336-1.438-.116-2.084-.234-.51.528-1.784.678-1.421 1.67-.103.044-.764.587-.532.095-.196.439-.086 1.166.527.67zm2.218-1.1c-.552.078-1.797-.734-.705-.222 1 .283 1.97.013 2.966-.05.04.198-1.285.328-1.826.337-.14-.025-.333.06-.435-.066zm13.909.902c-.395-.184-1.2-1.21-1.446-.875.189.691.792 1.166 1.446.875zm-11.997-.228c-.468-.835.136.547.023.017l-.022-.02zm-14.577-.615c.89-.268 1.138-.954.82-1.794-.262-.63.079-2.061-.77-2.045-.966.076-1.918-.216-2.751-.632-.51-.198-.47-.139-.393.86.311-.664-.206 1.145-.158 1.44-.225.972.175 1.376 1.084 1.55.758.205 1.402 1.278 2.168.62zm7.632-.884c.574-.274 2.115.347.993-.534-.97-.355-1.428-.53-.14-.19.72.626 1.092 1.073.943-.25-.069-.7-.353-1.355-.606-2.006.384.269.664 2.06.56.747.011-.706-.461-1.422-.454-2.06.181.463.603 2.291.45.898.012-.869-.29-1.762-.45-2.55.338.675.592 1.41.589 2.172.298-1.456.108-3.26-1.126-4.235-.922.191-.963 1.522-1.147 2.309-.259 1.71-.185 3.468-.41 5.165-.366.99-.152 1.257.692.557l.102-.034zm1.435-.64c-.538-1.398.648 1.162.02.045zm-4.731.904c.273-.762-1.687.362-.168.141.082.015.108-.104.168-.141zm12.323.033c-.346-.392-.87.375 0 0zm19.838-.552c-.01-1.015.701-1.83 1.254-2.611-.525.961-1.254 1.943-1.105 3.098-.01-.518.694.184 1.429-.113.717.186 1.636.565 1.196-.603-.146-1.5-.122-3.027-.512-4.49-.706-.282-1.412.652-1.75.892-.628.906-.98 2.157-.901 3.33-.232.723.203 1.944.39.497zm.366-2.233c.065-.403 1.064-2.09.687-1.243-.14.196-.743 1.688-.687 1.243zm-43.63 2.59c1.037-.555 2.282-.542 3.392-.233-.301-1.206-.33-2.526-1.055-3.606-.577-1.179.48.618.608 1.025.33.45.297 2.191.428.842-.064-.684.262-1.5-.128-2.1.18 1.447.215.606-.346-.188-.641-.345-1.329-.768-2.005-1.016-.552.317-.632 1.322-.805 1.96-.203 1.115-.464 2.493-.41 3.48l.32-.164zm2.72-1.824c-.698-1.329-.101-.475.255.365.446.923.09.406-.255-.365zm21.657 1.833c-.322-.725-.646.65 0 0zm10.754.127c-.873-1.298-1.69-2.702-2.724-3.872-.68-.164-1.66-.119-2.286.026.532.32 1.798-.22 2.383.291.938 1.113 1.73 2.452 2.561 3.582h.065zm.32-.396c-.342-1.196-.17-2.54-.491-3.702-.408-.49-.866-1.415-1.077-.25-.29.778-.736 1.579.083 2.198.5.688 1.106 1.604 1.59 2.122l-.105-.368zm-.446-.969c-.349-.295-.515-2.1-.361-1.394.19 1.123.377 1.069.058-.023.171-.219.257 1.16.44 1.507.365.716-.08.093-.137-.09zm-26.43.71c.972.188.637-1.064 1.32-1.382.228-.534-.378-1.487-.326-2.207-.344.327-1.377.811-1.758 1.036.185.223-.763-.233-.282 1.033.177.594.1 1.871.369 2.064.224-.178.393-.486.677-.545zm8.447.381c.755.351 1.148-.655 1.896-.598.574-.01 1.864-.32 1.95.293-.087.701 1.339.22 1.297-.454.306-.554.577-1.407 1.377-1.18-.08-.824 0-1.671-.198-2.478.233.325-.064-1.322.01-1.798-.034-.65.235-1.274.508-1.852a5.631 5.631 0 0 1-3.315 1.412c-.116.094-1.406-.332-.861.944.077 1.579.093 3.16.062 4.74-.063-1.91-.061-3.824-.196-5.732-1.088-.09-2.091-.666-3.076-1.102-.996-.768-1-.252-.315.499.744 1.823.17 3.84.255 5.752.093.515-.394 1.92.5 1.554h.1zm3.675-2.555c0-1.757.07 1.108 0 .41v-.41zm-.068-1.893c-.02-1.678.087.685 0 .583v-.583zm-9.462 3.686c-.04-.72-1.433.39-.082.098l.083-.1zm24.365-2.37c-.543-.35-.15 1.356-.114 1.816.221 1.445.21-.465.293-1.017-.012-.31.194-.63-.18-.8zm-3.502 1.749c.583-.62-1.457.034-.692.514.22.011.4-.49.692-.514zm1.48.166c-.112-.424-1.061.476 0 0zm-21.748-.073c-.106-.408-2.009.192-.244.114.13.072.187-.032.244-.114zm31.144-.94c.207-1.255.981-2.608 2.174-3.126.888-.45-1.057-.262-1.023.46-.923.885-1.308 2.086-1.318 3.34-.092.719.189-.621.167-.673zm-31.832.341c-.319-.976-.364-2.165-.794-3.04-.377.9-.332 2.09-.113 3.098.221-.052.87.093.907-.057zm29.05-.462c1.779-.405 2.78-2.096 3.649-3.556.881-.34.879-1.483.01-.883-1.16 1.563-2.634 3.074-4.477 3.76-2.057.352-3.365-1.696-4.12-3.307-.751-.564-.285 1.003-.022 1.382.867 1.853 2.921 3.134 4.965 2.604zm-8.229-.656c-.584-.775-.974.305 0 .058zm-22.032-1.046c.202-1.474-.414.864 0 0zm35.666-1.6c-.577-.832-.741-.494 0 .034zm-7.037-1.82c1.245-.327 2.194-1.46 2.158-2.772.039-.78.01-.685-.44-1.022-.85-.874-2.442-.705-3.218-1.779-.652-.628-.27-1.486-1.09-.565-.63.314-1.685.4-1.536 1.35.18.682 0 1.926.873 2.064 1.611.135-.033-.722.153-.787.62.337 1.423.957.826 1.705-.49 1.104 1.445 0 .628.706-1.24.264-.432-1.075-.732-1.446-.457.644-1.557-.705-1.295.405 0 1.282 1.327 1.957 2.349 2.348.458.016.925.024 1.324-.207zm-1.467-.356c.516-.06.132-.397-.274-.303.766-.075 1.507-.399.515.38-.088.01-.167-.036-.241-.077zm1.274-1.976c-.144-.179-.533-.573.581-.575 1.09-.613.263.192-.12.489.056.235-.306.04-.461.086zm-3.293-1.462c-1.113-.198.598-.628.883-.12.082.396-.652.086-.883.12zm2.16-.131c-.13-.485 1.371-.374 1.821-.215.83.275-.846.053-1.182.348-.208-.046-.526.117-.638-.133zm3.801 2.354c.634-1.178.172-.43.447-.47.181-.45.23-.168.706-1.057.894-1.463.799-3.335-.12-4.763-1.123-1.781-3.534-2.15-5.41-1.472-1.229.371-.77.344.232.274 1.962-.227 3.68 1.316 4.155 3.146.547 1.515.136 3.122-.41 4.568.234.065.288-.098.4-.226zm.023-1.877c.267-1.76-.453-3.6-1.865-4.692-1.408-1.012-3.705-1.086-4.738.504-.638 1.343-.902 3.23.091 4.456-.476-1.189-.829-2.589-.179-3.777 1.054-1.521 3.345-1.331 4.557-.109 1.125.948 2.1 2.41 1.995 3.92-.412 1.439.137.278.14-.302zm-2.028-1.26c-.757-.564-1.911-1.27-2.316-1.864.227 1.102 1.412 1.781 2.444 1.95.284-.225-.134-.029-.128-.087zm-3.151-1.662c1.18-.569-1.461.28-.522.093.191.01.365.044.522-.093zm-32.316 36.997c-.33.199.723-1.273.389-.443.017.243-.351.964-.39.443zm5.953.067c-.445-.164-2.37-.637-.981-.377.405.058 2.124.59.981.367zm-4.847-.1c-.542-1.304.641-.588.132.107-.067-.01-.16.033-.132-.106zm13.126-1.132c-1.334-.068-.282-.923.495-.894 1.026-.28 2.01-.939 3.085-.48 1.167.334-.205.92-.766.953-.931.188-1.873.793-2.814.421zm2.256-.48c1.116-.33 1.47-.558.112-.14-.36.335-2.122.234-1.042.227.786-.291 1.853-.449 2.48-.764-1.088-.423-2.249.13-3.306.49.807.414-.706-.275-1.04.171.086.292 1.323.57 1.854.335l.942-.319zm11.292.057c-.502-.126-2.123-.65-.724-.285.518.097 2.017.653.723.29zm-.63-.475c-.505.158 1.662-.2.967 0-.28.136-.733.269-.966 0zm1.284-.357c-1.274-.159-.643-.378.172.056.013.095-.147-.026-.172-.056zm-35.288-7.09c.6-.767.744-.344 0 0zm9.33-17.27c-.98-.06-1.975-.64-2.72-.947-.614-.383-1.216-.617-1.816-1.115-.974-.01-.917-1.115.09-.906.132-.322.204-1.163.9-1.286.106-.41-.846-1.224-.992-1.874-.914-1.685-.678-3.922.793-5.22.605-1.34 1.765-2.52 3.317-2.574 2.167-.25 4.818.527 5.752 2.669.547 1.136.568 2.437 0 3.566.493.55-.804 1.018-.432 1.765.189.795-.911 1.138-1.298 1.725-.959.404-.688 1.44.283 1.417.69.255-.261.97-.443 1.342-.718 1.187-2.105 1.702-3.43 1.439zm1.855-.433c.99-.39 1.574-1.41 2.104-2.248-1.037-.092-1.602 1.217-2.703 1.134-1.884.176-3.47-1.407-5.31-1.457-.186.487 1.106.782 1.437 1.242-.835-.351-1.615-1.256-2.581-.903 1.029.644 2.16 1.26 3.27 1.823 1.174.5 2.556.942 3.783.409zm-.292-1.362c.57-.144 1.906-.62 1.319-1.318-.462-.368-1.415.555-2.123.268-.994-.283-.8-.43.124-.209 1.15.076-.777-.555-1.147-.741-1.436-.54-2.84-1.377-3.44-2.864-.193-.268-.85-2.065-.518-1.477.229.61.567 1.336.947 1.766-.438-1.494-.81-3.141-.522-4.647-.95 1.12-1.366 2.66-.821 4.058.407 1.059 1.045 2.14 1.851 2.9 1.303.511 2.461 1.644 3.907 1.693.601-.012 2.032-.873.814-.111-1.434.823-2.771-.6-4.068-1.077-.52-.158-1.696-.919-1.83-.06.315.55 1.294.59 1.864.948 1.157.45 2.358 1.197 3.643.871zm2.01-2.564c.35-.66 1.505-.839 1.111-1.698-.48-.146-.77-.024-.928 0 .476.75-.25 1.616-.998 1.052-.592-.574 1.134.404 1.046-.305-.378-.905.084-2.054 1.145-2.129.09.01-1.174-.226.207-.486.468-.954-.5-1.831-1.188-2.33-.23-.953 1.09-.56 1.261.096.381.799.405 1.818.33.346-.132-.94-1.192-1.479-2.075-1.318.739 1.469.109-.27-.611.11-1.26.363-2.046 1.51-2.563 2.644.729-1.025 1.537-2.35 2.906-2.444 1.116.64.397.98-.359 1.508-.78.96-2.245 1.121-2.881 2.179-.202.989-.382 2.219.617 2.848.682.492 1.87 1.36 2.528.382.14-.142.34-.36.451-.454zm-1.473-.043c-.792-.544.56.04.986-.104.882.262-1.333.092-.986.104zm-.173-1.705c-.371-.266-.275.184-.654-.5-.46-.643.986-1.036 1.46-.747.532.595-.86-.298-1.197.216-.725.396.174.24.429.576.715-.1 1.337-.321.398.391-.358.194-.261.048-.436.063zm.93-1.406c-.467-.344-1.722-.186-1.785-.202.678-.702 1.58-.116 2.397-.203.222.356-.294.624-.612.405zm-2.094 3.808c-1.134-.294-2.286-1.067-2.95-2.067-.495-.954-.871-2.005-1.012-3.073.364 1.307.728 3.06 1.788 3.798-.535-1.319-1.234-2.685-1.218-4.144.299 1.57.94 3.124 1.84 4.43.918.57.372.156-.04-.549-.917-1.963-1.491-4.534-.176-6.444.454-.555.993-1.067 1.696-1.273-1.98.862-2.562 3.254-2.182 5.213.27 1.043.414 2.217 1.19 3.03-.649-1.892-1.362-4.27.012-6.005.103-.024-.709 1.267-.525 1.878-.08.872.08 1.724.249 2.575.402-1.964 1.39-4.137 3.386-4.888a2.473 2.473 0 0 1 2.51.63c-.657-2.032-2.844-3.115-4.884-3.153-1.8-.145-3.619 1.045-3.96 2.87-.35 1.655.122 3.406.66 4.977.688 1.198 2.079 1.962 3.398 2.23.025-.042.354.114.218-.035zm-4.008-5.931c-.019-1.772.087.677 0 .652v-.652zm8.152 2.796c.814-1.039-1.675.365-.67.363.34.03.536-.034.67-.363zm27.73 6.398c-.853-.09-1.734-.99-.442-.257.784.336 1.68.11 2.37-.338-.48.467-1.26.797-1.928.595zm-1.623-.354c-1.043-.65-.796-.732.105-.033 1.03.64.432.421-.105.033zm-17.587-2.888c-1.118-.26-2.41-.55-3.19-1.442-.197-.615.37-1.09.814-1.4.357-.303.686-1.458.043-1.698-1.785-1.361-2.256-3.9-1.835-5.997.44-2.258 2.474-4.056 4.786-4.136 1.747-.183 3.36.776 4.434 2.095 1.32 1.182 1.645 3.133 1.644 4.823-.205 2.116-2.264 3.2-3.572 4.625-.048.368.205 1.14.763 1.158.596.612-.313 1.23-.848 1.491-.91.47-2.001.686-3.039.481zm1.947-.279c.743-.225 1.857-.607 1.943-1.463-.572-.657-1.022.691-1.683.706-1.49.595-3.103-.245-4.235-1.185-.222-.76-.633-.472-.694.26.372.692 1.183 1.444.126.503-.687-1.228-.631.308.2.516.998.439 2.045.714 3.154.818.4-.036.805-.025 1.19-.155zm-.491-.78c.785-.098 2.147-.68 1.518-1.654-.134-.634-1.025.671-1.738.434-.875.124-1.618-.449-2.338-.863.801.79 2.162 1.723 3.348 1.017.97-.779-.392.659-.937.379-1.063.132-1.947-.5-2.469-1.384-.468-1.002-1.172-.674-.646.285.264.458 1.621 1.87.639.859-.442-.823-1.345-1.066-.463-.101.625.531 1.357.788 2.113 1.088.326 0 .666.023.973-.06zm-.929-.155c-.936-.184 1.651.031 1.056.01-.334.106-.724.073-1.056-.01zm1.467-1.637c.7-.374 1.57-.802 1.827-1.586-.782.08-1.784-.011-1.997-.89.213-1.08-1.007-.752-1.015.119-.677.65-2.168.567-2.54-.34.19-1.05-.6-1.3-.317-.091-.042 1.47 1.126 2.514 2.398 3.011.486.298 1.194.053 1.644-.223zm-.514-.581c.317-.316-1.511-.23-.984.052-.335-.357-1.07-1.04-.045-.512.314.65 1.985-.336 1.389.226-.132.112-.785.67-.36.234zm-.753-.942c-.777-.692.935.733 1.12-.28.68-.42-.177.565-.8.49-.115-.021-.222-.158-.32-.21zm3.243-.409c.62-.648-.202-1.524-.596-.868-.283.19-.48.165-.929-.304-.73.058-.304 1.495.46 1.31.33.01.87.205 1.065-.138zm.2.068c.45-.326.752-1.483-.09-1.489.138-.044.755 1.17-.142 1.56.088.01.158 0 .23-.07zm-6.417-.13c-.626-.763-1.32-1.765-1.64-2.54.287 1.038.803 2.099 1.738 2.672-.144.224-.039-.152-.098-.133zm2.633-.286c.752-.312.387-1.604-.302-.962-.305.285-.46-.11-1.033-.29-.7-.555-.957 1.095-.225 1.21.479.122 1.137.366 1.56.042zm-2.842-.993c-.425-1.773-.135-3.934 1.477-5.033 1.327-1.222 3.558-1.068 4.687.339.85.793 1.09 1.996 1.199 3.11.13-1.523.01-3.3-1.374-4.248-1.897-1.54-5.104-.625-5.874 1.704-.559 1.49-.652 3.362 0 4.767.011-.19-.08-.449-.118-.64zm-.502-.343c-.67-1.047-.736-2.314-.888-3.513-.206.247-.197.341-.156 1.46.138.942.537 1.937 1.295 2.5l-.25-.447zm6.47.314c.529-.229-1.609-.274-1.138-.052.377-.098.747.255 1.137.052zm-1.258-.322c.215-.603 1.682-.443 1.438-.171-.4-.65-2.06.554-.752.01 1.669.287-.617-.022.433.203.686.473 1.203-1.049.578-1.346-.558-.62-.883-1.54-1.839-1.558-.694-.85-1.254-.191-2.062.014-.913.08-1.278 1.071-2.076 1.44-.168.89.759 1.008.853 1.145.63.065 2.439.535 1.226-.318-.096-.398.957 1.115 1.555.817.288.066.48-.06.646-.234zm1.68-.59c-.39-.285-1.695.263-1.61-.21.448-.306 1.772-.566 1.738.282l-.121-.069zm-3.886-.203c-.353-.346-2.19-.118-1.235-.614.61-.212 1.378.218 1.92.441.32.472-.517.174-.685.173zm5.408-.5c.165-1.211.28-2.653-.15-3.745.404 1.675.046 3.425-.444 5.064.056.337.615-1.016.594-1.319zm-8.494-1.265c-.17-1.284.55-2.496 1.454-3.351-1.222.824-1.863 2.599-1.411 3.953-.015-.2-.025-.406-.043-.602zm26.485 6.35c.284-.695.983-1.426.23-.296-.04 0-.275.53-.23.295z" style="fill:#272b36;stroke-width:1" transform="translate(1541.807 -1238.277)"/></svg>