<svg xmlns="http://www.w3.org/2000/svg" viewBox="0 0 52.917 52.917" height="200" width="200"><path d="M-1730.89 1392.876c-2.304.036-2.275 2.808-2.027 4.475.262 1.85.257 3.619-1.246 4.942.657 1.873 3.592.634 5.194 1.01 3.212-.042 6.427 0 9.634.01 1.657.215 1.864-2.3.196-2.127-.728-1.938-.205-4.23-.323-6.313-.06-2.794-3.334-1.783-5.171-1.964-2.085.034-4.175.126-6.257-.034zm26.951.422c-2.307-.034-4.321 1.26-6.387 2.091-1.69 1.53-2.42 3.922-4.23 5.3.21 1.222 2.544 1.416 1.278 2.898-.405 2.794 2.545 3.826 4.368 5.014 1.17.618 3.51-.34 3.992.2-1.654 1.867-4.223 3.018-4.765 5.719-.05 1.864-2.416 4.942-3.526 1.922-.7-2.037-4.57-4.12-5.45-1.311.998 1.914 1.933 3.727 1.811 5.947 1.186 2.221 3.266 4.027 5.432 5.217 2.18.388 3.02 2.21 2.151 4.152.144 2.225-.401 6.275 2.99 5.918 1.711.322 1.211-1.505 1.653-2.065.72 2.698 3.469 1.652 5.56 1.986 2.789-.423 1.784-4.261 1.66-6.263-.944-1.782.14-2.832 1.862-3.275 2.358-1.021 1.127-3.87 1.107-5.798-.332-2.834-.755-5.663-1.087-8.489-.536-2.482-3.093-3.406-4.798-4.765-1.14.244-3.507 3.101-3.737.357.452-.779 1.657-1.85.273-1.055-.425.198-1.2.352-1.445.44-1.269.562-2.42-.459-3.269-1.28-.287-.46-.36-.493-.538-1.07.041-.46-.167-.603-.203-.413-.29-.165-.013-.892-.117-1.444-.389-.799-.11-1.967-.713-2.523-.69-.652.164-1.693.574-1.315.234-.075 1.19.17 1.776.599.425.213.871.22 1.29.33 1.296-.011 1.516-.068 2.45.259.433-.097 1.221.873 1.903.767.369.929.71-1.057 1.567-.411 1.022-.02 1.31 1.22.592 1.935-.164.729-.82.902-1.476.863-.407.548.144.493.497.688 1.042 1.315-1.138-.05-.495 1.357.43 2.17 3.492 1.804 4.87.779.195-1.47 3.138-1.579 2.188-3.388-1.802.856-2.252-1.534-.916-1.392-2.055-1.3.263-5.185-2.66-5.823-2.334.222-3.118-3.009-5.532-2.646-.121.092-.393-.157-.5-.011zm3.907 7.79c-.091 0 .188.04 0 0zm-9.141-1.645c.034.026.141.019 0 0zm.914.292c.05.028.07.029 0 0zm.392.263.09.165zm.388.128c.089.05.01 0 0 0zm-2.814.084.01.021zm3.508.065c.23.08.014-.036 0 0zm.384.073c.04 0 .012 0 0 0zm2.99.477c.305.447.16-.014 0 0zm-.77.223.026.178zm4.006.02c.089.05.024-.027 0 0zm-.152 0c-.03 0-.01 0 0 0zm-.336.427c-.12.11.09.066 0 0zm.537.463zm-.033.25c-.035.043-.02.125 0 0zm-8.124.46c.161.026-.16 0 0 0zm3.182.187c.063.055-.017-.024 0 0zm5.174.033c-.051.054 0 .013 0 0zm-.224.422-.048.05zm-2.28.51c-.083.222-.05.252 0 0zm-2.841.433c.138.027.046 0 0 0zm-.109.069c.015.073.026 0 0 0zm-3.983.276c.508-.069.173-.065 0 0zm7.514.25c-.41.055-.39.86 0 0zm-.178.014c-.058.064.01.017 0 0zm0 0c.01.027-.01 0 0 0zm-.044.118-.01.018zm.757 0s0-.001 0 0zm-.829.092c-.032.166.01.044 0 0zm-.093.27c-.025.05-.013.148 0 0zm-.015.072c0 .04 0-.033 0 0zm0-.014c0-.049-.025.084 0 0zm-6.195.819c.04.026-.013 0 0 0zm5.28.467c-.166.033-.036.039 0 0zm-.379.187c-.205.04-.018.02 0 0zm-.55.239c-.17.03.018.01 0 0zm-.89.205c-.142.111-.054.02 0 0zm-22.85 7.747c-1.687-.044-4.175.412-3.638 2.61-.122 2.71.055 5.427.046 8.123-.182 1.664-.64 4.056 1.178 4.943 1.7-.37 4.792 1.074 5.33-1.293-.016-4.296.042-8.592-.04-12.887-.457-1.12-1.78-1.462-2.876-1.496z" style="fill:#d1e3e5;stroke-width:1" transform="translate(1738.277 -1386.024)"/><path d="M-1722.901 1392.834c-2.93.333-5.883-.07-8.814.225-2.195 1.646-.899 4.653-.936 6.878-.491 1.057-2.587 3.22-.104 3.308 4.55.09 9.113-.03 13.657.042 1.664-.413.892-1.958-.139-2.405-1.141-2.254.72-4.92-.523-7.1-.775-.866-2.053-.97-3.141-.949zm18.926.47c-2.597.476-5.75 1.176-7.359 3.384-.44 1.849-3.136 2.88-2.969 4.572.941.629 2.105 1.45 1.004 2.511-.094 1.717 1.482 3.94 3.374 3.22-.146 2.766 3.518 1.53 5.242 1.623-1.268 1.87-3.918 2.474-4.496 4.92-.625 1.643-2.057 6.229-3.987 3.191-.672-2.191-3.577-4.043-5.363-1.963.049 1.855 2.269 3.23 1.47 5.336.523 2.556 2.942 4.17 4.772 5.72 1.977.577 4.415 2.013 3.067 4.402.01 1.794-.113 4.862 1.197 5.786-.223-1.213-.917-3.609 1.239-2.457.967.447 2.112 3.425 1.855 1.019.871-.71 1.819 2.634 1.535.47-.395-2.289 2.582-.462 3.779-1.514 2.041-.472-.153 3.75 2.174 1.848.96-2.248-.3-4.814-.134-7.206 1.26-1.242 4.316-2.239 3.472-4.883-.542-3.606-.969-7.252-1.416-10.88-.772-2.151-3.33-4.375-5.406-4.426-.985 1.164-3.634 2.09-3.075-.414.462-.726 1.913-1.929.36-.795-1.958 1.475-4.79.085-5.676-1.972.093-1.762-1.32-3.929.018-5.604 1.425.163 2.81 1.375 4.525 1.125 1.183.035 2.68 1.07 3.376.983 2.172-1.58 2.03 2.042.591 2.82-1.862 1.784.845 4.196 2.84 3.002 1.13-.167 2.172-.882 1.85-1.715 1.847.051 2.51-2.386.362-2.454-.641-.787.747-1.781-.357-2.582.013-2.229-.524-4.715-3.24-4.68-1.37-1.068-2.848-2.695-4.624-2.387zm-2.774 6.793-.098-.014zm-3.032.123-.02.124zm-12.215-6.827c2.576-.253 2.212 2.823 2.076 4.54.285.658.169 3.634-.608 2.878-.508-2.248 1.206-5.49-.744-7.08-1.248-.393-1.916.855-.282.873 1.593.295.98 3.915.511 3.867-.127-2.905-3.197-1.828-4.026.108-.868 1.842-.31-1.497-.748.034-.333 1.578-.887-1.417-1.001.052-.992-1.725-3.989-3.085-4.38-.198-.176.726.454 2.344.109.756-.35-1.412 1.757-2.75 1.257-.501-1.004.905.392 1.956.245.44-.359-.772-.119-3.325.671-1.555.082.835-.284 3.226.534 1.501.877-.331 1.72.432 1.571.5.357.771 1.135-1.074 2-.073 1.056-.032 1.971.43 1.229 1.686-.758-.321-2.852 1.055-3.025-.732-.237 2.055-2.462-.382-3.398.953-2.778.01-1.393-3.734-1.727-5.404-.702-1.357 3.166-2.05.643-2.336-2.037 1.164-.587 3.788-.862 5.637.223 1.032-.647 2.545-.416.61.18-2.04-1.07-4.97.818-6.388 2.227-.282 4.517-.01 6.772-.101.927 0 1.856-.015 2.78-.066zm-6.927 7.3c.464-.862-.246-.813 0 0zm2.318-.205c.068-.536-.196-.573 0 0zm2.531.307c.147-1.048-.288-.86 0 0zm-2.643-.951c-.138-.249-.186-.336 0 0zm-3.323.354c-.925-.03-.871.322 0 0zm3.41-2.14c.23-1.08-.16-1.494-.01-.12l.012.118zm.02-1.358c.14-1.228 2.424-.692 1.49.415.786-.39 1.996-1.776.323-1.324-.975.271-3.975-.343-3.584-.056.548.418 1.339.48 1.77.965zm-1.636-.678c-.513-.361-.272.426 0 0zm1.531-.44c.176-.309-.06-1.031-.04-.3zm2.525.029c.963.534.24-.416 0 0zm-.93 1.503c-.386.647-.488 1.31 0 0zm2.434-2.803c.03-.167-.128.061 0 0zm1.13-.481c1.858.613-1.93.718-.08.026zm17.23.073c2.982-.037-4.09.793-.778.145.256-.063.515-.118.777-.145zm-26.494.07c1.704.601-2.01.387 0 0zm-.27.058c-.424.424.588.319 0 0zm.511 1.086c-.722.178.159.413 0 0zm6.506.731c.517.246-.336.524 0 0zm24.942.581c.954 1.458-1.556.937 0 0zm.831.132c.643.121 1.018.502 0 0zm-23.8.231c1.227.35.227 1.834-.094.364-1.072.227-.553-.464.094-.364zm24.676.133c.87.626.61 1.639.135.192l-.068-.096zm-8.822.238c.56.911 2.094 2.504.412.901-.182-.279-.272-.602-.412-.9zm-22.51.174c1.992.092-.036 2.8-.074.657-.053-.196-.12-.5.073-.657zm27.405.024c-.335.731-2.224.21-.654.07l.295-.031zm-21.667.15c2.007-.01-.104 3.128-.274.97-.077-.304-.286-.97.273-.97zm-.643.03c1.07.73-1.119 2.79 0 0zm17.098.54c.85.696.795 1.464.077.156l-.052-.105zm-15.18.09c1.65 1.106-1.018 1.61 0 0zm22.745.029c1.118.644-.193 3.139.14.847-.037-.263-.401-.596-.14-.847zm-8.83.049c.569.58-.109.713 0 0zm-16.585.055c.727.906-1.005.943 0 0zm17.265.22c.887.74.485.63 0 0zm4.805.024c-.678.434-1.127-.114 0 0zm-18.84.297c.767.281.048.95 0 0zm8.704.475c-.937-.014-2.165 2.91-1.395.895.358-.434.875-.703 1.395-.895zm9.892.043c1.095.138-1.466.073 0 0zm-20.172.104c1.204-.102 3.201.917 1.425 1.909-1.268.524-2.843-.818-1.425-1.91zm18.052.162c.731.158 1.133.39 0 0zm-5.05.53-.02.058zm-2.445.182c.245.659-2.62.723-.78.065.259-.036.52-.049.78-.065zm2.38.407v.142zm7.32.103-.087.012zm5.186.089c.075.933.333 3.024-.035.955 0-.319.026-.636.035-.955zm-3.7.124-.118.019zm-12.954.32.074.071zm15.658.293c-.65.92 1.588 4.195.092 1.95a3.256 3.256 0 0 1-.092-1.95zm-21.94.14c1.097-.23 1.777.432.305.354-3.342-.01-6.683.028-10.022.16-.92.166-4.035-.555-1.574-.49 3.764-.045 7.528.056 11.291-.024zm-10.613.779c2.014.133-1.686.25 0-.001zm5.84.018c.749.506-3.302.013-.74.013.246-.014.493-.016.74-.013zm12.714.507c-.101.365-.637 1.119-.198.326zm12.06.194-.08.06zm-.213.269-.095.048zm-11.575.21c.8.878-.74 1.075 0 0zm17.09.071c.641.913-2.819-.153-.468.034.155-.017.314-.025.468-.034zm-4.292.249c.357.577.2.649 0 0zm-13.609.21c.736.352 2.167.614.574 1.031-.518.037-.798-.607-.574-1.032zm1.336 1.29c1.302 1.16-1.645.676 0 0zm14.508.152c1.758.177-.41 1.01 0 0zm-5.368.03-.057.085zm-7.016 1.982c.53.65.183.497 0 0zm8.738.433c1.48.93-2.177 4.053-2.34 1.931.254-1.034 1.38-1.676 2.34-1.93zm1.302 1.088c2.558.909-1.196 3.339-.267 5.196-.105 2.733.871 5.674-.339 8.253-1.289 1.595-4.916-2.055-4.796.758-1.42 1.707-4.102.876-5.717-.078 2.448.527-2.609-1.442.059-1.006 1.657.174-2.84-1.186-.42-1.098.88.494 4.33.54 1.84-.497-1.75-.015-3.084-3.536-.441-2.403 1.29 1.658-2.444-.618-.6.575 1.426.667-.96.147.373.721.995.687 3.199 2.103 3.605 2.148-2.494-1.344-1.374-4.452-1.185-6.66.096-1.189.857-3.33.813-3.85-.419.685-1.352 3.551-.923 1.237-.073-1.122 1.85-3.25 2.215-1.218 1.648-.248 3.663.775 4.587-1.323.32-.345.694-.728 1.196-.755zm-5.132.02c1.248.807-1.388 2.801-.485.584.037-.247.155-.617.485-.584zm7.06 1.305c2.487 1.242 1.313 4.662 2.102 6.87-.042 2.666 1.527 5.554.319 8.067-1.704 2.138-4.553 1.25-6.742.904-1.436-.246-.36-3.616-1.2-1.053-.705 1.635-.584-3.477.894-2.017 1.83 1.397 3.884-.835 5.655.723-.62-.502-2.176-1.545-.452-.87.836-.036-2.183-1.051-.255-1.022 1.243.135 1.732.17.324-.432-1.864.243-1.43-1.353-1.599-2.52-.276-.576-.632-3.007-.722-4.537-.268-1.19 1.187-3.084 1.202-3.458-.747.666-1.767 3.222-1.184.778.283-.692.856-1.389 1.659-1.433zm1.863 11.838c.188.152.8.648 0 0zm.36.291c.12.196.095.156 0 0zm-3.36 1.014c-.096.298.533.01 0 0zm-.543.289.05.094zm-4.601-13.28c1.088.089-.228.611 0 0zm-3.645.783c-.541 2.195-1.152 4.944-1.865 6.774-2.374-1.15.54-3.9 1.099-5.576.245-.406.5-.805.766-1.198zm-9.014 3.369c.502.283-2.322.012-.302-.001h.302zm13.889.148c-2.912-.037-2.542 4.96.119 5.14 2.41.345 2.845-3.095 1.687-4.5a2.485 2.485 0 0 0-1.806-.64zm-25.738.079c-2.473-.585-3.97 1.87-3.267 4.027 0 3.05.199 6.107-.112 9.147-.091 2.744 2.952 2.712 4.883 2.448 2.736-.3 1.574-3.315 1.751-5.141-.055-2.851.024-5.71.1-8.553-.2-1.612-2.026-1.94-3.354-1.928zm25.54.13c1.366-.783 3.426 2.126.877 1.368-.662-.451-1.727-.722-1.983-.615-.12-.599.655-.788 1.107-.753zm-25.056.524c1.743.036-1.232.382 0 0zm1.403.212c2.037 1.435.913 4.543.655 6.571-.737 2.312-4.803 1.055-2.557-.932 1.153-.442 1.376-1.996 2.37-2.882-1.939.218-2.732 5.118-4.686 2.971.434-1.78-1.119-4.954 1.07-5.669 1.035-.087 2.212.637 3.148-.059zm-1.159 5.64c-.258.505.16 1.1 0 0zm24.52-5.26c1.549-.398 1.839 1.539.268 1.384.595.55 3.123 1.126 1.577 2.172-.83.095-3.125-.382-2.265-.825-1.288-.4-.673-2.69-.072-2.114-.281-.314.13-.766.492-.617zm-.347.748c.458.56.493.317 0 0zm.125 2.003c.398.091 1.346-.016.394-.016zm.898.01c.798.22.978-.307 0 0zm.774-.087c.706.497.28-.725 0 0zm-12.633-2.448c.603.711.71 1.26 0 0zm13.075.623c2.598 1.05-1.84 2.077 0 0zm-14.7.525c-.163 1.406-1.99.98-.69.067.227-.033.54.19.69-.067zm1.26 1.772c1.156.901-2.6 1.502-.298 1.252 2.193.65-3.52 1.44-1.583-1.02.614-.177 1.308.116 1.88-.232zm2.604.4c.685.572.946 1.62.162.287zm-.485 1.273c.837.442-.365.698 0 0zm-2.669.75c1.192.62-2.13.27 0 0zm17.936.364c.185.574 1.718.137 0 0zm-33.27.248c1.638.24-.7 3.02-.387.662-.055-.264.055-.648.387-.662zm17.215.037c1.483 1.56-1.932.442 0 0zm-12.528.377c.54 1.386 1.204 5.009-.722 5.052-1.659-.128-4.673.811-4.218-1.903-.292-2.283 1.77-2.648 3.436-2.113.624-.118 1.114-.564 1.504-1.036zm21.24.04c1.414.49-1.087 2.549-.056.838.034-.24-.238-.644.055-.837zm-7.837.013c1.27.155 5.269 2.051 2.432 2.71-1.02.246-1.365-1.306-1.414-.991-.191-.623-.667.428-.492-.508-1.068.903-.982-1.001-.526-1.211zm6.005 1.624c2.218 1.114 3.806 3.632 6.55 3.125 1.384 1.038 1.937 4.477.015 5.151-.68.144-3.781.23-1.487.323 1.006-.174 2.417-.145.559.166-2.513.122-5.249.245-7.464-1.157-1.035-2.17-.068-4.798.503-6.946.311-.406.81-.664 1.324-.662zm-.809 2.951c-.16 1.614 1.057 3.75 2.578 4.117-1.284-1.012-2.492-2.406-2.578-4.117zm8.66.386c.273.798 1.516 3.427.032 3.226-.14-1.07-.09-2.152-.032-3.226zm-28.373.118c2.24-.568 1.162 3.267-.359 1.248-.068.897-1.47.53-.578-.147-.766 1.751-3.659.283-2.247-1.077 1.058-.086 2.098.17 3.184-.024zm-.692 1.136.106.042zm19.872.288c-.326.818 1.412 2.605.296.942-.098-.314-.104-.663-.296-.942zm4.02 1.485c.47 1.01 3.025 1.226.78.496-.258-.168-.471-.415-.78-.496zm-.076 1.796c-.952.345.766.443 0 0zm5.692.155c1.224.814-.753 4.088-.39 1.246.019-.431.02-.954.39-1.246z" style="fill:#60b3c6;stroke-width:1" transform="translate(1738.277 -1386.024)"/><path d="M-1708.506 1436.027c-.275-1.258-.611-2.539-.557-3.839-.662 0-.093-1.091-.186-1.53.155-1.066.393-2.118.677-3.156-1.77-.538-3.465-1.484-4.902-2.653-.614-.299-.329-1.046-1.112-1.086-1.035-.41.562-.858-.468-.8-.907.058-1.714-.776-1.486-1.693-.66-.357-.2-.931-.52-1.355-.037-.597.403-.913-.21-1.452-.3-.752.416-1.064-.372-1.676-.382-.742-1.156-1.364-1.28-2.186.491-.39 1.337-.042 1.963-.136.475.067 2.22 0 .933-.124h-2.5c.652-.57 1.644-.14 2.45-.254.604-.04 1.458.01 1.678.607.532.82.875 1.795 1.51 2.575.033.947 1 .322 1.273.994.358.132.639-1.126.967-1.527.937-1.603 1.484-3.393 2.48-4.955.695-.907 1.633-1.698 2.743-2.014.081-.682.87-.878 1.265-1.296-.541-.276-1.282.235-1.919.185-1.088.192-2.19.02-3.262-.095-.767-.176-1.166-1.273-.415-1.74.356-.27.884-1.603.283-.584-.442.795-1.512 1.276-2.315.697.818.042 1.574-.34 1.92-1.102-.467.587-1.095 1.14-1.901.894-.853-.863-.106.362-.64-.234.157-.936-.073-.822-.758-1.244.171-.353-.577-1.188-.041-1.754.075-.494 1.307-1.66.364-1.491-.964.217-2-.68-1.624-1.678.37-.781 1.511-.73 1.924-1.524.718-1.254 1.145-2.855 2.498-3.622.577-.523 1.497-.055 1.991-.533 1.036-.977 2.582-1.175 3.953-1.333 1.673.022 3.507.663 4.283 2.258.19.742.497.606 1.21.313 1.45-.132 2.349 1.404 2.401 2.693.083.988-.547 2.286.492 2.957.539.281 1.335.606.237.437-.797-.092-1.007-.594-.714.449.093.672.873 1.426 1.506.876.024-.914.67.592.35.985-.378.768-1.142 1.248-2.012 1.143-1.199-.164-.036.462.478.322.19.919-1.397 1.218-1.861.494-.297-.764-.666-.231-.011.244.627.177.993.43.127.57-.549-.13-1.108-.264-1.638-.572-.392-.519-.97-1.026-.397-.078.089.677 1.72.48 1.343.71-.846.313-1.802.049-2.69.013-.45-1-.46-2.148-.227-3.198-.335-.117-.665.886-.8 1.32a4.39 4.39 0 0 1-2.102 2.096c-.065.75.029 1.64.525 2.261 1.189-.452 2.32-1.147 3.141-2.134.584.034 1.023.8 1.028 1.356 1.165.331 2.236 1.043 3.111 1.85 1.029 1.532.89 3.51 1.195 5.27.3 3.004 1.01 5.977.955 9.006-.238 1.37-1.511 2.296-2.862 2.34-.623.102-1.365-.078-.842.809.365 1.364.648 2.842.72 4.205-.143 1.262-.292 2.612-.563 3.89-.86-.031.022-1.07-.103-1.581.096-.642.246-1.429.178-2-.654.277-.779.902-.715 1.612-.05.628 0 1.364-.261 1.915-.312-.21.11-1.255 0-1.784.146-.849.086-1.353-.796-.812-2.235.597-4.602.383-6.855 0-.806-.248-1.619-.48-2.333-.943.07 1.182.417 2.321.64 3.48-.125.114-.574.236-.538-.06zm8.453-2.66c.494-.188 1.648-.106 1.45-.907-.116-1.657-.275-3.34-.422-4.975-.56-.17-1.52-.155-2.217-.342-.78-.043-1.475-.747-2.221-.395-.886.11-1.21-.87-1.115-1.59-.79.315-.982-.885-1.749-.451-.521.265-1.486-.246-1.387.646-.346 1.653-.763 3.329-.974 4.989-.038.357-.39.974.31 1.191-.04-.026-.79-.332-.437.547 1.904 1.146 4.177 1.43 6.359 1.462.803-.048 1.622.05 2.403-.175zm-2.224-1.44c-.48-.086-1.33-.751-1.347-.852.608.47 1.306.755 2.037.973a1.278 1.278 0 0 1-.69-.122zm-2.485-.213c-1.573-.76-2.3-2.604-2.44-4.256.116.03.198 1.23.489 1.636.476 1.22 1.339 2.295 2.567 2.816-.229.048-.447-.13-.616-.196zm-2.318-.542c-.347-.333-.639-1.459-.566-1.526.13.56.497 1.244.664 1.645.174.065-.172-.134-.099-.12zm9.274 1.3c.537-.415.132-1.391.085-2.019-.24-1.001-.439-2.014-.788-2.985-.895-.263-.196 1.196-.162.6.126 1.58.34 3.157.286 4.744.2-.1.396-.21.58-.34zm-10.682-5.572c.151-.673.3-1.348.473-2.016-.606-.024-1.048-.653-1.648-.727-.604-.116-1.194-.302-1.605-.848-.225-.291-1.186-.907-1.208-.269-.303.527-.172 1.169-.536 1.081.225.33-.437.334.505.973a14.702 14.702 0 0 0 3.977 1.982c0 .101.037-.275.041-.176zm11.67-.147c1.396-.116 2.493-1.474 2.247-2.868-.073-2.634-.686-5.228-.918-7.855-.247-1.57-.238-3.246-.87-4.714-.267-.753-1.268-1.192-1.846-.522-.882.89-1.16 2.228-1.05 3.445.175-1.282.751-2.702 1.922-3.352-.182.215-.95.785-1.122 1.34-.59 1.14-.669 2.44-.698 3.701.594-.207-.333.557.346.546-.353.092-.409.857.049.87-.908.247.776.618-.242.57.035.729.547.134.044.613.523.142-.128.134.142.39.354-.063-.497.286.468.324-.752-.074-.276.27-.465.429.145.54.145.926.151 1.142.36.182.694.064-.042.407.754 0 1.236.205.186.258.194.08-.315.836.467.393.83-.09 1.673-.065 2.367.466.588.216 1.156 1.584.453.457-.762-.771-2.048-.72-2.992-.383-.277.423 1.14.141 1.462.566.863.69.274.414-.36.076-.714-.307-1.636-.043-.416.176.624.213 1.083.724 1.469 1.24-.838-.64-1.79-1.252-2.893-1.068.645.307 1.206 1.124.33.286-.467-.421-1.444-.16-.47.213.837.717-.211.083-.599-.167-.775-.357-1.415-.283-.588.487-.557-.206-1.057-1.204-.5-.051-.33-.025-.631-.963-1.266-.774-.688.498-1.08-1.053-1.308-.53.5 1.12.182 2.486-.417 3.525.247.288.926-.6.982-1.064.234-.3.066-2.022.319-1.248.029.749-.014 1.525-.274 2.199.552.125 1.15.432 1.825.487 1.345.303 2.766.24 4.114.016zm.49-4.145c-.794-.204-1.1-.413-.112-.131.214 0 .57.348.112.131zm-7.529 3.212c.184-.55-.96.092-.037.027zm.236-1.022c.13-.57.32-1.424-.146-1.838-.774-.28-1.063-.419-.799.471.123.56-.249 1.072-.699 1.262.444.127 1.05.29 1.571.338-.04-.063.137-.175.073-.233zm-2.789-.442c.499-.32 1.345.297 1.565-.388.511-.688-.435-1.167-.204-1.586.548-.145 1.145.105 1.747.042.606.351 1.015.631 1.742.662.486.284 1.094-.202 1.539.215-.034-.473 1.447.179 1.231-.55-.234-.424-.292-.276-.24-1.206-.334-2.91-.683-5.864-.436-8.795.235-1.056.665-2.29 1.768-2.69a38.782 38.782 0 0 1-1.843-1.006c-.958.865-1.785 1.928-2.825 2.669-.66.155-.616-.793-1.293-.487-.597-.564-.587-.662-1.087.126-.618.839-.728-.661-.668-1.115-.38-.222-1.127.48-1.337.96-.697 1.114-.991 2.636-.842 3.82.26-1.383.579-2.862 1.425-4.026-1.196 2.607-1.083 5.556-1.52 8.342-.25.748-.074 1.2.675 1.47.528.494 1.324.909 1.46 1.66-1.184-.749-2.18-1.981-3.604-2.405-.411-.092-1.987-.832-.883-.685.346-.063 1.636.981 1.145.331-.52-.627-1.257-.956-2.049-1.078 1.082-.255 1.872.745 2.52 1.46-.019-.717-.683-1.421-1.302-1.8-.56-.42-1.264-.417-1.466.348-.5.405.342 1.026.781 1.127.566.395 1.076.953 1.675 1.254-.182-.633 1.063.374 1.252.623-.89.232-2.045-.09-3.024-.24-.402.046-1.8-.534-1.42.026-.178.664.96.425 1.415.67.496.001 1.77.516.623.44-.76-.197-1.592-.224-2.319-.442-.251-.428.19-.639-.314-1.062.377-.42 1.07.015 1.58.065-1.556-1.853-2.677-4.044-4.22-5.918-.695-.524-1.737-.207-2.575-.34-1.146-.278-.592.421-.108.93.372.537.742 1.077 1.116 1.613.598-.5 1.392-.14 1.572.575.049.38-1.103.53-.747 1.109.248.861 1.01.133 1.572.17.81-.117.674.808.856 1.227.728.75-1.039.688-.59 1.323.317.7 1.323.432 1.888.825.793-.01.201-.503.942.104.836.093.41.49 1.33.5 1.018.33.464.57-.277.17-.713-.26-1.268-.56-.435.197.584.331 1.55.145 1.985.58.337.559 1.255.265 1.85.269.124-.03.253-.047.374-.082zm4.858-4.302c-.832-.273-1.967.068-2.598-.59-.217-1.263-.01-2.6-.056-3.892.616-.786 1.695-.206 2.538-.244.616-.031 1.543.193 1.355.995-.083 1.171.17 2.404-.134 3.534-.343.296-.682.325-1.105.197zm.81-.217c.483-.494.444-1.473-.434-1.154-.484-.766 1.041.604.725-.541.193-.536-.407-1.773-.799-.853-.984.366.5 1.442-.445.606-.236.538-1.097.948-.425.178-.506-.09-1.014-.514-1.336-1.045-.52-.904-.804-.497-.646.36-.05.646-.07 1.793.867 1.661.74.01 1.54.293 2.238-.034.04-.472-.116.614-.95.206-.71-.137-1.699.143-2.168-.503-.12.685.396 1.155 1.058 1.016.736.045 1.563.391 2.248.166l.064-.07zm-1.426-2.279c.34-.054.813.126 1.098-.682-.27-.51-1.168-.236-1.688-.398-.714-.105-1.362-.088-.549.607.343.316.687 1.176 1.14.473zm1.6-1.784c-.6-.545-1.562-.267-2.308-.467-.647-.244-1.444.334-1.098.928 1.056.4 2.44-.107 3.32.7.255.806.287-1.004.087-1.161zm-16.005.153c-.445.18-1.448-.817-.675-.756.47-.203 1.198.603.904.823-.095.029-.16-.01-.23-.067zm3.447 7.601c.705-.584.354-1.083-.474-1.048-.202.175-1.23.912-.396 1.09.278.231.688.343.87-.042zm-1.52-1.25c.753-.639-.597-.145-1.002-.219-.872-.62-.23.392.33.336.236 0 .49.031.672-.118zm-.227-.797c.37-.317 1.47-.345 1.185-1.006-.84.04-1.665.684-2.483.552.378-.476 1.218-.51 1.784-.802.972-.128.3-1.09-.382-.614-.326.042-1.797.565-1.265.106.464-.167-1.275-.333-.61.289.825.162-.585.762.349 1.211.241.573.96.532 1.422.264zm5.535-.256c-.41-.572-1.168-1.148-1.654-1.551.44.62.697 1.707 1.654 1.63zm1.186-1.858c-.364-.966.247.188.198-1.041.647-.658-.955-1.394-.482-1.25.569.7.967-.139.39-.484-.91-.566.95.524.127-.48-.183 0 .39-.333.066-1.197-.06-1.322.126-2.721.934-3.81-1.058.87-1.602 2.34-2.21 3.583-.497 1.081-1 2.159-1.501 3.238 1.133-.184 1.907.825 2.454 1.65-.072.048.096-.258.024-.209zm-3.646-.137c-.522-.842-.445-.13.125.211l-.125-.21zm-4.67-.197c-.095-.59.554-.945 1.013-1.179-.38-.792-1.267.045-1.6.496-.116.095.806 1.126.587.683zm15.114-8.819c.47-.6 1.394-1.006 1.454-1.82-.28-1.092-.925-.01-1.505.261a12.53 12.53 0 0 1-2.14 1.181c.71.136.762.982.985 1.544.403-.386.799-.79 1.206-1.166zm-3.265.439c-.155-.742 1.295-.72.612-1.161-.302-.778-.98-.194-1.001.445-.082.345-.15 1.842.27.981l.119-.265zm1.346.414c.134-.525-.241-.991-.653-.528-.234.352.373.892.653.528zm-5.662-2.75c-.521-.292-.581-1.102-.334-1.52-.719.483-.172 1.648.589 1.679-.08-.04-.183-.148-.255-.159zm1.87.109c-.443.207-1.092-1.137-.96-.375.192.226.775.534.96.375zm-1.269-.343c-.407-.268.12-1.909-.242-1.059-.36.346.282 1.631.244 1.06zm3.233-.78c1.842-.436 3.326-2.08 3.42-4 .578.784 1.428-.222 1.514-.879.365-.588-.025-1.6-.8-1.347-.623.113-.807.85-.851 1.378-.306.472-.494 1.636-.573.45-.763.194-1.428.731-2.203.903.107.57.114 1.4-.695 1.284-.63.098-1.28-.01-1.762-.452-.062 1.058-.035-.586-.663-.153.043.991-.412 0-.816.63-.93-.245.263 1.012.536 1.307.758.774 1.817 1.27 2.893.878zm-1.98-1.348c-.776-.555.715.306.939-.189 1.036-.062-.607.44-.94.19zm5.776-3.347c-.55-.527.138-1.565.859-1.205.477 1.097.09.06-.552.257-.873.546.584.722-.023 1.037-.12.027-.195-.024-.284-.09zm1.523 4.219c-.533-.557-.806-.747-.22-.01.404.304.863.52.22.01zm-11.313-.615c.825-.627.376-.58.246-.414.403-.634.678-1.016-.024-.242-.072.09-.736-.244-1.165.345-.245.515.672.561.942.311zm15.002-.065c.544-.432-1.129.159-1.119-.555-.366.194.79 1.235 1.119.555zm-15.592-.996c.725-.234.75-1.516.17-.399-.54.513-1.433-.14-1.17-.84.246-.837 1.396-1.335 1.19-2.351-.139 1.202-1.782 1.808-1.484 3.146.01.742.795.776 1.294.444zm13.272-.15c-.656-.178-.915-.963-.884-1.58-.374.697.272 1.853 1.115 1.689.133 0-.278-.08-.23-.11zm-11.132-.14c-.809.015-1.07-1.278-.242-1.472-.81.01-.8 1.498.041 1.517.293.12.892.066.2-.045zm3.984-.148c.45-.558.284-.362.296.18.745.11.52-.773.434-1.24.85.107-1.064-.304-.683.319-.09.883-.028-.875-.85-.362-.725-.347-1.328.632-.463.917.274.338 1.08.581 1.266.186zm-2.894-.069c-.74-.34.072-.016-.129-.8-.42-.847-.94.332-.507.832 0 .222.744.207.636-.032zm11.588.052c-.554-.105-1.114-.664-1.299-1.291-.296-1.25 0-2.574.118-3.837-.08 0-.218 1.28-.32 1.763-.193 1.184-.181 2.818 1.053 3.43.088-.045.5.086.448-.065zm-11.231-.1c.258-.47 1.063-.913.103-1.002-.777-.281-.32.845-.167 1.103h.064zm-3.712-.404c.331-1.013-.181-.621-.564.05.034.489.788.566.564-.05zm17.044 0c.603-.45.436-1.172-.04-.221-1.178.475-2.384-.668-2.39-1.85-.31-1.572.592-3.402-.446-4.79-.917-.718.417.347.288.858.35 1.762-.551 3.783.511 5.383.478.549 1.387.964 2.077.62zm-2.624-.63c-.283-.671-.38-1.518-.228-.336.022.288.606 1.012.228.337zm-8.4-.131c1.339.212 2.664-.413 3.755-1.053-.612.198-.42-.408-.609-.864-.634-.752.07-.576.741-.68.915-.161 1.935-.528 2.45-1.345-.862.966-2.168 1.383-3.44 1.328 1.541-.148-.923-.095 0-.185.714-.138-.985-.086-1.346-.13-1.608 0-3.505-.986-3.665-2.746-.268-.086.017 1.059.294 1.355.441.922 1.451 1.213 2.357 1.487.379.328 2-.075 1.488.255-1.107.492-2.247-.144-3.33-.392-.978-.385-1.879-1.285-1.71-2.411-.408 1.083.438 2.176 1.466 2.49.841.284 1.344.489.149.29-.98-.299-2.092-.824-2.097-2-.074-.66-.163.942.316 1.106.416.706-.896-.79-.695-.744-.153.838-.053 1.716.202 2.525.212-.491 1.7-.296 1.083.084-.52-.17-1.364-.045-.887.65-.127.876.305 1.15 1.14.99.821.318.664-.732.063-.88.665-.363.517.922.827.972.457-.242.956-.09 1.448-.102zm-2.956-.243c-.739-.427.305-1.026.294-.229-.025.225-.084.727-.294.23zm2.783-.029c-.492-.645.337-.898.871-.74 1.13.265.416.296-.315.109-.894-.375.353 1.324-.542.652l-.014-.022zm-.585-1.49c-.762-.49.64-.538 1.034-.375.978.016 1.303.27.137.223-.785.04-1.112.127-.6.192-.192 0-.392.015-.57-.04zm10.2 1.421c-.37-.443-.287-1.633-.363-1.759-.033.643-.07 1.509.473 1.914l-.069-.096zm-17.353-1.493c-.66-.551-.265-1.853.677-1.738.56-.068 1.028-1.133.948-1.233-.325.754-1.09 1.067-1.765 1.385-.688.515-.315 1.582.386 1.856l-.246-.27zm3.112-.116c.727-.467.596-1.383.621-2.129-.019.91-.183 1.883-1.043 2.378.19.047.28-.165.422-.249zm-2.16-.753c.484.192 1.582-.924 1.175-.729-.5.506-1.318.64-1.962.357-.417 1.004.103.525.787.371zm.891.147c.983-.773-.163.2-.682.148-.957.138.61.094.682-.148zm13.163-.652c.102-.76.39-1.89-.408-2.352.011.42.32 1.235.22 1.845.01.41.015 1.593.18.544zm-6.757-.513c-1.008-.292-1.686-1.152-2.095-2.079.24 1.22 1.42 2.196 2.653 2.297-.181-.069-.39-.167-.558-.218zm1.66.126c-1.37-.244-2.654-1.19-3.072-2.55.151 1.671 1.941 2.677 3.485 2.649-.133-.035-.294-.053-.413-.1zm2.385-.038c.715-.166 1.248-.717 1.594-1.34-.538.73-1.318 1.23-2.187 1.473.21.034.408-.1.593-.133zm-8.687-1.224c.242-.546-.702.753-.622 1.172 0 .39.47-1.08.622-1.172zm8.533.538c.861-.422.869-.69.035-.079-.665.436-1.51.35-2.25.262-1.335-.521-2.513-1.621-2.676-3.106-.15-.334 0 1.08.297 1.383.748 1.594 3.047 2.435 4.594 1.54zm4.886-.573c.018-1.075-1.011-2.481-2.19-2.03.351.23 1.293.01 1.573.71.51.453.45 1.328.65 1.824a85.017 85.017 0 0 1-.032-.504zm-14.052.073c.555-.567.544-.947-.026-.187-.156.269-.404.827.026.187zm8.747-.101c1.033-.47-.686.162-1.082-.02-1.005.04-1.854-.574-2.487-1.3.459 1.33 2.347 1.894 3.569 1.32zm-8.357-.968c.371-.436-.844.331-.819.777.273-.259.508-.562.819-.777zm8.888.048c.884-.389 1.043-.782.043-.17-1.378.468-2.923-.09-3.868-1.157.464 1.092 1.84 1.679 3.019 1.499.29.014.544-.051.806-.172zm2.329-.15c.536-.31 0-1.558-.438-.955-.041.372-.264 1.397.438.956zm-11.231-.732c.65-.49-.809.23-.781.63.255-.217.479-.475.781-.63zm7.145.016c-.627-.41-1.534-.45-.387-.028.285.113 1.196.372.387.028zm-.224-.715c-.898-.515-.915-.12-.028.14.56.208 1 .22.028-.14zm2.957-.58c-.717-.721-2.05-.994-2.866-.98 1.08.316 2.304.64 3.2 1.285-.11-.102-.228-.2-.334-.304zm-1.769-.343c-.254-.097-2.027-.36-1.21-.122.39.028.867.17 1.21.122zm-3.535-.747c1.168-.397 2.415-.16 3.625-.223-.991-.29-2.078-.244-3.085-.1-.455.059-1.75.524-1.565.625.312-.17.692-.19 1.025-.302zm.685 41.48c-.342-.546-.372-1.37-.791-1.792-1.051-.405.506-.165.885-.053.575.216 1.612-.056 1.546.81.012.463.823 1.564-.104 1.396-.333-.562-.375-1.322-.707-1.83-.833-.315-1.263-.115-.703.73.33.372.418 1.694-.107.778zm-25.605-5.235c-.993-.4-.687-1.561-.724-2.41v-11.94c.245-.78 1.047-1.054 1.8-.931 1.297.059 2.636-.12 3.906.094 1.126.367.702 1.773.779 2.672-.01 3.934-.012 7.867-.017 11.801-.186.691-.822.977-1.492.834-1.347-.026-2.73.097-4.057-.022.057.038-.28-.152-.195-.098zm5.047-.717c.493-.316.409-1.233.343-1.704-.234-.075-1.505.558-.827.146.31-.346-1.196-.07-1.595-.159h-2.908c.096.605-.122 1.838.797 1.766.383-.124 1.945.276 1.415-.252-.055-.71 1.055-.623 1.416-.338.193.594.13.695.99.611.12-.023.26-.01.369-.07zm-1.505-.089c.403-.542-1.05-.729-1.006-.128.175.187.838.38 1.006.128zm-3.637-1.022c-.103-4.094-.016-8.193-.045-12.29-.314.549-.048 1.42-.136 2.094.028 3.63-.056 7.28.042 10.896.332.477.104-.577.139-.7zm5.5-1.206c.096-1.618-.011-3.245 0-4.866-.734.54-1.43 1.312-2.251 1.63-.703-.074-1.132-.974-1.754-1.053-.386.662-.981 1.248-1.333 1.884.01.97-.044 1.942.088 2.905h5.205l.044-.5zm-5.141-3.121c.33-.154.163-.46.67-1.131.495-.536-.539-.912-.867-1.174.042.804-.08 1.772.058 2.48.111.043.088-.124.139-.175zm3.615-.773c.514-.473.995-.973 1.583-1.357l-.09-5.988c-.307-.765-1.086-.37-1.507-.023-.753-.046-1.595.119-2.294-.073-.37-.582-1.515-.377-1.441.404-.12 1.778-.017 3.572-.052 5.356.524.05 1.027 1.307 1.407.54a15.487 15.487 0 0 1 3.34-3.838c.558-.763.596.425-.171.497-.684.72-1.406 1.435-1.973 2.254-.269.18-.3.25-.668.898-.581.554-.542.932.19 1.246.44.5 1.206.858 1.63.13l.057-.053zm-2.266-1.08c.432-.554.829-1.091.09-.256-.213.256-.48.914-.09.255zm1.556-1.93c.822-.927.155-.33-.32.279-.658.923.141-.083.32-.278zm-2.978-4.878c-.056-.392-.683 1.138-.01 0zm3.529.12c-.167-.1-1.552-.302-1.425.103.404-.084 1.2.155 1.425-.102zm-6.443-12.706c-1.01-.078-1.071-1.611-.107-1.807 1.023.317.637-.76.697-1.41.028-2.024-.092-4.083.027-6.084.448-1.255 1.975-.815 2.996-.894 3.09-.01 6.181-.015 9.272-.023.812.282 1.15 1.126 1.009 1.937.027 2.152 0 4.306.063 6.457.649-.07 1.616-.163 1.7.694.156.937-.968 1.32-1.734 1.168-4.607-.014-9.225.056-13.825-.01zm3.326-.441c-.082-.413-1.31-.023-1.833-.105-.807.372.872.16 1.203.179.203-.039.456.051.63-.074zm6.08.02c-.551-.441-1.498-.101-2.21-.186-.84-.161-1.546.416-.3.256h2.51zm-4.824-.309c.57-.512 1.47-.117 2.18-.24 2.583-.022 5.177.042 7.753-.033.987-.242.245-.599-.404-.414-4.501.036-9.012-.031-13.507.069-.504.114.169 1.263.224.326.442-.046.874.43 1.55.202.815-.26 1.177.323 1.857.331.141.01.228-.182.347-.24zm-.918-.012c-.264-.879 1.044.012 0 0zm-2.235-4.71c-.01-1.218-.013-2.436-.02-3.653.425-.64 1.288-.222 1.928-.341.547.82-.485.979-1.104.83-.981-.262-.387 1.073-.544 1.645.01 1.725.01 3.449.015 5.173 1.696.02 3.39-.05 5.086-.09.109-.746-.095-1.411-.534-2.015-.151-.697-1-.79-1.408-.3-.392.344-.26 1.871-.305 1.515-.01-1.175-.017-2.35-.026-3.525-.455-.656-1.321-.341-.897.48.088.641.106 1.288.152 1.932.788.22.274-.148-.042.357-.084.63-.845 1.148-1.297.51-.597-1.02.02-2.272.58-3.178.3-.678 1.219-.87 1.65-.203.744.653 1.308 1.529 2.01 2.177.127-.856.017-1.95.054-2.897-.655-.276-1.257-.296-1.656.203-.844-.472.189.082.284-.567-.462-.184-.893-.232-.051-.33.15.382 1.193.627 1.439.337.454.396 1.313.061 1.918.016.281-.51 1.297-.587 1.208.16-.166 1.077-.955-.477-1.101.447-.702.94-.75 2.227-1.502 3.114 1.298-.036 1.465-1.705 2.393-2.34.511-.52 1.47-1.2 2.036-.388.528.682.398 1.65.982 2.319.221.408.058-1.097.092-1.489-.026-1.02-.052-2.042-.08-3.063-.72-.113-1.666.253-2.233-.243-.271-.774.945-.58 1.44-.567.814-.224 1.208.52 1.022 1.23v6.4c1.04.307.541-.914.646-1.536l-.033-5.802c-.573-1.03-1.893-.489-2.844-.628-2.97.016-5.948-.076-8.912.01-.87.168-.981 1.156-.887 1.89l-.036 6.068c.992.28.462-.954.587-1.536 0-.707-.01-1.413-.01-2.12zm11.296 2.981c.191-1.055-.296-2.054-1.132-2.688-.54-.141-.22-.223-.95-.668-.825-.911-.494 1.325-.606.404.169-1.16-1.032.153-.704.75-.036.826.07 1.794-.052 2.532-.256-.43.318-1.644-.246-1.79-.663-.26-1.074.347-1.674.368-.812-.808-.424.51-.904-.514-.661-.968.3 1.345.374.628.165.378-.289 1.478.25 1.626 1.873.01 3.745.02 5.617.032.015-.222-.013-.473.027-.68zm-2.69-.392c.252-.931-.864-.198-.012-.784-.405-.539-.769 0 .043-.44.062-1.209.087-.846.096.159.89.16 1.292-.183 1.139-1.098-.01.265-.117 1.29.756 1.05.61.494-.846-.4-.86.375.327.638.162.982-.104.194.279-.78-1.36-.645-.942.152.024.566-.198 1.401-.116.392zm2.286-.916c-.366-.812-.229-.91.07-.037.31-.01-.025.374-.07.037zm-9.113.945c1.123-.568-.823-.826 0-.797.842.076.269-1.158.354-1.672 0-.707-.1-1.605-.571-.504-.475.818-.961 1.894-.485 2.812.198.175.476.328.707.161zm4.215-1.255c.48-1.053.824-2.175 1.439-3.17-.677.184-1.394.068-2.075.226v2.954c.17.135.557.268.636-.01zm1.845-.544c.166-1.263-.46.184-.847.503.197.205 1.18.316.847-.503zm-3.89-.03c.857.173.748.127.164-.515-.373-.304-1.157-1.626-.96-.455.082.52-.276 2.03.447 1.106.073-.133.23-.094.35-.135zm6.603-.683c-.083-.671-.721-1.683-1.47-1.1-.879.328.857.554 1.04 1.046.258.287.733.784.43.052zm-2.303-1.803c.324-.752-.925-.527-.48-.053.036.257.367.36.48.053zm-6.932-1.625c.594.542.836-1.067-.024-.368-.078-.591-1.516.18-.755.454.228-.059.655.12.779-.086zm-.494-.235c.608-.711.15.61 0 0zm10.306.275c.518-.392-.575-.802-.982-.644-.25.046-1.29.066-.879.616.566.14 1.275.074 1.86.029z" style="fill:#212634;stroke-width:1" transform="translate(1738.277 -1386.024)"/></svg>