<svg xmlns="http://www.w3.org/2000/svg" viewBox="0 0 52.917 52.946" height="200.111" width="200"><path d="M-1811.673 1494.055c1.416-2.828-.733-5.488-1.131-8.202-.38-3.152-.74-6.881 1.623-9.385.759-.967 1.953-3.317 2.688-1.265 1.365 1.696 2.717-1.953 3.66.47 1.778 2.298 2.46 5.14 2.893 7.935 1.74 1.928 4.292-2.16 6.374-.434.137.995-1.413 1.884-.52 3.024-.28 3.66-5.172 3.066-6.644 5.025.144 1.544.564 4.11-1.776 3.503h-7.22c.016-.224.034-.449.053-.671zm13.139-6.036c-1.43-.5-2.415.253-.37.101h.2zm-1.14-.192c-.613-.38-.891.3 0 0zm2.77-.16c.639-1.088-1.085.925 0 0zm-3.895-.016c-1.333-.157 1.988-.471.498-.632 1.614-.41-.234.18.361-.875-1.849-2.54-3.588 2.045-.86 1.507zm.33-3.326c1.966-.459-1.644.551 0 0zm4.998 9.42c.172-3.932.726-7.959 2.568-11.49.173-1.256-.315-5.518-1.335-2.53-1.766 2.865-5.705 1.225-6.039-1.804-1.46-2.824.179-5.627-.79-8.375-.472-1.514-1.897-2.723-1.995-.389.449 2.126-1.17 5.223-3.641 3.872-1.438-.905 2.195.847 2.596-.72 1.122-2.015-3.625 1.142-2.5-1.819.074-2.16 3.234.189 1.58-1.6 1.112-.61 1.657-.602.04-.446-1.8-.901-1.221 1.647-2.774 1.12.027 1.455-1.27 1.216-.966-.415-1.638 1.86 2.67 1.233.472 2.333.113.981-1.043-1.264-.524.43-.07 3.188-4.968.742-3.979-1.806-.515-2.52-.723-5.588 1.316-7.515 1.277-.83-1.105-1.473.46-1.475.915-1.41 1.054 1.163 1.77-.406.87.293-.163 1.511 1.322.821 2.612-.546 5.369 2.205 6.171 3.422.964-1.806-1.014-4.889 1.347-5.764 3.583-.95 2.921 2.956 2.8 5.176-.01.54.02 2.46.134.755.326 2.35.156-1.885.534.296-.466 1.847-.376 3.441-1.388 5.27 1.166.55 1.75 4.1 2.316 1.003 1.081-2.842 1.112-6.243 3.188-8.606 1.722-.845 3.266-2.933 4.954-3.104-.272.973-.747 4.93 1.227 3.455 1.162-1.877 3.583-2.72 2.733-5.223 2.845-.78 1.984 3.896 4.546 3.912 3.053 1.353 2.97 5.16 3.18 7.993.207 3.31.667 6.604.89 9.907-.038 3.028-3.523 3.978-5.635 2.975.776 1.604.971 3.495 2.851 3.595.844.745 2.655 4.188 2.867 1.217.399-2.287 2.887-5.097 4.943-5.124.07 1.133.455 2.206 1.013 1.915-.09 1.616 1.788-.035.35-.469.44-.569-1.647.268.238-.657 2.872-1.093-2.867-1.575-.373-3.706 2.036-2.32-1.53-3.572-2.57-5.195-.234-2.314-1.234.113-1.717.801-2.374-3.084 2.837-5.037 5.336-4.563 3.04-.108 4.76 3.085 4.486 5.796.042 1.617-.207 4.344 1.557 4.778-.749 1.823-4.569.387-4.108 2.168 2.506 1.675 2.108 4.73 2.23 7.36.377 2.343-.517 4.764-3.32 3.788-2.982.043-5.968.01-8.952.02-1.416-.496-3.627-3.134-3.31-.377-1.274.807-2.91.21-4.355.377h-11.784l.02-.488.02-.49zm22.139-.293c.514-2.048-3.9-3.12-3.602-2.343 1.844.403 1.154.631-.273.453.764.53 3.066 1.056.464.708-1.276.013 2.884.79.458.847.892.401 1.99.396 2.953.335zm-3.841-5.202c-.489-2.415-5.195-1.328-5.08-1.584 2.034-.228 4.624.376 5.65 2.307l-.285-.362zm-5.82-8.76c2.702-2.344-2.102-3.688-3.279-5.3-.9-.548-2.136-1.16-2.38-.507-1.02-.703-5.077-.892-2.1-.015 1.186-.11 3.606 1.6 1.096.671-.776-.778-3.737-.562-1.418.046 1.052-.021 3.949 1.638 1.5.72-1.175-.563-3.22-.412-.858.205 1.308.156 2.234 1.17.42.432-2.463-.797.585 1.034 1.519.83-.712.195 2.266.156 2.75 1.146.71.391 2.15 2.11 2.75 1.771zm-3.612-2.621c-.721-.665 1.684.762 0 0zm18.98 1.53c1.844-.554-1.119-1.855.047-1.237.712-.09-.131 1.453-.046 1.236zm-31.226-5.209c2.244-1.084-1.398-5.475-1.517-2.267.289.558.48 3.021 1.517 2.267zm7.216-.748c-.482-.858-1.038.536 0 0zm-11.918-1.179c.24-1.14-.893-.065-1.008.021.288.219.73.221 1.008-.02zm9.902-.08c.493-.18 1.34.245 2.266-.145-.276-.256-2.886-.155-2.266.145zm-9.766-2.088c-.114-1.015-.315.949 0 0zm-.563.01c-.081-1.17-.877.314 0 0zm5.208-.092c-.688-.624-3.745.117-1.014.171.342.01.71.012 1.014-.171zm-4.29-1.028c-.756-1.455-.438 1.096 0 0zm2.75.624c-1.667-.343 1.578-1.271-.408-.845.552-.071-.831-1.737.308-.685-.877-2.2-1.67 2.046.1 1.53zm-3.717-.637c-.743-.307-.436.472 0 0zm34.678 16.344c.7-.515.402.306 0 0zm-1.648-3c-2.613.098-3.457-4.125-1.848-5.172-.166 1.344 1.32 2.22.285 2.807.603-.284 1.58-2.227 1.986-.293-.896.745-.301 2.423-.954.554-1.89.057.3 2.137 1.14 1.091-1.506.88.534-.084.28.934-.245.186-.622.266-.89.079zm-1.571-1.142c-.802-1.488-.375-.222 0 0zm.404-.635c-1.073-1.095-1.044-.102-.04.024zm-.183-.863c.396-.828-.708-.067 0 0zm1.307 1.317c-.317-1.076.568.17 0 0zm-.8-2.41c.175-1.279 1.372.13 0 0zm.047-.578c-.135-1.334 1.744.574 0 0zm1.052-.704c-3.334-1.623 1.282-.023 0 0zm-19.094-16.818c-2.096-.707-4.514-4.153-3.688-5.788 1.478-1.781-2.89-2.07-.828-4.145 1.652-2.446 4.306-4.191 7.302-4.35 3.227-.924 5.126 2.21 5.514 4.962 2.266.755.93 3.549.553 5.19-1.463 1.347-3.954-.2-4.24 2.262-1.023 1.401-2.885 2.265-4.613 1.87zm1.485-.34c2.367-.205 4.19-3.367 4.095-5.24-2.381-1.434-2.84 1.725-4.084 2.59-1.774.277-2.441-2.93-3.34-.453-2.122 1.237 2.113 3.785 3.33 3.103zm-1.741-1.1c-2.1-1.14 2.487-.619 2.035-.863-.411.625-1.274 1.203-2.036.864zm2.782-.891c-.71-2.231 2.603.314 0 0zm-3.72-.564c-.754-1.17 2.347-.019 0 0zm3.098-.624c.895-1.25 0-1.136-.61-.346 1.004-1.145-.645-.433-.708-1.69-1.688.284-.288 3.217 1.318 2.036zm-3.917-.07c1.393-2.013-2.33-.976-.335.144zm4.01-1.892c-2.56-1.091.204.526 0 0zm-2.496 0c1.062-1.419 5.011.706 4.659-1.458-2.025-.769-4.152-1.388-5.067-3.661-1.773 1.207-2.683 3.595-.86 4.086-1.863-.218.225.947.935 1.29zm2.146-.927c-2.621.224-.088-1.392.499.136zm5.373-.275c-.39-1.08-1.988.153-.208-.263.036-.04.216.73.208.263zm-5.04-1.753c-1.19-.332-3.27-3.358-1.588-.803.448.405 1.034.595 1.588.803zm-6.225-.882c.938-.56 1.48-1.583 0 0zm5.382-.393c-.593-.847-.666-.446 0 0zm-3.594-.802c-.806-.368-.453.999 0 0zm4.063 0c-.563-.909-.832-.487 0 0zm-3.25-.537c.869-.663-1.439.77 0 0zm-.671-.579c-.776.39-.626.76 0 0zm7.652-.823c-.837-.733-1.33-.565 0 0zm.346-.792c-.689-.884-4.342-.514-1.574-.447.553.04 1.042.324 1.574.447z" style="fill:#efb7b3;stroke-width:1" transform="translate(1814.304 -1441.81)"/><path d="M-1811.664 1494.09c1.417-2.847-.716-5.542-1.126-8.28-.235-2.858-.824-6.354 1.187-8.721 1.085-.657 1.487-3.59 2.741-2.573-.618.314 3.85 2.098.872 1.076-.995-1.368-2.944.137-1.003.86 1.309 2.485 3.344-.443 3.1-1.791 1.902 1.854 3.284 4.279 3.493 6.997.01 1.73.842 3.422 2.814 2.177.983-1.632 5.766-1.294 3.338 1.026.695 1.79-.991 4.408-3.278 4.678-2.543.219-4.111 2.4-3.111 4.796-1.152.825-2.774.227-4.14.392h-4.927l.022-.32.018-.318zm7.558-2.402c2.518-.016 1.013-4.433-.9-2.036-1.793.841-4.71.012-5.947.625 1.248 1.9 4.002 1.411 5.991 1.493.286-.02.571-.047.855-.082zm2.334-2.23c1.085.482 4.964-1.312 1.893-.96-.956-.366-3.364.742-1.893.958zm-4.285-.061c1.573.216 5.438-1.865 2.848-2.74-2.172.457-4.725.064-6.727.255 1.435-.892.765-1.252-.65-1.01 1.652-.236.66-.541.245-.751 1.492.346 1.55-.19.448-1.016 2.004.501.052-2.799.203-3.966.739 1.02 1.02 4.293 1.226 1.292.823-2.662-3.534-5.627-3.762-1.734-.432 2.88-.352 5.914.569 8.686 1.14 1.974 3.798 1.084 5.6.984zm8.664-1.151c-.74-.564-.68.512 0 0zm-1.184-.18c-1.329-.332-2.203-.689-.27-.471 2.42-.407-2.997-.434-.22-.707 1.662-.01 1.68-.578-.12-.377-2.304-.573 3.436.044 1.431-1.027-1.4.413-4.767-.147-2.113-.795.052-1.708-3.74 1.676-1.631 2.953.78.816 1.94.684 2.923.424zm1.7-.412c.385-1.807-1.892.886 0 0zm.543-.865c-.012-1.486-1.558.725 0 0zm-7.463-.413c.982-2.737-.115-5.703-.55-8.45-.48-1.404-1.394-.362-1.823 0-1.106.228-2.441-.168-3.436-1.28-1.29-.408-1.703.724-.131.771 2.362 1.593 1.633 4.735 1.457 7.13-.069 1.484.095.959.171-.287-.26 1.974.476 1.501.418 1.68.816 1.17 2.706.36 3.895.433zm.862-.294c2.056-.73.787-1.75 0 0zm6.613-.243c.04-1.097-.949.705 0 0zm-5.528-1.136c1.094-.709-1.632.703 0 0zm-.793-1.964c-.182-1.348-.756-4.272-1.179-4.495.635 1.387-.053 3.471 1.179 4.495zm-2.675-6.865c-1.035-1.603.041 1.951.046.427zm9.855 18.077c.176-4.033.734-8.164 2.616-11.79.2-1.073-.352-5.387-1.34-2.51-1.78 2.916-5.756 1.271-6.087-1.799-1.267-2.642-.157-5.194-.515-7.742-.504-1.379-2.024-3.914-2.315-1.091.661 2.153-1.047 5.245-3.537 4.03-1.377-.556 3.88.529 2.597-1.564-1.238.5-1.584-.209-.332-.365 1.189.98.922-1.16 1.159-1.916-.063-1.944 1.013-4.498-1.174-5.843-2.597-1.46 3.07 1.714 1.29 3.445-.91 1.383-3.686 1.335-4.062 2.648-1.363-2.02-2.934.696-1.182 1.375 1.898-.034-.497.776-.514.728.546 3.445-4.958 1.35-3.852-1.3-.704-2.706-.586-6.076 1.548-7.912 1.39-.412-.392-.374-.047-1.136 1.092.557 1.332.98.512-.31.059-1.192 1.017 1.788 1.357-.044.891-.665-.292 1.735 1.35.808 2.624-.602 5.478 1.266 6.045 3.932.322 1.265-.063 2.833.344.643.82-2.246-1.445-6.737 1.952-7.144 3.407-.098 1.824 3.737 2.042 5.83.277 1.74.104.775.604-.08-.164 1.747-.295 4.046-1.371 5.618 1.194.565 1.75 4.858 2.298 1.645 1.19-2.744 1.035-6.082 2.863-8.485 1.927-.946 3.352-3.868 5.466-3.468-.224 1.133-.872 3.05.624 3.858 1.093-1.765 4.3-3.256 3.099-5.747 3.081-.587 2.42 4.47 5.6 4.397 2.512 2.207 2.01 5.897 2.383 8.912.144 3.04.814 6.079.678 9.111-.443 2.995-4.129 2.927-5.836 2.214 1.038 1.698 1.725 3.655 3.699 4.282.611 1.447 2.85 3.132 2.465.258.385-2.187 2.875-4.304 4.558-4.796.331 1.761 1.538 3.815 3.226 1.709 1.814-2.086-1.316-.846-2.1-.412.965-.512 2.848-1.397.768-1.91-.612-1.037.737-3.968-.272-1.334.145 2.605-.617-.647.225-1.419-1.046.788-.194 3.866-.893 1.31-.325-1.68 3.867-2.137 1.905-3.585-1.333 1.76-2.163-1.523-3.632-2.173-.817-1.992-1.368-.792-2.108.404-2.177-3.006 2.898-4.78 5.3-4.415 3.478-.154 5.046 3.804 4.496 6.74-.345 1.626 1.123 3.406 1.452 4.158-.963 1.374-6.15-.125-3.399 2.444 2.625 2.223 1.168 6.011 1.744 8.945-.235 2.046-2.464 1.708-3.943 1.623h-7.938c-1.516-.08-4.205-3.523-3.662-.557-.947 1.165-2.656.327-3.974.557h-12.22c.022-.257.026-.526.04-.777zm22.247-1.037c-.473-1.52-3.706-2.62-3.926-1.81 1.288.169 2.142.749.332.444-1.507-.155 2.877 1.243.346.635-1.723.322 2.683.742.032.906.784.178 3.165 1.152 3.216-.175zm-3.862.376c-.54-.926-1.01-3.985-1.767-3.716-.865.937-.448 2.314-.068 2.257.585 1.886.431-.798.611.638.65.763.427.47 1.256 1.057l-.032-.238zm.063-.162c-.224-.78-.466-.538 0 0zm5.912-.631c-.415-2.1-.983-6.427 2.362-5.861 1.26-.282 3.657-3.552 1.22-1.639-1.024 1.042-2.86.667-3.325.375-.296-.824-1.975 1.61-1.588-.665-.25 1.388-2.32 5.128-.993 7.204.253.178 2.445 1.553 2.324.586zm-3.22-1.496c-.686-.337-.047-1.898-1.086-1.053.283.416.666.778 1.086 1.053zm-5.292-.728c-.224-1.347 1.072-2.175 1.553-2.227-1.016-1.77-6.12-1.07-2.962 1.028.407.38.763 1.324 1.409 1.2zm3.385-.87c-.546-2.683-5.364-3.259-6.005-2.657 2.686-.483 5.007.708 6.306 3.01zm2.026.073c-.679-1.037-1.203.407 0 0zm-.116-1.163c-.765-1.278.259 1.811 0 0zm.764-1.717c.854-2.983-1.466.589-.225 1.238.158-.396.107-.832.225-1.238zm2.417-1.964c2.163-1.914-1.91-1.426-.755.55l.337-.185zm-10.854-4.324c1.989-2.532-2.026-4.046-3.472-5.486-1.409-1.322-2.744-1.452-3.987-1.356-.833-.525-3.912-.598-1.58.147.93-.1 3.895 1.508 1.424.702-.927-.676-3.789-.77-1.403.158 1.006-.057 3.976 1.455 1.47.619-1.127-.515-3.31-.453-.943.208 1.285.165 2.23 1.119.423.414-2.45-.865.616 1.188 1.534.821-.122.313 2.696.38 3.321 1.582 1.01.994 2.214 1.807 3.213 2.191zm-4.527-3.404c-1.031-.609 1.43.384 0 0zm21.67-.316c-.108.29.054 1.897.01.483zm-4.117-.833c-1.2-.203-3.221-2.399-1.308-.394.115.185 3.07.966 1.308.394zm-.552-.832c-.916-.698-1.996-2.228-.745-.458 0-.026.808.707.745.458zm-29.655-.862c2.504-.848-.806-3.898 1.478-5.103-.843.328-2.397 1.115-2.682 1.178.485 1.27-.047 3.039 1.204 3.925zm7.538-1.657c-.661-.791-.847.599 0 0zm-2.015-1.221c.916.284 3.497-.305 1.162-.249-.186-.037-1.275-.079-1.162.249zm-5.121-2.174c-.668-.569-3.812.013-1.107.192.374 0 .764-.023 1.107-.192zm-1.408-.36c-2.117-.232 1.497-1.307-.445-.945-.713-1.014.44-.96.278-.393-.864-2.652-1.805 1.809.167 1.338zm-6.728-.724c1.875-2.026-.602.23 0 0zm-3.625-2.706c-.124.669.121.841 0 0zm23.547-.467c1.552-1.073-.132-1.443 0 0zm-.033-.31c.506-.846.725-.475 0 0zm-15.608.115c-.97-1.521.466 1.128 0 0zm31.576 16.73c-2.643.366-3.33-5.05-1.74-4.972-.52 1.523-1.274 4.07 1.275 4.372.987.101 2.184.49.465.6zm-1.684-4.503c.184-1.177-.701.45 0 0zm-.085 2.495c.905-1.77 1.687 1.27 0 0zm4.584-.8c-.3-2.46 2.354-.294 0 0zm-4.848-.288c.02-1.034 1.292.641 0 0zm1.326-.828c.589-.518 1.047.457 0 0zm.724-.424c-1.363.04-.32-.708 0 0zm.039-.871c-1.785-1.095 1.742.834 0 0zm-37.472-5.716c-1.256-3.053 2.149.076 0 0zm3.757-.773c-.927-.705 1.313.444 0 0zm-.735-1.027c1.188-.86 2.489-.159 0 0zm15.807-9.038c-2.277-.652-3.938-3.463-4.145-5.567 1.186-1.15.677-2.036-.683-2.24-1.06-2.398 2.161-4.398 3.88-5.58 2.373-.752 5.509-1.9 7.488.284 1.992 1.053.198 4.44 2.376 4.26 1.083 1.415-.035 3.155-.228 4.619-1.716 1.218-4.005-.01-4.51 2.574-1.005 1.185-2.616 1.92-4.177 1.65zm1.344-.372c2.958.01 2.898-3.94 4.974-4.65.929-.99-1.259-3.026.527-1.341-.618-2.407-1.768 1.43-3.165.467-1.189 1.704-3.412 4.411-4.715 1.19-.693 1.364-2.674 1.496-1.043 3.001.813.958 2.141 1.701 3.422 1.333zm-1.646-1.071c-2.705-.838 3.554-1.327 1.373-.382-.38.302-.878.504-1.373.382zm.888-.39c-.846-.342-1.153.48 0 0zm-1.948-1.092c-1.103-1.198 1.824.27 0 0zm.64-.284c0-.947.831.717 0 0zm6.074-2.076c-.567-1.56 2.166-1.135.59-.032.205-.653-.474.298-.59.032zm-3.714 1.775c.993-1.026.14-1.46-.489-.396 1.126-1.152-1.186-.441-.532-1.724 2.849.422-1.696-1.191-1.021 1.23.137.86 1.32 1.302 2.042.89zm-3.826-.137c1.55-1.213-1.873-1.296-.144-1.922 1.912.866 2.873-1.39 4.837-.153 2.002-.05 1.839-1.806-.022-1.947-2.011.045-2.659-2.015-3.764-2.931-1.194.796-3.275 3.788-.45 3.817-.616.59-1.851.141-.259.856.784.484-2.197-.262-1.057 1.2 0 .572-.059 1.745.859 1.08zm3.704-2.806c-2.48.223-.324-1.312.433.083l-.135.01zm-4.829 1.556c-.522-2.565-.476 2.4.01.519.075-.024-.27-.495-.01-.519zm12.177-3.182c-1.5-1.507.595 1.528 0 0zm-6.417-.23c-1.432.164-4.24-3.81-2.406-1.064.645.486 1.573 1.299 2.406 1.064zm1.37-.4c-1.055-.746-3.094-2.773-3.527-2.766 1.107 1 2.223 2.024 3.526 2.766zm.765-.298c-1.427-1.557-.695-.461.31.328zm-8.851-.416c1.658-1.128-.564-.414-.357.523l.138-.288zm1.947-.374c.056-.382-1.163 1.063 0 0zm3.88.481c-.885-.798-2.365-2.26-.816-.54.257.17.443.604.816.54zm4.262-.656c-.654-.846-3.974-3.396-1.613-1.296.154.121 2.33 2.097 1.613 1.296zm-1.605.031c-.535-.556-1.537-1.711-2.215-2.017.668.735 1.42 1.427 2.215 2.017zm-6.316-.963c1.544-1.144-2.637 1.436-.141.091l.12-.078zm-.086-.838c2.156-1.403-2.982 1.914-.618.359l.29-.21zm7.628.876c-.624-1.096-3.239-2.37-.972-.758.306.27.587.594.972.758zm.17-1.206c-.871-1.02-2.132-1.189-.398-.245-.021-.027 1.196 1.028.397.245zm.438-.773c-.7-1.675-6.316-.739-2.544-.942.884.192 1.749.51 2.544.942z" style="fill:#91cbd5;stroke-width:1" transform="translate(1814.304 -1441.81)"/><path d="M-1786.185 1445.143c-1.48.01-3.062.556-4.4.982-1.72 1.181-4.941 3.18-3.882 5.58 1.361.204 1.87 1.09.683 2.24.21 2.101 1.867 4.917 4.147 5.564 1.817.315 3.603-.743 4.571-2.238.25-2.761 2.904.035 4.187-2.157.021-1.486 1.862-4.305-.708-4.593-.459-.548-.08-3.21-1.494-4.095-.863-.965-1.952-1.288-3.104-1.283zm-.18.505c1.18.01 2.8.305 3.181 1.382-.309-.419-3.01-1.824-4.464-1.2 0-.09.556-.189 1.283-.182zm.686.746c.173-.017 2.4 1.059 2.474 2.04-.454-.521-.93-1.03-1.48-1.45-.814-.411-1.061-.584-.994-.59zm-1.699.12c1.224.245 2.664 1.225 3.408 2.37-1.017-.585-2.03-2.077-3.408-2.37zm.041.264c.493-.01 3.064 2.068 4.023 3.286-1.397-1.02-2.483-2.45-4.023-3.287zm-1.323.084c2.12.888 3.42 3 5.293 4.28-.575-.09-3.702-3.16-5.297-4.283zm-2.576.559c0 .01-.161.103-.582.34-.5.167-.85.578-1.196.95-1.335.384 1.77-1.316 1.778-1.29zm1.849.477c.191.04 2.22 1.709 2.758 2.276-.726-.348-1.343-.881-1.94-1.412-.687-.647-.893-.88-.818-.864zm-2.228.581c.703-.04-3.306 1.323-2.622 2.759-.734-1.382 1.47-2.204 2.406-2.73.096-.017.167-.026.216-.03zm1.966.223c.073-.027 1.367 1.496 2.094 1.8.924.669-1.404-.676-1.51-.89-.454-.652-.612-.9-.584-.91zm-1.035.054c.23.046.248.852.747 1.495.726 1.603 6.518 1.881 3.25 3.384-1.558-.602-3.445.654-5.186.387-2.014.18 1.659.937.064 1.83-1.358 1.16-1.33-3.73.317-1.93-.326-.707-1.644-.778.018-1.094-2.137.02-1.287-2.416.1-3.3.327-.52.514-.742.641-.771h.049zm.49.274c.182.06 1.75 2.26 2.83 2.101.935.59-2.205-.506-2.293-.917-.466-.902-.607-1.207-.536-1.184zm3.885.137c-.04-.082 1.55 1.797 2.253 2.119-.62-.28-1.129-.75-1.575-1.254-.47-.593-.664-.838-.678-.865zm-5.565.405c.05-.014.01.053-.194.256-1.968 1.39-.025-.194.194-.256zm5.75 1.019c.139.03 1.065.59 1.649 1.11-.307-.08-.543-.298-.8-.468-.73-.487-.931-.66-.848-.642zm4.828.384c.067.015.22.136.5.424v.032c.523 1.369-.79-.522-.5-.456zm-2.384 1.393c.187.015.374.135.527.313-.82-.41-.371.033.13.667.023.415.11.142.144-.147.104.382.047.829-.32 1.192-2.181.708-2.05 4.688-5.028 4.74-1.125.86-5.703-2.02-3.539-3.021.715-1.258 1.245-1.294 2.172-.05 2.61 2.075 2.192-3.927 5.166-2.612.1-.821.42-1.108.748-1.082zm-4.707.25c-.69-.031-1.763.452.128.407l.263.056c.158-.326-.077-.448-.39-.462zm4.661.474c-.234.014-.475.278-.537 1.028 1.533.123 1.052-1.057.537-1.028zm-4.745.734c.478.011.602.105-.517.04-.691 1.06 1.023.754.813 1.344.558-.558 1.007-.06.17.794-.544.612-1.263.072-1.727-.442 0 .01 0 .01.01.012-.01-.01-.01-.015-.017-.022-.392-.437-.594-.84-.338-.498-.538-1.083.91-1.244 1.608-1.228zm-1.608 1.228c.074.148.182.313.338.498l.01.01a9.673 9.673 0 0 0-.348-.509zm1.904.156a1.952 1.952 0 0 0-.302.398c.177-.169.265-.295.302-.398zm-4.973-1.329c.094-.029.176.168.198.768 0 .258.015.529-.017.79-.844.646-.462-1.472-.181-1.558zm2.835 2.065c-.06-.01-.086.08-.017.361.711.607.2-.33.017-.361zm-.76.103c-.124.01-.183.128-.064.455 1.402.516.436-.477.064-.455zm2.418 1.103h-.292c-1.054.04-2.512.445-.994.914.392.091.79-.02 1.126-.214 1.104-.478.802-.68.16-.702zm-.88.403c.13 0 .292.036.484.123-.996.47-1.048-.131-.485-.123zm6.05.654c-.164-.01-.341 0-.533.038 1.064 2.48-1.885 4.004-3.075 5.68-1.6-.676-.868-2.67-.66-3.772-2.11-.412-3.54 2.52-5.466 3.464-1.86 2.49-1.719 5.925-2.943 8.757-.337 3.024-1.042-.937-2.032-1.836.683-1.137.66-3.127 1.138-4.653.233-1.843-.128-.53-.512.516v-4.024c.667-2.027-.86-3.891-3.047-3.156-2.055 1.944-.06 5.498-1.22 8.014.457-1.382-1.285-5.393-4.185-5.481-.908-1.035-3.93 1.075-2.91-.651-.018-1.441-.6 1.145-1.22-.107-1.556-1.257.97 1.703-.579.528-2.053-.812 1.176.75.097.546-.506.083-2.01 1.63-2.384 3.61.196 2.556-.72 6.784 2.48 7.704 2.042.709 1.166-2.017 2.273-1.968 1.981-1.157-1.099.179-.74-1.739-.108-2.76 2.294 1.46 2.688-1.147 1.323-.531 3.875-.864 3.156-3.228a.794.794 0 0 0 .032-.204c.31 1.132.12 2.473-.234 3.598.198.881.095 3.3-1.038 2.421-1.078.165-.936.686.25.323 1.683 2.037-4.268 1.12-2.45 1.626 2.455 1.244 4.103-1.902 3.494-4.008.267-2.867 1.83-.342 2.32 1.08.385 2.441-.765 4.803.395 7.342.227 2.986 3.959 5.272 6.016 2.394 1.128-3.162 1.712.863 1.527 2.284-1.882 3.628-2.438 7.761-2.616 11.795-.07.342-.158 1.096.48.72.072-2.512.306-5.03.87-7.483-.027-1.064 1.654-5.329 1.939-2.36-.701 3.048-1.376 6.214-1.065 9.383.155.41.136-3.208.357-4.416.548-1.821-.09-5.13 1.956-5.708.54.832.63 1.838.564 2.919.045-.363.099-.728.17-1.098.235-1.665.587-1.346.384.053.254-.69 1.147-2.443 2.359-1.519-.799 3.132-1.176 6.351-1.45 9.565.536.025.377-3.635.822-4.876-.24-1.91 1.06-6.728 3.376-4 .41 3.18-.468 6.388-.128 9.577.232-3.09.453-6.19.322-9.291-.974-2.652 2.711.47 1.722-1.484 1.003.872 1.338 1.704.784-.046 1.32.48 1.758 2.138.718 2.589 2.332-.098 4.599 1.398 5.57 3.55.68.747.133.25-.16-.087-1.174-2.66-3.979-3.626-6.746-3.226a4.94 4.94 0 0 1 .505-.133 3.426 3.426 0 0 1-.554-.096c-.476 1.725 3.045 3.893 2.334 6.4-.12 3.283.485-.374.068-1.6.675-1.314.127 4.14.94 2.744-.493-2.537 1.393-.01 2.666.208.8.471 5.127 1.265 3.666-.279.695-2.346 4.07.724 5.918-.172 2.045.333-.555-.59.16-.763 2.479.202-.29-.188.112-.849 2.379-.849-1.252.31-.348-1.332-.911.457.07-.341.07-.672-1.436-.792-.587-4.395 1.103-5.176 2.593 1.182 1.309 5.595 1.503 8.103-.419 2.552.892.52.636-.741-.308-2.731.763-6.243-1.691-8.228-2.687-2.55 2.481-1.033 3.426-2.415-.33-.752-1.797-2.532-1.452-4.157.55-2.936-1.018-6.894-4.496-6.74-2.401-.366-7.48 1.413-5.298 4.415.69-.813 1.25-2.764 1.892-.66 1.341.628 2.433 3.945 3.603 2.534 2.5.735-1.837 1.965-1.63 3.41.644 2.584-.168-.282.769-1.101-.759 1.106.069 3.752-.147 1.106 1.085-2.44-.355.408.256 1.406 2.017.731.252 1.495-.753 2.008.784-.431 3.915-1.674 2.1.413-1.687 2.106-2.894.052-3.226-1.709-1.683.492-4.173 2.61-4.558 4.796.386 2.874-1.852 1.189-2.463-.257-1.948-.64-2.69-2.558-3.692-4.28 1.692.617 5.408.843 5.83-2.231.13-3.028-.535-6.062-.68-9.097-.373-3.015.129-6.705-2.384-8.912-2.98.062-2.58-4.34-5.05-4.45zm1.37 28.374c.343.03.618-.011.831-.103a5.075 5.075 0 0 0-.83.103zm-7.693-.619c-.086.235-.1.348-.025.188.012-.069.016-.123.025-.188zm-.555 1.046c-.039.313-.066.623-.084.93.038-.315.066-.625.084-.93zm-.084.93c-.212 1.775-.622 3.674-.08 5.313.154 2.342.777.699.656-.644-.49-1.486-.672-3.044-.576-4.669zm7.262-29.329c.055 0 .123 0 .205.01 2.713 1.64.022 4.455-.867 6.353-.084.135-.14.67-.451.656-2.53-1.669-.818-3.776.869-5.242 1.476-.712-.581-1.734.244-1.773zm-16.016.982c.296 0 .626.02.92.092.555.262-.992-.168-.777-.021-1.606.174-1.03-.063-.143-.071zm.015.184c2.149-.072 1.476 5.3-.662 3.406-.49.342-.655 1.016-1 1.489-.055-.116-1.244-4.637.904-4.684.284-.138.536-.204.758-.211zm10.416.62c.458.443-.16 2.917.908 3.72.45 2.4-.765 5.681-.81 8.438l-.027.145c-.985-.262-2.077-2.89-4.036-2.45-.233.324.228-2.116.413-2.32a.86.86 0 0 1 .064-.135c0-.01 0-.02.01-.028a.22.22 0 0 1 .051-.078c0-.019.01-.034.01-.064.001-.048.023-.082.045-.118 0-.01.01-.027.01-.027 0-.01.01-.013.012-.02 0-.01 0-.017.01-.025-.782-.79.284-3.337-.58-1.62-.637 2.78-1.263-1.709 0-2.33 1.39-1.768 3.002-.909 1.576 1.18-.468 2.937 2.457-1.165 3.293.358.278-2.059-2.127-1.426-2.591-.068-.788-.325.594-3.642 1.655-4.556zm-10.615.944c-.46.01-1.048.36-.62 1.057l.215.058.262-.082c.936-.698.603-1.04.143-1.033zm-.378.516c.077.01.187.07.334.205-.4.607-.67-.251-.334-.205zm19.012.236c1.281.033 2.722 1.285.686 1.961-1.507 2.315 1.546-2.21 2.49.215 1.19 3.747.856 7.788 1.395 11.658.401 2.295 1.195 6.107-1.843 6.872-1.17.214-2.345-.233-3.325-.847-2.729-1.034 1.126-1.444.439-3.318-1.547-2.565 1.618-.348 2.132.43-1.224-1.771.155-.525.931.359 2.106 2.917.755-1.628-.94-1.642-2.152-.587.447-.685 1.175-.02 2.159 2.356.334-1.178-1.186-.96-2.064.448-1.057-.581.341-.37 2.262.734.674-.126-.71-.46-1.233.51-1.647-.042-1.234-1.088-.142.023-.1-.861-.36.073-.167.475.152-3.033-.02-4.096-.452.93-.36.656-.44-.406-.113 1.199-.248.998-.077-.134.463-.683 1.094-4.925.444-2.687.68-3.041-1.296.513-.604 1.28-.233.242-.384.343-.48.352a.239.239 0 0 1-.07.077c.212 1.635.76 3.49.043 5.226.174 2.793-3.533.783-3.205-.328.72.336 1.292.184 1.695-.204h-.025c-1.552.704-3.286-.26-3.272-1.798-.165.811-.382 1.408-1.375.628-.809-1.483.401-4.44.63-5.594-.04-.11-.06-.239-.017-.285-.863-1.76.833-1.236 1.27-2.18 0 .048.092-.016.211-.116 1.155 1.615 3.482 1.436 3.944-1.394.06-.909.687-1.226 1.358-1.209zm-6.783 4.899c.017.035.028.065.048.102-.01.054-.017.117-.03.183.071.199.21.33.175-.224-.105-.087-.163-.094-.193-.062zm.763 5.25c.059-.288.115-.6.193-.891-.13.312-.19.611-.193.892zm.193-.891c.022-.052.044-.104.07-.156 1.928-1.502 4.301.439 3.206 2.649.93-1.21.62-3.841-1.43-3.28-1.234-.607-1.633 0-1.846.787zm3.276 2.493c-.053.069-.111.133-.173.192l.075-.014a2.72 2.72 0 0 0 .098-.183zm2.902 1.04c.052-.01.127-.135.25-.521a4.188 4.188 0 0 0-.25.52zm-25.026-12.079c.122.058.22.107.442.207.695.278 1.172.711 1.49 1.232-.515-.622-1.437-1.174-1.932-1.439zm7.291.615c.08.014.143.226.16.763.274.118-.122.546-.048.747-.86.892-.393-1.564-.112-1.51zm-1.637.174c.128.014.301.13.528.4 0 .08.163.105.138.19-.717 2.224-1.355-.667-.666-.59zm-3.457.18c.012-.039.205.212.746 1.071.075.5-.772-.987-.746-1.072zm16.69.03c.276-.039.427.342-.446.946-.012-.13-.01-.24.01-.34.644-.444.464-.763.01-.04.062-.365.267-.542.432-.566zm3.938.163c.025-.014-.037.117-.272.527-.666.873.196-.485.272-.527zm-27.72.457c-.094.36-.25 1.15-.1 1.784.17 1.123-.241-.879-.182-.98.155-.42.233-.652.281-.804zm24.145.098c.015.024.032.044.047.068-.045.06-.076.106-.099.142a1.13 1.13 0 0 0 .051-.21zm-12.78.27c.927.1 1.926 3.769-.172 3.355-1.98.544.448-.913-1.128-1.74-2.121-.536.69-2.884.415-.575-.065-1.576-1.514.633-.447-.222-.132 1.952 2.112-.9.64.105.18-.7.433-.952.692-.924zm-5.21.635.067.385c.118.847-.507-.071-.067-.385zm-5.717.072c.045-.01.153.312.254 1.097l.041.238c-.305-.78-.353-1.326-.295-1.335zm11.068.172c-.085-.018-.133.052-.039.31.59.193.227-.27.04-.31zm-7.06.252c.058.038-.283 1.805-1.113 2.076-1.09.656.965-.877.87-1.132.139-.708.222-.959.244-.944zm.88.03c.017.02-.021.257-.148.86l-.303.435c.153-.44.385-1.218.442-1.29 0-.01.01-.01.01 0zm-6.64.161c.085 1.832-.111.456 0 0zm4.541.07c.104-.01-.397.84-1.039 1.153-1.072.593.398-.285.48-.47.34-.494.512-.678.56-.683zm13.357.436c.153 0 .339.291.42 1.14l.035.185c-.915-.264-.745-1.324-.454-1.325zm-13.212.109h.012c0 .027-.127.177-.484.545l-.037.04c-.559.34.391-.544.509-.589zm6.174.045h.076c-.075.068-.176.226-.307.535.364.22.514-.345.444-.525.317.06.442.351-.168.94 2.112-.518-1.18.583.512.879a.266.266 0 0 1-.097.088c.596-.053 1.398.01 1.76.298-.406.287-.926.291-1.398.247-1.483-.177-1.223-.431-.533-.526-.234-.035-.506-.293-.631-.404-1.021-.895-.239-1.481.342-1.534zm.29 1.938c.06.01.118.01.17-.02-.06.01-.115.012-.17.02zm-10.694-1.524c.01-.015.022.078.054.356.083 1.832-.08-.289-.054-.356zm19.047.295-.01.01v.01c0 .01 0 0 0 0 0-.01.01-.012.01-.018zm12.707.039c-.099 0-.195.108-.285.26.19-.023.417.081.603.218-.1-.339-.208-.477-.318-.478zm.318.478c.036.123.07.263.102.443.44.166.24-.189-.102-.443zm-.603-.219c-.252.03-.435.289-.37 1.005.039-.192.184-.69.37-1.005zm-.37 1.005c-.013.072-.017.111 0 .065v-.065zm-18.561-1.255c-.07 0-.144.079-.201.297.559.378.407-.302.2-.297zm4.153.285c.292-.047.592.794-.01 1.683-.635.936-.463-.285-.31-.457-.027-.85.144-1.198.32-1.226zm-9.778.315c-.271-.01-.733.098-1.178.42 1.555-.1 1.63-.41 1.178-.42zm10.896.5c.063 0 .122.048.176.145-1.714 1.778-1.44 4.835-.626 7.24.105.287-.113.733-.311.267-2.268-1.241-2.084-3.52-.916-5.687.62-.023 1.24-1.991 1.678-1.965zm10.836.426zm0 .012v.01-.01zm-15.61.066c-1.328 1.589 1.247 3.865-1.03 4.925-.967-.55-.817-1.817-.98-2.756-1.065-2.004.82-1.205 2.01-2.169zm-10.36.047c-.253.014-.386.297-.024 1.068l.181.228c1.25-.377.328-1.324-.156-1.296zm22.828.072c-.01.01-.01 0-.012.01l-.01.01c-.01 0 .027-.014.02-.01zm-19.241.088c-.06 0-.026.058.206.235.985.333-.029-.23-.206-.235zm25.311.115c-.139 0-.242.027-.22.123 1.37.208.636-.112.22-.123zm-12.388.19c0 .018-.01.033-.012.05.016-.015.035-.024.052-.037-.014 0-.027-.01-.04-.011zm8.14.036h-.038c.015 0 .032 0 .047.01l-.01-.01zm-9.672.525c.063 0 .065.067-.07.264-.844.37-.117-.26.07-.264zm1.433.624c.378 0 .767.06 1.055.236-.124.454-.84.044-1.125.128-2.101.218-1.065-.358.07-.364zm8.357.583c-.153 0-.369.065-.637.236.985.28 1.096-.244.637-.236zm-10.14.325c.61.035 1.331 2.922 2.093 3.654 2.55 1.12.94 3.87 1.7 5.837l.044.326c-.653-1.63-1.755-2.684-1.166-.483-.07-.01-.137-.015-.2-.027-.076-1.136-.827-1.595-.034-.01-1.853-.395-1.338-3.533-1.384-5.115-.058-.51-.887-2.367-1.307-4.01.082-.125.167-.178.254-.173zm3.487.057c.032-.029.213.203.61.902-.022.183.32.27.161.462-.466-.54-.825-1.315-.771-1.364zm-1.767.348c.077-.01.232.053.503.239-.248.401-.733-.218-.503-.239zm-5.427.336c.05-.081 1.025 2.268.974 3.807.096-.13.15.465-.012 1.013.302-.755.318-.21.162.535.323 2.27.792-1.727.663.29-.768 1.997.454 1.244.586.09 0 .117.01.226.018.42v.103c.18.555.018-1.039-.018-.888a1.55 1.55 0 0 0-.093-.409c-1.235-2.495.532-.307.595.957.718.839-.446-2.435-.872-3.083 2.133.94 1.566 4.376-.494 5.154-1.99 1.074-3.373-1.314-3.796-2.915-1.122-3.38 1.488 2.974.502.036.759 1.731.672.027-.078-.532.878 1.275-.195.382-.155-.376.879-.104.408-.426-.324-.798 1.995-.606-1.93-1.7-.618-3.303-.902 2.625 3.568 2.28 2.959-.081v-.02zm.962 4.82c-.033.083-.068.169-.108.285.044-.09.079-.187.108-.285zm.012-1.013c-.047.062-.101.283-.146.761.095-.21.136-.473.146-.761zm23.585-3.447c-.647.735-.785.778 0 0zm-18.526.238c.69-.01 2.212.236 2.79.547.289-.682 2.225.223 3.155 1.08 1.447 1.522 5.608 2.982 3.61 5.601l-.434-.147c-1.802-.911-3.763-3.53-6.344-3.51-.273-.255-4.134-1.443-1.56-1.035 1.61.82 1.56-.021-.077-.314-2.462-.594-.418-.81.842-.232 2.632.87-.515-.654-1.538-.655-2.302-.75.577-.843 1.346-.14 2.544.868.045-.613-1.05-.613-1.31-.41-1.277-.574-.74-.582zm20.748.577c.082.015 1.29 1.527 1.993 1.748.548.459-1.417-.73-1.475-.911-.41-.62-.55-.843-.518-.837zm2.265.284c.06.021.373.275.761.7-.627-.508-.821-.72-.761-.7zm-2.758.231c-.001-.054 1.27 1.53 2.258 1.55 1.777.618-1.378-.228-1.58-.542-.483-.715-.678-.987-.678-1.008zm2.104.047c0-.059.762.666 1.287 1.09.101.227-.7-.45-.725-.423-.407-.452-.563-.64-.562-.667zm-26.158 0c0 .017.066.122.26.372 1.175 1.162-.242-.444-.26-.372zm-14.063.091c-.868.062-1.268 2.232-2.192 2.777-2.012 2.367-1.423 5.863-1.187 8.722.409 2.737 2.542 5.432 1.125 8.279.27 1.933.446-1.068.864-1.517.993-1.804.298 1.2.514.82.962-1.525.883-.843.357.356 1.064-1.426 1.37-1.63.685.153.926-2.014 2.328-1 .604.512.48-.362.9-.545.865-.376 1.044-.988 2.815-1.634 2.649.447.388-1.346.373-1.353.453.01.196-.683.77-2.404 1.271-.578.277-1.147.2.305.538.643-.23-2.05.298-4.915 3.275-5.038 2.326-.19 4.043-2.864 3.343-4.662 2.427-2.32-2.356-2.658-3.339-1.026-1.972 1.245-2.803-.447-2.813-2.177-.21-2.718-1.592-5.143-3.494-6.997.244 1.348-1.791 4.276-3.1 1.791-1.94-.722.01-2.228 1.003-.86 2.965 1.013-1.457-.735-.884-1.073-.199-.156-.376-.217-.537-.206zm1.635 19.726a3.286 3.286 0 0 0-.513.6c.345-.32.493-.51.513-.6zm2.268-18.512c.073-.015.176.223.29.946l.012.121.012.142c-.492.521-.5-1.17-.313-1.209zm33.993.195c-.01.011.129.105.52.345 1.36.652-.494-.383-.52-.345zm-1.253.608h-.027c-.027.01-.057.05-.087.092.053 0 .107 0 .165.015-.01-.07-.027-.103-.052-.11zm.052.11s0-.001 0 0zm0 0c-.096.129-.18.259-.256.388v.001c.037.034.11.03.237-.047.023-.163.027-.27.02-.343zm-.256.388c-.072-.068 0-.28.09-.405-1.361.052-.807 5.327 1.83 4.862.334-.106.739-.04 1.035-.264-2.588.099-4.212-2.026-2.955-4.193zm8.09-.279c.023 0 .059.63.059 1.26 0 .179.01.356.01.534.105 2.395-.147.128-.086-.961-.01-.6 0-.83.017-.833zm-45.224.039c.999-.067 2.396 2.404 3.486 1.033.905.995 1.545-1.664 2.263.272.394 2.76 1.61 5.763.552 8.491-1.78.129-4.23.58-4.386-1.202-.095.98-.128-.5-.03-1.527.41-2.308.486-6.045-2.504-6.537.18-.364.389-.515.62-.53zm1.915 8.594c.018-.185.037-.428.06-.812-.064.313-.08.58-.06.812zm36.572-8.543c-.232.02-.208.267.585.299-.214-.244-.446-.312-.585-.3zm-15.235.082c-.077 0 .018.064.52.232.653.019-.35-.242-.52-.232zm-2.526.248c1.526-.07 1.053 3.39 1.298 4.683-1.931.92-2.065-1.615-2.143-2.853 1.543.374-.135-.931.06-1.568.308-.17.567-.252.785-.262zm18.017.205a.525.525 0 0 0-.394.187c.974.254.77-.186.394-.187zm3.541.142c-.271.016-.517.316-.414 1.161 1.545-.192.933-1.192.414-1.16zm-19.356.032c1.267-.039 3.172 1.812 1.862 3.203-.984 1.28-.504.695-1.792 1.153l-.198-.515-.19-.475c-.574.937-.534-.92-.65-1.92-.05-1.02.393-1.428.968-1.446zm14.284.495c-.102 0-.185.088-.19.347.969.481.496-.342.19-.347zm-38.012.011c1.291-.016 2.982 1.862 2.441 3.61-.077 2.257-.49.938-.774-.454-1.385-2.2 1.466 4.072-.536 3.138.53.573 1.252 1.476-.567 1.004.415.21 1.407.515-.244.75 1.414-.241 2.084.12.65 1.011 2.002-.19 4.554.201 6.726-.255 1.703.575.613 1.669-.779 2.29 1.321-.177 1.924 2.728-.118 2.74-.284.036-.57.064-.855.083-1.99-.082-4.743.407-5.992-1.494 1.237-.613 4.154.217 5.948-.624.184-.232.365-.398.538-.513-.582.205-1.168.316-1.59.258-1.802.102-4.46.99-5.6-.983-.92-2.773-1-5.807-.568-8.686.079-1.338.644-1.866 1.32-1.875zm6.438 11.287c.162-.057.322-.122.48-.192-.152.02-.313.082-.48.192zm.585-11.125c.364.266 1.098 3.305 1.239 4.724-1.254-1.115-.544-3.268-1.24-4.724zm31.683.693c-.175-.016-.393.125-.62.568 1.264.955 1.142-.52.62-.568zm5.832 1.322c.194.781-.19.79 0 0zm1.6.116c.03.018.162.3.458 1.073-.263-.396-.505-1.102-.457-1.073zm-16.57 1.36c-.082-.015-.146.044-.109.262.553.159.289-.23.109-.263zm-10.208.274c1.67.036 3.66.628 5.45.424.724.528 4.377 1.58 1.798 1.708-1.285.2-2.61.127-3.908.2-1.213.379-5.313-.838-3.524-1.134-1.16-1.084.99-.197-.511-1.176.224-.02.457-.027.695-.022zm1.952.621c-.146.01-.343.063-.595.198.899.663 1.226-.227.595-.198zm-.317.437c-.112 0-.173.092-.093.33 1.216.387.428-.343.093-.33zm-.185.472c-.156-.01-.162.055.252.26 1.145.101.088-.245-.252-.26zm19.175.113c.48-.01.728.372-.219 1.209l-.417.365-.337.185c-.65-1.112.354-1.752.973-1.76zm-10.37.31c.158-.024 1.062 1.092.85 1.82-.038.46-.326-.854-.427-.936-.411-.626-.494-.873-.422-.884zm-16.175.04c.034.01.05.047.043.135-.96.931-.32-.06-.08-.132h.037zm-2.816.54c.193 0 .394.031.6.115-1.05.47-1.687.845-.065 1.238.99-.32 3.765-.047 1.418.63-1.38-.462-2.104.355-.219.26 2.055.016.295.448-.6.333-2.78.237 2.666.224.425.712-2.041-.21-1.283.1.205.437-.709.082-1.429.123-2.14.04-2.608.078-1.492-3.72.376-3.765zm33.917.085c-1.813 1.429-1.948 3.472-2.001 5.588-1.045 1.4.863 1.845 0 3.017-.868.648-2.761-.108-3.863-.416-3.135-.927-.905-4.653-.675-6.869.57-2.04-.044-.363 1.155-.058.696-1.196.786.118 1.349-.141 1.189.713 2.749-.461 4.035-1.121zm-35.22.102c.01.012-.06.07-.266.203-1.325.571.226-.254.267-.203zm-.204.44h.044c.211.054-.362.926-1.191 1.141-.38-.04.356-.508.366-.57.412-.395.66-.555.78-.572zm28.262.36c.215-.02.325.48-.026 1.272-.146 2.09-.64 1.427-.498-.176.126-.75.356-1.08.524-1.096zm-22.912.176c.072 0 .126.089.116.363-.712.529-.332-.352-.116-.363zm-.156.8c.123 0 .235.134.27.496-1.121.611-.641-.509-.27-.496zm-.39.744c.132.015.204.185.108.634-1.438.66-.502-.68-.107-.634zm16.707.02c.879.026 1.834.343 2.215 1.006-.48.051-1.776.88-1.552 2.227-.646.125-1.003-.818-1.41-1.199-1.973-1.312-.719-2.077.747-2.034zm10.533.223c-.047-.01-.111.113-.157.245a.352.352 0 0 1 .208-.041c0-.138-.02-.2-.05-.204zm.051.204c0 .06 0 .13-.01.225-.295.32-.28.049-.199-.184-.422.197-.932 1.042-.28 1.53.441.39.837-.08.58-.545.202-.705.102-.99-.09-1.026zm-4.888.527c.038-.01.119.08.262.32.21 1.47-.426-.293-.262-.32zm-22.976.038c.067.014.096.093.026.288-.767.217-.226-.33-.026-.288zm-2.738.392c.154 0 .297.027.416.073 3.071-.35-.808 1.443-1.893.961-1.287-.19.396-1.061 1.477-1.031zm25.57.672h.067c.125.017.285.121.455.38-.846.287-.838-.342-.523-.38zm-4.05.462c.716-.065 1.174 2.835 1.697 3.732l.032.236c-.828-.588-.605-.294-1.256-1.057-.18-1.436-.026 1.248-.61-.638-.38.057-.798-1.32.068-2.257a.228.228 0 0 1 .07-.016zm3.794.144c.382-.052.153.842.533 1.207a3.858 3.858 0 0 1-.96-.961c.195-.159.33-.233.427-.246zm-19.233.985c-.118-.055-.567 2.088-.427 2.986.058 2.107.323-1.188.357-1.705.111-.901.116-1.26.07-1.281zm17.47.124c1.16-.065 3.92 1.016 3.396 2.78-.995.115-2.25-.042-3.056-.675 2.42.312-1.384-.583-.356-.667 3.003.495-1.073-.515-.176-.744 1.856.275 1.043-.118-.295-.46.037-.143.22-.22.488-.234zm-29.06 1.775c.145.01.291.042.379.135-1.237.112-.815-.151-.38-.135zm28.546.044c.044.011.146.156.244.497-.263-.302-.3-.51-.244-.497z" style="fill:#6ca7b2;stroke-width:1" transform="translate(1814.304 -1441.81)"/><path d="M-1811.66 1494.17c.08-.948.257-1.948.846-2.722-1.034-.532-.221-1.973-1.142-2.572-1.276-2.662-.98-5.723-.971-8.587.123-1.75 1.032-3.437 2.623-4.251-.411-.493-.17-1.351.53-1.447.148-.83 1.832-.06.508.04.293.33 1.438.74 2.088 1.053 1.513.56-.09.336-.703-.075-.708-.078-1.5-1.143-2.07-.457-.449.635.869 1.01 1.167 1.516.503.388 1.38 1.526 1.91.59.33-.647 1.028-1.298.994-2.02-1.032-.07-.11-1.026.404-.32.797.495.311 1.65 1.297 1.9 1.373 1.3 1.287 3.366 1.866 5.056.105.864.533 1.87.458 2.649-.495.095-1.02.521-.665.452 1.095-.228 1.994-1.521 3.204-.916.464-.723 1.227-1.415 2.172-1.18.543.08 1.943-.307 1.741.597-.334.633-.944 1.13-1.255 1.754 1.174-.277.162 1.077.414 1.025.444.497-.518 1.1-.624 1.723-.333.501-1.132.997-1.86 1.287-1.135.663-2.43.905-3.714 1.088.267.863-.721 1.397-.358 2.189 0 .646.417 1.898-.052 2.188-.381-.037-.031-1.927-.393-1.76.062 1.01-.375 1.339-.232.115-1.07-.396-.962.796-1.083 1.526-.485.36.33-1.616-.338-1.466.046.6-.326 2.443-.251.87.455-1.18-.795-.834-1.543-.938-.725-.14-.463 1.365-1.344 1.505-.131.133 1.044-1.586.492-1.094-.22.6-1.524 1.31-.52.322.219-.49 1.092-1.604.027-1.508-.41.522-.785 1.429-1.343 1.635.171-.336 1.258-2.02.453-1.49-.29.195-1.127 1.863-.912 1.148.174-.445.969-2.17.108-1.043-.329.567-1.081 1.781-.477.423.609-.529.185-1.706-.412-.937-.525.789-.562 1.778-.647 2.694-.561.1-.397-.117-.392-.562zm6.575-1.414c-.281-.274-1.642-.333-1.984-.1.395.368 1.344.213 1.964.237l.02-.141h.001zm.462-.01c-.369-.825-.503.822 0 0zm1.044-.053c-.495-.747-1.238.639-.021.068zm-.267-1.03c.983.056 1.148-.847.995-1.624.216-1.042-.133-1.393-1.038-.77-2.21.707-4.684 1.22-6.947.528-.583-.231.141 1.943.358.953-.092.632 1.236.709 1.865.869 1.563.253 3.205.27 4.767.045zm2.771-2.037c1.015-.154 1.955-.597 2.86-1.066.13-.708-1.255.28-1.756.05-.865.199-1.73-.55-2.482.115-.326 1.189.438 1.21 1.378.894zm-5.409-.135c1.553-.213 3.023-.775 4.453-1.396-.768-.28-.078-1.927-.868-1.578-1.909.641-3.979.34-5.914.137-1.13 1.383.13-.365-.692.296-1.055 1.11.739-.866-.35.021-.771.586.337-.885.84-.694.798-.577-.861-.518-1.299-.3-1.167.11.718-.418 1.143-.425.465-.043-2.401-.385-1.225-.394.464-.22 2.117.603 1.445-.354-1.066-.323-1.367-.96-.135-.351-.492-.8.071-.124.297.169-.424-1.529-.482-3.158-1.038-4.66.372.15.437 1.578.479.687.212.916.485 1.82.644 2.748.318-1.836.416-4.184-1.187-5.464-.719-.674-1.904-.284-2.104.666-.835 2.706-.515 5.62-.15 8.382.153 1.347 1.069 2.742 2.566 2.683 1.028.017 2.083.043 3.095-.173zm9.024-1.197c.22-.725-1.197-.035-.132.093.055 0 .087-.064.132-.093zm-1.018-.27c.067-.489-1.6-.07-1.907-.44.636-.325 1.78.307 2.513-.132-.182-.517-1.437-.142-2.051-.356-.847-.296 1.178-.173 1.589-.195 1.374.12.917-.837-.257-.464-.474.049-2.391.049-1.084-.23.829-.128 1.717.138 2.51-.154.558-.968-1.153-.3-1.659-.487-.72-.11-1.968.311-2.32-.405 1.111-.916-.514.62.81-.256.422.083 1.394-.755.403-.791-1.319-.013-1.708 1.393-2.336 2.271-.03.773.198 1.645 1.117 1.667.88-.14 1.88.349 2.672-.027zm1.61-.33c.615-.738-.956-.927-.83-.038-.01.256.758.266.83.038zm.521-.928c.62-.713-1.414-.626-.666.076.233.089.527.222.666-.076zm-7.364-.38c.874-.078.11-1.41.3-2.05-.203-2.485-.26-5.09-1.326-7.387.01 1.163-1.19-.246-.958.277.36 1.133-.388.658-.795.17-.432 1.077-1.713.611-2.262-.107-.603-.489-1.174-1.361-1.86-.491-1.147.562.69.195 1.018.717 1.846 1.516 1.691 4.149 1.334 6.284-.112.788-.218 1.86.108 2.491 1.427.372 2.994.225 4.44.095zm.913-.238c.738 0 .847-1.053 1.461-1.472-.493.395-1.669.77-1.736 1.576.106.02.183-.066.275-.104zm6.51-.315c.122-1.158-1.248.65-.033.034zm-5.752-1.452c-.772-.042-.996.561 0 .06zm-.522-.085c.803-.072.133-.48-.443.032-.058.145.344-.097.443-.032zm5.07-.315c.442.014.506.276.722-.268-.538-.16-1.61.5-.964.381.015.101.223-.206.242-.113zm-5.099.04c.801-.01.042-1.733-.554-.713 1.208-.458-.402.364.357.218 1.022-.365-1.07.597.44.236-.366.065-1.047.52-.241.258zm6.684-.872c-.71-.052-1.524-.166-2.193.045.69-.014 2.146.055 2.363-.01l-.14-.029zm-6.85-.316c.407-.516-.275-1.594-.287-2.314-.258-1.147-.483-2.327-1.138-3.329.548 1.876.958 3.815 1.042 5.768.123-.047.26-.106.383-.125zm-3.272-5.389c-.945-1.525.421 1.027 0 0zm.823-1.175c-.129-.734-.598-1.74-.497-.529-.662.267.83 1.73.574.985a72.389 72.389 0 0 1-.077-.456zm9.781 17.833c.152-3.612.496-7.35 2.067-10.655.078-.672.757-1.138.604-1.915.073-.912-.48-1.784-.498-2.724.036-1.293-.227-.688-.606.138-.677 1.612-2.63 2.898-4.324 2.006-1.935-1.284-2.383-3.846-2.615-6.006-.326-1.007-.651-2.428.346-3.141.227-.513-.348-1.445-.386-2.13-.673-.314-.682-1.05-1.066-1.596-.41-.895-.328-.934-1.002-.085-.428.613-.544 1.424.034 1.988.068.648-.523 1.289-.733 1.959-.389 1.292-2.035 1.548-3.104 1.134-.915-.51-.532-.51.307-.19 1.07.296 2.45-.027 2.758-1.235.951-.853-.444-.797.019-1.37 0 .312.574.139.685-.188-.764-.647-.435-1.657.051-2.369-1.098.424.164-.572 0-1.175.221-2.374-2.217-4.212-4.393-4.327-.793.023 1.192.126 1.52.476 1.645.68 3.297 2.473 2.554 4.345-.3.588-1.351 1.015-1.724.883-.359.114-.852.146-1.387.197.138.463-.812 2.124-.53 1.284.567-1.189-.558.933-.767-.125-.048-.832-1.201-1.084-1.468-.242-.301.765.353 2.304 1.287 1.823.779-.566-.202.896-.79.56-.288-.762-.387-.523-.232.433.194.844.103 1.584-.936 1.45-.895.025-2.142.188-2.377-.97-.859-2.633-1.405-5.635-.375-8.291.38-.863 1.148-1.503 2.09-1.647-.92-.153-1.184-.532-.073-.314 1.292.625.23-.064-.45-.363-1.255-.375-.22-.859.376-.16 1.131 1.02.468.159-.127-.472-.376-1.013.92-.193.893.46.337.69.058-1.436.966-.882.305.4-1.057 1.64-.357 1.226 1.249-.664 2.795-.22 4.067.207 1.682.714 3.585 2.248 3.165 4.292-.212.436.068 1.891.23 1.485-.467-.771.399-1.49.246-2.29l.066-5.879c.62-.77 1.784-.234 2.658-.393 1.046-.257 1.346.825 1.162 1.64.043 1.822-.151 3.664.04 5.473.908-.134-.014-1.462.493-1.836.247.45.313 1.437.036 2.03-.972.08-.384 1.204-.5 1.915.463.998-.612 1.14-.863 1.527-.285 1.019.684.997 1.074 1.688.2.538.575 2.283.831 1.902.484-1.777.993-3.58 1.601-5.29.23-1.816.824-3.671 1.936-5.128.714-.853 1.838-1.12 2.805-1.525.394-.964 1.327-2.247 2.501-1.736.365.91-.898 1.018-.588 1.9.153.804.518 1.627.829 2.417.391-.35.89-1.154 1.495-1.626.799-.933 1.753-1.76 2.406-2.8-.342-.364-1.125-1.858-.06-1.663 1.005-.193 1.672.61 1.944 1.476.5.456.29 1.308.43 1.685 1.695.688 3.655 1.49 4.228 3.411.93 3.41.773 7.009 1.201 10.503.184 2.26.976 4.777-.273 6.862-1.13 1.521-3.311 1.53-4.836.638-1.149-.856-.132.454.249.904.442.854.795 1.763.968 2.71.828-.12 1.712-.01 2.121.83.637.813 1.26 1.705 2.051 2.35.58-1.988.691-4.604 2.852-5.57.863-.082.926-1.055 1.654-1.464 1.382-.348.275.45.707 1.09.553.473.59 1.804 1.273 1.889.905-.674 2.002-1.236 2.659-2.158-.577-.649-1.211-.347-1.857.1-.331.237-2.089 1.046-.912.35.475-.375 1.941-.839 1.769-1.253-.929.185-1.607-.686-1.406-1.563-.283-.622.87-2.006.473-1.832-.665.843-.925 2.048-.377 3.01-.966-.857-.246-2.349.217-3.135-.836.685-1.161 2.02-.583 2.944-.766-.75-.407-2.102.29-2.853.2-.864 1.035.256 1.483-.746.483-.545.257-1.62-.614-1.413-.377.225-1.138 1.705-.686.532.024-.484-.399.045-.746-.828-.505-.607-.921-.974-1.665-1.319-.657-.495-.946-1.288-.827-2.09-.697.422-1.706 1.348-1.188 2.19-.367-.248-1.203-.804-1.085-1.584.126-1.705 2.086-2.384 3.508-2.783 2.117-.485 4.81-.338 6.131 1.634 1.336 2.447.486 5.408 1.305 7.999.3 1.188 1.431-.067 1.274.488-.627 1.199-2.272 1.28-3.492 1.342-.673.01-2.028-.16-.855.524.086.741.152 1.148 1.066 1.486 1.378 1.193 1.003 3.272 1.212 4.914-.08 1.753.238 3.605-.422 5.27-.917.13.13-1.164-.116-1.75.094-2.414.148-4.891-.335-7.26-.15-.784-.954-1.127-1.598-.639-1.153.93-1.428 2.527-1.528 3.937.553-.396-.09.36.073.463-.032.606.232.403 0 1.048 1.184-.834.087.118.187.271.413-.588-.253.922.17.67-.022.292-.216.656.636.318 1.092-.11 1.36.17.103.27-1.226.36-.598.496.259.607 1.063.454.701.682-.216.214-1.373.035.112.607.567.973.2.303-1.36-.554-1.119-.076.963.644-.874-.278-1.397-.055-1.471-.095-2.966-.43-4.268-1.118.29.599-1.11 2.277-.367 1.76.235-.187.676.597-.465.387-.175-.952-.338-.287-.6-.01-.64-.295.01-.962-.763-.025-.712.096-.333-.572-1.407-.389-1.142-.364-2.253-.997-2.905-2.034-.07.762.276 1.922-.043 2.446-.637-.142-.095-1.432-.364-2.036-.127-.8.07-1.754-.624-2.34.267 1.438.222 2.918.296 4.376-.472-.409-.132-1.66-.29-2.396-.163-1.13-.04-2.426-1.026-3.215-.509-.778-1.403-1.326-1.667-2.237.503-.916 1.806-.326 2.659-.494.942.058-.115-1.343-.22-1.845-.062-.617-1.305-1.76-.593-.598.38.752.736 1.531.928 2.353-.519-.85-.809-1.903-1.501-2.66-.843.194.303 1.145.248 1.73-.449-.278-.57-1.805-1.342-1.359.064.407.822 1.876.105.706-.211-.978-1.135-.518-1.794-.334.31 3.417-.035 6.839-.226 10.253-.296-.082.017-1.462-.013-2.044.2-2.75.327-5.523.095-8.272-.818.11-1.644.118-2.466.168-.908 3.225-1.185 6.6-1.5 9.926-.232.918-.117-1.079-.062-1.438.278-2.873.71-5.74 1.355-8.547-.734.141-2.042-.506-2.081.635-.16.57-.359 2.473-.33.982-.142-.545.735-1.728-.046-1.697-.667 2.439-.607 5.012-.68 7.528-.193-2.537.032-5.107.443-7.613-.814.073-1.906-.704-1.897.612-.857 3.206-1.15 6.549-1.133 9.862-.396-.343.012-1.554-.094-2.25.035-2.89.538-5.82 1.306-8.561-.672-.465-1.242-.435-1.353.528-1.278 3.267-1.558 6.814-1.736 10.283-.585.144-.377-.277-.37-.655zm20.286-.176c.095-.403-1.514-.275-1.772-.95-.949-.861-.662-2.424-1.832-3.132.648-.023.684-.839-.112-.598-.352 1.013-1.004 2.41.109 3.183.635.66 1.074.885 1.788 1.21 1.522.664-.04-.317.479-.124.501.065.52.695 1.34.411zm-.6-.118c-.922-.275.933.03.32.076-.051-.036-.48.065-.32-.076zm2.423-.249c.63-.999-.39-1.263-.977-1.82-.614-.987-1.881-.783-2.876-1.01-1.179.277.784.667 1.283.681 1.36.241-.375.34-.865.07-1.099-.467-.648.59.204.515.842.07 1.723.558.372.303-.725-.294-1.74-.274-.613.292.55-.035 2.25.512.87.36-1.154-.352-.477.492.286.43.617.242 1.76.044 2.066.231-.286.48.226.33.25-.052zm5.796-.196c-.387-.648.032-1.928-1.09-1.6.11-.138.982-.501.165-.53.852.082-.366-.164.048-.253-.875-.341 1.117.166.17-.53-.592-.112.47-.277-.015-1.226-.144-1.78.422-4.059 2.24-4.768.07-.623-1.145.077-1.542.517-.616.355-1.46 1.474-2.093.619-.362-1.001-1.036.232-.356-.814-.442-.017-.942 1.862-.82.414.33-1-.847.692-1.335.495-.713.07.23-2.063-.435-1.142-.55 1.475-.725 3.101-1.106 4.639-.06.86-.474 1.931-.075 2.678 1.91 1.009 4.074 1.626 6.247 1.552zm-2.708-4.365c-.11-.4 0-.295.026-.61-.09.088.132-.716.324-1.254.86.334-.096.807-.053 1.115 1.243-.01-.69.269.482.567-.869-.486-.14.71-.78.182zm.538-1.438c-.204-.934-.455.81 0 .095zm-4.656 3.378c-.43-.797-.863-.714.056-.805-.218-.412-2.018-.767-.923.015.361.203 1.38 1.85.891.834zm-.87-.363c-1.139-1.18-1.97-2.685-3.187-3.763-1.276-.336-2.704-.118-4.04-.237-.79.48 1.25.143 1.621.234 1.043.014 2.332-.291 2.956.8.984 1.06 1.786 2.368 2.903 3.254.089-.01-.24-.242-.253-.288zm-4.217-.814c.801-.668-.458-.797.17-1.445.548-.482 1.58.945 1.24-.15-.24-1.312-1.805-.899-2.772-.992-.622.018-2.525-.311-1.354.621.844.952 1.813 1.9 2.452 2.967.064-.341.121-.68.264-1zm5.123-.058c-1.511-.643.618.225-.126-.443-.604-.8-.97.704-.011.483.069.01.323.12.137-.04zm.294-.816c-.166-.483-.282-2.432-.559-1.063-.612.595.36 1.61.56 1.063zm.468-2.233c-.063-.389.697-2.371.116-1.535-.868.848-.76 2.084-.47 3.154.223-.507.224-1.085.354-1.62zm2.507-2.073c1.02-.567.84-.684.323-1.486.04-.87-.925.666-1.12.915-.257.726-.373 1.898.504.808.098-.076.192-.169.293-.237zm-13.497-.604c.952-.205 2.216-.252 2.825-1.062-.013-.58-1.688.77-.616-.063 1.226-.866-1.024.256-.144-.258.514-.356.053-.414-.188-.373-.13.06.148-.289-.214-.176.184-.272-1.271.27-1.726.102-2.601.11-5.252.03-7.755-.752-.458.734 1.713 1.232.416.935-.94-.454-.296.518.226.652.621.625-1.168-.79-1.046.136.227.589 1.382.608 2.015.813 2.043.287 4.177.343 6.207.046zm-5.534-.462c-.739-.363 1.67-.085.521.04-.175-.01-.35 0-.52-.04zm-.116-.467c.868-.392 1.292.29 0 .103zm.086-.356c.047-.503 1.764.16.23.029.012.182-.238-.125-.23-.03zm12.492.034c1.816-.595 2.025-2.881 1.779-4.51-.61-3.808-.676-7.672-1.09-11.5-.218-1.167-.426-2.503-1.421-3.271-1.016-.1-1.62.87-2.202 1.55.235-.94 1.06-1.645 2.013-1.771-.948-.574-1.88-1.225-2.941-1.564a49.486 49.486 0 0 1-2.425 4.353c-1.047.287-1.44-1.142-1.962-1.826-.57.196-1.011 1.938-1.441.925-.54-1.43-1.783-2.79-1.273-4.403.88-.75.24-.771-.424-.147-1.149 1.33-1.551 3.098-1.96 4.766.442.354 1.069-1.163 1.664-1.502.564-1.004 1.276.017 1.372.725.356 1.252-.533-.101-.748-.555-.571.17-1.227 1.16-1.831 1.643-.974.76-.814-.748-.488-1.311.123-.717.515-1.47.613-2.125-1.573.33-2.72 1.57-3.203 3.064-.404.808.601 1.523.607 2.345.25-.88.18-1.838.571-2.687-.068 1.107-.066 2.247-.347 3.32.593.692-.037 1.47-.427 2.056.173.498 1.53-.024 2.138.202 1.05.314 1.159 1.795 1.907 2.395.872.241.349-1.264.646-1.795.189-.95.36-1.903.41-2.872.115 1.592-.44 3.126-.493 4.708 1.052-.03 1.854.613 2.692 1.141.855-.053 1.782.26 2.587-.05.11-1.01.246-2.137.133-3.101-1.094-.03-2.202.066-3.265-.251-.319.904-.276 1.976-.105 2.917-.393-.463-.25-.706-.227-1.698 0-.701-.023-1.81.977-1.288.93.281 2.054-.132 2.898.254-.174 1.043-.075 2.214-.378 3.181-.61.621-1.637.112-2.425.251.14.32 1.216.894 1.686 1.301.685.272 1.273 1.39 2.027 1.053.764.061 1.303.513.881-.564.024-2.057-.875-4.013-.571-6.078.026-.69.335-1.535.329-2.094.098-.193.066-1.251.46-1.81.252.189.043 1.44-.238 1.803.478.52-.232 1.292-.156 1.553-.012.158-.126 1.19-.124 1.85.067.642.238 2.156.288.69-.1-.382.446-2.033.354-1.416-.169 1.926-.254 3.88.082 5.793a3.513 3.513 0 0 1 2.637-.117c-1.195-.237-1.236-.048.015.027.236.17.412.064 1.122.663-.714-.229-1.717-.753-2.628-.524-1.104.055-1.221.767 0 .483 1.314-.191 2.764.635 3.224 1.88-.138.548-.889-.969-1.421-1.085-.751-.418-1.673-.665-2.515-.434 1.565.412 3.308 1.346 3.618 3.073.053 1.235-.441-.584-.49-.636-.63-.42-.42.111-.479-.399-.064-.14-.776-.944-1.32-1.198.35.349 1.244 1.412.279.438-.58-.76-1.441-.778-.404.036.686 1.151-.055.26-.569-.286-.58-.7-1.445-1.057-2.281-1.357 1.153.903 1.16 3.008.063 3.957-.605.584-1.563-1.154-1.367-.563.769 1.344 2.369 2.002 3.78 2.457.575.095 1.247.172 1.79-.065zm-6.698-11.065c.833-.446 1.274.024.114.05.045-.069-.297.107-.114-.05zm-3.74-4.122c.048-.888.478-1.725.6-2.613.042.99-.42 1.926-.59 2.894-.09-.01.097-.29-.01-.28zm.423-.112c-.504-.835 1.014-.595.259.083-.09-.018-.218.053-.26-.083zm.296-.192c-.01-1.109-.603.719 0 0zm20.679 14.463c-.769-.603-.348-1.664-.24-2.413-.436.913-.473 2.267.548 2.763-.094-.11-.234-.249-.308-.35zm-.576-.01c-.471-.818-.11-1.836.268-2.64-.606.797-1.01 2.223-.145 2.928.207.06-.132-.234-.123-.288zm-19.33.098c.66-1.014.106-.31.212.051.281-.64 1.243-1.59.469-.447-.828.793.522.304.786-.121.719-1.236.345-.116-.268.337-.416.558.812-.17.963.144.445 0 1.993-.352 1.214-.692-.195-.27-.466-1.37-1.109-1.666-.827-.601-1.466-1.556-2.323-2.033-.994-.11-1.873-.104-1.509 1.144-.032 1.126-.01 2.274.414 3.335.679.203-.242-1.525.108-1.414.274.49.232 2.008 1.042 1.362zm20.521-.138c-.598-.842-.174-1.983-.097-2.855-.36.974-.623 2.38.263 3.114l-.166-.258zm-21.95.173c-.47-1.421-.158-2.976-.287-4.455-.68.014-1.894-1.4-1.79-.104-.175 1.483-.304 3.068.433 4.43.541.026 1.132.15 1.645.129zm-2.052-2.96c-.59-.854 1.095-.839.48-.032-.083.159-.39.176-.48.032zm.387-.348c-.224-.768-.54.685-.01.047zm24.413 3.136c-.421-1.256-.589-.668.038.159.226.134-.01-.095-.038-.16zm1.142-.218c-1.04-1.198-.503-2.952-.725-4.402-.06-1.536.043-3.51-1.332-4.493 1.7 1.793 1.119 4.479 1.265 6.722.077.867.07 2.121 1.032 2.442-.077-.089-.17-.186-.24-.27zm.691.095c-.706-.948-.631-.347.128.17.367.062-.095-.132-.127-.17zm-26.544-.015c-.593-1.61-.24-3.341-.238-5.013-.803-.231-1.279-.936-1.914-1.374-.205-.566-.242-.73-.568-1.275.319-.409-.66-1.088-.824-1.693-.53-1.123-.953-.965-.62.217.147 1.488.772 2.87 1.064 4.33-.011-.423.196-2.442.214-1.501-.062 1.845-.331 3.917.651 5.556.397.577 1.598.995.868.001-.322-1.204-.127-.74.259.145.615 1.155.044-.151-.065-.643-.172-1.248.082-.874.245.162.42 1.196.468.934.34.401.08.146.583 1.159.587.687zm-6.049-1.045c1.287-.674 1.894-2.115 2.443-3.388-.411-2.091-1.177-4.233-.878-6.372.114-.792 1.39-.712 1.18-1.541.611-.426.109-.912-.565-1.046-.084-1.102-1-.877-.885.147.204.516-.938 1.98.07 1.423.113.415.086-.083-.46.824-.342 1.164-.685 2.328-1.03 3.492-.475.555.39.747 1.097 1.175.474.371 1.168.984.966 1.639-.386-.844-1.122-1.67-2.07-1.822.37.877 1.387 1.43 1.491 2.476.312.437-.062 2.047-.14.782-.087-.884-.528-1.92-1.198-2.411.58 1.24 1.094 2.984-.144 4.017-.041-.627.606-1.544.317-2.37-.046-.994-.478-.877-.518-1.82-.304-1.263-1.07-2.371-1.298-3.65-.498-.858.253.836-.057 1.24-.249.956-1.377 1.723-2.274 1.184-.506-.525-.66-1.392-.364-2.059-.999.829-.08 2.83 1.243 2.71 1.16.133-1.272.333-1.192.07.652.674 1.21.97.088.25-.1.593 1.833 1.361.962 1.205-1.132-.877-.353.27-.479.396.124.46 1.115 2.096.271 1.016-.452-.562-.484-1.712-.827-2.06.375 1.788.875 3.988 2.726 4.783.515-.062 1.117.077 1.525-.29zm.914-5.91c-1.029-.912.448.104.446.46l-.446-.46zm12.966 5.835c.18.408.837-.883.64-1.364.266-1.087-.606-1.799-1.46-2.254-1.682-1.084-3.059-2.64-4.888-3.48-.978-.21-1.765.084-.337.272.287.43-1.345-.215-1.778-.273-.767-.072-1.91-.858-2.446-.076 1.177.374 2.713.645 3.907 1.245.91.537-1.088-.164-1.514-.315-.709-.116-1.59-.745-2.222-.443-.463.658 1.223.488 1.648.831.509.27 2.06.447 1.903.822-1.117-.103-2.22-1.032-3.329-.74-.115.475 1.364.541 1.867.833.53.123 2.247.661.864.533-.77-.171-1.607-.67-2.332-.68.906.801 2.14 1.102 3.17 1.728.861.029 1.869-.37 2.474.455 1.155 1.001 2.282 2.23 3.638 2.858.104.047 0 .296.195.048zm-7.141-3.853c.07-.219 1.701.138.137.064l-.13-.06zm21.36-.496c-1.437-.38-3.255-.922-3.625-2.575.039 1.842 2.169 2.363 3.629 2.645.352 0 .33.015 0-.07zm-.551-.483c-1.102-.54-2.08-1.402-2.652-2.506.37 1.298 1.669 2.395 2.997 2.65-.114-.05-.236-.09-.345-.144zm.756-.188c-.742-.27-1.283-1.17-1.775-1.53.377.828 1.143 1.535 2.051 1.658-.078-.05-.205-.074-.276-.128zm-5.624-.767c.29-1.148.25-1.414-.124-.14-.045.402.206.868.124.14zm5.624.056c-.403-.33-1.563-1.691-.696-.474.039.18 1.252.981.696.474zm1.42-.208c.128-.842-.258-1.888-.987-2.33.792.652.962 1.8.903 2.652.09-.073.027-.23.083-.322zm-7.217-.953c-.015-.566 1.604-1.349 1.127-1.236-.81.368-1.463 1.178-1.426 2.098.095-.288.15-.6.299-.862zm-25.518.675c.52.038.98-.954.861-1.555.26-.841-.55-1.338-.42-2.153-.567-1.165.874-.7.865-1.5-.392-.675-1.092.927-1.74.603-1.066-.274-1.353.067-.898 1.082.424 1.118.173 2.488.778 3.488.092.127.523.153.554.035zm33.182-.495c.02-.477-1.293-1.93-.675-1.071.267.09.902 2.027.675 1.071zm-23.881-.869c-.108-.431-1.269-2.075-.875-1.077.162.293 1.178 1.852.957 1.239-.072-.024-.042-.117-.082-.162zm20.025-.736c-.975.27-1.358.862-.15.136-.047-.06.31-.058.15-.136zm-21.885.404c-.44-.824-1.299.187-.162.054-.033-.105.234.09.162-.053zm-18.911-1.599c-.564-1.709-.819-3.558-.454-5.336-.641 1.978-.099 4.289.661 6.081 0-.223-.153-.507-.207-.745zm19.532.31c-.293-.677-1.39-.137-2.016-.306-1.464-.135-.72.615.34.345.542-.025 1.203.052 1.676-.04zm-2.748-.685c.917-.42-.284-.545-.52.127.165-.077.34-.106.52-.127zm-4.807-1.526c.818-.588-1.223-.057-1.604-.16-.655.11-1.685-.676-.92.325.776.06 1.734.273 2.425-.079l.097-.076zm-1.787-.273c-.092-.248-1.317-.779.074-.718 1.313-.638-.31-.347-.361-.356.51-.58 1.737-.027.66.355-1.383.475.015.091.77.17 1.189.316 1.276-.46 1.156-1.444.242-.947-.277-1.634-.963-2.225-.531-.227-.763 1.607-.878 1.02-.37-.305.64-.536.759-1.366-.419-.559-.817-1.237-1.167-.167-.333.92.413.64-.396.652-.396.34-.766 1.55-.099 1.568.896-.203.708 1.787.567.718-.091-.695-1.515-.699-1.246.194-.166.691.392 1.711 1.126 1.595zm1.504-.83c-.436-.712 1.27.019 0 0zm-2.178-.416c-.364-.537 1.14-1.141.275-.35-.206.05-.017.505-.275.35zm1.072-1.206c.01-.074.525-.292.32-.406.482.047-.133-.356.562-.442-.24.043-.429 1.166-.882.848zm1.058-.303c-.225-.735.752.244.016.016zm-1.942-.062c.27-1.009.079.161.279.062-.095-.018-.313.152-.28-.062zm-6.448 2.27c1.073-.46 1.6-2.081 1.483-2.97-.22 1.17-.63 2.521-1.812 3.048.04.105.247-.076.329-.078zm14.002-.07c-.151-.481-.39-2.195-.764-1.77-.62.627.192.94.379 1.55.047.132.374.562.385.22zm-18.373-1.08a4.69 4.69 0 0 1 .658-3.026c-.913 1.032-.936 2.733-.622 3.938-.01-.3-.04-.626-.036-.913zm7.124.12c.285-.545.587-1.5.19-1.964.063 1.01-.043 2.115-.897 2.79.27-.256.58-.466.707-.826zm-3.166.385c.586-.024 1.383-1.893.666-.912.01.257-1.6 1.404-.666.912zm2.457-.587c.372-.282.267-2.387.137-1.165-.01.728-.28 1.424-.823 1.917.295-.212.578-.378.686-.752zm-2.856.373c.611-.13 1.5-1.828 1.11-1.502-.343.818-1.02 1.444-1.83 1.782.27-.035.52-.1.72-.28zm-1.57-.69c-.352-.89-.273-1.99.179-2.85-.44.384-.627 1.518-.499 2.23-.141.4.792 1.56.32.62zm.356.08c-.321-1.068-.583-1.016-.105 0 .202.366.407.551.105 0zm-1.07-.226c-.404-.925-.145-1.993.438-2.78-.878.755-.979 2.251-.355 3.134.16.041-.102-.29-.083-.354zm8.01-1.221c-.216-.762-.75-1.572-1.479-1.869.85.648 1.47 1.647 1.56 2.722.094-.3.029-.57-.081-.853zm18.462-.233c.66-1.523 1.938-2.844 2.201-4.491-.39-.862-.772-2.29-2.02-2.036-.732.426 1.262.236.78.949-.878 1.378-1.929 2.768-3.26 3.71.734.747 1.088 1.91 1.84 2.577.233-.024.304-.535.46-.71zm-14.128-.854c.156-1.161-.125-1.387-.665-.284-.537.8.212.726.558 1.427.254.288.047-1.03.107-1.143zm11.462.139c.926-.921-.403-.723-.588.079-.242 1.013.222.485.588-.08zm-13.383-1.091c.574.046.967 1.595 1.35.36.631-.617.628-1.352.57-2.197.01-.722.248-2.05-.91-1.784-.604-.074-2.61.085-.992.138.575.134 1.572-.33 1.834.33-1.002.06-2.064-.088-3.032.092v4.85c.4-.59.757-1.22 1.18-1.79zm-.192-.906c.064-.75-.692-.544.39-.691 1.43.16-.817-.594.293-.538.7.498.583.94-.124.64-1.155-.154-.098 1.44.242.186.032.412-.558.9-.8.403zm5.452 31.96c.078-1.366.087-2.74.397-4.082.29.388-.184 1.544-.157 2.234l-.087 2.314c-.365.101-.097-.284-.153-.465zm4.559.31c-.12-1.292-.075-2.608-.133-3.91.52.357.085 1.669.229 2.402-.076.19.29 2.165-.096 1.509zm19.171-13.288c-1.682.073-2.673-1.662-2.83-3.139.55-.635.614-1.42.56-2.159.96.073.318 1.468.293 1.214.23-.084-1.04.681-.6 1.38.244 1.15 1.109 2.494 2.473 2.196.944-.462 1.204.92.12.517h-.026zm-1.797-4.575c-.183-1.277-.614.851 0 0zm-.084 2.56c-.853-.728 1.102.105.985-.47.276.384-.826 1.182-.985.47zm4.577-.846c.486-.772.022-.513.175-.922.65-.875 1.149.632.248.904-.028.076-.425.11-.423.018zm.726-.537c-.149-.929-.19-.069-.213.262.147 0 .137-.18.213-.262zm-5.635.266c-.609-.569 1.774-.024.256.118-.094.02-.203-.065-.256-.118zm1.671-.81c.626-.026-.696-.377.417-.053-.236.25-1.227.113-.417.053zm-.345-.667c.174-1.078.155 1.034 0 0zm.749.244c-1.425-.278.591-.176 0 0zm.131-.84c-1.167-.344-.839-.739.077-.047.434.335.295.37-.077.047zm-33.583-4.497c-.885-.015-.439-.492-.129-.486-.039.938 1.74-.212.653.618-.198.01-.372.02-.524-.132zm-3.977-1.315c-.424-.308-.333-1.714.334-1.345.444.52-.211 1.03.435 1.208-.4.012-.308-.14-.458.166.38.217-.315.273-.31-.029zm.118-.704c.443.05 0-1.111-.16-.025-.025.464.149.888.16.025zm3.66-.01c-1.196-.665 1.437.446 0 0zm-.377-1.208c.521-.59 2.062.07.649-.109-.257.117-1.567.537-.65.11zm15.04-8.95c-1.299-.558-2.554-1.731-2.776-3.162-.419-.493-.952-.976-1.033-1.666-.736-.339.206-.823.56-1.15.578-.105.367-1.863-.477-1.323-1.363-.03-1.492-1.905-.495-2.562.878-.446.943-1.625 1.79-2.167 1.131-.848 2.331-1.839 3.846-1.62 2.234-1.438 5.768-.367 6.506 2.292.313.83.285 1.71.224 2.581 1.327-.712 2.454 1.486 1.364 2.372-1.094.177.242.658-.107 1.47-.178 1.521-2.132 1.888-3.333 1.422.095-.613-.538-.413-.63.276-.228 1.07-1.002 2.058-1.928 2.567-.469.2-1.03.768-1.663.747-.611-.033-1.275.18-1.848-.077zm2.46-.459c1.625-.525 2.778-2.038 2.95-3.723.085-.914 1.183.072 1.399-.894.435-.603.882-1.91-.152-2.12-1.036-.158-.515 1.075-1.237 1.356-1.012.194 1.024-.681-.458-.179 0-.314 1.035-.884-.296-.099-.552.393-1.406.698-1.707 1.103-.325.447-.033 1.402-.7 1.809-1.071.677-2.485-.112-2.75-1.3-.697-.757-.46.984-1.067 1.202-1.138.106-1.098.325-.508 1.324.926 1.025 2.107 2.136 3.611 1.791.332.038.615-.182.916-.27zm-2.484-.92c-.89-.595-1.053-.91.108-.578.739.217 1.473-.282 1.967-.53-.16.45-1.018 1.334-1.78 1.16-.098-.024-.212.03-.295-.053zm.962-.292c.985-.292-1.509-.11-.871.071.272.131.627.071.871-.07zm-2.016-1.242c-.3-.795.227-.274.462-.101.636-.134-.288.578-.462.101zm.76-.19c-.351-.754 1.108.349 0 0zm6.086-2.178c.133-.13 1.211-.485.422.098-.103-.057-.487.118-.422-.098zm.9-.277c.196-.843-.585-.571-.569-.313-.671-.22.95-1.04.703-.026.155.136-.392.875-.135.339zm.34-.733c-.172-.768-1.74-.154-.32-.623.52-.085.563 1.453.32.623zm-4.954 2.92c.645-.143.772-2.026.153-1.254.423.935-1.6.9-.514.676.706-1.101.01-.327-.634-.65.274-.41-.58-1.344.383-.955.191.548 1.549.492.595.057-.682-.405-1.984-.446-2.197.512.654.897.441 1.647 0 .27-.374-.16.3 1.22.824 1.343.428.214.973.265 1.388 0zm-3.82-.142c.57-.162.467-1.9.066-1.125-.803.73-.638-.935-.819-.61.432-.946 1.024.322 1.492.149.855.241.869-1.06 1.811-.87.78-.28 1.378.48 1.993.537.812-.492 1.655-.929 2.498-1.364-.956.167-1.827-.303-2.455-1-1.574.054-3.216-1.326-3.282-2.879.126-.233.353 1.219.866 1.44.769.856 1.98 1.267 3.116 1.14-1.726-.19-3.414-1.34-3.948-3.035-.462 1.06-1.34 1.873-2.341 2.424-.113.717-.107 1.492.122 2.165.21-.545 2.03-.199 1.137.118-.765-.4-1.755.476-.483.341.781.327 1.032 1.077.105.306-1.17-.517-.714.897-.793 1.604-.183.755.325.98.914.66zm3.71-2.84c-.375-.156-1.888.099-1.476-.414.515-.134 2.013.097 1.769.472a.417.417 0 0 1-.293-.059zm-4.823 1.653c.256-.797-.25-1.58-.723-.596.57-.01-.383.935.507 1.47.438.822.119-.797.216-.874zm11.18-.086c.744-.26-.209-1.925.19-.914.402.4-.894 1.48-.19.914zm-10.203-.121c.101-.404-1.053.453 0 0zm10.5-1.936c.092-.743-.597.445-.01.02zm.726-.319c.301-.701-.523-1.786-1.215-1.225 1.001-.274 1.418.997.958 1.723.125-.154.268-.28.257-.498zm-5.347-.148c-1.043-.509-1.12-.298-.036.077.365.1.656.073.036-.077zm4.987-.205c-.227-.9-1.605-.328-.269-.354.177.024.337 1.108.269.354zm-3.176-.112c-2.038-1.183-3.736-2.882-5.596-4.32.04.448 1.178 1.153 1.657 1.678 1.376.993 2.653 2.335 4.297 2.814-.115-.058-.257-.106-.358-.172zm.876-.138c-1.336-.657-2.516-1.814-3.307-3.077.382.248 1.068 1.04 1.616 1.426.685.495 1.593 1.226 2.104 1.633-1.312-1.484-3.063-2.616-4.426-4.102-.233-.516-2.35-1.015-1.141-.535 1.987 1.17 2.685 3.778 4.948 4.593 0-.02.229.162.206.062zm-10.065-.136c.923-.598-1.206.61-.821-.658.283-1.215 1.762-1.53 2.63-2.264 1.007-.483.95-.718-.088-.172-1.119.65-2.953 1.253-2.71 2.866.256.304.632.468.99.228zm10.722-.79c-.668-.77-.033-.026-.544-.869-1.029-1.526-2.402-3.046-4.272-3.444-1.122-.063.862.237 1.154.602 1.22.886 2.443 1.882 3.228 3.189-1.339-1.314-2.644-2.872-4.426-3.548-1.265-.347.054.094.57.363 1.46 1.011 2.762 2.354 4.05 3.522 0 .25.698.948.24.184zm-3.964.243c-1.296-.575-2.513-1.569-3.249-2.81.132 1.009 1.22 1.836 2.098 2.366.338.168.848.4 1.15.444zm-6.098-.61c.604-.207 1.6-1.275 1.605-1.434-.653.688-1.476 1.173-2.225 1.747.219-.077.412-.21.62-.313zm10.197-.73c-.349-1.28-1.377-2.248-2.395-3.006-.567-.315-1.45-.512-1.953-.468 2.182.26 4.007 2.147 4.473 4.256.149-.279-.053-.514-.125-.782zm-9.18-1.84c.758-.349 1.936-.465.466-.324-.891.179-1.726.843-2.068 1.669.525-.465.91-1.123 1.603-1.345zm8.598.32c-.544-.638-.82-1.182-1.554-1.611.593.526 1.084 1.191 1.624 1.738l-.07-.125zm.436-.437c-.98-1.746-3.17-2.472-5.044-1.882-1.266.548-.405.214.422.044 1.788-.411 3.597.546 4.672 1.915zm-6.99-.922c-.51-.152-1.953.18-.507.044.165-.026.349.01.506-.044zm.35-.337c-.763-.362-1.282.072-.104.012.025-.015.135.074.104-.012z" style="fill:#1d1d2f;stroke-width:1" transform="translate(1814.304 -1441.81)"/></svg>