<svg xmlns="http://www.w3.org/2000/svg" width="200" height="200.054" viewBox="0 0 52.917 52.931"><path d="M-1875.594 1505.877c-4.398 0-8.953 2.407-10.914 6.424-.681 2.442 1.514 4.782-.28 7.058-1.296 2.748-.556 6.035 1.431 8.237 1.01 1.367 2.61 2.219 3.852 3.166-.852 1.503-2.259 2.734-2.468 4.61-.568 1.919-.942 3.888-1.479 5.816-1.482-.034-1.833-2.938-3.847-2.036-1.913-.648-5.339.547-2.905 2.664.494 1.141.466 2.079 1.875 1.595 1.69-.069-.587 1.63-1.12.62-.358 2.464 1.967 4.123 2.492 6.345.552 2.21 2.507 3.539 4.633 3.488.029.89-.88 1.935.694 1.534 4.85.01 9.701-.046 14.55.047 1.734-1.742 4.658-.2 6.402-2.023 2.217-1.702 2.721-4.75 2.26-7.361a48.052 48.052 0 0 0-2.861-12.782c-1.58-1.337-3.175-2.831-1.853-4.981.633-2.444.63-5.097-.497-7.4-1.171-3.857-.989-8.303-3.792-11.506-1.379-2.126-3.574-3.59-6.173-3.515zm-1.845.59c-.849.922-3.108.9-4.072 2.29-1.941 1.38-4.248 2.925-4.53 5.513-.882-.976.646-3.525 1.864-4.557 1.83-1.692 4.229-3.024 6.738-3.245zm-6.243 8.4c-1.659 2.206-2.142 4.993-3.318 7.44.368-2.708 1.196-5.572 3.318-7.44zm1.966 2.987c1.507 1.848 3.612 2.522 5.847 1.737 2.59-.756 2.695 2.338 2.91 3.995 1.632 1.633.483 4.49-1.706 4.805-1.907.452-4.12-.278-5.319-1.817-.822-1.926-2.036-3.625-2.393-5.693-.24-.977-.556-2.56.661-3.027zm2.1 9.169c.228.522.072-.153 0 0zm.642.49.073.038zm-2.147-8.558c-.19.215.094.115 0 0zm3.377.885-.055.015zm-.651.159-.022.01zm5.235 1.73-.021.12zm-3.489 1.217c-.257.726.699.422 0 0zm-4.677.276.029.192zm3.518.293.022.025zm-3.45 0 .014.103zm-.02.032.026.076zm.05.122.028.07zm.106.56.035.121zm.566.797.022.22zm5.448.5.05.036zm.407.62-.06.04zm-5.085.656.066.072zm3.894.33.049.01zm-3.003.412.158.073zm-3.198 4.655c.613 1.186-.372 4.287-.157 4.309.136-.933-.353-4.066-.446-1.603-.263 1.018-1.269 3.865-1.06 5.783.854 1.695-2.546 2.798-1.333.453 1.106-2.944 1.101-6.315 2.996-8.942zm1.627 6.555c.397 1.197-.323 3.612-.43 3.948.04-1.314-.185-2.73.43-3.948zm-9.545 1.812c1.573 1-1.646.493 0 0zm.272 3.141c-.082.136.12.13 0 0zm-.014.015v.028zm6.29.028c1.668.554 3.242 1.49 4.8 2.267 1.75 1.37-.584 4.001-2.38 3.541-2.062.403-4.564.164-5.878-1.668.885 1.542-2.925 1.201-3.08-.547-1.128-.732-1.48-3.767.338-2.407.864-.402 2.385-.098 1.672.787 1.94-.136 3.99.392 5.868.027-.52-.388-2.758-1.83-1.34-2zm-5.327 4.939.063-.011zm1.93-.601-.043-.016zm6.655-2.86-.038-.01zm-2.094-1.073-.078-.01zm-.2-.054-.035-.01zm-.254-.034.1.064zm-.258.01c-.213-.024.023.317 0 0zm1.005.207h.01zm.183.086.086.066zm-1.139.022.03.043zm-7.556.47.012.055zm.403 0h.01zm9.394.156.099.012zm-9.512.523.032.12zm8.965.071.06.036zm-.707.036.116.207zm.062.257-.01-.01zm-3.124-.02.065.01zm1.205.052.049.027zm-4.932.045c-.47-.048-.073.55 0 0zm.222.628c.82.726 1.252.258 0 0zm3.965.241-.084.01zm.787.348-.31.041zm4.636.036h.055zm-6.271.26v.06zm-1.46.371c.172.173.558-.212 0 0zm8.378.094-.01.032zm-9.505.098c-.168.011.045.09 0 0zm9.47.055-.012.05zm-9.524.186h.01zm1.666.154.036.07zm1.141.716.031.032zm5.714.218-.09.013zm-1.495.138h.015zm-2.984.026.064.01zm.01.01h-.01z" style="fill:#cbd4dc;stroke-width:1" transform="translate(1902.606 -1502.478)"/><path d="M-1884.827 1555.343c1.25-.946.562-1.907-.788-1.607-3.068-.41-3.044-3.776-4.36-5.64-1.65-1.71-1.494-4.187-2.022-6.226-1.861-.755-1.297-3.56.826-2.656 2.15-.418 4.705-.03 5.266 2.46.91-.538.91-3.103 1.422-4.41.545-1.905.88-4.083 2.294-5.555 2.515-1.261-1.414-1.674-2.014-2.934-2.401-2.013-4.01-5.343-2.891-8.458.534-2.033 1.995-3.679.478-5.527-.602-2.968 1.808-5.447 4.144-6.851 3.237-2.092 7.906-3.07 11.224-.647 1.478 1.487 2.777 3.229 3.652 5.141 1.123 3.028 1.114 6.342 2.284 9.364.898 2.11.831 4.351.076 6.473.41 1.327-1.647 2.413.304 3.314 2.114 1.319 2.375 4.074 3.15 6.243.79 3.62 1.605 7.322 1.439 11.046-.061 2.858-2.344 5.482-5.262 5.634-1.063.266-2.801-.392-2.972.63-.79-1.265-2.77-1.1-4.04-1.235.482.844 1.276 2.002.171.571-.402-1.151-1.72-1.337-.685-.043 1.398 2.003-.738-.123-.984-1.034-1.02-.831 1.556 3.088.054 1.423-.474-2.093-2.568-3.264-4.448-3.82-.709-.903-1.863-1.8-2.036.039-.497 1.337.448-2.609-.465-.432-.624 1.527-1.34 3.907-2.676 4.518 1.08-1.236 2.728-4.195 2.315-4.879-.563 1.991-1.839 3.782-3.294 5.159l-.162-.06zm19.118-1.19c3.273-.079 5.504-3.56 5.031-6.633-.234-4.438-1.06-8.883-2.56-13.066-.649-1.794-3.155-5.01-4.822-2.46-1.597 1.85-1.882 4.434-1.875 6.778-.96 2.256-.515-1.704-.322-2.436-.074-1.219 1.273-3.707 1.23-3.824-1.826 1.013-5.013 1.492-4.16 4.389-.084 1.491.513 4.465.045 5.031-.98-2.233.017-4.843-.537-7.12-1.01-.293-1.473.624-.263-.3.954-1.28-2.64.414-2.739 1.4-.855 1.762-.132 3.751-.456 5.623a83.238 83.238 0 0 1-.466 5.03c1.54.702 3.322-.246 4.856.72 1.707.625 5.246.972 4.22-1.913-.175-2.94-.523-6.185 1.364-8.7.289-.758 2.992-3.322 1.37-1.379-1.26 1.478-2.385 3.294-2.465 5.28.511-.283 1.889-3.894 2.546-3.918-1.271 2.303-2.847 4.69-2.723 7.433 1.092-1.976 1.246-4.417 2.718-6.196-.785 2.162-1.902 4.244-2.31 6.521.388 1.436 1.338-1.825 2.548-1.875.907-.54 2.895-.78.827-.192-1.199.697-3.65 2.646-3.042 3.825 1.124-.711 3.06-.549 3.666.229-1.034-.696-4.395-.607-3.606 1.036 1.678-.658 4.796 1.052 5.107 1.444-1.34-.471-4.167-2.045-4.873-.795.729.669 2.635 1.92 2.524 2.357-.941-.343-2.659-2.575-2.988-2.126.772.59 3.526 3.728 1.444 1.86-.503-.781-2.547-2.834-2.677-1.937.651.854 1.522 2.853.38.789-.761-1.251-1.186-.99-.282.143.47.801 1.125 1.925.865 2.04.417.868 1.938 3.057.418 1.132-1.134-1.556-1.458-4.955-4.061-4.44-.749 1.37-.433 3.3-1.858 4.543 1.1 1.721 4.56 1.512 6.634 1.756.431 0 .863-.017 1.292-.05zm1.432-3.974c-.725-.616-3.78-2.91-1.46-1.482.281.115 2.23 1.816 1.46 1.482zm-3.531-5.794c-.11-1.051 2.834-3.142.998-1.335-.368.417-.717.855-.998 1.336zm-8.294-1.783c-.033-2.279.044-4.613.491-6.831-.699-.073-.959-.083-.054-.17.282 2.022-.522 4.123-.068 6.172.01.272.074.855-.369.829zm-7.303 10.743c1.331-.963 2.442-4.018-.263-3.5-1.937-1.297-2.766 2.06-4.724.52-.46 1.496 2.345 3.384 4.109 3.186.305-.044.706.149.878-.206zm-.288-1.924c-.786-.407-1.711-1.85-.442-.556.12.089 1.263 1.113.442.556zm-3.812-.121c-1.92-.841 2.312.257 1.207-.014a1.885 1.885 0 0 1-1.207.014zm13.333 1.195c1.412-1.003 2.637-3.847 1.073-5.062-1.052.333.167 2.373-.928 3.324-.411.966-2.613 1.998-.453 1.413.888-.51 1.972-2.917 1.093-.782-.062.325-2.22 1.676-.785 1.107zm-1.037-.795c2.18-.865 1.994-5.928-.785-4.32-.74.683-1.257 2.992-1.12 3.16.307-.942 1.149-3.217 1.577-3.124-.777 1.32-2.241 3.582-.45 4.245-.15.34.702.161.778.038zm-2.677-2.03c.672-.872 1.03-3.625.014-1.26-.289.797-1.033 2.69-.476.802.544-.733 1.086-3.277.077-1.268-.843.735-.602 3.784.317 1.917l.04-.112zm-8.568.46c1.67-1.063-.634-1.328-1.2-.319-.838-.526-1.586-.834-.653.271.536.381 1.295.377 1.853.048zm5.626-.597c1.97.75 3.902-3.138 1.506-3.683-.988-.677-4.034-2.435-4.24-1.344.588.548 2.661 1.756.564 1.512-1.547.455-4.441-.73-5.162.529 1.03.999 2.97-.134 3.803.788-.736-.185-3.904-.3-1.86.703.695-.18 3.078.518 1.082.324-2.676-.1 1.973 1.833 2.931 1.313.461-.016.921-.072 1.376-.142zm-6.164-.258c1.34-.983-3.19-.14-.73.185.252 0 .507-.063.73-.185zm.042-.702c.563-.698-1.616-.27-.149-.725-.955-.258-3.032-.057-.88-.37 1.277-.238-1.183-.48-.836-1.175-1.13.059-1.91-.202-.355-.487 1.166-.055 2.041-1.302.35-.846-.911.4-1.576.296-1.557-.427-1.67.348.289 3.506 1.516 4.007.606.255 1.295.215 1.911.022zm9.181-2.063c.44-3.532.505-7.095.554-10.649 1.045-1.27-2.09-2.08-1.114-.272-.49 1.96.388 4.366-.909 6.05-.228-2.562 1.457-6.005-.045-7.986-2.1-.527-.01 3.497-1.476 4.419-1.793-1.627 1.407-4.572-.567-6.342-2.09.907-2.076 3.662-2.769 5.539-.156 1.678-1.606 4.059-.957 5.275 1.31.1 3.932 1.95 2.878-.529-.491-1.17-1.614-3.51-1.31-4.058-.022.89 1.455 3.962.926 1.61-.318-.99-.697-2.994-.077-.875-.087-.815-.617-4.678-.05-2.568-.169-.819.292-4.247.301-1.688.146 3.31.496 6.608.88 9.898.79-1.8.242-3.85.677-5.718.164 1.841-.31 3.68-.156 5.508.492 1.32 2.311 1.312 3.214 2.386zm.22-5.483c-.02-2.423.299.609 0 0zm-11.152 4.76c1.312-.497 4.187.622 4.525-.494-1.481-1.513-1.803-5.095-4.38-4.707-1.415-.068-5.2-.356-2.977 1.717.684 1.234 2.665.73 1.742 2.29.623.06 3.25-.345 1.947.99-.167-.096-1.862.413-.857.204zm5.716-.297c-.627-1.024-1.88-1.756-.685-.21.1.199.534.594.685.21zm-7.334-1.412c1.922-.923-2.784-.703-.566.188l.187-.066zm8.063-.145c-.636-1.052-3.923-1.03-1.21-.423.246-.01 1.183.719 1.21.423zm-1.717-.244c-.724-.683-.978.323 0 0zm-7.471-3.8c-.772-.556-2.286.275-.628.155.135-.112.581.147.628-.154zm10.82-3.209c.065-1.063.4-3.836-.052-1.306-.173.636-.091 3.37.053 1.306zm4.897-2.014c.768-.441 3.312-1.595 2.33-2.194-.798.567-2.977 2.387-2.644 2.391zm-.972.118c.078-.94-2.18-2.604-1.31-.717.33 0 1.142 1.42 1.31.717zm.462-.464c-1.076-1.306-.657-4.138-.312-4.494-1.006.577-2.108.974-.582 0 2.866-.91-2.294-.333-1.336 1.476.087 1.04 1.777 3.095 2.23 3.015zm5.238-1.214c1.885-1.226 5.556-2.15 5.378-4.794-1.758.65-2.951 2.77-4.819 3.552-1.156.23-3.69 3.033-1.273 1.591.235-.123.471-.243.714-.349zm-4.368.499c2.066-.82-2.479-1.46-.765.17.177.415.648.11.765-.17zm-3.34-1.282c-1.77-1.88-.964 2.695.247.874.01-.274.085-.744-.246-.874zm6.872.118c2.487-1.634 2.029-5.124 1.155-7.537-1.79-4.758-4.944-9.615-10.04-11.206-1.038-.288-2.273-.299-.562.141 5.476 1.65 9.023 6.87 10.493 12.152.935 2.638-.575 5.068-1.953 6.94.352-.03.622-.312.907-.49zm-1.354-.452c1.111-.044 2.727-2.823.81-1.237-1.017.795-4.051.75-2.992-1.182-3.117.687-.18 4.87 1.798 2.664.13-.079.257-.163.384-.245zm-6.533-.478c-2.1-1.845-1.19 2.474 0 0zm1.02.165c-1.327-1.257 3.047-2.936.476-2.227-.597.377-1.403 1.818-.476 2.227zm10.409-1.629c1.624-1.423 3.978-3.135 3.27-5.623-.62-2.917-1.778-5.708-2.052-8.7-.461-3.253-2.239-6.202-4.659-8.377-2.635-1.752-6.204-1.242-8.96-.02-2.249 1.112-4.496 2.794-5.475 5.166-.555.955-.01 3.884.937 3.198-.967-1.93.28-3.807 2.417-3.783 1.467-.696 2.764-4.234 3.445-4.243-.771 1.296-3.705 4.052-.943 4.661.978.173 4.088 2.629 1.643 1.15-.594-.62-3.838-2.086-2.938-.46 2.117 1.069 4.57 1.542 6.117 3.547 2.665 2.709 4.536 6.195 5.54 9.843.707 1.514-.214 4.533-.268 5.015.654-.44 1.322-.865 1.926-1.374zm-4.169-20.658c-1.35-1.696-3.652-2.126-5.673-2.5 2.339-.375 5.366 1.398 6.154 2.894-.16-.125-.443-.148-.48-.394zm-7.017 21.494c1.717-2.313-2.21-1.08-3.235-2.335-2.309-1.43-4.504-4.143-3.765-7.026.188-.932.762-2.45.203-.504-.94 3.204 1.396 6.393 4.18 7.748-.49-.822-2.432-2.142-3.078-3.497-1.633-2.588-.429-5.804.843-8.275.283-.832 1.898-2.837 1.33-2.836-2.374 1.644-3.357 4.648-3.97 7.345-.643 3.444 1.891 6.493 4.592 8.268.84.462 2.072 1.23 2.9 1.112zm8.53-1.789c-1.068-.026.047 1.4 0 0zm-4.166-1.214c2.501-.479 2.993-3.31 1.667-5.096.258-1.957-1.458-3.69-3.289-2.236-2.04 1.311-4.899-.874-4.903-2.119-.65 1.349-.467 3.24 1.328 2.733-.732.127-2.03.396-.91 1.465.437.48 2.495.233 1.191 1.116-1.714-.86.092 2.58.903 2.922 1.102.847 2.573 1.975 4.013 1.215zm-2.389-1.397c.748.062 2.623-1.328 1.06 0-.322.179-.739.198-1.06 0zm-1.028-1.09c-.836-.812.68-2.318-.148-.536.492.767 2.076-.064.46.628l-.312-.092zm2.514-2.378c-1.551-.904 2.134-1.14 1.607-1.142-.228.639-.8 1.533-1.607 1.142zm-7.142 4.321c-1.137-2.287-.699-4.957-1.247-7.39-.167-.997.565-3.153.553-3.3-1.447 2.48-2.738 5.75-1.251 8.493.516.83 1.144 1.624 1.945 2.197zm5.31-6.922c-1.189-.147-2.294.11-.44.054zm3.8-.429c-.84-.274-1.554-.024 0 0zm-9.805-5.604c1.503-.628 2.296-3.212-.128-1.957-1.742.3-1.742 4.222.128 1.957z" style="fill:#565961;stroke-width:1" transform="translate(1902.606 -1502.478)"/><path d="M-1884.683 1555.17c.11-.372 1.284-1.316.723-1.313-2.028.104-4.238-.992-4.879-3.031-.24-.658-.258-1.388-.262-2.086-.702-.14-1.272-.8-1.168-1.532-.764-.157-.869-.918-.853-1.512-.65-.328-.16-1.053-.44-1.444-.67-.426.107-1.02.203-1.275-.63-.977-1.42-1.911-1.955-2.91-.167-.692.569-.916 1.116-.804 1.449.044 2.953-.269 4.365.06 1.259.335 1.431 1.805 2.131 2.718.636-1.88.963-3.912 1.564-5.829.51-1.777.885-3.882 2.546-4.96 1.174-.35.33-.483-.347-.838-2.442-1.405-4.536-3.66-5.335-6.398-.43-1.996.246-4.047.957-5.904.121-.61 1.022-1.304.482-1.841-1.332-1.56-.995-3.922.214-5.45 2.497-3.22 6.653-5.139 10.73-4.873 1.868.207 3.886.954 4.768 2.743a12.443 12.443 0 0 1 3.387 7.218c.347 2.843 1.34 5.535 2.049 8.293.163 1.146.207 2.441-.617 3.37-.183.57.526 1.33.022 1.938-.01.616-1.552 1.032-.601 1.374 2.083.997 3.002 3.26 3.608 5.348 1.094 3.868 1.819 7.869 1.99 11.888-.04 1.696-.545 3.42-1.72 4.679-1.235 1.386-3.157 1.749-4.935 1.77-.54.012-1.735-.453-1.423.495-.386 1.112-.06-.985-.819-.67-1.565-.206-3.168-.6-4.595-1.181.253.797.826 1.517 1.364 2.185-.72.077-1-.876-1.32-1.398-.087-.335-.802-1.666-.778-.85.223.818.694 1.545 1.123 2.248-.638-.205-.878-1.122-1.152-1.722-.132-.696-.447-1.094-1.18-1.105-.61-.185-.543-.987-1.217-1.044-.638-.413-1.366-.407-2.022-.732-.327-.54-.192-1.318-1.119-1.035-.256.325-.313 1.346-.677 1.615-.022-.44.772-1.7.01-1.54-.958-.135-.76.72-.956 1.371-.516 1.635-1.892 2.795-2.816 4.2-.287-.033-.436.128-.163-.235zm19.835-1.115c2.649-.528 4.44-3.304 4.169-5.932.105-3.125-.6-6.205-1.197-9.255-.618-2.343-1.096-4.905-2.77-6.752-.611-.506-1.272-1.06-2.043-1.248-1.73.984-2.737 2.85-3.008 4.78a40.743 40.743 0 0 0-.381 4.04c-.901.236-.3-.934-.37-1.44.2-2.118.46-4.353 1.82-6.082-1.413.923-2.97 1.593-4.516 2.261-.252 2.197.098 4.412.145 6.616.224.417-.076 1.782-.38.883-.12-2.466-.207-4.932-.147-7.4-.258.115-1.766.711-.975.277.494-.265 1.299-.373 1.083-1.105-1.068.56-2.173 1.188-3.213 1.717.97-.906 2.233-1.443 3.388-2.085.08-.468.82-1.71-.057-.898-1.228.832-2.445 1.864-3.37 2.956-.632 1.005-.255 2.325-.356 3.477-.058 2.59-.336 5.168-.555 7.747.625.259 1.255.85 1.726.118.647-.252 1.382.026 1.872.48.699-.485 1.328.22 1.971.358 1.208.135 2.478.173 3.651-.051.086-.854.07-1.834-.016-2.706-.66-.982-.358-2.21.032-3.24-.644-1.636.345-3.319 1.131-4.728.63-.947 1.287-1.952 2.281-2.553-1.507 1.564-2.822 3.468-3.314 5.606-.193.548-.02 1.954.217.703.66-1.436 1.315-2.925 2.383-4.114-1.254 2.28-2.75 4.628-2.863 7.298.151 1.09.43.488.482-.287.49-2 1.298-3.958 2.376-5.702-.939 2.253-2.015 4.483-2.446 6.904.282 1.16.401.206.763-.354.788-1.253 2.135-2.218 3.638-2.316-1.782.486-3.45 1.751-3.949 3.587-.718-.817-.389.894-.36.967.53-.97 1.809-.862 2.748-.732.329.01 1.76.671 1.24.519-1.056-.298-2.304-.663-3.322-.117-.437.2-1.229 1.44-.336 1.246 1.836-.536 3.647.457 5.185 1.356.18.217-1.13-.475-1.567-.63-1.202-.532-2.547-.823-3.84-.457 1.23.819 2.282 1.868 3.42 2.806-1.242-.467-2.128-1.675-3.226-2.438-.963-.797-.545-.03.092.462.814.795 1.57 1.645 2.33 2.491-1.26-.934-2.237-2.199-3.376-3.274-.634.033-1.568-.03-.743.692.283.568.716 1.097.916 1.688-.585-.782.323.824.46 1.197.064.431.962 1.536.701 1.44-1.09-1.516-1.6-3.372-2.735-4.855-.74-.049-1.482-.094-2.22-.18.398 1.776-.346 3.838-1.781 4.92 1.86.933 4.056 1.38 6.161 1.491.996-.065 2.151.097 3.05-.152zm.24-4.19c-.71-.645-1.644-1.212-2.279-1.825 1.1.54 2.199 1.419 3.011 2.394-.261-.127-.487-.393-.733-.569zm-4.277-1.032c-.57-.748-.655-1.126-.023-.206.445.537.74 1.371.098.318l-.067-.1zm1.307-4.982c.404-.7.93-1.392 1.662-1.77-.624.628-1.227 1.274-1.764 1.98l.052-.108zm-8.54-1.513c-.053-.842.143-1.116.052-1.91.066-1.506.172-3.007.392-4.499-.173 2.199-.099 4.41-.166 6.613-.247.088-.26.04-.278-.204zm-7.34 11.1c.966-.907 1.597-2.134 1.666-3.47-1.12.014-2.22-.074-3.251-.547-.576-.208-.617.994-1.332 1.067-.782.406-1.916.23-2.388-.579.219 1.417 1.188 2.769 2.566 3.258.796.338 1.942.528 2.74.272zm-.55-2.298c-.432-.217-1.335-1.433-.475-.532.25.272 1.66 1.394.476.532zm-3.612.091c-1.01-.652.267.26.758.013 1.13-.197.648.098-.188.081-.2 0-.398.037-.57-.093zm13.364 1.34c1.142-.647 1.693-2.042 1.855-3.287-.021-.662.25-1.59-.605-1.82-1.024-.513-.43.43-.447 1-.02 1.275-.548 2.66-1.562 3.453-.84.16-1.175.222-.134.449 1.013-.05 1.642-1.1 2.127-1.895-.315.946-.995 1.758-1.912 2.169.222-.02.502.054.678-.07zm-1.03-.819c1.054-.595 1.494-1.919 1.686-3.056.22-1.155-1.238-2.025-2.208-1.666-.887 1.14-1.084 2.676-1.725 3.958.594.11.535-1.125.86-1.552.34-.843.633-1.756 1.286-2.412-.817 1.25-1.306 2.733-1.754 4.11.446.239 1.083.23 1.147.747.254.01.489.027.707-.129zm-2.52-2.213c.263-.783.584-1.54.964-2.274-.685-.53-.821.802-1.121 1.248-.229.625-.497 1.238-.653 1.887.143-1.186.707-2.331 1.302-3.37-.63-.623-.752.591-1.032.962-.22.792-.668 1.556-.59 2.399.897.858.81-.24 1.13-.852zm-8.82.716c.35-.156 1.292-.859.76-1.163-.607-.623-1.263-.07-1.982-.18-.968-.423-.826.686-.251.483.024.407-.414.133-.676-.495-.2.222.101 1.103.604 1.3.426.323 1.083.261 1.544.055zm-.96-.645c.987-.301.744.024-.077.055-.528 0-.294-.024.078-.055zm-.206-.118c.44.184 1.67-.794 1.161-.367.249.237-1.34.526-1.284.38l.118-.012zm6.922.073c.588-.212 1.427.045 1.87-.106.236-.92.59-1.794 1.04-2.63-1.505-1.57-3.69-2.026-5.52-3.079-.815-.01-.065.934.314 1.136.214.387 1.666.926 1.219 1.045-2.102.147-4.207.063-6.312.023-.477.526.464.972.947.976 1.035.093 2.118.01 3.124.207.074.367-1.261.023-1.721.082-.51.01-1.815-.232-.994.493.739.746 2.088.146 2.898.693-.695-.015-1.642-.19-2.396-.148.293.803 1.472.851 2.201 1.183 1.062.374 2.245.23 3.33.125zm-6.145-.947c.934-.439-.265-.617-.76-.468.046.175 1.484-.564.247-.528-.475-.045-1.638.39-1.72.04.669-.09 1.337-.188 2.007-.27-.286-.54-1.122-.363-1.654-.55.54-.063.646-.834-.236-.633-1.162.35-.484-.207.243-.333 1.307-.357 2.71-.017 4.055-.075 1.091.226 1.119-.156.447-.916-.94-1.425-1.75-2.937-2.71-4.346-1.258.052-2.56-.135-3.79.072-.705.46-.722-.456-.86-.06.294.46-1.466-.342-.93.127.638.742 1.062 1.648 1.713 2.381-.288.275-1.012.954-.084 1.227.361-.167 1.715-.19 1.401-.708-.384-.263-1.843-.211-.571-.32.648-.195 1.25.7.37.841-.512.17.337 1.102.768.639.557-.06 1.677-.419 1.768.368-.257.638-1.407.456-.3.137.503-.645-.844-.448-1.206-.324-.448.01-1.763.699-1.36.084.664-.345-.614-.917-.983-.423-.544.736.84.807.28 1.467-.135.771.969.813.897 1.557.344 1.134 1.875 1.166 2.856 1.06l.11-.047zm10.282-.734c.5-1.007-.212.032-.312.483.172-.01.2-.363.312-.483zm-.93-1.6c.286-3.49.492-6.988.517-10.492.734-.685-.234-.964-.717-1.337-.674-.79-.402.674-.499 1.09-.1 2.081-.285 4.159-.475 6.234-.749.259-.171-.963-.263-1.376.182-2.106.423-4.21.516-6.321-.567-.12-1.313-1.188-1.665-.79-.448 1.446-.495 2.977-.685 4.471.614.06.216-1.2.391-1.679.143-.866.099-1.828.358-2.635-.109 1.513-.043 3.087-.242 4.563-.565.473-1.11-.17-.812-.774.176-1.514.249-3.063.814-4.496-.533-.202-.807-1.55-1.264-1.037-1.686 1.49-1.865 3.88-2.51 5.906-.429 1.591-.833 3.188-1.241 4.784.202.818 1.085.055 1.625.401.734.23 1.558.544 1.94 1.262-.251-1.423-.417-2.91-.563-4.318-.028-1.323-.477-2.665-.44-4.019.082.451.201 1.675.292 1.697 0-1.37-.119-2.744.056-4.107.246 1.73.174 3.514.393 5.26.181 1.955.358 3.934.653 5.863.5.045.224-1.296.376-1.808.095-1.336.186-2.672.262-4.01.057 1.992-.166 3.978-.275 5.964 1.218.46 2.411 1.089 3.29 2.07.053-.118.242-.222.167-.366zm-4.916-5.445c-.527-.747-.886-1.642-.872-2.566.19.97.66 2 1.07 2.79-.087.012-.156-.19-.198-.224zm-.536 4.797c.464-.236-.204-.699-.498-.906-.275-.424-1.254-1.287-.612-.299.386.305.531 1.426 1.11 1.205zm.999-1.636c-.638-.634-1.579-.98-2.472-1.085-.985.104.188.597.555.442.81.116 1.45.692 2.184.946l-.267-.303zm-1.852-.315c-.5-.498-1.321-.133-.207.122.065-.044.287.05.207-.122zm-3.48-3.66c-.994-.746-2.355-.265-3.514-.385-1.005 0 .92.032 1.307.048.838-.058 1.694.078 2.375.55.228.044-.178-.164-.168-.214zm-3.79.035c-.392-.666-1.29-.282-1.929-.283.071.573 1.179.164 1.668.318.051-.04.284.081.262-.035zm3.721-.31c-.687-.55-.928-.209 0 .08v-.072zm-4.3-.193c-.33-.305-1.894.036-.735.059.172-.047.771.095.735-.06zm3.015-.15c-.29-.154-1.41.085-2.025 0-1.369 0 .058.257.675.12.43-.069.986.082 1.35-.122zm12.131-4.51c-.056-.808-.854-1.441-1.375-2.038-.315-.142-.381 1.438.388 1.507.318 0 .875 1.03.987.53zm.453-.377c.052-.618-.514-1.243-.585-1.904-.413-1.041-.268-2.471.885-2.956-.864.607-1.235 1.884-.649 2.787.757.303 1.634.304 2.408.175 1.029-.8 2.573-1.176 2.967-2.558.125-.435.658-1.92-.056-1.01-1 .532.658.61-.288 1.103-1.051.745-2.365 1.206-3.667 1.012-.603-.439-.361-1.154.022-1.652-.756.12-.601.01-1.386.29-.524 0-1.443.82-1.466.744.592-.908 1.791-.975 2.74-1.275-.337-.066-1.786.266-1.387.01-.78-.193-1.625.191-2.406-.18a3.154 3.154 0 0 1-2.257-2.34 6.692 6.692 0 0 1-.322-2.236c-.285.345-.014 1.296.069 1.858.212 1.634 1.68 3.103 3.39 2.956-.652.57-1.413 1.655-.598 2.406.862.918 1.97 1.836 2.509 2.899.044.194.043-.195.077-.128zm-2.42-2.776c-.39-.896.154-2.15 1.21-2.188-.912.27-1.319 1.258-1.078 2.138.09.343-.052.365-.131.05zm8.144 1.15c1.737-.858 3.426-1.887 4.835-3.22.36-.5.32-1.246-.058-1.692-1.849 1.972-4.163 3.397-6.34 4.96-.553.123-1.346.797-.953 1.17.846-.389 1.688-.792 2.516-1.218zm-4.97.824c.177-.246 1.654-1.19.878-.838-.69-.014-1.482-.02-2.044-.326.217.501.366 1.2.725 1.55.147-.13.295-.258.442-.386zm-3.023-.252c.252-.754-.097-1.174-.65-1.656-.349-.729-.834.595-.928.958.336.246 1.418 1.316 1.571.746v-.054zm6.179-.716c1.654-.691 2.469-2.531 2.323-4.25.102-2.919-1.454-5.547-2.792-8.035-1.856-3.143-4.685-5.942-8.298-6.885-.374-.266-2.113-.213-1.023.078 3.624.815 6.728 3.283 8.63 6.44 1.289 2.153 2.603 4.448 2.841 6.993.06 1.517.023 3.293-1.163 4.393-.605.253-.95.969-1.006 1.516.156-.043.375-.193.488-.25zm-7.862-.524c.304-.504.975-1.074-.062-1.101-.56-.233-1.572.342-.674.791.222.136.57.909.736.31zm12.037-2.28c1.203-1.047 2.614-2.1 3.16-3.647.41-2.308-.87-4.463-1.318-6.677-.79-2.694-.656-5.66-2.146-8.128-.671-1.362-1.782-2.439-2.657-3.656-1.587-1.55-4.034-1.854-6.148-1.532-3.37.455-6.594 2.359-8.484 5.201-.81 1.353-.982 3.183.04 4.476.364.727.989-.632.414-.953-.317-.586-.604-1.528.036-1.99.846-.79 2.027-1.173 3.156-1.353.81-1.446 1.585-2.972 2.772-4.145a21.185 21.185 0 0 0-2.572 4.17c1.492.562 3.024 1.212 4.216 2.27-1.345-.796-2.737-1.528-4.228-2.01-.278.607-.236 1.46.65 1.334 3.747.884 6.722 3.742 8.618 6.995 1.538 2.77 3.2 5.796 2.835 9.073-.042.86-.376 1.684-.85 2.376.842-.59 1.733-1.125 2.506-1.804zm-4.5-20.757c-1.421-1.436-3.409-2.146-5.402-2.237.279-.18 1.266.077 1.81.082 1.654.296 3.334 1.368 4.176 2.678l-.585-.523zm-6.822 21.763c.134-.61.504-1.223 1.092-1.5-1.577.014-3.413-.145-4.43-1.515-1.387-1.364-2.994-2.877-3.146-4.93-.01-2.695 1.025-5.307 2.52-7.515.169-.505.874-1.337.729-1.652-1.16.572-1.901 1.822-2.598 2.896-1.093 2.004-1.87 4.276-1.814 6.578.404 2.51 2.151 4.557 4.103 6.065a10.73 10.73 0 0 0 3.542 1.697v-.12zm-6.093-5.168c-.673-.958-1.138-2.102-1.063-3.29-.01 1.31.662 2.636 1.334 3.617-.118-.04-.177-.237-.271-.327zm4.543 3.01c-.742-.35-1.159-1.123-1.352-1.89.382.74.938 1.541 1.663 1.894-1.383-1.112-2.014-2.903-1.979-4.644-.097-1.274-.343-.47-.214.359-.048.822.093 1.086.08 1.368-.257.375.726 1.74.046.954-.496-1.111-.389-2.333-.454-3.504-.317-1.044-.193.464-.196.876.049.872.11 1.222-.123.165-.162-.36.045-2.09-.168-1.314-.014 1.668.48 3.387 1.315 4.826.448.492.955.992 1.65 1.044-.081-.04-.207-.103-.268-.135zm8.41-.348c.701-1.244.594-2.752.48-4.112-.199-.629-.426-1.332-.486-1.681-.342-.86-.012.791.07 1.09.467 1.606.424 3.437-.439 4.899.262-.12-.082.81.375-.196zm.474.016c.353-.45.516-.964.56-1.662.147-1.181-.135-2.341-.546-3.445.1.668.347 1.458.358 2.202.026 1.154-.106 2.37-.689 3.392.199-.077.209-.327.317-.487zm-5.856.274c0-.242-1.259-.017-1.641-.48-.522-.531-.973-1.161-1.136-1.904.094.917.784 1.753 1.527 2.264.344.238.9.237 1.25.12zm6.86-1.32c.115-.646.051-1.33-.127-1.96.024 1.067-.046 2.13-.296 3.17.203-.39.408-.77.423-1.21zm-4.238.597a6.733 6.733 0 0 0 2.748-1.952c.081-.733 0-1.56-.498-2.135-.67-1.228-.333-2.772-.913-3.984-1.067-.266-2.19-.17-3.278-.204-1.983-.185-3.882-1.688-4.118-3.734-.229-.464-.014-1.651-.2-1.705-.082.898-.095 1.912.233 2.79-.011.583.213 1.182.533 1.713.509.92 1.527 1.57 2.597 1.434-1.032-.05-2.155-.558-2.515-1.575.45.026-.817-.859-.23-.474-.074-.17-.635-1.62-.174-.595.473 1.181 1.483 2.201 2.823 2.239 1.34.226 2.725-.18 4.057.228-.349.378-1.35-.173-1.911.165-1.32.469-3.004 1.138-4.229.13-.682-.568-.844-1.484-1.126-2.282-.364 1.064-.664 2.218-.224 3.308.186-.73 1.229-.396 1.633-.157-.327.37-1.554-.32-1.55.402.315.527.526 1.551 1.309 1.46.554-.574 1.269.198.545.527-.533.55-1.338-1.28-1.004-.023.264 1.516 1.097 2.914 2.448 3.697.922.453 2.002 1.299 3.044.727zm-1.93-1.463c-1.042-.577.382.222.795-.25.522-.316 1.004-1.179.422-.175-.272.403-.763.504-1.217.425zm-1.38-1.297c-.465-.28.33-1.62.241-1.406-.162.523-.582 1.51.397 1.437.655-.258.97-.285.173.138-.284-.039-.63.118-.812-.169zm2.707-2.244c-.522-.55-.963-.792.12-.688.546.01 1.145-.505 1.482-.617-.312.608-.544 1.492-1.413 1.37-.077.04-.129-.033-.19-.066zm-7.246 4.187c-.75-1.602-.825-3.378-.775-5.116-.79-2.023-.412-4.371.666-6.208-.458.272-.823 1.12-1.128 1.677-.877 1.868-1.544 3.935-1.317 6.015.342 1.627 1.526 2.931 2.714 3.995l-.16-.363zm1.2-.654c-.245-.747-.266-1.546-.32-2.326-.056.93-.06 2.026.427 2.775.045-.121-.09-.31-.107-.449zm9.122-2.949c-.309-.884-.335-1.834-.49-2.753-.05 1.122.09 2.4.64 3.324.019-.165-.115-.391-.15-.57zm-8.735.024c-.436-.904-.488-1.99-.81-2.913.09 1.12.345 2.229.861 3.23.078-.13.043-.209-.051-.317zm-.707-.47c-.598-1.76.129-3.6.45-5.336-.145-.713-.43.98-.584 1.314-.17 1.23-.54 2.532-.275 3.758.036.493.908 1.218.41.265zm-.83-1.084c-.089-1.107.156-.181.208-1.396.064-1.173.486-2.27.966-3.318.054-.859-.499.41-.644.627-.636.956-.657 2.14-.62 3.25-.709-.593-.4-1.664-.372-2.479.125-.766.665-1.512.966-2.126.227-.606.71-1.27.623-2.025.26-1.207-.354-.064-.378.508-.845 1.278-1.654 2.7-1.567 4.297-.151 1.2.107 2.515.832 3.473 0-.27-.01-.542-.014-.811zm-.187-1.999c-.092-.877.273-1.702.73-2.43.088.01.649-.937.54-1.429-.057-.474-.645 1.03-.91 1.328-.445 1.02-.876 2.313-.364 3.341 0-.268.015-.55 0-.81zm5.465.389c1.236-.28-.287-.064-.787-.103-.946.136-1.85-.431-2.31-1.24.437 1.312 1.923 1.598 3.097 1.343zm3.552-1.015c-1.23-.72-2.686-1.075-3.81-2.008-1.188-.75-1.875-2.056-2.786-3.058-.71-.495-.237.953-.4 1.355.18 1.134.697 2.19 1.655 2.858.657.494 1.703.96 2.415.78-.692-.306-1.437-.801-1.832-1.367a6.602 6.602 0 0 0 2.489 1.294c1.047.309.355-.115-.254-.32-.578-.254-1.137-.68-1.574-1.075 1.284.824 2.737 1.4 4.233 1.66.024.123-.142-.2-.136-.12zm-.635-.708c-1.158-1.548-2.886-2.629-4.429-3.796-.586-.386-1.346-.653-.588.2 1.229 1.764 3.048 3.022 5.055 3.741-.01.306-.027-.198-.038-.145zm-9.4-3.823c.568-.803 1.507-1.272 2.13-1.991.239-.893-.051-1.142-.884-.726-.878.258-1.885.666-2.286 1.544-.03.614.18 1.26.566 1.687.18-.131.314-.352.475-.514zm.604 40.333c1.314-1.54 2.223-3.383 2.778-5.324-.236 2.045-1.412 3.852-2.66 5.443-.192.055-.357.076-.118-.119zm11.636-.242c-.335-.228-1.033-1.909-.476-.952.06.495 1.34 1.266.813 1.348-.128-.089-.226-.276-.337-.396z" style="fill:#1a1c22;stroke-width:1" transform="translate(1902.606 -1502.478)"/></svg>