<svg xmlns="http://www.w3.org/2000/svg" width="200" height="200" viewBox="0 0 52.917 52.917"><path d="M-2083.999 1723.585c-1.166-.01.67-2.634-.918-1.435-1.1-1.472-2.957-3.222-2.776-4.978-2.247-1.888 1.824-2.367 2.172-.495 1.167 1.857 1.637-2.66 3.57-.738 1.537.58 1.563-2.144.02-.957-2.288 1.197-2.82-2.581-3.88-3.325.517-2.105 2.918-3.268 4.788-2.114 2.506-.547 3.837 1.84 2.854 3.967-.175 1.543.914.485.748-.352 2.672-.378-1.094 3.775-2.075 1.333-.665-.92.926-2.726-.399-3.133.469 1.47-2.416 3.694.41 3.967 1.978 1.157 1.874 4.035 1.623 5.95-1.027.482-1.909 1.52-1.737 2.21-1.465.088-2.936.01-4.4.1zm-.048-3.37c.35-1.036-2.396-.726-.799-.25.204.083.599.542.8.25zm-1.573-1.11c-.545-1.28-1.64.048 0 0zm6.566-.588c.798-.649-1.185.549 0 0zm.76-.329c.678-.476-1.345.51 0 0zm-9.33-.347c2.03-.743-.6.157 0 0zm4.472-.512c.653-.887-.374-2.318-.148-.46-.08.517-.192 1.628.148.46zm-1.136.306c.746-1.027.44-1.883-.142-.42-.114.118-.457.76.142.42zm5.537-1.233c-.753-1.614-1.132-.445 0 0zm-3.416-1.565c.116-.302-1.276.155-.063-.374-1.576.833-.928-1.648-2.104-1.232-.855-.422 1.084 2.581 2.167 1.606zm.325-1.846c-.226-.56-1.028.453 0 0zm-2.175-.213c-.93-1.041-1.026.11 0 0zm-.18-.535c-.716-.544-.617-.107 0 0zm16.926 11.326c-.86.078-3.013-.022-1.683-1.24-1.262-1.485-3.756-1.863-3.975-4.108-.878-.552.039-.995-.014-1.73-.014.804 1.194-.603 2.003.577.72.894 2.536 2.058 1.507.27.129-1.488 1.904-2.418 2.396-.944 1.747-.187 1.12-2.88-.356-1.194-2.79.275-4.476-4.311-1.464-5.312 1.486.12 3-1.196 4.15-.837.407.704 1.68 2.428.696.786 1.587.78-.268 2.032 1.176 2.41.378 1.615-1.965 2.17-2.612 1.277-1.659 1.874 2.57 1.637 2.223 3.776.825 1.665-.146 3.557-1.318 4.224-.399 1.196 1.478 2.377-.609 1.98-.707-.01-1.419-.048-2.12.065zm-1.385-2.542c.065-2.27-.555 2.543 0 0zm4.918-1.21c.46-.798-.883.503 0 0zm-1.045-.245c-1.039-.352-3.3-.492-.957-.149.313.071.627.208.957.15zm-3.839-.636c.866-1.064-1.899.492-.324.163.02.138.546.012.324-.163zm-1.128.093c-.623-.109-.2 0 0 0zm.787-.474c-1.52-.147-1.647.26 0 0zm.674-1.51c1.21-2.1-1.295-.742-.833.646.244-.686 1.019-2.247.647-.54-.286 1.032 0 .577.186-.107zm4.87.365c.179-1.265-1.844-2.314-.457-.59.073.224.778 1.671.458.59zm-5.4-2.945c-.505-1.308-1.091.294 0 0zm-.517-1.205c.114-.3-1.096-1.649-.567-.139.054.22.423.45.567.139zm-.966-1.459c1.096-1.044-.652.167 0 0zm1.598-1.426c.907-.273 2.15-.883.46-.54-.212.021-1.477 1.2-.46.54zm3.411-1.285c-.29-.268-.881.758 0 0zm-36.124 14.132c.389-1.932-.83-3.307-1.244-4.913-.08-2.111 2.398-4.167 4.127-2.637 1.026-.416-.832-1.684-.601-1.815-.245.08-1.873-2.771-.702-3.776-1.193-.145.357-1.873.57-.674 1.481-2.358 6.658.521 4.314 2.73-.823.806-2.018 2.492-1.784 3.381 2.2 2.726 3.182-2.84 5.642-1.258.253.854-1.329 1.803-.38 2.486-1.228 1.645-2.107 3.907-4.035 4.72-.755.861-.496 2.182-2.23 1.789-1.229-.043-2.452-.195-3.677-.033zm7.582-3.142c.84-.937.512-1.81-.015-.3-.31.591-.823 1.452.015.3zm-6.945-.851c1.774-1.164 2.82-1.66 4.727-1.628 1.195-.183-1.164-.13.468-.24 1.9-.189-2.212-.163.188-.276.862.062.925-.338.217-.337 1.44-.53-2.826.059-3.506.654-.992.414-3.305 1.348-2.913 2.124.293-.032.56-.164.819-.297zm-1.14-.174c-.041-1.432-.24 1.19 0 0zm9.81-2.314c.951-.189-1.535.031 0 0zm-2.226-.522c-.431-.391-.593.511 0 0zm3.054-1.848c-2.098-.128-1.751.152 0 0zm-6.649-1.52c1.21-.507-.01-.553.203-1.304.216-1.298-1.604 1.828-.203 1.303zm28.888-6.018c-1.723-1.385-3.246-3.018-4.071-5.092-.94-2.944 2.46-.197 3.187.784.45-1.426 1.385-3.936 3.38-2.504 1.463-.04.424-2.642-.364-1.065-2.217.517-4.114-3.699-2.45-4.804 1.66-1.395 3.928-1.726 5.717-.445 1.578.87-.552 2.487.875 3.122-.308 1.548-1.901.963-1.897.122-1.595 1.137-.969 2.071.435 3.132 1.035 1.64-.254 3.722.277 5.576.373 2.227-3.304.721-4.768 1.17h-.322zm-1.068-1.136c-.283-.875-.906-.353 0 0zm4.264-1.216c-.951-.452-3.84-.828-1.3-.058.408.06.92.294 1.3.058zm-3.222-1.52c.12-.695 1.947-2.935.789-2.4-.177.768-1.116 1.608-.79 2.4zm.39-1.189c.536-1.378.817-.866 0 0zm-.274-.467c.532-1 .662-1.664-.127-.381-.292.621-.18 1.719.127.38zm-3.07-.62c-1.101-.276-.958.19 0 0zm4.764-2.084c.04-.59-1.652.022-.52-.073-1.163-.088.162.375.52.073zm-1.667-1.207c-.5-1.048.075.82 0 0zm.341-.506c-.209-.473.492-1.46-.612-.865.947.79-1.04-.378.13.475-1.132.119.85.795.482.39zm-1.076-1.954c.81-1.038-.917.684 0 0zm.684-.683c1.043-.574 1.753-.946.218-.37-.242.024-.776 1.06-.218.37zm-15.051 12.309c-2.801.55-2.25-3.496-1.622-5.094.686-1.997 2.855-2.24 4.276-1.461 1.147-1.355-.836-1.765-1.582-.946-2.033-.568-1.748-3.558-3.588-4.35-.396-2.455 2.65-2.068 3.95-1.571 1.695-1.06 4.956.595 2.677 2.269-.425 1.682-2.138 3.555.258 4.609 1.992 1.001 1.296 3.455 1.471 4.91.69-.752 2.847-1.103 1.86.58-.85 1.451-2.98.524-3.654.832-1.057.511-2.808.223-4.046.222zm6.326-1.322c1.507-.929-1.06.112 0 0zm-6.299-.22c1.03-.177 2.249-.876.506-.296-.476.054-1.76.666-.506.297zm2.177-.69c.975-1.043-1.001.682 0 0zm2.41-1.145c-1.924-.05.416.112 0 0zm-5.834-1.347c.298-.734 1.818-2.624.267-1.112-.291.411-.972 2.61-.267 1.112zm6.198-1.124c-.78-1.311.095.698 0 0zm-3.757-1.957c-1.38-.567.025.396 0 0zm1.344-.631c.385-.605-1.265 1.143 0 0zm-2.458.097c-1.397-2.441.273.775 0 0zm-.348-1.603c-.11-.609-.38.638 0 0zm.084-.718c1.272-.79-1.273-.154 0 0zm-1.515-2.69c.417-.482-1.064.926 0 0zm-14.253 12.858c-2.684-.392-1.636-3.723-1.054-5.436-.649-2.17.39-3.93.982-5.92.972-2.43 4.789-2.411 6.137-.319 1.244 1.215.513 2.776.095 3.905 1.057.958-.278 1.18-.69 1.385.874 1.556-2.526.423-.816 2.192.126.65 1.876.186.942.8 1.925.778 2.108-3.329 4.5-2.388-.107 2.242-2.56 4.57-4.932 4.968-1.038 0-1.581-.199-1.887.975-1.068-.211-2.185.084-3.277-.162zm1.092-1.606c1.14-.292 2.39-1.936.474-.862-.201.107-1.259.808-.474.862zm5.106-.617c-.654-.047-.638.714 0 0zm-2.418-.188c.792-.104 2.272-2.144.71-1.183-.64.122-2.677 1.243-.71 1.183zm-4.79-1.679c.74-.907 1.025-2.597.068-.751-.123.227-.594 1.798-.067.751zm5.223-.605c-.157-1.222-1.272-1.45 0 0zm5.268-.906c1.618-.228-2.135.012-.112 0zm-5.67-1.923c1.08-.812-.071-.545.04.068zm-.47-.874c-1.16-1.4-.868.677 0 0zm.847-.01c.647-.463-1.232.318 0 0zm.307-.875c1.574-2.223-3.454-1.155-1.77-.456.615-.698 1.206.701 1.77.456zm-5.105-5.747c-2.66-.03-2.365-3.324-1.773-5.072.504-2.013 3.188-1.37 3.973-1.15 1.38-1.528 2.682 1.358 2.724 2.087.947-.408 2.446-3.758 2.814-1.572-1.33 1.603-1.22 4.414-3.299 5.281-1.4.583-3.151.246-4.44.426zm.698-1.175c1.178-.147 4.122-.835 3.71-1.369.316-1.389-1.067 1.666-1.341-.223.404-.988 2.05-1.736.316-.832-.343 1.13-3.168 2.448-2.912 1.979 2.643-.887-3.375.025-.599.537l.372-.026.454-.066zm-2.306-.89c1.35-.96-1.39 1.158 0 0zm-.135-.353c1.468-.262.614-3.764.042-1.391-.027.233-.556 1.638-.042 1.39zm7.648-1.44c-.012-.423-.994-.043 0 0zm1.778-2.08c-.593-.712-1.415.244-.353.536.115.126.11-.679.353-.535zm7.276 5.93c-1.99-1-1.853-3.97-.674-5.56 1.008-1.167 2.63-.082 4.032-.455.586.816 1.23 1.929 1.937.327.93-1.304 3.301-.017 1.677 1.298-.262 1.257.728 3.44-1.592 3.484-1.2-.495-1.242-.677-1.705.615-1.047.786-2.492.07-3.675.29zm1.282-1.409c1.041-.285 1.79-.867.29-.329-.521.042-1.475.798-.29.329zm-1.569-4.044c.606-1.274-1.64 2.236-.225.177zm6.781-.247c2.23-.18-2.369-.174-.468.01zm8.907 5.467c-1.501-1.63-1.728-4.07-1.87-6.128 1.163-1.066 2.744.657 3.225.861.778-1.42 1.601-2.409-.139-3.346-.832-.561-.94-2.219-1.792-1.225-1.484-1.443 1.029-1.985 1.575-3.137.802-.669 1.963.238 1.31-.501 2.425-.127 2.033 1.971 2.2 3.694-.091.92.917 1.688-.22 1.28-1.496.9-.332 2.954.719 1.073 2.942-1.34 3.551 2.86 3.378 4.905.37 3.16-3.13 2.809-5.23 2.707-.99-.126-2.296.298-3.156-.183zm.3-.893c-.286-1.103-1.73-2.057-.935-.315.06.235.97.902.934.315zm4.907-1.533c-.217-1.265-2.352-.425-.516-.066-.042-.051.864.412.516.066zm2.892-.83c-.135-.88-.103-3.339-.72-3.053.777 1.072.208 3.173.528 3.65.445.282.158-.476.192-.597zm-6.457.314c1.638-.952-1.029-.342.204-.551.578-.334-.54.423-.204.551zm-.3-.686c1.094-.13 1.492-.446.096-.316-.33-.147-.119.679-.096.316zm-2.695-.807c-.07-.676-.601 1.017 0 0zm3.181-.703c.731-1.039.263-2.044.01-.367.016-.097-.133.83-.01.367zm-2.09-.478c.538.228-.892-.806.41-.213-.617-.69-2.74-.041-.914.102.14.57.247.074.504.111zm4.808-.697c1.26-.346 1.75-2.066.529-.434-.926.272-2.342.55-.68.492l.076-.026zm-3.055-2.857c-1.21-.604-.634.05.12.085l-.1-.07zm-2.037-1.866c1.474-.456-.547.118 0 0zm1.416-.833c-.4-.788 1.454-1.472-.162-.68-.165.127-.286.952.162.68zm-14.34 5.367c-.847-.588-1.531-1.55-2.401-.66-2.304-.955 1.266-2.6-.65-3.935-.933-1.879 1.865-.907 2.052-1.444-.015-1.679.187 1.492 1.131.221 1.393.746 4.108-2.168 4.211.838-1.54 1.303-1.754 3.098-2.814 4.768-.362.506-1.04.476-1.529.212zm1.055-.184c1.84-1.356-1.523.49-.484-1.342-.772-.171-2.063 1.168-.294 1.332l.419.056zm.583-.972c1.656-1.45-1.67-.086 0 0zm-16.516.772c-.587-.78-2.58-3.066-1.694-.737-2.665-.529.844-2.57-.677-3.996-.487-1.829 2.225-.321 2.997-.68 1.198.387 3.311.22 2.25 1.995-.08 1.68-.538 4.258-2.875 3.418zm.699-2.416c.02-.669-.701.227 0 0z" style="fill:#e1aea0;stroke-width:1" transform="translate(2108.507 -1673.4)"/><path d="M-2067.271 1723.57c-1.385.238-2.495-.27-1.876-1.6-1.31-1.077-3.568-1.694-3.516-3.574-1.038-.531-.385-1.236-.234-1.828-.2 1.028 1.404-.854 2.014.622.367 1.112 3.464 1.441 1.126 1.723-.73.18 1.358.115-.11.396 1.59-.127-.246.82 1.379.54 1.483-.065 1.393-1.627 3.035-.616.741-.317-.483-2.717.314-3.876-.909 1.02-2.443 1.29-3.157.415-1.055.355-.941 3.349-.376 1.04.36-1.352.046 2.552.665 1.716-3.06-.129-.208-4.489 1.09-2.17 1.794-.37.374-2.806 1.109-3.462-1.211 1.444.44-1.39-.636-.195-1.23.676-3.3-2.561-3.563.272.649.545 1.056.785.335.866.565 1.068 1.383.265 1.463 1.208.847.37 2.697-1.443 1.195.037-2.546.86-4.835-3.518-2.361-4.928 1.556-.267 3.194-1.141 4.52-1.12.504.721 1.98 2.774.864.83 1.54.514-.446 2.288.64 3.057-1.928.997.824.963.212-.352-1.226-1.838 1.52.557-.224 1.11-1.074.991-2.44-1.311-2.587.7 1.338 1.181 3.1 1.854 2.899 4.115.58 1.497-.989 2.496-1.531 2.984-.407 1.195 1.458 2.426-.596 2.034-.698-.01-1.4-.05-2.094.055zm1.46-1.39c2.85-.65-2.365-3.673-3.074-1.515-.69 2.428 1.777 1.525 3.075 1.515zm-3.328-.98c-.443-1.194-3.012-1.163-1.078-.11.292.162.8.474 1.078.11zm5.538-.433c1.16-1.027-.446-3.044-1.222-1.363-.932-.145-3.602-.42-1.47.737.825.4 1.746.902 2.692.626zm-5.426-.406c-.985-1.201-1.8.427-.14.303l.14-.09zm-2.188-.39c-.153-.712-1.093.922 0 0zm.128-.407c-.867-.589-1.243 1.043 0 0zm-.937 0c1.032-.372-.345-1.068-.177.019zm.08-.77c-.763-.281-.692.715 0 0zm2.952-.195c-1.506-.332-1.782.362 0 0zm4.685-.207c1.657-.187.595-.652-.371-.1zm.035-.413c2.548-.047-1.154-4.374-.925-1.175.03 1.803.737-2.568.394-.231-.078.44-.422 2.116.531 1.406zm-6.765-.698c-.87-.934.407.987 0 0zm-1.004-.364c1.355-.437-1.542.382 0 0zm7.586-3.48c.394-1.202-.89-.725-.176.14-.588-1.412-.103.972.176-.14zm-.704-.48c.862-1.183-1.063-3.775-2.013-1.937 2.275-1.999-2.944-1.461-2.023.292.108-.295 1.517 1.81 1.58.752-1.26-.53-.914-.88.242-.307 1.02.197.43-2.538 1.613-.777.668-.798-.403 3.509.601 1.978zm1.687-.451c-.997-1.134-.314.589 0 0zm-.567-.763c1.335-1.151-1.48-1.66-.548-1.111 1.276 0-.495 3.156.548 1.111zm-6.257.188c1.473-.98-1.037-.114-.05.253l.05-.253zm.77-1.089c.47-1.133-1.192 1.294 0 0zm4.233-1.752c-.272-.313-.786.692 0 0zm-19.207 14.356c.406-.958.551-1.87-.647-1.551-.99-1.023-2.855-3.368-1.49-4.071-1.13.18-1.082.628-1.037-.548-2.111-1.928 1.506-2.424 2.2-.639.802 2.087 1.695-2.596 3.525-.717 1.746 1.029 1.028-2.859-.036-.712-2.246.488-2.555-2.363-3.745-3.412.117-2.408 3.449-3.713 5.139-1.904 2.654-1.463 3.12 2.64 2.407 4.247 1 .981.667-2.466 1.779-.757-.186 2.03-3.387 2.636-3.273.072.762-.717-.22-3.32-.209-1.187-.643.892-1.616 3.124.501 3.099 1.915 1.24 1.653 3.908 1.58 5.856-.852.614-2.043 1.444-1.849 2.19-1.02.116-4.267.12-3.743-.032 1.09.049 4.775-.555 1.938-.313-1.503.704-2.823-2.169-2.754.227.03.1-.215.458-.286.153zm5.85-1.748c2.046-.643-.198-4.666-.596-1.846.173 1.974-4.746-.169-3.318 1.607 1.23.503 2.631.553 3.915.239zm-6.647-.291c-.547-.606-.583-1.661-.55-1.709-1.216-.124.355 1.456.55 1.709zm.418-.217c1.276-1.05-1.495.133 0 0zm.924-.914c.186-1.126-2.61-.854-.754-.08.155.227.654.565.754.08zm.338-.704c-.147-1.57.611-1.212 1.039-.087 2.084.65 2.407-2.064 2.237-3.292.66-2.106-2.166 1.556-2.722-.449-.672 1.1-.414 2.592-.554 3.828zm1.638-1.783c.176-1.31.853.429 0 0zm-3.894 1.57c1.193-1.293-2.13-.435-.876-.578 1.005.084-.444 1.06.876.579zm1.963-.33c-.568-1.733-.25.558 0 0zm4.72-.406c1.103-.31 1.303-.966.01-.234-.144-.037-.645.65-.01.234zm-7.647-.09c-.254-.734-.884.597 0 0zm3.065-.227c-1.27-.323.823-2.522-.067-.576.816-.63.074-2.55-.612-.816-.458.501-.219 1.85.679 1.392zm-3.917-.396c1.383 0 .393-.833-.17.101l.106-.063zm8.516.026c2.853.088-1.608-4.442-1.024-.988.479 1.7-.116-1.177.85.418.528.252-.498.75.172.57zm.052-1.145c-.486-.925.276-.4 0 0zm-2.95-1.976c1.474-.85 2.75-3.331.604-2.374-.437-1.423-1.48-.15-1.591-1.864-.501.663-.045 1.197.858 1.498-1.439.73-1.521-2.485-2.574-.263-.046 1.133.733 3.777 2.702 3.003zm-1.132-.352c-1.278-.923 1.52 0 .326.038l-.325-.028zm-1.05-1.27c-.703-1.337.969.63 0 0zm1.515-.21c.7-.897.847.482 0 0zm2.049-.144c.204-1.11.855-.138 0 0zm2.617-1.181c-.388-1.943.053 1.239 0 0zm-1.979-1.124c-.121-.368-.774-.083 0 0zm1.487-.236c-1.505-1.305.96 1.351 0 0zm-5.242-.663c-.177-.27-1.843 1.434-.306.14l.142-.096zm-17.598 13.312c.696-2.224-2-3.734-.947-5.854.585-1.648 2.653-2.804 3.695-1.007 1.148.28 1.227-.683-.013-.25-1.107-.48 1.626.201.289-.921-1.132-.973-.186-1.595.365-.336 1.764.5 1.922-1.557 2.396-2.454-.51-.747-1.377-.262-1.943-1.042-1.46.08-1.284 4.401-2.172 1.82-.647-1.195-.814-4.26.742-3.711 1.284-1.57 5.075.1 4.63 2.13-.66 1.428-3.067 2.947-2.25 4.336 2.106 2.341 3.207-2.872 5.395-1.357.884.625-1.635 1.653-.206 2.364-1.222 1.523-2.088 4.135-3.932 4.64-1.365-.448.089 2.494-1.847 1.996-1.265-.415-3.462.242-4.202-.354zm6.057-2.211c-.146-1.88-.966.86.044.255-.01-.085-.038-.17-.044-.255zm1.584-.73c.933-1.028.507-1.888-.059-.296-.354.664-.768 1.434.059.295zm-6.674-.44c1.448-.794 4.676-1.93 5.146-1.98-.84-.19 1.384-.2-.16-.389-1.295-.25 1.531.163.604-.528.453-.286-2.267-.15-2.97.415-1.144.37-3.039 1.312-3.634 1.515.779-1.465-2.374.379-.44 1.184.463.3 1.065.116 1.454-.216zm2.307-1.282c-.103-1.34.367.414 0 0zm5.333-.202c1.62.12.55-1.935-.38-.871 1.629-.078-1.804.841.38.871zm-8.854-.395c-.72-.205-.965.535 0 0zm10.026-.655c0-1.002-1.891-.094 0 0zm.124-.551c-.836-.836-1.127.36 0 0zm-4.604-.09c-.246-1.347-1.04-.178 0 0zm1.64-.26c-1.228-.242.586.532 0 0zm2.511-1.73c2-.174-2.67-.03-.246 0zm-7.087-1.423c-.155-.425-.497-.95-.518-.953-.585.286-.058 1.338.518.953zm-.542-3.608c-.79-.638.113 1 0 0zm4.32.244c-1.018-.346-1.695.328-.442 0 .11-.03.414.192.443 0zm-1.152-.523c.096-.359-1.848.434 0 0zm-1.087 5.184c.234-1.118 1.132.66 0 0zm29.362-.573c-.627-1.604 1.2.458 0 0zm-29.487-.357c-.745-1.286 1.228-.29 0 0zm.673-.968c-1.857-.421.874-.13.125.068l-.108-.06zm27.91-5.542c-1.85-1.426-3.326-3.23-4.196-5.385-.678-2.39 2.672-.087 3.169 1.025.842-.746 1.16-4.147 3.202-2.409 2.053-.184 0-3.025 1.941-3.457-.444-.673-1.024-.452-.316.098-.605 1.044-3.16-2.514-2.093-.617-.892-.36-2.805-1.112-2.085.547-.356 1.828 2.952 3.123 3.126.818 0 2.96-3.857.796-3.44-1.15-1.553-2.227 2.717-3.726 4.349-3.381 1.565.5 2.982 1.292 2.061 3.174 1.726.915-1.009 2.757-1.41.737-.444.942-1.962 1.95-.11 2.518 2.068 1.758.176 4.736 1.03 6.942-1.107 1.273-3.658.099-5.228.54zm.376-.17c1.37-.126.387-.617-.163.036zm2.542.014c2.309.108-.866-.73-1.365.034.457.034.909-.11 1.365-.034zm.514-.476c-.86-.265-3.908-2.159-2.93.036.976-.025 1.957.09 2.93-.036zm-3.511-.128c.84-1.506-3.464-2.274-1.34-.597.337.346.807.787 1.34.597zm4.376-.449c1.352-1.118-.096-3.22-1.15-1.41-1.365.345-4.885-1.879-4.793-.183 1.993.397 3.882 2.06 5.943 1.593zm-4.28-.733c-.476-.798-.75.286 0 0zm3.383-1.728c-.769-1.142 1.279-4.738-.848-2.976-1.93-1.299-3.377 2.44-1.9 3.354.594-.016-.741-.119.434.2.63.214 3.145.987 2.314-.578zm-1.935.48c.87-.302.74.297 0 0zm-3.794.207c-.354-.462-.227-.912-.614-.11.128.203.426.15.614.11zm-.375-.647c1.326-.67-1.745.16 0 0zm7.706-.505c1.025-1.258-1.26-4.465-1.569-1.723.14 1.558.328-1.466.255.327.365-.215-.694 2.765 1.274 1.968-.124-.166.139-.408.04-.572zm-7.844.094c.674-.513-1.48.319 0 0zm2.78-.928c.335-.77 1.299-3.038.155-1.093-.056.148-.886 1.852-.155 1.093zm-2.898-1.165c-1.204-.392-1.772.332-.264.097l.158-.01zm8.559-3.048c-.141-.9.769-1.167-.092-1.023.587 1.172-1.305.752-.126 1.168zm-.081-.477c-.254-.985-.462 1.148 0 0zm-1.806-.457c-.198-.692-.702.802 0 0zm1.487-.183c.538-.977.916-3.27-.873-2.913 2.465.693.884 1.717.873 2.913zm-.355-1.497c-.328-2.178-.188 1.135-.056.297zm-4.672.342c-.915-.74 1.298-2.098.021-.666 1.06 1.313 1.076-1.835 2.431-.828-.779-1.533-4.933 1.131-2.46 1.45l.255.307-.247-.263zm1.523-.055c.383-.41.68-1.498.132-.393zm3.7-.09c-.29-1.122-.621.378 0 0zm-2.626-.733c.83-.827-.432-.254-.018.116zm1.653.159c0-1.109-.396.493 0 0zm-19.407 11.897c-2.78.558-2.279-3.443-1.651-5.038.67-1.931 2.776-2.446 4.21-1.417 1.19-.53-.052-2.652-.784-1.139-2.654.45-2.362-3.492-4.296-4.297-.249-2.9 3.133-1.475 4.698-1.637 2.25-1.01 3.675 1.538 1.681 2.946-.642 1.425-1.614 3.31.65 4.1 1.451.94 1.427 3.41 1.221 4.824.855-.517 3.167-1.198 1.897.553-.765 1.629-3.377.618-3.555.773-.88.81-2.886.25-4.07.332zm-1.421-.437c1.065-.504 4.186-1.061 3.694-2.103-.975.569-3.494 1.348-3.043.7-1.4.523 1.996-.979-.079-.997-1.598-.523-1.19 2.354-.573 2.4zm7.941-.425c1.586-1.678-1.788-.46-.232.275l.131-.071zm-1-.618c-.65-.822-2.252.034-.561.366.349.412.812.083.56-.366zm-1.749-.02c-1.034-1.173-.226.51 0 0zm3.932-.107c.477-1.632-1.592.31 0 0zm-6.64-.581c1.67-.64-1.9.55 0 0zm2.26-.862c.769-.462 3.515-.03 1.354-.462-.144-.184-2.07.634-1.353.462zm-4.375-.033c-.715-.577-1.116-.283 0 0zm3.917-.218c1.907.493.17-4.438 1.912-2.288.535.761-.748 2.4.653 1.8.411-1.554-1.456-4.137-2.629-1.917-1.139.539-2.381-1.596-2.666-.613-1.094-.572-3.003 3.472-.615 2.666.59-.816.741-2.215.958-.414.39.873 1.563 1.378 2.387.766zm-.702-2.605c.668.495 1.864-1.843.527-.353-.736.328-2.383-1.285-1.267.226.18.15.542.387.74.127zm-.345-1.977c1.292-.342 2.565-3.007.65-2.37-.882-1.309-3.931-1.172-2.816.323-.172.325 1.375 1.117.174.715-1.12-.149 1.244 2.32 1.992 1.332zm-1.115-.434c.059-.81 1.284.624 0 0zm.802-.996c-1.227-1.01 1.226-.138 0 0zm1.432-.231c-.133-1.437 1.218.054 0 0zm-2.123-.732c.483-.723 1.323.493 0 0zm2.745-2.462c-.768-1.239-.041.675 0 0zm-4.999-.696c1.153-.668-1.332.667-.305.155zm-14.485 12.943c-3.043-.562-1.165-4.016-1.116-5.902-.618-2.014.675-3.658 1.07-5.523.983-2.293 4.585-2.335 5.975-.403 1.617 1.246.295 3.14.379 4.376 1.602.97-1.85.75-.59 1.302-.149 1.028-2.524.628-1.022 1.991.883.325 1.698.771.236.708 1.547-.998-1.927.31-2.386.625-1.178.675-4.891 1.923-2.923-.107.516.915.49-3.618.82-1.82-.387-3.176-2.412 1.497-2.019 2.734-.503 1.186 2.306 2.176.545 1.196.79-.769 2.269-.01 1.788-.413-.181-.493 1.022.904 1.475-.23 1.468-.788 3.209-1.738 3.423-1.943 1.532 1.18 2.314-3.424 4.535-2.442-.251 2.493-2.465 4.086-4.522 5.049-1.189-.114-2.19.066-2.566.845-1.03.04-2.081.166-3.102-.043zm5.382-1.114c1.944-.432.36-2.087-.82-1.075-1.936.095-.205 1.977.82 1.075zm1.602-.994c-.158-.875 2.645-.748 1.345-1.285 2.114-.318-1.051-1.05-.765.273.166-.156-1.595-.565-1.083.825.026.247.343.356.503.187zm-1.062-.57c.019-.52-.697-.063-.032-.045-.3.192-.255.146.032.046zm-2.97-.606c1.053-1.129-.01-3.85-1.39-2.308-2.084-1.697-.487 1.683-.024 2.445.442.296.994.078 1.413-.137zm-.861-.519c.01-.873 1.16.25.203-.26-.233.164.357.746-.203.26zm2.197.097c.742-1.15-1.87-3.204-.343-1.043.254.182-.187 1.428.343 1.043zm5.26-1.885c1.641-.236-2.29.056-.103.01zm-5.603-1.936c1.329-1.334.958-3.446-.832-3.786-.237-.639-.253 1.236-1.045 1.37-.431 1.151-1.896-.629-1.132 1.024.903.536 1.826 2.036 3.01 1.392zm-.68-.429c.092-1.043 1.199.548 0 0zm.911-.718c-.274-.902.67.013 0 0zm-1.515-.1c.012-1.418 1.288.51 0 0zm.348-.215c-.218-.693-.275.753 0 0zm-2.22-.235c-.36-.941 1.133-.16 0 0zm1.863-.572c1.207-.504.89.468 0 0zm29.123 2.056c-.115-1.27 1.35.562 0 0zm-.782-1.095c-.314-1.211.742.939 0 0zm1.639.092c-1.123-1.205 1.684-.263 0 0zm.155-.155c.041-.524-.432.305 0 0zm-33.397-6.132c-3.006-.212-2.332-4.141-1.257-5.96 1.108-1.861 3.345 1.03 4.169-.75 1.956-.133 1.599 4.224 3.033 1.61.125-1.531 2.89-1.936 1.475-.127-1.06 1.806-1.277 4.83-3.84 5.063-1.145.065-2.938.308-3.58.164zm.398-.479c1.205-.394 4.707-1.702 3.841-2.373-2.212.96.17-1.584-.097-1.167-1.263 1.113-2.938 2.443-4.926 2.33 1.038-.893-1.232.156.108-.592-2.773-.447-.348 2.996 1.074 1.802zm4.032-.116c1.518.166 1.199-2.462.07-.84-.24.062-.597 1.404-.07.84zm-6.086-1.77c2.613.742 1.087-5.306.025-1.773-.105.442-.735 1.613-.025 1.774zm7.598-.124c.757-1.17-2.159-.594-.158-.208-1.675-.843-.638 1.26.158.208zm.615-.88c.113-1.167-2.185-.447-.204-.24-1.085-.09-1.477-.022-.161.516.211.124.374-.101.365-.276zm1.034-2.393c.424-1.123-1.991.113-.17.098l-.114.287zm7.369 5.754c-2.001-1.007-1.83-3.988-.628-5.573 1.018-1.168 2.552.086 3.975-.47.596.789 1.21 1.995 1.938.362.922-1.32 3.315-.032 1.685 1.288-.3 1.214.719 3.076-1.277 3.526-1.059-.072-1.831-1.287-2.019.494-.618.961-2.604.137-3.674.373zm-.441-.357c-.977-1.99 2.448.103 3.097-1.325-1.274.458 1.102-.834-.39-.243-1.612.941-2.979-.289-2.206-.978-2.11-.29-1.357 2.073-.501 2.546zm2.603-1.741c.848-.418-1.559.46 0 0zm4.54-.428c.863-1.372-1.472-1.585-.492-.465-1.223.089.945.075-.666.327.336.13.807.294 1.159.138zm-7.608-.645c1.229-.184.24-.201.328-.231.82-.308.465-3.01.967-1.121.327-1.945-1.464-1.373-1.403.162-.036.242-.463 1.775.108 1.19zm4.12.091c.86-1.077-.113-3.871-1.693-2.57-1.027-.312-1.351-.513-.91.72.469.703 1.512 2.566 2.604 1.85zm-1.74-.314c-.6-.898-.408.876 0 0zm2.443-1.37c-.8-1.587-.548-.334.11.409zm1.414-.71c1.134-.338 2.8-.315.757-.41-.128-.018-1.55.381-.757.41zm10.075 5.241c-1.598-1.63-1.53-4.043-1.96-5.972 1.441-1.943 3.379 2.275 3.815-.22 1.585-1.707-1.406-2.325-1.77-4.062-1.036 1.467-1.783-1.641-.175-1.32-.18-1.554 2.977-1.675 2.398-1.81 1.059-.192 2.437.487 2.076 1.938-.225.959.945 4.366-.049 2.267-1.017-.207.624-1.691-.489-1.357-.549 1.623-2.037-1.512-2.924.375-1.126-.548.611.91-.474.421 1.088.93 2.737 3.534 3.731 1.077-.816.899-.919 2.793.61 1.691 1.81-2.447 3.798 1.09 3.52 2.96.673 2.502-.831 4.984-3.634 4.19-1.549-.142-3.179.316-4.675-.178zm1.215.023c.868-.983-1.663-2.101-1.897-2.671-.734.94.717 3.213 1.897 2.671zm6.396-.375c1.376-1.405-.126-2.525-1.48-1.937-1.024-.748-4.543-2.5-4.547-1.256.02 1.299 2.68.48 3.177 1.94.837.602 1.75 1.342 2.85 1.253zm.503-2.994c-.1-.897-.138-3.3-.766-3.096.516 1.21.695 3.125.277 3.82.7.346.59-.288.489-.724zm-8.709.413c-.294-.497.79-.875-.388-.649 1.3-.684-1.16.034.368-.7-1.491-.564-1.127 2.167.02 1.35zm-.662-1.732c-.718.176-.195 1.015 0 0zm2.402.048c-1.397-1.116 1.088 1.104 0 0zm.676-.523c.677-.85.365-2.226.034-.52.052-.128-.273 1.13-.034.52zm-2.089-.475c.537.227-.888-.805.408-.218-.92-.584-2.614-.186-.907.173.153.09.338.134.5.045zm4.809-.697c1.039-.15 1.879-2.1.646-.59-.725.542-2.557.693-.76.636l.114-.045zm-5.272-4.551c1.334-.081 1.608-1.357.523-.254-.445.213-1.028.427-.523.254zm1.596-1.005c-.4-.787 1.453-1.473-.163-.68-.164.127-.286.952.163.68zm2.086-.086c.399-.722-1.064.5 0 0zm-16.345 5.471c-.898-.95-1.729-1.168-2.678-.765-2.044-1.137 1.297-2.091-.197-3.395-1.364-1.493.806-2.165 1.803-1.647-.087-2.132.129 1.17 1.153-.034 1.352.894 3.49-2.064 4.227.4-.648 1.36-1.701 2.21-2.104 3.772-.45.836-.923 2.334-2.204 1.67zm1.011-.191c1.281-.489 1.54-2.988.196-3.395.81 1.469-1.124-1.029-1.338.606-.807.565 1.503-.082-.335.32-1.173.048-.488 1.262-1.144.13-1.133.917 1.015 1.547 1.602 2.298.322.125.688.15 1.02.04zm-.697-.448c.075-.996 2.065.277 0 0zm1.022-1.181c-.088-1.056.678.593 0 0zm-1.105 0c-.236-1.328.909.67 0 0zm-2.047-.04c-.385-1.468 1.018.325 0 0zm2.877-.696c1.194-.776 1.07.044 0 0zm.086-.723c-.856-1.19.481.894 0 0zm-15.785 2.91c-1.648-.103.04-2.211.318-.499.773-.39 1.828-1.011 1.798-1.441.316 1.545-.634 2.4-2.116 1.94zm1.685-.534c-.27-1.025-1.5.534 0 0zm-4.33-.29c-.894-1.436 1.187-3.352-.212-4.516 1.583-.678 4.122.095 5.706.599.58 1.108-1.749 3.451-.457 1.72-1.191-1.038-2.942.097-3.102 1.626-.63 1.474-2.027-2.123-1.404.262.596.519-.358.603-.532.31zm1.661-.983c-.26-1.852-1.389 1.112.064.214l-.035-.118zm-1.41-3.349c1.679-.6-1.4-.262-.096.32l.095-.32zm3.086 3.49c-.401-1.032 1.041.09 0 0zm29.623-.384c.099-1.04.845.604 0 0zm-.203-.395c1.253-1.055.195.413 0 0zm-29.625-.085c-.598-.428 1.48.195 0 0zm29.37-.57c.42-.733.892.513 0 0zm1.941-.15c.154-1.292.735.65 0 0z" style="fill:#60bfda;stroke-width:1" transform="translate(2108.507 -1673.4)"/><path d="M-2084.46 1723.546c.01-.497.638-1.932.236-1.781-.52.771-1.144-.031-1.545-.479-.58-.754-.69-1.939-1.563-2.411-.597-.746.765-.726 1.077-1.053-.426-.299-1.082.23-1.515.433.038-.52 1.954-.676.76-.74-.622.126-1.37.86-.521.035.271-.492-.877-.812-.872-1.388-.204-.824 1.061-.408 1.549-.559.74-.17 1.11.815 1.47 1.33.395 1.28.777.033 1.163-.573.367-.456 1.208-1.221 1.707-.726.166.88 1.406.432 1.745-.112.688-.43-.601-.856-.388-1.188-.26.805-1.076.974-1.824.862-.91-.465-1.779-1.21-1.775-2.316.144-.994-.761-.171-1.073-.853-.013-.846.334-.849.205-.025.897.725.264-.249.2-.754.151-1.483 1.778-2.318 3.159-2.09.747-.01 1.367.47 1.801 1.04-.062-.82 1.18-.7 1.675-.392 1.156.805.993 2.434.568 3.604-.242.435.23 1.802-.377.795-.134-.526.062-2.174-.128-.829-.27.567.34 1.403.453 1.4-.766.182-.605-1.9-.67-.78-.18.997 1.494 1.221 1.578.23-.384-.581-.1-1.476.728-1.27.65.343.16 1.346-.52 1.103.331 1.482-2.383 1.616-2.375.186-.084-1.064.702-2.372-.305-3.207-.258.032.146 1.3-.063 1.746-.24.693-1.151.512-1.048 1.351-.246.862.505.803 1.067 1.051.743.22 1.364.668 1.551 1.462.105.559 1.034 1.654.306 1.892.113.953.705 2.494-.31 3.235-.57.402-1.708.077-1.102 1.065.241 1.313.04-.139-.481.112-.568-.04-1.725.192-1.943-.012.734-.08 1.528-.024 2.227-.183.082-.87-.926-.481-1.469-.658-.954-.15-1.9-.49-2.737-.963-.021.794-.231 1.64-.525 2.356.018-.111-.138.224-.097.053zm.076-1.907c.782-.563-.29-1.046-.662-1.46-.355-.815-1.018-.12-1.419-.574.456.796.789 1.75 1.553 2.3.268.06.36-.081.528-.266zm5.376.174c.808-.045 1.297-.809 1.115-1.571-.131-.41.038-1.756-.496-1.537-.536.264-1.336.5-.858 1.233.383.787-1.005.66-1.484.846-.703.082-1.432-.016-2.057-.324-.553.544-.308 1.085.451 1.107 1.054.3 2.278.456 3.33.246zm-4.523-.734c.237.208.484-.413.656-.873-.868-.27-1.713-.6-2.556-.94-.228.551.93.966 1.32 1.399.236.102.699.522.58.414zm3.118-.453c.855-.014 1.272-.527.82-1.303-.353-1.271-1.416-2.83-.312-4.015-.698-.256-.983.821-1.647 1-.719.34-.987-.589-1.414-.634-.841.124-.143 1.238-.459 1.807-.183.749-.218 1.521-.35 2.279.812-.1 1.1.795 1.804.892.511.11 1.06.128 1.558-.026zm-3.49-1.47c.327-.722-1.082-1.028-.214-.22.377.89-.22.328-.423-.257-.69-.959-1.127-2.127-2.012-2.924-.499.182-1.842-.26-1.71.48.371.222.856 1.295 1.161 1.048.524-.055 1.47.825.556.83-.182.222-1.173.292-.546.468.645-.144.55-.645 1.325-.067.425.538.994.885 1.698 1.119.293.23.093-.37.165-.476zm-3.25-2.877c-.053-1.099.963.638.027.069zm-.736.07c-.478-.846 1.033.095.088.026l-.087-.035zm1.988 3.038c.86-.37-.01-1.056-.594-.994-.518.368-1.093.482-.048.613.355-.014-.486-.462.43.017-.844-.164-.554.89.213.378zm6.78-.797c.5-.357 1.56-.281.945-1.064-.322-.783-.571-1.996-1.604-2.043-.78.57-.477 1.715-.147 2.46-.069-.999-.064-1.418.153-.198-.293 1.027 1.157.393.203.81-.102.535.213.076.45.036zm-4.622-.24c-.086-.464.326-1.144.247-1.796.204-1.115-.597-.107-.834.322-.394.44-.787 1.3.09 1.422.137.015.469.318.496.051zm6.156-3.497c.418-.343-.924.572-1.301.018-.405-.55-.58-1.309-.343-.165.267.503 1.293.5 1.644.147zm-4.497-.033c.654-.224 1.147-.803 1.21-1.498.641.022 1.247-1.029.555-1.338-.54.125-.953 1.46-1.115.28-.1-.46-1.3-.943-1.233-.962.888.722.217.71-.252-.014-.058-.747-.03-1.28-.434-.27-.114.747.77.943 1.343.994-.34.203-2.088.118-1.08-.02.714.015-1.133-.37-.752-1.131-.028-.161-.562.862-1.06.982-.189.493 1.2.409.102.407.165.898.32 1.93 1.233 2.378.45.4.96.582 1.483.191zm-1.082-.365c-.696-.514-.4-.908.047-.12 1.09-.175.955.181-.047.12zm-1.09-1.27c-.761-.537.43-.633.278.095.084.316-.337.123-.278-.095zm1.518-.202c-.29-.775 1.384.167.585-.039-.314-.367-.346.41-.585.04zm2.145-.224c.083-.398.547-.69.116.038-.01.135-.397.13-.116-.038zm3.956 1.054c.658-.505-.514-1.111-.741-.472-.246.435.495.884.74.472zm-1.423-1.971c.112-1.04-.603-2.2-1.747-2.135 1.263.181 1.872 1.565 1.652 2.72-.062.626.184-.533.095-.585zm-6.604-1.541c.245-.491 1.388-.82 1.425-.923-.932.122-1.89.824-1.988 1.814.152-.327.277-.654.563-.891zm3.952.149c.056-.547-.797.554-.031.023zm.59-.088c-.904-.477.401.84 0 0zm-.997-.622c-.784-.374-1.205-.36-.164.044.063.09.536.126.164-.044zm14.247 13.43c-.19-1.003-.753.185-.86.282.477-.79-.654-.954-.714-.095-.415.508.384-1.473-.532-.411-.627.878-.494.129-.01-.37 0-.234-.068-1.18-.76-1.073-.635-.211-1.229-.556-1.628-1.112-.738.073-1.07-.914-1.217-1.512.485-.67-.43-.57-.913-1.032.453-.793.633-.12 1.126.353.487.425 1.042.522 1.167.75.318.582.646 1.118 1.41.895-.696-.706.422-.429 0-.154.648.312 1.482.115 2.172.01.387-.415.488-1.125 1.36-.598.371-.068 1.746.576 1.336-.211-.08-.66-.452.216-.163-.826-.576-.807-.285-1.862.079-2.702-.954-.115-1.276 1.49-2.324 1.142-.726-.248-.114-1.319-1.175-.591-.493.533-.624 1.368-.785 2.026.714.073.473-1.126.805-1.624.438-.43-.183 1.002-.174 1.353-.07.466.795.775 1.19 1.132-.585-.125-.985-.805-1.695-.739-.67-.155.21-1.29.19-1.857.142-.486 1.392-.995 1.38-.397-.256.825.877.708 1.193.219.702-.6.865-.775.302-1.395.285-.717-.87-1.017.158-1.067.516-.57.238-1.537.011-.358-.781.346.038-.197.143-.71-.27-.724-1.076 1.05-1.175.39-.825-.831.221-.171.794-.699.627-.032.493-1.381.64-1.196.398.647-.485 1.173-.028 1.79-.135.877-.017.998.422.17.196-.793.23-1.771-.546-2.272-.644-.455-.429-.818-1.369-.945-1.18-.25-2.51.665-2.407 1.938.016.258-.898.457-.601 1.35.1.591 1.245-.018.93.918-.45-.34-.873-.754-.34.229.488 1.03.837-.214.8.374.02.693 1.145.69 1.603.313.793-.666 1.02-.522.144.127-.814.763-1.787-.126-2.536-.547-.225-.674-.823-1.248-.808-1.97-.588 0-.368-1.22.13-1.496.938-1.04 2.448-1.815 3.83-1.171.195-.326.535-1.199 1.274-1.004.831.171.24 1.37.946 1.384.86-.027.19 1.683.573 1.019.19-.574-.223-1.326-.669-1.323.945-.185 1.048 1.171.548 1.73-.798.91 0-.435-.147-.914-.297-.718-.955-.267-1.317.048.848.843-.057 2.106.357 3.035.25.115.77-1.226.523-.65-.536.564.542.852.864.367.556-.46.414-1.668-.462-1.546.828-.528 1.302.767.82 1.333-.323.776-1.992 1.095-2.013-.014-.02.208-1.3.416-.974 1.098-.12.703.61.8 1.091.84 1.28.098 1.592 1.59 1.722 2.65.169.573-.103 1.235.012 1.888.183.732-.418 1.558-1.209 1.284-.82-.197.532 1.26-.368 1.134-.233.404 1.327 1.369.622 1.223-.371-.463-1.052-.935-1.071-.694-.475-.31.718 1.04.11.677-.188-.799-1.417-.93-.716.034-.03-.498-1.053-1.15-.87-.283.196.53-.17.488-.202.054zm1.368-1.025c.929.169 1.05-.568.542-1.141-.81-.287-1.543-.727-2.268-1.184-.49.289-1.539-.09-1.592.59.115.541-.616 1.674.15 1.795 1.04.178 2.148.075 3.168-.06zm-3.663-.855c.36-.708-.899-.46-1.171-.959-.659-.743-1.143.045-.353.517.401.152 1.19.81 1.524.442zm5.617-.582c.402-.508.29-1.66.085-2.063-.565.078-1.5.114-1.088.893-.877-.162-1.767-.26-2.624-.516-.364.88.892.993 1.396 1.42.705.139 1.602.734 2.23.266zm-5.477-.243c.344-.747-1.461-.545-1.48-.405.326.179 1.392 1.002 1.48.405zm-2.227-.437c.906-.658-1.425.308-.198-.308 1.16-.609-.72-.067-.637-.09.447-.259 1.335-.742.278-.398-.285.07.831-.676-.315-.154-.536.116.154 1.275.641 1.106.078-.05.152-.11.231-.156zm-.65-1.164c.882-.446-1.208.047-.413.178.15-.03.278-.113.414-.178zm7.666-.472c.87-.034 1.208-.25.819-1.133-.158-.76-.595-1.945-1.532-1.75-.322.667-.395 1.466-.122 2.16-.015-.475.258-2.177.199-.855-.01.682-.276 1.675.704 1.163-.64.086-1.192.872-.068.415zm-8.578-.411c-.35-.515-.954-.08 0 .065zm2.716-6.251c1.106-.194-.313-.807-.373.04.155 1.143-.082.462.373-.04zm.494-.728c.745-.798-.201-.496-.468.117-.25.232.578.135.468-.117zm4.694-.944c.408-.807.174-.392-.214-.28-.016-.519-.724-.394-.35.21.035.284.434.274.564.07zm-.694-.761c.508-.423 1.314.205.275-.277-.437-.205-.86.908-.275.277zm-35.787 13.607c-.129-.569.024-1.234-.042-1.901.234-.974-.486-.761-.942-1.377-.152-.61-.416-1.432-.18-1.918.42-.666.46-1.63 1.222-2.092.516-.198 1.38-.645 1.7-.563.092.573 1.115 1.195 1.148 1.196-.59-.063-.936-.667-1.286-1.033-.736.099-1.218.239-.456.782.251.24-1.351-1.072-.472-.159.54.561.294 1.408.35 2.11.98-.381 2.02-.652 2.893-1.26.203-1.127-.116-.46-.865-.379.467.113 1.306-.826.555-1.095.187.76-.943.892-1.218.437.43.404 1.563-.344.663-.664-.644-.083-.746-1.437-.478-1.407.03.718.93 1.043 1.555 1.131.816.194.718-.791 1.124-1.216.182-.786-.056-.294-.234-.277-.033-.503 1.14-.289.748-.896.535-.845-.824-.407-1.296-.794-.607-.16-1.302-1.373-.98-.1-.803.206-.408 1.588-1.105 1.009-.187-.469-.857.665-.311-.33.584-.422-1.171.076-.346.767.836.116.58.533.482 1.302-.103-.461-.185-1.074-.722-1.453-.292-.812-.593-1.995.142-2.633-.787-.047-.528-1.296.213-1.081.331 1.033.198.096.937-.26.7-.468 1.45.147 2.186-.102.744.573 1.59.965 2.17 1.735.233.362-1.374-.584-1.048-.074.798-.175 1.26.638.877 1.301-.491 1.093-.273-.169-.446-.026-.406.54-.64 1.182-1.033 1.598-.254.526-.365 1.265-.811 1.646-1.06.23-.088.425.356.871.354.566.884.98 1.501.428.646-.159.992-.557 1.229-1.261.367-1.091 1.675-.737 2.55-.687.455.463-.42 1.113-.723 1.5-.687.533 1.062.563.236 1.391.06.832-1.003.754-1.192 1.268-.634.477-.45.01-.731.215-.626.75-1.4 1.62-2.477 1.347.04.57.123 1.56.938 1.326.86-.34 1.316-1.35 1.779-2.118.505-1.153.073.17-.222.582-.43.777-1.115 2.018-2.167 1.633-.604-1.06-.216.483-.302 1.04-.453-.072.12 1.523-.352.378-.919-.472-.97.736-1.22.057-.79.019-.42.24-1.404-.033-.76-.035-1.52-.073-2.28-.058-.054.335-.209.818-.213.196zm4.03-.584c.945.165 1.684-.293.323-.203l-4.265.03c-.042.596 1.232.066 1.723.207a45.672 45.672 0 0 1 2.22-.034zm1.213-.346c.048-1.247-.051-2.553-.06-3.823-.837-.262-1.359.315-2.008.733-.955.564-1.988.95-3.055 1.243.186.562-.408 1.857.37 1.865 1.577.049 3.193.038 4.753-.018zm-4.747-2.243c1.37-.38 2.721-1.077 3.856-1.837.695-.07 1.446.052 2.108-.129-.177-.435-1.74-.229-.45-.33 1.307.057.21-.375-.48-.256-.935.234.737-.443 1.085-.08.971.143-1.122-.631.306-.331.38-.453-1.096-.3-1.483-.196-1.333.041-2.428.884-3.687 1.246-.767.249-1.544.55-2.061 1.202.251-.634 1.331-.934.109-.981-.864-.167-.913.694-.714 1.307.107.746.924.572 1.41.384zm6.128-.226c.331-.151 1.616-1.142.874-1.182-.448-.19-1.887.315-1.413-.01-.62-.555-.867.213-.634.91-.131.745.8.443 1.173.28zm1.993-1.416c.56-.25.993-.423 1.137-1.042.525-.577-.39-1.067-.672-.802.314.413 1.141.538-.01.276-1.215.34.947.31.45.574-.368-.076-1.45-.452-1.43.094 1.193.178.335.158-.209.43-.26.25.571.89.734.47zm-.71.057c-.604-.315.041-1.002.32-1.48 1.238.197.092-1.15.99-.906.376-.125 1.537-1.446.687-1.127-.686.136-1.807-.364-2.024.578-.241.579-.683 1.156-.65 1.75-.222.363-1.213 1.279-.28 1.167.304 0 .724.056.956.018zm-8.093-.374c.824.242 1.218.258.995-.754.108-.49-.41-1.752-.932-.997-.262.346-1.002 1.482-.48 1.573 1.328 0 .48-.056-.322.145-.838.492.584-.098.74.033zm4.768-1.221c.582-.01-.264-1.518-.496-1.068.155.473-.327 1.483.496 1.068zm.683-.13c.139-.528-1.034-1.307-.398-.32.053.178.213.698.398.32zm1.815-.303c-1.326-.093.17.6 0 0zm2.36-1.688c1.06.136 1.077-.258.018-.172-.562-.197-1.904.375-.718.173l.7-.001zm-2.525-3.163c-.4-.703-.06 1.417.015.06zm-1.58-.662c.836-.337-1.474.332-.73.187.26-.022.517-.012.73-.187zm.207-.93c1.263.083.326-.189-.373-.19-1.62.427-.291.138.373.19zm-3.731-.038c.088-1.16-.784.32 0 0zm2.457-.391c.616-.17 1.558-.28.432-.3-.451.023-1.68 1.08-.7.439.085-.053.18-.091.268-.14zm-1.172-.288c-.107.328.146.094.997-.16-.315-.113-1.221-.075-1.54.428-.412.54.455-.38.543-.268zm27.933 10.078c-.539-.733 1.124-.213 1.546-.369.44-.205-1.171-.151-1.575-.165-.097-.31-.713-1.358-1.335-.916-.605.07-1.488-.238-1.439-.873 1.04-.566-.393.215.453.504-.099-.362.63-.842 1.315-.616.827.52 1.047 1.947 2.254 1.809 1.233.147.21.567-.472.422-1.344.029.043.466.658.267.442-.072-1.07.201-1.295.098l-.07-.102zm-.604-1.691c-.628-.996-.517.341.254.424.142.07-.266-.386-.254-.424zm-.884-.085c-.742-.499 1.084-.307-.266-.526-.716.327-.085.615-.156.444-.066.253.612.513.422.082zm-26.556-3.153c-.643-.915.135-.152.275.288-.106-.015-.198-.234-.275-.288zm.977.214c-.068-.88-.061-.013.608-.132.425-.442-.192.624-.608.132zm29.37-.544c-.562-.675.247-.958.344-.016-.114.02-.249.17-.345.016zm-29.594-.484c-.12-.143.015-1.019.378-.281.092.202-.252.51-.378.281zm33.383 0c.91-.55.266-.108.681-.173.53-.45-.304-1.462-.604-.746-.075.762.884-.214.259.576-.937-.072-.501-.517-.522-1.176-.07-.611.29.21.197-.928-.314-.872.46.767-.112 1.141-.058 1.216-.09-.151.605.069.68.205.587 1.193-.066 1.31-.11-.052-.465.107-.439-.073zm-32.723-.937c-.79-.168-1.165-.27-.087-.252.365.12.624.673.087.245zm28.81.078c-.623-.076-1.358-1.015-.669-1.414-.29.762.47 1.4 1.197 1.306.275.238-.422.189-.528.108zm.648-.321c-.52.057-1.331-1.15-.73-.473-.26-.532.613.414 1.106.293-.309.245-1.45-.623-.767-.048.375.472 2.245.02 1.363.304-.324.12-.68.081-.972-.076zm1.156-.532c-.353.031-.452-1.072.108-1.182.631.056.27 1.35-.075 1.014.221.064-.177.388-.033.168zm.259-.621c.162-.407-.489-.4-.182-.078-.153.73.078-.269.182.078zm-.975-.194c.503-.734 1-.724.108-.059-.035 0-.146.26-.108.06zm-2.067-4.005c.586-.73-.719-.303-.987-.843-.62-.467-1.077-1.13-1.363-1.85-.566-.029-1.051-.94-1.166-1.51.24-.696-.627-1.062-.93-1.596-.445-.596.833-.507 1.257-.482.96.035 1.27 1.257 1.892 1.853.185.373 1.446 1.402 1.113.46-.245-.96-.037-2.142.65-2.857.43-.224 1.43-.791 1.259.13.783.149 1.39-.378 1.963-.824-.711-.405-.633-1.254-.435-1.933.817.276 1.38-1.096.47-1.306-.65.475-.695 1.031-1.245.018-.19-.435-1.68-.928-1.246-.319.395.183 1.543.475.48.387-.641-.35-1.423-.149-1.952-.708.2.952-.447.87-.79.063-.261-.88.66-.94 1.09-1.434.575-.504 1.41-.85 2.182-.684.215-1.008 1.788-.745 1.914.2.919-.466 2.09.295 1.987 1.333-.017.436-1.029 1.582-.147.837-.359.618-.355.534.255.99.351-.742-.08 1.18-.146 0-.475-.232-1.289-.248-.533-1.104.78-.728.116-2.21-.954-1.995-.962.047.577.708.263 1.301.023.651-.562 1.484.014 2 1.223-.063-.243.404.283.924.657.15.995-.758.438-1.124.783.036.518 1.43-.277 1.239-.56.103-.458-1.863-1.028-.982-.131 1.085-.606.849-.996 1.012-.362.67.318 1.172.765 1.261.134.603 1.227.57 1.183 1.397.086.963-.056 1.953-.055 2.926-.385.65-.12 1.585.077 2.317.34.824.012 1.025-.903.87-.058-.16-.517-.5-1.378-.318-.854-.12-1.401.113-1.882.4-.343-.029-.884.057-1.122-.044zm1.378-.18c-.065-.61-1.824.126-.732.166.207-.077.811.184.732-.166zm3.684-1.005c-.127-1.126-.43.429-.11.782.058.145.204-.638.11-.782zm-.995.577c-.266-.13-1.334-.173-1.86-.473-.633-.204-1.234-.503-1.828-.784.017.631-.29 1.644.716 1.358.972-.065 2.066.102 2.972-.101zm-3.97-.085c.352-.774-.067-.85-.682-1.126-.254-.254-1.605-.993-1.414-.41.454.73 1.1 1.684 2.06 1.595l.037-.06zm4.26-.398c.671-.37.42-1.312.62-1.948-.238-.34-1.51-.682-1.206.219-.103.655-1.263.21-1.79.14-.918-.266-1.866-.461-2.738-.865-.204.86-1.074-.01-1.171.34-.118.946 1.049.47 1.48.902.643-.145.882.31 1.664.602.947.355 2.144 1.016 3.14.61zm-4.152-.662c-.15-.604-1.48-.628-.444-.072.092.012.482.305.444.072zm3.317-1.068c.06-.89.068-1.774-.144-2.633-.146-.798.49-1.444.62-2.156-.57.675-1.353 1.235-2.28 1.093-.062-.96-.566-.275-1.133-.15-.54.528-.673 1.385-.805 2.114.58-.272.357-1.334.837-1.722-.264 1.209.02 0 .389-.4-.23.274-.334 1.232-.7 1.687-.472.525-.482 1.238.041 1.68.65.406 1.641.485 2.432.675.207-.08.856.19.743-.188zm-5.728-.072c.673-.136-1.35-.347-.044-.337.954 0-.901-.69-.601.107.263.606.245.132.645.23zm-.31-.667c1.015-.157-.26-.504-.665-.19-.133.487.385.229.666.19zm7.65-.676c-.037-.819.28-1.822-.287-2.496-.636-.664-1.373-.09-1.292.715-.082.453.1 1.734.3.704.623-1.075.01.223-.014.686-.389.911 0 1.082.854 1.116.642.424.34-.366.439-.725zm-7.856.288c1.117-.035-1.012-.54-.614.088.152.068.426-.093.614-.088zm1.132-.209c-.487-.723-.917-1.846-1.986-1.64-1.127-.202-.088.78.351.999.58.364 1.22.685 1.842 1.004-.064-.122-.154-.239-.207-.362zm-2.033-1.202c-.77-.926.98.403.198.204-.055-.051-.154-.18-.198-.204zm.578 1.083c-.075-.85-.88.376 0 0zm.272-1.734c-.27-.238-1.817-.192-1.595.074.353-.12 1.76.168 1.595-.074zm6.769-3.205c-.748-.315-.206.712 0 0zm-.657-1.752c.835-.943-.712.973.384.097.437-.575.11-1.22-.23-1.544-.768-1.165-2.533-1.095-3.437-.129-.16.593-1.211.278-.883 1.131-.073-.044.746-.98.939-.035.763.776.185.059.027-.458.16-.775.968-1.262.189-.24.206 1.095.311.498.476.46.134.848 1.029-.274 1.29-.668.125.16-.858 1.256.27 1.374.676.434 1.31-.625.569.298.136.238.31-.211.407-.286zm-.949-.395c-.155-.047.783-1.2.725-.943-.18.331-.579.965-.725.943zm1.942-.83c.38.702.258-1.124-.214-.274-.185.816.31.013.214.274zm-.43-.81c.306-.297-.198-1.022-.763-.997-.81.094-.732.774-.042.212.052-.025-.823.693.269.296.265-.021-.208.838.266.137-.71-.727.372-.145.23.47.06-.01.188.035.04-.118zm-18.759 12.765c-.455-.194-1.274.267-1.73-.274-.533-.658-.28-1.67-.166-2.456-.376-.537-.15-1.235.177-1.833.395-.999.87-2.14 2.055-2.355.793-.337 1.02-.241 1.298.464.574.376 1.874-.237 1.312-.951-.289-.636.514.693 1.037.598 1.46.286 1.436 1.992 1.744 3.143.747.365-.027.872-.238 1.402-.032.99.53 1.014 1.127.344.31-.473 1.452-.699 1.353.127-.04.738-.976 1.07-1.476 1.543-.874.508-2.023.13-2.516-.732.32.878 0 1.18-.88.999-1.011.013-2.022.063-3.033.09l-.061-.107zm2.27-.093c.556-.174 1.97.384 1.56-.6.156-.875-.327-1.297-1.154-.9-.76.505-1.545 1.208-2.53 1.195.639-.35 1.37-.543 1.98-.955-.65-1.16-.059.147.528-.347.201-.728-.08-1.285-.845-.607-.911.561-2.027.52-2.963 1.006.526-.505 1.36-.769.143-.49-1.083.492.34-.452.838-.266.326-.98-.497-.363-1.115-.853-.713-.386-.523 1.038-.609 1.482-.156.751.494 1.503 1.267 1.206.911-.385.48.38 1.372.164l1.529-.035zm3.877-.236c.403-.275 1.467-.732.907-1.19-.379-.688.792.75.792-.37-.178-.818-.948-.055-1.326.222-.55.252-1.22 1.27-1 .09-.029-.46-1.405-.065-1.587-.01.14.966 1.316 1.91 2.214 1.257zm-5.235-1.756c1.003-.245 1.878-.783 2.623-1.47.884.01.073-.916.24-1.45.05-1.267.14-.524.232.307.024.859.262 1.459 1.214 1.201.93.242.027-.86.093-1.367-.141-.74-.39-1.645-1.272-1.746-.644-.417-.655.859-1.343.851-.826.475-1.845-.201-1.897-1.114-.841-.349-.43 1.287-.612.67.04-.861-1 .021-1.135.413-.36.708-.643 1.492-.923 2.22.192-.017-.218.341.714.518.614.61 1.22-.044 1.205-.728.118-.762.271-1.904.189-.474.066.766-.155 1.547-.213 2.27.213.206.696-.075.884-.101zm2.378-.896c.588-.505 1.517-.122 2.254-.24 1.221-.065-.64-.209-1.038-.139-.524-.362-1.81.566-1.391.534 0 .087.178-.24.175-.155zm-.276-3.109c.58-.45.383-1.357-.126-.44-.515.537-1.608.408-1.702-.413-.737-.08.04.943.382 1.08.464.185 1.09.182 1.446-.227zm-18.969 5.584c-.426-.2-1.333-.157-1.503-.89-.346-.679-.106-1.52-.12-2.256.224-.842.404-1.739.895-2.465-.758-.826-.833-2.108-.148-2.996.888-1.25.359-3.285 1.896-4.086.605-.292 1.153.124 1.673-.456 1.462-.507 2.565.9 3.542 1.752.79 1.011.737 2.752-.245 3.585-.279.424 1.019.095.626.971-.362.632-1.256.382-1.701.09-.465-.257-.012 1.407.482.641-.995.211-.186-.82.302-.127.239.917-1.017 1.17-1.576.622.31.505.229 1.82.884 1.72.965-.12 1.293.666.113.462-1.26.2 1.51-.332.18-.331-.88-.016-1.586.691-2.405.924-.182-.487-1.03.484-1.51.543-.7.442-1.526.596-2.345.602.834-.297.716-1.349 1.115-2.022.112-.882.065-1.039.25-.512.184-.546.263-1.623-.393-1.78-1.1.644-1.23 2.098-1.514 3.232.017.85-.216 2.087.79 2.447.407-.035 1.672.124 1.312-.575-.423-1.208.57 1.031.282-.083-.242-.777-.047-.855.15-.047.249.632 1.087-.389 1.507-.507.499-.56 1.426-.433 1.87-.96.42-.587 1.353-.669 1.98-.348.545-.345.256-1.163 1.003-1.052.616-.526.745-1.58 1.49-1.905.56.022 2.1-.238 1.283.696-.229.6-1.015 1.054-.768 1.751-.446.324-.901.894-1.467.93-.09.518-.568 1.23-1.207.957-.749.6-1.83 1.02-2.735.694-.6-.861-.222.342-.26.762-.406.314-1.45.034-2.09.129-.507-.073-1.285.147-1.638-.112zm3.526-.166c-.68-.156-1.655-.014-2.446.049.788-.04 1.779.108 2.446-.05zm-.162-.297c-.321-.453-1.11-.2-.705-.05-.47 0-2.25.165-.89.132.525-.035 1.1-.01 1.595-.083zm-.475-.436c.72.017.385-1.483-.256-.464-.873.514-1.188.683.017.491l.123-.014zm2.188-.05c.465-.199 1.813-.533 1.338-1.113-.03-1.037-.882-.045-1.511-.1-.58.089-1.68.145-1.107.98.35.299.84.442 1.28.233zm1.942-1.109c.086-.606-.379-.6.667-.463 1.056-.02.286-.588 1.196-.496-.24-.646.017.106.455-.53-.444-.66-1.078-.625-1.508-.036-1.185.416.652.586-.069.61-1.03.328-.111-1.08-.722-.581-.079.414-1.1.958-.471 1.588-.182-.84-.055.088.358-.012-.349.397.158-.16.094-.08zm-6.273-.11c.947-.203 1.617-1.056 2.608-1.135-.02-.923-.042-1.931-.336-2.778-.628-.48-.473.837-1.323.616-.418-.038-1.537-1.251-1.315-.542.652.78.344 1.81-.06 2.622-.197.917 0 .538-.375 1.232-.11.458.625-.03.8-.014zm4.606-.211c.815-.076 1.102-.727.104-.513-.733-.04-1.208.906-.104.513zm-1.003-1.265c.348-.433-.291-1.375-.478-1.95-.583-.862-.837-.132-.484.57.296.454.099 1.95.872 1.427zm4.004-.588c.633.389 1.105.216 1.398-.51.776-.764-.772-.264-1.195-.376.081-.778 1.32-.19 1.723-.497-.428 0-1.352-.305-1.706.18-.046.381-.992 1.596-.578 1.35.12-.07.197-.202.358-.147zm-8.474-3.172c1.203-.19.112-.447-.266.202-.09.701.048-.132.266-.202zm6.472.275c-.781.314-.717-.792-.576-1.03-.716.352-.152 1.5.576 1.03zm-2.242-.494c.503-.64.569-1.556.795-2.323.078-.896-.839-.463-1.326-.841-.428-.033-.966-1.767-.657-.613.626.891-1.028.916-.84 1.633-.365.987-.652.012-1.177-.13-.634.307-.111 1.452.522 1.119.29 1.032 1.544 1.74 2.516 1.345.019 0 .161-.213.167-.19zm-1.36-1.06c-.358-.872 1.095-.333.26.028-.078-.035-.212.09-.26-.029zm.295-.234c-.155-.73-.433.63 0 .083zm1.034.208c.392-.103.065-.774.38.03-.088-.039-.422.146-.38-.03zm-3.308-.622c.17-.753.763.012 0 .082zm2.033-.453c.985-.278.79.278-.13.092-.224.026.115-.066.13-.092zm-3.353 1.655c.43-.623.434-1.56-.022-.372-.334.292-.39 1.089.022.372zm6.76-2.722c-.783-.611-.563-.28.098.22.169.05-.133-.203-.098-.22zm-1.917-.655c1.058-.24.706-.315-.128-.055-.654.208-.108.205.128.055zm-2.861-1.099c.54-.318-.983.235-.953.765.315-.254.551-.666.953-.765zm1.37-.216c1.252-.329-.316-.362-.516.266.015.141.389-.274.517-.266zm2.983 9.653c-1.042 0-.718-.284.153-.099.365.02-.055.145-.154.106zm10.908-3.898c-.771-.417-1.512-1.134-1.335-2.095.185-.667-.951-.363-.808-1.184-.05-.454-1.325-.314-1.129-1.197-.132-1.156 1.09-2.099 2.19-1.742.644.206.885.768 1.601.416.635-.109 1.268.282 1.744-.282 1.372-.629 2.626 1.606 1.397 2.46-1.02-.02-.35 1.103-.607 1.645-.575.374-.753.896-1.171 1.406-.449.451-1.268.957-1.882.573zm1.09-.285c.7-.125.997-.867 1.258-1.325.664-.066.944-1.387.045-1.205-.453.775-.77.491-.934-.172-.64-.367-1.758-.288-1.668-1.289-.383-.963.455 1.18-.232.627-.632-.064-1.52.352-.93.944 1.419-.174-.71.609.542.65.934.043-.073 1.325.194.293-.337-.012-.156.606-.4-.226-.54.148.038 1.285.528 1.494.425.475 1.056.491 1.598.209zm-1.114-.4c-.13-.632.195-.466.13-.037.888-.127.54.237-.13.042zm.753-1.005c.049-.672-.818-.186.07-.506.272.152.388.768-.07.506zm1.47-.394c.267-.963.33-.092.107.027.155-.09.737-.435-.117.206.08 0-.081-.246.01-.233zm-1.976-.574c-.984-.251.66-.396.805-.02-.112.15-.574.02-.805.02zm-2.731-1.192c-.955-.311-.422-1.745.365-1.966 1.172-.29.021-.352-.481.05-.477.517-.785 1.675 0 1.99.126-.03.576.032.12-.075zm1.239-1.08c.438-.845-1.042 1.095-.413.627.125-.218.253-.432.413-.627zm-.664-.517c.281-.331-.431.055-.323.187-.517.821 0 .024.323-.187zm4.82.467c-.714-1.085-.496.103 0 0zm-3.42-.697c-.993-1.095-.184.475 0 0zm2.865-.133c1.126-.19.912-.297-.104-.05-.398.193-.202.347.104.05zm12.612 5.563c-.654-.29-1.041-.893-.982-1.609-.825-.6.686-.937-.195-.353.676.238.066 1.173.716 1.523.571.697 1.549.686 2.191.091.616-1.116.23.4-.353.608-.53.064-.977.165-1.377-.26zm.13-.436c-.316-.143 1.53.034.186.137-.083.014-.122-.128-.186-.137zm4.214-.668c.552-.622.843-.478.106.05-.037-.014-.147.042-.106-.05zm-4.959-.37c-.505-.815.886.073.142.291l-.142-.292zm1.474-.092c-.518-.721.94-.411.576.058-.253.124-.562-.572-.465.113l-.068-.104zm1.764-.413c-.247-.667.91-.462.066-.136.164-.082.134.453-.066.136zm-34.83-5.678c-.387-.292-1.204-.136-1.605-.638-.827-.746-.5-2.001-.39-2.977.206-1.068.322-2.675 1.675-2.832.728-.397 1.335-.294 1.799.408.44.393 1.447.028.963-.594.116-.406 1.23.184 1.6.446.584.533.421 1.44.703 2.06-.394.036-1.49-.044-1.69.854-.386.805-1.148 1.269-2.033 1.288-.64.17-1.398-.186-1.916.335 1.067-.633-.115-.723-.735-.602-.77.106-.226 1.168.138 1.506.943.836 2.341.17 3.331-.281 1.016-.725.572.096-.046.535-.405.59-1.435.138-1.683.62-.108.057-.063-.11-.111-.128zm1.587-.435c.915-.594-.982.22-.709.21.292.034.51-.01.71-.21zm.056-1.88c1.043-.063 1.288-1.26 1.872-1.932-.2-.752-.375-1.512-.74-2.204-.021.772-.79.868-1.362.582-.425-.467-.81-.957-1.47-.511-.766.127.559 1.094-.515.157-.134.318.574 1.033.468 1.632.148.813.029 1.645.055 2.467.566-.053 1.14-.04 1.692-.19zm-3.377-.034c.439-.39 1.59.158 1.43-.73.026-.87.014-1.737-.214-2.58-.859.316-1.133 1.471-1.358 2.307.017.237-.464 1.53.142 1.003zm6.094-2.32c-.083-.863-.506-1.77-1.455-1.91-.144.138.638 1.072.613 1.592-.16.707 1.052 1.122.842.318zm10.248 4.556c-1.2-.38-1.001-1.93-.98-2.93.01-1.2.146-2.972 1.617-3.207.625-.31.943.74 1.684.452.413-.34.732-.772 1.343-.24.516.508.812 1.187.927 1.895.636-.576.619-2.053 1.763-1.924.522.07 2.006-.288 1.555.606-.172.564-1.216 1.186-.78 1.71.572.578.065 1.49-.074 2.154-.302.728-1.334 1.102-1.859.403.075-.66-1.371-.438-1.076.345.185 1.02-.816.748-1.494.829-.862-.038-1.805.125-2.625-.093zm3.903-.483c.452-.919-.456-.72-.52-1.436.089-.588-.948.33-1.418.294-.425.232-2.015-.262-1.466-.326.71-.34.154-1.344-.64-.914-.936-.028-.793.872-.641 1.537 0 .854.768 1.451 1.595 1.27 1.014-.01 2.028-.013 3.042-.02l.049-.405zm2.367-.42c.52-.246.784-.868.843-1.42-.65.12-1.11.399-.422-.035.783.158.777-1.352.085-1.329-1.215-.733.463.566-.243.32-1.1-.136.784.433-.434.518-1.21-.075.607.38.119.834-.205.431-1.295.648-.573 1.134.21.1.437.142.625-.021zm-.314-1.82c-.447-.166 1.611.04.121.03l-.12-.028zm-.607 1.1c.71-.15.714-.858.18-1.098-.97-.52.856-.253.337-.57-.677.26-1.126-.7-.353-.739.698.016 1.441.287 1.718-.545.696-.706.49-1.158-.505-.94-1.404.066-.522-.126.367-.108 1.337.047.401-.31-.401-.162-.826-.222-1.272.3-1.497 1.024-.502.987-1.408 1.937-1.35 3.088.305.22 1.118.085 1.504.05zm-.082-2.761c-.177-.57 1.024-1.441.738-.6.036-.045-.376.958-.738.6zm-2.264 2.244c.667-.238 1.357-1.018.92-1.75-.2-.672-.378-1.427-.534-2.054-.657-.564-.588.762-1.399.466-.49.133-1.46-1.138-1.322-.19.414 1.255.048 2.705.543 3.902.596.106 1.213-.245 1.792-.374zm-2.898-1.066c1.032.218.488-.936.595-1.53-.02-.546.01-1.46-.677-.953-.846.693-.766 1.935-.904 2.932.28-.344.534-.458.986-.449zm4.284-.646c.278-.564-.477-1.343-.73-1.893-.152.161.258 1.27.375 1.761 0 .253.189.318.355.132zm12.992 3.516c.138-.745-1.13-.732-1.318-1.513-.336-.382-.738-1.342-1.176-.874-.353.34.244 1.336.475 1.86.298.688.997 1.027 1.706.732.73-.012-1.036.42-1.27.014-.905-.662-.987-1.882-1.432-2.808-.482-.914.51.649.928-.28 1-.629-1.264.325-.051-.339 1.06-.54-.714-.109-.549-.154 1.04-.255.804-.77-.097-.22-.62-.07 1.053-.6.56-.594-.768-.584-1.063 1.168-1.201.253.178-.68.61-.987-.185-1.53-.512-.733.659-.694 1.113-.676.781-.26 1.24.33 1.648.904.345.837.963.36.902-.361-.209-.855 1.07-1.243.938-1.62-.27-.634-1.098-.414-1.266-1.061-.082-.695-1.138-.536-1.071-1.45.136-.859-1.242-.582-.282-.327.042.785-1.293.394-1.087-.278-.305-.863.922-.569 1.025-1.156.508-.49.638-1.41 1.496-1.48.449-.295 1.746.582 1.012-.222-.872-.648.9.542.91.215.979-.676-.483.829.69.262.209.074-.506.265.468.611-.288.173-.921-.43-.188.341.293.606-.342 1.075.222 1.614-.224.648-.084 1.165.216 1.808.382.82-.444-.505-.392-.872-1.026.062-.269-.142-.016-.684.278-.737-1.077-.77-.842-.018-.021.88-.473-.943-1.335-.41-.455-.863-.342-.375-.912.155-.859.029-1.13.159-.341.643-.684-.204-.563.287-.02.608 1.021-.504.255 1.237 1.123.912.74-.235-.033.457.798.816.59-.17 1.263-.736 1.24-1.4.443.503-.274 1.15-.658 1.393-.405.508.514 1.154.993.7.578-.227.945-.953 1.318-1.262.734.377 1.99.582 2.183 1.629.23 1.902.807 3.96.076 5.807-.148.792-1.56 0-1.29.694-.583-.11-.105-.647-1.087-.929-.664-.521-1.118-.405-1.287-.937-.293-.347-1.546.473-.545-.105.45-.284-.803-1.102-1.306-.792-.839-.085-.26 1.162-.53 1.693.027.302-.285 1.861-.307.688zm5.894-.138c.618-.367.626-1.362.595-1.996-.32-.04-1.786-.409-1.275.25a13.133 13.133 0 0 1-3.777-1.95c-.665 0-1.372.071-1.976.35.71.25.202-.045.246.502 1.005-.396-.533.529.806.432.715-.023 1.253-.175 1.739.503 1.037.81 2.125 1.653 3.415 1.995.01.074.234-.184.227-.086zm-5.748-.912c-.478-1.023-.213-.443-.07-.642-.758-1.003.495.6.149-.619-.25-.245-1.026-.863-.864-1.31.917-.365-1.261-1.032-.3-1.246-.384-.498-.649-1.338-1.446-1.072-.755-.073-1.676.125-.7.833.607.517 1.48.916 1.454 1.852-.679.549.222 1.17.505 1.68.876.74.174.52.903.872.331.228.387-.092.368-.348zm-2.149-3.891c-.617-.75 1.063-.354.299.074-.112 0-.218.026-.299-.074zm6.587 1.853c-.057-1.006-.527-2.004.01-2.962-.046-.606 1.311-1.067.35-1.172-.685-.552-1.156-.016-1.559.553-.528.586-1.842.713-1.978-.275-.706.208-1.187.714-1.208 1.473-.544.76.298 1.034.654.37.32-.818.087.867.538 1.066.984.71 2.052 1.39 3.206 1.766.174-.16-.043-.578-.01-.819zm1.892-.059c-.127-1.17-.08-2.467-.635-3.511-.513-.714-.987.316-1.164.77-.057.328-.08 1.928.087 1.346.208-.875.427-.778.05.055-.033.668-.11 1.34.056 1.998.519-.223 1.365.29 1.645.054-.012-.237-.033-.476-.04-.712zm-9.424-1.12c.303-.863-.937.805-.284.323.077-.139.132-.255.284-.323zm2.778.139c-.459-.718-1.3-.7-.278-.063.15.24.672.464.278.063zm1.114-.23c.039-.644-1.506-.164-1.207-.162.279-.033 1.48.929 1.207.162zm-2.723-5.462c-.665-.036-.813-1.103.072-1.002.454-.238.5-.619.923-.268-.346-1.137-.884.096-.871.09-.654-.263-1.25.443-.812 1 .106.164.597.36.688.18zm1.734-1.475c-.361-.294-.23-.11-.141-.01-.185.086-.195.589.14.01zm.828.074c-.54-.4 1.149-.462.537-.742-.913-.42-.64 1.189-.537.742zm-1.38-.172c-.493-.56 1.005-1.198.565-1.178-.54.204-1.199 1.108-.491.112.64-.299.972-.444.054-.275-.622.307-.913 1.058-.193 1.366.028.238.225.164.065-.025zm3.19-.112c-.573-.818-.667-.541-.055.12.082.263.123-.037.055-.12zm-30.89 11.617c-.026-.638-.413-1.414-.155-1.486.777-.277 1.337-.603 1.242-1.49.094-.718.762-.907 1-1.517.446-.605.627-1.813 1.6-1.59 1.1-.1.186.908-.082 1.34-.37.641-.735 1.011-.569 1.626-.175.58-.806.906-.914 1.43.07.834-.837 1.457-1.555 1.66-.88-.972-.12.668-.567.026zm.84-.256c.47-.148 1.297-.807 1.115-1.518-.683.015-.956.273-1.302.89-.44.24-.394 1.014.186.628zm-.076-1.07c.337-.723-1.243-.02-.705.7.076.076.57-.519.705-.7zm1.481-.842c.818-.542-.49-.867-.959-.812-.655.468 1.092.243.738.677-.69-.425-1.336-.01-.426.415.307.078.46-.057.647-.28zm.558-.76c.65-.694-.578-.797-1.078-.81-.556.26.952.227 1.092.559-.363.228-1.279-.738-1.518-.016.525-.113 1.2.758 1.503.273zm.059-.912c.54-.553.834-1.33 1.265-1.977-.583-.42-1.41.122-1.564.834-.285.614-.933 1.227.081 1.235.093.033.144-.045.217-.092zm-3.444 1.521c.113-.491.52-1.368 1.18-1.212.723.147-.32 1.178-.676 1.309-.149-.05-.472.116-.504-.096zm14.043-3.99c-.579-.319-1.497-.679-1.509-1.46-.372.102-.738.918-1.408.205-.24-1.204-.42 0 .208.396 1.213-.26.348.378-.287-.05-.531-.46-.01-1.664-.61-.415-.275-.803.473-1.241.937-1.554.186-.869-.214-1.216-.797-1.723-.47-1.078.995-1.944 1.82-1.235.502.587 1.255-.283 1.928-.037.744.332 1.098.478 1.432-.31.772-.831 2.556-.245 2.323 1.004.208.66-1.367 1.438-.423.594.438-.882-.402.677-.961.26-.523-.33-.47-1.103.077-1.378-.763.027-.696 1.013-.268 1.435.468.394.107 1.539-.067 1.636-.609.148-.331 1.321-.792 1.818-.264.59-.975.965-1.603.813zm.973-.358c.804-.564.915-1.678 1.067-2.595-.407-.025-1.477-1.508-1.007-.588.877.834-.316.212-.427-.356-.355-.182.864 1.5-.132.314-.216-1.231-.052.15-.648.386-.916.39-.459.396-.497.63-.497-.621-.873.327-.845.15-.427-.74-1.27.318-.57.718.797-.047.772.633 1.376 1.121.496.257 1.17.619 1.683.22zm-.851-.355c-.295-.75.261.02.96-.289-.636.152-.988.237-.263.285-.16.097-.506.04-.697 0zm1.044-1.16c-.237-1.034.771.336.044.068zm-1.133-.075c-.09-.844.615.397.027.072zm-2.05-.043c-.385-.577.724-.672.054-.199-.039.293.523.34-.055.199zm2.88-.657c.509-.403 1.491-.275.31-.043-.066-.024-.35.204-.31.043zm-4.04.332c1.008-.173.567-.446-.14.019-.466.498-.216.247.14-.02zm1.087-1.404c-.132-.691.119-1.683-.114-.444-.138.482.406 1.564.11.444zm-.397-.836c.714-.562-.076-1.005-.371-.308-.13.208.34.756.371.308zm4.452-.109c-.293-.432-.915-.8-1.387-.772.66.072 1.062.605 1.535.973-.028.012-.126-.234-.148-.2zm1.012-.356c.595-.765-.942-.27-.23.15.112.04.15-.109.23-.15zm-5.84-.658c.423-.728 1.154.686 1.04.125-.381-.686-1.604-.248-1.589.497.17-.224.271-.506.548-.622zm3.351.4c-.21-.546-1.635-.238-.684-.256.268-.13 1.012.776.684.256zm3.34-.55c-.404-.633-1.052-.837-.247-.141.16.35.588.965.248.142zm-1.714-.255c1.032-.14.872-.353-.094-.061-.613.722-.44.769.091.055zm-16.872 5.628c-.665.1-1.275-.924-.51-1.242.256-.53.325 1.204 1.12.644-.09-.067 1.111.503 1.16-.274-.745.101-.27.148-.68-.236-.766.823.113-.603.495.102.554-.159.334-1.088.343-.966-.777.138.76-.535.125.45-.27.544 0 1.405-.755 1.584-.433-.016-.87 0-1.298-.062zm-2.751-.918c-.633-.43-.384-1.598.319-1.785-.281-.555.536-1.568-.112-1.703-.85-.286-.385-1.608.425-1.425.574.503.559.74 1.346.278.868-.155 1.606.222 2.33.655.53-.12 1.3-.438 1.303.485-.283.64-.711 1.132-.485 1.947.328.326-1.627-.105-.303-.161.387.11.208-1.434-.412-.614-.516.223-1.357-.376-1.622-.152.19.68-.458.81-.413 1.292-.39.347-.605.844-.734 1.34.166-.637-1.005-.352-.963-1.316-.318-.681-.781.905-.081.936.737.252-.43.717-.598.223zm1.727-.678c.213-.616-.549-1.424-.835-.582-.214.437.796 1.132.835.582zm.677-1.39c-.294-.72-.285 0 .038.284-.01-.077-.03-.24-.038-.283zm2.445-1.451c.141-.144-1.117-.16-1.476-.23.135.23 1.483.194 1.075.234-.991.048.15.174.401 0zm-4.65-.422c-.174-.839 1.154-.181.75-.63-.456-.622-1.442.242-.901.798.172 0 .234.052.15-.168zm.606.033c-.356-.783-.607.095.08.052zm2.635 3.18c-.624-1.053.946-.328 0 0zm29.615-.35c-.401-.782.977-.155.095.061l-.095-.06zm-.273-.49c.828-.527.514.184-.01.046l.01-.049zm-29.518-.05c-1.15-.194 1.387-.22.329.026l-.329-.027zm29.266-.57c.333-.618 1.22.145 0 0zm1.964-.199c.503-1.103.282.836 0 0zm-18.255-2.153c-.503-.534.676-1.353 0-.392-.01.256.431.922 0 .392z" style="fill:#282a39;stroke-width:1" transform="translate(2108.507 -1673.4)"/></svg>