<svg xmlns="http://www.w3.org/2000/svg" width="200" height="200" viewBox="0 0 52.917 52.917"><path d="M-2179.648 1726.948c-7.185-.026-12.346 8.776-8.833 15.021 1.407 2.16 3.52 3.398 3.712 6.207 1.546 2.77 5.307 3.067 8.014 2.196 1.327-.787 5.677-4.22 2.908-1.048-2.899 2.609-8.276 2.955-10.811-.302-1.458-4.154-5.646.815-5.986 3.32-.165 2.144-1.495 3.969-2.05 5.452 2.093 2.114-1.822 4.848 1.132 7.076 1.267 1.867 3.855 1.35 4.763.414-1.743 3.468-3.046 7.184-3.585 11.037 6.503.032 13.021.01 19.506.084 1.9-1.734-.608-5.359-.811-7.716-2.881-3.84 3.886-3.008 4.067-6.424.295-3.062-.674-6.123-1.073-9.16.041-.908-1.797-4.64-.762-1.93-1.44-2.015.108-5.33-3.032-6.185 1.005-1.919 4.046-3.587 2.452-6.524-1.565-2.934-1.118-7.24-4.213-9.611-1.44-1.374-3.444-1.944-5.398-1.907zm-2.732.837c-2.6 1.335-5.183 3.578-6.075 6.673-.27.715-.552 3.303-.75 1.828-.458 2.489.21-2.651.875-3.258 1.119-2.437 3.21-4.758 5.95-5.243zm.129 2.028c1.827-.235-1.373.871-1.44 1.673-3.494.807-4.97 5.099-3.415 8.155-1.054-.598-1.56-5.771.36-7.692a6.587 6.587 0 0 1 4.495-2.136zm2.93.498c1.108.343 1.327 1.044 0 0zm1.307.724c1.472.602.593.652 0 0zm-5.939.038c.118.527.825.18 0 0zm2.905.1c1.413.148 1.382.64 0 0zm4.017.447c1.93 1.611 3.172 4.134 3.279 6.638-1.502-1.411-2.773-4.31-2.23-5.379-.376-.387-.891-.71-1.05-1.259zm-.014.563c1.628.907-.997 1.057 0 0zm.734.605c.71.138-.572.483 0 0zm-1.446.036c1.385.692-.168.666 0 0zm.906 1.238c.936.81.68 1.837 0 0zm-5.178.124c.681.59 1.232 1.171 2.111 1.548 1.096.303 2 .976 3.18 1.122.746.155.978.55 1.418 1.032.269.358.324 1.446.162 1.585-.35.606-.01 1.857-.437 2.619-.452 1.576-2.207 2.387-3.36 2.82-1.044.614-2.637.166-3.492-.225-.7-.127-1.876-.682-2.259-1.608-.667-.876-.834-1.97-1.326-2.956-.403-1.015-.247-2.52.967-3.186.951-.68 2.445-1.055 2.63-2.225.138.279.361-.42.406-.526zm-.4.722c.018-.016.042-.062 0 0zm-1.397 9.159c.015.01-.027-.03 0 0zm2.188-9.274c-.073.025.027.01 0 0zm9.13.552c.283 1.445-.071 2.521 0 0zm-3.437.29c1.733 1.615.019 1.24 0 0zm-12.391.087c.248.807-.232.507 0 0zm16.731.147c.253 2.337-.712.725.001 0zm-10.911.647c-.001 0 .01 0 0 0zm0 0c.03.028.16.034 0 0zm-1.851.074c-.036.025.035-.01 0 0zm7.953.391c.014 0 0 0 0 0zm.01 0c.043.028.015.001 0 0zm-5.429.074c-.11-.01-.412.167 0 0zm.456.655c-.201.077.108.019 0 0zm5.96.058.04.053zm-7.468.118c-.028.017-.032.036 0 0zm3.222 0c.069.03.02 0 0 0zm-1.934.1c-.051.01.027.02 0 0zm6.332.07c0 .01 0 0 0 0zm0 0c0 .169.022.033 0 0zm-.636.074c-.01 0 .01.03 0 0zm0 .024v.036zm-.078 0c-.015.06.016 0 0 0zm-7.507.027c-.324.236.131.01 0 0zm8.3.052c-.042.29.037.074 0 0zm-3.273 0h.01zm1.494.356c-.014.023.045.075 0 0zm2.97.24c.348.724.026 1.16 0 0zm-3.417.269c-.012.01.013.029 0 0zm2.251.372c0 .013-.032.026 0 0zm-.191.235c.035.144.024.03 0 0zm2.587.226c-.01 1.739-2.168 4.477-.4 1.319.238-.407.213-.895.4-1.32zm-10.187.377c-.053.02.044.01 0 0zm-4.271.182c.395.832.333 1.47 0 0zm6.047.2zm7.59.307c-.136 1.159-.445.692 0 0zm-2.607.267c-.037.083.01.063 0 0zm-3.944 2.07c-.033 0-.041.026 0 0zm-2.476.22c0 .017.04.01 0 0zm3.902.016c-.027.043 0 .016 0 0zm4.007.119c-.45 1.35-2.703 2.239 0 0zm.163.444c-.646.823-1.246 1.092 0 0zm-21.544.039c-3.118-.253-7.472.206-6.111 4.535.65 2.69-1.527 6.74 1.27 8.463 2.487-.31 5.097.557 7.507-.306 1.12-2.706.138-6.348.573-9.44.262-2.126-1.104-3.48-3.239-3.252zm12.816.213c.055.054.106.027 0 0zm2.148.204c-.018.017.098.012 0 0zm.214.07zm0 0c.05.064.05-.04 0 0zm.788.52c-.026-.01 0 .01 0 0zm-3.851.022c.325.937.08 1.541 0 0zm.676.214c.914.425.702 1.14 0 0zm-1.36.089c1.067 1.068 1.985 2.965.357.776-.29.013-.647-.561-.357-.776zm3.74.32c3.061.096.411.874 0 0zm-3.92.693c1.034.653-.169.595 0 0zm3.047.45c3.515-.041-.43 1.186 0 0zm-14.059.232c.327.407-.419.579 0 0zm-2.925.026c.86.549-.64.5 0 0zm11.412.574c-1.95 1.931-2.483 4.704-3.766 7.012.377-2.442 1.593-5.413 3.766-7.012zm-9.706.983c.621.564-.434.593 0 0zm-3.663.18c.341.63-.719.506 0 0zm21.912.355c2.572.142-2.16.315-.665.02zm-17.48 2.21c3.096.682-2.321.285-3.395.4-3.451 1.331 5.6 1.096.969 1.244-2.48.943-2.927-2.058-.47-1.456.975-.022 1.966.098 2.896-.189zm6.136.283c-.478 1.032.143.563 0 0zm-4.324.55c.066 1.311-2.827.684-.364.463l.287-.19zm13.034.321c-.444.367-4.086.225-1.173.001.39.123.78-.036 1.173 0zm-.253.36c2.948.405-3.222.12 0 0zm-17.87.364c1.559.327-1.124.356 0 0zm18.219 1.816c.545.483-.935.174 0 0zm.909 1.423c.575.603 1.396.288 1.93 1.116.56.384 1.111 1.067 1.733.553.545.078.838.855 1.015 1.019.273.522.734 1.28-.07 1.647-.32.23-.78.99-1.56.663-.955-.072-1.72-.344-2.435-.692-.332-.38-1.077-.594-1.586-1.17-.03-.686-.248-1.27-.869-1.654-.397-.934.962-.414 1.252-.245.76.112.87 1.037 1.71.946.688.328-.572-.56-.35-.353-.238-.451-1.563-.69-1.136-1.763.146.073.24-.053.366-.067zm3.838 1.742c-.013-.01.021.014 0 0zm0-.001c0-.01 0 0 0 0zm0 0s-.01 0 0 0zm-3.07-1.347c-.179.069.088.042 0 0zm3.438.083c1.285.432 1.93 1.38 0 0zm-14.455.019c3.046-.05-1.317.651-1.53.18a6.343 6.343 0 0 1 1.53-.18zm13.497.372c.476-.126.694.67.114.564-.25.031-.374-.557-.114-.564zm-.013.143c-.01.056.028.027 0 0zm.01.032zm0 0c0-.01-.026.01 0 0zm-.01.015c-.036.014.01.021 0 0zm.27 0c-.02.018.01 0 0 0zm.087.382c0 .01-.028-.01 0 0zm-.213.358c-.03.02.011.025 0 0zm-1.697.36zm-.122.17c.061.122.084-.051 0 0zm3.955.258c1.824.102.553 1.657.67.288.256.114-1.36-.268-.67-.288zm-12.597.023c.459.612.457 1.176 0 0zm-2.131.119c.803.356-.298 1.126-.706 1.463-.325.491-1.24.144-1.262-.238.336-.573 1.24-.767 1.673-1.126.077-.022.18-.092.295-.1zm-.075.017h.014zm9.656.099c.066.056.048.01 0 0zm-6.18.045c.122.87-.16.89 0 0zm5.457.099c-.01.019.013 0 0 0zm0 .01c-.027.021 0 .011 0 0zm-9.068.084c-.01.01 0 .019 0 0zm9.847.077zm4.425.015c-.034.036.01.014 0 0zm-5.708.015.042.029zm.365.33c.019.016.077.02 0 0zm5.934.173c.23.578-.225.955 0 0zm-16.89.189c-.606.812.476 3.762.22 3.037-.879-.678-1.553-2.45-.22-3.037zm3.263.158c.912.198-.165 1.003-.656 1.095-.267.265-.653.445-.148.56.665-.104 1.218-.244 1.537-.924.155.032.604-.063.574.36-.227.653-.927.941-1.497 1.245.197.578-.845.236-1.153.105-.571-.225-.853-.708-1.016-1.352.414-.943 1.543-.605 2.359-1.09zm-2.141 0-.013.01zm.132.054c-.016.067.016 0 0 0zm.058 0c-.128.094-.101.163 0 0zm.215.101c-.01 0-.001.03 0 0zm-.336.044c-.04.01 0 .021 0 0zm-.07.01s.01 0 0 0zm11.021.071c.03.032.171.01 0 0zm-11.493.032c0 .013.045.02 0 0zm1.43.058c-.041.01.117.012 0 0zm10.558.137c0 .021.063.01 0 0zm-10.337.046c-.2.026-.068.07 0 0zm-1.791.028c.086 1.16-.532.319 0 0zm.698.155c-.02.01 0 .073 0 0zm-.019.012c-.01.01-.015.034 0 0zm-.01.015c-.02.01-.01.085 0 0zm-.12.389c0 .03 0 0 0 0zm.933.116c-.023-.01 0 .022 0 0zm-.877.084c-.017 0 0 .033 0 0zm0 .023c-.01.01 0 .056 0 0zm2.274.042c-.01.01.01 0 0 0zm-.01.01c-.013.01-.01.04 0 0zm.597.148c-.01.01-.03.034 0 0zm-.197.147c-.048.02-.01.107 0 0zm-.932.046c-.017 0 0 0 0 0zm-2.448.295c1.175 1.23 1.27 2.46.13.505l-.095-.293zm1.112.123.03.02zm1.53.125c-.048.029.038-.01 0 0zm-.516.313c.04.01.01-.01 0 0zm.42.028c-.019.018-.147.01 0 0zm-.237.684c.56.364-1.516.178 0 0z" style="fill:#f1ccb7;stroke-width:1" transform="translate(2206.3 -1725.128)"/><path d="M-2179.206 1726.968c-.963.374 2.079-.052 2.465.539 2.065.42 4.131 3.33 4.54 4.248-1.085-2.806-3.948-4.915-7.005-4.787zm-1.508.163c-6.998.565-11.368 9.812-7.308 15.558.645.503-1.387-2.01-1.177-2.831-1.327-5.566 2.696-11.993 8.485-12.727zm-.824 2.283c-3.25-.152-6.84 2.334-6.696 5.832-.221 3.053.583 6.231 2.47 8.669-.7-.666-1.414-1.38-.54-.094 1.398 2.024.975 5.468 3.756 6.376 2.698 1.228 6.206.735 8.18-1.574.693-.747 2.623-.815.972.277-.616 1.09-4.49 1.827-1.79 2.693.902 1.556.571 4.19-.06 5.5-2.915.563-3.111-3.375-5.008-4.556-2.23-1.575-5.178.733-3.247 3 .828 2.106 1.861 4.21 3.563 5.745.92 2.296.01 4.87.416 7.283.041 2.543.072 5.086.109 7.63h-6.382c.24-3.835.589-7.699 1.194-11.478 1.368.011.397-2.992.825-4.169.043-.675-.223 2.268-.525.482-.394-.91.445-3.975-.11-3.452-.098.779.24 4.497-.624 2.068-1.022-3.002-.436-6.201-.507-9.298.996-2.48 2.749 1.863 4.54 1.315 1.047.098 2.391.069 3.244-.36-2.664.396-5.974-.192-7.246-2.863-.636-1.496-1.587-.523-.755.53-.075 1.542-1.112 4.298-1.014 5.022-.537-.9.864-4.07-.24-3.566.09.964.287 4.147-.541 3.471-.196-.788-.714-3.127-.419-1.076.53.803.01 3.069-.558 1.128-1.335-.802-.052-4.954-1.361-2.05-.585 1.168-.438 3.918-1.58 4.084.607-3.135 1.665-6.545 4.43-8.445-3.07 1.863-4.124 5.611-4.563 8.96-2.19 1.033 3.209.593.587.967-1.063-.122-2.12.292-1.066 1.3.263.446-.621 2.242.423 1.54-1.25 2.292.867 5.786 3.577 5.18 1.753-.983-1.14 1.644-1.907.355-1.766-.331-2.747-3.272-2.751-3.897-.316 2.66 3.004 5.261 5.393 3.679 1.222-.975-.966 2.363-.962 3.087-.956 2.456-1.736 4.996-2.09 7.613 6.076-.01 12.15.068 18.226.051 3.064.672 1.4-3.433.762-4.914-.47-.919-1.904-3.621-.729-3.559 1.095 1.616.901 3.676 1.592 5.442.303-2.553-2.283-5.124-1.307-7.378.96-1.093 2.833-1.036 3.62-2.213-1.435 2.04-2.277-3.595-2.84-.799-.167-.497-.876-2.216-.887-.733-.825-.46-1.13-1.547-.925.097-.012 1.07-1.309 3.484-2.322 2.92 1.815.12 1.873-3.543 1.668-3.407.382 1.595-1.59 4.21-3.06 2.425 2.365 1.626 3.815-3.165 1.937-4.382-.322-1.237 2.405.148 3.226.124 1.155-.097 3.207 2.084 3.568 1.003-.12-.948-3.55-2.076-1.083-1.875 1.153.267 1.43 3.21 1.504 2.78.21-1.537-.708-5.024-.647-5.36.103.883.111 2.885-.24.935-.642-.666-2.916.888-1.945-1.106 2.843.698.759-4.636-.889-2.162-.2 1.167-.54 1.681-.16.135.314-.604 2.073-2.943.72-2.791-1 .813-.25 4.04-1.81 3.529.068-1.005 1.868-3.162.323-2.286-.628-.856.518-3.197-.307-1.102.113 1.409-1.062.995-.979-.14.257.895-.27 2.68-.365.79-.29-1.923.324-3.406 2.244-3.861.917.07 1.413 1.55 1.273-.122-.516-1.63-2.538-3.06-2.264-4.655-1.605 1.679-3.145 4.059-5.522 4.498-1.032-.114-3.952-1.164-3.79-.555.743.382 2.938 1.249.838.898-1.225-.09-3.849-2.253-2.328-2.924 1.726.963 3.731 2.325 5.677 1.01 2.086-.987 3.509-2.888 4.769-4.748-.79.86-1.813 3.41-.206 1.25 1.597-2.202 1.835-4.968 1.763-7.594.063-.852.554 1.075.265-.251-.027-1.015-.67-1.986-.435-.395.037.993-.115 3.875-.725 3.7.427-1.428.456-4.805-.455-4.876.441 3.034.54 6.332-1.17 9.024-1.351 2.205-3.738 4.562-6.566 3.824-1.204-.123-3.506-2.162-1.161-.875 3.209 1.06 7.074-1.009 7.802-4.353.947-2.317.981-5.082-.552-7.161-1.485-2.629-4.048-4.936-7.245-4.766zm.091 18.005c-.24-.177-.484-.358 0 0zm9.212-3.948c.199-.19.39-.375 0 0zm.228-.219c.49-.025.037-.224 0 0zm-.069 2.162c.022.464.552-.063 0 0zm-1.282 4.861c-.134 1.07.11 1.103 0 0zm5.777 12.327c-.47 1.045-.336.927 0 0zm-5.324-1.565c-.092-.28-.13-.397 0 0zm-19.796.65c.27-.596.227-1.181 0 0zm.054-4.062c.534-.477.137-.677 0 0zm6.235-7.396c.657-.756.38-1.774 0 0zm9.045.997c.683-.156.866-.342 0 0zm-6.687 13.754.01.073zm2.246-35.174c4.968.082 9.03 5.38 7.898 10.2-.211-1.86-1.683-2.651-2.21-4.464-1.052-2.424-3.343-4.683-6.187-4.343-3.06.188-5.97 3.072-5.265 6.26.214 2.337 1.02 4.663 2.525 6.485-2.424-1.736-2.726-5.025-2.978-7.772-.31-2.613 1.329-5.254 3.883-6a7.116 7.116 0 0 1 2.334-.366zm-3.177.246c-.964.278-1.002.962 0 0zm4.795 2.48c.478.11 1.158.826.314.25zm-4.03.143c-.63.63-.617.361 0 0zm9.84 1.705c.76.44.95 3.159.425.987-.149-.325-.376-.623-.424-.987zm-7.623.225c2.045.762 4.157 1.673 6.058 2.833 2.166 1.614.32 4.45-.895 6.061-1.967 2.136-5.445 1.87-7.433-.079-1.381-1.375-1.467-3.496-2.038-5.13.511-1.986 2.738-1.935 3.839-3.293l.193-.24zm-2.523.084c-1.543 1.11-1.505.645 0 0zm.875.314c-.744.88-.87.278 0 0zm-4.83 2.297c-.382 1.193 1.053 4.257.326 1.376-.093-.462-.154-.934-.326-1.376zm18.25.664c-.01 1.076.592 1.194 0 0zm-15.98.13-.017.104zm8.95.158-.01.068zm-9.842.21c.382 2.38 1.66 4.71 3.522 6.238-2.54-.878-3.19-3.897-3.522-6.237zm17.451 1.96c-.395 1.152-2.02 3.04-2.18 3.385 1.242-.636 2.172-1.97 2.18-3.385zm-12.745.923c-.14.13.322.032 0 0zm3.344.411-.113.17zm-.05.119-.018.065zm2.103.764-.062.01zm-3.663.807c-.202.183.146.12 0 0zm-6.391.423c.463.608.952.814 0 0zm-8.807.346c-1.053-.117-3.263.414-.968.097 1.013-.155 4.017.41 1.374-.083l-.406-.015zm1.99.42c1.045 1.13.949.764 0 0zm.834 1.01c-.035 3.364.103 6.729 0 10.093-.188 2.06-4.373 1.194-4.226 1.495 2.435.852 5.18-.798 4.341-3.546-.026-2.676.088-5.384-.115-8.043zm-4.93 11.474c-.94-.161-2.602.255-.714.143.242-.026.481-.074.714-.143zm-1.934.105c-1.271.357-3.281-3.093-1.869-.535.401.586 1.214.927 1.87.535zm-2.445-1.96c-.01-.397-.103-1.23-.032-.346zm-.043-.83c.192-.896.096-.576 0 0zm2.036-10.128c-1.557.132.755.17 0 0zm2.477.741c-1.727.543 1.503.723.195.28.859.33.096-.357-.195-.28zm.592.304.07.013zm-4.744-.193c-.76.64.347.923 0 0zm6.557.41c-1.895.927-4.565-.886-6.03 1.005-.438 1.65-.064 3.418-.238 5.118.275 1.458-.895 4.61 1.465 4.19 2.306-.43 6.758 1.489 6.914-2.083-.568-2.424.57-4.949-.353-7.267-.332-.64-1.047-1.002-1.758-.963zm10.81.223c1.347 1.538 2.807 3.363 5.063 3.339 1.135.375 3.935-.814 3.595-1.082-.753.385-2.188.71-.69-.09 1.01-.576 3.644-3.425 3.712-.918-1.787 2.741-5.347 3.882-8.478 3.197-1.763-.234-4.285-2.553-3.202-4.446zm14.23.78c.04.804.68 1.152 0 0zm-9.166.208c.733-.04.602.082 0 0zm8.544.055c.385 1.305-.2 1.709 0 0zm-4.944.134c-.547.16-.545.729 0 0zm-19.857.23c.36.332-.439.637 0 0zm-2.9.04c.873.545-.703.523 0 0zm19.741.99c.768.157-1.38.07 0 0zm-23.131.083c-.267 1.121.02 4.29.057 1.372 0-.458-.01-.916-.057-1.372zm5.103.492c.6.445-.443.661 0 0zm-3.674.277c.343.684-.727.2 0 0zm19.788.16c-.083 1.358 2.916.214.684.202-.227 0-.586.112-.684-.203zm6.735.717c.782.984 0 4.286-.717 1.549-.17-.577-.079-1.546.717-1.549zm-6.722.027c-1.56.163 1.298.294 0 0zm11.276.538c.366 1.055 1.388 4.058.613 1.26a9.439 9.439 0 0 0-.613-1.26zm-26.82 1.055c1.631-.548 2.592 2.495.337 1.605-1.333-.097-5.092.972-4.211-1.502 1.284.32 2.58-.142 3.873-.103zm-1.588.278c-1.387-.39-3.19 1.082-.86 1.087.988-.14 3.684.72 3.569-.564-.905-.425-5.152-.09-2.17-.306 1.034.104 2.627-.01.657-.15a14.475 14.475 0 0 0-1.196-.067zm-2.05.27c.274.098.056-.15 0 0zm.361.196c.807.062.107.566 0 0zm17.665.344c3.331.117-3.358.468-.396.025.132-.01.265-.017.396-.025zm.496.398c2.106.365-2.316.351-.314.01.105 0 .21-.01.314-.01zm-1.398.302c.548.016 1.353.13 0 0zm-5.968.01c.625 1.276-.031 1.147 0 0zm-10.618.061c1.07 0 .028.537-.222.123zm9.68 1.512c.95.425 2.998 1.975.728 1.092-1.177-.234-.567-.995-.727-1.092zm8.465.409c.919 1-1.066 1.031 0 0zm.683.345c-.134.506-1.077-.013 0 0zm9.866.183c-.264 1.095-1.064 1.68-.206.31.044-.12.13-.211.206-.31zm-19.108.147c2.374.17-.828 1.411-.62.789.762-.22-.708-.421.177-.69zm-7.966.225c-.85.88 1.733.308.019.374-.051-.466.955-.134-.02-.374zm.44.129c.089.513 1.01-.197 0 0zm16.942.312c1.621.618 2.88 1.876 4.49 2.272 2.028 1.739-1.455 3.596-2.995 2.356-1.75-.468-2.892-2.34-3.009-3.656 1.047-.182 3.742 2.157 1.967.262-.125-.324-1.207-1.018-.453-1.234zm.09.014h-.058zm3.54.207c.982.183 3.494 1.654 2.623 2.417-1.212-.368-1.675-1.708-2.623-2.417zm-2.842.104-.078.114zm-6.368 0c.813.956-.018 5.354-.237 2.331-.027-.784.122-1.559.237-2.33zm-2.368.052c.92.417.656 1.367 0 0zm11.493.294c.355 0 .957.647.281.217zm-2.266.086.045.015zm2.158.035c1.416.542-.956.716 0 0zm-13.056.383c1.583.036-1.526.22 0 0zm13.993.01.137.171zm5.875.37c1.805.096-.487.99-.223.045l.12-.024zm-17.47.653c.68.914 1.816 3.18 1.929 3.417-.691-1.11-1.37-2.233-1.93-3.417zm-1.777.483c1.003 1.494-3.47 2.362-1.31.433.464-.103.806-.434 1.31-.433zm14.087.3.01.057zm.291.332c.252.944-.016 1.348 0 0zm-5.3.01.054.01zm5.007.477-.022.06zm-13.478.102c2.053.2-1.99 2.153.252 1.459.93-.98 1.907-.203.56.59-1.506 2.06-4.567-1.669-1.385-1.891l.277-.105zm13.293.12-.01.038zm5.595.472c-.083.982 1.801 3.203 1.055.92-.133-.492-.625-.738-1.055-.92zm-6.752.054-.079.033zm1.753.04c.625 1.467-2.962 1.895-.55.849.27-.21.508-.498.55-.85zm-16.533.418c-.713 2.357 3.126 3.23 3.366 3.581-1.909.664-3.89-1.798-3.366-3.58zm2.122.062-.04.056.04-.056zm-.378.194-.081.068zm10.79.92c1.347 1.64 2.203 3.938 2.189 6.014-.281 1.975 1.033 6.02-.567 6.835-.173-2.978-.077-5.985-.484-8.95.07 3.053.328 6.1.333 9.155-2.892 1.077-1.37-3.413-1.743-4.969 0-2.553-.18-5.106-.08-7.659.051-.164.142-.41.353-.427zm1.523.364c1.361.75-.188 1.489 0 0zm-11.158.463c-.9 1.099-1.303.178 0 0zm3.836.848c.213 1.444-.71 1.698 0 0zm-.262 1.446c.462.72-.41.903 0 0zm.817.777c-.238 3.108-.856 6.17-1.136 9.274.489-2.722 1-5.463 1.152-8.23.01-.348 0-.696-.016-1.044zm8.962.095c2.279-.15 1.249 5.014-.08 2.008-.238-.604-.709-1.594.08-2.008zm-12.075.249c-.728 2.917-1.924 5.732-2.22 8.746-1.34-.055.361-2.879.308-3.91.477-1.67 1.097-3.302 1.912-4.836zm9.929.318c-.045.935.313 4.397.212 1.686a20.41 20.41 0 0 0-.212-1.686zm-7.81.809c.021 1.036-.499 3.814-.324 1.201.04-.413.111-.837.324-1.201zm13.636 4.081c1.268 1.194-.53 2.197 0 0zm-14.193 1.223c.134 1.115-.283 1.983-.118.354a.613.613 0 0 1 .118-.354zm15.633.819c-.23 1.115.378 1.279 0 0zm-17.261 1.731c.728-.079.473.113-.046.037zm14.309.073c1.081.078-1.654.031 0 0z" style="fill:#e6afa1;stroke-width:1" transform="translate(2206.3 -1725.128)"/><path d="M-2172.633 1776.337c1.052-.203 3.525.012 1.093.01-.363.02-.733.085-1.093-.01zm-17.728-.239c-.166-1.335.82 1.487 1.347-.324.611-2.032.564-4.21 1.322-6.221.216-.903 1.327-4.309.591-1.769-.772 2.78-1.478 5.594-1.766 8.471h2.945c.174-5.186 1.08-10.32 1.524-15.48-.103 4.843-1.182 9.603-1.352 14.442-.325 2.064 3.145.627 4.447 1.058 2.728.01 5.457.016 8.185.023l-17.275.034.017-.12zm3.912-.633c.194-2.432.336-4.884.855-7.273-.356 2.214-.614 5.96-.86 7.273zm-3.728-.423c.595-3.694 2.261-7.086 3.565-10.55.425-1.952-1.752-1.311-1.717.177-1.782 1.05-3.505-1.834-3.14-3.512-1.113 2.081 1.309 4.918 3.544 4.145-2.02.94-3.654-1.248-4.158-2.96-.226-.725 1.483-3.272-.178-1.97-1.439 2.55 1.209 6.349 4.126 5.577.989-.807 1.437-.797.266.011-2.962 1.066-5.964-2.865-4.522-5.51 2.296-1.118-2.159-3.141.515-3.508 1.754-.374 4.152.101 4.63 1.844-.877-.771.952 2.654.701.69.95-2.11-2.456-3.33-3.024-3.616 1.202-.269 3.898 2.893 2.222.606-.758-.691-1.785-3.124-1.471-3.125.3 1.264 1.895 3.853 2.22 3.84-.436-1.278-1.696-4.575-1.327-4.656.19.804.94 4 1.27 3.23-.705-2.267-.402-4.655.654-6.731.036-.933.394-2.603.868-.718 1.44 3.061 5.328 3.498 8.27 2.794 1.769-.569 3.526-2.044 4.541-3.35-2.222.07-3.608 3.47-6.288 2.92-2.773.578-5.97-.912-6.689-3.767-.48-.86 1.19-1.989.082-1.95 2.047.542-1.413-1.341-1.482-2.437-1.265-2.41-1.765-5.25-1.488-7.951.22-2.237 1.908-4.102 4.073-4.658 2.644-1.084 5.623-.145 7.611 1.772 2.108 1.655 3.063 4.44 3.201 7.045-.018 2.745-1.341 5.696-4.053 6.726-3.303 1.509-7.325-.713-8.694-3.856-.322-.907-.795-3.158-1.132-3.334.32 2.655 1.27 5.598 3.845 6.83 1.318 1.286 3.217 2.095 5.072 1.762-2.045.807-4.003-.505-5.464-1.726-1.07 2.103 3.238 4.32 5.31 3.468 1.967-.677 3.56-2.082 4.809-3.704.586-.65 2.488-2.453 1-.776-.856.892 2.273 2.067.27 1.163-1.31-1.333-.824 1.252.386 1.142.512.61 1.288 2.75 1.056.677.049 1.007 1.218 3.333-.047 1.413-2.514-1.154-2.582 2.308-2.294 3.933.112.848-.23 2.56-.162.744-.06-1.041.356-3.74-.106-3.75-.495 1.876-.41 4.042.033 5.855-.015-.881-.225-1.775.127-.355.148-.79.873-3.438 1.017-3.223-.376 1.061-1.304 4.29-.648 3.982.933-2.658-.455 1.39.253 1.883.335-.842 1.037-3.147 1.254-3.15-.271 1.165-.916 2.482-1.119 3.523.345-1.086 1.422-3.209.422-.929-.422.64-.812 3.055.055 1.147.629-.967 2.01-3.058.731-.829-.624.685-1.119 1.7.018.652 1.05-.586 2.61-.22.578-.045-1.03.267-2.575 2.159-.643.868 1.392-.388 3.235.016 3.826 1.475-.309-1.022-.466-2.82-.055-.826.334.772.212 3.3.085 1.204-.535-1.855-2.993-2.098-4.517-1.405 1.505-.698-.938.806.615.223 1.017-.693 4.369 1.85 1.997.427-1.058-.47-2.432 0-.51.194.944.048 2.31 2.482.91.752-1.73-1.323-4.15-.741-6-1.75-.96.107 1.583.817 1.09 1.91.458 1.587-1.08 5.31-2.285 2.265.255 1.63.207.502-.57-.198-.208 2.812 3.434 1.801 3.284-.543.216-.812-.269-2.547.075-.752.336 1.645-1.118 3.404-2.133 3.577 1.944.518 4.03.36 5.842-.546-1.086.738-4.023.78-2.19 2.852.328.8 1.365 4.77.432 2.138-.159-2.076-.945-4.808-3.569-3.897-2.417-.72-1.307-4.806-4.314-4.598-2.235-1.044-3.05-3.414-3.767-5.54-1.055-1.134-1.94-3.825.592-3.452 2.384-.381 3.896.98 4.384 3.277.961 1.764 3.49 1.145 4.293 3.256 1.068-1.245-.414-4.797-.078-6.855.222-1.041.369-3.42-.968-1.63-1.702 1.265-4.002 1.166-5.996 1.148-1.887.149-3.094-2.436-4.495-2.251-.8 2.258-.786 4.756-.838 7.136-.115 2.303-.266 4.501 1.005 6.482-1.757 1.506-2.065 4.684-3.376 6.951-.62 1.7-.96 3.49-1.517 5.202zm1.164-10.912c1.556-1.155-2.56.645 0 0zm.145-.9c.31-.294-1.184-.06.133-.43.954-.051 2.134-2.055.514-.867-.747 1.005-2.546.02-.785-.365 2.656-1.562-3.85-.534-1.397 1.147.377.37.995.82 1.535.515zm3.464-.322c-.822-1.08-2.049-4.047-2.445-4.05.673 1.278 2.015 3.76 2.445 4.05zm9.394-.153c1.812-.024.408-4.702.891-1.842.334 1.478-2.076 1.806-1.905 1.813a.926.926 0 0 0 1.014.028zm.575-1.29c.41-1.387-.623 1.459 0 0zm-.198-.493c.718-.96-1.107-3.338-1.722-2.272-1.191.042-2.836-2.587-3.397-1.558.61.72 3.18 2.846.796 1.592-.683-.826-3.51-1.688-1.537-.077.878.587 1.966 1.632.306.561-.55.74 2.257 2.814 3.635 2.403 1.265.305 2.598-2.458 1.666-.243-.175.639.32-.634.253-.406zm-4.382-1.466c-1.38-.783 1.462.624 0 0zm-10.696 1.475c1.087-.487 2.073-2.218.194-1.2-.69.355-1.727 1.166-.194 1.2zm16.769-1.9c-.539-1.086-3.182-3.153-3.544-1.862 1.05.099 1.686 1.626 1.85 1.711.255-.354 2.64 1.101 1.694.15zm-3.335-.758c-.662-1.154-1.554-4.103-1.92-4.2.528 1.301 1.426 3.577 1.92 4.2zm-12.229-.415c-2.172-.41-1.79.44 0 0zm12.753-.165c-1.043-.82-.336.938 0 0zm-15.849.01c.541-.54 3.977-.191 2.863-.555-.507.146-3.34-.446-2.863.555zm11.393-1.718c1.555.2-1.208-1.538-.431-.041-.722-.201.536.521.43.04zm-5.323-2.054c-.512-1.75 1.586-5.283.867-5.738-.842 2.028-1.777 4.855-.864 6.708a8.715 8.715 0 0 0 0-.97zm5.711-.7c-.662-.807-3.719.285-1.327.146.439-.033.953.194 1.327-.146zm-1.605-.398c1.158.039 3.075-.208.782-.217-1.111-.01-3.44.302-1.104.233.105-.01.225 0 .322-.017zm4.016-2.472c2.365.043 3.825-2.08 5.602-3.198.846-.989-.845-2.18-1.318-.865.844-1.875-1.297 1.243-2.093 1.348-.8.192-2.926 1.515-.795.776.646-.224 2.423-1.286.947-.214-2.376 1.453-5.843.937-7.57-1.25-.083-1.154-1.594-2.357-1.534-.5.692 2.35 2.889 4.3 5.441 3.978.441 0 .887-.02 1.32-.075zm7.036-2.63c-.334-1.205-1.296-.966-.222-.018-.012.134.818.769.222.018zm-.403-.184c-.669-.866-1.339-.241 0 0zm-7.595-2.664c2.615-.62 4.264-3.2 4.127-5.806-.305-2.504-3.305-1.934-4.876-3.033-.98-.467-1.98-2.35-2.366-.464-1.434 1.462-4.743 1.964-3.233 4.65.092 2.3 1.907 3.876 3.958 4.57.76.278 1.619.373 2.39.083zm-1.833-.776c.961-.546 1.301.218 0 0zm.053-.444c-1.317-.147-1.333-.505.06-.155 1.045-.115 2.594-.458.694.126-.243.069-.507.098-.754.029zm-.723-.911c-.937-.238-.075-1.98-.282-.289 1.215.326 2.288-.111.548.366l-.266-.077zm-2.513-1.499c-1.623-.176-.296-2.444.55-1.168 2.057.01.284 1.92-.55 1.168zm5.649-.073c-2.087-.31-.096-2.017 1.086-1.568 2.077-1.78-.48 2.008-1.086 1.568zm-5.8-2.183c-2.994-.166 2.578-1.356 1.074.024-.359.015-.716-.038-1.074-.024zm3.887-.239c.323-1.609 5.608-.362 2.144-.223-.7.147-1.424.372-2.144.223zm-2.98 6.062c-2.966-1.386-3.46-4.99-4.05-7.847-.388-4.164 4.948-7.393 8.453-5.052 2.666 1.622 3.787 4.786 4.718 7.595.374 2.832 1.2-1.3.75-2.257-.606-3.902-3.904-7.416-7.982-7.52-2.988-.16-6.214 2.026-6.283 5.214-.038 2.954.374 6.223 2.316 8.585.546.625 1.24 1.148 2.078 1.282zm9.11-4.645c-.463-1.27-.381 1.25 0 0zm-11.177-2.88c1.01-.145 3.626-2.504 1.455-.795-.338.305-2.975 1.224-1.455.794zm.262-.494c1.099-.108 2.867-1.965 2.801-2.119-.247.924-3.285 2.215-2.8 2.12zm8.006-.163c-1.345-.505-.864 0 0 0zm-.806-.54c-1.105.077-4.386-2.568-2.444-.776.873.554.01-.152 1.194.415.172.044 2.134.862 1.25.362zm-7.398-.07c1.098.13 3.507-2.66 1.533-.737-.112.27-3.093 1.019-1.533.738zm.15-.75c.987-.356 2.418-1.902.715-.496-.735.45-2.557 1.079-.716.496zm7.916-.115c-.923 0-3.65-1.635-3.155-1.182.952.587 2.044 1.036 3.155 1.182zm-.206-.812c-1.11-.022-4.543-2.652-2.115-.805.656.38 1.38.628 2.115.805zm-7.546-.209c.815-.245 2.229-1.697.783-.508-.243.17-2.062 1.006-.783.508zm3.462-.434c-.143-1.244-.16-1.945-.165-.305.02.19.528 1.284.165.305zm-2.826-.65c.816-.552 1.2-1.35.217-.275-.716.535-.959.787-.217.276zm5.68.08c-.827-.365-2.35-1.595-.865-.345.275.243 2.235.94.865.345zm8.742 41.412c-.24-1.676.354 1.571 0 0zm-5.298-1.085c-.119-2.642-.512-5.264-.625-7.907.28 3.086.726 6.164.743 9.268-.103-.447-.068-.908-.118-1.361zm-3.838-1.223c-.028-1.246.034-2.122.04-.353.014 1.142-.065 2.93-.04.727v-.374zm7.41.476c-.155-2.037-.683-4.02-.988-6.036.611 1.953.878 3.998.989 6.036zm-7.478-5.058v-2.308c.05 1.188.039 3.63 0 4.01v-1.702zm1.716 1.654c.015-1.547.049 1.435 0 0zm-8.63-4.031c.149-.834.564-1.438 0 0zm17.218-.91c.832-.78 1.687-1.633.511-.254-.07.075-1.183.776-.51.253zm-10.38-.434c.015-1.547.05 1.436 0 0zm10.35-.925c-.273-.87-1.82-2.812-.137-1.274.323.14.688 2.6.137 1.274zm.208.01c-.096-1.09-1.63-2.347-.285-.718.117.083.404 1.698.285.718zm-15.378-4.253c.034-1.842.018 1.911 0 .103zm16.28-1.813c-.267-1.733.242-.585.054.477l-.02-.05zm-31.603.163c-2.398 1.299-3.1-3.034-2.558-3.137-.647 2.202 1.375 3.909 3.44 2.962 2.087-.012 6.454 1.082 5.802-2.358.041-1.17-.079-4.375.042-4.212-.365 2.184 1.129 5.038-.868 6.653-1.804.6-3.937-.111-5.858.093zm1.323-.5c.433-1.343 2.295.66.322.072l-.322-.071zm1.295-.158c-1.189-.54-1.494.569 0 0zm5.47-.31c.526-3.11 1.487-6.492 4.144-8.458-1.707 1.496-2.847 3.501-3.427 5.692-.158.01-.927 4.63-.717 2.766zm-10.031-.48c-.251-2.891.162-5.811-.105-8.686.607-2.592 3.553-.547 5.272-1.291 2.4-.774 3.542 1.104 2.966 3.225-.011 2.225-.01 4.45-.023 6.675-2.117.49-4.359.105-6.53.242-.449-.115-1.295.24-1.58-.166zm1.185-.554c-.157-.555-1.13-.053 0 0zm2.758-.206c-.54-.873-.49.774 0 0zm-1.397-1.353c-.69-.558-1.406.37 0 0zm4.494-.438c.485-2.743-3.621-.816-5.145-1.615-2.028.11-1.16 2.348.57 1.658 1.525.01 3.053.083 4.575-.043zm-1.942-1.223c.925-.063 1.768.07.35.023-.074.012-1.155.01-.35-.023zm-4.216-2.607c-.044-.995-.463.694 0 0zm3.886-.232c-.35-.94-.396.645 0 0zm-1.654-1.54c-.384-.903-.665.409 0 0zm2.752-.11c-.062-.778-.404.632 0 0zm27.048 5.835c-.029-.935-1.306-3.247-.942-3.023.388.762 1.128 2.869.942 3.023zm-33.501-3.672c-.09-1.02.213-1.871.085-.36-.025.482-.12 1.617-.085.36zm22.201-1.414c-1.772-.483 1.964.226.161-.014l-.054.01zm-13-1.4c.535-3.179-3.625-2.409-5.584-2.406-1.393-.01 2.083-.013 2.584-.146 2.23-.601 3.782 1.493 3.027 3.547-.024-.33-.023-.663-.027-.994zm16.375-.951c2.195-1.782 4.059-4.27 4.178-7.192.21-1.75.014-3.525-.25-5.26 1.052 2.13.181 6.201.111 7.264.77-1.268.983-4.705 1.26-4.887-.109 3.9-1.919 8.052-5.3 10.075zm-25.622-.115c.118-.829.597-.55 0 0zm3.797-.277c.791-1.106 2.305.514.428.076l-.428-.076zm1.449-.098c-1.506-.495-1.33.47 0 0zm10.163-1.253c-.924-1.096 1.016.91 0 0zm14.59-.208c.818-.564 1.944-1.734.67-.353-.194.164-.418.303-.67.353zm-15.601-1.02c-.858-.662-1.763-4.171-.789-1.473.155.445 1.854 2.778.789 1.473zm17.702-.85c.428-.996.536-3.097.441-.816-.115.199-.096.822-.441.816zm-19.432-3.922c-.133-2.81 1.006-5.582 2.802-7.708-1.578 2.306-2.946 5.022-2.658 7.898-.077.932-.128.025-.144-.19zm19.373-.04c-.41-1.434.464.959 0 0zm-.828-2.486c-.474-.895-.619-3.339-.205-1.067.076.424.718 2.473.205 1.067zm-1.26-3.967c-.614-1.212 1.018 1.363 0 0zm-.776-1.25c-1.445-2.45-4.498-3.627-7.251-3.23 3.01-.706 6.36 1.04 7.684 3.81l-.236-.276zm-13.095-.667c.69-1.121 3.473-2.16 3.676-2.183-1.534.507-3.117 1.742-3.676 2.183zm4.408-2.378c.324-.259 1.244-.12.372-.01z" style="fill:#70ccd9;stroke-width:1" transform="translate(2206.3 -1725.128)"/><path d="M-2172.633 1776.337c.636-.128 1.663-.044 2.448-.09.7.071-1.128.095-1.455.11-.316-.026-.724.094-.993-.02zm-17.728-.239c.121-1.146.286-.822.073.117.484.012 1.615.34 1.407-.614.355-3.158 1.193-6.4 2.2-9.311-.916 3.234-1.85 6.579-2.186 9.965h2.945c.154-4.433.804-8.827 1.34-13.222.129-.566-.205-1.578.127-1.43.022-.582.067-2.106.038-.703.025 3.754-.849 7.44-1.098 11.177-.121 1.394-.186 2.793-.331 4.185l12.728.036-17.275.034.017-.12zm3.912-.633c.175-2.517.41-5.066.854-7.54.035.67-.212 1.685-.286 2.485-.232 1.77-.335 3.555-.563 5.327 0-.091 0-.182-.01-.272zm-3.728-.423c.63-3.427 1.924-6.72 3.393-9.856.39-.824-.241-.038.067-.75.22-.682.404-1.513-.604-1.206-.55.324.12.505-.625-.068.228.774-.169 1.93-1.142 1.723-1.105-.225-1.916-1.085-2.282-2.13-.45-.497.324-1.668-.079-1.66-.865 1.003-.072 2.458.654 3.317.672 1.027 2.056 1.283 3.125.754-.361.355-1.198.418-1.798.353-1.307-.551-2.215-1.878-2.641-3.205-.295-.696.696-1.167.382-1.684.138-.437.972-.742-.047-.762-.892.548-1.044 1.78-.793 2.747.31 2.003 2.347 3.985 4.473 3.318.47.065 1.3-1.288 1.09-.775-.534 1.134-2.075 1.158-3.08.769-1.69-.743-2.798-2.6-2.672-4.447-.028-.678.421-1.522 1.063-1.757.687-.177-.583-.987-.681-1.403-.241-.118-.86-.828-.489-1.16.643-.194 1.296-.154 1.963-.231.99 0 2.258-.308 2.85.728.074.588 1.179.907 1.115 1.252-.842-.519-.812-.517-.29.343.2.284.676 1.823.615.681.023-.993.311-2.225-.689-2.852-.764-.683-1.77-1.046-2.775-1.198 1.4-.106 2.852.893 3.548 1.886-.609-1.306-1.837-2.287-2.206-3.736-.31-.724-.19-1.638-.016-.363.527 1.245 1.178 2.44 2.019 3.501.447 1.02.206-.55-.082-.841-.87-1.344-.989-2.95-1.298-4.479.183.023.289 1.308.442 1.818.215.958.631 1.96 1.13 2.746-.16-1.534-.818-3.042-.422-4.602.258-1.53 1.332-2.94 1.207-4.517-.6-.537.546.143.462.691.78 1.74 2.443 3.125 4.384 3.27 1.485.137 3.028.133 4.482-.226.57-.35 1.29-.689 1.757-1.054.495-.601 1.34-1.008 1.859-1.648.836-.227 1.034-.603.028-.74-.613.08-1.097.786-1.618 1.16-.463.388-.918.974-1.44 1.132-.404.323-1.056.655-1.703.718-1.81.085-3.84.438-5.45-.602-.691-.464-1.264-1.142-1.705-1.88-.502-.618-.87-1.577-.54-2.315-.413-.351 1.334-.554.43-.66-.999-.389-.524-.263.195-.02 1.152.24-.419-.532-.715-.83-2.01-1.834-2.6-4.66-2.886-7.252-.234-2.07.06-4.468 1.753-5.879 1.875-1.484 4.403-2.008 6.73-1.534-.554.105-.026.155.746.446 1.456.572 2.581 1.657 3.664 2.748-.687-.802.295.18.09.123.185.09.182.33.222.315.643 1.167 1.245 2.4 1.504 3.735.467 1.591.056 3.212-.368 4.764-.75 2.306-3.025 3.996-5.42 4.197-1.74.074-3.341-.687-4.7-1.713-1.267-.873-2.13-2.33-2.376-3.845-.402-.826-.478-1.757-.838-2.583-.182.397.207 1.284.289 1.862.4 1.914 1.088 4.063 3.005 4.952.697.445.164.205 1.035.796 1.097 1.122 2.684 1.616 4.229 1.441 1.333-.083-.11.275-.686.172-1.472.177-2.877-.525-3.84-1.609-.74-.738-.861-.55-.913.382.379 1.485 1.965 2.214 3.263 2.807.755.199 1.642.182 2.41 0 1.34-.707 2.925-1.23 3.77-2.582.93-1.122 2.043-2.08 3.049-3.135-.438.541-.925 1.053-1.296 1.607.224.234.733.983 1.362 1.118.63.41-1.02-.273-1.102-.664-.219-.798-1.283.614-.291.684.804.634 1.789 1.34 1.79 2.476.295.747.415-.68.239-1.014.112-.604.289 1.132.197 1.566.486.153.214.598.64 1-.556-.501-.999-1.479-1.79-1.558-.711.095-1.299.59-1.301 1.346-.243 1.626.042 3.327-.17 4.945-.15 0-.01-1.38-.048-1.907.059-1.176-.125-2.396.245-3.532-.858.391-.473 1.565-.704 2.317.06 1.316-.034 2.681.238 3.969.332.905 0-.945-.042-1.274.14-.327.223 1.61.283.818a33.47 33.47 0 0 1 1.14-3.663c-.263 1.695-1.333 3.426-.944 5.187.167.04.181-1.25.502-1.648.403-.96-.105.548-.15.89-.113.782-.182 1.554-.052 2.341.481-1.328.948-2.677 1.501-3.964.135.126-.39 1.126-.478 1.602-.175.95-.78 1.804-.883 2.74.296-.832.78-1.893 1.11-2.832-.167 1.255-1.22 2.461-1.119 3.832.54-1.241 1.503-2.225 2.077-3.445-.297 1.097-1.108 1.941-1.687 2.894.708-.835 1.884-1.164 2.952-1.058-1.241.271-2.643.561-3.298 1.78.108.332.876-.742 1.381-.656 1.313-.289 3.072.01 3.607 1.41.326.483-.256-1.055-.257-1.428-.131-1.037.093-.816.073.09.381 1.014.516 2.081.447 3.16-.188-.671.044-1.502-.492-2.103-.833-1.084-2.424-1.047-3.653-.922-1.402.672.48-.124.093.15-.82.322-1.033.601 0 .342 1.17-.077 2.592.24 3.255 1.303-.837-.815-2.082-1.37-3.235-1.022 1.292.232 2.73.711 3.285 2.019-.314.135-.728-1.043-1.319-1.2-1.268-.748-2.81-.708-4.211-.905-.62-.192-1.381-1.042-1.954-.374.935-.21 1.506.653 1.605 1.476.216 1.305 0 2.849-.938 3.835-1.08-.082-.243-.202-.839-.644-.24-.717-.768-1.241-.422-.14.325.807.413 1.073-.033.145.089-.568-.869-1.582-.566-.487.027.916.88 1.905 1.835 1.403 1.193-.436 1.4-1.992 1.377-3.11.086-.426-.302-1.926.095-.86.18 1.406-.01 2.952-1.042 4.006-.32.36-1.76.057-1.278.359.818.621 1.918.175 2.871.286 1.251.06 2.485-.227 3.499-.985-.238.382-1.142.746-1.712.926-.538.299-1.853-.23-1.235.778.56 1.65 1.133 3.373 1.468 5.047-.352-.976-.647-2.3-1.026-3.393l-.704-2.178c-.968.162-2.015.223-2.963-.064-.795-.699-1.415-1.618-1.43-2.71-.686-.392.286-1.507-.704-1.27-.858.027-1.63-.328-2.256-.875-.656-.21-.974-.615-1.379-1.12-.5-.42-.475-1.214-.756-1.595-.853-.286-.01-.88-.54-1.351-.548-1.222-1.35-2.377-1.743-3.64.01-.985 1.29-.68 1.95-.726 1.104.128 2.459-.382 3.3.561.315 1.213.832 2.352 1.324 3.5 1.301.195 2.692.556 3.43 1.753.413.439 1.156 1.662.925.364-.032-1.282.105-2.588-.404-3.8.028-1.768-.095-3.582.148-5.315-.665.305-1.137 1.083-1.902 1.299-1.181.893-2.745.537-4.122.768-.26.975.084-.381-.438.128-.456-.332-1.189-.33-1.78-.427-.975-.393-1.816-.97-2.483-1.788-.558-.67-.737-1.156-.95 0-1.24 3.557-.598 7.408-.935 11.07.28.867 1.009 1.74 1.398 2.596-.397.423-1.562-.257-1.309.81-.398 1.991-1.612 3.717-2.207 5.656-.752 1.796-1.12 3.748-1.652 5.591-.058-.04.02-.102 0-.147zm1.152-10.895c.473.025.751-1.54.4-.663-.21.752-1.13.683-1.724.486.336.37.917.417 1.324.176zm14.026-.645c-.891-.647-.856-.458.01.081.566.267.438.101-.01-.08zm-13.87-.272c.965-.431-.297-.013-.716-.069.75-.305 1.549-.61 2.123-1.243.824-.744-.372-.358-.759.015-.538.279-1.32.769-1.854.264.635-.632 1.905-.679 2.097-1.665-1 .09-1.814.85-2.856.736-.25.992.608 2.007 1.62 2.028.114.037.246-.035.346-.066zm3.465-.322c-.955-1.647-2.003-3.297-2.688-5.054-.543-1.067-1.815-.598-2.767-.687-.66.082-1.402-.157-2.006.147.316 1.004.042.186.74.204 1.245.063 2.704-.404 3.76.444.205-.268 0 .118.325.593.895 1.538 1.686 3.157 2.706 4.61.152-.08-.05-.162-.07-.257zm9.423-.177c.85-.505 1.289-1.801.901-2.71-.59-.835-.499-.51-.085.213.152.887-.199 2.132-1.15 2.41-.584.182-1.43-.662-.611.143.294.167.677.122.944-.055zm.546-1.266c.464-1.3-.324.469-.259.482.183-.084.204-.341.259-.482zm-.198-.493c.052-1.054.408-.395.223-.964-.3-.603-.92-1.004-1.235-1.607-.734-.818-.57.021.068.35-1.476.163-2.499-1.102-3.597-1.867-.177-.548-1.112-.165-.63.292.76.684 1.638 1.459 2.222 2.19-1.285-.485-2.428-1.329-3.627-1.924-.804.216.436.845.677 1.184.461.507 1.265.837 1.652 1.28-.617-.122-1.205-.597-1.653-1.085-.254.606.531 1.243.966 1.606.951.691 2.03 1.289 3.25 1.109.856.223 1.594-.443 1.662-1.282.254-.89.023.652-.17.916-.417.857.071.329.193-.198zm-4.382-1.466c-1.131-.62-.059-.165.474.159.184.184-.415-.115-.474-.159zm-10.696 1.475c.145-.4.952-.876 1.498-1.094.403-.594-.882-.626-1.177-.14-.394.276-1.768.725-.823 1.162 0 .06.8.195.502.072zm16.769-1.9c-.799-.946-1.58-2.045-2.904-2.224-.803-.383-1.166-.187-.606.617.949-.254 1.692.754 1.595 1.635.432-.171 1.174-.242 1.671.138.42.26.778.324.244-.166zm-3.335-.758c-.636-1.517-1.434-3.051-1.888-4.613-.618-.675.143.64.217 1.048.524 1.252 1.048 2.524 1.673 3.724.037-.051.16-.097 0-.159zm-12.229-.415c-.396-.058-1.625-.35-1.774.087.532-.06 1.446.118 1.774-.087zm12.753-.165c-.446-.537-.936.277-.116.227.07.01.22-.14.116-.227zm-3.848-1.694c-.012-.291-.492-.824-.982-.821.632.73-1.132.025-.069.649-.18-.034-.303.36.659.319.139-.054.817.132.393-.147zm-5.931-2.068c-.218-1.935.686-3.711 1.178-5.517-.101-1.124-.407-.466-.487.289-.597 1.704-1.407 3.48-.94 5.322.098.65.334 1.655.257.368 0-.153 0-.316-.01-.462zm5.794-.59c-.26-.648-1.206-.182-1.775-.31-.826-.301-1.299.514-.23.365.647-.036 1.45.072 2.005-.054zm-2.651-.431c1.245-.143 2.513-.038 3.758.067-.648-.634-1.739-.267-2.575-.327-.697.096-1.469-.09-2.115.199-.183.582.595-.111.932.061zm4.98-2.549c1.586-.081 3.042-.895 4.08-2.073.564-.72 1.563-1.02 1.922-1.893-.23-.522-1.037-1.176-1.385-.415-.916.858.357-.234.116-.744-.91.987-1.693 2.169-3.029 2.61-.91.477-1.824.946-2.866 1.022 1.447-.06 3.072-.418 4.28-1.349-.01.147-.859.856-1.35.988-1.61.61-3.502.864-5.033-.1-1.177-.477-2.192-1.419-2.574-2.646.494-.906-.86-.235-1.026.188 0 1.073.858 1.97 1.43 2.829.823.997 2 1.719 3.33 1.637.703 0 1.407.061 2.104-.054zm7.035-2.63c-.068-.37-.826-1.488-.897-.866.461.356.605.91 1.04 1.227l-.143-.362zm-.403-.184c-.31-.844-1.481-.195-.336-.181.08.064.537.547.336.18zm.339-.355c-.399-.64-1.063-1.037-.217-.222.058.165.401.661.217.222zm-5.11-2.65c.934-.778-.253.12-.632.341-.825.507.473-.098.633-.342zm-2.824.34c1.543-.55 3.188-1.476 3.658-3.163.284-1.018.483-2.238.4-3.205 0-.113-.723-.707-.747-1.301-1.81-.07-3.581-.728-5.02-1.813-.479-.175-.834-1.615-1.025-.569-.778 1.558-2.488 2.445-4.09 2.954.022 1.033.545 2.077.626 3.132.166 1.163.72 2.284 1.797 2.844 1.166.608 2.347 1.448 3.73 1.298.233.028.45-.124.671-.177zm-1.833-.776c.161-.04 1.746-.416.476.05-.152-.022-.364.05-.476-.05zm.053-.443c-.345.14-1.997-.584-1.063-.352.863.347 1.942.33 2.696-.242 1.246.455-.105 0-.637.484-.335.123-.646.198-.996.11zm-.723-.912c-.643-.027-.668-1.073-.173-1.205-.483.396-.228 1.145.428 1.123.69.453 1.43-1.007 1.23-.177-.48.186-.968.556-1.485.26zm-2.513-1.498c-.112-.35-.301-.171-.466-.25-.305-.047-.631-.033-.234-.59-.586-.542.483-.176.386-.989.04-.055.31 1.077 1.067.673.716-.199.991.548.773 1.057-.463-.438-.377.362-.666-.075.154.658-.342-.134-.372.432-.173-.467-.555.222-.488-.258zm5.649-.073c-.208-.166-.53-.316-.585-.254-.26.398-.037-.76-.494.056.07-.691.08-1.493 1-1.193.867.191 1.635-.46 2.262-.84-.845.39-.253.879-.784.817-.069.148.293.334-.162.285.388.341-.496.052.077.528-.768-.538.149.5-.553.143.385.49-.401.264-.47.34.18-.02-.512.34-.291.117zm-5.8-2.184c-.679.136-1.846-.165-.649-.584.679-.01 1.453-.172 2.091.12.481.697-.63.437-1.14.472-.101 0-.202-.01-.302-.01zm3.887-.238c-.416-.564.936-.53 1.307-.676.873-.363 1.764.029 2.605.272-.605-.03-1.21-.016-1.569.198-.182.038-.611.048-1.326.179-.38-.093-.755.427-1.017.027zm-2.98 6.062c-1.172-.58-2.219-1.567-2.68-2.846-.698-1.67-1.125-3.473-1.389-5.252-.128-1.715.892-3.22 2.15-4.283 1.169-.997 2.818-1.439 4.332-1.254 2.185.43 4.059 2 4.913 4.05.964 1.78 1.886 3.65 2.017 5.702 1.058-1.655.661-3.76.01-5.493-.69-1.753-1.75-3.44-3.447-4.37-1.89-1.286-4.402-1.828-6.557-.888-2.016.74-3.88 2.602-3.717 4.887-.117 2.354.288 4.758 1.287 6.898.567 1.331 1.624 2.566 3.088 2.889zm9.11-4.646c.158-1.206-1.033.65-.118.315.248.076.09-.2.118-.315zm-11.469-2.792c1.161-.359 2.26-1.031 3.082-1.926-1.078.895-2.273 1.685-3.651 2.019.197.029.389-.058.57-.093zm.622-.595c.773-.306 1.054-.402 1.55-.87.71-.4 1.302-1.055 1.496-1.848-.613 1.332-1.956 2.21-3.283 2.713-1.153.167-.59.317.218.012l.022-.01zm7.56-.267c-.713-.232-1.62-.461-.413-.037.572.272 1.594.291.412.034zm-.345-.414c-.957-.237-1.883-.63-2.688-1.2.761.873-.485-.253-.705-.573-.617-.713-.337-1.678-.397-2.537-.299 1.128-.099 2.462.9 3.189.165.385 1.668 1.07 1.292.793-1.041-.509-.674-.558.133-.03.693.243 1.41.514 2.146.557-.222-.066-.488-.13-.681-.2zm-7.378-.108c1.244-.34 2.482-1.21 2.864-2.48-.62 1.496-2.195 2.394-3.752 2.568.305.024.608.036.888-.088zm-.06-.655c1.033-.566 2.12-1.209 2.658-2.307-.76 1.132-1.98 1.864-3.19 2.415-1.104.088.132.192.532-.108zm8.161-.163c-1.405-.396-2.896-.786-3.962-1.846 1.028 1.242 2.675 1.534 4.134 1.995.818.045.1-.068-.172-.15zm.063-.69c-1.364-.489-2.828-.938-3.814-2.074.88 1.233 2.455 1.712 3.843 2.111l-.029-.027zm-8.162-.253c.814-.337 1.575-.862 2.139-1.545a7.87 7.87 0 0 1-2.687 1.685c.197.034.374-.095.548-.14zm7.404-.713c-1.045-.424-2.071-.944-2.842-1.796.61.99 1.8 1.504 2.87 1.821l-.028-.029zm-6.64-.419c.49-.168 1.206-1.13 1.21-1.222-.543.637-1.202 1.13-1.886 1.601.25 0 .453-.275.676-.379zm14.503 41.445c-.253-1.106.124-.279.148.342-.101.513-.093-.275-.148-.342zm-5.298-1.085c-.119-2.643-.512-5.265-.625-7.907.28 3.075.73 6.23.743 9.267-.097-.386-.07-.922-.118-1.36zm-3.838-1.224c0-.445-.01-2.11.01-1.756a54.017 54.017 0 0 1-.01 3.755v-1.998zm7.41.477c-.225-2.132-.632-4.242-1.102-6.333.64 1.572.76 3.332 1.022 5.008-.01.355.264 1.255.08 1.325zm-7.478-5.059v-2.308a80.74 80.74 0 0 1 0 4.617v-2.308zm1.715 1.654c.001-1.508.07.966 0 .344v-.344zm-8.63-4.03c.166-.78.524-1.471.133-.283-.034.02-.135.518-.133.282zm17.22-.911c.532-.382 1.058-.98 1.361-1.437-.28.645-.867 1.364-1.603 1.628l.241-.191zm-10.38-.433c0-1.508.07.966 0 .343v-.343zm10.349-.925a7.404 7.404 0 0 0-1.245-2.11c.866.429 1.615 1.412 1.574 2.372-.223.602-.169-.037-.33-.262zm.208.01c-.143-.688-.55-1.52-1.148-1.842.6.575 1.103 1.464 1.16 2.176.09-.07-.028-.235-.012-.334zm-15.378-4.253c-.01-1.09.01-1.024.048 0-.052.97-.052 1.484-.048 0zm16.28-1.814c-.02-.387-.236-2.131 0-.944.13.337.097 2.128.033 1.328l-.029-.384zm-31.603.164c-.862-.086-1.951.255-2.472-.66-.298-.896-.091-1.893-.022-2.824.08.907-.191 1.919.113 2.76.555 1.015 1.884.485 2.82.616 1.871-.039 3.782.078 5.628-.058.972-.449.504-1.733.614-2.585v-4.787c.151 1.912.034 3.936.083 5.89.113.722-.22 1.882-1.153 1.67-1.87 0-3.753.044-5.612-.022zm1.323-.5c-.331-.632 1.328-.576 1.432-.122-.08.368-1.171.212-1.432.122zm1.295-.158c-.479-.387-1.902.184-.465.103.112-.059.53.122.465-.103zm5.47-.31c.327-2.326 1.082-4.64 2.34-6.634.605-.74 1.222-1.632 2.132-1.978-2.59 1.775-3.65 4.967-4.269 7.904-.029.29-.318 2.072-.203.708zm-10.031-.481c-.3-.737 0-1.67-.063-2.485.042-2.349.046-4.697.074-7.046.383-.459 1.179-.88 1.676-.335 1.526-.068 3.101.034 4.596-.139.542-.209 1.106.073 1.68.211.424.506.06 1.35.177 1.988l-.03 7.73c-.512.468-1.374.093-2.027.22l-5.947.03c-.01.097-.124-.249-.137-.174zm3.837-.553c.5-.546-.79-.396.017.137.081.018-.01-.09-.017-.137zm-2.652 0c-.313-.282-.93-.465-.274-.034-.013.122.344.172.274.034zm6.646-.869c.26-.71.026-1.623.1-2.41l-.027-4.985c-.505-.514-1.39-.106-2.056-.23-1.808.056-3.66-.067-5.44.099-.507.507-.136 1.417-.257 2.084.028 1.79-.1 3.642.024 5.393 1.73.295 3.575.08 5.35.155.743-.08 1.649.165 2.307-.106zm-6.29-.992c-.815.2-1.262-.519-1.009-1.244.11-.67 1.725-.49.522-.341-.788.135-.628 1.598.233 1.495 1.902.016 3.85.084 5.732-.034.591-.385.376-1.311-.274-1.528.868.062.954 1.651.066 1.688-1.755-.019-3.522.041-5.27-.036zm3.557-1.36c.366-.058 2.256.045 1.15.024-.34-.01-2.193.016-1.359-.015-.025-.094.21.062.21-.01zm-2.685-1.103c1.715-.038 3.43 0 5.145.02h-6.89c.581-.01 1.163-.013 1.745-.02zm-1.366-1.208c-.07-.72.12-1.426.426-2.073.331.885.598 1.997.411 2.85-.192-.728-.015-1.74-.449-2.5-.414.756-.093 1.79-.326 2.5-.145-.081-.02-.584-.062-.777zm1.254.283c-.043-1.328.553.485-.02.495.01-.165.013-.33.02-.495zm.921.133c.082-.692.094-1.39.147-2.084.01.796.068 1.75-.127 2.446-.16.045.028-.295-.02-.362zm.596-.091c.052-1.38.22 1.3 0 .09zm.683-.012c.01-1.325.218 1.344.01.102v-.102zm.611.2c-.103-.74-.01-1.622.107-.372.108.275-.016 1.054-.107.371zm.8-.097c-.094-.421-.146-2.202.095-1.204-.01.231.046 2.286-.095 1.204zm.578-.013c.107-1.322.244 1.246 0 .011zm.678-.188c.048-1.561.308 1.235-.015.32.01-.105.01-.218.015-.32zm25.746 3.443c-.272-1.237-.77-2.45-1.311-3.555.752 1.13 1.287 2.653 1.464 4.023-.08.096-.106-.408-.153-.468zm-33.501-3.672c-.05-.35.089-1.922.1-1.48.024.748-.031 1.493-.102 2.238v-.758zm22.201-1.414c-.94-.209-.95-.453 0-.049.934-.065 1.33.156.158.086.072-.126-.16.025-.158-.037zm-13-1.4c.011-.819.125-1.909-.849-2.216-.952-.438-2.087-.094-3.118-.196-.821 0-1.642.01-2.463.01 1.773-.021 3.58-.256 5.333-.023 1.03.168 1.344 1.32 1.185 2.222.01.361-.016 2.295-.075 1.133 0-.31-.01-.62-.014-.929zm16.375-.951c1.137-.934 2.122-2.074 2.99-3.254 1.295-2.234 1.293-4.933 1.227-7.442-.053-.69-.338-1.43-.402-2.055.638 1.588.704 3.323.58 5.006-.041.97-.411 1.949-.526 2.86.858-1.835 1.244-3.844 1.352-5.86.204.25.01 1.27-.042 1.81-.269 3.034-1.571 6.05-3.968 8-.253.333-1.533 1.247-1.213.934zm-25.622-.115c.215-.886.517-.643.038.058l-.036-.058zm3.797-.277c-.075-.64 1.121-.183 1.569-.322.343.723-1.25.38-1.57.322zm1.449-.098c-.273-.265-2.028.028-.82.086.205-.061.834.126.82-.086zm10.163-1.253c-.951-.976.806.495.208.218-.068-.073-.144-.144-.208-.218zm14.59-.208c.572-.344 1.09-.847 1.535-1.381-.392.561-.908 1.258-1.535 1.381zm-15.601-1.02c-.674-.873-1.214-1.963-1.38-3.024.42 1.332 1.074 2.588 1.97 3.662-.285-.01-.385-.462-.59-.638zm17.702-.85c.398-.75.418-1.576.395-2.405.25.647.065 1.357-.035 1.98-.014-.068-.453.837-.36.425zm-19.432-3.922c-.175-2.592.912-5.099 2.34-7.206.651-.935.579-.472.01.204-1.143 1.695-1.996 3.664-2.233 5.696-.062.591.152 1.456-.068 1.892l-.05-.586zm19.373-.04c-.357-1.496.438 1.09.019.067zm-.828-2.486c-.364-.79-.399-1.667-.595-2.503.443 1.01.418 2.148.906 3.149-.145.086-.206-.514-.31-.646zm-1.26-3.967c-.572-1.076.01-.082.355.326.521.461-.235.08-.355-.326zm-.776-1.25c-1.362-2.238-4.035-3.523-6.635-3.239-1.156.069-.921-.114.059-.14 2.63-.192 5.305 1.102 6.68 3.368.525.773.386.798-.105.01zm-13.095-.667c1.15-1.177 2.724-2.056 4.313-2.353-.887.335-2.06.692-2.926 1.307-.69.423-1.228 1.09-1.833 1.567-.172.011.405-.43.446-.52zm4.408-2.378c.789-.318 1.341-.143.165.013.001-.073-.213.12-.165-.013z" style="fill:#28262c;stroke-width:1" transform="translate(2206.3 -1725.128)"/></svg>