<svg xmlns="http://www.w3.org/2000/svg" width="200" height="200" viewBox="0 0 52.917 52.917"><path d="M-2293.758 1838.55c1.393-.7 3.791-.13 5.573-.325 1.947 0 3.894.014 5.84.044.197-1.724-.167-2.754-2.063-2.263-4.736-.01-9.517.033-14.226.047-.476-1.096 1.304-.472 1.943-.632h14.234c-.347-1.708 1.218-3.662.3-4.972.745-2.68-3.223-1.112-4.67-2.09-1.18-.914-.253-2.475-1.392-3.46-.866-1.182-.052-2.6-.37-3.597-.86-.937-2.376-3.507.088-3.176 2.47-.656 3.99 1.2 4.673 3.347.807.486.762-2.53 1.464-3.345.6-1.356 1.279-2.76 2.366-3.776-1.304.405-1.94-2.166-.63-1.6-1.083 1.745 2.255.95 1.694.469-1.002.86-2.33.291-1.044-.718.555-1.32-2.759-1.664-1.961-3.649.115-1.508-.474-2.254-1.784-2.63-1.23-.687.64-3.802-.632-1.515-.454.875 1.62 2.346-.09 1.533-2.553-1.71-.209-4.414 1.497-5.523 1.966-3.82 8.45-4.395 10.704-.557-.052 2.142 2.768.38 3.233 2.605.743 1.78-.445 3.593-.323 5.365.473 1.21 1.127.273 1.3-.29 1.739.156.884 2.424-.111 2.742 1.26.225 1.026 2.584 1.864 1.592.743 1.407-1.347 1.693-1.655 1.384-.93 1.393-.432 2.594-.073 4.243.41 3.247.742 6.512.75 9.788.262 1.784-1.208 4.326-3.53 3.899-1.889-.194.45 2.424.07 3.699 1.935.586 4.845.074 7.154.24 1.754.3 4.54-.616 5.64.463-.828.38-1.872.017-2.794.133h-9.937c.041 1.203-.502 2.71 1.19 2.24h5.701c-.581.78-2.042.156-3.013.344h-26.936l-.046-.046zm13.237-.832c-.323-1.074.616-2.978 1.255-1.652.822.968-.496-2.397.43-.893.634 1.119.407 3.497 2.175 3.012h5.371c-.164-1.139.615-2.276-.477-1.894-1.826.132-2.395-2.939-3.2-3.686-1.914.35-4.599-.612-5.936-.317-.132.001-.378-1.313-.581.1-.495 1.819-.367 3.709-.325 5.569.225.438 1.42.427 1.288-.239zm6.56-.392c.796-.662 2.652.193.767.129-.158-.171-.885.245-.766-.129zm2.652-2.157c-.094-.975-.47-3.022-1.045-3.19.27.964.79 3.406 1.069 3.455zm-1.656-1.549c.033-1.108-1.14-1.62-.37-.275.37.849.865 1.626.37.275zm-1.973-2.647c1.174-.187-2.103-.737-2.165-1.692-.724-.149-1.569-.806-2-1.511-1.217.162-2.86-.793-2.404 1.297-.02 2.345 3.752 1.765 5.42 1.942.383-.01.766-.023 1.148-.036zm4.024-.075c-.885-.058-.83.084.023.026l.335-.001zm1.323-.151c1.818-.495 1.681-2.672 1.772-4.175-.162-3.342-.39-6.704-.99-9.998.11-1.71-1.56-2.96-2.65-1.248-.65.91-1.182 1.487-.686 2.056-.431.866 1.24-1.998.547-.17-.952 2.773.024 5.71.186 8.535.09.714 2.49-.125.681.094-.531-.605 2.021.076 1.63 1.225-.262 1.172-1.97-1.325-3.202-.481-1.023.317-1.283.554-2.485-.252-.596.385.764 2.16-.336 3.026.73.872 3.033 1.8 3.697 1.232.229-.688 1.235.877 1.836.156zm-1.923-3.45c-.478-.61.524.229.465-.154.255.499-.304.619-.465.154zm.341-2.14c.984-.623 2 .318.3.078zm.077-1.069c-.095-.851 1.29.54 0 0zm-.555-2.307c.16-1.102.641.22-.017.095zm-4.485 7.128c1.085-.338 1.17-3.19.26-2.638.389.9-.315 2.066-.26 2.638zm-.503-1.078c1.155-1.055-1.532-3.324-.932-1.104-.868.67.548 1.787.932 1.104zm-2.521-.606c2.312-.813-.319-2.724-1.765-3.156-1.546-.615-1.352.326-.022.468.59.868-2.078-.43-2.764-.666-2.399-.195 3.25 1.861.533 1.107-1.844-.786-.78.345.318.716.632.183 2.221.867.64.763.847.605 2.094 1.037 3.06.768zm-2.9-1.546c.162-1.066 1.35.765 0 0zm9.038.515c.818-1.364-.274-3.646-.19-5.347.303-1.026-1.062-1.443-.21-2.153.211 1.39.286-1.928.914-2.401.148-1.444 3.668-2.553.867-2.94-1.098 1.103-1.926 2.538-3.16 3.544-1.25.154-1.392-3.336-1.924-.808-.925 1.42-1.01 4.904-1.656 5.312.24-1.564.791-3.037.483-4.181.635-.977.183-3.638-.544-1.417-1.011 1.99-1.556-.13-1.034-1.14-.852.56-1.755 2.903-.967 2.113.124-.133.732-.542.32.46-.593 1.255 1.36-.653.17 1.044-.886 1.087-.39 2.539-.536 2.826-.534.951-1.01 2.893.69 2.878 1.514 1.94 3.602 1.051 5.546 2.226.343.283.861.05 1.23-.016zm-3.453-2.731c-1.636-.592-1.32-4.141.946-3.103 1.379-.438.786 1.067.908 1.868.377 1.038-1.11 1.534-1.854 1.235zm1.103-.322c1.062-.461.963-3.322-.799-2.508-1.86-.444-1.063 3.896.799 2.508zm-1.689-.511c.518-.813 3.285-1.622 1.276-.47-.426.074-.837.583-1.276.47zm.586-1.304c-1.453-.344 1.443-.614.081-.267.795-.012.925.4-.08.267zm-9.52 4.27c2.013-1.039-3.14.188-.367.104l.366-.104zm-.345-.713c2.726-.698-2.317-.562-1.146.224.393-.01.76-.17 1.146-.224zm-.517-.721c2.602-.564-1.508-.863-.994.111.334.129.696.061.994-.111zm4.078-.62c-.3.058-1.863-.909-1.377-.192.193.024 1.71.543 1.377.192zm-5.21-.045c1.106.151 2.078-.996.31-.524-.317-.151-1.08.89-.31.524zm6.172-.165c-.903-.597-1.33-1.21-.404-.081-.449.256.666.23.404.08zm-.7-1.601c.146-1.003 1.617-3.411.796-3.708-.243 1.213-1.702 3.508-.914 4.085l.089-.121zm4.922-3.988c.275-.475.638-2.267-.017-.797-.155.311-.248 1.077.017.797zm2.789-1.396c.72-1.445 3.728-2.833 2.431-4.556-1.08.42-2.191 1.949-3.515 2.497-.422.087.814 2.414 1.084 2.06zm-4.077-.729c.446-.969 1.244-1.893 1.802-1.178-.652-.876.606-2.121-.819-.932-.968.143-1.922 2.71-1.24 2.593.098-.152.144-.338.257-.483zm2.288-.933c.547-.546-1.12.565 0 0zm-.426-3.343c1.667-.501 2.614-2.402 2.529-3.944.838.62 2.179-1.255.868-.225.26-.209-1.154-.37-.406-1.383 1.733.133.092-1.285-.387.036.396 1.212-1.148 1.423-.923.395-.926-1.527-3.273-.485-4.546-1.799-1.007-.303-1.27-2.614-1.597-.68-1.467.58-1.07 2.736.36 2.28-1.377.753.01 2.725-.073 4.044.807 1.405 2.73 1.839 4.175 1.277zm-2.451-.833c-1.36-1.211 1.089.52.764-.876-.456-1.123 1.192.565-.175.845l-.28.07-.31-.04zm1.723-.627c-1.85-1.482 2.229-2.447 1.34-.412-.256.43-.882.716-1.34.412zm-2.696-.566c-.553-.864.664-.937-.391-1.37-1.043-.105.32-1.215.34-.417 1.36.268-.545 1.836.805 1.296.14.443-.44 1.048-.754.49zm1.661-1.535c-.343-1.947 1.93.911 0 0zm-.137-1.632c-1.507-.78 2.83-.098.448.048zm7.51-.539c.42-.986-.255-3.092-.186-.941 0 .319-.593 1.985.187.941zm5.61 1.989c-.752-.762-.54-3.008.024-3.702.935-.42-.077-3.318 1.668-2.014.2 1.33-.363 3.6.27 4.304.483-.541.132-3.61.483-1.409-.094 1.598 1.9-1.023 1.255-1.84-.13-1.03-.258-3.667 1.322-2.381-.576 1.305 1.716.969.933 2.516-1.024 1.89 3.224 3.463.563 4.643-2.15-.03-4.316.108-6.464-.061l-.055-.056zm6.38-.852c-1.441-.24-1.355.214 0 0zm-3.146-.71c.608-2.02 2.172-.952 3.335-.033-.843-1.446-2.728-2.36-3.637-.403-.823.75-.37 1.096.302.436zm2.112-2.688c.606-1.22-.704-.918-.44.195-.043 1.034.717.51.44-.195zm-3.944-.551c-.743.01.399-.56-.566-.098 0 .261.492.098.566.098zm0-.633c-.677-.513-.906.602 0 0zm3.003-.717c.878-.491-1.215-.018 0 0zm.322-.678c-.691-.29-.995.343 0 0z" style="fill:#e9b1b2;stroke-width:1" transform="translate(2304.69 -1788.298)"/><path d="M-2292.995 1838.546c-1.704-.22.78-.38 1.376-.295h9.339c.083-1.69-.228-2.743-2.125-2.257-4.549 0-9.097-.051-13.645.01-1.725-.19.59-.871 1.387-.542 4.735 0 9.47-.025 14.205-.036-.32-1.7 1.195-3.635.306-4.962.749-2.28-2.44-1.558-3.91-1.782-2.17-.524-.919-2.926-2.347-4.129-.794-1.485.61-2.855-.732-4.065-1.265-1.16-.845-2.929 1.13-2.369 2.747-1.046 3.39 2.705 4.578 3.56.61-2.622 1.517-5.398 3.467-7.335-1.143.289-2.186-1.75-.626-1.791-1.276 1.91 2.208 1.221 1.722.632-.907.837-2.54.442-1.098-.705.67-1.28-2.765-1.582-1.996-3.591.832-2.454-3.059-2.175-2.095-4.588 1.315-1.879-1.373 1.038.079 1.826.517 1.001-2.184-.885-1.59-1.858-.089-2.288 2.618-2.648 3.3-4.56 2.473-2.796 7.798-3.027 9.902.315.05 2.39 3.125.523 3.447 3.052.541 1.73-.581 3.419-.41 5.112.878 1.809 1.008-1.456 2.111.083 1.135 1.156-1.34 2.282-.943 2.325 1.337.15.984 2.8 1.736 1.524 1.169 1.263-1.453 1.888-1.51 1.348-1.278 2.078.276 4.333.201 6.8.207 3.111.905 6.329.087 9.399-.233 2.072-3.286 1.566-3.998 2.08 1.054 1.322.063 4.432 2.488 3.69 3.677.01 7.356.02 11.03-.02.562 1.132-1.275.377-1.955.57h-10.557c-.082 1.198-.54 2.748 1.147 2.28l5.686.03c-1.803.69-4.374.047-6.454.271-7.578 0-15.156.028-22.733-.022zm14.555-.38c.248-1.236-1.455-.806-.404-1.31-.563-.513-.765-.855-.025-.628-.626-1.007-.094-2.121.186-.355.491 1.33.699 2.87 2.404 2.387h4.997c.135-2.129.243-5.529-1.436-6.66-2.797.555-5.737.51-8.5-.213-.533 2.073-1.35 5.309-.162 6.878h2.945v-.086zm4.507-.85c.575-.56 2.702.153.836.115-.157-.137-1.057.182-.836-.115zm1.444-1.223c-1.046-.714-2.512-2.674-1.79-3.617.069.969 1.451 3.219 1.73 2.76-.08-.96-1.101-3.582-.115-1.377-.01.99.878 2.043.717 2.532-.334-.048-.293-.192-.542-.298zm-1.098-4.818c.769-.243-1.844.034-.394.027zm-1.002-.3c-.504-.388-2.35-1.204-2.845-1.945-1.398-.04-1.183-1.998-2.842-1.244-1.69-1.306-1.838 2.664-.288 2.726 1.902.66 3.996.56 5.975.463zm4.093-.028c2.69.177 2.737-2.912 2.699-4.83-.201-3.356-.403-6.743-1.097-10.036-.326-3.169-3.416-.746-3.654 1.124-.459 1.065-.553 3.766.146 3.937-.165-1.232.087-4.476.95-4.247-1.369 2.808 0 5.892-.027 8.822.419.508 2.89 1.088 2.02 1.756-1.376-1.89-3.668-.09-5.304-1.092-.742-.632-.274 1.094-.6-.232-1.219-.349.205 2.636-1.366 2.959.55.614 1.556-.757.777.47 1.528.88 3.38 1.43 5.17 1.4l.287-.032zm-4.503-2.105c.529-1.32-.28 1.338 0 0zm3.57-1.485c-.823-.878 1.044.623 0 0zm.914-1.573c-1.473-.258 1.945.068 0 0zm-.62-.692c1.416-.336 1.413.302 0 0zm-10.982 3.473c1.203-1.2-1.785-3.396-1.959-2.605.172 2.416-3.415 2.157-2.93.769-.174 2.782 3.614.873 3.463-.01-.398 1.47-1.45 1.624 1.426 1.845zm4.954-.127c1.707-.425.128-3.654-.446-2.33-.22 1.177-.191 1.566-.178 1.812.247.175-.832.384.265.618l.359-.1zm-1.941-1.173c2.388-.312.074-2.482-1.122-2.947-.818-.701-3.051-.385-.951.17 1.172.844-1.77-.247-2.196-.494-1.818-.641-.618.73.462.762 2.015 1.222-3.205-.963-.713.539.75.54 3.249 1.205 1.332 1.152.853.615 2.117 1.14 3.188.818zm-2.836-1.543c-.363-.743 1.257.351 0 0zm-2.71.993c.856-1.32-.46-1.954-1.17-.677-1.364.135.418 1.412.898.65-.243.645.174.452.273.026zm11.827-.528c1.609-.123.553-2.942.23-3.9-1.05-1.26-.722-3.156-.407-4.636 0-1.708 2.224-3.005 2.433-3.946-2.104-1.486-2.633 3.187-4.663 3.119-.747-.803-1.095-2.9-1.582-.656-.805 1.505-.968 4.505-1.544 5.288.403-1.72.592-3.133.589-4.496.548-1.598-.45 2.338.424.25.212-.597.659-2.29.121-.951-.771-.28-.173-2.554-1.02-.84-.628 1.87-1.981 1.112-1.194-.534-.717-.278-1.651 2.36-1.558 3.533-.056 2.793 1.067-3.972.872-1.101-.5 1.678-.061.344.563.233-1.153 1.1-.761 3.233-1.026 3.559-.428 1.043-.903 2.86.805 2.914 1.722 2.067 3.805 1.024 5.95 2.359.332-.083.671-.13 1.006-.194zm-3.786-2.824c-1.282-.437-1.2-3.93.746-2.979 2.1-.681 1.759 3.487-.261 3.16l-.245-.049-.24-.131zm1.203-.178c1.314-.601.831-3.462-1.066-2.6-1.46-.01-.722 3.922 1.066 2.6zm-1.418-1.98c.108-.415 1.843.318.198.088zm-9.127 4.406c1.835-1.168-3.31.217-.453.123l.23-.04zm-.354-.72c2.589-.688-2.074-.667-1.305.201.454.091.868-.146 1.305-.2zm-.782-.661c1.34.075 1.434-1.096.04-.546-1.2-.049-1.491 1.107-.04.546zm4.445-.508c-.37-.903-2.94-.711-.969-.18.144-.116 1.006.578.969.18zm-4.6-.343c2.034-.558-1.695-.847-.955.247.314-.1.638-.166.956-.247zm5.103-.344c-2.325-1.57 1.239 1.533 0 0zm.64 0c.694-.888-1.422-2.051.188-1.423.464-1.592-.396-3.14.185-4.753-.735 1.55-1.966 3.963-1.688 5.26.551.036 1.039.813 1.315.916zm-6.118-.506c-.432-1.033-.633.315 0 0zm13.257-6.675c.714-1.222 2.925-2.297 2.207-3.878-.865-.99-1.478 1.392-2.73 1.646-.763.535-3.43 1.815-1.241.935.582.407.847 2.914 1.764 1.297zm-4.334-.477c.368-.871 1.138-1.637 1.574-.82-.214-.827.314-2.265-.853-1.02-1.223.018-2.149 4.597-.721 1.84zm9.867-1.994c-.068-.675-.312 1.85 0 0zm2.02-.23c-1.099-.38-1.824-.538-.37.104zm-2.957-1.17c-.895-1.201-.01.394 0 0zm-7.568-.505c1.781-.38 2.974-2.398 2.878-3.99 2.495.84 1.45-4.098-.043-1.543.268 1.52-1 .785-.853.185-.837-1.672-3.388-.247-4.637-1.796-.966-.296-1.205-2.6-1.415-.786-1.268.61-1.543 2.85.203 2.45-1.433.614.19 2.597-.111 3.913.685 1.43 2.55 1.983 3.979 1.567zm-2.422-1.194c-.24-.185 1.796.23.936-1.056 1.173.095-.193 2.056-.935 1.056zm-.599-.878c-.628-.445.47-2.82.373-1.015-.828.231.037 1.01.218.42.351.308-.263.878-.59.595zm-.804-1.485c-.161-1.417 1.378.245 0 0zm2.454-.075c-.544-1.887 1.751.59 0 0zm4.779-.871c-1.01-1.23 1.166-1.429.545-.888-1.389-.284.238.587-.545.888zm-5.36-.905c.194-.94 2.693.403.531.064l-.41.01c.133-.106-.119-.037-.12-.074zm10.824 3.234c-1.056-.329-1.433.051 0 0zm-1.826-.922c-.436-1.668-.52-.704.118.284zm-12.365-2.53c-.375-2.35-1.31.784.265.775l-.133-.388zm11.24-.241c.428-.987-.268-3.093-.188-.94.021.32-.603 1.985.188.94zm2.051-1.275c.194-.888-.988-2.628-.174-.893.145.56.197 2.534.174.893zm-12.807-1.009c.319-.537-2.262 2.01-.504.47l.187-.167zm2.59-.162c-.66-.873-.949-1.088-.147-.06.38.456.743.621.148.06zm4.962.361c-.017.07-3.111-.339-1.056.057.352-.014.712.04 1.056-.057zm3.333-.252c1.998-.594-1.105-2.63-.367-.386-.252.225.666.8.367.386zm-8.774-3.454c-.514.22-1.626 1.512 0 0zm-.932-.316c.412-.585-1.875 1.777-.522.476l.215-.217zm15.468 8.157c-1.352-.509-.567-2.943-.243-3.77.957-.446.087-3.573 1.666-1.715.105 1.186-.317 3.28.244 4.057.551-.79.21-3.577.448-1.291-.137 1.591 2.092-1.408 1.34-2.322-.61-1.052.375-3.478 1.253-1.84-.18.613-.11 2.2.668 1.33-1.668-.41 1.025-.905.25.446-.395 1.675.39 2.673 1.464 3.814-.127 2.428-3.55.956-5.214 1.355-.626 0-1.252-.011-1.876-.064zm5.533-.39c1.46-1.097-1.993-.443-2.669-.644-.857-.17-4.487.034-2.244.682 1.637-.054 3.278.075 4.913-.038zm-.233-1.21c-1.817-1.556-.018-.87 1.092.034-.943-1.688-3.03-2.375-3.933-.244-1.754.895 4.505.736 2.841.21zm.17-2.62c.254-1.84-1.696-.25-.63.811.792.85.623-.3.63-.812zm-5.338 1.077c.495-.777-1.048.129 0 0zm1.061-1.836c-1.132-.68-.308.867 0 0zm-.057-.534c-.574-.568-.724.642 0 0zm2.986-.7c.878-.49-1.214-.018 0 0zm.322-.643c-1.177-.511-.627.579 0 0z" style="fill:#69d1de;stroke-width:1" transform="translate(2304.69 -1788.298)"/><path d="M-2292.995 1838.546c-1.064.157-.827-.494.103-.295h10.613c-.103-.754-.125-1.515-.176-2.274-5.202.022-10.418-.044-15.612.033-.74.505-1-.89-.063-.55 5.225 0 10.45-.022 15.674-.034.068-1.459.261-2.95.815-4.306-.722-.365-.489-1.109-.426-1.768.111-.67-1.162-.146-1.634-.545-.733-.573-1.576.18-2.379-.158-1.142-.163-1.773-1.512-1.245-2.518-.519-.193-.596-.779-.879-1.152.127-.32-.28-.737-.24-1.057-.676-.321.284-.877-.253-1.162-.269-.661.868-.775.25-1.288-.49-.812-1.12-1.593-1.49-2.446-.146-.784.711-.97 1.318-.84 1.082.132 2.38-.336 3.248.486.727 1.046 1.195 2.255 1.866 3.34.582-2.63 1.515-5.293 3.248-7.387.915-.677.318-.244-.429-.413-.77-.166-1.007-1.61-.076-1.658.588.087-.643.968.284 1.27.702.195 1.446-.092 1.866-.703.654-.813-.565.374-.958.406-.337.428-1.558-.09-.842-.387.499-.089.453-1.252.737-1.346-1.01-.286-1.981-1.108-2.233-2.149.219-1.476-.418-2.852-.863-4.22.02-1.063-.772-.33-.552.345-.094.561 1.398.989.54.94-1.358-.166-1.879-2.175-.773-2.989.307-.37 1.335-.915 1.337-1.055-.978.587-2.451 1.32-2.104 2.695-.12.568 1.267 1.411.103.958-.96-.385-1.452-1.456-1.274-2.452.028-1.284 1.233-2.107 2.305-2.581.923-2.433 3.632-3.796 6.15-3.686 2.325-.109 4.852 1.442 5.206 3.867.724-.447-.141.104.827-.107 1.306-.176 2.19 1.278 2.195 2.425.214 1.452-.586 2.806-.6 4.232.07.636.923 1.062 1.31.478-.687-.362.148-.868.647-.519.807.703.417 2.166-.63 2.378-.773.13.715.542.82 1.019.465.19.31 1.707.58 1.098 0-.995.795.042.46.5-.193.806-1.549 1.024-1.738.104.1.742-.132 1.467-.752 1.914.846 2.294.884 4.798 1.17 7.208.142 2.553.646 5.216-.177 7.695-.502 1.497-2.351 1.568-3.683 1.616-.818-.098.279.874.155 1.289.326.866.436 1.78.56 2.691 4.1-.043 8.221.026 12.309-.086.852-.133.366 1.17-.3.584h-11.947l-.126 2.273 6.96.036c-.051.619-1.231.11-1.736.275-9.155-.016-18.312.032-27.466-.024zm14.555-.38c.08-.425-.548-1.602-.737-.775-.286-1.07.967.111.102-.753-.878-1.01.253-.015.136-.502-.255-.307-.379-2.017 0-1.077.257 1.108.88 2.09 1.145 3.199h6.507c.239-2.288.03-4.692-1.068-6.752-1.96.538-3.998.477-6.006.407-.969-.078-1.948-.328-2.866-.527-.698 2.206-.942 4.596-.508 6.879h3.292v-.086zm4.79-.786c.422-.082 2.07-.028.873.04-.19-.015-1.588 0-.873-.04zm.157-.213c.732-.053 1.715.065.41.026-.348-.01-1.34.018-.41-.026zm1.004-1.074c-1.11-.834-2.074-2.132-2.056-3.57.51-.444.306 1.038.787 1.362a7.071 7.071 0 0 0 1.246 1.714c-.068-.976-.387-1.912-.691-2.824.568.918.916 1.97.912 3.055.855.138.61.928-.078.356.207.034-.184-.09-.12-.092zm-2.825-4.524c.669-.051 1.494-.092 2.043-.358-.81-.115-1.882.11-2.796.042-1.942.079-3.947-.107-5.68-1.058.351.895 1.592.925 2.423 1.176 1.321.217 2.674.338 4.01.197zm.871-.597c.466-.12-1.028-.352-1.291-.644-.586-.28-1.269-.704-1.46-1.343-.776.196-1.554-.347-1.59-1.151-.231-.27-1.208.076-1.75-.097-.814-.58-1.016-.121-.961.723.034.653-.427 1.647.486 1.86 2.034.895 4.396.78 6.566.652zm3.947-.025c1.13.04 2.38-.619 2.456-1.854.571-2.834 0-5.738-.183-8.59-.26-1.903-.298-3.92-1.134-5.676-.435-.858-1.539-.215-1.976.33-1.246 1.294-1.69 3.186-1.547 4.944-.03.313.478 1.863.477 1.04.01-1.485-.185-3.084.704-4.38.72-.652-.032.673-.102 1.008-.693 2.283.142 4.634.246 6.944.144.5-.173 1.49.599 1.38.77.199 1.512.568 1.833 1.343-.452.309-.94-.725-1.532-.757-.823-.388-1.83-.156-2.649.097-.64.196-1.319-.415-1.948-.583.304.761-.083.811-.072 0-.423-.399-1.06-.202-.49.353.046.863-.057 1.924-.744 2.494-.305.527.94.046 1.02-.093-.65.516-.453.876.348 1.067 1.482.535 3.094 1.157 4.694.935zm-4.503-2.105c.474-1.358-.05.974-.103.3l.103-.3zm3.599-1.476c-.897-.699.74.11.192.14l-.192-.14zm.885-1.585c-1.241-.062.212-.097.644-.093.234.323-.502.023-.644.093zm-.62-.69c.241-.209 2.049.014.846.07-.243-.05-.73.1-.846-.07zm-10.982 3.474c.243-.322.508-1.346-.092-1.584-.578-.557-1.155-1.113-1.88-1.476.148 1.14-.666 2.613-1.963 2.41-.746-.135-.936-.81-.904-1.475-.45.975.55 2.066 1.566 1.8.981-.08 1.611-.969 1.817-1.87.154.658-.311 1.224-.646 1.746.665.233 1.394.579 2.102.449zm5.094-.197c.785-.62.956-2.168-.156-2.56-.89-.46-.22.519-.504 1.014.08.575-.892 1.159-.28 1.524.263.262.652.222.94.023zm-2.238-1.071c.686.08.952-.469.986-.275.116-.282.207-.388.372-.587-.38-.895-1.364-1.405-2.094-2.013-.673-.385-1.465-.558-2.235-.565.114.59 1.04.537 1.51.813.156.52-.982-.063-1.344-.156-.742-.256-1.556-.833-2.32-.667-.304.521.945.586 1.288.868.813.213 1.092.8.083.323-.374-.151-1.831-.79-1.216-.057.888.543 1.876.964 2.803 1.373-.034.26-1.502-.417-.673.3.903.358 1.836.944 2.84.643zm-2.675-1.565c-.513-.664 1.334.157.041.01zm-2.713.983c.472-.704.166-1.362-.114-1.944.351-.606-.436-.853.192-1.184-.618-.291-.097-1.106.517-.87.807.302-.324-.857-.415-1.248-.454-.708-.82-1.57-1.414-2.134-1.176-.238-2.411-.04-3.61-.105.708.582 1.007 1.551 1.646 2.227.433.687.34.736 1.077.529.93.102.075 1.36.93 1.226.566.448-.119.941.708 1.12-.149.805 1.042 1.218.06.933-.235.587-.814.89-1.43.873.42.977.631.464.763.62.542.543.928-.509.837.343.156-.071.173-.275.253-.386zm-2.918-6.509c-.76.12-.597-1.27.072-.685.187.274.66 1.03-.072.685zm.066-.211c-.14-1.005-.739.197 0 0zm14.677 6.192c.931.116.963-.487.766-1.219-.135-.828-.056-1.763-.337-2.522-1.13-.783-.817-2.349-.876-3.54.272-1.632.882-3.353 2.161-4.456.486-.352 1.42-.356.43-.777-.621-.637-1.189-.428-1.557.325-.836.941-1.545 2.052-2.536 2.821-.721.316-.943-.804-1.222-1.267-.388-1.112-.339-.432-.667.263-.762 1.853-1.248 3.84-1.5 5.822-.49.032.12-1.213.071-1.665.192-.652.238-1.363.55-1.97-.918.063-.079-1.083-.025-1.592.205.307-.475 1.228-.111 1.445.39-.357.4-1.256.718-1.794.554-.837-.32-.32-.296.071.142.491-.604-.443-.369-.96.048-1.286-.323-.186-.676.363-.302.362-.754 1.555-1.258 1.021-.181-.676.155-1.537.227-2.076-1.218.916-1.528 2.53-1.664 3.962.044 1.02.188 1.026.327-.01.147-.7.317-1.426.652-2.058.162.573-.28 1.313-.349 1.95-.079.5.366-.847.77-.977.031.537-.586 1.202-.709 1.834 0 .467-.754 1.507-.162 1.643.975.155-.848.204-.356 1.081.11.52-.51 1.51.106 1.712 1.054.28 1.962 1.023 2.614 1.878.47-.452 1.287-.25 1.58.32.89-.743 1.917.306 2.724.56.309-.08.721-.136.974-.192zm-3.785-2.824c-.87-.1-.762-.929-.728-1.586.029-.644-.275-1.747.761-1.409l1.995.06c-.058.845.115 1.803-.086 2.578-.612.26-1.31.831-1.942.357zm1.203-.178c.96-.077.527-1.09.618-1.752.315-1.002-.575-.831-1.282-.839-.667-.143-1.353-.037-1.087.815.158.57-.331 1.566.456 1.724.463.293.827.402 1.295.053zm-1.346-1.954c-.286-.15 1.644.118.396.071-.133-.01-.295.04-.396-.07zm-9.529 4.473c.464.105 1.472-.794.507-.6-.515.194-1.39.09-1.692.462.25.387.809.192 1.185.138zm-.053-.793c.444.048 1.538-.494.603-.578-.723.098-1.49.164-2.16.471.185.61 1.112.155 1.557.107zm-.546-.724c.53.094 1.592-.647.576-.648-.567.16-1.42.129-1.782.516-.151.7.904.114 1.206.132zm4.238-.474c-.223-.504-1.06-.62-1.588-.688-.844.134.566.53.883.617.167-.02.776.417.705.07zm-4.597-.32c.928.064.87-.832-.01-.542-.43-.104-1.645.62-.9.77.303-.068.603-.153.906-.229zm5.592.056c-.486-.281-.815-.992-1.413-.975.321.468.631 1.084 1.286.998.014-.053.332.12.127-.023zm.148-.414c.264-.706.084-1.198-.593-1.606.306-.225.954.828.794-.329.01-.56.474-1.141 0-1.623.01-1.003-.054-2.052.284-2.983-.55 1.304-1.302 2.749-1.653 4.213 0 .45-.759 1.507-.023 1.423.49.066.978.891 1.199.905zm-6.069-.562c.115-.878-.98.335-.046.057l.048-.053zm.847-.119c-.517-.517-.383.475 0 0v-.01zm.603-3.5c-.903-.231-1.954-.016-2.914-.077-1.1 0 .811.028 1.154.041.621.07 1.343-.089 1.894.143.034-.079-.134-.046-.134-.107zm11.617-2.84c.838-1.146 2.163-2.029 2.604-3.405.139-.47-.854-1.225-.893-.915-.01.527-.914.931-1.312 1.358-.856.587-1.644 1.297-2.678 1.528-.537.327-.728 1.548-.271.409.681-.48.087.515.677-.394.607-.161.667 1.044 1.084 1.42.331.654.388.526.789 0zm-4.272-.516c.388-.469.62-1.372 1.287-1.43.014.914.735.651.314-.089-.603-.322.67-1.512-.14-.937-.779.663-1.942 1.145-1.98 2.319-.235.61-.13 1.548.315.461.067-.107.139-.218.204-.324zm9.97-2.222c.056-.84-.475 1.797-.13.654.077-.215.161-.421.13-.654zm2.007-.147c.072.03-1.236-.235-1.24-.38-.011.478.93.718 1.24.38zm-4.297-.626c-.13-.927-1.065-1.594-1.982-1.607.45.282 1.18.303 1.538.86.347.16.272 1.831.444.747zm1.242-.668c-.643-.749-.702-.453-.014.128.22.29.21.034.014-.128zm2.152-.115c-.151-.443-1.599-.926-1.26-.668.471.025 1.287.86 1.353.783.056.21-.099-.183-.093-.115zm-1.388.01c-.306-.489-1.319-.872-.412-.286.072.051.722.696.412.286zm-8.245-.25c1.629-.399 2.715-1.945 2.896-3.564-.478-.838.54-.12.941-.49.804-.38.872-1.779.124-2.243-.872-.131-1.42.904-1.139 1.656-.348.466-1.34-.538-.574-.486-.218-.033-.613-.879-.914-1.023-1.246.01-2.542-.021-3.609-.755-.815-.446-1.478-1.182-1.65-2.115.204.878-.394 1.56-1.073 2.03-.42.301.033 1.673.39 1.55.498-.409 1.25.147.33.256-.696.161.05 1.127.083 1.605.257.86-.187 1.943.62 2.612.886 1.005 2.353 1.295 3.574.967zm-2.422-1.194c-.558-.76.41.249.806 0 .87-.407-.387-.912.275-1.103.566.267.154 1.526-.558 1.31-.237.03-.38 0-.523-.202zm-.682-.968c-.716-.577.575-.837.202-1.322-.394-1.157.774.452.093.425-.534.692.215.712.42.38.22.457-.36.933-.715.517zm-.721-1.395c-.317-.78.439-.015.184-.742.746.107.396 1.334-.184.742zm2.486-.058c-.466-.641.114-.792.406-.547.475.32.045.962-.406.547zm4.747-.888c.146-.315-.594-.66-.001-1.155.45-.643 1.193.81.546.267-.516-.548-.985.714-.436.277.376-.068.15.888-.11.611zm-5.36-.904c-.365-.457.977-.277 1.322-.188.78.411-.861.208-1.201.254.14.267-.132-.126-.12-.066zm7.806 4.686c-.435-.51-.472-1.188-.547-1.821-.075.834.168 1.712.817 2.24l-.27-.42zm.523-.22c-.34-.211-.741-1.698-.628-1.094-.154.285.864 1.59.628 1.095zm2.954-.663c.59.056.838-1.478.664-1.058.122.691-.896 1.102-1.036 1.184.133.032.275-.096.372-.126zm-2.667-.414c-.5-.688-.67-1.184-.256-.104.262.298.832.67.256.104zm2.288-.145c-.083-.112-1.24-.074-1.55-.57-.973-.76-.58-2.12-.209-3.103.047-.524-.427 1.078-.472 1.414-.199 1.067.524 2.14 1.609 2.313.194-.013.458.088.622-.054zm-4.171-1.55c.561-1.157-.137.038-.361.531-.998 1.043.374-.168.36-.53zm3.075-2.056c.261-1.195.262-2.69-.737-3.545-.645-.352-.593-.122-1.322-.359-.306.109-.09 1.183.015 1.492.277-.021.447.14.56-.356.809.249-.212-1.492.552-.729 1.275.913 1.076 2.712.733 4.051-.252 1.133.172-.309.2-.554zm-1.904-.196a2.89 2.89 0 0 0-.131-2.02c-.113.795-.05 1.648-.382 2.376.355.027.463.037.513-.356zm-13.342-1.545c.393-.89 1.487-1.192 2.08-1.836-.645.478-.734.311-.958.619.046-.251-.889.587-1.136.991-.417.349-.206 2.051-.163.833.01-.222.051-.42.177-.607zm10.382.94c.868-.12-1.489.02-.722.065.242 0 .5.024.722-.066zm-8.36-1.088c.589-.432 1.283-1.229.281-.364-.46.358-1.039.76-1.188 1.332.244-.386.531-.705.906-.968zm3.916.647c-.735-.447-1.412-1.137-1.862-1.836.332.821 1.131 1.504 1.862 1.836zm4.95-.148c.905-.339-.655.15-.944.09-1.316.114-.048.046.576.022l.369-.112zm-3.03-.027c-1.15-.49-2.222-1.334-2.81-2.453.268 1.022 1.248 1.812 2.177 2.283.207.125 1.414.5.633.17zm-1.265-.075c-1.024-.396-1.864-1.38-2.34-2.404.247 1.114 1.253 2.116 2.383 2.472l-.043-.07zm.964-.704c-.856-.674-1.546-1.652-2.173-2.466.401 1.139 1.307 2.107 2.38 2.618-.06-.054-.155-.095-.207-.152zm3.089-.057c.798-.278-.921.151-1.234-.012-.343.18-1.822-.42-1.34-.092.778.381 1.747.213 2.574.104zm-9.2-1.31c.254-.29 1.912-.764 1.14-.637-.909.335-1.863.851-2.505 1.54.433-.337.874-.655 1.366-.902zm5.801-.045c-.416-.233-1.164-1.232-1.183-1.157.33.55.838 1.118 1.425 1.339-.08-.06-.166-.131-.242-.182zm2.059-.081c-.981-.434-1.845-1.371-2.541-1.987.679 1.01 1.665 1.992 2.928 2.175l-.387-.188zm1.794-.105c-1.005-.226-1.943-.675-2.82-1.224.376.598 1.269.9 1.961 1.107.248.035.736.208.859.117zm-3.651-.231c-.54-.56-.558-.566-1-1.196-.43-.445.407.907.694 1.038.024.098.568.509.306.158zm-4.595-.69c-.499 0-1.601.726-.509.241.061-.069.7-.183.51-.24zm7.666.198c-1.093-.289-2.054-.97-2.961-1.627.355.56.577.664 1.174 1.056.713.336 1.476.67 2.27.693-.16-.042-.326-.078-.483-.122zm-6.252-1.02c.893-.607.525-.583-.145-.01-.44.284-.841 1.26-.256.366.09-.16.272-.235.401-.358zm6.492.509c-.948-.394-1.913-.981-2.753-1.45.67.837 1.866 1.45 2.973 1.675.555.056 0-.121-.22-.225zm-6.715-1.326c.675-.511 1.488-.775 2.272-1.07-1.44.198-2.822 1.05-3.636 2.244.43-.426.825-.881 1.364-1.174zm7.325.867c-.809-.437-1.61-.96-2.504-1.19.785.69 1.808 1.164 2.826 1.385-.1-.056-.233-.159-.322-.195zm.212-.577c-1.05-.84-2.37-1.504-3.75-1.335 1.367.04 2.65.708 3.75 1.385l.03-.024zm7.62 8.017c-.705-.056-1.05-.957-.596-1.49.018-.684.037-1.405-.033-2.052.515-.389 1.156-.32.86-1.28.253-.615-.293-.85.156-1.174.631-.207 1.347.236.938.673.199.677.03 1.62.086 2.402.115.378-.268 2.011.263 1.489.62-.639.076-1.76.356-2.428.166.488.047 1.268.105 1.865.405-.602 1.189-1.062 1.343-1.759.065-1.13-.166-2.307-.052-3.407.222-.342 1.449-.434 1.28.261.13.544-.478 1.825.439 1.58.97-.397-.785-.096-.382-.71.778-.212.98.134.887.742.064.784-.17 1.687.026 2.413.633.628 1.762 1.282 1.405 2.318-.528 1.003-1.866.5-2.784.617-1.43-.034-2.877.05-4.297-.06zm6.257-.422c.856-.428.098-1.373-.42-1.75-.587-.545-1.128-1.36-2.05-1.137-.578.657-1.327 1.258-1.688 2.046 1.202.01 2.405.015 3.607.022-.429-.478-1.204-.831-1.333-1.47.581.528 1.11 1.12 1.743 1.586-1 .259-2.136.047-3.189.122-1.062.038-2.181-.061-3.209.06-.046.834 1.137.543 1.713.596 1.587-.031 3.21.083 4.777-.037l.047-.024zm-5.96-1.629c.354-.909-.913-1.218-.608-.163-.33.621.571 1.526.62.626 0-.154-.01-.31-.012-.463zm.93-1.137c-.044-.66.032-1.365-.084-1.997-1-.148-.519.979-.627 1.599v2.345c.99.309.737-.6.725-1.273 0-.224-.01-.449-.014-.674zm4.243-.878c.372-.778-.458-1.498-.82-.802.056.658-.254 1.412.512 1.662.536.617.2-.682.308-.86zm-5.23.758c-.204-.75-1.034.524-.051.207.13.044.014-.159.052-.207zm4.185-.307c.01-.801-.054-1.635-.072-2.45-.98-.282-.48.918-.598 1.498.074.658-.317 1.274.67.952zm-3.288-1.898c-.638-.584-.77.569 0 .022zm3.238-.792c-.593-.702-.821.643 0 .057zm.069-.552c-.495-.392-1.241.245-.137.103.037-.043.236.077.137-.103z" style="fill:#222745;stroke-width:1" transform="translate(2304.69 -1788.298)"/></svg>