<svg xmlns="http://www.w3.org/2000/svg" width="200" height="200.133" viewBox="0 0 52.917 52.952"><path d="M-2466.74 1975.757c.08-2.275 1.492-4.343 1.645-6.405-1.393.735-3.918 1.612-5.235-.351-1.965-2-1.055-5.029-.234-7.311.052-1.244-3.43-2.814-2.488-4.961-.256-1.43-3.5-4.365-.301-4.403 2.336-.528 4.673.305 5.39 2.646 1.565-1.194.833-4.086 2.516-5.365 1.986-1.29 3.001 1.562 4.596 2.243 1.568 1.072 3.591 1.806 5.472 1.164 2.343.14 3.906-1.97 5.89-2.869.749-.831 2.946-.932 3.138-.927-2.655-1.69-4.719 1.757-7.046 2.536-2.34 1.178-5.313 1.005-7.265-.842-.909-1.148-3.286-1.937-3.695-2.83 1.242-.109 1.805-1.728 2.748-1.633 1.187 1.593 2.76 3.077 4.91 2.624 1.954-.273 3.6-1.473 5.138-2.625.516-1.34 2.538-3.21 2.763-5.182.337-1.453.511-1.314.922-2.499-.073 1.698 1.78 3.176 1.048 4.875.442-1.106-1.42-4.767-1.37-2.237-.018.777-.582 2.936-.322 1.17-.475.923-1.54 3.057-.871 2.658-.055 2.15 2.899 1.327 3.88 3.051 1.137.358 2.631 2.652 1.978 2.903.357-1.263-1.838-2.823-2.16-2.46 1.773.616 1.62 2.603 1.91 4.073.64-1.748-.847 1.864.317 2.357 1.1 2.926 1.645 6.054 1.859 9.161.069 1.102-.339 1.914-.246.338a34.738 34.738 0 0 0-1.45-7.82c.489 3.399 1.535 6.81 1.264 10.284.094 1.689-1.96 3.69-2.717 3.77 2.365-1.23 2.635-4.178 2.273-6.539-.44-4.285-1.32-8.533-2.405-12.695-.286-1.116-2.101-2.726-.749-.72 1.406 2.936 1.594 6.255 2.288 9.391.344 2.786.882 5.66.264 8.44-1.012 2.174-3.815 2.346-5.913 2.482-1.112.105-3.315-.518-3.729-.213 2.196 1.008 4.739.498 7.03.176-2.413.41.048 3.028-.439 4.2-.299-.659-1-3.911-1.241-2.827.425.646 1.177 4.392.428 2.066.161-1.113-1.749-2.8-1.243-.794.57.964.174 2.782-1.198 1.69-1.93.522-3.977.166-5.965.261h-3.766c-.26-.346-2.89.836-2.28-1.1.299-.985-.314 1.727-1.418 1.122-.964-.095-3.25.353-2.893-.759-.896 1.388.322-2.195.54-2.934.306-1.103 1.256-3.387 1.21-3.718-1.449 2.254-1.821 4.963-2.793 7.419-.12-.083.016-.042.015-.081zm7.698-2.233c-.113 1.033.095.95 0 0zm-6.217.253c.359-1.473-.562 1.659 0 0zm.72-2.129c.423-.927.795-2.43.144-.654-.363.898-.865 2.674-.2.79l.045-.108zm5.566.397c-.106 1.149.081.927 0 0zm-1.91-.704c.252-1.312.01-1.524-.118-.09-.206 1.115-.04 1.997.093.374.01-.092.025-.197.025-.284zm7.695-.986c1.22-1.7 1.828-4.104 1.201-6.118-.01 1.736.282 4.694-1.63 5.748-2.233.636-.92-3.569-1.803-3.174-.288 1.287.342 4.375 2.232 3.544zm-17.267-2.007c-.867-1.903.688-4.877.329-6.117-.945 1.666-1.402 4.082-.556 5.818zm17.118-.624c-1.088-.122-1.795-.501-.39.106zm-5.195-1.56c-.455.81.162.913 0 0zm-9.29.789c1.58-.447 1.804-3.316 2.351-3.56.742.17-1.22-3.281-.433-1.165.856 1.925-2.02 5.994-3.546 3.39-.339-.631.051-4.53-.342-2.109-.109 1.258-.092 4.233 1.97 3.444zm16.776-1.265c1.54.01-1.441-3.179.735-1.329.898.7 3.078.583.945-.098-.774-.426-3.204-1.12-3.118-.663 1.174-.045.551 2.772 1.438 2.09zm-9.206-.137c-.217-1.096-3.699-2.535-1.603-.564.468.298 1.023.64 1.603.564zm16.482.12c-.342-.932-2.073-1.747-.54-.603.086-.053.513.842.54.603zm-2.336-.519c-.522-.93-3.175-1.73-3.17-1.087 1.222.573 2.777 1.276 3.455 1.382zm-21.5-.08c-1.002-.549-1.669-1.474-.583-.157-.164.01 1.23.395.582.157zm3.423-.527c-.307-1.153-1.004-1.483-.193-.186-.184.11.717.737.193.186zm-3.24-.029c-.278-.579-2.013-.14-.307.101l.166-.01zm4.565-.458c-.531-3.124-2.871-5.443-4.38-8.09.27-1.69 3.23-.107 4.53-.826 2.668-.494 2.932 2.626 4.231 4.148-1.112-1.804-1.683-5.172-4.58-4.37-1.686.225-5.68-.91-4.468 2.065.736 1.904 1.898 3.326 2.677 4.58-.09 1.406 1.282 2.013 1.95 2.84zm8.85-.626c-.57-.908-1.814-3.042-2.298-2.918.936.78 1.32 2.383 2.299 2.918zm-9.005-2.18c.827-.912-.512.056 0 0zm3.232.067c-.622-.629-1.404-.522 0 0zm2.273-.069c-.752-.674-2.374-1.326-.714-.255.221.125.46.226.714.255zm-5.399-.983c1.278-.752-.526-.212 0 0zm3.215-.203c.167-.925-1.168.014 0 0zm2.298-.48c.898-.074-.895 0 0 0zm-10.8.085c-.431-.177-1.4-.01-.4.018zm10.507-2.111c-.192-1.04.84-4.094-.176-3.83.276 1.822-.617 3.709-.158 5.466.552.03.167-1.272.334-1.636zm.59 1.616c-.265-1.344.211-4.283-.045-4.644-.01 1.394-.88 3.95.045 4.644zm-1.249-1.24c.563-1.36-.492-1.61-.268-.101.056.438.406 1.009.268.1zm-9.374-.428c-.546-.877-1.833-3.195-1.936-3.129.65 1.145 1.805 3.473 2.324 3.764-.118-.219-.288-.405-.388-.635zm8.903-.647c-.358-.214-1.061-1.157-.407.01.152.398.509.896.407-.01zm9.289.01c-.013-.885-1.89-2.169-.55-.699.404-.143.547 1.632.55.7zm-19.938-.043c-1.272-.49.618.764 0 0zm11.438-1.597c-.441.677.031 1.372 0 0zm-14.776.713c-.339-1.07-1.145-1.049 0 0zm21.36-.666c-.088-1.462.013 1.68-.334.05.092.727.558.92.334-.05zm-17.427-.692c-.38-2.53-4.868-2.37-5.688-1.082.563.94 1.368 1.623.448.245 1.032-.857 3.999-1.01 4.84.496.496.792 1.024 1.756.4.34zm-1.681.469c.403-1.617-2.871-.634-.722-.067-.184-.935.36.285.722.067zm20.605-.888c-.113 1.033.095.95 0 0zm-16.499-.291c-.144-1.42 2.015-3.82 1.512-4.261-1.251.834-2.387 4.66-1.602 4.674l.026-.213zm19.855-.963c.95-.61.603-2.53.036-.723.02.18-.598.967-.036.723zm-8.307-.936c2.88-.456 4.426-3.443 7.173-4.182 1.464.591 1.35-.53.036-.637-2.082.01-3.71 1.573-5.545 2.367-2.014 1.16-4.827 2.226-6.838.47-.63-1.544-3.959-3.16-3.865-1.607 2.378.459 3.505 3.212 5.967 3.628 1.007.26 2.061.123 3.072-.039zm-1.645-1.364c-.619.035-3.67-1.309-2.777-.249.859.416 1.857.434 2.777.249zm1.034-.436c.94-.48 3.994-1.85 1.446-.513-1.027.58 1.88-.76 2.356-1.195.858-1.014 3.677-.889 1.92-2.138-.278-1.902-1.876 1.124-2.998 1.264-1.5.868-3.155 1.78-4.898 1.862-1.825-.293-3.162-1.753-4.322-2.886.014 2.205 3.191 3.598 5.287 3.694.408.028.815.023 1.209-.088zm9.577-1.092c-.037-1.115-3.094-1.163-.993-.55.353.091.62.604.993.55zm-4.275-3.896c.347-.926 1.137-2.376.025-.863-.146.138-.275 1.583-.025.863zm1.73-3.887c.238-1.745-.677 2.236-.019.055zm.712 34.142c-.711-1.017.686-2.397.726-.666.802.653-.288 1.772-.726.666zm-20.435-4.7c-1.167-.62 2.048.204 0-.01zm1.395-.288c.661-.886 1.339.088 0 0zm-2.416-.215c-.785-.18-.437-.516.047-.079zm-1.085-.73c-1.413-1.372 1.011.448.024.022l-.024-.013zm-1.464-4.98c-.148-1.057.497-.273 0 0zm14.09-15.475c-2.752-.655 1.149-.135 0 0zm-.02-.868c-2.01-.412-3.763-2.327-4.278-3.885-.317 1.363-.449-1.464-1.206-1.739-.45-.65-2.776-3.824-.94-2.228.952.714 1.365 3.015 1.927 3.122-.754-2.089-2.143-4.039-2.92-6.169-.716-3.426 1.088-7.832 4.834-8.464 3.093-.54 6.092 1.727 6.9 4.672.855 2.396.815 5.045 1.183 7.483.689-1.987 1.099-4.158.925-6.273-.02-.656-.494-3.192.042-1.29.795 1.79-.473 5.353-.059 6.036 1.04-1.818 1.628-4.017 1.422-6.118.037-1.058-1.67-4.124-.308-1.75 1.258 2.789.367 6.046-1.24 8.493-.572.83-.286 2.074.302.636 1.27-2.035 2.264-4.477 1.758-6.911 1.022 3.331-.933 6.731-3.147 9.117-.615.813-2.447 2.317-.65.9-.53.759-1.3 1.499-.103.438 2.505-2.405 5.481-5.274 5.162-9.062-.136-2.107.723 1.872.131 2.447-1.263 3.154-2.755 6.487-5.504 8.634-1.513 1.057-3.743 1.78-5.35.51-.414-.302-1.218-.86-.55-.049-.587-1.048-.935-.897-1.008-.559.001.596 2.707 2.256 4.167 1.903 1.068.047-1.244.236-1.49.106zm2.297-1.201c1.837-.388 2.712-2.045 3.854-3.143.714-.732 2.104-3.368.445-1.406-1.588 1.512-3.199 3.045-4.586 3.895.75-.186 3.283-1.38 1.357-.264-1.537.638-2.605.83-2.112.925-1.017.09.927.11 1.042-.01zm-1.353-1.159c1.18-.277 3.236-2.298 2.826-2.55-1.092 1.84-3.736 3.514-5.644 1.793-1.662-.438-2.818-3.085-3.068-3.72-.061 2.197 1.937 3.373 3.587 4.353.706.353 1.565.47 2.299.124zm-1.005-1.85c-1.495-.606-1.407.556 0 0zm5.088-2.43c.315-2.88-.334-5.794-1.126-8.546-1.191-3.111-5.244-5.163-8.247-3.248-2.957 1.918-3.766 6.354-2.066 9.343-.232-.982-.76-2.907-.49-4.292.157-2.566 2.05-5.28 4.857-5.171 3.008-.054 5.72 2.441 5.93 5.442.53 2.407.972 4.88.726 7.352.276-.203.362-.562.416-.88zm-6.603.58c-.62-.507-.602.403 0 0zm-1.987-2.485c-1.223-.312-1.08.183 0 0zm5.247-.136c-1.074-.142-1.407.292 0 0zm-.16-.207c.259-.597-1.649.189 0 0zm.639-3.576c-1.126-.01-.866.236 0 0zm-6.685-.262c.924-.694 1.052-.995-.03-.123-.572.274-.58.513.03.122zm4.058-.268c-1.235-1.052-1.055-.598 0 0zm.65-.74c-.336-.372-1.36-.498-.398-.117zm-2.02-.585c-.97-1.545.39.869 0 0zm3.301-.01c-1.569-.427 1.158.438 0 0zm-6.788-.972c1.535-.978-1.269.62 0 0zm6.857-.47c-.839-.185-3.212-1.505-1.277-.388.575.394 3.23.988 1.277.388zm-5.805-1.028c.72-.616-1.658 1.043 0 0zm7.84 16.612c.646-.654 2.094-1.321.62-.36a2.48 2.48 0 0 1-.62.36zm5.201-2.672c.244-.906 3.14-2.972 1.236-1.042-.384.372-.93.594-1.236 1.042zm1.109-7.011c.26-1.328.203.359 0 0zm-1.182-.792c.248-.756.74-3.185.413-1.13.01.108-.462 1.561-.413 1.13zm-16.663-.44c-.234-1.114.204-2.572.1-.608-.03-.148.024 1.265-.1.608zm18.15-.646c.181-1.418.065 1.763 0 0zm-.03-.868c-.743-3.558-2.995-7.51-6.935-8.024-3.413-.5-7.001.769-9.42 3.209 2.111-3.107 6.293-3.902 9.804-3.504 3.277.606 5.57 3.603 6.42 6.652.087.552.01 1.12.13 1.667zm-4.205-3.824c-.713-1.351.05-1.005.245.098.126.392-.379.252-.245-.098zm.616-1.735c-1.974-1.766.2-.378 0 0zm-1.97-.814c-.557-1.073-3.04-1.148-3.177-1.492 1.128.124 2.509.537 3.176 1.492zm-6.621-.852c1.492-.553 1.2-.186 0 0z" style="fill:#fdd2b2;stroke-width:1" transform="translate(2483.897 -1922.9)"/><path d="M-2466.696 1975.593c.097-2.18 1.4-4.165 1.592-6.152-1.172.31-3.622 1.697-4.899-.131-2.162-1.804-1.68-5.154-.463-7.337.625-1.022-1.559-1.61.169-1.548.95.11 3.546-1.174 1.28-.86-.78.192-2.894.48-1.13-.38.831.123 2.74-1.505.855-.992-.905.4-3.695 1.41-1.56-.14.95-.259 1.986-1.72.3-1.03-1.209.17-2.566 1.985-1.75 2.367-1.425-1.459-.242-3.365-1.825-4.67-.546-.85-.871-2.25-.027-.625 1.775 1.866-1.203-1.122.739-.892 1.82.1 4.114-.462 4.626 1.948 1.123 1.756-.178-1.769-1.104-1.95-1.253-1.323-4.196.201-4.862-.568 1.83-.323 4.929-1.081 6 1.12 1.194 2.226 1.588 4.877 3.206 6.872-.218 1.556 1.106 3.626 1.797 4.77-.588-1.014-1.241-1.442-.755 0 .054 1.108-.823 3.51-.252 1.022.165-1.84-.532-3.628-1.4-5.213 1.072 1.889-.451 6.321-2.903 4.967-.975-.83-.187-3.54-.567-3.566-.383 1.458-.4 5.42 1.973 4.298.763-.507 2.228-2.614 1.013-.488-1.925 2.255-4.161-.478-3.417-2.65.337-1.168-.14-2.339-.524-.498-.921 2.204-.792 5.498 1.744 6.53 2.001.774 3.994-.884 5.16-2.36.993-1.026-.182-2.623-.27-3.36.385.99 1.126 2.123 1.18.324-.078-1.659-1.137-3-1.811-4.526-.865-1.416-1.941-2.683-2.886-4.043 1.818-1.246 4.328-.296 6.377-.509 1.47.683 1.657 3.316 2.58 3.88-.982-1.541-1.343-4.162-3.525-4.357-1.723-.072-4.602.463-5.65 0 1.212-1.56.853-4.99 3.116-5.634 2.127.802 3.34 3.063 5.59 3.702 2.648.83 5.714.159 7.833-1.617 1.256-1.207 3.63-2.14 4.76-2.068-1.982-1.514-3.942.783-5.567 1.754-2.208 1.467-5.428 2.3-7.695.515-1.799-.846-3.129-2.667-4.71-3.168.383-1.232 2.359-.245 2.229-2.068 1.092.019 2.17 2.987 4.08 2.827 2.227.397 4.274-1.014 6.034-2.198.867-1.012 2.21-2.894 2.936-4.52.338-1.084.693-2.55.964-2.772.463-1.971.458 1.363 1.164 1.926.49 1.017.3 2.23-.051.508-.09-.808-1.355-2.864-1.153-.81.176.742-.695 3.015-.181 1.142-.58.55-1.497 3.646-1.222 3.057.243-.899.338 2.047 1.512 1.247 1.825.841 5.082 2.977 4.586 4.534.252-1.274-1.947-3.057-2.293-2.484 2.125.303 1.684 4.226 2.083 4.084-.748 1.745.924 3.122 1.057 4.862.503 2.31.98 4.664 1.032 7.03-.252 1.667-.322-2.586-.604-3.27-.29-1.878-.676-3.752-1.326-5.542.645 3.85 1.886 7.729 1.413 11.662-.067.81-1.276 3.024-1.517 2.54 1.98-2.02 1.196-5.1 1.018-7.617-.582-3.626-1.22-7.267-2.233-10.797-.414-2.533-3.924-3.011-4.316-.154-.51.948-.545 3.691-.384 3.554.024-1.25.418-1.673.172-.18.272.82 1.07-3.152.459-.392-.279.882-.384 3.55.366 1.36.637-1.108 1.699-3.466 2.01-3.822-.905 2.376-2.797 4.55-2.525 7.239.415-1.254 2.38-4.172 2.4-3.965-1.147 1.627-2.886 4.713-2.386 5.98.238-1.025 1.326-3.44 1.54-3.4-.438 1.088-2.066 4.069-1.115 4.155.905-1.618 2.09-3.07 2.872-4.757-.337 2.078-3.267 4.8-2.885 6.012 1.074-.349 2.929-1.498 3.634-.981-.808.021-4.586.974-2.453 1.433 1.882-.205 4.114.875 4.03 2.492.018-1.425-3.038-2.585-2.973-2.207 1.206.036 2.693 2.91 2.297 2.875-.641-1.247-1.55-2.753-3.097-2.88 1.148.092 2.525 2.869.888.833-.52-.955-4.54-1.423-2.138-.474 1 .562 2.194 2.115 1.998 1.458.583.444 3.269 3.497 1.398 1.727-1.851-2.057-4.216-3.848-7.073-4.063-1.758-.435 1.767 1.367.625 2.397.064 1.6-1.207 3.776-1.155 4.776 3.03.483 6.49.601 9.05-1.37 1.343-2.254.486-4.981.368-7.43-.404-3.16-1.162-6.259-1.759-9.385 1.174 4.475 2.057 9.066 2.223 13.697.165 1.957-.594 4.226-2.805 4.57-2.447.855-5.007.216-7.513.255 2.38.886 5.015.756 7.445.154-2.619.241.247 3.843-.429 4.335-.307-.853-.965-3.811-1.292-2.978.413.805 1.264 4.522.365 2.082.046-.835-.956-3.7-1.549-2.172.266.85.958 4.652.254 1.873.284-1.067-1.251-3.619-1.71-1.76.357.892.71 4.499.205 1.847.266-1.933-1.079-3.13-2.947-2.869-2.644-.398-3.072-3.276-3.114-5.203-1.582.242-3.576-.551-2.939 1.958-.168 2.477-.258 4.958-.426 7.434-.333-2.498.205-5.026.264-7.535.885-2.315-1.325-2.852-2.846-4.013-1.528-.335-.723 2.791-1.558 3.868-.767 2.498-1.866 4.89-2.468 7.44-.233-1.291.923-3.588 1.36-5.224.342-.946 1.127-2.945.076-.99-1.088 2.048-1.49 4.46-2.289 6.557l-.02-.231zm13.312-5.053c1.44-1.555 1.875-4.003 1.538-6.023-.373-.264.096 2.574-.409 3.352.073 1.785-2.616 3.4-2.73.823.133-.75-.314-3.292-.528-1.221-.037 1.258.526 3.234 2.129 3.07zm.134-2.848c1.623-1.16-1.565 1.041-1.28-.66-.304.809.783.98 1.28.66zm-.075-1.582c1.23-2.219-1.921-3.731-2.71-5.545-.193-.26-1.128-.794-.44-.07-.659-1.527-1.696-.63-.257.223.76.43 1.84 1.678.185.98-1.157-.101-3.027-2.527-3.543-1.545.653.86 3.832 1.957 3.063 2.373-1.958-.225-4.45-2.995-5.785-2.321.906 1.171 4.267 2.042 4.074 2.818-1.367-.221-3.547-2.383-4.19-1.906.863 1.306 3.859 2.218 4.07 2.893-1.384-.369-3.458-2.205-4.366-1.823.723 1.028 3.099 1.35 3.539 2.47-.545-.668-3.749-2.007-1.64-.446 1.841 1.578 4.318 2.348 6.646 1.796.404.147 1.031.675 1.354.103zm-14.277-1.038c-.843-.376-1.646-1.539-.735-.22.033.089 1.234.44.735.22zm.178-.555c-.277-.58-2.013-.14-.306.1l.165-.01zm14.395-1.428c1.311.168 4.04 1.31 3.548-1.074v-4.237c-.748-.46-2.71 1.523-2.175-.463-.231.744.659-4.088-.117-1.713-.576-.696.68-1.768.063-2.734.345-2.146-1.904.872-3.055.287-3.13-.324-2.712 3.108-2.695 5.191.487 2.048 3.006 2.586 3.57 4.738.218.319.642.34.861.01zm-13.992.062c1.907-2.116-1.478-3.04-3.052-2.365-.611.853 1.972 1.012 1.86 2.338.292.427.848.271 1.192.027zm-2.338-1.88c1.01-.503 1.294.15 0 0zm12.613-.044c-.538-1.358-1.08-.1 0 0zm-1.078-1.86c-.168-1.84 1.087-4.583-.118-5.874.023.626.073 2.283-.249.67-.488-1.449-2.749-2.112-3.799-2.393-1.149.884-1.408 3.685.743 2.827 1.815-.057 1.861 3.646 2.97 3.31.036-1.065.437-3.489.236-1.082.079.677-.658 2.326.217 2.541zm-9.62-1.413c-.638-1.012-2.011-3.547-2.199-3.558.6 1.15 2.13 3.918 2.388 3.867zm-5.115-.336c.8-.455 1.914-2.389.27-1.3-.311.09-1.253 2.113-.27 1.3zm23.034-.594c-.656-2.28-.422-4.784.877-6.784-1.618-.1-1.636 2.505-1.891 3.805-.574 1.193 1.738 2.985.01 1.339-.513.03 1.547 3.477 1.006 1.64zm-23.165-.832c-.816-1.702-.813-.552 0 0zm2.16-1.105c.38-1.804-2.963-.526-.576-.084.18.056.383.221.576.084zm6.545-.518c-.562-.58-1.93-3.79-.797-1.595 1.208 2.093.144-.352.312-1.152.02.978.962 2.955.797.87.695-1.348-.117-4.707-1.776-2.552-.517 1.127-2.397 4.112-.976 4.523h2.442v-.095zm.438-.095c.375-1.403-.35.302 0 0zm8.5-2.465c2.954-.366 4.523-3.48 7.304-4.179 1.973.586.813-.965-.41-.606-2.65.32-4.574 2.449-7.054 3.255-2.315 1.127-5.67.057-6.401-2.49-.748-.97-3.833.451-1.445.605 1.804 1.185 3.163 3.193 5.447 3.52.85.126 1.716.03 2.56-.105zm-8.143-1.056c.106-1.186-.357 1.86 0 0zm6.533-.318c-.05-.174-2.399-.65-3.082-.674.7.892 2.07.855 3.082.674zm.958-.414c.706-.163 3.97-1.966 1.93-.721-.846.39-1.822.906-.332.284 1.239-.937 4.524-1.921 4.585-2.89-.364-.838-.5-1.967-1.297-.708-2.287 1.696-4.992 3.72-8.016 2.993-1.28-.27-2.548-2.846-3.336-2.269 1.042 2.382 3.997 3.61 6.466 3.311zm9.767-1.104c.01-1.169-3.123-1.201-.971-.584.346.02.685.721.97.584zm-3.997-4.385c-.185-.574 1.18-1.993 0-.826-.335.287-.847 2.688 0 .826zm1.406-3.182c.436-1.698-.336.103-.206.49l.081-.175zm-15.523 32.753c.134-1.176.616-3.731.773-4.003-.195 1.346-.48 2.676-.773 4.003zm3.918-1.21c-.169-1.255 1.163.489 0 0zm-8.37-2.528c.213-.511 1.074.714.242.143zm1.688-.088c.712-.792 1.288-.147 0 0zm-2.531-.31c-.916-.23-.254-.429.136-.037zm-.794-.588c-1.346-1.188.57.187.018.01zm21.125-3.411c-.394-.722-1.184-2.1-.25-.667.38.586 1.158 2.5.25.667zm4.835-2.488c-.8-.768-3.133-.168-3.254-.486.774-.545 3.712.113 3.254.486zm-27.44-3.495c-.893-.971.915.473 0 0zm13.935-11.134c-2.753-.655 1.148-.134 0 0zm.014-.874c-2.116-.271-3.79-2.655-4.378-3.813-.028.743-.635-1.554-1.227-2-.452-.729-2.547-3.45-.742-1.854 1.163 2.235 2.596 4.369 5.106 5.228 2.42.965 5.066-1.218 5.549-3.555.222-1.694.303-4.409-1.088-5.247-1.649-.979-3.946-.787-5.308-2.358-.956-.772-.242-3.383-.393-3.414-.185 1.02-.77 4.463-.968 3.87-1.04.76-3.34 1.563-1.86 2.944.767-1.159 3.19.572 1.093.303-1.695-.775-1.15 2.788-.36 1.267 1.313-.42 2.55 1.2.72 1.346-.836-.309-1.613-.872-1.204.566 0 .957 1.562 3.236.256 1.36-.798-2.186-2.423-4.067-2.725-6.384-.398-3.373 1.743-7.507 5.464-7.661 3.04-.202 5.731 2.15 6.426 5.033.742 2.315.796 4.775 1.06 7.164.745-1.726 1.036-3.876 1.003-5.817-.102-1.022-.293-3.258.114-.964.256 1.817-.08 3.645-.414 5.428 1.495-1.756 1.877-4.428 1.65-6.664-.212-.675-1.216-3.308-.252-1.265 1.19 2.992.187 6.392-1.592 8.922-.329 2.203 1.595-1.435 1.83-2.242.696-1.13.698-4.076.655-4.23.714 3.507-1.325 6.844-3.685 9.25-.598.742-1.185 1.037-.26.511-.77.803-1.091 1.387-.02.326 2.477-2.388 5.416-5.199 5.12-8.958.136-1.53.646 2.669-.22 3.292-1.527 3.251-3.119 7.101-6.697 8.531-1.456 1.126-4.409-.472-4.655-.819 1.007 1.458-1.23-1.626-.419.024-1.556-.683 1.213 1.447 1.914 1.507 1.026.462 3.723.174 1.286.478a4.778 4.778 0 0 1-.779-.105zm2.294-1.199c1.894-.423 2.766-2.156 3.529-2.8.407-.566 2.24-2.753 1.53-2.622-1.004 1.523-4.258 3.649-4.382 4.207-2.353 1.226 1.213-.318 1.093-.139-.61.829-3.327 1.095-3.038 1.235 1.371.18-1.322.185.491.214.272.089.515-.101.777-.094zm-5.848-1.573c-.769-1.295.69 1.448 0 0zm8.537-3.786c.388-2.83-.344-5.665-1.013-8.393-1.082-3.164-5.06-5.38-8.155-3.592-3.422 2.012-4.102 7.16-1.833 10.277-1.384-2.798-1.384-6.547.729-8.98 2.683-2.56 7.582-.984 8.685 2.447.66 2.366 1.2 4.825 1.193 7.294.034.677-.189 3.048.394.947zm-10.862-.403c-1.07-1.252.079.455 0 0zm.285-1.87c-.042-.708-.734-3.452-.477-1.199.045.44.745 2.836.477 1.2zm8.798-2.68c-.196-.807-1.606.026 0 0zm-8.114-1.023c.993-.136 2.228-2.42.865-.612-.74.565-2.987 1.077-.865.612zm7.159.07c-1.096.207-2.922-.284-3.374-1.186.854.703 3.695.902 1.135.498-1.018 0-3.083-2.922-1.85-.957.898 1.244 2.55 2.102 4.089 1.645zm-1.13-1.027c-1.036.144-3.85-2.3-1.769-.493.204.267 2.874.863 1.768.493zm-6.176-.651c2.357-1.3-2.153.704-.389.126zm7.007-.075c-.975.09-4.205-2.02-1.922-.489.096.184 3.037.843 1.922.489zm-6.683-.518c1.38-.9-.056-.23-.208.091l.108-.047zm6.442-.037c-1.704-.647-1.69-.235 0 0zm-6.712-.703c1.615-1.167-2.014 1.073-.099.074l.096-.068.01-.01zm7.556.08c-1.228-.189-3.567-1.583-3.81-1.702 1.023.996 2.46 1.38 3.81 1.703zm-7.003-1.279c.978-.5 1.178-.926.026-.132-.686.374-1.713 1.234-.368.351zm5.47.092c-2.511-1.394 1.099.785 0 0zm2.518 16.41c1.15-1.02 1.507-.868.212-.124l-.212.124zm5.199-2.676c.24-.889 3.027-2.826 1.259-1.133-.442.286-.926.927-1.26 1.133zm-9.75-.606c.81-.683 1.682.39.208.055l-.114-.03zm-.172-.535c-1.246-.05-1.643-1.007-.24-.183.878.357 2.177-.888 2.423-.247-.739.15-1.38.708-2.183.43zm-.62-1.19c-.973-.2-.209-1.954-.105-.331.967.349 2.391-.363.72.476-.212.044-.453.01-.615-.144zm2.632-2.268c-1.834-.759.353-1.99 1.35-1.554 1.379-.368-.859 2.303-1.35 1.554zm.95-1.253c-1.074-.175-1.806.26-.3.11l.16-.028zm-6.304 0c1.241-.489 1.891.384 0 0zm1.003-.59c-1.578-.612.966-.069.05.042l-.05-.038zm3.269-.225c.587-.96.735-.01 0 0zm1.963-.018c-2.035-.258 1.028-.015 0 0zm8.242-.624c.49-1.388-.324 1.42 0 0zm-10.894.144c.266-1.567 4.132-.593 3.054-.305-1.036-.078-2.02.526-3.054.305zm11.12-1.774c.105-1.23.036 1.494 0 0zm-18.212-.399c.143-1.944.07 1.545 0 0zm17.973-1.32c-.945-3.375-3.403-7.033-7.246-7.188-3.267-.297-6.64.936-8.94 3.277 2.305-3.23 6.8-4.09 10.495-3.325 2.995.917 5.184 3.813 5.708 6.832zm-3.923-5.174c-.877-1.049 1.107 1.008 0 0zm-1.958-.736c-.618-.778-4.354-1.141-1.67-.917.36.028 2.172 1.105 1.67.917zm-5.974-.455c1.3-.464.574-.044-.203.106l.104-.055z" style="fill:#52add7;stroke-width:1" transform="translate(2483.897 -1922.9)"/><path d="M-2466.692 1975.627c.304-1.598.567-3.252 1.272-4.714.402-.13.643-1.504.265-1.06-.45-.278.601-.533.084-.685-1.106.44-2.263 1.487-3.516 1.03-1.035-.554-2.023-1.378-2.581-2.422-.632-1.594-.168-3.372.226-4.97.25-.433.4-1.664.784-1.087.289-.17-.483-.75-.563-.905-.834-.252-.775-.356.063-.254.973-.307 1.99-.506 2.952-.799-.24-.485-1.355-.1-1.926-.164-.345.05-1.895.652-1.39.071.835-.61 1.865-.839 2.798-1.259.12-.8-1.056-.182-1.49-.115-.695.266-1.52.434-2.023 1.009-.36-.877.822-1.12 1.295-1.605.291-.29 1.546-.401.958-.943-.781-.07-1.498.563-2.209.859-.406.372-1.188.683-1 1.346.93-.164.375 1.559.445.267-.677.012-.487-.714-.684-1.218-.553-.441-.286-1.048.05-1.556-.854-.94-1.49-2.123-1.994-3.278.288-.142.696 1.013 1.036 1.431.923.505-.016.27.45.749.223.275 1.111 1.515.648.587-.285-.52-.467-1.095-.952-1.459-.33-.531-1.111-1.48.078-1.208 1.202.038 2.489-.14 3.638.055.8.855 1.174 2.053 1.931 2.95-.584-1.119-.964-2.412-1.835-3.339-.734-.456-1.7-.086-2.531-.192-.799.067-1.69-.147-2.394.22-.552.068.321-.74.115-.428.28-.376 1.08-.184 1.72-.23 1.089.061 2.249-.024 3.291.243.886.48.934 1.623 1.56 2.35.186.528.128 1.05.51 1.681a24.907 24.907 0 0 0 1.892 4.02c.89-.538-.024.308 0 .64.58 1.353.84 2.872 1.914 3.958.727.9-.4-.236-.586-.586-.518-1.09-.283-.14-.21.531.108.97-.17 1.965-.517 2.868.219-1.048.569-2.289.222-3.412-.269-1.25-.744-2.438-1.301-3.584.313 1.31.511 2.776-.225 3.996-.431.846-1.432 1.753-2.418 1.49-1.12-1.187-.638-2.938-.686-4.413-.543.896-.188 2.104-.29 3.13.266.703.278 2.037 1.334 1.853 1.007.046 1.698-.956 2.186-1.716.5-.954-.15.822-.486.978-.488.702-1.274 1.065-2.123.91-.805-.136-.867-1.257-1.118-1.915a8.057 8.057 0 0 1 .186-3.44c-.514-.122-.654.974-.85 1.396-.45 1.728-.917 3.833.34 5.33.83 1.029 2.26 1.8 3.551 1.176 1.095-.705 2.422-1.166 3.042-2.408.382-.648.743-1.41.246-2.104-.104-.392-.88-1.49-.623-1.469.405.613.799 1.247 1.013 1.955.255-.83.282-1.715.314-2.577-.463-.422-1.037-.982-.76-1.554-1.207-2.014-2.453-4.024-3.952-5.838-.072-.837 1.09-.442 1.61-.537 1.66.036 3.373-.108 5 .038.742.396.726 1.409 1.235 2.037.579 1.03 1.158 2.164 1.81 3.09-.923-1.711-1.747-3.498-2.721-5.167-.78-.796-2.03-.282-3.023-.41-1.291.066-2.635-.07-3.894.123-.704.657-.464-.348.152-.327a13.76 13.76 0 0 1 1.576-4.713c.366-.563.9-1.197 1.598-.706.868.614 1.608 1.43 2.458 2.025 1.02.796 2.22 1.564 3.47 1.868.868.114 1.894.318 2.74-.106 1.103.053 2.24-.176 3.087-.944.81-.596 1.548-1.154 2.438-1.561.54-.495 1.31-.633 1.911-1.102.578-.292 1.355-.119 1.937.142.105-.47-.92-.69-1.348-.915-1.134-.113-2.084.646-2.983 1.188-.807.543-1.783 1.367-2.791 1.81-.825.484-1.828.574-2.714.808-1.096 0-2.327.1-3.201-.69-.892-.541-1.944-1.096-2.774-1.826-.73-.308-.921-1.242-1.659-1.404-.804.266-1.247-.23-.645-.582.466-.577 1.389-.427 1.969-.66-.565-.241-.22-1.184.396-1.107 0-.171-.194-.7.29.198.765 1.294 1.962 2.487 3.525 2.682 2.003.409 3.817-.839 5.476-1.792 1.135-.834 2.423-1.645 2.907-3.047.794-1.363 1.33-2.849 1.476-4.424.062-.406.525-1.951.314-.778.026 1.313 1.206 2.331 1.164 3.686.037.158-.425-1.177-.7-1.57-.254-.29-.639-1.904-.685-.837-.017 1.406-.588 2.672-1.224 3.895-.661 1.816-2.527 2.758-4.08 3.72-1.531.78-3.232 1.897-5.006 1.253-1.457-.289-2.38-1.51-3.37-2.506-.137-.873-.923.339-.248.666.905 1.141 1.961 2.303 3.457 2.596.88.31 1.824.404 2.753.4-1.414.368-2.862-.288-4.203-.718-.837-.533-1.383-1.432-2.136-2.015-.74-.011-1.634.208-2.172.725.107.253 1.207-.47 1.483.409 1.301 1.335 2.881 2.338 4.5 3.238 2.082.47 4.456.184 6.122-1.239 1.622-.949 2.811-2.737 4.787-2.962.525.06 1.5.588.735-.256-1.087-.944-2.552-.114-3.642.42-2.314 1.149-4.53 2.8-7.176 3.01-.547.015-1.39-.18-1.66-.491 2.044.786 4.212-.193 6.03-1.143 1.712-.81 3.23-2.23 5.167-2.435.5-.075.897.146 1.506.56.444.519.734 1.087 1.407 1.135.421.09 1.088.577 1.32 1.125.33.622.353 1.332.386 2.02-.317-.47-.065-1.262-.514-1.77-.445-.9-1.407-1.377-2.342-1.622.638.598 1.618.918 1.906 1.85.46.945.456 2.058.259 3.05.184-.101.798-1.657.338-.389-.635.753.14 1.647.282 2.463.536 1.416 1.075 2.842 1.184 4.371.211 1.717.77 3.393.599 5.145.028 1.048-.165.866-.107-.036-.237-2.503-.739-4.981-1.26-7.438-.132-.28-.569-1.966-.531-1.292.586 2.76 1.165 5.537 1.467 8.342.175 1.427-.045 2.874-.343 4.269-.233.685-.937 1.27-1.375 1.65-.597.418.49-.452.674-.809 1.087-1.513.66-3.422.741-5.158-.345-3.692-1.28-7.288-1.92-10.931-.39-1.196-.67-2.564-1.57-3.47-.681-.539-1.917-.879-2.476-.023a8.283 8.283 0 0 0-1.32 5.128c.118 1.25.176-.04.138-.638.138-.956.287-.893.148.022 0 .806.12 1.31.253.221.064-.344.478-1.58.527-1.352-.506 1.284-.586 2.652-.575 4.016.62-1.946 1.835-3.636 2.643-5.506.014.239-.493 1.146-.704 1.606-.658 1.487-1.617 2.911-1.874 4.53.039.387-.071 2.124.133 1.01a22.284 22.284 0 0 1 2.51-4.053c-1.127 2.054-2.917 4.02-2.696 6.518.01.86.174-.87.428-1.123a26.4 26.4 0 0 1 1.404-2.995c-.488 1.506-1.417 2.96-1.703 4.56-.023 1.256.359.2.723-.365.761-1.42 1.868-2.618 2.46-4.13.32-.589-.334.986-.47 1.247-.736 1.77-2.102 3.175-2.844 4.936.609.026.97-.663 1.585-.76.957-.457 2.004-.65 3.061-.636-1.322.372-2.886.423-4.03 1.336.424.353 1.304.228 1.914.267 1.075-.034 2.198.53 2.908 1.259-.778-.577-.16-.096.163.612.548.94.243 1.109-.127.082-.603-1.163-1.828-1.815-3.115-1.853-.671-.08.92.331 1.207.616.729.37.965 1.2 1.419 1.841.298.377.601 1.771.116.677-.588-1.006-1.085-2.182-2.195-2.706-.797-.408-1.516-.496-.363.074.558.359 1.32.912 1.278 1.625-.903-1.425-2.583-2.33-4.28-2.234-.61.16.942.402 1.218.7.894.456 1.544 1.239 2.219 1.96-.373-.626-1.186-1.526-.214-.514.746.867 1.828 1.587 2.303 2.598-1.263-1.263-2.648-2.664-4.147-3.759-1.249-.712-2.658-1.087-4.052-1.317-.844-.57-.773.24.035.41.335.246.768.814.764 1.432.041 1.508-.483 2.97-.915 4.4-.58.712-.711 1.17.363 1.058 1.92.359 3.933.338 5.826-.153 1.247-.395 2.927-.837 3.124-2.37.512-2.335-.067-4.722-.21-7.073-.542-2.907-1.08-5.817-1.746-8.7.687 1.829.864 3.867 1.317 5.784.625 2.638.75 5.356.98 8.046-.12 1.373-.03 3.201-1.492 3.889-1.776.99-3.844 1.106-5.831 1.02-1.083.148-2.243-.65-3.253-.113 2.493.687 5.177.818 7.678.101-.332.342-1.06.224-1.283.532.16.98.64 2.025.8 3.065.15.536.413 1.64.01.514-.391-1.125-.67-2.276-1.122-3.373-.69-.024.224 1.12.178 1.606.19.764.53 1.566.627 2.306-.41-.332-.44-1.236-.692-1.796l-.675-2.186c-.934-.211-.908.207-.653.969.232 1.009.437 2.025.692 3.028-.415-.387-.4-1.334-.624-1.942-.206-.679-.243-1.421-.569-2.055-.79-.054-1.436-.13-.987.824.145 1.054.444 2.136.541 3.164-.375-.386-.235-1.32-.437-1.91-.162-.683-.25-1.406-.457-2.064-1.334-.209-2.874-.184-3.968-1.044-.653-.603-1.342-1.223-1.369-2.178a3.5 3.5 0 0 1 .188-2.354c-1.048.479-2.21.26-3.209-.232-.191 3.264-.456 6.523-.524 9.793-.433-.273-.033-1.354-.131-1.952.066-2.65.407-5.284.448-7.935-1.263-.516-2.397-1.354-3.467-2.167-.384-.58-.12 1.014-.356 1.39-.362 2.247-1.168 4.369-1.966 6.488-.452 1.385-.942 2.758-1.287 4.175-.45-.18.218-1.236.258-1.773.555-2.026 1.299-3.993 1.982-5.978-1.058 1.394-1.522 3.155-2.091 4.793-.338.962-.523 2.054-.88 2.958-.095.08-.011-.254.01-.168zm13.308-5.072c1.302-1.086 1.334-2.97 1.733-4.509.01-.663.023-1.555-.447-1.997.375 1.237.143 2.6-.246 3.835-.27.771-.389 1.7-1.048 2.248-1.176.192-1.67-1.105-1.704-2.062-.109-.57.178-1.407-.039-1.83-.56.63-.392 1.755-.239 2.583.168.846.89 1.574 1.684 1.825.121.041.208-.044.306-.093zm.117-.833c.495-.54-.7-1.01-1.034-1.382-.86-.84-.396.43-.444.555-.243.363.494 1.281 1.182.991.147.074.212-.121.296-.164zm.538-1.331c.48-1.1-.23.058-.804.054.838-.255-.811-.183.102.103.262.207.593.196.702-.157zm-1.87-.536c-.2-.89-.387-1.061-.141-.013.077.136.498.194.142.013zm1.095-.04c1.237-.382 1.613-1.828 1.321-2.977-.303-1.06-.365-.403-.368.327.116.459-.713 1.676-.567 1.325.453-.677.76-1.734.38-2.439-.19.38 0 1.253-.237 1.81-.326.52-.517 1.635-1.296 1.436.368 1.083-.213-.89-.287-.203-.23.67.564.931 1.054.72zm-14.304-1.611c1.01-.414.074-.783-.45-1.04-.725-.835-.306.173.025.558.648.927-.6-.386-.6-.828-.21-.337-.778-1.697-.55-.653.106.764.136 1.866.955 2.192.225-.032.433-.093.62-.229zm-.881-.186c-.297-.571-.413-1.271-.6-1.807.386.59.427 1.404.733 2.007-.058.11-.095-.2-.133-.2zm15.268.236c.492-.628.542-1.521.393-2.277-1.684-.418-1.674-2.605-3.048-3.447-.738-.613-1.009-.756-.246.064-.406-.23-.766-.73-.923-1.183-.962.09.092 1.025.495 1.292.506.415.995.85 1.482 1.287-.9-.202-1.82-.382-2.562-.99-.556-.276-1.093-.833-1.682-.905-.443.33.366-.671-.587-.469-.588.585.56.774.876 1.135.987.653 1.956 1.342 3.04 1.829-2.165.024-3.785-1.702-5.711-2.451-.325-.34-1.38-.494-1.121.211 1.662.74 3.19 1.732 4.749 2.663-.319.356-1.15-.3-1.604-.473-.858-.452-1.672-1.06-2.526-1.466.285.043-1.149-.62-.665.24 1.508.867 3.008 1.777 4.422 2.778-.323.061-1.078-.48-1.536-.7-.738-.427-1.471-.864-2.243-1.229-.425.965.046 0-.348-.284-.86-.362-.665.855.097.8 1.094.466 2.113 1.157 3.083 1.834.766.827-.53-.197-.884-.355-.7-.297-1.292-.905-2.013-1.087.046.333.428.697 1.008 1.022 1.084.722 2.097 1.582 3.4 1.868.927.562 1.955.128 2.913-.023.56-.094 1.296.71 1.74.316zm-13.385-1.165c.399-.126.782-1.669.484-1.3.296-.52.177-1.183.183-1.787-.11 1.087-.964 2.388-2.156 2.271-.626-.178-1.142-1.219-.589-.111.427.656 1.277 1.358 2.078.927zm13.647-1.925c.564-.403 1.169.361 1.811.217.583.063 1.457.376 1.868.053v-5.638c-.198-.257-.96-.928-.534-.291-.05.142-.467-.282-.168.276.055.517-.302.078-.446.336-.58.475-.084-.844-.628.127.098-.472-.507.222-.507-.105.46-.205.269-1.712.086-.726-.538.754.146-.573.07-.995.29-.63.235-1.326.199-1.998-.388.392-.477 1.153-.318 1.443-.453-.628-.249-1.564.42-1.985-.437-.144-.79-.89-.296-1.295.452-.669-.358-1.02-.747-.306-.864.77-2.015.913-3.125.92-.505.344-1.29-.022-1.547.64-.462 1.151-.27 2.47-.438 3.692.145.54-.553 1.822.314 1.679.803 1.016 2.098 1.559 2.611 2.81.39.535.587 1.352 1.264 1.583.042-.14-.013-.347.11-.437zm-13.861-.012c.748-.451.38-1.409.5-2.125-.48-.45-1.298-.186-1.919-.281-.69.081-1.495-.114-2.119.123.364.679 1.087.596 1.638.949.316.539.404 1.507 1.23 1.517.23-.05.497.01.67-.183zm-2.339-1.88c-.17.167 1.219-.478.91-.147-.18.17-.68.332-.91.146zm12.678.022c-.238-.28-.978-1.415-.678-.462-.02.265.536.632.678.462zm-9.433-.934c-.477-.868-1.23-1.688-1.633-2.526.431.54 1.061 1.314.37.212-.936-1.492-1.737-3.082-2.744-4.519-1.328-.134-2.658-.059-3.988-.012.257.591.694.836.985 1.438.282.545.63 1.568 1.098.698.638-.509 1.585.441.85.974-.95.724.093.474.541.055.409-.36 1.563-.27 1.487.472-.279.47-1.477.643-1.434.956.85.15 1.731-.485 2.527-.056.501.807-1.61.855-.636 1.2.464-.027 1.59.148.98.789-.346.21-1.626.158-1.397.42 1.068.013 2.17.224 3.204.284-.065-.128-.163-.258-.21-.386zm-5.175-5.25c-.675-.237-1.112-1.033-.282-.178.503.138 1.39.493.924-.383-.334-.548-.273-.738.064-.135.248.749.06 1-.705.696zm24.04 4.926c.709-1.047-.01-.253-.287.328-.35.621.234-.192.288-.328zm-10.464-1.651c.123-1.654.177-3.327.408-4.961-.506.729-.157.052-.825-.057.196.509.46 1.117.203 1.641-.649.025.136-1.038-.41-1.391-.393-.79-1.463-.62-2.041-1.242-.572-.162-1.333-1.351-1.734-.584-.492.426-.073 1.294-.858 1.478.112.636-.147 1.68.835 1.36 1.1-.179 2.27.408 2.554 1.53.476.798.714 1.785 1.345 2.458-.122-1.012.187-2.12.192-3.172.23-.795.024.825.02 1.134-.04 1.058-.482 2.171.126 3.141.161-.426.16-.914.185-1.335zm-14.833-.786c.218-.724 1.484-.89 1.362-1.729-.719-.162-1.188.707-1.654 1.131-.302.393-.117 1.43.292.598zm23.041-.575c.18-.915-.96-1.259-1.212-2.015.06.936.639 1.882 1.24 2.618l-.028-.603zm-1.218-.78c-.308-.692-.31-1.485-.333-2.234-.079.824-.053 1.866.422 2.485.094-.06-.103-.176-.09-.251zm1.002-.522c-.633-2.007.318-4.055 1.233-5.815-.622.31-1.321.548-1.453 1.324-.243.632-.428 1.273-.293 1.908-.095.683-.795.845-.389 1.666.204.533.644 1.113 1.05 1.387l-.148-.47zm-14.263-1.152c-.448-.917-1.27-1.759-1.382-2.834.246.85.855 1.684 1.303 2.341-.173-.784-.53-1.626-.47-2.48.141.803.401 1.574.64 2.35.642-.607-.07-1.089.04-1.697.495-.49.228-1.298.465-1.93-.13-.442-.85-1.192-1.445-.954-1.097 1.032-1.535 2.574-1.989 3.978-.077.532-.578 1.599.391 1.32h2.44zm.482-.137c.108-.723.16-1.405-.133-.314-.165.275-.013.973.133.314zm13.26-2.887c.394-1.04.097-.795-.123.087-.333.964-.068.726.114-.087zm5.933-.346a3.067 3.067 0 0 0-.727-1.79c-.073.407.578.618.581 1.432.102.362.258 1.872.218.827-.024-.156-.052-.314-.072-.469zm-17.948.356c.68-1.11-.794.865-.233.354.087-.11.154-.238.233-.354zm-.805-1.081c-.234-.223-.301 1.057-.301 1.467.113-.483.138-1.004.3-1.467zm16.99-1.654a1.753 1.753 0 0 0-2.03-.69c.795.175 1.598.496 2.132 1.123.06-.18.06-.3-.101-.433zm-17.974 25.483c.181-1.527.532-3.04.84-4.55-.155 1.511-.557 3.11-.835 4.65zm3.918-1.21c-.277-.816.991-.214.223.105-.126.048-.16-.021-.223-.106zm-6.681-2.617c.665-.492 1.14-.47.446-.086-.186-.089-.237.228-.446.086zm-2.537-.312c-.55-.052-.678-.635-.134-.17.244.102.639.501.134.17zm-.788-.586c-.27-.11-1.018-1.142-.333-.43.131.116.914.88.333.43zm21.124-3.411c-.215-.531-.871-1.53-.982-1.666.387.31.738 1.032.867 1.233.109.189.491 1.025.684 1.47-.22-.29-.376-.703-.57-1.037zm4.835-2.488c-1.154-.51-2.436-.614-3.642-.218-.015-.155 1.086-.482 1.535-.459.945-.074 1.893.285 2.655.826-.199.033-.385-.068-.548-.15zm-27.44-3.494c-.742-1.147.776.62 0 0zm14.05-12.007c-1.5-.381-2.938-1.318-3.804-2.612-.432-.396-.11-1.37-.605-1.513-.304.881-.313 1.185-.185.074.043-.601-.926-.786-.997-1.447-.07-.822-1.061-1.426-1.263-2.072-.164-.269-.843-.996-.253-.624.476.247 1.29 1.118 1.24 1.31-.235-.283-1.4-1.467-.668-.544.7.637 1.121 1.474 1.439 2.338.426.618 1.197.805 1.676 1.388.867.464 1.653 1.141 2.525 1.54.894.06 1.8.025 2.523-.58 1.471-.794 2.775-2.237 2.658-4.006.013-1.297-.025-2.629-.4-3.874-1.45-.245.653-.311-.58-.335.401-.02.772-.37-.247-.182-.727-.189-.913-1.114-1.44-.8-1.274-.035-2.49-.512-3.413-1.403-1.267-.884-1.095-2.609-.586-3.877.163-.833-.465.712-.442 1.027-.135 1.245-.019 2.757-1.075 3.638.473-.65.826-1.276.07-.307-.546.473-1.22.833-1.956.824-.17.671.017 1.346.138 2.01.455-.601 1.535-.75 2.003-.115-.814-.902 1.07.193.208.21-.534.169-1.236-.095-1.8.24-.735-.115.034.979-.03 1.43.285.208-.19.514.076 1.287.144.84.47 1.87.856 2.45-1.154-.574-.738-2.089-1.453-2.993-.932-1.32-1.837-2.748-1.865-4.42-.16-2.464.862-5.018 2.786-6.586 1.152-.698 2.477-.957 3.811-.836 1.738.189 3.307 1.346 4.287 2.753 1.28 1.822 1.429 4.141 1.787 6.273.133 1.38.42 2.852-.027 4.187-.457.695-.195.727-.068.439.232.06.946-.819 1.236-1.21 1.211-2.025 2.448-4.267 2.143-6.712-.075-1.323.192.294.153.8.07 2.058-.807 4.06-1.934 5.74-1.126 1.5-2.407 2.926-3.859 4.107-.436.28-1.662 1.085-.488.468 1.923-.746 3.121-2.478 4.568-3.85 1.295-1.307 2.186-2.976 2.677-4.741-.09 2.087-1.362 3.877-2.287 5.682-.869 1.369-1.93 2.665-3.196 3.663-1.493.871-3.459 1.505-5.04.482-.731-.19-.691-1.053-1.317-1.332-.342-.062.32.944-.367-.16-.607-.692-1.05-.622-.575.277.716 1.345 2.27 2.109 3.72 2.393 1.312.171.508.255-.349.12h-.018zm2.285-1.203c1.394-.4 2.685-1.314 3.33-2.636.94-1.07 1.726-2.251 2.294-3.56-1.149 1.395-2.532 2.602-3.808 3.881-1.277.88-2.663 1.84-4.285 1.762 1.389.572 2.802-.333 4.031-.739-1.184.666-2.634 1.444-4.03.864-.386.014-1.986-.825-1.27-.145 1.047.752 2.52.9 3.738.573zm-5.728-1.21c-.278-.404-.757-1.652-.398-.519.038.321.88 1.307.398.52zm8.368-4.228c.319-1.59-.103-3.233-.26-4.827-.37-2.156-.772-4.52-2.511-6.035-1.13-1.11-2.674-1.825-4.282-1.64-1.945.026-3.738 1.32-4.473 3.111-1.18 2.314-1.194 5.28.282 7.468.484.99.446.619.017-.133a7.88 7.88 0 0 1-.708-4.271c.083-1.49.516-3.06 1.524-4.195 1.77-1.685 4.748-1.82 6.642-.27 1.32.803 2.184 2.193 2.428 3.71.581 2.778 1.288 5.67.748 8.507.183-.37.511-.927.593-1.425zm-10.617-2.177c-.06-.854-.456-1.655-.452-2.508-.388.775.19 1.686.245 2.505.165.851.531 1.393.24.18-.1.033.03-.171-.033-.177zm9.022-2.733c.424.174-1.53-.63-1.021-.274 1.155.428-.378.403 1.021.274zm-8.66-.878c.942-.212 1.809-1.007 2.08-1.928-.558 1.134-1.788 2.02-3.083 1.936-.875-.703.03.347.57.103.137-.035.323-.064.432-.111zm7.665-.097c1.051-.462.268-.186-.363.022-.967.137-1.964.032-2.723-.646-.7-.422-1.012-.934-.078-.308.823.496 1.77.606 2.713.573-1.38-.04-2.784-.498-3.833-1.402-.295-.28-.749-1.794-.535-.769.533 1.405 1.91 2.49 3.383 2.72.482-.05.99.036 1.436-.19zm-7.459-.725c.499.106 1.505-1.236 1.188-.739-.81.83.043.258.322-.298.313-.571-.305.14-.706.43-.2.346-1.516.674-1.165.7.11-.027.268-.073.361-.092zm6.341-.215a5.957 5.957 0 0 1-3.19-1.65c.87 1.112 2.295 1.84 3.718 1.746l-.528-.096zm-6.349-.674c.41-.093 1.587-1.377.766-.652-.568.551-1.313.803-2.088.878.448-.058.937.07 1.322-.226zm7.024-.088c-1.182-.147-2.23-.78-3.247-1.364.826.786 1.996 1.207 3.101 1.46.595.01.995.01.147-.095zm-7.187-.303c.84-.219 1.422-.936 2.01-1.532-.809.687-1.603 1.457-2.687 1.663.238.04.465-.092.677-.131zm7.178-.187c-.913-.284-1.877-.456-2.687-.991.776.658 1.834.938 2.825 1.031.132-.153-.15.02-.138-.04zm-7.372-.52c.988-.679 2.04-1.36 2.817-2.29-.996.993-2.198 1.835-3.403 2.49.118.054.441-.127.586-.2zm8.017-.152c-1.394-.567-3.073-.87-4.106-2.04-.592-.795.25.697.724.772a9.13 9.13 0 0 0 3.417 1.295l-.033-.033zm-6.55-1.605c1.033-.574.515-.497-.197-.017-.511.41-1.283.682-1.646 1.173.613-.384 1.243-.774 1.844-1.156zm5.092.47c-.366-.097-1.844-1.152-1.153-.565.54.401 1.158.77 1.817.903-.22-.11-.45-.236-.664-.338zm6.923 15.012c-.305-.296.108-1.884.105-1.448-.036.675.164 1.322.95 1.311 1.15.322-.324.121-.78.027-.125.305-.08.654-.275.11zm.677-1.366c.234-1.012 1.601-1.161 1.926-2.108-.09 1.084-1.527 1.245-1.93 2.19v-.082zm-1.791-.255c.264-.514.559-1.092.986-1.51-.346.448-.746 1.278-.986 1.51zm-7.993-.323c-.54-.282 1.127-.163 1.292-.177-.09.358-.976.326-1.292.177zm-.172-.535c-.456.01-1.66-.563-1.482-.585.904-.01 1.698.87 2.584.388.725-.274-1.573-.077-.089-.227.436.082 1.622-.61 1.507-.02-.551-.186-.946.305-1.539.462-.328 0-.663.1-.981-.017zm-.62-1.19c-.85 0-.483-1.315-.261-1.199-.498.724.626 1.387 1.187.889.502.349.965-.773.672.043-.518.067-1.025.725-1.606.268zm7.062-1.38c.73-1.357.738-2.948 1.134-4.42v-3.554c.266 1.262.09 2.593.104 3.876a54.83 54.83 0 0 0-.614 2.984c1.24-2.088 2.064-4.525 1.984-6.98-.158-.63-.286-1.665.01-.457.557 2.532-.537 5.069-1.731 7.255-.275.371-.645 1.118-.884 1.296zm-9.442-.66c.091-.415-.317-.086-.43-.246.311-.273-.678-.194-.09-.585-.747-.413.188.133-.236-.637.376.072 1.114.426 1.654.12.779-.175.373 1.63.39.922-.254-.588-.365.705-.416.126-.512.684-.253-.267-.607.366.175-1.023-.375.494-.265-.066zm5.067-.172c-.32-.533-.182.378-.557-.233.116-.76-.464.239-.3-.867-.117-.733 1.127-.167 1.592-.329.467 0 1.498-.609.943.115-.099.59-.43.074-.404.722-.342-.231-.242.311-.461.368-.084-.062-.371.529-.517.059-.056-.164-.136.652-.296.165zm.93-1.31c.635-.173-1.032.09-1.42-.01-.487.139 1.264.24 1.42.01zm-6.408-.037c-.062-.144 1.606-.15 1.441.043-.445-.202-1.016.086-1.44-.043zm1.073-.558c-.722-.173-.887-.466-.035-.332.281.104.52.853.035.337zm3.268-.225c.371-.544 1.11-.665.225-.045-.02.07-.28.267-.225.045zm1.963-.016c-.824-.098-1.432-.23-.25-.121.303.072 1.087.184.25.121zm-2.64-.464c-.23-.477.096-.412.25-.365.22-.357 1.115-.456 1.664-.534.644-.035 1.34.34 1.864.59-.829.159-1.898-.093-2.79.208-.185.189-.262-.01-.636.256-.184.048-.25-.037-.352-.155zm-7.096-2.286c.027-1.267.16-.447.052.344-.094.602-.015-.281-.052-.344zm17.857-1.601c-.794-2.428-2.202-4.86-4.497-6.124-2.717-1.28-5.949-.81-8.595.42-1.09.577-2.193 1.313-3.017 2.172.318-.43.66-.783.9-1.085 1.582-1.51 3.779-2.141 5.89-2.447 1.893-.235 3.897-.042 5.535 1.017.397.341.158.208.708.52.177.224.85.707 1.159 1.126.604.643.922 1.458 1.32 2.211.381.707.765 1.607.676 2.371-.102.035-.048-.169-.079-.181zm-7.214-6.225c-.31-.192-2.096-.347-1.31-.313.64.01 1.273.17 1.85.446-.188.02-.368-.084-.54-.133z" style="fill:#121015;stroke-width:1" transform="translate(2483.897 -1922.9)"/></svg>