<svg xmlns="http://www.w3.org/2000/svg" width="200" height="200" viewBox="0 0 52.917 52.917"><path d="M-2779.371 1997.068c-1.35-.233-2.629 1.22-3.392 1.557.47.61-1.517 1.293-.427 2.17-.174 1.008.628 3.298.896 3.184.489-.423 1.246.753.285.295.18 1.029 1.078.748.993-.17.497-.1 1.322-.877.346-1.427-1.026-1.617 1.491 1.642.738.235-.757-.693-.529-1.357.063-.192.555.554 1.858.267.456-.084-.485-.384-1.205-1.514-.3-.465.56.913 3.632.46 1.497.238-.829-.08-2.125-2.07-.808-.668.45.832 2.89.521 2.23.248-.973.318-3.047-1.63-1.305-.422 1.107.635 2.618-.734 2.57 1.172.763 1.93-.986 3.896-2.985 3.622-1.414.032-2.105-1.286-3.307-1.23-.562-.879-.933-.763-.223.086 1.438.2 2.494 1.681 4.067 1.307 1.836.104 3.292-1.85 2.649-3.589.256-.987.73-1.839-.25-2.682-.248-1.85-1.97-3.125-3.793-3.185zm.057.755c.583-.134 2.504.748.867.231-.788-.35-3.254.151-1.213-.221zm1.72.507c.922.45 1.06 1.1 0 0zm-1.48 1.419c.404.425 2.726 1.148 2.118 1.079-.806-.11-1.48-.612-2.118-1.079zm3.594 1.285c1.27-.09-.046 2.034-.097.706.381.65.527-.71.013-.644l.084-.062zm.7 1.484c-.133 1.42-.175 3.313-1.815 4.064-1.541.997-3.4.345-4.706-.706-.786.196-1.554-1.508-1.442-.204-.455 1.677-1.68 2.226-1.385 3.886.553 1.916 2.996 1.827 4.612 1.965 1.126.367 1.052 2.721 2.768 1.818 1.31-.422 3.962.308 4.305-1.235-.88-1.38 2.22-1.413 2.086-3.053-.103-1.204-.777-2.093-1.296-2.83-1.062-.016-1.386-2.652-2.907-3.027-.2-.152-.32-.432-.22-.678zm-1.924.357c-1.487.46 1.394.198 0 0zm.363.666c-.201.357-1.177.48-.154.854.478-.025.765-.726.154-.854zm-2.737.238c-1.429.465-.458.574 0 0zm.18.744c-1.912 1.111 1.672 1.138 0 0zm1.701.859c-1.316.181.034.43 0 0zm5.623 1.042c-.038.64-1.743 1.069-.932.475.225-.273.59-.421.932-.475zm-5.454 1.209c.795.463-.033.97 0 0zm-6.603.092c.84.088 2.018.736.527.205-.094-.038-.648-.13-.527-.205zm11.485.49c.88 1.303-2.89 1.875-1.071 3.291-.856.727-1.21-1.26-2.344-.426-.83.31-2.115.017-.575-.34 1.419-.22 2.85-.961 3.715-2.102l.138-.284zm-10.862.196c1.121.127.073.433.226.551.878.604 3.294.734 2.85 1.619-.516-.879-3.583-.355-3.076-2.17zm5.004 1.317c.705-.046 1.968 1.32.563.524-1.504-.306 1.521.757-.116.333-1.103-.245-.534.16.17.358-1.01.066-1.416-.021-.371.277-.955.648-2.728-.108-1.708-1.207.474-.165.99-.116 1.462-.285zm2.98 1.5c1.103-.35 1.712 2.509.87.77.108-.635-1.876-.732-.87-.77zm-1.371.208c.439.103-3.579.572-1.565.2.518-.09 1.038-.182 1.565-.2zm.153.378c.316.1-.56.28.249.3.28.692-1.64-.225-.25-.3zm-4.985 1.411c-1.06.69-1.583-.062-2.684.553-.2.977.301 1.414-.397 2.338 0 1.17-.061 2.348-.061 3.446 1.429.563 2.455 2.463 4.18 1.896 1.831.117 2.955-1.892 3.358-3.278.04-1.962-.986-4.077-2.944-4.73-.467-.195-.975-.14-1.453-.225zm-1.072.238c.15.01 0-.056 0 0zm.858.047c1.528-.137 3.147.756 3.7 2.202-.866-1.416-2.581-2.314-4.236-1.824-.972.493.165-.462.536-.378zm-3.214 2.988c-.05.722.044 1.323.012.227zm7.845.112c-.13.613.101 1.888.115.566-.12.014.03-.52-.115-.566zm-.832.456c.458 1.28-.121 3.102-1.251 3.937-1.355.639-3.357.443-4.107-1.013-.667-.09-1.881-.586-.393-.394.444-.691 1.665-.692 1.733-1.831 1.316.649 3.077.56 4.018-.7zm-.882 1.242c-1.727.18.021.354 0 0zm1.51.282c.277.788-1.187.779-.04.167zm-7.308.108c1.227-.293-.27 1.087.047.145l-.102-.106.055-.04zm2.935.246c-1.605.33 1.096.195 0 0zm2.496.12c-1.343.54.929 1.231.202.028zm-2.358.486c-1.75.984 1.49 1.054 0 0zm-2.328.684c-.953.152.854.256-.334.65-.758.233-1.076 1.283-1.254 1.587-.734-.997-1.685 2.138-.588.486.148.796-2.117 2.55-.128 3.085.743.017 1.728-.09.414.13 1.868.111 3.739.352 5.598.218.51-.776 1.06-1.786 1.993-1.725.246-1.294 1.68-.687.971.426.85.5.32-1.286.175-1.415.791.482 1.856-.776.657-.74-.41.396-2.307.737-.711-.02 2.043.324-.108-1.81.226-1.612-1.084-2.084-2.354 1.307-4.029.565-1.225.08-2.184-.841-2.99-1.636zm6.672 4.856v-.01zm-7.486-4.47c-.581.414-1.167 1.448-.257.34l.165-.189.092-.15zm-1.042 1.944c.651.337.888.848-.114.214-.34-.096-.197-.29.114-.214zm6.171.27c.975-.029 1.701.165.258.135-.481.206-1.28.185-.258-.135zm-.99.704c.656.054 2.925.261 1.08.484-2.11-.1 1.81.506-.183.483-1.59.01-.258.145.507.2-.51.168-1.98.221-.399.302.593.029-2.121.596-1.695-.706.146 1.12-1.237 1.453-1.06.132.478-.68 1.188-.438 1.75-.895zm-2.896.737c1.933.309-.906.647-1.519.555-1.1.34-1.42-.906-.133-.512.56.16 1.096-.01 1.652-.042zm8.3.972c-.519 1.363-2.044.529-3.16 1.186-1.56.683-2.621 2.413-2.386 4.103-.807-.319.738-3.481-.782-1.977-.688.541.804 2.339-.303 1.188.234.901 1.033.66.355 1.542.069 1.605 1.321.84 1.62 2.406 1.002 1.961 3.738 1.884 5.34.758 1.05-.383 1.63-1.383 2.095-2.163-.354 1.055-1.22-.19-.607-.054.472.637-.201-1.13.17-1.628.128-2.192-1.853-4.305-4.109-3.947-1.21-.174-2.91 1.657-3.009 1.745 1.231-2.552 5.407-2.688 6.709-.112.802 1.013.465 2.526.506 3.524.841-1.716-.087-3.884-1.524-4.979.29-.685 2.39 2.788 1.212.78-.775-.887-1.505-1.102-1.823-2.272.396 1.123-.079.546-.304-.1zm2.778 7.048c0-.043-.025-.075 0 0zm-.01-.04-.075-.308zm-4.277-6.534c-1.847.254 1.71.173 0 0zm-4.34 2.657c.182.695-.514 2.153-.323.528.1-.179.161-.39.323-.528zm8.894 1.531c-.22 1.003.228 1.158 0 0zm-2 .248c-.49 1.222.884 2.053-.048 3.241-.06 1.188 1.582-.473.323-.512 1.284-.47.265 1.59-.654 1.303-1.182 1.282-3.417 1.078-4.677-.01-.88-.857-.902-2.097-2.098-2.572-.2-1.191 1.014-.838 1.198-.012-.092-1.51 2.271-1.42 2.475-.986-.975-.197-1.415.032-.15.257 1.187.222 2.938.647 3.631-.71zm-6.585.842c-1.364 1.018 1.354 1.55 0 0zm2.23.224c-1.524.343.516.208.571.297l-.261-.197zm-2.283.061c.631.47-.411 1.017 0 0zm5.453.221c-.177.304 1.626.487.277.035zm-6.362.402c.313.703 1.238.794 0 0zm3.221.193c-1.724.46.851 1.883.367.262l-.165-.197zm2.88.077c.193.39 1.62.312.21.01zm-.173.62c-1.887 1.423 1.601 1.373 0 0zm-1.718.645c.175.394.934.085 0 0zm-4.115.246c-1.203.948-2.646 2.775-3.625 4.415-1.485 1.349.536 2.36 1.837 2.154 1.173.652 2.664.84 3.985 1.247 1.11.189 2.94 1.369 3.01-.571.758.577 3.373 2.205 3.521-.106.054-.754-.16.678-.334-.526-.423-1.656-1.516-3.586-2.144-4.806-.113-.354-2.327.572-3.14-.27-.677-.037-2.716-2.525-1.973-.682-.365-.925-.824.602-.744-.682l-.103-.103-.29-.07zm3.587.269c.224.487 1.765.284.341.057zm-1.337.982c.364.596.93 1.059 1.58.86-.772.812-1.871.134-1.58-.86zm-.642 2.852c.37.322-1.258.63-.071.587 1.255.253-1.256.225.11.318.919.176-1.178.186.032.506-.972.04.185.194-.863.42-1.278.434-1.414-2.002.121-1.545.274-.022.35-.41.67-.286zm-2.667.595c2.2.674-2.32.904-1.347.033.449-.103.906.069 1.347-.033zm5.622.422c1.307-.29.234 1.303-.045 1.042.726.508-.879-.072-.196-.542-.346-.117.206-.285.241-.5zm2.207.643c.982.023 1.683 1.656.436.44-.559-.6-.82 1.04-.436-.44z" style="fill:#ebad9c;stroke-width:1" transform="translate(2790.89 -1992.74)"/><path d="M-2762.3 1994.923c-.569.448-1.652.15-2.045.923-.749-.135-1.959.264-.544.058 2.044.236-1.125.073-1.694.762-1.553.87-2.618 2.938-1.76 4.626-.966-1.076.54 1.24-.186 1.11-1.007 0-2.805.74-1.682 2.19.017.599.246 2.346.99 1.501-1.197-.999.685-.96 1.02-1.054 1.091-1.774.172.745.217 1.46.23.435-1.414.012-.63-.632.182-1.3-.348.95-.523 1.317-.842 1.206.449 3.427 1.767 2.844 1.928-.32 3.957-.425 5.852.16 2.221.558 2.646-1.895 1.824-3.425-.029-.69-1.714-1.438-1.132-2.077.416.485 1.168 1.889.49.406-.738-1.882-2.08.96-3.447.575-1.376.128-2.707-.502-3.568-1.567 1.142.755 2.512 1.663 4.052 1.115 1.406-.447 2.269-1.697 3.507-2.38.188-.788-.801 1.064-.275-.333.284-1.1-1.504-.437-.472-.117-.908.54.637.168 0-.434.743.572.092 1.391-.654 1-.532 1.69-2.45 2.76-4.16 2.141-1.607-.348-2.193-2.139-1.949-3.596.354-.402 2.427-.505 2.021-.417-.53.117-1.75.507-.45.573 1.34.073 2.68-.725 3.159-1.941-.15.858 1.308 2.737 1.51 2.255 1.007-.243 1.99-1.276 1.449-2.517.318.76-.77 2.942-.228 1.168.166-1.263-.33-2.434-1.108-3.403.485.514.829.554.156-.063.327-1.019-.682-1.922-1.617-1.936.388-.097.192-.195.106-.292zm-6.187 6.795-.073.15zm6.318-6.349c.69-.129 1.095.721.572.35-.311-.917-2.585.898-1.232-.189.216-.068.442-.098.66-.16zm.32.538c.917-.41 1.242 1.522.933.867.318-.552-.619-.69-.932-.867zm-1.652.46c2.234.227 4.147 2.564 3.369 4.793-.577.531.172-1.436-.253-1.951.235.794.384 1.882.3.366-.08-.736-.997-2.391-1.353-2.082.79 1.025.515.639-.195-.054-2.145-1.547-5.893-.632-6.469 2.136-.108.948-.096 1.052-.082.037-.11-.249-.3 1.333-.213.148.248-2.314 2.744-3.658 4.895-3.394zm-2.814.574c-.604.5-1.947 1.747-.554.618.068-.079.82-.578.554-.618zm19.444 1.365c-.712.192.269.93-.775.307-.778.98-1.465-.591-2.407-.19.668.01 2.588 1.153.93.79-.9-.501-2.212-.311-2.92.24.9-.38 3.164-.824 3.148.44.767 1.96-1.918 3.05-3.51 2.802-.984.12-1.262-.501-.063-.311 1.069.08 3.317-1.2 3.173-1.378-1.127.687-3.475 1.753-4.25 1.016.674-1.695 2.686-1.962 4.237-2.295-1.704-.084-3.765.61-4.438 2.317-.261-.62-.042-1.095-.484-.201-.823.35 1.18.274-.112.572-.01.367 1.016.737.09.79-.144-.421-.482 2.22.023.67.265.034-.242 3.083.395 1.394.01.746-.432 2.623-.804 2.594-.205-.75.6-3.166-.035-1.224.026.812-.354 1.856-.377.393-.227-.833.73-2.708-.214-1.075-.629.3-2.118 2.346-.873.884.543-.972 1.43-.585.482-.043-.544.967-1.073 1.72-1.781 1.862-.393.575.511.075-.33.606-1.192 1.179-.468 2.753.834 3.106 1.558-.102-.557 1.968 1.188 1.717 1.343.503 2.799.769 4.246.71-.764.782 1.274-.93 1.847-.745 1.12-.4 3.595.19 3.526 1.172-1.926-1.813-5.594-.836-6.285 1.751-.436 1.435.372 3.041-1.125 4.012.319-.721 1.084-1.609.058-.54-.96 1.111.441 2.184.464 2.91-.692.83-1.034 2.297.484 2.214-.469 1.2-2.425-.443-3.02.848.572-.477 3.002-.4 1.048-.06-.834.158-1.633.634-.266.684.33.195 1.263-.255.424.102 1.599.213 2.57 1.56 4.068 1.914 1.238-.215-1.489.228-.15.211 1.008-.02 2.113.407 1.352-.918-.094-1.367 1.125.502 1.688-.133 1.233-.373 3.496-.062 3.794-1.307 1.934.082 1.447-2.461.614-3.436.402-.245 2.16-.988 1.427-2.228-.483-.558-1.276-.211-.677-1.177-.091-1.114-1.341-1.868-1.195-3.138-.455-1.084-1.866-.737-1.556-2.006-.398-.441-.945-.489-1.485-.9.643.85-1.387-.707-1.89-.412-.825-.436-2.608.99-2.174-.31.028-1.756 2.901-.108 3.765-1.563.79-.97-1.215-2.679.565-2.448.126-.121.125.748.264-.348.319-.558-.726.767-.906.16 1.462-.859-1.17-3.53.01-4.406.025 1.693 1.225 3.132 1.208 4.82.502-1.367-.969-2.829-.965-4.303.17-.898-.047-2.863.184-3.1-.053.684.245 2.235.197.657 0-1.44.136 1.203.05 1.72-.07 1.374.834 4.076.963 4.51-.04-1.81-1.135-3.446-.86-5.316.043-1.556-.329-3.014-.363-4.442-.723-.126.709-.76-.453-.942zm-7.553 4.721-.021-.029zm-9.223-4.674c-.088 1.08-3.221 1.783-1.071.87.399-.234.732-.56 1.071-.87zm16.05.356c1.218.441-.43 1.792-.435.31.047-.198.23-.348.436-.31zm-4.57.155c-.642.284-1.816 1.792-.638.614.212-.205.42-.414.637-.614zm4.64.01c-.174 1.118.437.565 0 0zm.165.208.168.176zm.614.207c.762.2.31.912 0 0zm-.211.128c1.23.37-.52 1.879-.317.47.275-.012.059-.556.317-.47zm-1.475.065c.933.058.387.835.425.354-.855-.322-.44.054-.439.281-.463 0-.322-.612.014-.635zm1.504.185c.406.677-.932.551.14.713.195-.208-.145-.501-.14-.713zm-6.545.428c-.665 1.088-.155 1.257 0 0zm5.793.094c1.292.658 1.02 4.033-.143 1.642-.65-.7.316.179-.355-.715-.418-.116.102-.915.364.026.405.738 1.402 1.884.417.444-.268-.61-1.398-1.154-.283-1.396zm-1.775.202c-1.054.184-3.477 1.158-3.462 1.364 1.129-.514 2.355-.837 3.462-1.364zm.896.694c.45.878 1.338 1.674 1.807 2.266-.976 1.1-2.17-1.42-1.807-2.266zm-.288.19c.191 2.088-3.496 1.783-3.696 1.567 1.356.06 3.113-.11 3.696-1.567zm-19.12.206c.018.37-.037.976.309 1.088-.453.15-1.005-1.136-.31-1.088zm5.023.011c-1.49.242 1.737.375 0 0zm14.157.393c.012.925.716 2.722.713 2.799.305 1.273.757-1.282.859.142-.503.831-1.348.647-2.023 1.47-1.617.964-4.11.132-4.4-1.836-.022-.91-.198-2.458 1.109-1.455 1.264.294 3.413.57 3.742-1.12zm-14.115.16c-1.314.251 1.095.603.367.114l-.193-.055zm-3.213.052c-1.317.39 1.724.41.236.024l-.236-.025zm17.53.26c.25.844.915 1.897 1.527 1.628-.947.5-1.43-.933-1.527-1.628zm-17.11.432c-2.218.77 1.525 1.292 0 0zm2.989.01c-.666-.011-1.079.887-.079.787.556-.044.611-.605.079-.787zm2.353.351c-.089.543-1.284-.036 0 0zm-4.402.727c-.203 1.204 1.587-.215.278.352-.185.01-.3-.185-.278-.352zm.98.017c.208.702 2.033.293.558.323-.198-.087-.358-.24-.558-.323zm-1.185.016c-.3.558-2.1.104-.67.474.281-.027.58-.192.67-.474zm15.145.066c-.934.167 1.74.49.188.031zm-2.671.207c-1.524-.023.483 1.551.249.203.117.012-.254-.325-.249-.203zm2.489.549c-1.215.45.717 1.75.451.308-.061-.197-.267-.305-.451-.308zm-3.222.901c.737 1.433 2.723 1.422 4.032.879 1.128-.658.914.685-.14.516-1.392.354-3.19.41-4.155-.84-.143-.247-.106-.641.263-.555zm-10.32.36c-.324.961-2.047-.088-.443.214l.19-.085zm9.832.192c.943.601 1.507 1.81.068 2.063-.293-.558-.382-1.476-.068-2.063zm5.686.6c.497.47 1.292 2.332.319 1.266-.73 0-.319-.974-.319-1.266zm-1.526.492c-.115.838-.716 2.063-1.243.709-.807-.859.861-.524 1.243-.709zm-19.086.28c.717.722 2.474.935 2.53 1.891-1.09.206-3.344-1.042-2.307-1.705-.252.045-.22-.08-.223-.186zm4.32.657c.88.044.855.971.013.172-.746-.502-2.22.587-.845.782.844-.2 2.993.59 1.862-.828 1.27-.056 1.761 2.443.112 1.355-.805-.373-2.29-.459-2.614-.305-.705-1.495.543-1.064 1.472-1.176zm17.206.216c.22.244-.314.207 0 0zm-18.28 1.048c1.216-.018.797.491-.153.085zm18.987.01c-1.029.588 1.254.45.343.327-.504.202-.452-.083-.343-.327zm-10.519 1.108c.777.242 2.31.784 2.526 1.13-.771.087-2.238-.444-2.526-1.13zm8.841.093c1.916.32-.94 1.388-1.683 1.262-.379.616-.949-1.183.086-.787.531-.203 1.163-.186 1.597-.475zm-3.474.297c2.13.173.266 3.214-1.2 1.935-1.267.432-1.939-1.857-.459-1.164.484.56 1.983.32.556 0-1.023-.346 2.563.115.876-.537-.695.015.049-.328.227-.23zm-1.935 1.058c.192.505 1.772 1.148.97.3-.349-.024-.656-.174-.97-.3zm4.15 2.539c2.274.18-1.01.287 0 0zm-.971 2.036c.72 1.867 3.156.953 4.354 1.869.082.608.736.717.508.01.41.18-.416 1.23.246.253.201-.658-1.314-.018-.048-.626.951.611-.374 1.453-.58 1.445-.304 1.974-3.198 2.79-4.638 1.51-.466-1.144-2.261-2.658-.433-3.237.296-.332.62-.752.591-1.222zm2.87 1.82c-1.59.183.533.342.265.112zm-5.625.076c-.147.803.501.899 0 0zm2.876.484c-1.239.51.303.292.223.085zm2.92.211c-1.275.293.502 1.702.414.357a.451.451 0 0 0-.414-.357zm-2.337.52c-1.232.467.941 1.55.329.191l-.19-.17-.139-.02zm3.507 1.011c1.488.05-1.387 1.364-1.913 1.504-.904.233-3.371-.306-2.89-1.145 1.052.844 2.547.983 3.77.38.407-.157.731-.432 1.033-.739zm1.098.259c.753.21 1.13 1.54.196.495l-.156-.232zm2.993.033c-.01.48-1.06.334 0 0zm-3.661 1.122c.263.793.544 1.525-.016.349l-.047-.172zm-4.782 1.324c1.033.046.893.586-.078.195-.716-.126-1.67-.09-1.01.638-1.181-.98.554-.779 1.087-.833zm1.082.145c1.252.07 2.26 2.39.359 1.97-.685.045-1.226-.525-.858-.814-.727-.208-1.718-.394-.313-.482.59.13 1.616.3.812-.674zm-2.24.95c.753.41 1.381 1.414.333.358-.163-.122-.41-.063-.333-.359zm4.64.057c1.473.48-.687 2.379-.673.588.024-.454.253-.627.674-.588zm-3.65.146c1.209.044-1.313.185 0 0zm4.378.104c.73.346 2.568.19 2.652.651-.668.128-2.445.042-2.652-.651zm-6.128.946c1.292-.053 2.57.732 3.08 1.885.406-.812.056.987-.326-.265-.677-.88-1.887-1.303-2.754-1.62zm-.087.335c1.187.054 3.088 1.546 2.94 2.125-.535-1.282-2.446-1.584-3.16-2.055zm3.773 1.956c-.13.67.44 2.652.512.842.04-.331-.178-.77-.512-.842zm-1.524.97c.451.023.068.07 0 0z" style="fill:#aacdb4;stroke-width:1" transform="translate(2790.89 -1992.74)"/><path d="M-2753.402 2024.447c.807-.37 1.481 1.578 1.689 1.118-.596-.16-1.38-.345-1.179.399-1.03.71-2.497.248-3.439 1.185-.774.472-1.588 1.798-1.388 2.436.079-.501 1.098-1.723.58-.555-.585.773-.01 2.209-.133 2.647-.57.086.882.208.263-.317-.52-2.055 1.229-4.165 3.248-4.43-1.534.553-2.92 1.856-3.251 3.488-.284 1.064.948 1.672.583 2.566.037.578 1.414 1.25.823.23-.466-.927-1.172-3.267.41-3.26.568.167 2.584.152 1.056.344.59-.097 1.113.09.215.085-.542 0-1.891-.363-.67.137 1.052.447 2.168-.027 2.664-1.037 1.065-.929 1.199 2.506 2.556 1.469.77-1.17 1.043 1.769 1.257.358-.393-.584-.85-.842-.491-1.58-.314-1.299-1.098-2.637-2.288-3.311-.455-.28-2.035-.799-.657-.604 1.4.33 1.964 1.933 3.382 2.237.353.02-.784-1.017-1.177-1.26-.571-.538-2.504-1.27-1.91-2.088.405.163 1.822.161.703-.119-.886-.427 1.371.027.38-.639-.302-.907-2.106.39-.881.192.489-.187 1.116-1.196.121-.757-.722.256-2.147 1.703-2.163.029 1.195-1.178.028.822-.303 1.037zm4.883 5.722c1.099-.339-.288-2.772-.06-1.147.047.38.104.764.06 1.147zm-8.296 1.6c-.07-.097-.057.05 0 0zm3.412-7.32c-.265.183-.207.28 0 0zm6.458.154c-1.017.258-1.743 1.454-2.937.864-.57-.143-.991-.283-.196.033.92.478 1.795.108 2.408.659.888.019 2.348.677 2.818.57-1.196.302-1.943-1.323-1.238-1.856-.243-.192-.564-.208-.855-.27zm2.368 2.126c.087.065.036-.049 0 0zm-3.732-.744c-.233-.202-.437.216 0 0zm1.39-1.26c1.16.264-.178 2.157-.705.824-.153-.448.294-.818.705-.825zm-3.933.216c.888.38 1.082-.02 0 0zm.257.582c.21.688.805.267.023.011zm-3.48.388c-.525-.2-2.004.751-.726.275.104-.026 1.533-.198.726-.275zm2.032.37c1.161.131 2.174 1.031 2.672 2.055-.655-.488-1.926-2.03-3.284-1.934.184-.108.403-.136.612-.122zm7.953.85c-.06.73.487.191 0 0zm-19.979.13c-.859-.127-2.822.383-2.663.854 2.05-1.097 5.038-.828 6.394 1.22.389.502.629 2.463.202.981.086.659-.44-1.265-1.03-1.45-1.525-1.33-3.876-1.406-5.594-.406.322-.364-.931.676-1.062.967-.934 1.062-.32 2.573-.625 3.832-.26 1.22 1.212.61 1.55 1.545-.578-1.016-.492-2.376.513-3.115.55-.295 1.093-2.256 1.25-.697.545 1.687 2.516 1.064 3.676 1.715.57.121 1.595-.065.509.313.918-.536-.362 1.01.67.474-1.313.195-1.255 2.537-2.537 2.314-1.026-.405-2.129-.012-3.152-.278-.474-.101-.954-.704-.548.064-.193.594-.966.367-1.035 1.175-.58 1.066-1.403 2.085-1.47 3.346.646.401-1.069 1.516.08.748.616-.865 2.74-1.452 2.457.213-.136.466-.816.61-.349.038-.68-.996-2.475.107-2.617 1.06.281.74 1.325-.074 1.09.678 1.334.6 2.861.242 4.276.25.01.335 1.673-.035 2.255-.105.414-.112 2.156.419 1.184.01 1.464.246 1.393-1.464 1.086-2.416-.153-1.3-.616-2.5-1.327-3.6-.408-.444-.37-1.332.261-.543.518.516-.614-1.25-1.117-.41-.513.386-1.274.742-.507-.052.622-1.002 1.142-1.987 2.464-1.94 1-.096.591-1.63.064-1.623.514.459-.19 1.926-.28.74.122-1.45.496-2.942-.3-4.266-.718-1.333-2.385-1.637-3.767-1.635zm-4.312 3.93c-.08-.811-.075.675 0 0zm-.057-.251c.114-.353-.19-.571 0 0zm14.303-3.326c-.432.425-1.222.433 0 0zm9.59.054c-.906.061-.436.411 0 0zm-19.58.397c1.742-.042 3.662 1.153 3.834 2.998-.279-.551-.458-.727-.25.056-.151-1.045-1.055-2.181-2.195-2.53-1.613-.604-3.677-.168-4.677 1.3-.362-.45-.888 1.651-.47.283.604-1.448 2.27-2.148 3.759-2.107zm10.756.09c-.942.656-1.01.273 0 0zm3.048.38c.445.397.467.982.085.192l-.085-.191zm-5.523.322c-.216.494-.892 1.431-.266.424.085-.144.168-.29.266-.424zm-8.258.41c.472.171.798.764.156.149zm9.127.15c.479.118 1.426.562.372.325-.073-.052-.587-.204-.372-.326zm-3.477.439c-.079.888.3.7 0 0zm-10.512.678c.226.776-.152 2.665.222 2.778.1-.93-.035-1.867-.222-2.778zm17.115.253c-.01.342 1.569-.01 0 0zm2.672.113c-.666.334.08 1.37.154.345.097-.215.44.82.323-.107-.041-.205-.287-.324-.477-.238zm.301.75c-.458 0-.1.388 0 0zm-11.204-.55c.243.565-.046 1.104 0 0zm5.214.345c-1.12.218-.268.732.158.051l-.048-.036zm3.72.08c-.542-.035-1.03.551-.174.158.033 0 .444-.102.175-.158zm-16.793.374c.565.477-.17.909 0 0zm18.77.26c-.53.268-1.27 2.46-.45 1.231.224-.316.812-.835.45-1.23zm-1.013 1.83c-.463.322-.644.613 0 0zm-.492.388c-.154-.048-.165.291 0 0zm-.128.085c-.65.335-.766.584 0 0zm-.591.34c-.967.377-2.322-.435-2.947.692-1.156.788-1.936 1.925-2.432 3.216-.56.902-.913 2.523.604 2.508-1.032.449 1.207-.492 1.314-1.063.43-.627 1.502-2.113 1.568-.469-.064 1.25.45 3.232 2.08 2.3.54-.231 2.6-.686 1.079-.225-.517.16-1.873.542-1.854.601 1.646-.417 3.25-.99 4.91-1.355.318-1.513-.774-2.76-1.643-3.8.112-1.337 1.79.16 2.202.6 1.593.04.415-2.218-.351-2.73-.98-1.382-2.758-1.229-3.836-.072-.449.45-2.126.872-2.171.29.485-.179 1.053-.17 1.477-.492zm-2.915-2.567c-.593.071-.898.585-.17.119l.17-.119zm-2.569.037c-.58.602.901 2.604.191 1.136-.086-.375-.078-.766-.191-1.136zm-8.796.021c-.685-.013-1.032.42-.145.22.196.057.572-.252.145-.22zm14.506.024c-.952.567 1.043 1.316.514.277a.728.728 0 0 0-.514-.277zm-9.258.167c.726.539.27.553 0 0zm-7.666.172c.936-.193-.402.639.14 1.122-.29.046-.723-1.144-.14-1.122zm5.463.335c-.848-.047-.228.39.159.108zm-2.972.012c-.717-.094-.924.795 0 0zm11.323.058c-1.082.494 1.093 1.434.494.243a.866.866 0 0 0-.494-.243zm1.706.33c-.917.037-.236.334.191.07zm-10.335.252c-1.088.37.766 1.456.46.347a.695.695 0 0 0-.46-.347zm-2.792.127c-.911.538 1.043 1.135.348.19a.59.59 0 0 0-.348-.19zm13.649.234c-.997-.052-.402.398 0 0zm3.025.394c.244.384.137 1.98-.053.705 0-.234-.09-.494.053-.705zm-1.228.576c.914.882-2.059 1.344-.76.291a1.76 1.76 0 0 1 .76-.291zm-3.286.3c.849.085.053 1.875.362.408.1-.342-.91-.202-.362-.408zm-10.958.488c.617-.166 1.884.426.528.273-.519.083-2.572 0-1.181-.235.217-.023.435-.03.653-.038zm10.711.177c-.082.659-.886.588-.134.096.037-.042.09-.064.134-.096zm4.998.179c.214.981-1.462.749-1.04.49.5.592.561-.49 1.04-.49zm3.475.425c.125.574.484.753.05.086l-.032-.056zm-16.56.02c.426.965-1.741.786-.49.73.248-.171.385-.457.49-.73zm-4.563.053c.011.863-.624.34 0 0zm12.617.03c1.586.246-.17 2.465-.871 1.003-.117-.47.378-1.075.871-1.002zm5.414.05c.384 1.07 1.54 1.58 2.285 2.37.655.688 1.583-.154.95-.84-1.129.848-1.699-.691-2.487-1.231a1.481 1.481 0 0 0-.748-.298zm-1.99.019c-.242.663-.826.325 0 0zm-16.157.666c.846.28-.325 2.45.196 1.05.116-1.474-.877.298-.72-.09.13-.285.18-.876.524-.96zm1.667.019c1.248 0 .205 1.193-.216.116-.01-.127.133-.142.216-.116zm10.169.724c.085.86-1.011 2.481-1.678 1.853.358-.773 1.117-1.243 1.678-1.853zm6.797.476c.35.49.515 1.106.128.284-.048-.092-.085-.19-.128-.284zm-16.9.125c.758.098 1.482 1.387 1.966.577.56.453-.085 2.06 1.055 1.4.602.128 2.164.843 1.604 1.415-.74-.33-1.532-1.105-2.166-.236-.851.26-.73-.481-.625-.415-1.001-.278-1.932-.725-2.97-.734-.913-.343-.928-1.914.25-1.744-1.073.87 2.412.478.482.677-1 .155 1.456.848-.1.662.71.373 1.193-.2.267-.412.546.258 2.03.111.876-.541-.2-.195-.642-.324-.64-.65zm2.003 2.716c.432-.47.18-.684 0 0zm8.017-1.305c-.686.47-.68.784-.111.131l.11-.131zm-11.477 2.918c.801-.045.77.114 0 0z" style="fill:#e6b56c;stroke-width:1" transform="translate(2790.89 -1992.74)"/><path d="M-2762.428 1995.137c-1.146.584.894.265-.074.155-.044-.153.292 0 .074-.155zm.889.223c-.335-.025.942.757-.293.403.57.26.934.648.743 0l-.45-.403zm-1.62.171c-.49.628-.245.316-.71.44-.93-.502.486.423-.753.115-2.27.032-4.395 2.266-3.933 4.565.41 1.056-.052.312 0 .96-.313.622.411-.47.714-.13.21 1.175-.024.168-.134.367-.056.48 1.003.946-.086.644-.308-.671-.327-1.045-.297-.094.586.922-.533-.516-.333-.22.187.41-1.67.449-.409.343 1.104-.182 1.742 1.538.77 2.148-.399.313-1.543.19-1.372.995.313.41.57.994.407.36-.743-.294-.206-1.11.394-1.017.68-.138.399-.108.894-.369.29-.686.667-.449.647.215 0 1.054.018 2.11-.052 3.162-.414-.426-.886-.62-1.464-.638 1 .366 1.645 1.272 2.71 1.465.621.892-.826 1.067.425.942-.043-.565-.658-1.779.425-1.582.613.016 1.74-.355 1.778.571-.205.092-.79-.657-1.542-.345-.742-.319-.844.37-.365.722.573.083 1.06-.309 1.706.01.763.116.67-.122.82-.261-.328-.24-.865-.752.01-.582.63.239.787 1.046.946 1.638-.432.058 1.579.413.597.113-.561.112-.972-1.261-.674-1.355.573-.212 1.1-.54 1.464-.844.523-.383 1.155.129 1.243.513-.045-.295-.292-1.593-.328-1.296.053.142-1.373.51-1.394.213-.24-.657-.33-1.725-.338-2.556.834-.366.514-.095 1.017.45.125-.037-.59-1.439-1.04-.633-.714.689-1.59 1.14-2.672 1.06-1.33.18-2.508-.576-3.292-1.584.232-.62 1.427 1.35.838.37-.827-.758-.877-2.024-.763-3.041.774-.396 1.936-.17 2.689-.687.554-.16 1.149-.844 1.573-1.387-.445 1.235-1.775 1.654-2.87 2.04.583-.018 1.116-.228 1.654-.422-.434.399-1.608.482-1.71.632.754.17 1.663-.161 2.185-.44 1.118-.573 1.229-1.895 1.376-3.022.285.44-.183 1.424-.067 2.052-.02.951 1.125 1.237 1.227 2.112.269-.082.441-1.046 1.1-.689.872-.822-.25.208.279-.751.268-1.313-.276-2.67-1.182-3.618 1.12.456.342.57.416-.299-.206-.94.068-.196-.306.12-.412-.68-.467-.887-.345.041-.481-.651-1.435-.754-2.108-.967-.061-.132.54-.59.234-.548zm-.687.772c1.695.178 3.444 1.197 3.78 2.983.212.693.115 1.46-.12 2.136-.492-.138.033-1.152-.098-1.633-.235-1.55-1.514-2.794-3.058-3.013-1.306-.216-3.009.112-3.949 1.252-.832.828-1.08 2.225-.596 3.312-.713-.135-.5-1.233-.51-1.8.405-2.088 2.52-3.323 4.551-3.237zm-15.27.747c-1.131.042-2.307.337-3.01 1.291-.814.346-.096.181-.529.766-.17.135-.866.263-.802.889.072 1.104.134.43.326-.244.41-.505-.275.66-.032.995-.033 1.12.168 2.345.827 3.218-.202.495.143-.275.743.037.087.367.308 1.47.423.635-.298-.839.836-.274.66-1.09 1.123.132-.404-.632-.342-1.203-.238-.63-.176-1.424.024-.35.14.574.658 1.258 1.241 1.252-.775-.343-.927-1.292-1.039-2.052.124.96.962 1.985 1.93 1.872-.827-.38-1.522-1.128-1.878-1.995.41.527.76 1.13 1.404 1.46.547.259 1.38.262 1.817.084-1.326.033-2.212-1.024-2.804-2.08.1.1.867.972 1.29 1.327.7.405 1.655.617 2.371.154-1.012.153-1.875-.272-2.503-1.067.565.359 1.23.948 2.021.785.75-.154 1.328-.425 1.397.615.327 1.219.39 2.863-.901 3.532-1.41.86-3.468.591-4.438-.736-.595.612-1.369-.348-1.48-.761-.173.507.593 1.039 1.068 1.177.694-.368 1.085.602 1.668.728.5.25 1.042.448 1.666.263.964-.064 1.948-.386 2.386-1.331.785-.844.087-1.935.288-2.92.512-.312.534-.987.113-.214-.474.527-.606-.942-.32-1.047.963.187.198.11-.026-.56-.153-1.364-1.052-2.627-2.382-3.054-.378-.164-.787-.246-1.178-.376zm14.064.322c-.442.42-1.193.715-1.665 1.223-.578.43-.96.856-1.09 1.55-.078-1.064.866-1.756 1.723-2.182.035-.31-.129.051-.66.141-.644.274.632-.52.946-.593.244-.06.499-.09.746-.139zm-.974.393c.04 0-.051-.041 0 0zm.01-.01c.534.053 1.2-.622 0 0zm-13.434-.02c1.26.033 2.524.69 3.171 1.75-.91-.935-2.168-1.673-3.54-1.524-.73.076-1.46.352-2.01.857.552-.775 1.476-1.01 2.379-1.083zm17.634.146c.31.222 1.078 1.39.268.319-.297-.053.677.902.6 1.216-.283-.427-.9-1.065-.868-1.535zm-1.7.258c-.177.629-.847 1.09-1.23 1.409-.1.138-.614.183-1.342.461-.994.32.729-.544 1.098-.704.616-.21.992-.761 1.473-1.166zm-16.453.18c1.057.023 2.242.533 2.854 1.303-.848-.618-1.798-1.13-2.854-1.303zm15.193.012c-.8.565-1.976.861-2.618 1.67.356-1.076 1.56-1.56 2.618-1.67zm14.633.034c-.085.059 1.06.233 1.514.616.904.537-.274.222-.273.728-.24.414 1.03 1.143.585.685 1.122-.38.305-.082-.102-.13-.517-.188-.279-1.138.445-.636.464.355.476.885.898 1.297.192.53.661 1.774.053 1.94-.517-.32-1.294-1.527-.533-.367.657.396 1.065.8.52 1.554-.906.379-1.46-.855-1.553-1.628.075-.099-.061-1.332-.147-.525-.191.706.271 1.716.849 2.278-.386.703.093-.043.404.077.855.066-.113 1.693-.628 1.074-.538.686-1.338 1.303-2.298 1.319-1.041.129-2.134-.152-2.733-1.077-.81-.783-.44-1.992-.502-2.99 1.177.254.01.132-.088-.502-.462-.84.047-.907-.44-.182-.085-.12.605.772.415.88-.362 1.025.275 2.15-.044 3.173-.277.487-.277 1.27-.567 1.85.164.216-.53.968.165.125.253-.89.248 1.038.974.52.387-.384 1.127-1.088.666-.267-.123.523-.56 1.445.32 1.363.548-.45.171-1.767 1.097-1.784.249.452.5 1.557 1.181 1.144.472-.697.32-1.898 1.36-2.005.238.129-.59 1.034-.532 1.538-.15.765-.014 1.585.19 2.335-.554.059-1.463.648-1.8.052-.606-.178-1.594-.302-1.771.544-.892.024-1.797.271-2.595-.272-.849-.275-.041-1.36-.09-1.997.143-.6 0-2-.124-.69-.153.787-.582 1.436-1.11.51-.228-.412-1.435-.364-.787-.276.528.252 1.525.733 1.127 1.417-.018-.571-.848-1.266-1.389-1.207-.268.016.942.23 1.204.712.405.761-1.14.99-.601 1 .946.11 1.746.854 2.722.984-.274.346-.18.975.227 1.155-1.077.043-2.202-.17-3.18-.498.543.118.907.684 1.183.413 1.104.286 2.262.067 3.347.495.45.696 1.638-.496 1.528.372.05 1.22 0 .175.174-.445.478-.568.112-.071.839-.48-.233.21-.655-.237-.409-1.115-.076-.456 1.27-.25 1.743-.59.546-.154 1.704-.577 1.199-.472-1.412.322-.182-.594.531-.235.427.798.431-.058-.116-.2-.671-.186-1.408.676-1.447-.276-.187-.952-.414-2.155.407-2.877.662.125.808 1.088 1.092 1.64-.03.452.2.787.672.551.238-1.178-.779-2.21-.685-3.412-.04-.494.17-1.733.31-1.74-.172 1.319.255 2.65.82 3.86.25.347.333 2.169.37 1.493.09-1.611-1.305-2.894-1.025-4.535.123-1.298.217-2.617-.304-3.853.57-.154.478.532.398-.484.34-.192-.488-1.53-.025-.374.11.428-.59.883-.843.238-.155-.888 1.049-1.047 1.116-.626-.281-.481-.96-.547-1.372-.958-.646.223-.363 1.06-1.036.177-.435-.294-.974-.387-1.495-.404zm2.327.361c.716-.237.836.777.472 1.014-.568.026-1.003-.628-.472-1.014zm-13.882.207c.176.282 1.318 1.955.628 1.131-.215-.33-.647-.783-.628-1.131zm.01.33c.016.33.79 1.15.621 1.187-.846-.894-.103.423.027.552-.453-.249-1.128-1.834-.472-.925.447.057-.663-.713-.177-.814zm-18.141.025c1.167.528 2.203 1.429 3.514 1.556-1.326.23-2.563-.95-3.549-1.518zm17.738.023c0 .34.877 1.818.302.933-.225-.278-.26-.592-.302-.933zm-1.547.02c-.493.57-1.541 1.132-2.239.99.814-.109 1.62-.52 2.24-.99zm-18.749.014c.774-.279.872.86.174.956-.524-.064-.618-.667-.174-.956zm33.22.334c-1.62.074-3.551.499-4.376 2.048.18-.01.745-1.009 1.303-1.132.937-.581 2.069-.672 3.072-.916zm-.774.842c-1.054.337-2.139.696-3.084 1.243 1.072-.432 2.14-.878 3.238-1.243h-.077zm1.944.383c.303.316 1.242 1.768.55.634-.157-.24-.295-.486-.55-.634zm-1.275.19c-1.144.628-2.394 1.082-3.67 1.287.504.088 1.505-.207 2.17-.415.512-.26 1.086-.498 1.5-.871zm-13.594.383c-1.433.074.868.324.234.102l-.12-.052zm-19.198.176c.171.511.252 1.133.454 1.6-.328-.362-.439-1.055-.454-1.6zm.684 0c-.034.285.671 1.818.297 1.174-.226-.369-.275-.748-.297-1.174zm32.07.231c-.979.83-2.297.83-3.51.884-.062.014.762 0 1.62-.016.675-.026 1.452-.333 1.89-.868zm.332.19c-.836 1.196-2.654.902-3.73.82 1.101.374 2.51.372 3.471-.358l.26-.462zm-16.947.011c-1.096.507-.268 0 .381.295.27-.045-.347-.226-.38-.295zm2.82.021c-1.014.4 1.661.231.32 0h-.32zm-11.887.399c.117.344.06 2.018.205.872-.099-.227.101-.896-.205-.872zm28.915.254c-.01.748.01 2.07.041.593l-.04-.593zm-21.863.022c.602-.117.684 1.306.34.886-.01-.33-.231-.597-.34-.886zm6.754 0c-.224 1.167-1.099 2.107-2.266 2.369-.854.185-1.614.175-.338.196.824-.211 1.62-.559 2.193-1.17.238-.449.547-.685 1-.707-.42-.086-.582-.318.135-.323.696-.633-.44.425-.649-.301zm-1.442.051c-.42-.176-.242.867-.423.347 0-.747-.833.21-.171.315.515.222 1.33-.25.594-.662zm-3.165.012c-.153.843-.13-.11-.47.192-.439.605 1.205.744.87-.023-.121-.13-.196-.218-.4-.168zm-11.005.06c-1.008.475.56-.02.611.126-.162-.115-.394-.134-.61-.127zm22.327.233c.524.21-.252 1.238-.069 1.362.195-.446.534-1.708.561-.5.042-.54.161-.748-.492-.862zm-22.017.466c.021.721-.13.168-.38.113-.589.432.666 1.025.828.307.178-.253-.212-.478-.448-.42zm-2.86.156c-1.11.593.855.029.207 0h-.103zm4.537.306c.027.25-.578 1.207-.372 1.337-.193.769-.767 1.7-1.53 1.881-.55-.674.561-.658.848-1.09.65-.688.507-.856 0-.108-.326.308-.82.5-1.174.717.453.388-.228.917-.335.289.337-.368-.83.129-1.225.035-.92-.108-1.816-.493-2.442-1.191-.717-.238.095.766-.145 1.31-.017.783-.522 1.061-1.207.682-.45-.02-1.204-.698-1.476-.337-.316.921-.298.466.419.625.307.132 1.833.62 1.3.303-.44-.315-1.952-.258-1.616-.906.683.177 1.422.423 2.107.663-.217.763-.544.802-.611.53-.567.069-1.008-.086-.076.292 1.297.566 2.825 1.224 4.184.58.573.093 1.63.512 1.52 1.07-.616.067-1.17-.3-1.81-.24.248.111 1.621.397.944.508-.78-.053-1.396-.021-.282.075 1.267.067-.33.242-.749.24-.923.129-.079 1.084.158 1.532.61.808 1.114.821.183.075-.188-.37-.926-1.195-.248-1.333 1.365-.125 2.722-.378 4.092-.413.062.536 1.175 1.553.47 1.782-1.019.117-2.046.172-3.059.337 1.134.023 2.258-.29 3.396-.253.293-.47-.774-1.286.185-1.29.362-.472.967 1.185.291 1.05.842.305-.247-1.122.32-1.4.671-.496-.825.28-1.057.394-.127-.3-.526-1.047-.86-.8-.642.05-1.101.133-1.85.208-1.138.17-.106-.594.504-.523 1.443-.282 2.891-1.058 3.73-2.285.207-.42-.617.464-.294-.484 1.124-.272.494-.599-.253-.05-.034-.544 1.039-.85 1.547-1.098.055-.415-.918.282-1.219.371-.545.666-.908-.06-1.188-.558-.407-.53-.738-1.312-1.129-1.734.278.657.533 1.34.883 1.81.368.804.514 1.691.76 2.538-.842.595-1.798 1.334-2.849 1.308-.2-1-.497-1.986-.61-3.004 1.007-.59 1.565-1.615 1.771-2.733.124-.234.105-.46.054-.712zm22.217.063c-.617.056-.48.943.143.798.391-.23.249-.703-.143-.798zm6.443.276c-.163 1.653.991 3.108.816 4.742.396-1.403-.689-2.687-.748-4.121-.034-.206-.043-.415-.068-.62zm-21.121.03c.67.318.438 1.205.33 1.759-.323.017-.142-1.251-.364-1.72 0-.016.037-.022.034-.04zm-11.769.065c-.039.387.109.86-.223.133-.429.437.277 1.086.655.582.341-.19-.096-.869-.432-.715zm12.785.221c.4.44 1.056.59 1.654.533a5.101 5.101 0 0 1-1.654-.533zm16.108.054c-.78.56.523 1.336.603.48.095-.366-.287-.575-.603-.48zm-32.604.216c-.04.565 1.524 1.214 1.005.814-.578.032-.598-.672-1.005-.814zm21.09 0c.324.451.046 1.422.279 2.059.302 1.038-.462.397-.454-.271-.046-.587-.598-1.292.096-1.658.2.808.091.592.078-.13zm-4.958.021c.788-.068 1.013 1.643 1.035.926.09-.788.937.34 1.371.224.598.082.904-.754 1.57-.482.581-.452.425 1.093.63 1.479.046.518.754 1.455-.186 1.475-.327-.528-1.11-.314-1.476-.758-.73.097-1.583-.173-2.254.102-.315.279.037 1.07-.6.54-.688-.357-.176-1.43-.19-2.099.077-.48.101-.911.1-1.407zm11.778.106c-.38.98-.725 2.231-.01 3.19.06-.23-.404-1.023-.274-1.54-.085-.558.331-1.142.279-1.65zm.135 3.143c0 .011 0-.01 0 0zm0 0c.035-.458.103-2.034-.085-.754l.085.753zm7.363-2.925c.195.984.557 2.177.767 3.25-.311.625-.324-.752-.63-.989-.24-.598-.69-1.13-1.25-1.416.259-.845.613-.36 1.113-.845zm-5.923.208c.457.784 1.271 1.342 2.211 1.234.665-.021 1.578-.011 2.173-.49.859-.047.755.562.04.599-.66.251-1.451.382-2.056.287-1.097.216-2.059-.327-2.715-1.121-.048-.264.053-.472.346-.509zm-9.993.398c-.443.63-1.324.754-1.784.074-.309.89-1.564-.448-1.024.318.47.29 1.147-.292 1.48.142.664.59 1.272-.673 1.708-.025 1.028.264.113-.127-.35-.487zm-17.978.085c.55.13.153 1.55.1.327l-.1-.327zm27.487.067c.515.35.897.897 1.173 1.377-.422-.822.447-.087 1.024-.193.684-.08.047.524-.53.665-.336-.649-.485-.349-1.044.043-.67.862-.801-.431-.838-.955-.013-.33.125-.628.215-.938zm-26.945.254c.723.596 1.691.904 2.532 1.29 1.041-.264.971.783 1.203 1.5.095.412.615 1.7-.016.809-.487-.395-1.291-.543-1.95-.082-.689.02-1.417-.132-2.08-.366.117-1.048.237-2.1.311-3.15zm11.629.692c-.3.352-.408 2.204-.27 1.383-.125-.625.439-.892.27-1.383zm-8.418.07c.57.725-.497.477-.912.33-1.23-.44.621-.156.912-.33zm27.956.084a4.955 4.955 0 0 1-.648 1.656c-.677-.843-.064.182-.514-.484-.112-.597-.144-.077-.336-.859.415-.284 1.02-.194 1.498-.313zm-10.61.139c.581-.042.88.861.26.335-.398-.262-1.656.692-.904-.123.195-.108.434-.136.644-.212zm-16.785.143c.39.56.368 1.476.608 2.166.467.818-.079 1.494-.278.35-.215-.778-.394-1.564-.578-2.348.092-.037.144-.157.248-.168zm24.552.39c.646.263.516.312.283 1.075-.33 1.068-.91-.038-.396-.669.033-.137.07-.272.113-.406zm6.406 1.11c-1.052.803.032-.15-.097.515.106.438.11-.405.097-.515zm-23.1.204c.399.033.92 1.25.712.533.338.107 1.633.366 1.71.118-.71 0-1.729-.191-2.423-.65zm3.88.09c-1.1.123.09.28.579.253.35.09 1.928.432 1.476.199-.666-.218-1.366-.347-2.055-.452zm-.418.365c.086.282 1.906.11 1.006.097l-1.006-.097zm-12.368.528c.537.29 1.803.696.59.16-.178-.112-.39-.113-.59-.16zm25.874.822c.635-.045 1.49-.107 1.57.731.136 1.012-1.154 1.847-1.965 1.263-.706-.126-1.906-.2-1.672-1.22.804-.652.871.243 1.657.273.887.191.58-.132-.107-.246-1.076-.3.015-.392.51-.182.425.215 1.281-.291.453-.358-.238-.039-.563.145-.446-.261zm-20.545.471c-.11.403.401 1.742.116.526l-.116-.526zm-3.374.288c.676.618-.672.916-.801.352-.279.407 1.465.594 1.136.057-.108-.129-.106-.472-.335-.409zm22.792.414c-.042.314 1.79.443.608.192l-.608-.192zm-3.062.68c-.443.498.028 1.57-.153 1.034-.01-.333.301-.761.153-1.034zm-24.513.413c-.602-.088-1.457.384-1.713.566.588-.09 1.347-.556 2.06-.286 1.361.18 2.573 1.327 2.914 2.595-.695-1.123-1.882-2.406-3.398-2.294-.517-.356-1.516.59-1.62.139-.224-.344-.22-.506-.756-.509.067-.233-1.055.728-.584.326.398-.649 1.687.077.966.651-.23.986-1.433-.548-.962.14.26.224-.094.76-.314 1.309-.275.82-.148 1.746.108 2.559-.653.257-.358.37.255.222.277.296.086 1.279.46.532.982.032 1.91-.942 1.382-1.898.22.328 1.08.979 1.782.812.998.148 2.54-.352 2.422-1.58.418.69.51 1.504.178 2.248.229.55.2-1.008.6-.432.176.383.185-.199-.01-.338.383.189-.047-.864-.03-1.327-.322-1.85-1.912-3.261-3.742-3.435zm31.28.39c-.775.154-1.683.563-2.138 1.1.356-.143.095.245.655-.216 1.417-.832 3.433-.833 4.735.17.356.244.582 1.365.442 1.343-.918-.736-.01-.064.21.451.487 1.007-.72-.344-.07.38.657.722-.356.352-.667.309.461.013 1.434.912.543.592-1.2-.16-2.74-.373-3.536-1.154.758 1.021 2.29 1 3.376 1.315-.711.11-1.713-.11-2.506-.282-.72-.047-1.735-.554-1.708-1.32.041.515 1.45 1.403.52.624-.472-.378-.683-1.462-.79-.266-.126.691-.895 1.028-1.416 1.482.43-.287 1.016-.547 1.284-.928-.63.87.01.384.187-.234.079-.974.375.501.948.496 1.063.506 2.311.548 3.48.562-.14 1.278.27-.543.885.107.473.375-.175 1.676-.685 1.187-.108 1.634-2.02 2.535-3.508 2.265-1.203-.05-1.697-1.293-2.12-2.236-.344-.362-.605-1.262-.754-1.43-.18.89.802 1.618.981 2.481.352.656-.84.83-.88 1.303-.173.885-.907.488-.853-.233.017-.74 1.267-.798.909-1.638-.123-1.044-.408-1.076-.071-.022.193.874-1.254 1.07-.927 2.003.281.262.792 1.116.038.65-.9-.743.49.302.12.517-.844-.442.419.146-.302.478-.093.663-.471.775-.506 1.2.15-.282.633-.757 1.131-.162.22-.058-1.329-.632-.298-1.29.408-.734.856-1.778 1.556-1.966.013.737-.466 1.575.133.41.801.071-.339-.206.053-.66.752-.03 1.281 1.046 2.141.737.967 0 2.01-.249 2.668-.97.685-.23 1.321.027.316.334-.791.572-1.716 1.312-2.765 1.1-.645-.025.81.233.98.68.753.439 1.408-.76 1.378-1.32.413.182.478 1.34.901 1.846.316.717.907 1.267 1.578 1.655-1.163-.053-2.305-.419-3.423-.631-.852.503-1.217-1.13-2.063-.942-.442-.323-.922-.417-1.521-.275-.595-.116-1.402.038-1.227.792.21.389 1.03 1.695.522 1.557-.383.083-1.933-.531-1.04-.114.529.398-.63.838-1.04.727-1.036.265-1.848.355-2.618 1.028-.757.61-1.621 1.42-1.641 2.419.236 1 .15-.459.466-.784.154-.705 1.296-.89.435-.102-.582.948-.463 2.22.047 3.181.745-.427.986.597 1.056.918-.106.396.655.352-.074.998.602-.44.861.644.44-.422-.154-.68-.247-1.47-.814-1.901.439-.89.526-1.71 1.3-2.345-.01.553 2.009.529.735.574-.652-.217-1.384-.277-.407.263.405.403 2.007-.373 1.643 0-.73.198-1.735.266-.43.24.437.116 1.595-.958 1.05-.399-.779.77-2.092.62-2.936.038.528.954 2.028.838 2.886.29.51-.35.777-.873.921-1.456.292.795.811 1.647 1.587 2.145.5.837.322.4.693-.218.433-.332 1.127.174.958.817-.306 1.173.5-1.006-.425-.96-.97-.196.865.143.463-.505.145-.426.31-1.55-.25-1.902-.398.167.322 1.292.126 1.882-.31.745-.339-.987-.55-1.32-.367-1.636-2.05-2.531-3.534-2.828.895-.368 1.87.302 2.572.814.61.604.482.833.936.771-.134.553-.146.61.316.326.804.253-.055-.407-.274-.66-.569-.807-1.607-1.065-2.35-1.635-.455-.84-.373-1.132.394-.773.367-.034.958.096 1.196.118-.316-.246-2.169-.292-.924-.535.478-.084 1.402.332 1.601-.194-.822-.58.095-.666.489-.06.46.202.873.946.774.88.338-.686.034.873-.36.666-.848.156-2.024-.477-2.628-.306.715.273 1.802.068 2.278.836.359.102.891-.326 1.311-.048 1.073.311 2.127.836 3.266.813-.88-.21-1.954-.274-2.632-.834.401-.22-.055-1.347.581-1.183.835.17 1.68.376 2.534.373-.48-.131-1.337-1.001-.374-1.116.858-.122 1.191-.379.113-.167-.79.595-.947-.395-1.156-.972-.246-.378-.468-2.072-.456-1.64-.133.371.553 2.152.152 1.315-.203-.428-.688-1.443-.127-1.651.49-.316 1.008.623 1.436.97.395.685.592 1.338 1.14 1.928-.509-.688-.488-.795.303-.66.552-.261.62-.25-.32-.07-.823-.37-.971-1.49-1.695-2.027-.302-1.224.206.505-.581-.428-.233-.404.097-2.037.272-1.58.064 1.096.084 1.111.05-.024.032-1.083-.125-2.166-.512-3.169.751-.01 1.53.402 1.785 1.137-.15-.75-.968-1.147-1.671-1.279.371-.201.087-1.166 0-.313-.548.562-.984-.43-.636-.632.657-.426.124-.095-.156-.43-.739.032-1.295-.622-2.042-.723-.508-.117-1.072-.013-1.595-.049zm.535 13.46c0 .029.049-.021 0 0zm-32.914-12.273c-.566.486-1.046 1.046-1.497 1.635.23-.754.772-1.282 1.497-1.635zm31.808.05c-.176.606-1.233 1.004-.07.387.393.26.121-.24.07-.387zm-.787.704c-.64.385.052.658 0 0zm-.325.295c-.01 0-.01.02 0 0zm-.01.01c-.342.25-1.318 1.661-.51.717.205-.22.441-.409.51-.717zm-31.896-.992c-.167.245-.902 1.675-.649.987.175-.357.306-.755.649-.987zm33.536.297c.589.55 1.664.689.4.176-.14-.088-.201-.237-.4-.176zm5.4 1.72c.508.632.263 1.727 1.21 1.99.776.384.839 1.411.162 1.928.044.017.743-.434.605-1.01-.154-.829-1.191-1.183-1.054-2.136-.18-.896-.037.866.24 1.1-.888-.263-.523-1.4-1.162-1.873zm-32.776 1.724c-.127.965-.952.263-.948 1.197-.398.974-1.357 1.634-2.427 1.48-1.138.15-2.339-.425-2.799-1.505-.497.211-1.012.21-.15.174.646.75 1.438 1.697 2.563 1.475 1.057.1 2.201-.164 2.73-1.17.347-.37.16-1.058.809-1.028.099-.082.548-.633.222-.623zm-7.113.268c.118.963.583.205 0 0zm5.177.075c-.532.116-.516 1.01.1.83.276-.227.285-.763-.1-.83zm28.454.072c-1.144.768.843-.114.05 0zm3.075.168c-.715.16-.172 1.37.336.77.383-.226.055-.817-.336-.77zm2.033.247c.213.229.21 1.641-.525 1.11-.01-.34.23-.845.525-1.11zm-35.995.051c-.53.068-.452.997.136.774.454-.019.266-.745-.136-.774zm31.505.212c-.505.367.192 1.254.604.672.083-.361-.217-.764-.604-.672zm-3.05.068c-.806.667-1.207 1.89-.534 2.785.453.535-.48-.812-.184-1.109-.155-.709.457-1.135.718-1.676zm-30.523.657c.364.503.58 1.172.35 1.845 0 .326-.558 1.386-.383.497.033-.412-.422-1.51-.255-.573.227.373-.104 1.627-.377 1.243-.31-.583-1.103-1.288-1.764-1.059-.38.583-.446.793.235.501.564.227 1.097.594 1.232 1.225-.521-.079-1.812.017-.678.17.894-.02 1.787-.04 2.68-.062-.085.486.147 1.047.37 1.36-1.139.38-2.351.43-3.517.612 1.65.022 3.272-.308 4.81-.894.78-.417 1.27.565 1.144.504-.087-.745.737-.544.938-1.103.779-.015.468.14.101-.435.74.332.325.424.606-.193.579-.353-.015-.264.358-.87-.085-.604.367-1.23.293-1.783-.229.324-.497 2.198-.414.958-.064-.355.192-1.282-.067-1.285-.336.583.112 1.788-.915 1.513-.676-.05-1.353-.013-1.516.782.22.502 1.598-.04 1.85.401-.236.467-1.198-.094-1.602.269.12.154.942.056 1.336.22-.01.559-2.07.025-1.393.32.406-.02 2.036-.042.832.212-1.187.125-.912.146.153.145-.1.302-1.148.099-1.59.164-.702-.607-.392-.702-.436.105-.593.386-1.037.01-1.025-.651-.027-.749 1.164-.642 1.537-1.054-.083-.312-1.214.585-1.74.55-.463-.088-1.84.41-1.748-.113a3.408 3.408 0 0 0 1.32-2.726c.705.659 1.436 1.586 2.545 1.322 1.123-.254 1.705-1.283 2.577-1.93.438-.323 1.374 1.334.824.414-.498-.881-1.156-.397-1.656.193-.022.147-.867.503-.73.55.647-.251-.598.579-.887.626-.802.248-1.598-.167-2.118-.772.69.267.81.122.024-.122-.49-.299-.919-.71-1.183-.96-.026-.253-.088.055-.121-.116zm39.413.216c.057 1.145.352 1.09 0 0zm2.101.233c-.65-.282-1.089.515-.677.825-.196-.547.646-1.073 1.022-.459-.063-.1-.391-.29-.345-.366zm-3.881.285c.058.52.141 1.26.413 1.826.25.635.713 1.161 1.091 1.689-.895-.783-1.542-2.015-1.722-3.21-.05-.197.034-.268.218-.305zm-.686.474c.04.448-.478 1.312-1.082 1.248-1.201-.547 0-.535.566-.988l.516-.26zm-34.913.132c-.085 0 .871.462 1.253.205 1.1-.269.716-.19-.199-.13-.354.046-.703-.04-1.054-.076zm39.213.084c.128.55-1.084-.094-.247.344.183.128.674-.419.247-.344zm-1.303.235c.388.55.496.977 1.177.808.81-.45.98-.906.09-.153-.644.145-.876-.213-1.266-.655zm-42.337.385c.782-.081 1.97.841 1.558 1.581-.231-.782-.94-1.243-1.717-1.39l.079-.095zm6.63.275c.497.018 1.587-.211 1.32.609.144-.21-.715-.504-1.425-.346-.501.263-.797.12-.162-.215l.267-.048zm3.515.28c-.568-.078-1.77.343-1.804.514a9.659 9.659 0 0 1 1.804-.514zm23.91.41c.651.134 1.566-.263 2.05.214.434.832-.277-.354-.706.01-.305.155-1.72-.222-1.214.347.593.697-.76-.03-.292-.468l.08-.05zm-23.873.036c-1.005.067-.84.001-1.606.142-.787.117.711.242.528.558.272-.085.04.924-.255 1.064.589-.073.755-1.32-.044-1.49-.113-.43 1.326.111 1.214-.154l.06-.043zm-6.63.65c.02.115.525 1.788.11 1.046-.07-.322-.266-.726-.11-1.045zm34.811.485c.995-.217 1.19.606.733 1.328-.576.199-1.239-.282-.962-.979l.23-.349zm-3.59.296c.208.204 1.773.213.798.058-.266-.02-.532-.04-.798-.058zm-23.54.397c.348.932.097.839-.353.131.194.167.653 1.44-.055.87-.242-.394-.336-1.236-.279-.335-.165.396-1.275-.133-1.742.18-1.567.21-2.945 1.42-3.28 2.976-.145.218-.113 1.083-.053 1.605-.603-.264-.352-1.294-.265-1.853.487-.597-.085-1.141-.5-.465-.19.232-.465 1.252.1 1.618.42.143-.111.139.337.563-.897.324-.41 2.092.55 1.697.048.234.521 1.248.884 1.778.832 1.24 2.556 1.24 3.864.918 1.21-.469.475-.231-.337-.01-1.905.493-4.098-.844-4.288-2.86-.683.332-1.162-.392-.975-1.02.156-.629 1.006-.414.962.236.276.37.558-1.016 1.138-1.175 1.34.375 3.022.559 4.15-.49.81-.895-.024.423-.524.5-1.008.54-2.156.456-3.255.392 1.342.242 2.952.978 4.185.093.57-.526.72-1.483.474-.24-.217.504-.109 1.197.405 1.476.077.419-.622 1.397-.36 1.373.053-.583 1.05-.912.83-.085-.175.53.347-.525.799-.683.41-1.012-.443.99-.815.115.01-.782.56-1.548.38-2.39-.041-1.869-1.705-3.761-3.69-3.493-1.665-.19-3.136 1.099-3.762 2.54.424-1.87 2.365-3.15 4.258-2.888 2.394.128 3.907 2.822 3.344 5.027-.085 1.001.43-.757.26-1.186-.06-1.431-.891-2.85-2.064-3.552.331-.12.981.397.313-.12-.517-.04-.088-1.024-.637-1.243zm26.528.33c.26.713-1.195.187-.242.038l.13-.02zm-5.615.143c-.593.17-.996.162-1.646.305-.106.492 1.206-.434 1.728-.06.01-.088-.071-.16-.082-.245zm1.006.35c1.52.083 3.011 1.164 3.493 2.632-.074.629-.493-1.019-.968-1.147-.701-.742-1.782-1.089-2.691-1.272-.015-.11.136-.113.166-.214zm-.98.684c.627.194-1.108.267-1.365.666-1 .818-2.117 1.85-1.955 3.165.118.472.323 1.864-.086.719-.58-1.695.72-3.362 2.133-4.147.375-.266.843-.28 1.273-.403zm-23.714.422c-.297.138-1.696 1.301-1.073.698.268-.35.661-.56 1.073-.698zm13.755.037c-1.057-.026-2.435.14-3.212.496-.344-.01-.715.9-.057.369 1.78-.991 4.23-.945 5.84.36.186.458 1.176.77.466.268-.36-.583-.258-.204-.433-.775-.886-.386-1.662-.693-2.604-.718zm-13.6.076c-.221.436-1.375 1.074-1.314 1.217.672-.301 1.339-.9 1.98-1.087-.878.813-1.98 1.266-2.966 1.914-.585 1.121-.307.065.194-.362.635-.636 1.22-1.427 2.106-1.682zm23.078.15c-.255.424-1.687.91-.454.23l.454-.23zm-10.117.268c-1.745.066-3.83.957-4.095 2.895-.283.299.286 1.7-.13.945.365.602.264.932-.092 1.458-.043.64.55 1.186 1.204 1.022.22.527.312 1.249.912 1.464.161.74-.269.774-.68.25.374.475 1.063.815.318 1.409-.602.92-.947 2.036-1.287 3.036-.248-.508-.092.613.405-.122.307-1.037.497-2.243 1.27-3.045-.113.677.53 1.689-.289 1.99-.585.95-.52.347-.147.998.12.698 1.16.604.268 1.086-.744.634-1.449 1.451-2.47 1.582.852-.498.63.585.95.044.271-.619.97-.88 1.451-1.317-.396.468-.29 1.151-.521 1.7.667-.414.188-1.627.924-2.117.98-.677 2.178.073 3.07.592.638.032.945-.812.947-1.318.762.587 1.611 1.05 2.536 1.318-.74-.534-.403-.574-.985-.596.02-.608-.257-1.69-.333-1.994-.054.673.298 1.353.256 2.04-.605-.14-.352-1.146-.649-1.607-.277-.448-.128-1.927-.324-1.808-.246 1.015.2 2.08.326 3.053-.298-.302-1.154-.34-1.2-.879.228-.725-.678-1.048-.382-1.78-.226-1 .426-.403.852-.585.403-.418.477-1.048.539-1.595.737-.032-.151-.3-.253.051.03.39-1.549 1.129-.474.66.723-.923.554.061.228.625-.422.624-1.139-.192-.779-.468-.207-.581.739-.72 1.034-1.147.263-.486.616-.957.77-1.62.853-.02.804-.257-.013-.138-.403-.041-.296 1.016-.642 1.322-.267.232-1.048 1.301-1.16.762-.511-.732-1.538-.218-2.304-.353-.656.028-1.421.182-1.638-.625-.316-.41-.18-1.626-.758-.97-.79.069-1.175-1.445-.293-1.477.535-.222.617 1.542.65.511-.358-.887.644-.937 1.085-1.454.698-.704.504-1.8.916-2.644-.207 1.11-.218 2.496.956 3.06.51.353 1.523.45 2.3.33-.985-.416.246-.163.461.19.043.637.19.759.504.118.458-.514 1.048-.056 1.025.495-.218 1.187.452-.361-.095-.525-.538-.407.382-.79.294-1.329.178-.798-.267-1.588-.76-2.194.521.81.936 1.99.376 2.9.251-1.595-.611-3.213-2.107-3.779-.615-.315-1.289-.384-1.967-.42zm11.103.13c-.03.588-1.802.766-1.15.57.41-.138.814-.29 1.15-.57zm2.142.024c.555.253 1.076.987 1.248 1.559-.349-.43-.763-1.122-1.248-1.56zm-12.547.114c1.605.248 3.203 1.456 3.24 3.184.32.52-.444 1.758-.328.614.243-1.707-1.188-3.217-2.834-3.43-1.507-.292-3.329.184-4.034 1.668-.554.685-.277 1.689-.284 2.403-.975-1.006-.261-2.7.67-3.505 1.006-.828 2.307-1.002 3.57-.934zm-17.047.145c.016.468-.338 1.04-.3 1.601-.512-.207-.156-1.48.3-1.601zm24.878.36c.102.137-.154.91-.525 1.436-.287.315.859-1.812.201-.754-.292.689-.851 1.58-.38.33.128-.412.43-.694.704-1.011zm-17.866.401c.23.673.252 1.422.18 2.121.01-.744-.151-1.436-.18-2.12zm22.408.082c.356.445.878 1.068 1.22 1.447-.506-.355-1-.848-1.22-1.447zm-13.124.137c.25.27 1.671.617 1.003.658-.443-.075-.723-.322-1.003-.658zm-.35.014c.878.66.47.715-.035.034zm1.411.258c.717.437.945.879.12.24-.06-.08-.148-.13-.12-.24zm.741.177c.478.24 1.072 1.592.405.518-.17-.152-.33-.291-.405-.518zm-3.956.069c-.23.541-1.241 1.508-.427.401.119-.154.29-.264.427-.401zm-12.16.308c.38.057 2.373-.066 1.568.134-.356.038-1.841.103-1.567-.134zm12.296.206c.073.178-1.086 1.463-.74.844.066-.546.347-.693.66-.781zm.29.074c-.027.622-1.121 1.403-.266.39l.265-.39zm3.333.19c.373.092 1.557 1.17.661.48-.093-.148-.85-.308-.661-.48zm-6.32.042c-.044.626.07 1.333.264 1.819-.423.394-.423 1.225.074 1.53-.44-.481-.278-1.224.23-1.586-.592-.17-.467-1.259-.568-1.763zm12.682.033c.026.506-.535 1.485-.146.384.05-.128.092-.258.146-.384zm-8.691.146c.294.562.841 1.051 1.476 1.309-.655-.109-1.255-.666-1.476-1.31zm16.666.034c.24.345-.132 1.84.17.902-.011-.319.07-.648-.17-.902zm-3.615.035c-.613.072 1.884.334.689 0h-.69zm-28.6.274c-.702.598.684 1.425.46.31-.056-.266-.189-.367-.46-.31zm.176.06c.682.883-.67.823-.15.049l.15-.048zm2.016.135c-1.141.591.07-.173.555.253.727.346-.493-.422-.555-.253zm23.496.208c-.733.135-1.058.677-.146.181.18-.019.399-.024.146-.18zm3.24.078c-.575.448-.364.38.146.102.87.064.55-.153-.145-.102zm-8.084.535c-.608.508.776.475.402 1.307.05.932.203-.979-.258-.918-.08.17-.272-.253-.144-.389zm2.863.024c-.388.557-.12 1.457.367 1.854-.28-.582-.517-1.174-.367-1.854zm7.357 0c-.01 1.551-1.45 2.78-2.951 2.864-.55.099-1.454-.091-1.817-.09-.076.17.695.414.403 1.17-.14.456-.87.766-1.114 1.326-.494.722-.835 1.66-1.384 2.397.724-.46 1.066-1.44 1.821-1.815.563.693 1.63.248 1.647-.6-.089-.479-.312-1.875.582-1.09.477.38 1.136.82 1.744.718.072-1.191 1.1.094 1.218-.295-.158-.72 1.375-.86.544-.281-.414.949.084-.232.558.032.577.474 1.158 1.045 1.682 1.518.275-.145.726.237.121-.419-.561-.901-1.003-1.856-1.79-2.613-.585-.588-.45-.08.048.273.394.452.751.883.948 1.445-.586-.137-1.376-.7-1.47-1.219-.166-.534-.065-1.65.124-1.647-.603.165-1.165.476-1.553.936-.865.654-1.881.959-2.959.822-.523-.77.804-.39 1.235-.463.934-.243 1.699-.9 2.249-1.683.284-.667.086-1.223.89-1.232-.281.083-.514.094-.776-.054zm1.962 3.933c0-.01-.01.011 0 0zm-30.835-3.878c-.647.254-.315 1.278.39.964.455-.298.196-1.122-.39-.964zm23.83.057c-.869.437-.537.302.188.11.636.118-.076-.052-.188-.11zm-11.494.072c-2.126.363 1.06.243 0 0zm9.58.048c-.378.424.659 1.896.173.972-.174-.273-.098-.659-.174-.972zm5.348 0c-.59.143-.362 1.157.28.855.398-.214.198-.879-.28-.855zm-8.47.343c.254.693-.271 1.418-.956 1.505.04.1 1.15-.111 1.057-.758.048-.256.116-.547-.101-.747zm-8.264.01c-.44.173-.267.89.07 1.061-.4-.416-.072-.96-.042-1.033zm7.191.05c-.654.447-.14 1.035-.125.121 1.065.222-.822.957-.031.891.324-.167.718-.96.156-1.013zm-14.959.108c-.511.315-.476 1.181.245 1.042.363-.188.338-1.24-.245-1.042zm21.335.134c-.74.123-.12 1.394.447.868.325-.29-.027-.943-.447-.868zm-11.679.011c-1.06.466 1.022.156.371.011-.114-.028-.251 0-.37-.01zm-7.037.582c-.316.686-1.008.254-1.286.761-.591.735.11-.17.408-.058.382-.104.744-.305.878-.703zm10.19.102c-.671-.075-.63 1.14.078.903.413-.256.342-.788-.078-.903zm-18.65.05c-.48.067.125.95-.277 1.455-.439 1.044-.85 2.199-1.642 3.048-.82-.357.453.55.914.188 1.042.01.917-.033-.058-.048-1.235.165.064-.333.24-.868.8-.997 1.628-2.331 1.33-3.623-.05-.234-.337-.094-.508-.151zm15.681.02c-.575.308.084 1.312.526.712.295-.35-.09-.868-.526-.712zm-14.788.01c.755.361.267 1.348.622 1.975.128.694.803 1.357 1.515.925.345.604 1.158.521 1.487-.053.896-.917.16-.19-.347.195-.68.738-.885-.593-1.331-.186-.928.383-1.343-.915-1.376-1.628-.06-.51.157-1.281-.53-1.214zm-.707.075c.464.35.12 1.28-.028 1.813-.133.424-.943 1.54-.587.498.233-.757.38-1.514.43-2.284.062-.01.123-.017.185-.026zm1.327.161c.305.327.706.901.707 1.485.094.418.473 1.034 1.126.828.552 0 1.636-1.296 1.685-.214-.027.396-.021 1.288-.04 2.03.275.903-.79.169-.83 1.02-.238.613.311 1.328.966 1.313.068.492-.278 1.38-.23 1.604.265-.392.344-1.38.735-1.26.851.39 1.894 1.465 2.862.742.482-.696-.576.373-.955-.046-.352-.342-1.726-.387-1.179-1.052.249-.424.387-1.201.48-.79.787-.353-.172-.164-.732-.564-.62-.3-.08-1.193-.185-1.768.045-.608.038-1.66.3-1.91-1.44.437-3.135.162-4.188-.96l-.522-.458zm30.798.1c.358.49.141 1.264.27 1.866-.275-.627-.436.757-.659.744-.38-.499-1.092-.703-1.081.122-.437.26-1.133-.282-1.571-.521-.175-.479-1.302-.24-.786-.688.768-.128 1.39.116 2.036.475.761.275 1.034-.89 1.072-1.466.26-.417.576-.329.719-.531zm-30.04.703c.549.408 1.27.658 1.823.938-.4.61-1.468.69-1.633-.114-.046-.268-.29-.552-.19-.824zm.262 1.002c.001.01.01-.01 0 0zm28.848-.954c.053.73-.678 1.55-1.375.946-.444-.388.982-.504 1.256-.902zm-3.698.22c.797-.052.496 1.18.634 1.701-.874-.13-.505-1.062-.634-1.7zm-21.835.557c0 .65-.092 1.367-.186 2.028-.062-1.552-.274.614-.434-.08-.034-.602-.07-1.336.164-1.874.152-.025.304-.05.456-.073zm9.505.203c.945.079 2.01-.155 2.88.114.307.78.01 1.775.075 2.636.16 1.094-.39.795-1.044.312-.374-.239.586-1.054-.03-1.466-.56-.457-1.262.126-.78.735.661.558.745-.342.247.01.247-.305-.818-.353.091-.754.91-.152.383 1.629-.303 1.024.397.64 1.304.778 1.75 1.432.217.257.152-1.598.469-.388-.113.681.665 1.243.083 1.84-.527.664-1.257-.25-1.853-.428-.675-.492-2.034.27-2.299-.798-.257-.8.547-1.216 1.235-1.14 1.138-.045.729.769-.231.46-.34-.364-.549.208.4.08.394-.202 2.119.425 1.184.235-.258-.152-1.317 0-1.232.14-.938-.209 1.233.423.89.564-1.102-.233-.63.018.197.08.573.014-1.204-.62-.603-.724.398.05 1.556.87 1.243.084-.572-.689-1.406-1.19-2.325-1.013-.098-.957-.306-1.995-.143-2.924l.044-.054zm-15.838.064c.192.165-.097.081 0 0zm20.307.058c0 .037-.034 0 0 0zm13.206.049c.409.355.95 1.023.149.323-.115-.064-.083-.226-.15-.323zm-12.693.041c.377.29 1.233 1.43.507.388-.134-.2-.245-.379-.507-.388zm7.264.4c.131.531-.04.01.64.5.51.675-.578 1.771-1.15.954-.644-.314-.694.47-.19-.654.152-.352.297-.693.7-.8zm-25.832.932c-.205.387-1.827.775-1.241.793.502.215 1.131-.939 1.378-.288-.031.57-1.349.286-.252.454.696-.121.716.464.312.617-1.324-.037.852.164-.455.328-.85-.093 1.012.216-.509.354-.849.69-1.013-1.007-1.157-.963.19.684.728 1.505-.431 1.392-.843.112-1.312.225-.204.117.925-.172 1.949-.288 2.763-.776.144-.362.787-1.069.033-1.108.04-.325.09-.716-.237-.92zm31.11.21c.728.966 1.341 2.172 1.625 3.277-.398.177-1.628.43-1.57.523.494-.271 1.925-.101 1.558-.922-.161-.615-.56-1.229-.725-1.804 1.006.657-.318-.469-.598-.787l-.29-.287zm-5.138.897c-.503 1.01-1.323 1.966-2.246 2.672.911-.4 1.343-1.511 2.114-1.97.15.066-.017-.583.132-.702zm-23.123.252c.663-.02 1.223.153.704.85-.196.403-.698.806-1.01.15-.18-.496.143-.75.306-1zm8.355 1.696c-.41-.052-1.398 1.076-.638.492.115-.184 1.33-.424.638-.492zm-12.697.508c.575.11 1.579.58 1.926.491-.643-.148-1.273-.425-1.926-.491zm2.097.522c.279.273 1.259.355 1.807.566.974.164-.861-.31-1.237-.411l-.57-.155zm16.093.444c.505.328 1.096.642 1.426 1.195-1.217-.02.146.385 0-.208.014-.393 1.364.633.148-.248-.471-.338-1.015-.65-1.579-.74zm-2.383 1.222c-1.63.073.626.03.667.042l-.667-.042zm1.866 0c-1.36.065-.177.05.525.05.808.016-.473-.04-.525-.05z" style="fill:#27262a;stroke-width:1" transform="translate(2790.89 -1992.74)"/></svg>