<svg xmlns="http://www.w3.org/2000/svg" width="200" height="200.014" viewBox="0 0 52.917 52.92"><path d="M-2865.813 2113.841c.343-3.752.81-7.492 1.4-11.214-3.042 2.078-5.47-1.152-8.157-1.67-1.93-1.485.469-4.837-2.78-4.775-2.65-.516-5.473-.047-8.191-.201-2.082-.157-6.755.328-7.224-.236 4.898.01 9.814-.023 14.72-.028-1.314-1.62-1.714-3.396-2.503-5.208-1.023-.913-2.274-2.98.117-2.455 3.394-1.334 2.981 4.076 5.826 3.725 1.01 1.013 1.464 1.903 2.988 1.677 2.287 2.502 3.185-1.362 3.977-3.1 1.124-2.383 1.983-5.02 3.746-7.042 1.273-.81 4.269 2.54 4.388 1.344-2.39-.546-3.79-3.274-3.74-5.58.471-1.834.967-3.54.12-5.28 2.124-1.432-1.605-3.761-.155-5.81 1.558-1.497 3.578-2.138 5.488-3.183 2.703-1.337 6.91-.89 8.21 2.13 2.41 1.23 3.682 4.69 1.396 6.793-1.373 1.082-3.18 1.144-3.42 3.22-2.28.641 1.214 2.781-.616 4.154-.534 1.509-3.633 3.121-3.737 3.21 1.932-.74 3.72-1.97 4.754-3.804 2.876.213 5.107 2.959 5.267 5.764.724 4.764.655 9.717-.535 14.396-.344 2.277-3.089 3.233-3.812 4.814.212 2.867.448 5.735.472 8.611h-17.501c.533-2.844.73-5.745 1.205-8.605.172-1.194.345-4.302-.062-1.377-.523 3.312-.883 6.647-1.23 9.981-.044.073-.762.058-.41-.25zm11.863-10.902c1.447-.48-.568-4.115-1.034-3.505 1.595 1.83-1.826-1.226-.653.76.89 1.345-1.458 3.77 1.182 2.837l.505-.093zm-1.119.01c.601-.695.775.086 0 0zm-15.902-3.505c.568-1.032.473-4.26.145-3.956.061 1.21-.909 4.762-1.772 2.044-.138 1.01.485 2.25 1.627 1.912zm-.565-1.716c-.488-.739-.845.127 0 0zm14.68-2.118c-2.272-.041-4.547 0-6.82-.001 2.272.092 4.548.077 6.82 0zm.586-.145c-1.366-.65-2.975-.176-4.459-.308h-2.967c1.123.533 4.336.015 6.239.2.387.016.855.02 1.187.108zm-14.307-1.136c-.985-1.534.36 1.405 0 0zm.251-.456c.781-.494-1.11.08 0 0zm4.523-1.68c1.562-2.892 2.625-6.18 4.563-8.801-1.757 1.674-2.549 4.15-3.609 6.308-.137.63-1.379 2.435-.954 2.493zm-8.903-1.292c-.733-1.267-1.007-1.378-.1-.042l.226.333zm-2.967-1.43c-.933-.347-1.145.377 0 0zm1.185-1.036c-1.004-.31-4.616.033-1.82.053.413-.119 1.797.183 1.82-.053zm26.413-8.906c-.703-2.38.052 1.38 0 0zm-5.605-1.03c-1.155-.973-2.416.437 0 0zm1.346-3.5c.955-1.046-1.45-1.242-.215.115zm-3.948-.379c.122-2.145-1.507.987 0 0zm9.167-1.577c-.532-2.703-4.138-3.363-6.367-4.4-1.056-1.176-5.299 1.214-2.219.64 2.72-.01 5.535 1.114 7.09 3.427.483.472 1.556 2.167 1.496.333zm-4.64-2.662c-1.459-.63-5.428-1.46-5.454-.207 1.79-.31 3.626.54 5.454.207zm-37.448 40.452c1.692.064 2.162-.864.908-2.219-.367-2.37.375-5.302 2.414-6.518-.38.701 2.42 2.153 1.145.491-2.264-.973-2.603-5.924.93-4.773 3.107.41.483 3.41.622 4.836.586.683.98 2.36 1.227.55.763-.639 1.804-2.41 1.764-.83 1.906 1.735.705-1.78-.826-1.51-2.3-2.498 1.385-5.074 3.591-3.08.622 1.401-.78 3.434-.82 4.666.9.4 1.21 3.055 1.812 1.01-.08-2.442 2.103 2.266 1.782-.204-2.512-.582-3.077-5.248.434-4.338 2.488.045.893 2.651.54 3.92-1.218.628 1.336 2.121.998 3.418.64-1.505 3.724-1.727 1.996.331.188 1.665-1.818 2.098-2.147 2.775.144 2.485 3.576.807 5.244 1.31 1.055-.185 4.072.216 1.52.322-7.694.001-15.41.022-23.111.03l-.017-.138zm15.347-2.763c.626-1.013-1.07.557 0 0zm-13.693-3.052c.736-2.246-.605 1.005 0 0z" style="fill:#ecb5a1;stroke-width:1" transform="translate(2893.752 -2061.183)"/><path d="M-2865.788 2114.067c.215-3.9.884-7.755 1.388-11.624-2.01 1.515-4.9.738-6.435-1.076-2.693.155-2.753-2.731-2.744-4.637-1.517-.45-2.955-1.007-4.58-.795h-13.014c2.137-.5 4.546-.064 6.788-.222 2.823-.01 5.647-.012 8.47-.019-1.507-1.548-1.773-3.432-2.712-5.307-.959-.9-2.153-2.828.132-2.336 2.462-.857 3.33 1.753 4.33 3.427 2.098-.599 2.333 2.548 4.18 1.839 1.153.979 2.746 1.595 3.207-.223.747-2.237 1.934-4.35 2.854-6.548.796-1.247 1.815-4.606 3.667-2.889.859 1.125 4.764 1.578 1.661.586-2.45-1.63-3.367-5.052-2.01-7.69.422-1.199-1.387-2.796.316-3.356-.296-1.96-2.657-4.627.157-6.047a30.248 30.248 0 0 1 5.554-2.776c2.72-.857 6.341.167 7.283 3.08 2.995.87 3.047 5.531.313 6.808-2 .277-2.186 2.368-3.505 3.304.845 1.525 1.07 3.3-.576 4.627-.528 1.01-3.295 2.151-2.796 2.098 2.304-.501 3.563-3.053 5.394-3.739 2.581.768 4.398 3.174 4.576 5.847.626 4.624.608 9.412-.49 13.958-.175 2.498-3.204 3.386-3.925 5.118.149 2.74.778 6.332.256 8.57-.451-2.256-.229-4.8-.512-7.163.381-1.317-.966-2.472-1.095-.668.317 2.474.857 5.813.477 7.814-.344-2.33-.224-4.856-.603-7.248.05-2.66-5.217 1.243-5.256-2.597-.137-1.126-2.013-.64-2.216-1.973-1.596.65-4.205-.32-4.975-.249-.374 4.036-.547 8.087-.678 12.136-.787-1.743.029-4.31-.085-6.373.118-2.177.252-4.354.41-6.528-.816-.572-.966-2.08-1.114-.24-.755 4.355-1.231 8.758-1.75 13.142-.038.19-.3-.14-.342-.032zm12.592-8.426c1.193-1.367-.183-5.274-.46-5.358.466 1.439 1.4 4.295-.065 5.058-.823-.562-1.332-2.946-.725-.61.189.495.626 1.135 1.25.91zm1.723-.123c3.227-.53 6.515-2.785 6.923-6.244.84-4.468.838-9.111.125-13.594.013-2.513-2.63-4.421-3.507-1.217-.632 1.068-1.17 3.878-1.024 4.083.273-1.28 1.032-2.82.38-.705-.39.97-.723 4.523 0 1.778.318-1.197 1.491-3.891.65-1.295-.268 1.153-1.37 3.659-.925 4.01.54-1.117 1.338-1.765.418-.259-.633 1.099-.749 2.047.119.362 1.913-2.67-2.722 4.41-.294 1.724-1.283 1.247-.371.5.665.252-1.124.476-2.83 1.854-.497 1.428 1.116-.119 3.758 1.708 1.343.598-1.018-.439-3.109-.434-1 .01 1.426.083 3.592 3.784 1.686 1.294-.791-1.063-4.24-1.967-1.489-.783 1.151.671 3.352 3.521 1.148 1.276-.464-1.22-4.849-2.14-1.963-1.013 1.73.844-3.604-.89-1.258.425 1.277.501 3.914 4.413 1.653 1.824-.675-.874-2.883-2.865-3.472-1.518 1.01.335 2.586 3.06.99 1.11-.659-1.066-3.21-1.252-1.216-.043.617.516 1.476 2.719.448.943-.131-1.844-4.672-1.958-2.178-.323 1.224 1.657 1.423 3.895 1.089 5.847.258.405.827.052 1.188.03zm-.973-4.147c-.473-1.134-1.576-3.16-.245-1.013.155.07.592 2.059.245 1.013zm7.115-4.374c.677-1.877.28-4.055.414-6.054.016-2.379-.341-4.755-.81-7.065.835 1.714.863 3.953.99 5.919.018 2.197.023 4.425-.105 6.601-.056.159-.322.913-.49.599zm-8.087 7.784c.925-1.55-2.074-1.717-.496-.229-.286.19.592.613.496.229zm-.6-1.812c1.854-.308-1.008-4.694-.801-3.337 1.138 1.375-1.976-1.368-.827.555.983 1.492-1.553 3.739 1.121 2.876zm-.786-.17c1.014-.584-.381.566 0 0zm-10.974-.133c2.43-.502 1.903-3.385 1.23-4.943 2.588.089-.796-1.96.617-2.975-.273-1.402-4.103-1.555-1.919-.577 1.429.84.788.787-.387.102-1.286-.586 2.802 2.494.853 1.137-.456-.868-3.276-1.273-1.342-.213 1.072.606 2.747 3.466 1.028 1.368-.566-1.206-3.603-2.727-1.516-.558.836 1.044 1.943 3.081.367.974-.523-1.238-3.21-4.12-3.663-2.983.938 2.049.606 4.698-.34 6.734 1.098 1.456 3.23 2.631 5.072 1.934zm-4.823-1.622c.41-.797.967-.476 0 0zm.576-1.32c.157-1.111.615-3.591.374-1.115.097.108-.484 1.838-.374 1.116zm.507-3.934c-.16-1.033-.594-2.386.063-.58.071.425-.02 1.79-.063.58zm11.818 6.15c2.84.199 1.557-2.745-.09-3.513-.947-.912-3.128-2.805-4.1-1.939 1.097.48 2.587.96 2.642 2.058-1.39.912-4.53-1.574-4.793-.275.77.661 4 1.016 3.314 1.499-.943-.356-3.882-1.183-1.796.07 1.235.07 2.487 1.316.47.486-2.374-.76.515 1.128 1.511.96-.885.375-2.405-.495-.701.476 1.131.424 2.368.267 3.542.178zm-2.68-1.109c.125-.79.578.55 0 0zm-10.825-.217c1.524-2.126-1.161 1.524-1.198-1.015-.152-.437.668 2.24-.285.049-.32-.938-.206-4.185-.475-1.655-.119 1.146.287 3.521 1.958 2.622zm-.048-.46c-1.667-1.234-1.016.137 0 0zm.371-.821c.356-1.413.594-3.468-.042-4.572.322 1.214-.661 5.709-1.638 2.692-.473 1.093.939 2.71 1.68 1.88zm7.49-.064c-.45-1.415-.636.658 0 0zm-6.838-2.532c.538-1.129-1.427-4.237-.224-1.654.323 1.216-.21 6.075.224 1.654zm15.6 1.59c2.192-.655 5.009-1.28 4.927-4.156.34-2.882-.166-5.877.955-8.651.076-1.714 3.851-3.958.82-3.984-1.667 1.747-3.608 6.43-3.874 7.022.338-2.817 3.171-5.29 3.59-7.577-2.172.289-3.695 3.927-6.56 3.899-.778.387 2.426-.457 2.917-1.14 1.197-.602-1.885 1.47-2.511 1.276-2.37 1.004-1.267 6.036-2.143 7.688.05-2.523.585-5.027.995-7.519-2.59.176-1.433 4.5-2.21 6.443-.075 1.296-.468 2.973-.266.734.068-2.382 1.07-5.48.88-7.37-2.528-.047-1.274 4.056-1.945 5.766-.087 1.203-.139 3.251.025.96.045-1.224.903-5.718.443-2.375-.38 1.35-.056 4.08-.719 4.625-.122-3.023.286-6.074.872-9.044-1.468-1.357-2.234-.453-2.259 1.31-.866 3.379.964-4.7-.215-1.516-.575 3.305-.919 6.65-1.491 9.958 1.77.617.86-4.93 1.193-1.61-.826 2.7 2.471 1.226 4.038 1.603 2.203-.447 1.302 3.921 2.538 3.658zm2.253-2.63c-2.732.146-1.93-2.573-1.727-4.332-.486-2.644 2.604-1.461 4.019-1.222-.308 1.684.06 3.838-.77 5.26-.145-.847 1.818-5.735-1.245-4.434-2.669-1.408-1.754 2.247-2.035 3.913.31.617 4.834.983 1.758.814zm1.64-5.028c.724-.775-2.284-.784-2.93-.628.01.846 2.148.738 2.93.628zm-6.825 2.022c-.41-.668 2.001.257 0 0zm.339-1.458c-.375-1.056 1.071.16 0 0zm.079-1.637c.184-1.171.89.498 0 0zm.3-1.104c-.321-1.045 1.045.142 0 0zm.272-1.854c.027-1.166 1 .458 0 0zm-14.955 11.118c-.973-1.533-1.03.072 0 0zm.227-1.036c.795-1.595-.91-5.743-2.356-4.412 1.338.415.901 2.458 1.888 3.49-1.71.502.389 1.96.468.922zm-1.512-.395c2.167-1.615-4.623-.757-1.218-1.374 1.393.068 1.745-1.027.017-.662-1.115.146-3.917-.705-1.717.546.165.802 1.367 1.907 2.919 1.49zm16.186-.725c-2.423-.01-4.87-.147-7.28.067 2.427-.034 4.855.021 7.28-.067zm.235-.247c-1.886-.462-3.948-.057-5.907-.21-1.237-.14-2.267.443-.357.19 2.05.068 4.103.014 6.155.03.075.24.538.289.109-.01zm-6.562-.722c.01-1.504-2.925-3.322-3.127-1.49 1.372-.076 1.902 1.858 3.127 1.49zm.259-1.25c.024-1.015-2.246-3.022-.444-1.434 1.377 2.807-.586-4.095.765-.465-.035-1.23-.294-4.484.117-1.504.554 1.715-.184-3.173.313-.881.143-1.912.528-3.796 1.071-5.634-2.225.722-2.863 4.464-4.118 6.487-.23 1.024-1.945 2.817.026 2.202.938-.535 2.47 2.872 2.27 1.23zm-11.731.523c1.732-.675-3.894-1.576-2.607-.444.905.222 1.64.667 2.607.444zm1.19-.168c.516-1.476-2.056.253 0 0zm-3.628-1.313c1.644-.145 1.33-1.229-.256-.556-1.236-.102-.385.954.256.556zm2.76-.527c-.953-2.368-2.7-4.38-5.435-3.494 2.072-.178 4.09.184 4.76 2.571 0 .067 1.158 1.696.675.923zm-3.543-2.411c-1.221-.487-.767.488 0 0zm22.203-4.496c-1.519-.266-.937.354 0 0zm5.36-5.385c-.63-2.714-.156 2.266 0 0zm-5.384-.11c.808-.664.17-1.585-.318-.391-1.554.298-.966.153.124-.282-.818.704-2.743-1.153-1.432.448.57.409 1.559-.513 1.395.455l.231-.23zm-.045-.988c-1.288-1.328-2.638.81 0 0zm2.164-.646c1.723.247 2.975-4.266.632-3.213.31 1.62-2.02 2.313-2.327 2.307.458.432.972 1.117 1.695.906zm-5.55-.17c.964-1.143 1.616-.737 2.643-1.147-1.414.493 2.765 1.066.648.045-1.082-.063-1.08-3.29-1.844-1.386-.022 1.514-1.792 1.715-2.55 1.37-.102.621.364 1.602 1.104 1.118zm8.199-.964c2.038.47 1.905-4.11.13-1.74-.168.435-.56 2.217-.13 1.74zm.107-.62c-.355-1.722 2.07-1.962.921-.336-.137.104-.802.698-.921.336zm1.075-.861c-.79.063-.126 1.053 0 0zm-4.357 1.114c1.326-.428.462-2.96.035-.798-.29.976-2.043.125-.35.139.751-1.182-.43-2.082-1.306-1.66.456-1.112 3.37.835 1.293-.533-3.168-.818-2.503 4.14.327 2.852zm-1.265-1.078c-.935-2.587 2.386 1.093 0 0zm-3.303 1.032c1.053-.565.683-2.638.17-.944-1.515.135-.815-1.444-.025-.566.748-1.59-2.776.129-.742-1.25-1.101-1.104-1.892 3.949.597 2.76zm-1.803-1.4c-.298-1.7-.195 1.73 0 0zm.117-.88c-.398-.854-.16.752 0 0zm3.706-.085c1.292-2.603 3.374.855 4.961.044-.118-1.108-1.837-1.742-1.522-3.231-2.152.28-4.641-.807-6.567.01-.292.862-.91 2.712.322 1.208 1.708-.358 1.953 1.06.202.799-2.543.736 1.725-.472 1.684 1.298.197.189.984.259.92-.128zm2.805-.914c-.825-.234-3.648-.51-1.429-.984.577-.555 3.195 1.499 1.43.984zm4.396.696c.695-3.035-3.65-3.82-5.696-4.917-1.146-1.088-4.427.042-3.963.62 2.341-.457 4.9.304 6.804 1.68.944.56 1.892 2.897 2.855 2.617zm-4.469-3.355c-1.723-.477-4.826-1.691-5.783-.172 1.852-.318 4.175.483 5.783.172zm-8.258 42.881c.14-2.152.06-6.284.43-7.194a320.12 320.12 0 0 0-.283 8.038c-.42.036-.037-.639-.147-.844zm6.136-1.86c.062-2.163-.289-5.99.055-7.127.162 3.264.03 6.557.162 9.831-.46-.8-.05-1.831-.217-2.704zm-7.968 1.749c.022-1.154.173-3.927.257-4.091-.062 1.03.05 4.308-.256 4.09zm-27.422-2.31c.832-.172 2.632-.166 1.304-1.519-1.103-1.915-.179-4.576.863-6.408 1.287-.951.926-.741 1.92.311 1.382.85.403-.974-.188-1.125-1.883-1.258-1.68-5.223 1.346-4.326 3.503.476.409 3.372.765 5.08.773.673.863 2.19 1.23.295.522-.677 2.012-1.873 1.512-.984 1.908 2.196 1.28-1.391-.528-1.33-2.337-2.145 1.088-5.057 3.299-3.137 1.06 1.065-.377 3.427-.866 4.642 1.395.277 1.428 3.794 2.087 1.01.223-1.027.967-.536.255.024.289 1.222 2.354 2.293 1.927.456-.521 1.623-2.486-1.957-.844.075 1.74.142-1.174-1.75-1.507-2.525-1.81-2.827 4.448-3.536 3.571-.917.115 1.209-.725 2.269-1.1 2.935 1.474.686.928 4.137 2.582 1.796 1.391-.676 1.855.482.656 1.288.58 1.083-1.232 2.596-1.953 2.653-.356 1.686 1.07 1.624 2.252 1.521h5.763c-1.665.741-4.008.093-5.936.322-6.147.026-12.304 0-18.444.056.052-.05-.014-.148.033-.194zm5.83-.85c.074-1.908-2.581.219-3.674-.811-.726 1.924 1.226 1.459 2.397 1.48.57-.15 1.723.451 1.276-.668zm.922.643c.362-1.418-1.055-2.379-.732-.439.023.396.394.561.732.439zm.638-.851c.158-2.178-1.175.735-.055.773l.051-.288zm3.182.31c-.043-1.256-2.33-.298-2.858-1.326-1.085 2.186 1.927 2.467 2.87 1.48l-.01-.137zm.982 0c-.03-2.239-1.585-.79-.605.567.356.218.967-.17.605-.567zm1.072-.241c.269-2.367-1.995.233-.376.872.65.167.221-.608.376-.872zm-10.697-.495c-.297-.751.564-1.756.285-1.715 1.143-.481.31-2.832.895-1.855.173-2.433-1.654-2.612-1.768-.163-.515 1.719.046 3.603.273 3.077-.03.069-.015 1.112.315.656zm1.813-.485c.149-1.916.306 1.637.636-.579.255-1.56-4.268.815-1.112.848.565.36.545.01.476-.269zm6.629-.194c.714-2.633-1.92.943.032.453l.012-.142zm-.874-.107c.895-1.828-3.046-.259-.65.496.376.046.785.093.65-.496zm5.599.427c1.07-.981 1.875-.115 2.458-1.18-1.025.012-.956-.021-.034.237-.598.279-1.564-.017-.236-.02-.743-.494-2.837-.76-2.466 1.056zm-9.757-.19c.805-.088 3.54-.844 1.37-.685 2.282-.306 1.27-1.252-.499-.51-1.055-.406-2.855 1.722-.87 1.196zm1.45-.962c1.526-.51.955.1 0 0zm5.345.706c0-2.335-2.896.464-.36.103l.2.01zm5.075-.85c1.577-.507-1.405.28 0 0zm-12.8-.107c2.81.78 1.013-2.536 1.5-3.48.185 1.707.48.742.688 2.299.482-1.044-.437-4.459-1.393-1.965-1.042.558-3.43-2.75-2.21-.126 1.299 1.308-1.652 4.271 1.415 3.272zm5.794-.154c1.681-.551.355-4.157.892-3.376-.081.677.705 1.843.665 1.043.163.228-.477-3.827-1.235-1.39-.915 1.118-3.342-2.428-1.946.236.774 1.615-1.212 4.397 1.624 3.487zm6.702.14c3.149-.912-1.16.001 0 0zm-5.984-.157c2.008-.349-1.02-.095.794-.47 2.042-1.238-1.991-.372-.794.47zm-4.44-.073c1.78-1.894-.788-.088 0 0zm11.864-.401c-.127-1.07-.44 1.018 0 0zm-10-.204c.499-1.343-.725-2.848.169-1.859.187-1.363-1.196-2.664-1.367-.554 0 1.11-.486 3.01 1.198 2.413zm3.34-.469c1.144-1.652-1.065.255 0 0zm-6.656-2.011c1.336-.742.13-2.555-.089-.49-.628-.015-2.775-1.905-1.324-.163.391.052 1.254.909 1.413.653zm5.231-.867c.941-1.89-.744 1.052-1.32-.93-1.557-.846 1.283 2.307 1.32.93zm4.977-1.048c1.327-.758-.773-.894.602-1.834-.648-.475-2.118-.139-2.122.972-.726.326-1.355-.59-.314.331.644.085 1.13 1.02 1.835.531zm-.91-.688c.294-.754.835.167.154.117l-.106-.034zm-.03-.62c.945-.438.415.458-.001 0zm-8.992.936c.273-.478 1.611-.657.6-.83 1.086-1.31-.295-1.525-.386-.786-.72-1.768-.877 1.305-1.713-.174-1.893.715 1.426 1.436 1.499 1.79zm-1.778-1.047c-.364-1.42 1.107.252 0 0zm1.847.03c-1.1-.785 1.221-.183 0 0zm5.506.212c-.96-.511-.476-.31.457-.48-.01-1.022.093-2.677-1.375-1.77-.314 1.194-1.828 1.52-1.775 1.17-.031.564 1.91 1.574 2.693 1.08zm-1.235-.984c.792-.871.796.607 0 0zm1.24 0c.22-.955.54.82 0 0zm-1.295-.417c1.06-.72 1.21.374 0 0zm6.175 1.474c-.467-.546-.555.65 0 0z" style="fill:#5ab6c2;stroke-width:1" transform="translate(2893.752 -2061.183)"/><path d="M-2865.778 2113.86c.29-3.84.813-7.66 1.437-11.46-1.938 1.475-4.754.885-6.308-.867-1.975-.211-3.42-1.849-2.785-4.036-.886-2.092-4.517-1.45-6.594-1.56l-11.14-.029c2.183-.404 4.537-.053 6.786-.181 2.825-.01 5.65-.012 8.474-.02-1.666-1.686-1.716-3.684-2.945-5.619-1.248-1.016-1.409-2.556.641-2.043 3.068-1.209 2.857 4.074 5.203 3.533 1.31.638 1.53 2.353 3.265 1.81 2.1 2.371 3.272-.648 3.844-2.514 1.342-2.62 2.2-5.549 4.19-7.787 1.632.107 2.8 2.203 4.605 1.676-2.542-.374-4.087-3.09-4.13-5.478.392-1.902.913-3.785.16-5.486 1.385-.25.278-2.275.095-2.82-2.09-2.673 1.707-4.515 3.665-5.403 2.263-1.252 5.166-2.132 7.656-.81 1.845 1.142 2.461 2.977 4.178 4.147 1.72 2.773-.949 5.6-3.394 6.35-.279 1.636-2.823 2.364-.846 3.936-.047 2.334-2.236 4.228-4.307 5.038.907.01 3.5-1.618 4.42-3.057 2.083-1.713 5.205 1.882 5.516 4.158.85 4.84.798 9.878-.205 14.686-.166 2.603-3.045 3.674-4.028 5.431.335 2.872.39 5.765.522 8.65-1.035-1.693-.295-4.631-.73-6.783.45-1.547-1.157-3.14-1.088-.814.204 2.186 1.008 6.288.308 7.358-.086-2.76-.207-5.553-.661-8.293-2.4 1.243-5.1.376-5.518-2.085-1.51-.082-1.61-1.918-3.347-1.089-1.617.644-3.967-1.995-3.5.743-.304 3.648-.456 7.307-.575 10.965-.787-1.744.03-4.311-.085-6.373.118-2.178.252-4.354.41-6.529-.814-.564-.965-2.082-1.111-.247-.75 4.359-1.254 8.757-1.74 13.148-.128.123-.542-.02-.338-.246zm12.582-8.22c1.245-1.606-.262-5.479-.707-5.824.714 1.502 1.684 4.618.182 5.524-.816-.567-1.35-2.947-.727-.612.191.495.626 1.136 1.252.913zm1.723-.122c3.226-.53 6.513-2.78 6.923-6.241.84-4.463.837-9.101.128-13.58.016-2.514-2.628-4.45-3.51-1.234-.632 1.068-1.17 3.877-1.024 4.083.273-1.28 1.032-2.82.38-.705-.39.97-.723 4.523 0 1.778.31-1.165 1.495-3.907.65-1.295-.268 1.153-1.37 3.658-.925 4.01.812-1.537 1.155-1.397.234.105-1.48 3.245 1.847-2.835.417.146-.925 1.623-1.398 2.39-.602 1.824-2.225 1.558 2.406-.927.092.478-3.333 1.431 3.548.964 2.434 1.872-1.172-.684-4.315-.914-1.534-.188 1.36.262 3.214 3.597 1.384 1.16-.794-1.102-4.326-1.91-1.51-.784 1.158.654 3.396 3.563 1.183 1.3-.465-1.22-4.848-2.138-1.962-1.012 1.698.833-3.54-.883-1.235.446.967.468 2.726 2.621 2.53 2.761-1.075-1.065-3.142-3.903-4.457-2.494 1.193.357 2.759 3.307.896.954-.79-.97-2.894-.948-1.036.135.617.516 1.476 2.719.448.943-.131-1.844-4.672-1.958-2.178-.324 1.224 1.657 1.423 3.896 1.088 5.848.284.42.854.03 1.189.014zm-.973-4.147c-.473-1.134-1.576-3.16-.245-1.014.155.072.592 2.06.245 1.014zm7.115-4.375c.677-1.876.28-4.054.414-6.053.016-2.379-.34-4.755-.81-7.065.835 1.714.863 3.953.99 5.918.018 2.197.023 4.426-.105 6.602-.056.159-.322.913-.49.599zm-8.087 7.785c.925-1.55-2.074-1.717-.496-.229-.286.19.592.612.496.229zm-.612-1.802c1.685-.3-.533-4.345-.934-3.473 1.413 1.554-1.928-1.25-.674.736.91 1.48-1.53 3.66 1.097 2.831zm-11.748-.313c2.43-.502 1.903-3.385 1.23-4.942 1.5-.043 1.183-.607.387-1.738.305-1.377-.61-2.723-2.404-2.514-.366.632 2.85 1.67 1.16 1.188-.683-.648-2.35-.469-.492.06.863.588 1.542 1.747.283.48-.546-.789-3.111-.911-1.171-.065.982.443 2.82 3.577 1.13 1.47-.522-1.229-3.782-2.838-1.581-.641.82 1.031 1.986 3.14.394 1.018-.554-1.24-3.12-4.077-3.683-3.01.956 1.74.513 3.983.09 5.848-1.167 1.942 2.625 3.354 4.292 2.958l.365-.112zm-4.823-1.622c.41-.798.967-.476 0 0zm.576-1.32c.157-1.111.615-3.591.374-1.115.097.108-.484 1.838-.374 1.116zm.507-3.934c-.16-1.033-.594-2.386.063-.58.071.425-.02 1.79-.063.58zm11.818 6.15c2.84.198 1.557-2.745-.09-3.513-.947-.912-3.128-2.805-4.1-1.939 1.097.48 2.586.959 2.642 2.058-1.39.912-4.53-1.575-4.793-.276.77.661 4 1.016 3.314 1.5-.943-.356-3.882-1.183-1.796.07 1.234.07 2.488 1.316.47.486-2.374-.76.515 1.127 1.511.96-.885.374-2.405-.495-.702.476 1.133.424 2.369.266 3.543.178zm-2.68-1.109c.125-.79.578.55 0 0zm-10.825-.217c1.317-2.016-.795 1.222-1.126-.756-.669-1.867.854 2.442-.329-.115-.37-.919-.223-4.323-.506-1.753-.118 1.15.286 3.518 1.961 2.624zm-.047-.465c-1.58-1.448-.902.412 0 0zm.323-.72c.523-1.121.528-4.418 0-4.547.27 1.243-.597 5.379-1.662 2.62-.217 1.014.45 2.391 1.667 1.926zm7.537-.16c-.45-1.416-.637.657 0 0zm7.153-.089c1.932.147.425-3.881-.922-3.615h-6.68c-.08 2.288 2.977 2.962 3.974 2.767-.256-.82-4.248-2.417-1.202-2.376 1.966.488 3.375 2.414 4.83 3.224zm-14.053-1.246c.524-.883-.352-4.454-.563-3.648.993 1.176.311 4.11.414 4.486.07-.276.1-.56.149-.838zm15.663.393c1.661-.764 4.6-.776 4.628-3.213.954-2.748-.038-5.777.953-8.549-.23-1.902 2.582-3.61 2.185-4.755-1.962-1.05-2.745 2.89-3.812 4.191-.573 1.072-1.758 4.516-.825 1.582.403-2.435 3.087-4.576 3.287-6.602-2.172.288-3.695 3.927-6.56 3.899-.78.388 2.443-.476 2.917-1.14 1.196-.601-1.885 1.47-2.511 1.276-2.37 1.004-1.267 6.036-2.143 7.688.05-2.523.585-5.027.995-7.519-2.59.176-1.433 4.5-2.21 6.443-.075 1.296-.468 2.974-.267.734.07-2.381 1.072-5.48.88-7.37-2.527-.046-1.273 4.056-1.944 5.766-.088 1.203-.139 3.251.024.96.046-1.224.904-5.718.444-2.375-.38 1.351-.056 4.08-.719 4.626-.122-3.024.286-6.074.872-9.045-1.467-1.356-2.234-.453-2.259 1.31-.866 3.379.964-4.698-.215-1.517-.575 3.306-.92 6.65-1.491 9.959 1.709.617.92-4.683 1.196-1.755-.291 1.42.085 2.224 1.706 1.75 2.222-.493 4.433.41 4.284 3.049.226.16.077 1.245.584.607zm2.252-2.63c-2.732.146-1.93-2.574-1.727-4.332-.486-2.645 2.604-1.461 4.019-1.222-.308 1.683.062 3.838-.77 5.26-.146-.847 1.818-5.735-1.245-4.435-2.669-1.407-1.754 2.247-2.035 3.913.31.618 4.834.983 1.758.815zm1.64-5.028c.724-.776-2.285-.784-2.931-.628.01.845 2.15.737 2.931.628zm-6.825 2.021c-.41-.668 2.001.258 0 0zm.339-1.457c-.375-1.056 1.071.16 0 0zm.079-1.637c.184-1.171.89.497 0 0zm.3-1.105c-.321-1.044 1.045.143 0 0zm.272-1.854c.027-1.166 1 .46 0 0zm-14.967 11.162c-.347-1.083-1.927-.851 0 0zm.238-1.079c.796-1.595-.909-5.743-2.355-4.412 1.338.414.901 2.457 1.888 3.49-1.71.501.388 1.959.467.922zm-1.51-.395c2.166-1.616-4.624-.757-1.22-1.374 1.393.068 1.747-1.027.018-.662-1.115.146-3.918-.705-1.718.545.108.725 1.336 1.938 2.919 1.49zm16.432-.961c-1.863-.525-3.905-.12-5.84-.235-1.207-.222-2.58.542-.586.217 1.954.047 5.347.049 6.426.018zm-6.574-.734c.012-1.524-2.96-3.317-3.134-1.475 1.374-.118 1.91 1.855 3.134 1.475zm.259-1.248c.024-1.016-2.246-3.023-.444-1.435 1.377 2.807-.586-4.095.765-.466-.034-1.23-.294-4.483.117-1.503.554 1.715-.184-3.174.313-.881.143-1.912.528-3.796 1.07-5.634-2.225.682-2.856 4.464-4.113 6.468-.29 1.116-1.944 2.82.122 2.24.878-.337 2.222 2.537 2.17 1.21zm-11.731.522c1.732-.675-3.894-1.576-2.607-.445.905.223 1.64.668 2.607.445zm1.19-.169c.516-1.476-2.056.254 0 0zm-3.628-1.312c1.644-.146 1.33-1.229-.256-.556-1.236-.102-.385.954.256.556zm2.808-.456c-.975-2.405-2.761-4.47-5.556-3.54 2.31-.294 4.243.43 5.022 2.843-.075-.09.894 1.314.534.697zm-3.591-2.482c-1.506-.477-.961.484 0 0zm22.203-4.496c-1.518-.266-.937.353 0 0zm-3.004-1.689c-.594-.537-.534-3.537-.709-1.248-.23.239 1.346 2.318.709 1.248zm.32-.098c-.473-1.09-.853-2.642-.397-.529-.07.217.998 1.361.397.529zm-.925-.19c-1.103-1.027.917-4.7-.456-2.005-.48.294.605 2.663.456 2.006zm-.76-.91c.2-1.044.173-2.277-.167-.652-.015.116.142 1.219.167.651zm-.32-1.523c.61-1.259.511-1.464-.211-.027-.115 1.264.017 1.011.21.027zm10.06-1.05c-.714-2.59-.106 2.494 0 0zm-10.098-.52c.445-.905-1.419 1.919-.214.187zm4.703.485c.808-.664.17-1.585-.318-.392-1.554.299-.967.154.124-.282-.818.705-2.743-1.152-1.432.449.569.409 1.559-.513 1.395.455l.231-.23zm-.045-.988c-1.288-1.329-2.638.81 0 0zm2.164-.646c1.944.473 2.785-4.938.46-2.856.404 2.274-3.865 1.295-1.275 2.734.24.148.542.21.815.122zm2.426-.676c.976-.168 3.043-2.847.92-2.809-1.102.656-.759 2.499-1.081 3.334l.161-.525zm.33-1.078c-.355-1.722 2.07-1.962.921-.336-.137.104-.802.698-.921.336zm1.075-.862c-.79.063-.126 1.053 0 0zm-9.38 2.446c.963-1.144 1.615-.737 2.642-1.148-1.4.51 2.81 1.06.61.024-1.109-.179-.994-3.297-1.806-1.363-.022 1.513-1.791 1.714-2.55 1.369-.102.62.364 1.603 1.104 1.118zm5.023-1.331c1.326-.428.462-2.96.034-.799-.317.977-2.034.123-.324.133.585-1.153-.197-2.181-1.334-1.617.28-1.243 3.335.827 1.41-.518-3.22-1.05-2.72 4.101.213 2.801zm-1.265-1.079c-.878-2.14 2.188.717 0 0zm-3.303 1.032c1.012-.58.741-2.721.05-.883-1.37.05-.732-1.676.023-.516 1.245-1.757-2.481.02-.965-1.27 1.38-.723-1.59.223-.742 1.477-.234.93.84 1.765 1.634 1.192zm-1.76-1.641c-.662-.937.054 2.011 0 0zm.074-.638c-.45-1.124-.31 1.07 0 0zm3.706-.086c1.285-2.552 3.32.741 4.924.098.102-1.145-1.884-1.77-1.485-3.285-2.152.28-4.641-.807-6.567.01-.573 1.274-.922 3.058 1.071 2.213.708.087 1.298 2.009 2.057.964zm2.805-.913c-.823-.24-3.65-.507-1.429-.984.577-.555 3.195 1.498 1.43.984zm-6.304-.171c.287-2.06 3.947.156.844-.113-.287-.319-.876.733-.844.113zm10.723.844c.689-3.018-3.6-3.744-5.6-4.856-1.458-.682-3.363-.773-4.4.669 3.27-.777 6.983.689 8.824 3.51.27.106.908 1.394 1.176.677zm-4.468-3.329c-1.862-.402-4.321-1.761-5.937-.21 1.962-.191 3.979.395 5.974.248l-.037-.038zm-8.282 42.878c.14-2.153.059-6.284.43-7.194a324.46 324.46 0 0 0-.283 8.038c-.42.036-.037-.64-.147-.844zm6.136-1.86c.062-2.164-.289-5.988.055-7.127.162 3.264.03 6.556.162 9.83-.46-.799-.05-1.83-.217-2.704zm-7.968 1.749c.021-1.154.173-3.928.257-4.092-.062 1.031.05 4.308-.257 4.092zm-27.374-2.189c.376-.573 2.7 0 1.35-1.566-1.241-1.755-.288-4.282.51-6.081.857-.608 1.435-1.831 1.8-.394 1.04 1.535 1.657-.436.265-.539-.999-1.322-2.556-4.364.461-4.712 1.993-.042 3.334 1.459 1.986 3.048-.242 1.293-.909 1.975.257 3.075.284 1.194.68-1.428 1.475-1.546.64-1.632 1.221 1.933 1.957.212-.957-1.506-3.95-2.57-2.08-4.769 1.307-1.383 5.249-.069 3.607 2.01.055 1.505-1.8 2.579.03 3.519.374 2.12 1.046.649 1.314-.515.308.097.026 1.788 1.308 2.19.66.455 1.161-1.956.188-.582-1.083-.43-1.46-1.9-.28-.268 1.44-.92-3.449-2.637-1.523-4.618 1.548-1.393 4.846-.259 3.262 1.978.661 1.574-2.307 1.517-.291 2.557.7 1.286.61 3.042 1.976 1.255 1.093-.602 2.104.2.762 1.108.5 1.664-1.684 2.474-2.064 3.064-.273 1.665 1.334 1.214 2.381 1.255h5.63c-.95.686-2.442.124-3.635.302l-20.599.048-.049-.05zm5.781-.97c.075-1.91-2.58.218-3.673-.813-.725 1.923 1.223 1.46 2.394 1.482.572-.15 1.725.449 1.28-.67zm.923.642c.357-1.427-1.05-2.374-.742-.43.01.403.414.548.742.43zm.64-.85c.115-2.265-1.167.95-.042.724l.046-.284zm3.18.308c-.043-1.256-2.33-.298-2.858-1.326-1.085 2.186 1.926 2.467 2.87 1.481l-.01-.137zm.982 0c-.03-2.238-1.585-.79-.605.567.356.219.967-.169.605-.567zm1.082-.222c.321-2.443-2.034.183-.383.85.636.172.228-.591.383-.85zm2.709.222c.174-1.57-3.8-.615-2.12.567.581-.217 2.552.523 2.12-.567zm.885.104c.245-2.354-1.82-.244-.255.514.222-.057.32-.31.255-.514zm-14.301-.84c-.298-.75.565-1.755.285-1.714 1.143-.481.31-2.832.895-1.855.173-2.434-1.654-2.612-1.768-.163-.514 1.718.046 3.603.273 3.076-.03.07-.015 1.113.315.656zm1.813-.484c.146-1.913.316 1.643.633-.59.49-1.613-4.472.896-1.067.864l.474.069-.04-.343zm10.68-.106c.979-1.957-3.255-.03-.844.412.297.132 1.057.142.844-.412zm-4.051-.089c.713-2.633-1.92.943.032.453l.012-.142zm5.278.02c.207-.481 1.882-.01.58-.344 1.51.28 1.624-.948.662-.47 1.864.284-1.518.225.385.248-.743-1.034-3.177-.325-2.367.97l.369-.167zm-6.152-.127c.895-1.827-3.046-.26-.65.496.376.046.785.093.65-.496zm-4.158.238c.806-.088 3.54-.847 1.37-.687 2.281-.306 1.27-1.252-.499-.51-1.055-.406-2.856 1.72-.87 1.197zm1.45-.963c1.526-.51.955.1 0 0zm5.345.706c0-2.335-2.896.463-.36.102l.2.01zm.815-.538c.743-1.803-1.514.809 0 0zm1.933-.322c1.19-.576.637-3.57-.817-2.764-1.71-2.934-2.283 2.843-.923 1.468-.206-1.373.373-1.168.358.463-.377 1.476.211.949 1.382.833zm2.327.01c1.576-.507-1.405.28 0 0zm-12.8-.107c2.81.78 1.013-2.534 1.5-3.48.183 1.692.529.67.692 2.334.469-1.125-.432-4.467-1.397-2-1.042.559-3.43-2.75-2.21-.126 1.299 1.308-1.652 4.272 1.415 3.272zm5.794-.154c1.681-.55.355-4.157.892-3.376-.081.677.705 1.842.665 1.043.167.25-.508-3.808-1.202-1.452-.804 1.29-3.426-2.41-1.925.294.643 1.581-1.203 4.414 1.57 3.49zm6.702.14c3.15-.912-1.16 0 0 0zm-5.984-.157c2.008-.349-1.02-.095.794-.47 2.037-1.24-1.988-.37-.794.47zm2.006-.14c1.212-.84-1.834.604 0 0zm-6.445.067c1.78-1.895-.79-.088 0 0zm9.927-.083c1.417-1.414-.785-.627-.263.101zm-8.693-.113c.256-.438-1.127.383 0 0zm8.055-.232c1.466-.958-1.358-4.606-.327-1.412.298.152.122 2.312.327 1.412zm2.564.031c.18-.765-.478.266-.18.22zm-9.99-.208c.499-1.343-.724-2.847.168-1.859.188-1.363-1.195-2.664-1.366-.554 0 1.11-.486 3.011 1.197 2.413zm3.34-.468c1.144-1.653-1.065.254 0 0zm-6.656-2.012c1.336-.742.13-2.555-.089-.49-.628-.014-2.775-1.905-1.324-.163.39.053 1.254.91 1.413.653zm5.231-.867c.941-1.89-.744 1.052-1.32-.93-1.557-.846 1.283 2.308 1.32.93zm4.977-1.047c1.327-.76-.773-.895.602-1.835-.648-.477-2.119-.139-2.122.972-.726.325-1.355-.591-.314.33.644.085 1.13 1.019 1.834.533zm-.91-.688c.294-.755.835.166.154.117l-.106-.034zm-.03-.62c.945-.438.415.457-.001 0zm-8.992.935c.273-.478 1.612-.657.6-.829 1.1-1.351-.277-1.536-.385-.787-.715-1.866-.827 1.312-1.808-.145-1.672.775 1.302 1.23 1.593 1.761zm-1.778-1.047c-.365-1.419 1.108.248 0 0zm1.847.03c-1.1-.785 1.221-.183 0 0zm5.506.212c-1.209-.683-.047-.15.476-.59-.041-.985-.05-2.552-1.401-1.656-.117.846-2.043 1.985-1.571.947-.938.662 1.946 1.805 2.496 1.299zm-1.235-.984c.792-.871.796.607 0 0zm1.24 0c.31-.95.496.76 0 0zm-1.295-.417c1.06-.719 1.21.374 0 0zm6.175 1.474c-.466-.545-.556.65 0 0z" style="fill:#5f5964;stroke-width:1" transform="translate(2893.752 -2061.183)"/><path d="M-2865.778 2113.993c.32-3.92.865-7.82 1.46-11.708-1.058.951-2.633 1.112-3.947.743-1.205-.325-2.078-1.358-3.048-1.973-.765.157-1.539-.015-1.839-.82-.48-1.104-.322-2.348-.242-3.483-1.27 0-2.237-1.115-3.537-.834h-14.201c.407-.438 1.625-.065 2.348-.187 4.31.01 8.619.011 12.928.017-.243-.72-1.273-.975-1.014-1.84-.76-.194-.622-1.014-1.042-1.5-.199-.586.3-1.11-.46-1.683-.458-.813-1.218-1.446-1.598-2.266.325-.757 1.44-.246 2.12-.4.757-.01 1.65-.21 1.994.664.594 1.074 1.27 2.077 1.921 3.108.359-.709 1.34-.095 1.628.295.364.115.88.889 1.071 1.442 1.067-.77 2.224.254 3.008.967.638-.278 1.402-.5 1.349-1.344.568-.366.4-1.435.864-2.04 1.407-2.596 2.196-5.579 4.176-7.823.564-.611 1.154.095 1.62.383.868.636 2.13 1.39 3.363 1.068-1.445-.126-2.623-1.033-3.365-2.257-.8-1.312-1.317-2.979-.805-4.53 0-.786.939-1.618.468-2.3-.032-.688-.759-1.36-.464-1.93.902-.125.726-.74.38-1.455-.052-.798.387-1.18-.502-1.514-.745-1.097-.46-2.879.82-3.468.655-.54 1.411-.909 2.18-1.254.222-.637 1.334-.27 1.73-.897 2.306-1.308 5.48-1.54 7.62.207.717.526 1.264 1.304 1.402 2.194 1.58.19 2.5 1.94 2.34 3.424.079 2.067-1.823 3.535-3.683 3.948-.416.646-.55 1.594-1.113 2.054-.812-.137-.9 1.31-.446 1.53.226.25.806.572.536 1.303-.276 1.404-1.406 2.493-2.446 3.396-.628.61-1.57.769-2.233 1.24 2.137-.621 4.109-1.962 5.248-3.908 1.11-.176 2.093.725 3.003 1.282 1.95 1.469 2.2 4.037 2.473 6.279.352 4.12.261 8.339-.724 12.37-.611 1.975-2.13 3.52-3.973 4.403.33 3.056.535 6.131.538 9.205-.727-.06-.174-1.438-.384-2.032-.137-2.31-.143-4.67-.506-6.94-1.128.093-.983.884-.797 1.768.277 2.391.519 4.795.513 7.204-.474-.371-.183-1.548-.317-2.24-.042-2.138-.348-4.262-.509-6.387-1.282.476-2.746.718-4.074.52-.859-.533-1.071-1.656-1.231-2.572-.804.162-1.788-.16-1.783-1.12-.44-.267-1.403.135-2.039.103-1.139.013-2.306-.096-3.218-.856-.365 4.011-.631 8.104-.676 12.157-.328 1.156-.425-.625-.302-1.14.168-3.797.325-7.597.663-11.385-.754-.057-.699-1.615-1.046-1.276-.735 4.716-1.404 9.447-1.872 14.195-.09-.051-.41.113-.328-.107zm12.813-8.676c.524-1.759.087-3.75-.737-5.377-.83-1.086-.275-.18.083.468.525 1.542.83 3.275.377 4.87-.769.466-1.096-.8-1.298-1.334-.455-1.313-.182.566.17.984.14.588 1.17 1.21 1.405.389zm1.687.193c2.76-.564 5.59-2.223 6.473-5.05.876-3.274.983-6.724.897-10.098-.166-2.54-.163-5.351-1.697-7.498-.592-.956-1.533.148-1.916.746-1.006 1.84-1.62 3.958-1.563 6.064.088-.94.35-2.002.71-2.775-.339 1.39-.77 2.883-.705 4.36.454-1.378.906-2.893 1.479-4.144-.512 1.95-1.304 3.913-1.63 5.933.34-.538.955-1.742 1.185-1.801-.504.957-.948 2.056-1.375 2.98.572-.649 1.04-1.685 1.569-2.48-.384 1.283-1.368 2.33-1.86 3.552.369-.376 1.643-.92 1.704-.836-.64.446-1.68.701-1.895 1.487 1.355-.316 2.9.052 4.013.94-1.223-.506-2.61-1.19-3.927-.613 1.136.116 2.103.758 2.925 1.513-.022.233.547.45.91 1.092-.61-.389-.785-.917-1.347-1.196-.762-.572-1.727-1.287-2.729-1.016.15.375 1.25.34 1.516.755-.727-.328-1.613-.45-2.376-.2 1.62.523 2.707 1.994 3.703 3.3-.56-.321-1.057-1.233-1.679-1.695-.793-.758-2.053-1.984-3.14-1.05-.017.216 1.176.644 1.44 1.21.873 1.17.435.77-.32-.06-.503-.603-1.368-1.031-2.14-.71.948.525 1.709 1.53 2.033 2.53-.637-1.047-1.444-2.38-2.798-2.453-.714.258-1.505.728-.396.934 1.426 1.093 1.63 3.121 1.67 4.801.32.494-.606 1.672-.013 1.644.42-.029.914-.085 1.28-.166zm-1.374-4.708c-.11-.433-1.151-2.079-.359-.95.284.28.893 2.157.359.95zm6.653-2.647c-.77-1.07-2.059-1.7-3.346-1.892 1.468-.07 2.961 1.023 3.593 2.196-.115-.015-.159-.228-.247-.304zm.784-1.236c.413-.883.218-2.048.28-3.045.017-3.344.144-6.745-.824-9.988.431.248.446 1.427.615 2.055.56 3.16.425 6.396.326 9.589.19.482-.389 1.888-.4 1.389zm-4.311-1.957c.722-.838.661-.43-.064.12zm-3.858 9.784c.418-.902-.03-1.386-.979-1.328-.19.34.45 1.374.913 1.585-.017.097.081-.349.066-.257zm.146-1.43c-.45-.405-.677.388 0 0zm-1.654-.204c.624-.121 2.043.049 1.46-.977-.224-1.035-.375-2.507-1.484-2.918-.583 0 1.019 1.558.01.567-.12-.488-1.687-.597-.946-.065.416.964.555 2.217.044 3.148-.843.63.686.167.92.245zm-1.257-.157c-.296-.493-1.109-.04 0 0zm-9.854-.197c.85-.263 1.998-.704 1.92-1.775.25-.844.284-1.477-.111-2.121.216-.04-.994-1.392.201-1.437 1.035.54.658-.089.241-.773-.325-.568-1.052-1.54-.088-1.881 1.397.137.584-.78.187-1.538-.421-.869-1.882-1.19-2.53-.495-.48.745 1.055.321 1.343.945.531.19 1.513 1.596.504.617-.577-.555-1.424-1.118-2.256-.87-.545.896.908.447 1.242 1.077.938.952-.017.01-.613-.187-1.182-.327-1.095.034-.044.381.413.116 1.525 1.437 1.087 1.124-.666-.768-1.738-1.52-2.715-1.249 1.137.681 2.15 1.793 2.89 2.92-.726-.365-1.075-1.403-1.803-1.899-.268-.362-1.548-1.1-1.573-.683.892.936 1.506 2.092 2.262 3.135-1.106-.894-1.66-2.489-2.807-3.438-.577-.714-1.667-1.362-2.51-.695 1.324 1.535.799 3.76.506 5.583-.145.629-1.021 1.552-1.495.696-.171-.878-.652-1.616-.268-.273.646 1.134-.3.168-.282-.502-.186-.86-.165-1.736-.157-2.61-.553.277-.23 1.422-.335 2.03.1.835.452 2.191 1.552 1.931 1.012-.025 1.05-1.444 1.324-2.204.224-1.482.282-3.118-.315-4.498-.28-.699.847.77.592 1.296.158 1.692-.017 3.468-.618 5.062-.685.671.764 1.13 1.19 1.596 1.02.703 2.254 1.16 3.48.735zm-3.972-3.093c.084-.786.274-1.561.399-2.343-.097.826-.07 1.719-.402 2.48v-.137zm.475-3.807c.197-.442-.594-1.84-.214-1.457.25.36.382 1.854.217 1.645-.155.135.064-.21 0-.188zm13.449 6.759c.423-.556-1.294-.435-.202.113.096.036.14-.064.202-.113zm.22-.558c.222-.919.15-2.2-.886-2.57-1.113-1.206-2.26-2.427-3.842-3.003-.296-.47-2.102-.482-1.237.1.843.315 1.668.907 2.257 1.444-.746-.655-.157-.496.104.102.73.745-.957.559-1.402.438-1.108-.205-2.204-.679-3.292-.835-.6.73 1.1.839 1.57 1.199.742.212 1.474.453 2.225.63-.104.658-1.361-.262-1.902-.251-.531-.021-1.908-1.175-1.647-.068.993.588 2.226.81 3.188 1.33-.515.152-1.523-.393-2.196-.59-.744-.146.317 1.075.81.92.444.05 2.318.637 1.025.496-.754-.292-1.745-.383-.56.208 1.609.82 3.448.398 5.152.21 1.22-.935-.737.449.484.356.1.09.175-.038.148-.116zm-15.412-1.909c.352.294-1.55-1.3-.841-.384.1.32.545.823.841.384zm.354-.691c.41-1.523.537-3.243.11-4.782-.426-.782-.093 1.19-.149 1.544-.167.86-.346 1.872-.923 2.514-.467-.377-.544-1.197-.825-1.654.05.888-.089 2.04.95 2.412.217.154.609.02.837-.035zm14.635-.242c.574.094 1.387-.16.862-1.09-.257-.887-.618-1.817-.85-2.66-.704-.735-1.905-.237-2.82-.376l-4.701.03c-.753.544.402 1.356.564 1.987.135.958 1.225.874 1.943 1.176.369.18 2.137.38 1.303-.219-.671-.642-1.452-1.11-2.306-1.466-.419-.795 1.076-.789 1.528-.468.588.26 1.63.864 1.825.959 1.003.552 1.66 1.61 2.506 2.269-.107-.077.183-.078.146-.142zm-.085-3.576c-2.374-.14-4.82-.104-7.215-.105-1.109.088.598-.284.967-.124 2.049.05 4.157-.101 6.168.076.15.01.346.33.08.153zm2.067 2.495c.822-.152 1.661-.164 2.334-.784.539-.546 1.57-.193 1.702-.954.108-.621.3-1.388.56-2.114.31-2.746-.136-5.63.823-8.298.448-1.354 1.03-2.948 2.323-3.678.415-.091-1.066-1.27-1.403-.824-1.349 1.85-2.61 3.788-3.396 5.951.381-1.677 1.44-3.291 2.439-4.743.211-.615 1.629-1.521.477-1.784-.79-.632-1.02.862-1.654 1.193-1.39 1.438-3.186 2.563-5.197 2.83-.62 2.598-.93 5.256-1.178 7.911-.031-2.678.57-5.327 1.042-7.957-.851-.079-1.593.107-1.49 1.133-.58 2.564-.752 5.201-1.164 7.789.148-2.967.623-5.92 1.234-8.82-.82-.012-1.816-.242-1.66.925-.474 2.691-.783 5.428-.733 8.163.249-1.625.2-3.466.584-4.97-.211 1.647-.278 3.412-.491 5.058-.402-.453-.054-1.561-.137-2.277.019-2.358.407-4.701.857-7.007-.621-.015-1.449-1.163-1.869-.699l-.507 2.314c-.03-.88.27-1.767.49-2.623-.634-.589-.54.964-.75 1.384-.491 3.065-.823 6.156-1.361 9.212.343.76 1.382.04 1.022-.839 0-.394.198-2.478.188-1.55a89.046 89.046 0 0 1-.105 2.584c1.552.043 3.146-.085 4.673.063 1.148.498 1.009 2.022 1.422 3.029.24 1.06.132.832.925.382zm1.482-2.548c-.723-.171-1.951-.395-1.566-1.411.215-1.507.178-3.093.576-4.547 1.13.039 2.267.545 3.404.222.566.48 0 1.488.118 2.178-.117 1.09-.153 2.2-.371 3.27-.964.584.34-.376 0-.97.105-1.194.241-2.385.247-3.585-1.122.413-2.377.13-3.452-.18-.179 1.39-.278 2.825-.384 4.236.752.65 1.843.765 2.804.896-.463-.01-.938.049-1.38-.109zm2.239-4.975c.654-.788-1.093-.392-1.551-.541-.573.066-1.6-.781-1.688.204.84.492 2.27.705 3.239.337zm-7.218 1.972c.976-.387 1.433.244.115.086.012-.065-.276.087-.115-.086zm.466-1.495c.595-.923.547.683 0 0zm.187-1.517c.199-1.176.666.733 0 0zm.312-1.082c-.435-.756.89-.342.085.027l-.086-.035zm.258-1.98c.267-.978.684.89 0 0zm-14.95 11.22c.257-.292-1.202-.881-1.034-.75.207.148.859 1.313 1.035.75zm.215-.909c.29-1.67.106-3.673-1.413-4.723-.53-.76-1.53.034-.714.602 1.034.167.072-.027.607.762.077.676.424 1.313.672 1.867.596.384-.422 1.01-.33 1.31.401.11 1.236 1.232 1.178.182zm-1.203-.61c.75-.733-.636-1.173-1.252-.922-.525.293-2.168-.25-.87-.264.673.062 1.384-.323 1.938-.406-.104-.876-1.277-.128-1.97-.347-.662.302-1.623-.418-1.959-.304-.275.957 1.382.753 1.188 1.246-.775-.736-.122.814.488.807.694.434 1.731.487 2.437.19zm9.72-1.87c.29-1.07-.157-2.133-.987-2.834-.43-.575.975.7.988 1.1.387 1.083.512-.912.117-1.201-.412-1.221-.228-1.117.18-.02.348 1.077.16-.924.043-1.36-.119-1.004.01-1.468.147-.192.085 1.22.193 1.05.298-.097.217-2.111.463-4.247 1.153-6.263-.59-.689-1.057.604-1.412.985-1.577 2.451-2.607 5.24-3.842 7.849 1.113-.478 2.435.193 2.881 1.317.182.084.358 1.36.435.716zm-11.472-.43c.492.039 1.56-.053 1.012-.758-1.093.054-.569.362-1.167.027-1.027.14-1.997-.37-2.996-.336-.166.927 1.222.634 1.71 1.132.477.026.977-.018 1.44-.064zm-2.723-1.388c.341-.35 1.808-.188 1.348-.92-.675-.023-1.358.257-2.036.319-.508.342.421.808.688.6zm2.649-1.04c-.59-.882-1.063-1.978-1.766-2.71-.36-.55-1.154-.577-1.843-.483-.378.098-2.191-.133-1.632.246 1.03.073 2.19-.142 3.143.104.962 1.1 1.614 2.43 2.445 3.625.168-.174-.302-.571-.347-.781zm-3.283-1.779c.156-.803-2.023-.283-.757-.128 1.744.02-1.371.059.273.198.136-.057.424.107.484-.07zm-.726-.608c-.43-.661-.612.374 0 0zm21.153-5.314c-.82-.377-.639-.262-.929-.854-.35-.834-.391-1.895.323-2.556-.995 1.18-.169-.204-.088-.255-1.394.742-1.093 2.753.078 3.557-.202-.25.93.421.616.108zm.224-.136c-.891-.566-.92-.989-.016-.14 1.423.436.357.108-.146-.637-.41-.472-.488-2.172-.544-.719-.425-.419.334-1.644.127-1.578-.505.86-.925.992-.642 1.783.067.745.75 1.432 1.508 1.423-.081-.038-.229-.1-.287-.132zm-1.384-.247c-.704-.647-.512-1.775-.556-2.564.518-.747.783-1.097-.013-.25-.735.975-.168 2.616.845 3.127l-.276-.313zm3.32.026c.595-.122-1.181-.732-.669-1.518-.207-.336.566-2.003.052-1.104-.243 1.078-.407 1.04-.149-.019-.578.741-.652 1.9.282 2.393.873.606-.9-.289-.769-.826-.46-.452.595-2.07 0-1.439-.313.604-.639 1.064-.426 1.398-.059.663.994 1.29.083.646-.518-.816-.292-1.818.074-2.638-.698 1.225-.066-.075-.608.725-.531 1.313-.05.743-.06 1.206.139.96 1.43 1.375 2.194 1.176zm-3.978-.362c-.493-.832-.385-1.95-.059-2.83.41-.285.365-.72-.325-.082-.878 1.244-.176-.269-.339-.2-.557.338.997-1.442.108-.594-.549.526-.817.84-.793 1.613.079 1.32.067.066.326.302.046-.615.177 1.803.307.917-.087-1.314.245-.995.288.099-.14.268.982 1.61.487.775zm4.908-.064c.038-.26-1.484-.535-1.22-1.467.215-1.275-.259-.24-.355.408-.021.736.9 1.453 1.575 1.059zm.424-.25c.433-.12-1.212-.555-.919-1.345-.013-.816.532-1.9-.126-.557-.525 1.442.05-.702-.273-.287-.396.794-.283 1.986.743 2.17.106.083.57.173.575.019zm.754-.59c.966-.834 1.763-2.002 1.865-3.304-.48.824.359-.84.152-1.196-.223-1.221.461-.562.99-1.11.526-.58 1.335-1.62.508-2.275-1.23-.216-1.49 1.32-1.518 2.238.02.565-.359 1.366-.51 1.249.021.402-.825 1.827-1.026 1.273.1.299-.919 1.57-.698.789.238-1.513-.337 1.283-.415.274-.364 1.136-.402.44-.102-.371-.148.226-.952 1.307-.75 1.955.147.69 1.03 1.072 1.504.478zm2.278-6.064c.537-.482-.023-1.083.7-1.546.866-.117.607 1.266-.045 1.402.597-.244.672-1.43-.12-1.044.284.214.329 1.254-.535 1.228v-.04zm-9.748 3.732c.122-.062 1.16-1.508.29-.544-.487.396-.892 1.893-.29.544zm10.293.1c.506-.621-.862-1.867-.322-.775.164.258.027 2.131.322.774zm-10.354-.457c.026-.187.13-.17.673-.876-.67.373-.548.287-.975 1.022-.392 1.226-.02-.111.302-.146zm4.81.208c.562-.38.898-1.129.191-1.553-.702-.287-1.595-.457-2.25-.017.14.284-.01 1.109.788 1.266.9-.141 1.025.108 1.272.294zm-1.422-.851c-.682-.575-.46-.972.46-.816 1.209.133.88.278-.134.054-.955.303.332.864.945.585.448.222-1.166.476-1.271.177zm1.498-.091c.27-1.502.229.544 0 0zm-5.167.319c.39-.325.708-.993-.067-.061.622-.743.725-1.148-.041-.224-.184.536-.26.575.108.284zm.272-1.198c.378-.887-1.252 1.698-.379.497.13-.16.207-.383.379-.497zm6.58.693c-.02-.595-.96-1.225-.422-.244-.074.26.223.218.422.244zm.519-.322c-.108-1.063.63.83.449-.278.313-.252.65.03.693-.56.247.297.262-.917.624-.877-.165-.645.475-1.548.108-2.02-.882-.158-1.563.12-1.56 1.114-.404 1.692-3.047 1.453-3.506-.072.325-.8-.84-1.598-.919-.562.027 1.044-1.178 2.334-2.173 1.54-.749-.859-.41.775-.109 1.146.775.001.517.929.737.31.571-1.145-.084.996.247.192.645-.778-.435.244.374-.682.311-.025-.357-.108.393-.415.032-.766 1.018.453 1.58-.204.749.445 1.201-.135 1.69.914.592.382-.497-.87-.443-.882.44.642 1.267.857 1.689 1.373.135.428.235.328.126-.036zm-3.74-1.407c-.495-.398 1.624-.296.247.044-.073.057-.178-.02-.248-.044zm-1.55-.38c.768-.254.964-1.14.886-1.857-.242-.218-1.168-.843-.92-.723.551.274 1.385.548.567-.256-.659-.295-2.037-.429-1.876.63.019.784-.42 1.845.555 2.186.242.156.573.183.788.02zm-.388-1.304c-.766-.76.43-.797.563-.122.253-.953.891.246-.01.43-.297.08-.379-.125-.555-.308zm5.06 1.28c.708-.272.959-1.137.822-1.833-.854-.248-.373 1.186-1.131 1.434-1.231-.215-.423.093.198-.372.164-.511.207-1.674-.474-1.646-.641-.771 1.342.317.332-.069.69.53 1.567.086.365-.294-.858-.375-2.441-.25-2.484.978-.36 1.325 1.265 2.37 2.372 1.802zm-1.044-1.033c-.928-.495.263-1.686.316-.387.804-.201.392.815-.315.385zm-5.28-.983c-.732-.332.256 2.101.068.666-.059-.185.15-.575-.068-.666zm.161-.39c-.454-1.182-.36 1.356 0 0zm3.74-.084c.207-.929 1.45-.938 2.201-.849.825.31 1.267 1.451 2.3 1.086 1.092-.032.248-1.02-.298-1.288-.526-.57-.77-1.336-.732-2.106-1.966-.14-3.94-.127-5.891-.444-1.078.032-.977 1.353-1.22 2.123-.312 1.357.437.405 1.251.552.913-.126 1.05 1.002 1.54 1.176.273-.088.912.222.848-.25zm2.797-.917c-.633-.416-1.325-.264-2.027-.285-1.042-.546.658-.76 1.187-.622.584-.06 1.44.685 1.375 1.068-.183 0-.362-.113-.535-.161zm-6.338-.12c-.028-1.045 1.45-.906 2.094-.724.565.677-.82.564-1.212.523-.348-.271-.981.794-.882.201zm10.821.646c.385-1.093-.392-2.05-1.312-2.561-2.09-1.196-4.308-2.46-6.733-2.683-.863.17-1.622.645-2.192 1.308 2.09-.719 4.38.01 6.302.894 1.498.724 2.212 2.327 3.466 3.362.155.341.453-.14.47-.32zm-.93.234c-.89-.689-1.726-1.56-2.315-2.46.248.703.908 1.19 1.197 1.826-.194-.496.715.605 1.146.761.333.108.106-.02-.029-.127zm2.235-.46c.727-.882.277-.476-.24.153-.734.717.087.259.24-.152zm.638.39c-.014-.038 1.024-.209 1.248-.85 1.123-1.59.695-4.251-1.271-4.932-1.167-.473.11.94.108 1.456.245 1.329.318 2.799-.239 4.07-.092.02.016.512.18.283zm-.7-1.631c.717-2.27-1.044-4.404-2.802-5.634-1.633-1.058-3.89-1.8-5.696-.764 1.88.376 3.923 1.36 5.294 2.469.565.523.428.335.96 1.025.703.894.711.677.05-.059-.857-.944.423.306.648.73.277.49.386.517.414.731.37.589.904 1.683.36.466.128-.217.56 1.208.418 1.687.124.067.31-.458.355-.651zm.618-1.034c.298-1.165-.262-2.566-1.035-3.547-.787-1.202.65.88.2-.263.524.419-.263-1.156-.65-1.278-1.437-1.429-3.685-1.742-5.581-1.204 2.902.526 5.957 2.277 6.744 5.301.177.227.14 1.644.322.991zm-2.232-.045c.113-.83-.967-1.563-1.476-2.258-1.666-1.637-3.982-2.942-6.383-2.673-1.12.568-2.436 1.147-3.235 2.032.31.31-.352-.171-.458.56.36-.582-.346.705-.02 1.202 0 .582.998 1.488.71.881.114-.054.363-1.105.658-1.47.287-.267.652-.551 1.32-.841 1.625-.751 3.378.082 4.94.63.834.365 1.634.878 2.487 1.156-.524-.533.773.268.87.407.1.037.678.568.587.374zm-2.267-1.247c-1.317-.917.945.4.28.183l-.28-.183zm.291-1.196c-.87-.55-.642-.544-.104-.268.417.367 1.123.97.104.268zm-2.653 1.865c1.227.022-.704-.372-1.127-.515-1.317-.338-2.896-.836-4.134-.076-.89.783.339.258.851.25 1.46.19 2.953.453 4.41.34zm-7.82 43.222c.045-2.568.151-5.136.309-7.7.048 2.717-.253 5.442-.172 8.165-.282.09-.078-.33-.136-.465zm6.108-4.306c-.066-1.761.07-3.54-.13-5.289.328.485.151 1.537.227 2.241.03 2.607.058 5.213.086 7.82-.337-.498-.06-1.615-.163-2.349-.01-.808-.014-1.616-.02-2.423zm-7.89 3.146c-.014-.827.056-1.65.113-2.475-.06 1.137.023 2.33-.122 3.435 0-.32.01-.64.01-.96zm-27.501-1.648c.354-.434 1.966.389 1.776-.614.179-.801-1.044-1.03-.884-1.925-.131-1.801.282-3.706 1.236-5.252.616-.03 1.139-1.272 1.282-.736-.88.196-.179 1.357.525 1.53.842.533 1.132.721 1.64-.24.83-.576-.756-1.467-.42-.456-.144 1.19-.954.394-1.524-.112-.984-.927.144-.088.546.335.479.858 1.077-.531.494-.688-.505-.023-.777-.392-.849-1.016-.517-.239-1.067-.923-1.161-1.637-.207-.998.302-2.167 1.42-2.252.972-.184 2.073.29 2.779.933.708.701-.52.978-.348 1.588-.267.566.136 1.155-.48 1.736-.94.671.534.762.56 1.656.311.462.342 2.001.407.613.17-.936.3-1.238.998-1.717.415-.246.34-1.196 1.116-.713-1.073.171 0 .486.437.955.513.97 1.03-.776.173-.743.071-.7-.706-1.14-1.341-1.177-.847-.38-.925-1.639-.804-2.447.096-.905 1.237-.988 1.594-1.425.487.245 1.196.24 1.893.614.654-.174 1.387.907.718 1.179-.326.191.078 1.463-.408 1.378.075-.798.202-1.643-.873-1.433-.794-.704-.224.955-1.192.89-.32.313-.56 1.286-.792.234-1.065-.314-.049 1.447.367.793.375.456 1.185.968 1.864.608.718-.577.75-.677.402.287-.52.563-1.041.693.026 1.05.524.606.81 1.374.981 2.148.372-.66.749-1.18.683-1.9.585-.372.894.165.128.083-.105.94.844 1.438 1.344 2.097-.59-.22-1.174-1.56-1.69-.724-.376.394-.346 1.958-.145 1.832-.282 1.084 1.315.675.83-.213-.125-1.347.168.108.115.693-.01.89-.301 1.636.917 1.192.742-.036 1.414-.432 1.62-1.172.838-.377-.05-1.335-.149-1.954-.391-1.36-.796-.54-.494.397.185.545.531 1.916.218 1.989.01-.857-.231-1.692-.443-2.516-.84.87-.637.581-.073-.222.236-1.17-.078-.806-.45.01-.46-.162-1.265-.919-1.165-1.188.367.396 1.117 1.634 1.361.469-.162-.624-1.303-.612-1.31-1.475-.626-.174-1.111-.944-1.033-1.707-.181-1.434 1.715-1.874 2.773-1.414.636-.092 1.747.697.846 1.072.188.607-.28 1.233-.173 2.003.077.76-.863.81-1.172 1.03 1.214.598 1.465 2 1.79 3.185.594-.556 1.043-1.449 1.985-1.184 1.242-.224.09.885-.21 1.316.675.526-.365.901-.328 1.51-.283.674-.964 1.24-1.68.762.169.57.01 1.57.337 1.945l7.683-.03c-.12.665-1.476.096-2.072.285h-22.182zm5.901-.465c-.026-.754-.018-1.814-1.047-1.159-.857.33-1.902.284-2.699-.133-.01.63-.493 1.927.604 1.591 1.06.025 2.124 0 3.183.064-.014-.12-.025-.243-.04-.362zm.86.33c-.163-.482.223-1.856-.518-1.791-.425.16-.4 1.85.162 1.823.107-.032.271.055.356-.032zm.636-.33c-.056-.587.436-1.871-.525-1.498.225.535-.31 1.842.458 1.86.064-.06.03-.264.066-.362zm3.213 0c.045-.934-.485-1.946-.01-2.808-1.005-.376-.902 2.04-.97 1.07-.318-.842.623-1.085.988-1.566.352-.672.905-1.288.476-2.06-.22-.693-.297-2.007.05-.581.271.415.17 1.893.63.874.418-.644-.667.01.168-.576-.292-.75-.514-1.598-1.14-2.142.344.543-.568 1.824-1.194 1.215-.697-.063-1.033-1.33-1.717-.93 1.093.993.708 2.596.762 3.902-.605 1.108.618.432 1.05.975-.754-.196-2.168.11-1.446 1.038.501.714 1.777-.01 2.138.668-.949-.011-2.033.032-2.617-.873-.261.608-.151 1.465-.155 2.125.96.09 1.991.013 2.978.039.01-.12-.014-.256.01-.37zm1.009.104c-.173-.67.186-1.901-.905-1.732-.098.51.013 1.358.105 1.99.214-.114 1.089.258.8-.258zm1.044-.62c.158-.697-.101-1.694-.828-.913-.176.237-.246 1.595.165 1.79.835.086.63-.194.663-.877zm2.75.78c-.044-.651.085-1.843-.908-1.214-.793.173-1.859-.601-1.618.655-.287 1.1 1.108.476 1.716.594.265-.015.564-.01.81-.036zm.832-.402c-.123-.842.113-.949-.374-1.356-.718.114-.483 1.71-.09 1.788.42.016.642.082.464-.432zm-14.343-1.12c-.27-.88.915-1.188.885-2.052.192-.27-.071-2.312.192-1.183.174 1.11.193-.817.01-1.17-.123-.428-.66-1.887-1.039-.908-.725 1.607-1.148 3.521-.63 5.245.364.539.257-1.782.27-.154-.23.423.575 1.17.314.223zm1.923-.016c-.178-.921.208-1.25.097-.112.622.747.087-.952.73-1.137-.292-.12-1.38.184-1.99.06-.729.436-.927 1.288.179 1.233.214-.01 1.083.247.985-.044zm11.045.01c.725-.29 1.309-.82 2.152-.502-.503-.425.066.148.646-.601.73-.982-1.31-.181.128-.644.117-.619-1.2.35-1.672.224-.585.02-1.4.205-1.345.727-.087 1.022-.543.911-.26-.096.779-.731-.636.014-1.1-.247-.61.099-1.015 1.017-.054 1.194.487.06 1.031.121 1.505-.055zm-9.645-.229c.789-.275 1.694-.246 2.455-.45-.534.037.34-.3.177-.446-.234.196.8-.972.653-1.55.186-.725-.256-1.387-.44-2.066.42.739.58 1.53.437.19-.035-.523-.238-1.62-.91-1.457-.48.42-.335.999-.534 1.837.02.557-.053 1.794.4 1.914 1.338-.204.394.029.059.168-1.375.597 1.317-.159.493.21-.411.172-2.223.558-1.323-.02.748-1-.072-.814-.4.089-.286.839-1.648.065-1.815 1.086-.082.824.01.715.747.496zm6.836-.212c.58-.254.165-1.166-.417-1.125-1.352.44.603-.314-.609.04-.156-.144-.798 1.196.062 1.099.309-.033.7.126.965-.014zm.789-.31c.157-.229.994-1.831-.018-1.255-1.108.52.081.14-.517.644.186.214.166.938.535.611zm-8.382-.734c.596-.023 1.908.29 1.664-.833-.052-.924-.48-1.906-.305-2.799.163.796.321 1.633.58 2.18.161 1.155.7-.556.301-1.016-.107-.539-.44-1.701-.726-1.77-.311.527-.875 1.684-1.54.939-.762-.127-1.108-1.052-1.76-1.225-.647.316.509 1.067.458 1.674.401.988-.109 1.967-.317 2.922.545.083 1.104.014 1.645-.072zm7.107-.298c.958-.425.325-.213.678-.761-.613-.038.103-1.227-.379-1.161-.291.74-1.065 1.069-1.128 1.866-.113.573.611.01.83.056zm4.878-.054c.591-.526.712-1.663-.074-.553-.391.345-.821.99.074.553zm.958-.256c.726 0 .483-.378 1.09-1.084.903-.638-1.283-.686-1.293.017-.143.541-.632 1.275-.292 1.281.127-.151.319-.163.495-.214zm.877.1c.487-1.025-.85.263-.01.01zm-11.913-.702c-.315-2.02.048 1.543 0 0zm3.917-3c.761-.721.041-1.428-.186-.213-.526.327-1.168-1.291-1.681-.767.135.416 1.13 1.323.994 1.068.484.3.497.536.873-.087zm4.948-1.078c.693.065.89-1.404.198-1.184-.222.092.927-.431.282-1.036-.389.486-1.389.423-1.496.244-.236.383-.675 1.886-.855.829-.871-.663-.652 1.145.19.674.427.26 1.095.942 1.684.467zm-.888-.738c.546-.53.43-.128.046.115zm-.09-.499c.623-.337.924.23 0 .061zm-8.138.573c.214-.712.166-1.3.255-2.011.4-.836-.666.564-.936.409.623.683-.7-.154.179-.282.404-.963-.176.132-.673.265.836-1.115-.279-.334-.47.265.111 1.328-.59-.797-1.073-.015-.66.78.52 1.108.857.905.18.57 1.143 1.412 1.495.72-.717.469-.024-.81.166-.075-.198.395-.501.951.2-.181zm-2.58-.817c.13-.789.066-.268.244.157-.098.066-.191-.038-.243-.157zm6.13-.601c.13-.649 1.204.159.286-.145-.53.03.31.383-.286.145zm-.097-.51c.636-.498 1.459.141.27-.01-.026-.017-.273.101-.27.01z" style="fill:#1d1625;stroke-width:1" transform="translate(2893.752 -2061.183)"/></svg>