<svg xmlns="http://www.w3.org/2000/svg" width="200" height="200.046" viewBox="0 0 52.917 52.929"><path d="M-3009.55 2175.819c-2.72-.924-2.674-4.371-2.847-6.738.288-2.02.183-4.968 2.633-6.248 1.043-.194 1.065-3.26 2.708-1.949-.032 1.868 4.317 1.996 1.814.173-.908-.821-1.931-2.585-2.809-1.477-.881.184-1.538-.385-.904.4-2.253 1.436-4.289-1.248-3.432-3.402v-2.979c2.416-.997.814-5.875 4.66-5.056 1.464.543 1.787-2.433 2.27-.472 1.836 1.542 2.345-.504.318-.858-1.774-1.751-5.202-1.51-4.873-4.778.128-2.321-.184-5.41 2.238-6.695 2.857-1.633 6.629-.22 8.422 2.314 1.463 2.387-.126 5-.251 7.522-.612 1.563-2.223 2.28.176 2.866 1.54.513 2.628 3.33 2.76.332.718-2.176 1.578-6.19 4.615-5.596 1.629 1.112 1.961 3.62 4.282 3.948 2.86.936 6.235-.041 8.01-2.52 2.217-2.88 4.23 1.114 4.804 3.12 1.26 3.362 1.993 6.903 2.654 10.418.488 3.439-3.724 5.029-5.523 5.558.487 2.675 3.894 3.194 5.908 3.973 1.84-2.14.01-5.244 1.131-7.645.55-1.38 3.294-5.544 3.659-2.201 1.23-.528 3.986-2.548 1.582-3.28-1.817 2.383-5.532 1.795-5.88-1.432-.03-2.213-.388-3.895-1.778-5.473.418-2.63 3.42-3.8 5.65-4.59 3.305-.976 5.436 1.872 6.73 4.27 2.128 1.319 1.89 4.918.495 6.68-1.808.722-1.135-1.232-2.286-1.236.05 1.302-3.646 1.875-.952 2.983.762 2.736 5.002 3.132 3.835 6.583-.909 2.627.629 5.276.039 7.926.184 2.362-1.237 4.36-3.307 5.038-1.507 1.969-4.644-.094-6.485-1.02-1.234.415-2.484-2.618-2.452-.197.204 1.123-.807 2.366-.353.523.092-1.028-1.317-2.53-1.193-2.922-1.508.15-4.643-3.163-3.471.334.418.882.683 5.418.061 2.432-.054-1.303-.407-5.056-1.455-4.56.15 1.958.695 3.938.345 5.899.23-1.83-.823 1.458-1.124-.498.42-1.22-1.26-5.419.683-4.088.319-2.477-1.193-4.455-2.208-6.34.575-.99 2.705-.1 1.197-1.538-1.803-1.126-2.993-3.768-5.02-1.364-.271 2.132 0 4.39-.047 6.58.012 2.369.385 4.759.5 7.087-1.871.096-.316-3.5-.764-4.933.04-3.09.06-6.182.091-9.273-1.272-.634-4.023-.54-4.614-.154.105 3.242-4.8 2.69-3.698 5.889-.528 2.602-.973 5.217-1.264 7.87-.757 1.409.1-2.386.1-3.209.049-1.218 1.27-5.414-.068-2.491-1.245 2.035-2.121 4.272-4.136 5.575-1.503 1.111-2.995.556-2.582-1.466-1.518-.649-3.4 2.47-5.34 2.637-1.679-.279 1.858-.929-.496-.402-.9.192-1.854.463-2.76.15zm45.595-.06c-.908-.526-2.97-.558-.883-.095l.33.063zm-33.259-2.208c.118-1.532-1.526-.747-.23.014-.25.062.497.082.23-.014zm-9.214-.09c1.359-.517 3.325-.989 3.449-2.746-.364.958 1.375 3.056.196 1.032.884-2.763-3.31.664-2.768-.718-.92 1.017-1.571 1.137-.619-.218-1.16.476-2.95 3.28-.258 2.65zm42.852-.27c1.84-2.157-2.32-1.987-3.203-2.66 1.768 2.324-2.366-1.625-1.145.386-1.63-1.638-2.895-.641-2.554 1.271.58 2.028 1.042-2.026.587-1.672.625 2.747 4.044 2.927 6.315 2.676zm-44.427-.473c-.837-2.169 3.335-2.222 1.101-4.31-.682-1.389-2.996-6.053-3.916-2.757 1.058 2.158.578 5.963 2.815 7.067zm46.095-.393c1.039-2.604.027-5.473.635-8.169-.074-1.191.125-2.345.303-.455.6 1.079-.079-2.979-.8-2.758-2.066.06-1.491 2.792-2.745 4.224-.41 2.161.093.288.8-.34-1.665 2.198-.78 4.593.992 6.24.18.425.19 1.242.815 1.258zm-39.52-.275c1.444-.963-1.734-2.743-.697-.615.47.989-1.116-1.812-.243.503.183.335.675.356.94.112zm36.651-.985c-.932-.772-1.936-1.128 0 0zm.925.062c-.599-.686-.458-.548 0 0zm-40.543-.587c1.853-.032 4.673-1.043 2.788-3.257-.416-1.026-1.325-5.25-.916-2.211-2.051-.368-.127 4.946-1.002 1.442.12-1.692-1.366-1.245-1.944-1.156-.83-1.05-.026 1.826-.337 2.474.088.994.05 2.654 1.41 2.708zm33.502-.171c.421-.882-2.073-.347-.162-.095-.114.073.383.434.161.095zm-30.142-.168c.892-.107 1.364-2.05.29-.496.07-.047-.947.778-.29.496zm25.819-.033c1.789-.419.902-.56-.377-.24zm7.855-.066c1.801-2.348.292-4.44.927-7.402.126-1.394 1.456-3.922-.514-1.795-1.551.293-1.56 4.272-1.852 3.843.608-1.475.336-5.504-1.07-2.505-.45 2.2-1.998 4.502-.99 6.736.822 1.528 1.78.038 1.62-.918.217 1.353.056 2.212 1.88 2.04zm-1.785-2.451c-.01-1.254.523-2.06.22-.343-.308-.341.02.66-.22.343zm-25.597 1.629c-1.967-.03.436.597 0 0zm-1.97.056c-2.028-.284-1.089-.107-.734.065.237 0 .538.099.733-.065zm22.24-.876c-.881-1.883-4.981-4.39-5.303-3.53 2.644-.562 4.642 3.628 5.801 4.018-.15-.179-.333-.324-.498-.488zm2.495.081c-.16-1.406-2.716-.703-.666.093.184.275.793.473.666-.093zm-26.114.307c.493-.493-.909.164 0 0zm-1.894-.319c2.92-.14.587-5.926-.888-4.678.442 1.398.612 3.61.888 4.678zm1.257-.226c1.884-.17.369-.599-.46.166l.182-.049zm2.227-.852c1.087-1.372 4.034-.689 3.443-3.25-.367-2.408-4.05-.384-5.462-.6-.517 1.198.582 5.76 2.019 3.85zm.684-.113c1.227-.017 3.571-.167 1.08-.311-.118.016-1.554.196-1.08.311zm20.215-.456c1.094-.367-.919-.166 0 0zm-32.28-1.421c.521-.814-1.85-2.69-.713-.852-.076-.052 1.077 1.367.712.852zm3.043-.723c1.799-2.187-3.515-3.01-3.018-3.902-1.731.314 2.904 2.617-.09 1.31-1.062.119 2.372 1.68 2.459 2.852.14.544.74.198.649-.26zm2.067-.414c.618-1.386-1.822-3.912-1.233-1.207-.293.45 1.276 2.245 1.233 1.207zm37.785-1.137c.328-1.844 3.403-3.636 3.173-4.596-1.924-.367-4.21 3.116-3.173 4.596zm-39.027-.568c-.025-1.037-.162 1.902 0 0zm11.883.17c1.387-.594-.393-4.57.842-4.143-1.531 1.525.982 5.533 1.566 2.637-2.205 2.99-1.18-2.195-1.504-3.079-1.462-.365-4.014 1.237-2.713-.26-1.577-.334-3.5 3.145-1.852.39 1.615-.61 1.224-1.34-.261-.625-.846.511-2.74 3.223-1.698.822 1.07-.884 2.39-1.689.18-.759-1.194.04 2.17-1.222 2.574-1.082 2.124-.028-2.02-3.594.475-1.85 2.414 2.63 1.058-1.786.329-2.929.498.956 1.524 2.311.672.34-.023-.42.71 1.473.276.015 1.645 2.12-.032-2.26.093-3.275-.233-1.133-.567-5.424-.082-2.185.275 1.825.83 5.668 1.107 6.2-.379-1.778-.553-5.413-.195-6.158.473.256.286 1.65.145 2.948.51-1.716 1.353-7.367-1.742-5.807-2.54 2.622-2.569 6.53-3.777 9.796-.73 2.5-2.661 6.47.56 8.003.99 0 4.74-.443 4.217.54-1.184.738.358.606.787.462zm-.058-.315c-.614-.98 1.11.11 0 0zm-1.423-3.305c1.252-.502 1.17.332 0 0zm-.531-4.116c-1.243-.94.638.281 0 0zm-1.037 7.583c-1.567-.492-.82.271.09.08zm18.466-.09c-.268-1.724 3.146-.039 2.27-2.323-.071-1.42 1.98.283.626-1.096-1.911-1.886.423-.41.972.576.514-2.604-.553-5.265-1.189-7.785-.842-2.673-1.217-5.783-3.405-7.742-2.52-.809-3.12 3.3-5.722 3.28-2.572.53-.798 4.816-1.234 6.922-.317 1.859.128 2.486 1.96 2.566 2.397 1.636 4.802-.27 4.118-2.986.353-1.553-1.128-5.74-.722-5.739.23 2.063.876-4.323.607-1.114-.458 1.522.55 2.751.404.5.081-1.171 1.048-2.673.406-.57-.415 1.222-.492 5.321.389 2.054-.318 1.174-.5 1.971.04.287 1.594-3.597-.949 2.876-.232 2.377.711-2.52-1.198 5.318.531 2.26.673-.981.835-5.708.984-2.36.53 1.393-1.92 4.335-.85 4.34.483-.808 1.696-5.027.807-2.05-1.37 2.257 1.585.749 1.042.996-.894.612-3.451 2.431-.835 1.09.618-.428 1.819.479.58.618 1.16-.377 2.73 1.189.725.352-1.373-.576-3.613.277-.906.084.73.051 3.221 1.832.984.834-1.126-.438-2.783-1.017-.781.196 1.593 2.205-1.408-1.378-2.68-.528-2.702-.372-.23 2.24-1.211 3.828-.21 1.418 1.381 1.391 2.321 1.133zm-2.096-.41c.173-1.156.988.668 0 0zm2.283-3.524c-2.215-.949-.092-.658 0 0zm-5.27-2.53c-1.933-1.116-1.384-6.322 1.356-5.481 1.868.594 2.537 5.08.065 5.728-.487-.015-.934-.215-1.421-.247zm2.09-.185c1.383-1.386.017-2.39-1.265-1.763-3.326-1.833-1.328 3.344 1.264 1.763zm-.998-1.95c-2.113-1.224-1.023-.586.394-.01 1.802-.255 1.259-2.275-.38-1.619-2.579-.455-1.876 1.337-.014 1.626zm1.043-.583c1.406-1.242-.903.962 0 0zm-.069-1.272c1.343-2.61-5.215-.62-1.394.052.463 0 .942.092 1.394-.052zm11.217 9.761c1.076-1.783-.126-.927-.137.399zm-21.914.094c1.148-1.344-.857.464 0 0zm11.045-.12c.462-2.295 0-1.467-.716-.05-1.035-.516-1.723-.862-.507.253.414.089.86.01 1.223-.204zm11.257-.145c.437-1.562-.334.928 0 0zm-34.236.131c.17-.689 2.874-.75 1.719-2.16-.45.303-3.637 2.639-1.719 2.16zm.025-.902c1.56-.342 2.035-5.261 1.294-1.726.097 1.01-3.459 2.657-1.294 1.726zm35.627-.385c.276-1.305 3.493-2.37 2.79-3.211-1.193.368-2.621 1.296-.741.039 1.478-.191 1.009-2.115.522-1.45-.616 1.674-5.573 1.995-2.57 4.622zm-36.673-.27c1.796.073-2.117-1.015-.544.119-.189.064.857.184.544-.12zm34.67-.538c1.491-.573.9-4.578-.101-1.828-.23.292-.977 3.504.1 1.828zm.669-1.279c-.53-2.079.108-.822 0 0zm-15.834 1.274c1.748-1.722-2.07-.063-.254-.414-.291.359-.26.557.254.414zm4.262-1.291c-1.606-2.121.458 2.141.127.532zm-8.606 1.183c.507-.386 1.835-.019.486-.521 2.319-.4-1.398-.247-1.996-.317-1.005-.237.238-1-.87-.1.444.664 1.632.86 2.38.939zm-13.985-.31c-2.176-.051.469.112 0 0zm5.46-1.484c-.924.298-.571.905 0 0zm15.931.559c-.328-2.11-3.29.05-.727.117l.372-.024zm-9.834-.402c1.885-2.363-2.397-.125 0 0zm-1.713-.31c.445-3.402-1.765 1.202 0 0zm7.534.24c-.99-.579-1.656.188 0 0zm-4.336-.684c.166-1.753-.588-4.157 2.333-3.446 2.219-.586 2.321 4.941 2.143 1.625.012-2.572.424-5.214-.313-7.725-1.938.904-5.793-3.112-5.283.584-.094 3.146.02 6.298.309 9.432.36-.011.424-.533.811-.47zm3.73-4.564c-.262-1.728 1.662.418 0 0zm-.03-3.368c-.615-1.596 1.809.104 0 0zm-3.313 8.165c2.142-.426.27-.579-.653.163l.26-.097zm4.983-.31c.385-.894-.783.312 0 0zm-20.472-.064c-1.455-.772.706.67 0 0zm12.945-1.427c-.12.625.102 1.864 0 0zm4.84 1.354c-.669-.808-1.363-.149 0 0zm-22.666-3.096c.117-3.128 3.596-5.755 6.479-3.896-1.577-1.537-4.92-.905-5.849 1.368-.654.954-1.196 4.802-.956 4.106.06-.534.168-1.075.326-1.578zm2.704 2.394c1.216-.494-.608-.222 0 0zm2.558-.135c1.346-.822-1.945-.448 0 0zm3.204-.58c-1.054-1.295.373 1.788 0 0zm-4.296-.043c2.034-.456-.29-1.364-.338.286zm36.512.155c-1.658-1.158-1.113.452 0 0zm-33.675-.301c.382-1.17-.926.428 0 0zm16.498-1.083c-1.003-.637-4.256.223-1.561-.162.492-.151 1.172.36 1.56.162zm-25.227-1.094c-.642-.828.334 1.176 0 0zm12.45.067c.453-1.806-.727-1.144 0 0zm-.825-2.91c-.127 1.172.118 1.325 0 0zm1.863.636c-.387-1.834-2.072-1.733-.814.016.36-1.3.975 1.367.814-.016zm32.65.276c.776-1.286-.402.084 0 0zm-36.429-.453c1.416-1.82-1.934-1.078 0 0zm-.606-.673c.036-.966.584.12 0 0zm34.077.215c-.785-.662-1.718-.594 0 0zm3.522-.4c-.893-2.223-1.358-5.456-4.067-6.13 2.347.995 2.907 3.357 3.65 5.533-.01-.185.315 1.024.417.597zm-.515-.497c-.892-1.495.728 1.846 0 0zm-37.344.268c.256-.527 1.008-2.33.395-.687 1.713-2.34-4.124.045-.696.74.062.145.326.116.301-.053zm2.862-.028c.104-1.553-.365.596 0 0zm-6.091-.917c-.526-.957-1.267-1.515-.638-.036-.046.073 1.076.436.638.036zm40.118-.438c-.112-.94-1.688-3.659-.67-1.398.06.018.846 2.54.67 1.398zm-37.89-.836c.149-1.892-.807-.045 0 0zm1.424-.783c.417-.579-1.672.646 0 0zm1.55-.85c.823-1.9-.868 1.45 0 0zm-1.324-.71c.098-.817-1.148.745 0 0zm1.798-2.2c.684-1.383-1.906-.795-.16-.569-.546.922-1.398 2.16.137 2.119.063-.516-.062-1.034.023-1.55zm-3.931 1.636c.152-.841-2.585-.077-.34.223l.197-.075zm-.435-1.6c.028-.233-1.354.36 0 0zm-3.27-1.862c.077-1.2 2.408-3.817 2.109-3.494-1.461.76-2.29 3.273-2.3 4.103l.08-.246zm1.12-2.805c.475-.773 2.948-2.228.87-1.124-.896.32-2.295 3.409-.87 1.124zm3.08-1.436c2.475-.359-2.232.044 0 0zm.172-.381c.405-.207-1.51.265 0 0zm11.746 38.961c.127-3.913.216-8.217 1.395-11.782-.223 4.076-.548 8.15-.569 12.234-.32-.018-1.115.157-.826-.452zm5.443-.605c.036-4.07.164-8.138.322-12.205-.25-1.444.87.354.088.921.074 4.115-.156 8.227-.227 12.34-.493-.085-.02-.76-.183-1.056zm4.003-.234c.13-2.465.195 2.758 0 .099zm-4.756-27.97c-2.641-.247-5.495-3.07-4.027-5.747-.582-2.455-2.005-4.678-2.015-7.288-.282-3.656 2.762-7.207 6.503-7.13 3.566-.096 7.033 3.325 6.152 6.978.64 3.342-1.302 6.555.58 9.482-1.358 2.419-4.391 4.046-7.193 3.705zm.336-.897c-1.776-.244-3.756-3.418-4.425-3.256.689 1.782 2.402 3.403 4.425 3.256zm3.606-.802c1.122.045 3.46-2.447 1.017-1.073-2.491 1.543-5.996.653-7.372-1.953-1.766-1.771.342 2.064 1.399 2.134.778.928 3.732.806 3.599.874-1.172.019-2.816.043-.742.24a6.379 6.379 0 0 0 2.099-.222zm-.055-.23c1.431-.894 1.614-.638 0 0zm-.706-.726c.863-.577 4.358-.98 3.114-2.33-.635 2.153-4.572 1.758-5.162 2.225.663.2 1.367.183 2.048.105zm1.428-.369c1.55-.641-1.436.426 0 0zm-2.34-.859c3.283.087 4.699-5.79 4.044-6.36.1 2.962-1.937 6.196-4.969 6.322.434-.227 1.254.737.924.038zm-.282-.313c-.51-.299-1.667.11-.482.07zm-1.75-1.615c3.103-.703 4.405-5.5 2.084-7.633-1.426-1.54-4.331-3.371-5.988-1.158-1.289 2.4-1.272 5.883 1.017 7.71.715.78 1.803 1.384 2.887 1.08zm-1.31-1.051c-3.645-1.72 4.15-1.485 1.04-.09-.29.185-.732.282-1.04.09zm1.06-.412c.205-.733-2.206.586 0 0zm-.802-.92c-.746-.45-4.26-.515-1.735-.78 1.318-.548 4.618.293 4.484.506-1.127.114-1.742-.222-2.75.275zm-2.418-2.1c-3.388-2.47 4.051-1.429.36.098zm.155-.368c-.595-1.322-.34.658 0 0zm.661.069.157-.2zm2.653.249c-1.774-.534-.664-3.794 1.349-2.517 2.5.762-2.896.723-1.29 1.255 1.239-.778 3.041.475 1.118 1.24-.343.245-.822.227-1.177.022zm1.097-.235c1.018-.957-1.234.461 0 0zm-.791-.125c-.019-1.383-.5.526 0 0zm-2.356.163c.797-.906 1.494.525 0 0zm-.695-1.55c-2.262.493-1.588-1.636.2-.656.68.227.584.837-.2.655zm7.101 4.552c1.42-.43.953-2.548.267-.519-.369.502-1.262 1.84-.267.519zm1.653-4.398c1.149-3.385-1.229-7.562-4.913-7.83-2.476-.72-6.176 1.917-6.218 3.35 1.518-1.984 4.56-3.062 6.41-.899.67.86 2.527 2.804 1.535.467-.543-1.595.89 1.523.188-.806.481-.066.87 3.478.606 4.838-.326 1.631.813 1.87.787.062-.164-.989.174-4.532.886-1.874-.096 1.227-.473 4.085.333 1.74.37-1.1-.959-5.525.088-2.543.397-.267-.236 6.659.298 3.495zm-11.673.472c0-1.098.233-5.757-.234-2.724-.04.885-.201 1.923.234 2.724zm8.402-2.831c-.18-1.579-3.379-4.496-3.97-2.543 1.153 1.086 2.6 1.781 3.97 2.543zm-6.766-1.11c1.186-.587 3.205-2.9.49-1.931-.916.123-2.41 3.983-.49 1.931z" style="fill:#e6b39f;stroke-width:1" transform="translate(3012.387 -2123.04)"/><path d="M-3009.357 2175.857c-2.997-.827-2.815-4.447-2.772-6.916-.579-2.918 1.046-5.296 3.143-6.88.45-2.188 2.053-1.467 2.773-.059 1.173 1.353 2.837-.262.929-.972-.816-.833-2.03-2.467-2.559-1.463-.644.378-1.295-.779-1.553.165.834.914-3.412.812-3.138-1.215.242-2.048-.41-4.677 1.54-6.148-.556-2.72 2.067-4.218 4.282-4.082.817-1.692 1.35-.578 1.887.456 2.401-.088.108-1.426-.851-1.948-2.022-1.162-4.724-1.622-4.376-4.676.052-2.456.226-5.828 3.026-6.716 2.775-1.015 5.971.372 7.65 2.63 1.235 2.441.055 4.674-.236 7.148-.4 1.64-2.142 3.018.324 3.244 1.121.634 2.505 3.268 2.626.512.228-2.445 2.692-7.689 5.516-4.971.957 2.686 3.567 3.72 6.219 3.493 2.478-.145 4.555-1.754 5.997-3.658 2.808-.874 3.707 3.282 4.395 5.305.972 3.258 2.11 6.573 2.128 10.001-.062 3.032-3.923 3.927-5.44 4.58.446 2.702 3.815 3.228 5.84 3.958 1.995-1.98.245-5.104 1.147-7.503.506-1.824 3.337-4.914 3.902-2.497 1.727-.731 2.857-1.903 2.2-3.747-.19-1.142-.947-.306.492-1.319 1.95-.712.113-3.106-.85-1.136-1.368 1.238-.758-2.274-2.65-2.104-1.71-.552-2.962-1.48-2.55-.773-1.159-1.193-1.802-1.215-1.219.517.578 1.112 1.893 2.39.984 3.696.874-2.117-1.742-1.053-.649.58.537 2.775 3.667 2.767 5.513 1.168-1.635 2.83-6.47 1.016-5.805-2.2.861-2.77-3.409-4.58-.641-6.813 2.355-1.756 5.758-3.563 8.59-1.763 1.754 1.438 2.263 3.675 4.145 5.003.065 1.637.526 6.074-2.283 5.081-1.212-.812 1.1.59-.048-.543-.856-1.899-.916 1.154-2.583 1.024-.9 1.207 1.89 2.098 1.943 3.562 2.89.704 3.082 3.81 2.326 6.227.128 2.885.8 5.806.056 8.65-.815.98-3.187 3.957-3.813 1.82.152 2.65-.41-1.45-1.883-.229-1.853-.624.588 1.614-.919.326-1.542-.755-4.148-1.824-5.122-2.24.024 1.33-.855 4.826-.465 1.523-.293-.737-1.867-1.183-.83-2.131-1.642-.017-5.151-3.118-3.898.346.483 1.306.478 5.333 0 1.964-.04-1.207-.43-4.8-1.435-4.214.165 1.534.738 5.371.289 5.37-.138-1.127-.122-3.864-.619-1.342-1.017-.083-1.146-4.696.237-2.525.147-2.478-.861-4.722-2.247-6.651.762-.424 2.767-.611.903-1.733-1.84-.956-2.1-3.152-4.305-1.461-1.215 1.73-.094 4.26-.457 6.358.025 2.352.233 4.71.572 7.027-.917 2.695-.44-5.11-.568-.895.105 1.214-.435 2.162-.29.403.113-4.345.098-8.692.153-13.039-1.924-.49-5.125-1.394-5.203 1.332-.394.942-2.128 3.075-2.853 1.323-.444 2.42-.333 4.916-1.086 7.285-.13 1.096-.352 4.474-.669 3.927-.079-2.186.942-6.06.896-7.099-1.083 1.96-2.303 3.86-3.401 5.74-1.368 1.047-4.374 2.891-3.859-.166-.413-2.85-3.415.789-4.314.987.233-1.73-3.119 1.92-2.462.043-.287.65-.889 1.784-1.72 1.053zm10.186-.891c1.092-.472 3.398-1.81 1.531-2.33-.682-.262.978 2.16-.27.52-1.638-3.313-4.499 3.022-1.261 1.81zm-.747-1.32c.259-1.167 1.233-1.162 0 0zm-5.482.512c1.905-.444 4.077-1.474 2.447-3.495-1.348-.834-5.098 2.715-2.982.121-1.358-.215-2.607 3.522-1.482.747 1.05-1.022-1.445.405.281-.89 2.579-.873-1.147-3.687-1.409-5.328 1.856 1.28-2.588-2.407.052-.604.683 1.38 1.51 2.11.815.083-1.56-2.87-4.457 1.015-2.583 2.892.788 2.301.757 6.31 3.828 6.666a2.75 2.75 0 0 0 1.032-.192zm41.312-.11c2.919-.748 2.85-4.287 3.096-6.697.095-.905-.338-4.534-.078-3.727.02 1.153.63 2.419.41.518.174-.504-1.006-3.286-.04-1.923.263-2.64-3.955-.703-2.718.457-.643.829-1.799 4.401-1.152 3.692.258-1.112 1.293-2.199.401-.47-.497 1.506-1.669 3.806.684 4.11 1.12 1.292.74 1.599-.106.162-1.445-.874-1.584.119-.12.478 1.07 1.24.734 2.004-.1.31-.844-.97-2.164-.953-.69.11-.736-.591-3.456-1.448-1.874.19-.348-.111-2.27-1.738-1.64-.403-1.558-1.758-2.812-.51-2.43 1.263.293 1.831 1.324-1.095.516-1.764.586 1.737-.199 3.34 2.226 3.402 1.166.334 2.41.555 3.614.292zm-8.129-.854c-.165-2.261-1.652-.025 0 0zm-27.735-.697c-.669-2.141-1.466 1.75 0 0zm27.968-.353c-.714-2.048-.367 2.027 0 0zm1.159.432c-1.263-1.436.3.518 0 0zm-25.433-.576c.636-.783 2.55-3.349.564-1.648-1.83-.194-.064.497-.508.691-1.418-.39-1.553-.196-.461.5-1.648-.366-1.38.284-.045.716l.224-.066zm-5.198.08c1.468-1.279-1.937-2.795-.632-.335-.127-.752-.916-1.563-.336.02.144.355.654.642.968.315zm30.888-1.073c-.226-1.698-3.076-2.627-3.786-1.198-1.22-.03-4.18-.253-2.686-1.66-2.895 1.184 1.635 2.217 1.974 2.326-2.005.2 2.805 1.317 3.805.86.165.168.881.063.693-.328zm-29.418.123c.939-.154 3.662-1.96 1.12-.952-.667-.81 3.639-.806 1.048-1.048-2.384.76-.34-.993-.044-1.157-1.28-.271-5.437 3.275-2.124 3.157zm-3.559-.692c3.739.05 1.933-3.572 1.242-5.64-.534-2.02-.16.69-1.314.052-.424 1.085.87 4.489.075 1.477.095-1.932-1.875-.81-2.433-1.188.236 1.44-.44 4.355.371 4.83-.568-1.58.744 2.058 2.059.469zm37.192-.351c2.026-.17-1.287-3.914.419-1.735 1.654.696-.617-3.488-.436-4.668-.402-1.03 1.485-5.206.127-3.18-2.107-.811-1.971 3.395-2.306 3.027.51-.812 1.12-4.986.022-2.322.589-2.841-2.084 1.61-1.804 2.656-.83 2.14-2.244 6.484 1.616 6.092.776.144 1.576.263 2.362.13zm-2.758-2.714c.017-.966.315-.806 0 0zm-25.188 2.23c.213-1.231-.48.784 0 0zm-.473-.146c.683-.648-1.23.502 0 0zm23.333-.31c-.442-1.117-2.37-2.188-4.054-2.477.86.247 3.05 3.36 4.054 2.477zm-28.866-.188c2.458-.58 2.263-5.172.375-5.71-.21-1.126.896-1.684.27-.414 1.62-.861-.481.826 1.189.253 1.696-1.112-1.51-2.849-2.05-.89 1.274-1.078.973-3.48.092-4.227.679 2.283-2.556 2.6-2.655 4.096 2.495 1.03 2.925 4.343 2.367 6.535-.393.497.109 1.24.412.357zm26.083-.265c-1.817-1.492-3.1-4.617-6.001-3.738 2.648-.478 4.324 2.186 5.985 3.96.768.712.666.254.016-.222zm-23.713.122c.97-1.822 3.619-2.027 4.533-3.081.848-1.636.263-3.392-1.82-2.677-1.55.68-4.1-.464-3.306 1.951-.776 1.782 2.687 3.305.07 3.839zm19.8-.174c-.035-.977-.572.041-.131.204zm-.35-.863c-.507-.765-.224 1.355 0 0zm.754.166c.95-1.436-1.345.867 0 0zm3.579-.229c-1.263-.911-.364.862 0 0zm-20.255-.447c2.338-.388-2.675-.177-1.749.318.456-.463 1.173-.307 1.749-.318zm-10.518-2.36c.628-.56 1.295-3.633.546-1.522-1.128-.773-3.194-2.219-3.757-2.348-1.533 1.94 2.06 1.745 2.295 3.616.145.293.674.677.916.255zm2.162-.938c.46-1.52-1.927-3.336-1.268-.833-.12.598 1.805 2.737 1.267.833zm37.778-.49c.381-1.841 3.318-4.095 3.143-4.806-2.726-.775-4.045 4.79-3.282 4.932l.051-.238zm-31.593-.43c-.087-1.814-2.586.826-.212.12l.127-.072zm19.826-.172c-.856-.024-1.787.037 0 0zm-14.823-.155c-.353-1.186-.216-4.305.307-4.086-1.504 1.485.884 5.579 1.549 2.641-1.603 2.758-2.002-1.477-1.077-2.603-.126-1.578-5.474.998-2.61-.658-1.33-.994-4.03 2.795-2.052.05 2.688-1.034-2.106-.64-2.024 1.056-1.716 2.045 1.443-2.936.382-1.012-.557.502 2.35-1.499.084-.646-2.549 1.403 1.07-1.527 2.152-.441-1.167-.346 1.726-.138.216-1.417-.886-.947-1.092-2.05.396-.763-.651-.17 1.792 2.048 1.208-.26-.443-1.096-1.604-3.69-.24-1.31.666 1.023-.676-2.13.2-.455-.39-1.009 1.346 1.484.5-.718-.432-2.266-.796-4.554-.908-6.861.472 2.297.967 6.81 1.383 7.724-.227-1.794-.729-5.146-.08-6.049.172 1.027-.078 4.432.352 1.585.744-1.889-.118-7.027-2.666-3.9-1.939 2.768-2.07 6.327-3.278 9.419-1.058 2.806-2.358 7.446 1.644 8.52 1.47.537 3.048.284 4.563.183zm-1.287-.288c-.04-1.255.896.317 0 0zm.606 0c-.395-1.446 1.34.515 0 0zm-5.958-1.239c-.987-1.429.804.628 0 0zm4.6-2.022c1.265-.464 1.13.321 0 0zm15.26 3.41c1.464.086 3.38-1.298 3.87-.619 2.461-1.671 1.97-5.003 1.126-7.425-.905-3.475-1.525-7.233-3.76-10.145-2.854-1.896-3.64 4.023-6.689 3.137-1.79 2.323-.023 5.601-.692 8.321 1.158 1.482 5.1 2.726 6.146.195.644-2.211-.81-6.806-.678-7.57.615.548.625-3.988.593-1.225-.484.973.318 2.959.377.886-.196-.951 1.154-3.626.432-1.199-.276 1.296-.726 5.142.305 2.493-.408 1.35-.462 1.98.035.265.469-1.684.948-1.58.226.036-.425.948-.86 3.573.014 1.114-.176.992-1.4 4.279-.092 3.976.92-1.175.956-6.031 1.044-2.724.035-1.09.194-2.415.164-.467.457 1.758-1.337 3.34-1.144 4.749.847-.686 1.162-3.48 1.445-3.287-1.386 1.854-.1 2.842.975 1.674-.675.38-3.709 2.58-1.31 1.376.546-.347 2.243.204.771.515 1.279-.347 2.508 1.283.597.337-1.283-.547-3.772.491-.987.087 1.702.45.582.332 2.204 1.084-.033.352-4.876-1.81-1.792-.033 1.621 2.25-1.23-1.308-2.474-.497-2.89-.497-.34 2.277-1.47 3.886-.18.546.16 1.135.764 1.06zm-.45-.414c.066-1.104.989.54 0 0zm5.53-2.359c-.663-.832-2.284-2.534-.335-1.087.217.092 1.175 1.58.335 1.087zm-3.254-1.193c-1.17-.364-1.67-1.354 0 0zm-5.145-2.512c-2.016-.78-1.305-4.814.117-5.497 2.786-.695 3.047 3.016 2.388 4.874-.455.938-1.653 1.08-2.505.623zm1.964-.207c1.32-1.223.157-2.562-1.155-1.694-3.362-2.128-1.646 3.294 1.155 1.694zm-.884-1.92c-1.304-.454-1.942-1.408-.399-.18 2.288.623 2.101-2.423-.229-1.534-3.088-.075.46 2.18.628 1.715zm.861-1.885c1.34-2.67-5.27-.56-1.345.075.448 0 .905.033 1.345-.075zm-10.665 9.821c.88-1.004-.084-.58-.28.16zm11.018-.12c.392-.873.293-3.97-.035-1.278.22 2.043-2.175.546-1.92.8.175.768 1.452 1.078 1.955.478zm-.7-.375c-1.406-1.248-.832.203 0 0zm1.077-.865c-.467.49.157.881 0 0zm-4.784.614c2.098.192 5.557-2.668 2.086-3.748-.797-.8-4.021-.373-1.594.212 1.336.544-4.9-.274-1.655.705 3.673.705-3.024 1.863-2.68 1.176 1.152.238 3.936-.964 1.287-.643-1.366.455-3.453-1.238-.92-1.399 1.823-.04-1.03-1.535.562-.443-2.653-.91-5.91 3.329-1.847 3.645 1.27.633 4.548-.563 4.504.036-1.84.03-.47.803.257.46zm1.436-.709c2.017-.695-1.551.63 0 0zm-6.269-.075c-.622-.424 1.656.53 0 0zm.928-.069c1.05-.08 5.7-.847 2.448-.025a8.938 8.938 0 0 1-2.448.025zm-2.512-.319c-1.437-.88 1.076.393 0 0zm30.215.085c-.65-1.41.523 2.668.02.096zm-42.484.924c2.108-.692 2.023-4.674 1.138-4.655 2.02-1.02-1.994-1.374.525-1.568.258-1.003-2.072-3.957-2.493-1.551-1.4 1.306-4.122 2.193-3.666 4.581-.249-2.045-3.607-1.54-1.617.186 2.52.36 3.024 4.012 6.113 3.007zm-.52-.874c-1.463-1.606 2.964-.602.213.044zm.633-.169c-.74-.76-1.021.656 0 0zm.513-.685c-1.382-.233-1.714.346 0 0zm-1-.76c-.42-.835 2.3.03.188.04.12-.165-.194.03-.187-.04zm-5.963-1.012c-.62-3.32 2.457 1.535 0 0zm.185-.049c.405-1.232-.565-.072 0 0zm4.322-.421c-1.612-.81 2.516-.172.11.09zm-.92-1.203c.53-1.36 3.374-.21.934-.153-.336-.1-.604.287-.934.153zm6.265 4.849c-.553-.852-.187.688.042.366zm37.47-.16c-.785-.642-1.189.278 0 0zm-5.034-.225c1.044-.884 4.499-3.87 2.399-4.23-.973 1.324-5.693 2.343-2.399 4.23zm1.601-2.67c1.66-1.132 1.011-.356 0 0zm-3.43 1.654c1.41-1.1.14-3.93-.527-1.244-.42 1.04-.708 3.507.527 1.244zm-11.116.342c.599-1.27-1.77-2.582-.41-.772.033.21.242 2.28.41.772zm-19.433-2.926c.269-2.412 2.912-5.63.154-7.491-1.302.389-.374 5.912-.29 2.54.835-3.145.044 1.532-.204 2.488-.26 1.053-.093 5.868.34 2.463zm8.749 1.243c2.47-.642-.605-5.219 3.345-4.156 2.281-.411 2.227 5.01 2.175 1.24-.202-2.281.462-5.781-.365-7.307-1.758.722-4.571-2.083-5.27-.767-.255 3.195.148 6.392.079 9.588-.221-2.152.125-4.406-.57-6.483-.63 2.373-1.17 6.295-.101 7.96.236-.02.471-.05.707-.075zm4.697-5.348c-.105-1.798 1.72.745 0 0zm-.014-3.306c-.614-1.596 1.809.103 0 0zm-14.518 7.691c.012-.879-.62-4.23-.519-1.476-.22.714.844 3.842.519 1.476zm7.61.518c.517-3.554-1.825 1.93 0 0zm7.452-.625c-.408-1.63.316 2.038 0 0zm-24.23-2.894c.103-3.127 3.628-5.905 6.513-3.9.845.333-2.527-1.742-3.361-.81-3.061.43-3.987 5.348-3.478 6.685.025-.67.121-1.334.326-1.975zm-.094-.792c.01-1.21 1.924-3.575.455-1.229-.119.181-.435 1.485-.455 1.229zm23.94 1.606c-.736-1.696-5.29.031-1.844-.647.6-.068 1.56.261 1.844.647zm-25.517-.437c.445-1.667-.915-1.293-.195-.086-.148.098.329.332.195.086zm10.142-2.864c-.284-1.025.018-4.326-1.037-1.627-.208.277 1.814 3.163 1.037 1.627zm30.054-.596c-1.152-1.778-.838 1.054 0 0zm-39.117-1.096c.86-.581 2.839-1.438.635-.878-1.032.15-2.031 2.934-.635.878zm45.338.373c-.78-2.132-1.944-6.183-4.174-6 2.987 1.12 2.769 3.724 4.174 6zm.313.055c-.741-2.248-1.726-6.139-4.113-6.298 2.897 1.07 2.682 4.052 4.113 6.298zm-37.18-1.607c-.937-2.328-3.764 2.192-.455.887l.272-.439zm39.868.794c.693-1.191-.826.242 0 0zm-43.93-.67c-.463-1.078-1.201-1.309-.611 0-.052.094 1.29.497.61 0zm44.162-.349c1.352-2.566-1.558-.073 0 0zm-40.346-.77c2.528-1.74 2.543-5.766.932-8.103-.983-1.163-1.16 2.474-2.942 2.022-2.022-.01-2.77 1.649-3.315 2.942-1.79.244 1.822 2.156 2.467 2.833.852.504 1.92.682 2.858.305zm-.856-.454c-2.227-1.214 2.896-.996.304-.017-.101.01-.203.011-.304.017zm.678-.168c1.219-1.27-2.833.499 0 0zm-1.757-.938c-.08-1.543.284.334 0 0zm.712-.333c.5-.044 2.148-.517.613-.343 1.73-1.056.456 1.11-.613.343zm-1.408-1.346c-1.557-1.285 2.807-.097 0 0zm3.252-.725c-.613-1.236 2.092.062 0 0zm-4.53-.443c.433-1.358 3.718-.498 1.167-.253-.414-.017-.745.36-1.167.253zm4.035-.905c.381-1.5 2.435.393.254-.013.021.11-.254-.076-.254.013zm-5.853 2.978c-1.583.277-1.57-2.78-.103-1.366-1.783-2.701-2.065 2.144.103 1.366zm.01-3.852c-.155-2.569 3.787-4.457 4.768-4.756-3.136-.467-5.229 4.273-5.054 5.662.092-.303.198-.602.286-.906zm.057-1.033c.182-2.305 3.662-3.996 4.635-4.015-3.136-.776-5.487 4.522-5.036 5.328.111-.444.216-.892.4-1.313zm16.084 35.335c.19-4.04.13-8.178 1.408-12.059-.343 4.083-.45 8.181-.654 12.273-.198-.112-.868.241-.754-.214zm5.468-2.421a443.8 443.8 0 0 1 .306-10.623c-.384-1.358 1.058.165.092.827.05 4.146-.153 8.288-.229 12.431-.522-.806.015-1.767-.169-2.635zm4.019 2.542c-.165-1.194.072-3.124.13-.879-.071 0 .172 1.168-.13.879zm2.613-.407c-.25-2.522.34-.605 0 0zm9.214-20.593c-1.309-2.085 2.949.411 0 0zm.799-.09c-.453.021-.113-1.065-.825-.187.158.21.62.455.825.187zm-1.408-1.371c.555-.803 2.138.584.145.099l-.059-.016zm5.574-1.039c-.743-1.736 1.82-1.836 1.048-.282-.282.253-.691.278-1.048.282zm.848-.28c.118-1.58-.071-.169-.503.275l.1-.01zm-4.717-.01c-1.234-1.205 2.094-.613.081-.08.597-.149.103.27-.08.08zm.153-.819c-1.642-.353 1.136.113 0 0zm.275-.793c-2.616-.069-.17-1.29.49.15zm-18.084-3.763c-2.864-.249-5.49-3.148-4.073-5.976-.8-2.17-1.717-4.26-1.977-6.582-.522-3.648 2.292-7.422 6.053-7.59 3.498-.299 7.268 2.872 6.552 6.546.404 2.551-.398 5.586-.278 7.702 2.013 2.064-.422 4.362-2.4 5.149-1.193.586-2.547.906-3.877.751zm.272-.902c-1.738-.418-3.936-3.247-4.415-3.44.455 1.927 2.403 3.55 4.415 3.44zm2.93-.641c1.155.347 4.348-2.555 1.62-1.21-2.471 1.532-5.938.59-7.298-1.976-1.766-1.77.342 2.065 1.399 2.134.953.885 3.272.85 3.84.86-1.211-.084-2.864.186-.738.27.394.01.788-.018 1.176-.078zm.76-.46c1.207-.81 1.475-.587 0 0zm-.845-.657c.85-.4 4.618-1.293 2.966-2.27-.983 2.001-3.651 2.005-5.446 1.95.753.273 1.696.614 2.48.32zm1.428-.37c1.55-.64-1.436.427 0 0zm-2.34-.858c2.962-.218 4.667-4.562 4.05-6.304-.227 2.31-.942 5.232-3.502 5.89-.666.078-1.97.577-.549.414zm-.282-.313c-.51-.299-1.667.109-.482.07zm-.982-1.882c2.544-1.225 3.554-5.624 1.18-7.398-1.15-2.4-4.957-3.696-6.298-.754-.988 2.806-.407 6.342 2.26 8.017.837.577 1.975.664 2.858.135zm-1.94-1.017c.677-.497.964.414 0 0zm-.551-.435c-1.38-.922 4.617-.038 1.142.036l-.573.028zm1.215-.187c-.97-.606-1.955.483 0 0zm-.836-.68c-1.232.242-.89-1.649-.29-.203.645.26 1.985-1.149 1.365.079l-.566.11zm-2.067-.083c.496-.79 1.212.051 0 0zm4.03-.026c-1.512-.914 1.408.462 0 0zm-4.134-1.886c-2.595-1.228 2.9-.814.693-.226-1.516-.85-.547.376-.11.297l-.222-.015-.36-.057zm4.492.039c.926-.944-2.691.136-.61-1.046 2.592.31-.368-.427.274-.353 2.688.363 1.192.402.336 1.399zm-2.752-.186c-.087-.868 1.229.495 0 0zm-.637-1.063c-1.352.029-1.072-.4 0 0zm-.414-.516c-1.774.563-1.595-1.43.062-.714.807.121.879 1.122-.062.714zm1.999-.119c.42-1.964 4.854.466 1.344-.015-.419 0-.972.349-1.344.015zm5.182 4.698c1.42-.432.952-2.547.266-.519-.368.503-1.262 1.839-.266.519zm1.493-3.83c1.555-3.58-1.026-8.394-5.109-8.436-2.514-.58-5.926 2.22-6.03 3.61 1.35-2.064 4.473-3.252 6.4-1.23.903.83 2.761 3.146 1.697.483-.485-1.53 1.093 2.374.311-.382-.084-1.355.912 2.706.528 3.596-.256 1.24.134 3.88.739 1.364-.129-1.189.167-5.002.885-1.989.252.616-.709 3.297-.046 2.156.272 1.598.78-2.41.195-3.157-.6-1.71 0-1.433.293-.01.503.547-.332 5.197.137 3.992zm-11.506-.096c.391-1.325-.07-5.64-.272-2.162.044.632-.094 1.766.272 2.162zm7.845-1.867c-1.19-1.66.679 1.08 0 0zm.599-.691c-.28-1.649-3.015-4.66-4.084-2.995 1.03 1.399 2.853 1.841 4.084 2.995zm-6.813-1.383c1.183-.588 3.204-2.901.49-1.934-.916.125-2.413 3.982-.49 1.934z" style="fill:#6a9ca3;stroke-width:1" transform="translate(3012.387 -2123.04)"/><path d="M-3009.19 2175.879c-1.937-.398-3.003-2.448-2.844-4.317-.103-2.207-.179-4.466.258-6.636.133-.734 1.25-.764 1.234-1.365.059-.519 1.028-.853 1.59-1.043.433-.242-.118-1.54.604-1.73.533-.488 2.12-.055 1.034.536.944.46 1.877.928 2.68 1.598.4-.742.31-1.71-.603-1.99-.831-.386-1.235-1.237-1.715-1.923-1.171-.384-.326 1.498-1.05.429-.57-.12.085 1.175-.592-.18-.723.154-1.768.661-.342.447.364.022-.856.924-1.335.611-.746.07-1.486-.488-1.695-1.114-.504 1.127-.447-.437-.414-1.01.054-1.45-.109-2.96.079-4.372.602-.48.78-.89 1.402-1.163-.287-1.652.359-3.77 2.217-4.1.757-.42 1.502.443 2.167-.175.51.757-.141-.937.49-1.211.508-.086.983 1.444.76 1.2-.581-1.098-.416.016.308.302.957.42 2.105.434 2.843 1.296.437-.553 1.245-1.414.861-2.198-.76.51-1.765.24-2.322 1.09-1.175.292 1.101-.955-.307-.965-1.145-.548-2.17-1.195-2.972-2.224-1.418.671-2.71-.667-2.979-1.983-.5-1.181.337-2.342-.077-3.52-.09-2.054 1.023-4.247 3.104-4.813 2.001-.593 4.337-.181 5.894 1.256.506.51.846.436 1.355 1.152.37.727.745 1.51.83 2.382-.624-1.26.174.535-.016 1.017-.212.177-.171.78-.272.395-.581-1.102.156.693-.347.926.065 1.618.11 3.486-1.256 4.626-.877.543-.254 1.168.528 1.068.8.216 1.264.626 2.071 1.134.54.382.8 2.402 1.004.858.54-2.12 1.156-4.291 2.386-6.109.753-.661 1.808-.959 2.684-1.195.7.733.986 1.915 1.646 2.583.762 1.329 2.523 1.669 3.924 1.992 1.38.029 2.865.06 4.047-.712.672-.032 1.103-.703 1.637-1.04a17.779 17.779 0 0 0 2.032-2.344c2.259.3 3.07 2.741 3.746 4.594 1.088 3.143 1.867 6.398 2.512 9.653.169 1.81-.424 3.813-2.128 4.713a4.447 4.447 0 0 1-3.407.849c.203.822.238 1.698.996 2.238.498.68 1.006 1.33 1.936 1.034 1.136.318 2.058 1.129 3.183 1.492.394-.201.4-1.608.68-2.259.432-.896.143-1.758.097-2.68.065-1.513-.177-3.483 1.153-4.515 1.05-.126.703-1.262 1.501-1.673.9-.96 1.138.089.987.943.332.5 1.171-.775 1.738-.901.607-.519 1.916-.575.94-1.359-.273-.795-.029-1.614.087-2.409-.896.342-.81.872-.522-.443.847.814 2.288-.789 1.675-1.725-.44-.849-1.47-.021-1.563.447-.329.51-.438.703-.698.543-.4.234-.072-.758-.414-1.486.73-.066-.923-.368-1.077-.768-.335-.76-1.232-.422-1.918-.773-.884-.288-1.578-.944-2.034-1.743.251.648.787 1.309 1.311 1.56.17.228-1.176-.4-1.334-.85-.238-1.097-.58-.339-.52.416.24.836-.124 1.629.853 1.612.204.56-1.27.223-.375 1.223.157.626-.321 1.663.073 2.4.47.892 1.185 1.755 2.052 2.282 1.36.155 2.616-.642 3.594-1.447-.753 1.225-2.434 1.996-3.831 1.566-1.053-.773-2.365-1.879-2.12-3.334-.053-.808.267-1.705-.338-2.368.369-.411-.262-2.078-.175-1.251-.248.203-1.467-.712-1.248-1.405 0-1.515 1.54-2.282 2.69-2.896 1.013-.873 2.386-1.392 3.703-1.559 1.744-.207 3.67.366 4.586 1.963.747 1.038.816 2.522.805 3.63.62-.182.966-1.559 0-1.395.792-.548.592.862 1.368.484.964.253.535 1.391.627 2.116-.147-.188.066 1.588.01 2.19-.503.021.438.681-.21 1.353-.486.748-1.929 1.06-2.38.115.473.605 1.646 0 .715.014-.943.168-.902-1.665-1.072-1.4-.084.764-.163 1.992-1.247 1.756-.698-.038-1.242.644-.894 1.42.613.19 1.644.358 1.47 1.407-.177 1.1 1.008.896 1.56 1.563.705.658 1.915.956 1.826 2.135.072 1.622-.207 3.259-.622 4.825.273.552.772 1.074.763 1.923-.269 2.177.102 4.555-1.001 6.538-.607.785-1.585 1.173-2.563 1.152.365 1.004 0 1.416-.27.224-.483-1.554-.325.102-.346.858-.451-.363.184-1.975-.966-1.524-.758.074-1.562-.214-2.287-.14.34.241 1.965 1.283.849.774-.921-.501-1.6-1.417-2.736-1.484-.893-.316-2.053-.221-2.451-1.275-.401-.699.668.987 1.147.695 2.038.554 4.168 1.596 6.3 1.036 1.839-.551 2.58-2.518 2.641-4.28.22-1.849.45-3.697.125-5.549-.104-1.384-.047-1.375.167 0 .099.482.152 2.659.336 1.296.156-1.322-.238-2.749-.546-3.952.425.516.689 2.233.509.655-.098-1.145-1.553-1.96-2.414-1.029-.46.621-.936 1.418-.977 2.166.282-.84 1.449-1.676.422-.37-.717 1.229-1.126 2.626-1.094 4.054.189-.805.453-1.616.97-2.273-.456 1.173-.948 2.387-1.233 3.593-.02.968-.566 1.373.71 1.2.701.155 1.536 1.355 1.471 1.563-.52-.72-1.41-1.689-2.346-1.342-.285.386 1.268.428 1.536 1.024.364.27 1.064 2.16.548 1.28-.463-1.02-1.39-2.025-2.581-1.98.516.028 1.6 1.33 1.13 1.203-.542-.746-1.306-1.205-2.235-.938-1.324-.266 1.11 1.263.405 1.015-.676-.539-1.215-1.335-2.19-1.136 1.073 1.044.274.48-.435-.084-.751.029-2.08-.897-1.361.167-.109.713.273 2.028-.315 2.324-.608-.088-1.02-1.783-1.056-.38a138.146 138.146 0 0 0-.465 3.689c-.493-.328.09-1.528.034-2.18.244-.475-1.527-.234-1.051-1.258.679-1.174-.364-.964-1.251-.946-.75-.559-1.703-.925-2.488-1.327-.687-.968-.037 1.165-.037 1.576.223 1.376.376 2.762.615 4.134-.58-.251-.324-1.442-.549-2.064-.18-1.308-.314-2.653-.672-3.912-.726-.446-.984-1.355-.75.05.21 1.972.391 3.947.51 5.926-.466-.412-.154-1.635-.338-2.365.036-.666-.306-1.77-.15-1.806-.23-1.302-.097-2.766-.768-3.906.585-.755-.404-1.212-.907-1.877-.61-.378-1.406-1.676-.118-1.537.652-.067 1.991.239 2.2-.018-.076-.838-.102-1.508-1.055-1.652-.64-.593-1.618-.326-2.29-.659-.519-.41-.06-1.872-1.02-1.163-.677.412-1.816.46-2.27.547 0 4.798-.028 9.595-.137 14.392-.402-.314-.03-1.68-.127-2.411.053-4.026.178-8.052.083-12.078-.669-.448-1.386-.669-2.169-.378-.847.47-1.61-.26-2.394-.378-.318.808-.115 2.17-1.18 2.201-.476.373-.265-.186-1.443.241-1.076-.12-.794 1.232-1.1 1.897.01.601-.698 1.53.127 1.695.485.694-.894 1.281-1.191 1.908-.406.572.24 1.416-.904 1.966-.367.675-.688 1.35-1.389 1.745-.052.723-.106 1.572-1.014 1.832-.906.676-1.909 1.423-3.102 1.218.17 1.348-.348-.301-.299-.837-.148-.63-.135-1.939-.438-2.11-.331-.023-1.144.899-1.9.99-1.08.169-1.483 1.303-2.347 1.803.584-.667 1.211-1.3-.074-.765-.567.48-1.922-.026-1.855.873-.166 1.658-.194-.839-.278-.704-.264.805-.521 1.701-1.549 1.277zm10.122-.947c.817-.498 1.957-.895 2.389-1.752.108-1.18-.528.942-.878-.297.092-1.3-.87-.024-.17.47 1.244.614-.47.43-.478-.45.61-1.054-.673-.384-1.35-.538-.658.514-1.43 1.15-1.04 2.093-.179 1.021.981.784 1.527.474zm-.847-1.251c-.07-.518 1.242-1.6.455-.687-.055 0-.51 1.056-.455.687zm-9.935.386c-.089-.963.32-1.885.264-2.836-.342 1.112-.701 2.475-.333 3.548.13-.09.01-.543.07-.712zm-1.054-.395c-.26-1.86-.694-3.784-.373-5.645-.733.345-.12 1.519-.237 2.203.195 1.382.332 2.789.651 4.148.137-.163-.06-.498-.042-.706zm5.141.594c1.367-.333 2.65-1.033 3.91-1.593.48-.463-.903.483-.799-.786-.472-.74.54-2.061-.772-1.263-.802.599-1.87-.126-2.566.651-.619.706-1.18 1.187-.383.1.724-.505.971-.859-.115-.51-.766.36-1.135 1.2-1.416 1.952 0-.868.597-1.708 1.306-2.097-.563.063-1.83 1.306-.965.244.338-.552 1.856-.062 1.585-.724-.85-1.808-1.636-3.658-2.928-5.201.525.323 1.543 1.47.683.287-.172-.477-2.077-1.38-1.027-1.07.784.197 1.402 1.263 1.485 1.745-.014.389.672 1.632.381.193-.037-1.12-.806-2.683-2.08-2.641-1.209.468-1.504 1.849-1.137 2.984.577 2.345 1.097 4.75 2.147 6.934.75.674 1.691 1.132 2.691.795zm-5.527-.917c-.06-1.103-.197-1.83-.116-.304-.095.221.27.903.116.304zm11.2-.712c1.09-.562-.43-.202-.465-.985-.35.253-.285 2.063.098 1.312.087-.138.25-.217.366-.327zm27.903.53c.09-.137-.798-1.959-.75-.835-.33.474.318 1.171.75.836zm.195-.679c.646-.927-1.204-1.322-.516-.31.102.222.533 1.24.516.31zm11.72-.343c.095-1.351.235-2.759.17-4.096-.205-1.355-.675-.96-.174.157 0 1.023-.17 2.085-.117 3.155.025.173-.107 1.628.122.784zm-35.969-.137c.575-.372.87-1.05 1.056-1.645.334-.248.824-.524.984-.975-.049-.1-1.761.541-1.24.957.06.709-1.86-.812-1.32.172.795.243 1.24.915.169.47-.888-.606-1.706.01-.37.31 1.341.522-.42.286-.975.055-.858.446 1.715.666.645.749.116.295.867.32 1.051-.093zm25.293-.092c-1.07-1.088.936 1.218 0 0zm-30.45.164c.969-.237-.194-1.307-.19-1.952-.862-.22-.896 1.036-.455 1.581-.106.577-.501-1.422-.449-1.173-.368.618.174 2.203 1.094 1.544zm-8.816-.384c.585-.838.2-1.699-.234-2.502-.47.152-.79 1.474-.535 2.156-.072.471.611.966.77.346zm11.57-.735c.203-.438 1.93-1.469.89-1.201-.21.337-1.67.482-1.43.076.913-.028 1.72-.591 2.652-.43-.435-.592-1.669-.151-2.413-.064-1.066-.085.493-1.033.96-.969 1.12-.433.183-.668-.519-.364-1.035.356-1.767 1.116-2.45 1.94-.866-.088-.217 1.627.42 1.259.49.18 2.187-.61 1.714-.17-.36.888-1.318.402-1.163.84.638.178.895-.592 1.34-.916zm28.13-.19c.282-1.12-1.218-.825-1.82-1.395-.387-.13-2.22-1.24-1.429-.498 1.016.627-.478 1.05-1.066.868-.77-.107-1.908.173-2.238-.752-.921.78-.748-.276.075-.598.797-.75-.843-.163-1.009.374-.156.302-.044 1.07.723.894.391.297.884.823 1.716.412 1.175.413 1.087.782-.05.183-1.405.102.207.332.664.764.93.718 2.202.096 3.29.295.664-.215 1.457.708 1.142-.547zm-32.986-.322c.731-.175 1.47-.57 2.207-.502.622-.404.015-1.563-.083-2.246-.716-1.845-1.03-3.826-1.838-5.632-.706-.508-1.358-.935-.68.16.182.774-.336 1.493-.01.242-.297-1.382 0 1.86-.716.767-1.009-.96-2.341-1.497-3.585-2.095.949-.042 1.115-.552-.053-.285-.327.36-.722 1.772.167 1.647 1.374.447 1.979 2.01 2.946 2.83.485-.434.691-2.38 1.39-1.382.685.954 1.215.913 1.027-.198.23.659.129 1.857-.674.89-.718-1.002-.206 1.116-.705-.288-.594-.437-.639 1.83-1.338 1.064-.475-.466-1.075-1.57-.605-.23.189 1.225.312 2.604-.293 3.737.278.407.614 1.852.918 1.5-.38-1.488-.126.089.582.277.466-.02.937-.042 1.343-.256zm37.335-.389c.826-.182.855-.84.195-1.576-.453-.46-.979-1.755-.225-.516.395.646.951 1.84.896.391.05-1.425-.885-2.708-.982-4.146-.202-1.782.257-3.802 1.102-5.21-.512.669-.999 1.36-1.602 1.952-.69-1-.767-.73-1.039.363-.384 1.166-.516 1.17-.078-.01.325-.44.517-2.118-.048-1.894-.231.674-.552 1.84-.248.459.18-.835-.883.727-1.154 1.041a30.187 30.187 0 0 0-2.018 7.122c-.105.164.286 1.099-.03 1.506.232-1.178-.65-1.227-.51-1.103-.026-.754-1.43-.62-1.884-1.253-.332-.55-2.492-.854-1.8-.183.814.936-.358-.785.904.139-1.263.03.667.05.852.624.29.747-1.124.715.204.746.955.34 1.817 1.09 2.83 1.171.605-.169 1.43.309 2.14.313.872.053 1.653.39 2.495.062zm-28.413-.76c-.535-.5-.986 1.063 0 0zm-5.818-.21c.371-.802 1.57-.822 1.925-1.505.021-1.413-.356-2.786-.557-4.175-1.18.064-.589-.74.237-1.005-.077.267-1.443 1.156.058.725.822-.256 1.455-1.12.384-1.556-.484-.573-2.03-.315-1.765.564-.558-.626-.299 1.047-.547-.046.257-.718 1.372-.78 1.042-1.572a14.5 14.5 0 0 0-.736-3.072c.013 1.556-.873 3.3-2.361 3.862-1.42-.206-.493.557-.075 1.13 1.444.114 1.893 1.68 2.03 2.895.098.921.23 1.842.431 2.738-.497.188-.814 2.19-.066 1.017zm.246-6.197c-.115-.455 1.477-1.672.7-.732-.25.102-.46 1.121-.7.732zm26.55 6.46c-1.369-1.434-2.743-2.974-4.161-4.377-.884-.155-1.949-.162-2.817-.058.324.334 1.622.094 2.293.216 1.04-.018 1.465 1.278 2.232 1.843.833.773 1.557 1.802 2.453 2.427zm-37.214-.61c.41-1.5-.19.36-.15-1.026-.127.344-.3 2.498.15 1.026zm32.695-.106c-.256-1.28-.5 1.09 0 0zm-19.833.216c1.083-.432 1.458-1.846 2.478-2.274.69-.2 2.103.456 2.038-.638.21-.93.403-1.863.624-2.79-1.041.01-2.16-.095-3.136-.158-.654.503-1.783.916-2.371.132-.873.327-.04 1.547-.155 2.285.276.641-.092 2.232.519 2.26 1.089-.394.798 1.094-.11.883-.614.198-.586.577.113.3zm1.158-.462c.56-.753 1.194-1.345 2.198-1.109.491.03 2.289-.03.919-.218-.969.052-2.159-.308-2.716.744-.483.407-1.415 1.614-.4.575zm18.306-.54c-.038-1.269-.68 1.27-.143.233-.043-.122.076-.164.143-.232zm4.229.316c.925-.546-1.606-1.084-.655-.383 1.193.352.178-.012.477.448-.04.254.147-.126.178-.065zm-3.41-.251c.55-1.014-1.298.516-.098.084zm-28.631-1.095c.107-1.59-.56-3.637-2.228-4.092-1.158.129-.92.284.037.54 1.36.754 1.583 2.459 1.565 3.872.316.41.171-.281.393.516.128.782.284-.221.239-.749v-.078zm11.25.93c.237-.277-1.635.205-.014 0zm34.984-1.319c-.409-1.14.131 2.237.102.596.05-.212-.033-.4-.102-.596zm-40.954-.705c-.142-1.028-.38-2.267-1.225-2.93-.835-.28.371.831.294 1.275.11.737.626 1.583.532 1.82.4 1.23.134-.424.154-.88.103.124.24 2.4.325 1.405l-.08-.69zm35.956-.59c-.143-1.136.161.93.269-.52.079 1.166.256-1.142.333-1.515.48-1.744 1.432-3.959 3.544-3.98-.72-.849-2.271-.655-2.951.262-1.36 1.598-2.005 3.971-1.32 5.99-.25-1.49.277.735.13-.236zm-31.534-2.053c1.028-.303-.704-.61-1.046-.844-.631.667-.417 1.186.605 1.033.154-.02.295-.141.44-.189zm20.602-.299c1.61-.597 3.23-1.91 3.311-3.765.27-2.165-.688-4.231-1.072-6.335-.846-2.782-1.39-5.814-3.19-8.164-.572-.466-1.582-1.364-2.13-.428-1.017 1.358-2.254 2.66-3.935 3.115-.703.37-1.902.102-1.481 1.29l.042 8.21c.75-.38 1.45.17 2.203.307.778.538 1.507.638 2.393.453.717-.07 2.315.426 1.73-.828-.235-2.022.061-4.099-.547-6.08-.137-.832-.39-1.647-.508-2.479.339.882.522 2.056.492.413.02-.683.067-1.756.33-2.187-.23 1.392-.328 2.955-.036 4.274.336-1.556.237-3.576.997-4.83-.496 1.91-.536 3.905-.914 5.843.213 1.381.581-.666.805-1.133.25-.807.562-1.592.864-2.38-.284 1.783-1.246 3.449-1.403 5.244.169.612.438-1.206.666-1.638.012-.034-.167 1.532-.376 2.04-.3 1.046-.221 2.175-.034 3.24.171-1.472 1.016-2.687 1.609-3.995.252-.886.111-1.842.205-2.756.111 1.696.042 3.451-.929 4.915-.14.524-.907 1.87-.613 1.977.849-.73 2.095-.916 3.185-.898-1.032.524-2.436.507-3.32 1.18.948-.377 2.08-.463 3.002.145.292.27 2.271.741 1.265.846-1.096-.47-2.246-1.354-3.496-.979 1.076-.063 1.998.76 2.39 1.708-.762-.841-1.69-1.764-2.94-1.455-.523.13-2.645-.18-1.983.276.773.951.864 2.663.187 3.61.476-1.2.464-3.1-.8-3.859-1.433-.257.332.52.155 1.302-.026.977.403 1.803.466.365.392-.687-1.41-2.202-.236-1.307.842 1.078.279 2.674-.43 3.662-.707.513-1.145-.61-1.142-1.192-.422.53.071 1.78.884 1.525.997-.155.948-.014 1.747.544.774.451 1.749.503 2.587.204zm-2.728-.627c-.34-.855 1.094.114 0 0zm5.02-2.932c-.6-.74-1.301-1.556-.197-.488.447.372.93 1.616.197.488zm.035-1.991c-.398-.31-2.546-.513-1.584-.49.767-.04 1.738.017 2.2.671-.22.03-.428-.109-.616-.181zm-2.957-1.268c.523-.652 1.43-.828 2.095-1.32-.663.704-1.62.994-2.342 1.627l.247-.307zm-4.863.135c-.994.095-1.511-.771-1.274-1.672.202-.719-.469-2.16.457-2.314.842-.052 1.826.198 2.58-.01.507-.144 1.217.51.809 1.374-.21.871.296 2.378-.841 2.667-.574-.01-1.18.073-1.73-.048zm2.02-.292c.464-.64.239-1.561.347-2.32-.64.86-1.875 1.017-2.668.27-.945-1.075-.776.062-.8.912-.31 1.694 1.931 1.227 2.974 1.265.067 0 .095-.093.147-.127zm-.503-1.912c.695-.017 1.547-1.458.544-1.51-1.032.104-2.194-.18-3.138-.054-.251.951 1.104 1.323 1.768 1.71.296.021.567 0 .826-.146zm.436-2.106c.676-1.034-.912-.99-1.58-.974-.879-.442-1.465.48-1.441.805-.257-1.077.993-1.033 1.712-.95.73-.201 2.203.202 1.406 1.1-.175.175-.355.353-.096.02zm-12.907 11.067c1.055-.073 1.49-.092.816-1.084-.16-1.058-.439-2.598.438-3.297-.692 1.041-.449 2.622-.113 3.836.697.694 1.703-.07 1.617-.942.203-1.608-.16.467-.627.844-1.06.462-.818-1.128-.823-1.78-.034-.77-.068-1.673.586-2.183-.903.083-1.848-.065-2.717-.023-.785.598-1.57.451-.484-.024.628-.456 1.863.14 1.352-.994-.057-.928-.228-1.61-.505-.313-.02 1.15-.873 1.075-1.76 1.114-.785.076-1.31.995-1.685 1.343.216-1.077 1.562-1.751 2.331-1.644-1.282-.707-2.849.243-3.595 1.358.116-1.02 1.385-1.702 2.345-1.746 1.395-.036-.838-.161-1.311.016-.496-.136-1.96 1.3-1.515.478 1.178-.982 3.053-1.236 4.27-.172.995.321 0-1.277-.281-1.702-.108-.465-1.792-1.966-.979-1.519.9.636 1.38 1.678 1.816 2.657.772-1.405.198-2.997-.556-4.281-.622-1.242.58.505.698.926.418.328.439 2.556.655 1.238.507-2.018-.571-4.005-.64-6.03-.126-1.088-.265-2.175-.395-3.262.597 2.48.673 5.052 1.36 7.518.184.671.062-1.297-.123-1.681-.531-1.558.277-3.14-.144-4.71.295.416.444 1.573.293 2.278-.176.735-.344 2.383.015.755.648-2.115.442-4.44-.141-6.534-1.467.162-2.558 1.251-3.045 2.595-1.24 2.639-1.606 5.582-2.576 8.322-.57 2.2-1.835 4.649-.595 6.847 1.413 1.76 3.918 2.064 6.018 1.796zm-.41-.408c-.077-.593.843-.432.046.072zm.58-.08c.014-1.031.897.58.01.01zm32.409-1.51c.285-.767-1.173-2.225-.27-.848.302.86.14 1.782.195 2.674.04-.609.156-1.214.075-1.825zm-10.467-.654c.075-.609.62-1.368.85-1.688-1.186.82-1.295 2.514-1.057 3.824.076-.708-.01-1.454.207-2.136zm-20.065 1.737c.661-.673.666-1.518-.136-.428-.38.356-.466 1.032.136.428zm10.235-.432c.623-.276-1.549-1.532-.735-.554.133.241.377.915.735.554zm-3.585-.342c.838-.038 1.727-.531 2.515-.97.658-.184 1.556-.381 1.174-1.295.058-1.156-1.307-1.046-2.007-1.585-.85-.386-1.784-.743-2.68-.305-.04 1.432 1.507-.705.464.63.236.162 2.229-.319 1.496.087-1.058.403-2.198-.071-3.222-.065-.696.552 1.104.504 1.519.716-.492.486 1.438-.17.788.517-1.41.585-2.906.862-4.432.756.967-.46 2.2-.111 3.22-.59.539-.483-1.412-.19-1.914-.299-.823.246-1.49-.442-2.158-.43.612-.625 1.7-.763 2.498-1.196.28-.937-1.867-.46-.687-.326 1.368.403-.56-.105-1.03.259-.766.222-1.423.55-1.865 1.212-1.036.102-1.129 1.746-.043 1.853.94-.127 1.655.734 2.506.818 1.29-.408 2.696-.232 3.99-.486-.059.35-1.466.384-1.905.4.524.143 1.285.61 1.773.299zm-3.928-.867c1.248-.257 2.676-.01 3.9-.612.937-.01-1.151.58-1.585.607-.683-.02-1.985.162-2.315 0zm-14.827.728c1.524-.929 2.223-2.897 1.754-4.613-.45-.677-.37 1.237-.96.037.47-.614 1.391.079 1.034-1.158-1.05.258-1.53-.675-.276-.429.567.621.048-1.296-.198-1.44-.786-.331-1.307-1.084-1.502-1.895.143 1.592-1.365 2.485-2.607 3.028-.201.586-1.844 1.147-1.566 1.174.439.056-.732.451.035.41.016.133-.023.927.04 1.758-.568-.714-.406-.013-.708-.703.023-.431-.865-1.256-1.473-.917-.827.617.079 2.176 1.036 2.103.825-.702 1.15.812 1.586 1.316.823.988 2.252 1.504 3.516 1.436.108.01.193-.068.288-.107zm-.42-.925c-1.16-.495-.188-1.04.665-.69.489-.139.305-.584.35.14-.306.3-.5.762-1.015.55zm.415-.07c.622-.574-1.625-.157-.189.067.044.047.154-.04.19-.067zm-.497-1.624c-.602-.136.858-.24.658-.026.82-.641.776.132-.17.137-.17-.019-.382.07-.488-.112zm-5.644-.737c-.66-.384-.327-1.637.43-1.117.462.593.252.725.446 1.198-.803-.21-.204-.081-.832-.03zm.165-.074c-.719-.553.666-.871-.196-.954-.411.288-.115.896.21 1.113l-.013-.15zm4.228-.525c-.817-.413-.796-.221.282-.555 1.176-.324.245 1.17-.282.555zm-.77-1.402c.433-.475 1.655-.758 1.974-.455-.177.813-1.28.2-1.883.542-.27.086-.358.187-.091-.087zm6.134 5.104c-.188-1.34-.916.85.146.36l-.146-.36zm37.586-.037c-.187-1.084-2.231.077-.67-.23.233-.203 1.034.807.67.23zm-4.101-1.625c.586-.655 1.303-1.252 2.155-1.508-.062-.794-.015-2.143-1.165-1.959 1.143.248.345.607-.458.996a14.672 14.672 0 0 0-2.767 1.867c-.443-.548-.037-1.846-.155-1.859-.748.36-1.105 1.006-1.227 1.802-.14.394-.562 2.452-.046 1.716.528-.248 1.032-1.825 1.433-1.395.166.536.56 2.273 1.111 1.545.353-.42.734-.814 1.119-1.205zm-33.856.542c-.304-1.595-.013 1.646.01.073l-.01-.073zm35.44-.967c.364-.127.374-.524-.268.088.421-.271-.11.296-.569.864.213-.273.647-.609.836-.952zm-46.538-.256c.103-.852-.111-.786-.102.034-.906.029-.283.267.102-.034zm11.404-1.429c.478-1.981 1.165-3.902 1.684-5.873-.428-.844-.924-2.186-2.031-2.073-.135 1.57-.048 3.23-.1 4.835.334-1.181.344-2.633.777-3.683.044 1.515-.46 3.042-.773 4.508-.04 1.26.118 2.511.2 3.766.081-.492.124-1.001.243-1.48zm-.935.876c-.136-1.328-.201-2.717-.556-3.986-.032 1.373-.303 2.796.449 4.038.082.345.172.334.107-.052zm9.342.134c.617 0 1.531-.813 1.768-1.196-.136-.833-.572-1.613-.602-2.452.696-.784 1.92-.254 2.86-.432 1.137-.303 1.668.99 1.598 1.927-.032 1.443.495.913.325-.208-.01-2.674-.023-5.349-.034-8.023-1.948.07-4.056-.301-5.548-1.636-.207 1.885-.22 3.776-.174 5.67-.111-.408-.158-2.6-.38-1.764-.555 1.628-.797 3.333-1.383 4.952-.312 1.075.089 2.182.113 3.274.486-.032.97-.121 1.457-.112zm5.131-5.423c-.337-1.09 1.45-.06.156.143-.08.025-.1-.104-.156-.143zm.468-.154c.01-.836-.75.457 0 0zm-.525-3.209c-.59-.968 1.334-.657.399.093-.097.067-.365.071-.399-.093zm.398-.258c-.31-.322-.094-.143 0 0zm.286 8.496c-.394-1.129.01-2.759-1.177-3.44-1.057.168-2.297-.206-3.23.332.082.01 1.478-.216 2.147-.112.801-.147 1.792.014 1.767 1.028.162.787.175 1.728.5 2.417.128.031-.028-.169-.01-.225zm-24.915-1.147c-.36-1.116-.555-.084.02.484.159-.102-.042-.336-.02-.484zm.248-.127c0-1.563.512-3.133 1.072-4.59.887-1.643 2.91-2.703 4.722-1.937.912.212 1.745.884 2.41 1.392-.916-1.05-2.49-1.863-3.958-1.967-2.209.174-4.015 2.166-4.216 4.345-.148 1.062-.327 2.32-.03 3.292.108-.055-.025-.396 0-.535zm22.009-1.062c-1.007-.275-1.342.257 0 0zm.999.01c-.668-.266-1.386.187-.042.07zm-.379-.275c-.55-.306.154.344-.689-.136-.325.093-1.129.257.294.275.11-.062.504.135.395-.139zm-23.944-1.17c.225-1.248-.963-.827-.348.114.292.932.33 1.178.348-.115zm6.317.164c1.105-1.085.136-.236-.457.347-.197.197.44-.276.457-.347zm3.084-.933c-.728-.613-1.28-1.223-.338-.164.146.28.989.573.338.16zm.936-.49c-.437-1.37-.457-2.794-.488-4.219-.07.75-.807 1.485-.972 1.942.806.616 1.163 1.656 1.505 2.502l-.03-.147zm39.732-.257c-.976 0-.034-2.038-.49-1.206-.663.699 1.144 1.75.49 1.206zm.881-.144c.109.064-1.386-.15-1.162-1.023-.112.537.435 1.313 1.162 1.023zm-50.401-1.666c.581-.874 1.643-1.431 2.67-1.586-1.403-.474-3.02.788-3.1 2.26.136-.229.284-.45.43-.674zm45.48-1.145c-.794-1.947-1.28-4.48-3.54-5.245-1.301-.134-.92.17.148.413 2.307.88 2.358 3.685 3.489 5.542.527 1.157.124-.382-.096-.71zm.693 1.043c-.525-1.658-1.113-3.322-1.902-4.875-.658-.856-1.69-1.895-2.86-1.603 2.135.32 3.169 2.437 3.698 4.305.387.725.521 1.709 1.027 2.293h.072zm-35.646-1.034c.12-.82-.462-1.038-.353-.206-.04 1.046.396-.519.277 1.005 0 .94.085-.744.076-.799zm38.404-.106c-.31-1.32-.509 1.628 0 0zm-43.586-.146c-.9-.156-.923-1.115-1.105-1.638-.447.621-.18 1.847.758 1.622.082-.024.331.05.347.016zm37.919-.444c-.466-.232-1.216-1.596-.566-.434.047.247 1.276.975.566.434zm-3.493-.218c-.915-1.056-.787-.474.085.14.232.043-.043-.089-.085-.14zm-31.222-.61c1.642-.878 2.344-2.897 2.077-4.683-.029-1.105.124-2.351-.806-3.131-.579-1.022-.521-1.779-.824-.267-.799 1.647-2.765 2.166-4.38 2.497-.31.408-1.952 1.184-.698.73-.616.277-.076.679-.086 1.378-.036 1.035-1.045-.49-1.264-.877-.644-.608-1.682.193-1.135.947.206.642 1 1.53 1.66.897.384-.302 1.023.785 1.456 1.337 1.09.794 2.651 1.565 4 1.172zm-.911-.605c-1.163-.844.012-.864.837-.829 1.027-.015.228.464.209.324-.465.21-1.523-.14-.969.45.168.624-.064.231-.077.055zm-.157-1.402c.37.174 2-.686 1.51-.269-.337.398-1.155.415-1.51.27zm-5.285-.82c-.712-.235-.846-1.767.123-1.367.763.601.19.747.453 1.089.218.577-1.028-.194-.735-.5 1.018.496-.204-1.147-.278.03.06.879 1.966 1.131.474.777zm3.907-.489c-.655-.475-.956-.168.245-.675.895-.242.566.814-.107.813l-.106-.106zm3.207-.773c-.573-.8 1.766-.658.617-.211.166.358-.53.526-.617.211zm-4.344-.579c.534-.412 1.68-.911 2.136-.563-.061.755-1.46.3-2.077.705-.321.082-.298.064-.06-.142zm3.91-.72c-.53-.558 1.104-.898 1.426-.312.49.303-1.233.166-1.426.312zm29.448 4c.773-.656-.944.43-.737 1 .218-.361.368-.761.737-1zm-35.538-4.181c.533-2.18 1.75-4.537 4.101-5.11.415-.331 2.495.061 1.274-.37-1.9-.245.821.128-.162-.254-2.328-.423-4.403 1.517-5.07 3.632-.31.904-.637 2.047-.377 2.909.101-.254.16-.542.234-.807zm-.055-.679c.485-2.069 1.795-4.38 4.036-4.768-1.264.372-2.592 1.38-3.189 2.697-.368.602-.61 1.666-.847 2.071zm2.184.073c.681 0 2.314-1.321.969-.468-.31.372-2.345.543-1.491.576.178.02.348-.082.522-.108zm1.861-.613c.405-.162 1.63-1.705.756-.781-.114.22-1.645 1.317-.756.781zm1.519-1.267c.358-.738-.658.968-.967 1.123.319-.376.757-.668.967-1.123zm2.072.404c-.478-.427-1.161-1.533-.425-.34-.046.241 1.205.892.425.34zm.43-1.02c-.22-.404-1.755-1.743-.805-.786.574.653.735.748.805.785zm4.907 36.262c.297-2.503.455-5.083 1.232-7.483.256.453-.277 1.503-.299 2.164-.365 1.971-.539 3.974-.761 5.965-.435.126-.1-.43-.172-.646zm8.862.446c.097-4.337.153-8.72.393-13.025.067 1.495-.038 3.37-.037 5.01-.044 2.74-.145 5.478-.21 8.216-.19.041-.145-.047-.145-.201zm4.077-.678c0-1.68.083.16.092.874-.249-.01-.02-.658-.092-.874zm11.87-2.704c-.027-1.234.245-1.411.103-.106-.058.09-.209.505-.102.106zm-20.133-7.475c.052-1.448.198-.68.01.345-.01-.106.014-.25-.01-.345zm4.364-2.347c-.556-.87 1.27-.589.344.095-.105.017-.297.064-.344-.095zm.408-.272c-.244-.571-.355.68 0 0zm15.33-7.424c-1.094-.81.053-.851.857-.739.745.34-.414 1.177-.856.74zm.791-.118c.557-.455-1.704-.716-.724.04.12.157.625.172.724-.04zm-1.25-1.244c-.764-.891 0 .028.251-.2-.54-.396.897.125.917.011-.241.37-.808.246-1.168.19zm-.364-.685a1.847 1.847 0 0 0-.661-2.55c.933.315 1.425 1.62.729 2.44.253.346-.186.097-.068.11zm5.677-.485c.337-.389-.074-1.646.831-1.415 1.011.198-.02 1.736-.15 1.409.827-.135.392-1.627-.227-1.182.783.533.36.47.285.857-.272.135-.602.482-.739.331zm-4.01-.497c-.988-.936 1.607-.345.913-.268-.437-.226-.638.572-.913.268zm-2.01-.048c-.764-1.025 1.146-.629.227 0l-.14.052zm2.715-1.322c-.446-.09-2.08-.218-1.37-.65.462 0 2.105.502 1.576.706.062.158-.22-.15-.206-.055zm-18.153-3.753c-1.93-.21-3.495-1.52-4.34-3.203-.487-.57-.342-1.37.192-1.89.94-.53-.214-1.536-.465-2.208-.775-1.166-.502-2.657-1.127-3.878-.462-1.996-.488-4.257.762-5.99.905-1.568 2.688-2.544 4.392-2.865.895-.01 2.034-.177 2.76.168 1.098.259 2.406 1.007 3.17 2.03 1.475 1.743 1.58 4.21 1.01 6.336.455 1.518.437 3.204-.354 4.622-.601.891.362 1.531 1.02 1.965.329.762-.045 1.453-.494 2.033a5.748 5.748 0 0 1-1.478 1.44c-1.355.877-3.25 1.69-5.049 1.44zm2.273-.408c1.76-.486 3.36-1.6 4.355-3.142-1.333.597-2.718 1.244-4.149 1.5-1.952.14-3.974-.957-4.9-2.697 1.17 1.635 3.33 2.865 5.35 2.4 1.272-.697 2.971-.784 3.928-1.934.344-.558-.873-1.395-.86-.442-.632.877-.153.1-.961.897-1.397.854-3.205 1.079-4.746.55-.895-.485-1.91-1.2-2.742-1.552a18.466 18.466 0 0 1-1.497-2.12c1.131 1.085 2.037 2.583 3.723 2.847.423.26 2.704.419 1.742.413-1.029.149-2.12-.354-2.823-.622 1.094.873 2.457 1.327 3.855 1.083 1.393-.048 3.063-.796 3.318-2.3-.837-.77.243-1.7.389-2.56.275-.959.215-2.145-.065-3.025-.804 1.936-1.722 4.505-3.91 5.4-1.045.487-2.232.402-3.343.224 1.229.93 3.108 1.361 4.48.411 1.17-.875.733-.298-.167.26-1.036.7-2.286.624-3.402.156-1.15-.367-1.931-1.382-2.893-2.08-.763-.998-1.701-1.927-2.044-3.17-.088 1.377.648 2.527 1.316 3.652.443.638-.467 1.635.36 2.067-.492-1.189.01-.535.186.313 1.19 1.281 2.52 2.612 4.304 2.959-1.977-.129-3.466-1.698-4.728-3.07-.327-.789-.617-1.351-.68-.095.163 1.293 1.247 2.397 2.298 3.108 1.298.72 2.901 1.068 4.306.57zm.166-3.87c.997-.373 1.834-1.08 2.41-1.975-.097-.065.926-1.262.905-1.958.311-1.058.026 1.027-.266 1.325-.7 1.174-1.678 2.588-3.18 2.638zm3.52-.597c.355-1.01-.686 1.063-.097.325l.097-.325zm-4.152-.873c2.24-.503 3.017-2.918 3.903-4.75 1.134-2.423 1.09-5.602-.928-7.562-2.269-2.444-6.504-2.34-8.8.032-2.042 2.047-2.328 5.409-1.085 7.95-.108.079 1.19 2.046.446.642-.664-2.137-1.218-4.549-.31-6.689.893-1.81 3.164-2.892 5.064-2.007 1.581 1.07 2.73 2.691 3.614 4.361-.02-1.068-.51-2.127-.64-3.138.251.41.702 2.53.61 1.587.065-.827-.362-1.655-.396-2.42.86 2.093.364 4.393.495 6.588-.18 1.022-.166 2.114-.708 3.032 1.442-1.555 1.907-3.752 2.275-5.787.016 2.402-1.053 4.68-2.595 6.484-.959 1.21.424-.18.777-.63 1.557-1.768 2.527-4.084 2.277-6.465-.034-.804-.524-1.63-.532-2.389 1.244 2.458.894 5.464-.628 7.717-.386.838-.948 1.094-1.534 1.748-.14.39-1.976 1.486-1.028.98.474-.112 1.775-1.602 1.465-1.151-.796 1-1.875 1.8-3.112 2.155.472-.037.929-.103 1.37-.287zm2.354-4.802c.258-.9.32-1.837.412-2.765.11-.772.16-.019.241-1.28-.038-.668-.152 1.081-.108-.578.022-.826.39 1.148.258 1.592-.262 1.036-.334 2.27-.836 3.15l.037-.12zm-3.22 4.494c1.804-.845 2.652-2.979 2.405-4.89-.047-.82.158-1.835-.758-2.203-.547-.093-1.067-2.083-.795-.865-.167.52 1.522 1.38.615.955-.903-.5-.776-1.872-1.815-2.266-1.482-.918-3.61-.863-4.716.606-.3.851-.209 1.759-.44 2.624-.08 1.331-.223 2.77.76 3.836.86 1.27 2.105 2.828 3.84 2.485.343.062.62-.145.903-.282zm-2.285-1.483c-.829-.034-1.375-.553-.379-.218.628.366 2.094 0 1.355-.096 1.011-.06 1.927.092.474.26-.478.01-1.01.163-1.45.053zm-1.86-.962c.145-.536 1.268-.174 0-.001zm1.837 0c-.683-.063-1.059-.272-.283-.275.59.497 1.6.152 1.544-.303-1.19-.221.218-.434.243.358-.158.356-1.132.274-1.504.22zm-.132-2.049c-1.02-.404 1.489-.153.143.014zm-1.629-.127c-.013-1.27-.67.384-.73-.195-1.056-.037.382-.624 1.041-.455.794-.085 1.03 1.34.346.255.167.468-.432.691-.657.395zm3.718.017c-.045-1.055-.948.56-.667-.507.705-.374 1.832.201 2.384-.304.713-.068-.99.644-.77.55-.083-.738-.493.838-.947.26zm-3.38-1.494c-.666-.05-2.261-.045-1.074-.817.604.184 1.743-.091 1.94.703-.043.367-.63.055-.867.114zm2.145-.047c-.267-.928 1.235-.5 1.771-.81.843.078 1.96.957.383.65-.704.08-1.47.244-2.154.16zm4.032-1.65c-.956-1.707-2.255-3.784-4.42-3.883-.856.732.445 1.533 1.103 1.78 1.28.627 2.473 1.748 3.52 2.505l-.203-.403zm-7.76-.922c.617-1.225 2.283-1.441 2.73-2.771-1.082-.318-2.456.518-2.972 1.55-.432.757-.624 1.627-.633 2.497.257-.45.553-.87.875-1.276z" style="fill:#15141e;stroke-width:1" transform="translate(3012.387 -2123.04)"/></svg>