<svg xmlns="http://www.w3.org/2000/svg" width="200" height="200.038" viewBox="0 0 52.917 52.927"><path d="M-3107.421 2234.116c-.874-1.925 2.078-5.264-.594-6.04-1.992-1.091-4.961-1.34-5.666-3.87-.136-2.253-.887-4.002-2.16-5.768-.273-1.32-1.148-2.891-.351-3.653-1.102-.854-3.198-3.28-.344-3.167 2.74-.778 4.848.942 5.793 3.335.37 1.07 1.974 2.369 1.547.307.44-2.854 1.307-5.688 2.785-8.178 2.366-1.708 3.263 2.972 5.28 3.658 2.551 1.736 5.746.555 8.006-1.085 1.419-.95 2.754-2.034 4.269-2.834-2.497-.966-3.758 2.46-5.956 3.046-2.136 1.208-5.276 1.377-6.881-.779-1.447-1.22-4.392-3.513-1.727-4.985 1.11 1.459-.45-1.909.3-2.77-.224-3.009-2.6-5.568-1.972-8.69.451-3.895 3.752-7.265 7.712-7.523 2.29-.397 4.903.01 6.454 1.893 1.71 1.714 1.254 4.363 1.693 6.546.448 2.532-.222 5.121.325 7.627 1.238 2.081-.312 4.565 1.7 6.245 1.484 1.277 1.947 3.166 2.144 5.034.443 3.596 1.232 7.19.82 10.832.452 2.704-.976 4.85-3.586 5.6-1.58 1.168.818 4.119-.601 5.25-2.19.178-4.408.03-6.613.079h-12.288l-.061-.065-.028-.044zm8.474-2.745c-.113 1.011.133.962 0 0zm14.76-10.852c-.106-1.631-.038 1.633 0 0zm-26.037-.592c-.226-1.118-.625-.633.044.194l-.026-.117zm1.36-.097c-.2-2.699-2.807-4.39-3.9-6.716-1.259-.78-3.312-.543-4.472-.176.505 1.085 2.005 3.778 2.835 2.06.97-.882 3.143.37 1.04.773-.62 2.156 3.34-.035 2.136 2.064-.796 1.034 1.553 1.837 2.36 1.996zm-6.655-5.67c-1.366-1.473 1.87 0 0 0zm4.84 5.432c-.952-1.272 0 .753 0 0zm6.237-1.312c-1.296-.514-1.212.092 0 0zm-8.68-6.279c-.766-.724-.698.082 0 0zm-1.275-.215c1.512-.29-1.761.15 0 0zm12.264-3.583c-1.27-1.257.981 1.102 0 0zm3.17-2.687c1.129-.28-1.678-.035.02.064zm-.16-1c-.477-.72-.516.083 0 0zm5.688-8.46c-.12.91.12.916 0 0zm-9.734.575c.14-.845-.572-.387 0 0z" style="fill:#f0e8d7;stroke-width:1" transform="translate(3124.354 -2181.331)"/><path d="M-3106.784 2234.105c.094-1.4.882-4.547 1.057-4.835-.487 1.577-.278 3.354-1.057 4.835zm18.052-.068c-.424-.97.324-3.994-1.316-3.456.134 1.013.354 4.31.136 1.557.152-1.378-1.4-1.983-.755-.271.24 1.434-.147 1.174-.103-.055-.771-2.618-4.773.973-5.968-1.965-1.508-1.358-.415-4.19-1.464-5.221-2.479.689-.664 4.439-1.41 6.402 0 .884-.314 3.67-.217 1.338.079-2.668.308-5.33.336-8-1.906-.85-4.032-2.44-4.76-4.28-.074-1.36-3.378-1.74-1.537-.491 1.896 2.061.458 4.874-.113 7.176-.578 2.084-1.169 4.179-1.409 6.335-.503-1.907 1.93-5.115-1.345-5.472-1.855-.853-4.563-1.417-4.9-3.828.013 1.479-.785-2.022.218-.36 1.787 2.088 4.469-.914 3.81-2.952-.232-1.042-1.795-1.562-.63-.151 1.17 2.389-3.11 5.096-3.369 1.648-.298-2.428-.575.646-.498.02.087-2.08-2.163-2.79-2.245-4.854-.565-1.569-.1-2.639 1.37-1.345.31-1.207 3.105-1.532 1.917.072-1.736 1.44 3.39.266 1.676 2.273.186 1.273 2.3 1.6 3.243 2.389-.04-1.568-2.111-3.139-2.839-4.715-1.093-1.017-1.444-3.513-3.271-3.145h-3.588c.551.503 2.292 2.915.735 1.27-1.895-.831-.354-3.11 1.283-2.277 2.617-1.177 4.154 1.802 5.204 3.651.524 1.268 1.982 1.597 1.64-.215-.15-2.026.741-4.132 1.545-6.186.274-2.296 2.741-3.088 3.756-.74 1.359 2.364 4.165 4.216 6.947 3.283 2.928-.744 5.022-3.098 7.622-4.485-.557-1.307-3.085.717-3.87 1.652-1.909 1.505-4.459 2.62-6.906 1.894-1.679-1.022-4.53-3.532-4.484-4.717 1.556 1.729 2.972 4.027 5.497 4.352 1.97.273 4.145-.384 5.55-1.768-1.81.957-3.883 1.72-5.955 1.134-2.385-.535-3.781-2.708-5.243-4.466 1.547 1.359 2.734 3.109 4.852 3.718 2.532 1.02 5.32.058 7.354-1.57 1.212-1.278 4.916-1.889 3.601-4.173-.045.862-2.313 2.75-2.298 1.954 1.323.08 2.064-3.784 2.725-1.628-.65 1.86.01 3.594 1.602 4.655.743.83 1.611 3.654 1.252 3.583-.63-2.09.128 1.624.158 2.208.394 2.64.784 5.284.958 7.95-.15-.724.253-2.207.115-.627-.33 2.286.416 5.178-1.634 6.838-1.637.462-3.485 1.37-2.374 3.372-.23-.916-1.001-1.713-.684-.19-.023.677.847 2.896.083 2.878zm-4.292-4.066c.806-.09 4.753-1.138 2.164-.685-1.575.204-3.252-.236-4.759.371.893-.688 3.968.197 1.382.451-.091.086.97-.043 1.213-.137zm-2.626.022c-1.038-.878-.905-.038 0 0zm.065-.884c1.355-1.452.389-3.756 1.187-5.259.038-1.144-1.75-2.63-1.006-.526.57 1.759-.889 4.649-.181 5.785zm-.477-1.222c-1.448-.185-1.167-4.552-1.43-1.462.085.623.627 1.812 1.43 1.462zm7.787-1.046c-.175-1.822-2.722-4.413-4.056-3.771.37.979 2.308 3.571 2.454 2.73-.514-.722-1.234-1.868-.199-.59.567.046 1.457 3.18 1.801 1.63zm-3.102-.637c.01-.828-2.067-3.768-.516-1.918-.106-1.516-2.98-1.76-1.21.015.183.443 2.14 4.223 1.726 1.903zm-2.62-.408c2.54 1.099-.533-5.106-.264-2.062.138.72-.189 2.373.234 2.014zm7.743.17c-.566-1.868-2.8-3.136-4.673-3.262 1.148.81 3.4 1.527 4.46 3.032zm1.662-1.261c.049-4.92-.857-9.79-1.61-14.629-.137-1.97-2.915-4.282-3.827-1.496-.46 2.07-.778 4.315-.14 6.377-.085-.988-.333-3.429.22-3.32-.255 1.09-.09 3.18.516.989.341-1.022 2.38-4.336 1.058-1.663-.578.766-1.333 3.752-.384 1.425.531-1.04-.386 2-.435 2.516-.35 1.026-.314 2.87.387.93.45-.727 1.562-3.432 1.467-2.822-.605 2.213-2.339 4.027-2.524 6.358 1.752-1.262 2.904-3.239 3.494-5.282-.101 2.195-1.363 4.037-2.647 5.724-.484 1.158 2.526.11 3.201 1.337 1.338.776.796 3.886 1.136 4.226l.04-.23zm-.924-4.5c-.909-.414-2.622-1.12-.715-.542.068.05 1.094.666.715.541zm-.632-1.702c-1.444-.131-.76-.556.22.063zm-2.303 6.732c-.938-1.485-.594-.065 0 0zm3.099-.144c-.635-1.569-.08.32.057.154zm-22.205.15c1.668-.05.857-4.551.481-2.137.196.63-1.068 1.828-.48 2.138zm-2.782-.399c.805-.46 1.114-1.568.26-.333-.178.128-1.285.856-.26.333zm2.99-1.922c.6-1.637-2.893-3.317-1.815-.798.715-1.145-.558 2.214.416.807.449-.962 1.666 1.186 1.4-.01zm21.47.361c.143-1.675-4.59-1.41-1.576-.636.489.242.985.79 1.576.636zm-20.045-.488c-.734-1.378 1.44.825.038-.89-.479-.833-1.905-.963-.609-.032.104.01.758 1.61.57.921zm18.502.254c-.847-.735-2.985-.699-.766-.314.253.11.5.235.766.314zm-25.579-.305c-.371-1.28-.042.753 0 0zm20.273-.346c2.198-.844.725-4.102 1.065-5.93-.666-2.183-1.114-4.558-.856-6.73-1.583 1.458-3.755 1.754-5.703 2.504-.373 1.738-.797 3.88-.74 5.806.495 1.606 2.132 2.902 3.536 3.777.998-.275 1.674 1.08 2.698.573zm-1.826-3.448c-2.422.53-2.973-1.993-2.368-3.754 1.022-.913 3.399-.495 4.292.172.443 1.342.186 4.338-1.924 3.582zm1.461-.311c.791-1.676.594-4.513-1.93-3.635-2.442-1.047-2.76 4.023-.25 3.718.727.069 1.458 0 2.18-.083zm-2.098-2.338c-1.66-.876 3.134-.26 1.243-.37-.375.08-.883.526-1.243.37zm-3.6 1.657c.272-.912.407.729 0 0zm12.746 3.677c-.666-1.112-3.987-.776-3.117-.34 1.055-.186 2.104.369 3.117.34zm-20.924 0c-1.861-1.763.475.759 0 0zm1.149-.48c-1.69-2.575.602 1.159 0 0zm.382-.177c-.2.082-.12.049 0 0zm-1.38-.547c-1.41-1.137.972 1.2 0 0zm7.958.377c-.389-.584-2.91-2.374-.865-1.868 1.277-1.9.616-4.426 1.004-6.543-.823-.822-2.857-1.39-3.442-1.584-1.014 2.009-2.87 5.378-.172 6.786 1.097 1.009 1.804 3.08 3.475 3.209zm-.965-5.302c-.504-2.109 2.1.632 0 0zm-5.884 4.996c-1.218-1.176-2.951-3.318-1.49-3.885-1.206-.887-.177-1.373-.217-.593 1.481 1.837-.657-4.186.594-1.364.312.795 2.2 3.305 1.232 1.108-.445-.808-1.512-3.791-.823-3.29.279.762 1.793 3.856 1.239 1.353-.336-1.306-1.375-3.609-1.288-4.283.077.783 1.422 4.17 1.214 1.62.084-.399-.356-1.62.105-.548.124-.98.338-1.697.267-.19.035 1.18-.253 2.661.202 3.664-.267-2.259 1.509-4.817-.161-6.819-2.223-.43-2.799 3.407-3.341 5.166-.236 1.742-1.052 5.132-.135 6.012.057.35 1.669 2.401 2.602 2.05zm8.563.194c-.68-.662-1.46-.882-.302-.128-.044-.052.65.48.302.128zm-5.09-.697c-.758-.322-1.17.02-.062.098zm-8.4-.347c-.886-1.27-.583.109.096.369zm6.367-.759c-.651-.518-1.04.38 0 0zm-7.491-.659c.405-.677-1.29.475 0 0zm7.319.033c-1.107-.958-1.503.624 0 0zm-9.147-.88c1.017-1.008-1.443.184 0 0zm22.277-1.504c-.106-.975-.422-.536 0 0zm.401-1.044c-.742-2.154.262-4.378.129-6.556-1.752 1.579-1.181 5.717-.383 6.71.157-.252.552 1.54.254-.154zm-22.779.215c1.844-.666-2.077.994 0 0zm21.786-1.072c-.314-1.125.032-3.695-.122-3.946-.172 1.282-.387 2.726.122 3.946zm-11.068-3.194c.658-1.692-1.145-1.871-.746-.104-.3.804-.56 3.388.326 1.253.193-.36.373-.738.42-1.149zm.039.652c.796-2.666-.75 1.607-.514 1.067.214-.337.383-.69.514-1.067zm-10.19.541c-1.054-.786-3.632.133-3.906-.03 1.3.055 2.604.09 3.905.03zm-1.207-.196c.476-.365.856.413 0 0zm25.945-5.475c-2.406-1.309.667.94 0 0zm-1.946-1.579c1.522-1.253-.264-.05-.425.333l.165-.117zm-12.517 28.724c.184-2.734.33-5.472.595-8.2-.13 2.92-.223 5.848-.592 8.75v-.55zm-2.137 0c-1.908-1.75.413-4.486.126-6.677-.25-.911.798-2.843.904-.96-.36 2.621-.587 5.262-1.013 7.872l-.01-.119-.01-.116zm2.833-1.55c-.158-.83.158-2.178.114-.56.127 1.019-.199 2.954-.112.882v-.323zm3.261.882c-.03-2.285-.207-4.6.176-6.866-.121 2.623.123 5.253-.107 7.872-.118-.327 0-.673-.068-1.006zm8.485.722c-.307-.794.057-1.485 0 0zm-10.64-1.64c-.088-.944.128-3.929.105-1.35.02.765-.115 4.131-.104 1.686zm9.395 1.052c-.19-.922.024-2.238.085-.586.071.379 0 1.776-.085.586zm-6.745.128c-.157-.805.041-3.01.071-.92-.022.069.057 1.802-.071.92zm-5.908-.02c.246-3.054.636-6.094.963-9.14-.147 3.154-.62 6.28-.965 9.417v-.276zm16.166.03c-.162-.657.137-.784 0 0zm-.063-.81c-.298-.815.33-.34.078.058zm-24.7-6.563c-1.011-1.393.887.926 0 0zm28.551-7.709c-.382-.923.302-.788 0 0zm-31.302-3.902c-.98-1.77 2.12.39 0 0zm16.756-5.97c-1.512-.277-3.636-2.019-3.548-3.191 1.708 1.063 3.087 3.246 5.441 2.617 1.216-.303 1.466-.187 1.127-.028.94-.278 1.616-.677 1.41-1.149 1.912-2.099 3.95-4.21 4.807-6.993.966-1.862.828 2.496.195 3.213-1.059 2.26-3.475 3.347-5.436 4.688-1.552.627.803-.02-.647.525-1.084.448-2.205.472-3.35.317zm7.118-3.246c.478-.282 1.4-1.405.339-.377.805-.653 2.381-3.182 1.523-3.487-.612 1.571-2.063 3.605-2.726 4.555.292-.225.577-.46.864-.691zm-.434.176c.13-.334.918-.506.29-.13zm-5.836 2.006c-2.532.03-4-2.436-4.623-4.571-.92 1.75-.378-.873-.427-1.733.856 1.827 1.938 4.046 4.153 4.444-2.313-1.204-3-3.911-4.319-5.96-.38-2.659-1.607-5.728.22-8.134.433-1.204 2.988-1.736 2.66-2.864-2.82.011-4.781 2.915-4.491 5.575-.24 1.155 1.188 3.989.814 4.063-2.409-4.093-.565-9.885 3.724-11.884 2.915-1.214 6.96-1.683 9.262.955.904.278 1.665 3.037 1.287 2.778-.594-3.186-4.112-4.76-7.083-4.281-1.105 0-4.817 1.313-1.919.62 3.601-.537 7.58 1.933 7.977 5.71.565 3.183-.552 6.445-2.34 9.06.427-.612 1.967-3.09 1.055-.918.922-.633 1.733-3.54 1.817-5.253.12-.912.32-4.331.336-1.812.078 2.856-.531 5.845-2.377 8.098-1.201 2.182-3.702 3.777-6.242 3.416 2.235.562-1.452.21-1.68-.939-1.64-1.022 1.556 1.85 1.065 1.273-1.869-.765 1.59 1.112 2.406.24 1.025-.128 3.897-1.65 1.411-.618 1.774-.359 3.722-3.002 4.484-5.127.23-.109.51-.576.877-1.391-1.04 3.586-3.313 6.958-6.483 8.979-.416-.584-.864.388-1.564.274zm.992-1.005c1.259.139 4.375-2.82 1.646-1.367-2.234 1.173-5.248.926-6.654-1.337.29 2.26 2.996 3.317 5.008 2.704zm.33-.065c.694-.858.918-.264 0 0zm2.291-2.952c.519-.602-1.961.97-.281.185zm-2.928.153c1.336-.377 3.416-2.398 3.267-2.96-.496 1.575-2.359 1.306-3.254 1.429-1.478 1.133-4.4-.133-4.982-1.706.236-.788-.79-3.036-.59-1.079.386 2.338 3.107 4.931 5.559 4.316zm2.395-.48c1.132-.19 2.823-2.888 1.03-.807-.322.294-.654.583-1.03.806zm1.574-3.016c1.12-1.439.679-4.596.799-5.44.372.977-.292 5.233.744 2.584.394-1.89 1.42-3.796.793-5.746-.901-3.483-4.84-5.562-8.263-4.635-1.407.089-3.876 1.96-3.663 2.258 3.266-2.322 8.443-.371 9.392 3.523.885 2.559.545 5.335-.028 7.922l.226-.466zm.12-8.236c-1.312-3.418-5.796-5.036-9.036-3.405 3.276-1.978 8.298-.026 9.148 3.765l-.042-.186zm-6.052 8.282c-.48-.645-.273.752 0 0zm5.883-3.646c.126-3.48-2.143-7.445-5.863-7.83-.838 2.416 2.833 2.961 3.487 4.989.98 1.464 1.63 3.113 2.292 4.737.152-.62.113-1.265.084-1.896zm-9.494 1.064c-.668-2.448-.1 1.667 0 0zm8.278-.545c-.158-1.76-2.763.09-.426-.22l.101-.063zm-.574-1.138c-.045-1.52-3.764.183-1.485-.376.51.059.99.254 1.485.376zm-4.717-.07c2.46-.804.228-3.245-1.44-2.309-2.249.665-1.33 3.602.335 1.92.848.134.437.844 1.105.39zm3.18-2.936c-.377-1.001-4.141-3.038-2.124-.836.222.143 2.596 1.731 2.124.836zm-5.341-.715c1.298-.23 1.501-2.504.025-1.032-.726.214-2.042 2.262-.407 1.264zm.545-4.678c.193-.554-.884.865 0 0zm-2.065 17.937c-.374-1.787.974-.657 0 0zm.22-5.319c-.53-2.397.458.69 0 0zm14.27-3.096c.061-2.145.195 1.595.036.656-.025-.218-.028-.437-.037-.656zm-.025-1.56c-.225-.311.084-1.109.053-.332z" style="fill:#e5b09f;stroke-width:1" transform="translate(3124.354 -2181.331)"/><path d="M-3106.754 2233.886c.09-.886.692-3.797.713-3.289-.267.939-.066 2.886-.713 3.289zm18.062.207c-.493-1.32.182-4.033-1.284-4.349-.699.958.66 3.435.1 3.433.075-1.628-.537-4.464-2.728-2.858-2.364.99-5.44-.567-5.11-3.336.53-1.18-.718-3.714-1.566-1.748-.37 2.646-.147 5.344-.542 7.984-.012-2.96.41-5.91.278-8.871-1.785-.841-3.769-2.322-4.574-4.013.01-1.593-3.719-2.256-1.632-.582 1.71 1.545.722 3.747.214 5.578-.698 2.592-1.413 5.186-1.87 7.834-.386-1.95 2.028-5.006-1.19-5.578-2.341-.594-4.61-1.935-5.32-4.29.041-.328 3.024 2.172 3.47.244 1.424-.964 1.169-4.104-.217-4.165 1.838 1.51-.692 6.025-2.545 3.609-.376-.685-.633-3.282-.813-1.034.198-.226-.526-2.231-1.343-2.778.11-1.512 3.855-1.77 3.637-1.793-1.829.793.306.523.399-.392-1.606-.423-3.563 2.209-4.67.738.396-.845 3.48-2.114 1.721-.864 1.095-.664 1.773.188 2.96-.023.572.68-.765 1.59.58 2.24.87.879 4.13 2.25 2.178.146-1.459-2.222-2.994-4.393-4.523-6.567h-4.674c.573.573 2.271 2.874.684 1.233-1.567-.98-.757-2.814 1.048-2.293 2.47-.744 4.146.95 5.065 2.98.364 1.087 2.226 3.138 2.024.658.043-2.49.87-4.866 1.891-7.105.714-2.324 2.967-1.473 3.592.352 1.414 2.008 3.789 3.765 6.366 3.06 2.918-.523 5.007-2.796 7.471-4.21 2.375-.841-.92-1.293-1.53-.177-2.177 1.831-4.746 3.983-7.811 3.474-2.2-.316-3.407-2.37-4.897-3.775-.909-1.048-.339-1.166.429-.134 1.379 1.9 3.355 3.845 5.904 3.597 2.234-.295 4.232-1.587 5.914-3.025-1.783.98-4.127 2.69-6.557 2.36-2.277.259-5.403-3.154-5.47-3.969 1.655 2.786 5.36 4.717 8.47 3.15 2.398-1.034 4.376-2.788 6.638-4.06.44-.651.01-2.848.38-1.032-1.39 2.396 1.535 3.472 2.232 5.417.609 1.854.437 3.853.93 5.774.34 2.293.596 4.598.798 6.908-.123-.804.198-2.176.105-.572-.403 2.287.412 5.262-1.852 6.784-1.244.329-3.381 1.095-2.316 2.76-.325-2.065-1.118-.762-.515.533.101.859.707 2.004.072 2.746zm-4.647-4.054c2.711-.583 5.519-1.159 7.868-2.715 1.802-2.702.6-6.031.432-9-.395-3.608-.519-7.402-2.285-10.67-2.386-1.73-3.287 2.148-3.186 3.89-.113.951.125 3.694.336 3.427.148-1.626 1.77-4.464 2.202-4.915-1.36 2.645-2.28 5.586-2.207 8.585.797-1.521 2.146-4.462 2.64-5.1-.944 2.687-2.879 5.056-3.05 7.985 1.338-2.206 3.494-3.99 4.062-6.607-.374 2.81-2.66 4.739-3.981 7.1 1.7-.677 3.853-.377 5.12 1.007-.697-.93-4.888-1.451-2.257-.417 2.266 1.56-3.391-1.303-1.791.236 1.386 0 3.969 2.573 3.287 2.764-1.15-1.435-2.9-3.036-4.867-2.79.934.318 2.24 2.165 2.11 2.32-.562-.91-3.279-3.284-3.361-1.892.32.87-3.149-1.9-2.036.369.737 1.686-.988 4.522.238 5.52 1.08 0 2.842.248.725.204-1.395.15-3.546.398-3.895-1.45-.083 1.99 2.33 2.755 3.896 2.149zm1.999-3.833c-.032-.852-1.836-3.42-.45-1.592.216.503.55 1.016.45 1.592zm6.099-.83c-.75-1.06-.432-1.866.118-.359.246.452.147 1.5-.118.359zm-7.83-.671c-.562-1.089-.737-2.143-.032-.458.055.143.32 1.391.032.458zm2.878-2.877c.765-.647 1.923-.065.413-.047.048-.055-.997.472-.413.047zm-5.227 7.22c.893-1.908 1.025-3.542.85-5.68 0-1.347-1.703-1.468-.82.021.617 1.79-.913 4.68-.372 5.78zm-.546-1.14c-1.516-.108-1.309-4.547-1.51-1.51.036.765.57 1.84 1.51 1.51zm-10.203-1.533c1.156-1.93.237-3.946-1.423-5.17.932.745-.215 4.674.346 1.786.271-1.728-2.867-3.559-1.949-.772.098 1.445-1.342 3.388-2.872 2.342 1.055 1.55 4.798 4.562 5.802 2.139zm10.048.93c-.481-.838-.994-1.149 0 0zm-.603-2.923c2.247-2.096-1.296-4.957-3.402-5.376-.55-.296 3.804 1.686 1.645 2.09-1.593.187-3.005-1.352-4.494-1.041.8.443 3.362 1.242 3.043 1.54-1.697-.705 1.188.74-.438.356-1.197-.185-3.213-2.073-3.764-1.449.455.537.913.547.127 0 1.247 1.05 4.106 1.338 4.04 2.969.674.849 2.221 1.199 3.243.906zm-14.836-1.09c1.073-.35 1.539-3.479.842-1.002-.137 1.235-2.835.252-1.155 1.215l.146-.065zm6.223-.353c.144-.907-2.277-2.677-1.169-.835.202.223 1.114 1.834 1.17.835zm-7.554.062c-.145-1.12-.706-1.349-.157-.122zm20.232-.604c2.698.179 1.795-3.562 2.188-5.27-.599-.545-1.469.25-1.417-1.14-.457-2.03-.75-4.112-.735-6.197-1.536 1.754-4.894 1.41-5.928 3.023-.048 2.059-.62 4.236-.394 6.198 1.742 1.425 3.164 2.945 5.39 3.455.312.085.599.046.896-.07zm-2.86-3.578c-2.742.113-1.853-5.518.872-3.978 1.38-.226 2.83.332 2.122 1.943.45 1.972-1.411 2.648-2.993 2.035zm2.26-.078c.99-1.505.873-4.622-1.626-3.71-2.437-1.377-3.026 3.713-.584 3.666.731.115 1.475.077 2.21.043zm-1.915-2.567c1.008-.612 1.81-.074.32.01-.105-.052-.213-.02-.32-.01zm-3.576 1.9c-.339-.821.812.017 0 0zm-12.72 4.049c-1.374-.574-.809.537 0 0zm6.172-.721c-.367-1.859-3.61-3.12-1.858-4.893-2.071-1.822 2.896 2.377 1.81-.497-.75-.75-1.39-3.208-1.176-3.377.048.938 1.737 4.775 1.613 2.615-.23-1.701-1.024-3.473-1.373-5.005.18.863 1.312 3.5 1.025 1.064-.234-1.083.345-.804.352-1.874.05 2.126-.277 6.379.96 7.11-1.103-2.04-.445-4.887-.19-7.331.83-2.75-2.964-2.388-2.971-.102-1.324 2.727-1.471 5.81-1.682 8.78.85 1.385 2.126 2.639 3.446 3.704.034-.01.114-.195.044-.194zm-6.068-.515c.857-1.967-2.011-1.494-1.708-.223.382.33 1.257.528 1.708.223zm4.548-.465c-1.452-1.434.51 1.136.218.203zm7.992.313c-.636-.725-2.827-1.988-.756-1.996 1.05-1.923.607-4.438.845-6.49-1.097-.473-2.633-1.514-3.574-1.468-.363 1.934-2.364 3.802-1.035 5.77 1.43 1.288 2.536 3.953 4.52 4.184zm-.994-5.272c-.575-1.882 2.01.401 0 0zm-10.51 4.958c.285-1.075-1.972-1.656-.358-.614.189.026.425 1.367.358.614zm6.54-.744c-.54-.566-1.136-.509-.134.031zm.548-.093c-.374-1.095-2.785-.752-.662-.33.144.13.43.678.662.33zm-10.408-.166c3.49-2.066-2.673.272 0 0zm1.716-.69c-.493-.324-1.716 1.225-.279.184l.279-.184zm.24-.502c-.224-.892-1.066.829 0 0zm7.24-.067c-1.057-.812-1.854.692 0 0zm-9.129-.764c1.078-.94-1.392-.01-.11.038zm7.385-.027c-.655.033-1.349-.03-.21-.114-2.447.077 1.695.281 1.044.13-.278-.01-.556-.02-.834-.016zm15.25-.604c.289-1.294-.816.244 0 0zm.19-1.2c-.62-2.485-.434-5.13.34-7.56-2.302 1.856-1.57 5.324-.676 7.734.357.857.562.763.335-.173zm-.475.442c-1.059-1.987-.786-4.356-.627-6.518-.696 2.098-.43 4.586.627 6.518zm.609-1.217c-.34-.88-.2-3.016-.332-3.121-.203.97.345 3.93.405 3.52zm-12.69-2.521c.714-.651.797-3.187.358-1.046-.452.913-1.546 3.65-.457 1.243l.054-.107zm-.245.026c1.18-.601.43-4.648-.05-2.199-.176.906-.853 3.819-.497 3.377.15-.407.352-.793.547-1.178zm-9.564-.312c-1.099-.724-3.733.046-4.015 0 1.337.076 2.677.028 4.015 0zm-1.171-.197c.663-.422.794.35 0 0zm26.074-5.337c-.735-1.05-1.845-.16-.254-.072.014-.027.612.502.254.072zm-14.628 27.029c.036-1.203.271-3.928.38-4.175-.071 1.394-.126 2.8-.38 4.175zm-2.098-.4c.229-2.367.55-4.724.862-7.08-.162 2.57-.566 5.114-.896 7.665l.034-.586zm6.05-.673c-.057-2.163-.06-4.335.136-6.492-.062 2.255.18 5.956-.104 7.314-.037-.273.013-.55-.032-.822zm-2.143-.5c.015-1.71.033 1.661 0 0zm2.62-.275c0-2.036.05 1.508 0 .071zm14.086-13.58c-.323-.856.197-1.2 0 0zm-31.779-.682c-.672-1.002-.517-3.32.883-1.637.802-.133 2.63-2.113 2.72-.445-1.037.964-2.681.96-3.603 2.082zm1.563-1.285c-.066-1.368 3.278-.826.767-1.132-.345.153-1.195.692-.767 1.132zm-1.743-.576c1.038-1.188-.96 1.33 0 0zm.634-1.449c-.695-2.213 1.878.902 0 0zm16.763-5.967c-1.524-.29-3.19-1.624-3.586-3.057 1.333 2.13 3.977 3.556 6.478 2.732 2.229-.465-1.67.908-2.522.378l-.37-.053zm6.512-.276c.588-.704.654-.142 0 0zm-3.514-.25c2.754-.638 3.822-3.565 5.3-5.642.552-.84 1.038-2.403.22-.632.315-.544 1.43-4.412 1.386-1.352.286 2.508-1.529 4.626-3.58 5.798-1.056.641-2.044 1.72-3.326 1.827zm4.228-2.76c1.154-.408 1.763-2.985 1.76-2.1.638-.78.479-3.461-.205-1.162-.475 1.3-2.741 3.86-2.523 4.035.327-.251.65-.51.968-.772zm-7.365 2.057c-2.312.031-3.031-3.937-3.928-4.224-.475 2.238-.373-3.512.224-1.14.284 1.938 3.624 4.17 4.02 3.722-2.28-.62-2.785-3.44-4.068-5.139-1.085-2.633-1.625-5.696-.71-8.445.56-1.372 3.405-2.334 3.124-3.438-2.74.07-4.904 2.906-4.468 5.566-.387 1.255 1.173 3.818.763 4.085-2.193-3.83-.82-9.26 3.056-11.43 2.674-1.518 6.232-2.006 8.978-.439 1.025 1.04 2.636 2.385 2.293 3.987-.358-3.156-3.746-4.892-6.671-4.557-1.234-.084-3.898.844-4.03 1.065 3.423-1.236 7.973.156 9.187 3.836 1.5 3.978.024 8.639-2.934 11.55 1.122-1.118 1.194-.458-.028.219-.81.383-2.083 1.193-.356.552 2.044-1.11 3.191-3.384 3.895-5.51.478-1.408.55-4.335.705-4.906.135 2.955-.249 6.181-2.236 8.515-1.22 2.476-4.218 4.44-6.986 3.297.425.238 2.095.824.294.462-.91-.308-2.534-2.69-1.427-.452 1.979 2.044 5.3.683 7.167-.852 1.202-.96 2.203-3.641 2.71-4.114-1.132 2.978-3.09 5.765-5.76 7.552-.492.127 2.182-1.946.362-.71-.88.682-2.028 1.38-3.176.948zm1.844-.526c1.473-.498 3.767-2.255 3.96-3.054-2.015 1.68-5.12 2.861-7.556 1.385-.747-.775-1.999-2.491-.959-.391.72 1.735 2.765 2.728 4.555 2.06zm.638-2.293c1.553-.408-.861.016 0 0zm.758-.35c.889.089 3.478-2.347 1.51-1.005-.1.172-2.954 1.202-1.51 1.005zm-1.018-.796c2.475-.813 3.795-3.654 2.473-5.962-.656-2.726-3.834-3.198-5.257-5.181-.711-2.4-1.317 1.35-2.445 1.672-2.2 1.885-1.105 4.806-.296 7.058 1.055 1.664 3.503 3.704 5.525 2.413zm-2.41-.865c1.118-.58 1.635.54 0 0zm-.116-.377c-1.172-.062-.927-1.075-.018-.134.943.047 3.252-.628 1.139.158a3.793 3.793 0 0 1-1.12-.024zm-.327-1.107c-.703-.926-.556-.86-.516-.758.212-.884-.34-3.51-.81-1.402-1.636 1.083-2.464-1.479-1.029-2.089-1.064-.24-1.705-.978-.162-1.043 2.012.359 2.482 3.015 2.554 4.62.215.406 2.382.22-.038.672zm-2.467-3.248c1.554-.409-1.078.09 0 0zm5.132 1.244c-2.66-.728-1.862-4.62.95-3.379 2.13.574-3.078.866-.322 1.294 2.29.747-1.12.126-.58.87 1.442-.269 2.16.741.516 1.227l-.295.024zm3.548 1.668c.078-.843 1.193-3.576.544-1.386-.342 2.036 1.41-1.428 1.458-2.073.806-2.823 1.038-6.364-1.273-8.573-2.777-2.82-7.925-2.502-10.397.557 2.65-1.77 6.583-1.229 8.452 1.43 2.188 2.897 1.72 6.783 1.063 10.113.021.08.218-.069.153-.069zm.896-4.177c.02-2.37.175 2.113 0 .41v-.41zm.76.73c.153-1.329.688-1.37 0 0zm-1.716-5.82c-1.454-3.037-5.474-4.378-8.52-3.044 3.196-1.678 7.676.1 8.786 3.551l-.266-.506zm.07 5.2c.183-3.536-2.164-7.574-5.945-7.92-.63 2.565 3.083 3.093 3.77 5.286.775.941 1.573 4.169 2.2 3.81.013-.392-.024-.791-.026-1.175zm-.701.948c-.1-.569-.702-1.45-.198-.319zm-2.364-4.375c-.702-.873-2.584-2.58-3.206-2.077.66 1.122 1.95 1.85 3.206 2.077zm-5.708-.907c1.03 0 2.08-2.52.403-1.283-.827.247-2.719 2.664-.403 1.283zm.572-4.731c.461-.667-1.097.918 0 0zm-3.127 18.23c1.394-.574.319-.08 0 0zm13.695.04c1.419-1.041 1.243-1.134.616-.677 1.003-.287 2.39-3.47 1.582-1.146-.483.838-1.3 1.48-2.198 1.823zm-12.555-.573c-.022-1.784.583.782 0 0zm.222-5.102c-.466-2.456.422 1.082 0 0zm14.284-3.1c.104-2.788.108 2.976 0 0z" style="fill:#c98b76;stroke-width:1" transform="translate(3124.354 -2181.331)"/><path d="M-3106.784 2234.196c.228-1.186.363-2.729.764-3.686-.302 1.19-.266 2.715-.661 3.736-.077.258-.127-.102-.103-.05zm18.097-.241a55.974 55.974 0 0 0-.7-4.436c-2.26.392-4.676 1.544-6.931.65-1.541-1.341-1.445-3.552-1.411-5.42-1.64-.795-1.792.31-1.669 1.759-.11 1.994-.24 3.987-.337 5.982-.035-2.7.223-5.398.33-8.097-1.476-.528-2.647-1.57-3.608-2.735-1.244-.51-1.37-1.394-1.217-1.94-.567-.649-2.716-1.769-2.417-.771 1.05 1.015 2.422 2.173 1.74 3.774-.712 3.477-2.034 6.842-2.435 10.39-.224-1.563.464-3.162.699-4.713-.607.19-1.173-.535-2.295-.915-1.648-.955-4.333-1.194-4.478-3.568-.57-.683-.792-1.627-.023-.433.854.578 2.49 1.238 3.314.433.84-1.557 1.235-4.007-.721-4.903 1.046 1.187.95 2.961-.09 4.158-.945 1.638-3.02-.288-2.632-1.697-.251-2.154-.679 1.722-.513-.336-.141-1.04-1.14-1.1-1.476-2.095-.095-.377.826 1.201 1.407 1.42 1.68.548 1.066.225 1.655 1.55 1.09 1.093 1.941-1.278 1.402-2.088-.143.542-.51-1.343-1.522-.47-1.757 1.291-.844-.085.44-.566 1.514-1.025-.359-.946-1.06-.183-1.54.873-1.376.122.037-.404.536-.473 3.145-1.022 1.72-1.485-1.204.43-2.434.81-3.58 1.38-.362-.871 1.388-1.8 1.956-1.64.032 1.266 1.55-.435 2.242.402-.413.973-.96.7-.693 1.747.311.13 1.787.65 2.358 1.356 1.172.922 2.241.788.87-.564-1.724-2.207-3.07-4.822-4.918-6.856-1.466-.028-3.139-.033-4.503.125.449.528 2.53 2.894 1.186 1.743-.37-.887-2.304-1.84-1.25-2.74.543-.043 3.001-.276 2.494.054-1.15-.075-3.753.297-1.176.226 1.087.02 2.554-.219 3.34.197.374.134 1.193 1.2.724.658-.14-1.22-2.268-1.378-2.373-1.28.944-.165 1.972-.038 2.303.585.796 1.698 2.105 3.226 3.231 4.691.155.108.219-.012.328-1.427.069-.731.615-3.417.02-1.377-.166-.73.574-2.054.812-2.982.49-1.666 1.016-3.323 2.35-4.646 1.446.047 1.79 1.954 2.866 2.714 1.258 1.592 3.165 2.974 5.29 2.449 3.697-.136 5.905-3.753 9.233-4.743-.87-.898-2.175-.37-2.86.322 1.024-1.395-1.164.645-1.8.888-1.929 1.434-4.604 1.97-6.88 1.227-1.532-.77-3.252-2.401-3.881-3.628 1.025 1.41 2.34 2.568 3.915 3.339.794.294.83.591 2.171.43 3.519-.07 5.99-2.97 8.945-4.458.722-.734.554-2.285.584-.471-.735 1.032-.952.429-.074 1.564 1.16 1.41 2.603 2.833 2.884 4.73-.09.81-.926-2.742-.431-.456.815 4.955 1.854 10.21 1.405 15.101.017 1.619-1.694 2.954-3.303 3.281-1.289.02-.936 1.137-.493 1.893-.239 1.438-.366-2.671-.88-.86.292 1.475.488 2.969.67 4.46-.265.063-.374-.049-.292-.295zm-4.52-3.916c2.647-.602 5.477-1.17 7.752-2.692 1.417-1.823.871-4.425.752-6.586-.702-4.23-.476-8.76-2.367-12.695-.454-1.549-2.846-1.036-2.897.4-.68 2.251-.766 4.735-.216 7.006.076-2.09 1.396-4.096 2.339-5.747-1.48 2.807-2.443 5.905-2.384 9.109.858-1.8 1.803-3.78 2.732-5.415-1.041 2.772-2.98 5.294-3.177 8.322 1.087-2.028 3.079-3.718 3.864-5.776-.595 2.376-2.888 4.097-3.733 6.154 1.534-.753 3.377-.507 4.697.529-1.143-.353-2.434-1.035-3.606-.528.864-.404 3.211 1.567 2.11.928-.788-.552-2.19-.912-2.914-.515 1.729.585 4.24 1.682 4.465 3.583-1.107-1.703-2.923-3.217-5.052-3.507-.648.34 1.655 1.251 1.78 2.245-.246-.122-1.4-1.519-2.218-1.838-1.193-.708-1.907-.361-.73.634.025.116-1.658-1.05-2.414-1.123.055.61.232 2.365.187 3.434.252 1.006-.927 2.865-.184 3.154 1.271.15 3.31.292.88.199-1.034-.393-2.193.725-2.98-.24-.701-1.483-1.15-1.859.447-1.07-.413-.374-1.366-1.43-1.158-2.452.095-2.056-.528.738-.185 1.434.02 1.478.828 3.544 2.712 3.195.509.047 1.005-.019 1.497-.142zm8.033-4.558c-.423-.947-1.142-2.578-.128-.845.186.407.577 2.147.129.845zm-6.465-.248c-.694-1.155-1.456-2.525-.222-.728.131.255.71 1.7.222.728zm-1.967-1.861c-1.353-2.41 1.143 1.792 0 0zm-1.746 5.663c1.25-1.676.712-4.03.79-5.994-.31-1.251-1.935-1.5-.86.01.088 2.027.065 4.223-.752 6.1.267-.05.61.115.822-.112zm-10.807-2.608c.025-.73 1.282-2.992.55-2.653-.68-.607-1.323-2.208-1.538-2.556.858.271 1.332 3.245 1.886 1.55-.665-.752.578-.085-1.182-1.415-1.072-.533-2.03-.6-.907.538.218 2.114.22.907-.373-.372-1.055-1.23-1.958-1.374-1.513.469-.1 1.075-.484 3.243-1.954 2.832-1.202-1.163-1.129.059-.137.706 1.32 1.236 2.93 2.222 4.785 2.215.126-.437.264-.877.383-1.314zm9.88.638c-.75-1.047-.903-2.738-.5-.569.049.537 1.354 1.649.5.569zm.246-2.389c.773-.882.552-2.213-.366-2.864-.763-1.638-2.532-2.567-4.187-3.016.282.873 1.851 1.485 2.671 2.094-.233.252-2.079.155-2.846-.345-.665-.517-3.6-1.131-1.913 0 .89.585 2.49.886 3.036 1.449-1.67-.075-2.955-1.438-4.499-1.792-.192.773 1.672 1.336 2.338 1.94.75.213 2.773 1.195.832.526-1.45-1.027-1.874-.618-.407.439 1.388 1.173 3.244 1.253 4.922 1.72-.256.35.414.01.42-.146zm-15.378-1.49c1.303-.943 1.646-3.275.218-4.149-1.423-.234 1.089.762.836 1.53.122 1.15-.647 2.258-1.656 2.752-.878-1.735-.957-.384.06.18.262.108.355-.227.542-.313zm-1.39-.06c-.424-1.025-.768-2.983-.492-.831-.14.214.767 1.403.491.832zm20.19-.742c1.538.383 1.812-.565 1.776-1.965.7-2.417.389-4.976-.04-7.412-.147-1.75.33-3.547.692-5.168-1.088 2.698-.915 5.649-.321 8.426-.036 1.613-1.571.404-1.338-.704-.805-1.895-.868-4.158-.471-6.05-1.799 1.378-3.889 2.436-6.199 2.428-.077 2.406-.559 4.987-.485 7.283 1.202.482 2.318 1.386 2.822 2.615 1.23-.878 2.342 1.296 3.565.547zm-2.39-3.508c-1.116-.11-2.67-.246-2.004-1.782.322-.845-.35-3.086 1.188-2.394 1.013.564 2.575-.178 3.32.36-.3 1.26.265 2.934-.648 3.899-.617-.031-1.258.035-1.857-.083zm1.858-.165c.65-.933.235-2.449.503-3.603-1.184-.141-2.578.15-3.775-.424-.666.728-.3 2.259-.519 3.289.264 1.008 2.105.63 3.033.83.253-.03.547.108.758-.092zm-12.157 2.707c-.383-1.614-2.124-2.533-2.745-4.004.99-.717 1.923-.316.33-1.36-.464-1.104 1.345 1.617 2.177.968 1.682.26.216-2.175.359-3.184-.228-1.242.099-2.588-.096-3.783.188 2.778.42-1.912.377-.043-.311 2.198.158 4.366.49 6.511.69 1.522.538-.602.378-1.466-1.13-.768-.35-2.57-.315-3.734.158-1.515.77-3.3-.65-4.395-.864-.315-1.563 1.245-2.013 1.924-1.36 2.705-1.562 5.835-1.809 8.79.347 1.258.597 1.36 1.436 2.132.722.11 2.192 2.82 2.08 1.661v-.016zm-.334-5.85c-.424-.525-1.246-3.586-.77-2.339.293 1.154 1.028 2.245 1.235 3.372l-.465-1.033zm-.134-3.661c-.632-1.571-.734-2.364-.02-.299.456.865.595 1.922.02.299zm-.234 9.507c-.246-.668-2.451-2.565-1.41-1.25.317.448 1.312 1.058 1.41 1.25zm7.206-.63c.038-.793-2.704-1.36-1.657-2.127 1.48.983 1.348-.286 1.398-1.516.174-1.738.293-3.483.483-5.22-1.408.097-2.613-.826-3.665-1.652-.09 1.923-1.948 3.41-1.408 5.438-.325 1.467 1.2 1.474 1.819 2.496.91.877 1.585 2.825 3.03 2.58zm-.937-5.242c-.895-2.045 2.177.073 0 0zm-3.491 4.068c.574-.442-3.063-1.496-1.469-.371.69.254 1.145 1.189 1.469.371zm2.077-.16c-.294-.4-2.09-2.498-1.32-1.444.312.266 2.507 3 1.32 1.445zm-3.287-1.274c-2.187-.769-1.252.711 0 0zm-9.047-.81c.861-1.25-1.817.45 0 0zm7.995.067c2.005.203 2.424-.36.172-.242-.596-.164-3.54.206-1.767.251.527-.01 1.083.012 1.595-.01zm14.584-.688c0-1.752-.818.655 0 0zm.24-.705c-.647-2.633-.645-5.432.263-7.982-1.519.482-1.526 2.68-1.46 4.124-.3 1.559.818 3.576 1.199 4.547.172-.187-.032-.476 0-.69zm-.853-.924c-.805-1.908-.493-4.122-.245-6.038-.852 2.25-.483 5.113.507 7.051.109-.253-.215-.724-.262-1.013zm-12.473-.674c-.175-1.61 1.894-3.139 1.27-4.732.222 1.766-1.65 3.333-1.38 4.9.079.079.194-.177.11-.168zm.408-2.037c.493-1.062 1.4-2.676.146-3.529-.244 1.783-.79 3.54-.866 5.355.131-.653.43-1.232.72-1.826zm-.211-2.682c.2-2.35-.222.174-.185 1.131.2-.288.094-.784.185-1.131zm15.607-3.285c-.52-1.038-2.707-.41-.707-.202.204-.01 1.403.866.707.202zm-10.713 25.556a49.332 49.332 0 0 1 .14-5.98c-.063 2.411.121 4.925-.088 7.276l-.052-1.296zm8.833-.342c-.415-2.45.18-.01.225 1.032 0 .652-.2-.965-.225-1.032zm-23.609-7.544c-.538-1.935.47 1.066 0 0zm-2.441-6.708c-.09-.677.508-2.019-.166-2.24-.659 1.932-.381-1.246.659.276.902 1.757.857-.91 2.106-.666 1.554-.126 1.374.912-.025 1.107-.96.28-2.436 1.135-2.574 1.523zm2.365-1.625c1.41-.24 1.609-1.106-.032-.842-.968.444-1.35 1.889.032.843zm-1.843-1.689c-1.044-1.491 1.855-.101.157.111zm.388-.275c-.41-1.045-.54.677 0 0zm17.075-3.109c-2.467.134-4.126-2.122-5.555-3.762-.869-.214-.858-1.783-.826-1.15.846.028 1.295 1.72 2.15 2.281 1.131 1.13.897.916 1.67 1.535 2.545 1.91 5.988.298 8.137-1.49 1.732-1.217.683-.362-.315.385-1.42 1.25-3.341 2.248-5.26 2.201zm-.488-2.572c-1.913-.23-3.193-1.83-4.275-3.27.189-.288.972.951 1.613 1.638 1.646 1.677 4.123 1.827 6.233 1.043-.59.458-2.49.8-3.57.589zm3.73-.989a20.08 20.08 0 0 0 4.483-3.546c.675-.993 1.19-2.743.927-3.592-.78 2.153-2.145 4.027-3.536 5.804 1.2-2.402 3.308-4.427 3.712-7.217.26-.349.329 2.177.345 3-.184-.85-.425 1.136-.923 1.809-1.165 1.49-2.938 2.457-4.457 3.559-.8.455-2.063.89-.55.184zm-3.887-.245c-2.372-.35-3.402-2.918-4.06-4.93-.378 1.523-.526 2.236-.301.198.139-1.381-.387-2.275.517-.43.827 1.706 2.094 3.881 4.323 3.488.564.05-2.017-.11-2.162-1.178-.801-.952-.722-2.24-1.89-2.94-1.125-2.624-2.003-5.65-1.387-8.515.35-2.193 2.743-2.854 3.987-4.368-2.506-.212-4.905 1.72-5.07 4.27-.397 2.36.645 4.554 1.474 6.684-.31-.517-.892-1.606-1.23-2.523-1.08-2.84-.535-6.156 1.502-8.433.297-.723 1.85-1.887 1.924-1.513.44-.013 2.365-.856 3.466-.586 2.33-.204 4.714 1.064 5.87 3.094-2.018-3.062-6.311-3.807-9.437-2.068-.74 0-2.846 2.43-1.657 1.518 2.567-1.626 6.243-1.105 8.124 1.35 2.187 2.945 2.026 7.062.951 10.405 2.053-1.026 2.27-3.713 2.808-5.704.271-1.327.16-2.758-.057-4.029 1.062 3.896-.228 8.38-3.136 11.172-1.9 1.135 2.048-1.263-.01.26-.709.322-2.947 1.245-.992.718 2.152-.483 3.092-2.767 4.14-4.462.84-2.074.856-4.344 1.084-6.54.108 3.119-.162 6.496-2.302 8.957-1.01 2.063-3.206 3.527-5.494 3.618-.73-.198-1.492-1.112-1.343-.462-1.428-.993 1.422 1.076.118.418-1.41-.932-1.17-1.001-1.176-1.33-.763-1.167-.846.224-.262.856 1.457 2.076 4.439.954 6.219.135-1.631.92-3.804 1.688-5.676 1.092-1.188-.392-2.182-2.21-2.73-2.664.772 1.06.88 2.444 1.998 3.284 1.058 1.26 3.215 1.32 4.341.24-.448.036.698-.267.564-.28-.843.74-1.851 1.5-3.041 1.198zm2.114-2.802c1.311-.455 2.903-1.102 3.588-2.325-.734.973-2.96 1.368-3.342 1.603 1.405-.416 2.161-.554.35.137-.653.5-3.244-.093-1.522.687.317.023.639-.015.926-.102zm-.374-1.047c2.087-.812 4.19-3.188 3.096-5.501-.538-1.238-1.017-2.725-2-3.623-2.136-.656 1.483.252-.825-.538-1.129-.273-2.488-1.487-2.973-1.969-.214.195-.293-2.482-.69-.637-.34 1.273-1.946 2.041-2.792 2.403.566.033 2.7-1.448 1.198-.34-.793.161-2.548 1.759-.921.672.996-.744-1.6 1.073-.6 1.943.21 1.617.737 3.185.993 4.784.628 1.549 2.345 2.21 3.657 3.072.622-.077 1.325.131 1.857-.266zm-2.014-1.387c-.898-.212 1.55-.02 1.922-.592.824-.075-1.516.886-1.922.592zm-.915-.314c-1.627-.854 1.325.417.053.04zm.23-.925c-1.097-.094.475-2.807.116-1.571-1.23 1.133.757 1.688.775 1.425-.374 0-.496.564-.891.146zm-2.13-1.85c-.621-.298-.38-.127-.988-.987-.17-1.313 2.013-1.168 2.136-.034-.157-1.06-2.208-.884-1.848-.066.733.014 2.4-.229 1.78.77-.334-.089-.498.324-.86.12-.142-.64 0 .511-.22.197zm4.857-.075c-.58-.67-.915-.134-.667-1.53 1.362-.76-.958 1.075 1.208.55 1.25-.458 1.441.207.627.328-.103.787-.46.444-.942.694l-.128-.01zm-5.196-2.498c-1.768.262-.976-.933.359-.628 1.243-.082 1.227.9.777.685-.22.184-.828.03-1.136-.057zm3.99-.01c-.564.211-.342-.934.997-.785 1.437-.376 2.901.834.65.446-.444-.013-1.42.79-1.646.34zm4.783 1.516c.466-3.79-1.376-8.401-5.445-9.285-1.619.02-.378 2.093.557 2.44 2.546 1.727 3.662 4.782 4.873 7.413 0-.19.01-.379.015-.568zm-3.377-5.156c-.769-1.014-2.317-1.727-3.156-2.256.465 1.589 2.204 2.352 3.657 2.805-.158-.172-.36-.403-.5-.55zm-5.987-.272c1.028-.307 1.883-1.106 2.21-2.118-1.088.494-2.6 1.058-2.788 2.327.197-.037.385-.148.578-.21zm.77-4.645c.614-.195.667-1.032-.145-.01-.064.466.077-.197.144.01zm5.23 19.367c2.007-1.181 3.403-3.241 4.827-5.058.303-.514 1.811-3.48 1.11-1.704-1.104 2.476-2.92 4.645-4.977 6.382-.285.06-.715.43-.96.38zm5.822-1.537c.984-.677 1.976-1.499 2.205-2.744.261 1.39-1.25 2.359-2.205 2.744zm-12.62-.591c-.027-1.195.465-.636.051.086zm14.542-8.01c.033-2.525.023 2.556 0 0zm-4.737-6.22c-1.408-2.402-4.375-3.387-7.038-3.004 2.817-.636 6.15.767 7.31 3.402-.162 0-.134-.35-.272-.397zm3.932-.839c-.499-3.39-4.462-4.71-7.454-4.137-1.134.099-2.673.729-3.448.962-.012-.156.533-.544 1.258-.749 2.32-.8 5.246-1.09 7.35.292 1.147 1.036 2.61 2.187 2.511 3.988.096.749-.183-.077-.21-.327z" style="fill:#2a2527;stroke-width:1" transform="translate(3124.354 -2181.331)"/></svg>