<svg xmlns="http://www.w3.org/2000/svg" width="200" height="200" viewBox="0 0 52.917 52.917"><path d="M-3228.812 2298.303c1.393-.218 3.626-.783.847-1.443-.838-1.736-2.495-3.553-2.63-5.277 2.34-.773 3.1 4.875 4.709 1.342.729-.971 3.457.338 1.547-.882-3.182.634-5.263-5.588-1.653-6.415 3.665-1.535 5.743 2.236 5.65 4.571 1.32 2.958-5.861 1.116-1.469 2.67 2.382 1.227-.513 5.86 2.593 5.145 2.833.42-4.103.388-5.091.362-1.482-.052-3.108.127-4.503-.073zm4.024-2.077c1.337-.518-1.025-.876 0 0zm-5.006-4.309c-2.2 0 1.337.08 0 0zm3.104-1.408c.51-1.464-.642-.091.016.114zm28.834 7.883c-2.493-.085-.437-.225.509-.649-.262-1.247-2.135-3.192-1.647-4.26 1.576-.064 2.32 2.224 2.82-.35 1.508-1.821 1.32 1.682 2.585-.154-1.07-1.351-4.53-.468-4.33-3.49-2.458.074-1.478-2.982.201-2.96 1.501-2.625 7.02-1.08 6.444 2.345.647 2.381-4.514 3.102-.879 4.21 1.739 1.17 1.746 4.282 1.275 4.937 2.925.493-2.824.361-3.808.386a95.7 95.7 0 0 1-3.17-.015zm.948-7.147c-.144-.947-.372.028 0 0zm.171-1.414c2.06-.934-1.653-1.03-.321-.177-.108.136.342.45.321.177zm-14.964 7.563c-.84-3.005-.037-6.576-.32-9.804-.383-2.692 6.787-2.472 5.455.866-.512 2.813 1.072 7.143-.8 9.062-1.414-.017-2.994.21-4.335-.124zm4.79-4.995c-.106-2.249-.05 2.823 0 0zm-17.972-10.22c-1.662-.33-4.978.502-5.7-.312 2.729-.562-1.272-3.473 1.077-5.35.972-.6 2.77-2.017.44-2.045 1.059.819-1.45.4-1.058.848-1.239-1.094.185-2.55-.738-3.925.977-1.637 1.532-4.716 4.247-2.591 3.974-.395 3.575 6.19.188 6.31-2.873-.494-.267 3.002-.197.752.069-1.27 2.447 1.683 2.522 1.843.908-1.416 2.557-5.958 4.169-3.42-1.393 2.213-1.2 5.173-4.5 5.413-1.964 1.285 2.532 2.849-.45 2.477zm-3.597-3.016c-1.076-.76-.398.546 0 0zm.667-.11c1.7-1.037-1.815.33 0 0zm2.672-.111c2.6-1.235 1.105-.05-.383-.537-.415-.902-.298 1.276.383.537zm-1.71-.696c2.108-.706-1.055-.145 0 0zm2.036-.682c-.861-2.025-.993-1.056.034.34l-.034-.336zm-4.528-.392c.48-1.443-.751 1.336 0 0zm1.015-.207c-.089-1.105-1.182-.737-.065.01-.143.926.217.368.065-.01zm6.744.188c-1.424-.421.102.375 0 0zm33.28 5.068c-2.098-.65-7.541 1.525-5.985-2.357-1.977-.231-4.169-2.797-3.307-4.017 1.953-.953 2.783 4.52 3.165 1.023.55-1.704 2.84-2.375 1.99-.44 3.25-.945-.62-1.758-1.923-2.181-.938-1.792-2.998-3.667-.07-4.768 1.732-.754 3.186-1.63 4.864-2.253 2.82.74-1.113 2.904 1.6 3.465.451 1.854 1.24 4.755.567 6.106-2.85-1.017-.944 2.826-2.288 4.012-.4 1.557 2.038.51 1.387 1.41zm-3.732-1.948c-2.199 0 1.338.079 0 0zm2.26-1.216c.496-.277-4.092-.294-.688.112l.37-.01.319-.102zm-3.543-2.46c1.723.24-.992-1.812-.168.238-.09.3.17-.072.168-.238zm3.408.167c.216-.938-.536-.52 0 0zm.758-.592c.332-1.61.208-6.726-.563-2.768-3.675 1.426.222 2.195.563 2.768zm-3.242-4.461c-.789-.404-1.107.268 0 0zm-17.467 10.227c-3.246.038 1.632-1.414-1.42-2.33-2.22.425-2.81-3.481-3.602-4.906 1.57-.908 2.241 4.925 4.194 2.625.688-1.558 2.157-1.798 2.277-.393 2.288-1.373-1.042-2.561-2.201-.868-2.268-.323-1.27-3.671-2.164-5.159 1.806-3.652 5.717-1.08 8.34-1.595 2.368 1.023.195 3.87-1.07 3.05.583 1.812-.932 3.089-2.26 2.964 2.816.529 2.257 4.893 2.595 5.503 3.007-.387-3.27 1.986-4.689 1.11zm-1.039-3.259c-3.122-2.372 1.17 1.122 0 0zm.807-6.232c.821-.545-1.974-1.258 0 0zm-19.266-6.833c1.12-.386 4.977-.124 2.724-2.433-1.051-.956-2.915-4.736-.062-2.854.803 1.62 1.64-2.722 2.861-.2 2.842-1.117-2.585-1.553-3.639-1.641-1.274-1.708.102-1.622-.342-3.745.798-3.09 6.963-3.282 7.063.208.878.888 1.087 3.435-1.187 3.362.089-1.588-2.665 1.507.121 1.246 1.999 1.814.87 5.141.6 6.16-2.692-.114-5.534.165-8.14-.103zm7.598-2.358c.573-.312-.848.079 0 0zm-1.57-.434c.586-.372-.547-.745 0 0zm-1.329-1.078c1.133.402.063-.927-1.1-.334.297-.528 1.493.88 1.1.334zm3.257-.893c-1.43-3.152-1.195.156 0 0zm-3.926-2.626c-.637-.594.02.29 0 0zm12.661 7.37c1.153-.551 4.168-.081 1.427-1.458-1.114-.999-3.127-3.96-1.99-4.72 2.024-.137 1.85 3.47 3.68 1.342.24 3.157 3.446-1.292.358-.159-3.886-.67-3.569-7.216.868-6.396 2.249.531 4.896.717 4.334 3.644-.983.925-1.468 2.186-3.422 1.896-.524 1.103 2.115 2.262 1.496 4.203-.484 1.87 3.24 1.559.036 1.73-2.232-.053-4.698.109-6.787-.081zm6.206-2.704c.192-.851-1.468-3.1-.418-.684-.4.283.351 1.644.418.684zm-6.209-3.151c-2.442-.038.9.112 0 0zm2.121-.216c-.625-1.117-.285.328 0 0zm-.685-.747c-.344-1.379.124 1.104 0 0zm.571-.672c.226-.97-1.237.29 0 0zm-.61-.021c.034-.671-.072-.141 0 0zm13.401 7.528c.66-.14 2.415-.962.53-1.955-1.69-1.74.827-6.576 2.76-4.131 3.258-1.67-3.818-.026-3.105-3.027-.189-1.905-3.034-2.678-.376-3.996.251-2.217 2.71-.281 4.393-.868 3.223-.076 2.403 3.838 2.062 5.5-2.646.427-1.42 1.694.21 2.532.87 1.226 1.95 4.87-.752 4.137-1.445 2.876 6.303.929 2.611 1.862-2.749.01-5.722.047-8.333-.054zm3.263-.71c.025-1.091-1.169.567 0 0zm3.49-1.942c-1.274-.959-3.513-.577-.907.103.095-.33.84.306.907-.103zm-3.92-4.68c1.305-.228-.76-.788-1.458-.456-1.989-1.337 1.281 1.113 1.459.457z" style="fill:#9fe3ee;stroke-width:1" transform="translate(3235.425 -2248.008)"/><path d="M-3228.812 2298.303c1.393-.218 3.626-.783.847-1.443-.838-1.735-2.495-3.553-2.63-5.277 2.275-.963 3.096 4.978 4.595 1.423 1.45-.859 1.685-.712 1.04.385 1.762.437 2.346-1.005.477-.588 2.791-.981-3.895-.22-2.785-3.11-3.075-3.703 4.619-6.015 6.206-2.713.74 2.358 1.777 5.974-2.416 4.994 2.843.388 2.726 4.418 3.098 6.05 1.492-.235 3.407.398.522.346-2.964-.053-6.09.151-8.954-.067zm4.665-.322c.068-2.17-3.62-.845-1.419.044.473-.026.949.033 1.419-.044zm2.055-.88c-.977-.623-.82.846 0 0zm-1.895-.247c1.836-.42-2.412-.712 0 0zm2.24-.057c-1.108-.534-2.309-.015 0 0zm.824-.403c.368-1.906-1.509-4.954-3.046-2.542-1.289-1.178-2.636-.146-2.43.38.236.814 1.208-2.443.805.413-.183 3.029.635.115 1.535-.626 1.403.404-.169 2.237 1.61 1.414-.89-2.126.6-2.796.784-.634.164-1.766.46 2.88.742 1.595zm-2.168-2.975c.766-.904.549.23 0 0zm-1.697 2.806c1.326-1.11-.783-1.392 0 0zm-1.199-.298c-1.12-1.087-2.892-1.082-.907-.093-.066-.052 1.345.581.907.093zm-3.807-4.01c-2.2 0 1.337.079 0 0zm3.104-1.409c.51-1.464-.641-.09.017.115l-.017-.115zm28.834 7.883c-2.493-.085-.437-.225.509-.648-.262-1.247-2.135-3.192-1.647-4.26 1.576-.064 2.32 2.223 2.82-.35 1.508-1.822 1.32 1.682 2.585-.154-1.07-1.352-4.53-.469-4.33-3.491-2.458.074-1.478-2.981.201-2.959 1.501-2.625 7.02-1.08 6.444 2.345.675 2.359-4.515 3.084-.977 4.13 1.32 1.143 2.517 3.995 1.122 4.96 3.079.7-3.983.356-5.465.441-.42 0-.845-.01-1.262-.014zm6.19-1.354c-.919.123-2.883-.412-.225-.12 2.856-1.313-4.88-.466-.72.285l.49-.011.456-.154zm-2.836-.524c.169.098.96-.096.115-.496-.325.186-.466 1.372-.115.496zm3.555-.78c.137-1.716-3.05-3.38-2.313-2.41 1.726-.409 1.169 2.968 2.43 2.753l-.118-.343zm-1.675 0c-.625-1.29-.787-2.231-2.375-2.064-.521-1.679-2.143 1.19-.41.772-.072 1.28 3.044 1.891 2.785 1.291zm.426-.196c-.518-1.344-1.06-1.461 0 0zm-4.712-4.288c-.145-.948-.372.028 0 0zm.171-1.415c2.06-.933-1.653-1.03-.321-.177-.108.136.341.45.321.177zm-14.964 7.564c-.84-3.005-.037-6.577-.32-9.804-.382-2.692 6.788-2.472 5.456.866-.511 2.813 1.072 7.142-.8 9.061-1.415-.017-2.993.21-4.336-.123zm4.786-2.386c.871-2.56-4.621-1.41-4.73-.55-.954 2.71 1.545 1.997 3.175 2.041 1.248-.019 1.94.342 1.555-1.49zm-2.001.835c-.828-2.834 2.94.358 0 0zm.76-.206c.218-1.937-1.908.646 0 0zm-2.643.205c-.924-2.208 2.62-.134 0 0zm.76-.262c-.178-1.634-.356-.111 0 0zm-1.14-4.128c-.301-1.499.217-3.02 1.18-1.834-.66-1.388 1.184-2.401.931-.55 1.145-1.165 3.092 1.99 1.03.052-3.338.364 2.709.565-.048 2.514-1.623.63-1.695-3.163-2.99-1.047-.67 1.522.971 4.549 1.36 2.025.227-.62.108 1.948 1.64.863 2.028.332.885-2.21 1.181-3.43-.286-1.096.78-3.364-1.01-3.302-3.226-.78-4.35.989-3.678 4.056-.248 1.224.269 4.364.393 1.411.453-.25-.104-.519.012-.758zm1.059 1.98c-.176-3.285-.284-.467-.605-.397-.363-3.025 1.336-1.293.605.397zm1.291-.362c-.595-2.801 2.91.48 0 0zm.686-.136c.823-1.749-2.04.036 0 0zm-.398-.155c-.342-1.253 1.106.328 0 0zm.264-.222c-.163-1.012-.352.943 0 0zm-.138-3.89c.339-1.356 1.274.633 0 0zm.29 2.67c1.573-2.118-1.725-1.121-.442-.782 1.63-.72-.905 1.908-.406-.499-1.103.206.036 2.048.849 1.28zm-2.633-1.57c.764-.532-.984-.58 0 0zm1.24-.154c.906-2.502-1.274-.66.089.164l-.09-.164zm-.247-.85c-.131-1.37.813.615 0 0zm1.212-2.373c-.427-.146-2.854.138-.428.04zm-16.33-4.212c-1.662-.328-4.978.503-5.7-.311 2.729-.56-1.272-3.473 1.077-5.35.972-.599 2.77-2.017.44-2.044 1.059.819-1.45.4-1.058.848-1.239-1.094.185-2.55-.738-3.926.977-1.636 1.532-4.716 4.247-2.59 3.974-.395 3.574 6.188.188 6.31-2.873-.496-.267 3-.197.751.069-1.27 2.447 1.682 2.522 1.843.908-1.416 2.557-5.958 4.169-3.42-1.393 2.212-1.2 5.172-4.5 5.413-2.045 1.157 2.606 2.946-.45 2.476zm-2.993-.898c.411-1.129-.744 1.14 0 0zm-.604-2.117c-1.076-.76-.398.546 0 0zm.667-.11c1.7-1.038-1.815.33 0 0zm2.672-.112c2.6-1.234 1.105-.05-.383-.536-.415-.902-.298 1.276.383.536zm-1.71-.695c2.108-.706-1.055-.145 0 0zm2.036-.682c-.86-2.025-.994-1.057.034.34l-.034-.336zm-4.528-.392c.48-1.443-.751 1.335 0 0zm1.015-.208c-.09-1.106-1.182-.735-.065.01-.142.927.217.367.065-.01zm6.744.189c-1.424-.422.102.375 0 0zm.018-1.515c.95.188-.087-.492-.114.126zm.154-1.634c3.217-.179-1.49-.088 0 0zm33.108 8.217c-2.098-.65-7.541 1.525-5.986-2.357-1.977-.231-4.17-2.797-3.307-4.018 1.952-.952 2.784 4.52 3.165 1.024.552-1.706 2.841-2.374 1.992-.44 3.25-.944-.62-1.757-1.925-2.18-.938-1.792-2.998-3.667-.07-4.768 1.733-.755 3.187-1.631 4.865-2.253 2.82.74-1.113 2.904 1.599 3.465.452 1.854 1.24 4.755.568 6.106-2.85-1.018-.945 2.826-2.288 4.012-.399 1.558 2.036.508 1.387 1.409zm-3.732-1.948c-2.2 0 1.337.078 0 0zm2.263-1.222c.556-.276-4.053-.288-.704.104l.375-.011.329-.094zm-3.546-2.455c1.723.241-.992-1.811-.168.239-.088.394.17-.419.168-.239zm3.408.168c.212-.935-.534-.52 0 0zm.758-.592c.332-1.611.208-6.726-.562-2.768-3.678 1.426.225 2.194.562 2.768zm-7.47.025c-1.916-.342-1.128.282 0 0zm4.228-4.487c-.806-.41-1.087.311 0 0zm-17.467 10.228c-3.246.04 1.632-1.414-1.42-2.33-2.22.426-2.811-3.48-3.602-4.904 1.57-.908 2.239 4.924 4.192 2.626.689-1.559 2.157-1.8 2.278-.395 2.288-1.373-1.042-2.56-2.202-.868-2.268-.323-1.27-3.671-2.163-5.159 1.806-3.651 5.717-1.082 8.34-1.595 2.369 1.024.192 3.869-1.07 3.05.583 1.812-.932 3.088-2.26 2.964 2.637.642 2.513 4.556 2.44 5.558 2.952-.873-1.676 1.934-4.533 1.053zm2.543-.517c.171-.545-3.618-1.064-1 .2.317-.101.712.012 1-.2zm-1.596-1.145c2.122.255 4.869-.042 2.768-3.098-.673-2.727-2.66 1.806-3.027-.996-1.566 1.865.298 4.116 1.214 2.416 1.532 1.038-.57-3.198 1.3-1.036.868.49 1.457 3.106.11 1.886-.752.862-5.331-.583-2.365.828zm-2.024-1.627c-3.092-2.34 1.32 1.24 0 0zm.304-.238c.286-1.03 1.833-2.907.144-.925-.317-.065-.349 1.635-.144.925zm-2.603-1.05c-.35-2.116-1.249-1.783-.225-.312-.303-.367.404.855.225.311zm3.144-4.914c.822-.545-1.976-1.258 0 0zm4.879-1.44c-.38-2.013-.39-.06 0 0zm-.267-.864c-1.24-.615-.271.497 0 0zm-23.879-4.53c1.12-.385 4.977-.123 2.724-2.432-1.05-.955-2.917-4.736-.063-2.854.803 1.62 1.64-2.722 2.86-.2 2.843-1.116-2.585-1.554-3.638-1.641-1.275-1.708.102-1.622-.343-3.745.798-3.091 6.963-3.282 7.064.208.878.887 1.087 3.435-1.187 3.362.088-1.588-2.666 1.506.12 1.246 2 1.814.87 5.14.601 6.16-2.692-.115-5.535.165-8.138-.103zm7.598-2.357c.576-.312-.85.079 0 0zm-1.57-.434c.587-.372-.545-.744 0 0zm-1.328-1.078c1.133.402.063-.929-1.1-.336.296-.528 1.492.88 1.1.336zm3.257-.893c-1.427-3.14-1.198.14 0 0zm-3.927-2.626c-.635-.594.02.288 0 0zm12.662 7.37c.681-.62 4.337.087 1.675-1.23-1.763-.908-4.147-6.805-.8-4.195 1.051 2.356.75 1.262 2.271.635.053 3.01 3.486-1.279.428-.22-3.283-.45-4.143-5.902-.322-6.363 2.344.647 5.07-.142 5.464 2.947.106.423-2.198 3.562-1.252 1.596-.623 1.048-4.191.996-1.493 2.23-.03 1.993 2.326 4.982 1.606 4.673-2.5-.048-5.198.095-7.577-.072zm3.98-1.309c-1.272-1.631-1.923-.323-.24-.026-1.004-.446.207.42.24.026zm.41-.952c1.403-1.983-1.531-1.002-1.53-1.942-.7.91.582 3.013 1.53 1.942zm1.85-.357c.095-1.04-1.48-3.153-.448-.77-.488.334.756 2.052.449.77zm-5.845-3.187c-1.546-.222-1.604.127 0 0zm1.723-.267c-.668-1.149-.271.34 0 0zm-.652-.663c-.35-1.66.154 1.25 0 0zm.538-.755c.224-.97-1.237.294 0 0zm-.61-.021c.034-.672-.073-.141 0 0zm13.4 7.528c.66-.14 2.416-.962.53-1.955-1.69-1.683.82-6.596 2.701-4.132 1.14-1.206 3.563.49 3.085 1.138-.16-3.27-4.838-.788-6.11-3.685.338-2.23-3.3-3.052-.397-4.476.252-2.217 2.71-.281 4.393-.868 3.224-.076 2.405 3.838 2.063 5.5-2.65.43-1.411 1.69.206 2.532.875 1.225 1.956 4.872-.747 4.142-1.446 2.876 6.302.93 2.61 1.863-2.75.01-5.713.053-8.333-.06zm3.263-.71c.025-1.091-1.168.567 0 0zm.096-.822c-2.93-.312-1.274.147 0 0zm1.432-.258c-1.034-.143-4.158-.01-1.402.025-.34-.135 1.99.117 1.402-.025zm-.78-.52c-2.094-.115-2.062-3.883.342-1.977-1.23-1.349.36-1.732-1.83-1.71-1.364.835-1.416 5.088 1.3 3.747h.698l-.51-.056zm2.767-.29c.021-.867-4.191-.671-.805.027-.186.503.908-.282.805-.028zm-5.398-.727c-1.165-.574-1.054.18 0 0zm5.363-.337c.66-.66-2.023.518 0 0zm-.299-.414c1.192-.954-2.187.662 0 0zm-4.995-.056c-1.384-.752-1.408.38 0 0zm4.84-.414c1.045-.874-1.853.712 0 0zm-5.035-1.503c2.44-1.368-1.19.556-.223.33zm1.58-1.281c1.304-.228-.76-.785-1.458-.456-1.989-1.338 1.282 1.113 1.459.456z" style="fill:#e0aeb4;stroke-width:1" transform="translate(3235.425 -2248.008)"/><path d="M-3228.789 2298.263c.29-.471 1.436-.033 2.05-.15.757-.418.095-1.19-.703-1.016-.877-.35-1.398-1.267-1.29-2.2-.729-.035-1.154-.877-1.179-1.523.48-.383-1.502-1.416-.438-1.383.593-.36 1.784.77.888-.1-.508.11-2.162-.036-.853-.269.885-.282 1.381.38 1.638 1.137.66.888 1.044.644.096.014.377-.288.748.728 1.012 1.11.55 1.09.854.135 1.246-.519.434-.643 1.278-.856 2.004-.984-.456.276-1.2 1.12-.061 1.214.451.213 1.738-.774 1.119-.975-.164.51-1.857.264-.946.228 1.04.076.682-.32.498-.933-.596.151-1.386.325-2.071 0-1.003-.257-1.4-1.282-1.347-2.228-1.27-.75-.99-2.642.048-3.482.581-.647 1.536-.567 2.266-.418 1.434-.82 3.36.033 3.904 1.547.33.798.262 1.737-.031 2.501.326-.15.887-.052.485.35.782.739-.313 1.851-1.172 1.857-.641.178-1.324-.107-1.925-.074.068.731 1.21.317 1.594.85 1.008.82 1.267 2.283 1.32 3.51-.102.517-.467 1.69.229 1.77.69.09 1.74-.179 2.214.128-.362.379-1.439.04-2.067.15l-8.49-.03-.034-.086zm7.162-.334c.213-.412-1.228.028-1.613-.288-.669-.136-1.194-.637-1.658-.986-.681.48-1.515-.598-1.291.745-.412 1.072.907.507 1.503.625 1.015-.048 2.062.032 3.059-.097zm.133-.526c.866-.27.528-1.452.54-2.15-.23-1.083-.72-2.423-1.994-2.544-.03.687-.901 1.327-1.59 1.074-.892.141-.457-1.339-1.142-.627-.716.454-.967 1.355-1.409 2.044.547.168.615.056 1.125.17.163-.667.196-1.38.536-1.99-.171.877-.203 1.775-.354 2.655-.656-.541-1.528-.784-2.213-1.242.27 1.162 1.66 1.628 2.68 1.834.538-.152-.443-1.18.394-1.457.515-.117 1.894.132 1.397-.872-.523-.525-1.43.347-.643.77-.88-.077-.306-1.353.428-1.033.861.248 0 1.119.138 1.298.066.35.547 1.39 1.113.793.414-.676-.402-1.407-.193-2.153.019-.949.393-1.017.215-.025-.058.389.152 2.03.564 1.126 1.075-1.16-.822.857.029.796 1.479-.194-1.205.358-.042.383-1.054-.062.808.481.109.426-.65-.07-1.577-.306-2.048-.163-.733-.265.874-.313.144-1.015-.46-.39-1.508-.45-1.412.37.377 1.187 1.843 1.763 3.024 1.629.206-.014.407-.034.604-.097zm-5.094-.575c.469-.366-1.083-.682-1.289-1.174-.705-1.02-.542.242-.18.71.388.406.906.652 1.47.464zm-.906-2.541c-.643-1.038-.698-.171-.142.404.408.725.66-.215.142-.404zm-1.144.3c-1.046.047 1.133-.574-.17-.443-1.1-.068-.38.592.17.442zm.224-.595c.675-.454-1.477-.05-.956.12.317-.045.647-.032.956-.12zm-.452-.24c.891-.268.366-.483-.229-.123-1.023-.095-.434.5.229.123zm5.17-2.088c.807.095 1.06-1.186 1.636-.9.726.107 1.174-1.071.42-1.362-.715-.079-.95 1.621-.982.28-.43-.908-1.827-.973-1.988-2.086-.144.753.656.987 1.048 1.421-.704.01-1.747.02-2.263-.605-.437-.613.018-1.79-.612-.58-.38.603-.873 1.184-.55 1.93-.01 1.245 1.132 2.278 2.37 2.065.328.038.623-.033.922-.163zm-2.264-.764c.026-.975.41.434 0 0zm.752.045c-.356-.692.64-.018.268.048-.079.023-.212-.054-.268-.048zm.919-.513c-.614-.988 1.01-.285.195.087-.083.035-.139-.06-.195-.087zm2.246-.126c-.613-.612 1.193-.611.286.022-.1.081-.191.01-.286-.022zm.33-.137c-.088-.119-.165-.477-.217.068.08-.017.275.093.217-.068zm-4.928 0c-.256-1.098 1.075.224.118.142-.11.05-.092-.077-.118-.142zm2.036-.722c.696-.343 1.401.25.21.09-.07-.03-.472.09-.21-.09zm.475-.54c-.43-.138-1.838-.774-.805-.218.244.072.666.306.805.219zm.589-.611c-.305-1.04-.28.013.142.361.074-.01-.144-.301-.142-.361zm-1.367-.01c-.53-1.09-.391-.276.102.303.332.068-.095-.204-.102-.303zm-1.533-.937c.198-.498-1.172 1.533-.212.265.059-.097.14-.177.212-.265zm-.272-.199c-.861.468-.652 1.03.026.027l-.026-.027zm3.636.379c-.438-.844-.13.515.048.189.332.4.103-.01-.048-.189zm24.498 10.791c-1.397-.024-.015-.355.636-.223.724.416.935-1.36.352-1.171-.732-.158-.694-1.346-.655-1.673-.38-.49-1.063-1.05-1.04-1.669.658-.01 1.494-.24 1.82.532.375.614 1.126 1.003 1.803.951-.195-.748-1.506.024-.902-1.002.096-.873 1.034-1.557 1.86-1.415-.533.312-.217 1.222.586.913.795-.32.597-.925.185-1.332-.142-.574-1.248.424-1.805-.088-1.039-.179-1.96-.993-1.913-2.109.18-.973-.827-.324-1.276-.79-.942-.562-.579-2.538.664-2.368.98.546.368-.455.903-.973.445-.61 1.332-.593 1.929-.227.59-.7 1.777-.71 2.12.235 1.609-.013 2.346 1.938 1.945 3.298-.332.578-.2 1.275-.585 1.79-.587.102-1.145.541-1.697.894-.661.694.78.63 1.137 1.002 1.207.717 1.55 2.227 2.035 3.454.254.785-.39 1.316-.848 1.556.16.553 1.595-.23 1.574.464-2.936-.024-5.926.02-8.828-.048zm5.736-.37c.986 0 1.773-.01.337-.093-1.119-.13-2.32.046-3.391-.229.169-.806-.504-1.107-.423-.122-.334 1.017 1.12.32 1.688.473.596-.03 1.193-.02 1.789-.03zm-1.103-.533c-.59-.054-1.415-.914-1.793-.649-.252.986.864.74 1.476.769.316-.017 1.072.08.317-.12zm3.105-.134c.515-.797-.215-1.748-.505-2.527-.38-.849-1.02-1.756-1.966-1.962-.108.874-1.328 1.4-1.889.587.315-1.007-1.066.014-1.113.541-.353.91.925-.392.94.721.18.803.89 1.12 1.643 1.21.715.122 1.76.323.842-.524-.44-.599-.383-1.313-.348-2.017-.104.34.443 1.97.223 1.063-.302-.614.334-1.763.137-.434-.111.569.426 1.64.766 1.655-.078-.1.457.513 1.051.636.218.21-1.203-.23-1.598-.076-.903-.23-1.207.128-1.433.939.95.355 2.224.52 3.194.25l.048-.06zm-3.35-.42c.798-.447-.273-1.525-.312-.68-.286.439-.359 1.055.312.68zm-2.363-.204c.556-.496 1.412.214 1.755-.286.444-.889-.879-.716-1.42-.71-.527.023-2.023-.127-1.676.696.086.862 1.745-.505 1.253.034-.82.213-.69.597.088.266zm-1.283-.35c.226-.29 2.138-.594.793-.186-.241.026-.606.29-.793.185zm.188-.65c1.043-.338-.785-.478-.414.169.135-.064.28-.116.414-.168zm-.465-1.764c-.614-.253-1.614.112-.345.069.038-.06.535.108.345-.07zm3.965-2.06c.787-.037.992-1.121 1.716-.823.792-.033.744-1.49-.113-1.25-.46.554-1.048.822-1.12.19.834.695.247-1.255-.209-.228.01-1.223.938.426 1.02-.065-.13-.68-.376-1.315-.951-.507-.095-.59.341-1.4-.34-1.855-.816-.628.63.652.235 1.15-.266 1.02-1.73 1.36-2.433.534-.441-.705-.415-1.338-.78-.15-.693.255-.465 1.046-.327 1.635.227.966 1.357 1.54 2.273 1.553.355-.023.709 0 1.029-.184zm-1.313-1.006c.215-1.011.525 1.113 0 0zm-1.574.017c-.48-1.556 1.044.265 0 0zm4.273-.32c-.51-.776 1.222-.615.38.062-.124-.025-.287.059-.38-.061zm.402-.077c-.233.067.427-.583-.353-.261.21.113-.138.515.353.26zm-5.384-1.589c.604-.442-.952.44-1.128-.267-.42-.057.836.775 1.128.267zm-1.174-1.425c1.037-.694-.286-.315-.19.407.035 1.042-.01-.157.19-.407zm7.072-.287c-.583-.94-.63-.624.023.127.108.631.25.232-.023-.127zm-4.423-1.304c.796-.059-.828-.367-.915.266-.323.62.724-.643.915-.266zm2.06-.202c1.05-.221-1.741.157-.347-.03.114.01.236.026.346.03zm-17.395 11.765c-.826-.435-.274-1.539-.392-2.29.127-2.855-.089-5.751.06-8.584.398-.884 1.581-.338 2.342-.498.903.133 2.04-.344 2.748.352.465 1.099.112 2.383.227 3.56-.034 2.396.095 4.831-.04 7.2-.545.74-1.69.248-2.492.384-.797-.077-1.713.142-2.452-.124zm2.811-.206c-.61-.261-1.84.14-.458.07.07-.05.61.094.458-.07zm1.843-.735c.121-.914.016-1.955.052-2.917-1.559.266-3.171.084-4.754.15v2.75c1.118.296 2.35 0 3.513.07.391-.03.816.027 1.19-.053zm-1.984-.687c-.697-.602.582-1.472.961-.732.435.617-.543 1.27-.961.732zm.73-.082c.733-.68-.878-1.254-.761-.236.161.3.473.554.761.236zm-2.631.082c-.688-.682.553-1.458 1.043-.76.186.626-.583 1.127-1.043.76zm.757-.145c.79-.61-.794-1.213-.806-.359-.038.485.492.645.806.359zm-1.092-4.186c.095-.726-.189-1.61.138-2.24.711-.729.815 1.261.569.067-.735-.497-.79.999.1.544.916.13.002-1.218.477-1.698.553-.536 1.092.427.676.943-.043.15 1.07-.67 1.467 0 .861.83.433.445-.313.022-.543-.51-1.617.595-1.09.76.72-.592 2.052.05 1.634 1.018-.203 1.116-1.876.976-2.086-.03-.3-.866.709-.572-.366-.862-.978-.225-1.221.276-1.046 1.188-.01.803-.017 1.605-.026 2.408 1.366-.084 2.752.035 4.102-.194l.036-6.36c-.678-.584-1.706-.157-2.54-.287-.7.135-1.65-.296-2.16.267l-.052 6.554c.94.134.286-1.325.48-1.937-.087.314.025-.217 0-.163zm1.516 1.426c-.04-1.383.411.156 0 .634v-.634zm-1.019-.444c-.38-1.049.813-1.41.635-.187.183.857-.146 1.708-.15.349.258-.778-.476-1.616-.36-.394.15.787-.167 1.828-.129.44v-.13zm1.942.722c-.687-.535.18-1.564.834-.96.391.602-.189 1.258-.834.96zm.692-.307c.552-.62-.782-1.088-.787-.311-.144.457.603.662.787.311zm-.032-4.377c.294-.303-.733-.179.195-.246.176.347-.047.229-.112.333zm-.072 2.886c.751-.37.592-1.688-.313-1.594-.767.92-.146.01-.733.257-.428.315-.2 1.376.43 1.484.181.09.473-.015.616-.147zm-.14-.347c.645-.49-.384-1.14-.088-.369-.67-.393.644-.754.374.054-.031.165-.542.751-.286.315zm-1.25-1.236c.203-.39.604-1.534-.024-1.664-.55.159-.317 1.442-.183 1.722 0 0 .223.018.207-.058zm.473-3.318c1.39.057.51-.247-.353-.138-1.228.078-.887.233.146.137-.044.113.208-.07.207 0zm-21.73-4.396c.413-.31 1.423-.049 1.351-1.12.485-.735-1.047-.717-.755-1.607.074-1.214.282-2.71 1.324-3.457.571-.049 1.587-.573.876-1.137-.214-.423-1.804-.688-1.016-.095.717.3-.932.534-1.11.164.624.97-.3.492-.538-.17a1.272 1.272 0 0 1 .673-1.462c-1.385-.403-1.033-2.537.097-3.052.23.092-.204-1.278.434-1.6.598-.58 1.888-.616 2.227.277 1.077-.03 2.24.107 2.926 1.042.796.808.819 2.099.123 2.983-.238.733-.201 1.745-1.123 2.001-.745.217-1.562.478-2.273.121.4.809-1.185.805-.423 1.331.37.392 1.428.625 1.67.025.158-.52-1.298-.813-.045-.643.808.185 1.55.632 1.68 1.523.158 1.024.555.949.934.082.463-.801 1.07-1.664 1.378-2.471-.032-.833.757-1.332 1.55-1.146.654-.204 1.372.312.671.881-.244.64-1.03 1.238-.943 1.905.505.888-.688 1.486-.77 2.271-.375.69-1.267-.154-1.7.537-.41.48-1.797.374-1.247 1.273.137.756.361 1.51 1.03 1.492-.366.374-1.438.043-2.066.155h-4.91l-.035-.09zm5.256-.489c-.354-1.092-.595-.47-.088.267.326.064.111-.094.088-.267zm-2.615.146c.794-.917.12-.926-.18.052.063-.01.143.026.18-.052zm-.373-.46c.727-.71-1.056-.513-.77.306.169.204.673 0 .77-.307zm3.488-.62c.153-.374-.982-1.28-.365-1.041.873.085 1.611-.544 2.274-1.037.323-1.108-.696-.332-1.243-.22-.685.361-1.402.43-1.263-.507-.314-.56.053-1.495-.441-1.85.25.534-.626 1.134-1.255.896-.692-.35-.998-.572-.838.428.254.54-.864 1.826.17 1.247.756-.129 1.097-1.296 1.925-.78 1.089.374-.563 1.045-.336.606 1.259-.046-.91-.351.358-.212.742-.095-.82-.64-1.047-.079-.378.868 1.1 1.072 1.12.58-.025.65-1.141.372-1.414 1.137-.2.474-1.835.614-1.26.816 1.194.186 2.434.086 3.615.015zm-3.273-.92c.427-.211 1.667-.83 1.027-1.254-.701.191-1.544.924-2.219.337-.05-.602.959.588.882-.597.09-.57-.02-1.91.213-.572.01.153.351-1.256-.163-1.57-.865.256-1.064 1.445-1.306 2.244-.251.618-.175 2.003.795 1.714.288.01.514-.203.771-.303zm6.214-1.09c.59-.835-1.506-.298-.516.088.166.01.434.08.516-.088zm-2.582-.605c-.187-.633-.312-1.78-1.122-1.833.055.701.208 1.54.798 1.87.146-.593.19.432.324-.036zm3.065-.256c.857-.404.152-1.476-.384-.834 1.179.141.244.233-.376.086.807.569.656.015-.12.48 1.134.275-.651.346.51.537.183.081.244-.198.37-.269zm.552-2.104c-.114-.704-1.248.522-.02.023l.021-.022zm-4.616-.944c1.39-.165 1.254-1.794 1.576-2.811-.725-.162-1.462-.482-1.953-1.114-.385-.227-.234 1.132-.915 1.155-.615.426-1.569.15-1.78 1.01-1.027.153-.463.535-.658.585-.745-.225.157-1.213.47-.442.089-.714-1.302-.418-.844.325.413.9 1.092-.103 1.194.464.57.94 1.95 1.067 2.91.828zm-.978-.433c.632-.23 1.76 0 .444.045-.06-.037-.584.067-.444-.045zm.426-.37c1.058-.695-.409.64-.019.02zm-1.228-.321c-.32-.898.859-.353.207.046-.054-.051-.175.058-.207-.046zm2.273 0c-.334-.782.815-.52.202.047-.065-.02-.167.046-.202-.047zm-4.044 1.097c-.325-.702-.738.4 0 0zm7.34-.449c.264-.555 1.935.144 1.786-.354-.713-.028-1.81-.333-2.012.64-.216.41.152-.186.226-.286zm-7.384-3.653c-.053-.457 1.564-1.45.668-1.085-.786.535-1.142 1.608-.936 2.517.074-.484-.01-1.002.268-1.432zm2.01 1.141c.808-.583.698-.696-.015-.059-1.158.244-.92.358.014.06zm.07-.302c.856-.319-1.84.425-.493.16.183.01.334-.08.492-.16zm-1.373-2.818c.67.508 1.595.091.437-.278-.68-.414-1.602 1.086-.637.278-.053.12.201-.067.2 0zm37.01 13.522c-.981-.01-1.963-.013-2.945-.019.04-.758.014-1.525.254-2.254-.781-.136-1.081-.768-1.805-.729-.552-.137-1.326-.776-.91-1.363-.337-.522-1.307-1.207-1.077-1.772.574-.072 1.466-.325 1.845.265.615.652.811 1.655 1.546 2.203.06-1.179.275-2.89 1.704-3.095 1.29-.37.556-.09.202.605 0 .79 1.221.585 1.48.024.834-.79-.329-.488-.367-1.266-1.043.312-2.604.097-3.088-1.006-.263-.61-.144-1.62-1.02-1.615-1.01-.692 0-2.384 1.081-2.19.515-1.133 2.042-1.44 3.18-1.232-.042-.611.6-1.256 1.287-1.396.908-.308 1.948.56 1.697 1.525.19.685-1.536.79-.777 1.146 1.42.157 1.922 1.784 1.773 3.015.07.803-.094 1.702.122 2.446.635.683.691.912-.2.487.993.198.126 1.514-.216.413-.253.033-.859.953-1.358.429-.035-.394.813-.27-.045-.711.177-.645.382-1.282.273-2.013.026-.883-.02-1.78-.292-2.627-.475.672.131 1.73-.782 2.15-.619.065-.987.735-1.442 1.13-.05.767.975.414 1.412.862.902.841.771 2.297 1.037 3.437.32.764-.628.962-.877 1.277.31.542.096 1.83.946 1.61 1.285-.163.492.54-.335.279-.768-.01-1.535-.01-2.302-.015zm-1.497-.74c-.21-1.045-.34 1.05 0 .051zm2.894.033c.548-.717-1.49.329-.138.138l.091-.091zm-3.597-.111c-.438-.949-.862.839 0 0zm2.391-.37c.587.124 1.963-.703.828-.623-1.109.298-2.326.279-3.447.017-.463.721.74.558 1.164.66.484-.01.986.071 1.455-.054zm.328-.736c1.27-.222-.62-.41-1.002-.703-.623-.165-1.562-.993-.5-1.25.645.07 1.368.521 1.968.418-.938-.43-.475-.634-.637-1.036.611.88.286.057.223-.558-.01-1.277.168.178.375.661.097.839.41 1.083 1.193 1.004-.411.313-1.351.163-1.942.035-.913-.376-1.078.752-.043.688.63.211 1.49.48 2.066.161.339-.656-.09-1.565-.143-2.311-.213-.657-.333-1.723-1.199-1.757-.37.788-1.293 1.592-2.135.929-.065-.827-.167-1.21-.914-.412-.408.633-.727 1.5-.65 2.25.486 1.02.3-.595.492-.98.323-1.203.35-.288.155.407-.152.773-.113 1.566-.174 2.349.896.341 1.955.292 2.867.104zm-3.152-.922c.155-.496-1.01-1.024-1.178-.458.04.142 1.179 1.015 1.178.458zm-1.514-.453c.487-.475-.256-.49-.78-.265.502-.13 1.118-.754.067-.38-.968-.65-.08 1.236.54.422.087-.01-.797.57.175.227zm3.55.01c.528-.266-1.544-.124.01-.25.94.04-.982-.442-.802.189.26.074.55.28.796.062zm-4.414-2.616c-.218-.255-2.076-.065-.991.041.232-.054 1.161.162.991-.041zm4.642-1.786c.795.011 1.014-1.09 1.628-1.021.638-.051 1.03-1.249.173-1.266-.596.028-.941 1.293-1.291.278-.529-.467-.43-1.118-1.241-.831-.77-.115-1.256-.352-.266.16 1.036.06-.58.384-.77-.166-.835-.708-.497-2.097.465-2.523-.302-.027-1.023.708-1.14 1.275-.39.686-.939 1.4-.543 2.225.19.813.497 1.686 1.407 1.902.446.24 1.13.167 1.578-.033zm-.744-1.044c-.51-.94.958-.316.127.098-.054.046-.085-.066-.127-.098zm-1.69-.076c-.625-1.052.965-.038.045.03zm3.829-.404c-.462-.568 1.03-.752.553-.106-.152.127-.391.367-.553.106zm.33-.074c.615-1.078-1.036.232 0 0zm-2.853-.166c.555-.43 1.157-.138.119.012.024-.099-.198.169-.119-.012zm5.14-1.314c.077-.584-1.513-1.385-.948-.947.42-.113 1.223 1.75.948.947zm-7.556-.634c.499-.8-1.112 1.291-.222.186.074-.06.147-.126.222-.186zm5.858.01c-.193-.891-.567-1.067-.068-.088.053.807.111.18.068.088zm-1.914-.084c-.23-.904-.993.413-.112.236-.232.287.332.015.112-.236zm1.558-1.382c.142-.404-.191-.437-.545-.587-.649.652-.212.572.046.799.497-.547-.097.632.499-.212zm1.186-1.034c0-.586-1.373-.943-.399-.472.17.035.54 1.01.399.472zm-20.98 13.7c-.404-.098-1.906-.214-1.291-.594.904.596.812-.327.883-1.02-.137-.283-1.156-1.132-1.5-.474-.827-.116-1.377-.954-1.71-1.585-.099-.444-.242-1.096-.637-1.686-.2-.677-.745-1.067-.937-1.7.133-.659 1.44-.455 1.134.318.237.782.753 1.513 1.097 2.276.758-.477 1.543 1.032 1.845.302.37-1.023 1.228-1.89 2.358-1.945-.654.394-.456 1.451.393 1.103.582-.35.84-.955.23-1.352.054-1.163-.5-.408-1.215-.296-.618.021-.91.755-1.597.792-1.161.031-1.677-1.343-1.21-2.273-.189-.692-.131-1.423-.771-1.885-.5-1.099.593-2.075 1.529-2.475 1.245-.908 3.126-.95 4.343-.012.438.943 1.236-.287 1.9-.03 1.603-.075 2.092 2.641.513 3.075-.692.185-1.104-.534-1.125-.965-.303.519.233 1.292-.051 1.937.15.592-1.635 1.218-.62.895 1.1-.706.322.22-.365.407.787-.164 1.077-.466.29.264-.42.602-1.628-.404-1.542.059-.082.901 1.161.622 1.478 1.304.806 1.057 1.278 2.482 1.129 3.817-.639.247-.765 1.3.071.776.532-.575 1.257-.213.322.151-1.496.943-3.246.943-4.945.816zm.266-.514c.35-.486-.296-1.763-.474-.78-.277.508.036 1.49.474.78zm3.127.045c.997.084.182-1.283-.428-.606-.82.1-1.636-.146-2.43-.337-.236.754-.135 1.431.816 1.105.68-.049 1.385.04 2.042-.162zm-.105-.976c.83.055 1.363-.685.97-1.44-.262-1.144-.636-2.492-1.769-3.059-.148.77-1.194 1.64-1.82.855.155-.897-.273-.822-.42.057-.085.77-.37 1.65-.018 2.371.885.09 1.83.508 2.695.154-.486-.797-.803-1.71-.76-2.654.094 1.023.837 1.832 1.1 2.78-1.119.453-2.31 0-3.43-.196-.34.796.643.871 1.18 1.05.74.187 1.527.296 2.272.082zm-3.573-.8c.034-.612-.985-.9-1.299-1.498-.175-.54-1.772-.61-.731-.197 1.233.509-.22.6-.8.341-.394.26.395 1.147.944.82.562-.308.4-.237 1.198.445.165.057.705.415.688.09zm-2.608-.807c.276-.255 1.401.063.172.061l-.122.02zm1.06.481c.036-.4-1.414.187-.109.164l.071-.108zm1.256-.576c.088-.177.388.11.41-.707.03-.526.445-1.627.385-1.768-.663.5-1.054 1.276-1.367 2.03.069.06.769.823.572.445zm-2.457-.89a14.255 14.255 0 0 0-1.22-2.463c-.633.031.333 1.03.392 1.443.15.215.778 1.55.828 1.02zm1.432-2.417c-.448-.483-.644-1.553-.362-.319.097.295.985.987.362.32zm2.43-.497c.758-.015 1.114-.774 1.551-1.133.93.342 1.27-1.42.26-1.31-.331.372-.875 1.348-.86.296.103-.746-1.167-.482-1.689-.734-.864-.146-1.364-1.22-.982-1.905-.627.26-.03 1.518-.187 1.334-.459-.676-.203-1.149-.788-.16-.872.281-.465 1.083-.334 1.747.307 1.371 1.625 2.35 3.03 1.865zm-2.002-.856c.293-.341.353-.448.407.072-.103.07-.81.13-.407-.072zm-.65-.548c-.492-.952.978-.07.107.132-.076.023-.075-.083-.107-.132zm1.861-.035c-.412-1.053 1.154-.031.082.099zm2.334-.125c-.414-.56.794-.899.655-.262-.207.054-.122-.106-.668.262zm-2.484-.832c1.176-.361 0 .337 0 0zm1.662-.59c.637-.18-1.194.075-1.494-.324-.651-.426-.954-.876-.297 0 .484.392 1.199.441 1.791.323zm-.413-.351c-.482.302-1.79-.964-1.137-.258.239.446 2.225.314 1.337.273l-.13-.01zm3.376-.553c.55-.646-.4-1.445-1.084-1.088-.626.415-.25 1.46.55 1.224.196-.023.436.108.534-.136zm-6.304-.912c.293-.345-.991.458-.99.957.192-.11.62-.758.99-.957zm7.688.286c-.368-.8-.84-.946-.11-.111.155.623.195.988.11.11zm6.017-4.811c-.257-.815 1.453.199 1.35-.53.262-.926-.355-1.09-.94-1.621-.736-.513-.39-1.277-.282-1.964.152-1.022.52-2.302 1.559-2.78.82-.2.626.456 1.258.758.51.393 1.763-.8 1.43-.235-.476.565-1.654.679-2.069.042.21-.816-.882-.174-1.157.172-.226.438-1.185 1.614-.171 1.579.899.204-.01-.48.599-.609-.122-.24.25-.7.252-.433-.13 1.11-.254 2.222-.205 3.342h3.066c-.686-.405-1.584-.315-2.067-1.025 1.194-.033.45.02.44.266.745-.163 1.279.202 1.885.56.656.362 1.636.907 2.148.063.265-1.01-.274-1.345-1.138-.82.24.456-.894-.199-1.357-.29-.664 1.165.092.05-.343-.453-.048-.648-1.839-.818-.794-.4.83.464-.788 0-1.139.084.224-.72 1.556-.704 1.916.01.276.508 1.722 1.382 1.01.246-.25-.244-.617-1.768-.317-1.39.27.905.343 1.049.198.015-.211 1.117.948.611 1.012.575-1.108.45-.433.575.327.185.308-.27-.191-1.144-.655-1.51-.31-.657-1.37-.35-1.576-.887-.122-.662-1.12.292-1.69-.062-1.172-.01-2.533-.834-2.382-2.153-.13-.553-.292-1.739-.895-1.693-.95.06-1.055-1.536-.119-1.555 1.194.195.175-.454.886-1.036.093-.82.245-1.082.756-.457 1.008.436 2.098-.296 3.155-.01.536.544.97.158 1.704.43 1.1.464.762 1.845.74 2.781-.607.716.47 1.017.193 1.775-.135.935-1.44.069-1.536 1.044-.867.233-.87 1.203.146 1.15 1.51.455 1.803 2.283 2.123 3.617.312.778-.326 1.734-1.19 1.454-.999-.46-.28.88-.471 1.445 1.152.102 2.51 0 3.74.023.106.634-1.41.141-1.947.3-2.483-.01-4.974.052-7.453.001zm3.195-.664c.673-.701-1.165-.522-.398.029.154.112.28.073.398-.03zm1.916-.957c.202-.618-1.302-.149-1.789-.306-.607.146-1.726-.418-1.71.472l3.401-.032.076-.104zm-3.761-.452c-.536-.45.398-.61-.246-.965-.834-.407-1.252-.431-.646.563.168.178 1.06 1.263.892.402zm-.017-1.326c-.256-.217-1.678-.386-.715.01.08.016.861.209.715-.01zm5.276-.268c1.073-.381-.463-.31-.826.026 0 .126.64.014.826-.026zm-5.273-.111c-.197-.185-1.534-.363-.64-.01.125-.022.78.313.64.01zm5.027-.303c1.199-.408-.212-.513-.702-.049-.39.372.602.111.702.05zm-4.926-.05c0-.336-1.786-.415-.862-.015.239.011.783.307.862.015zm1.972-3.251c.77-.186 1.65-.676 1.803-1.48.413.314 1.344.274 1.237-.487.132-.877-1.201-.777-1.258.01-.511.137.072-.93-.774-1.034-.343-.406-.048-1.598-.088-1.603-.172.878-.522 1.226-.229.121-1.029 1.167-2.815 1.145-4.057.351.028 1.09.163 2.208.557 3.23.716.749 1.796 1.155 2.809.896zm-1.241-1.002c.413-.619-.03.864-.01.014zm-1.218-.455c-.592-1.097 1.02-.199.081.083zm2.241-.064c-.644-.813.925-.72.24 0-.1.105-.14.067-.24 0zm2.356-.238c-.254-.91 1.309-.234.27.11-.12 0-.22.043-.27-.11zm.525-.172c-.264-.587-.232.102-.137.167.116.012.11-.092.137-.167zm-3.213-2.248c.47-.16 1.433-1.108 1.297-1.2-.632.705-1.484 1.312-2.457 1.338.206.276.884 0 1.16-.138zm-3.266-.336c.87-.239.685-.091 1.11-.495.826-.55.894-.665-.128-.565-.432-.685-.803-.437-.226.162.94.194-.641.464-1.02.6-.885.269-.231.502.264.298zm6.446-.985c-.44-.593-1.18-.658-.222-.143.05.051.426.482.222.143zm-4.73-.698c-1.083-.273-.722.133.136.057.606-.01.332 0-.136-.057zm-32.85 13.474c.34-.43 1.429-.072 2.063-.177.913.193 1.432-.047 1.268-1.036.297-.936-.394-.93-.874-1.455-.188-.546-.81-.996-.714-1.544-.096-.404-1.316-1.299-.498-1.404.84-.156 1.414.2 1.777.961.695.959.176-1.053.844-1.227.437-.382 1.28-.523 1.125.285.3.214 1.268.438 1.595-.224.5-.412-.823-.79-.91-.82-.94.252-1.88-.077-2.656-.615-.463.744-1.587.11-1.238-.67-.016-.94-.748-.26-.086-.376-.435.707-.974-.498-.185-.494 1.054.321-.124-.4-.033-.98-.165-2.028 1.997-3.682 3.929-3.217.97.013 2.11-.1 2.707.842.699.798.575 2.047-.118 2.81.012-.026.778-1.09 1.255-.48.727.803-1.036.356-.29 1.084.565.513.013 1.548-.67.972-.264-.972-.356-1.069-.147-.04.679.437-.257.636-.664.674.517-.225.09-.899-.512-.598-.236.353-1.405 1.025-.565 1.277 1.096.064 1.715 1.007 1.986 1.98.216.915.778 1.95.326 2.86-.817-.028-.864 1.126-.418 1.44 1.046.31-.79.318-1.204.276h-7.049zm7.838-.467c.184-.895-.599-.922-1.234-1.164-.855-.632-1.984-.283-2.976-.423.025.598-.476 1.962.297 1.95h3.947c-.01-.122-.023-.243-.034-.363zm.644-1.333c.634-.8-.369-1.134-1.089-.82-1.065.022-1.714-.944-2.392-1.585-.361-.205-1.587-.386-1.452.135 1.012-.431 1.013.835 1.461.666.022.17.923.845 1.293 1.25.588.49 1.484.693 2.18.354zm-2.885-.637c-.391-.583-1.093-.727-1.748-.766-.707.834.037 1.14.861.98.208-.125 1.629.314.887-.214zm-2.107-.499c.657-.548-.717-1.255-.706-.663-.732-.358-.649.774.033.669.672-.174-.714.684.54.265l.133-.27zm-1.123-.34c.318-.198 1.514-.055.104.072l-.104-.067zm4.82.155a4.31 4.31 0 0 1-.526-2.118c.215.508.379 2.066.892.86-.077.043-.607 1.518.268 1.503 1.206.338.514-.747.369-1.384-.241-.656-.475-1.452-1.153-1.768-.431.633-1.261 1.21-2.005.717-.106-1.127-.534.923-.76.772 1.212-.078 1.609 1.5 2.777 1.696.423.14.395.016.138-.278zm-2.77-1.943c.411-.538.462-1.367-.35-.654-.418.263-.676 1.786.062.98.132-.063.194-.236.288-.326zm-2.084 0c-.926-.261-.973.193.043.07zm3.044-1.8c.76-.067 1.187-.892 1.432-1.322.84.271 1.2-1.415.228-1.356-.696.088-.203 1.443-1.196.793-.387-.199-2.078-.178-.909-.306.753.165 1.644.372.444-.117-.853.042-1.172-.859-1.057-1.572-.054.463.52 1.597.671 1.339-.617-.147-.406-1.807-.702-1.377-.242.51-.736 1.253-1.309 1.18.508-.488 1.37-1.292.338-.401-.298.533-1.776.346-1.034 1.103.483.57.658 1.305 1.244 1.743.626.31 1.153.718 1.85.293zm-1.445-.556c.46-.146-.229-.569.701-.127.27.21-.564.155-.7.127zm.936-.527c-.594-.718.555-.898.25-.023-.084 0-.18.139-.25.023zm-1.536-.07c-.503-1.074 1.12.01.132.06.025-.09-.213.084-.132-.06zm3.614-.623c-.74-.446.917-.164.137-.495.713.125.043.802-.137.495zm-.307-.303c-.086-.902 1.45.088.501-.285-.22-.21-.4.366-.5.285zm-1.068-.37c-.81-.495-.58-.443.081-.12-.08 0-1.165-.755-.98-1.435-.112.273.13 1.45.818 1.597.35.192.653.2.082-.041zm3.548-.09c-.034-.702-.931.278 0 0zm-6.858-.419c.2-.045.405-.144.968-.772-.248.25-1.461.77-.968.773zm5.054-.078c.438-.634-.567-1.223-1.02-.657-.415 1.188 1.436.01.682.646-.472.134.326.146.338.011zm-.801-.486c.791-.885.464.798 0 0zm-4.32.023c.601-.278-.117-.456-.308.298-.152.377.485-.256.308-.298zm3.532-1.969c1.265.046-.528-.636-.782 0-.728.937.393-.316.782 0zm11.006 12.365c.164-.597 1.262-.118 1.807-.245.935.415 1.404-.692.291-.754-.757-.117-.799-1.041-1.445-1.172-.564-.312-.62-1.079-.87-1.558.063-.78-.747-1.392-1.021-2.12.413-.384 1.421-.461 1.814-.023.46.884.967 1.752 1.513 2.581-.037-.534.921-1.686.282-.614-.363.429.254 1.702.063.61-.05-.558.98-1.729-.105-.965-.575 1.035-.324-.05.222-.393.932-.66.472.656.946 1.027.736.303 1.46-.614 1.598-1.176-.53-.6-.61-.46-1.37-.218-.906.041-1.509-.79-2.304-1.11-.405-.615-.207-1.37-.672-1.976a2.293 2.293 0 0 1 .934-2.517c1.115-.812 2.88-1.128 3.951-.082.641-.74 0 .71.867-.142.496-.21 1.223.015 1.445.503.339.414-.553.312.18.622.791.8-.014.288-.62.36.854.036 1.375.789 1.097 1.597-.768 1.293.118-.636-.613.462-.576-.185.042 1.327-.855 1.27.195-.01.59-1.544.026-.272-.542.641-1.37-.04-1.731.351-.795.306-.819.92.094 1.017 1.081.741.9 2.302 1.206 3.455-.04.938.245 1.501 1.256 1.27.99.332-.834.313-1.23.28h-6.711l-.044-.072zm4.728-.343c.55.226 1.902-1.067.916-.62-.83.355-1.819.01-2.572-.231-.394 1.02.298 1.137 1.157.963l.499-.112zm1.827-.429c-.224-1.29-.15-2.815-1.012-3.863-.554-.144-.617 1.04-.559 1.525-.31.859 1.134 1.156.388 1.255-.554.08-1.764.2-.984.825.617-.027 1.723.092 1.83-.721.01.686-.223 1.49-1.057 1.412-.612.172 1.367.264 1.43.01-.012-.147-.027-.295-.037-.442zm-1.351-1.552c.976-.46.893.182 0 0zm-2.412 1.065c-.393-.444-1.008-.766-.95-1.52-.053-.86-.91-.846-1.565-.932-1.199.023 1.582.514.083.381-.712.066.915.389-.118.434.305.82 1.266.46 1.444 1.216.144.232 1.068.873 1.105.421zm1.238-.168c-.052-.472-1.222-.918-1.57-.702-.242.537 1.01.79 1.454.958.225.108.082-.196.116-.256zm.986-.544c-.173-.674-.405-1.34-.237-2.04-.232.941-1.927.821-1.727-.248-.126-.42-.642 1.016-.373 1.45.348.884 1.517.989 2.348.918zm-4.321-2.054c.15-.376-1.33.217-.134.105l.101-.08zm3.378-1.425c.87-.028 1.126-1.324 2.026-1.009.616-.254.768-1.575-.12-1.392-.526.088-.863 1.471-.976.325-.463-.623-1.487-.227-2.169-.528-.594.145-1.335-1.475-1.074-.59-.6-.202.068-1.134.065-1.228-.474.162-.42 1.663-.498.62-.33.015-.139 1.344-.139 1.872-.017.802.532 1.429.276.27.852.256-.272.96.7 1.27.602.398 1.198.882 1.91.39zm-.412-1.34c-.328-1.717 1.019.534 0 0zm2.041-.156c-.535-.519.774-.981.606-.25-.064.209-.431.323-.606.25zm-5.322 1.127c-.253-.313-2.113.013-1.06.104.248-.068 1.198.137 1.06-.104zm3.514-2.296c-.495.088-1.204-1.324-1.095-.76.311.519.905.84 1.474.956-.118-.07-.275-.119-.379-.196zm.153-.39c-.673-.511-.843-.899-.204-.012.223.181 1.004.336.204.012zm2.328-.197c.039-.91-.652-1.933-1.62-1.904 1.032.194 1.374 1.404 1.557 2.193.146.064.023-.279.063-.289zm10.894 5.234c-.998-.881 1.055-.67.352-.455-.91.19 1.122.256-.243.308.638.3 1.178-.072.097.297-.103.062-.131-.118-.205-.15z" style="fill:#1b1f2e;stroke-width:1" transform="translate(3235.425 -2248.008)"/></svg>