<svg xmlns="http://www.w3.org/2000/svg" width="200" height="200" viewBox="0 0 52.917 52.917"><path d="M7.57 50.647c-2.874-.792-1.384-4.328-1.762-6.484-.017-2.497-.038-4.995.014-7.492 1.88-2.094 5.448-.453 8-.987 2.267-.584 4.339.73 3.577 3.18.007 3.578.068 7.155-.002 10.732-1.696 2.236-5.11.618-7.533 1.11a56.405 56.405 0 0 1-2.294-.059zm2.755-2.078c1.565-.827-.342-.808 0 0zm.562-.958c.1-.552-.863.537 0 0zm1.961-1.343c1.603-.425-2.566.352 0 0zm-6.08-.81c.234-1.501-.46.938 0 0zm10.32-3.703c-.988-.351-.639.271 0 0zm-4.684-.5c.314-2.374-.402.038 0 0zm24.252 9.41c-1.853-.617-1.505-2.661-1.513-4.191-.024-1.984.07-4.024-.088-5.957-.276-2.283-.005-5.791 3.278-4.876 2.664.095 5.42-.277 8.03.19 1.587 1.603.396 4.249.753 6.296l-.022 7.103c-1.673 2.728-5.463.985-8.091 1.479a80.655 80.655 0 0 1-2.347-.044zm2.894-5.584c-.922-.31-.54.12 0 0zm-3.12-3.857c-2.28-.43-.068.252 0 0zm-18.103-5.805c-1.997-.266-1.846-2.364-1.79-3.874l-.001-13.762c1.366-2.855 5.2-1.105 7.697-1.59 3.146.022 6.304-.087 9.444.085 2.971 1.177 1.13 5.127 1.649 7.55l.022 9.932c-1.408 2.89-5.242 1.209-7.782 1.652-3.067-.005-6.23-.014-9.239.007zm15.538-.415c2.392-1.59.756-5.028 1.252-7.427.02-3.142.045-6.284-.02-9.426-.446-1.981-2.625-1.788-4.2-1.75l-12.535.032c-1.883.406-1.631 2.484-1.619 3.957v13.276c.536 1.84 2.557 1.451 4.027 1.467 4.296-.01 8.592-.018 12.889-.027l.12-.06zm-15.32-.833c-1.502-1.407-.872-4.588-.515-6.31 1.318-1.938-1.135-3.716-.307-5.912-.023-1.807-.618-5.254 2.335-4.473 4.37-.04 8.746-.028 13.118-.047 1.761 1.079.48 3.823.908 5.588.485 1.963-2.371 3.605-.036 5.309-.293 1.913 1.224 5.655-1.54 5.95-4.649-.13-9.317.076-13.963-.105zm6.918-3.314c1.005-1.037-.731.476-.16.17zm-2.624-.86c-.225-.432-.738.658-.062-.039zm6.986-.048c.201-.532-.871.41 0 0zm.233-.425c-.347-.341-.484.38 0 0zm-.292-.153c-.863-.518-.633.11 0 0zm-1.586-1.129c.835-.133-1.635-.038 0 0zm.641-.246c2.501.086-1.25-.527-.463-.805.87-.393-2.217-.88-.669.478.082.127 1.28.624 1.132.327zm.669-2.916c-.558-1.092-.027.395 0 0zm-4.245-.614c.112-1.26-.345.744 0 0zm3.84-.146c-.046-1.189-.433-.361-.076.178zm.902-.12c-.719-.322.292-.373-.502-.916.627.032-.978-.92-.356-.05-1.26-.407.554 1.434-.352.46.372-.962.7 1.334 1.21.506zm-4.634-1.066c-.267-.553-.211 1.122 0 0zM5.82 34.589c-3.255.358-2.163-3.631-2.36-5.632-.015-2.886.013-5.773-.019-8.66 1.774-2.12 5.503-.441 8.042-1.007 2.106-.523 3.974.516 3.263 2.86v3.608c1.162.786-.417 1.635.069 2.43-.375 2.08 1.425 6.29-1.758 6.44-2.409-.095-4.825.062-7.237-.04zM7.83 32.1c2.204-.52 1.153-1.035-.465-.567-1.27.058 1.215.474-.265.695l.253-.015.477-.113zm5.523-1.412c.76-3.543-1.365 2.735 0 0zm-.796-.193c.69-1.589-.625.96 0 0zm1.91-4.175c1.733-.456-2.144.266-.213-.055zm-4.205-.608c.084-.628-.46-.06-.246.106-1.213-.004-.517.232.246-.106zm.156-1.144c.287-.899-.625 1.072 0 0zm27.116 10.043c-2.088-1.203-.812-4.098-1.147-6.081.196-2.977-.445-6.164.346-9.01 1.171-.936 2.778-.346 4.164-.504h7.891c1.625.547.973 2.408 1.097 3.695v10.785c-1.386 1.792-3.9.85-5.833 1.135-2.173.022-4.345.011-6.518-.02zm9.37-3.553c-.144-.271.073 1.506 0 0zm-4.202-.585c-.452-.656-.226.912 0 0zM40.894 30c-1.443-.208.642.372 0 0zm-2.388-.394c-.825-.325-.435.078 0 0zm-.61-2.217c-.751-.854-1.907.37 0 0zM6.752 16.895c-1.534-.702-.802-2.56-.964-3.878V3.465c1.875-2.08 5.346-.433 7.853-.986 2.163-.573 4.446.576 3.791 3.005v10.304c-1.892 2.346-5.57.635-8.208 1.153a90.47 90.47 0 0 1-2.472-.046zm9.44-7.342c1.037-.197-1.82.173 0 0zm3.467 6.356c-1.415-1.502-.355-4.045-.697-5.989.055-2.162-.187-4.372.134-6.503 1.376-1.637 3.842-.547 5.714-.867 1.925.068 3.937-.21 5.798.242 1.33 1.135.61 3.052.79 4.585l.033 7.719c-1.274 1.745-3.873.515-5.754.885-2.005-.01-4.02.04-6.018-.072zm3.156-3.692c-.5-.538-.46.56 0 0zm-.921-.207c-.374-.972-.133.328 0 0zm-.45-3.31c-1.482-.074.301.121 0 0zm6.461-.57c-.661-1.276.054.531 0 0z" style="fill:#f2c8b6;stroke-width:1"/><path d="M13.466 50.66c-.783-1.775-1.38-3.247-3.266-1.567-1.058.507-2.187.527-2.706 1.517-2.057-.356-1.71-2.644-1.706-4.202v-9.69c1.856-2.178 5.468-.492 8.03-1.035 2.31-.622 4.407.78 3.613 3.262v10.603c-.67 1.604-2.612 1.15-3.965 1.111zm-4.762-1.254c1.359-.446 2.724-.851 2.506-2.076.37-1.256 3.541-1.262.933-1.029-1.149 1.552-3.298 1.978-5.13 1.804 2.429-.621-1.723-.944-.364.678.275.864 1.35.877 2.055.623zm.598-1.625c1.535-.157 2.86-1.761 3.656-2.244-.542-.975-.454-2.401.276-.708 1.363 1.427-.005-2.116-1.258-1.931-.294-.1-.511 1.888-1.864.938-2.189-2.307-3.976 1.237-3.831 3.384 2.046 1.185 2.131-2.742 2.402-2.807.888 1.116-2.052 4.088.619 3.368zm5.127-1.703c2.041-2.766-2.503.343 0 0zm-.994-.417c-.155-.788-1.28-2.582-.453-.744.044.038.323 1.595.453.744zm-2.083-2.018c.114-.434-2.02-.288-2.392-.904.475.646 1.57 1.315 2.392.904zm4.314-1.431c.566-.652 2.35-.486.299-.403-.38.007-.683 1.163-.299.403zm-3.72-.385c.721-.677 1.44-3.151-.498-2.393-1.412-1.099-1.682-.192-1.709.848-2.752-.206 1.337 2.102 2.207 1.545zm-.508-.369c.382-.891.66.428 0 0zm-.57-.677c-.359-.692.851.133 0 0zm1.065-.01c-.03-.89.81.364 0 0zm-2.962-.064c-.26-1.076 1.087.394 0 0zm2.949-.675c1.203-.687-.32.632 0 0zm-1.472-.002c1.435-.543.333.422 0 0zm29.156 10.148c.01-1.21 1.655-3.726-.641-3.268-1.262-1.796-3.603-4.176-3.688-6.008 2.24-.541 1.948 3.59 4.092 2.41.065.833.54 1.545.74.146.334-.991 1.934-1.446 1.124-.112 1.449.33 2.084-.746 1.124-1.635-.141-.784-1.935 1.34-2.518-.298-1.336-.83-1.869-2.623.11-3.197 1.846-.917 4.376-1.226 5.757.49-.2 1.672.279 2.78-1.413 3.37 1.147-1.109-.918-.403-.003-1.866.708-1.77-2.042-1.597-.863 0-.839.968-1.352 2.384.542 2.555 2.562.787 1.389 4.003.722 5.386.694 1.15 1.054 2.64-.857 2.058-1.41.002-2.82.018-4.228-.03zm5.347-3.017c.57-1.447-2.69-.27-3.442-1.568-1.185-.282-3.983-3.399-2.842-.61 2.073.696 3.892 2.707 6.284 2.178zm-4.919-.446c.572-.774-.825-1.708-.91-.575-1.781-.592.383 1.327.91.575zm3.583-.525c-.69-1.032-.362-2.775-.156-3.392-.897 1.45-3.075.971-2.661.068-2.023 1.63 1.152 2.886 2.531 3.302zm-2.271-1.055c-.174-1.689 1.215.375 0 0zm3.718.864c1.465-.786-1.472-4.943-1.315-1.583.221.898-.147 2.3 1.315 1.583zm-1.474-1.575c.195-2.1-.55-.267 0 .695.038-.232.012-.463 0-.695zm-6.144-.273c-.008-1.184-1.542.558 0 0zm-.478-.123c.423-.415.832.263 0 0zm2.515-.305c-1.208-1.094-.453.32 0 0zm-2.255-.04c.75-.388-1.584-.025 0 0zm-.708-.827c-.912-.347.098.588 0 0zm4.861-1.103c1.435-.452 1.723-2.494-.2-1.624-.905.378-1.25-1.467-1.478-.296-.412-.508.007.512-.04.612.524.593 1.62 1.596.411.649-.931-.59.657 1.445 1.307.66zm-.796-.929c.053-.872.86.478 0 0zm1.286-.16c-.273-1.15 1.196.29 0 0zm-5.28.75c-.745-.722-1.874-.176-.275-.11-.348-.263.485.341.275.11zm2.77-1.193c-.126-1.06-.693-1.568-.624-.205.058.39 1.12 1.171.623.205zm-21.387-4.906c-1.773-.511-1.422-2.458-1.436-3.878V17.803c1.27-2.853 5.037-1.082 7.452-1.574 3.305.057 6.642-.14 9.925.135 2.675 1.584.885 5.37 1.414 7.927l.021 9.394c-1.282 2.99-5.188 1.282-7.693 1.727-3.225-.029-6.469.064-9.683-.097zm15.698-.266c1.812-.49 1.407-2.507 1.436-3.937V18.018c-.628-1.946-2.8-1.621-4.41-1.617l-12.403.032c-2.616.984-1.193 4.391-1.546 6.49.047 3.62-.09 7.241.054 10.86 1.404 2.564 4.942.853 7.296 1.352 3.187-.028 6.4.096 9.573-.086zm-15.028-.854c-1.697-.85-.602-3.204-.93-4.729-.338-1.632 2.044-3.278-.039-4.627.524-2.326-.98-5.899 1.081-7.364 4.847-.007 9.707-.006 14.56-.008 1.492 1.376.385 3.953.732 5.839.434 1.728-2.386 3.449-.008 4.824-.345 1.934.914 4.824-.867 6.059-4.835.028-9.688.07-14.529.006zm6.964-2.813c1.603-1.519-.602-1.531-.908-.224.164.317.641.628.908.224zm-.583-.437c.84-1.051.532.056 0 0zm-3.801.19c.505-1.172 3.305-.668 2.336-2.102-1-.059-3.143 2.265-2.394.468-1.327-1.098-1.032 2.661.058 1.633zm2.015-1.47c-.332-.83.7.561 0 0zm.475-.075c-.899-.818.25-.005 0 0zm.732 1.313c-.538-1.76-4.41.84-1.258.285.398.004 1.042.177 1.258-.285zm.35-.439c.55-.609.342-4.833-.235-2.943.446.744-.238 2.896.235 2.943zm-.35-.56c-.014-1.17.59-3.21-1.07-2.397-1.68-1.36-2.64 3.798-.609 1.568 1.065-.705 1.316.445 1.177 1.181.427.125.434-.142.502-.353zm1.215.002c-.003-1.63-1.033 1.188 0 0zm3.918.144c1.642-.91-2.83-2.12-1.554-.42.396-.844.553.365 1.554.42zm-8.12-.922c.717-.83.489-3.504-.535-1.595-.182.786-1.12 1.962.535 1.595zm4.243-.14c-.36-1.106-.545-1.934-.486-.204-.084.342.274.53.486.203zm3.7-.473c-1.14-.46 1.645-.54-.224-.752-.33-.879-2.642-1.633-1.484-.15.82.535 1.156.469.083.641.193.481 1.228.424 1.624.26zm-1.185-1.21c-.825-.354.76 0 0 0zm-3.213-2.261c.78-.838.286-3.197-.14-1.496.258-1.026-.044-2.183-.345-.537-.145-.863-.454.376-.69.016-1.117.372-2.404 1.24-.673 1.64.459.475 1.249.818 1.848.377zm-.51-.174c.415-.628.847.102 0 0zm-1.997-.827c.2-1.031.774.6 0 0zm1.448.073c.129-.771.841.487 0 0zm.793-.027c.553-.677.675.402 0 0zm-.965-.56c.684-.568.645.29 0 0zm6.355 1.506c1.371-.164 2.067-2.69 1.351-1.826.51 1.248-2.246-1.51-1.468-1.35-.442.725 1.14 1.897-.412.852.462 1.383-1.575-1.75-.938.382.17.404.283 2.55 1.467 1.942zm-.912-.232c.605-.697.737.363 0 0zm.345-.653c-.064-.785.836.381.003.003zm-.069-.64c1.063-.8.792.53 0 0zm2.102-.014c.11-.675-.655.366 0 0zM7.958 34.606c-1.835.206-5.09.192-4.482-2.527l-.036-11.82c.952-1.76 3.423-.603 5.056-.948 1.834-.019 3.668-.044 5.501.026 1.376.872.544 2.795.748 4.19.166.748-.345 1.898.277 2.374.792 1.088-1.575 2.497-.692 2.719-1.773-.375-2.293 3.54-2.607 3.056.729-2.254-1.6 2.014.711.724 1.057-.712 1.009-4.275 2.472-2.817.035 2.16.59 5.946-2.83 4.991-1.37.103-2.747.014-4.118.031zm.028-2.23c1.417.147 2.072-1.64.237-.92-1.164.524-3.662-1.303-2.593.924.662.598 1.605.108 2.356-.003zm2.554-.577c1.298-.103 1.057-1.983-.423-1.024-.973.374-.492 1.504.423 1.024zm.512-2.975c-.112-1.071-1.884-2.216-.59-.66.109.194.847 1.626.59.66zm-1.758-1.59c-.263-.463-2.802-.151-.783.134.21-.174.611.148.783-.135zm4.401-.5c.125-.73 2.26-.347.52-.65-.644.024-.982 1.87-.52.65zm-3.616-.92c.724-1.05.901-3.13-1.074-3.167-.756-.33-.407 1.496-.698 1.87-.004.884-1.543-.109-.375-.274-2.176-.045 1.679 2.271 2.147 1.571zm-.226-.321c.02-.755.932.384 0 0zm-.27-.647c-.266-1.019.688.25 0 0zm-.368-.784c.627-.709.839.478 0 0zm-.257-.411c1.094-.517 1.584.192 0 0zm31.075 10.94c.831-2.204-1.819-2.882-2.379-4.835.44-1.155-2.234-3.512.294-2.75.734.793 1.948 4.14 2.055 1.52.176-1.29 2.372-2.555 2.63-1.162 2.095.332.331-3.055.026-2.167-.83 2.158-2.903.172-2.928-1.079-2.112-2.143 3.094-3.682 4-1.483 1 1.355-1.766 3.169.684 3.914 2.428.579 3.176 3.569 2.586 5.711-.625 1.169-2.723.184-1.862 2.112-1.273.73-3.578.104-5.106.219zm.294-2.93c.072-1.487-2.586.156-.399.728.488.427.341-.507.4-.729zm6.416.632c.924-1.825-.78-1.4-1.557-1.06-1.127-.746-4.204-1.062-2.31.22 1.207.292 2.597 1.567 3.867.84zm-7.671-1.29c-.335-.423-.82-.034.08-.38-.678-.363.885-.458-.638-.438-.53.304 0 1.24.558.818zm2.718-.037c.701-1.121-2.191-1.194-.842-.74-1.029.226 1.008.147-.34.526 1.032.03 1.136-.214.397.245l.29.068.496-.099zm-3.55-.808c-.667-.396 1.247-1.118-.422-.982 1.711.563-.555-.152.132.978.124.16.39.39.29.004zm.393-1.187c-1.191-.68-.32.517 0 0zm-.737-1.615c-.748-.773-1.965.412 0 0zm3.845-1.546c.372-.661 2.13-1.926.879-2.33-.64.343 1.33.647-.143.704-.713.777-1.309-1.59-1.916-.667-1.083-.263-1.498-.727-.552.082-.856.404.757.893.247 1.731.425.324.902.83 1.485.48zm-1.123-.592c.374-.174.143-1.423.4-.105-.023.225-.288.235-.4.105zm-.067-1.195c-.03-.538.77.357 0 0zm2.287.084c.25-.787-.734.384 0 0zM13.95 29.012c1.79-.461-1.849.607 0 0zm.774-.756c-.063-1.045.256.715 0 0zM6.752 16.894c-1.904-1.285-.554-4.067-.963-6.001-.011-2.478-.028-4.957.049-7.435 1.964-2.036 5.502-.486 8.107-.985 2.085-.562 4.084.736 3.487 2.968v10.31c-.653 1.628-5.03 2.076-4.328-.399-1.79-.41-3.282 2.39-5.488 1.582l-.438.005-.426-.045zm3.05-.356c.64-.325-1.347.201.255-.278 1.32-1.364 3.31-1.024 4.4-2.438-1.936.628-3.403.456-5.35 1.373-1.641.382-.883-.106-.753-.866-1.89.176 1.788-.17-.46-.553-1.871.211-.792 4.271 1.45 2.911l.459-.149zm4.226-.9c1.655-.685.707-2.12 2.154-2.275.383-.943-1.102-.354-1.008.282-.334.422-3.09 2.58-1.146 1.993zm-4.416-.73c2.154-.242 4.944-2.624 2.321-4.297-.43 2.393-3.39-1.617-3.995 1.169-1.297 1.149.08 2.446 1.14 1.67.24-.702.514-2.357.397-.535.17 1.113-2.198 2.805.137 1.994zm2.142-1.828c-.224-1.63 1.446.623 0 0zm2.534-.225c.377-1.413-.728 1.887 0 0zm-.232-.14c-.03-.763-.42.276-.116.225zm2.343.037c-.286-.8-1.509.3-.044.066zm.137-.625c-1.1-.595-.097.538 0 0zm-4.886-1.04c-.648-.015-3.357-1.33-1.241-.054.38.128.884.388 1.241.054zm4.646-1.51c1.457-.603-2.36.512-.34-.031l.193-.031zm-3.96-.137c.498-.486 1.023-2.57.671-2.657-.956.104-2.12-.57-1.868.204.171.633-1.64 2.142-1.24.677-1.114.961.896 1.058 1.166 1.458.642-.269.517.812 1.272.318Zm-.364-.178c-.068-1.584 1.522.316 0 0zm-.255-1.093c.253-.883.947.424 0 0zm.012-.672c.613-.591.665.477 0 0zm7.955 8.418c-1.488-1.438-.403-3.976-.74-5.88.055-2.191-.168-4.427.138-6.59.935-1.465 2.854-.725 4.303-.887l6.828.026c1.989 1.084.887 3.742 1.209 5.565.009 2.294-.026 4.587-.003 6.88-1.258 1.88-4.128.547-6.096.954-1.878-.009-3.766.027-5.639-.068zm4.114-3.733c.177-.792-1.648-2.807-.9-1.072-.683-.328.75 1.929.9 1.072zm-1.005.069c-.804.098-1.092-1.248-1.452-.796.08.253.356 1.22 1.452.796zm-1.818-1.374c.948-.152-.279-.025 0 0zm5.23-1.12c.838-.524.896-1.25 1.683-1.507-.152-.94-1.107-.42-.1-.208-1.003 1.49-1.803-1.012-3.269-.394-.499-.66.219.991-.036.807.186.605.493 2 1.721 1.302zm-1.13-1.046c.083-.934.928.546 0 0zm.212-.559c-.993-.316 1.025-.027 0 0zm-3.843.549c-1.48-.078.291.122 0 0zm3.783-1.542c-.27-1.475.097 1.513 0 0z" style="fill:#87cedf;stroke-width:1"/><path d="M13.416 50.613c-.59-.765-.81-1.751-1.207-2.602-1.29.748-2.622 1.53-4.123 1.738-.353 1.132-.214.454-.287-.065-1.094.097-1.586-1.078-1.549-2.004-.274-.413-.082-1.33.029-1.923.362-1.24.887-2.716 2.275-3.089.54-.381.961-.41.64-.058.573.309 1.338.797 1.982.581.16-.611-.046-.847.847-.457.945.37 1.645 1.186 2.072 2.052.612-1.06.975-2.37 1.832-3.307.48 0 2.01-.146 1.184.578-.456.764-1.043 1.562-1.217 2.395-.635.383-.912 1-1.215 1.678-.427.497-1.348.007-1.402.996-.266.546-1.318.614-.681 1.415.223.742.692 1.52.919 2.17l-.09-.088-.01-.01zM8.72 49.415c1.055-.277 2.018-.817 2.944-1.383-.896.348-.945-.312-.302-.81.406-.465.769-1.137 1.495-.92 1.38 0-.096-.233-.666-.138-.624.523-1.044 1.401-1.96 1.525-.95.177-2.019.737-2.947.32 1.15-.174.409-.698-.413-.36-.81.06-.274 1.23.053 1.636.514.386 1.214.297 1.796.13zm1.339-1.837c1.023-.049 1.413-1.177 2.187-1.59 1.025.168.885-.278.523-1.06-.453-.82-.256-1.584.297-.43.094 1.085 1.185 1.007.734.014-.518-.789-1.234-1.601-2.222-1.724.482.743-.217 1.415-.991 1.171-.725-.194-1.517-.469-1.92-1.154-1.611.461-2.155 2.356-2.363 3.839-.362 1.035.403.645 1.102.557.903.262.55-.918.895-1.433.297-.33.139-2.183.366-1.43-.006.8.048 1.292.134.746.118.75-.36 1.24-.591 1.804-.269.921.1 1.199.998.94.288-.056.567-.172.85-.25zm3.237-1c-1.023.035-.722-.054-.135.24.019-.088.148-.142.135-.24zm1.261-.638c.545-.582.842-1.22-.225-.923.034-.706.658-1.475.983-2.173.25-.76.8-1.155 1.6-.954.904-.225-.957-.39-1.1-.015-.753 1.038-1.2 2.293-1.87 3.375-.623.373-.337 1.15.376.983l.236-.293zm-1.139-.313c-.157-.618-.449-1.289-.881-1.755.345.632.512 1.332.72 2.017.281.056.179-.064.161-.262zm-2.06-1.964c.615-.828-.652.078-1.062-.347-.412.088-1.567-1.146-1.315-.46.582.539 1.583 1.206 2.377.807zm4.695-.117c-.48-.062-.146-.057 0 0zm.553-1.07c.147-.508-.891.32-.007.009zm25.25 7.683c-.72-.023-1.864-.003-2.338-.051.238-.71.479-1.604.712-2.381.221-.985-.036-.892-.82-.649-1.384-.29-1.28-2.204-2.517-2.73-.18-.616-.954-1.141-.858-1.758-.377-.474-1.112-1.327-.93-1.632.747-.09 1.555-.12 1.856.727.377.66.72 1.473 1.297 1.93.113.069.17 1.12.462 1.352 1.428.426 2.46 1.686 3.96 1.984 1.006.15.363.348 1.043.264.56.128 1.504.268 1.45-.587.018-.692-1.33.25-1.843-.282-1.413-.346-2.56-1.328-3.856-1.909-.139-.702-1.461-.686-.848-1.152.512-.408 1.494.51.682.82.592.856.717-.389.9-.846.095-.477 1.427-1.224 1.339-.478-.978.282-.109.888.5.593.421-.005 1.496-.877.66-.95-.604-.133-.063-1.785-.867-.774-.661.864-2.146.19-2.194-.815-.962.079-1.385-1.385-.8-1.937.903-.229 1.489-1.25 2.527-1.127.569-.12 1.284-.765 1.807-.093.375.42 1.103-.286 1.64.128 1.044.394 1.26 1.839.568 2.649.713.56-.532-.05.044.848.01.493-1.493 1.016-1.095.742.872-.01.014-1.522.035-.836-.308.837-.254-.921 0-1.242.212-.655-.556-1.655-1.121-.9-.383-.222-.407-1.396-1.204-1.277.265.302.958 1.114 1.23 1.758.281.706-.006 1.534-.72 1.793-.34.631.477 1.158 1.096 1.373.64-.005 1.185.32 1.488.92.242.809.657 1.678.464 2.523-.558.15-.11 1.173-.82 1.376-.692-.002.263.974.217 1.388.043.653.882 1.486-.178 1.308-.987-.066-1.978-.044-2.967-.07zm2.654-.18c.012-.3-.785-1.837-.369-1.244.402.486.221 1.677 1.058 1.325a17.988 17.988 0 0 0-.85-2.373c-1.246.516-2.736.081-3.984.358-.363.585-.508 1.336-.61 2.022h4.755zm-1.826-2.161c-.05-.143-1.398-.023-1.931-.068-.852.181 1.017.134 1.37.13.187-.022.394.05.56-.062zm-1.55-.688c.984.029 1.11-.299.093-.454-.833-.843-.917-.438-.817.598.235-.08.479-.109.723-.144zm-1.273-.308c.748-.312.243-1.063-.3-1.281-.37-.253-.413 1.523-1.02.328-.812-.998-.174.162.114.632.32.242.81.562 1.206.321zm3.725-.783c-.407-.982-.76-2.374.097-3.182-.571-.387-.929.84-1.574.879-.544.249-1.635.122-1.24-.702.871-.589-.034-.406-.39.124-.252.563-.834 1.451.117 1.662.957.592 1.982 1.306 3.097 1.426l-.058-.112-.049-.095zm-2.243-.904c-.133-.692.281-.703.127-.073.468-1.527.526.691-.127.073zm3.426.922c1.122.17.602-.873.496-1.518-.154-.598-.379-1.242-.887-1.633-.93.288-.62 1.552-.53 2.3.196.738-.083 1.22.92.85zm-5.699-.289c.487-.624-.65-.693-.98-1.05-.269.171.69 1.426.935 1.189l.039-.12.006-.019zm4.65-.369c-.111-.783-.28-1.71.106-2.43-.916.713-.315 2.091-.026 2.895.047-.12-.071-.325-.08-.465zm-6.215-1.319c-.176-.367.22-.545-.792-.683-.247.295.415 1.468.792.683zm1.963-.386c-.154-.706-1.588-.14-.306-.105.165.09.143.563.306.105zm-1.662-.264c-.576-.745-.877-1.693-1.522-2.364-.882-.108-1.612.187-.303.15.804.07.906 1.146 1.377 1.675.117.246.907 1.521.448.54zm4.154.254c.397.084-1.429-.387-1-.074.254.242.69.139 1 .074zm-5.388-.705c-.497-.755-.623.577 0 0zm4.85-1.217c.537-.39 1.45-.955 1.225-1.728-.841-.282-2.009.551-2.585-.446-.498-.438.196-1.113.427-1.21-.625.15-.974.935-.509 1.452-.604-.126-.795-.884-.431.193.54.006-.643.324.387.63.507.723-.036.117-.206.19.05.858.98 1.164 1.692.92zm-1.247-.308c1.154-.28.697.171 0 0zm.433-.627c-.202-.37.947-.04.039.1l-.04-.1zm1.26-.163c-.484-.815 1.234-.447.237.125-.12.031-.17-.033-.237-.125zm.274-.08c.367-.795-.573.227-.033 0zm-2.524.107c-.322-.829-.256-.488-.56-1.27.252-1.182-.75.338-.229.782.068.307.536.607.789.488zm5.445-.47c.345-.51-.026-1.84.03-.556.158.285-.486 1.293-.03.556zm-2.582-.84c.383-.421-.134-.95-.742-.561-.26.998.741-.242.764.451-.264-.52-.662.469-.064.174zm2.853-.937c-.689-.657-.608-.33.05.141.09.017-.038-.097-.05-.141zm-2.202-.365c.125-.72-1.488-.478-.48-.223.13.128.537.824.48.223zm.463-.024c-.425-.34.193.682.027.027zm-33.992 4.28c.28-.996-.554-.955-.922-1.58-.34-.694-.892-1.46-.444-2.257.099-.619 1.667-.946.41-.98-.06-.982.913-.384.938.097.908.193.566-.76 1.274-.947.467-.524 1.47.595 1.336-.066.515-.424 1.229.578.964 1.19-.677 1.017.493-.391.062.522-1.026.577.395.32.145-.39-.192-.695.696.617.016.875-.789.511.945.025.461-.662-.506-1.008.542.28.012.753-.61.426-1.107.272-1.107 1.139-.139.55.032 1.29-.49 1.84-.685.731-1.984.363-2.5-.415-.185-.226.089 1.421-.155.881zm2.556-.669c.629-.448.234-1.222.514-1.748.448-.963-.829-.28-1.355-.553-.63-.145-1.194-.83-1.43-.296-.38-.03.548 1.415-.4 1.239-.697-.69-1.122.824-.187.758.683-.1.943.862 1.676.825.395-.072.932.193 1.182-.225zm-.71-.231c.588-.84.38.587 0 0zm.498-.671c.093-.873.687.408 0 0zm-2.955-.086c-.385-.704.994-.094.102-.171.057.302.45.378-.102.17zm1.778.002c.263-.808.84.53 0 0zm1.04-.57c.891-.647.449.364 0 0zm-1.366-.078c1.05-.4 1.011.234-.068.069zM8.71 38.445c.269-.97-.74 1.31-.302.691.065-.25.13-.492.302-.691zm3.868-.314c.73-.312.462-1.57-.325-1.613.441.481.378 1.265-.067 1.723.149.029.264-.048.392-.11zm-.543-.554c.22-.87-1.265-1.156-1.488-.382-.019-.233 1.4-.686 1.33.241-.02.323.024.886.158.141zm-.353-.135c-.102-.87-1.314.05-.745.161.253-.81.41.912.297-.39.467-.359.47 1.44.448.23zm-2.556-.022c-.81-.154.783-.188-.233-.35-.461.37.27.49.233.35Zm8.908-2.103c-.814-.274-1.656-1.075-1.498-2.028V17.802c.345-1.031 1.334-1.757 2.425-1.575 4.824.02 9.656-.03 14.476.034.978.067 1.504.828 1.908 1.619l.002 15.815c-.373 1.093-1.473 1.885-2.65 1.685-4.818-.015-9.644.043-14.457-.017l-.123-.028-.083-.018zm15.893-.333c.952-.408 1.354-1.478 1.179-2.457V17.95c-.309-.693-.888-1.386-1.62-1.413-.428-.33-1.472-.043-2.137-.136l-13.056.033c-1.154.27-1.74 1.453-1.55 2.569v14.68c.3 1.02 1.368 1.688 2.418 1.458l14.498-.034.268-.122zm-15.276-.81c-1.18-.314-.861-1.678-.913-2.602l-.052-3.32c.748-.54.993-1.419.813-2.299.028-.768-1.128-.899-.766-1.68.133-2.044-.075-4.154.113-6.167.523-1.007 1.83-.47 2.735-.605h12.705c.81.212.777 1.018.729 1.694l.057 5.506c-1.133.582-1.414 2.203-.518 3.105.849.346.338 1.387.469 2.1-.056 1.231.084 2.526-.093 3.717-.658 1.04-2.074.478-3.095.62-4.035-.028-8.084.04-12.11-.047l-.074-.022zm5.728-.464c-.007-.498-.495-1.742-.305-1.77.24.692.345 1.42.505 2.132.655.047-.127-1.268-.063-1.768.139-1.066-.908-.692-1.605-.75-.728.03-1.662-.554-1.551.558-.264 1.23.091-1.19-.288.338-.01.504-.795 1.71-.02 1.657h3.387l-.06-.397zm-2.446-1.533c.033-1.405.037 1.369 0 0zm6.138 1.24c.12-.595-.14-1.554.167-1.933 1.173.029 2.348.142 3.516-.03-.787-.347-1.523-1.025-2.343-1.16-.572-.136-.93-1.191-1.01.06-.062.5-.498 1.816-.771.744.159-.033.266.112.563-.845-.754.08-.712-.859-.45-1.35-.16-.63-.071-1.31-.563-1.86-.651-.868.696-.6 1.202-.658.522 1.224.33-.45 1.158-.507 1.052-.533.155.604 1.276.315 1.205-.077.02-.99.358-.715.588.309 1.234.53 1.676 1.05.037-.772.388-1.498 1.06-1.907l-.1-6.445c-.616-.943-1.917-.401-2.852-.54l-12.32.037c-1.11.292-.616 1.64-.724 2.48v4.63c1.082.812.994 2.61 0 3.453.047 1.702-.093 3.461.07 5.127.46 1.017 1.671.588 2.546.675.182-.87.363-1.745.662-2.584-.903.257-1.155-.81-.99-1.488-.106-.823-.01-1.176.375-2.01.216-.653.458-1.523 1.273-1.557.414-.046 1.069-.52.957-1.364-.268-.396-.97-.79-1.098-1.363-.99-.052.138.264-.135.93-.087.762-1.564.122-.747.249.644.063.839-1.19.282-.348-1.338.307-1.893-1.872-.864-2.512 1.156-.42-.061-.034.234-.455.52-.418 1.73.181 1.349.814-.248 1.126.064.614.197-.203.025-.986 1.3-1.21 2.074-.952.862.1 1.992.983 1.585 1.903-.421.792-.447-1.526-.584-.12-.29.5.115.805-.253.416.443-.423-.043-1.61-.185-1.367.43.533-.478 1.529-.195.466-.194-.808-.149 1.159-.46.504.205-1.317.08.097-.566.33-.438.467-1.514-.047-1.255.916.644.278 1.14.512 1.771.967.807.307 1.544-.361 1.46-1.19.055-1.198.17.388-.065.777-.313.64-.93.656-1.56.593-.623-.422-.988-1.183-.839-.003.3.646-1.19.926-.211 1.224.691.43 1.142-.201 1.643-.144 1.172.265 1 1.706 1.541 2.548-.56.698.435.827.439 1.272-.297.592-.644 1.78-1.503 1.33-.69-.548.032.953-.037 1.326-.102.976.36 1.369 1.306 1.139.578-.154 1.757.313 1.926-.261l.014-.404zm1.24-8.257a2.052 2.052 0 0 1-.7-1.497c-.335-.17.964.788.292.38-.235.523.562 1.531 1.236 1.008.733-.06.835-1.106 1.475-1.142.586-.29.383-1.308-.32-.905-.128.897.53.337.033.182.828-.22.061.984-.2.253-.045-.672-1.46-.542-1.047-1.48.251-1.133-.292.2-.142.683.715.483.531.66-.153.215-.355-1.046-.427-.635-.05.194-.645-.487-.384-.551-.46-.115-.555-.321-.402-1.736-.672-.431.234 1.223-.863.032-.233-.527.687-1.114 2.794-1.512 3.407-.132-.167.804 1.073.664.936 1.51.29.908-.99.997-1.172 1.345.26.744-.437-.445-.255.315-.411-.096-.102.171-.559-.075-.35.263-1.036.486-1.417.219zm2.315-2.903c.346-.603-1.43-1.451-.586-.832.55.078.228 1.806.586 1.032v-.2zm-2.412 2.548c.546-.432.714.146 0 0zm.387-.641c-.236-.7.872.098.013.01zm-7.063-.074c.002-.836.914.14.028-.1.349.166.281.328-.028.1zm1.405.026c-.054-.678 1.067.3 0 0zm.831.006c.217-.563.806.138 0 0zm-.865-.654c1.367-.405-.429.407 0 0zm5.581.026c.499-.5 1.255.19.172-.136.52.139-.158.346-.172.136zm-.81-.047c-.834-.36.955.052 0 0zm.577 10.539c-.201-.371-.412-2.042-.097-.899-.132.817.634 1.373 1.109.902-.355-.528.186-1.848-.752-1.652-.757-.053-1.609-.202-1.267.86-.257.908.267 1.035 1.043.91zm2.9-.035c-.257-.574.095-1.826-.857-1.574-1.11-.002-.416-.214.292-.133.855-.497-.74-.662-1.227-.565-.67.008-1.388-.09-2.027-.018-.409.978.884.459 1.443.585.507-.505.369-.143.474.63-.023.765.064 1.54 1.028 1.23.189-.1 1.034.206.874-.155zm1.247-.031c.846-.596.306-1.775.452-2.651-.064-1.008.108-2.11-.1-3.058-.69-1.015-.534-.36-.47.484-.04.935.327 2.148-.495 2.823-1.032-.31-.822.558-.674 1.273.167.627-.051 1.68.905 1.278.158.019.27-.045.382-.149zm-7.83-2.495c.277-.259 1.114-1.639.285-1.32-.424.29-1.7.718-.98 1.299.182.177.52.245.695.021zm-.519-.522c.61-.692.715-.184-.04.103zm7.794.341c.638-.838.294-2.08.292-3.087.036-.854-.337-1.786-1.175-2.118-.43.69-.599 1.692-.133 2.357-.15-.38.796-1.89.407-.919-.406.78-.218 1.75-.167 2.583.44.78-.958-.117-1.313-.245-.477-.336-1.121.623-.216.738.696.325 1.517 1.066 2.305.691zm-1.061-3.821c.002-1.527.07 1 0 .334v-.334zm-9.796 3.174c.512-.743 1.095-.365 1.71-.625a.572.572 0 0 0-.846-.76c-.67.43-1.396.847-2.135 1.105.747-.39.651-1.07-.23-1.03-.214.442-.28 1.336-.005 1.863.424.46 1.11-.282 1.506-.553zm2.175.616c.853-.213-.128-1.16-.81-.898-.67-.233-1.207.588-1.7.805.814.175 1.674.138 2.51.093zm.665-.75c.447-.902.056-2.062.376-3.006.166.453-.26 1.801.25 1.673.552-.158-.194-1.043-.16-1.502-.068-.599-.969-1.38-.687-.266-.002 1.016.297 2.045-.097 3.024.034.23.184.303.318.077zm-.37-.57c.214-.895-.015-1.826-.023-2.735-.52.737-1.575.11-2.243.164-.228.814-.579 1.598-.704 2.438.792-.177 1.394-1.138 2.279-.81.711.428-.512 1.413.307 1.298.351.08.32-.066.384-.354zm1.043.21c.686-.726-.605-1.017-.287.029-.064.273.217.014.287-.03zm6.497-.01c-.682-.554-1.44-1.126-1.972-1.878-.862.654-.26.97.442 1.21.457.339 1.068.651 1.57.774zm-2.58.016c.43.131 1.156-.934.133-.812-.33-.608-.723-.517-1.468-.623-.567.292-.197 1.61.37.804-.768-.697.686.177.718.618-.04.116.327.138.246.013zm-1.207-.137c-.373-.373-.971.064 0 0zm3.506-.637c.087-.475-.839-1.01-.097-.706-.381-.853-.234-1.835.158-2.658-.454.117-1.31.668-1.84.187-.484-.45-1.14.373-.934.917.653.02.865.554 1.274 1.207.43.513.925.977 1.478 1.346l-.04-.293zm-9.98-1.11c.323-.403.319-1.777-.35-1.402-.582.55-.72 1.47-.962 2.213.919.396 1.152.111 1.313-.81zm7.746.266c-.112-.174-.992-.398.303-.244.324-.521-.329-.734-.623-.403.54-.28-.706-.263-.48-.583-.116-.728-1.126-.557-1.54-.462.422.58.559 1.313 1.396 1.218.308.244-1.66 0-.418.579.43.072.96.063 1.362-.105zm-5.45-1.489c.882-.72-.329.05-.75-.096-.42-.102-2.104-.79-.987-.122a2.263 2.263 0 0 0 1.738.218zm-3.898-3.979c.439-.955-.698 1.229-.015.018l.015-.018zm1.397-.323c-.02-1.165-.467.926-.01.065zm-15.5 11.798c-.276-.513.458-1.53-.163-1.708-.64-.328-.684-1.095-.636-1.73-.88.248-.509-.876-.321-1.29.065-1.22.842-2.356 2.043-2.698-.264-.948 1.075-.41.896-1.044.047-.65-.618-1.03-.947-1.613-.827-.559-.612-1.815.055-2.425-.43-.044.2-.604.037-.55-.793-.386.424-.03.396.402.53-.61 1.506-.127 1.964-.813.748.057 2-.314 2.089.777-.454.735-.816.99.142.328.073-.792-.217-1.368.225-.266.27.583.272 1.674-.62 1.554-.665-.61-.218.989-.46 1.348.103.879-.563 1.782-1.5 1.609-.61.243-1.135-1.34-1.248-.634.4 1.028-.907.467-.822 1.293.677.223 1.626.567 2.29.133-.217-.567-1.243.204-1.79-.27-.956-.41.79.104 1.16-.011.593-.5 1.07.258 1.61.581.663.569.784 1.56.964 2.295.401.283.66 1.112.26 1.302.063.886-.939.64-.675 1.322.03.74.301 1.454.246 2.199-.08-.455-.45-.889-1.283-.688L6.14 33.9c-.042.091.017.963-.104.598zm4.974-.84c-.205-.477.074-1.885-.653-1.651-1.008-.129-1.746.649-2.682.897-.5.249-1.624-.339-1.474.587.232.575 1.36.088 1.932.23.957-.026 1.93-.01 2.877-.064zm-3.628-1.134c.76-.147 1.515-.346 2.21-.69-.414-1.079.17.415.762.013.555.17 1.77-.806.78-.845.257-.103.92-.612.006-.692-.31.106-1.262.513-.42.02.865-.438-.86.233-.97.784-1.237.371-2.595.456-3.893.292.838-.157.928-.35-.173-.39-.626-.08-.308 1.265.125 1.538.428.255 1.089.058 1.573-.03zm1.307-1.278c.888.114 1.303-.734 1.922-1.15-.044-.171-.694-1.633-.149-.503.485.612.036-1.088-.145-1.423-.384-.826.58.472.5.82.597.584.085-.875-.223-1.176-.329-.471-1.205-1.146-.876-.086-.074.767-1.173.527-1.622.182.526.113 1.677.352 1.548-.522-.095.004-1.164.358-1.805.078-.363-.462-2.02-.045-1.258.262 1.116.495 1.24 2.126.753 3.098-1.08.727.28.531.908.487l.447-.067zm-1.937-.579c-.075-.629-1.333-.432-1.818-.33-.482.78.906.358 1.356.493.249-.01.589.317.462-.163zm.489-.176c.443-.97.199-2.621-1.04-2.798-.87.428-1.038 1.546-1.183 2.417.615-.146 1.548.222 1.94.094.044-1.229.365-.448.148.323-.173.494.066.222.135-.036zm4.403-.244c-.277-.16-.607-1.42-.704-.585.182.551.506.703.704.585zm-1.567-4.412c.595-.109.663-1.211.191-1.065.592-.34.047-.546.398-1.021.143-.83-1.047-.711-1.548-1.083-1.008-.434-.38.281-.501.873-.688.392-.023 1.357-.7 1.333-1.231-.458.76-.484-.147-.756-.898-.123-.373 1.455.37 1.102.53.567 1.158.875 1.937.617zm-.293-.403c.563-.516.733.337 0 0zm-.178-.583c-.099-1.054.545.34 0 0zm-.373-.804c.483-.605 1.005.443 0 0zm-.275-.394c.253-.647 1.796.279.468-.084-.23-.234-.343.328-.468.084zm2.553-.48c.966-.957-.416-.073-.512-.011.21.093.316.208.512.012zm-.617-1.076c.72-.415-.289-1.28-.8-.72-.934.916-.22.276.468.053.984-.053 0 .898.097.827l.235-.16zm-1.303-.804c-.137-.298-1.015.931-.146.059l.068-.06zm30.373 13.177c-.137-.55.665-1.807-.05-1.808-.611-.281-.896-.92-1.244-1.398-.449-.342-.786-.938-1.016-1.489.004-.713.05-1.405-.553-1.93-.699-.546-.455-1.218.437-.971.746.088.831 1.121 1.326 1.587.225.31 1.275 1.899.638 1.232-.658-1.047-.089.215.318.507.03.66.79 1.395-.256.736-.762.19-.546.793-.002 1.245.752.82.857-.22.809-.87-.047-.717-.52-1.094.454-.867 1.267.102-1.064-.056-.377.339.695-.02 1.47-.012.305.083-.354.33-.103 1.38-.359 1.966-.144.338-.194 1.924-.43 1.638zm-.81-3.546c.062-.65-.305-.378.307-.65-.75-.234-1.335-.365-1.08.63.11.311.625.265.773.02zm-.545-.107c.042-.237 1.191.145 0 0zm-.35-.646c-.785-.571.74-.38.075-.68-1.34-.167.62.113.282-.25-.768-.397-1.181-.03-.761.75-.022.173.672.794.404.18zm.495-1.11c-.646-.586-1.321.05-.152.083.059.053.305.086.152-.084zm-.519-1.323c-.158-.563-1.366-.994-1.441-.41.599.155 1.302-.032 1.594.717.215.057-.174-.254-.153-.307zm6.822 6.836c-.217-.504.037-1.506-.528-1.645-1.065.027-1.752-.79-2.407-1.508-.333.103-1.674-.598-1.019-.356.963.23 1.176-.609.335-1.023-.745-.453-1.541.252-.325.061.296.192-1.44.398-.947-.329.679-.07.075-.802.877-.155-.018-.604-.222-1.561.02-2.29-1.002.353-.871 1.757-1.238 2.6-.018-1.217.385-2.655 1.688-3.039.649-.257 1.047-.331.714.173.386.777 1.758-.083 1.582-.701-.585-.35-.718-1.001-.755-1.635-.709.086-.358 1.348-1.304 1.43-.883.17-1.67-.663-1.85-1.475.733-.327-1.092-1.035.144-.522.415.447-.273 1.148.683 1.54.757.689 1.817-.238 1.77-1.114.402.062 1.038-.634.49-1.096-.875.093-.7.467-.017.318.15.997-.78-.102-.76.621-.495.183-.056-.884-.863-.763-.214-.582-1.656-1.073-.574-.342.412.498-1.24-.01-1.292-.358.154-.519 1.024-.969.057-.383-.78.624.546.802.498 1.083-.78.628-1.33-1.074-.46-1.343.603-.284 1.216-.493 1.844-.753.816-.086 1.584.165 2.094.835.788.524.688 2.121-.313 2.264-.055.784.288 1.365.898 1.761.653.382 1.569.371 2 1.116.703.834.906 1.956 1.177 2.99-.431.582.138 1.563-.552 2.064-.341.715-1.663.052-1.724.568-.045.355.322 1.33.057 1.406zm1.57-2.132c.34-.333.666-1.69.068-1.623-.56.114-1.998.15-.812.512-1.18-.084-2.22-.69-3.323-1.012-.018.06-.097-1.786.142-.745.275.344 1.905.652 1.637-.181-.01-.847-.115-1.87.507-2.478-.766-.607-.937.203-1.544.523-.537.34-1.275-.024-1.403-.564-.662.231-.548 1.188-.624 1.775-.082.752.17 1.247.836 1.586.245.56.017 1.265 1.023 1.48.223.215 1.876.95 1.046.454-.306-.079-1.836-.973-.979-.63 1.01.55 2.165 1.085 3.33.984l.096-.08zm-1.39-1.572c-.18-.314 1.07-.026 1.547-.3.646-.202-.135-1.304-.207-1.82-.233-.73-.805-1.476-1.506-1.724-.845.682-.58 2.059-.295 3 .19.228.037 1.126.462.844zm.073-.7c-.38-.846-.629-1.845-.312-2.745.125.264-.162 1.26.088 1.79-.013.308.763 1.934.224.955zm-.868.508c-.206-.314-1.788-.709-.581-.404.963.521.401-.46-.244-.29-.89-.346-1.17.212-.211.437.292.033.838.396 1.036.257zm-3.074-3.455c-.408.285-.203 1.91-.072.493.002-.153.137-.362.072-.493zm1.475-3.12c.38-.833-.894.369 0 0zm-.326-1.68c.362-.706-.894.335-.487.792.327 1.067.159-.695.487-.792zm.552.592c.884-.976-.307.298-.193-.218.71-.47-.721.435.193.218zm-2.176-.924c1.09-.432.234-.407-.295.08-.103.234.273-.001.295-.08zM11.607 32.7c-.764-.39-.62-1.108-.024-.175.984.427 1.406-.9 1.734-1.604.055-.577.718-1.138.119-1.207.315-.11 1.756-1.044 1.058-.378-1.183.75-1.004 2.505-2.098 3.322-.255.134-.527.215-.79.042zm-.016-.85c.495-.735.66-1.66 1.087-2.429-.728-.177.161-1.166.307-1.644.43-.65.408-1.972 1.449-1.866.614-.175 1.037.32.618.994-.413.707-.536.574-.752 1.267-.97.58 1.045.188-.387.566-.902-.087-.912.614-1.261 1.234-.451.603-.486 1.57-1.098 1.999-.16.037.002-.07.037-.121zm1.087-2.827c.278-.923.913-1.74 1.176-2.685.686.236 1.966-.183.6-.223-.974-.227-.85 1.125-1.32 1.656-.104.147-.849 1.742-.456 1.252zm1.438-1.224c-.092-.814-1.446.502 0 0zm-.267-.443c-.317-.747-.106.415 0 0zm-.448 1.819c1.009-.352 1.32-.264.123.04-.02-.017-.327.015-.123-.04zm27.22-3.953c.761-.12-.296-.87.294-.752.27.262.107.999-.295.752zm-.076-1.204c-.239-.233.925.066.032.023zM7.562 16.88c-1.065-.456-.724-1.804-.572-2.717-.09-.669.195-1.239.575-1.951.361-1.163 1.378-1.907 2.484-2.305.564-.851-.324-.99-.629-1.587-.25-.681-.617-1.294-.47-2.055-.182-.733.613-.816.985-1.28.706-.4 1.569-.29 2.338-.146.16-.57.673.22 1.218-.038.49.29-.116.749.623.901.683.304.336 1.834-.464 1.67-.138-.976-.698-.46-1.468-.63-.481-.144-1.823-.473-.72.044.004.469-1.293.075-.307.673-.265.643-.759.622-.958.7-.287.846-.828-.796.009-.267.038-.525-1.12-.184-.645.519.477.695 1.162-.067 1.23.799.666-.45.687.481 1.465.297.664-.116.755-1.068.456-1.446 1.024-.06-.214-.455.314-.778-.142.257.472.504-.025 1.046.034.776-.36 2.117-1.372 1.746-.72.091-.864-1.102-1.313-1.053.363.674-.616 1.035-.347 1.29.51.178 1.178.793 1.675.35.032-.677 1.073.145 1.216.506.437.513-.044 1.645.817 1.654.43.138-1.187-.006-.146.337.789-.531-.315 1.018.382.171.501-.573-.156-1.347-.604-.7-.086-.988 1.168.322 1.105-.645.44-.872.508-1.963 1.182-2.684.584.024 1.84-.256 1.24.707-.195.522-.864 1.478-.505 1.808.709.165.1 1.12-.043 1.564-.296.556-1.024.655-1.125 1.406-.38.654-1.082 1.224-1.865 1.198.08 1.262-.221.857-.15-.16.252-1.04-.75-.691-1.306-.418-.847.98-2.067 1.576-3.372 1.534-.284-.01-.66.028-.908-.06zm2.428-.41c1.201-.558-.001-.02-.606.04-.182-.018 1.151-.341 1.5-.65.64-.238.866-1.268 1.474-.84.863-.099 1.656-.524 2.274-1.137-.845-.232-1.59.548-2.339.6-.72-.386.22-.812-.845-.194-1.125.56-2.425 1.15-3.689.931.383-.174 1.236-.996.768-1.256-.688-.287-1.439-.555-1.426.47-.174.788-.39 2.164.726 2.285.707.074 1.518.08 2.163-.248zm-2.31-2.134c.928-.187.98.06-.034.054zm6.354 1.302c.771-.305 1.17-1.078 1.47-1.806-.959.009.804-.078.79-.614.333-.61.455-1.638-.55-1.189 1.15.412.363.337-.277.64.054.197 1.518.134.26.223-.815.033.38.567-.775.877-.229.42-1.172.997-.827 1.023-.479.145-1.36 1.002-.448.985.126-.023.237-.096.357-.14zm-4.319-.763c1.172-.308 2.181-1.019 3.239-1.58.026-.947.096-2.404-1.049-2.685.304.853-.898 1.032-1.445.645-.672-.036-1.162-1.087-1.762-.437-.738.664-1.137 1.617-1.394 2.548.6-.195 1.562.898 1.77.106.322-.491.166-1.22.435-1.63.145 1.217-.362 2.384-1.103 3.295.442-.067.883-.12 1.31-.262zm2.04-1.796c-.557-.727.939-.829.553.02.015.164-.54.21-.554-.02zm.39-.144c-.03-.928-.539.477 0 0zm.284 1.16c.167-.444 1.605-.796.394-.606-.39-.05-.834 1.15-.394.606zm1.724-.815c.439-1.237.915-2.474 1.473-3.66.724.104 1.858-.273.523-.238-.981-.162-.893 1.08-1.26 1.67-.308.868-.722 1.697-.958 2.59.215.068.137-.253.222-.362zm-2.491-2.201c.312-.353-1.01.071-1.382-.393-.553-.595-1.373-.314-.317.102.48.238 1.23.785 1.699.291zm4.238.1c-.421-.36-.939.296-.029.085zm9.149 4.573c-.09-.504-1.34-.26-1.69-.914-.725-.623-.971-1.618-1.271-2.496-.809.014-1.176-.953-1.304-1.577-.168-.47.133-.963-.384-1.452-.564-.805.571-.94 1.145-.915.601.19.816 1.075.975 1.656.424.163.896.457.977 1.064.633.41.294 1.287.95 1.675.529.616.466-.995.719-1.322.096-.506.859-1.1 1.24-.654.445.281 1.625-.817 1.315-.149-.53.471-1.422.126-1.725.252-.296.823.918.648 1.323.322.884-.729-.34.606-.853.401-.708-.462-.892.008-1.073.78-.295.919.198 1.365 1.11 1.387.967.438.475-.336.608-.945.13-.806.552-1.655.846-2.319 1.342.471 1.105 2.175 1.3 3.323.276.777-.513 1.282-.254 2-.56.454-.595-.674-1.494-.314-.804.13-1.513-.303-2.205-.57-.011.234-.136 1.581-.255.767zm3.82-.152c-.214-1.061-.248.933 0 .064zm-3.789-.57c-.104-.621-1.226-.57-1.494-1.272-.56-.331-.702-1.128-1.266-1.367.226 1.033.715 2.527 1.962 2.847.23.035.98.24.798-.208zm3.45.127c.998-.302.535-1.608.482-2.383-.172-.576-.107-1.47-.575-1.802-.154.332-.46 1.688-.389.574.485-1.173-.428-.59-.343.257-.252 1.063.526.855.42.842-.664.43.623 1.735-.494 1.479-1.188.038-2.364-.558-3.29-1.171-.332.692-.103 1.359.69 1.52 1.058.531 2.318.903 3.5.684zm-1.043-2.36c.086-1.17-.147-.916-.244.08-.042 1.041.443.981.244-.08zm-3.593.35c.452-.911-.136-.406-.396.199.165.26.282-.09.396-.2zm1.665-1.546c.634-1.187-.292-.421-.368.301-.324.396-.254 2.009.007.906.029-.433.192-.812.36-1.207zm-2.085 1.408c.602-.582-1.236-1.192-.535-.211.16.212.268.586.535.211zm.323-.694c.224-.737-.595-1.264-.768-1.904-.93-.423.117.71-.154.667-.626-.035.315.92.551 1.225.118.052.38.348.37.012zm-.948-.103c-.051-.38-1.315.099-.91-.779.931-.558-.352-.018-.57-.342-.758-.312.86.048-.151-.481-.706.018-.134.91.114.865.607.064-.748.078.279.676.369.086.927.333 1.238.06zm-.023-.41c-.557-.125-1.203.208.045.117zm-.312-.946c-.169-.72-.44-1.51-.819-2.189-.716-.03-1.75-.059-.983.833.493.768.964.868.11.878.508-.035.934.773 1.59.517l.074-.01zm-.772-.446c-.025.088.665-.44-.2-.415-.075.693.06-.744.576.163.098.25-.19.394-.376.252zm-.708-1.196c-.426-.647 1.266-.011.066.085zm6.336 1.049c-.541-.23-.01-1.53-.722-.555-.53.486-1.664.553-1.975-.276-.105-.458-.87-1.194-.239-1.43.622.412-.719-.006.058.587.376-.163-.166.907.612 1.199.843.481 2.152-.385 1.975-1.377.64.735 1.235-.554.49-.764-.723-.067-.346 1.22-.983 1.034.37-.838-.751-.663-1.092-1.052-.37-.554-.278-1.317-.345-.126.425.739-.655-.774-.336-.149-.144.766-.442-.28-.56-.25.277.97-.262.773-.206-.072.569-1.338 2.49-1.741 3.54-.71-.055.203-.569-1.195.388-.468.493.838.601.213.723.278-.382.655.545-.081.585.378.188.604-1.3.873-.14.844 1.09.714-.431.338.302.81.411.446.092 1.299-.518 1.344.574-.212.321-1.674.148-.675-.701.926.114-.285-.411.003-.282.715-1.42-.055-1.5.43-.329.437.716 1.321.206.997zm2.12-1.523c.031-.988-.337 1.14 0 .259V8.74zm-3.747-1.345c-.624-.987.47 1.235 0 0zM28.388 7c.154-.557-.527-1.248-.963-1.165.56.285.983.85.825 1.55.012.43.233-.276.138-.385zm-1.252.109c-.28-.602-.612.668-.006.036zM11.999 9.241c-.006-.78.42.13.529-.232.485-.431-.268.593-.529.232zm13.112-.52c-.238-.562.897.11.032.024zm2.243-.321c-.206-.452.585.178.171-.472-.993.44.455-.533.152.34-.017.14-.215.297-.323.132zM11.76 8.222c-.035-.862 1.04.083 0 0zm13.252-.193c.491-.271 1 .401 0 0zm-13.25-.494c.072-.466.917.136.044.044z" style="fill:#2c2f3c;stroke-width:1"/></svg>