<svg xmlns="http://www.w3.org/2000/svg" width="200" height="200" viewBox="0 0 52.917 52.917"><path d="M43.38 3.619a23.46 23.46 0 0 0-1.185.03c-2.989-.288-2.084 2.928-2.202 4.841.47 2.076-.908 4.663.756 6.345 1.639-.407 4.485 1.052 5.341-.855.462-2.53-.04-5.138.242-7.698.617-2.283-1.19-2.652-2.953-2.663Zm-2.29.41c1.453.739 2.922-.086 4.466.108 1.018 1.423.658 5.251-1.675 3.303-1.993-.768-2.019 1.574-2.963 2.3 1.27 1.495 3.244-.74 4.624-1.385.762 1.034.61 4.311.053 6.06-1.634-.006-3.332.438-4.927-.1-.748-1.291-.205-3.412-.358-5.028.38-1.445-.995-4.343 1.323-4.304.856.116 5.156.358 2.92-.265-.956-.224-4.782.782-3.463-.69ZM28.673 5.03c-3.444-.069-6.822 2.41-8.172 5.56-1.48 3.03 2.523 2.642 2.98 4.86.021 2.482 2.022 5.039 4.646 4.928 2.573-.094 3.766-2.807 4.129-5.006.42 1.815 1.243 4.115.42 5.807-.925 1.345-4.82 3.888-4.786.856 1.535-1.912-1.398-.696-2.17.145-2.239.78-3.631 2.708-4.33 4.95-.136 2.017-1.675 4.431-.496 6.367-1.617.217-2.965-.586-4.405-1.237-1.367-1.487-2.507-3.96-4.91-3.707-2.221-.634-1.773 1.617-.523 2.49.449 1.548 1.885 2.774 2.193 4.655.14 2.527 3.146 2.64 3.847 4.88 1.02 2.039 3.503 2.068 5.341 1.296.645 1.23-.878 3.286-.633 4.874-.8 3.042 2.698 2.074 4.443 2.354 2.44.021 4.88.01 7.32-.06 3.251.85 2.374-2.946 1.535-4.804-1.585-2.288 1.65-2.166 2.594-3.554 1.207-3.532 1.502-7.344 1.498-11.072-.036-2.531.017-5.8-2.244-7.423-2.024.318-1.01-1.742-2.2-2.699-2.236-.244-2.32-3.293-1.137-4.754 1.375 1.084 2.885-.952 3.989-2.126-.717-.368-1.854-.062-.49-1.09 1.886-1.558-1.278-1.61-.082-2.843 1.875-1.761-1.243-3.915-2.906-2.63-1.194 1.312-1.864.025-3.081-.54a6.725 6.725 0 0 0-2.37-.477Zm4.844 1.91c.021.004-.001.046-.1.15-.9.538.01-.165.1-.15zm9.405.515c.785.008 1.285 1.363-.261 1.56-.739.756-.816-.638-.555-1.025.26-.39.554-.537.816-.535zm1.213 1.381c.053.012-.018.096-.345.312-1.103.28.184-.346.345-.312zm-1.386.307c.012.009-.018.143-.13.506-.318.568.094-.533.13-.506zm-8.294.904c.317.785-.181.803 0 0zm8.988 1.407c-.966.012-2.058.087-2.411.2 1.356.086 2.72-.03 4.076-.013.145-.145-.698-.198-1.665-.187zm.396.464c-.943-.001-2.125.25-2.733.193-1.854 1.236 1.676.75 1.56 1.968l.134.107.156.015c.257-.974 1.257-.781 2.187-.964.345-1.065-.36-1.318-1.304-1.32zm-15.455.167c.705-.019 1.691.636 1.556 1.536.151 2.18 1.96-.828 1.698 1.01.616 2.076-.78 4.68-2.975 5.23-2.205.714-4.857-1.662-4.615-3.904 1.113-.847-2.034-2.126-.237-2.312-.159-.235 1.104-.425 1.61-1.085.191 1.113 3.69.806 2.31.007.071-.327.333-.474.653-.482zm-3.439.162c.075.003.143.075.165.275-.678.334-.389-.283-.165-.275zm17.523.152c.106-.018.264.123.452.558.05-.635.815-.753.651.197-1.259.774-1.419-.703-1.103-.755zm-15.34 1.969c-.51-.017-1.112.177-.486.743.059.082.22.083.363.048a3.97 3.97 0 0 1 .105-.259l-.045-.01c.023-.006.036-.013.057-.019.026-.058.054-.115.075-.175a.917.917 0 0 1 .172-.3 1.563 1.563 0 0 0-.241-.028zm-2.233.482c-.275.087-.71 2.126.158 2.513.263.14.578.104.847.009 1.654-1.32-1.724.013-.845-1.511.03-.78-.053-1.045-.16-1.01zm2.007 3.32c-.495-.004-1.122.112-.756.325l.353.081.362-.008c.898-.268.536-.393.041-.398zm.497 3.253c.386-.018-.334 1.679-1.147 1.518-.73.845.447-1.007.54-1.023.304-.352.5-.49.607-.495zm-4.344 3.178a.387.387 0 0 1 .163.03c.31.664-.395.001-.163-.03zm.08.547c.055.008.022.087-.23.298-.435.003.11-.317.23-.298zm12.705 1.128c.134-.016-.257.71-.741 1.134-.156.238.215-.628.194-.554.318-.412.487-.572.547-.58zm-11.523 1.016c-.092.267-.949 5.083-.837 7.072l-.088.09-.137-.01c.376-2.373-.189-4.972 1.062-7.152zm2.76.849c.07.022.091.245-.126.745-.14-.47.034-.774.125-.745zm-5.524.076c.197-.051.329.742.116 1.31.039 1.203-.57-.235-.4-.616.09-.472.194-.67.284-.694zm5.671.29c.098-.015.27.083.54.396-.454.706-.834-.352-.54-.396zm1.78.932c-.004.013-.12.066-.446.19-.558.101.454-.228.445-.19zm-1.798.165c.153.002.343.056.581.167.41-.075-.321 3.152.256 4.352-.588-.523-.525-1.421-.856-2.09-.37-1.352-1.07.768-.481-.78.424-1.094-.428.186-.125-.34.045-.836.166-1.312.625-1.309zm7.405.245c.083-.01.068.204-.299.673.032-.428.215-.663.299-.673zm-22.281.249c.06-.012.14.049.21.266-.378.143-.342-.24-.21-.266zm19.287.353c.299.065.846 2.247.112 2.828-.792-.215-2.38-.493-2.41-1.709.648-1.897 1.961 2.194 2.139-.34-.012-.587.06-.8.16-.78zm-10.385.392c.159-.054-.604 1.5.035 1.98.118.64-.882-1.067-.587-1.291.344-.475.499-.671.552-.69zm6.533.118c-.084-.056-.3.985-.127 1.653.143-.228.101-.504.111-.756.065-.618.054-.87.016-.897zm-1.553.517c.005.022.004.143-.009.422-.15 1.251-.011-.516.01-.422zm2.891 1.156c.13.012.195.125-.196.305-.129-.226.066-.316.196-.305zm-.398.466c.193.002.327.195.189.767-1.316.15-.612-.77-.189-.767zm-14.764.016c.111-.001.251.04.416.148-.845.633-.899-.145-.416-.148zm17.005 1.348c.077.005.196.018.37.04.638.233-.905-.08-.37-.04zm-7.579.34c1.305.063 3.938 3.863.938 4.058-2.14.836-1.805-.932-3.455-1.273.547-.004.575-.965-1.05-.89-1.817.034-.537-.603.55-.208 2.13.212-.253-.712-1.133-.503-1.764-.31-.154-.777.73-.464.756.068 4.335.97 2.876-.325.106-.29.302-.407.544-.395zm-9.322.79c.1.006.127.123-.076.458-.727.06-.146-.47.076-.458zm.554 1.023c.046 0 .11.049.19.193-.29.267-.326-.19-.19-.193zm16.678.318c.594.018 1.57.234 1.704.92-.425-.12-.726-.468-1.12-.652-1.392-.105-1.179-.285-.584-.268zm-15.722.218c.26-.017.556.095.113.386-.594-.223-.372-.369-.113-.386zm6.294.988c.05.01.105.07.158.21-.503.644-.376-.252-.158-.21zm6.276.205c.075.008.15.054.194.169-.642.136-.418-.191-.194-.169zm14.721.22c-.704-.016-1.385.263-1.918 1.023.107 2.329-.582 4.926.36 7.179 1.557.175 3.124.04 4.686.064 2.838 1.06 3.432-2.067 2.946-4.19.833-2.15-1.163-2.724-2.904-2.41-.75-.796-1.995-1.64-3.17-1.666zm.336.43c.963.027 1.96.549 2.32 1.56 2.273-.839 4.04 1.115 3.006 3.411-.1 1.395-.706.95-1.122.16.154.338.291.73.338 1.029-.337.512-.866-.46-.888-.771-.17-1.267.134-1.061.435-.498-.217-.492-.347-1.05-.246-1.383 1.477-.6-.073-1.29-.376-.021-1.438.8-3.64-1.606-4.44.775-.227 2.676 3.793 2.256 4.118-.078.98.57.355 3.451-1.413 2.73-.93.463-2.669-.604-2.613-.542 1.242 1.524 4.252.42 5.693.623-.42-1.603 1.403-1.557.427.34-1.56.455-3.281.018-4.897.243-3.478.648-2.097-3.226-2.452-5.22-.306-1.611.873-2.394 2.11-2.358zm4.089 4.891c.036.083.074.163.115.24a4.242 4.242 0 0 0-.115-.24zm-23.662-4.063c.45.688-.486 4.103-1.07 5.694l-.155.03c.362-1.817.97-3.796 1.225-5.724zm19.136.103c-.558-.033-1.082.152-1.002.776.448.251.972-.08 1.419.183 1.533-.243.512-.904-.417-.959zm.76 2.301c.884.046 2.723 1.862.85 2.727-.334.173-.74.138-1.073-.01-1.255-.87-.398-.917.614-.548.556-.01-3.024-1.296-.563-1.41.927.874.668.108-.222-.115-.09-.479.098-.66.393-.644zm2.892.375c.15-.001.1.204-.424.81-.26.087-.427.12-.538.124.177 1.374-.567-.329-.142-.14.12-.262.864-.793 1.104-.794zm-1.104.794c-.041.09-.007.146.142.14l-.006-.049a.541.541 0 0 0-.136-.09zm1.772 1.791c.107-.004.2.12.22.483-.034.024-.06.036-.09.056.004-.13-.238-.418-.336-.4.065-.078.138-.136.206-.139zm-.241.182c-.012.054.005.16.075.349a.633.633 0 0 0 .204.066c-.539.306-.472-.142-.279-.415z" style="fill:#efc7bb;stroke-width:1"/><path d="M26.248 49.103c-1.746-.28-5.245.688-4.444-2.354-.245-1.588 1.278-3.644.633-4.874-1.838.773-4.321.743-5.341-1.296-.701-2.24-3.708-2.352-3.847-4.88-.307-1.88-1.744-3.106-2.193-4.655-1.25-.873-1.698-3.124.524-2.49 2.284-.24 3.502 2.033 4.733 3.54 1.53.986 3.182 1.524 5.017 1.526-2.15-1.297.117-3.99-.185-5.863.764-2.193 1.84-4.634 4.215-5.372.68-.55 3.216-2.079 2.973-1.112-1.645 1.808.96 3.027 2.35 1.555 2.933-1.001 2.471-3.934 1.941-6.287-.464-2.563-.707 1.331-1.424 1.913-1.333 2.423-4.996 2.53-6.528.267-1.534-1.735-.563-5.042-3.565-5.341-2.257-1.856.638-5.11 2.27-6.476 2.478-1.992 6.49-2.749 9.041-.487 1.426.795 2.785-1.934 4.414-.243 1.58.956.121 2.467-.165 3.425 2.402-.025-.361 2.64-.046 2.81 2.283-.14-.963 1.897-1.465 2.619-1.011.221-1.671-1.09-2.03.584-.863 1.895.21 3.637 1.943 4.218.676 1.128.092 2.593 1.88 2.36 2.262 1.623 2.21 4.892 2.245 7.423.004 3.728-.291 7.54-1.498 11.072-.944 1.388-4.178 1.266-2.594 3.554.84 1.858 1.716 5.653-1.535 4.804-2.439.07-4.88.081-7.32.06zm3.36-2.082c1.05-.643 3.032-.957 2.586-1.763-.293-.322-2.77 1.008-3.994 1.097-1.76.445-3.571.177-5.258-.139 1.878 1.122 4.49.99 6.666.805zm3.74-.465c1.924-.03.734-1.151 0 0zm-6.715-.388c1.042-.239 1.036-.004.038-.393 1.512-.712 4.77-1.885 4.348-3.582-1.838-1.006-4.184-.933-5.82-2.243-2.247-2.206-1.687 2.551-2.407 3.777-1.529 2.332 1.635 2.568 3.29 2.487l.277-.02.274-.026zm-3.582-2.08c.14-.858.303-.57.035.043zm5.532 1.59c-1.13-.027-1.478.36 0 0zm3.735-3.355c-.699-.14-.228.88 0 0zm2.15-.667c2.455.285 3.616-2.165 3.704-4.239.695-3.787.92-7.727.42-11.535-.492-1.47-2.44-3.735-3.828-1.85-.295-1.458-1.804 2.855-2.754 2.789-.94-1.259-3.2-1.428-3.385-.41.593-1.814-1.44-.608-.61.353-1.781.496-.483 2.657-1.456 3.716.063 1.189-.525 2.326-.244.43-.038-1.512 1.142-4.137.686-4.963-.31.818-2.083-1.77-2.196.322-1.081 2.058-1.618 4.291-1.416 6.61-.42 1.784 1.649 2.533 3.189 3.395 1.644.996 4.104.401 5.343-1.04.664-.455.989-1.952-.075-.903-2.301.76-4.959-.337-3.96-3.074-.522-2.733 2.678-2.422 4.313-1.702 1.525.437-.509 4.596 1.059 2.107.37-1.977.424-3.926 2.24-5.267.446-.436-1.07 2.058.08.395.191-1.121 3.42-2.075 1.118-.828-.508.359-2.626 2.797-1.01 1.839-.395 1.13-1.562 2.353-1.968 3.925.452-1.63 2.805.211.924.819-1.02.722-1.54 3.368.24 1.577.672-.335-1.104 1.142.187 1.497 1.788.613 3.01 2.864 1.736 4.485-.93.008-2.24.137-1.42-1.315.37-1.374-2.493-1.717-1.245.018-.348.31-2.19-3.026-3.788-1.673 1.142.362.605 2 .019.437-.926.27.281 2.688-.805 3.485 1.718.883 2.915.132 4.902.6zm-3.88-2.926c-.669-1.697.855.565.015.038zm2.124-.738c-.72-.629-1.439-1.164-.156-.27.143.116.88.979.156.27zm-13.336 3.385c.789-1.092-1.807.329 0 0zm.86-1.914c1.276-.707-.444-2.232-.397-.525-.584.505-.284 1.536.397.525zm9.514-.757c.664-1.817-2.729-1.878-1.467-1.058-.283-.33 1.87 2.792 1.467 1.058zm-10.909.194c1.55-.409-.07-2.811-.29-.858-.038.077.412 1.564.29.858zm5.464-.037c3.555-.23-.801-5.526-1.482-3.663 1.459 1.294-2.12.393-2.875.325-.89-.314-2.495.156-.725.463.864-.2 3.243.716 1.138.471-.966-.268-2.504.114-.656.383 1.128-.05 2.734.91.633.615.262.186 2.159.441 1.392 1.122.735.286 1.883.72 2.575.284zm4.186-.291c-.679-.66-.45.175 0 0zm8.276-.088c-.591-1.198-2.205-1.624-.846-.32.234-.449 1.215.909.846.32zm-21.1-.944c.888-.582-1.187-.446 0 0zm-.878-.73c-.322-.575-.388.358 0 0zm-.82-.757c.652-1.073-1.057.088 0 0zm19.655-.098c1.65.3.192-1.281-.174.087l.107-.053zm-1.802-1.96c.398-1.28.939-3.324.01-3.967 1.093-.569-2.77-.788-3.201-.343.074.575-1.131 2.22-.49 3.475-.105 1.383 2.792.933 3.68.835zm1.518-.412c.192-.52 1.21-1.885.007-1.116-.084.172-.408 2.392-.007 1.116zm-19.529.035c1.383-.856-1.057-.22 0 0zm7.912-.562c-1.504-.9.07-1.448-.532-2.515-.485.73-.872 2.578.532 2.515zm.274-.707c-.062-2.386-.97-.36 0 0zm1-1.134c-.251-1.245-.022 1.741 0 0zm-.802-.784c-.832-.813-.165-.921-.276-1.055-.034-.86-.262-3.097-.508-1.122-.345.808.069 2.106.784 2.177zm-9.655-.066c-.224-.695-.55.208 0 0zm10.338-1.783c-.486-.813-.385-2.89.199-2.479.16-2.26-2.001 1.922-.414 2.101.068.056.39.922.215.378zm.668-2.864c-.078.837.07.965 0 0zm1.213-.234c-.172-.834 1.507-3.733-.047-1.927-.251.434-1.009 2.034.047 1.927zm-.81-.28c.166-.949.683-2.261-.212-.73-.152.156.073 1.76.211.73zm-.731-.572c-.617-.215.355.759 0 0zm4.951-.122c.595-1.787-2.108-.5 0 0zm5.34-.326c.767-1.268-.971 1.23 0 0zm.781-1.002c-.608.05-.105.818 0 0zm-8.038-.24c1.04.206 1.93-2.631.54-1.023-.093.017-1.27 1.868-.54 1.023zm2.411-3.08c2.009-.456 3.57-3.003 2.96-4.798 1.2-.646 1.51-1.006.206-.588-.387-.922.274-3.176-.405-1.128-.296 1.545-1.755 1.191-1.593-.333-.43-1.17-2.593-1.109-1.86-.046-.986.853-2.55-.112-2.638-.306-.617.932-2.452.45-1.249 1-2.32.016 1.169 1.408-.108 2.499.22 2.167 2.387 4.412 4.687 3.7zm-2.517-1.367c-.733-.424 2.511-.463.715.074l-.362.008zm-1.093-1.13c-1.214-.517.109-4.26.013-1.546-.955 1.846 2.608.025.77 1.633l-.354.059zm4.171-1.028c-.327-.792.75.142 0 0zm-2.582-1.225c-1.253-1.133 2.406-.777.423-.221.576.1-.27.435-.423.221zm6.101-1.37c-.095-1.55-.818.384-.083.001zm.438-.398c-.082-.44-.102-.548 0 0zm-8.074-.81c-.535-2.256-1.121.371 0 0zm9.348-2.486c-.181.803.317.785 0 0zm-.21-2.266c.213-1.094-1.934-.595-.403-.272-.059-.074.46.88.402.272zm7.043 38.987c-.942-2.253-.253-4.85-.36-7.18 1.423-2.026 3.887-.63 5.088.644 1.741-.314 3.738.26 2.904 2.41.486 2.123-.109 5.25-2.946 4.19-1.562-.024-3.129.111-4.686-.064zm7.125-.428c-.148-1.758 1.434-5.527-1.192-5.746-1.376.336-2.578-.577-3.05-1.522-2.024-.61-3.92.907-2.996 3.028-.072 1.626-.638 5.006 1.979 4.477 1.723-.212 3.57.194 5.259-.237zm-2.662-.245c-1.155-.375-3.303.702-3.642-1.002 1.444 1.556 5.78 1.337 4.622-1.71-.994-.688-1.432 2.876-3.268 1.685-2.9-1.057-.176-3.907 1.897-2.556.94.547 3.23-1.657 1.817-.022-1.154.431 1.175 2.593.406 2.19-.254-1.1-.973-1.935-.714-.17.397.99 1.851 1.962.035 1.64-.385-.007-.769-.042-1.153-.055zm1.533-.423c-.082-1.46-1.312.935 0 0zm-2.929-.717c2.498-1.153-1.604-3.997-1.244-2.083.89.223 1.149.99.222.115-2.461.114 1.119 1.4.562 1.41-1.011-.37-1.868-.322-.613.548.334.148.74.183 1.073.01zm1.08-1.449c-.437-1.368-.054 1.553 0 0zm.539-.093c1.861-2.156-2.278.757 0 0zm-4.231-2.71c-.213-1.663 3.871-.206 1.418.183-.446-.262-.97.068-1.418-.183zm-.994-25.869c-1.665-1.682-.285-4.269-.756-6.344.118-1.913-.786-5.13 2.203-4.842 1.984-.088 4.895-.176 4.136 2.633-.281 2.56.22 5.168-.242 7.697-.856 1.908-3.702.449-5.341.856zm4.846-.42c.556-1.748.709-5.026-.053-6.06-1.38.644-3.353 2.88-4.623 1.385.944-.726.97-3.067 2.962-2.3 2.333 1.948 2.693-1.88 1.675-3.303-1.544-.194-3.013.63-4.466-.108-1.319 1.47 2.507.465 3.464.689 2.235.623-2.065.38-2.921.264-2.318-.039-.943 2.86-1.323 4.305.153 1.617-.39 3.737.358 5.03 1.595.536 3.293.093 4.927.097zm-2.929-.335c.116-1.218-3.414-.732-1.56-1.967 1.216.112 4.727-1.006 4.037 1.126-.93.182-1.93-.01-2.187.963l-.156-.015zm.905-.925c.165-.95-.602-.832-.65-.196-.753-1.742-1.028 1.228.65.196zm-2.54-1.5c.708-.224 4.366-.303 4.077-.013-1.357-.017-2.72.099-4.076.012zm1.587-2.005c.45-1.452-.423.757 0 0zm.043-.634c2.061-.263.486-2.584-.555-1.025-.26.387-.184 1.781.555 1.025zm1.128.133c1.308-.864-1.47.373 0 0z" style="fill:#d4cece;stroke-width:1"/><path d="M41.368 3.754c-2.454.338-.823 3.82-1.297 5.57.314 1.682-.783 4.175.658 5.422 1.82-.269 5.757 1.26 5.447-1.716.028-2.887.163-5.795-.032-8.666-.967-1.304-3.273-.186-4.756-.609h-.02zm3.492.23c2.076.228.762 3.25 1.164 4.747-.423 1.814.967 4.891-.895 5.801-1.927-.09-5.661 1.015-4.894-2.226.016-2.556-.025-5.116.046-7.664.81-1.263 3.273-.26 4.579-.658zm-1.684.267c-1.55.09.616.352.349.033zm2.437.57c-1.274.037-2.568-.07-3.829.068.245.103 2.824.389 3.83-.068zm-17.088.258c-3.7.096-7.259 2.822-8.181 6.408-.6 1.929 1.657 2.265 2.529 2.378.876 1.463.672 3.313 1.725 4.666 1.256 1.862 4.127 2.498 5.798.813 1.606-.911.92-3.285 2.194-4.17-.514 2.034 1.428 4.493.052 6.085-1.491 1.449-3.307 2.908-4.973 3.872-.726-.652-.458-4.13-.142-1.964.593 1.685 4.364-.689 1.907.275-2.16.581-1.875-1.59-.83-2.477-1.909-.151-2.937 1.973-4.825 2.253-1.48 1.387-2.489 3.814-1.659 5.792.892.47 1.607 3.47.198 2.282-1.901-1.064-.742-4.345-.566-4.902-1.243 1.596-.367 3.645-1.313 5.298-.912 1.344 2.818 2.505.177 2.16-.561-.348-1.615-.293-2.434-1.014-1.78.58-3.233-2.675-3.609-2.692-.223-1.172-2.734-1.84-4.445-1.43-1.216 1.258 2.256 2.175 1.36 3.695 1.493.795 1.372 2.65 2.105 4.036-.137 1.66 2.382 2.01 2.744 2.252-.011 1.217 1.22 2.011 1.506 2.786 1.388 1.131 3.473.905 5.022.147.023 1.732-1.344 3.362-.872 5.035-.748 1.653.386 2.654 1.81 2.235 1.61.05 2.765.148 4.403.166 2.553 0 5.107-.031 7.657-.16.156-2.223-.723-4.31-1.351-6.404 1.584-.512 3.718-1.554 3.71-3.78.923-4.046 1.107-8.26.815-12.383-.653-1.437-.48-3.594-2.307-4.153-1.126-.256-1.858.198-1.255-1.294-.283-1.927-3.063-1.267-2.548-3.615-.748-1.044.977-2.877 1.001-2.87.503 1.653 3.032-.18 1.317-.992.777 1.405-1.087-1.396-.011-.299-.405-.862.971 1.49.794.383 1.53.264-.694-.955.707-.373 1.29-.474.906-.95-.284-.616-1.028-.497 1.49-1.42-.277-2.415 1.727-.022.08 2.174.373 1.968 1.944-.933.25-3.3-1.47-2.234 1.405-.255 1.418-2.128.94-2.512 1.656.643-1.243 2.97.617 1.788 1.469-1.8-1.23-3.164-2.399-2.543 1.44-1.193 3.693.607 2.696 2.28 1.734-1.53-.833-4.08-2.59-2.878-1.308 1.896-2.095 0-3.579-.517-.71-.275-1.481-.355-2.237-.366Zm.218.463c-.134-.02-3.546.987-1.125.098.37-.082.747-.105 1.125-.098zm1.226.212c1.365.125-2.952.32-3.36 1.168.91-.815 2.155-1.178 3.36-1.168zm-4.1.175c-.971.64-1.39.408 0 0zm4.217.098c-.475 1.154-2.77.4 0 0zm.762.465c-.884.258-1.602.177-.348.037Zm4.991.291c1.106.736 1.147 1.031 0 0zm-5.104.068c-1.04.44-2.587 1.497-.66.434 1.932-.84-2.569 1.665-1.196.54-1.666.533 1.634-1.099 1.856-.974zm2.63.077c1.499-.114.686 2.404-.036.611-.296-.303-.558-.413.036-.61Zm-1.862.031c-.465.745-4.23 2.139-1.885.83.613-.285 1.252-.55 1.885-.83Zm-7.157.264c-.723.329-2.6 1.561-1.01.355.315-.166.653-.312 1.01-.355zm7.898.08c-1.368 1.04-1.183.8-1.467 1.197-1.515 1.004 2.699-1.625.739-.234-.513.54-3.236 1.22-1.591.548-2.284.606 1.675-1.18 2.319-1.51Zm10.903.039c-1.627-.794-1.526 3.638-1.196 1.01.057-.636.654-.895 1.196-1.01Zm.883.402c.262.523-2.424 1.954-.622 1.16.863-1.084 2.1-.969 1.57-.144 1.33-.669-.382-.96-.948-1.016Zm.693 1.13-.014.007zm-20.727-.886c-1.65.737-3.683 2.429-3.175 4.647.636 1.625-.954-1.475.119-2.037.558-1.266 1.686-2.273 3.056-2.61zm3.813.114c.459 1.155 2.103 2.703 3.282 1.532 1.231-1.131 1.308-.094-.001.373-1.343.703-3.113-.514-3.281-1.905zm8.005.18c.298.653-.033.94 0 0zm-3.953.066c.28.76-3.541 1.563-1.118.568.366-.2.698-.482 1.118-.568zm2.138.35c1.053 1.296.529 4.226-.224 4.848.663-1.528.835-3.276.224-4.849zm-6.807.064c.283.989 1.463 1.86 2.153 2.062-1.1-.015-2.106-.96-2.153-2.062zm-3.307.094c-.49.584-1.702.697 0 0zm3.891.019c1.023.732 1.345 1.722.206.385l-.144-.218-.062-.167Zm-4.866.014c-.968.148-2.003 3.875-1.441 1.49.116-.355-.251-.097.389-.838.5-.613-.576.952.266-.067.33-.113.422-.535.786-.585zm21.374.003c-.68.334-2.228 1.508-.753.564.102-.167.97-.422.753-.564zm-10.642.206c.884 1.026-2.222 3.462-.426 1.63.333-.478.407-1.077.426-1.63zm-6.946.08c.3 1.76 3.075 2.372 3.562 1.886-1.406 1.068-3.418-.372-3.562-1.885zm6.2.04c-.215.852-1.957 2.948-2.534 2.22.842-.297 1.732-1.368.511-.455.483-.639 1.438-1.11 2.024-1.765zm-6.813.027c.469 1.01.914 2.428.005.74.026-.246-.085-.5-.005-.74zm16.251.018c.327.423-.363 1.151-.746 1.122.594.29 1.315-.797.746-1.122zm-19.532.226c-.618.67-1.405 3.522-.776 1.003.187-.383.462-.718.776-1.003zm10.294.024c.573.864-1.344 1.989.046.442-.393.456-1.733 1.704-.56.333.263-.209.233-.614.514-.775zm-7.46.047c.162 1.26.897 2.545 2.338 2.498-1.41.345-2.457-1.247-2.339-2.498zm-.395.026c-.39 2.392 2.01 3.363 3.802 2.458.95 1.004 1.64.965 1.284 1.185-.09.193.938 1.68.926-.05.525-2.63 3.209.028 1.604 1.431-2.073.223-.394 2.597-2.03 3.877-1.241 1.735-4.097 2.208-5.502.4-1.52-1.269-1.314-3.465-2.226-5.104.171-.377 1.876-.025.33-.365-1.862-.442 1.044-5.472-.18-2.493-1.326 1.711 1.267 3.166 1.885 1.756-1.858.31-.193-4.022-.49-2.324-.626 1.996 2.623 2.892 3.231 2.483-1.756-.31-3.131-1.313-2.634-3.254zm-1.545.095c-.014.103-.029.006 0 0zm.363.126c-.664 1.249-.256 3.323.72 3.179-1.93.313-1.121-2.248-.72-3.179Zm-1.06.008c-.624 1.136.734-.607-.05.922-.375 1.52-.06-.92-.613.786-.245 1.724-.28-1.545.662-1.708zm13.762.113c.868.978.558 1.168 0 0zm-2.7.28c-.07.889-.616.947 0 0zm1.889.203c.566.786.158 1.502-.004.16l.004-.16zm-4.148.301c-.86.49-2.155 1.458-.422.457-.311-.152.59-.25.422-.457zm-.955.141c.042.322-.53.115 0 0zm-3.587.46c.794.263 2.033.782.441.39l-.366-.293-.075-.096zm4.608.06c-.08.894-2.498 1.42-1.134.837-1.608.17.916-.163 1.134-.838zm13.428.15c-1.913-.003-.805.082 0 0zm-23.808.059c-.556.892.838 2.08.883 1.97-1.037-.028-1.192-1.2-.883-1.97zm12.053.415c.425.557-.608.486 0 0zm7.915.03c-2.177.838 1.053 2.135 1.093.224 1.05-.421 1.329.903.995 1.087 1.222.707 2.91-1.3.965-1.272-1.014-.052-2.048.077-3.053-.039zm3.207.327c1.628 1.294-1.813.574 0 0zm-3.346.08c.8.498-1.046-.007.534.602-.396.617-1.371-.55-.534-.602zm-19.088.006c.918 1.155-.219 1.072 0 0zm10.234.128c-1.447-.01.357 1.874-.33.345.856.204 1.159.26.33-.345zm-5.5.306c-.765-.17-2.087.415-.481.288.23.034 1.101-.224.48-.288zm-4.853.062c.097-.011.17.274 0 0zm21.184.638c-.107.336-1.365.632.008.409.258-.038.233-.429-.008-.41zm-11.26.166c-.218.419 1.137.354 0 0zm-.247.277c-.138.733.394.49 0 0zm2.659.352c.508.473 1.459.339.11.3-.087-.072-.194-.177-.11-.3zm-7.751.041c-.834.352.702 1.126.462.27 1.141-.432-.002-.112-.462-.27zm-1.982.258c.426.822-.962 2.912.873 2.667 2.14-.823-1.99.386-.556-1.41.143-.412-.017-.95-.317-1.257zm-.952.154c-.04 1.45 1.313.144 0 0zm3.67 3.245c-.786.52-2.32.153-.673.446.242-.106.53-.206.673-.446zm6.16 1.521c2.968.358.87 3.44-.468 4.505-.705.617-2.188 3.13-.67 1.132.54-.732 2.04-2.687 2.324-2.498-1.027 1.076-1.69 2.177-2.594 3.326-.952 1.033-1.68-1.716-2.176-2.138 1.386-1.14 3.714-2.641 4.07-4.041-.112-.105-1.092-.21-.486-.286zm-5.379 1.644c-1.87.603-.486 3.168-2.523 3.072-1.296 1.546.395-1.724.932-2.254.395-.463.965-.82 1.591-.818zm7.378 1.022c1.178-.5 3.228 2.227 2.353 1.803.055-.706-3.516-1.933-2.353-1.803zm-.218.457c2.09.772 3.77 2.838 3.507 5.146.08 4.127-.055 8.369-1.392 12.307-1.017 2.166-3.765 1.678-5.716 1.644-1.318-.173-3.286-.31-1.888-1.78.765-.902-.894-4.12.834-2.115 1.276 1.38-1.406-1.722.632-1.12 1.236-.154 2.415 2.14 2.763 1.94-.61-.908-1.875-1.908.014-1.363 1.39.22 2.297 2.205 2.76 2.768-.113-1.714-1.812-3.04-3.48-3.023 1.354-1.118 3.694 1.452 3.663 1.227-.242-1.586-3.831-1.687-3.317-1.707.911-.328 3.334.297 1.173-.268-.97-.022-2.51.79-1.475-.671.544-.833 2.514-2.186.571-.976-1.346 1.009.48-2.608 1.37-3.085-1.715.532-1.925 3.442-2.284 3.95-.521-2.558.75-5.088 2.34-7.006-.957-.143-1.721 2.835-1.32.638.024-.837 1.639-2.852 1.345-2.807-.995.814-1.507 2.359-1.728 3.38-.43-2.342.28 1.54-.583 2.134-.839 1.531-.105 3.233-.38 4.783-1.205-.264-2.7.235-4.102-.134-2.31.881 1.465-.196 1.105 1.627.98 1.933-2.22 4.13-2.52 1.703 1.27-1.635.029-4.264-1.744-3.857-.968-1.308-2.921-1.413-2.206-3.435-.047-2.221.443-4.394 1.009-6.523-.686 1.254-.022-2.38.597-3.051-1.38 1-.725 4.247-1.31 4.644-.608-1.478.347-4.002.867-4.425-1.677.428-1.18 4.214-1.49 3.812-.277-.936-.052 1.621.272 1.908-.235 2.008-1.893-1.487-1.069-2.422.177-1.695 2.04-4.041 3.554-3.625-1.112.755-.99 3.471.363 1.53.17.443.197-.031.337.938-.11-1.202.205-.697.19.108-.042-2.486 1.565.67.433 1.772-.427 1.358-.844 4.355-.748 4.774.449-2.546.45-5.55 2.567-7.379 1.508-.842-.359 2.048.643.297.578-1.132-.324 1.068.467-.29-.425.947.2-.273.635.791 1.073 2.614 2.352-.376 3.32-1.402.412-.501.767-1.142 1.421-1.357zm-8.569 1.977.02.208zm10.99.609c-1.418.15-2.201 1.514-2.85 2.608.83-.973 1.525-2.25 2.85-2.608zm-11.16.215.012.36zm-1.806.824c-1.164 1.255-.444 1.185 0 0zm2.973.082c-.554.614.584.48 0 0zm-5.555 1.599c.128 1.209 1.382 1.867.214.445l-.14-.331zm13.018.663c-.377.924-.795.31 0 0zm-8.24.288c-.615.494.708.737 0 0zm-16.563.05c2.142-.412 3.857.648 4.977 2.428.676 1.163 2.764 2.661 2.68 3.564-1.15-1.08-2.36-2.77-3.565-4.133-.783-1.744-3.173-1.479-4.33-1.307-.25-.139-.087-.596.238-.552zm11.979.138.105.137zm6.804.033c-2.025-.106-.964 2.884-1.409 4.2.466 1.336 3.012 1.062 4.14.857.375-1.365 1.148-3.598.296-4.816-1.015 0-2.013-.233-3.027-.24zm-.433.182c1.894.026 4.73-.16 3.52 2.63.259 1.936-1.049 2.723-2.82 2.103-2.603.186-1.23-3.216-1.047-4.633l.347-.1zm-18.084.182c.085.01-.156.044 0 0zm18.08.007c-1.117.32.502 1.177 0 0zm-18.07.044c1.13.533-.376.75 0 0zm11.43.018c.818 1.03 1.311 1.126 0 0zm9.863.293c-.14.01.161.056 0 0zm.045.027c.178.082-.728.125-.028.58.239.03.312-.552.028-.58zm-.161.07c.026.674-.173.085 0 0zm-19.646.113c.849.266-.61.47 0 0zm9.052.363c.706.471 2.616 2.488 1.304 2.921-1.747-1.6 1.384 1.482-.34.295-1.523-.537-2.177-1.942-.964-3.216zm-8.79 1.18c1.374.192-.678.59-.283 1.076-.826-.052-.629-1.254.283-1.076zm.404.71c.916.438-.108.612 0 0zm-.138.506c1.007.46-.517.252 0 0zm1.282.114c1.762.593-1.674.929-.018 1.582.777-.44 3.269.492 1.232.591-1.425.73-3.325-1.203-1.598-2.1l.384-.073zm3.424.127c1.674-.706 2.127 2.89.805 1.15-.088-.297-1.652-1.194-.805-1.15zm2.48.812c.75.383 1.838 2.06.099 1.292-1.248.2-.72-.996-.1-1.292zm2.16.018c1.648.295.441.656 0 0zm11.143.078c-.186.836.215.93 0 0zm-12.537.018c1.961.446 4.692 1.063 5.02 3.447.117 1.08-.347 1.845-1.125 1.244-1.024.798-3.424.103-3.355-.764-.83.049-2.014-1.134-.51-.63 2.49.006-4.076-.52-1.655-1.133.932.383 3.322.296 1.016-.078-.866.208-3.016-.762-1.112-.8 1.185.034 3.498.729 3.923.202-.644-.587-1.646-.927-2.202-1.488zm-.755.065c.52 1.096 1.36 1.306.143.119zm-3.35.333c.484.551-.855.265 0 0zm-2.831 1.12c.802.132 3.634.589 1.36.63-2.044.508 2.305-.244 3.044.445 1.674.108 1.893 1.924.666 2.9-1.629 1.35-3.098-.864-1.618-2.078-.072-1.124-.605-1.336-.239.007-.314 1.327-2.483.753-.697-.084.818-1.326-1.626 1.783-2.183-.22.444-.157-.876-1.555-.333-1.6zm12.433.8c1.796.357 1.643 3.626-.145 3.873-1.47-.573.66-2.426-.259-3.617.026-.186.241-.267.404-.255zm-7.775.805c-.254.867-1.328 2.883-.115 1.191.074-.383.246-.803.115-1.19zm1.952.738c.824 1.341 3.606.941 2.646 2.936-1.106 1.687-4.352 1.539-5.482-.118-.31-.99 2.042.778.415-.248.603-.098 1.879-1.5 2.166-2.558l.256-.012zm.554.184.042.106zm7.192.096c-.317.27 1.382.208 0 0zm7.84.485.052.054zm6.34.08c-2.136-.105-1.266 2.428-1.424 3.705.326 1.334-.896 4.218 1.028 4.322 2.141-.04 4.298.084 6.424-.07 1.019-1.038.261-2.848.47-4.174.705-1.9-.805-2.763-2.48-2.24-1.724.382-1.277-2.363-3.252-1.502-.255-.017-.51-.039-.766-.04zm-.07.277c1.373-.113 2.569-.114 2.936 1.348 1.416.314 4.281-.486 3.452 2.044-.324 1.31.949 4.851-1.578 4.151-1.85-.378-4.74.764-5.92-.64.129-2.185-.565-4.812.397-6.74.216-.124.47-.158.714-.163zm-17.475.111c.83 1.856 3.31 1.834 5.03 2.558 1.043.651 4.712-.091 2.59 1.812-1.4 1.448-2.948 1.71-4.977 2.044-1.15.133 2 .032 2.427-.248 2.006-.047 2.936-2.566 4.258-2.973.807 1.645-.001 3.522-1.881 3.822-.952.295-3.395.843-.954.484 1.54-.02 3.66-1.631 3.523-2.363.37 1.422.957 3.043.813 4.433-.302-1.337-.19-3.573-1.958-2.132-2.919.806-6.016.713-9.005.433-.974.261-3.898-1.713-1.67-.926 3.322.934 7.162.328 9.834-1.928-2.805 1.997-6.634 2.727-9.916 1.614-1.419-.982.733-3.33.445-4.945.006-.993.15-1.79 1.441-1.685zm18.87.912c-.955-.462-2.924.634-1.164.663.48.27 2.399-.186 1.164-.663zm-1.472.168c.676.39-.6.397 0 0zm-19.278.34c-1.378.665-1.204 1.299 0 0zm24.408 1.131c-.825.858.434.452 0 0zm.087.425.002.116zm-4.81.54c-.655 1.17-.3 1.237 0 0zm2.515.214c-.355 1.009.314.748 0 0zm.114 1.627c-1.534.736-1.212.938 0 0zm1.636.544c-.812.014 1.105.7.658.309-.118-.232-.421-.31-.658-.31zm.494.724c-.026 0 .003.032 0 0zm-.008.013c-.582.206-1.502-.074-.375.34.125-.077.398-.136.375-.34zm-.806-.17.033-.24zm-24.024.865c-.147 1.221-.596 1.052 0 0zm11.468.356c.424.864.707 2.377.077.643l-.044-.224-.033-.419zm-.813.087c.418.79.972 2.436.134.806-.057-.265-.145-.531-.134-.806zm-7.979.302c.315 1.27-.366 2.039 0 0zm.955.25c-.054.825-.477.532 0 0zm-.302.095c.343.786-.822.912 0 0zm-.476 1.352-.111.017z" style="fill:#2a2933;stroke-width:1"/></svg>