<svg xmlns="http://www.w3.org/2000/svg" width="200" height="200.13" viewBox="0 0 52.917 52.951"><path d="M27.953 3.695c-2.125.627-7.001.518-5.798 3.823.529 1.587-1.805-1.03-.629.978 1.903.386 1.468 2.331 1.373 3.438 1.078-1.353-.783-4.805 2.08-3.91 1.829.206 3.166-1.693 4.532-1.817-.393 1.32-.833 4.042 1.361 4.034 1.519-1.524 1.61 1.714 1.629 1.284.964-1.99 1.676-5.768-.931-6.702-1.139-.55-2.334-1.074-3.617-1.128Zm1.596 3.143-.007.016zm-6.24 1.42-.01.034zm1.997 1.3-.03.036zm-1.956.117.016.051zm8.054.306-.035.012zm-6.499.015-.04.052zm-1.27.67c.04.223.212-.004 0 0zm8.743.24.017.038zm-3.308 1.027.026.046zm-6.13.486.21.284zm7.656.106-.023.032zm1.363.003c-.835.282-.392 1.193 0 0zm-8.793.255c-.381.384.136.198 0 0zm8.223.717-.035.053zm-.05.051-.03.023zm-7.204.018.013.055zm-.832 1.11c-.47.335.431.232 0 0zm8.385.006c-.732 1.057-2.12 3.472-2.31 3.56 1.9-.782-.762 2.424-1.167 3.28-.661 1.328-2.137 2.313-2.17.128-.043-1.225-.315-4.336 1.38-2.483 1.826.201.852-.158-.209-.5.553-.49 1.684-.104.233-.572.36-1.527-2.907.255-3.37-1.549-.176 2.183-2.373 3.496-2.475 5.932-.524 2.19-.708 4.446-1.262 6.63-2.04-.922-2.475-3.059-4.282-4.64-1.345-2.048-4.961-1.128-3.417 1.54.027 2.7 4.346-.445 3.873 1.741-.76.193-3.368.433-2.098.667 1.103-.675 4.41.3 2.095-1.559-1.075-.541-5.407-1.163-3.048-2.587 2.68-.484 4.706 3.848 5.116 4.998-.962-1.714-.616.431-2.233-.125-.824-.29-2.425.326-1.464.145 1.037-.225 5.27.027 2.3.846-1.39.038-2.385-.227-1.058 1.228.997 2.33 3.635 3.194 5.639 3.012 1.04 2.456-.101 5.253.444 7.837.145 1.187-.56 3.308.868 2.248-.644.77.678 3.25-.744 1.249.941 2.513-2.013 3.732-1.703 6.13.8 2.552 4.351.162 6.314 1.208 2.04.85 3.145-1.544 2.549-2.145.73 3.23 4.47 1.694 6.78 1.907 3.81 1.248 2.59-4.419-.123-4.774-1.819-.427-4.222.43-4.998-1.763-.626-1.479-.43-2.713.59-1.844.364 1.489 1.908 3.378 3.984 2.571 1.77.028 1.418-3.111 2.212-.607 1.932 1.594 3.725 3.262 4.065 5.814 1.831 1.642 6.38 1.392 6.13-1.878.044-2.153-.869-4.335-.124-6.456.008-1.729-1.728-4.99-3.505-2.824-1.606.597-.126-1.462-1.573-.247-1.608.854-1.43 4.818-3.287 2.352-2.053-.628-5.77-2.636-3.989-5.132 1.35-.656 2.683-1.91 3.501-2.702 1.283.107 1.28 3.477 1.338 1.041-.991-1.261-.014-3.754 1.188-1.563 1.73-1.023 2.452 2.786 3.673.953 2.134.111-1.166 4.739 1.05 3.162 1.354-.325 2.28-4.685 2.165-2.038-1.289 1.818.659 3.267 1.775 1.276-.105-1.485 1.691-3.478-.67-4.354-2.486-.827-4.24-3.72-7.253-2.682-3.26 2.131-2.196-2.879-2.725-4.798-.67-2.857-.473-6.698-3.263-8.42-1.669-.931-3.286-1.97-4.742-3.213Zm8.753 22.81c.118.98.332.98 0 0zm.198.749c-.122 1.617 2.524 1.857 2.552 1.266-1.02.16-2.052-.375-2.552-1.266zM18.889 27.96c.167.795.657-.14 0 0zm9.428-9.586c.945-.014.878-.143 0 0zm2.304-3.667-.05.073zm-7.113.65.08.178zm.195.459.08.181zm.06.112.013.037zm.18.402.02.043zm.068.13.017.049zm1.364.958.071.008zm.253.06.009.006zm.014.007.035.007zm-11.79 7.07c-1.409.666.632.7 0 0zm.338.235c-.656 1.326 1.074.442 0 0zm-.495.321c-.099.178.417.452 0 0zm2.838 1.914.025.02zm-1.712 2.436.004.03zm1.388.288-.01.002zm.296.203-.065.001zm1.945.007c1.316 1.277-2.564 1.77-1.484.376.522-.03.956-.4 1.484-.376zm-10.28.24c-3.39-.538-6.323 3.63-4.499 6.583 1.128 2.673 5.056 2.111 5.482-.635 1.35.112 2.22-1.307 3.513-1.943 1.06-2.421-2.668-3.916-4.496-4.005zm9.661 1.083-.05.008zm23.141 2.662.012.028zm-.737.414-.012.035zm-.007.05-.014.079zm1.443.392c-.002.116.032.016 0 0zm-7.345.148c2.193.581 2.53 2.474.258 3.115-2.026.445-2.075 3.442-4.694 2.633-2.468-.031.41-2.338-1.513-2.903.62-1.493 3.814.161 4.695-1.787.369-.404.74-.833 1.254-1.058zm.181.11.027.025zm-.584.136-.028.019zm9.513.516-.022.04zm-32.119.084-.04.046zm32.744.112.005.04zm-34.162.224.001.048zm-.903.249-.027.029Zm23.644.074-.018.023zm-20.89.187c-.067.156-.06.225 0 0zm21.835.03-.011.02zm10.05.318v.003zm-14.253.318.045.03zm-17.751.013c-.178 1.271-2.325 2.674-.242 1.273.334-.323.45-.848.242-1.273zm17.286.336-.024.027zm-.53.06.003.054zm17.57.062-.012.036zm-11.184.171-.037.018zm-23.447.136-.007.034zm34.365.044-.016.03zm-16.953.038.023.018zm16.905.084-.008.059zm-12.118.03-.03.004zm-22.386.12-.008.027zm-.019.024c-.266.093.028.1 0 0zm-.02.053-.013.03zm29.876.145.063.107zm.106.138.012.047zm-7.42.045c-.097.628-1.088.22 0 0zm-23.094.209-.022.022zm31.047.17.031.007zm.137.042.035.047zm-25.29.05c-2.314-.195-3.238 2.103-4.367 3.542-.886 2.398 1.909 3.649 3.877 3.529 1.185.146 1.04-1.836 1.74-.867-1.295-1.196.542-1.966 1.202-1.68 1.825-2.362.191-4.33-2.452-4.524zm25.394.02.031.027zm.204.088.102.04zm-13.273.009-.007.031zm.014.037-.02.027zm13.63.059.044.013zm-33.15.02c-1.276-.034-1.217 1.57-2.829.764-2.736-.104-3.438 3.32-4.067 5.396-.073 1.12-.14 2.166.343.518 2.06.308 1.134 2.16.7 2.666.077 1.927.251 5.178 3.066 4.13 2.477.783 4.482-1.235 4.462-3.557-1.582.732-2.483-1.477-1.396-2.208-1.116-.606 2.352-1.116.821-.14 1.057-.406 1.219 1.544 1.06-.402.111-2.543-1.543-4.995-2.619-6.848-.11-.118.988-.216.46-.32Zm-.023.005-.02.005zm36.52.06c.049.266.04.213 0 0zm-14.051.072-.005.025zm-2.88.489v.009zM7.69 40.4l-.041.011zm19.234.426c1.547-.019-.896.244 0 0zm-12.787 2.215c.72.501.129 1.003 0 0zm14.501 1.072c.726 1.537-2.224 4.156-2.858 2.757 2.24.204 1.942-2.103 2.858-2.757zm-10.759.266.029.007zm28.762.357c2.981.729-2.034.629 0 0zm-26.904.06c-.355 2.128-2.84 1.994-3.824 3.133-2.496-.61-5.148 2.473-3.959 4.76 2.461.099 5.792.907 7.921-.347 1.233-2.466-4.567-4.689-.818-6.12.384-.371.7-.872.68-1.425zm2.508.34.003.057zm15.561.156c1.081.234.346.954 0 0zm-15.549.047.005.085zm8.733.085.013.047zm15.451.042c1.785-.409.445 1.93.91 1.6.205.32-.112 1.12-.228 1.55-.273.663-1.103.855-1.646.756-.543.079-1.267-.081-1.663-.166-.668-.11-1.106-.418-1.754-.584-.42-.2-1.078-.376-1.387-.845-.58.165-1.234-.025-1.697-.388-1.177-1.178 1.076-1.79 1.702-.266-.22.302.346.015.451.156.98.189 1.92.57 2.99.503.516.066.84-.086 1.402-.151.315-.1.286-.428.316-.633-.014-.424-.523-1.725.604-1.532zm-.626 1.893c.003 0 .004-.01 0 0zM2.877 45.647c2.622.3-.844.947 0 0zm38.962.187c.746.305.478.93 0 0zm-19.204.018.033.07zm-.11.187.004.009zm24.402.028c-.004.06.033.023 0 0zm-7.214.223.053.014zm6.256.071c-.067.002.05.035 0 0zm-7.311.06-.044.015zm-22.14.017-.033.008zm22.085.024c-.135.022.07.087 0 0zm8.377.265c-.021.002.005.045 0 0zm-1.012.276c.302.034.58.018 0 0zm.428.024c.23.064 1.033.05.313.032l-.294-.031zm-.432.04c-.027-.004-.002.04 0 0zm-.165.078c-.001.012.006.001 0 0zm-42.339.071-.018.005zm-.62.027v.058zm25.88.03c1.721 1.519-1.25 1.386 0 0zm-12.977.207-.202.033zm23.435.008-.02.002zm1.99.061c-.028.004.007.017 0 0zm-.055.09c.033.055.054-.04 0 0zm-7.516.005-.113.003zm8.764.09c-.013.002.011.004 0 0zm-2.729.024c.003.006.003-.001 0 0zm2.406.01c.003.006.003 0 0 0zm.002.002c0 .011.014.006 0 0zm0 0c0 .01.029.009 0 0zm3.47.016c-.024.005 0 .006 0 0zm-1.5.048c0 .007.025.003 0 0zm-1.768.052c.002.007.022 0 0 0zm2.271.009c.017.02.005.002 0 0zm-2.728.014c.01.003.002 0 0 0zm4.057.028c-.004.01.003.002 0 0zm-.517 0c-.009 0-.001.003 0 0zm-30.837.003-.024.014zm28.524.01c-.02.024.017.013 0 0zm-.001.014c-.013.011-.003.06 0 0zm-.003.003c.002-.015-.008.012 0 0zm-28.045.006-.013.005zm28.575.003c.001.001.007-.002 0 0zm1.968.079c-.04.104.015.115 0 0zm-17.591.071c.798.298.797.58 0 0zm14.525.003c-.004.005.018-.002 0 0zm2.741.001c-.002.008.003 0 0 0zm.31.06c-.026.142-.003.096 0 0zm-36.424.085v.011zm36.412.014c-.002 0 0 .007 0 0zm-3.394.092c-.012.001.007.003 0 0zm-.35.081c.017.01.017.008 0 0zm.273.132c.002.006.02 0 0 0zm.361.018c0 .006.018.004 0 0zm.45.122c-.001.002.003.001 0 0zm-26.044.03c-.386.888-.458.137 0 0zm28.23.128c-.001.02.01 0 0 0zm-.076.01c-.003.002.002.01 0 0zm-1.867.064c0 .001.004 0 0 0zm.002 0c.012.01.05 0 0 0zm-33.05.032-.063.005zm33.187.028c.004.005.021.012 0 0zm3.356.039c-.005.002-.008.018 0 0zm-.738.003c-.007.006.007.006 0 0zm-.544.267c0 .017.047.045 0 0zm-.505.02c.004.004.016.005 0 0zm1.269.01c-.025.002-.004.003 0 0zM28.65 51.427c.006.644-1.256.095 0 0z" style="fill:#9dd5df;stroke-width:1"/><path d="M28.032 3.842c-2.176-.075-4.122 1.123-5.816 1.883-.657.529.557 3.202-.898 2.284.554 1.134 2.557 1.433 1.614 3.015 2.403.332-1.31-2.39 1.278-2.916 1.938-.08 3.558-.489 4.859-1.814 1.3-.061-1.448 1.31.17 1.884.792.52.489 3.803 1.897 1.923 1.791-1.346.839 3.632 1.718.611 1.185-2.631.022-6.178-3.097-6.616a7.789 7.789 0 0 0-1.725-.254Zm-1.428.89c-1.194.527-1.467.072 0 0zM24 5.125c.883.252.692.902 0 0zm-1.132.52c.914.435.579 1.111 0 0zm-.162 1.015c1.723.734.859 1.09 0 0zm6.292.254-.048.03zm-.402.905-.045.091zm-3.398.3-.034.01zm-1.139.27-.06.188zm-.099.265-.022.016zm.024.038-.034.042zm.012.132-.011.039zm-.02.069-.014.038zm-.598.055c-.078.201-.061.16 0 0zm.443.16-.01.033zm-.493.012c.118.218.068.125 0 0zm-.007.157-.011.01zm-.004.024.014.05zm6.188.212-.047.006zm-5.41.697-.024.002zm-1.08 1.155-.02.047zm-.001.61c-.176.692.427.753 0 0zm.032.063.008.038zm9.173.042c-.606.717-.681.97 0 0zm-9.068.337.012.08zm.003.061.005.01zm.005.013.012.057zm.014.058.016.074zm.072.162-.032.03zm-.077.073c-.23.083.028.288 0 0zm.045 1.502c.012 2.296 1.654.615 0 0zm8.854.49c2.518 1.671-.485 5.968-.642 6.132 2.046-.323 2.055-6.03 4.345-2.733 1.841 1.792 3.525 3.88 3.197 6.613.4 2.654 1.519 5.498.287 8.098-.575.98.874 4.832 1.078 3.55-.473-1.452.266-3.409 1.68-1.783 1.627-.185 2.189 3.081 3.103 1.138 1.773.512.985 4.953-1.126 5.27-2.078-1.702-2.06 4.13-4.22 2.315-1.927-.81-6.243-2.789-3.923-5.278.787-.666 3.522-2.35 1.614-3.054-.144 2.635-2.757-.663-4.085-.793-.478-1.654 4.094.312 1.487-1.043-.877-1.5 3.728-2.041.83-2.18.229-.944 2.724-.787.709-.782-3.43-.662-1.947-5.121-2.832-7.27-.542 3.27 1.563 6.731-.15 9.85-.322 1.365-5.067 1.666-2.074 1.49 2.108.45-.045 1.324.08 1.502 1.333 1.572-4.407.978-1.761 1.418 2.136.38 3.492-1.601 5.032-2.105 2.245.577 1.608 3.126-.591 3.06-1.015.809-.138.739-1.415 1.32-1.237 2.174-5.247 1.256-3.538-1.238-.695-.302-.362 2.298-1.79 1.062-.993-.264-1.436-3.115-1.436-.935.008 2.815-2.6.582-3.775.562-.095 2.206.042 4.607.72 6.566.42 1.825-2.386 3.69-2.023 6.125.956 2.503 4.468 1.088 6.488.79 1.333 1.549 2.677-.694 2.285-1.264 1.314 3.253 1.33-4.132 3.186-.866.525 1.701-2.32.375-.723 2.268 1.627.768 1.515-3.54 3.76-1.862.048 1.999 3.484 2.762 2.862.14-.646-3.015-3.878-2.88-6.243-3.357-2.054-.14-2.338-5.507-.289-2.401.168 2.339 3.642 2.526 4.892.974.479-1.857 1.061 1.44 2.505.073.972 1.142 2.545 1.389 4.272 1.606 2.982 1.25.843-4.074 3.756-2.788-.176.891-1.016.07-.09 1.07.603 2.591-1.684 4.305-4.074 3.06-1.072-.403-4.217-1.683-4.057-1.441 2.394 1.01 1.628 4.534 3.966 5.255 1.904-.145 5.37.269 4.501-2.552.06-3.197.801-6.669-1.19-9.474-1.465-2.03 1.08-3.748 1.94-4.892-.48 1.258-.497 4.423 1.407 2.408 2.24-2.536-.285-5.427-2.859-6-1.82-1.852-4.456-1.649-6.5-.87-1.595-2.108-.337-5.24-1.21-7.72-.115-2.998-2.163-5.363-4.55-6.949-.94-.693-1.908-1.35-2.816-2.084zm-6.026 22.598c.172-1.287-.087-1.26 0 0zm.052-.961c.393-2.57.312-5.238.214-7.846-.446 2.594-.121 5.233-.214 7.846zm6.985 2.693c.636-.373-.057-.238 0 0zm-1.889-3.435c-.864-.402-2.285.059 0 0zm-2.253-20.893-.063.067zm-3.36.243-.03.01zm5.905.022c.054 2.293-3.102 3.614-4.2 2.514-1.73.53-3.622-2.15-3.7.692-1.076 2.372-3.125 4.669-2.4 7.466.167 1.685-1.504 4.454-2.65 1.802-1.069-1.78-4.436-5.997-6.098-2.93-.393 2.703 2.503 4.662 4.807 3.292-.695-.096-4.101.635-3.057-.725.713-.158 3.517-.127 1.355-.533-1.616.36-3.996-2.651-1.156-2.158 2.64 1.068 5.01 3.87 4.55 6.83-.017-1.432-.47-3.423-2.322-2.256-1.397-.072-2.418.328-.382.113 1.256-.482 3.046.93.853.879-3.41-.42.309 3.388 1.726 3.793 1.561.901 4.263-.184 3.371 2.519.778 1.04 2.073-1.904.77-2.71-.277-1.888.447-3.924.19-5.942-.005-2.081-.064-4.163-.02-6.244-.57 2.444-.172 5.047-.947 7.44-.727 1.631-1.755 1.058-1.175-.555.516-3.172.63-6.586 2.462-9.35-.868 1.336 2.137 4.026.987 1.55-2.48-1.89 2.231-3.945 1.498-.53-.463-2.3 2.191-.598 2.34-.878-3.003-.5 3.853-2.246 1.445-.25-.477 1.484-3.276 6.16-3.694 2.454-.297-.366.467 3.352-.702 1.87.337 1.105.954 3.892 1.732 1.661 1.095-.621 3.764-4.037 1.536-1.71-2.942 2.367.502-4.255 1.16-1.685-.217-2.335 2.074-4.068 1.72-6.419zm-1.721 6.42c-.26.64-.107.602 0 0zM25.943 20c.006 1.362.12 1.405 0 0zm4.164-4.715c-.174.19-.12.131 0 0zm-.14.148-.035.039zm-6.04.52c-.038.638.218.138 0 0zm.157.231.03.006zm.915.935.033.017zm10.62 2.636c-1.04.347-1.061 3.014-.426.872l.206-.44zM24.74 22.222l.239.413zm-2.295.654c-.367 1.738.85 1.59 0 0zm-8.582 1.694c-1.36.542.554.76 0 0zm.314.218c-.825 1.066 1.236.63 0 0zm-.458.387.082.129zm16.868.627c-1.82.454-.932.18.354.087 1.034.34 1.699 4.336 1.513 1.411-.233-.818-.996-1.491-1.867-1.498zm-4.239.501c-.035.516-.044.644 0 0zm-.031.466c-.09.532.017 1.562.016.431zm2.138.08c-2.155 1.525.934 4.545 2.605 3.264-1.81.578-3.737-1.597-2.605-3.265zm1.993.039c-1.999.356 2.223.176.51.018zm-.362.48c-1.284 1.43 1.57.148.49.439-.27 1.042-.979-.285-.49-.44zm-3.409 1.174c-.512.812.994.272 0 0zm3.417.112c-1.468.387 1.78.426 0 0zm-13.268.166.045.002zm15.449.385c-1.133.812-.32 1.087 0 0zm-13.817.73c1.147 2.203-3.598.604-.65.164.209-.087.43-.119.65-.164zm1.547.098c3.465.693.617 5.953-1.885 3.332-2.459-1.823 1.896.3 1.423-2.116.09-.422.16-.88.462-1.216zm-12.574.164c-3.181-.026-5.745 4.332-3.387 6.822 1.765 2.921 4.965.627 6.009-1.48.364-.438 1.623-2.656 1.31-.886 3.619-1.053-1.088-5.318-3.467-4.436zm14.55.22c1.15.034.618 1.043 0 0zm15.674.846c-.988.05 1.585-.022 0 0zm-11.016.707c-.732.838 1.116.467 0 0zm9.904.178c1.431 1.182 2.116.116 0 0zm3.699 1.872c-.125 1.052-.436 1.613 0 0zm-3.956.067c.168.439 1.199.852.38.233zm-6.474.462c-.563.36-.416.505 0 0zm-6.425.186c.442 1.31-1.565.174 0 0zm18.848.098.066.015zm-30.168.051.03.052zm17.405.029c-.362.411.477.753 0 0zm10.789.112-.004.048zm.268.211c-.01.254-.006.17 0 0zm-5.572.03.02.025zm-23.508.044-.012.117zm29.568.25.017.002zm-14.501.193c-.773.86 1.173.338 0 0zm17.348.241-.025.015zm-3.382.44.025.058zm-8.46.58-.032.006zm-9.887.15c-.351 1.018.345 1.3 0 0zm18.323.22.01.029zm-11.905.067c.007.232.005.16 0 0zm-17.528.049.002.002zm33.82.023c-.108.142.14.015 0 0zm-9.61.127-.03.013zm9.536.07-.183.265zm-34.855.016-.014.064zm-.155.014-.015.037zm31.524.045.007.029zm3.235.245.002.027zm-11.292.144.026.003zm.275.055-.033.01zm11.963.35.059.014zm-38.868.114.015.007zm37.436.049c-.146.177-.102.123 0 0zm-2.322.044.07.04zm2.192.104-.098.095zM7.2 38.951l-.022.025zm36.614.052-.038.008zm-1.732.033-.014.004zm-.429.164c.732 1.112 3.29-.181.819.255-.282-.05-.56-.13-.819-.255zm-25.846.151c-2.04.517-4.521 3.454-3.466 5.406 1.375 2.247 5.471 1.968 5.214-.82 2.473.23 2.997-4.08.358-4.292-.668-.266-1.398-.267-2.106-.294zm-5.925.133-.051.007zm-.126.06-.03.015zm-.039.017c-.551-.094-.094.211 0 0zm-.225.063c-2.625.715-5.872.602-6.529 4.007-.18.958-1.316 3.952.124 2.661 1.939.676.218 1.997.324 2.95-.122 2.115 1.122 4.787 3.66 3.838 2.462.894 5.621-3.518 2.408-4.007-.584-1.228.462-2.037.089-2.35.784-.36 2.305-.46.735.246 2.237-.927.358-5.19-1.5-6.253-.258-.477.228-1.013.689-1.092zm.811 7.345-.348.072zm16.62-7.327c2.46 1.286-2.023-.002 0 0zm-17.798.033-.044.002zm21.278.121-.036.023zm-14.97.115c-.417.562-.855.349 0 0zm10.664.14c.583.712 1.227 1.147-.175.66-.123-.22-.05-.532.175-.66zm4.535.112-.01.066zm-17.104.823c.206.86-.448.436 0 0zm12.21.236c.769.056-.935.315 0 0zm6.435.294c-.496.609-1.08.62 0 0zm-4.23.966c.618.741-.157 1.378 0 0zm-8.314.153-.01.03zm-5.479.456c.857.536-.01.682 0 0zm24.648.145c1.812-.38 2.896 3.485.452 2.057-1.038-.45-3.048-2.213-.452-2.057zm-18.65.246c-.06-.013.031.105 0 0zm8.487.74c1.068 1.953-2.923 3.673-2.676 2.752 1.687.11 1.776-1.835 2.676-2.753zm-14.598.3c.439.714.109 1.292 0 0zm17.834.16.005.089zm8.47.012c.199.65.488.129 0 0zm-20.631.212.012.036zm-.052.19-.02.014zm-.096.038-.007.034zm-.03.066-.013.026zm18.258.017c1.551.33-.271 1.086 0 0zm-9.504.15-.013.008zm.225.166-.04.014zm-25.536.113c2.69.218-.254 1.432 0 0zm38.882.286c.677.06.396.827 0 0zm5.072.127.012.047zm-7.789.198.016.002zm-.12.033-.027.016zm6.946.068c-.066.001.061.044 0 0zm-27.608.274c-1.464.385-2.837 1.71-4.251 1.559.233 1.505-1.14-.334-1.656 1.136-1.967 2.005.117 4.588 2.545 3.625 2.239.677 6.511-.161 4.28-3.216-.54-.85-2.312-2.17-.918-3.104zm28.623.082-.01.037zm-6.647.135-.066.03zm-23.538.189-.034.005zm-5.95.007-.075.068zm28.114.01c-.537.48.463.152 0 0zm-36.1.047.016.05zm25.858.15c1.727 1.36-1.246 1.545 0 0zm-4.082.162c2.43-.066-1.088 1.622-.316.276zm14.415.001c0 .005.013.01 0 0zm.002.005c.012.005.012.013 0 0zm.148.053-.03.008zm8.18.02-.003.008zm-8.08.06.03.005zm-6.162.055-.018.007zm7.574.009.014.019zm-38.14.041c.118.173.1.145 0 0zm20.995.012c.404.645-.735.606 0 0zm19.588.072-.016.042zm-16.124.083c-.367 1.764-2.159.575 0 0zm13.786.11.048.018zm6.04.07-.026.058zm-18.915.077c.743.188.722.826 0 0zm-5.22.108c1.023.425-.22 1.342 0 0zm10.869.009c1.7 1.373-2.873.922-.47.081zm8.698.02-.017.004zm-39.057.007.015.028zm43.728.066-.006.035zm-11.153.046c.14 1.212-1.353.246 0 0zm-13.519.17c.862.425-.135 1 0 0zm-5.164.001c-1.18.875-1.445.277 0 0zm25.82.137.029.006zm-6.61.045c-.1.789-.531.384 0 0zm6.99.003.006.078zm.001.08.005.008zm.376.035-.019.004zm3.095.078-.033.037zm-37.294.18.024.03zm17.221.04c1.75 1.84-1.341 1.468 0 0zm-2.519.009c.94.254-1.034.032 0 0zm20.147.03.122.02zm-7.33.1c2.353-.419 1.188 5.054.287 1.834-.173-.544-.946-1.33-.286-1.834zm-21.83.017c-.905.3-.794.065 0 0zm-4.32.074-.034.036zm-.16.018c.003.106.219-.048 0 0zm23.61.007c-.804.822-1.84 1.95-.752.24l.233-.124zm-23.918.06-.011.032zm23.39.472c.106.843-.842.815 0 0zm-2.673 1.293c.1.917.546.382 0 0zm-2.714.25c1.08.467-1.022.2 0 0zm2.41.549c.136.806.42.741 0 0z" style="fill:#e3b1a3;stroke-width:1"/><path d="M105.38 13.85a11.831 11.831 0 0 0-5.884 1.404c-.962 1.622-8.575 3.956-4.578 3.441 2.35.564 6.244-1.643 7.295-1.566-3.206 1.88-9.086 3.932-11.328-.203 1.706-4.035-2.783.484-2.307 2.58 1.261 2.998.08 3.718-1.947.965-1.233.162 3.06 4.195 5.166 3.994-2.572.107-6.424-.891-6.12-4.123 2.465-2.286-3.615 1.563-2.698 3.754.187 2.162-1.303 4.827 2.1 5.925 4.824-.023-3.61 2.485-.43 2.532 5.245-1.589-1.29 1.95-2.79-1.242-1.266-2.383-.06-6.303-1.613-1.85-.866 4.123 4.421 5.927 7.178 3.719-1.135 2.559 1.737 6.318-.233 7.966-2.376 2.04-1.899 2.795-.76 5.594.724 2.521 3.65 3.571 2.325 6.645-2.522.006-1.761 4.806.574 4.699-.586 2.748 1.789 5.823 4.16 7.133-2.575 2.106-5.996 4.208-7.568 7.553-4.804 10.378-5.69 22.03-7.988 33.126-.807 2.458-.022 8.373-3.715 4.987.589-2.913-.764-7.114-4.393-6.385-2.576-1.814-4.182-5.681-6.39-8.273-2.22-2.825-3.609-8.356-8.21-7.043-3.51.712-8.817-1.549-10.486 2.761 1.357 3.67 4.664 6.382 6.922 9.557-1.136 1.525-.563 4.829 2.113 5.125-1.643 2.656 1.93 3.433 1.954 5.553.688 2.454 4.205 1.984 5.654 4.187 2.911.555-.181 4.79 2.23 6.725 4.928 6.023 14.718 8.864 21.567 4.293-.866 4.024-1.138 8.193-1.66 12.283.4 2.869-2.24 7.465 1.468 8.672-1.582 6.98-.377 14.28-.965 21.389-1.027 3.136 1.61 5.516 1.202 8.623 2.342 3.278-2.751 3.937-.354 5.884 1.666 4.746-1.02-2.706-3.23-.058-3.878 3.542-2.372 9.612-3.127 14.326.19.292-.535 1.686.13 1.496 1.179-2.804.514-6.935 1.08-10.197.12-1.899 1.732-7.093 3.874-4.28 1.463 2.676-2.573 4.114-2.442 6.934-.186 2.22-2.182 6.886-.166 7.543.329-4.013.226-8.88 3.565-11.693 4.044-3.288 10.908-1.135 12.748 3.761 1.448 2.467 1.628 6.1 3.273 7.995-.725-2.99-1.557-6.025-2.98-8.762-1.614-5.217-8.538-6.735-12.83-4.047 2.237-2.464 5.532-2.716 8.648-2.684 6.063 1.304 8.023 7.953 9.426 13.217-.688 3.214 6.065 3.237 3.941.026.255-3.394.403 4.47 3.115 2.03-1.29-1.831-.303-7.311-2.892-3.99-3.971.975 3.905-3.841 1.193-3.101-2.763 4.318-3.462-1.107-3.998-3.594-.557-2.391-1.313-7.395 2.182-7.406 4.445 1.993 4.416 7.6 5.937 11.625 1.221 1.882.027 7.02 2.916 6.494.938-4.905.23-10.53 3.647-14.584 2.78-.586 6.692 3.047 4.973 5.873-1.187 2.167-.37 5.977-2.227 7.28-1.136-1.028-2.026-8.81-2.016-4.94.77 2.675-.647 7.958 3.696 6.371.527-4.538.358-10.328 4.459-13.224 5.12-2.649 10.892 1.505 12.373 6.576 1.173 1.888-.228 7.319 2.843 6.662 2.178-1.368 5.208 1.697 3.916-2.44-2.164-4.91-1.636-12.041-7.445-14.34-2.233-.485-4.074 6.416-3.2 1.67 4.5-3.17-2.253-1.936-2.716-4.548-3.03-.287-6.554 1.044-9.58.617-1.983-1.49-2.647-7.075-2.158-1.936-3.687-1.559-4.699-6.091-5.135-9.765.17-4.574.517-3.475 2.04-.051-.3 1.464-.077 2.585.458 3.373-.15-.763.058-1.941.483-2.363.16-3.975 2.807 1.402.779 2.668-.25.228-.457.333-.631.363.673.53 1.556.777 2.492.738 1.324 2.571 4.841 6.394 7.916 4.2 3.673.356 7.516-.485 9.611-3.796.776-1.367.779-7.107 2.836-4.789-1.93.557-.636 4.565 1.704 4.932 1.13 1.055.312 3.89 2.85 4.791 2.36 1.556 4.748 3.906 7.22 5.69 3.959.815 2.663 4.505 2.443 7.523.342 2.697 3.607 3.323 2.25 7.062 1.811 1.24 5.969.11 8.674.446 2.435-.569 7.093 1.56 6.777-2.356-1.36-4.021.655-3.343.29.346-1.167 3.385 5.923 2.8 6.013-.172 1.473-2.312-1.424-5.649 1.422-6.898-.205-3.31-1.623-6.454-2.086-9.748-.422-2.766-1.246-6.872 1.39-8.618-.335-4.61.15-9.524-2.083-13.742-1.548-2.48-3.953-3.077-4.393-6.03-1.874-2.348-3.177-3.118-2.332-7.007 2.788-.038 5.787-.762 7.412-3.228 2.654-2.693 1.144-6.94 2.022-9.854 3.668 2.11.879 6.96.629 10.252 1.642 3.175.048 5.245-2.381 3.209.975 3.95 6.026 1.439 8.293-.031.96-1.119 3.673-5.41.283-3.672.41.435.366 2.52-1.139-.805 5.296-2.277 6.672-11.962.684-14.262-2.813-1.522-5.515 1.792-7.537.553-1.394-2.71-2.383-5.881-5.14-7.637-7.062-5.759-17.754-3.492-23.96 2.506-.114-6.171-.626-12.315-1.396-18.437-1.743-11.02-2.848-22.498-8.03-32.553-4.219-5.017-10.541-7.74-16.49-10.17-2.384-2.231-3.465-7.156-7.678-6.908 3.214 1.048 3.933 4.61 6.04 6.838 2.563 3.878-.154 8.906-1.424 12.894-1.008 3.06-3.466 5.478-6.42 2.891-4.481-3.528-1.589 2.015-2.03.398.45-.303 5.09 3.695 6.99 1.34 3.066-4.699 4.754-10.602 4.526-16.271 4.553 2.162 9.005 4.533 13.152 7.41-4.152.16-5.823 4.67-7.43 7.828-.524 2.233-1.732 5.866-1.075 7.318 1.106-5.286 2.508-12.714 8.617-14.738 2.55 1.808 3.54 4.964 4.636 7.76 4.275 14.377 6.328 29.41 6.854 44.387-3.443 2.486-5.87 8.39-1.502 11.216 3.337 1.276 4.32 5.378 2.998 8.557 1.213 4.02 5.398 7.19 9.543 7.37 2.493.51 5.407-1.809 6.273-2.975 1.49-3.488.75-4.526-.962-.473-3.06 4.351-9.594 3.258-12.387-.818-2.666-2.08-1.336-5.125-1.535-7.967-2.548-2.837-.507-6.467.177-9.655.899-1.78 1.402 4.941 4.004 5.317 3.116 2.21 6.128 1.152 1.56-.994-3.05-2.792 2.953 1.285 4.565 1.18 3.357.568 1.825 5.796 4.895 5.872 1.085-2.374 4.193-1.916 4.457-1.414-.115-3.4-4.689 1.97-3.303-1.253 2.05-2.64 5.967.155 3.723 2.77-.172 2.393-6.102 4.796-1.656 3.757 3.758-4.073 1.299-.06.46 2.459.036 2.666-1.104 6.374 2.084 6.3-1.892 1.711-5.191 1.637-6.955 3.776-2.325 4.183-1.493-2.306-3.443.254-3.057.585 2.681-3.989 4.035-3.676-2.382-1.18-5.01 1.527-5.799 3.352-4.97 1.294-5.044 6.85-5.586 10.98-.653 4.606-3.37-.841-4.984-2.117-1.83-2.879-5.097-3.21-8.17-2.584-2.133-.61-2.29-5.56-5.656-6.174-3.176-.593-4.894-1.558-4.531-5.242-.935-3.026.266-5.183.636-7.81 2.278-3.096 4.657-.115 7.508-2.202 2.508-1.267 2.162-4.558 4.434-6.254 2.16-4.673-1.197-.263-2.244 1.733-1.981-4.113-5.283-7.713-9.465-9.606-1.21-1.998-7.828-.386-3.938-2.886 4.066-4.026 10.398-7.253 15.865-3.985-2.06-2.105-5.55-1.917-8.32-1.738-2.124.124-7.061 4.312-4.64.154 2.264-3.135 5.943-4.116 9.642-3.67-3.444-1.211-7.453-.145-10.031 2.42-.894-2.905-1.52-5.89-2.313-8.826-1.619-8.129-4.252-16.67-2.148-24.922-2.13 2.255-1.57 7.078-1.62 10.408 1.156 8.06 2.916 16.056 4.522 24.038.89 3.278-1.045 5.294-3.535 7.062-2.7 1.483-5.805 4.143-4.76 7.508 2.13 2.719 3.554 3.743-.545 5.664-2.182 2.685-5.47 1.868-8.494 1.89-1.979 2.752-5.138-.868-6.884 1.188-.516 2.716 2.749 4.48 3.074 5.914-1.661 1.834-1.511 5.393-4.574 4.422-.583-2.883-5.723-.074-5.856-3.69-.447-12.702-.145-25.568.076-38.33.484-5.198-.604-10.727.965-15.697 4.717-3.304 9.683-6.332 13.617-10.619.266-2.391-1.767-5.384-2.34-8.025 2.957-5.187 6.796-10.054 8.319-15.92.478-3.26-2.458-3.25-2.082-1.969-1.017.747-1.33 1.464.26 4.193-2.394 7.483-7.826 13.617-11.735 20.397-2.093 2.654-3.273 6.488-5.396 8.722-1.993-5.267-3.324-10.944-2.836-16.593.059-1.623 1.578-8.926 2.408-4.778-.03 5.027 6.547 4.94 9.783 3.092-2.187.19-5.11 1.336-7.379.004-3.04-1.799-1.914-5.329 1.22-2.2 4.96 1.006 10.71-1.931 12.38-6.868-1.897 2.634-4.28 5.393-7.69 6.308-2.152.335-8.337.171-6.767-2.345 4.766-1.501 10.152-4.223 11.74-9.297 1.121-2.73.163-5.936 3.506-5.215 1.93-1.723 3.627-4.139 4.975-6.516 1.996-2.372-.159-5.328 1.521-7.469 2.306-4.802 3.42-12.47-1.771-15.796-3.982-1.685.656-.006 1.806.562-1.062-1.886-5.812-1.82-1.637-2.42 4.757.304-2.303.088-2.746-.836-1.148-1.987-4.535-4.957-7.195-2.877-1.866-1.982-4.424-2.942-7.035-3.01zm18.614 9.142c.032.057.07.11.096.17.317.061.184-.031-.096-.17zm-4.201 150.139a2.994 2.994 0 0 1-.63-.668c.084.43.278.728.63.668zM105.367 14.812c1.734.1 3.455.642 4.737 1.739l.31.273.393.348c-2.667-2.302-6.893-2.227-10.246-1.432 1.327-.681 3.073-1.026 4.806-.927zm.871 1.624c1.586.105 4.767.864 5.42 2.51l.098.146.287.44c-1.67-1.788-4.09-3.033-6.705-2.991.02-.102.372-.14.9-.105zm8.815.761c.877.033 2.005.317 2.656 1.184-.402.423-1.157-.605-1.623-.776-3.267.184-2.496-.462-1.033-.408zm-25.246.545a.137.137 0 0 1 .095.008c.193.08.508.515.946 1.5.452 2.19 8.525 2.674 3.422 2.33-4.545-1.468-1.791.706 1.025 1.502 3.36 1.098-3.89-.205-3.943-1.668-1.424-.879-1.96-3.539-1.545-3.672zm-5.172 3.768c-.499 4.08 4.096 6.379 7.594 6.595 3.478.244-.902.408-2.114-.003-3.043-.263-7.09-3.556-5.48-6.592zm26.002 2.426c.263-.004-.403 1.062-1.946 2.798-1.236 1.526-3.144 6.046.418 5.506 2.39-.243-1.721 4.116.639 5.79 1.798 1.837 6.114 3.208 1.441 4.62-2.715 2.55-4.625.509-7.576-.37-3.113-1.91-5.332 4.066-4.177 3.423.112-3.536 4.033-2.828 6.31-1.982 1.158 1.275 2.265 4.289-.078 6.105-.38.21-.65.721-1.168.563-3.46 1.239-5.792-2.343-5.934-5.37-.83-3.86 4.427-3.792 6.936-2.812 4.192.603-1.059-3.31-2.85-2.715-2.182-.755-6.334-.153-2.548 1.498.583-.453-1.949 3.13-4.135 2.895-2.04-.116-5.791-3.283-1.608-3.65-.347-2.53-6.398 1.375-5.709-2.032-.446-2.109-.92-7.25 1.06-7.262 6.435 1.592 13.933-.067 18.599-4.869 1.355-1.484 2.121-2.134 2.326-2.136zm12.636 1.246c.122-.002.691.987 1.47 2.955.443 3.192-.013 1.593-.25.029-1.015-1.991-1.341-2.983-1.22-2.984zm-12.845 10.793c.186-.065 2.72 4.58 1.242.875 1.631 2.93.786 1.168 2.392 2.171-.861.817-2.918-.326-3.1-1.597-.455-1.043-.586-1.431-.534-1.45zm9.22 2.367c1.353-.078 2.636.67 2.748 2.453.455 3.416-1.547 8.376-5.431 8.164-1.792-2.942-1.643 3.412-2.68 4.803-1.006 1.724-1.158 7.2-3.998 5.277 2.988 2.987-2.732.985-.652 2.758-1.958 3.825-4.092-2.695-2.385 1.71-2.01 3.008-2.9-4.658-2.084-.003-1.024 3.106-1.385.15-2.953 2.3-1.618.129-3.386.674-3.955.147-1.771.323-.887-.167-2.576-.412-1.055-1.013-1.596-.854-2.069-2.193-.524.836-1.576-1.258-1.414-1.11-.457-.325-1.708-.464-1.232-2.207-2.823.372 3.015-2.545 4.685-2.484.228 2.575 3.633 3.876 5.518 2.078.869-3.283 4.304.346 6.57-1.57 1.81-.325 3.7-6.31 1.93-4.836-2.395 3.31-6.32.706-8.73-1.162-3.411 1.211.341-2.342-3.686-.233-3.901-.238-2.515-2.482-4.416 1.354-2.322 3.209-4.73-2.66-1.715-2.176 3.817.976 2.59-5.663 6.09-4.516.521 3.753 5.515 6.406 8.701 4.31 3.085-1.552.9-5.94 4.795-6.421 3.49-3.254 3.405-.223 2.99 2.988-.198-.668-.955 4.03-.525 4.098 1.388-3.345.068 4.719 1.422-.637 1.309-3.32-.752-7.415 1.883-9.974.394-1.525 1.817-2.429 3.17-2.506zm-23.697.762c-.127-.02-.251.682-.29 2.792.967 2.009.616-2.745.29-2.792zm23.121.822c-1.107.027-2.177.658-2.144 2.431.461-1.15 3.346-3.992 4.35-.681.706-.82-.782-1.785-2.206-1.75zm-28.457 1.863c1.378.066 2.649.596 2.875 1.822-1.485 1.851.172.382-1.008-.74-1.458-2.537-5.565 1.54-5.386-.121.656-.629 2.142-1.027 3.52-.96zm27.473.223c-.763.002 1.436.486 1.703 2.449-1.6 3.598-3.457-2.306-2.69 1.98 2.277 1.077 4.675-2.37 2.919-4.308-1.095-.07-1.678-.122-1.932-.121zm-27.79 1.1c.879-.046 1.663.378 1.598 1.42-2.69.144-1.864 3.443-.812.7 1.781-.364 3.902 1.255 1.81 3.922-1.972 1.791-4.351-.097-4.267-2.592-1.514-1.996.209-3.375 1.672-3.45zm11.19 1.515c-.319.005-.115 1.033.688 2.559-.544 2.201.998.51.967-.463-.843-1.484-1.407-2.1-1.655-2.096zm-5.957.273c.394.01.977.108 1.8.348-1.628 1.217-3.505-.39-1.8-.348zm-8.209.057c.294-.084.854.816 1.112 2.854.853 2.059.017 1.437-.618.209-.813-1.909-.787-2.979-.494-3.063zm4.9 1.414c-.51.035-1.09.44-.068.936l-.29.35c1.309-.986.87-1.32.359-1.286zm8.204 7.666c.034-.03.347.274 1.136 1.172l.08.094c2.088 3.21-1.339-1.158-1.216-1.266zm1.469.12a.181.181 0 0 1 .08 0c.479.079 2.526 1.14 3.494 1.99-.498.142-1.709-.312-2.092-.817-1.237-.801-1.603-1.135-1.482-1.174zm-8.342.056c.66-.048.816.59-.364 1.906.736-2.856-.84-.674-1.523.172-1.402.383-1.337.196.328-1.248.583-.525 1.162-.801 1.559-.83zm-1.451.025c.222.023.08.14-.721.44-1.026.768-2.314.66-3.082-.254.875.19 3.294-.239 3.803-.186zm6.015 2.375c1.726-.047 4.115 1.174 2.795 2.502-1.5 1.05-4.06.543-4.326-1.543.1-.654.747-.937 1.531-.959zm-2.959 9.871c1.181.028 2.514.532 3.832.768-3.164 7.842-.969 16.636 1.531 24.271v.405c-2.535-2.13-4.96-5.405-7.523-7.893-2.439-2.47.424-5.18 1.988-7.267.915-2.568-4.068 2.25-5.433-.178-1.278-2.379 1.053-5.9 2.676-8.018.718-1.666 1.748-2.115 2.93-2.088zM91.43 68.23c-.89 1.58-2.933 4.415-3.067 6.955-1.29 3.236 4.215 2.762 4.096 3.855-2.613 2.657-.133 5.621 1.69 7.846 1.494 2.44 6.21 4.136 5.273 7.136-.947 15.04-.406 30.223-.742 45.319-.495 3.008.912 6.741-.836 9.271a5.706 5.706 0 0 1-1.71 1.526c-4.041.386-8.495-1.14-12.15-3.131.04-3.288.46-6.547.836-9.809-.926-4.547 3.1-1.11 5.117-3.213 2.386-4.063-.81-2.729-3.722-3.505-.486-3.457.866-7.679.834-11.446 1.158-12.96-.338-26.018.732-38.955-2.233 4.623-1.165 9.974-1.361 14.953-.315 2.57.718 7.539-.438 8.614 2.307 3.525-2.76 1.29-.021 2.744 2.804 3.123-5.255-1.787-.936.88 2.445.848 1.685 4.856-.242 3.99.185.104.359.193.526.29 1.964 3.046.794 2.845-1.03 1.713.684.454 1.253.931 1.451 1.37.74 3.28-.23 7.057-.597 10.49-4.59 4.892-12.637 4.25-17.553.128-3.03-1.026-5.134-5.211-3.514-7.803.395 1.942.003 5.381 2.684 6.569 6.409.804 9.634-7.311 6.975-12.297 4.212 1.83 7.631 5.101 9.103 9.506 0-3.146-1.936-5.613-4.19-7.594 1.748.509 3.11.847-.974-.918 1.771-7.021 2.65-14.243 4.104-21.338 1.926-8.065 2.58-17.828 9.662-23.146zm19.591 7.197c1.015.885 1.894 4.737 2.569 6.8-2.395 1.903-4.713 3.905-7.21 5.676-2.132 1.451-4 3.23-5.952 4.907C104.1 87.12 107.5 81.21 111.02 75.426zM84.865 85.453c-.299.1-.777 4.418.114 5.537 1.39 3.19-.545-3.232.07-3.959-.003-1.178-.084-1.611-.184-1.578zm-29.77 6.344c.974-.003 1.943.013 2.907.064 4.46 5.475 8.52 11.527 12.71 17.317 3.28 3.082 4.095 8.44.8 11.81-.65 1.531-2.22.915-3.504 1.17-2.905-1.326-1.825-4.019-.576-1.715-.34-1.521 2.66 1.159 2.851-2.95 1.461-2.425.902-6.776-1.674-7.704-3.595.876 2.208-2.337-2.234-3.54-2.533-.932-6.314-.261-2.313-2.423.47-2.97-2.762-4.004-5.15-3.521-3.635 1.346-3.86-3.317-7.24-2.963-.664.934.032 2.261.584 3.043-.241-.267-.56-.61-1.022-1.08-1.494-2.429-4.7-4.645-4.923-7.309 2.917-.002 5.866-.19 8.785-.2zm-2.519 1.262c-1.503.051-2.496 1.684.033 2.96 1.374 1.134 4.246-.406 2.051-1.869-.612-.812-1.4-1.115-2.084-1.091zm.719.478c.591.074 1.117.548 1.133 1.703.439 1.065-.815.42-1.28.594-2.777-.689-1.154-2.46.147-2.297Zm48.309.649c-.997.023-2.176.929-.905 2.128.515.622 1.11-.229 1.656-.31.687-1.324.023-1.837-.751-1.818zm7.873 4.091c-2.725-.162-3.281 2.53-2.706 5.25.35 3.284-.73 7.16.561 10.055 1.555 1.253 4.336.077 6.318.342 2.645-.663 6.127.893 8.225-.94-.127-4.59.248-9.45-.186-13.875-3.233-1.573-7.33-.19-10.91-.58a5.58 5.58 0 0 0-1.302-.252zm9.377.387c2.969-.177 2.816 3.034 2.5 5.9-.34 2.8.698 6.425-.504 8.707-2.5.647-5.392.086-8.02.27-3.202.306-6.99.542-5.627-3.896.293-3.322-.81-7.21.36-10.176 2.856-1.175 6.61-.183 9.818-.51a6.27 6.27 0 0 1 1.473-.295zm-59.41 2.297c.835.014 1.715.066 2.406.178 2.16.16-2.118.074-2.586.123-4.458-.04-2.329-.342.18-.301zm56.308.771c-1.852-.055-4.156.355-5.285.588.083.429 2.716-.322 3.744-.15.885.255 2.454.126 3.65.008-.502-.288-1.253-.42-2.11-.445zm2.11.446c.149.085.283.18.382.297 1.98-.58 1.096-.444-.383-.297zm-57.692-.092c2.543.057 4.904 1.986.973 2.963-.674.15-1.32.475-2.028.402-2.215-.473-6.097 1.449-7.207-.982-.691-3.288 4.563-1.478 6.547-2.088.531-.22 1.128-.308 1.715-.295zm54.228 1.158c-1.869-.124-3.69 2.77-1.294 3.785 2.116 1.354 4.446-1.616 2.544-3.156-.385-.41-.818-.6-1.25-.629zm-.341.514c1.244-.045 2.582.844 1.504 2.308-.864 1.075-2.37.873-3.061-.337-.323-1.336.589-1.936 1.557-1.971zm-43.489 1.44c1.789-.074 3.347 2.645 3.13 4.503-1.109 2.023-2.62-3.377-3.907-4.29.26-.136.522-.203.777-.214zm-5.314 1.304c2.238.145 2.555 3.576-.707 2.889-1.633.276-3.277.231-4.926.23-1.953-.06-7.328.92-4.88-2.43 2.757-1 6.369-.194 9.44-.529.394-.135.753-.18 1.073-.16zm35.822 1.092c-.455-.063-.788.408-.504 1.99 3.095.865 1.505-1.852.504-1.99zm16.262.58c-.199-.022-.844.296-2.17 1.252-2.85-.923-6.36-1.603-1.887.066 1.22 1.873 4.653-1.252 4.057-1.318zm-36.115 1.086c-.001.09 1.756 1.004 3.242 1.824-.283-.196-.585-.48-.903-.9-1.704-.737-2.339-.979-2.34-.924zm-24.973 1.547 11.03.125c4.7-.096-.29 3.307-2.827 2.343-2.429-.177-8.625 1.809-8.203-2.468zm24.4.521c.041.054 1.96.862 3.446 1.81a28.368 28.368 0 0 1-1.768-1.236c-1.238-.437-1.698-.601-1.678-.574zm-11.783 2.207c1.767.097 2.2 2.042-.44 3.914-.63.634-1.38.54-2.189.52-2.987-1.95-4.703-3.066-.191-3.424.919-.642 1.76-.948 2.45-1.004.128-.01.252-.012.37-.006zm-41.79.361c-1.828.003-3.653.446-5.222 1.42-3.002 1.544-1.728 4.679-5.1 4.702-6.158 4.449-5.601 13.837-1.984 19.783 2.306 4.136 6.928 6.764 11.434 6.867l.143.232.345-.287c1.34.136 4.156-1.184 5.52-3.293 1.243-5.052.593 1.234 3.736.026.436-.218-3.982-2.85-1.715-5.567 2.588-3.432 3.073 1.933 4.112 3.106.185-1.648.498-4.553 2.8-5.512-1.137-1.774 4.647-4.21 3.631-3.15.109 2.763-1.927 6.733.385 2.218-.409-3.19 3.53-2.482 4.305-5.41 1.019-2.63-1.028-4.712-1.947-6.617-4.062-3.97-9.328-7.381-15.208-7.309a11.913 11.913 0 0 0-5.236-1.209zm1.175.786c1.928.338-4.585.564-5.736 2.252-1.203.613-1.883 1.75-2.752 2.728.703-3.789 5.226-4.737 8.488-4.98zm139.021 4.402c.783-.024-2.48.231-4.466.963-5.522 2.158.25-1.161 2.138-.852 1.358-.063 2.067-.103 2.328-.111zm-66.433 1.5c-.484-.048-.836.436-.528 2.02 3.291.768 1.591-1.915.528-2.02zm37.892.932c-.338-.004-.626.048-.834.17-3.628.512 3.85.09 5.024 1.43l.082.04.465.242c2.494.81-2.37-1.856-4.737-1.882zm29.09.097c.605-.015 1.14.021 1.319.155-.274.043-.546.107-.825.097-4.74.297-2.307-.207-.494-.252zm-8.433.926c.336.029-.053.32-1.934.918l-1.53.588c-2.404 2.647-4.24 3.189-.695.316 1.027-1.192 3.599-1.87 4.159-1.822zm10.287 1.406c.798.005 1.647.073 2.33.25 2.58.382-2.16.07-2.381.164-4.291.125-2.344-.428.05-.414zm-40.592 1.702c4.063-.15 7.945 3.392 10.533 6.337 1.606 2.034 4.397 6.338.83 7.827-.803.587-1.302.35-1.248-.649-2.313-4.877-7.967-7.88-13.154-8.693-2.379 1.93 2.818-.302.2 2.344-3.994.388-2.622-5.318.01-6.42a6.714 6.714 0 0 1 2.829-.746zm21.742.84c.11.054-.123.747-1.07 2.392-.355 1.137-1.178 4.8-.574 1.2.335-2.002 1.463-3.684 1.644-3.593zm1.596.96c.217-.142-.488 2.407-.744 4.254-.863 6.366-.705.15-.254-2.074.61-1.495.899-2.115.998-2.18zm-109.533.565c.041.048-.264.529-1.19 1.763-.395.377-.662.902-1.252 1.014-.204.022 2.064-2.6 2.403-2.773.019-.01.033-.01.039-.004zm79.82.86c-3.889.66-8.511 1.765-12.629.66-1.7.58-.637 5.989 2.42 5.077 2.51.525 5.085.028 7.625.059 5.254-.638-3.062-.342-4.883-.258-2.894.876-6.626-2.061-4.709-4.113 3.947.63 8.845.854 12.176-1.426zm59.045.16c1.216-.024 2.637 1.34 1.103 2.83-.63.68-3.132.556-2.388-1.016-.1-1.287.555-1.8 1.285-1.815zm7.289.904c.07.03.594.716 1.73 2.238.603 1.02.416 2.215-.087.527-1.072-1.756-1.733-2.804-1.643-2.765zm-102.186 1.191c1.936-.058 4.662.785 1.9 2.594-1.62 1.537-4.792.366-3.339-2.237.237-.217.794-.338 1.44-.357zm42.495 1.164c3.442.854 5.344 4.376 8.261 6.174-2.935 3.442-7.308 4.958-11.049 7.322-3.27.485-2.689 4.049-4.882 5.678-1.222.968-6.243 3.157-3.05.254 2.857-2.94.918-2.11-.644.234-.985.764-1.494 2.122-2.955 1.694-3.545-.1 2.189-2.387 2.504-4.088 1.63-3.721-2.633 2.75-4.096 3.082-3.84 2.053-2.679-1.454-.084-2.971 3.74-3.905.331-2.468-1.498.43-2.056 4.223-4.84.831-2.1-2.03.747-2.45 5.039-4.463 3.262-6.533-.153 2.304-3.723 4.546-5.195 1.547-1.869-3.902 2.064-1.843 4.03-1.883 2.643-1.752 5.947-.991 8.94-.53l8.556-8.38zm-28.9 2.672c-.666-.053-1.131.417-.263 1.98 3.034-.351 1.37-1.892.262-1.98zm-56.659 3.232c.127.35.343 1.155.146 2.077-.823 3.747-3.003 7.777-7.125 8.58-1.988 1.437-7.329-1.209-5.93 2.78-1.232.926-5.999.248-7.446-.794-2.784-.648-2.752 3.37-5.973 3.81-3.444 3.22-4.746 8.229-6.59 12.493-.189 2.25-3.756 5.33-1.25 6.947-1.582 3.405-.92 7.844 3.006 9.187 3.57.187.95 4.153 1.389 6.424-1.044 3.728.293 5.722 1.084 8.217V200h17.408c3.464.39 5.565.285 6.06-2.928 1.073-2.604.402-6.478.803-9.572 3.43.1 4.968-4.115 3.771-6.932-1.804-3.402 1.548-4.656-.529-8.209-1.427-4.902-2.188-10.287-4.254-14.724-1.379-2.87-5.469-1.221-4.15-3.862-1.822-1.344-4.831-4.172-.215-3.773 5.791.18 9.963-5.084 10.533-10.47-.418-.695-.634-1.113-.738-1.335zm116.012.207-.05.006a.92.92 0 0 0-.288.092c-.038.025-.079.048-.115.074a1 1 0 0 0-.28.35.952.952 0 0 0-.093.465v.238c0 .102.002.203.01.305.005.053.01.107.017.16.002.013.005.043.008.04v.003c-.004.058-.007.115-.017.172h-.002c-.137.683.583.974.99.656.206-.026.405-.147.514-.418.03-.081.02-.05.035-.095.023-.084.073-.16.093-.245.036-.095.068-.192.088-.293.041-.138.076-.279.086-.423-.002-.107.005-.225-.037-.35v-.002a1.01 1.01 0 0 0-.234-.49c-.033-.032-.066-.064-.1-.094-.17-.15-.402-.185-.617-.15h-.008zm11.238.041c-.135-.07-.51.443-1.252 2.168.681.952 1.548-2.015 1.252-2.168zm-135.482.225c-.439-.003-.787.606-.432 2.283.173.245.064.9.533.715 1.61-1.29.629-2.993-.101-2.998zm119.748.18c-.321.06-.651.603-.752 2.035l.162.264c1.953-.225 1.296-2.432.59-2.3zm29.994 1.306c.047 0 .084.145.105.489-.566.782-.349 1.811-.537 2.712-.742 3.952.098-3.193.432-3.2zm1.535 3.326c.2.091 1.697 1.987 2.435 1.07-.09.559-1.388.986-1.712.358-.637-1.138-.814-1.469-.723-1.428zm-29.1.194c-.274-.015-.513.457-.568 1.838 2.538 2.63 1.392-1.793.568-1.838zm-25.502.474c1.524.043-2.426 3.443-4.242 3.053-1 .297-1.98.658-3.004.865-.793-.842 4.743-2.6 6.237-3.71.463-.152.792-.214 1.01-.208zm-2.299 3.92c.662.261 1.474 4.886 2.354 6.8-1.229-.79-2.244-4.962-2.354-6.8zm-3.363.543c.66 2.34 1.803 5.025 3.9 5.305l.05.094.247.46c-2.787.052-4.116-3.544-4.197-5.859zm-65.256.147c-1.31.012-2.621.2-3.896.58-4.85 1.118-9.473 6.615-7.422 11.566-3.472-1.686-7.412 3.559-4.22 5.983 3.496-.279 4.412-.16.411.898-2.322-1.83-2.662-5.146-1.767-.375.963 3.475 6.565-1.116 4.013 2.096-1.415 4.025 5.06 1.152 3.141 3.299-4.535.267-1.364 2.643 1.053.242-.338-5.971 2.09 2.99 1.66-.012-1.56-2.422-1.658-7.62-.258-2.248-.07 2.878 3.095 4.382 5.082 4.735-.312.451 1.09.399.856-.067 1.782-.202 3.082.008 4.193-1.625.726-3.634-.038-4.233 2.5-1.174 2.36.88-.146-1.235-1.039-3.175-.882-2.773 3.175-6.285 4.678-2.817 2.298.274 1.094-4.075 3.375-5.217 1.293-4.481.95 1.007 1.416 2.616.33-2.842-.068-5.414.426-7.163-2.83-4.977-8.52-8.197-14.202-8.142zm.81.777c.147.04-1.493.63-3.37 1.326-1.847.518-2.86 2.201-4.207 3.434-1.42 1.037 2.847-4.28 5.054-4.147 1.707-.465 2.436-.637 2.524-.613zm40.024.447c2.093.138 3.15 2.43 1.862 4.463-1.125.722-2.978.364-4.313.328-3.08-.065-2.729-6.138.854-4.513.577-.227 1.114-.31 1.597-.278zm-14.906.416c.202-.076.19 1.323-.402 3.641l-.041.248-.088.518c-.79 5.308-.866 1.956-.158-1.297.245-2.098.532-3.05.69-3.11zm13.684.342c-1.784-.028-3.488.686-2.237 2.895 1.476 1.081 6.876 1.209 4.91-2.205-.504-.388-1.603-.673-2.673-.69zm-46.086.117c-.005.126-1.646 1.858-2.963 3.54-.492.747-.889 1.488-1.016 2.386-1.182 4.942-.555-3.216 1.795-4.06 1.6-1.438 2.186-1.941 2.184-1.866zm9.592.108c.03.05-.378.26-1.49.7-1.276-.173-6.884 4.394-3.448 1.323.798-.876 4.843-2.171 4.938-2.023zm-42.497.598c2.874.468 5.715 1.24 8.653 1.257 3.974-.269 2.732 2.418-.514 2.389-2.095.982-4.268.783-6.506.744-4.027-.356-3.157-2.131-1.633-4.39zm151.915 1.718c.579-.012 1.054.202 1.337.764.342 2.31-5.1.83-6.398 3.338-2.717 4.27-1.802 10.101-.023 14.623-.11 2.56 5.187 6.416 1.978 7.504l-1.392.437c-3.386-1.85-7.955-3.609-8.211-8.093-1.7-6.51.732 2.38-1.002.996-2.756-1.82-4.614-3.976-2.465-7.149.264-2.23 2.762-6.338 2.605-7.148-1.448 2.152-2.984 6.243-1.607 1.443.983-2.936 3.085-3.546 4.914-2.902 1.451-1.08 1.884 3.4 4.492-.91 1.348-.797 4.034-2.866 5.772-2.903zm-47.57 1.705c5.076.466-.035.649-2.169.844-3.877.803-6.364 4.654-5.992 8.451.5 1.755-.394 1.218-.295-.064-.176-4.653.26-1.147-.967.367.016-5.13 4.442-9.228 9.422-9.598zm-106.97.077c.4.04.806.252 1.204.697-3.355 4.8-4.303 10.726-4.774 16.441.524 3.338-4.16.082-5.457-.504.951-4.3 2.96-8.37 4.86-12.35.766-1.39 2.432-4.456 4.167-4.284zm48.817.015c.747.118-5.214 1.214-6.26 2.342-1.838.777-3.481 1.857-5.121 2.98 2.81-2.78 6.789-4.339 10.617-5.31.415-.026.657-.029.764-.012zm66.629.373c.445-.052-2.656 1.438-1.793 2.057-1.284 1.938-.435-1.269-.113-1.4 1.214-.45 1.757-.64 1.906-.657zm-102.035.131c.171.037-.38.426-2.063 1.377-2.872 3.692-.945 1.87 1.242-.648 2.782-1.15 6.594.458 1.559.457-4.393 2.932-3.205 9.15-2.04 13.515-1.022 2.863-.884 4.253-.433 2.405 1.769-2.78-.137 3.6-.084 3.138 2.105-4.903 1.436 2.401 3.024 3.875-.268 4.602-.984 9.85.209 14.049.568-2.596.085-6.243.257-9.236-.677-1.104 3.325 3.532 3.948 4.564-.027 2.447.77 6.536-.944 7.908-7.7.34-15.702 1.127-23.078-1.716.827-12.229 1.44-25.071 7.524-36.026 1.036-3.546 4.8-1.884 7.49-2.502 1.751-.671 3.168-1.207 3.389-1.16zm65.714.09c4.789.003 8.627 4.267 8.504 9.07-.131.744.663 1.897-.375 2.18.315-4.15-1.894-8.702-6.213-9.68.864-.02 5.333 1.949.295-.664-1.6-.784-7.577.78-3.18-.85.327-.038.65-.057.97-.056zm-27.132.082c-.06.057-.657.467-2.05 1.445-2.528 1.368-5.537 1.503-.968.203 1.717-.86 3.116-1.744 3.018-1.648zm103.507.496c4.937.45 5.369 6.806 5.915 10.697 1.077 4.455-1.741 1.569-4.29 1.617-3.01.337-5.25.752-4.31-3.308.236-6.1-1.215.75-.69 3.299l.026.443.033.523c.243 3.962-1.509-2.915-1.44-4.148-.235-3.377.827-8.68 4.756-9.123zm-77.123.78c.194 0 .398.015.616.048-3.752.257-2.77 3.203.13 3.715.135.297-.375.08-.472.059-3.353-.309-3.177-3.82-.274-3.823zm-24.22.533c.226.048-2.375 3.384-4.123 3.083-3.212 1.167-7.01.6-10.256-.107 4.366-.074 9.281 1.074 13.074-1.674.84-.97 1.23-1.319 1.305-1.303zm-37.4.068c.38-.02.788.043 1.222.209 2.649 3.43 2.724 8.456 4.187 12.557 2.355 3.596-.986 4.912-4.11 5.59a28.284 28.284 0 0 1-3.458.865c-.817-4.08-2.008-8.188-1.55-12.381-.291-2.411 1.045-6.696 3.708-6.84zm57.548.385c.628-.026.7.247-1.316.699-.227.148-.397.457-.701.39.206-.741 1.39-1.064 2.017-1.09zm-.398 1.125c1.302.05 2.542.738 3.12 2.209 1.759 3.219-2.128-3.354-4.284-1.713-5.233 2.719-4.013 10.424-.903 14.33.36.314.767.648.037.512-2.743-3.32-4.332-8.725-2.023-12.66.603-1.748 2.379-2.742 4.053-2.678zm-45.088 2.234c.28.003.58.07.892.217 2.812.956-4.716-.228-2.427 3.338l.078.205.185.49c-1.707-1.115-.688-4.268 1.272-4.25zm21.865.328c.255-.016.122.09-.648.414-1.126.627-2.35.458-3.582.498-3.425.069-7.698.172-1.729-.13.95.405 5.196-.735 5.959-.782zm63.39.793c.688.407 1.029.59 1.206.68-.277-.116-.803-.265-.7.26.48 2.702-.411-.201-.505-.94zm-37.824.006c.05-.01.097.007.137.057 2.368 3.397-.54 8.559 3.23 11.074 2.08 2.405-4.025-2.636-2.447-4.484.809-1.308-1.21-7.718-.869-5.217.812 4.903.27 3.228-.496.26-1.993 4.764-.308-1.536.445-1.69zm-42.543.117c1.493.152 2.64 2.962 1.02 4.565-1.862 1.975-4.324-1.139-2.912-3.045.48-.99 1.047-1.436 1.59-1.514a1.26 1.26 0 0 1 .302-.006zm91.18.494c1.499-.038 3.074.059 4.305.145 3.068 2.647 5.743 6.752 8.78 9.158.28.223.956.969 1.376 1.233 3.431 2.159 6.347 5.265 10.088 6.682-.8.208-2.44-.189-3.506-.166-1.997.139-3.05-.253-3.949-.772-1.687-.973-3.86-1.647-5.31-2.407-3.526-1.848-7.408-6.462-11.023-8.01-2.335.544-3.454-3.56-4.598-5.199.917-.453 2.338-.626 3.836-.664zm-88.865.121c.637.001 1.779 2.608.396 3.889-3.179 2.607-.36-.36-.668-1.906-.203-1.444-.017-1.983.272-1.983zm19.72 1.905c-.134-.015-.34.187-.636.69 1.242 4.043-1.561 9.512-5.867 10.507-2.182.737-6.3-.103-5.272 3.57-2.444.83-5.146 1.865-7.713 1.074-2.728-.176-5.645 1.923-7.808 3.65-2.79 4.297-2.505 9.945-3.229 14.913-.371.756.415.356.7.457.499-4.144.7-8.368 1.796-12.406.556-3.675 4.172-4.437 4.832-.346-3.42 2.92-4.236 7.456-4.62 11.709 1.313 3.15.986-4.289 1.831-5.846.995-6.686 11.412-7.793 14.21-1.836-.941-4.447-6.975-5.945-10.538-3.464-.875-.088 4.408-2.906 6.17-1.666 5.456.855 4.947 7.204 5.98 11.322.402 5.11 1.642.125.647-2.418.281-2.76-2.003-5.407-1.334-7.84-.312-2.465 6.794-4.6 3.594-2.404-4.132 3.911-1.747 10.217-1.324 15.195 3.999 1.07 3.878-1.262 2.56-4.309-1.711.189-3.288.834-2.674-3.273-.084-2.668-.005-7.6 3.438-7.783 3.435 3.014 3.796 8.057 5.209 12.2 1.105 4.947 1.482 2.127.234-1.263-1.496-4.35-1.637-10.622-6.683-12.353-1.627-1.952-4.534-3.563-7.204-1.621-2.197.472-4.574 4.463-6.582 2.513-3.31-3.113.59-2.772 3.067-2.34 2.648-.43 7.473-.347 6.222-4.128 4.547.014 9.508-2.153 10.536-6.97.317-1.342 1.044-5.47.459-5.534zm59.444.302c.516-.069.9.475.525.705-1.276-1.72-.397 3.338-1.146.782.215.031-1.285 3.004-.684 1.486.144-2.222.79-2.903 1.305-2.973zm-75.768 1.399c1.154-.102 5.333.472 5.235.396-1.637.59-3.444.454-5.11-.021-.558-.233-.509-.341-.125-.375zm49.575.355c.513-.046 1.004 5.633-2.057 4.68.138 2.463-1.312 5.183-3.814 5.805-1.592.664-4.042.625-5.561.097 1.091-.667 4.635-.545 6.43-1.671 1.878-1.804 4.062-5.488 2.847-7.917 2.4-1.093.7 5.657 1.838.106.078-.773.198-1.089.317-1.1zm-39.932.096c-.59.033-1.245.752-1.06 2.45-.318 1.098 1.203 1.139 1.107.202 1.366-1.603.712-2.694-.047-2.652zm17.824.568a.75.75 0 0 1 .248.006c.301.06.58.313.793.828-2.956 1.022-.64 5.294.52 6.596-1.522 1.272-2.851-1.355-3.219-2.734-1.067-1.457.397-4.53 1.658-4.695zm9.715.672c-.083.21-.319.797-.752 1.94.202.735-3.12 2.838-1.504 1.45 1.372-1.267 2.505-4.02 2.256-3.39zm80.03.414c1.906-.066 3.876.41 5.046 1.803.068 2.7-4.153-1.04-6.017.13-2.387-.43-4.16 2.92-2.21-1.306a10.041 10.041 0 0 1 3.18-.627zm-88.643.977c-.01 2.885 1.776 6.003 4.89 6.219.562.124 1.127.245 1.69.369-3.699.793-7.218-2.95-6.58-6.588zm55.595.496c1.046-.066 1.891 3.328 3.31 3.83-1.071.338-4.154-1.621-4.075-3.152.272-.462.524-.663.765-.678zm24.881.355c-.111-.049-.089.93.2 3.036-.908.93.6.954.402.09-.244-2.001-.49-3.076-.602-3.126zm-158.13.834c1.29 2.069 6.203 1.393 5.718 3.414-1.217.653-7.227-.949-5.719-3.414zm165.943.21c1.052.002 1.991.234 2.049.458 2.228.76 1.425-.702 1.673 3.618-.343 3.611-.16 9.664-4.804 10.302-6.68 1.284-12.859-1.656-18.875-4.058-2.804-1.959.369-1.97-4.563-1.408-4.591-1.006 2.181-1.68 3.748-2.06 4.989 1.43 10.133 2.562 15.364 1.88 4.55.334 2.685-2.561 2.74-5.735-1.158-2.368.914-3.002 2.668-2.998zm-27.87.552c.244.02.578.238.977.817-1.622.852-1.708-.876-.976-.817zM42.466 174.41c1.539 2.64-3.759 2.8-5.486 3.801-1.29.183-3.75 1.678-3.125-.857 3.014-.531 5.84-1.678 8.61-2.944zm-32.219.33c1.18 1.218 6.978 1.268 3.686 3.069-5.333 2.453 3.302-1.235.812 3.037-.341.8.377 2.953-1.144 1.976-3.658-.689-5.758-5.09-3.354-8.082zm138.897.207c2.056.06 2.871 1.01-.891 1.461-2.22.77 6.83-1.331 2.559.772-.435.129-.87.26-1.305.388-1.896.919-6.186-.65-2.71-2.332a8.16 8.16 0 0 1 2.347-.289zm3.572 2.412c1.892.01.088 2.085-2.783 2.032-4.284.742-2.332-2.074.85-1.657.862-.27 1.496-.377 1.933-.375zm-44.078.037c.64.068.94 5.24 1.431 6.524.4 1.406-.358.512-.515-.131-2.204-2.707-3.35-2.224-1.42-5.514.19-.638.356-.894.504-.879zm-67.117.23c1.334 2.797 2.81 7.572-1.083 8.995-2.985 1.436-5.361-1.6-5.101-4.46-1.422-3.894 4.157-2.536 6.184-4.534zm-8.743 1.382c-.04-.042-.35.416-1.125 1.787l-.486.953c-.571 2.009 1.732-2.615 1.611-2.74zm69.596.283c.77.022 1.512.308 2.184.979-2.565-1.717-5.507.32-7.28 2.255-.935 1.559-4.753 2.943-1.45.428 1.675-1.417 4.236-3.727 6.546-3.662zm-5.344.014c2.64-.033.223 1.597-1.96 3.181-1.708 1.85-2.653 1.297-3.565-.736-3.307-2.983 2.526-2.462 4.068-2.326.6-.078 1.08-.115 1.457-.12zm5.221.8c1.437.056 2.28 1.008-.217 2.122-1.177.972-2.112 2.16-3.08 3.33-4.066 1.472-2.319-3.063.66-4.424.699-.772 1.775-1.06 2.637-1.027zm-13.182.069c.487-.002 1.103.487 1.641 1.793 1.045 1.808 2.05 2.087-.734 1.851-2.416-1.26-1.977-3.639-.907-3.644zm90.153.426c.784 3.35 1.818 6.64 2.554 10.002-3.236 2.051-7.052 3.061-10.812 3.644-4.35.59-9.336 1.643-13.41-.514.048-3.299.656-6.571.63-9.878 4.72 2.456 10.12 3.503 15.44 3.125 3.743.544 5.958-2.995 5.598-6.38zm-47.367.203c.791.014 1.406.27 1.666 1.045l-.145.379-.314.213c-1.913 2.261-3.363-.241-5.567-.977 1.44-.11 3.118-.682 4.36-.66zm-44.82.63a.139.139 0 0 1 .089.003c.264.077.87.715 1.94 2.408-1.352-.027-2.384-2.27-2.03-2.41zm-23.02.077c4.44-.248 1.985 1.723-.412 3.088-1.804 3.468-1.94-.325-5.057.25-.42-.582 3.82-3.126 5.469-3.338zm88.054.215c1.03-.125 5.05 1.545 5.223 2.812.006 2.365-4.52-1.941-5.46-2.642.004-.098.09-.153.237-.17zm-26.728.021c1.142-.048 2.296.2 3.226.766 4.481 2.254-.443 2.163-2.279 4.1-1.442 1.947-3.273-3.13-5.453-2.237.736-1.64 2.603-2.548 4.506-2.629zm10.283.63c1.23-.07 1.277 1.612-.988 3.107-2.165.235-4.468-.007-1.317-1.747.942-.936 1.746-1.33 2.305-1.36zm-49.426.028c.756.023 1.69.859 1 2.272-.234.133-.748.787-.926.34-1.405-1.843-.83-2.634-.074-2.612zm-34.314.323c.72.064 2.42 1.483 2.283 2.931-1.245 1.904-1.106-.458-1.91-1.3-.883-1.222-.805-1.67-.373-1.631zm14.07.634c.303.01-.098.68-1.79 1.987-1.347 1.77-1.993 2.419-.643-.008 1.123-1.338 2.13-1.989 2.433-1.979zm35.483 1.112c.478.017.797.535.595 1.886.425 4.224 2.805 8.457 2.625 12.506l-.293.354h-.236c-1.692-3.267-1.82-7.951-4.322-11.135-1.248-1.266.578-3.65 1.63-3.611zm38.48.103c2.85.065 3.904 4.225 4.48 6.63-.142 2.413 3.644 6.619-.052 7.462l-.213.106-.469.236c-2.675 1.104-1.473-5.08-2.994-6.754-1.09-2.733-4.635-4.925-1.346-7.637.207-.034.404-.047.594-.043zm-49.07.573c-.379.002-.759.013-1.133.03 7.131.137 10.148 7.747 11.324 13.714.267.764-.023 1.345 1.047 1.107-.53-4.183-1.98-8.383-4.52-11.787-1.403-2.59-4.068-3.076-6.718-3.064zm39.654 1.976c-1.604.059-2.282.557 1.08.367 5.094 1.34 7.725 6.965 8.443 11.858l.063.27.12.51c.292-4.859-2.272-10.55-6.872-12.575-.655-.272-1.412-.392-2.1-.426a8.663 8.663 0 0 0-.734-.004zm.129 1.197a6.317 6.317 0 0 0-2.004.213c-3.147 1.965-2.542 6.534-2.84 9.838.244.683-.624 1.991.697 1.627.414-3.329-.345-7.271 1.842-10.025 3.312-2.384 7.17 1.823 8.47 4.832.761 1.516 2.1 7.899 1.87 3.205-.728-4.128-3.585-9.424-8.035-9.69zm-74.64 1.461a14.01 14.01 0 0 0-1.169.03c-4.085-.3-5.574 4.016-5.261 7.43-.321 5.086.681.713.834-1.868-.32-3.586 3.109-5.321 6.236-4.615 4.559-.553 5.955 4.423 6.389 8 1.1 3.531.29-3.732-.663-5.065-.826-2.955-3.622-3.866-6.367-3.912zm33.23.035a8.419 8.419 0 0 0-1.846.108c-4.637-.288-5.85 4.77-5.992 8.447.11 1.008-.914 1.988.834 1.627.203-2.906.153-6.077 2.252-8.367 3.912-2.328 9.965-.728 11.697 3.623.502 2.017 2.41 7.29 1.525 2.545-.485-4.364-4.221-7.764-8.47-7.983zm-5.776 5.06c-.126-.026-.288 1.136-.343 3.495-.403 1.9.808 2.414.476.14.085-2.392-.006-3.607-.133-3.634z" style="fill:#252331;stroke-width:3.77952743" transform="scale(.26458)"/></svg>