<svg xmlns="http://www.w3.org/2000/svg" width="756.658" height="78.647" viewBox="0 0 200.199 20.809"><path d="M124.821 57.675V48.15l.079 4.679.079 4.68-.079 4.845-.078 4.846zm-46.09 4.762-.005-1.058.12.46.12.46-.114.598-.115.599-.006-1.059zm1.323 0-.005-1.058.12.46.12.46-.114.598-.116.599-.005-1.059zm-2.528-2.177 1.11-.1.1-1.243.098-1.242.047 1.389.048 1.389-1.257-.046-1.257-.047zm2.574-.16-.135-.353.09-2.227.09-2.227.053 2.428.054 2.428.463.121.463.121-.471.031-.472.03zm121.668-.705v-1.191l.114.595.115.596-.115.595-.114.595zm-2.921 0v-.927l.12.464.122.463-.121.463-.121.463zM98.045 58.154l.463-.121.463.12.463.122h-1.852zm-.09-1.488.217-.216 1.16.088 1.16.088-1.376.128-1.376.127zm40.505-2.034-1.984-.17 2.05-.047 2.05-.048v.53l-.065-.048-.066-.048zm-84.84-4.366.002-2.116.101 1.131.102 1.132-.104.985-.103.985.002-2.117zm21.96 0 .002-2.116.102 1.131.101 1.132-.103.985-.103.985.001-2.117zm120.386 0 .002-2.116.101 1.131.102 1.132-.104.985-.103.985.002-2.117zm-79.642-.132V48.15l.104.992.104.992-.104.992-.104.992zm109.22-2.579-.036-.859-39.357-.068-39.356-.068 39.365-.065 39.365-.065.145.378.145.377-.118.615-.117.614zM50.4 46.496l24.784-.069 24.958.07 24.958.068H25.615zm80.72 0 4.695-.078 4.697.078 4.696.08h-18.785z" style="fill:#a8a8a8;stroke-width:1" transform="translate(-25.615 -46.391)"/><path d="M145.193 56.881V48.15l.08 4.448.08 4.449-.08 4.283-.08 4.282zm1.588 0V48.15l.08 4.448.079 4.449-.08 4.283-.08 4.282zm44.331 5.669v-.133l1.323-1.303 1.323-1.303v.265l-1.323 1.303-1.323 1.303zm2.58-.436.86-.107.86.107.86.106h-3.44zm-117.48-.794.853-.106.998.104.998.104-1.852.002-1.852.002.854-.106zm142.152-.62v-.133l1.456-1.437 1.455-1.437v.264l-1.455 1.438-1.456 1.437zm-185.29-1.518-.712-.742v-.368l.596.03.595.031-.49.126-.488.126.737.77.737.769h-.265zm185.555-.846-.661-.212.727-.026.728-.026v.529l-.066-.027-.067-.026zm-7.108-.595-.036-.728 4.035.059 4.035.058-3.885.081-3.885.08-.114.59-.114.587zm-20.232-.11-.177-.177.004-.286.004-.287.195.3.194.3.53.132.528.133-.55.03-.552.031zm28.398-1.544-1.437-1.455h.265l1.437 1.455 1.437 1.455h-.265zm-187.325.976v-.215l.86-.777.86-.778-.77.853-.77.852 3.813.082 3.813.081-3.903.059-3.903.058zm22.016-5 .716-.11.091-1.902.091-1.901.053 2.05.052 2.05-.86-.039-.86-.04zm19.634-.17-.137-.36.095-1.691.095-1.692.05 1.9.052 1.901.727.11.728.11-.736.04-.736.04zm20.38.017-.144-.376.095-1.692.094-1.692.051 1.918.051 1.918h1.3l.095-1.786.095-1.786-.017 1.852-.017 1.852-.73.084-.729.084zm20.586.158.464-.12.463.12.463.121H114.515zm40.746 0 .463-.12.463.12.463.121h-1.852zm20.373 0 .463-.12.463.12.463.121h-1.852zm20.752-.005.59-.11.096-1.77.094-1.769-.017 1.852-.017 1.852-.669.028-.669.027.592-.11zm-71.552-5.55.463-.122.463.121.463.121h-1.852zm20.105 0 .46-.12.599.114.598.115-1.058.006-1.058.005z" style="fill:#5f5f5f;stroke-width:1" transform="translate(-25.615 -46.391)"/><path d="M90.306 62.834v-.53h1.588v-5.056l-.792.467-.79.468-.328-.328-.327-.327 1.184-1.04 1.185-1.04.595-.01.596-.012v6.879h1.322v1.058H90.306zm6.443.266-.568-.229-.156-.253-.157-.253.377-.313.377-.313.56.3.559.299.706-.083.706-.082.393-.703.392-.703-.312-.686-.313-.686h-2.99l.182-1.39.18-1.389.147-.595.146-.595h3.95l-.088.463-.087.463-1.453.132-1.453.132-.083.86-.083.86h1.842l.429.165.428.164.41.794.41.794-.164.878-.164.877-.806.678-.805.677-.971-.016-.972-.017zm13.93-.266v-.53h1.588v-5.056l-.792.467-.79.468-.328-.328-.327-.327 1.184-1.04 1.185-1.04.595-.01.595-.012v6.879h1.323v1.058H110.68zm6.33-.244-.774-.774v-2.104l.867-1.283.866-1.283.639-.86.638-.86h1.553l-.363.506-.363.506-.835 1.021-.834 1.022H120.426l.536.484.535.484.166.754.165.754-.428.902-.428.902-.66.301-.662.301h-1.868zm3.107-.977.453-.692-.39-.697-.39-.697-.572-.083-.573-.083-.543.29-.543.291v1.728l.318.317.317.318h1.47z" style="fill:#fe0909;stroke-width:1" transform="translate(-25.615 -46.391)"/><path d="M151.425 62.834v-.53H153.012v-5.056l-.79.467-.792.468-.327-.328-.328-.327 1.185-1.04 1.185-1.04.595-.01.595-.012v6.879h1.323v1.058H151.425zm6.747.224-.53-.29-.33-.414-.33-.415v-1.712l.642-.506.643-.505-.51-.438-.511-.437v-1.818l.697-.549.697-.548h1.974l.697.548.697.549v1.775l-.43.431-.431.43.563.525.563.525v1.855l-.65.65-.65.65-1.136-.009-1.136-.008-.53-.29zm2.46-1.07.318-.318v-1.463l-.54-.289-.538-.288-.586.182-.585.183-.195.295-.194.295-.004.543-.004.542.318.317.317.318h1.376l.317-.318zm.063-3.934.292-.547-.421-.644-.422-.643h-.552l-.512.273-.511.274V58.248l.176.176.176.177H160.402zm10.838 4.78v-.53h1.588v-5.056l-.791.467-.792.468-.327-.328-.327-.327 1.184-1.04 1.185-1.04.595-.01.596-.012v6.879h1.323v1.058h-4.234zm6.512.199.193-.331 1.013-1.228 1.013-1.227v-.095l-.001-.096-1.092-.014-1.093-.014-.494-.61-.495-.611v-1.834l.774-.774.773-.773H180.834l.807.806.806.807-.128 1.134-.128 1.135-1.368 2.027-1.368 2.028H177.852zm2.696-4.22.317-.318v-1.376l-.317-.317-.318-.318h-1.376l-.317.318-.318.317v1.376l.318.317.317.318h1.376z" style="fill:#0909fe;stroke-width:1" transform="translate(-25.615 -46.391)"/><path d="M131.052 60.717v-.529H132.639V55.161h-.464l-.33.397-.329.397h-.672l-.134-.35-.134-.349 1.2-.973 1.201-.974h.985v6.88h1.323v1.058H131.052zm6.35.412v-.155l1.587-3.167 1.588-3.167v-.273H136.608V53.31h5.292v1.278l-1.654 3.264-1.653 3.263-.596.085-.595.084z" style="fill:#007f00;stroke-width:1" transform="translate(-25.615 -46.391)"/><path d="M124.967 57.675v-9.393h-8.732v3.704H114.648v-3.704H95.862v3.704H94.54v-3.704H75.49v3.704h-1.322v-3.704h-19.05v3.704h-1.323v-3.704H25.748V46.695h199.76V48.282h-28.046v3.704h-1.323v-3.704h-18.785v3.704H175.767v-3.704H156.98v3.704H155.394v-3.704h-8.773l.087 9.393.087 9.393h-21.828zm20.372-.794v-8.599h-18.785V65.48h18.785zM49.56 62.834v-.53h1.588v-5.026h-.465l-.329.397-.33.397h-.672l-.134-.35-.134-.35 1.2-.973 1.201-.973h.986v6.879h1.323v1.058H49.56Zm6.33-.244-.773-.774v-.569h.976l.479.529.479.529h1.44l.316-.38.317-.382-.086-.743-.085-.744-.86-.253-.86-.253v-.618l.787-.158.787-.157.168-.673.17-.673-.327-.393-.327-.394h-1.504l-.283.53-.283.528h-1.04v-.485l.164-.429.165-.428.748-.387.749-.387h1.542l.697.548.698.549v1.783l-.576.403-.576.404.708.557.708.557v1.589l-.773.774-.774.773h-2.198zm14.043.244v-.53h1.588v-5.026h-.465l-.33.397-.328.397h-.673l-.134-.35-.134-.35 1.2-.973 1.201-.973h.986v6.879h1.323v1.058h-4.234zm8.996-.53v-1.057h-3.704v-.961l1.786-2.42 1.786-2.42.595-.01.595-.01V60.453H81.046v.794H79.987v2.116H78.93zm0-3.624v-1.773l-.219.252-.218.251-.972 1.359-.972 1.358v.326H78.929zm112.183 4.392v-.291l1.752-1.892 1.751-1.891.249-.654.249-.654-.275-.603-.275-.603h-1.594l-.33.53-.331.528h-.931v-.818l.65-.649.649-.65h2.069l.697.55.697.548v1.96l-.435.654-.436.654-1.208 1.257-1.208 1.257h3.552v1.058h-5.292zm7.908-.106-.69-.375-.363-.87-.361-.871v-2.911l.352-.847.352-.847.625-.41.625-.41h1.895l.631.632.631.63.31 1.153.31 1.152-.15 1.094-.149 1.093-.326.715-.326.715-.729.377-.729.377-.608-.01-.609-.01zm2.537-1.442.403-.78-.004-1.402-.004-1.403-.333-.661-.332-.662-.86-.083-.86-.083-.391.934-.39.935v2.151l.382.917.384.918h1.6zM31.89 59.32l-1.38-1.397v-.531l1.453-1.435 1.453-1.435.32.32.319.318-.847.873-.846.873v.372h7.673v1.117l-3.836-.1-3.837-.098v.246l.824.85.823.85-.177.287-.178.287h-.384zm186.043 1.007-.186-.486.838-.749.838-.748v-.172l-3.837.115-3.836.116v-1.125H219.527l-.846-.873-.846-.872v-.605l.22-.136.218-.135 1.501 1.517 1.501 1.517-1.577 1.561-1.578 1.561z" style="fill:#040404;stroke-width:1" transform="translate(-25.615 -46.391)"/></svg>