<svg xmlns="http://www.w3.org/2000/svg" width="755" height="77.59" viewBox="0 0 199.76 20.529"><path d="M99.219 11.07V1.611h-8.731V5.58H88.9V1.611H70.402l-.077 1.919-.078 1.918h-1.588l-.077-1.918-.078-1.919H49.742v4.004l-.728-.084-.728-.083-.077-1.918-.078-1.919H29.657l-.078 1.919-.078 1.918-.728.083-.727.084V1.611H0V.024L49.477.012 98.954 0h22.225l39.29.012 39.291.012V1.61h-27.758l-.077 1.919-.078 1.918-.728.083-.727.084V1.611h-18.786V5.58H150.02V1.611h-18.786V5.58H129.646V1.611H121.179V20.53H99.22zm20.108-.86V1.611h-18.52V18.81h18.52zm-95.514 5.953v-.529H25.4v-5.002l-.782.449-.783.449-.342-.347-.342-.347 1.19-1.032 1.191-1.033.596-.008.595-.008v6.844l.725.084.726.083.087.464.088.463h-4.536zm6.205-.12-.65-.65v-.834l.405-.155.404-.155.641.693.642.692h1.046l.43-.43.43-.43-.08-.562-.08-.562-.86-.379-.86-.378v-.641l.653-.164.654-.164.282-.526.281-.526-.283-.53-.283-.529h-1.266l-.537.683-.538.683-.474-.097-.474-.097.08-.52.08-.52.662-.595.663-.595h2.293l.611.495.612.495v1.982l-.471.345-.472.344.55.551.551.55-.008.86-.008.86-.323.42-.322.42-.578.308-.578.308h-2.175Zm14.167.12v-.529h1.588v-5.002l-.782.449-.783.449-.342-.347-.342-.347 1.19-1.032 1.191-1.033.596-.008.595-.008v6.844l.725.084.726.083.087.464.088.463h-4.537zm8.996-.384v-.914l-1.758-.079-1.758-.078-.264-.42-.263-.42 1.921-2.556 1.922-2.557h1.259v4.812l.529.138.529.139v.996H54.24V16.693H53.18zm-.007-3.65-.007-1.654-.768.926-.768.926-.43.728-.43.727h2.41zm-47.163.388-1.514-1.529L6.06 9.443 7.62 7.898l.291.18.291.18v.6l-.71.742-.712.743h7.508v1.322H6.78l.746.778.745.778-.158.413-.159.413h-.43Zm185.93 1.242-.178-.287.876-.903.875-.904h-7.776v-1.322h7.776l-.875-.904-.876-.903.178-.287.178-.288h.648l1.38 1.398 1.38 1.397v.531l-1.397 1.38-1.398 1.38h-.613z" style="fill:#0a0a0a;stroke-width:1"/></svg>