<svg xmlns="http://www.w3.org/2000/svg" width="756.261" height="78.501" viewBox="0 0 200.094 20.77"><path d="M138.866 61.66 138.803 53l-9.326-.073-9.327-.073 9.335-.063 9.335-.062.128.333.128.333-.074 8.464-.074 8.464zm-65.05 5.225.032-1.056.397-.028.397-.027-.316.108-.316.108-.112.975-.113.976zm-4.95-1.105-.177-.176.004-.287.004-.286.201.316.201.317 1.713.095 1.713.096-1.742.05-1.742.052zm-41.463-.43.358-.473-.835-.862-.835-.862v-.371h.617l-.18.18-.182.182.853.88.852.88-.502.46-.503.46zm42.873-.663v-.211l.992.098.993.098.264.092.265.093-1.257.02-1.257.021zm3.495-2.368.055-2.58.087 2.43.087 2.43.453.119.453.119-.595.03-.595.031zm18.003.28.463-.12.463.12.463.121H91.31zm121.642-1.802-1.705-1.72h.265l1.704 1.72 1.705 1.72h-.265zm-187.325.978v-.212l.992-.912.992-.912-.883.962-.883.963.354.141.354.141-.463.021-.463.021zm65.593-.664.216-.215 1.16.088 1.161.088-1.376.127-1.377.128zm39.652-1.963 1.131-.102.986.104.985.103-2.117-.001-2.117-.002 1.132-.102zm-84.078-4.301v-1.85L33.3 52.926l-13.957-.07 14.089-.065 14.09-.063v3.968h-.265zm20.423.067-.05-1.915-9.327-.073-9.327-.073 9.335-.063 9.335-.062.138.358.137.359-.095 1.692-.095 1.692zm1.59-.136-.053-2.05h19.05l-.053 2.05-.052 2.05-.092-1.918-.09-1.918H69.505l-.092 1.918-.09 1.919zm20.372 0-.052-2.05 9.459.062 9.459.063-9.315.073-9.316.073-.09 1.915-.092 1.915zm99.96.07v-1.85l-9.326-.072-9.327-.073 9.46-.063 9.458-.062v3.968h-.265zm-77.602-2.052 2.17-.09 2.328.089 2.328.088h-4.498l-4.498.001zm30.705 0 2.183-.09 2.183.09 2.182.088h-8.731zm12.55-.002 4.68-.078 4.845.078 4.846.079h-19.05zm50.14 0 13.808-.071.117-.858.117-.857-.034.926-.035.926-13.89.003-13.891.004z" style="fill:#9a9a9a;stroke-width:1" transform="translate(-19.344 -51.008)"/><path d="M84.035 67.28v-.53H85.622v-5.056l-.791.467-.791.467-.327-.327-.328-.327 1.185-1.04 1.184-1.04.596-.011.595-.012v6.88h1.323v1.058H84.035zm6.443.266-.568-.23-.157-.252-.156-.254.377-.312.377-.313.559.299.56.3.705-.083.706-.083.393-.703.393-.703-.313-.686-.312-.686h-2.99l.181-1.389.181-1.389.146-.595.147-.596h3.95l-.088.463-.088.463-1.453.133-1.453.132-.083.86-.083.86h1.842l.429.164.428.164.41.794.411.794-.164.878-.165.878-.805.677-.805.678-.972-.017-.972-.017zm13.93-.266v-.53H105.995v-5.056l-.791.467-.791.467-.328-.327-.327-.327 1.185-1.04 1.184-1.04.596-.011.595-.012v6.88h1.323v1.058H104.408zm6.33-.245-.774-.773v-2.104l.866-1.284.866-1.283.64-.86.638-.86h1.552l-.363.506-.363.506-.834 1.022-.835 1.021h2.024l.535.485.535.484.166.754.166.754-.428.902-.428.901-.661.302-.662.3h-1.867zm3.107-.976.453-.692-.39-.698-.39-.697-.573-.082-.573-.083-.543.29-.542.29v1.729l.317.317.318.318H113.39z" style="fill:#fe0909;stroke-width:1" transform="translate(-19.344 -51.008)"/><path d="M140.51 61.459v-8.6l.079 4.3.08 4.3-.08 4.3-.08 4.299zm-15.73 3.969v-.53h1.588v-5.057l-.805.476-.805.475-.233-.376-.233-.377 1.104-.999 1.104-.999.596-.01.595-.012v6.88h1.323v1.058h-4.234zm6.35.41v-.154l1.588-3.167 1.587-3.167v-.272h-3.968V58.019H135.95l-.179.714-.179.713-1.635 3.19-1.636 3.188-.595.085-.596.085zm80.963-.428v-.133l1.455-1.437 1.455-1.437v.265l-1.455 1.437-1.455 1.437zM191.28 54.844V52.86l.104.992.103.992-.103.992-.104.993z" style="fill:#007f00;stroke-width:1" transform="translate(-19.344 -51.008)"/><path d="M118.695 62.253v-9.525h-8.731v3.968h-1.588v-3.968H89.591v3.968h-1.323v-3.968h-19.05v3.968h-1.323v-3.968H49.11v3.968h-1.588v-3.968H19.476V51.14h199.76v1.582l-13.956.07-13.957.068-.078 1.918-.077 1.918h-1.3v-3.968h-18.785v3.968h-1.588v-3.968H150.71v3.968h-1.588v-3.982l-4.3.073-4.299.073v18.918h-21.828zm20.373-.794v-8.731h-18.785V70.19h18.785zm-95.78 5.82v-.528h1.588v-5.057l-.805.475-.805.475-.232-.376-.233-.377 1.104-.999 1.104-.999.595-.01.595-.012v6.88h1.323v1.058H43.29zM50 67.5l-.565-.273-.349-.652-.349-.652.382-.236.382-.236.679.65.678.65H52.22l.317-.38.316-.381-.085-.735-.086-.736-.86-.245-.86-.245v-.718h.977l.438-.483.438-.484v-.778l-.318-.318-.317-.317H50.758l-.428.653-.428.653-.396-.153-.396-.152v-.76l.649-.65.65-.65H52.713l.579.54.58.54V62.7l-.522.472-.522.472.654.514.654.514v1.59l-.774.773-.773.774-1.013-.018-1.012-.018zm13.662-.22v-.528H65.249v-5.057l-.805.475-.805.475-.233-.376-.232-.377 1.104-.999 1.103-.999.596-.01.595-.012v6.88h1.323v1.058H63.662Zm8.996-.528v-1.059h-3.705v-1.066l1.781-2.377 1.78-2.378h1.201V64.898h1.06v.732l-.53.139-.53.138V67.808h-1.058zm0-3.625v-1.773l-.22.251-.218.252-.972 1.358-.972 1.358v.326H72.658zm-47.171.772-1.513-1.53 1.585-1.568 1.585-1.569.32.32.32.32-.847.872-.846.873v.247l3.836-.1 3.837-.098v1.42L29.927 63l-3.837-.086v.24l.824.85.824.849-.178.287-.177.288H27Zm186.184 1.163-.177-.462.817-.842.817-.843h-7.782v-1.058l3.898.007 3.897.007-.789-.813-.788-.814v-.605l.219-.136.219-.135 1.5 1.517 1.502 1.517-1.578 1.561-1.578 1.561z" style="fill:#040404;stroke-width:1" transform="translate(-19.344 -51.008)"/></svg>