<svg xmlns="http://www.w3.org/2000/svg" width="755" height="78" viewBox="0 0 199.76 20.638"><path d="M61.59-46.224v-.53H63.176v-5.002l-.783.45-.782.448-.342-.346-.342-.347 1.19-1.033 1.191-1.032.595-.008.596-.008v6.844l.725.083.725.084.088.463.088.463h-4.537zm6.087.055-.586-.474.395-.328.394-.327.672.306.671.306.69-.173.69-.173.272-.713.27-.713-.274-.603-.275-.603h-2.99l.182-1.605.182-1.605.145-.38.145-.378H72.173v.775l-.512.274-.512.274h-2.151v1.644l.377-.145.377-.145.945.261.946.261.397.769.397.768v.872l-.41.864-.41.863-.66.301-.661.301h-2.034zm14.285-.055v-.53h1.588v-5.002l-.783.45-.782.448-.342-.346-.342-.347 1.19-1.033 1.19-1.032.596-.008.596-.008v6.844l.725.083.725.084.088.463.088.463h-4.537zm6.33-.244-.774-.774v-1.919l.437-.845.437-.845 1.05-1.39 1.05-1.391H92.047l-.192.33-.193.331-.988 1.197-.988 1.196H91.71l.546.494.545.493.161.862.162.862-.32.623-.32.623-.564.457-.564.457-1.145.006-1.145.006zm3.048-.873.412-.588v-.676l-.53-.53-.529-.529h-1.02l-.416.416-.416.416v1.444l.318.317.317.318h1.452z" style="fill:#fe0909;stroke-width:1" transform="translate(2.97 62.364)"/><path d="M96.25-51.251v-9.525h-8.732V-56.807H85.931V-60.776H67.41V-56.807h-1.852v-3.976l-9.327.07-9.326.07-.078 1.917-.078 1.919h-1.564V-60.776h-18.52V-56.807H25.1l-.078-1.919-.078-1.918-13.956-.068-13.957-.069V-62.364h199.76v1.588H169.01V-56.807h-1.564l-.078-1.919-.078-1.918-9.326-.07-9.327-.069v3.976H147.05V-60.776h-18.786V-56.807H126.677V-60.776H118.21v19.05H96.25Zm20.108-.926v-8.599h-18.52v17.198h18.52zm-95.515 5.953v-.53h1.588v-5.002l-.782.45-.783.448-.342-.346-.342-.347 1.19-1.033 1.191-1.032.595-.008.596-.008v6.844l.725.083.725.084.088.463.088.463h-4.537zm6.206-.12-.65-.65v-.834l.405-.155.403-.155.642.692.642.693h1.046l.43-.43.43-.43-.08-.562-.08-.562-.86-.379-.86-.378v-.641l.653-.164.654-.165.281-.526.282-.526-.283-.529-.283-.529h-1.266l-.538.683-.537.683-.474-.097-.474-.098.08-.52.08-.519.662-.595.663-.595h2.234l.557.39.558.391.17.673.168.673-.31.59-.311.59-.256.167-.257.167.56.56.561.561-.008.86-.009.86-.322.42-.322.42-.578.307-.578.308h-2.176Zm14.167.12v-.53h1.588v-5.002l-.783.45-.782.448-.342-.346-.342-.347 1.19-1.033 1.191-1.032.595-.008.596-.008v6.844l.725.083.725.084.088.463.088.463h-4.537zm8.996-.385v-.914l-1.758-.078-1.759-.078-.263-.42-.264-.42 1.922-2.556 1.922-2.557h1.258v4.812l.53.138.529.139v.996H51.27v1.852h-1.058Zm-.007-3.65-.007-1.653-.768.926-.769.926-.43.727-.43.728h2.411zm-47.163.389L1.528-51.4l1.562-1.545L4.65-54.49l.291.18.291.18v.601l-.711.742-.711.742h7.507v1.323H3.811l.745.778.746.778-.159.413-.158.412h-.43Zm185.93 1.242-.178-.288.876-.903.875-.903H182.768v-1.323H190.545l-.875-.903-.876-.903.178-.288.178-.287h.648l1.38 1.397 1.38 1.398v.53l-1.397 1.38-1.398 1.38h-.613z" style="fill:#080808;stroke-width:1" transform="translate(2.97 62.364)"/></svg>