<svg xmlns="http://www.w3.org/2000/svg" viewBox="0 0 82.815 32.544" height="123" width="313"><path d="m-163.188 90.627 9.326-.074V71.252l-9.326-.075-9.327-.075 9.393.005 9.393.006v19.579l-9.393.005-9.393.005 9.327-.075zm15.743 0 4.696-.08 4.696.08 4.697.078h-18.786zm15.664-.135-.127-.332.07-9.524.07-9.523 9.26-.005 9.26-.006-9.194.075-9.195.075v19.3l9.327.074 9.327.073-9.335.062-9.335.063-.128-.332zm29.447.136 9.327-.075V71.252l-9.327-.075-9.327-.075 9.393.005 9.393.006v19.579l-9.393.005-9.393.005 9.327-.075zm-35.321-6.286-.005-1.059.12.46.12.46-.114.599-.116.598-.005-1.058zm-3.507-2.234v-.248l.306-.19.305-.188-.179.29-.179.29 1.13.101 1.131.102-1.257.046-1.257.046zm3.495-2.33.055-2.58.087 2.43.087 2.43.453.119.454.12-.596.03-.595.03zm37.323 1.521v-1.19l.115.595.115.595-.115.595-.115.596zm-20.504-2.84 1.132-.101.985.103.985.103-2.117-.001-2.116-.002 1.131-.102zm-26.597-7.412 4.696-.079 4.696.079 4.697.079h-18.786zm12.94-6.483-.042-.992.992.042.992.043-.844.105-.844.106-.106.844-.105.844zm-2.596-1.136-.157-.408.165-.165.165-.165v.849l.86.106.86.107-.869.042-.868.043zm2.59-1.358-.036-.84-.463-.121-.463-.121.471-.031.472-.03.145.377.144.377-.117.615-.117.615z" style="fill:#969696;stroke-width:1" transform="translate(173.97 -59.868)"/><path d="m-151.903 65.554-.664-.664.162-.262.162-.262h.645l.453.529.453.53h.761l.416-.417.416-.415v-.651l-.318-.317-.317-.318h-.953v-.757l.596-.084.595-.085V60.794l-.544-.078-.543-.078-.49.541-.49.54h-.711v-.7l.612-.576.613-.575h1.868l.438.484.438.484v1.348l-.4.332-.4.332.444.325.444.324v1.745l-.603.488-.602.488h-1.818zm-3.81-1.056v-.926h-1.588v-.794H-155.714V61.191h.794v1.554l.84.083.84.083.108.33.108.331h-1.896v1.852h-.794z" style="fill:#ec272d;stroke-width:1" transform="translate(173.97 -59.868)"/><path d="M-127.403 84.739v-.53H-125.816v-5.056l-.79.467-.792.467-.327-.327-.328-.327 1.185-1.04 1.185-1.04.595-.011.595-.012v6.88h1.323v1.058H-127.403zm6.35.41v-.154l1.587-3.167 1.588-3.167v-.272H-121.847V77.33h5.614l-.18.714-.178.713-1.636 3.19-1.636 3.189-.595.084-.595.085zm-20.445-1.924.854-.106.998.104.998.104-1.852.002-1.852.002.854-.106zm9.967-17.67-.663-.665.162-.262.162-.262h.645l.453.529.453.53h.761l.416-.417.416-.415v-.651l-.318-.317-.317-.318h-.953v-.757l.596-.084.595-.085V60.794l-.583-.083-.582-.083-.341.546-.341.546h-.931v-.702l.612-.575.613-.575h1.868l.438.484.438.484v1.348l-.38.315-.379.315.535.534.534.534-.166.705-.167.705-.547.463-.547.463h-1.818zm-3.81-1.057v-.926H-136.928v-.794H-135.341V61.191h.794v1.554l.84.083.84.083.108.33.108.331h-1.896v1.852h-.794z" style="fill:#389b38;stroke-width:1" transform="translate(173.97 -59.868)"/><path d="M-173.97 80.902v-11.51h82.815v23.02h-82.815zm20.373 0V70.98h-18.785v19.844h18.785zm-14.287 3.837v-.53H-166.297V79.183h-.464l-.33.397-.33.397h-.684l-.111-.33-.112-.331 1.082-.982 1.081-.981.596-.01.595-.012v6.88h1.323v1.058H-167.884zm6.35 0v-.53H-159.947V79.183h-.464l-.33.397-.33.397h-.684l-.111-.33-.112-.331 1.082-.982 1.081-.981.596-.01.595-.012v6.88h1.323v1.058H-161.534zm28.045-3.837V70.98h-18.52v19.844h18.52zm-14.287 3.837v-.53H-146.19V79.183h-.464l-.33.397-.329.397h-.685l-.111-.33-.111-.331 1.081-.982 1.082-.981.595-.01.595-.012v6.88h1.323v1.058H-147.776zm8.996-.53v-1.058h-3.704v-1.066l1.78-2.377 1.78-2.378h1.202V82.357h1.058v.794h-1.058v2.117h-1.058zm0-3.624v-1.773l-.219.251-.219.252-.972 1.358-.972 1.358v.326H-138.78zm25.664.317V70.98H-131.9v19.844h18.785zm20.373 0V70.98h-18.785v19.844h18.785zm-15.081 3.94v-.424l1.82-1.89 1.82-1.89.18-.586.178-.585-.289-.54-.288-.538h-1.557l-.423.645-.423.646-.377-.145-.376-.145v-.76l.649-.65.65-.65h2.069l.697.549.697.548V80.276l-.295.577-.295.578-1.31 1.35-1.311 1.35 1.672-.027 1.671-.027.085.596.084.595h-5.328zm7.657.037-.676-.369-.294-.645-.294-.645-.177-1.178-.177-1.177.306-1.136.306-1.137.631-.63.631-.632H-98l.535.286.534.286.5 1.103.502 1.103.005 1.12.006 1.119-.43 1.074-.43 1.073-.747.387-.748.387-.608-.01-.609-.011zm2.523-1.45.403-.78v-2.7l-.403-.78-.404-.78h-1.601l-.383.917-.384.918v2.15l.384.918.383.918h1.6z" style="fill:#060f06;stroke-width:1" transform="translate(173.97 -59.868)"/></svg>