<svg xmlns="http://www.w3.org/2000/svg" viewBox="0 0 82.826 32.544" height="123" width="313.045"><path d="m-157.486 75.126-.545-.693.144-.233.145-.234h.645l.453.53.453.529h.76l.417-.416.415-.416v-.453l-.415-.416-.416-.416h-.756v-.757l.595-.084.596-.085.081-.705.082-.705-.595-.188-.594-.189-.456.563-.455.563h-.841v-.794l.529-.53.529-.529h2.034l.438.484.438.484V71.785l-.38.315-.378.314.511.512.512.511V74.52l-.65.649-.65.65h-2.101zm-3.727-1.027v-.926h-1.588v-.794h1.588v-1.852h.794v1.852h1.852v.76l-.86.083-.86.083-.083.86-.083.86h-.76z" style="fill:#ec272d;stroke-width:1" transform="translate(179.47 -69.468)"/><path d="m-117.005 75.126-.545-.693.145-.233.144-.234h.645l.453.53.453.529h.761l.416-.416.416-.416v-.453l-.416-.416-.416-.416h-.756v-.757l.595-.084.596-.085.081-.705.082-.705-.594-.188-.595-.189-.455.563-.456.563h-.841v-.794l.529-.53.529-.529h2.035l.437.484.438.484V71.785l-.379.315-.379.314.511.512.512.511V74.52l-.65.649-.649.65h-2.102zm-3.727-1.027v-.926H-122.319v-.794H-120.732v-1.852h.794v1.852h1.852v.76l-.86.083-.86.083-.083.86-.083.86h-.76z" style="fill:#1010fe;stroke-width:1" transform="translate(179.47 -69.468)"/><path d="m-159.298 90.705-.063-9.853-9.327-.073-9.326-.073 9.335-.062 9.335-.063.127.332.127.332-.073 9.656-.073 9.656zm22.025-.202.005-9.79 9.392-.005 9.393-.005-9.323.075-9.323.074-.075 9.72-.074 9.72.005-9.79zm38.829.202-.063-9.853-9.326-.073-9.327-.073 9.335-.062 9.335-.063.127.332.127.332-.073 9.656-.072 9.656zm-59.202-.202.005-9.79h18.785l.005 9.658.005 9.657-.074-9.591-.075-9.591H-157.502l-.075 9.723-.074 9.723.005-9.79zm60.846 0v-9.79l.079 4.812.078 4.81-.078 4.98-.079 4.977zm-16.524 3.816v-.132l1.323-1.303 1.323-1.303v.265L-112 93.149l-1.323 1.303zm2.574-.435.854-.107.998.105.998.104-1.852.002-1.852.002.854-.106zm-36.374-.796.992-.104.992.104.992.104h-3.968zm41.288-1.924V89.71l.11.728.11.727-.11.728-.11.727zm-40.825.847V91.8l.992.098.992.098.265.093.264.092-1.256.02-1.257.022zm38.426-2.699v-.926l.12.463.122.463-.121.463-.121.463zm-4.912.088-.177-.176.004-.287.004-.286.195.3.194.3.53.132.529.132-.552.031-.55.03zm-60.188-10.34 4.68-.079 4.845.079 4.846.078h-19.05zm20.258 0 4.828-.079 4.83.079 4.828.078H-157.906zm20.223 0 4.68-.079 4.845.079 4.846.078h-19.05zm20.373 0 4.68-.079 4.845.079 4.846.078h-19.05z" style="fill:#5d5d5d;stroke-width:1" transform="translate(179.47 -69.468)"/><path d="M-132.903 94.604v-.53h1.588v-5.002l-.783.45-.782.448-.342-.347-.342-.346 1.19-1.033 1.191-1.033.595-.008.596-.007v6.879H-128.405v1.058h-4.498zm7.835-2.766 1.72-3.296-1.933-.078-1.933-.078-.085-.595-.084-.595h5.593v.713l-1.725 3.612-1.724 3.612h-1.549zm-12.045-16.712-.545-.693.144-.233.145-.234h.644l.454.53.453.529h.76l.417-.416.415-.416v-.453l-.415-.416-.416-.416h-.756v-.757l.595-.084.595-.085.082-.705.081-.705-.594-.188-.594-.189-.456.563-.456.563h-.84v-.794l.528-.53.53-.529h2.034l.438.484.438.484V71.785l-.38.315-.378.314.511.512.512.511V74.52l-.65.649-.65.65H-136.568zm-3.727-1.027v-.926h-1.588v-.794h1.588v-1.852h.794v1.852h1.852v.76l-.86.083-.86.083-.083.86-.083.86h-.76z" style="fill:#389b38;stroke-width:1" transform="translate(179.47 -69.468)"/><path d="M-179.47 90.569V79.126l41.294.053 41.292.054.049 11.39.048 11.39h-82.682zm20.31 0-.069-9.856-9.326-.07-9.327-.069v19.851h18.792zm-14.224 4.035v-.53H-171.797v-5.026h-.464l-.33.396-.329.397h-.672l-.134-.349-.134-.35 1.2-.973 1.201-.973h.985v6.879h1.323v1.058H-173.384zm6.35 0v-.53H-165.447v-5.026h-.464l-.33.396-.329.397h-.672l-.134-.349-.134-.35 1.2-.973 1.201-.973h.985v6.879h1.323v1.058H-167.034zm28.178-4.101v-9.79h-18.785l-.07 9.524-.07 9.524.13.335.128.335 9.334-.069 9.333-.07zm-14.42 4.1v-.528h1.588V89.048h-.465l-.329.396-.33.397h-.672l-.134-.349-.134-.35 1.2-.973 1.201-.973h.986v6.879h1.323v1.058h-4.234zm8.996-.528v-1.059h-3.704v-.96l1.786-2.42 1.786-2.421.595-.01.596-.01v5.028h1.058v.793h-1.058v2.117H-144.28zm0-3.572v-1.72h-.188l-1.097 1.563-1.096 1.564v.313H-144.28zm25.665-.004v-9.925l-9.327.07-9.326.07-.07 9.855-.07 9.856h18.793v-9.926zm20.31.07-.07-9.856-9.326-.07-9.327-.069v19.851h18.792zm-15.019 4.273v-.292l1.752-1.891 1.751-1.892.249-.654.249-.654-.275-.602-.275-.603h-1.594l-.33.529-.331.53h-.931v-.819l.65-.65.649-.648h2.069l.697.548.697.548v1.96l-.435.655-.436.654-1.208 1.257-1.208 1.257h3.552v1.058h-5.292zm7.644-.106-.691-.375-.362-.871-.362-.87v-2.911l.363-.872.362-.873.743-.384.744-.384h1.638l.63.63.632.632.31 1.152.31 1.152-.15 1.093-.15 1.094-.325.715-.326.715-.73.377-.728.377-.609-.01-.608-.011zm2.536-1.442.404-.78-.004-1.403-.004-1.402-.333-.661-.333-.662-.86-.083-.86-.084-.39.935-.391.935v2.151l.383.917.383.918h1.601z" style="fill:#020202;stroke-width:1" transform="translate(179.47 -69.468)"/></svg>