<svg xmlns="http://www.w3.org/2000/svg" viewBox="0 0 83.079 32.679" height="123.512" width="314"><path d="m-163.742 50.875-.544-.692.144-.234.144-.233h.645l.453.53.453.528h.761l.416-.416.416-.415v-.454l-.416-.416-.416-.415h-.756V47.9l.596-.085.595-.084.082-.705.081-.705-.594-.189-.595-.188-.455.562-.456.563h-.841v-.794l.529-.529.53-.529h2.034l.438.484.438.484v1.348l-.38.315-.379.315.512.511.511.512v1.082l-.65.65-.649.649H-163.197zm-3.727-1.027v-.926H-169.056v-.794H-167.47v-1.852h.794v1.852h1.852v.76l-.86.084-.86.082-.083.86-.082.86h-.76z" style="fill:#ec272d;stroke-width:1" transform="translate(185.857 -45.218)"/><path d="m-165.174 77.828 20.682-.07 20.857.07 20.857.07h-83.08zm-9.772-1.587 9.323-.074.073-9.852.072-9.852.063 9.988.063 9.988-9.459-.063-9.459-.062zm11.039-.13-.129-.336.073-9.524.073-9.524.063 9.724.062 9.723h18.515l.074-9.59.074-9.592-.005 9.657-.005 9.658-9.333.07-9.334.069-.128-.336zm20.314-9.66.062-9.988.073 9.852.073 9.852 9.323.073 9.324.074-9.46.062-9.458.063zm29.5 9.79 9.324-.074.073-9.852.073-9.852.062 9.988.063 9.988-9.459-.063-9.459-.062zm11.038-9.724v-9.79l.078 4.812.078 4.811-.078 4.978-.078 4.979zm-16.524 3.552v-.132l1.323-1.303 1.323-1.303v.264l-1.323 1.303-1.323 1.303zm2.574-.436.854-.106.998.104.998.104-1.852.002-1.852.002.854-.106zm-36.375-.795.993-.104.992.104.992.104H-154.372zm41.289-1.924v-1.455l.11.727.11.728-.11.727-.11.728zm-40.826.847v-.212l.993.099.992.098.264.092.265.092-1.257.021-1.257.021zm38.426-2.7v-.925l.121.463.121.463-.12.463-.122.463zm-4.912.089-.176-.176.004-.287.004-.287.194.3.195.3.529.133.529.132-.551.03-.551.031z" style="fill:#5d5d5d;stroke-width:1" transform="translate(185.857 -45.218)"/><path d="M-185.725 66.385V55.008h82.682v22.754h-82.682zm20.373.132v-9.922h-18.785V76.44h18.785zm-14.288 3.836v-.529h1.588V64.797h-.464l-.33.397-.33.397h-.671l-.135-.35-.134-.349 1.201-.973 1.2-.974h.986v6.88h1.323v1.058h-4.234zm6.35 0v-.529h1.588V64.797h-.464l-.33.397-.33.397h-.671l-.135-.35-.134-.349 1.201-.973 1.2-.974h.986v6.88h1.323v1.058h-4.234zm28.179-3.836v-9.79h-18.786l-.07 9.524-.069 9.524.129.335.128.336 9.334-.07 9.334-.07zm-14.42 3.836v-.529H-157.944V64.797h-.464l-.33.397-.329.397h-.672l-.134-.35-.134-.349 1.2-.973 1.2-.974h.986v6.88h1.323v1.058H-159.53zm8.996-.529v-1.058h-3.705v-.96l1.786-2.421 1.786-2.42.596-.01.595-.01V67.972h1.058v.794h-1.058v2.116h-1.058zm0-3.572v-1.72h-.188l-1.097 1.564-1.097 1.563v.313H-150.535zm25.664.265v-9.922h-18.785V76.44h18.785zm20.373 0v-9.922h-18.785V76.44h18.785zm-15.081 4.074V70.3l1.751-1.892 1.752-1.891.248-.654.25-.654-.276-.603-.274-.603H-117.723l-.33.53-.33.529h-.932v-.818l.65-.65.65-.649h2.069l.697.548.697.549v1.96l-.436.655-.435.654-1.208 1.256-1.208 1.257h3.552V70.883h-5.292zm7.643-.105-.69-.376-.363-.87-.362-.871v-2.91l.363-.873.363-.872.743-.385.743-.384h1.638l.631.631.631.631.31 1.152.31 1.152-.15 1.094-.15 1.094-.325.715-.326.715-.729.377-.729.377-.608-.011-.609-.01zm2.537-1.442.403-.781-.004-1.402-.004-1.402-.333-.662-.332-.661-.86-.084-.86-.083-.391.935-.391.934v2.151l.383.918.384.917h1.6z" style="fill:#020202;stroke-width:1" transform="translate(185.857 -45.218)"/></svg>