<svg xmlns="http://www.w3.org/2000/svg" viewBox="0 0 199.76 20.643" height="78.022" width="755"><path d="M-213.025 24.864v-.914l-1.759-.078-1.758-.078-.264-.42-.263-.42 1.922-2.557 1.921-2.556h1.259v4.812l.529.138.53.138v.997h-1.06v1.852h-1.058zm-.007-3.65-.007-1.654-.769.926-.768.926-.43.728-.43.728h2.411zm6.357 3.65v-.914l-1.759-.078-1.758-.078-.264-.42-.263-.42 1.922-2.557 1.922-2.556h1.258v4.812l.53.138.528.138v.997h-1.058v1.852h-1.058zm-.007-3.65-.007-1.654-.769.926-.768.926-.43.728-.43.728h2.411zm14.03 3.65v-.914l-1.759-.078-1.758-.078-.263-.42-.264-.42 1.922-2.557 1.922-2.556h1.258v4.812l.53.138.528.138v.997h-1.058v1.852h-1.058zm-.007-3.65-.007-1.654-.769.926-.768.926-.43.728-.43.728h2.411zm3.449 4.09-.586-.474.394-.328.395-.327.671.306.672.306.69-.173.69-.174.271-.712.271-.713-.274-.603-.275-.603h-2.99l.182-1.605.181-1.605.146-.38.145-.378h3.912v.775l-.511.274-.512.273h-2.152v1.645l.377-.145.378-.145.945.261.945.261.398.768.397.769v.872l-.41.863-.41.864-.66.3-.662.302h-2.033zm37.304-.44v-.914l-1.759-.078-1.758-.078-.264-.42-.263-.42 1.922-2.557 1.922-2.556h1.258v4.812l.53.138.528.138v.997h-1.058v1.852h-1.058zm-.007-3.65-.007-1.654-.769.926-.768.926-.43.728-.43.728h2.411zm5.206 1.269 1.702-3.296-1.93-.078-1.929-.078-.084-.595-.085-.595h5.593v.713l-1.724 3.612-1.725 3.612h-1.52z" style="fill:#fe0c0c;stroke-width:1" transform="translate(280.23 -9.11)"/><path d="m-242.192 20.29-.07-9.46-4.167-.074-4.167-.073v3.983h-1.565l-.077-1.919-.078-1.918-13.957-.068-13.957-.069V9.11h199.76v1.588h-27.78V14.666h-1.565l-.077-1.919-.078-1.918-9.327-.07-9.326-.069v3.976h-1.588V10.697h-18.785V14.666h-1.564l-.078-1.919-.078-1.918h-18.52l-.078 1.918-.078 1.919h-1.564V10.69l-9.327.07-9.327.07-.077 1.917-.078 1.919h-1.564V10.697h-18.521V14.666h-1.852v-3.982l-4.167.072-4.168.073-.031 9.393-.032 9.392-11.011.07-11.012.069zm20.435-.998V10.69l-9.326.07-9.327.07-.07 8.532-.07 8.533h18.793zm49.477 5.572v-.914l-1.758-.078-1.758-.078-.264-.42-.263-.42 1.921-2.557 1.922-2.556h1.259v4.812l.529.138.529.138v.997h-1.058v1.852H-172.28zm-.007-3.65-.007-1.654-.768.926-.768.926-.43.728-.43.728h2.411zm3.691 3.79-.773-.773v-1.919l.437-.845.437-.845 1.05-1.39 1.05-1.391H-164.84l-.193.33-.193.331-.987 1.197-.988 1.196H-165.178l.545.494.545.493.162.862.162.862-.32.623-.32.623-.564.457-.565.457-1.144.006-1.145.006zm3.048-.872.412-.588v-.676l-.529-.53-.53-.529h-1.02l-.415.416-.416.416v1.444l.317.317.318.318h1.451zm33.75.732v-.914l-1.759-.078-1.758-.078-.263-.42-.264-.42 1.922-2.557 1.922-2.556h1.259v4.812l.528.138.53.138v.997H-130.74v1.852h-1.058zm-.007-3.65-.007-1.654-.768.926-.769.926-.43.728-.43.728h2.411zm3.567 3.915-.65-.65v-1.855l.563-.525.563-.524-.43-.431-.431-.43v-1.722l.612-.576.613-.575h2.387l.62.659.619.66v1.616l-.423.423-.423.423.537.435.538.435v2.077l-.703.605-.702.604h-2.64zm3.133-.964.264-.422-.168-.67-.169-.671-.592-.155-.592-.155-.602.394-.6.394v1.205l.329.33.329.329.768-.079.769-.078zm-.13-4.124.082-.842-.544-.292-.545-.291-.53.283-.528.283v1.48l.189.19.189.189.803-.08.803-.078zm13.81 4.823v-.914l-1.759-.078-1.758-.078-.263-.42-.264-.42 1.922-2.557 1.922-2.556h1.259v4.812l.528.138.53.138v.997H-110.368v1.852h-1.058zm-.007-3.65-.007-1.654-.768.926-.769.926-.43.728-.43.728h2.411zm4.126 4.252.204-.35 1.014-1.227 1.013-1.227v-.217l-.911.106-.91.106-.677-.676-.677-.677V19.47l.685-.814.685-.814h2.552l.713.847.713.848-.131 1.166-.132 1.166-1.32 1.889-1.32 1.889-.853.085-.853.085zm2.609-4.337.416-.416v-1.18l-.318-.317-.317-.317h-1.376l-.318.317-.317.318v1.376l.317.317.318.318h1.18zm-169.522.474-1.513-1.53 1.562-1.545 1.561-1.545.29.18.292.18v.6l-.711.743-.711.742h7.507v1.323h-7.507l.745.778.746.778-.159.413-.158.412h-.43zm185.93 1.242-.177-.288.876-.903.875-.903H-94.492v-1.323H-86.715l-.875-.903-.876-.903.178-.288.177-.287h.649l1.38 1.397 1.38 1.398v.53l-1.398 1.38-1.397 1.38h-.614z" style="fill:#0a0a0a;stroke-width:1" transform="translate(280.23 -9.11)"/></svg>