<svg xmlns="http://www.w3.org/2000/svg" viewBox="0 0 199.76 20.664" height="78.102" width="755"><path d="M-224.967 123.117v-9.528H-233.434V117.558H-235.02V113.59h-28.046V112.002l19.05-.01 19.05-.011h21.96l69.85.01 69.85.01v1.588h-27.78V117.558h-1.588V113.59h-18.786V117.558H-113.048V113.59h-18.786V117.558H-133.42V113.59h-18.786V117.558H-153.794V113.59h-18.786V117.558H-174.167V113.59h-18.498l-.077 1.919-.078 1.918h-1.588l-.077-1.918-.078-1.919h-8.483l.064 9.46.063 9.458-11.024.07-11.024.068zm20.373-.929v-8.599h-18.786v17.198h18.786zm49.477 5.569v-.914l-1.758-.079-1.759-.078-.263-.42-.264-.42 1.922-2.556 1.922-2.557h1.258v4.812l.53.139.529.138v.782l-.53.138-.529.138v1.791H-155.118zm-.007-3.65-.007-1.654-.768.926-.768.926-.43.728-.431.727h2.411zm3.69 3.79-.773-.773v-1.92l.438-.844.437-.846 1.05-1.39 1.05-1.39H-147.678l-.193.33-.193.33-.988 1.197-.987 1.197H-148.015l.545.493.545.493.161.862.162.862-.32.623-.32.624-.564.457-.564.457-1.145.006-1.145.006zm3.049-.873.412-.588v-.676l-.53-.529-.529-.53h-1.02l-.416.417-.416.415v1.444l.318.318.317.317h1.452zm33.75.733v-.914l-1.759-.079-1.758-.078-.264-.42-.263-.42 1.921-2.556 1.922-2.557h1.259v4.812l.529.139.529.138v.782l-.53.138-.528.138v1.791H-114.636zm-.008-3.65-.007-1.654-.768.926-.768.926-.43.728-.43.727h2.411zm3.567 3.914-.65-.65v-1.855l.564-.524.563-.525-.43-.43-.432-.431v-1.722l.613-.576.612-.575h2.387l.616.656.616.655-.024.84-.024.84-.395.395-.395.395.537.435.537.436v2.077l-.702.604-.703.605h-2.64zm3.133-.963.264-.422-.168-.671-.168-.67-.592-.156-.593-.155-.601.394-.601.394v1.205l.33.33.329.33.768-.079.768-.078zm-.129-4.125.082-.842-.545-.291-.544-.292-.53.283-.529.284v1.48l.19.19.188.188.803-.079.804-.078zm13.81 4.824v-.914l-1.759-.079-1.758-.078-.264-.42-.263-.42 1.921-2.556 1.922-2.557h1.259v4.812l.529.139.529.138v.782l-.53.138-.528.138v1.791H-94.263zm-.008-3.65-.007-1.654-.768.926-.768.926-.43.728-.43.727h2.41zm4.126 4.252.205-.35 1.013-1.227 1.013-1.228v-.217l-.91.107-.911.106-.677-.677-.677-.676v-1.836l.685-.814.685-.814h2.552l.713.848.714.848-.132 1.166-.131 1.166-1.32 1.888-1.32 1.89-.853.084-.853.085zm2.513-4.196.512-.274v-1.463l-.317-.317-.318-.318h-1.376l-.317.318-.318.317v1.376l.318.318.317.317h.988zm-169.425.332-1.514-1.529 1.562-1.545 1.562-1.545.29.18.291.18v.604l-.782.807-.782.806 3.825-.08 3.825-.08v1.351h-7.508l.746.778.745.778-.158.412-.159.413h-.43zm185.93 1.242-.177-.287.875-.903.875-.903h-7.776v-1.323h7.776l-.875-.904-.875-.903.177-.287.178-.288h.648l1.38 1.398 1.38 1.397v.531l-1.397 1.38-1.398 1.38h-.613z" style="fill:#060606;stroke-width:1" transform="translate(263.067 -111.98)"/></svg>