<svg xmlns="http://www.w3.org/2000/svg" viewBox="0 0 123.296 32.808" height="124" width="466"><path d="M-228.733 69.793v-.78l-1.521-.08-1.521-.08.029-.418.03-.42 1.418-1.895 1.42-1.896h.939v3.753l.53.139.528.138v.449l-.529.283-.529.283V70.574h-.794zm0-2.975v-1.374l-.68.91-.681.912-.255.463-.254.463h1.87zm20.373 2.975v-.78l-1.521-.08-1.522-.08.03-.418.03-.42 1.418-1.895 1.42-1.896h.939v3.753l.53.139.528.138v.449l-.529.283-.53.283V70.574h-.793zm0-2.975v-1.374l-.68.91-.681.912-.255.463-.255.463h1.871zm-26.458 2.036v-.926h-1.588v-.794h1.588v-1.852h.794v1.852h1.852v.76l-.86.083-.86.083-.083.86-.083.86h-.76zm20.373 0v-.926h-1.588v-.794h1.588v-1.852h.794v1.852h1.852v.76l-.86.083-.86.083-.083.86-.083.86h-.76z" style="fill:#fe0a0a;stroke-width:1" transform="translate(253.074 -64.224)"/><path d="M-253.074 85.522V74.013h123.295v23.019h-123.295zm20.31-.066-.07-9.723-9.326-.07-9.327-.07V95.18h18.792zm-11.05 3.903v-.53h1.588v-5.002l-.783.45-.782.448-.342-.346-.342-.347 1.19-1.033 1.19-1.033.596-.008.595-.007v6.844l.726.083.725.084.088.463.088.463h-4.537zm31.22-3.969V75.6h-18.52v19.58h18.52zm-11.374 4.024-.586-.474.395-.328.394-.327.672.306.671.306.69-.173.69-.174.272-.712.27-.713-.274-.603-.274-.603h-2.991l.182-1.605.182-1.605.145-.38.146-.378h3.912v.775l-.512.274-.512.273h-2.151v1.645l.377-.145.377-.145.945.261.946.261.397.769.397.768v.872l-.41.863-.409.864-.661.3-.661.302h-2.033zm31.748-4.027v-9.793l-9.327.07-9.326.069-.07 9.723-.07 9.724h18.793zm-10.963 4.19.205-.35 1.013-1.228 1.014-1.227v-.217l-.911.106-.911.106-.677-.676-.676-.677V83.58l.684-.814.685-.814h2.552l.714.847.713.848-.132 1.166-.131 1.166-1.32 1.889-1.32 1.889-.853.085-.853.085zm2.61-4.338.415-.416v-1.18l-.317-.317-.318-.317h-1.376l-.317.317-.318.318v1.376l.318.317.317.318h1.18zm28.663.217-.07-9.723-9.326-.07-9.327-.07V95.18h18.792zm20.171-.066V75.6h-18.52v19.58h18.52zm-14.287 3.969v-.53H-164.44v-5.002l-.782.45-.783.448-.342-.346-.342-.347 1.19-1.033 1.191-1.033.596-.008.595-.007v6.844l.725.083.726.084.087.463.088.463h-4.537zm7.845-2.766 1.702-3.296-1.93-.078-1.929-.078-.085-.595-.084-.595h5.593v.713l-1.724 3.612-1.725 3.612h-1.52zm26.815-1.206v-9.793l-9.327.07-9.326.069-.07 9.723-.069 9.724h18.792zm-15.081 4.058v-.443l1.852-1.91 1.852-1.91V83.257l-.398-.153-.397-.152-.643.161-.644.162-.172.544-.173.544-.552-.082-.552-.081-.108-.33-.109-.33.795-.794.795-.795h2.193l.475.254.476.255.326.788.327.788-.293.888-.294.889-1.333 1.31-1.333 1.31 1.535.132 1.534.132.085.596.084.595h-5.328zm7.143-.086v-.53h1.588v-5.002l-.782.45-.783.448-.342-.346-.342-.347 1.19-1.033 1.191-1.033.596-.008.595-.007v6.844l.725.083.726.084.087.463.088.463h-4.537z" style="fill:#0b0b0b;stroke-width:1" transform="translate(253.074 -64.224)"/></svg>