<svg xmlns="http://www.w3.org/2000/svg" viewBox="0 0 123.598 32.808" height="123.997" width="467.143"><path d="m-102.04 114.358-.006-1.058.12.46.121.46-.115.598-.115.598-.005-1.058zm-112.585-.858 9.324-.075.074-9.587.074-9.588-.005 9.657-.005 9.657-9.392.005-9.393.005 9.323-.074zm15.746 0 4.697-.08 4.696.08 4.696.078h-18.785zm15.665-.135-.127-.332.073-9.524.073-9.523.063 9.72.062 9.72 9.327.073 9.326.073-9.334.062-9.335.063zm29.444.136 9.323-.075.074-9.588.074-9.588-.005 9.657-.005 9.658-9.392.005-9.393.005 9.323-.075zm15.746-.001 4.696-.08 4.696.08 4.697.078h-18.786zm15.664-.134-.127-.332.073-9.524.073-9.524.063 9.72.062 9.72 9.327.073 9.327.073-9.335.063-9.335.062-.128-.332zm20.32-20.174-.006-1.058.12.46.121.46-.115.598-.115.598-.005-1.058zm-98.166-4.895v-.926l.12.463.122.463-.121.463-.121.463zm20.373 0v-.926l.12.463.122.463-.121.463-.121.463zm20.108 0v-.926l.121.463.121.463-.121.463-.121.463zm-46.586-.86-.042-.992.86.04.86.04-.712.108-.712.109-.106.844-.105.844zm20.373 0-.042-.992.86.04.86.04-.712.108-.712.109-.106.844-.105.844zm20.109 0-.043-.992.992.043.993.042-.845.105-.844.106-.106.844-.105.845zm-43.079-1.135-.156-.409.165-.165.165-.165v.849l.86.106.86.107-.869.043-.868.042zm8.731-1.577.002-2.116.102 1.131.101 1.132-.103.985-.103.985.002-2.117zm11.642 1.577-.156-.409.165-.165.165-.165v.849l.86.106.86.107-.869.043-.868.042zm8.73-1.577.003-2.116.102 1.131.101 1.132-.103.985-.104.985.002-2.117zm11.379 1.577-.157-.409.165-.165.165-.165v.849l.86.106.86.107-.868.043-.869.042zm8.73-1.577.002-2.116.102 1.131.102 1.132-.104.985-.103.985.002-2.117zm-46.621.218-.036-.84-.463-.121-.463-.121.471-.03.472-.032.144.378.145.378-.117.614-.117.615zm20.373 0-.036-.84-.463-.121-.463-.121.471-.03.471-.032.145.378.145.378-.117.614-.117.615zm20.108 0-.036-.84-.463-.121-.463-.121.471-.03.472-.032.145.378.145.378-.118.614-.117.615z" style="fill:#a5a5a5;stroke-width:1" transform="translate(225.403 -82.609)"/><path d="m-203.58 103.775.005-9.79h18.785l.005 9.658.005 9.657-.074-9.591-.074-9.591h-18.508l-.074 9.723-.075 9.723.005-9.79zm60.854 0 .005-9.79h18.786l.005 9.658.005 9.657-.075-9.591-.074-9.591h-18.508l-.074 9.723-.075 9.723zm23.95 3.552v-.132l1.323-1.304 1.323-1.303v.265l-1.323 1.303-1.323 1.303zm.176-4.92-.176-.176.004-.286.004-.287.194.3.195.3.529.133.53.132-.552.03-.551.031zm-75.777-1.071.731-.11.592.114.592.114-1.323-.004-1.323-.004zm62.703-.003.992-.104.992.104.992.104H-132.667zm-87.595-7.414 4.68-.078 4.845.078 4.846.079h-19.05zm40.482 0 4.679-.078 4.846.078 4.845.079h-19.05zm20.372 0 4.68-.078 4.845.078 4.846.079h-19.05zm40.482 0 4.679-.078 4.846.078 4.846.079h-19.05zm-101.319-1.587 4.697-.079 4.696.079 4.697.079h-18.786zm20.373 0 4.697-.079 4.696.079 4.696.079h-18.785zm20.373 0 4.697-.079 4.696.079 4.696.079h-18.785zm20.109 0 4.696-.079 4.696.079 4.697.079h-18.786zm20.373 0 4.696-.079 4.696.079 4.697.079h-18.786zm20.372 0 4.697-.079 4.696.079 4.697.079h-18.786zm-50.27-6.6.463-.12.463.12.463.122h-1.852z" style="fill:#656565;stroke-width:1" transform="translate(225.403 -82.609)"/><path d="M-201.061 88.297v-.794h-2.854l-.142-.37-.142-.37 1.491-2.01 1.492-2.013h.948V86.71h.794v.794h-.794V89.09h-.793zm0-2.949v-1.36l-.926 1.212-.927 1.213v.296H-201.06zm20.372 2.949v-.794H-183.542l-.142-.37-.142-.37 1.491-2.01 1.492-2.013h.948V86.71h.794v.794h-.794V89.09h-.794zm0-2.949v-1.36l-.926 1.212-.926 1.213v.296h1.852zm-26.458 2.023v-.926H-208.734v-.794H-207.147v-1.588h.794v1.554l.84.083.839.083.109.33.108.332h-1.896v1.852h-.794zm20.373 0v-.926H-188.36v-.794H-186.774v-1.588h.794v1.554l.84.083.839.083.108.33.109.332h-1.896v1.852h-.794z" style="fill:#fe0a0a;stroke-width:1" transform="translate(225.403 -82.609)"/><path d="M-158.464 107.611v-.529h1.588V102.055h-.464l-.33.397-.33.397h-.671l-.135-.35-.134-.349 1.201-.973 1.2-.974h.986v6.88h1.323v1.058h-4.234zm6.33-.244-.773-.773v-.57h.976l.479.529.479.53h1.44l.317-.382.316-.38-.086-.744-.085-.744-.86-.253-.86-.253v-.618l.787-.158.787-.157.169-.673.169-.673-.327-.393-.327-.394h-1.504l-.283.53-.283.529h-1.04v-.818l.65-.65.65-.65h2.068l.698.55.697.548v1.783l-.576.404-.576.403.708.557.708.557v1.59l-.773.773-.773.773h-2.199zm-8.446-19.07v-.794h-2.911v-.958l1.39-1.893 1.389-1.894.463-.009.463-.009V86.71h.793v.794h-.793V89.09h-.794zm0-2.91v-1.324h-.175l-.839 1.168-.838 1.168v.31h1.852zm-6.086 1.984v-.926H-168.253v-.53H-166.666v-1.852h.76l.084.86.082.86.86.083.86.083v.496h-1.852v1.852h-.794z" style="fill:#007f00;stroke-width:1" transform="translate(225.403 -82.609)"/><path d="M-225.403 103.841V92.398h123.296v22.886h-123.296zm20.373-.066v-9.922h-18.786v19.844h18.786zm-11.113 3.836v-.529h1.588V102.055h-.465l-.329.397-.33.397h-.672l-.134-.35-.134-.349 1.2-.973 1.201-.974h.986v6.88h1.323v1.058h-4.234zm31.353-3.836v-9.79h-18.785l-.07 9.524-.07 9.524.13.335.128.336 9.334-.07 9.333-.07zm-11.342 3.933-.76-.411.398-.398.398-.398.543.29.542.291h1.276l.438-.484.438-.484v-1.4l-.628-.412-.628-.412-1.092.175-1.092.174v-.685l.292-1.676.292-1.675h3.971l-.161.418-.16.419v.221h-2.911V102.276l-.16.419-.161.418h2.144l.702.605.703.604v1.979l-.437.667-.437.667-.665.253-.665.252-.71-.01-.71-.01zm31.583-3.933v-9.922h-18.785v19.844h18.785zm-10.821 3.902.356-.463 1.06-1.3 1.062-1.301-.764.191-.764.192-.719-.298-.718-.297-.3-.656-.298-.657v-1.339l.773-.773.774-.773h2.086l.687.54.687.541.164.872.163.872-.416.997-.417.998-.985 1.36-.985 1.36-.273.195-.274.194-.628.004-.627.004zm2.606-4.15.316-.382-.085-.737-.086-.738-.659-.326-.659-.327-.531.35-.532.351-.085.714-.086.713.316.381.317.381H-173.081zm28.588.248v-9.922h-18.785v19.844h18.785zm20.24 0v-9.79h-18.785l-.07 9.524-.069 9.524.129.335.128.336 9.334-.07 9.334-.07zm-14.42 3.836v-.529h1.588V102.055h-.464l-.33.397-.329.397h-.672l-.134-.35-.134-.349 1.2-.973 1.2-.974h.986v6.88h1.323v1.058H-138.355zm6.35.412v-.155l1.588-3.167 1.588-3.167v-.273H-132.8v-1.058h5.292v1.209l-1.654 3.298-1.654 3.298-.595.085-.595.084zm28.311-4.248v-9.922h-18.785v19.844h18.785zm-15.081 4.074v-.291l1.751-1.892 1.752-1.891.248-.654.25-.654-.275-.603-.275-.603h-1.594l-.33.53-.331.529h-.931v-.818l.649-.65.65-.649h2.069l.697.548.697.549v1.96l-.436.654-.435.655-1.218 1.277-1.218 1.278 1.23-.18 1.231-.179.555.177.556.176v1.022h-5.292zm7.144-.238v-.529H-110.045V102.055h-.464l-.33.397-.329.397h-.672l-.134-.35-.134-.349 1.2-.973 1.2-.974h.986v6.88h1.323v1.058H-111.632z" style="fill:#020202;stroke-width:1" transform="translate(225.403 -82.609)"/></svg>