<svg xmlns="http://www.w3.org/2000/svg" viewBox="0 0 123.599 32.808" height="124" width="467.147"><path d="M-106.062 110.297v-.926l.12.463.122.463-.121.463-.121.463zm-103.13-10.583v-9.922l.079 4.961.078 4.961-.078 4.961-.078 4.96zm21.961 0v-9.922l.078 4.961.079 4.961-.079 4.961-.078 4.96zm38.894 0v-9.922l.078 4.961.078 4.961-.078 4.961-.078 4.96zm21.96 0v-9.922l.079 4.961.078 4.961-.078 4.961-.079 4.96zm-72.88-1.005v-.212l.926.109.926.108v.206h-1.852zm.506-1.46.216-.215 1.16.088 1.16.088-1.375.128-1.377.127zm62.935-.11 1.131-.102.986.103.985.104-2.117-.002-2.117-.002 1.132-.101zm29.754-8.008v-.926l.12.463.122.463-.121.463-.121.463zm-117.223-.992 4.68-.079 4.845.079 4.846.078h-19.05zm20.39 0 4.696-.079 4.697.079 4.696.079h-18.785zm20.091 0 4.68-.079 4.845.079 4.846.078h-19.05zm20.373 0 4.68-.079 4.845.079 4.846.078h-19.05zm20.39 0 4.697-.079 4.696.079 4.696.079h-18.785zm20.091 0 4.68-.079 4.845.079 4.846.078h-19.05zm-82.273-4.035v-.926l.121.463.121.463-.12.463-.122.463zm20.373 0v-.926l.121.463.121.463-.12.463-.122.463zm20.109 0v-.926l.12.463.122.463-.121.463-.121.463zm20.373 0v-.926l.12.463.122.463-.121.463-.121.463zm20.372 0v-.926l.121.463.121.463-.12.463-.122.463zm-46.85-.86-.042-.992.86.04.86.039-.712.109-.712.108-.106.844-.105.844zm-34.347-2.712.002-2.117.101 1.132.102 1.131-.103.985-.104.985.002-2.116zm20.373 0 .002-2.117.101 1.132.102 1.131-.103.985-.104.985.002-2.116zm11.462 1.808-.176-.177v-.705l.992.042.992.042-.86.107-.86.107v.462l.86.107.86.106-.815.043-.816.042zm8.646-1.808.002-2.117.102 1.132.101 1.131-.103.985-.104.985.002-2.116zm20.373 0 .002-2.117.102 1.132.101 1.131-.103.985-.104.985.002-2.116zm20.373 0 .002-2.117.101 1.132.102 1.131-.103.985-.104.985.002-2.116zm-46.746 1.014-.176-.176v-1.46l-.33-.112-.332-.11.397.027.397.027.082.842.082.843.844.105.844.106-.816.042-.815.042z" style="fill:#8c8c8c;stroke-width:1" transform="translate(229.42 -78.415)"/><path d="M-205.078 84.104v-.794h-2.854l-.141-.37-.142-.37 1.491-2.011 1.491-2.012h.949V82.516h.794v.794h-.794V84.897h-.794zm0-2.949v-1.36l-.926 1.212-.926 1.213v.296h1.852zm20.373 2.949v-.794h-2.854l-.141-.37-.142-.37 1.491-2.011 1.491-2.012h.949V82.516h.794v.794h-.794V84.897h-.794zm0-2.949v-1.36l-.926 1.212-.926 1.213v.296h1.852zm-26.458 2.023v-.926h-1.588v-.794h1.588V79.87h.794v1.554l.84.083.839.083.108.33.109.332h-1.896v1.852h-.794zm20.373 0v-.926h-1.588v-.794h1.588V79.87h.794v1.554l.839.083.84.083.108.33.109.332h-1.896v1.852h-.794z" style="fill:#fe0a0a;stroke-width:1" transform="translate(229.42 -78.415)"/><path d="M-144.224 84.104v-.794H-147.077l-.142-.37-.142-.37 1.491-2.011 1.492-2.012h.948V82.516h.794v.794h-.794V84.897h-.794zm0-2.949v-1.36l-.926 1.212-.926 1.213v.296h1.852zm20.373 2.949v-.794H-126.704l-.142-.37-.142-.37 1.491-2.011 1.492-2.012h.948V82.516h.794v.794h-.794V84.897h-.794zm0-2.949v-1.36l-.926 1.212-.926 1.213v.296h1.852zm-26.458 2.023v-.926H-151.896v-.794H-150.31V79.87h.794v1.554l.84.083.839.083.108.33.109.332h-1.896v1.852h-.794zm20.373 0v-.926h-1.588v-.794h1.588V79.87h.794v1.554l.84.083.839.083.108.33.109.332h-1.896v1.852h-.794z" style="fill:#0a0afe;stroke-width:1" transform="translate(229.42 -78.415)"/><path d="M-162.48 103.418v-.529h1.588V97.862h-.465l-.33.397-.328.397h-.685l-.112-.331-.111-.33 1.081-.982 1.082-.981.595-.011.596-.011v6.879h1.323v1.058h-4.234zm6.711.22-.565-.274-.349-.651-.348-.652.382-.236.382-.236.678.65.679.65H-153.55l.316-.38.316-.382-.085-.735-.085-.735-.86-.245-.86-.245v-.718h.976l.438-.483.438-.484v-.779l-.317-.317-.318-.318h-1.42l-.429.653-.427.653-.397-.152-.396-.152v-.761l.65-.65.649-.65H-153.055l.58.54.578.54v1.749l-.521.472-.522.472.654.515.654.514v1.59l-.773.773-.774.773-1.012-.018-1.013-.017zm-8.827-19.534v-.794h-2.854l-.132-.343-.131-.342 1.492-2.03 1.492-2.029.463-.01.463-.009V82.516h.794v.794h-.794V84.897h-.793zm0-2.91V79.87h-.175l-.839 1.168-.838 1.168v.31h1.852zm-6.086 1.984v-.926H-172.269v-.53H-170.682V79.87h.76l.083.86.083.86.86.083.86.083v.496h-1.852v1.852h-.794z" style="fill:#007f00;stroke-width:1" transform="translate(229.42 -78.415)"/><path d="M-229.42 99.648V88.205H-106.123v22.886h-123.295zm20.374.066v-9.79h-18.786v19.58h18.786zm-11.113 3.704v-.529h1.588v-5.057l-.805.476-.805.475-.233-.377-.233-.376 1.104-1 1.104-.998.595-.011.595-.011v6.88h1.323v1.058H-220.159zm31.22-3.704v-9.79h-18.52v19.58h18.52zm-11.21 3.8-.759-.41.398-.398.398-.398.542.29.543.291h1.328l.411-.588.412-.588v-.84l-.37-.506-.37-.506-1.35.059-1.35.059v-.618l.293-1.676.291-1.675H-195.779l-.087.463-.088.463-1.32.082-1.321.082-.165.183-.164.182-.171.728-.172.727h2.3l.636.678.636.677-.028 1.094-.03 1.094-.83.742-.83.742-.988-.01-.988-.01zm31.584-3.8v-9.79h-18.786v19.58h18.786zm-10.821 3.77.356-.463 1.05-1.289 1.052-1.289-.827.181-.826.182-.78-.404-.782-.404-.164-.428-.164-.428v-1.585l.773-.774.773-.773h2.128l.743.638.742.639v2.315l-.91 1.502-.91 1.502-.622.67-.622.671h-1.367zm2.566-4.087.317-.318v-1.376l-.317-.317-.318-.318h-1.376l-.317.318-.318.317v1.376l.318.318.317.317h1.376zm28.628.317v-9.79h-18.786v19.58h18.786zm20.108 0v-9.79h-18.52v19.58h18.52zm-14.287 3.704v-.529H-140.784v-5.057l-.805.476-.805.475-.233-.377-.232-.376 1.103-1 1.104-.998.596-.011.595-.011v6.88h1.323v1.058H-142.371zm6.35.411v-.154l1.587-3.167 1.588-3.167v-.273H-136.815V96.01H-131.202l-.179.714-.179.713-1.635 3.19-1.636 3.19-.595.084-.595.084zm28.31-4.115v-9.79h-18.785v19.58h18.785zm-15.081 3.763v-.47l1.833-1.82 1.834-1.819.157-.626.157-.626-.28-.524-.28-.524h-1.557l-.423.646-.423.645-.377-.144-.377-.145v-.761l.65-.65.65-.65h2.068l.698.55.697.548v1.848l-.295.578-.295.578-1.31 1.35-1.311 1.349 1.671-.027 1.672-.026.085.595.084.595h-5.328zm7.143-.059v-.529h1.588v-5.057l-.805.476-.805.475-.233-.377-.233-.376 1.104-1 1.104-.998.596-.011.595-.011v6.88h1.323v1.058h-4.234z" style="fill:#040404;stroke-width:1" transform="translate(229.42 -78.415)"/></svg>