<svg xmlns="http://www.w3.org/2000/svg" viewBox="0 0 277.283 20.39" height="77.063" width="1048"><path d="M-160.299 33.006v-9.392h-11.642v3.968H-173.528v-3.968H-198.663v3.968h-1.588v-3.968H-225.386v3.968h-1.588v-3.968H-252.109v3.968h-1.588v-3.968H-278.832v3.968h-1.588v-3.968h-30.956v-1.588l75.539-.008 75.538-.009h28.311l48.947.009 48.948.008v1.588h-31.22v3.968h-1.588v-3.968H-92.036v3.968h-1.588v-3.968H-118.759v3.968h-1.588v-3.968h-11.641v18.785H-160.3zm26.723-.794v-8.598H-158.71v17.198H-133.576zm-148.167 5.569v-.914l-1.758-.078-1.758-.079-.264-.42-.263-.42 1.921-2.556 1.922-2.557h1.259v4.812l.529.139.53.138v.782l-.53.138-.53.138v1.791h-1.058zm0-3.584v-1.588h-.2l-1.09 1.444-1.09 1.444v.287h2.38zm2.91 4.055v-.443l1.87-1.927 1.868-1.928-.083-1.003-.082-1.003-.703-.081-.703-.082-.662.714-.662.715-.4-.154-.401-.154.144-.551.144-.552.665-.523.665-.523h2.08l.475.255.476.254.326.789.327.788-.293.888-.294.888-1.333 1.31-1.332 1.31 1.534.133 1.534.132.085.595.084.596h-5.328zm23.813-.471v-.914l-1.758-.078-1.758-.079-.264-.42-.263-.42 1.921-2.556 1.922-2.557h1.259v4.812l.529.139.529.138v.782l-.53.138-.528.138v1.791H-255.02zm0-3.584v-1.588h-.2l-1.09 1.444-1.09 1.444v.287h2.38zm6.35 3.584v-.914l-1.758-.078-1.758-.079-.264-.42-.263-.42 1.921-2.556 1.922-2.557h1.259v4.812l.529.139.529.138v.782l-.53.138-.528.138v1.791H-248.67zm0-3.584v-1.588h-.2l-1.09 1.444-1.09 1.444v.287h2.38zm20.109 3.584v-.914l-1.759-.078-1.758-.079-.264-.42-.263-.42 1.922-2.556 1.922-2.557h1.258v4.812l.53.139.528.138v.782l-.529.138-.529.138v1.791h-1.058zm0-3.584v-1.588h-.201l-1.09 1.444-1.09 1.444v.287h2.38zm3.824 3.848-.65-.65V35.54l.564-.524.563-.525-.431-.43-.43-.431v-1.722l.612-.575.612-.576h2.387l.616.656.616.655-.024.84-.024.84-.395.395-.396.395.538.436.537.435v2.077l-.702.604-.703.605h-2.64zm3.133-.963.264-.422-.168-.67-.168-.672-.593-.154-.592-.155-.601.394-.601.394V37l.329.33.33.33.768-.079.768-.078zm-.129-4.124.082-.843-.545-.291-.545-.292-.529.284-.529.283v1.48l.19.19.188.188.803-.078.804-.079zm-83.632 1.562-1.514-1.53 1.562-1.545 1.561-1.545.291.18.291.18v.604l-.782.807-.783.806 3.826-.08 3.825-.08v1.351h-7.508l.746.778.745.778-.158.412-.159.413h-.43zm263.188 1.241-.177-.287.875-.903.876-.903H-48.38v-1.323H-40.603l-.876-.903-.875-.904.177-.287.178-.287h.648l1.38 1.397 1.38 1.397v.531l-1.397 1.38-1.397 1.38H-42z" style="fill:#040404;stroke-width:1" transform="translate(311.376 -22.01)"/></svg>