<svg xmlns="http://www.w3.org/2000/svg" viewBox="0 0 277.457 30.302" height="114.526" width="1048.658"><path d="M-290.572-.218v-.271l1.587-1.706 1.588-1.707v-1.3l-.579-.184-.579-.184-.456.563-.455.563h-.841v-.794l.529-.53.529-.529h2.034l.438.484.438.484v1.701l-1.212 1.296-1.213 1.296 1.277.082 1.276.081.088.463.088.463h-4.537zm29.633-.51v-.78l-1.521-.079-1.521-.08.029-.418.03-.42 1.418-1.895 1.42-1.897h.939v3.754l.53.139.528.138v.449l-.529.283-.529.283V.053h-.794zm0-2.974v-1.374l-.68.91-.681.912-.255.463-.254.463h1.87zm-32.808 2.036v-.926h-1.588v-.794h1.588v-1.852h.794v1.852h1.852v.76l-.86.083-.86.083-.083.86-.083.86h-.76zm26.723 0v-.926h-1.588v-.794h1.588v-1.852h.794v1.852h1.852v.76l-.86.083-.86.083-.083.86-.083.86h-.76z" style="fill:#fe0d0d;stroke-width:1" transform="translate(336.213 6.297)"/><path d="m-149.164 19.512-.65-.649v-1.856l.563-.524.563-.525-.43-.43-.431-.431v-1.722l.612-.575.613-.576 1.173.009 1.174.008.452.344.453.344.268.706.269.706-.242.636-.242.635-.286.178-.287.177.562.454.56.455v2.077l-.702.604-.703.605h-2.64zm3.133-.963.264-.422-.168-.67-.169-.672-.592-.154-.592-.155-.602.394-.6.394v1.204l.329.33.329.33.768-.079.769-.078zm-.13-4.124.082-.843-.544-.291-.545-.292-.53.284-.528.283v1.48l.189.19.189.188.803-.078.803-.079zm6.137 4.823v-.914l-1.758-.078-1.759-.079-.263-.42-.264-.42 1.922-2.556 1.922-2.557h1.259v4.812l.528.139.53.138v.997H-138.967v1.852H-140.025zm-.007-3.65-.007-1.654-.768.926-.769.926-.43.728-.43.727h2.411zm17.884 4.252.205-.35 1.013-1.227 1.013-1.227v-.218l-.91.107-.911.106-.677-.676-.677-.677v-1.836l.685-.814.685-.814h2.552l.713.848.714.848-.132 1.166-.131 1.166-1.32 1.889-1.32 1.889-.853.084-.853.085zm2.61-4.337.415-.416v-1.18l-.317-.317-.318-.317h-1.376l-.317.317-.318.318v1.375l.318.318.317.317h1.18zm3.446 4-.65-.65v-1.856l.563-.524.563-.525-.43-.43-.431-.431v-1.722l.612-.575.613-.576 1.173.009 1.174.008.452.344.453.344.268.706.269.706-.242.636-.242.635-.286.178-.287.177.562.454.56.455v2.077l-.702.604-.702.605h-2.64zm3.133-.964.264-.422-.168-.67-.169-.672-.592-.154-.592-.155-.602.394-.6.394v1.204l.329.33.33.33.767-.079.769-.078zm-.13-4.124.082-.843-.544-.291-.545-.292-.529.284-.53.283v1.48l.19.19.189.188.803-.078.803-.079zm14.074 5.208v-.53h1.588v-5.002l-.782.449-.783.449-.342-.347-.342-.346 1.19-1.033 1.191-1.033.595-.008.596-.008v6.844l.725.084.725.084.088.463.088.463h-4.537zm6.35 0v-.53h1.588v-5.002l-.782.449-.783.449-.342-.347-.342-.346 1.19-1.033 1.191-1.033.595-.008.596-.008v6.844l.725.084.725.084.088.463.088.463h-4.537zm9.26-.385v-.914l-1.758-.078-1.758-.079-.263-.42-.264-.42 1.922-2.556 1.922-2.557h1.259v4.812l.528.139.53.138v.997H-82.346v1.852H-83.404zm-.006-3.65-.007-1.654-.769.926-.768.926-.43.728-.43.727h2.411zm-75.4-15.941V-.74h1.323V-4.71h-.423l-.3.3-.3.3-.48-.19-.481-.19 1.036-.904 1.036-.904h.971V-.74h1.058v.793h-3.44zm4.234.125v-.271l1.587-1.706 1.588-1.707v-1.3l-.552-.176-.552-.175-.59.554-.59.555h-.627v-.794l.53-.53.529-.529h2.034l.438.484.438.484v1.701l-1.212 1.296-1.213 1.296 1.276.082 1.277.081.088.463.087.463h-4.536zm22.49-.125V-.74h1.322V-4.71h-.423l-.3.3-.3.3-.48-.19-.481-.19 1.036-.904 1.036-.904h.971V-.74h1.058v.793h-3.44zm7.143-.384v-.78l-1.521-.08-1.522-.08.03-.418.03-.42 1.418-1.895 1.42-1.897h.939v3.754l.529.139.53.138v.449l-.53.283-.53.283V.053h-.793zm0-2.975v-1.374l-.68.91-.681.912-.255.463-.255.463h1.871zm19.58 3.359V-.74h1.322V-4.71h-.423l-.3.3-.3.3-.48-.19-.481-.19 1.036-.904 1.036-.904h.97V-.74H-101.924v.793h-3.44zm5.221.066-.435-.331-.26-.7-.259-.698.154-.624.155-.624 1.085-1.513 1.085-1.514.595-.008.596-.008v.328l-.838.954-.839.955.892.182.891.182.344.47.344.47v1.713l-.698.548-.697.548h-1.68zm1.94-.737.511-.274V-2.487l-.317-.317-.318-.318h-.915l-.415.416-.416.416v.718l.416.416.415.416h.527zm-64.576-.652v-.926h-1.588v-.794h1.588v-1.852h.793v1.852h1.852v.76l-.86.083-.86.083-.082.86-.083.86h-.76zm26.723 0v-.926h-1.588v-.794h1.588v-1.852h.793v1.852h1.852v.76l-.86.083-.86.083-.082.86-.083.86h-.76zm26.458 0v-.926h-1.588v-.794h1.588v-1.852h.794v1.852h1.852v.76l-.86.083-.86.083-.083.86-.083.86h-.76z" style="fill:#0b0bfe;stroke-width:1" transform="translate(336.213 6.297)"/><path d="m-170.8 23.933 14.072-.072.122-.725.122-.725-.038.794-.039.793-14.155.004-14.155.003 14.072-.072zm-58.622-4.234-.557-.463.238-.373.239-.373.813.337.813.336.676-.17.676-.169.248-.652.247-.651-.171-.466-.172-.465-.284-.194-.284-.195-1.29-.004-1.292-.004.182-1.605.182-1.606.145-.379.145-.379H-224.955v.688l-.318.318-.317.317h-2.54v.728l.001.727.9.02.899.018.675.442.675.442.175.933.175.932-.332.802-.332.802-.744.384-.743.385h-2.085l-.556-.463zm9.23-.463v-.926h-3.669l-.165-.517-.164-.518 1.899-2.525 1.898-2.526h1.258v4.812l.53.139.529.138v.997H-219.135v1.852h-1.058zm-.065-3.704.069-1.588-.778.926-.778.926-.44.744-.44.744 1.15-.082 1.149-.083zm17.77 3.856-.773-.773v-2.356l1.474-2.017 1.473-2.018H-198.762l-.011.199-.011.198-1.047 1.19-1.047 1.191.977.166.977.165.61.71.61.709v1.32l-.399.772-.4.773-.509.272-.509.273h-2.192l-.773-.774zm2.932-.682.33-.398v-1.412l-.48-.352-.48-.35h-.92l-.416.415-.416.416V18.548l.463.27.463.27.563.007.563.008.33-.397zm2.38 1.174v-.28l1.985-2.084 1.985-2.083v-1.85l-.53-.168-.529-.168-.515.164-.516.163-.169.531-.168.531-.552-.081-.552-.082-.102-.31-.102-.31.76-.85.76-.85h2.197l.658.43.658.431.169.9.169.9-.32.624-.319.623-1.35 1.389-1.35 1.389h3.29v1.323h-5.556zm-112.116-1.763.992-.104.992.104.992.104H-310.284zm26.723 0 .992-.104.992.104.992.104H-283.56zm6.35 0 .992-.104.992.104.992.104H-277.21zm20.108 0 .992-.104.992.104.992.104h-3.968zm81.79-3.368 1.735-3.296-1.91-.077-1.91-.078-.084-.595-.084-.595h5.593v.747l-1.705 3.595-1.704 3.595h-1.665zm3.869 3.015v-.282l1.984-2.083 1.984-2.083v-1.85l-.529-.168-.529-.168-.515.164-.516.164-.169.53-.168.532-.552-.082-.552-.081-.102-.31-.102-.31.76-.85.76-.852h2.197l.658.431.658.431.169.9.168.9-.319.624-.319.623-1.35 1.39-1.35 1.388h3.29v1.323h-5.556zm103.772-.298-.32-.32.008-.278.008-.278.285.492.286.492 1.559-1.543 1.558-1.542-1.52-1.536-1.52-1.536-.332.454-.332.454v-.565l.347-.288.347-.288 1.637 1.652 1.638 1.652-1.664 1.65-1.664 1.649-.32-.32zm-262.076-1.486-.71-.742v-.368h.617l-.18.18-.18.18.714.746.715.746h-.265zm-.71-2.119v-.215l.86-.777.859-.777-.756.838-.756.838.624.118.623.118-.727.036-.728.036zm24.458-5.153-.144-.376.094-1.692.095-1.692.051 1.919.051 1.918h1.3l.095-1.786.095-1.786-.017 1.852-.017 1.852-.73.084-.729.084zm26.936.159.464-.121.463.12.463.122H-278.534zm26.723 0 .463-.121.463.12.463.122h-1.852zm26.723 0 .463-.121.463.12.463.122h-1.852zm26.723 0 .463-.121.463.12.463.122h-1.852zm52.968-.159-.144-.376.094-1.692.095-1.692.051 1.919.051 1.918h1.3l.095-1.786.095-1.786-.017 1.852-.017 1.852-.73.084-.729.084zm26.936.159.463-.121.463.12.463.122h-1.852zm26.723 0 .463-.121.463.12.463.122h-1.852zm32.25-4.513-.037-.86-48.881-.067-48.882-.068 48.89-.065 48.89-.066.145.378.145.378-.117.614-.118.615zm-239.265-1.06 37.923-.067 37.748.068 37.748.068H-336.213zm121.007 0 6.266-.075 6.434.076 6.435.076h-25.4zm-59.08-3.741-.619-.501v-2.05l1.157-1.65 1.157-1.649h1.246l-.01.199-.011.198-.792.926-.792.926.856.176.855.176.344.47.344.47V-1.097l-.613.575-.612.575h-1.892l-.618-.5zm2.165-.567.511-.274V-2.487l-.317-.317-.318-.318h-.922l-.392.56-.392.56.16.432.158.433.284.194.284.195.216.004.216.004zm23.814.37-.548-.697v-.987l.511-.511.511-.512-.379-.314-.379-.315v-1.258l.53-.53.528-.529h2.035l.438.484.438.484V-3.98l-.403.334-.402.334.534.375.535.375v1.558l-.529.528-.529.53h-2.343zm2.616-.606.273-.51-.156-.406-.155-.406-.468-.149-.467-.148-.434.167-.435.166v1.487l.331.134.33.133.455.02.453.022.273-.51zm-.265-2.785.32-.384-.092-.476-.092-.475h-1.258l-.278.44-.278.441.348.42.347.418h.665zm21.971 3.692V-.74h1.323V-4.71h-.423l-.3.3-.3.3-.48-.19-.481-.19 1.036-.904 1.036-.904h.971V-.74h1.058v.793h-3.44zm5.353.22-.337-.136-.391-.757-.391-.756v-2.699l.387-.748.387-.749.428-.164.428-.165h1.486l.572.464.572.463.252 1.124.253 1.124-.253 1.125-.252 1.124-.572.463-.572.463-.83-.02-.831-.021-.336-.136zm1.908-1.205.412-.588v-2.47l-.488-.602-.488-.603-.442.17-.442.17-.283.734-.284.734.123 1.124.123 1.125.329.397.33.397h.699zm-61.5-.338v-.926h-1.896l.108-.331.109-.33.84-.084.839-.083v-1.819h.794V-3.385h1.852v.76l-.86.083-.86.083-.083.86-.083.86h-.76zm26.194 0v-.926H-216.004l.109-.331.108-.33.84-.084.84-.083v-1.819h.793V-3.385h1.852v.76l-.86.083-.86.083-.082.86-.083.86h-.76zm24.077 0v-.926H-191.927l.109-.331.109-.33.84-.084.839-.083v-1.819h.793V-3.385h1.852v.76l-.86.083-.86.083-.082.86-.083.86h-.76z" style="fill:#359a35;stroke-width:1" transform="translate(336.213 6.297)"/><path d="M-185.003 14.473V5.081h-11.642v3.704H-198.232V5.08h-25.136v3.704H-224.955V5.08h-25.136v3.704H-251.678V5.08h-25.136v3.704H-278.4V5.08h-25.136v3.704h-1.323V5.08h-31.22V3.493l75.538-.008 75.539-.008h28.31l48.816.008 48.815.008v1.588h-30.956v3.704H-91.605V5.08h-25.136v3.704H-118.328V5.08h-25.136v3.704h-1.323V5.08h-11.906v18.785h-28.31zm26.723-.793v-8.6h-25.136v17.198h25.136zm-148.167 5.423v-1.058h-3.704V16.98l1.78-2.377 1.781-2.378h1.201V17.251H-304.33v.732l-.53.139-.529.138V20.161H-306.448zm0-3.624v-1.773l-.219.251-.218.252-.972 1.358-.972 1.358v.326h2.38zm2.91 4.213v-.47l1.834-1.82 1.834-1.82.157-.626.157-.626-.28-.524-.28-.523h-1.557l-.423.645-.423.646-.377-.145-.377-.145v-.76l.65-.65.649-.65h2.069l.697.549.697.548V15.17l-.294.577-.295.578-1.311 1.35-1.31 1.35 1.671-.027 1.672-.027.084.596.085.595H-303.537zm23.813-.589v-1.058h-3.704V16.98l1.78-2.377 1.78-2.378h1.202V17.251H-277.607v.732l-.53.139-.529.138V20.161H-279.725zm0-3.624v-1.773l-.219.251-.218.252-.972 1.358-.972 1.358v.326h2.38zm6.35 3.624v-1.058h-3.704V16.98l1.78-2.377 1.78-2.378h1.202V17.251H-271.257v.732l-.53.139-.529.138V20.161H-273.375zm0-3.624v-1.773l-.219.251-.218.252-.972 1.358-.972 1.358v.326h2.38zm20.108 3.624v-1.058h-3.704V16.98l1.78-2.377 1.781-2.378h1.202V17.251h1.058v.732l-.53.139-.528.138V20.161H-253.266zm0-3.624v-1.773l-.218.251-.22.252-.971 1.358-.972 1.358v.326H-253.266zm4.366 4.377-.53-.29-.33-.414-.33-.414v-1.713l.653-.514.654-.514-.522-.472-.521-.472v-1.53l.65-.65.649-.649h2.069l.697.549.697.548v1.732l-.521.472-.522.472.654.514.654.514v1.506l-.165.428-.164.429-.748.387-.749.387-.873-.008-.873-.008-.53-.29zm2.1-.746.678-.258V16.975l-.662-.3-.661-.302-.661.301-.662.301v1.569l.588.412.588.412h.113zm.149-3.975.529-.53v-.62l-.438-.483-.438-.484h-.946l-.412.588-.412.588v.412l.53.529.528.529h.53zm-83.419.852-1.513-1.53 1.585-1.568 1.586-1.57.319.32.32.32-.847.873-.846.873v.271l3.837-.115 3.836-.116V15.174l-3.837-.086-3.837-.086v.12l.001.12.824.85.823.85-.177.287-.178.287h-.382zm263.443 1.163-.178-.463.817-.842.817-.843-3.824.091-3.825.091v-1.439l3.84.116 3.84.115-.797-.822-.798-.823v-.605l.22-.135.219-.135 1.5 1.516 1.502 1.517-1.578 1.562-1.578 1.56z" style="fill:#081c08;stroke-width:1" transform="translate(336.213 6.297)"/></svg>