<svg xmlns="http://www.w3.org/2000/svg" viewBox="0 0 277.322 30.427" height="115" width="1048.147"><path d="M-64.95 119.349v-.926l.12.463.121.463-.12.463-.122.463zm-231.573-4.505v-.271l1.588-1.707 1.587-1.706v-1.3l-.579-.185-.578-.183-.456.563-.456.562h-.841v-.793l.53-.53.528-.529h2.035l.438.484.438.484v1.7l-1.213 1.297-1.212 1.296 1.276.082 1.276.081.088.463.088.463h-4.537zm29.634-.51v-.78l-1.522-.08-1.521-.079.03-.419.029-.419 1.419-1.896 1.419-1.896h.94v3.754l.529.138.529.139v.449l-.53.283-.529.283v1.304h-.793zm0-2.974v-1.375l-.681.912-.68.91-.255.464-.255.463h1.871zm-32.809 2.035v-.926H-301.285v-.793H-299.698v-1.852h.794v1.852h1.852v.76l-.86.083-.86.083-.083.86-.082.86h-.76zm26.723 0v-.926H-274.562v-.793H-272.975v-1.852h.794v1.852h1.852v.76l-.86.083-.86.083-.083.86-.082.86h-.76z" style="fill:#fe0d0d;stroke-width:1" transform="translate(342.031 -108.765)"/><path d="M-190.954 129.667v-9.525h-11.642V124.111H-204.183V120.142H-229.318V124.111h-1.588V120.142H-256.041V124.111h-1.588V120.142H-282.764V124.111h-1.588V120.142H-309.487V124.111h-1.588V120.142h-30.956V118.555h277.019V120.142h-30.956V124.111h-1.588V120.142H-122.691V124.111h-1.588V120.142H-149.414V124.111h-1.588V120.142h-11.641v19.05h-28.311zm26.66-.86.07-8.665h-25.142v17.11l.179.179.179.179 12.322-.069 12.323-.068zm-148.104 5.49v-.926h-3.42l-.264-.493-.264-.493 1.86-2.55 1.859-2.549h1.288v4.812l.529.138.529.139v.781l-.53.139-.528.138v1.791H-312.398zm0-3.733v-1.749l-1.19 1.618-1.19 1.617v.263h2.38zm2.91 4.217v-.443l1.87-1.928 1.868-1.927-.083-1.003-.082-1.003-.703-.082-.703-.08-.637.686-.637.687-.417-.16-.417-.16.136-.518.135-.518.665-.523.665-.523h2.08l.475.255.476.254.326.788.327.789-.293.888-.294.888-1.333 1.31-1.333 1.31 1.535.133 1.534.132.085.595.084.596h-5.328zm23.813-.483v-.927h-3.42l-.265-.493-.263-.493 1.86-2.55 1.859-2.549h1.288v4.812l.529.138.529.139v.781l-.53.139-.528.138v1.791H-285.675zm0-3.734v-1.749l-1.19 1.618-1.191 1.617v.263H-285.675zm6.35 3.734v-.927h-3.42l-.265-.493-.263-.493 1.86-2.55 1.859-2.549h1.288v4.812l.529.138.529.139v.781l-.53.139-.528.138v1.791H-279.325zm0-3.734v-1.749l-1.19 1.618-1.191 1.617v.263H-279.325zm20.109 3.734v-.927H-262.637l-.264-.493-.264-.493 1.86-2.55 1.859-2.549h1.288v4.812l.53.138.528.139v.781l-.529.139-.53.138v1.791h-1.058zm0-3.734v-1.749l-1.191 1.618-1.19 1.617v.263h2.38zm3.824 4.01-.65-.65v-1.855l.564-.524.563-.525-.431-.43-.43-.431v-1.776l.696-.549.697-.548h2.218l.575.612.576.613V130.396l-.38.315-.379.315.512.511.511.512v2.078l-.697.548-.697.549h-2.599zm3.002-.726.317-.318v-1.495l-.697-.265-.697-.265-.626.41-.625.41v1.205l.317.318.318.317h1.375zm.027-3.982.22-.596-.128-.338-.128-.338-.499-.266-.498-.267-.529.283-.529.284v1.48l.177.177.176.176h1.516zm-83.657 1.447-1.514-1.53 1.562-1.545 1.561-1.545.291.18.291.18v.605l-.782.806-.783.806 3.825-.08 3.826-.079v1.35h-7.508l.746.778.745.778-.158.413-.159.412h-.43zm263.188 1.242-.177-.288.875-.903.876-.903H-79.035V129.112l3.959.079 3.958.08-.946-.969-.946-.968.178-.289.178-.288h.648l1.38 1.397 1.38 1.398v.53l-1.397 1.38-1.397 1.38h-.614z" style="fill:#040404;stroke-width:1" transform="translate(342.031 -108.765)"/></svg>