<svg xmlns="http://www.w3.org/2000/svg" viewBox="0 0 240.639 16.801" height="63.5" width="909.5"><path d="m-252.187 16.639-.005-1.058.12.46.121.46-.115.598-.115.598-.005-1.058zm121.457-3.043v-1.455l.11.728.11.727-.11.728-.11.727zm-124.963.847v-.211l.992.098.992.098.265.092.265.093-1.257.02-1.257.022zm3.495-2.368.054-2.58.088 2.43.087 2.43.453.119.453.12-.595.03-.595.03zm118.55 1.521v-1.19l.115.595.114.595-.114.595-.115.596zm-100.548-1.24.463-.122.463.121.463.121h-1.852zm-.204-1.257.048-.281 1.476-.133 1.476-.134-.124.2-.123.2H-234.218l-.114.214-.115.214zm40.355-.149-1.984-.169 2.05-.048 2.05-.047v.529l-.065-.048-.067-.047zm54.769 0-1.985-.169 2.05-.048 2.051-.047v.529l-.066-.048-.066-.047zm-180.182-6.347v-1.85l-13.956-.071-13.957-.07 14.089-.065 14.089-.063v3.968h-.265zm22.076-.135.017-1.852h18.786l.017 1.852.017 1.852-.095-1.786-.095-1.786h-18.474l-.095 1.786-.095 1.786zm20.373 0 .017-1.852 9.393-.005 9.392-.005-9.315.074-9.315.075-.095 1.783-.095 1.782zm20.31.066-.052-2.05 9.459.062 9.458.063-9.315.073-9.315.073-.09 1.915-.092 1.915zm20.373 0-.052-2.05 9.458.062 9.46.063-9.316.073-9.315.073-.091 1.915-.091 1.915zm59.214.07V2.755l-9.326-.073-9.327-.073 9.459-.063 9.459-.062v3.968h-.265zm20.373 0V2.755l-9.326-.073-9.327-.073 9.459-.063 9.459-.062v3.968h-.265zm22.076-.136.017-1.852 13.89-.004 13.891-.003-13.813.072-13.813.072-.095 1.784-.095 1.783zM-313.041 2.55l4.696-.079 4.696.08 4.697.078h-18.786zm101.582 0 4.68-.078 4.845.078 4.846.079h-19.05zm61.136 0 4.697-.079 4.696.08 4.696.078h-18.785z" style="fill:#a6a6a6;stroke-width:1" transform="translate(347.371 -.896)"/><path d="m-303.074 16.792-.773-.774v-2.104l.866-1.283.867-1.284.638-.86.639-.86h1.552l-.363.506-.363.506-.834 1.022-.835 1.021h2.024l.535.485.536.484.165.754.166.754-.428.902-.428.901-.661.302-.661.3h-1.868zm3.108-.977.453-.692-.39-.697-.39-.698-.573-.082-.573-.083-.542.29-.543.29v1.729l.317.317.318.318H-300.42zm2.469 1.28v-.471l1.711-1.697 1.712-1.696.236-.679.237-.678-.22-.594-.22-.594h-1.318l-.623.672-.623.672-.417-.16-.417-.16.136-.519.136-.518.664-.523.665-.523 1.089.009 1.088.008.465.353.464.352.273.785.274.786-.276.727-.277.727-1.432 1.502-1.433 1.502 1.633-.002 1.632-.002.085.596.084.595h-5.328zm35.17-.303-.774-.774v-2.104l.866-1.283.866-1.284.639-.86.639-.86h1.552l-.363.506-.363.506-.834 1.022-.835 1.021h2.024l.535.485.535.484.166.754.166.754-.428.902-.428.901-.661.302-.662.3h-1.868zm3.106-.977.454-.692-.39-.697-.39-.698-.573-.082-.573-.083-.543.29-.542.29v1.729l.317.317.318.318H-259.674zm5.91.824v-.926H-256.733l-.264-.493-.264-.492 1.9-2.55 1.898-2.55h1.209v5.026h1.058v.844l-.53.138-.528.139v1.79H-253.312zm0-3.757v-1.773l-1.191 1.636-1.191 1.637v.272H-253.312z" style="fill:#fe0c0c;stroke-width:1" transform="translate(347.371 -.896)"/><path d="m-282.7 16.792-.774-.774v-2.097l1.054-1.551 1.054-1.552.485-.618.485-.617.747.088.746.089-1.193 1.46-1.193 1.462h2.006l.535.485.535.484.166.754.166.754-.428.902-.428.901-.661.302-.662.3h-1.867zm3.107-.977.453-.692-.39-.697-.39-.698-.573-.082-.573-.083-.542.29-.543.29v1.729l.317.317.318.318H-280.047zm3.118 1.1-.65-.649v-.761l.457-.175.455-.175.493.676.492.676h1.178l.47-.344.47-.344-.089-.772-.089-.773-.86-.245-.86-.245v-.66l.654-.164.654-.164.282-.526.281-.526-.283-.53-.283-.528h-1.283l-.623.672-.623.672-.44-.169-.439-.169.393-.76.393-.76.51-.272.508-.273h1.844l.448.172.448.172.34.81.34.808-.254.667-.254.668-.279.173-.28.172.561.56.56.56v1.629l-.773.774-.773.773h-2.446zm162.599-2.014v-.132l1.455-1.437 1.455-1.438v.265l-1.455 1.437-1.455 1.437zm1.323-4.612-1.438-1.455h.265l1.437 1.455 1.437 1.455h-.264zm-227.914.966-.138-.224.85-.768.85-.768-.755.838-.756.838.623.118.624.118-.58.036-.58.036zm41.473-6.787.002-2.117.102 1.132.101 1.131-.103.986-.103.985.002-2.117zm123.559.132V2.616l.104.992.103.992-.103.993-.104.992zm39.16-.132.002-2.117.101 1.132.102 1.131-.103.986-.104.985.002-2.117z" style="fill:#393;stroke-width:1" transform="translate(347.371 -.896)"/><path d="m-323.345 16.926-.743-.638V13.66l.984-1.43.984-1.428.548-.588.548-.588h1.37l-.695.86-.695.86-.579.772-.579.77.62-.161.62-.162.86.358.858.36.196.617.196.619-.022.795-.022.795-.814.727-.814.728H-322.603l-.742-.639zm2.874-.857.484-.438V14.564l-.438-.484-.437-.484H-322.303l-.33.398-.33.398v1.32l.33.397.33.398H-320.954zm3.395.967v-.53H-315.49V11.48h-.464l-.33.397-.329.397h-.685l-.111-.33-.112-.331 1.082-.982 1.081-.98.596-.012.595-.01v6.879h1.323v1.058H-317.076zm75.222-.11-.742-.638V13.66l.984-1.43.984-1.428.548-.588.547-.588h1.37l-.694.86-.695.86-.579.772-.579.77.62-.161.62-.162.859.358.859.36.196.617.196.619-.022.795-.023.795-.814.727-.814.728H-241.112l-.742-.639zm2.875-.857.484-.438V14.564l-.438-.484-.438-.484h-1.44l-.33.398-.33.398v1.32l.33.397.33.398h1.348zm3.297 1.063-.76-.41.398-.399.398-.397.542.29.543.29h1.328l.411-.587.412-.588v-.84l-.37-.506-.37-.506-1.35.058-1.35.06v-.619l.293-1.675.291-1.676h3.971l-.16.419-.16.418v.221h-2.911v1.016l-.16.418-.162.419h2.346l.628.669.629.668V15.644l-.464.708-.464.707-.665.253-.664.253-.71-.01-.711-.011-.76-.412zm14.201-.206-.742-.638V13.66l.984-1.43.984-1.428.547-.588.548-.588h1.37l-.694.86-.695.86-.58.772-.578.77.62-.161.62-.162.859.358.859.36.196.617.196.619-.022.795-.023.795-.814.727-.814.728H-220.739l-.742-.639zm2.875-.857.484-.438V14.564l-.438-.484-.438-.484h-1.44l-.33.398-.33.398v1.32l.33.397.33.398h1.348zm3.475.857-.742-.638V13.66l.984-1.43.984-1.428.547-.588.548-.588h1.37l-.694.86-.695.86-.58.772-.578.77.62-.161.62-.162.859.358.859.36.196.617.196.619-.022.795-.023.795-.814.727-.814.728H-214.389zm2.875-.857.484-.438V14.564l-.438-.484-.438-.484h-1.44l-.33.398-.33.398v1.32l.33.397.33.398h1.348zm10.884.857-.743-.638V13.66l.984-1.43.984-1.428.548-.588.547-.588h1.371l-.695.86-.695.86-.579.772-.579.77.62-.161.62-.162.86.358.858.36.196.617.196.619-.022.795-.022.795-.814.727-.814.728h-2.08zm2.874-.857.484-.438V14.564l-.438-.484-.438-.484h-1.44l-.33.398-.33.398v1.32l.33.397.33.398h1.348zm3.395 1.378v-.155l1.587-3.167 1.588-3.167v-.272H-195.897V9.627h5.292l-.011.728-.011.728-1.643 3.175-1.643 3.175-.595.084-.595.085v-.155zm14.103-.52-.742-.64v-2.626l.984-1.43.984-1.428.548-.588.547-.588h1.371l-.695.86-.695.86-.579.772-.579.77.62-.161.62-.162.859.358.859.36.196.617.196.619-.022.795-.023.795-.813.727-.814.728h-2.08zm2.875-.858.484-.438V14.564l-.438-.484-.438-.484h-1.44l-.33.398-.33.398v1.32l.33.397.33.398h1.348zm4.056 1.19-.53-.289-.33-.415-.33-.414v-1.713l.653-.514.654-.514-.522-.472-.521-.472v-1.53l.65-.65.649-.649h2.069l.697.549.697.548v1.732l-.521.472-.522.472.654.514.654.514v1.506l-.164.428-.165.429-.748.387-.749.387-.873-.008-.873-.008-.529-.29zm2.1-.746.678-.258V14.38l-.661-.302-.662-.301-.661.301-.662.302v1.568l.588.412.588.412h.113zm.09-3.858.588-.412v-.854l-.438-.484-.438-.484h-.946l-.412.588-.412.588v.412l.53.529.529.529h.411zm11.252 4.271-.742-.638V13.66l.984-1.43.984-1.428.548-.588.547-.588h1.37l-.694.86-.695.86-.579.772-.579.77.62-.161.62-.162.859.358.859.36.196.617.196.619-.022.795-.023.795-.813.727-.814.728h-2.08zm2.875-.857.484-.438V14.564l-.438-.484-.438-.484h-1.44l-.33.398-.33.398v1.32l.33.397.33.398h1.348zm3.686 1.033.356-.463 1.06-1.301 1.062-1.301-.764.192-.764.191-.719-.297-.718-.298-.3-.656-.298-.656v-1.339l.773-.773.774-.774h2.127l.743.639.742.639v2.315l-.91 1.502-.91 1.502-.622.67-.622.67h-1.366zm2.566-4.088.318-.317V11.32l-.318-.318-.317-.317h-1.376l-.318.317-.317.318v1.376l.317.317.318.318h1.376zm11.165 4.433v-.155l1.588-3.167 1.587-3.167v-.272h-3.968V9.627h5.291l-.01.728-.011.728-1.643 3.175-1.643 3.175-.595.084-.596.085v-.155zm6.864-.271-.677-.369-.294-.645-.294-.645-.176-1.178-.177-1.177.306-1.136.306-1.136.631-.632.631-.63h1.911l.534.285.535.286.5 1.103.501 1.104.006 1.119.006 1.119-.43 1.074-.43 1.073-.747.387-.748.387-.608-.01-.609-.011zm2.522-1.45.404-.78v-2.699l-.404-.78-.403-.781h-1.601l-.384.917-.383.918v2.15l.383.918.384.918h1.6zm-210.147-2.204-1.38-1.398v-.53l1.453-1.435 1.453-1.435.319.319.32.319-.847.873-.846.873v.271l3.836-.115 3.837-.116v1.44l-3.837-.092-3.837-.09v.239l.824.85.824.85-.178.287-.177.287h-.384zm226.798 1.03-.177-.462.817-.842.816-.842-3.824.09-3.825.091v-1.439l3.84.116 3.84.115-.797-.822-.797-.822v-.606l.219-.135.219-.135 1.5 1.516 1.502 1.517-1.578 1.562-1.578 1.56zM-319.193 4.469V2.484h-28.046V.896h240.506v1.588h-28.045v3.968h-1.323V2.484h-18.786v3.968H-156.474V2.477l-9.46.07-9.458.069-.078 1.918-.077 1.918h-1.3V2.484h-18.785v3.968h-1.588V2.484h-18.785v3.968h-1.588V2.484h-18.785v3.968h-1.588V2.484h-18.785v3.968h-1.588V2.484h-18.785v3.968h-1.323V2.484h-19.05v3.968h-1.323V2.484h-18.785v3.968h-1.588z" style="fill:#070c07;stroke-width:1" transform="translate(347.371 -.896)"/></svg>