<svg xmlns="http://www.w3.org/2000/svg" viewBox="0 0 219.869 30.435" height="115.03" width="831"><path d="m-197.716 129.765 10.766-.073.117-.857.117-.857-.035.926-.034.926-10.848.004-10.848.004 10.765-.074zm-11.1-10.181-.062-8.659-4.3-.08-4.299-.08 4.308-.058 4.308-.06.128.334.127.333-.073 8.464-.074 8.464zm1.653-.205.005-8.6 9.26-.004 9.26-.005-9.19.074-9.19.075-.076 8.53-.075 8.529zm70.837 3.919-.32-.32.007-.279.008-.278.286.492.286.492 1.559-1.542 1.558-1.542-1.52-1.536-1.52-1.537-.332.455-.333.454v-.566l.348-.288.347-.288 1.637 1.652 1.638 1.653-1.664 1.649-1.665 1.65-.32-.321zm-204.527-1.352-.846-.873v-.371l.596.03.595.031-.49.126-.492.127.874.901.873.901h-.264zm205.265-.98-.662-.212.728-.026.728-.026v.529l-.067-.027-.066-.026zm-198.417-.463-.02-.595h-7.674v-.425l.993-.912.992-.912-.912.992-.912.992h7.529l.149.389.149.388-.137.34-.136.339zm191.309-.132-.036-.728 4.035.059 4.035.058-3.885.081-3.885.081-.114.588-.114.589zm-179.302-.216-.174-.282.158-.159.16-.159v.68l.653-.126.653-.125-.14.227-.14.226h-.996zm21.376-.969.992-.104.992.104.992.104h-3.968zm-19.061-4.494.716-.109.077-1.901.078-1.902 9.459-.07 9.459-.07v3.976h1.322v-3.968l9.46.062 9.458.063-9.315.073-9.315.073-.078 1.915-.077 1.915-.86.082-.86.083v-4.002h-18.521V114.881l-.86-.04-.86-.04zm40.228.006.463-.12.463.12.463.121h-1.852zm20.626-.006.716-.109.078-1.901.077-1.902 9.459-.07 9.459-.07v3.976h1.323v-3.968l9.458.062 9.46.063-9.316.073-9.315.073-.077 1.915-.078 1.915-.86.082-.86.083v-4.002h-18.52V114.881l-.86-.04-.86-.04zm40.228.006.463-.12.463.12.463.121h-1.852zm40.15-1.778v-1.995l-4.3-.08-4.299-.08 4.432-.058 4.432-.06V114.617h1.323v-3.968l9.459.062 9.458.063-9.315.073-9.315.073-.077 1.915-.078 1.915-.86.083-.86.082zm20.704 1.778.463-.12.463.12.463.121h-1.852zm-183.62-3.984 7.077-.075 7.077.075 7.078.075h-28.311zm67.715 0 4.68-.079 4.845.079 4.846.078h-19.05zm131.118 0 13.825-.071v-1.316l-29.17-.07-29.17-.068 29.236.002 29.236.002V110.78l-13.89.004-13.891.004 13.824-.072zm-170.92-1.588 34.99-.068 34.992.068 34.991.068h-139.965zm110.71 0 4.68-.078 4.846.078 4.845.079h-19.05zm-81.979-7.607.002-2.116.102 1.131.102 1.132-.104.985-.103.985.002-2.117zm20.109 0 .002-2.116.101 1.131.102 1.132-.103.985-.104.985.002-2.117zm20.108 0 .002-2.116.102 1.131.101 1.132-.103.985-.103.985.002-2.117zm20.373 0 .002-2.116.102 1.131.101 1.132-.103.985-.103.985.002-2.117zm20.373 0 .002-2.116.102 1.131.101 1.132-.103.985-.104.985.002-2.117z" style="fill:#5f5f5f;stroke-width:1" transform="translate(348.446 -99.403)"/><path d="m-182.564 125.344-.65-.65v-.834l.405-.155.404-.155.641.693.642.692h1.046l.43-.43.43-.43-.08-.562-.08-.562-.86-.379-.86-.378v-.641l.653-.164.654-.164.282-.526.281-.526-.283-.53-.283-.529h-1.266l-.537.683-.537.683-.514-.163-.513-.163.138-.526.137-.527.665-.522.665-.523h2.192l.558.39.557.391.17.673.168.673-.31.59-.31.59-.257.167-.256.168.56.56.56.56-.008.86-.008.86-.322.42-.322.42-.578.308-.578.307h-2.175l-.65-.65zm6.495.12v-.529H-174.482v-5.002l-.782.449-.783.448-.342-.346-.342-.347 1.19-1.033 1.191-1.032.596-.008.595-.008v6.844l.725.083.726.084.087.463.088.463h-4.537zm13.614-.12-.65-.65v-.834l.404-.155.404-.155.642.693.641.692h1.046l.43-.43.43-.43-.08-.562-.08-.562-.86-.379-.86-.378v-.641l.654-.164.653-.164.282-.526.282-.526-.284-.53-.283-.529h-1.266l-.537.683-.537.683-.513-.163-.513-.163.137-.526.138-.527.664-.522.665-.523h2.192l.558.39.558.391.169.673.169.673-.311.59-.31.59-.257.167-.256.168.56.56.56.56-.007.86-.008.86-.322.42-.323.42-.578.308-.578.307h-2.175l-.65-.65zm6.496.175-.586-.474.395-.327.394-.328.672.306.671.306.69-.173.69-.173.298-.654.298-.654-.301-.662-.301-.661h-2.991l.182-1.606.182-1.605.145-.38.146-.378h3.912v.775l-.512.274-.512.274h-2.151v1.644l.377-.145.377-.145.945.261.946.262.397.768.397.768v.872l-.41.864-.409.863-.661.301-.661.301h-2.033zm-28.577-20.415v-.78l-1.522-.08-1.52-.079.029-.419.029-.419 1.419-1.896 1.419-1.896h.94V103.504h.793v.737l-.397.152-.396.153v1.339h-.794zm0-2.975v-1.374l-.68.911-.681.912-.255.463-.255.463h1.871zm20.373 2.975v-.78l-1.522-.08-1.52-.079.028-.419.03-.419 1.419-1.896 1.419-1.896h.94V103.504h.793v.737l-.397.152-.397.153v1.339h-.793zm0-2.975v-1.374l-.68.911-.682.912-.254.463-.255.463h1.871zm-26.459 2.036v-.926H-192.209v-.794H-190.622v-1.852h.794v1.852h1.852v.76l-.86.084-.86.082-.082.86-.083.86h-.76zm20.373 0v-.926H-171.836v-.794H-170.25v-1.852h.794v1.852h1.852v.76l-.86.084-.86.082-.083.86-.082.86h-.76z" style="fill:#0b0bfe;stroke-width:1" transform="translate(348.446 -99.403)"/><path d="M-306.244 105.104v-.78l-1.522-.08-1.521-.079.03-.419.029-.419 1.419-1.896 1.419-1.896h.94V103.504h.793v.737l-.397.152-.397.153v1.339h-.793zm0-2.975v-1.374l-.681.911-.68.912-.255.463-.255.463h1.871zm-6.086 2.036v-.926H-313.917v-.794H-312.33v-1.852h.794v1.852h1.852v.76l-.86.084-.86.082-.083.86-.083.86h-.76z" style="fill:#fe0a0a;stroke-width:1" transform="translate(348.446 -99.403)"/><path d="M-279.786 125.658v-.423l-.728-.11-.727-.11.736-.04.735-.04.157.408.157.409-.165.165-.165.165zm6.614 0v-.423l-.727-.11-.728-.11.736-.04.736-.04.157.408.156.409-.165.165-.165.165zm13.759 0v-.423l-.728-.11-.727-.11.735-.04.736-.04.157.408.157.409-.165.165-.165.165zm-24.276-.64.463-.122.463.121.463.121h-1.852zm6.615 0 .463-.122.463.121.463.121h-1.852zm13.758 0 .463-.122.463.121.463.121h-1.852zm39.357.165v-.132l1.587-1.571 1.588-1.571v.264l-1.588 1.571-1.587 1.571zm2.58-.44.86-.106.86.107.86.106h-3.44zm17.793-1.677v-.132l1.587-1.57 1.588-1.572v.265l-1.588 1.57-1.587 1.572zm2.58-.439.86-.107.86.107.86.107h-3.44zm-54.633-3.438.731-.11.592.114.591.114-1.323-.004-1.323-.004zm59.667-2.12 1.131-.103.985.104.985.103-2.116-.002-2.117-.002 1.132-.101zm-93.604-14.078v-.247l-.86-.107-.86-.107.993-.042.992-.042v.793h-.265zm20.109 0v-.247l-.86-.107-.86-.107.992-.042.992-.042v.793h-.264zm20.373 0v-.247l-.86-.107-.86-.107.992-.042.992-.042v.793h-.264zm20.372 0v-.247l-.86-.107-.86-.107.993-.042.992-.042v.793h-.265zm20.109 0v-.247l-.86-.107-.86-.107.992-.042.992-.042v.793h-.264zm-84.6-.463.462-.121.463.12.463.122h-1.852zm20.108 0 .463-.121.463.12.463.122h-1.852zm20.372 0 .464-.121.463.12.463.122H-253.196zm20.373 0 .463-.121.463.12.463.122h-1.852zm20.109 0 .463-.121.463.12.463.122h-1.852z" style="fill:#389b38;stroke-width:1" transform="translate(348.446 -99.403)"/><path d="M-284.02 125.596v-.396h1.588v-5.649l-.654.614-.653.614-.4-.331-.4-.332 1.247-1.03 1.247-1.03h.936v7.144h1.323v.793H-284.02zm6.615 0v-.396h1.588v-5.649l-.654.614-.654.614-.4-.331-.399-.332 1.247-1.03 1.247-1.03h.936v7.144h1.322v.793H-277.405zm13.758 0v-.396h1.588v-5.649l-.654.614-.653.614-.4-.331-.4-.332 1.247-1.03 1.247-1.03h.936v7.144h1.323v.793h-4.234zm6.267-.028-.746-.404.31-.373.31-.374.484.259.484.259h1.585l.416-.416.415-.415v-1.538l-.64-.42-.639-.418-.917.172-.918.172-.151-.244-.151-.245.292-1.764.292-1.763h3.626V119.115h-2.91l-.004.33-.004.33-.16.596-.16.595h2.108l.697.549.697.548v2.113l-.272.51-.273.508-.773.4-.772.4-.741-.011-.74-.01-.746-.405zm33.42.125v-.3l1.846-1.942 1.846-1.943.178-.709.178-.708-.264-.422-.265-.422-.82-.083-.822-.081-.34.545-.34.545h-.931v-.486l.164-.429.164-.428.749-.387.748-.387h1.542l.698.548.697.549V121.19l-.709.88-.709.88-.932.992-.932.992H-218.667v1.058h-5.292zm7.422-.44-.806-.806v-.57h.976l.479.529.479.529h1.4l.317-.317.317-.318v-1.528l-.793-.3-.794-.299v-.62l.657-.165.658-.165.165-.661.166-.66-.326-.394-.327-.394h-1.518l-.33.53-.33.529h-.932l.008-.331.008-.33.322-.42.323-.42.578-.308.578-.308H-213.712l.697.548.697.549v1.783l-.547.383-.546.383.679.678.678.679V124.376l-.604.703-.604.702-1.235.14-1.236.138zm12.952-1.676v-.3l1.845-1.943 1.846-1.943.178-.708.178-.709-.265-.422-.264-.422-.82-.082-.822-.082-.34.545-.34.545h-.932v-.486l.165-.428.164-.429.749-.387.748-.387H-199.953l.697.549.697.548v2.038l-.709.88-.709.88-.932.992-.932.992H-198.294V123.877h-5.292zm7.144.143v-.194l1.727-3.264 1.727-3.264h-4.248V115.939h5.292l-.018.596-.017.595-1.637 3.307-1.636 3.307-.595.085-.595.085v-.194zm-89.165-18.629v-.793h-2.91v-.88l1.461-1.941 1.462-1.942h.78V103.504h.795v.794h-.794V105.885h-.794zm0-2.91v-1.323h-.215l-.95 1.323-.95 1.323h2.115zm20.108 2.91v-.793h-2.91v-.88l1.461-1.941 1.462-1.942h.781V103.504h.794v.794h-.794V105.885h-.794zm0-2.91v-1.323h-.215l-.95 1.323-.95 1.323h2.115zm20.109 2.91v-.793h-2.911v-.88l1.462-1.941 1.461-1.942h.781V103.504h.794v.794h-.794V105.885h-.793zm0-2.91v-1.323h-.215l-.95 1.323-.951 1.323h2.116zm20.373 2.91v-.793h-2.911v-.88l1.462-1.941 1.461-1.942h.781V103.504h.794v.794h-.794V105.885h-.793zm0-2.91v-1.323h-.215l-.95 1.323-.951 1.323h2.116zm20.373 2.91v-.793h-2.911v-.88l1.462-1.941 1.461-1.942h.781V103.504h.794v.794h-.794V105.885h-.793zm0-2.91v-1.323h-.215l-.95 1.323-.951 1.323h2.116zm-87.313 1.984v-.926H-293.544v-.529H-291.957v-1.852h.794v1.852H-289.576v.529H-291.163v1.852h-.794zm20.108 0v-.926H-273.436v-.529H-271.85v-1.852h.794v1.852h1.588v.529h-1.588v1.852h-.794zm20.373 0v-.926H-253.063v-.529H-251.476v-1.852h.794v1.852h1.588v.529h-1.588v1.852h-.794zm20.373 0v-.926H-232.69v-.529H-231.103v-1.852h.794v1.852H-228.722v.529H-230.309v1.852h-.794zm20.109 0v-.926h-1.588v-.529h1.588v-1.852h.793v1.852h1.588v.529h-1.588v1.852h-.793z" style="fill:#007f00;stroke-width:1" transform="translate(348.446 -99.403)"/><path d="M-208.746 120.239v-9.46l-4.299-.072-4.3-.073v3.982H-218.931v-3.968h-18.785v3.968h-1.323v-3.975l-9.46.07-9.458.069-.078 1.918-.077 1.918h-1.3v-3.968H-278.2v3.968H-279.786v-3.968h-18.786v3.968h-1.322v-3.975l-9.46.07-9.458.069-.078 1.918-.078 1.918h-1.3v-3.968h-28.045v-1.323l69.784-.008 69.784-.008 10.848-.004 10.847-.004 29.17.011 29.171.012v1.323h-27.781V114.616h-1.588V110.647h-18.785V114.616h-1.323V110.647h-8.731v19.05h-21.828zm20.241-.864v-8.734l-9.326.07-9.327.069-.07 8.665-.07 8.665h18.793zm-132.841 5.845-.773-.773v-.57h.976l.479.529.479.529h1.44l.316-.38.317-.382-.086-.743-.085-.744-.86-.253-.86-.253v-.618l.787-.158.787-.157.168-.673.17-.673-.327-.393-.327-.394h-1.504l-.283.53-.283.529h-1.04v-.486l.164-.429.165-.428.748-.387.749-.387h1.542l.697.548.698.549v1.783l-.576.404-.576.403.708.557.708.557v1.59l-.773.773-.774.773h-2.198zm20.393.655v-.154l1.588-3.167 1.587-3.167v-.273H-301.747V118.055h5.292v1.209l-1.654 3.299-1.653 3.298-.596.085-.595.084zm57.68-.41v-.53H-241.687V119.908h-.465l-.329.397-.33.397h-.672l-.134-.35-.134-.349 1.2-.974 1.201-.973h.986v6.879h1.323v1.058h-4.234zm7.682-1.229 1.38-1.756-.735.184-.736.185-.719-.298-.719-.298-.299-.656-.298-.656v-1.339l.773-.773.773-.773h2.086l.688.54.687.541.164.872.163.872-.417.997-.416.997-.985 1.361-.985 1.36-.274.195-.273.194-.62.004-.619.004 1.38-1.757zm1.525-2.793.317-.318V119.656l-.661-.434-.662-.433-.661.433-.661.434V121.125l.317.318.318.317h1.375zm-108.105.507-1.38-1.397v-.531l1.453-1.435 1.453-1.435.32.32.319.318-.847.873-.846.873v.372h7.673v1.117l-3.836-.1-3.837-.098v.246l.824.85.823.85-.177.287-.178.288h-.384zm205.887 1.007-.186-.486.838-.749.838-.748v-.172l-3.837.116-3.836.115v-1.125h7.776l-.845-.872-.846-.873v-.605l.22-.135.218-.136 1.501 1.517 1.501 1.517-1.578 1.561-1.577 1.561z" style="fill:#020202;stroke-width:1" transform="translate(348.446 -99.403)"/></svg>