<svg xmlns="http://www.w3.org/2000/svg" viewBox="0 0 219.604 20.643" height="78.022" width="830"><path d="M-174.65 87.72V78.19H-183.118V82.16h-1.588v-3.975l-9.326.07-9.327.069-.078 1.918-.077 1.918h-1.565V78.191h-18.52V82.16h-1.588V78.191h-18.785V82.16h-1.588v-3.975l-9.326.07-9.327.069-.078 1.918-.077 1.918h-1.565V78.191h-18.52V82.16h-1.588V78.191h-28.046V76.604h219.604V78.19h-27.78V82.16h-1.588v-3.975l-9.327.07-9.326.069-.078 1.918-.078 1.918h-1.564V78.191H-152.724l.055 9.46.055 9.458-11.018.07-11.018.068zm20.372-.797V78.19h-18.52v17.462h18.52zm-132.965 5.7-.65-.65v-.834l.405-.155.404-.155.641.693.642.692h1.046l.43-.43.43-.43-.08-.562-.08-.562-.86-.379-.86-.378v-.64l.653-.165.654-.164.282-.526.281-.526-.283-.53-.283-.529h-1.266l-.537.683-.538.683-.474-.097-.474-.097.08-.52.08-.52.662-.595.663-.595h2.234l.558.39.557.392.17.673.168.673-.31.59-.31.59-.257.167-.256.167.56.56.56.56-.008.86-.008.86-.322.42-.322.42-.578.308-.578.308h-2.176zm21.997-2.592 1.655-3.24-1.898-.133-1.898-.132-.084-.596-.085-.595h5.593v.714l-1.724 3.612-1.725 3.612h-1.488zm56.2 2.712v-.529H-207.46v-5.002l-.782.449-.782.449-.343-.347-.342-.347 1.19-1.032 1.191-1.033.596-.008.595-.008v6.844l.725.084.726.084.088.463.087.463h-4.536zm6.5.218.204-.35 1.014-1.227 1.013-1.228v-.217l-.911.107-.91.106-.677-.677-.677-.676v-1.836l.685-.814.685-.814h2.552l.713.848.713.848-.131 1.166-.132 1.166-1.32 1.888-1.32 1.89-.853.084-.853.085zm2.513-4.196.512-.273v-1.464l-.318-.317-.317-.318h-1.376l-.318.318-.317.317v1.376l.317.318.318.317h.987zm-108.042.597-1.514-1.53 1.562-1.545 1.561-1.545.291.18.291.18v.605l-.782.806-.783.807 3.826-.08 3.825-.08v1.35h-7.508l.746.778.745.778-.158.413-.159.412h-.43zm205.774 1.242-.178-.288.876-.903.875-.903H-108.505v-1.323H-100.728l-.875-.903-.876-.903.178-.288.178-.287h.648l1.38 1.397 1.38 1.398v.53l-1.397 1.38-1.398 1.38h-.613z" style="fill:#050505;stroke-width:1" transform="translate(314.086 -76.604)"/></svg>