<svg xmlns="http://www.w3.org/2000/svg" viewBox="0 0 219.869 30.295" height="114.5" width="831"><path d="m-171.044 34.073-.005-1.058.12.46.121.46-.115.598-.115.598-.005-1.058zm-21.964-9.188-.063-8.658-4.3-.08-4.299-.08 4.308-.059 4.308-.059.128.333.128.333-.074 8.464-.074 8.465zm1.587-.139.07-8.665 9.26-.005 9.261-.005-9.194.075-9.195.074v16.92l9.327.073 9.327.073-9.463.063-9.462.062zm70.902 3.853-.32-.32.008-.278.008-.278.285.492.286.492 1.559-1.542 1.558-1.543-1.52-1.536-1.52-1.536-.332.454-.333.455v-.566l.348-.288.347-.288 1.637 1.652 1.638 1.652-1.664 1.65-1.664 1.649-.321-.32zm-204.527-1.352-.845-.872v-.372l.595.03.595.032-.49.126-.492.126.874.902.873.9h-.264zm205.265-.98-.662-.211.728-.026.728-.027v.529l-.066-.026-.067-.026zm-198.417-.462-.02-.596h-7.673v-.425l.992-.912.992-.912-.912.993-.912.992h7.529l.149.388.149.388-.136.34-.137.34zm191.31-.133-.037-.727 4.035.058 4.035.059-3.885.08-3.885.081-.114.589-.114.588zm-179.303-.216-.174-.282.158-.159.16-.158v.679l.653-.125.653-.125-.14.226-.14.227h-.996zm21.376-.968.992-.104.992.104.993.103H-285.807zm-18.936-4.493.591-.11.078-1.902.077-1.902 9.459-.07 9.459-.069v3.976h1.323V15.949l9.458.063 9.46.062-9.316.073-9.315.073-.077 1.915-.078 1.915h-1.588l-.077-1.918-.078-1.918h-18.475l-.077 1.918-.078 1.918-.669.028-.668.027zm40.103.005.463-.121.463.121.463.121h-1.852zm20.751-.005.591-.11.078-1.902.077-1.902 9.459-.07 9.459-.069v3.976h1.323V15.949l9.459.063 9.458.062-9.315.073-9.315.073-.077 1.915-.078 1.915h-1.588l-.077-1.918-.078-1.918h-18.474l-.078 1.918-.078 1.918-.668.028-.669.027zm40.103.005.463-.121.463.121.463.121h-1.852zm40.339.018-.189-.188V16.227l-4.3-.08-4.299-.08 4.432-.059 4.432-.059V19.918h1.323V15.949l9.459.063 9.459.062-9.315.073-9.315.073-.078 1.915-.078 1.915-.671.078-.672.079zM-141.94 20l.463-.121.463.121.463.121h-1.852zm-183.62-3.985 7.077-.075 7.077.075 7.078.075h-28.31zm67.715 0 4.68-.078 4.845.079 4.846.078h-19.05zm131.119.001 13.824-.072v-1.316l-29.17-.069-29.17-.069 29.236.002 29.236.002V16.081l-13.89.004-13.89.003 13.824-.072zm-170.9-1.588 35.013-.068 34.837.068 34.838.068h-139.7zm110.69 0 4.679-.078 4.846.078 4.846.079h-19.05z" style="fill:#5e5e5e;stroke-width:1" transform="translate(332.638 -4.837)"/><path d="M-290.437 10.406v-.78l-1.522-.08-1.521-.08.03-.418.029-.42 1.419-1.895 1.419-1.896h.94v3.968h.793v.737l-.397.153-.397.152v1.34h-.793zm0-2.975V6.057l-.681.91-.68.912-.255.463-.255.463h1.871zm-6.086 2.036V8.54H-298.11v-.794H-296.523V5.895h.794v1.852h1.852v.76l-.86.083-.86.083-.083.86-.082.86h-.76z" style="fill:#fe0a0a;stroke-width:1" transform="translate(332.638 -4.837)"/><path d="m-192.823 34.8-.017-.198-.05-9.26-.048-9.26-4.3-.073-4.3-.073v3.982H-203.124V15.949h-18.785V19.918h-1.323v-3.976l-9.459.07-9.459.07-.078 1.918-.077 1.918h-1.3V15.949h-18.785V19.918h-1.588V15.949h-18.785V19.918h-1.323v-3.976l-9.46.07-9.458.07-.078 1.918-.077 1.918h-1.3V15.949h-28.046v-1.323l69.718-.01 69.718-.01h21.96l29.104.01 29.104.01v1.323h-27.781V19.918H-142.27V15.949h-18.786V19.918h-1.323V15.949h-8.731v19.05h-21.696l-.017-.198zm20.125-10.123v-8.735l-9.326.07-9.327.07-.07 8.664-.07 8.666h18.793zm-132.84 5.844-.774-.773v-.57h.976l.479.53.479.529h1.44l.317-.381.316-.381-.086-.744-.085-.743-.86-.254-.86-.253v-.618l.787-.157.787-.158.169-.673.168-.672-.326-.394-.327-.393h-1.504l-.283.529-.283.529h-1.04v-.486l.165-.428.164-.428.748-.388.749-.387h1.542l.698.549.697.548v1.784l-.576.403-.576.403.708.557.708.557v1.59l-.773.773-.774.774h-2.198zm20.392.656v-.155l1.588-3.167 1.587-3.167v-.272h-3.968V23.357h5.291v1.209l-1.653 3.298-1.654 3.299-.595.084-.596.085zm57.68-.411v-.53H-225.88V25.21h-.464l-.33.397-.33.397h-.671l-.135-.35-.134-.348 1.201-.974 1.2-.974h.986v6.88h1.323v1.058H-227.466zm7.682-1.228 1.38-1.757-.735.185-.736.184-.719-.297-.718-.298-.3-.656-.298-.656v-1.339l.773-.773.774-.774h2.086l.687.541.687.54.164.872.163.872-.416.998-.417.997-.985 1.36-.985 1.361-.274.194-.273.195-.62.004-.619.004 1.38-1.757zm1.525-2.794.318-.317v-1.47l-.662-.433-.661-.434-.662.434-.661.433v1.47l.317.317.318.318h1.376zm-108.105.508-1.38-1.398v-.53l1.454-1.435 1.453-1.435.319.319.319.319-.846.873-.846.873v.371h7.672v1.118l-3.836-.1-3.836-.099v.247l.823.85.824.85-.178.287-.178.287h-.384zm205.887 1.007-.186-.486.838-.75.838-.748V26.104l-3.837.115-3.836.115V25.21h7.776l-.845-.872-.846-.873v-.605l.22-.135.218-.135 1.501 1.516 1.501 1.517-1.577 1.562-1.578 1.56z" style="fill:#020202;stroke-width:1" transform="translate(332.638 -4.837)"/></svg>