<svg xmlns="http://www.w3.org/2000/svg" viewBox="0 0 179.691 16.839" height="63.642" width="679.146"><path d="m-252.935 119.421-.773-.773v-1.92l.437-.844.437-.846 1.05-1.39 1.05-1.39H-249.18l-.193.33-.193.33-.988 1.197-.987 1.197H-249.517l.545.493.545.494.162.861.161.862-.32.623-.32.624-.564.457-.564.457-1.145.006-1.145.006zm3.048-.873.412-.588v-.676l-.53-.529-.528-.53h-1.02l-.417.417-.415.415v1.444l.317.318.318.317h1.451zm3.472 1.335.205-.35 1.013-1.227 1.014-1.228v-.217l-.911.107-.911.106-.677-.677-.676-.676v-1.836l.685-.814.685-.814h2.551l.714.848.713.848-.131 1.166-.132 1.166-1.32 1.889-1.32 1.888-.853.085-.853.085zm2.61-4.337.415-.416v-1.18l-.317-.317-.318-.318h-1.375l-.318.318-.317.317v1.376l.317.318.318.317H-244.221zm33.132 1.353 1.701-3.295-1.929-.078-1.93-.078-.084-.596-.084-.595h5.593v.714l-1.725 3.612-1.724 3.612h-1.52zm4.854 2.766v-.529h1.588v-5.002l-.783.449-.782.449-.342-.347-.342-.347 1.19-1.032 1.191-1.033.595-.008.596-.008v6.844l.725.084.725.083.088.463.088.463h-4.537z" style="fill:#fe0a0a;stroke-width:1" transform="translate(317.473 -103.394)"/><path d="m-231.128 116.899 1.72-3.297-1.898-.077-1.897-.077-.085-.596-.084-.595h5.593v.748l-1.704 3.595-1.704 3.595h-1.661zm5.232 2.864-.616-.431-.37-.883-.368-.883v-2.68l.36-.851.36-.852.56-.499.561-.499H-223.27l.56.5.56.498.36.852.36.851v2.68l-.368.883-.37.883-.615.431-.616.432H-225.28zm2.508-1.184.504-.557v-3.593l-.504-.557-.504-.557h-.965l-.447.683-.447.682v3.092l.447.682.447.682h.965zm77.686-1.08-.321-.32.008-.278.008-.278.286.492.286.492 1.558-1.543 1.559-1.542-1.52-1.536-1.52-1.536-.333.454-.332.454v-.565l.347-.288.347-.288 1.638 1.652 1.637 1.652-1.664 1.65-1.664 1.648-.32-.32zm-164.445-1.486-.711-.742v-.368l.463.02.463.022-.353.14-.352.141.733.765.732.764h-.264zm-.711-2.119v-.215l.86-.777.86-.777-.757.838-.755.837.623.119.624.118-.728.036-.727.036zm23.878-.507.992-.103.993.103.992.104H-287.972zm95.515 0 .992-.103.992.103.992.104h-3.968zm20.108 0 .992-.103.993.103.992.104H-172.35zm-97.871-6.29.002-2.116.102 1.132.101 1.131-.103.985-.104.985.002-2.116zm1.587 0 .002-2.116.102 1.132.102 1.131-.104.985-.103.985.002-2.116zm18.786 0 .002-2.116.101 1.132.102 1.131-.103.985-.104.985.002-2.116zm1.587 0 .002-2.116.102 1.132.102 1.131-.104.985-.103.985.002-2.116zm109.244-2.777v-.926l.12.463.122.463-.121.463-.121.463z" style="fill:#379a37;stroke-width:1" transform="translate(317.473 -103.394)"/><path d="m-293.58 119.556-.742-.638v-2.628l.984-1.428.984-1.43.548-.587.547-.588h1.371l-.695.86-.695.86-.579.771-.579.772.62-.163.62-.162.859.36.859.358.196.618.196.618-.022.795-.023.795-.813.728-.814.728h-2.08l-.742-.639zm2.875-.858.484-.437V117.194l-.438-.484-.438-.484h-1.44l-.33.398-.33.397v1.32l.33.398.33.397h1.348zm3.395 1.379v-.155l1.587-3.167 1.588-3.167v-.273H-288.104v-1.058h5.291l-.01.728-.011.727-1.643 3.175-1.643 3.175-.595.085-.595.084v-.154zm14.103-.52-.742-.64v-2.627l.984-1.428.984-1.43.548-.587.547-.588h1.37l-.694.86-.695.86-.579.771-.579.772.62-.163.62-.162.859.36.859.358.196.618.196.618-.022.795-.023.795-.814.728-.813.728h-2.08zm2.875-.859.484-.437V117.194l-.438-.484-.438-.484h-1.44l-.33.398-.33.397v1.32l.33.398.33.397h1.348zm3.791 1.191-.529-.29-.33-.414-.331-.414v-1.713l.654-.514.653-.515-.521-.471-.522-.472v-1.53l.65-.65.65-.649h2.069l.697.549.697.548v1.732l-.522.472-.521.471.654.515.653.514v1.506l-.164.428-.164.428-.749.388-.748.387-.873-.008-.874-.008-.529-.29zm2.1-.746.678-.258V117.008l-.661-.301-.661-.301-.662.3-.661.302v1.569l.588.412.588.412h.112zm.09-3.858.589-.412v-.854l-.438-.484-.438-.484h-.947l-.411.588-.412.588v.411l.529.53.529.529h.411zm72.555 4.792v-.155l1.588-3.167 1.587-3.167v-.273H-192.59v-1.058h5.292l-.01.728-.012.727-1.642 3.175-1.643 3.175-.595.085-.596.084v-.154zm5.556-.307v-.426l1.82-1.89 1.821-1.89.179-.585.178-.585-.288-.54-.289-.539h-1.556l-.423.646-.423.645-.377-.144-.377-.145v-.761l.65-.65.649-.649h2.069l.697.549.698.548v1.848l-.295.578-.295.578-1.311 1.35-1.31 1.35 1.671-.027 1.672-.027.084.595.085.596H-186.24zm14.553.307v-.155l1.587-3.167 1.587-3.167v-.273h-3.968v-1.058h5.291l-.01.728-.011.727-1.643 3.175-1.643 3.175-.595.085-.595.084v-.154zm6.37-.567-.814-.685v-.69l.368-.142.37-.141.603.642.603.642h1.431l.316-.38.316-.381-.086-.744-.085-.744-.86-.253-.86-.253v-.619l.787-.156.787-.158.169-.673.169-.673-.327-.393-.327-.394H-164.218l-.428.653-.428.653-.396-.152-.397-.152v-.761l.65-.65.65-.649H-162.263l.579.54.579.54v1.8l-.576.404-.576.403.708.557.708.557v1.59l-.773.773-.773.774h-2.117zm-146.013-3.359-1.38-1.397v-.531l1.453-1.435 1.453-1.435.319.32.319.319-.846.873-.846.873v.271l3.836-.116 3.837-.115v1.44l-3.837-.092-3.837-.09v.239l.824.85.824.849-.178.287-.178.288h-.383zm165.679 1.031-.177-.462.817-.842.817-.843-3.825.091-3.825.091v-1.439l3.84.115 3.84.116-.797-.822-.797-.823v-.605l.219-.135.219-.136 1.5 1.517 1.502 1.517-1.578 1.561-1.578 1.562zm-143.776-10.084v-1.985h-28.046V103.526h179.388V105.113h-27.781V109.082h-1.588V105.113h-18.786V109.082H-187.827V105.113h-18.786V109.082H-208.2V105.113h-18.785V109.082h-1.588V105.113h-18.785V109.082h-1.323V105.113h-19.05V109.082h-1.323V105.113h-18.786V109.082H-289.427z" style="fill:#060d06;stroke-width:1" transform="translate(317.473 -103.394)"/></svg>