<svg xmlns="http://www.w3.org/2000/svg" viewBox="0 0 224.367 16.706" height="63.139" width="848"><path d="M-247.157-3.285v-.53h1.588v-5.002l-.782.449-.783.449-.342-.347-.342-.346 1.19-1.033 1.191-1.033.595-.008.596-.008v6.88H-242.66v1.058h-4.498zm6.206-.12-.65-.65v-.834l.404-.155.404-.155.642.692.642.692h1.046l.416-.415.415-.416v-.956l-.33-.268-.331-.269-.526-.097-.526-.098-.083-.428-.082-.428.667-.168.667-.167.281-.526.282-.526-.283-.53-.283-.528h-1.266l-.538.683-.537.683-.474-.098-.474-.097.08-.52.08-.52.662-.594.663-.596h2.293l.611.495.611.495v1.982l-.47.345-.472.345.55.55.551.55-.008.86-.008.86-.322.42-.322.42-.578.308-.578.308h-2.176zm6.35 0-.65-.65v-.834l.404-.155.404-.155.642.692.642.692h1.046l.416-.415.415-.416v-.956l-.33-.268-.331-.269-.526-.097-.526-.098-.083-.428-.082-.428.667-.168.667-.167.281-.526.282-.526-.283-.53-.283-.528h-1.266l-.538.683-.537.683-.474-.098-.474-.097.08-.52.08-.52.662-.594.663-.596h2.293l.611.495.611.495v1.982l-.47.345-.472.345.55.55.551.55-.008.86-.008.86-.322.42-.322.42-.578.308-.578.308h-2.176zm40.89.12v-.53h1.588v-5.002l-.783.449-.782.449-.342-.347-.342-.346 1.19-1.033 1.19-1.033.596-.008.596-.008v6.88H-189.213v1.058h-4.498zm6.206-.12-.65-.65v-.834l.404-.155.404-.155.642.692.642.692h1.046l.415-.415.416-.416v-.956l-.33-.268-.331-.269-.526-.097-.527-.098-.082-.428-.082-.428.667-.168.667-.167.281-.526.282-.526-.283-.53-.284-.528H-186l-.537.683-.537.683-.474-.098-.474-.097.08-.52.08-.52.662-.594.662-.596h2.293l.612.495.611.495v1.982l-.47.345-.472.345.55.55.551.55-.008.86-.008.86-.322.42-.323.42-.578.308-.577.308h-2.176zm6.496.175-.585-.475.394-.327.394-.327.672.306.672.306.69-.174.69-.173.271-.713.271-.712-.274-.603-.275-.603h-2.99l.181-1.605.182-1.606.145-.379.146-.379h3.912v.775l-.512.274-.511.274h-2.152v1.644l.377-.144.377-.145.946.26.945.262.397.768.398.769v.872l-.41.863-.41.863-.66.302-.662.3h-2.033z" style="fill:#fe0c0c;stroke-width:1" transform="translate(324.415 19.425)"/><path d="M-220.434-3.285v-.53h1.588v-5.002l-.783.449-.782.449-.342-.347-.342-.346 1.19-1.033 1.191-1.033.595-.008.596-.008v6.844l.725.084.725.084.088.463.088.463h-4.537zm6.47-.12-.649-.65v-.834l.404-.155.404-.155.642.692.641.692h1.046l.43-.43.43-.43-.08-.562-.08-.562-.86-.378-.86-.379v-.64l.654-.165.653-.164.282-.526.281-.526-.283-.53-.283-.528h-1.266l-.537.683-.537.682-.513-.163-.514-.162.138-.527.138-.526.664-.523.665-.523h2.192l.558.391.558.39.169.674.169.673-.311.59-.31.59-.257.167-.256.167.56.56.56.56-.007.86-.008.86-.323.42-.322.42-.578.308-.578.308h-2.175zm9.14-.265v-.914l-1.758-.078-1.758-.079-.264-.42-.263-.42 1.922-2.556 1.922-2.557h1.258v4.812l.53.139.528.138v.782l-.529.138-.529.138v1.791h-1.058zm0-3.745v-1.75l-1.19 1.618-1.19 1.617v.263h2.38zm97.158 1.963-.32-.32.008-.278.008-.278.286.492.286.492 1.558-1.542 1.558-1.542v.264l-1.532 1.516-1.531 1.516-.32-.32zm-209.423-1.486-.711-.742v-.368h.617l-.18.18-.18.18.714.746.715.746h-.265zm211.22-3.094-1.437-1.455h.264l1.437 1.455 1.438 1.455h-.265zm-211.931.975v-.215l.86-.777.86-.777-.757.838-.756.838.624.118.624.118-.728.036-.727.036zm190.83-.507.992-.103.993.103.992.104H-127.962zm-138.088-6.29.002-2.116.102 1.132.102 1.131-.104.985-.103.986.002-2.117z" style="fill:#007f00;stroke-width:1" transform="translate(324.415 19.425)"/><path d="M-300.603-3.285v-.53h1.588V-8.842h-.464l-.33.397-.33.397h-.684l-.111-.33-.112-.331 1.082-.982 1.081-.981.596-.01.595-.012v6.88h1.323v1.058h-4.234zm6.712.22-.566-.274-.348-.652-.35-.652.383-.236.382-.236.678.65.679.65h1.362l.316-.38.316-.381-.086-.735-.085-.736-.86-.245-.86-.245v-.718h.977l.438-.483.437-.484V-9l-.317-.318-.318-.317h-1.42l-.428.653-.428.653-.396-.153-.397-.152v-.76l.65-.65.65-.65H-291.178l.579.54.579.54v1.749l-.522.472-.521.472.654.514.653.514v1.59l-.773.773-.773.774-1.013-.018-1.013-.018zm5.988-.22v-.53h1.588V-8.842h-.464l-.33.397-.33.397h-.684l-.111-.33-.112-.331 1.082-.982 1.081-.981.596-.01.595-.012v6.88h1.323v1.058h-4.234zm14.023 0v-.53h1.588V-8.842h-.464l-.33.397-.33.397h-.684l-.112-.33-.11-.331 1.08-.982 1.082-.981.595-.01.596-.012v6.88h1.323v1.058h-4.234zm6.711.22-.565-.274-.348-.652-.35-.652.383-.236.382-.236.678.65.679.65H-264.949l.317-.38.316-.381-.086-.735-.085-.736-.86-.245-.86-.245v-.718h.977l.437-.483.438-.484V-9l-.317-.318-.318-.317h-1.42l-.428.653-.428.653-.397-.153-.396-.152v-.76l.65-.65.649-.65h2.306l.579.54.579.54v1.749l-.522.472-.521.472.653.514.654.514v1.59l-.773.773-.774.774-1.012-.018-1.013-.018zm5.46-.161v-.47l1.834-1.82 1.833-1.82.158-.626.157-.626-.28-.524-.28-.523h-1.558l-.422.645-.423.646-.377-.145-.377-.145v-.76l.65-.65.649-.65h2.069l.697.549.697.548V-7.748l-.295.577-.294.578-1.311 1.35-1.31 1.35 1.67-.027 1.673-.027.084.596.085.595H-261.71zm94.721-.06v-.529h1.588V-8.842h-.465l-.33.397-.329.397h-.684l-.112-.33-.111-.331 1.081-.982 1.082-.981.595-.01.595-.012v6.88h1.323v1.058H-166.988zm6.976.22-.565-.273-.35-.652-.348-.652.382-.236.382-.236.679.65.678.65h1.362l.316-.38.316-.381-.085-.735-.086-.736-.86-.245-.86-.245v-.718h.977l.438-.483.438-.484V-9l-.318-.318-.317-.317H-159.254l-.428.653-.428.653-.396-.153-.397-.152v-.76l.65-.65.65-.65H-157.299l.579.54.579.54v1.749l-.522.472-.521.472.654.514.653.514v1.59l-.773.773-.773.774-1.013-.018-1.012-.018zm6.166-.23-.687-.541-.17-.908-.17-.908.286-.823.287-.822 1.13-1.566 1.131-1.566.584-.158.584-.157.271.092.272.092-1.244 1.567-1.244 1.567.628-.164.63-.165.858.36.859.358.196.618.196.619-.022.795-.022.795-.814.727-.814.728h-2.037zm2.778-.956.484-.438V-5.757l-.438-.484-.438-.484h-1.44l-.33.398-.33.397v1.32l.33.398.33.397H-151.551zm10.803.967v-.53H-138.678V-8.842h-.464l-.33.397-.329.397h-.685l-.111-.33-.111-.331 1.081-.982 1.082-.981.595-.01.595-.012v6.88h1.323v1.058H-140.265zm6.711.22-.565-.274-.349-.652-.349-.652.382-.236.382-.236.679.65.679.65H-131.334l.316-.38.316-.381-.085-.735-.085-.736-.86-.245-.86-.245v-.718h.976l.438-.483.438-.484V-9l-.318-.318-.317-.317h-1.42l-.429.653-.428.653-.396-.153-.396-.152v-.76l.65-.65.649-.65H-130.84l.58.54.578.54v1.749l-.521.472-.522.472.654.514.654.514v1.59l-.774.773-.773.774-1.013-.018-1.012-.018zm6.254.19v-.154l1.587-3.167 1.588-3.167v-.272H-128.094V-10.694h5.566l-.173.728-.174.728-1.617 3.175-1.618 3.175-.595.084-.595.085zM-318.404-6.93l-1.514-1.53 1.586-1.568 1.585-1.57.32.32.319.32-.846.873-.846.873v.271l3.836-.115 3.836-.116V-7.744l-3.836-.086-3.837-.086v.24l.824.85.824.85-.178.287-.178.287h-.382zm210.79 1.163-.177-.463.817-.842.817-.843-3.825.091-3.825.091v-1.439l3.84.116 3.84.115-.797-.822-.797-.823v-.605l.219-.135.219-.135 1.5 1.516 1.502 1.517-1.578 1.562-1.578 1.56zm-185.58-10.067v-2.002h-31.221v-1.588H-100.048v1.588h-31.221v3.968h-1.588v-3.968h-25.112l-.078 1.918-.077 1.918-.728.084-.728.083v-4.003H-184.715v3.968H-186.302v-3.968h-25.113l-.077 1.918-.078 1.918-.728.084-.727.083v-4.003h-25.136v3.968H-239.748v-3.968h-25.4v3.968h-1.323v-3.968h-25.112l-.078 1.918-.078 1.918-.727.084-.728.083z" style="fill:#020202;stroke-width:1" transform="translate(324.415 19.425)"/></svg>