<svg xmlns="http://www.w3.org/2000/svg" viewBox="0 0 240.506 16.706" height="63.142" width="909"><path d="M-289.304 109.823v-.443l1.852-1.91 1.852-1.91V103.635l-.397-.152-.398-.153-.643.162-.643.161-.173.544-.173.544-.551-.082-.552-.081-.109-.33-.108-.33.795-.794.795-.795h2.192l.475.254.476.255.326.788.327.788-.293.889-.293.888-1.333 1.31-1.333 1.31 1.534.132 1.534.133.085.595.084.595h-5.328zm6.35 0v-.443l1.852-1.91 1.852-1.91V103.635l-.397-.152-.398-.153-.643.162-.643.161-.173.544-.173.544-.551-.082-.552-.081-.109-.33-.108-.33.795-.794.795-.795h2.192l.475.254.476.255.326.788.327.788-.293.889-.293.888-1.333 1.31-1.333 1.31 1.534.132 1.534.133.085.595.084.595h-5.328zm14.023 0v-.443l1.852-1.91 1.852-1.91V103.635l-.397-.152-.398-.153-.643.162-.643.161-.173.544-.173.544-.552-.082-.551-.081-.109-.33-.108-.33.795-.794.795-.795h2.192l.475.254.476.255.326.788.327.788-.293.889-.293.888-1.333 1.31-1.333 1.31 1.534.132 1.534.133.085.595.084.595h-5.328zm7-.206-.65-.65v-.834l.404-.155.404-.155.642.693.641.692h1.046l.43-.43.43-.43-.08-.562-.08-.562-.86-.379-.86-.378v-.641l.653-.164.654-.164.282-.526.281-.527-.283-.529-.283-.529h-1.266l-.537.683-.538.683-.474-.097-.474-.097.08-.52.08-.52.662-.595.663-.595h2.293l.611.495.612.495v1.982l-.471.345-.472.344.551.55.55.551-.007.86-.008.86-.323.42-.322.42-.578.307-.578.308h-2.175zm13.373.206v-.443l1.852-1.91 1.852-1.91V103.635l-.398-.152-.397-.153-.643.162-.643.161-.173.544-.173.544-.552-.082-.551-.081-.109-.33-.108-.33.795-.794.795-.795h2.192l.475.254.476.255.326.788.327.788-.293.889-.294.888-1.332 1.31-1.333 1.31 1.534.132 1.534.133.085.595.084.595h-5.328zm9.79-.47v-.915l-1.759-.078-1.758-.078-.264-.42-.263-.42 1.921-2.556 1.922-2.557h1.259v4.812l.529.138.529.139v.996h-1.058v1.852H-238.77zm-.008-3.65-.007-1.654-.768.926-.768.926-.43.727-.43.728h2.411zm10.59 4.12v-.443l1.853-1.91 1.852-1.91V103.635l-.397-.152-.398-.153-.643.162-.643.161-.173.544-.173.544-.552-.082-.551-.081-.109-.33-.108-.33.795-.794.795-.795h2.192l.475.254.476.255.326.788.327.788-.293.889-.294.888-1.332 1.31-1.333 1.31 1.534.132 1.534.133.085.595.084.595h-5.328zm6.882-.03-.585-.475.394-.327.394-.328.672.306.671.306.69-.173.691-.173.271-.713.271-.713-.275-.603-.274-.602h-2.99l.181-1.606.182-1.605.145-.38.146-.378h3.912v.775l-.512.274-.512.274h-2.151v1.644l.377-.145.377-.145.946.261.945.262.397.768.397.768v.872l-.41.864-.409.863-.66.301-.662.301h-2.033zm13.492.03v-.443l1.852-1.91 1.852-1.91V103.635l-.398-.152-.397-.153-.643.162-.643.161-.173.544-.173.544-.552-.082-.552-.081-.108-.33-.109-.33.796-.794.795-.795h2.192l.475.254.476.255.326.788.327.788-.293.889-.294.888-1.333 1.31-1.332 1.31 1.534.132 1.534.133.085.595.084.595h-5.328zm7.123-.33-.773-.773v-1.92l.437-.845.437-.845 1.05-1.39 1.05-1.391H-196.933l-.193.33-.193.331-.987 1.197-.988 1.197H-197.271l.545.493.545.493.162.862.161.862-.32.623-.32.623-.563.457-.565.458-1.145.006-1.144.006zm3.048-.873.412-.588v-.676l-.53-.53-.528-.528h-1.02l-.417.415-.415.416v1.444l.317.318.318.317h1.451z" style="fill:#fe0c0c;stroke-width:1" transform="translate(332.696 -93.598)"/><path d="M-309.677 109.823v-.443l1.869-1.927 1.868-1.927-.082-1.003-.083-1.004-.703-.08-.703-.082-.662.714-.662.714-.4-.153-.4-.154.143-.552.145-.552.664-.522.665-.523h2.08l.475.254.476.255.326.788.327.788-.293.889-.293.888-1.333 1.31-1.333 1.31 1.534.132 1.534.133.085.595.084.595h-5.328zm7.144-.086v-.529H-300.946v-5.002l-.782.448-.782.45-.342-.347-.343-.347 1.191-1.033 1.19-1.032.596-.008.595-.008v6.844l.726.083.725.084.088.463.087.463h-4.536zm114.829.086v-.443l1.869-1.927 1.868-1.927-.082-1.003-.083-1.004-.703-.08-.703-.082-.662.714-.662.714-.4-.153-.401-.154.144-.552.145-.552.664-.522.665-.523h2.08l.475.254.476.255.326.788.327.788-.293.889-.293.888-1.333 1.31-1.333 1.31 1.534.132 1.534.133.085.595.084.595h-5.328zm7.144.307v-.136l1.583-3.16 1.584-3.16-1.914-.077-1.915-.078-.084-.595-.085-.595h5.593v.72l-1.735 3.608-1.736 3.61h-1.291zm13.229-.307v-.443l1.869-1.927 1.868-1.927-.082-1.003-.083-1.004-.703-.08-.703-.082-.662.714-.662.714-.4-.153-.401-.154.144-.552.144-.552.665-.522.665-.523h2.08l.475.254.476.255.326.788.327.788-.293.889-.294.888-1.332 1.31-1.333 1.31 1.534.132 1.534.133.085.595.084.595h-5.328zm7.264-.206-.65-.65v-1.855l.563-.525.563-.524-.43-.43-.431-.432v-1.775l.697-.549.697-.548h2.218l.616.655.615.656-.023.84-.024.84-.396.395-.395.395.538.435.537.435v2.078l-.703.604-.702.604h-2.64zm3.133-.963.264-.422-.168-.671-.169-.671-.592-.155-.592-.155-.601.394-.602.394v1.205l.33.33.33.329.768-.078.768-.078zm-.13-4.125.083-.842-.545-.292-.545-.291-.529.283-.529.283V105.151l.189.189.189.189.803-.079.803-.078zm10.106 5.294v-.443l1.869-1.927 1.868-1.927-.083-1.003-.082-1.004-.703-.08-.703-.082-.662.714-.662.714-.4-.153-.401-.154.144-.552.144-.552.665-.522.665-.523h2.08l.475.254.476.255.326.788.327.788-.293.889-.294.888-1.333 1.31-1.332 1.31 1.534.132 1.534.133.085.595.084.595h-5.328zm7.294.131.204-.35 1.013-1.226 1.014-1.228v-.217l-.911.106-.911.107-.677-.677-.676-.677v-1.835l.685-.814.685-.814h2.551l.714.848.713.847-.131 1.166-.132 1.166-1.32 1.89-1.32 1.888-.853.085-.853.085zm2.513-4.195.512-.274v-1.463l-.318-.317-.317-.318h-1.376l-.318.318-.317.317v1.376l.317.318.318.317h.987zm11.215 3.858-.65-.65v-.834l.405-.155.404-.155.641.693.642.692h1.046l.43-.43.43-.43-.08-.562-.08-.562-.86-.379-.86-.378v-.641l.653-.164.654-.164.282-.526.281-.526-.283-.53-.283-.529h-1.266l-.537.683-.537.683-.514-.163-.513-.163.138-.526.137-.527.665-.522.665-.523h2.192l.558.39.557.391.17.673.168.673-.31.59-.311.59-.256.167-.256.168.56.56.56.56-.008.86-.008.86-.322.42-.322.42-.578.308-.578.307h-2.176zm6.932.35-.488-.284-.498-1.098-.498-1.097-.004-1.058-.004-1.058.272-.98.272-.98.688-.542.688-.541h1.928l.616.431.616.432.369.883.369.883v2.68l-.37.882-.368.883-.616.432-.616.431-.934-.008-.933-.008zm2.308-1.252.446-.493.156-1.323.157-1.322-.318-.963-.317-.962-.665-.167-.665-.167-.56.56-.56.559v3.683l.493.544.492.544h.895zm-209.989-2.624-1.513-1.53 1.561-1.544 1.562-1.546.29.18.291.18v.605l-.782.806-.782.807 3.825-.08 3.825-.08v1.35h-7.508l.746.778.745.778-.158.413-.159.413h-.43zm226.676 1.242-.177-.287.875-.904.875-.903h-7.776v-1.323h7.776l-.875-.903-.875-.903.177-.287.178-.288h.648l1.38 1.397 1.38 1.398v.53l-1.397 1.38-1.398 1.38h-.613zm-204.64-10.164v-1.984H-332.697V93.598h240.507v1.582l-13.957.069-13.957.068-.078 1.919-.077 1.918h-1.565V95.185h-18.52V99.154h-1.588V95.185h-18.785V99.154h-1.565l-.077-1.918-.078-1.919-9.327-.07-9.326-.069v3.976h-1.588V95.185h-18.785V99.154h-1.588V95.185h-18.785V99.154h-1.588V95.185h-18.785V99.154h-1.588V95.185h-18.52V99.154h-1.852v-3.976l-9.327.07-9.327.07-.077 1.918-.078 1.918h-1.564V95.185h-18.521V99.154h-1.588z" style="fill:#070707;stroke-width:1" transform="translate(332.696 -93.598)"/></svg>