<svg xmlns="http://www.w3.org/2000/svg" viewBox="0 0 240.506 16.706" height="63.142" width="909"><path d="m-252.167 17.824-.586-.474.394-.328.395-.327.671.306.672.306.69-.173.69-.174.272-.712.27-.713-.274-.603-.275-.603h-2.99l.182-1.605.181-1.605.146-.38.145-.378h3.912v.775l-.511.274-.512.273h-2.152v1.645l.378-.145.377-.145.945.261.945.261.398.768.397.769v.872l-.41.863-.41.864-.66.3-.662.302h-2.033zm8.107-2.821 1.702-3.296-1.93-.078-1.928-.078-.085-.595-.084-.595h5.593v.713l-1.725 3.612-1.724 3.612h-1.52zm32.374 2.82-.586-.473.395-.328.394-.327.672.306.671.306.69-.173.69-.174.272-.712.27-.713-.274-.603-.274-.603h-2.991l.182-1.605.182-1.605.145-.38.146-.378h3.912v.775l-.512.274-.512.273h-2.151v1.645l.377-.145.377-.145.945.261.946.261.397.768.397.769v.872l-.41.863-.409.864-.661.3-.661.302h-2.033zm7.027.163.204-.35 1.014-1.227 1.013-1.227v-.217l-.91.106-.912.106-.676-.676-.677-.677v-2.042l.742-.71.742-.711H-201.68l.713.847.713.848-.13 1.166-.132 1.166-1.32 1.889-1.32 1.889-.853.085-.854.085zm2.61-4.337.415-.416v-1.18l-.318-.317-.317-.317h-1.376l-.317.317-.318.318v1.376l.318.317.317.318h1.18z" style="fill:#fe0c0c;stroke-width:1" transform="translate(377.582 -1.63)"/><path d="m-232.03 17.835-.557-.463.238-.373.239-.373.813.337.813.337.676-.17.676-.17.248-.651.248-.652-.172-.466-.172-.465-.284-.194-.284-.195-1.29-.004-1.292-.004.182-1.605.182-1.606.145-.379.146-.379h3.912v.688l-.318.318-.317.317h-2.54v.728l.001.728.9.018.9.02.674.441.675.443.175.932.175.932-.332.802-.332.802-.744.385-.743.384h-2.084zm6.487-.085-.697-.549v-2.078l.489-.489.488-.489-.356-.488-.357-.487V11.51l.596-.539.595-.538.602-.146.601-.146.92.254.919.254.403.779.403.779-.164.653-.164.653-.366.303-.365.304.576.467.577.467V17.044l-.729.627-.73.627h-2.544zm2.954-.828.317-.317v-1.112l-.317-.317-.318-.318h-1.375l-.318.318-.317.317v1.112l.317.317.318.318h1.375zm-.08-4.445v-.926h-1.852l-.087.615-.087.614.152.395.151.394.862-.083.861-.083zm-84.203 3.776.992-.104.992.104.992.104h-3.968zm162.18-.386-.321-.32.008-.278.008-.278.286.492.285.491 1.559-1.542 1.558-1.542-1.52-1.536-1.52-1.536-.332.454-.332.454v-.565l.347-.288.347-.289 1.637 1.653 1.638 1.652-1.664 1.65-1.664 1.648-.32-.32zm-39.665-1.538v-1.455l.11.728.11.727-.11.728-.11.727zm-122.052.847v-.211l.992.098.992.098.265.093.264.092-1.256.02-1.257.022zm-63.847-.795-.711-.742v-.368l.463.02.463.022-.353.14-.352.14.733.765.732.765h-.265zm-.711-2.119v-.215l.86-.777.86-.777-.757.838-.756.837.624.119.624.118-.728.036-.727.036zm18.851-.768.728-.11.727.11.728.11h-2.91zm20.373 0 .728-.11.727.11.728.11h-2.911zm20.373 0 .728-.11.727.11.728.11h-2.911zm20.373 0 .727-.11.728.11.728.11h-2.911zm6.35 0 .727-.11.728.11.728.11h-2.911zm14.023 0 .727-.11.728.11.728.11h-2.911zM-329.337 5.2l.002-2.117.101 1.132.102 1.131-.103.986-.104.985.002-2.117zm1.587 0 .002-2.117.102 1.132.102 1.131-.104.986-.103.985.002-2.117zm18.786 0 .002-2.117.101 1.132.102 1.131-.103.986-.104.985.002-2.117zm1.587 0 .002-2.117.102 1.132.101 1.131-.103.986-.103.985.002-2.117zm101.6 0 .002-2.117.102 1.132.101 1.131-.103.986-.103.985.002-2.117zm39.159 0 .002-2.117.101 1.132.102 1.131-.104.986-.103.985.002-2.117zm1.587 0 .002-2.117.102 1.132.101 1.131-.103.986-.103.985.002-2.117z" style="fill:#389b38;stroke-width:1" transform="translate(377.582 -1.63)"/><path d="m-353.867 17.865-.76-.41.398-.398.398-.398.542.29.543.29h1.328l.412-.587.411-.588v-.84l-.37-.506-.37-.506-1.35.059-1.35.058v-.618l.293-1.675.291-1.675h3.971l-.16.418-.16.419v.22h-2.911v1.016l-.16.418-.161.419H-350.687l.628.669.629.668V16.377l-.464.708-.464.707-.664.253-.665.253-.71-.01-.711-.011zm5.654.008v-.425l1.82-1.89 1.82-1.89.18-.586.178-.585-.289-.539-.288-.54h-1.557l-.423.646-.423.646-.377-.145-.377-.144v-.761l.65-.65.65-.65h2.069l.697.549.697.548V13.306l-.295.578-.295.578-1.31 1.35-1.311 1.349 1.671-.027 1.672-.027.085.596.084.595h-5.328zm14.719-.008-.76-.41.398-.398.398-.398.542.29.543.29h1.328l.412-.587.411-.588v-.84l-.37-.506-.37-.506-1.35.059-1.35.058v-.618l.293-1.675.291-1.675h3.971l-.16.418-.16.419v.22h-2.911v1.016l-.16.418-.161.419H-330.314l.628.669.629.668V16.377l-.464.708-.464.707-.665.253-.664.253-.71-.01-.711-.011-.76-.411zm6.468-.252-.814-.685v-.69l.368-.142.37-.141.603.642.603.643h1.43l.317-.381.316-.381-.086-.744-.085-.743-.86-.253-.86-.254v-.618l.787-.157.787-.157.169-.673.168-.673-.326-.394-.327-.393H-325.927l-.428.653-.428.653-.396-.152-.397-.152v-.761l.65-.65.649-.65h2.306l.579.54.579.54v1.8l-.576.404-.576.403.708.557.708.557v1.59l-.773.774-.774.773h-2.116zm13.905.252-.76-.41.398-.398.398-.398.542.29.543.29h1.328l.411-.587.412-.588v-.84l-.37-.506-.37-.506-1.35.059-1.35.058v-.618l.292-1.675.292-1.675h3.971l-.16.418-.16.419v.22h-2.911v1.016l-.16.418-.162.419h2.346l.628.669.629.668V16.377l-.464.708-.464.707-.665.253-.664.253-.71-.01-.711-.011zm9.093-.625V16.18h-3.704v-.995l1.768-2.413 1.769-2.412h1.226V15.388h1.058v.793h-1.058v2.117H-304.028zm0-3.625v-1.773l-.218.252-.22.25-.971 1.36-.972 1.358v.326H-304.028zm11.28 4.25-.76-.41.398-.398.398-.398.542.29.543.29h1.327l.412-.587.412-.588v-.84l-.37-.506-.37-.506-1.35.059-1.35.058v-.618l.292-1.675.292-1.675h3.971l-.16.418-.161.419v.22h-2.91v1.016l-.161.418-.16.419H-289.569l.628.669.628.668V16.377l-.463.708-.464.707-.665.253-.665.253-.71-.01-.71-.011-.76-.411zm6.35 0-.76-.41.398-.398.398-.398.542.29.543.29h1.327l.412-.587.412-.588v-.84l-.37-.506-.37-.506-1.35.059-1.35.058v-.618l.292-1.675.292-1.675h3.971l-.16.418-.161.419v.22h-2.91v1.016l-.161.418-.16.419H-283.219l.628.669.628.668V16.377l-.463.708-.464.707-.665.253-.665.253-.71-.01-.71-.011-.76-.411zm14.022 0-.759-.41.398-.398.397-.398.543.29.543.29h1.327l.412-.587.412-.588v-.84l-.37-.506-.37-.506-1.35.059-1.35.058v-.618l.292-1.675.292-1.675h3.971l-.16.418-.161.419v.22h-2.91v1.016l-.161.418-.16.419H-269.196l.628.669.628.668V16.377l-.463.708-.464.707-.665.253-.665.253-.71-.01-.71-.011-.76-.411zm6.53-.206-.743-.638v-2.627l.984-1.43.984-1.428.547-.588.548-.587h1.37l-.695.86-.694.86-.58.77-.578.772.62-.162.62-.162.859.359.859.358.196.619.196.618-.022.795-.023.795-.814.727-.814.728H-265.105l-.742-.639zm2.874-.857.484-.438V15.297l-.438-.484-.438-.484h-1.44l-.33.398-.33.398v1.32l.33.397.33.398h1.348zm72.002.857-.742-.638v-2.627l.984-1.43.984-1.428.547-.588.548-.587h1.37l-.694.86-.695.86-.58.77-.578.772.62-.162.62-.162.859.359.859.358.196.619.196.618-.022.795-.023.795-.814.727-.814.728H-190.228zm2.875-.857.484-.438V15.297l-.438-.484-.438-.484h-1.44l-.33.398-.33.398v1.32l.33.397.33.398h1.348zm3.908 1.107-.677-.368-.294-.646-.294-.645-.176-1.177-.177-1.178.306-1.136.306-1.136.63-.631.632-.631h1.911l.534.285.534.286.501 1.103.501 1.104.006 1.119.006 1.119-.43 1.074-.43 1.074-.747.386-.748.387-.608-.01-.609-.011zm2.522-1.45.404-.78V12.98l-.404-.78-.404-.781h-1.6l-.384.917-.383.918v2.151l.383.917.384.918h1.6zm11.068 1.2-.742-.638v-2.627l.984-1.43.984-1.428.547-.588.548-.587h1.37l-.695.86-.694.86-.58.77-.578.772.62-.162.62-.162.859.359.859.358.196.619.196.618-.022.795-.023.795-.814.727-.814.728H-169.855zm2.875-.857.484-.438V15.297l-.438-.484-.438-.484h-1.44l-.33.398-.33.398v1.32l.33.397.33.398h1.348zm3.394.967v-.53h1.588v-5.026h-.465l-.33.396-.328.397h-.685l-.112-.33-.111-.331 1.081-.981 1.082-.982.595-.01.596-.011v6.879h1.323v1.058h-4.234zm-207.111-3.25-1.38-1.397v-.531l1.453-1.435 1.453-1.435.319.32.319.318-.846.873-.846.873v.272l3.836-.116 3.837-.115v1.44l-3.837-.092-3.837-.09v.239l.824.85.824.849-.178.287-.178.288h-.383zm226.798 1.031-.178-.462.817-.842.817-.843-3.824.091-3.825.091v-1.44l3.84.116 3.84.116-.798-.822-.797-.823v-.605l.22-.135.219-.136 1.5 1.517 1.502 1.517-1.578 1.561-1.578 1.562zM-349.536 5.22V3.217h-28.046V1.629h240.506v1.588h-28.046V7.186h-1.323V3.217h-18.762l-.077 1.918-.078 1.918-.728.084-.727.084V3.217h-19.05V7.186h-1.323V3.217h-18.786V7.186H-227.563V3.217h-18.786V7.186H-247.936V3.217h-18.786V7.22l-.727-.084-.728-.084-.077-1.918-.078-1.918h-18.762V7.186h-1.588V3.217h-18.785V7.186h-1.323V3.217h-19.05V7.186h-1.323V3.217h-18.762l-.078 1.918-.078 1.918-.727.084-.728.084z" style="fill:#060b06;stroke-width:1" transform="translate(377.582 -1.63)"/></svg>