<svg xmlns="http://www.w3.org/2000/svg" viewBox="0 0 240.506 16.706" height="63.142" width="909"><path d="M-277.935 6.863V5.95l-1.758-.078-1.758-.078-.264-.42-.263-.42 1.921-2.556 1.922-2.557h1.259v4.812l.529.138.529.139v.996h-1.058v1.852H-277.935zm-.007-3.65-.007-1.653-.768.926-.768.926-.43.727-.43.728h2.411zm3.862 4.252.204-.35 1.013-1.227 1.014-1.227v-.217l-.911.106-.911.107-.677-.677-.676-.677V1.468l.685-.814.685-.814h2.552l.713.848.713.847-.131 1.166-.132 1.166-1.32 1.89-1.32 1.888-.853.085-.853.085zm2.609-4.337.416-.416V1.533l-.318-.317-.317-.318h-1.376l-.318.318-.317.317V2.91l.317.317.318.318H-271.887zm11.001 4.175-.586-.474.395-.328.394-.327.672.306.671.306.69-.173.691-.173.271-.713.271-.713-.275-.603-.274-.602h-2.99l.181-1.606.182-1.605.145-.38.146-.378h3.912v.775l-.512.274-.512.274h-2.151v1.644l.377-.145.377-.145.945.261.946.261.397.769.397.768v.872l-.41.864-.409.863-.661.301-.661.301h-2.033zm6.615-.276-.75-.751-.186-1.234-.185-1.233.185-1.234.185-1.234.75-.75.752-.751h2.04l.615.431.616.432.37.883.368.883v2.68l-.369.882-.369.883-.616.432-.616.431h-2.04zm2.733-.79.437-.483.16-1.174.162-1.174-.302-1.119-.301-1.119-.676-.17-.676-.17-.56.56-.56.56V5.63l.493.544.492.544h.895zm11.025 1.066-.586-.474.395-.328.394-.327.672.306.671.306.69-.173.69-.173.272-.713.27-.713-.274-.603-.274-.602h-2.991l.182-1.606.182-1.605.145-.38.146-.378h3.912v.775l-.512.274-.512.274h-2.151v1.644l.377-.145.377-.145.945.261.946.261.397.769.397.768v.872l-.41.864-.409.863-.661.301-.661.301h-2.033zm6.612-.055V6.72h1.588V1.716l-.782.45-.783.448-.342-.346-.342-.347 1.19-1.033 1.191-1.032.596-.008.595-.008v6.844l.725.084.726.083.087.463.088.463h-4.537zm13.76.055-.585-.474.395-.328.394-.327.672.306.671.306.69-.173.69-.173.272-.713.27-.713-.274-.603-.275-.602h-2.99l.182-1.606.182-1.605.145-.38.146-.378h3.912v.775l-.512.274-.512.274h-2.151v1.644l.377-.145.377-.145.945.261.946.261.397.769.397.768v.872l-.41.864-.409.863-.661.301-.661.301h-2.033zm5.82.031v-.443l1.852-1.91 1.852-1.91V1.146l-.398-.152-.397-.153-.643.161-.644.162-.172.544-.173.544-.552-.082-.552-.081-.108-.33-.109-.33.795-.794.795-.795h2.193l.475.254.475.255.327.788.327.788-.294.889-.293.888-1.333 1.31-1.333 1.31 1.535.132 1.534.133.084.595.085.595h-5.328zm14.29-.03-.586-.475.394-.328.394-.327.672.306.672.306.69-.173.69-.173.271-.713.271-.713-.275-.603-.274-.602h-2.99l.181-1.606.182-1.605.145-.38.146-.378h3.912v.775l-.512.274-.512.274h-2.151v1.644l.377-.145.377-.145.946.261.945.261.397.769.398.768v.872l-.41.864-.41.863-.66.301-.662.301h-2.033zm6.467-.176-.65-.65v-.834l.405-.155.404-.155.642.692.641.693h1.046l.43-.43.43-.43-.08-.562-.08-.562-.86-.379-.86-.378v-.641l.653-.164.654-.164.282-.527.281-.526-.283-.529-.283-.529h-1.266l-.537.683-.537.683-.475-.097-.474-.097.08-.52.08-.52.662-.595.663-.595h2.293l.611.495.612.495v1.982l-.471.345-.472.344.551.55.55.551-.007.86-.008.86-.323.42-.322.42-.578.307-.578.308h-2.175z" style="fill:#fe0c0c;stroke-width:1" transform="translate(345.139 8.891)"/><path d="M-318.68 6.863V5.95l-1.759-.078-1.758-.078-.264-.42-.263-.42 1.922-2.556 1.921-2.557h1.259v4.812l.529.138.53.139v.781l-.53.139-.53.138v1.79h-1.058zm0-3.584V1.692h-.201l-1.09 1.444-1.09 1.444v.287h2.38zm5.184 1.257 1.654-3.241-1.898-.132-1.898-.133-.084-.595-.085-.595h5.593v.713l-1.724 3.612-1.725 3.612h-1.488zm15.188 2.327V5.95l-1.758-.078-1.758-.078-.264-.42-.263-.42 1.921-2.556 1.922-2.557h1.259v4.812l.529.138.529.139v.781l-.53.139-.528.138v1.79H-298.308zm0-3.584V1.692h-.2l-1.09 1.444-1.09 1.444v.287h2.38zm3.56 3.849-.65-.65V4.623l.564-.525.563-.524-.43-.43-.432-.432V.99l.613-.575.612-.575h2.387l.616.655.616.656-.024.84-.024.84-.395.395-.396.395.538.435.537.435v2.077l-.702.605-.703.604h-2.64zm3.133-.963.264-.422-.168-.671-.168-.671-.593-.155-.592-.155-.601.394-.601.394v1.205l.33.33.329.329.768-.078.768-.078zm-.129-4.125.082-.842-.545-.292-.544-.291-.53.283-.529.283V2.662l.19.189.188.189.803-.079.804-.079zm112.501 5.263-.586-.474.395-.328.394-.327.672.306.671.306.69-.173.69-.173.298-.654.298-.655-.301-.661-.301-.661h-2.99l.181-1.606.182-1.605.145-.38.146-.378h3.912v.775l-.512.274-.512.274h-2.151v1.644l.377-.145.377-.145.945.261.946.261.397.769.397.768v.872l-.41.864-.409.863-.661.301-.661.301h-2.033zm9.523-.44V5.95l-1.758-.078-1.759-.078-.263-.42-.264-.42 1.922-2.556 1.922-2.557h1.259v4.812l.528.138.53.139v.781l-.53.139-.529.138v1.79H-169.72zm0-3.584V1.692h-.201l-1.09 1.444-1.09 1.444v.287h2.38zm10.85 4.024-.586-.474.395-.328.394-.327.672.306.671.306.69-.173.69-.173.298-.654.298-.655-.301-.661-.301-.661h-2.991l.182-1.606.182-1.605.145-.38.146-.378h3.912v.775l-.512.274-.512.274h-2.151v1.644l.377-.145.377-.145.945.261.946.261.397.769.397.768v.872l-.41.864-.409.863-.661.301-.661.301h-2.033zm6.35 0-.586-.474.395-.328.394-.327.672.306.671.306.69-.173.69-.173.298-.654.298-.655-.301-.661-.301-.661h-2.991l.182-1.606.182-1.605.145-.38.146-.378h3.912v.775l-.512.274-.512.274h-2.151v1.644l.377-.145.377-.145.945.261.946.261.397.769.397.768v.872l-.41.864-.409.863-.661.301-.661.301h-2.033zm14.023 0-.586-.474.395-.328.394-.327.672.306.671.306.69-.173.69-.173.298-.654.298-.655-.301-.661-.302-.661h-2.99l.182-1.606.182-1.605.145-.38.145-.378H-134v.775l-.512.274-.512.274h-2.151v1.644l.377-.145.377-.145.945.261.946.261.397.769.397.768v.872l-.41.864-.41.863-.66.301-.661.301h-2.034zm6.592-.3-.773-.773V4.311l.437-.845.437-.845 1.05-1.39 1.05-1.391H-128.15l-.193.33-.193.331-.988 1.197-.987 1.197H-128.487l.545.493.545.493.162.862.161.862-.32.623-.32.623-.564.457-.564.458-1.145.005-1.145.006zm3.048-.872.412-.588v-.676l-.53-.53-.528-.528h-1.021l-.416.415-.416.416v1.444l.318.317.317.318h1.452zm-210.271-2.529-1.514-1.53 1.562-1.544 1.561-1.546.291.18.291.18v.605l-.782.806-.782.807 3.825-.08 3.825-.08v1.35h-7.508l.746.778.745.778-.158.413-.159.412h-.43zm226.676 1.242-.178-.287.876-.904.875-.903H-118.656V1.427H-110.879l-.875-.903-.876-.903.178-.288.178-.287h.648l1.38 1.397 1.38 1.398v.53l-1.397 1.38-1.398 1.38h-.613zM-317.148-5.253l-.077-1.919-13.957-.068-13.957-.069V-8.89h240.506v1.582l-13.956.069-13.957.068-.078 1.919-.078 1.918h-1.564V-7.304h-18.52V-3.335h-1.565l-.078-1.918-.077-1.919-9.327-.07-9.327-.069v3.976h-1.564l-.078-1.918-.077-1.919-9.327-.07-9.326-.069v3.976h-1.588V-7.304h-18.785V-3.335h-1.588v-3.976l-9.326.07-9.327.07-.078 1.918-.077 1.918h-1.565V-7.304h-18.785V-3.335h-1.588V-7.304h-18.52V-3.335h-1.852v-3.976l-9.327.07-9.327.07-.077 1.918-.078 1.918h-1.564V-7.304h-18.521V-3.335h-1.564z" style="fill:#090909;stroke-width:1" transform="translate(345.139 8.891)"/></svg>