<svg xmlns="http://www.w3.org/2000/svg" viewBox="0 0 240.506 16.706" height="63.139" width="909"><path d="m-262.8 129.179-.773-.774v-1.919l.437-.845.437-.845 1.05-1.39 1.05-1.392H-259.076v.313l-1.164 1.365-1.165 1.365 1.018.013 1.019.012.538.487.538.487.162.862.161.862-.32.623-.32.623-.564.457-.564.457-1.145.006-1.145.006zm3.048-.873.412-.588v-.676l-.53-.53-.528-.529h-1.021l-.416.416-.416.416v1.444l.318.317.317.318h1.452zm3.178.997-.65-.65v-1.855l.564-.525.563-.524-.431-.431-.43-.43v-1.722l.612-.576.612-.576 1.173.008 1.174.008.453.344.452.344.269.706.268.706-.242.636-.241.636-.287.177-.286.177.56.455.562.454v2.077l-.703.605-.702.604h-2.64zm3.133-.964.264-.422-.168-.67-.168-.671-.51-.134-.51-.133-.618.307-.617.307-.087.603-.086.603.328.396.329.396.79-.08.79-.08zm-.129-4.124.082-.842-.545-.292-.545-.291-.529.283-.529.283v1.48l.189.19.189.189.803-.08.803-.078zm33.032 2.442 1.701-3.296-1.93-.078-1.928-.078-.085-.595-.084-.596h5.593v.714l-1.725 3.612-1.724 3.612h-1.52zm4.856 2.544-.75-.75-.185-1.234-.185-1.234.185-1.233.185-1.234.75-.75.751-.752h2.04l.616.432.616.431.369.883.369.883v2.68l-.37.883-.368.883-.616.432-.616.431h-2.04zm2.734-.79.436-.482.161-1.174.161-1.174-.301-1.12-.301-1.118-.676-.17-.676-.17-.552.552-.552.552-.02 1.677-.019 1.678.47.716.468.716h.964z" style="fill:#fe0c0c;stroke-width:1" transform="translate(327.338 -113.283)"/><path d="m-242.46 129.146-.805-.806.123-1.29.124-1.289 1.39-1.873 1.388-1.874h1.537l-.01.199-.012.198-1.047 1.191-1.047 1.19.925.157.925.157.525.475.525.475.16.857.162.858-.423.818-.424.818-.509.273-.509.272h-2.192zm2.964-.65.33-.398v-1.412l-.48-.351-.48-.352h-.92l-.416.416-.416.416v1.444l.318.317.317.318H-239.826zm3.44 1.294v-.161l1.013-1.228 1.013-1.227.159-.276.158-.275-.892.104-.892.104-.677-.676-.677-.677v-2.068l.669-.669.669-.669.724-.106.723-.106.586.143.586.144.528.454.528.454.169.672.168.672-.167.891-.167.891-1.324 1.886-1.324 1.885h-1.574zm2.758-4.487.416-.416v-1.18l-.317-.317-.318-.317h-1.376l-.317.317-.318.318v1.376l.318.317.317.318h1.18zm98.643 2.604.992-.104.992.104.992.104h-3.968zm40.206-.386-.32-.32.008-.278.008-.278.286.492.285.491 1.559-1.542 1.558-1.542-1.52-1.536-1.52-1.536-.332.454-.332.454v-.565l.347-.288.347-.289 1.637 1.653 1.638 1.652-1.664 1.65-1.664 1.648-.32-.32zm-225.563-1.486-.711-.742v-.368l.463.02.463.022-.353.14-.352.141.733.764.732.765h-.265zm-.711-2.119v-.215l.86-.777.86-.777-.757.838-.755.837.623.119.624.118-.728.036-.727.036zm226.549.033.463-.121.463.12.463.122h-1.852zm-182.298-.804.992-.104.993.104.992.103H-277.464zm75.142 0 .992-.104.992.104.992.103h-3.968zm20.108 0 .992-.104.993.104.992.103H-182.214zm20.373 0 .992-.104.992.104.993.103H-161.841zm20.373 0 .992-.104.992.104.993.103H-141.468zm20.373 0 .992-.104.992.104.992.103h-3.968zm7.673.003.727-.11.728.11.728.11h-2.911zm-166.663-6.293.002-2.117.101 1.132.102 1.131-.103.985-.104.986.002-2.117zm1.587 0 .002-2.117.102 1.132.102 1.131-.104.985-.103.986.002-2.117zm18.786 0 .002-2.117.101 1.132.102 1.131-.103.985-.104.986.002-2.117zm1.587 0 .002-2.117.102 1.132.102 1.131-.104.985-.103.986.002-2.117zm101.6 0 .002-2.117.102 1.132.102 1.131-.104.985-.103.986.002-2.117zm39.159 0 .002-2.117.101 1.132.102 1.131-.104.985-.103.986.002-2.117zm1.587 0 .002-2.117.102 1.132.101 1.131-.103.985-.103.986.002-2.117z" style="fill:#2a942a;stroke-width:1" transform="translate(327.338 -113.283)"/><path d="m-302.991 129.612-.656-.332-.347-.656-.346-.656.122-1.026.122-1.027.939-1.362.938-1.363.548-.588.547-.588h1.37l-.694.86-.695.86-.535.71-.536.71.735-.02.734-.021.594.188.595.189.29.543.291.543v1.902l-.824.737-.824.737-.856-.004-.856-.004zm2.421-1.156.484-.438V126.859l-.506-.458-.505-.457-.75.086-.749.086-.353.741-.354.742.424.647.424.648H-301.054zm3.929 1.156-.656-.332-.347-.656-.346-.656.122-1.026.122-1.027.939-1.362.938-1.363.548-.588.547-.588h1.37l-.694.86-.695.86-.535.71-.536.71.735-.02.734-.021.594.188.595.189.29.543.291.543v1.902l-.824.737-.824.737-.856-.004-.856-.004zm2.421-1.156.484-.438V126.859l-.506-.458-.505-.457-.75.086-.749.086-.353.741-.354.742.424.647.424.648H-294.704zm11.602 1.156-.656-.332-.347-.656-.346-.656.122-1.026.122-1.027.938-1.362.939-1.363.548-.588.547-.588h1.37l-.694.86-.695.86-.535.71-.536.71.735-.02.734-.021.594.188.595.189.29.543.291.543v1.902l-.824.737-.825.737-.855-.004-.856-.004zm2.421-1.156.484-.438V126.859l-.506-.458-.506-.457-.749.086-.749.086-.354.741-.353.742.424.647.424.648H-280.681zm3.394 1.378v-.155l1.588-3.167 1.587-3.166v-.273h-3.968V122.014h5.291v1.278l-1.653 3.264-1.654 3.264-.595.084-.596.085zm75.142 0v-.155l1.588-3.167 1.587-3.166v-.273H-202.455V122.014h5.292v1.278l-1.654 3.264-1.653 3.264-.596.084-.595.085zm6.35-.411v-.53h1.588v-5.026h-.465l-.33.396-.329.397h-.684l-.112-.33-.111-.331 1.081-.981 1.082-.982.595-.01.595-.012v6.88h1.323v1.058H-195.31zm13.758.411v-.155l1.588-3.167 1.587-3.166v-.273h-3.968V122.014h5.291v1.278l-1.653 3.264-1.654 3.264-.595.084-.596.085zm5.557-.307v-.425l1.82-1.89 1.82-1.89.179-.586.179-.585-.289-.539-.288-.54h-1.557l-.423.646-.423.646-.377-.145-.377-.144v-.761l.65-.65.65-.65h2.068l.698.549.697.548V124.96l-.295.578-.295.578-1.31 1.35-1.311 1.349 1.671-.027 1.672-.027.085.596.084.595h-5.328zm14.816.307v-.155l1.588-3.167 1.587-3.166v-.273h-3.968V122.014h5.291v1.278l-1.653 3.264-1.654 3.264-.595.084-.596.085zm6.635-.567-.814-.685v-.69l.369-.142.369-.141.603.642.603.643h1.431l.316-.381.316-.381-.085-.744-.085-.743-.86-.253-.86-.254v-.618l.786-.157.787-.157.169-.673.169-.673-.327-.394-.326-.393h-1.462l-.428.653-.428.653-.396-.152-.396-.152v-.761l.65-.65.649-.65H-151.49l.58.54.578.54v1.8l-.576.404-.575.403.708.557.708.557v1.59l-.774.774-.773.773h-2.117zm13.738.567v-.155l1.588-3.167 1.587-3.166v-.273H-141.6V122.014h5.292v1.278l-1.653 3.264-1.654 3.264-.595.084-.596.085zm8.996-.94v-1.059h-3.704v-.948l1.765-2.436 1.766-2.437H-130.753v5.028H-129.694v.793H-130.753v2.117h-1.058zm0-3.625v-1.773l-.219.252-.218.25-.972 1.36-.972 1.358v.326H-131.811zm11.377 4.565v-.155l1.588-3.167 1.587-3.166v-.273H-121.228V122.014h5.292v1.278l-1.654 3.264-1.653 3.264-.596.084-.595.085zm6.252-.315-.759-.41.398-.398.397-.398.543.29.543.29h1.327l.412-.587.412-.588v-.941l-.525-.525-.524-.524-1.195.163-1.195.164v-.69l.291-1.675.292-1.676h3.971l-.16.419-.161.419v.22h-2.911v1.016l-.16.418-.16.419H-111.002l.628.669.628.668V128.031l-.463.708-.464.707-.665.253-.665.253-.71-.01-.71-.011zm-207.013-3.346-1.38-1.397v-.531l1.453-1.435 1.453-1.435.319.32.319.318-.846.873-.846.873v.272l3.836-.116 3.836-.115v1.44l-3.836-.092-3.837-.09v.239l.824.85.824.849-.178.287-.178.288h-.383zm226.798 1.031-.178-.462.817-.842.817-.843-3.824.091-3.825.091V123.794l3.851.13 3.852.131-.809-.834-.809-.835v-.605l.22-.135.219-.136 1.5 1.517 1.502 1.517-1.578 1.561-1.578 1.562zm-204.895-10.349v-1.984h-28.046v-1.588h240.506v1.588h-28.046v3.968h-1.323v-3.968h-18.785v3.968H-136.573v-3.968h-19.05v3.968h-1.323v-3.968h-18.786v3.968H-177.319v-3.968h-18.786v3.968H-197.692v-3.968h-18.786v3.968H-218.065v-3.968h-18.786v3.968H-238.438v-3.968h-18.785v3.968h-1.323v-3.968h-19.05v3.968h-1.323v-3.968h-18.786v3.968H-299.292z" style="fill:#060b06;stroke-width:1" transform="translate(327.338 -113.283)"/></svg>