<svg xmlns="http://www.w3.org/2000/svg" viewBox="0 0 232.833 26.363" height="99.639" width="880"><path d="m-289.269 26.532.193-.33 1.014-1.228 1.013-1.227v-.096l-.002-.095-1.092-.015-1.092-.014-.495-.61-.494-.61v-1.835l.773-.773.774-.774h2.128l.742.639.742.638-.002 1.28-.002 1.28-1.394 2.05-1.395 2.05H-289.461l.193-.33zm2.696-4.22.318-.318V20.62l-.318-.318-.317-.317h-1.376l-.318.317-.317.318v1.375l.317.318.318.317h1.376zm3.472 3.777-.773-.773v-2.104l.866-1.284.867-1.283.638-.86.639-.86h1.552l-.363.506-.363.506-.834 1.022-.835 1.021h2.122l.505.623.504.623.152.605.152.606-.432.911-.433.912-.661.302-.661.3h-1.868zm3.108-.976.453-.692-.39-.698-.39-.697-.573-.082-.573-.083-.542.29-.543.29v1.728l.317.318.318.317H-280.447zm-28.5-.97.355-.47-.627-.72-.626-.72.778.725.779.726-.507.465-.507.465zm129.466-1.249v-1.19l.115.595.114.595-.114.595-.115.596zm6.615 0v-1.19l.114.595.115.595-.115.595-.114.596zm20.373 0v-1.19l.114.595.115.595-.115.595-.115.596zm26.458 0v-1.19l.115.595.114.595-.114.595-.115.596zm-130.181-2.839.992-.103.992.103.992.104h-3.968zm-29.104-4.223.463-.12.463.12.463.121h-1.852zm26.304.006-.177-.176V12.051l-12.501-.071-12.502-.071 12.634-.064 12.634-.063v3.933l.728.11.727.11-.683.04-.684.04zm27.142-.006.463-.12.463.12.463.121h-1.852zm26.304.006-.177-.176V12.051l-12.501-.071-12.502-.071 12.634-.064 12.634-.063v3.933l.727.11.728.11-.684.04-.683.04zm27.141-.006.463-.12.463.12.463.121h-1.852zm26.723 0 .463-.12.463.12.463.121h-1.852zm26.723 0 .463-.12.463.12.463.121h-1.852zm-184.15-3.984 7.872-.074 7.87.074 7.872.074h-31.485zm57.926 0 6.265-.076 6.435.076 6.434.076h-25.4zm53.446 0 6.265-.076 6.435.076 6.434.076h-25.4zm26.722 0 6.266-.076 6.434.076 6.435.076h-25.4zm26.723 0 6.266-.076 6.434.076 6.435.076h-25.4zm30.294 0 9.836-.073 10.008.073 10.007.072h-39.687zm-62.295-5.623V5.3l.121.463.121.463-.12.463-.122.463zm-56.153-.926 1.169-1.19h.264l-1.168 1.19-1.169 1.19h-.264zm56.183-2.646.002-2.116.101 1.131.102 1.132-.103.985-.104.985.002-2.117z" style="fill:#979797;stroke-width:1" transform="translate(316.55 -.537)"/><path d="m-209.1 26.532.193-.33 1.013-1.228 1.014-1.227-.001-.096v-.095l-1.093-.015-1.092-.014-.495-.61-.494-.61v-1.835l.773-.773.773-.774h2.199l.806.807.806.806-.128 1.135-.127 1.134-1.369 2.028-1.368 2.028H-209.293zm2.696-4.22.317-.318V20.62l-.317-.318-.318-.317h-1.375l-.318.317-.317.318v1.375l.317.318.318.317h1.375zm3.919 4.22.193-.33 1.013-1.228 1.013-1.227v-.096l-.001-.095-1.093-.015-1.092-.014-.494-.61-.495-.61v-1.835l.774-.773.773-.774H-199.696l.807.807.806.806-.128 1.135-.128 1.134-1.368 2.028-1.369 2.028h-1.602zm2.696-4.22.317-.318V20.62l-.317-.318-.318-.317h-1.376l-.317.317-.318.318v1.375l.318.318.317.317h1.376zm67.521 4.022v-.53h1.588v-5.057l-.791.468-.792.467-.327-.327-.327-.327 1.184-1.04 1.185-1.04.595-.011.596-.012v6.88h1.323v1.058h-4.234zm6.788.229-.488-.284-.498-1.097-.499-1.097-.006-1.028-.006-1.028.312-1.04.312-1.041.65-.512.65-.51h1.928l.616.43.615.432.37.883.368.883-.002 1.133-.002 1.133-.272.98-.272.98-.688.542-.688.54-.956-.007-.957-.008zm2.125-.966.315-.2.28-.74.282-.74v-2.099l-.384-.917-.383-.917h-1.312l-.4.4-.4.4-.175 1.163-.174 1.163.188.884.188.884.409.463.408.463.422-.004.422-.004.314-.2zm3.258.795v-.47l1.711-1.697 1.712-1.696.236-.679.237-.678-.22-.594-.22-.594h-1.452l-.54.678-.54.678-.433-.166-.432-.166.135-.519.136-.518.664-.523.665-.523 1.089.009 1.088.008.465.352.464.353.274.785.273.786-.276.727-.277.727-1.432 1.502-1.433 1.502 1.633-.002 1.632-.002.085.595.084.596h-5.328zm-85.619-20.037-.664-.663.163-.263.162-.262h.645l.453.53.453.528h.76l.417-.415.415-.416v-.65l-.317-.318-.318-.317h-.952v-.757l.595-.085.596-.084V1.595l-.544-.078-.544-.078-.49.541-.489.541h-.712V1.82l.613-.576.612-.575h1.868l.438.484.438.484v1.348l-.379.315-.38.315.535.534.535.535-.167.704-.166.705-.548.463-.547.463H-205.052zm80.327.135-.529-.53V3.936l.788-1.19.789-1.19.515-.466.515-.466.441.089.442.09-.841 1.056-.841 1.056.87.178.868.178.344.47.344.47v1.51l-.65.65-.65.649h-1.875zm2.329-.582.317-.318V4.48l-.317-.317-.318-.318H-124.577l-.273.512-.274.512v.526l.416.416.415.415h.915z" style="fill:#0b0bfe;stroke-width:1" transform="translate(316.55 -.537)"/><path d="m-262.546 26.532.193-.33 1.013-1.228 1.014-1.227v-.096l-.002-.095-1.092-.015-1.092-.014-.495-.61-.494-.61v-1.835l.773-.773.774-.774h2.198l.806.807.806.806-.127 1.135-.128 1.134-1.369 2.028-1.368 2.028H-262.739zm2.696-4.22.318-.318V20.62l-.318-.318-.317-.317h-1.376l-.318.317-.317.318v1.375l.317.318.318.317h1.376zm3.757 4.433v-.155l1.588-3.167 1.587-3.167v-.272H-256.887V18.925h5.614l-.179.714-.179.713-1.636 3.19-1.635 3.189-.596.084-.595.085zm70.38-.411v-.53H-184.127v-5.057l-.791.468-.791.467-.328-.327-.327-.327 1.185-1.04 1.184-1.04.595-.011.596-.012v6.88h1.323v1.058h-4.234zm6.491-.099-.627-.628-.285-1.026-.285-1.026-.002-.763-.002-.763.312-1.04.312-1.041.65-.512.65-.51h1.927l.616.43.616.432.37.883.368.883-.002 1.133-.002 1.133-.272.98-.272.98-.688.542-.688.54h-2.07l-.627-.627zm2.421-.638.315-.2.28-.74.282-.74v-2.099l-.383-.917-.384-.917h-1.312l-.4.4-.4.4-.174 1.163-.175 1.163.188.884.188.884.409.463.408.463.422-.004.422-.004.314-.2zm4.194.638-.628-.628-.285-1.026-.284-1.026-.002-.763-.002-.763.311-1.04.312-1.041.65-.512.65-.51h1.928l.616.43.616.432.369.883.369.883-.002 1.133-.002 1.133-.273.98-.272.98-.688.542-.688.54h-2.069l-.628-.627zm2.421-.638.314-.2.281-.74.282-.74v-2.099l-.384-.917-.383-.917h-1.312l-.4.4-.4.4-.175 1.163-.174 1.163.188.884.188.884.408.463.409.463.422-.004.422-.004.314-.2zm-88.817-18.975v-.397h1.323V1.91l-.484.438-.484.438h-.62v-.731l.909-.693.908-.693h.829v5.556h1.058v.794h-3.44zm82.285-.397v-.793h-2.854l-.141-.37-.142-.37 1.491-2.011 1.491-2.012h.949V4.638h.794v.794h-.794V7.019h-.794zm0-2.948V1.916l-.926 1.213-.926 1.212v.297h1.852z" style="fill:#fe0909;stroke-width:1" transform="translate(316.55 -.537)"/><path d="m-235.823 26.532.193-.33 1.013-1.228 1.014-1.227-.001-.096v-.095l-1.093-.015-1.092-.014-.495-.61-.494-.61v-1.835l.773-.773.774-.774h2.198l.806.807.806.806-.127 1.135-.128 1.134-1.369 2.028-1.368 2.028H-236.016zm2.696-4.22.318-.318V20.62l-.318-.318-.317-.317h-1.376l-.318.317-.317.318v1.375l.317.318.318.317h1.376zm3.89 4.245-.53-.29-.33-.414-.331-.414v-1.713l.643-.505.642-.506-.51-.437-.51-.437v-1.819l.696-.548.698-.549h1.974l.697.549.697.548v1.776l-.43.43-.432.431.563.525.563.524v1.856l-.649.65-.65.649-1.136-.008-1.136-.008-.53-.29zm2.46-1.07.318-.318v-1.463l-.54-.288-.539-.289-.585.183-.585.183-.195.295-.194.295-.004.542-.004.542.317.318.318.317h1.376l.317-.317zm.062-3.934.293-.547-.422-.643-.421-.644h-.552l-.512.274-.512.274v1.48l.177.177.176.176h1.48zm67.724 4.78v-.529h1.588v-5.057l-.791.468-.792.467-.327-.327-.327-.327 1.184-1.04 1.185-1.04.595-.011.596-.012v6.88h1.323v1.058h-4.234zm7.053.23-.488-.284-.499-1.097-.498-1.097-.006-1.028-.006-1.028.312-1.04.312-1.041.65-.512.65-.51h1.927l.616.43.616.432.37.883.368.883-.002 1.133-.002 1.133-.272.98-.272.98-.688.542-.688.54-.957-.007-.956-.008zm2.125-.966.314-.2.281-.74.281-.74v-2.099l-.383-.917-.383-.917h-1.312l-.4.4-.4.4-.175 1.163-.174 1.163.188.884.188.884.408.463.409.463.422-.004.422-.004.314-.2zm3.787.737v-.53H-144.44v-5.057l-.79.468-.792.467-.327-.327-.328-.327 1.185-1.04 1.185-1.04.595-.011.595-.012v6.88h1.323v1.058H-146.026zM-257.06 13.766l.002-2.117.101 1.132.102 1.131-.104.985-.103.986.002-2.117zm23.986-6.905v-.158l1.6-1.746 1.6-1.747-.078-.807-.08-.808-.543-.078-.544-.078-.49.541-.489.541h-.711v-.794l.529-.529.529-.529h1.734l.588.412.588.412V3.338l-1.212 1.296-1.213 1.296 1.277.081 1.276.082.088.463.088.463h-4.537zm80.815-.221-.514-.38.276-.28.275-.28.828.313.828.312.431-.358.432-.358-.08-.816-.08-.817-1.277-.081-1.277-.082.172-1.109.172-1.109.13-.463.132-.463H-148.672v.423l-.317.318-.318.317h-2.011V2.962h1.58l.533.482.533.482v1.996l-.697.549-.697.548h-1.68z" style="fill:#319731;stroke-width:1" transform="translate(316.55 -.537)"/><path d="m-100.695 24.329-.16-.418.433-.433.433-.433.433.433.433.433-.16.418-.16.417H-100.534zm2.91 0-.16-.418.434-.433.433-.433.433.433.433.433-.16.418-.16.417h-1.092zm2.98-.013-.176-.458.36-.36.36-.359.457.176.458.176-.08.561-.08.562-.562.08-.562.08-.175-.458zm-215.602-1.628-1.514-1.53 1.586-1.568 1.585-1.57.32.32.32.32-.847.873-.846.873v.271l3.836-.115 3.837-.116V21.875l-3.837-.086-3.837-.086v.24l.824.85.824.85-.178.287-.178.287h-.382l-1.513-1.53zm25.21-8.922v-1.984h-31.22v-1.589l116.217.067 116.219.066.083.728.084.728h-39.458v3.968H-124.859v-3.968h-25.136v3.968H-151.582v-3.968h-25.136v3.968H-178.305v-3.968h-25.136v3.968H-205.028v-3.968h-25.136v3.968H-231.75v-3.968h-25.4v3.968h-1.323v-3.968H-283.61v3.968h-1.588z" style="fill:#071f07;stroke-width:1" transform="translate(316.55 -.537)"/></svg>