<svg xmlns="http://www.w3.org/2000/svg" viewBox="0 0 205.978 26.591" height="100.5" width="778.5"><path d="m-230.33 19.527-.005-1.058.12.46.121.46-.115.598-.115.599-.005-1.059zm90.421.397v-.53h1.588v-5.002l-.783.45-.782.448-.342-.346-.342-.347 1.19-1.033 1.191-1.032.595-.008.596-.008v6.844l.725.083.725.084.088.463.088.463h-4.537zm6.788.23-.488-.284-.498-1.098-.499-1.097-.004-1.058-.004-1.059.273-.98.272-.98.688-.541.688-.541h1.928l.616.431.616.432.368.883.37.883v2.68l-.37.882-.368.883-.616.432-.616.431-.934-.008-.933-.008-.488-.284zm2.307-1.252.447-.493.156-1.323.157-1.322-.318-.963-.318-.963-.664-.166-.665-.167-.56.56-.56.559v3.683l.493.544.492.544h.894zm3.725.902-.649-.65V17.3l.563-.525.563-.524-.43-.43-.431-.432v-1.722l.612-.575.612-.575h2.388l.615.655.616.656-.024.84-.024.84-.395.395-.395.395.537.435.538.435v2.077l-.703.605-.703.604h-2.64l-.65-.65zm3.134-.963.264-.423-.169-.67-.168-.671-.592-.155-.593-.155-.6.394-.602.394v1.205l.33.33.329.329.768-.078.769-.078zm-.13-4.125.082-.842-.545-.292-.544-.291-.53.283-.528.283V15.338l.188.189.19.189.803-.079.803-.079zm-142.752 1.768v-1.19l.115.595.115.595-.115.596-.115.595zm26.723 0v-1.19l.115.595.114.595-.114.596-.115.595zm6.278.81v-.25l.306-.188.305-.189-.18.29-.178.29 1.13.102 1.13.101-1.256.047-1.257.046zm3.495-2.33.054-2.58.088 2.43.087 2.43.453.118.453.12-.595.03-.595.03zm16.95 1.52v-1.19l.115.595.114.595-.114.596-.115.595zm26.723 0v-1.19l.115.595.114.595-.114.596-.115.595zm26.723 0v-1.19l.115.595.114.595-.114.596-.115.595zm-46.044-1.24.464-.121.463.12.463.122H-206.452zm-.089-1.488.216-.216 1.16.088 1.16.088-1.375.127-1.377.128zm53.205.083-1.985-.17 2.05-.047 2.051-.048v.529l-.066-.047-.066-.048zM-266.38 7.49V5.64l-19.645-.07-19.645-.07 19.777-.064 19.778-.064V9.341h-.265zm26.774.067-.05-1.915-12.502-.072-12.502-.071 12.51-.064 12.51-.063.137.359.138.358-.095 1.692-.095 1.692zm1.652-.2.017-1.853 12.634-.068 12.634-.07-.053 2.054-.052 2.053-.092-1.918-.091-1.918H-237.782l-.095 1.786-.095 1.785zm51.794.2-.05-1.915-12.502-.072-12.502-.071 12.51-.064 12.51-.063.137.359.138.358-.095 1.692-.095 1.692zm26.672-.066v-1.85l-12.502-.07-12.501-.072 12.634-.064 12.634-.063V9.341h-.265zm26.723 0v-1.85l-12.502-.07-12.501-.072 12.634-.064 12.634-.063V9.341h-.265zm17.247-2.053 15.528-.07.107-.858.106-.858.043.992.042.993-15.677-.064-15.676-.064zm-45.825-7.793-.13-2.039.212.213.212.213-.082 1.826-.082 1.825zm5.027 0-.13-2.039.212.213.212.213-.082 1.826-.082 1.825zm-24.013-.475v-.926l.121.463.121.463-.12.463-.122.463z" style="fill:#aaa;stroke-width:1" transform="translate(305.67 6.005)"/><path d="M-220.078 19.924v-.53h1.588v-5.056l-.791.467-.791.468-.328-.328-.327-.327 1.185-1.04 1.184-1.04.596-.011.595-.011v6.879h1.323v1.058h-4.234zm6.788.23-.488-.284-.498-1.098-.498-1.097-.006-1.028-.006-1.027.312-1.041.311-1.04.65-.512.65-.511h1.928l.616.431.616.432.369.883.369.883-.002 1.133-.002 1.133-.273.98-.272.98-.688.541-.688.541-.956-.008-.957-.008-.488-.283zm2.126-.967.314-.2.28-.74.282-.739V15.41l-.383-.917-.384-.918h-1.312l-.4.4-.4.4-.174 1.163-.175 1.163.188.885.188.884.409.463.408.463.422-.004.422-.004.315-.2zm3.88 1.003-.569-.229-.156-.253-.156-.253.377-.313.377-.313.559.3.559.299.706-.083.706-.082.393-.703.393-.703-.313-.686-.312-.687h-2.99l.18-1.389.182-1.389.146-.595.146-.595h3.951l-.088.463-.088.463-1.453.132-1.453.132-.083.86-.083.86h1.843l.428.165.428.164.41.794.411.794-.164.877-.165.878-.805.678-.805.677-.972-.017-.972-.016-.568-.23zm-5.337-20.666.613-.82.363-.503.363-.502h-1.614l-.416-.416-.416-.415v-1.815l.53-.529.529-.53h1.734l.588.413.588.412v2.268l-1.094 1.63-1.093 1.628h-1.288zm1.81-3.023.336-.405-.298-.654-.297-.653h-1.316l-.283.529-.283.529.283.53.283.528h1.24z" style="fill:#0b0bfe;stroke-width:1" transform="translate(305.67 6.005)"/><path d="M-273.523 19.924v-.53H-271.936v-5.056l-.791.467-.791.468-.327-.328-.328-.327 1.185-1.04 1.184-1.04.596-.011.595-.011v6.879h1.323v1.058H-273.523zm6.788.23-.489-.284-.498-1.098-.498-1.097-.006-1.028-.006-1.027.312-1.041.312-1.04.65-.512.65-.511h1.927l.616.431.616.432.369.883.369.883-.002 1.133-.002 1.133-.272.98-.273.98-.688.541-.688.541-.956-.008-.957-.008-.488-.283zm2.125-.967.314-.2.281-.74.281-.739V15.41l-.383-.917-.384-.918h-1.312l-.4.4-.4.4-.174 1.163-.175 1.163.189.885.188.884.408.463.409.463.422-.004.422-.004.314-.2zm3.642.617-.65-.65v-.76l.457-.176.456-.175.492.676.492.676h1.178l.47-.344.47-.344-.089-.772-.089-.772-.86-.245-.86-.245v-.718h.736l.615-.498.615-.498-.316-.692-.315-.693H-259.48l-.644.695-.644.694-.293-.18-.293-.182v-.786l.65-.65.65-.65H-257.649l.529.53.529.53V15.387l-.406.407-.407.406.539.539.539.538v1.628l-.774.774-.773.773h-2.446zm67.613.12v-.53h1.588v-5.056l-.791.467-.791.468-.328-.328-.327-.327 1.185-1.04 1.184-1.04.595-.011.596-.011v6.879h1.323v1.058h-4.234zm6.788.23-.488-.284-.498-1.098-.498-1.097-.006-1.028-.006-1.027.311-1.041.312-1.04.65-.512.65-.511h1.928l.616.431.616.432.369.883.368.883-.002 1.133-.002 1.133-.272.98-.272.98-.688.541-.688.541-.957-.008-.956-.008-.488-.283zm2.125-.967.315-.2.28-.74.282-.739V15.41l-.383-.917-.384-.918h-1.312l-.4.4-.4.4-.174 1.163-.175 1.163.188.885.188.884.409.463.408.463.422-.004.422-.004.314-.2zm4.032.493-.774-.774v-2.104l.867-1.283.866-1.283.638-.86.64-.86h1.552l-.363.506-.363.506-.835 1.021-.834 1.021H-176.993l.536.485.535.484.165.754.166.754-.428.902-.428.902-.661.301-.661.301h-1.868zm3.107-.977.453-.692-.39-.697-.39-.697-.572-.083-.573-.083-.543.29-.543.291v1.728l.318.317.317.318h1.47zM-266.644.207V.07l1.19-2.37 1.191-2.372v-.275h-2.91V-6.006H-262.94v.788l-1.383 2.782-1.384 2.78h-.938zm77.523-.259v-.397h1.323V-4.764l-.484.438-.484.438h-.62v-.731l.908-.693.909-.693h.829V-.45h1.058v.794h-3.44zm5.007-.286-.642-.683V-4.64l.642-.682.641-.683h1.452l.428.164.429.165.387.748.387.749v2.699l-.387.748-.387.748-.429.165-.428.164h-1.452zm2.25-.527.416-.415v-2.908l-.274-.512-.274-.511h-1.01l-.412.588-.412.588v2.41l.412.588.412.588h.726z" style="fill:#fe0a0a;stroke-width:1" transform="translate(305.67 6.005)"/><path d="m-246.47 19.477.463-.12.463.12.463.121h-1.852zm80.169 0 .463-.12.463.12.463.121h-1.852zm-67.872-1.067.854-.106.999.104.998.104-1.852.002-1.853.002.854-.106zm127.073-.356v-.132l1.455-1.438 1.455-1.437v.265l-1.455 1.437-1.455 1.437zm-6.844-2.959-.036-.727 3.77.058 3.771.058-3.62.082-3.621.081-.114.588-.114.588zm8.166-1.653-1.437-1.455h.265l1.437 1.455 1.437 1.455h-.264zM-264.7 7.356l.002-2.116.101 1.131.102 1.132-.104.985-.103.985.002-2.117zm53.444.133V5.504l.103.992.104.993-.104.992-.103.992zm26.724-.133.002-2.116.102 1.131.102 1.132-.104.985-.103.985.002-2.117zm53.446 0 .002-2.116.102 1.131.101 1.132-.103.985-.103.985.002-2.117z" style="fill:#319831;stroke-width:1" transform="translate(305.67 6.005)"/><path d="M-246.8 20.056v-.397H-245.213v-5.648l-.665.625-.665.624-.327-.336-.327-.336 1.158-1.036 1.159-1.036h.99V19.659h1.323v.794H-246.8zm6.655-.27-.793-.668-.28-1.304-.28-1.304.236-1.264.237-1.263.82-.734.821-.733h1.29l.694.316.693.316.382.738.381.737.155 1.132.156 1.132-.297 1.102-.297 1.103-.81.68-.808.681H-239.352zm2.808-1.185.347-.661-.087-1.818-.087-1.818-.614-.497-.614-.498h-.412l-.61.494-.61.494-.11 1.714-.108 1.714.44.85.44.851.839-.082.839-.081zm5.882.794v-1.058h-3.704v-.961l1.786-2.42 1.786-2.42.595-.01.596-.01V17.543h1.058v.793h-1.058v2.117H-231.455zm0-3.616v-1.764l-.143.143-.143.143-1.047 1.404-1.048 1.404v.434H-231.455zm64.823 4.277v-.397h1.588v-5.648l-.665.625-.665.624-.327-.336-.328-.336 1.159-1.036 1.158-1.036h.991V19.659h1.323v.794h-4.234zm6.656-.27-.794-.668-.28-1.304-.279-1.304.236-1.264.236-1.263.821-.734.821-.733h1.29l.693.316.694.316.382.738.381.737.155 1.132.155 1.132-.297 1.102-.296 1.103-.81.68-.808.681H-159.183zm2.808-1.185.347-.661-.087-1.818-.087-1.818-.615-.497-.614-.498h-.412l-.61.494-.61.494-.108 1.714-.11 1.714.44.85.44.851.84-.082.838-.081zm3.236 1.71v-.178l1.74-3.28 1.74-3.279h-4.273v-1.058h5.291l-.02.595-.019.595-1.634 3.308-1.634 3.307-.595.084-.596.085v-.178zM-239.789.03l-.53-.3-.194-.288-.194-.287-.004-.712-.004-.713.535-.375.535-.374-.403-.334-.402-.335V-5.18l.588-.412.588-.412h1.37l.579.54.579.539v.936l-.366.5-.366.5.51.692.512.69-.273.717-.272.716-.684.26-.683.26-.446-.008-.446-.008-.529-.3zm2.203-1.22.087-.61-.318-.382-.317-.383h-1.152l-.318.318-.317.317v.847l.33.33.329.329.795-.078.795-.078zm-.229-2.678.273-.51-.156-.406-.156-.406-.517-.164-.517-.165-.385.32-.384.318v1.17l.177.176.176.177h1.216zm75.417 3.817v-.397h1.323v-4.245l-.617.404-.616.403-.182-.182-.182-.182.85-.877.85-.877h.955V-.45H-158.958v.794h-3.44zm5.027 0v-.397h1.323v-4.245l-.617.404-.616.403-.182-.182-.182-.182.85-.877.85-.877h.955V-.45h1.058v.794h-3.44z" style="fill:#007f00;stroke-width:1" transform="translate(305.67 6.005)"/><path d="m-295.66 18.184-.16-.418.432-.433.433-.433.407.407.407.406-.17.444-.171.444h-1.018zm2.973-.027-.17-.444.406-.406.407-.407.433.433.433.433-.16.418-.16.417H-292.517zm3.022.045-.35-.421.394-.393.393-.394.458.176.458.176-.08.559-.08.558-.422.08-.42.08zm182.143-.496-.178-.463.82-.846.82-.845-3.828.099-3.827.099v-1.118H-105.938l-.846-.872-.846-.873v-.605l.22-.135.219-.135 1.5 1.516 1.502 1.517-1.578 1.562-1.578 1.56zm-158.593-10.35V5.372h-39.423V3.784H-99.957v1.588h-31.22V9.341h-1.323V5.372h-25.136V9.341H-159.223V5.372h-25.4V9.341h-1.323V5.367l-12.634.069-12.634.068-.078 1.919-.077 1.918h-1.3V5.372h-25.4V9.341h-1.323V5.372h-25.4V9.341h-1.323z" style="fill:#020202;stroke-width:1" transform="translate(305.67 6.005)"/></svg>