<?xml version="1.0" encoding="UTF-8" standalone="no"?>
<svg
   xmlns:dc="http://purl.org/dc/elements/1.1/"
   xmlns:cc="http://creativecommons.org/ns#"
   xmlns:rdf="http://www.w3.org/1999/02/22-rdf-syntax-ns#"
   xmlns:svg="http://www.w3.org/2000/svg"
   xmlns="http://www.w3.org/2000/svg"
   id="svg8"
   version="1.1"
   viewBox="0 0 35.432953 24.077083"
   height="91.000008"
   width="133.91983">
  <defs
     id="defs2" />
  <metadata
     id="metadata5">
    <rdf:RDF>
      <cc:Work
         rdf:about="">
        <dc:format>image/svg+xml</dc:format>
        <dc:type
           rdf:resource="http://purl.org/dc/dcmitype/StillImage" />
        <dc:title></dc:title>
      </cc:Work>
    </rdf:RDF>
  </metadata>
  <path
     d="M 1.4336564,1.2352717 C 1.3639734,1.012029 1.2942892,0.78878873 1.2246068,0.56554611 1.2120738,0.55519609 1.1960158,0.5292451 1.1855898,0.52813109 1.0616892,0.92092243 0.93559701,1.3130342 0.81310261,1.706262 c -0.020093,0.066251 -0.040205,0.1325025 -0.060309,0.1987537 0.29663309,0 0.59326839,0 0.88990149,0 C 1.5730151,1.6817686 1.5033369,1.4585191 1.4336564,1.2352717 Z M 0.4470905,1.6519918 C 0.6023269,1.1764589 0.75169751,0.69886755 0.91062392,0.2246308 0.93908422,0.1497548 0.96754441,0.0748776 0.99600471,0 1.1341996,0 1.2723945,0 1.4105894,0 1.7297832,0.98695065 2.048977,1.9738991 2.3681709,2.9608497 2.3695203,3.0078818 2.381154,3.0663298 2.3144339,3.0384189 2.2043012,3.0277308 2.094166,3.0170207 1.9840331,3.0063308 1.9097811,2.7568938 1.8355287,2.5074544 1.7612765,2.2580173 1.3833487,2.2693353 1.0054209,2.2806363 0.62749313,2.2919473 0.55143644,2.5399939 0.47537747,2.7880405 0.39932077,3.0360871 c -0.13310768,0 -0.2662131,0 -0.39932077,0 C 0.14903091,2.574723 0.29805958,2.1133563 0.4470905,1.6519918 Z M 3.6142493,2.694409 C 3.5644253,2.695649 3.5117955,2.703499 3.455086,2.718698 V 22.602237 H 3.9310259 V 3.303674 L 31.897219,22.600827 c 0.204031,-0.0418 0.33038,-0.154735 0.153773,-0.411437 C 22.873809,15.832487 13.666788,9.5124592 4.4782792,3.1698321 4.1622714,2.9887466 3.9630148,2.6857857 3.6142493,2.694409 Z M 1.2515598,22.184564 c 0.04387,-0.03553 0.087741,-0.07105 0.1316114,-0.106574 0,-0.151769 0,-0.303538 0,-0.455307 -0.059225,-0.05922 -0.1184467,-0.118443 -0.1776666,-0.177667 -0.26224639,-0.02104 -0.52449275,-0.0421 -0.7867391,-0.06315 0,0.303091 0,0.606179 0,0.90927 0.23372761,0 0.46745749,0 0.7011851,0 0.04387,-0.03552 0.087739,-0.07105 0.1316092,-0.106571 z m 0.092646,1.389196 c 0.048708,-0.04871 0.097414,-0.09741 0.1461217,-0.146122 0,-0.156156 0,-0.312313 0,-0.46847 C 1.4157285,22.867038 1.3411301,22.774916 1.2665291,22.68279 0.98394054,22.66681 0.70135418,22.65085 0.41876561,22.63488 c 0,0.361667 0,0.723332 0,1.084999 0.25977358,0 0.51954494,0 0.77931859,0 0.048708,-0.04871 0.097414,-0.09742 0.1461216,-0.146124 z M 0.01590774,22.573908 c 0.00531,-0.501055 0.01059749,-1.002109 0.01590749,-1.503164 0.33954504,-0.01098 0.67985511,-0.02807 1.01892087,-0.03524 0.138987,0.04085 0.2779716,0.0817 0.4169586,0.122547 0.09684,0.103083 0.1936821,0.206167 0.2905243,0.309251 0,0.238365 0,0.476727 0,0.715092 -0.1073834,0.09237 -0.2147669,0.184738 -0.3221526,0.277105 0.1007775,0.06603 0.2015549,0.132064 0.3023324,0.198097 0.055267,0.137128 0.1179944,0.272761 0.1686486,0.410816 -0.00232,0.130295 0.00457,0.262903 -0.0034,0.391783 -0.071388,0.13311 -0.1427759,0.26622 -0.2141639,0.39933 -0.1352204,0.07252 -0.2704408,0.145039 -0.4056612,0.217559 -0.42794079,0 -0.85588154,0 -1.2838223,0 0.00531259,-0.501056 0.0106001,-1.002115 0.0159101,-1.503176 z m 33.96253426,1.37948 c -0.07543,-0.0425 -0.157199,-0.07769 -0.228793,-0.124608 -0.114178,-0.161216 -0.236241,-0.318957 -0.345517,-0.482338 -0.04515,-0.224571 -0.09611,-0.448778 -0.137633,-0.673576 0.02185,-0.248575 0.03631,-0.499169 0.06274,-0.746484 0.105593,-0.215825 0.211183,-0.431647 0.316775,-0.647469 0.182732,-0.10458 0.362742,-0.217577 0.547169,-0.316917 0.187833,-0.01805 0.375666,-0.0361 0.563499,-0.05415 0.222147,0.101702 0.444291,0.203402 0.666435,0.305102 0,0.141102 0,0.282204 0,0.423306 -0.04612,0.008 -0.08511,-0.0078 -0.119692,-0.03812 -0.137633,-0.09108 -0.275267,-0.18216 -0.412898,-0.27324 -0.199723,-0.003 -0.399447,-0.006 -0.59917,-0.009 -0.109135,0.08245 -0.225618,0.158618 -0.330245,0.244915 -0.08814,0.172478 -0.176268,0.344956 -0.264401,0.517437 0.0016,0.261852 -0.0021,0.524452 0.0029,0.785839 0.04252,0.153157 0.08505,0.306314 0.127568,0.459472 0.10935,0.10935 0.218697,0.218697 0.328047,0.328047 0.147394,0.02576 0.294785,0.05908 0.442179,0.08012 0.136599,-0.02824 0.277723,-0.04693 0.411541,-0.08104 0.114081,-0.09599 0.228161,-0.191986 0.342239,-0.287977 0.0465,-0.002 0.101293,-0.01161 0.07487,0.05355 -0.01085,0.130979 -0.02167,0.261959 -0.03252,0.392938 -0.177083,0.08929 -0.354161,0.178593 -0.531244,0.267889 -0.219792,-0.0018 -0.439589,-0.0035 -0.659381,-0.0053 -0.07485,-0.03942 -0.149633,-0.07917 -0.224531,-0.11838 z"
     style="opacity:1;vector-effect:none;fill:#ff0000;fill-opacity:1;fill-rule:nonzero;stroke:none;stroke-width:0.52916664;stroke-linecap:butt;stroke-linejoin:miter;stroke-miterlimit:4;stroke-dasharray:none;stroke-dashoffset:0;stroke-opacity:1"
     id="rect30" />
</svg>
