<?xml version="1.0" encoding="UTF-8" standalone="no"?>
<svg
   xmlns:dc="http://purl.org/dc/elements/1.1/"
   xmlns:cc="http://creativecommons.org/ns#"
   xmlns:rdf="http://www.w3.org/1999/02/22-rdf-syntax-ns#"
   xmlns:svg="http://www.w3.org/2000/svg"
   xmlns="http://www.w3.org/2000/svg"
   width="128.04744"
   height="88.204582"
   viewBox="0 0 33.879218 23.337462"
   version="1.1"
   id="svg8">
  <defs
     id="defs2" />
  <metadata
     id="metadata5">
    <rdf:RDF>
      <cc:Work
         rdf:about="">
        <dc:format>image/svg+xml</dc:format>
        <dc:type
           rdf:resource="http://purl.org/dc/dcmitype/StillImage" />
        <dc:title></dc:title>
      </cc:Work>
    </rdf:RDF>
  </metadata>
  <path
     d="M 16.982358,1.5404736 16.998268,0.0373051 17.385221,0 v 3.0436466 h -0.418764 l 0.01591,-1.503173 z M 28.354788,19.303985 C 24.61674,14.348731 20.880701,9.3919576 17.143569,4.4360125 16.808491,4.5631671 16.642798,5.0347302 16.374773,5.2982217 L 3.5739281,21.906779 c 0.2392072,0.144066 0.7469954,0.01955 1.0885824,0.06124 H 30.364357 l -2.009569,-2.66403 z M 2.9786147,22.207837 C 2.9610196,21.739802 3.4680248,21.450471 3.6804569,21.060795 8.0502709,15.391134 12.420088,9.7214755 16.789901,4.0518149 c 0.101928,-0.4630333 0.477263,-0.3806268 0.642816,0.02151 L 31.097139,22.224815 c -0.356293,0.404338 -0.946605,0.147808 -1.420706,0.219452 H 2.9786147 Z M 0.01590304,21.774539 c 0.00531,-0.501056 0.01059753,-1.002112 0.01590755,-1.503168 0.12898386,-0.01244 0.25796998,-0.02487 0.38695385,-0.0373 v 1.257704 H 1.6689242 v -1.25016 h 0.3571885 v 3.036102 H 1.6689242 V 21.848963 H 0.41876444 v 1.428754 H 0 C 0.00531001,22.776654 0.01059753,22.275598 0.01590754,21.774539 Z M 32.346158,23.221424 c -0.08374,-0.04091 -0.174329,-0.07343 -0.253873,-0.119466 -0.117302,-0.165574 -0.242573,-0.327626 -0.354936,-0.49538 -0.04513,-0.224573 -0.09614,-0.448777 -0.137615,-0.673577 0.02187,-0.24857 0.03627,-0.499182 0.06276,-0.746483 l 0.316749,-0.647414 c 0.185571,-0.109087 0.371143,-0.218177 0.556715,-0.327264 0.257969,6.75e-4 0.515939,0.0011 0.773909,0.0018 0.15875,0.07884 0.317501,0.157678 0.47625,0.236516 0.01231,0.148829 0.02463,0.297656 0.03694,0.446485 -0.0495,0.0074 -0.09255,-0.0048 -0.127539,-0.0414 -0.09545,-0.06796 -0.18734,-0.143708 -0.285001,-0.206828 -0.15533,-0.03263 -0.310661,-0.07434 -0.465986,-0.101302 -0.150548,0.03395 -0.301098,0.06791 -0.451646,0.101865 -0.110426,0.105793 -0.220849,0.211586 -0.331273,0.317379 -0.04805,0.178045 -0.103064,0.355362 -0.146806,0.533857 0.0185,0.284983 0.03697,0.569965 0.05545,0.854948 0.06675,0.128613 0.133513,0.257223 0.200271,0.385834 0.101934,0.06401 0.200624,0.137014 0.304585,0.195401 0.173089,0.01733 0.347088,0.04347 0.519608,0.05531 0.141163,-0.04659 0.282326,-0.09318 0.423489,-0.139763 v -0.758151 c -0.188517,-0.01208 -0.377031,-0.02418 -0.565548,-0.03627 v -0.357189 l 0.926559,-0.03483 c -0.01118,0.468024 -0.02239,0.936046 -0.03357,1.404069 -0.177082,0.0893 -0.354164,0.178592 -0.531247,0.267891 l -0.718913,-0.0027 c -0.08307,-0.03781 -0.166466,-0.0754 -0.249345,-0.11334 z"
     style="fill:#000000;stroke-width:0.05953142"
     id="path4859" />
</svg>
