<?xml version="1.0" encoding="UTF-8" standalone="no"?>
<svg
   xmlns:dc="http://purl.org/dc/elements/1.1/"
   xmlns:cc="http://creativecommons.org/ns#"
   xmlns:rdf="http://www.w3.org/1999/02/22-rdf-syntax-ns#"
   xmlns:svg="http://www.w3.org/2000/svg"
   xmlns="http://www.w3.org/2000/svg"
   width="128.04688"
   height="88.205116"
   viewBox="0 0 33.879068 23.337603"
   version="1.1"
   id="svg8">
  <defs
     id="defs2" />
  <metadata
     id="metadata5">
    <rdf:RDF>
      <cc:Work
         rdf:about="">
        <dc:format>image/svg+xml</dc:format>
        <dc:type
           rdf:resource="http://purl.org/dc/dcmitype/StillImage" />
        <dc:title></dc:title>
      </cc:Work>
    </rdf:RDF>
  </metadata>
  <path
     d="m 17.384985,0 -0.38654,0.03720703 -0.01602,1.50326737 -0.01602,1.5032674 h 0.418579 z M 17.087329,3.738273 C 16.96006,3.725285 16.840637,3.820432 16.789673,4.051949 l 11.565185,15.251782 c 0.669857,0.88801 1.33984,1.776427 2.009696,2.664437 H 3.2256441 l -0.2470134,0.239778 v 0.236162 H 29.676225 c 0.474101,-0.07164 1.064807,0.18523 1.4211,-0.219108 C 26.542518,16.174503 21.987335,10.123633 17.432528,4.0731363 17.349751,3.872068 17.214598,3.7512627 17.087329,3.738273 Z m 15.448668,16.473413 c -0.185571,0.109087 -0.370983,0.218542 -0.556553,0.327628 -0.105585,0.215805 -0.211193,0.431184 -0.316778,0.64699 -0.02649,0.247301 -0.04118,0.498154 -0.06305,0.746724 0.04148,0.2248 0.09285,0.448771 0.137975,0.673344 0.112363,0.167754 0.237199,0.330003 0.354502,0.495577 0.07954,0.04604 0.170508,0.07846 0.254249,0.119372 0.08288,0.03794 0.16601,0.07588 0.249078,0.113688 l 0.71882,0.0026 c 0.177083,-0.0893 0.354153,-0.1789 0.531233,-0.2682 0.01119,-0.468023 0.02241,-0.936025 0.03359,-1.404049 l -0.92656,0.03514 v 0.357084 c 0.188518,0.01209 0.37734,0.02409 0.565856,0.03617 v 0.758093 c -0.141163,0.04658 -0.282583,0.09345 -0.423746,0.140043 -0.172519,-0.01184 -0.346258,-0.03796 -0.519348,-0.05529 -0.10396,-0.05839 -0.202957,-0.131327 -0.30489,-0.195337 -0.06676,-0.128611 -0.133239,-0.25741 -0.199988,-0.386023 -0.01847,-0.284983 -0.03731,-0.570262 -0.05581,-0.855245 0.04374,-0.178495 0.09923,-0.355772 0.147278,-0.533817 0.110423,-0.105793 0.220821,-0.211501 0.331245,-0.317293 0.150548,-0.03395 0.301103,-0.06785 0.451651,-0.101803 0.155327,0.02696 0.310277,0.06866 0.465606,0.101286 0.09766,0.06312 0.189804,0.138746 0.285255,0.206706 0.03499,0.0366 0.07814,0.04874 0.127641,0.04134 -0.0123,-0.148829 -0.0249,-0.297656 -0.03721,-0.446485 -0.158747,-0.07884 -0.31719,-0.157321 -0.47594,-0.236161 -0.257969,-6.88e-4 -0.516144,-0.0014 -0.774113,-0.0021 z m -32.11741792,0.02222 c -0.12898387,0.01243 -0.25755583,0.02477 -0.38653969,0.03721 -0.00531,0.501056 -0.0107097,1.002211 -0.0160197,1.503267 C 0.01070968,22.27544 0.00531001,22.776586 0,23.277649 H 0.41857908 V 21.848795 H 1.6691488 v 1.428854 H 2.0262329 V 20.241658 H 1.6691488 v 1.250053 H 0.41857908 Z"
     style="fill:#ff0000;stroke-width:0.05953142"
     id="path4859" />
</svg>
