<?xml version="1.0" encoding="UTF-8" standalone="no"?>
<svg
   xmlns:dc="http://purl.org/dc/elements/1.1/"
   xmlns:cc="http://creativecommons.org/ns#"
   xmlns:rdf="http://www.w3.org/1999/02/22-rdf-syntax-ns#"
   xmlns:svg="http://www.w3.org/2000/svg"
   xmlns="http://www.w3.org/2000/svg"
   id="svg8"
   version="1.1"
   viewBox="0 0 24.528779 18.881104"
   height="71.361656"
   width="92.707199">
  <defs
     id="defs2" />
  <metadata
     id="metadata5">
    <rdf:RDF>
      <cc:Work
         rdf:about="">
        <dc:format>image/svg+xml</dc:format>
        <dc:type
           rdf:resource="http://purl.org/dc/dcmitype/StillImage" />
        <dc:title></dc:title>
      </cc:Work>
    </rdf:RDF>
  </metadata>
  <g
     transform="matrix(0.22500047,0,0,0.22500047,52.132735,-73.588883)"
     id="layer1">
    <path
       d="m -231.63072,333.91697 c 0.0236,-2.22691 0.0471,-4.45382 0.0707,-6.68073 0.57326,-0.0553 1.14653,-0.11053 1.71979,-0.1658 0.007,1.81916 0.0133,3.63832 0.02,5.45748 1.71338,-1.8223 3.42676,-3.6446 5.14014,-5.4669 0.64919,0.0584 1.29837,0.1168 1.94756,0.1752 -1.83744,2.02847 -3.67489,4.05694 -5.51235,6.08541 -0.041,0.20148 0.0384,0.35897 0.19044,0.48991 1.79154,2.1142 3.59374,4.22064 5.37862,6.33968 0.0408,0.13252 0.3346,0.40606 0.21022,0.44646 -0.68329,0 -1.36658,0 -2.04987,0 -1.73057,-2.02808 -3.46114,-4.05617 -5.19171,-6.08426 -0.0497,2.02809 -0.0993,4.05617 -0.149,6.08426 -0.61479,0 -1.22959,0 -1.84438,0 0.0233,-2.2269 0.0466,-4.45381 0.0698,-6.68071 z m 16.87173,58.00989 c 0,-1.85208 0,-3.70417 0,-5.55625 0.61736,0 1.23472,0 1.85208,0 0,3.08681 0,6.17361 0,9.26042 2.82222,0 5.64445,0 8.46667,0 0,0.61736 0,1.23472 0,1.85208 -3.43958,0 -6.87917,0 -10.31875,0 0,-1.85208 0,-3.70417 0,-5.55625 z m -4.06508,8.03286 c -0.37818,-4.5892 -0.0666,-9.22544 -0.16825,-13.8335 0,-18.61576 0,-37.23151 0,-55.84727 1.65691,-0.31037 2.56395,0.12912 2.11667,1.92294 0,22.37777 0,44.75553 0,67.1333 25.92916,0 51.85833,0 77.78749,0 0.37331,1.63165 -0.30461,2.21208 -1.92294,1.85209 -25.88157,0 -51.76314,0 -77.64471,0 -0.0561,-0.40919 -0.11217,-0.81837 -0.16826,-1.22756 z m -10.95456,3.27808 c 0.0236,-2.22691 0.0471,-4.45382 0.0707,-6.68073 0.57327,-0.0553 1.14653,-0.11053 1.7198,-0.1658 0,3.97993 0,7.95985 0,11.93978 1.85208,0 3.70417,0 5.55625,0 0,0.52917 0,1.05833 0,1.5875 -2.47247,0 -4.94495,0 -7.41742,0 0.0236,-2.22692 0.0471,-4.45383 0.0707,-6.68075 z m 96.30832,1.05833 c 0.0236,-2.22691 0.0471,-4.45382 0.0707,-6.68073 0.81185,-0.0527 1.6237,-0.10535 2.43554,-0.1581 0.96835,2.96312 1.93671,5.92623 2.90506,8.88935 0.94531,-2.95451 1.89062,-5.90903 2.83593,-8.86354 0.84636,0 1.69273,0 2.53909,0 0,4.49792 0,8.99583 0,13.49375 -0.61736,0 -1.23472,0 -1.85208,0 -0.003,-3.57188 -0.005,-7.14375 -0.008,-10.71563 -0.92318,2.73403 -1.84636,5.46806 -2.76954,8.20209 -0.52917,0 -1.05833,0 -1.5875,0 -0.90931,-2.73403 -1.81862,-5.46806 -2.72793,-8.20209 -0.0167,3.57188 -0.0335,7.14375 -0.0502,10.71563 -0.62039,0 -1.24078,0 -1.86117,0 0.0234,-2.22691 0.0467,-4.45382 0.0701,-6.68073 z"
       style="fill:#000000;stroke-width:0.26458332"
       id="path4785" />
  </g>
</svg>
