<?xml version="1.0" encoding="UTF-8" standalone="no"?>
<svg
   xmlns:dc="http://purl.org/dc/elements/1.1/"
   xmlns:cc="http://creativecommons.org/ns#"
   xmlns:rdf="http://www.w3.org/1999/02/22-rdf-syntax-ns#"
   xmlns:svg="http://www.w3.org/2000/svg"
   xmlns="http://www.w3.org/2000/svg"
   width="92.707199"
   height="71.361656"
   viewBox="0 0 24.528779 18.881104"
   version="1.1"
   id="svg8">
  <defs
     id="defs2" />
  <metadata
     id="metadata5">
    <rdf:RDF>
      <cc:Work
         rdf:about="">
        <dc:format>image/svg+xml</dc:format>
        <dc:type
           rdf:resource="http://purl.org/dc/dcmitype/StillImage" />
        <dc:title></dc:title>
      </cc:Work>
    </rdf:RDF>
  </metadata>
  <path
     d="M 3.3357136,14.266312 H 2.859257 v 2.412256 H 5.1428383 V 16.261539 H 3.3357136 Z m -2.5006225,1.333252 -0.38653969,0.03721 -0.0320394,3.006018 H 2.0856607 V 18.285705 H 0.8350911 Z"
     style="fill:#ff0000;stroke-width:0.05953137"
     id="path820" />
  <path
     d="M 5.9707031,0 1.5996094,4.6484375 C 1.5939098,3.1014319 1.587984,1.554818 1.5820312,0.0078125 1.0945335,0.05481387 0.60663836,0.10141065 0.11914062,0.1484375 L 0,11.511719 H 1.5683594 C 1.6106243,9.7870401 1.6530479,8.0625692 1.6953125,6.3378906 L 6.109375,11.511719 H 7.8535156 L 3.1015625,5.7402344 C 2.9722683,5.6288819 2.904587,5.4955561 2.9394531,5.3242188 4.5020209,3.599217 6.0644023,1.8734393 7.6269531,0.1484375 Z M 10.806641,2.7363281 V 53.44921 h 1.800781 V 4.3710938 C 12.987787,2.8456374 12.215669,2.4723909 10.806641,2.7363281 Z m 9.101571,58.7246099 v 1.576171 h 57.212882 c 1.376213,0.306131 1.954161,-0.188624 1.636718,-1.576171 z M 85.666016,59.865234 83.59375,60 83.474609,71.361328 h 1.583985 c 0.01436,-3.037512 0.02665,-6.073816 0.04102,-9.111328 l 2.320313,6.974609 h 1.349609 L 91.125,62.25 c 0.0026,3.037512 0.0053,6.073816 0.0078,9.111328 h 1.574219 V 59.886719 h -2.158203 l -2.412109,7.537109 z"
     style="fill:#cccccc;stroke-width:0.22500046;fill-opacity:1"
     transform="scale(0.26458332)"
     id="path4785" />
</svg>
