<?xml version="1.0" encoding="UTF-8" standalone="no"?>
<svg
   xmlns:dc="http://purl.org/dc/elements/1.1/"
   xmlns:cc="http://creativecommons.org/ns#"
   xmlns:rdf="http://www.w3.org/1999/02/22-rdf-syntax-ns#"
   xmlns:svg="http://www.w3.org/2000/svg"
   xmlns="http://www.w3.org/2000/svg"
   id="svg8"
   version="1.1"
   viewBox="0 0 37.923307 17.325328"
   height="65.48156"
   width="143.3322">
  <defs
     id="defs2" />
  <metadata
     id="metadata5">
    <rdf:RDF>
      <cc:Work
         rdf:about="">
        <dc:format>image/svg+xml</dc:format>
        <dc:type
           rdf:resource="http://purl.org/dc/dcmitype/StillImage" />
        <dc:title></dc:title>
      </cc:Work>
    </rdf:RDF>
  </metadata>
  <g
     transform="matrix(0.22499922,0,0,0.22499922,84.630545,-78.125361)"
     id="layer1">
    <path
       d="m -376.06642,354.03805 c 0.0236,-2.22691 0.0471,-4.45382 0.0707,-6.68073 0.75927,0 1.51855,0 2.27782,0 1.62197,3.58178 3.24395,7.16356 4.86593,10.74534 0.0477,-3.62588 0.0953,-7.25175 0.143,-10.87763 0.52559,0 1.05117,0 1.57676,0 0,4.49792 0,8.99583 0,13.49375 -0.76167,0 -1.52334,0 -2.28501,0 -1.57548,-3.48175 -3.15096,-6.9635 -4.72645,-10.44524 -0.0478,3.48175 -0.0956,6.96349 -0.1434,10.44524 -0.61666,0 -1.23333,0 -1.84999,0 0.0236,-2.22691 0.0471,-4.45382 0.0706,-6.68073 z m 41.55851,61.19967 c -1.22537,-0.83045 -1.96675,-2.664 -2.7014,-4.27795 -8.47079,-17.67306 -16.94158,-35.34611 -25.41237,-53.01917 2.0294,-1.90302 2.54258,1.03368 3.35147,2.50432 8.47127,17.68606 16.94253,35.37212 25.41379,53.05818 37.7237,0.0882 75.4474,0.17639 113.1711,0.26458 0.8119,2.55441 -1.70382,1.78511 -3.37831,1.85605 -36.76982,0.0432 -73.53963,0.0864 -110.30945,0.12963 l -0.0777,-0.29713 z m 124.58217,0.7904 c 0.16174,-0.19974 0.32347,-0.39947 0.48521,-0.59921 0,-0.75467 0,-1.50934 0,-2.26401 -0.32347,-0.39947 -0.64695,-0.79895 -0.97042,-1.19842 -0.99944,-0.0829 -1.99889,-0.16576 -2.99833,-0.24864 0,1.71938 0,3.43875 0,5.15813 0.99944,-0.0829 1.99889,-0.16576 2.99833,-0.24864 0.16174,-0.19974 0.32347,-0.39947 0.48521,-0.59921 z m -5.27402,0.98077 c 0.0236,-2.22691 0.0471,-4.45382 0.0707,-6.68073 1.45765,-0.0513 2.91531,-0.10253 4.37296,-0.1538 0.75991,0.33614 1.51982,0.67228 2.27973,1.00843 0.29139,0.63512 0.61872,1.26215 0.88793,1.90227 0,0.84768 0,1.69535 0,2.54303 -0.32231,0.60098 -0.64461,1.20196 -0.96692,1.80294 -0.61258,0.3174 -1.21531,0.67401 -1.83404,0.96693 -1.00662,0 -2.01325,0 -3.01987,0 0,1.76389 0,3.52777 0,5.29166 -0.62039,0 -1.24078,0 -1.86117,0 0.0236,-2.22691 0.0471,-4.45382 0.0707,-6.68073 z m -129.69688,5.22006 c 0.25948,-0.14555 0.54903,-0.26119 0.78977,-0.42538 0.35551,-0.71108 0.73618,-1.41486 1.07614,-2.13045 0.10241,-1.09679 0.20483,-2.19358 0.30725,-3.29037 -0.28046,-0.96477 -0.56092,-1.92953 -0.84139,-2.89429 -0.52448,-0.50249 -1.04897,-1.00498 -1.57345,-1.50747 -0.69657,-0.0183 -1.39314,-0.0365 -2.08971,-0.0548 -0.47709,0.25533 -0.95419,0.51067 -1.43128,0.766 -0.36468,0.71129 -0.72936,1.42258 -1.09403,2.13387 -0.0821,1.25606 -0.16409,2.51212 -0.24614,3.76818 0.29208,0.87937 0.58416,1.75874 0.87624,2.63811 0.40097,0.35572 0.78809,0.73435 1.19765,1.07587 0.28384,0.0868 0.55549,0.23712 0.84707,0.28347 0.47463,0.005 0.95702,0.0438 1.42685,0.0277 0.25167,-0.13016 0.50341,-0.26027 0.75503,-0.39046 z m -3.58734,1.63545 c -0.3432,-0.19031 -0.78098,-0.25307 -1.00772,-0.60043 -0.4816,-0.56191 -0.99422,-1.10567 -1.45657,-1.67885 -0.23009,-0.67793 -0.49153,-1.3505 -0.70223,-2.03175 -10e-4,-1.57577 -0.003,-3.15153 -0.004,-4.7273 0.50244,-1.02323 1.00488,-2.04646 1.50733,-3.06969 0.65748,-0.42143 1.3006,-0.87993 1.96702,-1.27825 0.71245,-0.10277 1.42698,-0.24477 2.13812,-0.32315 0.6943,0.18696 1.38859,0.37391 2.08289,0.56087 0.59425,0.58961 1.21737,1.15891 1.79382,1.76103 0.35011,0.79588 0.7393,1.58329 1.06534,2.38439 0.003,1.57577 0.005,3.15153 0.008,4.7273 -0.4566,0.98901 -0.9132,1.97801 -1.3698,2.96702 -0.65984,0.50329 -1.31968,1.00658 -1.97953,1.50986 -1.08125,0.0538 -2.16251,0.10759 -3.24377,0.1613 -0.2663,-0.12076 -0.53254,-0.24171 -0.79887,-0.36235 z"
       style="fill:#000000;stroke-width:0.26458332"
       id="path4710" />
  </g>
</svg>
