<?xml version="1.0" encoding="UTF-8" standalone="no"?>
<svg
   xmlns:dc="http://purl.org/dc/elements/1.1/"
   xmlns:cc="http://creativecommons.org/ns#"
   xmlns:rdf="http://www.w3.org/1999/02/22-rdf-syntax-ns#"
   xmlns:svg="http://www.w3.org/2000/svg"
   xmlns="http://www.w3.org/2000/svg"
   width="102.60352"
   height="75.852966"
   viewBox="0 0 27.147178 20.069431"
   version="1.1"
   id="svg8">
  <defs
     id="defs2" />
  <metadata
     id="metadata5">
    <rdf:RDF>
      <cc:Work
         rdf:about="">
        <dc:format>image/svg+xml</dc:format>
        <dc:type
           rdf:resource="http://purl.org/dc/dcmitype/StillImage" />
        <dc:title></dc:title>
      </cc:Work>
    </rdf:RDF>
  </metadata>
  <path
     id="path26"
     d="M 7.7230424,7.6444942 7.3494219,7.8610186 11.353312,14.798579 c 0.145987,0.294859 0.28275,0.605545 0.666109,0.472323 L 17.878494,8.4005204 17.551383,8.1194006 C 15.827165,10.141515 14.102787,12.163582 12.378572,14.185697 12.166639,14.31818 11.966434,14.952866 11.743985,14.619779 10.403645,12.294727 9.0632966,9.9696387 7.7230424,7.6444942 Z m 3.6333696,8.7818928 c -0.159967,0.01683 -0.320818,0.04945 -0.481107,0.07235 -0.150476,0.08901 -0.295133,0.193087 -0.443384,0.287837 -0.106401,0.217473 -0.212962,0.435201 -0.319361,0.652674 -0.02733,0.247071 -0.04095,0.4977 -0.06305,0.746207 0.04159,0.228574 0.0938,0.456395 0.139527,0.684713 0.11887,0.171568 0.25306,0.336472 0.377754,0.505396 0.131893,0.07652 0.274698,0.139418 0.410828,0.210839 0.142909,0.0093 0.290135,0.0013 0.434599,0.0041 l 0.382405,0.476456 h 0.315226 c 0.06058,0.0054 0.119209,0.009 0.09612,-0.06925 -0.138075,-0.168505 -0.276369,-0.336894 -0.414445,-0.505395 0.11457,-0.0847 0.22908,-0.169539 0.343648,-0.254248 0.111902,-0.228719 0.223997,-0.457543 0.335897,-0.686263 -0.0012,-0.355281 -0.0025,-0.710289 -0.0036,-1.065568 -0.07261,-0.18042 -0.160682,-0.357797 -0.239262,-0.536918 -0.127236,-0.13404 -0.266238,-0.259753 -0.397908,-0.390674 -0.153667,-0.05172 -0.316593,-0.08692 -0.473873,-0.132292 z m -0.267684,0.398425 c 0.156729,0.0041 0.31301,0.0083 0.469739,0.0124 0.118009,0.113061 0.23649,0.225939 0.3545,0.338997 0.06311,0.217073 0.126036,0.434566 0.189136,0.65164 -0.02304,0.246779 -0.04621,0.493228 -0.06925,0.740007 -0.07649,0.161011 -0.161856,0.319563 -0.241846,0.479557 -0.05417,0.03694 -0.119387,0.06285 -0.177767,0.0956 -0.05662,0.02928 -0.113385,0.05856 -0.170015,0.08785 -0.105712,0.0037 -0.214119,-0.0051 -0.320911,-0.0062 -0.06561,-0.01043 -0.126826,-0.04403 -0.190686,-0.06356 -0.09215,-0.07684 -0.179531,-0.162323 -0.269751,-0.242363 -0.06572,-0.197859 -0.131167,-0.395903 -0.196887,-0.593762 0.01846,-0.282615 0.03682,-0.56488 0.05529,-0.847493 0.08205,-0.160045 0.163929,-0.320034 0.245979,-0.480074 z"
     style="fill:#ff0000;stroke-width:0.05953155" />
  <path
     id="path22"
     d="M 1.0159586,0 C 0.68798566,0.01153599 0.36001231,0.02308121 0.03203939,0.03462321 L 0,3.041158 H 0.41857907 V 1.8505329 H 1.0981241 C 1.2373368,1.7846259 1.3731876,1.7043882 1.5110188,1.6329752 l 0.2175578,-0.40566 V 0.65474037 C 1.6680018,0.51071256 1.5941518,0.36976233 1.5285888,0.22685953 1.3576081,0.15122542 1.1869392,0.07563189 1.0159586,0 Z M 26.16636,0.24081216 c -0.357189,0.01062 -0.714579,0.0214424 -1.071769,0.0320394 l -0.03152,3.00601784 h 0.41858 V 2.0288166 h 0.574641 l 0.251148,0.2682007 0.40566,0.9523966 0.434083,0.03669 L 26.736351,2.3264729 26.443862,1.843815 26.60716,1.7280598 c 0.06554,-0.1092313 0.119748,-0.2284888 0.180867,-0.3415812 0.0078,-0.1687171 7.93e-4,-0.3409903 0.0031,-0.51107987 -0.06278,-0.1429274 -0.139978,-0.282632 -0.208251,-0.42426351 C 26.443968,0.38098924 26.305269,0.31095406 26.16636,0.24081216 Z M 3.3532835,0.29765623 C 3.2725686,0.3068976 3.1820679,0.36179269 3.0824991,0.46767168 L 7.1641779,7.5855386 7.5377984,7.3690142 C 6.1864047,5.0245445 5.0203478,2.9554986 3.6685096,0.61133217 3.6093472,0.43735787 3.5294364,0.33099855 3.4307982,0.30334065 c -0.024659,-0.006915 -0.05061,-0.008765 -0.077515,-0.005684 z m -2.93470443,0.0496094 c 0.22487518,0.0186481 0.45001894,0.0371575 0.67489423,0.0558105 l 0.2180745,0.269751 V 1.1823567 L 1.2025105,1.3172322 1.0934733,1.4521077 c -0.22487529,0.018648 -0.45001905,0.037157 -0.67489423,0.05581 z m 25.06306893,0.23822833 0.674377,0.0558106 0.218591,0.26975097 V 1.3606404 l -0.218591,0.269751 -0.674377,0.056327 z M 23.353612,1.3146484 C 21.419543,3.5828717 19.704209,5.6129046 17.77014,7.8811276 l 0.327112,0.2811198 5.295634,-6.2274819 c 0.298813,-0.1971483 0.344248,-0.5371841 -0.03927,-0.6201171 z"
     style="fill:#008000;stroke-width:0.05953155" />
</svg>
