<?xml version="1.0" encoding="UTF-8" standalone="no"?>
<svg
   xmlns:dc="http://purl.org/dc/elements/1.1/"
   xmlns:cc="http://creativecommons.org/ns#"
   xmlns:rdf="http://www.w3.org/1999/02/22-rdf-syntax-ns#"
   xmlns:svg="http://www.w3.org/2000/svg"
   xmlns="http://www.w3.org/2000/svg"
   id="svg8"
   version="1.1"
   viewBox="0 0 27.146962 20.069408"
   height="75.852882"
   width="102.6027">
  <defs
     id="defs2" />
  <metadata
     id="metadata5">
    <rdf:RDF>
      <cc:Work
         rdf:about="">
        <dc:format>image/svg+xml</dc:format>
        <dc:type
           rdf:resource="http://purl.org/dc/dcmitype/StillImage" />
        <dc:title></dc:title>
      </cc:Work>
    </rdf:RDF>
  </metadata>
  <g
     transform="matrix(0.22500115,0,0,0.22500115,58.345444,-63.773014)"
     id="layer1">
    <path
       d="m -253.96706,289.28794 c 0.16174,-0.19974 0.32347,-0.39947 0.48521,-0.59921 0,-0.75467 0,-1.50934 0,-2.26401 -0.32347,-0.39947 -0.64695,-0.79895 -0.97042,-1.19842 -0.99944,-0.0829 -1.99889,-0.16576 -2.99833,-0.24864 0,1.71938 0,3.43875 0,5.15813 0.99944,-0.0829 1.99889,-0.16576 2.99833,-0.24864 0.16174,-0.19974 0.32347,-0.39947 0.48521,-0.59921 z m -5.27402,0.98076 c 0.0236,-2.22691 0.0471,-4.45382 0.0707,-6.68073 1.45765,-0.0513 2.91531,-0.10253 4.37296,-0.1538 0.75991,0.33614 1.51982,0.67229 2.27973,1.00844 0.29139,0.63512 0.61872,1.26215 0.88794,1.90227 0,0.84768 0,1.69535 0,2.54303 -0.32231,0.60098 -0.64462,1.20196 -0.96693,1.80294 -0.61258,0.31739 -1.21531,0.67401 -1.83403,0.96693 -1.00663,0 -2.01325,0 -3.01988,0 0,1.76389 0,3.52777 0,5.29166 -0.62039,0 -1.24078,0 -1.86117,0 0.0236,-2.22691 0.0471,-4.45383 0.0707,-6.68074 z m 116.66361,-0.18701 c 0.16174,-0.19974 0.32347,-0.39947 0.48521,-0.59921 0,-0.66647 0,-1.33295 0,-1.99942 -0.32347,-0.39948 -0.64695,-0.79896 -0.97043,-1.19843 -0.99944,-0.0829 -1.99888,-0.16576 -2.99832,-0.24864 0,1.63118 0,3.26237 0,4.89355 0.99944,-0.0829 1.99888,-0.16576 2.99832,-0.24864 0.16174,-0.19974 0.32348,-0.39947 0.48522,-0.59921 z m -5.27402,1.24535 c 0.0236,-2.22691 0.0471,-4.45382 0.0707,-6.68073 1.5875,-0.0471 3.17499,-0.0943 4.76249,-0.1415 0.61737,0.31174 1.23473,0.62349 1.85209,0.93525 0.30342,0.62947 0.6462,1.24965 0.92524,1.88488 -0.01,0.75595 0.0209,1.52173 -0.014,2.27158 -0.27166,0.50263 -0.51124,1.03331 -0.80253,1.51878 -0.38411,0.26907 -0.76828,0.53808 -1.15247,0.80705 0.20125,0 0.4025,0 0.60375,0 0.36794,0.62007 0.78203,1.21618 1.12119,1.8512 0.60861,1.42192 1.21722,2.84384 1.82582,4.26577 -0.64306,-0.0546 -1.28612,-0.1092 -1.92918,-0.1638 -0.60069,-1.41111 -1.20138,-2.82222 -1.80206,-4.23333 -0.37231,-0.39687 -0.74462,-0.79374 -1.11693,-1.19062 -0.8512,0 -1.70239,0 -2.55359,0 0,1.85208 0,3.70417 0,5.55625 -0.62039,0 -1.24078,0 -1.86117,0 0.0236,-2.22693 0.0471,-4.45385 0.0707,-6.68078 z m -78.75774,27.11216 c -6.33451,-10.97521 -12.66902,-21.95042 -19.00353,-32.92563 1.18007,-1.25486 2.08065,-0.90896 2.60654,0.63747 11.96675,20.75105 23.9253,41.50694 35.88889,62.25985 0.98866,1.48038 1.88013,-1.34135 2.82205,-1.93016 16.25895,-19.06807 32.51792,-38.13614 48.77688,-57.20421 1.70455,0.36859 1.50329,1.88004 0.17525,2.75625 -16.84937,19.75751 -33.69874,39.51502 -50.54812,59.27252 -1.70381,0.5921 -2.31262,-0.79053 -2.96145,-2.10101 -5.91883,-10.25503 -11.83767,-20.51005 -17.75651,-30.76508 z m 18.91084,50.07457 c 0.25948,-0.14556 0.54904,-0.2612 0.78978,-0.42539 0.35551,-0.71108 0.73618,-1.41485 1.07613,-2.13045 0.10242,-1.09679 0.20484,-2.19358 0.30726,-3.29037 -0.28046,-0.96477 -0.56092,-1.92953 -0.84139,-2.89429 -0.52449,-0.50248 -1.04897,-1.00497 -1.57345,-1.50746 -0.69657,-0.0183 -1.39314,-0.0365 -2.08971,-0.0548 -0.47709,0.25533 -0.95419,0.51067 -1.43128,0.766 -0.36468,0.71129 -0.72936,1.42258 -1.09403,2.13388 -0.0821,1.25606 -0.16409,2.51211 -0.24614,3.76817 0.29208,0.87937 0.58416,1.75874 0.87624,2.63811 0.40097,0.35573 0.78808,0.73436 1.19765,1.07588 0.28383,0.0868 0.55549,0.23711 0.84707,0.28346 0.47463,0.005 0.95702,0.0438 1.42685,0.0277 0.25167,-0.13016 0.50338,-0.26029 0.75502,-0.39046 z m -0.0423,3.04816 c -0.2835,-0.35278 -0.567,-0.70556 -0.8505,-1.05834 -0.64206,-0.0123 -1.29539,0.0228 -1.93054,-0.0185 -0.60494,-0.31759 -1.24033,-0.59864 -1.82652,-0.93873 -0.55419,-0.75077 -1.15041,-1.48245 -1.67872,-2.24497 -0.20322,-1.01474 -0.43581,-2.02763 -0.62068,-3.04351 0.0982,-1.10447 0.15909,-2.21917 0.28057,-3.31726 0.47288,-0.96654 0.94577,-1.93308 1.41866,-2.89962 0.65889,-0.4211 1.30188,-0.88325 1.97066,-1.27883 0.71239,-0.10177 1.42708,-0.24679 2.13804,-0.32161 0.69902,0.20162 1.42425,0.35713 2.10721,0.58701 0.5852,0.58187 1.20197,1.14155 1.76746,1.73728 0.34922,0.79609 0.74119,1.58286 1.06389,2.38472 0.005,1.57901 0.0106,3.15801 0.0159,4.73702 -0.49733,1.01653 -0.99467,2.03305 -1.49201,3.04957 -0.50919,0.37647 -1.01839,0.75293 -1.52759,1.12939 0.61367,0.74889 1.22734,1.49779 1.841,2.2467 0.10264,0.34782 -0.15847,0.33189 -0.42773,0.30782 -0.46647,0 -0.93294,0 -1.39941,0 -0.28276,-0.35239 -0.56921,-0.70724 -0.84966,-1.0581 z"
       style="fill:#000000;stroke-width:0.26458332"
       id="path4622" />
  </g>
</svg>
