<?xml version="1.0" encoding="UTF-8" standalone="no"?>
<svg
   xmlns:dc="http://purl.org/dc/elements/1.1/"
   xmlns:cc="http://creativecommons.org/ns#"
   xmlns:rdf="http://www.w3.org/1999/02/22-rdf-syntax-ns#"
   xmlns:svg="http://www.w3.org/2000/svg"
   xmlns="http://www.w3.org/2000/svg"
   width="100.43007"
   height="70.027534"
   viewBox="0 0 26.572122 18.528118"
   version="1.1"
   id="svg8">
  <defs
     id="defs2" />
  <metadata
     id="metadata5">
    <rdf:RDF>
      <cc:Work
         rdf:about="">
        <dc:format>image/svg+xml</dc:format>
        <dc:type
           rdf:resource="http://purl.org/dc/dcmitype/StillImage" />
        <dc:title></dc:title>
      </cc:Work>
    </rdf:RDF>
  </metadata>
  <path
     d="M 0.71193651,3.0455193 C 0.63650901,3.0030215 0.5547403,2.9678308 0.48314789,2.9209149 0.36896798,2.7596986 0.24690954,2.6019599 0.13763012,2.4385795 0.09248218,2.2140107 0.04152569,1.9898037 0,1.7650094 0.02183609,1.516435 0.03630662,1.265841 0.06273988,1.0185274 0.16833114,0.8027066 0.27392263,0.5868857 0.37951411,0.3710648 0.56224445,0.2664808 0.74225164,0.1534876 0.9266779,0.0541483 1.1145101,0.0360989 1.3023423,0.0180495 1.4901745,0 c 0.2221431,0.1016951 0.4442862,0.2034009 0.6664293,0.3051014 0,0.1411001 0,0.2822015 0,0.4233028 -0.046116,0.00796 -0.085105,-0.00769 -0.1196905,-0.038124 C 1.8992817,0.5991963 1.7616502,0.5081203 1.6240186,0.4170403 1.4242964,0.4140703 1.2245739,0.4109653 1.0248515,0.4079953 0.91571505,0.4904394 0.79923346,0.5666115 0.69460722,0.6529072 0.60647484,0.8253851 0.51834288,0.997863 0.43021103,1.1703424 c 0.001597,0.2618502 -0.002277,0.5244484 0.00273,0.7858329 0.0425229,0.1531555 0.0850457,0.3063123 0.12756864,0.4594678 0.10934872,0.1093496 0.21869749,0.2186978 0.32804618,0.3280473 0.14739045,0.025758 0.29478085,0.059076 0.44217125,0.080122 0.1365997,-0.028242 0.2777207,-0.046939 0.4115398,-0.08104 0.1140799,-0.095998 0.228159,-0.1919827 0.3422385,-0.287974 0.046496,-0.00203 0.10129,-0.01161 0.074864,0.053541 -0.010841,0.1309764 -0.021681,0.2619568 -0.032521,0.392936 -0.17708,0.089302 -0.35416,0.178592 -0.5312399,0.2678888 C 1.3758152,3.167409 1.1560231,3.165654 0.93623099,3.163899 0.8614668,3.1244387 0.78670231,3.0849784 0.71193804,3.0455045 Z M 4.2997126,14.420492 c 0,-0.396871 0,-0.793744 0,-1.190615 0.1389051,0 0.2778104,0 0.4167156,0 0,0.654839 0,1.309678 0,1.964515 0.7342133,0 1.4684267,0 2.2026396,0 0,0.138907 0,0.277812 0,0.416717 -0.8731184,0 -1.7462365,0 -2.6193552,0 0,-0.396873 0,-0.793744 0,-1.190617 z m -0.7608863,2.157993 c -0.099908,-0.535719 -0.014233,-1.108057 -0.04278,-1.657858 0,-4.323946 0,-8.6478913 0,-12.9718375 0.3806955,-0.091624 0.4948772,0.083821 0.4176727,0.4510668 0.00976,4.6021868 0.019528,9.2043727 0.029292,13.8065597 6.607758,0 13.215515,0 19.823272,0 0.07771,0.386806 -0.04337,0.574834 -0.451066,0.476246 -6.577871,0 -13.15574,0 -19.7336108,0 -0.01426,-0.03472 -0.02852,-0.06945 -0.04278,-0.104179 z m -1.9227437,1.319513 c 0.078597,-0.03145 0.1571924,-0.0629 0.2357886,-0.09434 0.063436,-0.116694 0.1703409,-0.215284 0.1993951,-0.346754 0.037561,-0.18793 0.087479,-0.374926 0.1155946,-0.563814 C 2.1409924,16.68604 2.1151256,16.478998 2.089257,16.271957 2.0010844,16.140966 1.9129128,16.009982 1.8247404,15.878998 1.7047705,15.825637 1.5896836,15.757174 1.4664877,15.713629 c -0.2462074,-0.01976 -0.49241493,-0.03953 -0.73862251,-0.05929 0,0.779333 0,1.558668 0,2.338001 0.21747637,0 0.43495291,0 0.65242951,0 0.078597,-0.03144 0.1571924,-0.06289 0.2357885,-0.09434 z M 0.32500939,16.846371 c 0.005302,-0.50105 0.0106042,-1.0021 0.0159051,-1.503151 0.41786437,0 0.83572901,0 1.25359351,0 0.1972872,0.09982 0.3945743,0.199636 0.5918614,0.299455 0.1126071,0.224545 0.2252128,0.449092 0.3378187,0.673636 -2.7e-4,0.312948 0.00476,0.626592 0.0012,0.939105 -0.0479,0.168109 -0.08777,0.340526 -0.140615,0.505978 -0.1169405,0.133191 -0.2338815,0.266377 -0.3508223,0.399565 -0.1870975,0.06203 -0.3731196,0.130545 -0.5608814,0.188565 -0.387993,0 -0.77598591,0 -1.16397882,0 0.005315,-0.501044 0.0105772,-1.002141 0.0159263,-1.503153 z M 24.851701,17.024964 c 0.0053,-0.501051 0.01053,-1.002101 0.0159,-1.503153 0.555619,0 1.111242,0 1.666862,0 0.01255,0.109133 0.02511,0.21828 0.03766,0.327419 -0.439194,0 -0.87839,0 -1.317586,0 0,0.297655 0,0.595309 0,0.892964 0.416716,0 0.833433,0 1.250148,0 0,0.119056 0,0.238123 0,0.357184 -0.416715,0 -0.833432,0 -1.250148,0 0,0.357184 0,0.714369 0,1.071555 0.436558,0 0.873117,0 1.309677,0 0,0.119056 0,0.238123 0,0.357184 -0.576147,0 -1.152293,0 -1.728437,0 0.0053,-0.501052 0.01066,-1.002102 0.0159,-1.503153 z"
     style="fill:#000000;stroke-width:0.0595308"
     id="path3725" />
</svg>
