<?xml version="1.0" encoding="UTF-8" standalone="no"?>
<svg
   xmlns:dc="http://purl.org/dc/elements/1.1/"
   xmlns:cc="http://creativecommons.org/ns#"
   xmlns:rdf="http://www.w3.org/1999/02/22-rdf-syntax-ns#"
   xmlns:svg="http://www.w3.org/2000/svg"
   xmlns="http://www.w3.org/2000/svg"
   id="svg8"
   version="1.1"
   viewBox="0 0 26.572124 18.528116"
   height="70.027527"
   width="100.43008">
  <defs
     id="defs2" />
  <metadata
     id="metadata5">
    <rdf:RDF>
      <cc:Work
         rdf:about="">
        <dc:format>image/svg+xml</dc:format>
        <dc:type
           rdf:resource="http://purl.org/dc/dcmitype/StillImage" />
        <dc:title></dc:title>
      </cc:Work>
    </rdf:RDF>
  </metadata>
  <path
     d="M 0.34091449,15.34322 H 1.594508 c 0.1972872,0.09982 0.3945743,0.199636 0.5918614,0.299455 l 0.3378187,0.673636 c -2.7e-4,0.312948 0.00476,0.626592 0.0012,0.939105 -0.0479,0.168109 -0.08777,0.340526 -0.140615,0.505978 -0.1169405,0.133191 -0.2338815,0.266377 -0.3508223,0.399565 -0.1870975,0.06203 -0.3731196,0.130545 -0.5608814,0.188565 H 0.30909058 Z m 1.27516811,2.554778 c 0.078597,-0.03145 0.1571924,-0.0629 0.2357886,-0.09434 0.063436,-0.116694 0.1703409,-0.215284 0.1993951,-0.346754 0.037561,-0.18793 0.087479,-0.374926 0.1155946,-0.563814 C 2.1409924,16.68604 2.1151256,16.478998 2.089257,16.271957 2.0010844,16.140966 1.9129128,16.009982 1.8247404,15.878998 1.7047705,15.825637 1.5896836,15.757174 1.4664877,15.713629 1.2202803,15.693869 0.97407277,15.674099 0.72786519,15.654339 V 17.99234 H 1.3802947 C 1.4588917,17.9609 1.5374871,17.92945 1.6160832,17.898 Z M 13.558862,16.206246 H 3.9429118 l -0.01447,-6.7964846 -0.4325316,0.00103 V 16.682702 H 13.559896 Z"
     style="fill:#ff0000;stroke-width:0.0595308"
     id="path819" />
  <path
     d="m 24.867601,15.521811 h 1.666862 c 0.01255,0.109133 0.02511,0.21828 0.03766,0.327419 h -1.317586 v 0.892964 h 1.250148 v 0.357184 h -1.250148 v 1.071555 h 1.309677 v 0.357184 H 24.835777 Z M 3.4959107,1.9487182 V 9.0144366 L 3.9279255,9.0134031 3.913973,2.3998535 C 3.9911774,2.0326077 3.8766062,1.8570942 3.4959107,1.9487182 Z M 13.956254,16.682702 h 9.359118 c 0.407696,0.09859 0.528846,-0.08965 0.451136,-0.476456 H 13.955737 Z M 0.71193651,3.0455193 C 0.63650901,3.0030215 0.5547403,2.9678308 0.48314789,2.9209149 0.36896798,2.7596986 0.24690954,2.6019599 0.13763012,2.4385795 0.09248218,2.2140107 0.04152569,1.9898037 0,1.7650094 0.02183609,1.516435 0.03630662,1.265841 0.06273988,1.0185274 L 0.37951411,0.3710648 C 0.56224445,0.2664808 0.74225164,0.1534876 0.9266779,0.0541483 L 1.4901745,0 C 1.7123176,0.1016951 1.9344607,0.2034009 2.1566038,0.3051014 V 0.7284042 C 2.1104878,0.7363642 2.0714988,0.7207142 2.0369133,0.6902802 1.8992817,0.5991963 1.7616502,0.5081203 1.6240186,0.4170403 1.4242964,0.4140703 1.2245739,0.4109653 1.0248515,0.4079953 0.91571505,0.4904394 0.79923346,0.5666115 0.69460722,0.6529072 L 0.43021103,1.1703424 c 0.001597,0.2618502 -0.002277,0.5244484 0.00273,0.7858329 l 0.12756864,0.4594678 0.32804618,0.3280473 c 0.14739045,0.025758 0.29478085,0.059076 0.44217125,0.080122 0.1365997,-0.028242 0.2777207,-0.046939 0.4115398,-0.08104 0.1140799,-0.095998 0.228159,-0.1919827 0.3422385,-0.287974 0.046496,-0.00203 0.10129,-0.01161 0.074864,0.053541 l -0.032521,0.392936 c -0.17708,0.089302 -0.35416,0.178592 -0.5312399,0.2678888 L 0.93623099,3.163899 C 0.8614668,3.1244387 0.78670231,3.0849784 0.71193804,3.0455045 Z"
     style="fill:#008000;stroke-width:0.0595308"
     id="path3725" />
</svg>
