<?xml version="1.0" encoding="UTF-8" standalone="no"?>
<svg
   xmlns:dc="http://purl.org/dc/elements/1.1/"
   xmlns:cc="http://creativecommons.org/ns#"
   xmlns:rdf="http://www.w3.org/1999/02/22-rdf-syntax-ns#"
   xmlns:svg="http://www.w3.org/2000/svg"
   xmlns="http://www.w3.org/2000/svg"
   width="71.127716"
   height="59.44215"
   viewBox="0 0 18.819207 15.727403"
   version="1.1"
   id="svg8">
  <defs
     id="defs2" />
  <metadata
     id="metadata5">
    <rdf:RDF>
      <cc:Work
         rdf:about="">
        <dc:format>image/svg+xml</dc:format>
        <dc:type
           rdf:resource="http://purl.org/dc/dcmitype/StillImage" />
        <dc:title></dc:title>
      </cc:Work>
    </rdf:RDF>
  </metadata>
  <g
     id="layer1"
     transform="matrix(0.18225011,0,0,0.18225011,77.203603,-54.973593)">
    <path
       id="path4400"
       style="fill:#000000;stroke-width:0.26458332"
       d="m -385.91096,363.04705 c -1.30373,0.20173 -2.06193,-0.87865 -2.69775,-2.26119 -11.66825,-19.23526 -23.33651,-38.47053 -35.00477,-57.70579 0.0533,-1.2721 2.03711,-1.46197 2.24886,0.008 11.74088,19.32505 23.48174,38.65011 35.22262,57.97516 2.04528,-1.35274 3.80672,-3.43251 5.74323,-5.06387 19.66954,-18.12039 39.33909,-36.24078 59.00864,-54.36117 1.83665,1.02765 0.93515,2.03844 -0.40386,3.02842 -21.23686,19.54852 -42.47371,39.09705 -63.71056,58.64558 -0.24282,0.0515 -0.31252,-0.0408 -0.40641,-0.26556 z m -1.05773,22.1019 c -0.55881,-0.20942 -1.1735,-0.25449 -1.73524,-0.4348 -0.62431,-0.5592 -1.27526,-1.09769 -1.88302,-1.66977 -0.35241,-0.71021 -0.73947,-1.41083 -1.07037,-2.12701 -0.0845,-1.3453 -0.20006,-2.69395 -0.26517,-4.03717 0.2912,-1.0017 0.5824,-2.00339 0.8736,-3.00508 0.66677,-0.66677 1.33354,-1.33354 2.00031,-2.00031 0.83948,-0.22574 1.67646,-0.48787 2.51748,-0.69103 0.76696,0.11162 1.54115,0.19828 2.3036,0.32544 0.45329,0.20653 0.90657,0.41306 1.35985,0.6196 0,0.67724 0,1.35448 0,2.03172 -0.34917,0.0182 -0.64681,-0.2207 -0.97192,-0.32253 -0.39988,-0.1489 -0.78622,-0.36529 -1.19472,-0.47122 -0.68973,0.009 -1.38757,-0.0186 -2.07228,0.0139 -0.44477,0.21671 -0.92459,0.39364 -1.34795,0.63463 -0.36302,0.60713 -0.7667,1.20113 -1.1044,1.81645 -0.0864,1.2074 -0.17277,2.41481 -0.25916,3.62221 0.30508,0.77142 0.57687,1.56517 0.90268,2.32269 0.41742,0.39215 0.83484,0.78429 1.25226,1.17644 0.76596,0.0863 1.53191,0.17267 2.29787,0.259 0.6897,-0.27885 1.37249,-0.5921 2.0665,-0.84945 0.18575,0.0249 0.52398,-0.10274 0.43108,0.20078 0,0.60319 0,1.20639 0,1.80958 -0.60802,0.19531 -1.20362,0.44336 -1.81933,0.60598 -0.68233,0.0791 -1.36909,0.19983 -2.04865,0.253 -0.0777,-0.0277 -0.15535,-0.0553 -0.23302,-0.083 z m 8.75989,1.77772 c 0.57839,-1.20925 0.90473,-2.51436 1.34226,-3.77718 0.20094,-0.56267 0.37638,-1.13122 0.41784,-1.73066 0.16555,-1.24349 0.35733,-2.48629 0.50657,-3.73021 -0.12987,-1.39948 -0.22023,-2.80578 -0.3747,-4.20102 -0.35065,-1.30132 -0.66553,-2.61516 -1.03828,-3.90876 -0.42049,-0.98006 -0.88832,-1.95011 -1.2792,-2.93643 -0.0516,-0.3083 0.42394,-0.0894 0.61514,-0.15486 0.39138,0 0.78276,0 1.17414,0 0.6265,1.48505 1.28706,2.95848 1.89247,4.45072 0.26464,1.08254 0.58432,2.1555 0.81446,3.24404 0.10371,1.19772 0.2362,2.39628 0.32215,3.59347 -0.21936,1.34882 -0.38628,2.70984 -0.63852,4.05102 -0.31579,0.93016 -0.5498,1.89154 -0.92117,2.80048 -0.49498,1.09717 -0.98996,2.19434 -1.48493,3.29152 -0.59362,0 -1.18723,0 -1.78085,0 0.14421,-0.33071 0.28841,-0.66142 0.43262,-0.99213 z m -19.46677,-0.9219 c -0.35931,-0.87465 -0.8527,-1.70162 -1.04972,-2.634 -0.28867,-1.10083 -0.60728,-2.19764 -0.87723,-3.30098 2e-5,-1.85118 -0.0293,-3.70596 -0.011,-5.5549 0.32722,-1.24525 0.6135,-2.50505 0.96623,-3.74124 0.66237,-1.42868 1.32474,-2.85736 1.9871,-4.28604 0.55948,0 1.11897,0 1.67845,0 -0.63153,1.41059 -1.05672,2.90113 -1.58693,4.35098 -0.23052,0.74762 -0.59943,1.46228 -0.64396,2.25418 -0.16642,1.29248 -0.35915,2.58442 -0.50922,3.87724 0.12935,1.26568 0.20551,2.5404 0.36813,3.80042 0.34728,1.34401 0.65642,2.70113 1.02726,4.03705 0.42328,0.98678 0.89434,1.96348 1.2881,2.9565 0.0519,0.30817 -0.42299,0.0896 -0.614,0.15494 -0.38907,0 -0.77815,0 -1.16723,0 -0.28533,-0.63804 -0.57055,-1.27616 -0.85594,-1.91415 z" />
  </g>
</svg>
