<?xml version="1.0" encoding="UTF-8" standalone="no"?>
<svg
   xmlns:dc="http://purl.org/dc/elements/1.1/"
   xmlns:cc="http://creativecommons.org/ns#"
   xmlns:rdf="http://www.w3.org/1999/02/22-rdf-syntax-ns#"
   xmlns:svg="http://www.w3.org/2000/svg"
   xmlns="http://www.w3.org/2000/svg"
   width="50.640388"
   height="59.059853"
   viewBox="0 0 13.398602 15.626252"
   version="1.1"
   id="svg8">
  <defs
     id="defs2" />
  <metadata
     id="metadata5">
    <rdf:RDF>
      <cc:Work
         rdf:about="">
        <dc:format>image/svg+xml</dc:format>
        <dc:type
           rdf:resource="http://purl.org/dc/dcmitype/StillImage" />
        <dc:title></dc:title>
      </cc:Work>
    </rdf:RDF>
  </metadata>
  <g
     id="layer1"
     transform="matrix(0.18225153,0,0,0.18225153,59.427516,-52.587545)">
    <path
       id="path4469"
       style="fill:#000000;stroke-width:0.26458332"
       d="m -315.27477,320.27278 c -3.5998,-10.23756 -7.1996,-20.47511 -10.7994,-30.71267 0.79612,-0.92047 2.2591,-1.02992 2.23168,0.50213 6.65959,18.90584 13.2508,37.84141 19.9531,56.72869 0.57414,0.95496 1.51473,-1.41319 2.24597,-1.8828 15.89661,-18.78812 31.79321,-37.57623 47.68982,-56.36435 0.9747,0.2753 2.11029,1.21967 0.81458,2.00983 -16.9716,20.16971 -34.03594,40.26363 -51.04319,60.4042 -0.84292,-0.42546 -0.86299,-2.13831 -1.38243,-3.06986 -3.23671,-9.20506 -6.47342,-18.41011 -9.71013,-27.61517 z m 17.85596,48.96006 c 0.17005,-0.10169 0.36799,-0.17602 0.52141,-0.29402 0.33886,-0.67563 0.69775,-1.34502 1.02419,-2.02452 0.11122,-0.87731 0.24314,-1.75537 0.34147,-2.63222 -0.21289,-1.02554 -0.42579,-2.05107 -0.63869,-3.07661 -0.49627,-0.49626 -0.99253,-0.99252 -1.48879,-1.48878 -0.72714,0 -1.45428,0 -2.18142,0 -0.41845,0.41844 -0.83689,0.83688 -1.25533,1.25533 -0.18781,0.69198 -0.39223,1.38169 -0.56975,2.07507 0.004,1.05777 -0.008,2.11779 0.006,3.17416 0.17851,0.6427 0.35701,1.2854 0.53551,1.9281 0.53754,0.45231 1.07508,0.90461 1.61262,1.35692 0.52723,0 1.05446,0 1.58169,0 0.1703,-0.0911 0.34061,-0.18229 0.51091,-0.27343 z m -2.82231,2.11002 c -0.36454,-0.14362 -0.82003,-0.13349 -1.06285,-0.48283 -0.4138,-0.42296 -0.86077,-0.82254 -1.25416,-1.2599 -0.359,-0.79641 -0.76585,-1.58218 -1.09492,-2.38524 0,-1.74974 0,-3.49949 0,-5.24924 0.46243,-0.98611 0.92487,-1.97221 1.3873,-2.95832 0.56654,-0.38802 1.11353,-0.82363 1.69226,-1.18198 0.59886,-0.0836 1.20203,-0.2218 1.79824,-0.27197 0.62184,0.22121 1.27884,0.39048 1.87908,0.64359 0.43764,0.52011 0.87528,1.04021 1.31291,1.56032 0,-2.30659 0,-4.61318 0,-6.91977 0.61736,0 1.23473,0 1.85209,0 0,6.08542 0,12.17083 0,18.25625 -0.61736,0 -1.23473,0 -1.85209,0 0,-0.5059 0,-1.01179 0,-1.51769 -0.62992,0.59409 -1.25984,1.18819 -1.88976,1.78228 -0.52007,-0.008 -1.03888,-0.003 -1.54211,0.14486 -0.275,0.0985 -0.54517,0.0805 -0.81125,-0.0362 -0.13798,-0.0416 -0.27801,-0.0816 -0.41474,-0.12411 z m 10.63963,1.93373 c 0.57839,-1.20925 0.90473,-2.51436 1.34226,-3.77718 0.20094,-0.56267 0.37638,-1.13122 0.41784,-1.73066 0.16555,-1.24349 0.35733,-2.48629 0.50657,-3.73021 -0.12987,-1.39948 -0.22023,-2.80578 -0.3747,-4.20102 -0.35065,-1.30132 -0.66553,-2.61516 -1.03828,-3.90876 -0.4205,-0.98006 -0.88834,-1.95012 -1.27921,-2.93644 -0.0516,-0.3083 0.42394,-0.0894 0.61514,-0.15486 0.39138,0 0.78277,0 1.17415,0 0.6265,1.48505 1.28706,2.95849 1.89247,4.45073 0.26463,1.08254 0.58431,2.15549 0.81446,3.24403 0.10371,1.19772 0.2362,2.39628 0.32215,3.59348 -0.21937,1.34882 -0.38629,2.70984 -0.63852,4.05102 -0.31578,0.93017 -0.54981,1.89154 -0.92118,2.80048 -0.49497,1.09717 -0.98995,2.19434 -1.48492,3.29151 -0.59362,0 -1.18723,0 -1.78085,0 0.14421,-0.33071 0.28841,-0.66141 0.43262,-0.99212 z m -19.46677,-0.9219 c -0.35931,-0.87466 -0.8527,-1.70162 -1.04972,-2.63401 -0.28867,-1.10082 -0.60728,-2.19763 -0.87723,-3.30097 2e-5,-1.85118 -0.0293,-3.70596 -0.011,-5.5549 0.32723,-1.24525 0.61351,-2.50504 0.96623,-3.74124 0.66237,-1.42868 1.32474,-2.85736 1.98711,-4.28605 0.55948,0 1.11896,0 1.67844,0 -0.63151,1.4106 -1.05671,2.90114 -1.58692,4.35099 -0.23052,0.74762 -0.59942,1.46228 -0.64396,2.25417 -0.16644,1.29249 -0.35916,2.58443 -0.50922,3.87725 0.12934,1.26568 0.2055,2.5404 0.36812,3.80042 0.34729,1.34401 0.65643,2.70112 1.02726,4.03704 0.42329,0.98678 0.89435,1.96347 1.28811,2.9565 0.0519,0.30817 -0.42299,0.0896 -0.614,0.15494 -0.38908,0 -0.77816,0 -1.16724,0 -0.28533,-0.63803 -0.57053,-1.27617 -0.85594,-1.91414 z" />
  </g>
</svg>
