<?xml version="1.0" encoding="UTF-8" standalone="no"?>
<svg
   xmlns:dc="http://purl.org/dc/elements/1.1/"
   xmlns:cc="http://creativecommons.org/ns#"
   xmlns:rdf="http://www.w3.org/1999/02/22-rdf-syntax-ns#"
   xmlns:svg="http://www.w3.org/2000/svg"
   xmlns="http://www.w3.org/2000/svg"
   width="40.374451"
   height="61.334976"
   viewBox="0 0 10.682406 16.228212"
   version="1.1"
   id="svg8">
  <defs
     id="defs2" />
  <metadata
     id="metadata5">
    <rdf:RDF>
      <cc:Work
         rdf:about="">
        <dc:format>image/svg+xml</dc:format>
        <dc:type
           rdf:resource="http://purl.org/dc/dcmitype/StillImage" />
        <dc:title></dc:title>
      </cc:Work>
    </rdf:RDF>
  </metadata>
  <g
     id="layer1"
     transform="matrix(0.18225184,0,0,0.18225184,72.080182,-53.375922)">
    <path
       id="path4333"
       style="fill:#000000;stroke-width:0.26458332"
       d="m -383.67415,355.68387 c -2.07504,-9.87193 -3.93017,-19.80258 -5.92067,-29.69709 -1.96762,-9.9591 -3.93525,-19.91821 -5.90287,-29.87731 0.89345,-0.3892 2.20826,-0.79009 2.09177,0.64376 3.5886,17.97859 7.07574,35.98655 10.71222,53.95022 0.33166,1.64692 1.16699,-0.67347 1.76967,-1.16127 14.13542,-18.85216 28.27084,-37.70433 42.40625,-56.5565 0.45394,-0.50106 2.18738,0.74385 1.45569,1.24466 -15.30254,20.3965 -30.566,40.82581 -45.89294,61.20182 -0.29699,0.15514 -0.62666,1.09066 -0.71912,0.25171 z m 6.12712,20.80464 c 0.2542,-0.22516 0.53836,-0.43063 0.7741,-0.66792 0.203,-0.69302 0.42376,-1.38344 0.61566,-2.07808 -0.005,-1.03731 0.006,-2.07687 -0.0102,-3.11277 -0.17502,-0.63009 -0.35004,-1.26019 -0.52507,-1.89028 -0.43085,-0.46486 -0.86165,-0.92978 -1.29239,-1.39475 -0.72755,0 -1.45509,0 -2.18264,0 -0.49626,0.49626 -0.99252,0.99252 -1.48878,1.48878 -0.21067,1.01477 -0.42133,2.02954 -0.632,3.04431 0.13003,0.92042 0.24048,1.84694 0.38274,2.76355 0.32709,0.64514 0.65418,1.29027 0.98128,1.9354 0.31873,0.17653 0.62892,0.38411 0.95286,0.54167 0.55203,0.005 1.10406,0.0105 1.65609,0.0158 0.25616,-0.21502 0.51182,-0.43173 0.7683,-0.64569 z m -2.44667,2.36786 c -0.35761,-0.14312 -0.7492,-0.23655 -1.08626,-0.40972 -0.38756,-0.44729 -0.77513,-0.89458 -1.1627,-1.34187 0,0.539 0,1.07801 0,1.61701 -0.61736,0 -1.23472,0 -1.85208,0 0,-6.08542 0,-12.17083 0,-18.25625 0.61736,0 1.23472,0 1.85208,0 0,2.30659 0,4.61318 0,6.91977 0.4648,-0.52866 0.89424,-1.10955 1.38074,-1.60615 0.63178,-0.1943 1.25921,-0.44354 1.89364,-0.60423 0.59489,0.10967 1.20983,0.17051 1.79247,0.30998 0.52208,0.38793 1.08531,0.74045 1.58164,1.15053 0.44386,0.9008 0.93176,1.78946 1.3484,2.69775 0.0843,1.35443 0.20294,2.71174 0.26579,4.06437 -0.22338,0.88979 -0.41098,1.79493 -0.6564,2.67526 -0.45975,0.68481 -0.8824,1.40858 -1.36488,2.06953 -0.48003,0.25775 -0.93372,0.58563 -1.43034,0.79921 -0.51409,0.0852 -1.03268,0.23019 -1.54394,0.27797 -0.33939,-0.12105 -0.67877,-0.24211 -1.01816,-0.36316 z m 9.28906,2.04824 c 0.57839,-1.20925 0.90473,-2.51436 1.34226,-3.77718 0.20094,-0.56267 0.37638,-1.13123 0.41784,-1.73067 0.16555,-1.24349 0.35733,-2.48629 0.50657,-3.73021 -0.12987,-1.39948 -0.22024,-2.80577 -0.3747,-4.20101 -0.35065,-1.30132 -0.66553,-2.61516 -1.03828,-3.90876 -0.4205,-0.98006 -0.88834,-1.95012 -1.27921,-2.93644 -0.0516,-0.3083 0.42394,-0.0894 0.61514,-0.15486 0.39138,0 0.78277,0 1.17415,0 0.6265,1.48505 1.28706,2.95849 1.89247,4.45073 0.26463,1.08254 0.58431,2.15549 0.81446,3.24403 0.10371,1.19772 0.2362,2.39628 0.32215,3.59347 -0.21937,1.34882 -0.38629,2.70984 -0.63852,4.05102 -0.31578,0.93017 -0.54981,1.89154 -0.92118,2.80049 -0.49497,1.09717 -0.98995,2.19434 -1.48492,3.29151 -0.59362,0 -1.18723,0 -1.78085,0 0.14421,-0.33071 0.28841,-0.66141 0.43262,-0.99212 z m -19.20219,-0.9219 c -0.35931,-0.87466 -0.8527,-1.70162 -1.04972,-2.63401 -0.28867,-1.10083 -0.60728,-2.19764 -0.87723,-3.30098 4e-5,-1.85118 -0.0293,-3.70596 -0.0111,-5.5549 0.32723,-1.24524 0.61352,-2.50504 0.96624,-3.74123 0.66237,-1.42868 1.32473,-2.85737 1.9871,-4.28605 0.55948,0 1.11896,0 1.67844,0 -0.63151,1.4106 -1.05671,2.90114 -1.58692,4.35099 -0.23052,0.74762 -0.59942,1.46228 -0.64396,2.25417 -0.16643,1.29249 -0.35915,2.58443 -0.50922,3.87725 0.12936,1.26568 0.20551,2.5404 0.36812,3.80042 0.34729,1.34401 0.65643,2.70112 1.02726,4.03704 0.42329,0.98678 0.89435,1.96347 1.28811,2.9565 0.0519,0.30817 -0.42299,0.0896 -0.614,0.15494 -0.38908,0 -0.77816,0 -1.16724,0 -0.28528,-0.63805 -0.57056,-1.27609 -0.85584,-1.91414 z" />
  </g>
</svg>
