<?xml version="1.0" encoding="UTF-8" standalone="no"?>
<svg
   xmlns:dc="http://purl.org/dc/elements/1.1/"
   xmlns:cc="http://creativecommons.org/ns#"
   xmlns:rdf="http://www.w3.org/1999/02/22-rdf-syntax-ns#"
   xmlns:svg="http://www.w3.org/2000/svg"
   xmlns="http://www.w3.org/2000/svg"
   width="55.33353"
   height="62.637657"
   viewBox="0 0 14.640329 16.572879"
   version="1.1"
   id="svg8">
  <defs
     id="defs2" />
  <metadata
     id="metadata5">
    <rdf:RDF>
      <cc:Work
         rdf:about="">
        <dc:format>image/svg+xml</dc:format>
        <dc:type
           rdf:resource="http://purl.org/dc/dcmitype/StillImage" />
        <dc:title></dc:title>
      </cc:Work>
    </rdf:RDF>
  </metadata>
  <g
     id="layer1"
     transform="matrix(0.18225109,0,0,0.18225109,50.864694,-51.654105)">
    <path
       id="path4548"
       style="fill:#000000;stroke-width:0.26458332"
       d="m -260.23738,315.38785 c -6.28464,-10.37687 -12.56928,-20.75375 -18.85392,-31.13062 0.86471,-1.07231 2.08802,-1.239 2.46619,0.31025 11.74721,19.42338 23.49442,38.84676 35.24164,58.27014 1.17206,-0.67998 1.68611,-2.27279 2.59333,-3.32017 12.81535,-18.67492 25.6307,-37.34984 38.44605,-56.02476 1.21071,-0.42344 2.31245,1.18099 0.96604,1.98902 -13.86158,20.18216 -27.65634,40.41833 -41.55964,60.56677 -0.83518,1.12483 -1.27108,-1.47003 -1.93064,-1.98126 -5.78969,-9.55979 -11.57937,-19.11958 -17.36905,-28.67937 z m 20.83369,53.44323 c 0.24949,-0.24949 0.49897,-0.49897 0.74846,-0.74846 0.19074,-0.69674 0.39188,-1.39204 0.57615,-2.08967 0.001,-0.41007 0.003,-0.82015 0.004,-1.23022 -1.5149,0.0622 -3.02981,0.1244 -4.54471,0.1866 -0.33718,0.4164 -0.67436,0.8328 -1.01154,1.2492 0,0.69403 0,1.38807 0,2.0821 0.43295,0.43295 0.86591,0.86591 1.29886,1.29886 0.72714,0 1.45429,0 2.18143,0 0.24854,-0.24921 0.50185,-0.50051 0.7474,-0.74841 z m -3.60654,2.57607 c -0.28139,-0.0951 -0.59163,-0.14474 -0.85567,-0.26711 -0.51649,-0.58826 -1.03299,-1.17651 -1.54948,-1.76477 -0.10228,-0.78071 -0.23832,-1.56294 -0.31947,-2.34269 0.15691,-0.66737 0.31382,-1.33474 0.47073,-2.00211 0.42498,-0.4471 0.82757,-0.92594 1.26639,-1.35344 0.53124,-0.2187 1.05533,-0.46598 1.59093,-0.66723 1.44354,-0.12592 2.88708,-0.25184 4.33062,-0.37776 -0.0299,-0.33484 0.0881,-0.70563 -0.12613,-0.99561 -0.22436,-0.43388 -0.44873,-0.86775 -0.6731,-1.30163 -0.35217,-0.17613 -0.69345,-0.39571 -1.05239,-0.54485 -0.89741,0.009 -1.80196,-0.0177 -2.69496,0.0132 -0.63501,0.25577 -1.26294,0.54679 -1.90236,0.78052 -0.18857,-0.0235 -0.52616,0.10204 -0.43023,-0.20594 0,-0.55772 0,-1.11543 0,-1.67315 0.64277,-0.26097 1.27879,-0.54945 1.92577,-0.79328 1.07787,-0.0926 2.15574,-0.18528 3.23361,-0.27792 0.78898,0.41017 1.57796,0.82033 2.36694,1.2305 0.44533,0.87645 0.89067,1.7529 1.33601,2.62934 0.0639,3.22459 0.12773,6.44919 0.1916,9.67378 -0.7249,0 -1.44979,0 -2.17469,0 0,-0.45665 0,-0.91331 0,-1.36996 -0.54799,0.44853 -1.07767,0.93179 -1.637,1.35881 -0.65674,0.17407 -1.31045,0.38052 -1.96907,0.53447 -0.46381,0.001 -0.88785,-0.15824 -1.32805,-0.2832 z m 11.44498,1.94269 c 0.57839,-1.20925 0.90473,-2.51435 1.34226,-3.77717 0.20094,-0.56267 0.37638,-1.13123 0.41784,-1.73067 0.16555,-1.24349 0.35733,-2.48629 0.50657,-3.73021 -0.12988,-1.39948 -0.22023,-2.80577 -0.37469,-4.20101 -0.35066,-1.30132 -0.66554,-2.61516 -1.03829,-3.90876 -0.42049,-0.98006 -0.88833,-1.95012 -1.2792,-2.93644 -0.0516,-0.3083 0.42394,-0.0894 0.61514,-0.15486 0.39138,0 0.78276,0 1.17414,0 0.6265,1.48505 1.28706,2.95849 1.89247,4.45073 0.26464,1.08253 0.58432,2.15549 0.81446,3.24403 0.10371,1.19772 0.2362,2.39628 0.32215,3.59347 -0.21936,1.34882 -0.38628,2.70984 -0.63852,4.05102 -0.31579,0.93017 -0.5498,1.89154 -0.92117,2.80049 -0.49498,1.09717 -0.98996,2.19434 -1.48493,3.29151 -0.59361,0 -1.18723,0 -1.78084,0 0.1442,-0.33071 0.28841,-0.66142 0.43261,-0.99213 z m -19.46677,-0.92189 c -0.35931,-0.87466 -0.8527,-1.70162 -1.04972,-2.63401 -0.28867,-1.10083 -0.60728,-2.19764 -0.87723,-3.30098 2e-5,-1.85118 -0.0293,-3.70596 -0.011,-5.5549 0.32722,-1.24525 0.6135,-2.50504 0.96623,-3.74123 0.66237,-1.42868 1.32474,-2.85737 1.98711,-4.28605 0.55948,0 1.11896,0 1.67844,0 -0.63153,1.41059 -1.05672,2.90113 -1.58693,4.35098 -0.23052,0.74762 -0.59942,1.46229 -0.64396,2.25418 -0.16643,1.29249 -0.35915,2.58442 -0.50922,3.87724 0.12935,1.26568 0.20551,2.54041 0.36813,3.80043 0.34728,1.34401 0.65643,2.70112 1.02726,4.03704 0.42328,0.98678 0.89434,1.96348 1.2881,2.9565 0.0519,0.30817 -0.42299,0.0896 -0.614,0.15494 -0.38907,0 -0.77815,0 -1.16723,0 -0.28533,-0.63804 -0.57055,-1.27616 -0.85594,-1.91414 z" />
  </g>
</svg>
