<?xml version="1.0" encoding="UTF-8" standalone="no"?>
<svg
   xmlns:dc="http://purl.org/dc/elements/1.1/"
   xmlns:cc="http://creativecommons.org/ns#"
   xmlns:rdf="http://www.w3.org/1999/02/22-rdf-syntax-ns#"
   xmlns:svg="http://www.w3.org/2000/svg"
   xmlns="http://www.w3.org/2000/svg"
   id="svg8"
   version="1.1"
   viewBox="0 0 18.238707 15.285178"
   height="57.770756"
   width="68.933701">
  <defs
     id="defs2" />
  <metadata
     id="metadata5">
    <rdf:RDF>
      <cc:Work
         rdf:about="">
        <dc:format>image/svg+xml</dc:format>
        <dc:type
           rdf:resource="http://purl.org/dc/dcmitype/StillImage" />
        <dc:title></dc:title>
      </cc:Work>
    </rdf:RDF>
  </metadata>
  <g
     transform="matrix(0.22500057,0,0,0.22500057,53.614511,-84.301015)"
     id="layer1">
    <path
       d="m -234.31736,432.96001 c 0,-2.03406 0,-4.06812 0,-6.10218 0.57326,0.0553 1.14653,0.11053 1.71979,0.1658 0.0479,3.39549 0.0959,6.79097 0.1438,10.18646 3.96494,0 7.92988,0 11.89482,0 0,0.61736 0,1.23472 0,1.85208 -4.58611,0 -9.17222,0 -13.75833,0 -3e-5,-2.03405 -5e-5,-4.06811 -8e-5,-6.10216 z m -3.96875,-24.3249 c 0,-11.28889 0,-22.57778 0,-33.86667 1.61447,-0.36375 2.2156,0.28584 1.85209,1.90006 0,21.32707 0,42.65413 0,63.98119 26.37014,0 52.74027,0 79.11041,0 0.36376,1.61447 -0.28585,2.21558 -1.90006,1.85208 -26.35415,0 -52.70829,0 -79.06244,0 0,-11.28889 0,-22.57777 0,-33.86666 z"
       style="fill:#000000;stroke-width:0.26458332"
       id="path5094" />
  </g>
</svg>
