<?xml version="1.0" encoding="UTF-8" standalone="no"?>
<svg
   xmlns:dc="http://purl.org/dc/elements/1.1/"
   xmlns:cc="http://creativecommons.org/ns#"
   xmlns:rdf="http://www.w3.org/1999/02/22-rdf-syntax-ns#"
   xmlns:svg="http://www.w3.org/2000/svg"
   xmlns="http://www.w3.org/2000/svg"
   id="svg8"
   version="1.1"
   viewBox="0 0 19.32932 17.988718"
   height="67.988861"
   width="73.055702">
  <defs
     id="defs2" />
  <metadata
     id="metadata5">
    <rdf:RDF>
      <cc:Work
         rdf:about="">
        <dc:format>image/svg+xml</dc:format>
        <dc:type
           rdf:resource="http://purl.org/dc/dcmitype/StillImage" />
        <dc:title></dc:title>
      </cc:Work>
    </rdf:RDF>
  </metadata>
  <g
     transform="matrix(0.2249994,0,0,0.2249994,69.285141,-85.194583)"
     id="layer1">
    <path
       id="path5152"
       d="m -288.07596,449.80495 c -6.64451,-23.48457 -13.23638,-46.98401 -19.85882,-70.47481 1.25144,-1.45283 2.36417,-0.39132 2.37852,1.24604 5.50573,19.56139 11.01145,39.12277 16.51718,58.68415 1.14534,0.0123 2.48174,-1.11729 3.86914,-0.79704 2.17348,-0.12378 4.36221,-0.37464 6.41104,0.54061 2.22537,0.57683 3.93567,2.19875 5.63062,3.58248 5.47768,-5.66082 10.79857,-11.67931 16.21595,-17.47767 11.28377,-12.24647 22.56753,-24.49294 33.85129,-36.73941 1.74063,0.86407 1.02318,2.15395 -0.23433,3.09664 -20.62058,22.37591 -41.24116,44.75182 -61.86174,67.12773 -1.01915,-0.1782 -0.90937,-2.61738 -1.47736,-3.69915 -0.4805,-1.69652 -0.96099,-3.39305 -1.44149,-5.08957 z m 9.32324,-1.00312 c 1.45285,-1.56699 2.90569,-3.13399 4.35854,-4.70098 -1.9002,-2.0236 -4.37524,-3.46845 -7.15923,-3.80245 -1.69854,-0.23464 -3.55862,-0.0686 -5.21085,0.31275 -2.0851,0.28613 -1.57671,1.76128 -0.98889,3.27285 1.06279,3.75834 2.17781,7.50378 3.20817,11.27012 1.85538,-2.18502 3.85808,-4.23791 5.79226,-6.35229 z"
       style="fill:#000000;stroke-width:0.26458332" />
  </g>
</svg>
