<?xml version="1.0" encoding="UTF-8" standalone="no"?>
<svg
   xmlns:dc="http://purl.org/dc/elements/1.1/"
   xmlns:cc="http://creativecommons.org/ns#"
   xmlns:rdf="http://www.w3.org/1999/02/22-rdf-syntax-ns#"
   xmlns:svg="http://www.w3.org/2000/svg"
   xmlns="http://www.w3.org/2000/svg"
   id="svg8"
   version="1.1"
   viewBox="0 0 36.727681 19.972746"
   height="75.487549"
   width="138.81329">
  <defs
     id="defs2" />
  <metadata
     id="metadata5">
    <rdf:RDF>
      <cc:Work
         rdf:about="">
        <dc:format>image/svg+xml</dc:format>
        <dc:type
           rdf:resource="http://purl.org/dc/dcmitype/StillImage" />
        <dc:title></dc:title>
      </cc:Work>
    </rdf:RDF>
  </metadata>
  <path
     id="path5209"
     style="fill:#000000;stroke-width:0.05953116"
     d="M 1.470456,2.5547885 C 1.5597313,2.5039476 1.690447,2.5036011 1.7414634,2.4061899 1.8092557,2.2939241 1.9083365,2.1933988 1.9178765,2.0564957 1.9534264,1.891391 1.9905468,1.7266059 2.0226002,1.5607723 1.9962753,1.3500962 1.9699549,1.1394202 1.9436344,0.92873968 1.8554616,0.79775398 1.7672888,0.66676827 1.679116,0.53577806 1.5591418,0.48240818 1.4440545,0.41395434 1.3208583,0.37040794 1.0746504,0.35065298 0.82844242,0.33089802 0.58223447,0.31111607 V 2.6491353 H 1.2346655 C 1.3132625,2.6176803 1.3918592,2.5862393 1.470456,2.5547885 Z M 0.19526237,-4.2332198e-6 H 1.4488605 L 2.0407262,0.29945209 c 0.1126077,0.2245495 0.2252155,0.449099 0.3378187,0.67364399 -2.25e-4,0.31295182 0.00477,0.62659662 9e-4,0.93911192 C 2.331547,2.0803141 2.2916771,2.2527357 2.2388293,2.4181868 L 1.8880055,2.8177544 C 1.700905,2.8797778 1.5148844,2.9482991 1.3271223,3.006322 H 0.16313691 Z M 35.272972,3.1207928 C 35.197543,3.0783129 35.115773,3.0431049 35.044183,2.996188 34.93,2.8349714 34.807943,2.6772333 34.698665,2.5138521 c -0.04515,-0.224572 -0.09611,-0.4487795 -0.137632,-0.6735765 0.02182,-0.2485749 0.03631,-0.4991703 0.06274,-0.7464853 l 0.316776,-0.64746753 c 0.182731,-0.10457977 0.36274,-0.21757902 0.547168,-0.31691629 0.187829,-0.018045 0.375663,-0.03608992 0.563497,-0.05414838 0.222147,0.10170427 0.444293,0.20340404 0.666435,0.30510381 v 0.42330955 c -0.04612,0.007965 -0.0851,-0.00774 -0.11969,-0.0381149 -0.137633,-0.0910843 -0.275265,-0.18216409 -0.412897,-0.27324389 -0.199727,-0.00315 -0.399451,-0.00603 -0.599174,-0.009045 -0.109133,0.0824488 -0.225616,0.15862015 -0.330245,0.24491645 L 34.991246,1.24562 c 0.0014,0.2618499 -0.0022,0.5244513 0.0031,0.7858377 0.04253,0.1531572 0.08505,0.3063143 0.127566,0.4594715 l 0.328049,0.3280447 c 0.147393,0.02574 0.294786,0.059085 0.442178,0.080122 0.136602,-0.028215 0.277726,-0.046935 0.411542,-0.081045 0.114075,-0.09598 0.228136,-0.1919695 0.342189,-0.2879768 0.0465,-0.00225 0.10129,-0.01161 0.07487,0.05355 -0.01084,0.1309767 -0.02169,0.2619579 -0.03254,0.3929346 -0.177084,0.089298 -0.354163,0.1785956 -0.531246,0.2678889 -0.219793,-0.0018 -0.439586,-0.0036 -0.659379,-0.00527 -0.07484,-0.03942 -0.149607,-0.07911 -0.224478,-0.1183812 z M 32.957308,2.7732157 H 3.5639165 V 16.693854 l 19.6292095,-0.0301 z M 3.2016066,2.3515015 H 33.691482 L 23.531512,17.052572 3.2016201,17.055672 Z M 1.4336551,17.27894 c -0.069682,-0.223245 -0.1393647,-0.446485 -0.2090516,-0.669725 -0.012555,-0.01035 -0.028575,-0.03631 -0.039015,-0.03739 -0.1239072,0.39279 -0.24999692,0.784906 -0.37249115,1.178133 -0.02007,0.06625 -0.0401849,0.132498 -0.0603089,0.198751 H 1.642693 C 1.573015,17.72546 1.5033328,17.502215 1.433655,17.278966 Z M 0.99600403,16.04367 H 1.4105881 l 0.9575799,2.960845 c 0.00135,0.04703 0.01296,0.10548 -0.053739,0.07757 -0.1101328,-0.01071 -0.2202655,-0.02142 -0.3303983,-0.03208 -0.074254,-0.249439 -0.1485041,-0.498874 -0.2227585,-0.748313 -0.3779271,0.01129 -0.7558543,0.02263 -1.13378144,0.03393 -0.0760543,0.248049 -0.15211316,0.496097 -0.22816749,0.744141 H -1.3334987e-6 Z M 25.941869,18.080217 c 0.04387,-0.03551 0.08774,-0.07105 0.131607,-0.106569 v -0.455309 c -0.05922,-0.05922 -0.118444,-0.118439 -0.177664,-0.177664 -0.262246,-0.02106 -0.524492,-0.04212 -0.786738,-0.06315 v 0.909268 h 0.701184 c 0.04387,-0.0355 0.08774,-0.07104 0.131611,-0.106573 z m 0.09264,1.389197 c 0.04871,-0.04871 0.09742,-0.09741 0.146124,-0.14612 v -0.468471 c -0.0746,-0.09212 -0.149202,-0.184252 -0.223798,-0.27638 -0.28259,-0.01598 -0.565176,-0.03195 -0.847762,-0.0479 v 1.084997 h 0.779317 c 0.04871,-0.04871 0.09741,-0.09742 0.146119,-0.146123 z m -1.312408,-2.503012 c 0.339547,-0.01098 0.679859,-0.02808 1.018924,-0.03524 0.138987,0.04086 0.277973,0.0817 0.416956,0.122544 0.09684,0.103086 0.193684,0.206172 0.290528,0.309253 v 0.715093 c -0.107388,0.09237 -0.214771,0.184734 -0.322154,0.277105 0.100777,0.06603 0.201554,0.132061 0.302331,0.198094 0.05527,0.137128 0.11799,0.272763 0.168647,0.410818 -0.0023,0.130292 0.0046,0.262903 -0.0036,0.391778 -0.07138,0.13311 -0.142772,0.266224 -0.214159,0.399333 -0.135221,0.07252 -0.270445,0.14504 -0.405666,0.217557 h -1.28382 z" />
</svg>
