<?xml version="1.0" encoding="UTF-8" standalone="no"?>
<svg
   xmlns:dc="http://purl.org/dc/elements/1.1/"
   xmlns:cc="http://creativecommons.org/ns#"
   xmlns:rdf="http://www.w3.org/1999/02/22-rdf-syntax-ns#"
   xmlns:svg="http://www.w3.org/2000/svg"
   xmlns="http://www.w3.org/2000/svg"
   id="svg8"
   version="1.1"
   viewBox="0 0 48.876339 21.617334"
   height="81.703316"
   width="184.72949">
  <defs
     id="defs2" />
  <metadata
     id="metadata5">
    <rdf:RDF>
      <cc:Work
         rdf:about="">
        <dc:format>image/svg+xml</dc:format>
        <dc:type
           rdf:resource="http://purl.org/dc/dcmitype/StillImage" />
        <dc:title></dc:title>
      </cc:Work>
    </rdf:RDF>
  </metadata>
  <g
     transform="matrix(0.22499939,0,0,0.22499939,79.469033,-95.510036)"
     id="layer1">
    <path
       d="m -352.06761,431.33673 c 0.0236,-2.22691 0.0471,-4.45382 0.0707,-6.68073 0.57326,-0.0553 1.14653,-0.11053 1.71979,-0.1658 0,3.97992 0,7.95985 0,11.93977 1.85208,0 3.70417,0 5.55625,0 0,0.52917 0,1.05833 0,1.5875 -2.47247,0 -4.94495,0 -7.41742,0 0.0236,-2.22691 0.0471,-4.45383 0.0707,-6.68074 z m 206.90415,4.23333 c 0.0236,-2.22691 0.0471,-4.45382 0.0707,-6.68073 0.57326,-0.0553 1.14653,-0.11053 1.71979,-0.1658 0.007,1.81916 0.0133,3.63833 0.02,5.45749 1.71338,-1.82231 3.42676,-3.64461 5.14014,-5.46691 0.64919,0.0584 1.29838,0.1168 1.94757,0.1752 -1.83745,2.02847 -3.6749,4.05694 -5.51235,6.08542 -0.0411,0.20147 0.0382,0.35896 0.19033,0.4899 1.79153,2.1142 3.59373,4.22064 5.37861,6.33968 0.0408,0.13256 0.33466,0.40604 0.21033,0.44646 -0.68329,0 -1.36658,0 -2.04987,0 -1.73057,-2.02809 -3.46113,-4.05617 -5.1917,-6.08426 -0.0497,2.02809 -0.0993,4.05617 -0.149,6.08426 -0.61479,0 -1.22958,0 -1.84437,0 0.0233,-2.2269 0.0465,-4.45381 0.0698,-6.68071 z m -76.99374,47.09582 c 0.0236,-2.22691 0.0471,-4.45381 0.0707,-6.68072 0.57326,-0.0553 1.14653,-0.11053 1.71979,-0.1658 0,1.86326 0,3.72651 0,5.58977 1.85208,0 3.70417,0 5.55625,0 0,-1.85208 0,-3.70417 0,-5.55625 0.52917,0 1.05833,0 1.5875,0 0,4.49792 0,8.99583 0,13.49375 -0.52917,0 -1.05833,0 -1.5875,0 0,-2.11667 0,-4.23333 0,-6.35 -1.85208,0 -3.70417,0 -5.55625,0 0,2.11667 0,4.23333 0,6.35 -0.62039,0 -1.24078,0 -1.86117,0 0.0236,-2.22692 0.0471,-4.45383 0.0707,-6.68075 z m -52.8958,6.43058 c -0.37218,-0.1818 -0.77479,-0.32634 -1.12832,-0.53096 -0.52134,-0.73587 -1.07809,-1.45611 -1.57748,-2.20167 -0.20058,-0.9981 -0.42728,-1.99457 -0.61162,-2.99368 0.0972,-1.10475 0.1612,-2.21858 0.27894,-3.31769 0.46926,-0.95913 0.93852,-1.91825 1.40778,-2.87738 0.82476,-0.48483 1.64952,-0.96967 2.47428,-1.45451 1.14653,0.003 2.29305,0.005 3.43958,0.008 0.70555,0.35039 1.4111,0.70078 2.11666,1.05117 0.0547,0.66146 0.10947,1.32292 0.1642,1.98438 -0.22002,0.033 -0.41134,-0.0212 -0.56684,-0.184 -0.42421,-0.30206 -0.83262,-0.6387 -1.26667,-0.91923 -0.69034,-0.14501 -1.3807,-0.33038 -2.07103,-0.45023 -0.6691,0.15091 -1.3382,0.30182 -2.00731,0.45272 -0.49078,0.47019 -0.98156,0.94038 -1.47233,1.41058 -0.21354,0.79131 -0.45806,1.57938 -0.65247,2.37269 0.0822,1.26659 0.16431,2.53317 0.24646,3.79976 0.2967,0.5716 0.5934,1.1432 0.89009,1.7148 0.45304,0.28448 0.89166,0.60895 1.35371,0.86845 0.76928,0.077 1.54261,0.19319 2.30936,0.24584 0.62739,-0.20706 1.25478,-0.41412 1.88217,-0.62117 0,-1.12318 0,-2.24637 0,-3.36955 -0.83785,-0.0537 -1.67569,-0.10747 -2.51354,-0.1612 0,-0.52917 0,-1.05833 0,-1.5875 1.37268,-0.0516 2.74535,-0.1032 4.11803,-0.1548 -0.0497,2.08009 -0.0995,4.16019 -0.1492,6.24028 -0.78703,0.39687 -1.57406,0.79375 -2.36108,1.19063 -1.06506,-0.004 -2.13011,-0.008 -3.19517,-0.012 -0.36922,-0.16803 -0.73985,-0.33509 -1.1082,-0.50373 z m -78.07294,16.58817 c 0.0236,-2.22691 0.0471,-4.45382 0.0707,-6.68073 2.46944,0 4.93889,0 7.40833,0 0.0558,0.48507 0.1116,0.97014 0.1674,1.45521 -1.95199,0 -3.90399,0 -5.85598,0 0,1.32292 0,2.64583 0,3.96875 1.85208,0 3.70417,0 5.55625,0 0,0.52917 0,1.05833 0,1.5875 -1.85208,0 -3.70417,0 -5.55625,0 0,1.5875 0,3.175 0,4.7625 1.94028,0 3.88055,0 5.82083,0 0,0.52917 0,1.05833 0,1.5875 -2.56067,0 -5.12133,0 -7.682,0 0.0236,-2.22691 0.0471,-4.45382 0.0707,-6.68073 z m 201.55088,-33.00677 c 0,-12.87639 0,-25.75277 0,-38.62916 -61.29513,0 -122.59027,0 -183.8854,0 0,25.04722 0,50.09444 0,75.14166 17.72708,0 35.45416,0 53.18124,0 0,-12.34722 0,-24.69444 0,-37.04166 25.13542,0 50.27083,0 75.40625,0 0,13.05278 0,26.10555 0,39.15833 18.43264,0 36.86527,0 55.29791,0 0,-12.87639 0,-25.75278 0,-38.62917 z m -57.41458,20.90209 c 0,-6.52639 0,-13.05278 0,-19.57917 -23.8125,0 -47.62499,0 -71.43749,0 0,12.43621 0,24.87241 0,37.30862 -19.0059,-0.0449 -38.01181,-0.0897 -57.01771,-0.1346 0,-26.37013 0,-52.74027 0,-79.1104 62.61805,0 125.23611,0 187.85416,0 0.0447,27.03159 0.0893,54.06319 0.134,81.09478 -19.84431,0 -39.68862,0 -59.53293,0 -1e-5,-6.52641 -2e-5,-13.05282 -3e-5,-19.57923 z m -67.40714,13.95676 c 0.0236,-2.22691 0.0471,-4.45381 0.0707,-6.68072 2.24896,-0.0494 4.49791,-0.0988 6.74687,-0.1481 0,0.53443 0,1.06887 0,1.6033 -1.67569,0 -3.35139,0 -5.02708,0 0,1.32292 0,2.64583 0,3.96875 1.49931,0 2.99861,0 4.49792,0 0,0.52917 0,1.05833 0,1.5875 -1.49931,0 -2.99861,0 -4.49792,0 0,2.11667 0,4.23333 0,6.35 -0.62039,0 -1.24078,0 -1.86117,0 0.0236,-2.22691 0.0471,-4.45382 0.0707,-6.68073 z m 58.20833,0.79375 c 0.0236,-2.22691 0.0471,-4.45381 0.0707,-6.68072 0.57326,-0.0553 1.14653,-0.11053 1.71979,-0.1658 0,4.50909 0,9.01818 0,13.52727 -0.62039,0 -1.24078,0 -1.86117,0 0.0236,-2.22692 0.0471,-4.45383 0.0707,-6.68075 z m 70.05297,11.44323 c 0,-0.26458 0,-0.52917 0,-0.79375 0.32613,-0.0145 0.67099,0.0284 0.98577,-0.0209 0.33287,-0.24317 0.66574,-0.48634 0.99861,-0.72952 0.0882,-4.90924 0.17639,-9.81849 0.26458,-14.72773 0.58342,-0.056 1.16683,-0.112 1.75025,-0.168 -0.0543,4.99492 -0.10853,9.98983 -0.1628,14.98475 -0.33783,0.55823 -0.67566,1.11646 -1.01349,1.6747 -0.43303,0.18631 -0.85742,0.41238 -1.29575,0.57426 -0.50908,0 -1.01815,0 -1.52722,0 2e-5,-0.26461 3e-5,-0.52923 5e-5,-0.79384 z"
       style="fill:#000000;stroke-width:0.26458329"
       id="path5292" />
  </g>
</svg>
