<?xml version="1.0" encoding="UTF-8" standalone="no"?>
<svg
   xmlns:dc="http://purl.org/dc/elements/1.1/"
   xmlns:cc="http://creativecommons.org/ns#"
   xmlns:rdf="http://www.w3.org/1999/02/22-rdf-syntax-ns#"
   xmlns:svg="http://www.w3.org/2000/svg"
   xmlns="http://www.w3.org/2000/svg"
   id="svg8"
   version="1.1"
   viewBox="0 0 40.508391 23.522544"
   height="88.904106"
   width="153.1026">
  <defs
     id="defs2" />
  <metadata
     id="metadata5">
    <rdf:RDF>
      <cc:Work
         rdf:about="">
        <dc:format>image/svg+xml</dc:format>
        <dc:type
           rdf:resource="http://purl.org/dc/dcmitype/StillImage" />
        <dc:title></dc:title>
      </cc:Work>
    </rdf:RDF>
  </metadata>
  <g
     transform="matrix(0.22500139,0,0,0.22500139,85.614739,-83.499703)"
     id="layer1">
    <path
       d="m -380.4375,377.94623 c 0.0236,-2.22691 0.0471,-4.45382 0.0707,-6.68073 0.81185,-0.0527 1.62369,-0.10533 2.43554,-0.158 0.96835,2.96312 1.93671,5.92624 2.90507,8.88935 0.94531,-2.95451 1.89061,-5.90903 2.83592,-8.86354 0.84637,0 1.69273,0 2.5391,0 0,4.49792 0,8.99583 0,13.49375 -0.61736,0 -1.23473,0 -1.85209,0 -0.003,-3.57187 -0.005,-7.14375 -0.008,-10.71562 -0.92318,2.73403 -1.84636,5.46805 -2.76954,8.20208 -0.52917,0 -1.05833,0 -1.5875,0 -0.90931,-2.73403 -1.81862,-5.46805 -2.72793,-8.20208 -0.0167,3.57187 -0.0335,7.14375 -0.0502,10.71562 -0.62039,0 -1.24078,0 -1.86117,0 0.0234,-2.22694 0.0467,-4.45389 0.0701,-6.68083 z m 52.06131,87.91093 c -1.29597,-0.35243 -2.13842,-2.73444 -2.80996,-4.62227 -11.25327,-27.93342 -22.50656,-55.86683 -33.75984,-83.80025 2.30998,-2.25978 2.57989,1.95611 3.47684,3.45397 11.22724,27.88156 22.43609,55.77054 33.68725,83.64246 37.72551,0 75.45102,0 113.17653,0 0.87331,3.008 -2.76721,1.50216 -4.55197,1.85208 -36.40628,0 -72.81257,0 -109.21885,0 V 466.033 Z m -15.81339,2.84115 c 0.0236,-2.22691 0.0471,-4.45382 0.0707,-6.68073 0.75927,0 1.51854,0 2.27781,0 1.62198,3.58178 3.24396,7.16356 4.86594,10.74534 0.0477,-3.62588 0.0953,-7.25175 0.143,-10.87763 0.52559,0 1.05118,0 1.57677,0 0,4.49792 0,8.99583 0,13.49375 -0.76167,0 -1.52335,0 -2.28502,0 -1.57548,-3.48175 -3.15096,-6.9635 -4.72644,-10.44525 -0.0478,3.48175 -0.0956,6.9635 -0.1434,10.44525 -0.61666,0 -1.23332,0 -1.84998,0 0.0235,-2.22691 0.0471,-4.45382 0.0706,-6.68073 z m 139.91351,4.95548 c 0.25948,-0.14555 0.54903,-0.26119 0.78977,-0.42538 0.35551,-0.71108 0.73618,-1.41486 1.07614,-2.13045 0.10241,-1.09679 0.20483,-2.19358 0.30725,-3.29037 -0.28046,-0.96477 -0.56092,-1.92953 -0.84139,-2.89429 -0.52448,-0.50249 -1.04896,-1.00498 -1.57345,-1.50746 -0.69657,-0.0183 -1.39314,-0.0365 -2.08971,-0.0548 -0.47709,0.25533 -0.95419,0.51067 -1.43128,0.766 -0.36468,0.71129 -0.72936,1.42258 -1.09403,2.13387 -0.0821,1.25606 -0.16409,2.51212 -0.24614,3.76818 0.29208,0.87937 0.58416,1.75874 0.87624,2.63811 0.40098,0.35572 0.78809,0.73435 1.19765,1.07588 0.28384,0.0868 0.55549,0.23711 0.84707,0.28346 0.47463,0.005 0.95702,0.0438 1.42685,0.0277 0.25167,-0.13016 0.50343,-0.26027 0.75503,-0.39047 z m -3.58734,1.63545 c -0.3432,-0.19031 -0.78098,-0.25307 -1.00772,-0.60043 -0.4816,-0.56191 -0.99422,-1.10567 -1.45657,-1.67885 -0.23009,-0.67793 -0.49153,-1.3505 -0.70223,-2.03175 -0.001,-1.57577 -0.003,-3.15153 -0.004,-4.7273 0.50244,-1.02323 1.00488,-2.04646 1.50733,-3.06969 0.65748,-0.42143 1.3006,-0.87993 1.96702,-1.27825 0.71245,-0.10277 1.42698,-0.24477 2.13812,-0.32315 0.6943,0.18696 1.38859,0.37391 2.08289,0.56087 0.59425,0.58961 1.21737,1.15891 1.79382,1.76103 0.35011,0.79588 0.7393,1.58329 1.06534,2.38439 0.003,1.57577 0.005,3.15153 0.008,4.7273 -0.45659,0.98901 -0.91319,1.97802 -1.36979,2.96702 -0.65985,0.50328 -1.31969,1.00657 -1.97953,1.50986 -1.08126,0.0537 -2.16251,0.10747 -3.24377,0.1612 -0.26629,-0.12069 -0.53258,-0.24187 -0.79888,-0.36225 z"
       style="fill:#000000;stroke-width:0.26458332"
       id="path5379" />
  </g>
</svg>
