<svg xmlns="http://www.w3.org/2000/svg" width="185.919" height="78" viewBox="0 0 49.191 20.638"><path d="M7.02 1.323v18.52h35.72V1.324H24.88Zm.794.794h34.131V6.879H7.814V4.498zm-.067 5.45h34.196v.07h.002V9.05l-.002.003v3.124l.002.417-.002.003v.662H7.747Zm.067 6.456h34.131V19.05H7.814v-2.514z" style="fill:#040404;stroke-width:.26458335"/><path d="M7.747 7.567h34.196v5.692H7.747Z" style="opacity:1;vector-effect:none;fill:#a0a0a0;fill-opacity:1;fill-rule:nonzero;stroke:none;stroke-width:.36294806;stroke-linecap:square;stroke-linejoin:miter;stroke-miterlimit:4;stroke-dasharray:none;stroke-dashoffset:0;stroke-opacity:1"/><path d="M5.157 10.413A2.512 2.486 0 0 1 2.645 12.9a2.512 2.486 0 0 1-2.513-2.486 2.512 2.486 0 0 1 2.513-2.486 2.512 2.486 0 0 1 2.512 2.486Z" style="opacity:1;vector-effect:none;fill:#000;fill-opacity:1;fill-rule:nonzero;stroke:#000;stroke-width:.26458335;stroke-linecap:square;stroke-linejoin:miter;stroke-miterlimit:4;stroke-dasharray:none;stroke-dashoffset:0;stroke-opacity:1"/><path d="M49.059 4.118a2.512 2.486 0 0 1-2.513 2.486 2.512 2.486 0 0 1-2.512-2.486 2.512 2.486 0 0 1 2.512-2.487 2.512 2.486 0 0 1 2.513 2.487Z" style="opacity:1;vector-effect:none;fill:red;fill-opacity:1;fill-rule:nonzero;stroke:#000;stroke-width:.26458335;stroke-linecap:square;stroke-linejoin:miter;stroke-miterlimit:4;stroke-dasharray:none;stroke-dashoffset:0;stroke-opacity:1"/><path d="M49.059 10.413a2.512 2.486 0 0 1-2.513 2.486 2.512 2.486 0 0 1-2.512-2.486 2.512 2.486 0 0 1 2.512-2.486 2.512 2.486 0 0 1 2.513 2.486z" style="opacity:1;vector-effect:none;fill:green;fill-opacity:1;fill-rule:nonzero;stroke:#000;stroke-width:.26458335;stroke-linecap:square;stroke-linejoin:miter;stroke-miterlimit:4;stroke-dasharray:none;stroke-dashoffset:0;stroke-opacity:1"/><path d="M49.059 16.709a2.512 2.486 0 0 1-2.513 2.486 2.512 2.486 0 0 1-2.512-2.486 2.512 2.486 0 0 1 2.512-2.487 2.512 2.486 0 0 1 2.513 2.487z" style="opacity:1;vector-effect:none;fill:#00f;fill-opacity:1;fill-rule:nonzero;stroke:#000;stroke-width:.26458335;stroke-linecap:square;stroke-linejoin:miter;stroke-miterlimit:4;stroke-dasharray:none;stroke-dashoffset:0;stroke-opacity:1"/><path d="M46.695 2.841c-.159 0-.197.022-.561.326l-.391.326.078.107c.044.059.112.107.151.107.04 0 .163-.079.275-.174l.204-.174v1.74h-.527V5.4h1.43V5.1h-.489V2.84Zm-.097 6.285c-.454-.002-.748.205-.863.605-.026.092-.018.104.085.124.212.043.25.028.329-.125a.677.677 0 0 1 .16-.207c.175-.123.56-.038.614.135a.836.836 0 0 1-.037.504c-.037.088-.285.37-.643.733-.503.51-.582.606-.582.708v.12H47.434l-.012-.18-.011-.178H46.264l.39-.396c.478-.483.635-.689.698-.914.14-.501-.205-.927-.754-.929zm-43.772 0-.173.001-.226.19-.4.336-.173.146.075.1c.135.182.158.18.423-.039a2.08 2.08 0 0 1 .223-.17c.008 0 .01.02.005.043a17.58 17.58 0 0 0-.012.857v.813H2.04v.32h1.43v-.32H3V9.127Zm43.776 6.285c-.296 0-.5.083-.665.272-.107.122-.23.389-.194.424a.762.762 0 0 0 .17.04c.15.023.158.02.251-.127.129-.205.235-.272.43-.272.228 0 .384.154.384.377 0 .213-.145.36-.391.396-.177.027-.177.028-.166.164.011.135.013.136.217.161.268.033.378.147.378.395 0 .144-.02.191-.128.299-.11.109-.154.128-.303.128-.224 0-.368-.075-.467-.244-.1-.17-.152-.189-.322-.118l-.137.058.06.142a.827.827 0 0 0 .412.43c.174.08.576.094.775.028a.743.743 0 0 0 .523-.733.565.565 0 0 0-.31-.524l-.138-.078.13-.07c.147-.078.28-.318.28-.5 0-.388-.315-.648-.79-.648z" style="opacity:1;vector-effect:none;fill:#fff;fill-opacity:1;fill-rule:nonzero;stroke:none;stroke-width:.02483688;stroke-linecap:square;stroke-linejoin:miter;stroke-miterlimit:4;stroke-dasharray:none;stroke-dashoffset:0;stroke-opacity:1"/></svg>