<svg xmlns="http://www.w3.org/2000/svg" width="140" height="61" viewBox="0 0 37.042 16.14"><path d="M.794.794V15.08h35.719V.794H.793zm20.411.493c4.932.07 9.866.017 14.798.034-.01 2.205.026 4.411-.02 6.616-5.739-.013-11.478.001-17.217-.008V1.321c.813-.019 1.628.04 2.44-.034zm-19.882.036h16.933v6.615H1.323V1.323zm-.007 7.11h16.976v6.138H1.316V8.433zm17.47.034h17.197v6.085H18.785V8.467z" style="fill:#080808;stroke-width:.26458335"/><path d="M18.766 1.32h17.238v6.61H18.766Z" style="opacity:1;vector-effect:none;fill:#a0a0a0;fill-opacity:1;fill-rule:nonzero;stroke:none;stroke-width:.76059371;stroke-linecap:square;stroke-linejoin:miter;stroke-miterlimit:4;stroke-dasharray:none;stroke-dashoffset:0;stroke-opacity:1"/><path d="M1.316 8.432h16.976v6.139H1.316Z" style="opacity:1;vector-effect:none;fill:#a0a0a0;fill-opacity:1;fill-rule:nonzero;stroke:none;stroke-width:.72745365;stroke-linecap:square;stroke-linejoin:miter;stroke-miterlimit:4;stroke-dasharray:none;stroke-dashoffset:0;stroke-opacity:1"/></svg>