<svg xmlns="http://www.w3.org/2000/svg" width="185.982" height="105.587" viewBox="0 0 49.208 27.937"><path d="M6.745 6.824v14.288h35.719V6.824Zm20.411.493c4.932.072 9.866.017 14.799.034-.01 2.206.025 4.412-.02 6.617-5.74-.014-11.479 0-17.218-.008V7.35c.813-.018 1.628.04 2.44-.034zm-19.882.037h16.933v6.614H7.274Zm39.422.816a2.512 2.486 0 0 0-2.513 2.486 2.512 2.486 0 0 0 2.513 2.486 2.512 2.486 0 0 0 2.512-2.486 2.512 2.486 0 0 0-2.512-2.486zM7.267 14.463h16.976v6.138H7.267Zm17.47.034h17.197v6.086H24.736Zm-22.224.55A2.512 2.486 0 0 0 0 17.531a2.512 2.486 0 0 0 2.513 2.486 2.512 2.486 0 0 0 2.512-2.486 2.512 2.486 0 0 0-2.512-2.486Z" style="fill:#080808;stroke-width:.26458335"/><path d="M24.717 7.351h17.238v6.61H24.717Z" style="opacity:1;vector-effect:none;fill:#a0a0a0;fill-opacity:1;fill-rule:nonzero;stroke:none;stroke-width:.76059371;stroke-linecap:square;stroke-linejoin:miter;stroke-miterlimit:4;stroke-dasharray:none;stroke-dashoffset:0;stroke-opacity:1"/><path d="M7.267 14.463h16.976v6.138H7.267Z" style="opacity:1;vector-effect:none;fill:#a0a0a0;fill-opacity:1;fill-rule:nonzero;stroke:none;stroke-width:.72745365;stroke-linecap:square;stroke-linejoin:miter;stroke-miterlimit:4;stroke-dasharray:none;stroke-dashoffset:0;stroke-opacity:1"/><path d="M15.755.132c-1.818-.088-3.16 2.117-2.204 3.678.815 1.635 3.39 1.723 4.318.152 1.099-1.592-.19-3.89-2.114-3.83Zm17.58 22.7c-1.817-.09-3.16 2.117-2.204 3.678.815 1.634 3.391 1.723 4.32.152 1.098-1.592-.191-3.891-2.115-3.83z" style="opacity:1;vector-effect:none;fill:red;fill-opacity:1;fill-rule:nonzero;stroke:#000;stroke-width:.26458335;stroke-linecap:square;stroke-linejoin:miter;stroke-miterlimit:4;stroke-dasharray:none;stroke-dashoffset:0;stroke-opacity:1"/><path d="M35.848 2.619c.058 1.626-1.729 2.906-3.255 2.375-1.564-.41-2.305-2.48-1.33-3.78.875-1.366 3.07-1.442 4.04-.14.35.433.547.987.545 1.545z" style="opacity:1;vector-effect:none;fill:green;fill-opacity:1;fill-rule:nonzero;stroke:#000;stroke-width:.26458335;stroke-linecap:square;stroke-linejoin:miter;stroke-miterlimit:4;stroke-dasharray:none;stroke-dashoffset:0;stroke-opacity:1"/><path d="M18.268 25.318c.057 1.626-1.73 2.906-3.255 2.375-1.564-.41-2.306-2.48-1.331-3.779.876-1.366 3.071-1.442 4.041-.141.35.433.546.988.545 1.545z" style="opacity:1;vector-effect:none;fill:#00f;fill-opacity:1;fill-rule:nonzero;stroke:#000;stroke-width:.26458335;stroke-linecap:square;stroke-linejoin:miter;stroke-miterlimit:4;stroke-dasharray:none;stroke-dashoffset:0;stroke-opacity:1"/><path d="M33.334 1.316a1.117 1.117 0 0 0-.272.047.87.87 0 0 0-.52.504c-.03.085-.046.161-.038.17a.753.753 0 0 0 .189.03l.171.015.063-.123c.095-.184.203-.27.364-.289.395-.044.574.317.363.737-.035.07-.318.385-.63.7-.527.534-.567.582-.567.69v.116h1.776v-.14c0-.225-.033-.24-.518-.24-.23.001-.471.014-.537.03-.065.014-.119.018-.119.008 0-.01.213-.233.471-.496.356-.361.491-.522.555-.658.277-.59-.138-1.126-.75-1.1zm-17.611.029-.363.303c-.2.168-.374.315-.388.33-.014.013.025.078.087.143l.112.12.088-.057c.048-.031.153-.112.233-.179a.89.89 0 0 1 .166-.121c.012 0 .022.385.022.856v.857h-.54v.316h1.427v-.316h-.475V1.345h-.184zM46.728 9.37c-.121 0-.243.012-.323.036-.242.073-.53.406-.532.617 0 .056.024.072.137.089.183.027.22.008.3-.157.08-.165.217-.248.412-.248.252 0 .4.174.376.443-.024.268-.122.406-.723 1.014-.525.533-.566.583-.566.69v.115h1.776v-.154c0-.097-.017-.17-.046-.193-.033-.028-.196-.036-.583-.028l-.538.01.465-.475c.543-.557.65-.73.648-1.048a.693.693 0 0 0-.483-.676 1.222 1.222 0 0 0-.32-.035ZM2.696 16.25c-.169 0-.171.003-.555.324-.211.177-.385.335-.385.352 0 .066.136.213.197.213.037 0 .14-.061.228-.135.09-.075.187-.155.218-.179.052-.04.055.004.055.833v.876h-.539v.286h1.427v-.286h-.476v-2.283zm13.129 7.76c-.118 0-.24.013-.33.04-.246.07-.542.41-.544.625 0 .056.024.07.141.086.189.026.215.012.297-.156a.458.458 0 0 1 .655-.185c.14.092.187.344.097.519-.053.102-.247.192-.414.192h-.11v.317h.143c.177 0 .338.065.407.163a.47.47 0 0 1 .052.245c0 .156-.01.181-.123.294-.092.091-.151.124-.23.126-.285.01-.397-.04-.533-.237-.119-.174-.155-.187-.333-.126l-.144.048.049.116c.107.258.296.448.509.512.152.046.56.036.714-.016a.746.746 0 0 0 .515-.709c.004-.247-.083-.404-.292-.53l-.164-.1.092-.038c.183-.076.32-.305.32-.532-.002-.254-.208-.526-.465-.614a1.041 1.041 0 0 0-.31-.04zm17.725.011-.622.825c-.62.819-.623.824-.596.942.043.191.072.2.702.2h.565v.634h.349v-.634h.108c.18 0 .209-.025.209-.177v-.137l-.15-.01-.152-.01-.008-.816-.008-.817h-.199zm.021.52c.017-.01.026.213.02.548l-.008.565-.405.01c-.256.005-.404-.003-.404-.024 0-.035.75-1.07.797-1.098z" style="opacity:1;vector-effect:none;fill:#fff;fill-opacity:1;fill-rule:nonzero;stroke:none;stroke-width:.04186456;stroke-linecap:square;stroke-linejoin:miter;stroke-miterlimit:4;stroke-dasharray:none;stroke-dashoffset:0;stroke-opacity:1"/></svg>