<svg xmlns="http://www.w3.org/2000/svg" width="229" height="139.554" viewBox="0 0 60.59 36.924"><path d="M1.058 7.874V29.04H60.06V7.874Zm19.096.79v19.809H10.81V8.664Zm10.063 0v19.809h-9.343V8.664Zm-19.89 0v19.809H1.56V8.664Zm20.63.003h9.26v19.844h-9.26zm10.053 0h8.996v19.844H41.01zm9.79 0h8.467v19.844H50.8z" style="fill:#070707;stroke-width:.26458335"/><path d="M1.575 8.698V28.45h8.722V8.698Zm9.235 0V28.45h9.337V8.698Zm10.107 0V28.45h9.285V8.698Z" style="opacity:1;vector-effect:none;fill:#a0a0a0;fill-opacity:1;fill-rule:nonzero;stroke:none;stroke-width:.06772135;stroke-linecap:square;stroke-linejoin:miter;stroke-miterlimit:4;stroke-dasharray:none;stroke-dashoffset:0;stroke-opacity:1"/><path d="M5.936.135C4.118.045 2.776 2.25 3.731 3.813c.815 1.634 3.391 1.723 4.319.151C9.148 2.372 7.86.074 5.936.134Zm29.662 0c-1.818-.09-3.16 2.116-2.205 3.678.815 1.634 3.392 1.723 4.32.151 1.098-1.591-.191-3.89-2.115-3.83Z" style="opacity:1;vector-effect:none;fill:red;fill-opacity:1;fill-rule:nonzero;stroke:#000;stroke-width:.26458335;stroke-linecap:square;stroke-linejoin:miter;stroke-miterlimit:4;stroke-dasharray:none;stroke-dashoffset:0;stroke-opacity:1"/><path d="M15.479.135c-1.818-.09-3.16 2.116-2.205 3.678.815 1.634 3.39 1.723 4.319.151 1.098-1.592-.191-3.89-2.114-3.83Zm30.011 0c-1.818-.09-3.16 2.116-2.205 3.678.815 1.634 3.391 1.723 4.32.151 1.098-1.591-.191-3.89-2.115-3.83Z" style="opacity:1;vector-effect:none;fill:green;fill-opacity:1;fill-rule:nonzero;stroke:#000;stroke-width:.26458335;stroke-linecap:square;stroke-linejoin:miter;stroke-miterlimit:4;stroke-dasharray:none;stroke-dashoffset:0;stroke-opacity:1"/><path d="M25.56.135c-1.818-.089-3.16 2.117-2.205 3.678.815 1.634 3.39 1.723 4.318.151 1.099-1.591-.19-3.89-2.114-3.83zm29.472 0c-1.817-.089-3.16 2.117-2.204 3.678.815 1.634 3.39 1.723 4.318.151 1.099-1.591-.19-3.89-2.114-3.83Z" style="opacity:1;vector-effect:none;fill:#00f;fill-opacity:1;fill-rule:nonzero;stroke:#000;stroke-width:.26458335;stroke-linecap:square;stroke-linejoin:miter;stroke-miterlimit:4;stroke-dasharray:none;stroke-dashoffset:0;stroke-opacity:1"/><path d="M6.104 1.318c-.156 0-.185.017-.566.338l-.402.34.074.102c.095.135.198.13.37-.013.293-.243.263-.317.263.66v.869h-.53V3.896H6.726v-.282h-.46V1.318ZM25.665 1.32a1.29 1.29 0 0 0-.375.036c-.179.05-.444.317-.502.507-.052.168-.026.195.189.196.128 0 .151-.012.188-.102.126-.304.51-.404.725-.189.071.071.09.124.09.263 0 .237-.125.367-.385.402l-.181.024v.137c0 .125.008.136.097.137.127 0 .331.057.41.115.084.061.13.284.09.432-.052.187-.214.3-.427.3-.216 0-.343-.07-.455-.251-.066-.107-.107-.137-.185-.137a.51.51 0 0 0-.265.09.7.7 0 0 0 .076.18c.109.214.25.349.43.415.307.113.745.05.995-.14.19-.145.268-.337.252-.62-.012-.209-.028-.256-.118-.352a.814.814 0 0 0-.225-.163l-.12-.051.102-.053c.479-.248.437-.875-.074-1.112a.932.932 0 0 0-.332-.064zM15.585 1.326a1.084 1.084 0 0 0-.364.043.782.782 0 0 0-.528.488c-.035.093-.056.176-.047.185.009.01.094.021.189.026.166.009.175.004.232-.115.093-.193.187-.257.402-.275.177-.014.2-.007.3.092.092.092.107.133.107.293 0 .304-.098.451-.714 1.067-.506.505-.558.569-.558.68v.122h1.767v-.155c0-.234-.026-.244-.632-.229l-.528.013.454-.464c.586-.6.727-.872.633-1.223-.087-.326-.367-.529-.713-.548zM45.622 1.353c-.63 0-.636 0-.653.08a46.511 46.511 0 0 0-.196 1.13c0 .057.25.1.378.064.285-.08.568-.021.683.14.098.138.103.448.01.61-.14.24-.475.299-.786.136-.198-.103-.265-.096-.351.039-.07.108-.07.117-.013.161.127.098.344.192.5.216.29.046.618-.03.832-.193a.943.943 0 0 0 .216-.284c.08-.165.092-.225.08-.45-.017-.345-.128-.522-.406-.65-.167-.075-.233-.086-.474-.075-.236.01-.277.004-.265-.041.007-.03.024-.117.036-.194.012-.078.03-.185.041-.238l.02-.098h.435c.492 0 .548-.024.548-.232v-.121zM35.85 1.82c.002.005 0 .26-.008.566l-.013.556h-.407c-.32 0-.4-.009-.374-.043l.414-.567c.21-.288.384-.518.388-.512zm.374-.503h-.203l-.203.001-.628.83-.629.831.038.14.038.141H35.836v.636h.388V3.26h.318v-.318h-.318V2.13ZM55.053 2.625c.311 0 .495.177.495.477 0 .213-.085.354-.267.442-.177.086-.28.088-.437.008a.436.436 0 0 1-.264-.425c0-.303.188-.502.473-.502zm.39-1.306c-.235 0-.322.092-.705.607-.497.666-.549.773-.55 1.122 0 .426.18.706.538.833.33.118.771.023 1.012-.218.322-.322.31-.876-.025-1.17-.205-.18-.456-.22-.801-.129l-.088.024.074-.085c.04-.046.238-.283.438-.526l.363-.442-.144-.01a1.611 1.611 0 0 0-.111-.006z" style="opacity:1;vector-effect:none;fill:#fff;fill-opacity:1;fill-rule:nonzero;stroke:none;stroke-width:.04663157;stroke-linecap:square;stroke-linejoin:miter;stroke-miterlimit:4;stroke-dasharray:none;stroke-dashoffset:0;stroke-opacity:1"/><path d="M5.936 31.82c-1.615-.065-2.94 1.69-2.4 3.221.452 1.665 2.743 2.32 4.019 1.167 1.286-.987 1.139-3.182-.262-3.994a2.534 2.534 0 0 0-1.357-.394Zm9.543 0c-1.616-.065-2.941 1.69-2.4 3.221.452 1.665 2.743 2.32 4.018 1.167 1.286-.987 1.14-3.182-.261-3.994a2.534 2.534 0 0 0-1.357-.394zm10.08 0c-1.615-.065-2.94 1.69-2.4 3.221.453 1.665 2.744 2.32 4.02 1.167 1.285-.987 1.138-3.182-.262-3.994a2.534 2.534 0 0 0-1.357-.394z" style="opacity:1;vector-effect:none;fill:#000;fill-opacity:1;fill-rule:nonzero;stroke:#000;stroke-width:.26458335;stroke-linecap:square;stroke-linejoin:miter;stroke-miterlimit:4;stroke-dasharray:none;stroke-dashoffset:0;stroke-opacity:1"/><path d="M15.534 33.007c-.405-.007-.785.253-.878.629-.022.09-.015.095.14.119.17.025.267-.017.267-.115 0-.088.195-.251.33-.277.168-.031.293.002.398.107.069.07.085.121.084.273-.001.31-.09.445-.706 1.068-.492.498-.565.586-.565.684v.113h1.767v-.152c0-.084-.02-.171-.043-.195-.05-.05-.786-.057-.99-.01-.074.018-.133.022-.133.01 0-.01.204-.227.454-.481.525-.535.652-.737.652-1.045 0-.37-.216-.625-.603-.708a.911.911 0 0 0-.174-.02zM25.582 33.01c-.251.004-.502.1-.657.289-.105.127-.21.385-.172.423a.57.57 0 0 0 .18.04c.155.017.158.015.232-.13.126-.247.388-.349.621-.243.167.076.24.325.159.539-.038.098-.19.18-.399.213-.127.02-.132.027-.132.161 0 .136.003.14.123.14.16 0 .4.097.443.179.051.095.042.34-.017.454-.153.297-.664.274-.842-.037-.095-.167-.159-.19-.325-.121-.11.045-.125.065-.105.134.08.267.32.49.6.559.579.14 1.144-.222 1.147-.737.001-.263-.12-.455-.368-.581l-.103-.053.13-.061c.314-.15.387-.611.142-.902-.154-.183-.405-.271-.657-.267zM6.122 33.029c-.174 0-.192.01-.521.288-.188.158-.363.308-.39.332-.04.038-.036.062.03.154.042.06.104.11.136.11.033 0 .148-.073.254-.16a1.27 1.27 0 0 1 .22-.16c.016 0 .027.383.027.849v.848H5.35v.318H6.76v-.318h-.459v-2.261z" style="opacity:1;vector-effect:none;fill:#fff;fill-opacity:1;fill-rule:nonzero;stroke:none;stroke-width:.04663157;stroke-linecap:square;stroke-linejoin:miter;stroke-miterlimit:4;stroke-dasharray:none;stroke-dashoffset:0;stroke-opacity:1"/></svg>