<svg xmlns="http://www.w3.org/2000/svg" width="150" height="150.81" viewBox="0 0 39.687 39.902"><path d="M1.922 28.078c-2.034-4.549-2.3-9.536-.76-14.277.424-1.308 1.6-3.813 1.759-3.75.458.176 16.128 9.859 16.064 9.925-.097.102-16.149 8.834-16.448 8.948-.155.06-.298-.137-.615-.846z" style="opacity:1;vector-effect:none;fill:none;fill-opacity:1;fill-rule:nonzero;stroke:#000;stroke-width:.34874463;stroke-linecap:square;stroke-linejoin:miter;stroke-miterlimit:4;stroke-dasharray:none;stroke-dashoffset:0;stroke-opacity:1"/><path d="M11.452 14.34c-4.371-2.671-7.997-4.9-8.058-4.955-.196-.177 1.08-1.804 2.65-3.375C9.52 2.528 13.792.6 18.764.27l1.262-.083-.08 2.788c-.043 1.534-.147 5.738-.23 9.343-.083 3.605-.188 6.626-.234 6.715-.057.111-2.537-1.338-8.03-4.694z" style="opacity:1;vector-effect:none;fill:#a0a0a0;fill-opacity:1;fill-rule:nonzero;stroke:#000;stroke-width:.34874463;stroke-linecap:square;stroke-linejoin:miter;stroke-miterlimit:4;stroke-dasharray:none;stroke-dashoffset:0;stroke-opacity:1"/><path d="M20.37 17.567c.001-.892.086-4.657.188-8.367.102-3.71.186-7.252.188-7.871l.002-1.126.796.083c6.33.664 11.595 3.84 14.955 9.018.31.478.544.884.52.902-.129.1-16.532 8.984-16.587 8.984-.036 0-.064-.73-.063-1.623zM28.802 24.948c-4.426-2.709-8.005-4.967-7.954-5.017.09-.09 16.455-9.013 16.53-9.013.107 0 .822 1.603 1.174 2.63.808 2.36.961 3.382.961 6.406 0 2.954-.142 3.954-.882 6.195-.339 1.025-1.582 3.734-1.711 3.728-.04-.002-3.693-2.22-8.118-4.929z" style="opacity:1;vector-effect:none;fill:none;fill-opacity:1;fill-rule:nonzero;stroke:#000;stroke-width:.34874463;stroke-linecap:square;stroke-linejoin:miter;stroke-miterlimit:4;stroke-dasharray:none;stroke-dashoffset:0;stroke-opacity:1"/><path d="M19.812 38.775c.025-.517.137-4.778.25-9.468.112-4.69.223-8.547.246-8.572.034-.036 15.116 9.127 16.005 9.725.211.141.153.257-.716 1.41-3.419 4.539-8.79 7.431-14.417 7.763l-1.414.083zM17.44 39.542c-3.033-.384-6.06-1.544-8.718-3.342-1.56-1.055-4.113-3.617-5.131-5.151-.433-.652-.786-1.225-.784-1.273.003-.122 16.547-9.096 16.625-9.018.074.074-.318 17.273-.417 18.253-.076.758.003.732-1.576.531z" style="opacity:1;vector-effect:none;fill:#a0a0a0;fill-opacity:1;fill-rule:nonzero;stroke:#000;stroke-width:.34874463;stroke-linecap:square;stroke-linejoin:miter;stroke-miterlimit:4;stroke-dasharray:none;stroke-dashoffset:0;stroke-opacity:1"/></svg>