<svg xmlns="http://www.w3.org/2000/svg" width="150" height="175.186" viewBox="0 0 39.687 46.351"><path d="M1.922 30.784c-2.034-4.55-2.3-9.536-.76-14.277.424-1.308 1.6-3.813 1.759-3.751.458.177 16.128 9.86 16.064 9.926-.097.101-16.149 8.834-16.448 8.947-.155.06-.298-.136-.615-.845z" style="opacity:1;vector-effect:none;fill:none;fill-opacity:1;fill-rule:nonzero;stroke:#000;stroke-width:.34874463;stroke-linecap:square;stroke-linejoin:miter;stroke-miterlimit:4;stroke-dasharray:none;stroke-dashoffset:0;stroke-opacity:1"/><path d="M11.452 17.044c-4.371-2.67-7.997-4.9-8.058-4.954-.196-.177 1.08-1.803 2.65-3.375 3.476-3.481 7.748-5.409 12.72-5.74l1.262-.083-.08 2.789a2333.34 2333.34 0 0 0-.23 9.342c-.083 3.605-.188 6.627-.234 6.715-.057.112-2.537-1.338-8.03-4.694z" style="opacity:1;vector-effect:none;fill:#a0a0a0;fill-opacity:1;fill-rule:nonzero;stroke:#000;stroke-width:.34874463;stroke-linecap:square;stroke-linejoin:miter;stroke-miterlimit:4;stroke-dasharray:none;stroke-dashoffset:0;stroke-opacity:1"/><path d="M20.37 20.273c.001-.893.086-4.658.188-8.368.102-3.71.186-7.252.188-7.87l.002-1.127.796.084c6.33.664 11.595 3.839 14.955 9.018.31.477.544.883.52.902-.129.099-16.532 8.983-16.587 8.983-.036 0-.064-.73-.063-1.622zM28.802 27.654c-4.426-2.71-8.005-4.967-7.954-5.018.09-.09 16.455-9.013 16.53-9.013.107 0 .822 1.603 1.174 2.63.808 2.36.961 3.382.961 6.406 0 2.954-.142 3.955-.882 6.196-.339 1.024-1.582 3.733-1.711 3.728-.04-.002-3.693-2.22-8.118-4.93z" style="opacity:1;vector-effect:none;fill:none;fill-opacity:1;fill-rule:nonzero;stroke:#000;stroke-width:.34874463;stroke-linecap:square;stroke-linejoin:miter;stroke-miterlimit:4;stroke-dasharray:none;stroke-dashoffset:0;stroke-opacity:1"/><path d="M19.812 41.48c.025-.517.137-4.777.25-9.467.112-4.69.223-8.547.246-8.572.034-.036 15.116 9.127 16.005 9.724.211.142.153.257-.716 1.41-3.419 4.54-8.79 7.432-14.417 7.763l-1.414.084zM17.44 42.248c-3.033-.385-6.06-1.545-8.718-3.342-1.56-1.055-4.113-3.618-5.131-5.152-.433-.652-.786-1.224-.784-1.272.003-.122 16.547-9.096 16.625-9.019.074.075-.318 17.273-.417 18.254-.076.758.003.731-1.576.53z" style="opacity:1;vector-effect:none;fill:#a0a0a0;fill-opacity:1;fill-rule:nonzero;stroke:#000;stroke-width:.34874463;stroke-linecap:square;stroke-linejoin:miter;stroke-miterlimit:4;stroke-dasharray:none;stroke-dashoffset:0;stroke-opacity:1"/><path d="M7.602 2.61c.045 1.084-.779 2.067-1.788 2.381-.968.316-2.127-.041-2.721-.876-.58-.777-.71-1.907-.187-2.747C3.312.64 4.108.172 4.936.138 5.8.078 6.702.475 7.17 1.218c.275.408.434.898.43 1.392ZM36.287 43.72c.057 1.627-1.73 2.907-3.255 2.376-1.564-.41-2.306-2.48-1.331-3.779.876-1.367 3.071-1.442 4.041-.142.35.434.546.989.545 1.546zM8.261 43.72c.058 1.627-1.729 2.907-3.255 2.376-1.564-.41-2.305-2.48-1.33-3.779.875-1.367 3.07-1.442 4.04-.142.35.434.547.989.545 1.546z" style="opacity:1;vector-effect:none;fill:#000;fill-opacity:1;fill-rule:nonzero;stroke:#000;stroke-width:.26458335;stroke-linecap:square;stroke-linejoin:miter;stroke-miterlimit:4;stroke-dasharray:none;stroke-dashoffset:0;stroke-opacity:1"/><path d="M9.254 22.074c.058 1.626-1.73 2.906-3.255 2.375-1.564-.41-2.306-2.48-1.331-3.779.876-1.366 3.072-1.442 4.042-.141.35.433.545.988.544 1.545z" style="opacity:1;vector-effect:none;fill:red;fill-opacity:1;fill-rule:nonzero;stroke:#000;stroke-width:.26458335;stroke-linecap:square;stroke-linejoin:miter;stroke-miterlimit:4;stroke-dasharray:none;stroke-dashoffset:0;stroke-opacity:1"/><path d="M16.502 12.349a2.512 2.486 0 0 1-2.513 2.486 2.512 2.486 0 0 1-2.512-2.486 2.512 2.486 0 0 1 2.512-2.487 2.512 2.486 0 0 1 2.513 2.487z" style="opacity:1;vector-effect:none;fill:green;fill-opacity:1;fill-rule:nonzero;stroke:#000;stroke-width:.26458335;stroke-linecap:square;stroke-linejoin:miter;stroke-miterlimit:4;stroke-dasharray:none;stroke-dashoffset:0;stroke-opacity:1"/><path d="M29.304 12.042a2.512 2.486 0 0 1-2.513 2.486 2.512 2.486 0 0 1-2.512-2.486 2.512 2.486 0 0 1 2.512-2.487 2.512 2.486 0 0 1 2.513 2.487z" style="opacity:1;vector-effect:none;fill:#00f;fill-opacity:1;fill-rule:nonzero;stroke:#000;stroke-width:.26458335;stroke-linecap:square;stroke-linejoin:miter;stroke-miterlimit:4;stroke-dasharray:none;stroke-dashoffset:0;stroke-opacity:1"/><path d="M35.31 22.965a2.512 2.486 0 0 1-2.513 2.486 2.512 2.486 0 0 1-2.512-2.486 2.512 2.486 0 0 1 2.512-2.487 2.512 2.486 0 0 1 2.512 2.487z" style="opacity:1;vector-effect:none;fill:red;fill-opacity:1;fill-rule:nonzero;stroke:#000;stroke-width:.26458335;stroke-linecap:square;stroke-linejoin:miter;stroke-miterlimit:4;stroke-dasharray:none;stroke-dashoffset:0;stroke-opacity:1"/><path d="M28.848 34.357c.057 1.626-1.73 2.906-3.255 2.375-1.564-.41-2.306-2.48-1.331-3.779.876-1.367 3.071-1.442 4.041-.142.35.434.546.989.545 1.546z" style="opacity:1;vector-effect:none;fill:green;fill-opacity:1;fill-rule:nonzero;stroke:#000;stroke-width:.26458335;stroke-linecap:square;stroke-linejoin:miter;stroke-miterlimit:4;stroke-dasharray:none;stroke-dashoffset:0;stroke-opacity:1"/><path d="M16.513 33.025c.057 1.626-1.73 2.906-3.255 2.375-1.564-.41-2.306-2.48-1.331-3.779.876-1.366 3.071-1.442 4.042-.141.35.433.545.988.544 1.545z" style="opacity:1;vector-effect:none;fill:#00f;fill-opacity:1;fill-rule:nonzero;stroke:#000;stroke-width:.26458335;stroke-linecap:square;stroke-linejoin:miter;stroke-miterlimit:4;stroke-dasharray:none;stroke-dashoffset:0;stroke-opacity:1"/><path d="m5.09 1.318-.804.676.116.158c.04.077.143.114.217.062.118-.092.232-.19.348-.285.044-.046.059-.038.044.032-.005.544 0 1.089-.002 1.633h-.533v.333h1.456v-.333H5.46V1.318zM26.855 10.71c-.093 0-.186.01-.276.034a.815.815 0 0 0-.601.608c-.073.133.06.13.16.145.128.05.27-.013.293-.154.083-.237.4-.326.612-.207.184.102.21.365.113.537-.114.16-.33.175-.51.18v.149c.006.064-.035.204.072.169.16.008.345.02.461.147a.456.456 0 0 1 .03.447c-.143.29-.603.315-.788.054-.068-.099-.12-.272-.274-.235-.079.04-.294.044-.247.167.083.212.215.424.427.528.302.132.666.13.962-.019.293-.137.454-.48.406-.794-.02-.235-.21-.422-.429-.49 0-.042.167-.086.221-.15.179-.183.205-.48.105-.709-.123-.28-.446-.414-.737-.407zM14.03 11.031c-.094 0-.187.011-.277.034a.815.815 0 0 0-.6.608c-.066.121.038.133.137.141.109.038.259.03.3-.1.038-.197.247-.321.44-.308.148-.001.293.094.337.239.072.256-.06.52-.226.709-.3.324-.622.626-.933.939-.124.083-.131.238-.122.373h1.806c-.002-.099.005-.198-.003-.296-.02-.132-.172-.123-.273-.12-.297.014-.602-.034-.89.054l.266-.27c.213-.222.446-.428.636-.671.202-.246.292-.604.157-.902-.123-.29-.453-.437-.756-.43zM6.722 20.77l-.803.675.116.158c.039.078.142.115.217.063.118-.093.23-.191.347-.286.044-.046.06-.038.045.033-.005.544-.001 1.088-.003 1.633h-.533v.333h1.456v-.333h-.473V20.77z" style="opacity:1;vector-effect:none;fill:#fff;fill-opacity:1;fill-rule:nonzero;stroke:none;stroke-width:.07484379;stroke-linecap:square;stroke-linejoin:miter;stroke-miterlimit:4;stroke-dasharray:none;stroke-dashoffset:0;stroke-opacity:1"/><path d="M33.037 22.186c.021.01-.014.178-.005.249v.852h-.801l.806-1.101zm-.04-.524-1.24 1.638c-.014.035.013.08.016.12.019.08.02.197.126.212.377.004.755 0 1.133.001v.636h.391v-.636h.129c.067-.006.164.025.197-.055.013-.095.002-.194.006-.291h-.332v-1.625zM14.075 33.035c.06.004.119.018.173.04.255.102.33.443.208.671-.115.226-.41.298-.636.213-.182-.066-.273-.265-.266-.449a.5.5 0 0 1 .065-.25c.088-.164.276-.238.456-.225zm.412-1.312c-.138.004-.3-.027-.408.083-.205.263-.403.533-.604.799-.206.258-.378.572-.35.912.009.3.17.603.447.737.33.162.754.136 1.052-.083a.872.872 0 0 0 .227-1.117c-.188-.324-.628-.431-.965-.298-.112.065.005-.047.035-.088l.78-.945z" style="fill:#fff;fill-opacity:1;stroke:none;stroke-width:.26458335"/><path d="m25.813 33.068-.219 1.265.275.078c.135-.038.277-.074.42-.066.177-.002.37.084.432.262.066.203.03.455-.13.606-.184.158-.466.145-.67.033-.09-.043-.19-.146-.294-.076-.068.067-.116.152-.175.227.226.212.541.326.85.304.346-.015.696-.215.827-.546.137-.322.095-.747-.184-.983-.25-.212-.606-.222-.914-.156l.095-.544h.758c.12.005.24-.087.23-.215v-.189zM5.802 42.404c-.124 0-.249.018-.366.06-.297.1-.497.39-.532.695l.122.02c.1.015.228.064.3-.033.053-.092.075-.206.168-.271.17-.14.47-.137.604.052.08.134.081.32-.002.452-.12.148-.327.162-.504.167v.214c.001.058-.02.136.072.104.17.008.375.024.483.175.087.169.07.403-.078.535a.492.492 0 0 1-.645 0c-.088-.072-.116-.19-.193-.27-.1-.068-.215-.003-.314.036-.065.019-.12.044-.061.118.086.242.256.47.509.552.316.1.687.077.966-.112.253-.17.365-.5.301-.794-.04-.221-.231-.379-.439-.44.062-.04.246-.108.305-.222a.687.687 0 0 0 .041-.631c-.123-.28-.446-.413-.737-.407zM33.814 42.404c-.123 0-.248.018-.365.06-.297.1-.497.39-.532.695l.23.04a.183.183 0 0 0 .239-.153c.068-.203.304-.305.505-.258.167.024.284.185.28.35.013.265-.15.494-.326.677-.293.301-.596.594-.894.891-.097.083-.079.218-.08.332h1.806v-.222c.01-.078-.022-.17-.108-.187-.11-.012-.224-.003-.336-.005-.242.005-.488-.023-.723.052l.397-.4c.193-.2.403-.385.56-.615.17-.244.228-.58.091-.853-.132-.277-.45-.41-.744-.404z" style="opacity:1;vector-effect:none;fill:#fff;fill-opacity:1;fill-rule:nonzero;stroke:none;stroke-width:.07484379;stroke-linecap:square;stroke-linejoin:miter;stroke-miterlimit:4;stroke-dasharray:none;stroke-dashoffset:0;stroke-opacity:1"/></svg>