<svg xmlns="http://www.w3.org/2000/svg" width="215.986" height="172.968" viewBox="0 0 57.146 45.764"><path d="M107.506 23.674c-19.271.1-37.919 7.834-52.344 22.494-5.07 5.153-9.219 9.85-9.219 10.437 0 .588 13.675 9.451 30.387 19.698 22.934 14.06 30.763 18.24 31.922 17.037 2.275-2.362 36.02-58.077 36.02-59.47 0-.658-2.919-2.443-6.487-3.968-9.92-4.238-20.185-6.28-30.28-6.228zm42.49 12.762-4.42 7.851c-2.43 4.32-10.83 18.253-18.664 30.963-10.71 17.375-13.795 23.38-12.44 24.21.992.608 14.095 8.735 29.118 18.06 15.022 9.324 27.928 16.82 28.68 16.656 1.956-.427 7.365-14.538 9.085-23.703 2.886-15.372-.843-36.21-8.955-50.03-4.04-6.884-13.352-17.561-18.529-21.248l-3.875-2.76z" style="opacity:1;vector-effect:none;fill:#a0a0a0;fill-opacity:1;fill-rule:nonzero;stroke:#000;stroke-width:1.32470691;stroke-linecap:square;stroke-linejoin:miter;stroke-miterlimit:4;stroke-dasharray:none;stroke-dashoffset:0;stroke-opacity:1" transform="scale(.26458)"/><path d="M42.602 62.383c-.242 0-1.723 3.226-3.293 7.17-11.456 28.763-5.3 58.99 16.447 80.76 5.166 5.171 9.72 9.076 10.119 8.677 2.038-2.038 37.064-61.1 36.234-61.1-1.62 0-24.42-13.358-42.254-24.757-9.248-5.912-17.012-10.75-17.253-10.75zm65.021 39.959-17.865 29.236c-9.826 16.08-17.867 29.82-17.867 30.533 0 2.489 14.596 7.824 25.949 9.487 14.425 2.112 30.648-.875 45.521-8.383 7.678-3.876 25.531-19.557 25.461-22.363-.018-.72-5.703-4.637-12.633-8.707-6.93-4.07-20.693-12.442-30.584-18.602l-17.982-11.201z" style="opacity:1;vector-effect:none;fill:none;fill-opacity:1;fill-rule:nonzero;stroke:#000;stroke-width:1.32470691;stroke-linecap:square;stroke-linejoin:miter;stroke-miterlimit:4;stroke-dasharray:none;stroke-dashoffset:0;stroke-opacity:1" transform="scale(.26458)"/><path d="M96.506 44.906a9.496 9.397 0 0 0-9.496 9.397 9.496 9.397 0 0 0 9.496 9.396 9.496 9.397 0 0 0 9.496-9.396 9.496 9.397 0 0 0-9.496-9.397zm21.242 87.55a9.496 9.397 0 0 0-9.496 9.396 9.496 9.397 0 0 0 9.496 9.396 9.496 9.397 0 0 0 9.496-9.396 9.496 9.397 0 0 0-9.496-9.397z" style="opacity:1;vector-effect:none;fill:red;fill-opacity:1;fill-rule:nonzero;stroke:#000;stroke-width:1;stroke-linecap:square;stroke-linejoin:miter;stroke-miterlimit:4;stroke-dasharray:none;stroke-dashoffset:0;stroke-opacity:1" transform="scale(.26458)"/><path d="M43.208 23.425a2.512 2.486 0 0 1-2.512 2.486 2.512 2.486 0 0 1-2.513-2.486 2.512 2.486 0 0 1 2.513-2.486 2.512 2.486 0 0 1 2.512 2.486z" style="opacity:1;vector-effect:none;fill:green;fill-opacity:1;fill-rule:nonzero;stroke:#000;stroke-width:.26458335;stroke-linecap:square;stroke-linejoin:miter;stroke-miterlimit:4;stroke-dasharray:none;stroke-dashoffset:0;stroke-opacity:1"/><path d="M18.794 29.12a2.512 2.486 0 0 1-2.512 2.486 2.512 2.486 0 0 1-2.513-2.487 2.512 2.486 0 0 1 2.513-2.486 2.512 2.486 0 0 1 2.512 2.486z" style="opacity:1;vector-effect:none;fill:#00f;fill-opacity:1;fill-rule:nonzero;stroke:#000;stroke-width:.26458335;stroke-linecap:square;stroke-linejoin:miter;stroke-miterlimit:4;stroke-dasharray:none;stroke-dashoffset:0;stroke-opacity:1"/><path d="M81.387.5a9.496 9.397 0 0 0-9.494 9.396 9.496 9.397 0 0 0 9.494 9.397 9.496 9.397 0 0 0 9.496-9.397A9.496 9.397 0 0 0 81.387.5zm115.976 67.596a9.496 9.397 0 0 0-9.496 9.396 9.496 9.397 0 0 0 9.496 9.397 9.496 9.397 0 0 0 9.496-9.397 9.496 9.397 0 0 0-9.496-9.396z" style="opacity:1;vector-effect:none;fill:#000;fill-opacity:1;fill-rule:nonzero;stroke:#000;stroke-width:1;stroke-linecap:square;stroke-linejoin:miter;stroke-miterlimit:4;stroke-dasharray:none;stroke-dashoffset:0;stroke-opacity:1" transform="scale(.26458)"/><path d="m81.387 5.014-3.035 2.554c.146.2.294.397.441.596.148.293.536.433.818.236.445-.35.876-.72 1.315-1.078.164-.175.221-.145.166.121-.018 2.057-.003 4.115-.008 6.172h-2.016v1.26h5.506v-1.26h-1.789V5.014h-1.398zM96.43 49.373l-3.035 2.553.439.597c.148.293.538.434.82.237.445-.35.874-.722 1.313-1.08.164-.176.223-.143.168.123-.018 2.057-.003 4.114-.008 6.172h-2.018v1.26h5.506v-1.26h-1.789v-8.602H96.43zm101.084 23.14c-.469 0-.938.072-1.38.231-1.121.374-1.881 1.471-2.013 2.623l.871.153c.422.141.842-.15.903-.58.258-.766 1.15-1.151 1.91-.973.63.09 1.07.7 1.056 1.32.05 1.005-.565 1.871-1.23 2.56-1.11 1.14-2.255 2.245-3.38 3.37-.367.314-.298.822-.302 1.254h6.828v-.84c.04-.295-.087-.64-.41-.705-.42-.046-.846-.011-1.27-.022-.913.02-1.846-.085-2.732.198l1.502-1.514c.726-.753 1.52-1.454 2.112-2.322.646-.923.862-2.194.345-3.225-.497-1.045-1.7-1.549-2.81-1.527zM153.963 83.56a4.054 4.054 0 0 0-1.381.23c-1.122.374-1.882 1.471-2.014 2.623l.871.152c.422.142.842-.149.903-.58.258-.765 1.15-1.15 1.91-.972.631.09 1.07.698 1.057 1.318.049 1.005-.566 1.873-1.23 2.563-1.11 1.14-2.255 2.244-3.38 3.369-.368.313-.298.822-.303 1.254h6.829v-.84c.038-.295-.085-.64-.409-.705-.42-.046-.848-.011-1.271-.022-.913.02-1.846-.085-2.732.197l1.501-1.513c.727-.753 1.52-1.454 2.112-2.322.647-.923.862-2.194.345-3.225-.497-1.045-1.699-1.549-2.808-1.527zm-91.5 21.57c-1.562 2.064-3.122 4.13-4.684 6.193-.057.134.048.305.057.453.072.306.08.744.477.8 1.426.014 2.854 0 4.28.005v2.404h1.481v-2.404h.487c.254-.025.619.096.744-.205.048-.363.009-.735.021-1.102h-1.252v-6.144h-1.611zm.148 1.982c.082.04-.052.67-.017.94v3.222h-3.028l3.045-4.162zm55.377 29.707c-.468 0-.937.074-1.379.233-1.122.374-1.881 1.469-2.013 2.62l.463.083c.376.052.86.239 1.134-.127.197-.348.28-.78.631-1.025.647-.526 1.779-.519 2.285.197.301.507.307 1.206-.01 1.707-.45.562-1.236.613-1.902.63v.81c.003.218-.074.514.274.394.642.032 1.418.087 1.826.658.326.64.259 1.524-.297 2.022-.653.598-1.79.616-2.44 0-.333-.27-.437-.719-.728-1.016-.382-.261-.815-.014-1.187.135-.247.07-.45.165-.229.445.323.914.968 1.778 1.922 2.086 1.196.376 2.597.292 3.652-.424.956-.642 1.378-1.892 1.137-3-.151-.836-.875-1.43-1.658-1.662.23-.153.929-.41 1.15-.842.445-.697.487-1.632.156-2.385-.465-1.06-1.684-1.56-2.787-1.539z" style="opacity:1;vector-effect:none;fill:#fff;fill-opacity:1;fill-rule:nonzero;stroke:none;stroke-width:.04663157;stroke-linecap:square;stroke-linejoin:miter;stroke-miterlimit:4;stroke-dasharray:none;stroke-dashoffset:0;stroke-opacity:1" transform="scale(.26458)"/></svg>