<svg xmlns="http://www.w3.org/2000/svg" width="215.986" height="173.077" viewBox="0 0 57.146 45.793"><path d="M20.196 20.217c-4.422-2.71-8.04-5.056-8.04-5.211 0-.156 1.097-1.398 2.439-2.762 5.816-5.91 14.225-7.566 21.86-4.303.945.403 1.717.875 1.717 1.05 0 .368-8.928 15.109-9.53 15.734-.307.318-2.378-.787-8.446-4.508z" style="opacity:1;vector-effect:none;fill:#a0a0a0;fill-opacity:1;fill-rule:nonzero;stroke:#000;stroke-width:.35049537;stroke-linecap:square;stroke-linejoin:miter;stroke-miterlimit:4;stroke-dasharray:none;stroke-dashoffset:0;stroke-opacity:1"/><path d="m149.996 36.545-4.42 7.851c-2.43 4.32-10.83 18.252-18.664 30.961-10.71 17.375-13.795 23.383-12.44 24.213.992.607 14.095 8.734 29.118 18.059 15.022 9.325 27.928 16.82 28.68 16.656 1.956-.426 7.365-14.537 9.085-23.703 2.886-15.372-.843-36.209-8.955-50.03-4.04-6.884-13.352-17.563-18.529-21.25l-3.875-2.757zM42.602 62.492c-.242 0-1.723 3.227-3.293 7.17-11.456 28.763-5.3 58.99 16.447 80.76 5.166 5.171 9.72 9.075 10.119 8.676C67.913 157.06 102.939 98 102.109 98c-1.62 0-24.42-13.361-42.254-24.76-9.248-5.912-17.012-10.748-17.253-10.748zm65.021 39.96-17.865 29.236c-9.826 16.08-17.867 29.818-17.867 30.53 0 2.489 14.596 7.827 25.949 9.489 14.425 2.112 30.648-.877 45.521-8.385 7.678-3.875 25.531-19.557 25.461-22.363-.018-.719-5.703-4.637-12.633-8.707-6.93-4.07-20.693-12.44-30.584-18.6l-17.982-11.2z" style="opacity:1;vector-effect:none;fill:none;fill-opacity:1;fill-rule:nonzero;stroke:#000;stroke-width:1.32470691;stroke-linecap:square;stroke-linejoin:miter;stroke-miterlimit:4;stroke-dasharray:none;stroke-dashoffset:0;stroke-opacity:1" transform="scale(.26458)"/><path d="M96.506 45.016a9.496 9.397 0 0 0-9.496 9.396 9.496 9.397 0 0 0 9.496 9.397 9.496 9.397 0 0 0 9.496-9.397 9.496 9.397 0 0 0-9.496-9.396zm21.242 87.548a9.496 9.397 0 0 0-9.496 9.397 9.496 9.397 0 0 0 9.496 9.396 9.496 9.397 0 0 0 9.496-9.396 9.496 9.397 0 0 0-9.496-9.397z" style="opacity:1;vector-effect:none;fill:red;fill-opacity:1;fill-rule:nonzero;stroke:#000;stroke-width:1;stroke-linecap:square;stroke-linejoin:miter;stroke-miterlimit:4;stroke-dasharray:none;stroke-dashoffset:0;stroke-opacity:1" transform="scale(.26458)"/><path d="M43.208 23.454a2.512 2.486 0 0 1-2.512 2.486 2.512 2.486 0 0 1-2.513-2.486 2.512 2.486 0 0 1 2.513-2.486 2.512 2.486 0 0 1 2.512 2.486z" style="opacity:1;vector-effect:none;fill:green;fill-opacity:1;fill-rule:nonzero;stroke:#000;stroke-width:.26458335;stroke-linecap:square;stroke-linejoin:miter;stroke-miterlimit:4;stroke-dasharray:none;stroke-dashoffset:0;stroke-opacity:1"/><path d="M18.794 29.148a2.512 2.486 0 0 1-2.512 2.486 2.512 2.486 0 0 1-2.513-2.486 2.512 2.486 0 0 1 2.513-2.486 2.512 2.486 0 0 1 2.512 2.486z" style="opacity:1;vector-effect:none;fill:#00f;fill-opacity:1;fill-rule:nonzero;stroke:#000;stroke-width:.26458335;stroke-linecap:square;stroke-linejoin:miter;stroke-miterlimit:4;stroke-dasharray:none;stroke-dashoffset:0;stroke-opacity:1"/><path d="M24.173 2.619a2.512 2.486 0 0 1-2.512 2.486 2.512 2.486 0 0 1-2.512-2.486A2.512 2.486 0 0 1 21.66.132a2.512 2.486 0 0 1 2.512 2.487Z" style="opacity:1;vector-effect:none;fill:#000;fill-opacity:1;fill-rule:nonzero;stroke:#000;stroke-width:.26458335;stroke-linecap:square;stroke-linejoin:miter;stroke-miterlimit:4;stroke-dasharray:none;stroke-dashoffset:0;stroke-opacity:1"/><path d="m81.87 5.014-3.036 2.554.44.596c.147.293.536.433.818.236.445-.35.875-.72 1.314-1.078.165-.175.224-.145.168.121-.018 2.057-.003 4.115-.008 6.172H79.55v1.26h5.506v-1.26h-1.79V5.014H81.87zm14.56 44.468-3.035 2.553.439.598c.148.292.538.433.82.236.445-.35.874-.722 1.313-1.08.164-.176.223-.143.168.123-.018 2.057-.003 4.115-.008 6.172h-2.018v1.26h5.506v-1.26h-1.789v-8.602H96.43zm57.533 34.184c-.469 0-.94.073-1.381.232-1.122.374-1.882 1.47-2.014 2.622l.871.152c.422.142.842-.148.903-.578.258-.766 1.15-1.151 1.91-.973.631.09 1.07.698 1.057 1.318.049 1.005-.566 1.871-1.23 2.561-1.11 1.14-2.255 2.246-3.38 3.371-.368.314-.298.82-.303 1.252h6.829v-.838c.038-.295-.085-.639-.409-.705-.42-.046-.848-.013-1.271-.023-.913.02-1.846-.086-2.732.197l1.501-1.514c.727-.752 1.52-1.454 2.112-2.322.647-.923.862-2.192.345-3.223-.497-1.044-1.699-1.55-2.808-1.529zm-91.5 21.572-4.684 6.192c-.057.134.048.304.057.453.072.306.08.745.477.8 1.426.015 2.854.002 4.28.006v2.405h1.481v-2.405h.487c.254-.024.619.095.744-.207.048-.362.009-.735.021-1.101h-1.252v-6.143h-1.611zm.148 1.98c.082.041-.052.673-.017.942v3.22h-3.028l3.045-4.161zm55.377 29.71c-.468-.001-.937.071-1.379.23-1.122.374-1.881 1.471-2.013 2.623l.463.082c.376.052.86.24 1.134-.127.197-.348.28-.782.631-1.027.647-.525 1.779-.518 2.285.197.301.507.307 1.207-.01 1.707-.45.562-1.236.615-1.902.633v.809c.003.218-.074.514.274.394.642.032 1.418.087 1.826.658.326.64.259 1.524-.297 2.022-.653.598-1.79.616-2.44 0-.333-.27-.437-.718-.728-1.016-.382-.26-.815-.016-1.187.133-.247.071-.45.168-.229.447.323.914.968 1.779 1.922 2.086 1.196.376 2.597.29 3.652-.425.956-.643 1.378-1.89 1.137-2.999-.151-.836-.875-1.43-1.658-1.662.23-.152.929-.41 1.15-.841.445-.697.487-1.633.156-2.385-.465-1.06-1.684-1.562-2.787-1.54z" style="opacity:1;vector-effect:none;fill:#fff;fill-opacity:1;fill-rule:nonzero;stroke:none;stroke-width:.04663157;stroke-linecap:square;stroke-linejoin:miter;stroke-miterlimit:4;stroke-dasharray:none;stroke-dashoffset:0;stroke-opacity:1" transform="scale(.26458)"/></svg>