<svg xmlns="http://www.w3.org/2000/svg" width="150" height="149.906" viewBox="0 0 39.687 39.663"><path d="M11.466 14.099c-4.422-2.711-8.04-5.056-8.04-5.212 0-.155 1.098-1.398 2.44-2.761C11.68.216 20.09-1.44 27.726 1.822c.944.404 1.717.876 1.717 1.05 0 .369-8.929 15.11-9.53 15.734-.307.319-2.379-.787-8.447-4.507zM29.262 25.004a6666.711 6666.711 0 0 0-7.704-4.778c-.359-.22.458-1.809 3.292-6.406 2.072-3.363 4.294-7.05 4.938-8.192l1.169-2.078 1.025.73c1.37.976 3.834 3.801 4.903 5.623 2.146 3.656 3.133 9.17 2.37 13.236-.456 2.426-1.887 6.16-2.405 6.272-.199.043-3.613-1.94-7.588-4.407z" style="opacity:1;vector-effect:none;fill:#a0a0a0;fill-opacity:1;fill-rule:nonzero;stroke:#000;stroke-width:.35049537;stroke-linecap:square;stroke-linejoin:miter;stroke-miterlimit:4;stroke-dasharray:none;stroke-dashoffset:0;stroke-opacity:1"/><path d="M17.157 39.312c-3.003-.44-6.865-1.851-6.865-2.51 0-.188 2.127-3.824 4.727-8.078l4.727-7.736 4.758 2.964a454.018 454.018 0 0 0 8.092 4.921c1.833 1.077 3.337 2.114 3.342 2.304.019.743-4.705 4.892-6.737 5.917-3.935 1.987-8.227 2.777-12.044 2.218zM6.023 33.68C.269 27.92-1.36 19.924 1.67 12.314c.415-1.043.808-1.897.871-1.897.064 0 2.118 1.28 4.565 2.844 4.719 3.016 10.751 6.55 11.18 6.55.22 0-9.048 15.627-9.587 16.166-.106.106-1.31-.927-2.677-2.295z" style="opacity:1;vector-effect:none;fill:none;fill-opacity:1;fill-rule:nonzero;stroke:#000;stroke-width:.35049537;stroke-linecap:square;stroke-linejoin:miter;stroke-miterlimit:4;stroke-dasharray:none;stroke-dashoffset:0;stroke-opacity:1"/></svg>