<svg xmlns="http://www.w3.org/2000/svg" width="150" height="150.455" viewBox="0 0 39.687 39.808"><path d="M11.155 14.01c-4.167-2.569-7.632-4.83-7.7-5.026-.234-.682 4.797-5.286 6.983-6.389 2.327-1.174 5.953-2.37 6.26-2.063.271.271 2.479 18.217 2.237 18.18-.112-.017-3.613-2.133-7.78-4.702ZM20.042 13.636c-.26-2.649-.746-6.714-1.081-9.034C18.416.835 18.41.368 18.902.24c1.089-.282 5.643.417 7.673 1.177 2.046.768 6.425 3.45 6.392 3.915-.01.133-2.815 3.139-6.235 6.68l-6.219 6.44zM29.737 20.346c-4.267-.46-7.811-.845-7.877-.858-.065-.013 2.695-2.945 6.134-6.516l6.253-6.493.824.99c2.45 2.946 4.408 8.301 4.408 12.053 0 2.08 1.083 1.988-9.742.824z" style="opacity:1;vector-effect:none;fill:#a0a0a0;fill-opacity:1;fill-rule:nonzero;stroke:#000;stroke-width:.34998858;stroke-linecap:square;stroke-linejoin:miter;stroke-miterlimit:4;stroke-dasharray:none;stroke-dashoffset:0;stroke-opacity:1"/><path d="M28.588 32.562c-5.28-8.148-7.413-11.476-7.373-11.51.024-.02 3.371.338 7.44.796 4.068.458 8.086.84 8.93.848 1.756.018 1.785.107.958 2.927-1.027 3.5-3.981 7.823-6.642 9.718l-1.034.736zM16.795 39.28c-1.264-.163-2.395-.394-2.513-.513-.197-.197 4.041-13.488 5.23-16.404l.511-1.25.705 1.07c.388.588.707 1.35.708 1.69.001.342 1.804 3.408 4.006 6.814 3.068 4.746 3.89 6.264 3.518 6.503-1.636 1.05-7.762 2.614-9.506 2.427-.199-.021-1.395-.173-2.66-.336zM10.647 37.239c-3.559-1.834-8.62-7.39-8.821-9.685-.04-.45 1.85-1.287 8.066-3.567 4.465-1.638 8.15-2.956 8.189-2.928.038.027-1.186 3.901-2.721 8.61l-2.79 8.56zM.558 23.898c-.555-2.761-.504-5.966.139-8.691.434-1.843 1.303-4.105 1.8-4.69.05-.058 1.938 1.093 4.195 2.558 2.256 1.465 5.6 3.543 7.431 4.617 1.831 1.074 3.333 2.054 3.338 2.178.004.124-.357.228-.804.23-.887.007-12.282 4.095-14.386 5.163l-1.306.663z" style="opacity:1;vector-effect:none;fill:none;fill-opacity:1;fill-rule:nonzero;stroke:#000;stroke-width:.34998858;stroke-linecap:square;stroke-linejoin:miter;stroke-miterlimit:4;stroke-dasharray:none;stroke-dashoffset:0;stroke-opacity:1"/></svg>