<svg xmlns="http://www.w3.org/2000/svg" width="215.986" height="196.948" viewBox="0 0 57.146 52.109"><path d="M107.506 24.207c-19.271.1-37.919 7.836-52.344 22.496-5.07 5.153-9.219 9.848-9.219 10.436 0 .587 13.675 9.452 30.387 19.699 22.934 14.06 30.763 18.238 31.922 17.035 2.275-2.362 36.02-58.077 36.02-59.47 0-.658-2.919-2.44-6.487-3.965-9.92-4.24-20.185-6.283-30.28-6.231zM42.602 62.918c-.242 0-1.723 3.225-3.293 7.168-11.456 28.763-5.3 58.99 16.447 80.76 5.166 5.171 9.72 9.076 10.119 8.677 2.038-2.037 37.064-61.1 36.234-61.1-1.62 0-24.42-13.358-42.254-24.757-9.248-5.912-17.012-10.748-17.253-10.748zm65.021 39.957-17.865 29.236c-9.826 16.08-17.867 29.82-17.867 30.534 0 2.488 14.596 7.823 25.949 9.486 14.425 2.112 30.648-.875 45.521-8.383 7.678-3.876 25.531-19.557 25.461-22.363-.018-.72-5.703-4.637-12.633-8.707-6.93-4.07-20.693-12.441-30.584-18.602l-17.982-11.201z" style="opacity:1;vector-effect:none;fill:#a0a0a0;fill-opacity:1;fill-rule:nonzero;stroke:#000;stroke-width:1.32470703;stroke-linecap:square;stroke-linejoin:miter;stroke-miterlimit:4;stroke-dasharray:none;stroke-dashoffset:0;stroke-opacity:1" transform="scale(.26458)"/><path d="M37.991 31.235a6674.03 6674.03 0 0 0-7.703-4.778c-.36-.22.458-1.809 3.291-6.406 2.073-3.363 4.295-7.05 4.938-8.192l1.17-2.078 1.025.73c1.37.976 3.833 3.801 4.902 5.623 2.146 3.656 3.133 9.17 2.37 13.236-.455 2.425-1.887 6.16-2.405 6.272-.198.043-3.613-1.94-7.588-4.407z" style="opacity:1;vector-effect:none;fill:none;fill-opacity:1;fill-rule:nonzero;stroke:#000;stroke-width:.3504954;stroke-linecap:square;stroke-linejoin:miter;stroke-miterlimit:4;stroke-dasharray:none;stroke-dashoffset:0;stroke-opacity:1"/><path d="M84.438.5a9.496 9.397 0 0 0-9.497 9.396 9.496 9.397 0 0 0 9.496 9.397 9.496 9.397 0 0 0 9.497-9.397A9.496 9.397 0 0 0 84.438.5zm-63.05 115.586a9.496 9.397 0 0 0-9.495 9.396 9.496 9.397 0 0 0 9.496 9.399 9.496 9.397 0 0 0 9.494-9.399 9.496 9.397 0 0 0-9.494-9.396zm109.663 61.568a9.496 9.397 0 0 0-9.496 9.397 9.496 9.397 0 0 0 9.496 9.396 9.496 9.397 0 0 0 9.496-9.396 9.496 9.397 0 0 0-9.496-9.397z" style="opacity:1;vector-effect:none;fill:#000;fill-opacity:1;fill-rule:nonzero;stroke:#000;stroke-width:1;stroke-linecap:square;stroke-linejoin:miter;stroke-miterlimit:4;stroke-dasharray:none;stroke-dashoffset:0;stroke-opacity:1" transform="scale(.26458)"/><path d="M96.172 45.482c-2.947.103-5.849 1.467-7.504 4.05-3.684 4.907-.88 12.734 5.031 14.282 5.767 2.007 12.52-2.832 12.303-8.978a9.345 9.345 0 0 0-2.059-5.84c-1.833-2.458-4.824-3.616-7.771-3.514zm21.244 87.55c-2.947.102-5.85 1.466-7.506 4.048-3.683 4.908-.88 12.735 5.031 14.283 5.767 2.007 12.52-2.83 12.303-8.976a9.35 9.35 0 0 0-2.058-5.842c-1.834-2.458-4.823-3.616-7.77-3.514z" style="opacity:1;vector-effect:none;fill:red;fill-opacity:1;fill-rule:nonzero;stroke:#000;stroke-width:1;stroke-linecap:square;stroke-linejoin:miter;stroke-miterlimit:4;stroke-dasharray:none;stroke-dashoffset:0;stroke-opacity:1" transform="scale(.26458)"/><path d="M43.208 23.566c.058 1.627-1.729 2.907-3.255 2.376-1.564-.41-2.305-2.48-1.33-3.78.875-1.366 3.07-1.442 4.04-.141.35.434.547.988.545 1.545z" style="opacity:1;vector-effect:none;fill:green;fill-opacity:1;fill-rule:nonzero;stroke:#000;stroke-width:.26458335;stroke-linecap:square;stroke-linejoin:miter;stroke-miterlimit:4;stroke-dasharray:none;stroke-dashoffset:0;stroke-opacity:1"/><path d="M18.794 29.26c.058 1.627-1.729 2.907-3.255 2.376-1.564-.41-2.305-2.48-1.33-3.78.875-1.366 3.07-1.442 4.04-.141.35.434.547.988.545 1.545z" style="opacity:1;vector-effect:none;fill:#00f;fill-opacity:1;fill-rule:nonzero;stroke:#000;stroke-width:.26458335;stroke-linecap:square;stroke-linejoin:miter;stroke-miterlimit:4;stroke-dasharray:none;stroke-dashoffset:0;stroke-opacity:1"/><path d="m84.438 5.014-3.036 2.554.44.596c.148.293.538.433.82.236.445-.35.874-.72 1.313-1.078.164-.175.223-.145.168.121-.018 2.057-.003 4.115-.008 6.172h-2.018v1.26h5.506v-1.26h-1.789V5.014h-1.397zM96.43 49.906l-3.035 2.555.439.598c.148.292.538.43.82.234.445-.35.874-.72 1.313-1.078.164-.176.223-.145.168.12-.018 2.058-.003 4.116-.008 6.173h-2.018v1.26h5.506v-1.26h-1.789v-8.602H96.43zm57.533 34.186c-.469-.001-.94.071-1.381.23-1.122.374-1.882 1.471-2.014 2.623l.871.153c.422.141.842-.148.903-.578.258-.766 1.15-1.153 1.91-.975.631.09 1.07.7 1.057 1.32.049 1.005-.566 1.871-1.23 2.56-1.11 1.14-2.255 2.245-3.38 3.37-.368.314-.298.822-.303 1.254h6.829v-.84c.038-.295-.085-.64-.409-.705-.42-.046-.848-.011-1.271-.022-.913.02-1.846-.085-2.732.198l1.501-1.514c.727-.753 1.52-1.454 2.112-2.322.647-.923.862-2.194.345-3.225-.497-1.045-1.699-1.549-2.808-1.527zm-91.5 21.572-4.684 6.191c-.057.134.048.305.057.454.072.305.08.743.477.798 1.426.015 2.854.002 4.28.006v2.405h1.481v-2.405h.487c.254-.024.619.096.744-.205.048-.362.009-.735.021-1.101h-1.252v-6.143h-1.611zm.148 1.98c.082.04-.052.673-.017.942v3.22h-3.028l3.045-4.161zm-41.072 12.86c-.468 0-.937.073-1.379.232-1.122.374-1.882 1.47-2.014 2.621l.872.155c.421.142.841-.15.902-.58.258-.766 1.149-1.151 1.908-.973.631.09 1.072.698 1.059 1.318.049 1.005-.566 1.873-1.23 2.563-1.11 1.14-2.255 2.244-3.38 3.369-.368.314-.298.82-.302 1.252H24.8v-.838c.039-.295-.085-.639-.408-.705-.42-.046-.847-.013-1.27-.023-.913.02-1.846-.084-2.732.199.5-.505 1-1.01 1.502-1.514.726-.752 1.519-1.456 2.11-2.324.648-.923.863-2.192.347-3.223-.498-1.044-1.701-1.55-2.81-1.53zm96.45 16.85a4.05 4.05 0 0 0-1.38.23c-1.122.374-1.881 1.471-2.013 2.623l.463.08c.376.052.86.24 1.134-.127.197-.348.28-.78.631-1.025.647-.526 1.779-.519 2.285.197.301.507.307 1.206-.01 1.707-.45.562-1.236.613-1.902.63v.81c.003.218-.074.514.274.394.642.032 1.418.087 1.826.658.326.64.259 1.524-.297 2.022-.653.598-1.79.618-2.44.002-.333-.27-.437-.72-.728-1.018-.382-.26-.815-.014-1.187.135-.247.07-.45.166-.229.445.323.914.968 1.779 1.922 2.086 1.196.376 2.597.293 3.652-.424.956-.642 1.378-1.89 1.137-2.998-.151-.836-.875-1.433-1.658-1.664.23-.152.929-.41 1.15-.842.445-.696.487-1.63.156-2.382-.465-1.06-1.684-1.562-2.787-1.54zm13.261 44.718c-.469 0-.938.072-1.379.23-1.122.375-1.882 1.472-2.014 2.624l.461.082c.377.052.863.239 1.137-.127.197-.348.28-.783.63-1.027.647-.526 1.78-.519 2.286.197.301.507.307 1.206-.01 1.707-.45.562-1.236.614-1.902.633v.808c.003.219-.074.515.273.395.642.032 1.418.087 1.827.658.326.64.258 1.524-.297 2.021-.653.599-1.79.617-2.44 0-.334-.27-.437-.718-.728-1.015-.382-.261-.815-.016-1.188.133-.247.07-.451.167-.23.447.323.914.97 1.778 1.924 2.086 1.195.376 2.596.29 3.652-.426.956-.642 1.378-1.89 1.137-2.998-.152-.836-.875-1.43-1.659-1.662.231-.153.93-.41 1.15-.842.446-.697.487-1.632.157-2.385-.466-1.06-1.685-1.561-2.787-1.539z" style="opacity:1;vector-effect:none;fill:#fff;fill-opacity:1;fill-rule:nonzero;stroke:none;stroke-width:.04663157;stroke-linecap:square;stroke-linejoin:miter;stroke-miterlimit:4;stroke-dasharray:none;stroke-dashoffset:0;stroke-opacity:1" transform="scale(.26458)"/></svg>