<svg xmlns="http://www.w3.org/2000/svg" width="215.986" height="170.144" viewBox="0 0 57.146 45.017"><path d="M106.547 20.318c-.88.025-1.6.101-2.113.235-1.862.483-1.838 2.247.22 16.484 1.268 8.769 3.108 24.133 4.088 34.143l1.781 18.2 23.502-24.337c12.926-13.385 23.53-24.746 23.567-25.246.126-1.76-16.427-11.898-24.16-14.797-6.713-2.517-20.73-4.853-26.885-4.682zm-11.432 1.157c-3.52.149-14.974 4.093-22.672 7.978-8.26 4.169-27.275 21.568-26.388 24.147.253.738 13.349 9.286 29.1 18.996 15.75 9.71 28.98 17.705 29.402 17.77.916.138-7.429-67.687-8.453-68.712-.145-.145-.486-.2-.989-.18zm67.317 22.656L138.797 68.67c-12.999 13.497-23.43 24.58-23.182 24.629.248.049 13.644 1.507 29.77 3.242 40.912 4.401 36.82 4.748 36.82-3.113 0-14.18-7.404-34.422-16.662-45.555l-3.111-3.742z" style="opacity:1;vector-effect:none;fill:#a0a0a0;fill-opacity:1;fill-rule:nonzero;stroke:#000;stroke-width:1.32279146;stroke-linecap:square;stroke-linejoin:miter;stroke-miterlimit:4;stroke-dasharray:none;stroke-dashoffset:0;stroke-opacity:1" transform="scale(.26458)"/><path d="M42.434 59.395c-1.882 2.208-5.165 10.759-6.807 17.724-2.428 10.3-2.623 22.411-.527 32.848l1.54 7.666 4.938-2.508c7.95-4.035 51.018-19.489 54.373-19.51 1.688-.01 3.053-.402 3.035-.87-.018-.47-5.695-4.175-12.615-8.235s-19.56-11.912-28.088-17.45c-8.528-5.537-15.66-9.888-15.85-9.665zm70.742 39.812c-.152.13 7.906 12.71 27.865 43.504l8.613 13.287 3.91-2.783c10.057-7.16 21.222-23.497 25.104-36.729 3.127-10.658 3.017-10.994-3.623-11.06-3.188-.032-18.376-1.475-33.752-3.207-15.376-1.732-28.029-3.088-28.117-3.012zm-11.846.027c-.146-.103-14.073 4.88-30.95 11.07-23.491 8.619-30.637 11.777-30.487 13.48.76 8.672 19.89 29.675 33.34 36.605l7.265 3.744 10.549-32.356c5.802-17.795 10.429-32.44 10.283-32.543zm7.34.207-1.928 4.725c-4.496 11.02-20.516 61.256-19.771 62 .447.447 4.723 1.32 9.5 1.94 4.777.619 9.299 1.19 10.049 1.27 6.592.706 29.747-5.205 35.927-9.17 1.407-.903-1.698-6.642-13.297-24.581-8.322-12.871-15.135-24.46-15.14-25.75-.005-1.29-1.208-4.167-2.674-6.39l-2.666-4.044z" style="opacity:1;vector-effect:none;fill:none;fill-opacity:1;fill-rule:nonzero;stroke:#000;stroke-width:1.32279146;stroke-linecap:square;stroke-linejoin:miter;stroke-miterlimit:4;stroke-dasharray:none;stroke-dashoffset:0;stroke-opacity:1" transform="scale(.26458)"/><path d="M81.352 43.705a9.496 9.397 0 0 0-9.497 9.399 9.496 9.397 0 0 0 9.497 9.396 9.496 9.397 0 0 0 9.496-9.396 9.496 9.397 0 0 0-9.496-9.399zm74.28 27.477a9.496 9.397 0 0 0-9.495 9.396 9.496 9.397 0 0 0 9.496 9.397 9.496 9.397 0 0 0 9.494-9.397 9.496 9.397 0 0 0-9.494-9.396zm-43.92 63.373a9.496 9.397 0 0 0-9.493 9.396 9.496 9.397 0 0 0 9.494 9.397 9.496 9.397 0 0 0 9.496-9.397 9.496 9.397 0 0 0-9.496-9.396z" style="opacity:1;vector-effect:none;fill:red;fill-opacity:1;fill-rule:nonzero;stroke:#000;stroke-width:1;stroke-linecap:square;stroke-linejoin:miter;stroke-miterlimit:4;stroke-dasharray:none;stroke-dashoffset:0;stroke-opacity:1" transform="scale(.26458)"/><path d="M125.127 39.514a9.496 9.397 0 0 0-9.496 9.396 9.496 9.397 0 0 0 9.496 9.397 9.496 9.397 0 0 0 9.496-9.397 9.496 9.397 0 0 0-9.496-9.396zm-53.05 80.523a9.496 9.397 0 0 0-9.497 9.399 9.496 9.397 0 0 0 9.496 9.396 9.496 9.397 0 0 0 9.496-9.396 9.496 9.397 0 0 0-9.496-9.399z" style="opacity:1;vector-effect:none;fill:green;fill-opacity:1;fill-rule:nonzero;stroke:#000;stroke-width:1;stroke-linecap:square;stroke-linejoin:miter;stroke-miterlimit:4;stroke-dasharray:none;stroke-dashoffset:0;stroke-opacity:1" transform="scale(.26458)"/><path d="M55.982 80.145a9.496 9.397 0 0 0-9.496 9.396 9.496 9.397 0 0 0 9.496 9.397 9.496 9.397 0 0 0 9.497-9.397 9.496 9.397 0 0 0-9.497-9.396zm93.23 31.763a9.496 9.397 0 0 0-9.495 9.397 9.496 9.397 0 0 0 9.496 9.396 9.496 9.397 0 0 0 9.496-9.396 9.496 9.397 0 0 0-9.496-9.397z" style="opacity:1;vector-effect:none;fill:#00f;fill-opacity:1;fill-rule:nonzero;stroke:#000;stroke-width:1;stroke-linecap:square;stroke-linejoin:miter;stroke-miterlimit:4;stroke-dasharray:none;stroke-dashoffset:0;stroke-opacity:1" transform="scale(.26458)"/><path d="M142.709.5a9.496 9.397 0 0 0-9.496 9.396 9.496 9.397 0 0 0 9.496 9.397 9.496 9.397 0 0 0 9.494-9.397A9.496 9.397 0 0 0 142.71.5zM58.551 7.227a9.496 9.397 0 0 0-9.496 9.396 9.496 9.397 0 0 0 9.496 9.397 9.496 9.397 0 0 0 9.494-9.397 9.496 9.397 0 0 0-9.494-9.396zM195.004 59.36a9.496 9.397 0 0 0-9.496 9.397 9.496 9.397 0 0 0 9.496 9.396 9.496 9.397 0 0 0 9.496-9.396 9.496 9.397 0 0 0-9.496-9.397z" style="opacity:1;vector-effect:none;fill:#000;fill-opacity:1;fill-rule:nonzero;stroke:#000;stroke-width:1;stroke-linecap:square;stroke-linejoin:miter;stroke-miterlimit:4;stroke-dasharray:none;stroke-dashoffset:0;stroke-opacity:1" transform="scale(.26458)"/><path d="M142.86 4.918c-.47 0-.938.071-1.38.23-1.122.374-1.881 1.472-2.013 2.623l.87.153c.423.142.843-.148.903-.578.258-.766 1.149-1.151 1.908-.973.631.09 1.073.698 1.059 1.318.05 1.005-.566 1.871-1.23 2.561-1.11 1.14-2.255 2.246-3.38 3.371-.367.314-.298.82-.302 1.252h6.826v-.838c.039-.295-.085-.64-.408-.707-.42-.046-.846-.01-1.27-.021-.913.02-1.846-.086-2.732.197l1.502-1.514c.726-.752 1.52-1.454 2.111-2.322.647-.923.862-2.194.346-3.225-.498-1.044-1.701-1.549-2.81-1.527zM58.548 11.74l-3.035 2.553c.146.2.294.399.441.598.148.292.536.433.818.236.446-.35.876-.722 1.315-1.08.164-.176.223-.143.168.123-.018 2.057-.003 4.115-.008 6.172H56.23v1.26h5.506v-1.26h-1.789V11.74H58.55zm66.728 32.192c-.468-.001-.937.071-1.379.23-1.122.374-1.881 1.471-2.013 2.623l.87.153c.423.141.843-.148.903-.579.258-.765 1.15-1.152 1.91-.974.631.09 1.07.7 1.057 1.32.05 1.005-.566 1.87-1.23 2.56-1.11 1.14-2.255 2.245-3.38 3.37-.368.313-.298.822-.302 1.254h6.828v-.838c.039-.295-.087-.641-.41-.707-.42-.046-.846-.011-1.27-.022-.913.02-1.846-.085-2.732.198l1.502-1.514c.726-.753 1.519-1.454 2.111-2.322.647-.923.862-2.194.346-3.225-.498-1.045-1.701-1.549-2.81-1.527zm-44.002 4.24-3.035 2.555.44.597c.148.293.538.431.82.235.445-.35.875-.72 1.314-1.079.165-.175.222-.145.166.122-.017 2.057-.002 4.114-.007 6.171h-2.016v1.26h5.506v-1.26h-1.791v-8.601h-1.397zm113.928 15.607c-.468 0-.94.074-1.38.233-1.123.374-1.88 1.469-2.012 2.62l.46.083c.377.052.863.239 1.137-.127.197-.348.28-.781.631-1.025.647-.526 1.779-.52 2.285.195.301.507.307 1.208-.01 1.709-.45.562-1.236.613-1.902.63v.81c.003.218-.076.514.272.394.642.032 1.418.087 1.826.658.326.64.26 1.524-.295 2.021-.653.599-1.79.617-2.44 0-.334-.27-.437-.718-.728-1.015-.382-.261-.815-.014-1.188.135-.246.07-.451.165-.23.445.323.914.968 1.778 1.922 2.086 1.196.376 2.596.29 3.652-.426.956-.642 1.38-1.89 1.139-2.998-.151-.836-.875-1.43-1.658-1.662.23-.153.929-.41 1.15-.842.445-.697.486-1.632.156-2.385-.466-1.06-1.685-1.561-2.787-1.539zm-39.33 11.766c-.468-.001-.937.071-1.379.23-1.122.374-1.882 1.471-2.014 2.623l.461.08c.377.052.863.24 1.137-.126.197-.348.28-.781.631-1.026.647-.525 1.779-.518 2.285.197.301.508.307 1.207-.01 1.707-.45.562-1.236.615-1.902.633v.809c.003.219-.074.514.273.394.642.033 1.417.088 1.825.659.326.64.26 1.524-.295 2.021-.653.598-1.79.617-2.44 0-.334-.27-.437-.718-.728-1.016-.382-.26-.815-.015-1.188.133-.247.071-.451.168-.23.448.323.914.97 1.776 1.924 2.084 1.195.375 2.594.292 3.65-.424.956-.643 1.38-1.89 1.139-2.998-.151-.837-.875-1.433-1.658-1.664.23-.153.929-.408 1.15-.84.445-.697.486-1.633.156-2.385-.466-1.06-1.685-1.561-2.787-1.54zM52.545 84.617v.85c-.015.26-.008.61.316.67 1.586.016 3.173 0 4.76.006.079.093-.34.456-.402.683-1.31 2.543-2.606 5.093-3.91 7.639h1.11c.402.046.812-.144.993-.514 1.26-2.557 2.512-5.117 3.77-7.676.313-.501.225-1.098.238-1.658h-6.875zm97.594 31.76-4.414 5.836c-.125.195-.387.373-.25.635.101.342.06.895.513.972 1.427.015 2.854.004 4.282.008v2.404h1.478v-2.082c.024-.13-.082-.389.139-.322.319-.021.653.053.959-.05.308-.32.09-.851.156-1.258h-1.254v-6.143h-1.61zm.105 2.041c.176.005-.038.64.026.88v3.222h-3.03c1-1.368 2.003-2.735 3.004-4.102zm-76.486 6.039c-.525.018-1.136-.102-1.545.314-.773.997-1.519 2.015-2.281 3.02-.776.974-1.429 2.162-1.323 3.45.035 1.134.645 2.277 1.69 2.782 1.246.613 2.848.517 3.974-.314 1.284-.93 1.667-2.865.86-4.22-.71-1.224-2.374-1.63-3.647-1.128-.426.246.016-.176.13-.33.983-1.192 1.968-2.382 2.952-3.574h-.81zm-1.559 4.959c.227.015.449.066.655.152.963.383 1.246 1.675.785 2.537-.434.854-1.549 1.127-2.403.803-.688-.247-1.033-.999-1.004-1.695-.002-.33.08-.659.243-.945.335-.621 1.044-.898 1.724-.852zm37.567 9.557-.827 4.78 1.038.294c.509-.143 1.049-.28 1.59-.25.67-.005 1.4.32 1.632.992.25.768.117 1.72-.488 2.291-.697.596-1.762.546-2.533.125-.339-.164-.725-.553-1.114-.289-.256.253-.437.573-.66.855a4.303 4.303 0 0 0 3.213 1.149c1.308-.057 2.629-.81 3.125-2.06.517-1.219.357-2.825-.695-3.715-.948-.804-2.295-.839-3.455-.59l.357-2.057c.955-.002 1.91.004 2.864-.004.452.023.907-.324.867-.806v-.715h-4.914z" style="opacity:1;vector-effect:none;fill:#fff;fill-opacity:1;fill-rule:nonzero;stroke:none;stroke-width:.04663157;stroke-linecap:square;stroke-linejoin:miter;stroke-miterlimit:4;stroke-dasharray:none;stroke-dashoffset:0;stroke-opacity:1" transform="scale(.26458)"/></svg>