<svg xmlns="http://www.w3.org/2000/svg" width="215.986" height="170.06" viewBox="0 0 57.146 44.995"><path d="M28.19 5.366a2.648 2.648 0 0 0-.558.061c-.493.128-.487.595.058 4.362.335 2.32.822 6.385 1.082 9.034l.47 4.815 6.22-6.439c3.42-3.541 6.225-6.547 6.234-6.68.034-.465-4.346-3.148-6.392-3.915-1.776-.665-5.485-1.284-7.114-1.238Zm-3.024.306c-.932.039-3.962 1.082-5.999 2.11-2.185 1.103-7.216 5.707-6.981 6.39.067.195 3.53 2.456 7.698 5.025 4.168 2.57 7.669 4.685 7.78 4.702.243.037-1.965-17.909-2.236-18.18-.039-.038-.13-.053-.262-.047z" style="opacity:1;vector-effect:none;fill:#a0a0a0;fill-opacity:1;fill-rule:nonzero;stroke:#000;stroke-width:.34998855;stroke-linecap:square;stroke-linejoin:miter;stroke-miterlimit:4;stroke-dasharray:none;stroke-dashoffset:0;stroke-opacity:1"/><path d="m42.976 11.666-6.252 6.493c-3.44 3.57-6.2 6.503-6.134 6.516.065.012 3.61.399 7.877.858 10.824 1.164 9.741 1.256 9.741-.824 0-3.752-1.958-9.107-4.408-12.053zm-31.749 4.039c-.497.584-1.367 2.846-1.801 4.689-.642 2.725-.694 5.93-.139 8.69l.407 2.029 1.307-.663c2.103-1.068 13.498-5.156 14.386-5.162.446-.003.808-.107.803-.231-.004-.124-1.507-1.104-3.337-2.178-1.831-1.074-5.176-3.152-7.432-4.617-2.257-1.466-4.144-2.616-4.194-2.557zm18.718 10.533c-.04.035 2.092 3.363 7.372 11.51l2.279 3.516 1.035-.737c2.66-1.894 5.615-6.217 6.642-9.717.827-2.82.798-2.91-.959-2.927-.843-.008-4.862-.39-8.93-.848-4.068-.459-7.416-.817-7.44-.797zm-3.135.007c-.039-.027-3.723 1.291-8.188 2.929-6.216 2.28-8.106 3.116-8.067 3.567.201 2.294 5.262 7.851 8.82 9.685l1.924.99 2.79-8.56c1.535-4.709 2.76-8.583 2.72-8.61zm1.942.055-.51 1.25c-1.19 2.916-5.428 16.208-5.23 16.404.118.119 1.248.35 2.512.513 1.264.164 2.46.316 2.659.337 1.744.187 7.87-1.378 9.506-2.427.372-.239-.449-1.757-3.518-6.504-2.202-3.405-4.005-6.47-4.006-6.812-.001-.342-.32-1.103-.707-1.691z" style="opacity:1;vector-effect:none;fill:none;fill-opacity:1;fill-rule:nonzero;stroke:#000;stroke-width:.34998855;stroke-linecap:square;stroke-linejoin:miter;stroke-miterlimit:4;stroke-dasharray:none;stroke-dashoffset:0;stroke-opacity:1"/><path d="M26.81 26.246c-.039-.028-3.723 1.29-8.188 2.928-6.216 2.28-8.106 3.116-8.067 3.567.201 2.294 5.262 7.851 8.82 9.685l1.924.99 2.79-8.56c1.535-4.709 2.76-8.583 2.72-8.61zm1.942.054-.51 1.25c-1.19 2.916-5.428 16.208-5.23 16.405.118.118 1.248.348 2.512.512a288 288 0 0 0 2.659.337c1.744.187 7.87-1.378 9.506-2.427.372-.239-.449-1.757-3.518-6.504-2.202-3.405-4.005-6.47-4.006-6.812-.001-.342-.32-1.103-.707-1.691z" style="opacity:1;vector-effect:none;fill:none;fill-opacity:1;fill-rule:nonzero;stroke:#000;stroke-width:.34998855;stroke-linecap:square;stroke-linejoin:miter;stroke-miterlimit:4;stroke-dasharray:none;stroke-dashoffset:0;stroke-opacity:1"/><path d="M125.35 38.662a9.496 9.397 0 0 0-9.496 9.397 9.496 9.397 0 0 0 9.496 9.396 9.496 9.397 0 0 0 9.496-9.396 9.496 9.397 0 0 0-9.496-9.397zM57.895 81.354A9.496 9.397 0 0 0 48.4 90.75a9.496 9.397 0 0 0 9.495 9.396 9.496 9.397 0 0 0 9.496-9.396 9.496 9.397 0 0 0-9.496-9.396zm90.664 29.082a9.496 9.397 0 0 0-9.496 9.396 9.496 9.397 0 0 0 9.496 9.397 9.496 9.397 0 0 0 9.496-9.397 9.496 9.397 0 0 0-9.496-9.396z" style="opacity:1;vector-effect:none;fill:red;fill-opacity:1;fill-rule:nonzero;stroke:#000;stroke-width:1;stroke-linecap:square;stroke-linejoin:miter;stroke-miterlimit:4;stroke-dasharray:none;stroke-dashoffset:0;stroke-opacity:1" transform="scale(.26458)"/><path d="M83.031 45.98a9.496 9.397 0 0 0-9.496 9.397 9.496 9.397 0 0 0 9.496 9.396 9.496 9.397 0 0 0 9.494-9.396 9.496 9.397 0 0 0-9.494-9.397zm29.47 88.403a9.496 9.397 0 0 0-9.493 9.396 9.496 9.397 0 0 0 9.494 9.397 9.496 9.397 0 0 0 9.496-9.397 9.496 9.397 0 0 0-9.496-9.396z" style="opacity:1;vector-effect:none;fill:green;fill-opacity:1;fill-rule:nonzero;stroke:#000;stroke-width:1;stroke-linecap:square;stroke-linejoin:miter;stroke-miterlimit:4;stroke-dasharray:none;stroke-dashoffset:0;stroke-opacity:1" transform="scale(.26458)"/><path d="M154.31 70.07a9.496 9.397 0 0 0-9.494 9.397 9.496 9.397 0 0 0 9.495 9.396 9.496 9.397 0 0 0 9.496-9.396 9.496 9.397 0 0 0-9.496-9.397zm-82.912 48.905a9.496 9.397 0 0 0-9.496 9.396 9.496 9.397 0 0 0 9.496 9.397 9.496 9.397 0 0 0 9.497-9.397 9.496 9.397 0 0 0-9.497-9.396z" style="opacity:1;vector-effect:none;fill:#00f;fill-opacity:1;fill-rule:nonzero;stroke:#000;stroke-width:1;stroke-linecap:square;stroke-linejoin:miter;stroke-miterlimit:4;stroke-dasharray:none;stroke-dashoffset:0;stroke-opacity:1" transform="scale(.26458)"/><path d="M141.201.5a9.496 9.397 0 0 0-9.496 9.396 9.496 9.397 0 0 0 9.496 9.397 9.496 9.397 0 0 0 9.494-9.397A9.496 9.397 0 0 0 141.201.5zm-85.89 7.135a9.496 9.397 0 0 0-9.497 9.396 9.496 9.397 0 0 0 9.497 9.399 9.496 9.397 0 0 0 9.496-9.399 9.496 9.397 0 0 0-9.496-9.396z" style="opacity:1;vector-effect:none;fill:#000;fill-opacity:1;fill-rule:nonzero;stroke:#000;stroke-width:1;stroke-linecap:square;stroke-linejoin:miter;stroke-miterlimit:4;stroke-dasharray:none;stroke-dashoffset:0;stroke-opacity:1" transform="scale(.26458)"/><path d="M141.352 4.918c-.469-.001-.938.071-1.38.23-1.122.374-1.881 1.472-2.013 2.623l.871.153c.422.142.842-.148.902-.578.259-.766 1.149-1.151 1.909-.973.63.09 1.072.698 1.058 1.318.05 1.005-.566 1.871-1.23 2.561-1.11 1.14-2.255 2.246-3.38 3.371-.367.314-.298.82-.302 1.252h6.826v-.838c.04-.295-.085-.64-.408-.707-.42-.046-.846-.01-1.27-.021-.913.02-1.846-.086-2.732.197l1.502-1.514c.726-.752 1.52-1.454 2.111-2.322.647-.923.863-2.194.346-3.225-.497-1.044-1.7-1.549-2.81-1.527zm-86.041 7.23-3.036 2.555.44.598c.148.292.536.433.818.236.445-.35.876-.722 1.315-1.08.164-.176.223-.145.168.121-.018 2.057-.003 4.115-.008 6.172H52.99v1.26h5.506v-1.26h-1.789v-8.602h-1.396zm70.28 30.877c-.468 0-.939.074-1.38.233-1.122.374-1.882 1.469-2.014 2.62l.463.083c.377.052.863.239 1.137-.127.197-.348.28-.78.63-1.025.647-.526 1.78-.519 2.286.197.3.507.307 1.206-.01 1.707-.45.562-1.239.613-1.904.63v.81c.003.218-.074.514.273.394.642.032 1.418.087 1.826.658.327.64.261 1.524-.294 2.022-.654.598-1.791.616-2.44 0-.334-.27-.437-.719-.728-1.016-.382-.261-.816-.014-1.188.135-.247.07-.451.165-.23.445.323.914.967 1.778 1.921 2.086 1.196.376 2.597.29 3.653-.426.956-.642 1.378-1.89 1.137-2.998-.152-.836-.875-1.43-1.659-1.662.231-.152.931-.41 1.153-.842.445-.696.486-1.632.156-2.385-.466-1.06-1.685-1.56-2.787-1.539zm-42.41 7.373c-.468 0-.937.072-1.378.23-1.122.375-1.882 1.472-2.014 2.624l.871.152c.422.142.842-.147.903-.578.258-.765 1.148-1.153 1.908-.974.63.09 1.072.7 1.058 1.32.05 1.005-.565 1.87-1.23 2.56-1.11 1.14-2.255 2.245-3.38 3.37-.367.313-.298.822-.302 1.253h6.826v-.84c.04-.294-.085-.638-.408-.704-.42-.046-.846-.011-1.27-.022-.913.02-1.846-.085-2.732.197l1.502-1.513c.726-.753 1.52-1.455 2.111-2.323.647-.922.863-2.193.346-3.224-.497-1.045-1.7-1.55-2.81-1.528zm72.055 24.141-4.683 6.191c-.057.134.048.305.056.454.073.305.08.745.477.8 1.427.015 2.854.002 4.281.006v2.405h1.48V81.99h.487c.254-.024.62.094.744-.207.049-.362.01-.735.022-1.101h-1.252v-6.143h-1.612zm.149 1.98c.081.04-.053.673-.018.942v3.22h-3.027l3.045-4.161zM57.818 85.82l-3.033 2.553.44.598c.148.292.536.433.818.236.445-.35.875-.722 1.314-1.08.165-.176.224-.143.168.123-.017 2.057-.003 4.115-.007 6.172H55.5v1.26h5.506v-1.26h-1.79V85.82h-1.398zm88.791 29.034-.824 4.78 1.035.294c.51-.143 1.05-.28 1.59-.25.671-.005 1.401.32 1.633.992.25.768.117 1.72-.488 2.29-.698.597-1.763.547-2.534.126-.338-.165-.724-.553-1.113-.29-.257.254-.437.573-.66.856a4.304 4.304 0 0 0 3.213 1.15c1.308-.056 2.629-.812 3.125-2.062.517-1.218.357-2.824-.695-3.715-.948-.803-2.295-.838-3.455-.59l.359-2.056c.954-.002 1.907.004 2.861-.004.453.023.908-.324.867-.807v-.714h-4.914zm-78.648 8.593v.848c-.015.26-.008.61.316.67 1.586.016 3.174.003 4.76.008.079.093-.34.456-.402.683-1.31 2.543-2.606 5.093-3.91 7.639h1.113c.4.046.81-.144.99-.514 1.26-2.557 2.512-5.117 3.77-7.676.313-.5.225-1.098.238-1.658H67.96zm46.223 15.354c-.526.018-1.134-.1-1.543.316-.773.997-1.52 2.013-2.284 3.018-.775.974-1.428 2.162-1.322 3.449.035 1.135.645 2.278 1.69 2.783 1.246.613 2.85.517 3.976-.314 1.284-.93 1.667-2.863.86-4.219-.71-1.224-2.375-1.628-3.647-1.127-.427.245.014-.178.127-.332l2.953-3.574h-.81zm-1.559 4.959c.227.015.45.068.656.154.964.382 1.245 1.675.783 2.537-.433.854-1.546 1.125-2.4.801-.689-.248-1.035-1-1.006-1.695a1.89 1.89 0 0 1 .244-.946c.336-.62 1.043-.897 1.723-.851z" style="opacity:1;vector-effect:none;fill:#fff;fill-opacity:1;fill-rule:nonzero;stroke:none;stroke-width:.07484379;stroke-linecap:square;stroke-linejoin:miter;stroke-miterlimit:4;stroke-dasharray:none;stroke-dashoffset:0;stroke-opacity:1" transform="scale(.26458)"/></svg>