<svg xmlns="http://www.w3.org/2000/svg" width="150" height="150.455" viewBox="0 0 39.687 39.808"><path d="M73.553.676c-.88.024-1.597.099-2.112.232-1.861.484-1.838 2.25.221 16.487 1.268 8.768 3.108 24.132 4.088 34.142l1.781 18.201L101.033 45.4c12.926-13.385 23.53-24.745 23.567-25.246.126-1.76-16.427-11.897-24.16-14.797C93.726 2.841 79.707.505 73.552.676zM62.12 1.832c-3.52.149-14.974 4.092-22.672 7.977-8.26 4.168-27.273 21.57-26.386 24.148.253.738 13.346 9.287 29.097 18.996 15.75 9.71 28.984 17.706 29.404 17.77.916.139-7.428-67.686-8.453-68.711-.145-.145-.487-.201-.99-.18zm67.316 22.654-23.632 24.541C92.806 62.524 82.373 73.606 82.62 73.654c.248.05 13.646 1.51 29.772 3.244 40.911 4.402 36.818 4.748 36.818-3.113 0-14.18-7.402-34.421-16.66-45.555l-3.113-3.744zM9.442 39.752C7.56 41.961 4.275 50.509 2.633 57.475.205 67.774.01 79.885 2.107 90.322l1.54 7.666 4.939-2.506c7.95-4.035 51.015-19.487 54.371-19.51 1.688-.01 3.056-.404 3.037-.872-.018-.47-5.695-4.173-12.615-8.233-6.92-4.06-19.56-11.913-28.088-17.451-8.528-5.538-15.66-9.886-15.85-9.664zm70.743 39.812c-.152.13 7.906 12.71 27.865 43.504l8.611 13.287 3.912-2.785c10.056-7.16 21.222-23.497 25.104-36.728 3.127-10.659 3.016-10.995-3.623-11.06-3.188-.032-18.376-1.476-33.752-3.208-15.376-1.732-28.029-3.086-28.117-3.01z" style="opacity:1;vector-effect:none;fill:#a0a0a0;fill-opacity:1;fill-rule:nonzero;stroke:#000;stroke-width:1.32279134;stroke-linecap:square;stroke-linejoin:miter;stroke-miterlimit:4;stroke-dasharray:none;stroke-dashoffset:0;stroke-opacity:1" transform="scale(.26458)"/><path d="M68.336 79.592c-.146-.103-14.072 4.877-30.947 11.068C13.897 99.278 6.75 102.438 6.9 104.14c.761 8.673 19.89 29.676 33.338 36.606l7.268 3.744 10.547-32.355c5.801-17.796 10.429-32.44 10.283-32.543zm7.342.207-1.928 4.724c-4.496 11.021-20.516 61.256-19.771 62 .447.448 4.72 1.319 9.498 1.938 4.777.62 9.298 1.193 10.048 1.273 6.592.706 29.748-5.207 35.928-9.173 1.407-.903-1.696-6.641-13.295-24.58-8.322-12.872-15.137-24.458-15.14-25.749-.005-1.29-1.208-4.166-2.674-6.39l-2.666-4.043z" style="opacity:1;vector-effect:none;fill:none;fill-opacity:1;fill-rule:nonzero;stroke:#000;stroke-width:1.32279134;stroke-linecap:square;stroke-linejoin:miter;stroke-miterlimit:4;stroke-dasharray:none;stroke-dashoffset:0;stroke-opacity:1" transform="scale(.26458)"/></svg>