<svg xmlns="http://www.w3.org/2000/svg" width="150" height="149.844" viewBox="0 0 39.688 39.646"><path d="M75.623.695 69.932 1c-5.83.312-13.64 1.84-19.014 3.719-3.733 1.305-9.88 4.106-9.88 4.502 0 .165 7.266 13.649 16.148 29.965l16.148 29.666.316-2.545c.175-1.4.556-13.632.844-27.184.289-13.552.66-27.741.826-31.533l.303-6.895zm2.861.032-.304 8.552c-.168 4.704-.518 18.243-.78 30.084-.262 11.842-.581 23.552-.709 26.024l-.232 4.494 17.934-29.317c9.863-16.124 17.933-29.467 17.933-29.65 0-.427-8.382-4.427-12.44-5.937-4.055-1.51-13.148-3.522-17.757-3.928L78.484.727zm-40.379 9.705-2.802 1.787c-7.467 4.758-14.715 11.546-20.135 18.855l-2.877 3.88 3.012 1.835c1.655 1.01 14.742 9.025 29.084 17.81 14.341 8.786 26.146 15.913 26.234 15.839.133-.114-26.654-49.642-31.1-57.502l-1.416-2.504zm77.221 2.377c-.466 0-35.533 56.855-35.533 57.61 0 .187.16.248.357.138.198-.11 13.17-7.149 28.827-15.639 15.657-8.49 28.955-15.739 29.548-16.107l1.079-.67-1.797-2.82c-2.876-4.514-7.576-10.237-11.354-13.825-3.777-3.587-10.308-8.687-11.127-8.687zM11.24 37.9c-.455-.174-1.401 1.328-3.1 4.913-4.042 8.535-6.346 16.692-7.095 25.136l-.328 3.71 1.86.038c1.022.022 15.532.421 32.241.889 16.71.468 31.34.88 32.51.918 1.2.038 1.932-.11 1.676-.34-.64-.572-56.964-34.957-57.764-35.264z" style="opacity:1;vector-effect:none;fill:#a0a0a0;fill-opacity:1;fill-rule:nonzero;stroke:#000;stroke-width:1.31373107;stroke-linecap:square;stroke-linejoin:miter;stroke-miterlimit:4;stroke-dasharray:none;stroke-dashoffset:0;stroke-opacity:1" transform="scale(.26458)"/><path d="M140.572 41.125c-1.654.607-59.23 32.242-59.035 32.438.137.136 13.525.593 29.752 1.013 16.227.42 31.42.796 33.762.836l4.256.072-.291-5.62c-.331-6.388-1.548-12.577-3.729-18.946-1.736-5.072-4.116-10.013-4.715-9.793zM.707 74.504l.291 5.635c.451 8.713 3.056 19.05 6.541 25.953l.002.002c.8 1.586 1.59 2.883 1.754 2.883.558 0 59.496-32.213 59.299-32.41-.108-.108-11.574-.49-25.479-.848s-29.136-.777-33.845-.932l-8.563-.283zm82.125 2.156c-1.211-.024-1.986.04-1.853.174.177.179 13.17 8.215 28.873 17.86v.001c15.702 9.644 28.783 17.556 29.07 17.582.819.077 5.73-10.691 7.295-15.994 1.446-4.901 2.949-13.124 2.949-16.125v-1.67l-8.97-.308c-4.935-.17-18.768-.52-30.74-.782-11.974-.261-23.35-.57-25.284-.683a35.321 35.321 0 0 0-1.34-.055zm-12.38 2.746c-.128-.153-59.072 31.832-59.651 32.37-.184.17 1.099 2.464 2.851 5.095 3.768 5.657 12.5 14.67 17.776 18.346l3.547 2.47 1.828-2.992c1.005-1.646 9.015-14.727 17.799-29.068 8.783-14.342 15.916-26.14 15.85-26.22zm8.862.233c0 .229 29.148 53.987 31.415 57.937.732 1.276 1.387 1.92 1.744 1.713 4.425-2.56 10.17-7.102 14.716-11.637 5.084-5.07 10.016-11.153 10.016-12.353 0-.272-13.025-8.46-28.945-18.194-15.92-9.733-28.946-17.594-28.946-17.466zm-5.966 1.23c-.11-.144-35.127 57.075-35.461 57.945-.294.766 6.877 4.385 12.777 6.448 3.736 1.306 11.35 3.12 15.014 3.58.79.099 2.459.212 3.709.252l2.271.072.028-1.795c.014-.987.414-16.325.888-34.088.475-17.762.823-32.35.774-32.414zm3.334.299-.309 3.02c-.17 1.66-.55 14.108-.844 27.66-.293 13.552-.668 27.492-.832 30.978l-.297 6.34h3.618c4.595 0 9.846-.73 15.414-2.143 4.873-1.236 12.983-4.3 14.593-5.515l1.047-.791-16.195-29.774-16.195-29.775z" style="opacity:1;vector-effect:none;fill:none;fill-opacity:1;fill-rule:nonzero;stroke:#000;stroke-width:1.31373107;stroke-linecap:square;stroke-linejoin:miter;stroke-miterlimit:4;stroke-dasharray:none;stroke-dashoffset:0;stroke-opacity:1" transform="scale(.26458)"/></svg>