<svg xmlns="http://www.w3.org/2000/svg" width="215.986" height="172.246" viewBox="0 0 57.146 45.573"><path d="m28.738 6.111-1.506.08c-1.542.083-3.609.488-5.03.985-.988.345-2.615 1.086-2.615 1.19 0 .045 1.923 3.612 4.273 7.929l4.272 7.85.084-.674c.046-.37.147-3.607.223-7.193.077-3.585.175-7.34.219-8.343zm.757.008-.08 2.263a858.36 858.36 0 0 0-.207 7.96c-.07 3.133-.154 6.231-.187 6.885l-.062 1.19 4.745-7.757c2.61-4.266 4.745-7.797 4.745-7.845 0-.113-2.218-1.172-3.291-1.571-1.073-.4-3.48-.932-4.699-1.04zM18.811 8.687l-.741.473c-1.976 1.259-3.893 3.055-5.327 4.989l-.762 1.026.797.486c.438.267 3.9 2.388 7.695 4.712 3.795 2.325 6.918 4.21 6.942 4.19.035-.03-7.053-13.134-8.229-15.213zm20.432.63c-.124 0-9.402 15.042-9.402 15.242 0 .05.043.065.095.036.052-.029 3.484-1.891 7.627-4.137 4.142-2.247 7.66-4.165 7.818-4.262l.285-.177-.475-.747c-.761-1.194-2.005-2.708-3.004-3.657-1-.95-2.727-2.299-2.944-2.299Zm-27.54 6.638c-.12-.046-.37.351-.82 1.3-1.07 2.258-1.679 4.416-1.877 6.65l-.087.982.492.01a9354.176 9354.176 0 0 1 17.132.478c.318.01.511-.029.444-.09-.17-.15-15.072-9.248-15.284-9.33zm34.22.853c-.438.16-15.672 8.53-15.62 8.583.036.036 3.578.156 7.872.268 4.293.111 8.313.21 8.932.22l1.127.02-.078-1.487a18.17 18.17 0 0 0-.986-5.013c-.46-1.342-1.09-2.649-1.248-2.59zM30.644 26.21c-.32-.006-.525.01-.49.046.047.047 3.485 2.174 7.64 4.726 4.154 2.552 7.615 4.645 7.69 4.652.217.02 1.517-2.829 1.93-4.232.384-1.297.781-3.472.781-4.266v-.442l-2.373-.082a938.176 938.176 0 0 0-8.134-.207c-3.168-.069-6.178-.15-6.69-.18a9.353 9.353 0 0 0-.354-.015z" style="opacity:1;vector-effect:none;fill:#a0a0a0;fill-opacity:1;fill-rule:nonzero;stroke:#000;stroke-width:.34759137;stroke-linecap:square;stroke-linejoin:miter;stroke-miterlimit:4;stroke-dasharray:none;stroke-dashoffset:0;stroke-opacity:1"/><path d="m8.916 25.64.077 1.49c.12 2.306.81 5.041 1.732 6.868.211.42.42.763.464.763.147 0 15.741-8.523 15.69-8.576-.03-.028-3.063-.13-6.742-.224-3.68-.095-7.709-.205-8.955-.246Zm18.454 1.297c-.034-.04-15.63 8.422-15.783 8.564-.049.045.29.652.755 1.348.996 1.497 3.307 3.882 4.703 4.854l.938.654.484-.792c.266-.435 2.385-3.896 4.71-7.69 2.323-3.795 4.21-6.917 4.193-6.938zm2.345.061c0 .06 7.712 14.284 8.311 15.33.194.337.367.507.462.453 1.17-.678 2.69-1.88 3.894-3.08 1.345-1.34 2.65-2.95 2.65-3.268 0-.072-3.447-2.238-7.659-4.813-4.212-2.576-7.658-4.656-7.658-4.622Zm-1.579.326c-.03-.038-9.294 15.1-9.382 15.331-.078.203 1.82 1.16 3.38 1.706.989.346 3.003.826 3.973.948v0c.209.025.65.055.981.066l.601.019.007-.475c.004-.261.11-4.32.235-9.019.126-4.7.218-8.56.205-8.576zm.882.079-.082.799c-.045.44-.145 3.733-.223 7.318-.077 3.586-.177 7.274-.22 8.197l-.079 1.677h.958c1.215 0 2.605-.193 4.078-.567 1.29-.327 3.435-1.138 3.861-1.46l.277-.209-4.285-7.877z" style="opacity:1;vector-effect:none;fill:none;fill-opacity:1;fill-rule:nonzero;stroke:#000;stroke-width:.34759137;stroke-linecap:square;stroke-linejoin:miter;stroke-miterlimit:4;stroke-dasharray:none;stroke-dashoffset:0;stroke-opacity:1"/><path d="M83.47.5a9.496 9.397 0 0 0-9.495 9.396 9.496 9.397 0 0 0 9.496 9.397 9.496 9.397 0 0 0 9.494-9.397A9.496 9.397 0 0 0 83.47.5zm52.358 1.68a9.496 9.397 0 0 0-9.494 9.396 9.496 9.397 0 0 0 9.494 9.397 9.496 9.397 0 0 0 9.496-9.397 9.496 9.397 0 0 0-9.496-9.396zM46.562 22.943a9.496 9.397 0 0 0-9.496 9.397 9.496 9.397 0 0 0 9.496 9.396 9.496 9.397 0 0 0 9.497-9.396 9.496 9.397 0 0 0-9.496-9.397zm128.504 2.889a9.496 9.397 0 0 0-9.496 9.397 9.496 9.397 0 0 0 9.496 9.398 9.496 9.397 0 0 0 9.496-9.398 9.496 9.397 0 0 0-9.496-9.397zM19.973 64.98a9.496 9.397 0 0 0-9.496 9.397 9.496 9.397 0 0 0 9.496 9.396 9.496 9.397 0 0 0 9.496-9.396 9.496 9.397 0 0 0-9.496-9.397zm175.947 3.457a9.496 9.397 0 0 0-9.496 9.397 9.496 9.397 0 0 0 9.496 9.398 9.496 9.397 0 0 0 9.496-9.398 9.496 9.397 0 0 0-9.496-9.397zm-1.188 43.36a9.496 9.397 0 0 0-9.496 9.396 9.496 9.397 0 0 0 9.496 9.397 9.496 9.397 0 0 0 9.497-9.397 9.496 9.397 0 0 0-9.497-9.396z" style="opacity:1;vector-effect:none;fill:#000;fill-opacity:1;fill-rule:nonzero;stroke:#000;stroke-width:1;stroke-linecap:square;stroke-linejoin:miter;stroke-miterlimit:4;stroke-dasharray:none;stroke-dashoffset:0;stroke-opacity:1" transform="scale(.26458)"/><path d="M17.804 12.154a2.512 2.486 0 0 0-2.513 2.486 2.512 2.486 0 0 0 2.513 2.487 2.512 2.486 0 0 0 2.512-2.487 2.512 2.486 0 0 0-2.512-2.486zm22.015.293a2.512 2.486 0 0 0-2.513 2.486 2.512 2.486 0 0 0 2.513 2.487 2.512 2.486 0 0 0 2.512-2.487 2.512 2.486 0 0 0-2.512-2.486zM17.294 33.795a2.777 2.748 0 0 0-2.777 2.748 2.777 2.748 0 0 0 2.777 2.749 2.777 2.748 0 0 0 2.777-2.749 2.777 2.748 0 0 0-2.777-2.748zm22.025.527a2.512 2.486 0 0 0-2.512 2.487 2.512 2.486 0 0 0 2.512 2.486 2.512 2.486 0 0 0 2.512-2.486 2.512 2.486 0 0 0-2.512-2.487z" style="opacity:1;vector-effect:none;fill:green;fill-opacity:1;fill-rule:nonzero;stroke:#000;stroke-width:.26458338;stroke-linecap:square;stroke-linejoin:miter;stroke-miterlimit:4;stroke-dasharray:none;stroke-dashoffset:0;stroke-opacity:1"/><path d="M25.05 8.315a2.512 2.486 0 0 0-2.513 2.487 2.512 2.486 0 0 0 2.512 2.486 2.512 2.486 0 0 0 2.513-2.486 2.512 2.486 0 0 0-2.513-2.487zm18.742 11.443a2.512 2.486 0 0 0-2.512 2.487 2.512 2.486 0 0 0 2.512 2.486 2.512 2.486 0 0 0 2.513-2.486 2.512 2.486 0 0 0-2.513-2.487zm-30.576 6.808a2.777 2.748 0 0 0-2.777 2.748 2.777 2.748 0 0 0 2.777 2.748 2.777 2.748 0 0 0 2.777-2.748 2.777 2.748 0 0 0-2.777-2.748zm18.947 10.966a2.512 2.486 0 0 0-2.513 2.486 2.512 2.486 0 0 0 2.513 2.486 2.512 2.486 0 0 0 2.512-2.486 2.512 2.486 0 0 0-2.512-2.486z" style="opacity:1;vector-effect:none;fill:#00f;fill-opacity:1;fill-rule:nonzero;stroke:#000;stroke-width:.26458338;stroke-linecap:square;stroke-linejoin:miter;stroke-miterlimit:4;stroke-dasharray:none;stroke-dashoffset:0;stroke-opacity:1"/><path d="M32.886 8.428a2.512 2.486 0 0 0-2.512 2.486 2.512 2.486 0 0 0 2.512 2.486 2.512 2.486 0 0 0 2.513-2.486 2.512 2.486 0 0 0-2.513-2.486zm-19.328 10.42a2.512 2.486 0 0 0-2.512 2.487 2.512 2.486 0 0 0 2.512 2.486 2.512 2.486 0 0 0 2.513-2.486 2.512 2.486 0 0 0-2.513-2.487zm29.578 8.685a2.512 2.486 0 0 0-2.512 2.486 2.512 2.486 0 0 0 2.512 2.486 2.512 2.486 0 0 0 2.513-2.486 2.512 2.486 0 0 0-2.513-2.486zM24.132 37.812a2.777 2.748 0 0 0-2.777 2.748 2.777 2.748 0 0 0 2.777 2.748 2.777 2.748 0 0 0 2.777-2.748 2.777 2.748 0 0 0-2.777-2.748z" style="opacity:1;vector-effect:none;fill:red;fill-opacity:1;fill-rule:nonzero;stroke:#000;stroke-width:.26458338;stroke-linecap:square;stroke-linejoin:miter;stroke-miterlimit:4;stroke-dasharray:none;stroke-dashoffset:0;stroke-opacity:1"/><path d="M83.67 4.918c-.468-.001-.94.071-1.38.23-1.123.374-1.883 1.472-2.015 2.623l.463.083c.377.051.863.238 1.137-.127.197-.348.28-.783.63-1.028.647-.525 1.78-.518 2.286.197.3.508.307 1.209-.01 1.71-.45.561-1.238.612-1.904.63v.809c.003.219-.074.514.273.394.642.033 1.418.088 1.827.659.326.64.26 1.524-.295 2.021-.654.598-1.79.617-2.44 0-.334-.27-.437-.718-.728-1.015-.382-.262-.816-.014-1.188.134-.247.071-.451.166-.23.446.323.914.968 1.778 1.922 2.086 1.195.375 2.596.29 3.652-.426.956-.643 1.38-1.89 1.139-2.998-.152-.837-.875-1.431-1.659-1.662.231-.153.93-.41 1.15-.842.446-.697.487-1.633.157-2.385-.466-1.06-1.685-1.562-2.787-1.539zm52.992 1.783-4.685 6.192c-.057.134.05.304.058.453.072.306.08.743.477.799 1.426.014 2.854.001 4.281.005v2.405h1.478V14.15h.487c.254-.024.62.096.744-.205.049-.362.01-.735.023-1.101h-1.254V6.7h-1.609zm.149 1.98c.081.041-.053.671-.018.94v3.223h-3.03l3.048-4.162zm-90.096 18.68c-.469 0-.94.072-1.381.23-1.122.375-1.882 1.472-2.014 2.624l.871.152c.422.142.842-.15.903-.58.258-.765 1.15-1.15 1.91-.973.63.09 1.07.7 1.057 1.32.049 1.005-.564 1.872-1.229 2.561-1.11 1.14-2.256 2.244-3.38 3.37-.369.313-.3.822-.304 1.253h6.829v-.84c.038-.294-.085-.638-.409-.705-.42-.045-.848-.01-1.271-.021-.913.02-1.846-.085-2.733.197l1.502-1.513c.727-.753 1.52-1.455 2.112-2.323.647-.922.864-2.193.347-3.224-.497-1.045-1.7-1.55-2.81-1.528zM173.09 30.36l-.824 4.782 1.035.293c.51-.143 1.049-.28 1.59-.25.67-.006 1.4.32 1.632.992.25.768.117 1.72-.488 2.29-.697.596-1.762.547-2.533.126-.339-.165-.724-.553-1.113-.29-.257.253-.437.573-.66.856a4.304 4.304 0 0 0 3.212 1.15c1.309-.056 2.63-.812 3.125-2.062.517-1.218.357-2.825-.695-3.715-.948-.803-2.294-.838-3.455-.59l.36-2.056c.954-.002 1.908.004 2.863-.004.452.022.905-.324.865-.807v-.715h-4.914zm-78.176 5.434c-.468 0-.937.071-1.379.23-1.122.374-1.882 1.472-2.014 2.623l.463.08c.377.052.86.24 1.135-.126.197-.348.28-.781.631-1.026.647-.525 1.779-.518 2.285.197.301.508.307 1.207-.01 1.708-.45.561-1.236.614-1.902.632v.807c.003.219-.074.514.273.395.642.032 1.418.087 1.827.658.326.64.258 1.524-.297 2.021-.653.598-1.79.619-2.44.002-.334-.27-.437-.718-.728-1.015-.382-.261-.815-.016-1.188.132-.247.071-.451.166-.23.446.323.914.97 1.778 1.924 2.086 1.195.375 2.596.292 3.652-.424.956-.643 1.378-1.89 1.137-2.998-.151-.837-.875-1.433-1.658-1.664.23-.153.929-.41 1.15-.842.445-.697.486-1.63.156-2.383-.466-1.06-1.685-1.561-2.787-1.539zm30.307.53-4.684 6.19c-.057.135.048.305.057.454.072.306.08.745.476.8 1.427.015 2.854.002 4.282.006v2.405h1.48v-2.405h.484c.255-.024.622.094.746-.207.05-.362.01-.735.022-1.101h-1.252v-6.143h-1.611zm.148 1.98c.082.04-.052.672-.017.941v3.22h-3.028l3.045-4.161zm-57.928 12.05c-.468 0-.94.074-1.38.233-1.123.374-1.88 1.471-2.012 2.623l.869.152c.422.142.842-.15.902-.58.258-.765 1.15-1.15 1.91-.972.632.09 1.073.698 1.06 1.318.048 1.005-.567 1.873-1.231 2.562-1.11 1.14-2.255 2.245-3.38 3.37-.367.313-.3.82-.304 1.252h6.828v-.838c.039-.295-.085-.64-.408-.705-.42-.046-.848-.011-1.272-.022-.913.02-1.846-.085-2.732.197l1.502-1.513c.726-.753 1.521-1.455 2.113-2.323.647-.922.862-2.193.346-3.224-.498-1.045-1.701-1.55-2.81-1.528v-.001zm81.108 1.11-.826 4.781 1.037.293c.51-.142 1.047-.279 1.588-.25.67-.005 1.4.32 1.632.992.25.768.117 1.72-.488 2.291-.697.596-1.762.547-2.533.125-.338-.164-.722-.552-1.111-.289-.257.253-.44.573-.662.856a4.304 4.304 0 0 0 3.212 1.15c1.309-.056 2.63-.813 3.125-2.062.517-1.218.358-2.825-.695-3.715-.948-.803-2.294-.839-3.455-.59l.36-2.057c.954-.002 1.908.004 2.863-.004.452.023.907-.324.867-.806v-.715h-4.914zM19.973 69.494l-3.035 2.555.439.596c.148.292.538.433.82.236.445-.35.876-.722 1.315-1.08.164-.176.221-.143.166.123-.018 2.057-.003 4.114-.008 6.172h-2.016v1.26h5.506v-1.26h-1.79v-8.602h-1.397zm177.629 3.361c-.526.018-1.135-.1-1.543.317-.773.996-1.52 2.015-2.284 3.02-.775.974-1.428 2.162-1.322 3.449.035 1.135.645 2.278 1.69 2.783 1.246.613 2.85.516 3.976-.315 1.284-.929 1.667-2.864.86-4.22-.71-1.224-2.377-1.629-3.649-1.127-.427.245.016-.177.129-.33l2.953-3.577h-.81zm-146.434 2.85-3.035 2.555.44.595c.147.293.538.434.82.237.445-.35.875-.722 1.314-1.08.164-.176.221-.143.166.123-.018 2.057-.003 4.114-.008 6.172H48.85l-.002 1.26h5.506v-1.26h-1.79v-8.602h-1.396zm144.875 2.111c.227.016.449.067.654.153.964.382 1.247 1.675.785 2.537-.433.854-1.548 1.127-2.402.803-.689-.248-1.033-1-1.004-1.696-.002-.33.08-.658.242-.945.336-.621 1.045-.898 1.725-.852zm-28.848 1.28c-.525.017-1.134-.1-1.543.316-.772.997-1.52 2.013-2.283 3.018-.776.974-1.428 2.162-1.322 3.449.035 1.135.645 2.278 1.69 2.783 1.246.613 2.85.517 3.976-.314 1.284-.93 1.667-2.863.86-4.22-.71-1.223-2.377-1.628-3.65-1.126-.426.245.016-.176.13-.33l2.953-3.576h-.81zm-1.558 4.96c.226.016.448.067.654.153.964.382 1.246 1.675.785 2.537-.433.854-1.548 1.125-2.402.8-.689-.247-1.033-.998-1.004-1.694-.002-.33.079-.66.242-.946.335-.62 1.045-.896 1.725-.85zM53.904 105.815c-.468 0-.937.074-1.379.233-1.122.374-1.881 1.469-2.013 2.621.29.05.58.103.87.154.423.142.843-.15.903-.58.258-.765 1.149-1.15 1.908-.972.631.09 1.073.698 1.059 1.318.05 1.005-.566 1.873-1.23 2.562-1.11 1.14-2.255 2.244-3.38 3.37-.368.313-.298.82-.302 1.251h6.826v-.837c.039-.295-.085-.64-.408-.705-.42-.046-.847-.013-1.27-.024-.913.02-1.846-.083-2.732.2.5-.505 1.001-1.012 1.502-1.516.726-.753 1.519-1.455 2.111-2.323.647-.922.862-2.191.346-3.222-.498-1.045-1.701-1.551-2.81-1.53zm-8.136.096-3.036 2.555.442.597c.148.293.536.434.818.237.445-.35.876-.722 1.315-1.08.164-.176.223-.145.168.12-.018 2.058-.005 4.115-.01 6.173h-2.016v1.26h5.506v-1.26h-1.789v-8.602h-1.398zm113.83 2.623v.729c-.01.284-.051.717.314.789 1.488.015 2.975.003 4.463.006.515-.117.167.299-.004.496-1.346 2.602-2.672 5.22-4.01 7.828h.967c.41.045.881-.06 1.1-.447 1.268-2.557 2.517-5.122 3.777-7.682.335-.51.262-1.14.268-1.719h-6.875zm31.697 7.737v.847c-.015.26-.008.611.316.67 1.586.017 3.173.003 4.76.008.079.093-.34.456-.402.684-1.31 2.542-2.606 5.092-3.91 7.638h1.11c.402.046.812-.144.993-.513 1.26-2.558 2.512-5.118 3.77-7.676.313-.502.225-1.099.238-1.658h-6.875zm-130 16.918-3.035 2.552.44.598c.147.292.538.433.82.236.445-.35.873-.721 1.312-1.08.164-.176.223-.143.168.123-.018 2.057-.003 4.115-.008 6.172h-2.017v1.26h5.505v-1.26h-1.789v-8.601h-1.396zm7.984 0-3.035 2.552.44.598c.148.292.538.433.82.236.445-.35.873-.721 1.312-1.08.165-.176.224-.143.168.123-.017 2.057-.002 4.115-.007 6.172h-2.018v1.26h5.506v-1.26h-1.79v-8.601H69.28zm79.276.949a3.606 3.606 0 0 0-1.928.595c-.78.524-1.216 1.494-1.068 2.424.068.822.664 1.527 1.43 1.805-.492.156-.97.415-1.294.826-.629.825-.637 2.034-.138 2.924.616 1.073 1.925 1.512 3.105 1.494.811.002 1.646-.18 2.32-.648.94-.624 1.327-1.864 1.051-2.936-.18-.835-.904-1.434-1.699-1.66.73-.274 1.315-.93 1.416-1.715.2-1.026-.326-2.117-1.23-2.629a3.796 3.796 0 0 0-1.965-.48zm.007 1.267c.308-.016.622.046.885.182.64.329.8 1.153.604 1.795-.13.624-.779 1-1.389.96-.381.008-.777-.098-1.057-.368-.454-.468-.514-1.231-.277-1.817.224-.481.722-.725 1.234-.752zm-.056 4.258c.374-.022.756.049 1.09.197.707.333.89 1.232.71 1.93-.168.726-.935 1.143-1.644 1.102-.603.018-1.262-.24-1.535-.81-.298-.658-.238-1.566.34-2.054a1.889 1.889 0 0 1 1.039-.365zm-26.678 6.55c-.939-.044-1.896.249-2.592.888-1.1.987-1.348 2.815-.49 4.03.785 1.145 2.449 1.401 3.645.796.449-.307-.085.258-.198.426l-3.09 3.82h.866c.513-.02 1.114.102 1.511-.31.762-1.043 1.496-2.107 2.247-3.157.66-.874 1.17-1.905 1.207-3.018.086-1.176-.427-2.447-1.495-3.029a3.725 3.725 0 0 0-1.61-.445zm-.23 1.374c.211-.004.424.028.62.094.702.187 1.13.91 1.096 1.613.008.595-.283 1.21-.835 1.475-.664.312-1.56.29-2.116-.229-.486-.53-.531-1.364-.279-2.012.244-.61.879-.93 1.514-.941zm-26.393.69c-.93-.08-1.892.202-2.568.859-1.015.993-1.321 2.474-1.358 3.844-.035 1.453.152 3.034 1.096 4.203 1.194 1.515 3.773 1.533 5.018.072.933-1.08 1.176-2.573 1.177-3.957 0-1.289-.212-2.664-.992-3.729-.547-.777-1.443-1.214-2.373-1.293zm-8.322.083-3.035 2.555c.146.2.292.399.44.598.147.292.537.433.82.236.445-.35.873-.722 1.312-1.08.164-.176.223-.145.168.121-.018 2.057-.003 4.115-.008 6.172h-2.016v1.26h5.504v-1.26H88.28v-8.602h-1.396zm7.974 1.307c.47-.017.948.164 1.237.55.65.878.707 2.028.72 3.08-.01.998-.069 2.074-.617 2.94-.474.822-1.77.944-2.388.227-.65-.785-.742-1.86-.776-2.84-.007-1.122.004-2.338.635-3.312.258-.412.72-.628 1.19-.645z" style="opacity:1;vector-effect:none;fill:#fff;fill-opacity:1;fill-rule:nonzero;stroke:none;stroke-width:.07484379;stroke-linecap:square;stroke-linejoin:miter;stroke-miterlimit:4;stroke-dasharray:none;stroke-dashoffset:0;stroke-opacity:1" transform="scale(.26458)"/></svg>