<svg xmlns="http://www.w3.org/2000/svg" xmlns:xlink="http://www.w3.org/1999/xlink" viewBox="0 0 57.146 44.817" height="169.386" width="215.986"><defs><pattern xlink:href="#a" id="d" patternTransform="matrix(3.60276 1.81752 -15.7555 31.23127 -68.104 89.912)"/><pattern xlink:href="#b" id="a" patternTransform="matrix(3.28373 -2.34529 20.3306 28.46568 -68.104 89.912)"/><pattern id="b" patternTransform="scale(10)" height="1" width="2" patternUnits="userSpaceOnUse"><path style="fill:#000;stroke:none" d="M0-.5h1v2H0z"/></pattern><pattern xlink:href="#d" id="c" patternTransform="matrix(-2.29406 3.31972 -28.77766 -19.88654 -68.104 89.912)"/><pattern xlink:href="#d" id="e" patternTransform="matrix(-.1116 4.03371 -34.96702 -.96736 -68.104 89.912)"/></defs><path style="opacity:1;vector-effect:none;fill:#a0a0a0;fill-opacity:1;fill-rule:nonzero;stroke:#000;stroke-width:.34925294;stroke-linecap:square;stroke-linejoin:miter;stroke-miterlimit:4;stroke-dasharray:none;stroke-dashoffset:0;stroke-opacity:1" d="M16.227 24.526c-3.14-.093-6.008-.184-6.375-.202-.624-.03-.658-.093-.54-.963.629-4.582 2.131-8.093 4.673-10.92l1.131-1.258 5.006 5.251c2.753 2.888 5.68 5.95 6.504 6.803l1.498 1.55-3.095-.045a768.503 768.503 0 0 1-8.802-.216zM21.987 17.497l-6.4-6.73 1.065-.946c.585-.52 2.18-1.493 3.545-2.164 2.529-1.242 4.473-1.801 7.279-2.092l1.57-.163-.176 7.893c-.096 4.342-.245 8.578-.33 9.414l-.153 1.52zM29.34 17.613c.09-3.742.164-7.994.164-9.448V5.519l1.675.2c2.024.242 4.692 1.026 6.384 1.875 1.48.742 4.023 2.516 4.72 3.292l.497.552-2.495 2.394a2604.604 2604.604 0 0 1-6.801 6.489l-4.307 4.094z"/><path style="opacity:1;vector-effect:none;fill:none;fill-opacity:1;fill-rule:nonzero;stroke:#000;stroke-width:.34743074;stroke-linecap:square;stroke-linejoin:miter;stroke-miterlimit:4;stroke-dasharray:none;stroke-dashoffset:0;stroke-opacity:1" d="M35.79 25.052c-3.162-.077-5.808-.2-5.88-.272-.073-.072 2.905-3.013 6.616-6.534l6.748-6.402.799.95c2.224 2.647 3.975 6.966 4.218 10.403l.147 2.087-3.45-.046a1066.41 1066.41 0 0 1-9.198-.186zM37.817 34.178a1316.113 1316.113 0 0 1-6.44-6.847l-1.725-1.862 8.674.168c4.77.092 8.98.227 9.356.3.574.11.682.256.68.918-.002 1.117-.86 4.532-1.505 5.998-.684 1.552-2.38 4.176-3.485 5.388l-.84.921zM28.794 40.36c.019-2.355.103-6.577.186-9.383l.151-5.103 4.467 4.694c2.457 2.582 5.388 5.677 6.513 6.878l2.047 2.185-1.55 1.156c-2.99 2.231-7.416 3.848-10.546 3.852l-1.303.002zM24.05 44.128c-3.132-.82-6.908-2.896-8.618-4.738l-.547-.588 5.739-5.456c3.156-3.001 6.234-5.896 6.84-6.433l1.103-.976-.156 6.064a652.466 652.466 0 0 1-.301 9.352l-.146 3.288-1.03-.014c-.566-.008-1.864-.232-2.885-.5zM13.23 36.912c-2.17-2.92-3.557-6.556-3.942-10.325l-.159-1.551 4.294.035c2.36.019 6.624.102 9.474.186l5.181.151-4.809 4.588a3007.488 3007.488 0 0 0-6.838 6.54l-2.028 1.952z"/><path transform="scale(.26458)" d="M72.662.5a9.496 9.397 0 0 0-9.496 9.396 9.496 9.397 0 0 0 9.496 9.397 9.496 9.397 0 0 0 9.496-9.397A9.496 9.397 0 0 0 72.662.5zm75.451.887a9.496 9.397 0 0 0-9.496 9.396 9.496 9.397 0 0 0 9.496 9.399 9.496 9.397 0 0 0 9.496-9.399 9.496 9.397 0 0 0-9.496-9.396zM22.975 46.02a9.496 9.397 0 0 0-9.496 9.397 9.496 9.397 0 0 0 9.496 9.396 9.496 9.397 0 0 0 9.494-9.396 9.496 9.397 0 0 0-9.494-9.397z" style="opacity:1;vector-effect:none;fill:#000;fill-opacity:1;fill-rule:nonzero;stroke:#000;stroke-width:1;stroke-linecap:square;stroke-linejoin:miter;stroke-miterlimit:4;stroke-dasharray:none;stroke-dashoffset:0;stroke-opacity:1"/><path transform="scale(.26458)" d="M62.041 63.043a9.496 9.397 0 0 0-9.496 9.398 9.496 9.397 0 0 0 9.496 9.397 9.496 9.397 0 0 0 9.496-9.397 9.496 9.397 0 0 0-9.496-9.398zm92.422 3.021a9.496 9.397 0 0 0-9.496 9.397 9.496 9.397 0 0 0 9.496 9.396 9.496 9.397 0 0 0 9.496-9.396 9.496 9.397 0 0 0-9.496-9.397zm-66.633 62.19a9.496 9.397 0 0 0-9.496 9.396 9.496 9.397 0 0 0 9.496 9.399 9.496 9.397 0 0 0 9.496-9.399 9.496 9.397 0 0 0-9.496-9.396z" style="opacity:1;vector-effect:none;fill:red;fill-opacity:1;fill-rule:nonzero;stroke:#000;stroke-width:1;stroke-linecap:square;stroke-linejoin:miter;stroke-miterlimit:4;stroke-dasharray:none;stroke-dashoffset:0;stroke-opacity:1"/><path transform="scale(.26458)" d="M90.768 37.422a9.496 9.397 0 0 0-9.497 9.396 9.496 9.397 0 0 0 9.497 9.397 9.496 9.397 0 0 0 9.496-9.397 9.496 9.397 0 0 0-9.496-9.396zm-27.393 65.892a9.496 9.397 0 0 0-9.496 9.397 9.496 9.397 0 0 0 9.496 9.396 9.496 9.397 0 0 0 9.494-9.396 9.496 9.397 0 0 0-9.494-9.397zm90.324.74a9.496 9.397 0 0 0-9.496 9.397 9.496 9.397 0 0 0 9.496 9.397 9.496 9.397 0 0 0 9.494-9.397 9.496 9.397 0 0 0-9.494-9.396z" style="opacity:1;vector-effect:none;fill:green;fill-opacity:1;fill-rule:nonzero;stroke:#000;stroke-width:1;stroke-linecap:square;stroke-linejoin:miter;stroke-miterlimit:4;stroke-dasharray:none;stroke-dashoffset:0;stroke-opacity:1"/><path transform="scale(.26458)" d="M129.594 34.928a9.496 9.397 0 0 0-9.496 9.396 9.496 9.397 0 0 0 9.496 9.397 9.496 9.397 0 0 0 9.496-9.397 9.496 9.397 0 0 0-9.496-9.396zm-4.444 94.025a9.496 9.397 0 0 0-9.496 9.399 9.496 9.397 0 0 0 9.496 9.396 9.496 9.397 0 0 0 9.496-9.396 9.496 9.397 0 0 0-9.496-9.399z" style="opacity:1;vector-effect:none;fill:#00f;fill-opacity:1;fill-rule:nonzero;stroke:#000;stroke-width:1;stroke-linecap:square;stroke-linejoin:miter;stroke-miterlimit:4;stroke-dasharray:none;stroke-dashoffset:0;stroke-opacity:1"/><path d="M19.17 1.32c-.259.023-.507.145-.64.355-.09.143-.162.339-.134.367a.74.74 0 0 0 .189.032l.173.015.054-.125a.451.451 0 0 1 .296-.28c.305-.097.573.14.522.462-.039.247-.123.36-.708.952-.547.552-.57.58-.584.705l-.014.131h1.803v-.136a.415.415 0 0 0-.045-.2c-.042-.06-.061-.063-.477-.062-.238 0-.481.011-.54.025-.059.014-.106.017-.106.006 0-.01.173-.191.386-.403.426-.423.61-.655.68-.862a.735.735 0 0 0-.148-.75c-.177-.181-.447-.256-.706-.232Zm20.06.238c-.212 0-.253.009-.428.098a.638.638 0 0 0-.287.236c-.097.147-.171.348-.139.38.01.01.095.026.188.032l.168.012.074-.147c.097-.19.207-.258.42-.258.197 0 .32.086.366.258.077.286-.122.51-.45.51h-.092v.315h.136c.166 0 .376.098.426.2.02.038.035.13.036.202 0 .251-.203.438-.474.434-.191-.003-.322-.084-.436-.268-.098-.16-.16-.174-.351-.089l-.107.048.081.172c.07.147.305.408.372.413.01 0 .081.02.16.041.38.106.823-.016 1.026-.282.152-.2.197-.509.103-.715-.059-.13-.226-.29-.331-.316-.098-.024-.09-.044.05-.118.167-.09.25-.222.27-.429.018-.209-.025-.35-.153-.49-.146-.162-.346-.238-.629-.239Zm-4.88 8.861c-.31.002-.493.075-.668.27-.11.124-.242.412-.204.45a.776.776 0 0 0 .19.016l.178.003.073-.136c.093-.176.211-.251.394-.253.253-.002.405.139.405.375 0 .234-.137.362-.417.391l-.153.016v.306h.142c.192 0 .362.072.416.176a.602.602 0 0 1 .045.224c.002.268-.17.426-.465.426-.192 0-.314-.07-.417-.242-.044-.072-.106-.137-.144-.147-.078-.02-.29.043-.309.093-.016.04.082.243.18.374.086.114.279.23.442.264.168.035.464.014.637-.046.195-.068.418-.292.468-.473.021-.075.033-.215.026-.32-.01-.154-.027-.203-.1-.293a.826.826 0 0 0-.222-.177l-.134-.07.118-.055a.494.494 0 0 0 .283-.389c.05-.316-.07-.554-.352-.699-.15-.076-.196-.085-.413-.084zm-10.366.673c-.327.016-.57.168-.715.448-.13.25-.125.278.048.302.19.026.245.003.296-.125a.453.453 0 0 1 .515-.276c.208.04.324.223.292.462-.035.251-.142.397-.723.984-.505.51-.555.569-.57.676l-.015.117h1.802v-.14c0-.235-.007-.238-.63-.226l-.534.01.42-.427c.57-.579.687-.765.687-1.085 0-.408-.285-.69-.728-.719a1.241 1.241 0 0 0-.145-.001zm-17.705 2.29c-.24 0-.985.622-.908.759.075.134.203.118.4-.048.093-.078.193-.142.222-.142.03 0 .052.37.052.855v.855H5.76c-.266 0-.285.01-.285.142v.143H6.9v-.143c0-.128-.022-.142-.228-.142h-.228v-2.28zm10.485 4.488h-.356l-.392.329c-.215.18-.392.34-.392.353 0 .014.043.072.096.129.117.123.135.118.388-.09.1-.083.194-.151.206-.151.013 0 .022.384.022.854v.856h-.541v.313H17.22v-.313h-.456v-1.14zm24.318.798-.606.801c-.334.44-.613.824-.62.85-.025.096.045.28.113.297.035.01.304.018.598.018h.534v.627h.371v-.627h.137c.075 0 .152-.015.17-.034.02-.019.035-.096.035-.171v-.137h-.342v-1.624h-.195Zm.03.514c.015 0 .018.083.008.191-.01.106-.018.356-.018.556v.363H40.7c-.22 0-.397-.011-.392-.025.023-.06.782-1.083.805-1.085zm-24.387 9.352c-.366.02-.58.151-.704.434a.576.576 0 0 0 .194.714.611.611 0 0 1 .12.102c0 .008-.042.031-.096.05-.131.048-.291.231-.331.381-.065.238.022.56.19.711.072.064.28.17.39.198.05.013.209.02.353.015.215-.008.29-.023.42-.087.182-.089.335-.253.382-.411a.917.917 0 0 0-.006-.483.65.65 0 0 0-.32-.324c-.054-.02-.097-.042-.096-.05 0-.009.048-.046.107-.082.166-.102.244-.238.257-.449a.607.607 0 0 0-.229-.538c-.168-.144-.35-.196-.63-.18zm24.726.22-.65.009-.652.007-.104.607-.104.605.127.037c.104.03.16.03.303 0 .294-.061.55.004.658.17.062.096.084.3.046.44a.483.483 0 0 1-.302.338c-.167.063-.331.043-.557-.068-.131-.064-.192-.08-.229-.061-.051.027-.168.176-.168.213 0 .054.305.226.477.27.19.047.519.018.692-.061a.769.769 0 0 0 .433-.417.687.687 0 0 0 .092-.404c-.002-.244-.045-.367-.184-.525-.168-.19-.281-.231-.65-.231h-.324l.019-.143c.01-.078.032-.203.047-.276l.029-.133.439-.01c.5-.01.515-.016.544-.23zm-24.656.084c.247.001.38.137.38.388 0 .159-.052.269-.162.34a.522.522 0 0 1-.178.058c-.259.034-.442-.13-.441-.395a.61.61 0 0 1 .035-.215c.055-.108.2-.178.366-.176zm-.009 1.126c.114.001.227.022.282.063.26.19.234.6-.048.745a.51.51 0 0 1-.478.004c-.15-.075-.217-.192-.215-.382.002-.169.061-.297.172-.372a.567.567 0 0 1 .287-.058zm5.564 5.176v.153c0 .093.014.166.037.185.025.02.267.034.685.039l.646.007-.067.1c-.037.055-.294.546-.572 1.09l-.505.99h.198c.148 0 .213-.012.257-.05.032-.027.296-.536.587-1.131.483-.988.529-1.095.529-1.233v-.15h-.898zm11.215.177c-.136-.006-.24.005-.285.029-.091.048-.806.993-.908 1.201-.293.6-.034 1.233.557 1.357.16.034.4.014.577-.047.207-.07.45-.32.511-.523.164-.552-.159-1.025-.699-1.026-.103 0-.229.014-.279.032-.05.017-.095.027-.1.022a8.138 8.138 0 0 1 .415-.524l.425-.513zm-.42 1.29a.501.501 0 0 1 .266.06c.177.102.271.395.194.601a.568.568 0 0 1-.31.294c-.283.078-.572-.064-.617-.302-.029-.155.002-.378.065-.462a.528.528 0 0 1 .402-.191z" style="opacity:1;vector-effect:none;fill:#fff;fill-opacity:1;fill-rule:nonzero;stroke:none;stroke-width:.07484379;stroke-linecap:square;stroke-linejoin:miter;stroke-miterlimit:4;stroke-dasharray:none;stroke-dashoffset:0;stroke-opacity:1"/></svg>