<svg xmlns="http://www.w3.org/2000/svg" xmlns:xlink="http://www.w3.org/1999/xlink" viewBox="0 0 57.146 46.548" height="175.93" width="215.986"><defs><pattern xlink:href="#a" id="b" patternTransform="matrix(3.28373 -2.34529 20.3306 28.46568 -68.104 89.912)"/><pattern id="a" patternTransform="scale(10)" height="1" width="2" patternUnits="userSpaceOnUse"><path style="fill:#000;stroke:none" d="M0-.5h1v2H0z"/></pattern><pattern xlink:href="#d" id="c" patternTransform="matrix(3.60276 1.81752 -15.7555 31.23127 -68.104 89.912)"/><pattern xlink:href="#e" id="d" patternTransform="matrix(3.28373 -2.34529 20.3306 28.46568 -68.104 89.912)"/><pattern id="e" patternTransform="scale(10)" height="1" width="2" patternUnits="userSpaceOnUse"><path style="fill:#000;stroke:none" d="M0-.5h1v2H0z"/></pattern><pattern xlink:href="#c" id="f" patternTransform="matrix(3.51753 -1.97745 17.14188 30.49236 -68.104 89.912)"/><pattern xlink:href="#c" id="g" patternTransform="matrix(-2.41126 3.2356 -28.0484 -20.90253 -68.104 89.912)"/><pattern xlink:href="#c" id="h" patternTransform="matrix(-.10087 4.034 -34.96947 -.8744 -68.104 89.912)"/></defs><path style="opacity:1;vector-effect:none;fill:#a0a0a0;fill-opacity:1;fill-rule:nonzero;stroke:#000;stroke-width:.34925294;stroke-linecap:square;stroke-linejoin:miter;stroke-miterlimit:4;stroke-dasharray:none;stroke-dashoffset:0;stroke-opacity:1" d="M19.647 20.347c-3.842-2.815-7.017-5.258-7.057-5.43-.106-.453 3.676-3.978 5.203-4.85l1.304-.745 3.955 7.986c2.175 4.393 3.955 8.032 3.955 8.088 0 .298-.958-.359-7.36-5.05zM23.763 17.409c-2.126-4.357-3.904-8.025-3.95-8.15-.205-.56 3.768-1.763 6.9-2.088l1.577-.163-.177 8.06c-.097 4.432-.246 8.555-.33 9.161l-.153 1.102zM28.6 19.136c.084-3.43.152-7.536.152-9.124V7.126l1.67.2c2.69.324 6.813 1.694 6.813 2.264 0 .257-7.805 14.408-8.43 15.283-.31.436-.336-.297-.204-5.737zM33.172 18.325c2.268-4.082 4.284-7.678 4.479-7.991l.354-.57 1.515 1.063c1.615 1.133 4.7 4.294 4.7 4.816 0 .246-14.714 10.103-15.082 10.103-.05 0 1.765-3.34 4.034-7.421z"/><path style="opacity:1;vector-effect:none;fill:none;fill-opacity:1;fill-rule:nonzero;stroke:#000;stroke-width:.34925294;stroke-linecap:square;stroke-linejoin:miter;stroke-miterlimit:4;stroke-dasharray:none;stroke-dashoffset:0;stroke-opacity:1" d="M36.794 21.528c4.217-2.756 7.777-5.012 7.911-5.012.334 0 1.886 3.304 2.344 4.99.666 2.45.737 3.243.288 3.243-.552 0-15.71 1.454-17.087 1.64-1.02.137-.425-.306 6.544-4.861zM37.818 30.526c-4.55-1.874-8.247-3.433-8.216-3.465.03-.032 3.585-.395 7.898-.807 4.313-.412 8.376-.817 9.027-.9l1.185-.153-.015 2.206c-.015 2.278-.872 6.36-1.357 6.47-.137.03-3.972-1.477-8.522-3.351zM35.194 34.83c-3.232-3.83-5.85-6.996-5.815-7.037.035-.041 3.828 1.462 8.43 3.34 8.293 3.383 8.366 3.42 8.135 4.025-.406 1.069-2.342 3.887-3.628 5.284l-1.243 1.35zM32.495 45.77c0-.123-.846-4.076-1.88-8.785-1.033-4.709-1.843-8.597-1.8-8.64.11-.11 11.405 13.322 11.478 13.65.033.146-.557.702-1.312 1.234-2.044 1.44-6.486 3.181-6.486 2.54zM24.312 46.218c-.453-.114-.885-.268-.96-.343-.147-.148 4.368-16.89 4.64-17.199.09-.103 1.03 3.759 2.088 8.583 1.057 4.824 1.856 8.838 1.774 8.92-.235.235-6.628.268-7.542.039zM21.255 45.342c-2.265-.834-6.332-3.427-6.165-3.929.127-.379 12.024-13.135 12.145-13.02.199.187-4.596 17.307-4.844 17.291-.137-.009-.648-.162-1.136-.342zM13.502 40.035c-1.59-1.76-3.709-5.258-3.709-6.123 0-.212 3.034-1.396 8.38-3.27 4.609-1.616 8.416-2.901 8.46-2.856.082.082-8.89 9.815-11.07 12.009l-1.192 1.2zM9.08 32c-.483-1.61-.831-5.038-.657-6.456.156-1.274.189-1.32.829-1.194.366.072 4.258.648 8.649 1.28 4.39.63 8.151 1.206 8.357 1.277.307.107-16.1 6.074-16.7 6.074-.102 0-.317-.441-.478-.98z"/><path style="opacity:1;vector-effect:none;fill:#a0a0a0;fill-opacity:1;fill-rule:nonzero;stroke:#000;stroke-width:.34925294;stroke-linecap:square;stroke-linejoin:miter;stroke-miterlimit:4;stroke-dasharray:none;stroke-dashoffset:0;stroke-opacity:1" d="M17.402 24.99a1203.88 1203.88 0 0 1-8.393-1.285c-.378-.073-.375-.221.045-1.865.25-.982.864-2.61 1.363-3.617 1.578-3.183.628-3.44 8.524 2.302 8.07 5.868 7.898 5.73 7.059 5.695-.338-.013-4.207-.567-8.598-1.23z"/><path style="opacity:1;vector-effect:none;fill:#000;fill-opacity:1;fill-rule:nonzero;stroke:#000;stroke-width:1;stroke-linecap:square;stroke-linejoin:miter;stroke-miterlimit:4;stroke-dasharray:none;stroke-dashoffset:0;stroke-opacity:1" d="M88.477.5a9.496 9.397 0 0 0-9.497 9.396 9.496 9.397 0 0 0 9.497 9.397 9.496 9.397 0 0 0 9.496-9.397A9.496 9.397 0 0 0 88.477.5zm46.218.064a9.496 9.397 0 0 0-9.494 9.397 9.496 9.397 0 0 0 9.494 9.396 9.496 9.397 0 0 0 9.496-9.396 9.496 9.397 0 0 0-9.496-9.397zM49.67 18.46a9.496 9.397 0 0 0-9.496 9.396 9.496 9.397 0 0 0 9.496 9.399 9.496 9.397 0 0 0 9.496-9.399 9.496 9.397 0 0 0-9.496-9.396zm121.305 5.12a9.496 9.397 0 0 0-9.496 9.396 9.496 9.397 0 0 0 9.496 9.396 9.496 9.397 0 0 0 9.496-9.396 9.496 9.397 0 0 0-9.496-9.397zM21.97 61.886a9.496 9.397 0 0 0-9.496 9.396 9.496 9.397 0 0 0 9.496 9.397 9.496 9.397 0 0 0 9.496-9.397 9.496 9.397 0 0 0-9.496-9.396z" transform="scale(.26458)"/><path style="opacity:1;vector-effect:none;fill:red;fill-opacity:1;fill-rule:nonzero;stroke:#000;stroke-width:1;stroke-linecap:square;stroke-linejoin:miter;stroke-miterlimit:4;stroke-dasharray:none;stroke-dashoffset:0;stroke-opacity:1" d="M67.93 46.13a9.496 9.397 0 0 0-9.494 9.397 9.496 9.397 0 0 0 9.494 9.399 9.496 9.397 0 0 0 9.496-9.399 9.496 9.397 0 0 0-9.496-9.396zm80.576 2.282a9.496 9.397 0 0 0-9.496 9.397 9.496 9.397 0 0 0 9.496 9.396 9.496 9.397 0 0 0 9.496-9.396 9.496 9.397 0 0 0-9.496-9.397zM49.536 95.44a10.495 10.387 0 0 0-10.497 10.387 10.495 10.387 0 0 0 10.496 10.387 10.495 10.387 0 0 0 10.494-10.387A10.495 10.387 0 0 0 49.535 95.44zm107.855 31.452a9.496 9.397 0 0 0-9.496 9.396 9.496 9.397 0 0 0 9.496 9.397 9.496 9.397 0 0 0 9.494-9.397 9.496 9.397 0 0 0-9.494-9.396zM78.43 142.195a10.495 10.387 0 0 0-10.496 10.387 10.495 10.387 0 0 0 10.496 10.387 10.495 10.387 0 0 0 10.494-10.387 10.495 10.387 0 0 0-10.494-10.387z" transform="scale(.26458)"/><path style="opacity:1;vector-effect:none;fill:green;fill-opacity:1;fill-rule:nonzero;stroke:#000;stroke-width:1;stroke-linecap:square;stroke-linejoin:miter;stroke-miterlimit:4;stroke-dasharray:none;stroke-dashoffset:0;stroke-opacity:1" d="M93.695 31.615a9.496 9.397 0 0 0-9.496 9.397 9.496 9.397 0 0 0 9.496 9.396 9.496 9.397 0 0 0 9.496-9.396 9.496 9.397 0 0 0-9.496-9.397zm71.075 39.24a9.496 9.397 0 0 0-9.497 9.397 9.496 9.397 0 0 0 9.497 9.396 9.496 9.397 0 0 0 9.496-9.396 9.496 9.397 0 0 0-9.496-9.397zM56.752 123.96a10.495 10.387 0 0 0-10.494 10.387 10.495 10.387 0 0 0 10.494 10.386 10.495 10.387 0 0 0 10.496-10.386 10.495 10.387 0 0 0-10.496-10.387zm77.664 21.672a9.496 9.397 0 0 0-9.496 9.396 9.496 9.397 0 0 0 9.496 9.399 9.496 9.397 0 0 0 9.494-9.399 9.496 9.397 0 0 0-9.494-9.396z" transform="scale(.26458)"/><path style="opacity:1;vector-effect:none;fill:#00f;fill-opacity:1;fill-rule:nonzero;stroke:#000;stroke-width:1;stroke-linecap:square;stroke-linejoin:miter;stroke-miterlimit:4;stroke-dasharray:none;stroke-dashoffset:0;stroke-opacity:1" d="M123.637 32.082a9.496 9.397 0 0 0-9.496 9.397 9.496 9.397 0 0 0 9.496 9.398 9.496 9.397 0 0 0 9.496-9.398 9.496 9.397 0 0 0-9.496-9.397zM52.05 69.537a10.495 10.387 0 0 0-10.494 10.387A10.495 10.387 0 0 0 52.05 90.31a10.495 10.387 0 0 0 10.496-10.387A10.495 10.387 0 0 0 52.05 69.537zm116.008 29.918a9.496 9.397 0 0 0-9.496 9.397 9.496 9.397 0 0 0 9.496 9.398 9.496 9.397 0 0 0 9.496-9.398 9.496 9.397 0 0 0-9.496-9.397zm-62.192 51.826a9.496 9.397 0 0 0-9.496 9.397 9.496 9.397 0 0 0 9.496 9.396 9.496 9.397 0 0 0 9.496-9.396 9.496 9.397 0 0 0-9.496-9.397z" transform="scale(.26458)"/><path style="opacity:1;vector-effect:none;fill:#fff;fill-opacity:1;fill-rule:nonzero;stroke:none;stroke-width:.03908302;stroke-linecap:square;stroke-linejoin:miter;stroke-miterlimit:4;stroke-dasharray:none;stroke-dashoffset:0;stroke-opacity:1" d="M23.386 1.324c-.33.02-.592.183-.718.455-.11.235-.099.272.081.296.171.023.217 0 .278-.144.072-.17.176-.236.39-.25.186-.011.194-.01.296.093.094.094.105.12.105.269 0 .13-.015.182-.073.25-.077.091-.244.157-.4.157-.092 0-.093.002-.093.149 0 .148 0 .149.099.149.167 0 .403.084.454.163a.45.45 0 0 1 .017.438c-.084.172-.21.245-.427.245-.198 0-.285-.051-.427-.254-.105-.15-.182-.172-.348-.102-.104.043-.109.05-.08.127.1.265.268.444.492.526.158.058.562.059.732 0 .296-.1.529-.411.53-.706a.597.597 0 0 0-.34-.563c-.13-.066-.128-.069.07-.179.191-.105.273-.498.153-.731-.123-.24-.336-.367-.647-.387a1.17 1.17 0 0 0-.144 0zm12.488.025-.618.82c-.546.722-.618.83-.61.915.006.052.03.125.053.162.042.065.054.067.623.067h.58v.625h.357v-.625h.148c.168 0 .209-.043.209-.221v-.107h-.357V1.35h-.192zm.039.506c.014 0 .017.03.007.066-.01.037-.018.292-.018.566v.498h-.405c-.346 0-.403-.006-.389-.044.03-.075.777-1.085.805-1.086zM13.19 6.077c-.22-.005-.444.055-.596.18a1.06 1.06 0 0 0-.276.453c-.021.09.029.114.237.114.114 0 .126-.007.177-.12.103-.23.337-.341.56-.268.16.054.235.156.25.345.013.141 0 .192-.08.358-.08.16-.185.28-.618.706-.495.486-.604.625-.604.765 0 .06.015.06.893.06h.893v-.163c0-.135-.01-.168-.064-.196-.073-.039-.955-.024-1.053.018-.032.014.142-.186.387-.444.246-.258.49-.537.542-.62.215-.34.187-.738-.07-.982-.14-.132-.357-.2-.578-.206ZM44.723 7.45l-.099.588c-.054.323-.105.603-.111.62-.022.057.24.106.384.073.458-.106.767.067.767.429 0 .181-.093.385-.218.476-.131.095-.436.086-.642-.02-.207-.108-.254-.104-.344.027-.07.103-.071.114-.026.164.073.08.341.203.505.231a1.11 1.11 0 0 0 .82-.19c.356-.272.432-.878.15-1.207-.176-.207-.299-.253-.67-.253-.175 0-.32-.005-.32-.011 0-.006.023-.13.05-.275l.047-.265h.382c.371 0 .524-.026.57-.098a.447.447 0 0 0 .023-.162V7.45h-.634ZM24.827 9.56c-.429 0-.735.211-.848.587-.036.12-.035.127.027.143.035.01.121.018.19.018.122 0 .13-.005.203-.15.06-.117.105-.164.202-.208.154-.07.263-.073.396-.01.132.063.19.177.19.376 0 .278-.095.417-.72 1.052-.521.529-.56.575-.56.677v.109H25.692v-.128c0-.07-.02-.157-.046-.193-.044-.063-.065-.066-.468-.066-.233 0-.473.013-.535.027-.06.014-.111.018-.111.01 0-.01.184-.206.41-.436.226-.231.452-.48.501-.554.205-.303.244-.583.119-.851-.126-.27-.37-.403-.735-.403zm7.947.11c-.227-.002-.273.008-.428.088a.774.774 0 0 0-.405.467l-.054.158.132.025c.193.037.258.01.326-.134a.402.402 0 0 1 .353-.256c.161-.018.294.03.377.135.071.09.08.327.015.451-.052.1-.233.18-.404.18h-.118v.293l.156.021c.305.042.426.128.456.327a.426.426 0 0 1-.243.465c-.16.07-.35.064-.474-.017a.97.97 0 0 1-.182-.197c-.116-.162-.154-.173-.338-.099-.136.055-.138.08-.013.297a.79.79 0 0 0 .564.4c.325.07.785-.067.95-.284.246-.322.212-.758-.074-.965a.532.532 0 0 0-.166-.092c-.07 0-.044-.05.046-.088.35-.145.405-.73.093-.993-.164-.138-.291-.179-.569-.181ZM17.96 13.404l-.372.311a8.081 8.081 0 0 0-.388.336c-.024.04.099.211.165.232.062.02.13-.022.41-.25l.12-.098V15.665h-.535v.327h1.428v-.327h-.475v-2.262h-.177zm21.96.593-.212.008-.213.01-.62.819-.62.82.032.117a.355.355 0 0 0 .08.155c.034.027.204.037.607.037h.56v.626h.387v-.626h.128c.07 0 .144-.016.163-.035.02-.02.036-.094.036-.164v-.128h-.327v-.82zm-.375.51c.014-.001.017.028.008.065-.01.037-.019.291-.019.566v.498h-.405c-.287 0-.4-.01-.392-.034.02-.063.782-1.095.808-1.096zm-33.71 3.063-.362.303c-.198.167-.38.32-.402.34-.034.03-.027.054.041.143.05.066.107.107.147.107.036 0 .154-.073.264-.163.109-.09.205-.164.214-.164.008 0 .015.389.015.863v.863h-.535v.298h1.428v-.298h-.476V17.57h-.167zm9.01 2.282c-.44-.002-.75.207-.863.584l-.04.134.09.018c.05.01.136.018.19.018.091 0 .109-.014.178-.15.059-.117.104-.164.201-.208.15-.068.256-.073.39-.017.145.06.196.152.196.348 0 .262-.093.346-.439.4l-.126.02v.292h.15c.287 0 .437.113.463.346.03.277-.161.487-.442.487a.464.464 0 0 1-.44-.24c-.112-.175-.169-.196-.343-.13-.113.044-.13.061-.114.114.036.118.104.23.212.35.118.13.216.19.386.233.158.04.538.017.677-.042.286-.12.458-.345.484-.637.027-.296-.083-.509-.317-.614-.118-.053-.16-.105-.083-.105.066 0 .265-.185.308-.287.092-.22.023-.564-.142-.716-.132-.122-.35-.197-.576-.198zm-2.167.01-.36.303-.397.335c-.054.05.098.255.189.255.039 0 .15-.07.26-.164.107-.09.201-.163.21-.163.01 0 .018.388.018.863v.863h-.536v.298H13.49v-.298h-.476v-2.292h-.169zm30.408.09-.097.573c-.053.315-.103.595-.111.623-.023.084.19.125.439.083.23-.04.392-.021.522.058.188.114.244.418.122.656-.093.183-.194.247-.408.263-.152.01-.205 0-.376-.08-.11-.052-.224-.087-.254-.077-.046.014-.175.185-.175.23 0 .04.3.203.448.244.32.09.723.007.967-.2.05-.042.13-.148.179-.235.08-.143.087-.186.087-.427 0-.219-.011-.29-.065-.391-.15-.281-.446-.417-.848-.39-.128.01-.232.008-.232-.003 0-.01.02-.133.045-.273l.044-.258c0-.003.202-.01.45-.015.51-.01.532-.02.532-.253v-.128h-.634zm-31.06 6.756-.346.29-.405.339c-.058.048-.058.05.023.156.052.068.108.108.15.108.037 0 .154-.073.265-.164.11-.09.206-.164.214-.164.009 0 .016.389.016.864v.863h-.536v.297H12.835v-.298h-.476v-2.291h-.167zm2.184.006c-.332-.015-.54.056-.712.242-.122.133-.234.375-.207.446.009.023.079.05.157.06.154.022.232-.019.268-.14.077-.253.441-.357.674-.192.163.115.171.451.017.707-.036.058-.317.362-.624.675-.52.528-.56.576-.56.677v.108h1.786v-.139c0-.233-.03-.247-.503-.247-.223 0-.458.013-.523.028-.065.015-.125.022-.132.014-.008-.007.196-.226.452-.486.388-.392.482-.505.56-.67a.655.655 0 0 0 .081-.418c-.01-.187-.024-.24-.1-.349a.946.946 0 0 0-.233-.216c-.123-.076-.179-.09-.401-.1zm30.716.804a.988.988 0 0 0-.279.02c-.096.037-.847 1.03-.947 1.253-.062.138-.074.21-.073.447 0 .247.01.301.078.431a.761.761 0 0 0 .558.422c.23.052.459.024.678-.082.311-.15.465-.401.464-.758-.001-.354-.17-.602-.483-.712a.871.871 0 0 0-.504-.012c-.052.018-.102.027-.11.019-.007-.008.174-.24.403-.517l.417-.503zm-.382 1.285c.284.032.436.199.436.48 0 .192-.078.338-.226.423-.233.134-.559.065-.681-.144a.62.62 0 0 1 0-.533.497.497 0 0 1 .471-.226zm-30.61 5.465-.378.316a6.12 6.12 0 0 0-.387.339c-.005.012.038.071.094.13.121.13.146.125.376-.07.09-.077.181-.15.201-.161.03-.018.038.16.038.843v.865h-.536v.298H14.77v-.298h-.477v-2.262h-.18zm2.11 0-.376.316c-.207.175-.38.327-.385.34-.005.012.037.07.093.13.121.128.146.124.376-.072.09-.076.181-.148.202-.16.029-.018.037.16.037.843v.865h-.536v.298H16.883v-.298h-.476v-2.262h-.182Zm24.71.506v.146c0 .242-.003.24.733.24h.64l-.058.083c-.066.093-1.077 2.069-1.077 2.104 0 .04.378.001.434-.044.03-.024.292-.53.583-1.123.421-.857.534-1.113.55-1.243l.019-.163h-.912zm-18.964 4.29c-.594-.034-.954.388-.999 1.17-.038.684.17 1.184.571 1.376.13.063.183.07.408.061.224-.009.277-.022.401-.099.305-.188.477-.546.507-1.052.052-.865-.286-1.42-.888-1.455zm-2.19.026-.376.315c-.207.174-.376.332-.376.35 0 .045.165.228.206.228.025 0 .248-.168.426-.322.05-.043.053 0 .053.823v.867h-.536v.298H20.425v-.295l-.23-.009-.232-.009-.008-1.123-.007-1.123h-.175zm2.135.315c.339 0 .506.32.505.963 0 .475-.087.765-.27.9a.427.427 0 0 1-.539-.055c-.132-.148-.183-.34-.196-.734-.025-.731.135-1.074.5-1.074zm13.758.317c-.29.025-.553.177-.666.424-.119.262-.038.591.183.744.11.077.131.134.05.134-.07 0-.267.19-.322.31-.198.437.11.92.638 1 .36.054.718-.045.907-.25.148-.16.195-.3.18-.538-.015-.24-.114-.399-.306-.491a.854.854 0 0 1-.135-.074c0-.005.053-.044.118-.087.176-.116.248-.278.233-.528-.014-.264-.117-.42-.357-.543a.971.971 0 0 0-.523-.1zm.07.308a.415.415 0 0 1 .302.1c.154.144.143.457-.02.604-.076.068-.12.082-.248.08-.28-.002-.409-.132-.409-.413 0-.121.016-.167.082-.241a.421.421 0 0 1 .293-.13zm-.015 1.12c.169-.01.333.055.426.18.046.062.062.128.062.256 0 .211-.062.315-.233.392a.513.513 0 0 1-.456 0c-.155-.07-.219-.185-.218-.395 0-.212.074-.329.25-.396a.578.578 0 0 1 .169-.037zm-7.447.06c-.292-.018-.493.045-.676.213-.415.381-.347 1.055.129 1.272a.954.954 0 0 0 .6.01c.06-.024.115-.038.123-.03.008.008-.172.246-.4.529-.23.282-.426.53-.438.55-.039.065.435.051.512-.014.1-.084.75-1.02.832-1.198.056-.122.078-.23.089-.425.016-.31-.033-.471-.197-.653-.154-.17-.307-.239-.574-.255zm-.07.323c.058 0 .117.015.193.045.152.061.236.18.256.36.02.186-.076.382-.226.46-.097.051-.254.064-.41.034-.116-.022-.24-.175-.262-.323-.04-.262.05-.449.255-.53a.514.514 0 0 1 .193-.046z"/></svg>