<svg xmlns="http://www.w3.org/2000/svg" xmlns:xlink="http://www.w3.org/1999/xlink" width="215.986" height="174.169" viewBox="0 0 57.146 46.082"><defs><pattern patternTransform="matrix(3.28373 -2.34529 20.3306 28.46568 -68.104 89.912)" id="j" xlink:href="#k"/><pattern patternTransform="matrix(3.28373 -2.34529 20.3306 28.46568 -68.104 89.912)" id="b" xlink:href="#a"/><pattern patternTransform="matrix(3.60276 1.81752 -15.7555 31.23127 -68.104 89.912)" id="c" xlink:href="#d"/><pattern patternTransform="matrix(3.28373 -2.34529 20.3306 28.46568 -68.104 89.912)" id="d" xlink:href="#e"/><pattern patternUnits="userSpaceOnUse" width="2" height="1" patternTransform="scale(10)" id="e"><path style="fill:#000;stroke:none" d="M0-.5h1v2H0z"/></pattern><pattern patternTransform="matrix(3.51753 -1.97745 17.14188 30.49236 -68.104 89.912)" id="f" xlink:href="#c"/><pattern patternTransform="matrix(-2.41126 3.2356 -28.0484 -20.90253 -68.104 89.912)" id="g" xlink:href="#c"/><pattern patternTransform="matrix(-.10087 4.034 -34.96947 -.8744 -68.104 89.912)" id="h" xlink:href="#c"/><pattern patternTransform="matrix(3.60276 1.81752 -15.7555 31.23127 -68.104 89.912)" id="i" xlink:href="#j"/><pattern patternUnits="userSpaceOnUse" width="2" height="1" patternTransform="scale(10)" id="a"><path style="fill:#000;stroke:none" d="M0-.5h1v2H0z"/></pattern><pattern patternUnits="userSpaceOnUse" width="2" height="1" patternTransform="scale(10)" id="k"><path style="fill:#000;stroke:none" d="M0-.5h1v2H0z"/></pattern><pattern patternTransform="matrix(3.60276 1.81752 -15.7555 31.23127 -68.104 89.912)" id="l" xlink:href="#m"/><pattern patternTransform="matrix(3.28373 -2.34529 20.3306 28.46568 -68.104 89.912)" id="m" xlink:href="#n"/><pattern patternUnits="userSpaceOnUse" width="2" height="1" patternTransform="scale(10)" id="n"><path style="fill:#000;stroke:none" d="M0-.5h1v2H0z"/></pattern><pattern patternTransform="matrix(-.10087 4.034 -34.96947 -.8744 -68.104 89.912)" id="o" xlink:href="#p"/><pattern patternTransform="matrix(3.60276 1.81752 -15.7555 31.23127 -68.104 89.912)" id="p" xlink:href="#q"/><pattern patternTransform="matrix(3.28373 -2.34529 20.3306 28.46568 -68.104 89.912)" id="q" xlink:href="#r"/><pattern patternUnits="userSpaceOnUse" width="2" height="1" patternTransform="scale(10)" id="r"><path style="fill:#000;stroke:none" d="M0-.5h1v2H0z"/></pattern></defs><path d="M19.984 19.88c-3.842-2.814-7.018-5.257-7.057-5.429-.106-.453 3.676-3.978 5.203-4.85l1.304-.745 3.955 7.986c2.175 4.393 3.954 8.032 3.954 8.088 0 .298-.958-.359-7.359-5.05zM24.1 16.943c-2.127-4.357-3.904-8.025-3.95-8.15-.205-.56 3.768-1.763 6.9-2.088l1.577-.163-.177 8.06c-.097 4.432-.246 8.555-.33 9.161l-.153 1.102zM28.937 18.67c.083-3.43.152-7.536.152-9.124V6.66l1.67.2c2.69.324 6.812 1.694 6.812 2.264 0 .257-7.804 14.408-8.429 15.283-.31.436-.336-.297-.205-5.737zM33.508 17.859c2.27-4.082 4.285-7.678 4.48-7.991l.354-.57 1.515 1.063c1.615 1.133 4.7 4.294 4.7 4.816 0 .246-14.715 10.103-15.082 10.103-.05 0 1.764-3.34 4.033-7.421zM37.13 21.062c4.217-2.757 7.777-5.012 7.912-5.012.333 0 1.885 3.304 2.344 4.99.666 2.45.737 3.243.288 3.243-.552 0-15.71 1.454-17.088 1.64-1.02.137-.424-.306 6.545-4.861zM38.155 30.06c-4.55-1.874-8.247-3.433-8.216-3.465.03-.032 3.585-.395 7.898-.807 4.313-.412 8.375-.817 9.027-.9l1.185-.153-.015 2.206c-.016 2.278-.872 6.36-1.357 6.47-.137.03-3.972-1.477-8.522-3.351zM35.531 34.363c-3.233-3.829-5.85-6.995-5.815-7.036.034-.041 3.828 1.462 8.43 3.34 8.293 3.383 8.366 3.42 8.135 4.025-.406 1.069-2.342 3.887-3.629 5.284l-1.243 1.35z" style="opacity:1;vector-effect:none;fill:#a0a0a0;fill-opacity:1;fill-rule:nonzero;stroke:#000;stroke-width:.34925294;stroke-linecap:square;stroke-linejoin:miter;stroke-miterlimit:4;stroke-dasharray:none;stroke-dashoffset:0;stroke-opacity:1"/><path d="M32.832 45.304c0-.123-.846-4.076-1.88-8.785-1.033-4.709-1.843-8.597-1.8-8.64.11-.11 11.404 13.322 11.478 13.65.033.146-.558.701-1.312 1.234-2.044 1.44-6.486 3.181-6.486 2.54zM24.649 45.752c-.453-.114-.885-.268-.96-.343-.148-.148 4.368-16.89 4.639-17.199.091-.103 1.031 3.759 2.089 8.583 1.057 4.824 1.856 8.838 1.774 8.92-.235.235-6.629.268-7.542.039zM21.592 44.876c-2.265-.834-6.332-3.427-6.165-3.929.126-.379 12.024-13.135 12.145-13.02.199.187-4.597 17.307-4.844 17.291-.137-.009-.648-.162-1.136-.342zM13.839 39.569c-1.59-1.76-3.709-5.258-3.709-6.123 0-.212 3.033-1.396 8.38-3.27 4.609-1.616 8.416-2.901 8.46-2.856.081.082-8.89 9.815-11.07 12.009l-1.193 1.2zM9.416 31.534c-.482-1.61-.83-5.038-.656-6.456.156-1.274.188-1.32.829-1.194.366.072 4.258.648 8.649 1.28 4.39.63 8.151 1.206 8.357 1.277.306.107-16.101 6.074-16.701 6.074-.101 0-.316-.441-.478-.98z" style="opacity:1;vector-effect:none;fill:none;fill-opacity:1;fill-rule:nonzero;stroke:#000;stroke-width:.34925294;stroke-linecap:square;stroke-linejoin:miter;stroke-miterlimit:4;stroke-dasharray:none;stroke-dashoffset:0;stroke-opacity:1"/><path d="M17.739 24.523c-4.39-.663-8.168-1.241-8.394-1.284-.378-.073-.374-.221.045-1.865.251-.982.865-2.61 1.364-3.617 1.578-3.183.627-3.44 8.524 2.302 8.07 5.868 7.898 5.73 7.058 5.695-.338-.013-4.207-.567-8.597-1.23z" style="opacity:1;vector-effect:none;fill:#a0a0a0;fill-opacity:1;fill-rule:nonzero;stroke:#000;stroke-width:.34925294;stroke-linecap:square;stroke-linejoin:miter;stroke-miterlimit:4;stroke-dasharray:none;stroke-dashoffset:0;stroke-opacity:1"/><path d="M22.979.132c-2.152-.127-3.396 2.854-1.75 4.27 1.522 1.636 4.59.191 4.25-2.032-.104-1.249-1.252-2.262-2.5-2.238Zm12.23.017c-2.153-.127-3.396 2.854-1.751 4.27 1.522 1.636 4.59.191 4.25-2.032-.104-1.249-1.252-2.262-2.5-2.238ZM13.542 5.161c-2.152-.128-3.396 2.854-1.751 4.27 1.522 1.637 4.59.191 4.25-2.032-.103-1.25-1.25-2.262-2.5-2.238Zm31.818.246c-2.153-.127-3.396 2.855-1.75 4.27 1.521 1.636 4.589.192 4.25-2.032-.104-1.249-1.252-2.261-2.5-2.238ZM5.383 14.712c-2.153-.128-3.396 2.854-1.75 4.27 1.521 1.636 4.589.191 4.25-2.032-.104-1.25-1.252-2.262-2.5-2.238Zm46.072.668c-2.152-.127-3.395 2.855-1.75 4.27 1.522 1.636 4.59.192 4.25-2.032-.104-1.249-1.251-2.261-2.5-2.238zm.98 11.46c-2.153-.128-3.396 2.854-1.75 4.27 1.521 1.636 4.589.19 4.25-2.032-.104-1.25-1.252-2.262-2.5-2.238zm-3.918 10.382c-2.152-.128-3.396 2.854-1.75 4.27 1.522 1.636 4.59.191 4.25-2.032-.104-1.25-1.252-2.262-2.5-2.238z" style="opacity:1;vector-effect:none;fill:#000;fill-opacity:1;fill-rule:nonzero;stroke:#000;stroke-width:.26458335;stroke-linecap:square;stroke-linejoin:miter;stroke-miterlimit:4;stroke-dasharray:none;stroke-dashoffset:0;stroke-opacity:1"/><path d="M18.374 11.928c-1.925-.101-3.253 2.35-2.074 3.89 1.076 1.734 4.036 1.255 4.495-.738.476-1.538-.82-3.199-2.42-3.152zm21.319.604c-1.925-.102-3.253 2.35-2.074 3.89 1.076 1.734 4.036 1.254 4.495-.739.476-1.537-.82-3.198-2.421-3.15zM13.507 24.975c-2.128-.112-3.595 2.597-2.292 4.3 1.131 1.81 4.188 1.466 4.88-.556.738-1.75-.699-3.797-2.588-3.744zm28.536 8.321c-1.924-.102-3.252 2.35-2.073 3.89 1.076 1.734 4.036 1.254 4.494-.739.476-1.537-.82-3.198-2.42-3.15zm-20.891 4.05c-2.128-.113-3.595 2.597-2.292 4.3 1.131 1.809 4.188 1.465 4.88-.556.738-1.75-.699-3.797-2.588-3.744z" style="opacity:1;vector-effect:none;fill:red;fill-opacity:1;fill-rule:nonzero;stroke:#000;stroke-width:.26458335;stroke-linecap:square;stroke-linejoin:miter;stroke-miterlimit:4;stroke-dasharray:none;stroke-dashoffset:0;stroke-opacity:1"/><path d="M25.19 8.088c-2.035-.114-3.33 2.596-1.92 4.088 1.241 1.617 4.14.85 4.397-1.18.294-1.482-.973-2.947-2.476-2.908ZM43.997 18.47c-2.036-.115-3.331 2.596-1.921 4.088 1.242 1.617 4.14.851 4.397-1.18.295-1.482-.972-2.947-2.476-2.908zm-28.58 14.05c-2.127-.112-3.595 2.598-2.291 4.3 1.189 1.917 4.46 1.386 4.967-.817.526-1.699-.906-3.534-2.675-3.483zm20.549 5.735c-2.036-.115-3.332 2.595-1.922 4.087 1.241 1.618 4.141.852 4.398-1.178.295-1.483-.973-2.948-2.476-2.91z" style="opacity:1;vector-effect:none;fill:green;fill-opacity:1;fill-rule:nonzero;stroke:#000;stroke-width:.26458335;stroke-linecap:square;stroke-linejoin:miter;stroke-miterlimit:4;stroke-dasharray:none;stroke-dashoffset:0;stroke-opacity:1"/><path d="M33.113 8.211c-2.036-.114-3.332 2.596-1.922 4.088 1.241 1.618 4.141.852 4.398-1.178.295-1.483-.973-2.949-2.476-2.91Zm-18.94 9.91c-2.128-.112-3.596 2.598-2.292 4.3 1.189 1.916 4.46 1.386 4.968-.816.526-1.7-.906-3.536-2.676-3.484zm30.693 7.916c-2.036-.115-3.332 2.596-1.922 4.088 1.242 1.617 4.142.852 4.398-1.179.295-1.483-.972-2.948-2.476-2.909zM28.412 39.75c-2.036-.115-3.332 2.595-1.922 4.087 1.242 1.617 4.141.851 4.398-1.179.294-1.483-.973-2.947-2.476-2.908z" style="opacity:1;vector-effect:none;fill:#00f;fill-opacity:1;fill-rule:nonzero;stroke:#000;stroke-width:.26458335;stroke-linecap:square;stroke-linejoin:miter;stroke-miterlimit:4;stroke-dasharray:none;stroke-dashoffset:0;stroke-opacity:1"/><path d="M23.06 1.32a.99.99 0 0 0-.57.157.91.91 0 0 0-.332.518c.019.108.2.076.29.08.125-.019.142-.163.211-.245.129-.174.38-.193.567-.116.19.11.218.392.105.567-.111.152-.313.158-.483.186v.289c.146-.001.302-.005.43.077.155.093.18.296.14.457-.034.17-.195.287-.363.296-.152.018-.329-.002-.428-.132-.078-.08-.12-.2-.22-.253-.106-.004-.256.01-.312.111.07.282.295.526.579.6l.019.006c.298.065.634.022.885-.16.256-.185.333-.544.242-.835-.065-.193-.258-.282-.427-.365l.13-.066a.499.499 0 0 0 .273-.368.653.653 0 0 0-.384-.731 1.009 1.009 0 0 0-.351-.073Zm12.77.03-.397.002-1.213 1.615c-.041.032-.009.079-.004.12.016.1.06.227.184.212.359.023.718.01 1.077.013v.616h.352v-.479c.003-.044-.005-.099.004-.137.102-.006.217.022.307-.037.064-.08.034-.19.04-.285h-.35zm-.374.513c.027.181.018.367.021.55v.577h-.202c-.206-.003-.414.01-.618-.019.084-.131.178-.257.269-.385.175-.241.345-.49.53-.723ZM13.57 6.346a.866.866 0 0 0-.63.247c-.498.322.065.827.275.26.584-.563 1.033.479.455.824-.314.404-.797.696-1.02 1.154v.107h1.412c.23.017.495.044.362-.28-.186-.324-1.372.195-.96-.248.346-.43.946-.791.91-1.41-.022-.43-.412-.654-.804-.654Zm32.543.278h-.958c-.101.012-.227-.024-.31.044-.062.287-.104.579-.155.868-.002.105-.066.222-.022.32.097.074.23.055.344.048.197-.033.42-.062.594.057.239.176.238.562.042.77-.164.168-.435.182-.641.088-.107-.035-.214-.125-.33-.106-.074.054-.16.15-.14.248.12.113.28.176.434.226.315.077.68.023.934-.187.248-.2.335-.542.283-.848a.682.682 0 0 0-.364-.518c-.148-.097-.328-.088-.496-.087-.088-.012-.247.042-.266-.079.012-.15.048-.3.071-.449l.59-.024c.1-.013.214.008.307-.027.106-.084.08-.226.083-.344zM25.21 9.278c-.316-.013-.633.12-.774.45-.097.912.717-.552 1.08.026.312.887-.917 1.304-1.203 2.008v.107h1.324c.726.196.406-.65-.218-.38-1.08.194.445-.692.544-1.162.3-.6-.225-1.027-.753-1.049Zm7.936.11c-.355 0-.712.176-.806.553.044.64.643-.479 1.005-.166.627.462-.284.633-.358.897.905.06.466 1.572-.31.725-.59-.475-.439.53.08.563.662.279 1.61-.378 1.13-1.096-.56-.27-.148-.265.054-.65.115-.532-.338-.825-.795-.825zm-14.583 3.706c-.274 0-.457.248-.67.413-.651.299.06.767.385.172v1.572c.09.367-.638-.084-.527.306v.16h1.388c.218-.267-.129-.402-.42-.322v-1.368c-.022-.295.042-.676-.033-.917a.488.488 0 0 0-.123-.016zm21.474.6a.837.837 0 0 0-.126.02l-.984 1.301c-.476.35-.15.851.426.664.287.013.719-.12.578.322-.063.38.068.333.381.322.07-.202-.162-.69.164-.651.315-.006.152-.489-.164-.316V14.15c.066-.31-.01-.478-.275-.456zm-.146.642c.078-.023.108.092.046.456l-.005.275c.136.497-.519.223-.794.27.178-.23.582-.951.753-1.001zm-34.31 1.599c-.374.036-.638.395-.922.623 0 .451.456.078.645-.079.043.415.016.835.016 1.252-.051.144.103.485-.11.473-.146.046-.48-.086-.414.163v.143H5.83c.177-.013.462.082.375-.196.014-.198-.32-.046-.456-.094v-2.28a.66.66 0 0 0-.168-.005zm46.312.653c-.112.016-.258-.016-.339.083-.267.312-.51.645-.744.982a1.083 1.083 0 0 0-.142 1.066c.085.213.285.355.493.434.145.043.3.04.448.025a.825.825 0 0 0 .73-.565c.095-.3.037-.672-.219-.877-.147-.13-.35-.156-.54-.153-.094-.02-.236.064-.294.035.237-.327.509-.627.756-.946.127-.108-.079-.085-.149-.084zm-.433 1.288c.226-.015.458.143.494.373.06.247-.094.529-.346.59-.052.015-.106.03-.16.03a.654.654 0 0 1-.316-.124.537.537 0 0 1-.129-.509.482.482 0 0 1 .457-.36zM15.268 19.52c-.203-.023-.44.056-.694.296-.631.853.326.368.634.107.874.232-.011.734-.182.93.557.056.921 1.21-.127.914-.558-.869-.82.395.061.427.787.25 1.606-.848.764-1.331.46-.29.154-1.274-.456-1.343zm-1.926.06c-.454.004-1.19.583-.883.899.789-.69.481.375.532.986.265.627-.53.192-.53.553v.03c.124.291.773.055 1.11.132.57.12.325-.543-.142-.323v-2.271a.452.452 0 0 0-.087-.007zm30.786.048c-.691-.032-.978.72-.75 1.326.807-.434 1.569.807.524.978-.655-.405-1.087.248-.197.339.473.087 1.013-.178 1.117-.674.484-1.244-1.574-.575-1.037-1.524.404.192 1.497-.337.663-.38a1.16 1.16 0 0 0-.32-.065zM14.39 26.394c-.759-.023-.805 1.4-.155.487 1.593-.131-.273 1.554-.616 2.055v.099h1.242c1.133.156.143-.83-.568-.363.586-.406 1.852-2.106.258-2.253a.692.692 0 0 0-.161-.025zm-1.71.032c-.46.001-1.211.598-.875.91.786-.784.468.286.519.828.259.672-.413.413-.529.71v.023c.1.312.769.055 1.097.138.578.137.359-.543-.123-.322v-2.279a.458.458 0 0 0-.088-.008zm32.856.813c-1.016-.03-2.188 1.933-.992 2.545.997.406 1.859-1.065.766-1.523-1.122.192-.072-.558.226-1.022zm6.029.805v.156c-.008.105.019.242.157.214.408.02.816.008 1.224.011a1.382 1.382 0 0 0-.133.218c-.34.65-.682 1.3-1.009 1.957.049.028.12.018.176.023.097-.004.226.023.284-.08.13-.211.233-.44.348-.66.235-.477.477-.95.688-1.44.06-.124.076-.262.09-.399zm-6.686.543c.4.033.821.412.239.857-.218.146-.516.032-.651-.169-.197-.528.101-.713.412-.688zm-30.353 5.38c-.346.058-1.273.665-.726.911.753-.816.385.5.461 1.013.246.595-.548.148-.529.516v.16h1.274c.446-.063.048-.497-.3-.321v-1.392c-.093-.262.205-.917-.18-.888zm2.113 0c-.355.04-1.327.747-.68.893.716-.82.33.572.416 1.031.246.595-.548.148-.529.516v.16h1.145c.544.094.269-.536-.17-.321v-1.392c-.095-.263.204-.918-.182-.888zm24.76.524c-.767.185.54.552.923.386.245.396-.733 1.495-.926 2.174.14.011.307.053.436-.033.386-.825.983-1.62 1.118-2.527zm7.084 3.929c-.16.004-.32.03-.451.128a.643.643 0 0 0-.245.826c.061.14.195.22.319.295-.066.031-.134.056-.195.095-.251.152-.325.49-.238.757.09.29.385.473.679.5.27.03.563 0 .79-.163.283-.191.363-.605.2-.898-.08-.152-.238-.227-.39-.285.118-.079.249-.153.316-.285.147-.255.056-.592-.154-.782-.14-.096-.298-.189-.473-.188a3.013 3.013 0 0 0-.158 0zm.043.29c.17 0 .345.11.39.276.036.166-.008.375-.16.47a.625.625 0 0 1-.38.026c-.172-.035-.245-.226-.24-.385a.371.371 0 0 1 .318-.38.375.375 0 0 1 .072-.006zm-26.358.073c-.41-.006-.828.277-.908.711-.144.644-.132 1.573.581 1.871.396.109.87-.025 1.06-.412.267-.613.291-1.466-.208-1.97a.795.795 0 0 0-.525-.2zm-2.019.005c-.243.012-.397.268-.597.4-.522.173-.124.785.208.294.359-.26.121.684.187.981-.031.19.062.506-.045.621-.157.053-.55-.131-.483.147v.146h.896c.163-.055.575.136.511-.146.066-.271-.312-.098-.47-.147v-1.701c-.051-.175.113-.567-.097-.584a.388.388 0 0 0-.11-.011zm2.017.357c.075.01.159.04.252.097.312.498.343 1.313-.067 1.764-.389.212-.674-.173-.699-.523-.113-.437-.014-1.405.514-1.338zm13.858.281a.654.654 0 0 0-.232.035c-.62.032-.879.983-.254 1.221-.683.227-.543 1.272.159 1.359.439.102 1.06-.055 1.165-.558.343-.495-.775-.704-.246-.937.455-.455-.05-1.105-.592-1.12zm-.135.355c.331-.024.76.312.334.701-.202.128-.573.063-.618-.206-.078-.339.086-.482.284-.495zm12.589.078c.064-.004.13-.002.193 0 .141.028.275.141.303.286.037.183-.004.415-.184.509a.565.565 0 0 1-.55-.02c-.152-.094-.175-.294-.152-.456.002-.126.093-.232.199-.29a.812.812 0 0 1 .19-.03zm-20.11 1.065a.873.873 0 0 0-.57.231c-.531.452-.141 1.495.602 1.317.6-.282-.03.287-.148.482l-.225.279c-.296.262-.196.345.183.278.498-.408 1.038-1.095 1.075-1.793.018-.522-.458-.815-.918-.794zm7.53.017c.39-.021.86.275.313.751a.5.5 0 0 1-.565-.06c-.306-.466-.05-.675.253-.691zm-7.582.332c.389-.036.903.479.332.844-.295.15-.7-.027-.672-.388.011-.31.163-.44.34-.456z" style="opacity:1;vector-effect:none;fill:#fff;fill-opacity:1;fill-rule:nonzero;stroke:none;stroke-width:.05470224;stroke-linecap:square;stroke-linejoin:miter;stroke-miterlimit:4;stroke-dasharray:none;stroke-dashoffset:0;stroke-opacity:1"/></svg>