<svg xmlns="http://www.w3.org/2000/svg" xmlns:xlink="http://www.w3.org/1999/xlink" width="215.986" height="169.759" viewBox="0 0 57.146 44.915"><defs><pattern patternTransform="matrix(3.60276 1.81752 -15.7555 31.23127 -68.104 89.912)" id="a" xlink:href="#b"/><pattern patternTransform="matrix(3.28373 -2.34529 20.3306 28.46568 -68.104 89.912)" id="b" xlink:href="#c"/><pattern patternUnits="userSpaceOnUse" width="2" height="1" patternTransform="scale(10)" id="c"><path style="fill:#000;stroke:none" d="M0-.5h1v2H0z"/></pattern><pattern patternTransform="matrix(-2.29406 3.31972 -28.77766 -19.88654 -68.104 89.912)" id="d" xlink:href="#a"/><pattern patternTransform="matrix(-.1116 4.03371 -34.96702 -.96736 -68.104 89.912)" id="e" xlink:href="#a"/></defs><path d="M15.555 24.625a963.96 963.96 0 0 1-6.374-.202c-.624-.031-.659-.093-.54-.964.629-4.581 2.131-8.092 4.673-10.92l1.131-1.258 5.006 5.252c2.753 2.888 5.68 5.95 6.504 6.802l1.498 1.551-3.095-.045a768.503 768.503 0 0 1-8.803-.216zM21.316 17.596l-6.4-6.731 1.064-.945c.586-.52 2.181-1.494 3.546-2.164C22.054 6.513 24 5.954 26.804 5.663l1.57-.163-.175 7.894c-.097 4.342-.245 8.578-.33 9.413l-.153 1.52zM28.669 17.711c.09-3.741.163-7.993.163-9.448V5.618l1.675.2c2.025.242 4.692 1.025 6.384 1.875 1.48.742 4.023 2.516 4.721 3.292l.496.552-2.494 2.394a2604.604 2604.604 0 0 1-6.802 6.488l-4.306 4.095zM35.119 25.15c-3.162-.077-5.809-.199-5.88-.271-.073-.073 2.904-3.013 6.616-6.534l6.748-6.403.798.95c2.224 2.647 3.976 6.967 4.218 10.404l.148 2.087-3.45-.046a1066.41 1066.41 0 0 1-9.198-.187z" style="opacity:1;vector-effect:none;fill:#a0a0a0;fill-opacity:1;fill-rule:nonzero;stroke:#000;stroke-width:.34925294;stroke-linecap:square;stroke-linejoin:miter;stroke-miterlimit:4;stroke-dasharray:none;stroke-dashoffset:0;stroke-opacity:1"/><path d="M37.146 34.277a1316.113 1316.113 0 0 1-6.44-6.847l-1.725-1.863 8.673.169c4.77.092 8.981.227 9.356.3.574.11.683.256.681.917-.002 1.117-.86 4.533-1.505 5.999-.684 1.552-2.381 4.176-3.486 5.388l-.84.921zM28.123 40.459c.019-2.355.102-6.577.186-9.384l.151-5.102 4.467 4.694c2.457 2.582 5.388 5.677 6.513 6.878l2.046 2.184-1.55 1.157c-2.988 2.23-7.415 3.848-10.545 3.852l-1.303.002zM23.378 44.226c-3.132-.82-6.908-2.895-8.618-4.737l-.546-.589 5.738-5.456c3.157-3 6.235-5.895 6.841-6.432l1.102-.976-.155 6.064a652.466 652.466 0 0 1-.302 9.351l-.146 3.288-1.029-.013c-.566-.008-1.864-.233-2.885-.5z" style="opacity:1;vector-effect:none;fill:none;fill-opacity:1;fill-rule:nonzero;stroke:#000;stroke-width:.34743074;stroke-linecap:square;stroke-linejoin:miter;stroke-miterlimit:4;stroke-dasharray:none;stroke-dashoffset:0;stroke-opacity:1"/><path d="M12.56 37.01C10.39 34.09 9 30.455 8.616 26.685l-.158-1.55 4.293.034c2.362.02 6.625.103 9.475.186l5.18.152-4.808 4.587a3007.44 3007.44 0 0 0-6.838 6.54l-2.029 1.953z" style="opacity:1;vector-effect:none;fill:#a0a0a0;fill-opacity:1;fill-rule:nonzero;stroke:#000;stroke-width:.34925294;stroke-linecap:square;stroke-linejoin:miter;stroke-miterlimit:4;stroke-dasharray:none;stroke-dashoffset:0;stroke-opacity:1"/><path style="opacity:1;vector-effect:none;fill:#000;fill-opacity:1;fill-rule:nonzero;stroke:#000;stroke-width:.26458335;stroke-linecap:square;stroke-linejoin:miter;stroke-miterlimit:4;stroke-dasharray:none;stroke-dashoffset:0;stroke-opacity:1" d="M19.786.132a2.512 2.486 0 0 0-2.513 2.486 2.512 2.486 0 0 0 2.513 2.487 2.512 2.486 0 0 0 2.512-2.487A2.512 2.486 0 0 0 19.786.132Zm19.431.571a2.512 2.486 0 0 0-2.512 2.486 2.512 2.486 0 0 0 2.512 2.487 2.512 2.486 0 0 0 2.513-2.487A2.512 2.486 0 0 0 39.217.703ZM5.64 13.195a2.512 2.486 0 0 0-2.513 2.486 2.512 2.486 0 0 0 2.513 2.486 2.512 2.486 0 0 0 2.512-2.486 2.512 2.486 0 0 0-2.512-2.486zm45.115.523a2.512 2.486 0 0 0-2.512 2.486 2.512 2.486 0 0 0 2.512 2.487 2.512 2.486 0 0 0 2.513-2.487 2.512 2.486 0 0 0-2.513-2.486zM6.068 31.61a2.512 2.486 0 0 0-2.513 2.487 2.512 2.486 0 0 0 2.513 2.486 2.512 2.486 0 0 0 2.512-2.486 2.512 2.486 0 0 0-2.512-2.487z"/><path style="opacity:1;vector-effect:none;fill:red;fill-opacity:1;fill-rule:nonzero;stroke:#000;stroke-width:.26458335;stroke-linecap:square;stroke-linejoin:miter;stroke-miterlimit:4;stroke-dasharray:none;stroke-dashoffset:0;stroke-opacity:1" d="M15.827 17.41a2.512 2.486 0 0 0-2.512 2.485 2.512 2.486 0 0 0 2.512 2.487 2.512 2.486 0 0 0 2.513-2.487 2.512 2.486 0 0 0-2.513-2.486zm24.454.798a2.512 2.486 0 0 0-2.513 2.487 2.512 2.486 0 0 0 2.513 2.486 2.512 2.486 0 0 0 2.512-2.486 2.512 2.486 0 0 0-2.512-2.487zM22.65 34.663a2.512 2.486 0 0 0-2.513 2.486 2.512 2.486 0 0 0 2.513 2.486 2.512 2.486 0 0 0 2.512-2.486 2.512 2.486 0 0 0-2.512-2.486z"/><path style="opacity:1;vector-effect:none;fill:green;fill-opacity:1;fill-rule:nonzero;stroke:#000;stroke-width:.26458335;stroke-linecap:square;stroke-linejoin:miter;stroke-miterlimit:4;stroke-dasharray:none;stroke-dashoffset:0;stroke-opacity:1" d="M23.428 10.63a2.512 2.486 0 0 0-2.512 2.487 2.512 2.486 0 0 0 2.512 2.486 2.512 2.486 0 0 0 2.513-2.486 2.512 2.486 0 0 0-2.513-2.487zM16.18 28.064a2.512 2.486 0 0 0-2.512 2.487 2.512 2.486 0 0 0 2.512 2.486 2.512 2.486 0 0 0 2.512-2.486 2.512 2.486 0 0 0-2.512-2.487zm23.898.196a2.512 2.486 0 0 0-2.512 2.486 2.512 2.486 0 0 0 2.512 2.487 2.512 2.486 0 0 0 2.513-2.487 2.512 2.486 0 0 0-2.513-2.486z"/><path style="opacity:1;vector-effect:none;fill:#00f;fill-opacity:1;fill-rule:nonzero;stroke:#000;stroke-width:.26458335;stroke-linecap:square;stroke-linejoin:miter;stroke-miterlimit:4;stroke-dasharray:none;stroke-dashoffset:0;stroke-opacity:1" d="M33.7 9.97a2.512 2.486 0 0 0-2.512 2.487 2.512 2.486 0 0 0 2.512 2.486 2.512 2.486 0 0 0 2.513-2.486A2.512 2.486 0 0 0 33.7 9.97zm-1.175 24.878a2.512 2.486 0 0 0-2.512 2.486 2.512 2.486 0 0 0 2.512 2.486 2.512 2.486 0 0 0 2.513-2.486 2.512 2.486 0 0 0-2.513-2.486z"/><path style="opacity:1;vector-effect:none;fill:#fff;fill-opacity:1;fill-rule:nonzero;stroke:none;stroke-width:.03916289;stroke-linecap:square;stroke-linejoin:miter;stroke-miterlimit:4;stroke-dasharray:none;stroke-dashoffset:0;stroke-opacity:1" d="M19.866 1.327c-.111 0-.241.009-.29.02a.817.817 0 0 0-.544.458c-.083.182-.079.233.02.253l.138.03c.085.017.161-.036.206-.144a.455.455 0 0 1 .564-.255c.168.06.24.17.24.37 0 .222-.102.328-.365.378l-.182.034v.283h.107c.29 0 .457.122.479.351.027.29-.155.489-.45.489-.205 0-.33-.071-.44-.248-.102-.164-.173-.184-.366-.103l-.104.043.047.113c.108.26.263.411.515.501.149.053.496.05.683-.005a.871.871 0 0 0 .481-.414.79.79 0 0 0 .055-.311c0-.256-.078-.397-.292-.525l-.157-.094.119-.06a.493.493 0 0 0 .27-.381c.084-.44-.236-.781-.734-.783Zm19.991.594-.214.009-.215.008-.613.81-.614.81.03.11c.016.06.043.126.06.146.02.026.195.039.612.045l.583.008.008.319.009.319h.354v-.65l.156-.009.155-.009.01-.156.008-.155h-.329v-.803Zm-.385.5c.024-.002.029.113.029.535v.57h-.416c-.228 0-.415-.006-.415-.014 0-.017.733-1.021.79-1.083.004-.004.009-.007.012-.007zm-5.7 8.73c-.27 0-.454.057-.61.19-.124.107-.248.324-.257.453-.005.073.006.083.128.104.184.032.228.01.305-.149.128-.268.468-.346.681-.156.071.064.093.111.104.23.026.268-.105.41-.41.446l-.146.017v.144c0 .141.002.145.09.145.176 0 .354.064.43.154.146.173.075.524-.126.627-.286.146-.537.059-.73-.254-.057-.092-.145-.105-.307-.046-.118.042-.12.07-.027.254a.86.86 0 0 0 .403.391c.113.053.178.06.43.052.251-.008.32-.022.45-.089a.935.935 0 0 0 .245-.19.925.925 0 0 0 .18-.482.614.614 0 0 0-.356-.551l-.123-.056.099-.05a.597.597 0 0 0 .275-.763c-.112-.269-.374-.42-.727-.421zm-10.307.672c-.302 0-.502.08-.667.269-.113.128-.234.407-.195.447.011.01.095.02.186.02.166.001.167 0 .243-.13.116-.197.212-.255.42-.255.158 0 .184.01.272.097.09.09.097.11.096.297-.002.298-.064.39-.681 1.016-.298.302-.557.577-.576.613a.37.37 0 0 0-.033.141v.076h1.78v-.162c0-.135-.01-.168-.062-.196-.073-.039-.953-.024-1.05.018-.033.014.14-.183.382-.439.488-.512.591-.648.657-.865a.635.635 0 0 0 0-.452c-.093-.314-.377-.496-.772-.495zM5.73 14.386c-.235-.012-.478.055-.64.193-.128.11-.258.324-.277.458-.01.067.002.075.146.099.18.028.224.006.286-.142.054-.13.21-.253.324-.257.334-.012.472.107.469.402-.003.282-.078.39-.707 1.028-.559.568-.573.585-.573.705v.123h1.78v-.142c0-.25.001-.25-.617-.239-.297.006-.54.004-.54-.003s.207-.222.46-.478c.381-.386.474-.498.551-.663.082-.174.092-.222.082-.4-.016-.27-.124-.45-.347-.576a.907.907 0 0 0-.397-.108zm45.148.532c-.351 0-.639.01-.639.023 0 .012-.046.288-.103.614-.057.326-.094.602-.082.613.053.05.252.081.327.053.1-.038.445-.04.541-.002.29.112.354.549.117.818-.162.185-.431.2-.746.044-.093-.047-.186-.078-.208-.07a.49.49 0 0 0-.117.128l-.08.112.139.091c.076.05.199.113.272.14.185.067.59.05.773-.032a.868.868 0 0 0 .526-.756c.025-.354-.114-.616-.404-.759-.15-.073-.2-.082-.458-.08-.192 0-.288-.01-.288-.032 0-.035.05-.34.075-.452.014-.065.023-.067.445-.067.39 0 .435-.005.488-.059.042-.042.06-.1.06-.193v-.134Zm-35.057 3.68-.36.304c-.198.167-.378.317-.4.334-.058.044.097.252.188.252.037 0 .145-.064.24-.143a3.65 3.65 0 0 1 .21-.165c.029-.017.036.158.036.84v.862h-.534v.297h1.424v-.297h-.475v-2.285h-.164zm24.671.8-.608.805c-.588.78-.606.81-.602.936.009.22.002.218.666.218h.59v.623h.356v-.62l.156-.01.156-.008.009-.156.008-.156h-.329v-1.632h-.2zm.034.505c.007 0 .012.253.012.563v.564h-.415c-.229 0-.416-.006-.416-.014 0-.02.804-1.113.819-1.113zM16.2 29.246a.872.872 0 0 0-.611.234c-.314.305-.264.787.101.977l.088.045-.136.07a.602.602 0 0 0-.34.64c.037.321.236.536.583.63.441.118.901-.019 1.096-.327.214-.337.11-.77-.225-.94l-.133-.068.112-.073c.333-.217.366-.655.07-.949a.863.863 0 0 0-.605-.24zm23.998.24c-.35 0-.638.007-.638.016 0 .008-.047.285-.103.613-.057.33-.1.6-.097.603.05.036.282.063.357.04.052-.014.183-.026.29-.026.342 0 .519.184.492.511-.026.32-.198.482-.509.48a.638.638 0 0 1-.332-.08.741.741 0 0 0-.213-.08c-.032 0-.098.05-.147.112l-.09.113.143.097c.078.053.2.116.272.139.084.027.223.04.397.033.322-.01.505-.09.692-.302.163-.186.224-.378.206-.653-.031-.492-.406-.77-.958-.71-.106.011-.192.009-.192-.005 0-.014.02-.14.044-.278l.044-.26c0-.004.191-.007.424-.007.509 0 .556-.019.556-.224v-.132zm-24.064.077a.543.543 0 0 1 .31.062c.212.135.185.583-.042.687a.59.59 0 0 1-.447-.022c-.247-.15-.195-.61.079-.707a.412.412 0 0 1 .1-.02zm.079 1.116a.49.49 0 0 1 .34.143c.08.083.088.11.088.295 0 .176-.01.214-.074.284a.595.595 0 0 1-.17.121.537.537 0 0 1-.443-.02c-.165-.082-.23-.216-.21-.438.011-.141.027-.177.118-.26a.5.5 0 0 1 .351-.125zM6.085 32.81l-.36.301a35.29 35.29 0 0 0-.399.339c-.034.03-.027.054.041.143.05.065.106.107.146.107.036 0 .154-.074.263-.164.109-.09.205-.162.213-.162.009 0 .016.386.016.86v.86H5.47v.298h1.424v-.298H6.42v-2.284h-.168zm15.674 3.055v.147c0 .24-.004.24.732.24h.638l-.062.096a68.796 68.796 0 0 0-1.07 2.086c0 .01.094.014.21.008.174-.01.218-.024.259-.078.027-.037.282-.541.566-1.122.43-.879.52-1.082.53-1.216l.014-.16h-.909zm11.228.184a.899.899 0 0 0-.285.026c-.103.043-.83 1.005-.94 1.243a1.18 1.18 0 0 0-.054.746c.078.268.267.45.569.55.069.024.205.036.326.03.607-.03.995-.541.833-1.1-.115-.394-.576-.621-.974-.48-.061.023-.111.032-.11.022 0-.01.188-.246.418-.523l.418-.505zm-.442 1.286c.283-.013.496.179.496.47 0 .215-.088.37-.26.456-.21.105-.516.042-.627-.128-.186-.283-.041-.703.267-.78a.644.644 0 0 1 .124-.018z"/></svg>