<svg xmlns="http://www.w3.org/2000/svg" xmlns:xlink="http://www.w3.org/1999/xlink" width="150" height="149.7" viewBox="0 0 39.687 39.608"><defs><pattern patternTransform="matrix(3.60276 1.81752 -15.7555 31.23127 -68.104 89.912)" id="d" xlink:href="#a"/><pattern patternTransform="matrix(3.28373 -2.34529 20.3306 28.46568 -68.104 89.912)" id="a" xlink:href="#b"/><pattern patternUnits="userSpaceOnUse" width="2" height="1" patternTransform="scale(10)" id="b"><path style="fill:#000;stroke:none" d="M0-.5h1v2H0z"/></pattern><pattern patternTransform="matrix(-2.29406 3.31972 -28.77766 -19.88654 -68.104 89.912)" id="c" xlink:href="#d"/><pattern patternTransform="matrix(-.1116 4.03371 -34.96702 -.96736 -68.104 89.912)" id="e" xlink:href="#d"/></defs><path d="M7.29 19.318a963.96 963.96 0 0 1-6.375-.203c-.624-.03-.658-.092-.54-.963.63-4.582 2.131-8.093 4.674-10.92l1.13-1.258 5.006 5.251c2.753 2.889 5.68 5.95 6.504 6.803l1.498 1.551-3.094-.046a768.503 768.503 0 0 1-8.803-.215zM13.05 12.289l-6.4-6.731 1.065-.945c.585-.52 2.18-1.494 3.545-2.165C13.79 1.206 15.734.647 18.54.356l1.57-.163-.176 7.894c-.096 4.341-.245 8.577-.33 9.413l-.153 1.52zM20.403 12.404c.09-3.742.164-7.993.164-9.448V.311l1.675.2c2.025.242 4.692 1.025 6.384 1.874 1.48.743 4.023 2.517 4.72 3.293l.497.551-2.495 2.394a2604.589 2604.589 0 0 1-6.801 6.489l-4.307 4.095z" style="opacity:1;vector-effect:none;fill:#a0a0a0;fill-opacity:1;fill-rule:nonzero;stroke:#000;stroke-width:.34925294;stroke-linecap:square;stroke-linejoin:miter;stroke-miterlimit:4;stroke-dasharray:none;stroke-dashoffset:0;stroke-opacity:1;font-variant-east_asian:normal"/><path d="M26.853 19.843c-3.162-.077-5.808-.2-5.88-.272-.073-.072 2.905-3.012 6.616-6.534l6.748-6.402.799.95c2.224 2.647 3.975 6.966 4.218 10.403l.147 2.087-3.45-.046a1066.41 1066.41 0 0 1-9.198-.186z" style="opacity:1;vector-effect:none;fill:none;fill-opacity:1;fill-rule:nonzero;stroke:#000;stroke-width:.34743074;stroke-linecap:square;stroke-linejoin:miter;stroke-miterlimit:4;stroke-dasharray:none;stroke-dashoffset:0;stroke-opacity:1;font-variant-east_asian:normal"/><path d="M28.88 28.97a1316.113 1316.113 0 0 1-6.44-6.847l-1.725-1.863 8.674.168c4.77.093 8.98.228 9.356.3.574.11.682.256.68.918-.002 1.117-.86 4.533-1.505 5.998-.683 1.553-2.38 4.177-3.485 5.388l-.84.922zM19.857 35.151c.02-2.354.103-6.577.186-9.383l.151-5.102 4.467 4.694c2.457 2.581 5.388 5.677 6.513 6.878l2.047 2.184-1.55 1.157c-2.99 2.23-7.416 3.847-10.546 3.851l-1.303.002zM15.112 38.919c-3.131-.82-6.907-2.896-8.617-4.737l-.547-.59 5.739-5.455c3.156-3 6.234-5.895 6.84-6.432l1.103-.976-.156 6.063a652.466 652.466 0 0 1-.301 9.352l-.146 3.288-1.03-.014c-.566-.008-1.864-.232-2.885-.5z" style="opacity:1;vector-effect:none;fill:none;fill-opacity:1;fill-rule:nonzero;stroke:#000;stroke-width:.34743074;stroke-linecap:square;stroke-linejoin:miter;stroke-miterlimit:4;stroke-dasharray:none;stroke-dashoffset:0;stroke-opacity:1"/><path d="M4.294 31.703C2.124 28.783.736 25.148.35 21.378l-.158-1.55 4.293.034c2.36.02 6.624.103 9.474.186l5.181.151-4.809 4.588a3007.468 3007.468 0 0 0-6.837 6.54l-2.03 1.953z" style="opacity:1;vector-effect:none;fill:none;fill-opacity:1;fill-rule:nonzero;stroke:#000;stroke-width:.34743074;stroke-linecap:square;stroke-linejoin:miter;stroke-miterlimit:4;stroke-dasharray:none;stroke-dashoffset:0;stroke-opacity:1;font-variant-east_asian:normal"/></svg>