<svg xmlns="http://www.w3.org/2000/svg" xmlns:xlink="http://www.w3.org/1999/xlink" viewBox="0 0 39.687 39.735" height="150.178" width="150"><defs><pattern xlink:href="#a" id="b" patternTransform="matrix(3.28373 -2.34529 20.3306 28.46568 -68.104 89.912)"/><pattern id="a" patternTransform="scale(10)" height="1" width="2" patternUnits="userSpaceOnUse"><path style="fill:#000;stroke:none" d="M0-.5h1v2H0z"/></pattern><pattern xlink:href="#d" id="c" patternTransform="matrix(3.60276 1.81752 -15.7555 31.23127 -68.104 89.912)"/><pattern xlink:href="#e" id="d" patternTransform="matrix(3.28373 -2.34529 20.3306 28.46568 -68.104 89.912)"/><pattern id="e" patternTransform="scale(10)" height="1" width="2" patternUnits="userSpaceOnUse"><path style="fill:#000;stroke:none" d="M0-.5h1v2H0z"/></pattern><pattern xlink:href="#c" id="f" patternTransform="matrix(3.51753 -1.97745 17.14188 30.49236 -68.104 89.912)"/><pattern xlink:href="#c" id="g" patternTransform="matrix(-2.41126 3.2356 -28.0484 -20.90253 -68.104 89.912)"/><pattern xlink:href="#c" id="h" patternTransform="matrix(-.10087 4.034 -34.96947 -.8744 -68.104 89.912)"/></defs><path style="opacity:1;vector-effect:none;fill:#a0a0a0;fill-opacity:1;fill-rule:nonzero;stroke:#000;stroke-width:.34925294;stroke-linecap:square;stroke-linejoin:miter;stroke-miterlimit:4;stroke-dasharray:none;stroke-dashoffset:0;stroke-opacity:1" d="M11.447 13.533c-3.842-2.815-7.018-5.258-7.058-5.43-.105-.452 3.677-3.978 5.204-4.85l1.304-.745 3.954 7.987c2.175 4.392 3.955 8.032 3.955 8.087 0 .299-.958-.358-7.36-5.049zM15.563 10.595c-2.127-4.357-3.904-8.024-3.95-8.149-.205-.56 3.767-1.763 6.9-2.088L20.09.194l-.178 8.06c-.097 4.433-.246 8.556-.33 9.162l-.153 1.102zM20.4 12.322c.083-3.43.151-7.536.152-9.123V.312l1.669.201c2.69.324 6.813 1.694 6.813 2.263 0 .257-7.805 14.408-8.43 15.284-.31.435-.336-.297-.204-5.738zM24.97 11.511c2.27-4.082 4.285-7.677 4.48-7.99l.355-.57 1.514 1.062c1.615 1.133 4.7 4.295 4.7 4.817 0 .246-14.714 10.103-15.081 10.103-.05 0 1.764-3.34 4.033-7.422z"/><path style="opacity:1;vector-effect:none;fill:none;fill-opacity:1;fill-rule:nonzero;stroke:#000;stroke-width:.34925294;stroke-linecap:square;stroke-linejoin:miter;stroke-miterlimit:4;stroke-dasharray:none;stroke-dashoffset:0;stroke-opacity:1" d="M28.593 14.714c4.217-2.756 7.777-5.011 7.911-5.011.334 0 1.886 3.303 2.344 4.99.667 2.45.737 3.242.289 3.242-.552 0-15.71 1.455-17.088 1.64-1.02.137-.424-.305 6.544-4.86zM29.617 23.712c-4.55-1.874-8.247-3.433-8.216-3.465.031-.031 3.585-.394 7.898-.806 4.314-.412 8.376-.818 9.028-.901l1.185-.153-.016 2.206c-.015 2.279-.871 6.36-1.357 6.47-.137.031-3.972-1.477-8.522-3.35zM26.994 28.016c-3.233-3.83-5.85-6.996-5.816-7.037.035-.04 3.829 1.462 8.43 3.34 8.293 3.384 8.366 3.42 8.136 4.026-.407 1.068-2.342 3.887-3.63 5.284l-1.242 1.35zM24.294 38.956c0-.122-.846-4.075-1.879-8.784-1.034-4.71-1.844-8.597-1.8-8.64.109-.11 11.404 13.321 11.477 13.649.033.146-.557.702-1.312 1.234-2.044 1.441-6.486 3.182-6.486 2.541zM16.111 39.404c-.453-.113-.884-.268-.96-.342-.147-.149 4.368-16.891 4.64-17.2.09-.103 1.03 3.76 2.088 8.583 1.058 4.824 1.856 8.838 1.774 8.92-.235.235-6.628.269-7.542.04zM13.054 38.528c-2.264-.834-6.332-3.426-6.164-3.928.126-.38 12.023-13.135 12.144-13.021.2.187-4.596 17.308-4.843 17.292-.138-.01-.649-.163-1.137-.343zM5.302 33.221c-1.59-1.76-3.71-5.258-3.71-6.122 0-.212 3.034-1.396 8.38-3.27 4.61-1.616 8.416-2.902 8.46-2.857.082.083-8.889 9.816-11.069 12.01l-1.193 1.2zM.879 25.187c-.482-1.61-.831-5.039-.657-6.457.157-1.273.189-1.32.83-1.193.366.072 4.258.647 8.648 1.279 4.39.63 8.152 1.206 8.357 1.278.307.107-16.1 6.074-16.7 6.074-.102 0-.317-.442-.478-.981z"/><path style="opacity:1;vector-effect:none;fill:#a0a0a0;fill-opacity:1;fill-rule:nonzero;stroke:#000;stroke-width:.34925294;stroke-linecap:square;stroke-linejoin:miter;stroke-miterlimit:4;stroke-dasharray:none;stroke-dashoffset:0;stroke-opacity:1" d="M9.201 18.176A1203.88 1203.88 0 0 1 .808 16.89c-.378-.072-.375-.22.045-1.864.25-.982.864-2.61 1.364-3.617 1.577-3.184.627-3.44 8.524 2.302 8.07 5.868 7.898 5.73 7.058 5.695-.338-.014-4.207-.568-8.598-1.231z"/></svg>