<svg xmlns="http://www.w3.org/2000/svg" viewBox="0 0 97.631 38.1" height="144" width="369"><path transform="scale(.26458)" d="M28 4v138h313V4H28zm157.613 1.611h152.475c-.004 8.499.034 16.917 0 25.4-50.823-.003-101.663.011-152.475 0v-25.4zM31 5.998h151.3c1.506 8.152.343 16.673.7 25H31v-25zm328 3.477a9.5 9.397 0 0 0-9.498 9.398A9.5 9.397 0 0 0 359 28.27a9.5 9.397 0 0 0 9.5-9.397 9.5 9.397 0 0 0-9.5-9.398zM227.832 32.857c36.741.262 73.507.043 110.256.116.053 8.075-.034 16.178 0 24.277H185.613V32.973c14.067-.095 28.152.164 42.219-.116zM31 33.998h149.9c4.753 3.72.978 12.53 2.1 18.525 1.767 5.89-5.57 2.677-8.895 3.475H31v-22zm328 2.652a9.5 9.397 0 0 0-9.498 9.397A9.5 9.397 0 0 0 359 55.445a9.5 9.397 0 0 0 9.5-9.398 9.5 9.397 0 0 0-9.5-9.397zM31 59h151.3c1.522 7.796.33 16.007.7 24H31V59zm155 0h151.3c1.522 7.796.33 16.007.7 24H186V59zM30.816 85.633h152.477v26.338c-50.871.011-101.598.03-152.477 0V85.633zM186 86h152v26H186V86zM10 90.652a9.5 9.397 0 0 0-9.5 9.397 9.5 9.397 0 0 0 9.5 9.396 9.5 9.397 0 0 0 9.498-9.396A9.5 9.397 0 0 0 10 90.652zm20.066 23.842H183.48v25.026H30.066v-25.026zM186 115h151.3c1.522 7.796.33 16.007.7 24H186v-24zm-176 3.035a9.5 9.397 0 0 0-9.5 9.397 9.5 9.397 0 0 0 9.5 9.398 9.5 9.397 0 0 0 9.498-9.398A9.5 9.397 0 0 0 10 118.035z" style="fill:#060606;stroke-width:3.77952743"/><path d="M49.11 1.518v6.661h40.32V1.518H69.27Zm0 7.222v6.381h40.32V8.74H69.27ZM8.16 22.695v6.872h40.32v-6.872H28.32Zm-.14 7.643v6.521h40.46v-6.521H28.25Z" style="opacity:1;vector-effect:none;fill:#a0a0a0;fill-opacity:1;fill-rule:nonzero;stroke:none;stroke-width:.09256238;stroke-linecap:square;stroke-linejoin:miter;stroke-miterlimit:4;stroke-dasharray:none;stroke-dashoffset:0;stroke-opacity:1"/><path style="opacity:1;vector-effect:none;fill:red;fill-opacity:1;fill-rule:nonzero;stroke:#000;stroke-width:1;stroke-linecap:square;stroke-linejoin:miter;stroke-miterlimit:4;stroke-dasharray:none;stroke-dashoffset:0;stroke-opacity:1" d="M103.145 8.502a9.5 9.397 0 0 0-9.5 9.398 9.5 9.397 0 0 0 9.5 9.397 9.5 9.397 0 0 0 9.498-9.397 9.5 9.397 0 0 0-9.498-9.398zM265.008 36.65a9.5 9.397 0 0 0-9.5 9.399 9.5 9.397 0 0 0 9.5 9.396 9.5 9.397 0 0 0 9.498-9.396 9.5 9.397 0 0 0-9.498-9.399zM103.145 90.652a9.5 9.397 0 0 0-9.5 9.397 9.5 9.397 0 0 0 9.5 9.396 9.5 9.397 0 0 0 9.498-9.396 9.5 9.397 0 0 0-9.498-9.397zm161.863 27.526a10.5 10.387 0 0 0-10.5 10.386 10.5 10.387 0 0 0 10.5 10.387 10.5 10.387 0 0 0 10.498-10.387 10.5 10.387 0 0 0-10.498-10.386z" transform="scale(.26458)"/><path style="opacity:1;vector-effect:none;fill:green;fill-opacity:1;fill-rule:nonzero;stroke:#000;stroke-width:1;stroke-linecap:square;stroke-linejoin:miter;stroke-miterlimit:4;stroke-dasharray:none;stroke-dashoffset:0;stroke-opacity:1" d="M103.145 35.887a9.5 9.397 0 0 0-9.5 9.396 9.5 9.397 0 0 0 9.5 9.397 9.5 9.397 0 0 0 9.498-9.397 9.5 9.397 0 0 0-9.498-9.396zm161.863 27.94a9.5 9.397 0 0 0-9.5 9.398 9.5 9.397 0 0 0 9.5 9.396 9.5 9.397 0 0 0 9.498-9.396 9.5 9.397 0 0 0-9.498-9.399zm-161.863 54.208a9.5 9.397 0 0 0-9.5 9.397 9.5 9.397 0 0 0 9.5 9.398 9.5 9.397 0 0 0 9.498-9.398 9.5 9.397 0 0 0-9.498-9.397z" transform="scale(.26458)"/><path style="opacity:1;vector-effect:none;fill:#00f;fill-opacity:1;fill-rule:nonzero;stroke:#000;stroke-width:1;stroke-linecap:square;stroke-linejoin:miter;stroke-miterlimit:4;stroke-dasharray:none;stroke-dashoffset:0;stroke-opacity:1" d="M265.008 9.475a9.5 9.397 0 0 0-9.5 9.398 9.5 9.397 0 0 0 9.5 9.397 9.5 9.397 0 0 0 9.498-9.397 9.5 9.397 0 0 0-9.498-9.398zM103.145 63.27a9.5 9.397 0 0 0-9.5 9.396 9.5 9.397 0 0 0 9.5 9.397 9.5 9.397 0 0 0 9.498-9.397 9.5 9.397 0 0 0-9.498-9.396zm161.863 27.732a9.5 9.397 0 0 0-9.5 9.396 9.5 9.397 0 0 0 9.5 9.399 9.5 9.397 0 0 0 9.498-9.399 9.5 9.397 0 0 0-9.498-9.396z" transform="scale(.26458)"/><path style="opacity:1;vector-effect:none;fill:#fff;fill-opacity:1;fill-rule:nonzero;stroke:none;stroke-width:.07790009;stroke-linecap:butt;stroke-linejoin:miter;stroke-miterlimit:4;stroke-dasharray:none;stroke-dashoffset:0;stroke-opacity:1" d="m27.276 3.445-.39.328c-.216.18-.392.337-.392.348 0 .033.194.228.228.228a.907.907 0 0 0 .2-.139l.22-.178c.049-.038.052.005.052.823v.864h-.525v.32h1.428v-.32h-.466V3.445h-.177zm67.857.241a1.625 1.625 0 0 0-.137.001.879.879 0 0 0-.408.095.818.818 0 0 0-.385.428c-.034.087-.06.201-.05.212.014.013.206.044.277.045.09 0 .11-.016.176-.148.078-.16.154-.225.303-.26.174-.04.36.022.432.145.078.133.073.345-.01.455-.068.088-.208.145-.388.157l-.107.007-.003.134c-.004.19-.01.18.099.18.25.002.427.084.48.223.01.028.021.09.024.144.011.193-.07.338-.236.416a.495.495 0 0 1-.55-.08.9.9 0 0 1-.108-.146.563.563 0 0 0-.082-.113c-.06-.043-.129-.037-.28.025-.12.05-.119.045-.071.156a.977.977 0 0 0 .217.334.716.716 0 0 0 .438.22c.045.008.14.015.21.015.448.004.785-.223.885-.596a.992.992 0 0 0-.001-.386.577.577 0 0 0-.324-.364l-.106-.052.1-.055c.127-.07.187-.128.233-.226a.585.585 0 0 0 .063-.303.49.49 0 0 0-.028-.195.57.57 0 0 0-.138-.234.791.791 0 0 0-.525-.234zm-24.568.018c-.207-.003-.236-.001-.292.026-.053.026-.114.1-.425.514-.39.522-.416.559-.482.69a1.088 1.088 0 0 0-.1.691.825.825 0 0 0 .76.684c.327.031.59-.055.795-.26a.788.788 0 0 0 .247-.606.726.726 0 0 0-.237-.569.752.752 0 0 0-.572-.193.933.933 0 0 0-.219.037.406.406 0 0 1-.092.025c-.003-.002.187-.237.42-.52l.427-.515zm-.455 1.297c.207-.015.386.075.468.235.06.117.07.298.024.42a.482.482 0 0 1-.226.253.571.571 0 0 1-.493-.004c-.143-.08-.214-.22-.214-.421 0-.273.174-.463.44-.483zm-42.852 5.683c-.264.017-.521.132-.655.334-.091.137-.152.306-.13.362.009.025.074.051.157.063.154.021.197-.008.306-.21.139-.256.56-.278.703-.037.075.127.065.363-.024.553-.056.121-.204.29-.64.732-.555.56-.568.577-.568.695v.12h1.778v-.155c0-.252-.022-.261-.575-.244a4.331 4.331 0 0 0-.533.038c-.048.015.086-.142.387-.456.548-.57.662-.754.662-1.067 0-.215-.043-.336-.171-.482-.161-.184-.433-.263-.697-.246zm68.158.214h-.209l-.355.471-.622.824-.266.352.021.101c.03.14.04.165.07.19.025.02.04.02.607.02h.581v.639h.381l.003-.317.002-.317.147-.005a.477.477 0 0 0 .16-.018c.017-.018.028-.136.021-.232l-.006-.08h-.327v-1.628zm-26.19.009v.144c0 .236-.005.235.733.235h.64l-.056.08c-.05.07-1.084 2.07-1.084 2.096 0 .006.09.01.199.01.169 0 .208-.01.259-.066.033-.036.297-.55.588-1.144.458-.937.528-1.097.528-1.217v-.138h-.904zm26.03.501-.007.118a18 18 0 0 0-.006.56v.44h-.403c-.335 0-.402-.002-.398-.014.008-.02.768-1.058.793-1.083zM27.335 17.91c-.39-.002-.717.223-.827.587-.044.148-.05.142.17.18.115.021.224-.038.224-.121 0-.021.04-.085.09-.141a.431.431 0 0 1 .615-.048c.076.068.093.106.102.239a.51.51 0 0 1-.026.23c-.049.095-.268.204-.408.204h-.11v.145c0 .14.002.144.094.159l.204.032a.322.322 0 0 1 .284.273c.046.252-.082.464-.318.528a.482.482 0 0 1-.558-.226.662.662 0 0 0-.13-.161c-.058-.032-.334.058-.334.109 0 .06.144.315.228.405.1.106.27.194.44.224.588.107 1.11-.25 1.109-.759a.596.596 0 0 0-.393-.584l-.087-.034.072-.028c.241-.092.366-.31.345-.604-.023-.319-.243-.53-.616-.594a1.041 1.041 0 0 0-.17-.015zm42.82.165c-.358-.006-.72.18-.81.506-.073.259.038.569.243.679.057.03.104.063.104.073 0 .009-.045.033-.1.052-.134.049-.298.236-.339.39-.1.368.111.734.503.873.119.043.215.053.417.045.414-.015.65-.148.79-.443a.638.638 0 0 0-.297-.865c-.055-.02-.1-.043-.099-.052 0-.009.057-.05.126-.091.312-.19.334-.647.046-.935a.84.84 0 0 0-.584-.232zm-.03.315a.49.49 0 0 1 .226.047c.257.134.232.597-.037.71a.46.46 0 0 1-.383-.01c-.25-.123-.266-.553-.027-.694a.462.462 0 0 1 .22-.053zm.003 1.118c.15 0 .301.059.39.179a.518.518 0 0 1 .068.218.424.424 0 0 1-.191.41c-.192.128-.52.069-.657-.118-.045-.061-.06-.126-.06-.253s.015-.192.06-.253a.484.484 0 0 1 .39-.183zM2.66 25.18l-.39.33c-.215.18-.394.337-.397.347-.004.01.031.066.077.124.118.149.146.144.395-.059.197-.161.261-.197.236-.132-.007.018-.012.403-.012.856v.823h-.536v.309h1.443v-.309h-.474V25.18h-.17Zm24.832.01-.616.815c-.612.81-.616.815-.597.932.01.064.034.13.053.146.02.017.285.033.616.037l.58.008.009.313.008.314h.346l.009-.314.008-.313.16-.014.16-.015.01-.137.008-.137-.169-.009-.169-.008-.008-.81-.008-.808h-.2zm42.57.065a.993.993 0 0 0-.354.093c-.575.28-.613 1.108-.064 1.393.15.078.473.086.638.014.06-.026.11-.038.11-.028 0 .01-.186.248-.413.53l-.441.549c-.022.028.026.036.223.036.202 0 .262-.01.303-.052.094-.093.727-1.008.801-1.158.078-.155.138-.395.138-.546 0-.05-.021-.17-.049-.268a.79.79 0 0 0-.52-.528 1.047 1.047 0 0 0-.372-.035zm.068.34a.47.47 0 0 1 .265.07c.274.183.258.63-.03.776-.195.1-.467.066-.591-.075-.11-.122-.122-.41-.026-.588.06-.114.221-.18.382-.183zm-42.601.077.008.538c.004.296.001.554-.007.574-.018.047-.803.055-.803.01 0-.017.18-.275.401-.576zM2.72 32.417c-.119-.004-.24.008-.331.036a.803.803 0 0 0-.543.506c-.065.184-.062.189.104.216.189.031.228.01.315-.163.057-.114.08-.139.177-.189.194-.1.432-.062.54.09.037.051.05.102.057.208.017.317-.06.434-.731 1.108-.54.543-.564.575-.564.737v.066H3.538v-.151c0-.12-.009-.163-.04-.201-.039-.05-.04-.05-.49-.049-.284.001-.48.01-.53.026-.045.013-.086.02-.092.014a6.72 6.72 0 0 1 .413-.437c.555-.563.665-.729.691-1.036a.7.7 0 0 0-.445-.724 1.03 1.03 0 0 0-.324-.057zm25.355.03-.65.007-.652.008-.094.54c-.126.716-.128.685.028.724a.427.427 0 0 0 .226.003c.16-.046.437-.034.55.023.15.077.214.185.227.379a.545.545 0 0 1-.223.495c-.152.101-.41.093-.633-.02a1.06 1.06 0 0 0-.206-.088c-.034 0-.213.198-.213.236 0 .034.287.205.415.247.185.06.582.038.768-.043a.948.948 0 0 0 .452-.455c.13-.294.063-.73-.144-.928-.157-.15-.341-.21-.653-.208-.326.001-.306.028-.246-.322l.035-.204.443-.014c.505-.017.521-.024.551-.242zm40.914.263-.385.325c-.212.179-.39.336-.395.35-.02.051.143.229.208.227.035 0 .156-.078.268-.173l.204-.173.008.837c.004.46.002.853-.006.873-.01.026-.09.037-.263.037h-.249v.291H69.81v-.291h-.467V32.71h-.176zm2.104 0c-.464 0-.77.277-.895.808-.07.294-.044.921.047 1.16.125.33.3.516.574.613.359.128.804-.033 1.015-.368.24-.378.285-1.117.1-1.612-.146-.39-.441-.601-.841-.6zm.073.336a.416.416 0 0 1 .22.128c.135.134.198.338.22.702.03.505-.078.904-.282 1.042-.116.078-.328.087-.44.018-.197-.123-.29-.415-.29-.914 0-.547.094-.812.326-.927a.395.395 0 0 1 .246-.049z"/></svg>