<svg xmlns="http://www.w3.org/2000/svg" viewBox="0 0 84.402 38.1" height="144" width="319"><path d="M.53 1.058v36.513h82.814V1.058H.529zm41.701.427h40.342c0 2.248.01 4.475 0 6.72-13.447 0-26.898.003-40.342 0v-6.72zm-40.908.102h40.032c.398 2.157.09 4.411.185 6.615H1.323V1.587zM53.4 8.694c9.722.069 19.45.01 29.172.03.014 2.137-.009 4.28 0 6.423H42.231V8.724c3.722-.025 7.449.043 11.17-.03zm-52.078.301h39.661c1.258.984.259 3.316.556 4.902.467 1.558-1.474.708-2.354.92H1.323V8.994zm0 6.615h40.032c.402 2.063.087 4.235.185 6.35H1.323v-6.35zm41.01 0h40.032c.403 2.063.087 4.235.185 6.35H42.333v-6.35zM1.274 22.657h40.343v6.969c-13.46.003-26.881.007-40.343 0v-6.969zm41.06.097H82.55v6.88H42.333v-6.88zm-41.258 7.54h40.59v6.62H1.076v-6.62zm41.257.133h40.032c.403 2.063.087 4.235.185 6.35H42.333v-6.35z" style="fill:#060606;stroke-width:1"/><path transform="scale(.26458)" d="M159.613 5.736V30.914h152.393V5.736H159.613zm0 27.297V57.15h152.393V33.033H159.613zM4.836 85.775v25.973H157.229V85.775H4.836zm-.53 28.887v24.649h152.922v-24.649H4.308z" style="opacity:1;vector-effect:none;fill:#a0a0a0;fill-opacity:1;fill-rule:nonzero;stroke:none;stroke-width:.34984204;stroke-linecap:square;stroke-linejoin:miter;stroke-miterlimit:4;stroke-dasharray:none;stroke-dashoffset:0;stroke-opacity:1"/></svg>