<svg xmlns="http://www.w3.org/2000/svg" width="300" height="168.75" viewBox="0 0 79.375 44.648"><path d="M39.96.924h-2.173l.202 42.714h1.143c10.17-.003 20.79-1.754 29.375-7.52 3.545-2.438 6.7-6.202 6.739-10.706.198-3.132.284-6.373-.554-9.42-1.907-5.27-6.981-8.456-11.854-10.66C55.632 2.282 47.764.942 39.96.924Zm-.107.213c6.837.125 13.743.988 20.174 3.404-6.673 4.814-13.478 9.444-20.174 14.227ZM60.58 4.705c4.738 1.856 9.492 4.432 12.434 8.729a5118.074 5118.074 0 0 1-32.486 5.381c6.646-4.757 13.313-9.486 20.052-14.11Zm12.182 9.111c1.727.859 2.035 3.56 2.09 5.418.007 1.896-.69 3.689-1.598 5.323-10.882-1.74-21.745-3.595-32.617-5.403 10.577-1.777 21.164-3.52 31.733-5.32Zm-32.338 5.64c10.856 1.816 21.717 3.607 32.571 5.437-2.913 4.35-7.75 6.905-12.514 8.732-6.665-4.752-13.404-9.4-20.057-14.168Zm-.572.13c6.771 4.703 13.492 9.478 20.245 14.208-6.481 2.33-13.377 3.296-20.245 3.355z" style="fill:#bbb;stroke-width:1"/><path d="M39.362.94a69.373 69.373 0 0 0-15.486 1.877c-6.62 1.768-13.552 4.535-17.792 10.187-2.525 3.158-2.11 7.332-2.134 11.107-.329 4.44 2.192 8.535 5.65 11.128 7.938 5.981 18.115 7.97 27.855 8.365 1.318.032 1.075.027 2.398-.008V.94h-.491z" style="fill:#6fbb41;stroke-width:1"/><path d="M4.856 15.111c-1.313 3.46-.843 7.23-.882 10.843.47 4.707 3.92 8.542 7.875 10.835 7.786 4.887 17.121 6.552 26.185 6.816 1.188-.034 3.547.155 4.026-.17-1.277.346-2.733.025-2.207-1.547v-4.49c.824.293 1.605-.518.354-.203-.682-.068-.624-3.06-.85-1.196.453 1.58-1.16 1.086-2.246 1.08-6.094-.216-12.192-1.206-17.936-3.287 1.187-.86 2.556-1.778 3.634-2.598-1.534-.08-2.749 2.11-4.237 2.317-4.715-1.734-9.415-4.316-12.252-8.604 1.421-.25 2.844-.494 4.267-.738-1.268-.812-3.427.812-4.7.136-1.73-2.618-1.908-6.094-.726-8.967l-.305-.227Z" style="fill:#5a9835;stroke-width:1"/><path d="M34.19 43.405c-8.507-.707-17.226-2.787-24.227-7.884-3.156-2.42-5.915-5.893-5.973-10.04.12-3.43-.549-7.074.902-10.305 2.027-4.52 6.438-7.405 10.776-9.45C22.33 2.64 29.714 1.29 37.018 1.044c5.06-.106 10.143.057 15.113 1.092 6.923 1.374 13.994 3.788 19.188 8.754 2.676 2.488 4.246 6.112 3.922 9.785-.041 3.303.403 6.83-1.384 9.8-3.136 5.19-8.861 8.06-14.376 10.077-7.099 2.37-14.623 3.257-22.086 3.005-1.074.034-2.137-.063-3.206-.151zm5.25-2.96c-.22-.924.455-2.715-.365-3.059-6.835-.08-13.665-1.125-20.14-3.34v6.11c6.584 2.242 13.545 3.42 20.504 3.335v-3.047zm5.374 2.883c5.287-.386 10.578-1.368 15.544-3.233-.052-2.01.103-4.23-.076-6.113-6.552 2.385-13.545 3.256-20.482 3.413-.07 1.976-.01 4.073-.03 6.096 1.686.01 3.366.023 5.044-.163zm16.513-3.565c4.598-1.881 9.168-4.49 12.012-8.689-.026-1.966.051-4.036-.038-5.939-3.055 4.242-7.865 6.849-12.654 8.738.013 2.035-.083 4.177-.003 6.145.233-.052.455-.177.683-.255zM18.584 36.91c-.214-.99.407-2.548-.36-3.163-4.631-1.863-9.3-4.38-12.23-8.554.063 2-.179 4.1.065 6.041 2.973 4.244 7.683 6.924 12.442 8.697.233-.771.024-2.066.083-3.021zm25.982.083c5.33-.33 10.645-1.366 15.654-3.222-6.79-4.736-13.538-9.612-20.358-14.258-.214 1.577-.03 3.552-.092 5.282.036 4.111-.071 8.281.054 12.355 1.531.083 3.179-.063 4.742-.157zm-5.127-8.674c-.029-2.92.058-5.958-.043-8.806-6.783 4.7-13.539 9.499-20.306 14.244 5.642 2.156 11.77 3.102 17.812 3.351.925-.218 2.95.67 2.537-.894v-7.895zm-20.144 4.977c6.579-4.667 13.248-9.229 19.772-13.96-10.943 1.888-21.92 3.606-32.866 5.482 2.034 3.328 5.53 5.57 8.97 7.31 1.19.536 2.356 1.19 3.616 1.524l.508-.356zm41.906.14c4.311-1.77 8.67-4.122 11.469-7.97 1.14-1.151-1.363-.775-2.025-1.096-10.166-1.663-20.326-3.413-30.497-5.022 6.687 4.844 13.52 9.507 20.251 14.298.285.044.534-.143.802-.21zm13.449-5.283c.717-2.3.317-4.743.413-7.11-.204 1.514-1.256 2.763-1.558 4.198l.002 5.475c.425-.84.981-1.615 1.143-2.563zm-69.509-4.44c-.481-.57-.75-2.29-1.002-2.323-.053 3.132-.184 6.453 1.525 9.227-.04-1.956.137-3.961-.035-5.888l-.488-1.017Zm15.033-1.432c6.175-1.048 12.402-1.99 18.544-3.097-.877-.303-2.403-.422-3.529-.654-9.731-1.612-19.46-3.253-29.194-4.846-1.672 2.477-2.05 5.703-1.153 8.522.302.778.748 2.009 1.353 2.385 4.659-.777 9.32-1.539 13.98-2.31Zm53.583 1.407c.904-1.424 1.115-3.196 1.139-4.883-.084-1.668-.472-3.268-1.384-4.65-.36-1.079-1.826.02-2.687-.102-10.149 1.706-20.341 3.329-30.463 5.088.844.352 2.224.39 3.263.627 9.818 1.605 19.641 3.271 29.456 4.843.42.038.427-.68.676-.923zm-18.98-7.107c6.108-1.02 12.223-2.011 18.33-3.028-2.787-4.424-7.692-6.952-12.405-8.87-.932.143-1.737 1.172-2.621 1.634-5.95 4.217-12.004 8.357-17.885 12.627.822-.005 2.21-.363 3.235-.487l11.346-1.876zm-15.796 2.283c-6.756-4.748-13.504-9.513-20.275-14.24-4.785 1.885-9.702 4.54-12.564 8.904 10.88 1.77 21.78 3.646 32.673 5.397-.038-.058.442.093.166-.06zm.458-8.871v-8.86c-6.884.046-13.927.995-20.336 3.405 6.713 4.795 13.557 9.576 20.336 14.314v-8.86zm10.088 2.074c3.537-2.543 7.202-4.966 10.662-7.581-6.525-2.319-13.464-3.357-20.377-3.37l-.043 17.754c3.304-2.171 6.497-4.552 9.758-6.803z" style="fill:#1f271b;stroke-width:1"/><path transform="scale(.26458)" d="M150.764 4.393V70.65l5.209-3.71c2.865-2.04 16.212-11.427 29.658-20.86 13.446-9.435 28.137-19.784 32.648-22.999l8.203-5.844-2.902-1.088c-8.564-3.205-24.278-7.017-36.334-8.814-7.385-1.1-19.313-2.184-28.533-2.592l-7.95-.351zm78.164 13.966a.546.546 0 0 0-.221.018c-1.426.547-70.408 48.898-74.37 52.127-.115.094-.062.172.116.172 1.776 0 120.223-19.788 120.62-20.15.453-.416-4.062-5.989-7.805-9.633-6.087-5.926-14.895-12.025-23.873-16.53-6.007-3.013-12.99-5.896-14.467-6.004zm45.97 33.91-59.921 10.024c-32.958 5.513-59.968 10.058-60.024 10.102-.055.043 25.046 4.24 55.781 9.324s57.586 9.539 59.668 9.898c6.72 1.16 6.392 1.277 8.344-2.949 3.119-6.75 3.934-10.778 3.639-17.984-.371-9.05-2.303-14.574-6.074-17.368l-1.413-1.046zm-120.07 22.024c-.513.18 1.56 1.672 38.844 27.936 13.466 9.485 26.755 18.871 29.531 20.857 3.868 2.766 5.328 3.547 6.244 3.34.658-.15 4.066-1.512 7.573-3.028 12.133-5.244 23.297-12.465 30.664-19.834 3.571-3.572 8.088-9.047 7.71-9.345-.387-.307-120.097-20.091-120.566-19.926zm-3.764.42c-.407 0-.387 63.802.02 64.863.285.744 1.077.8 7.193.51 21.58-1.023 39.763-3.794 56.332-8.588 8.643-2.5 11.623-3.505 11.623-3.916 0-.42-74.57-52.87-75.168-52.87z" style="opacity:1;vector-effect:none;fill:#fff;fill-opacity:1;fill-rule:nonzero;stroke:none;stroke-width:3.77952766;stroke-linecap:butt;stroke-linejoin:miter;stroke-miterlimit:4;stroke-dasharray:none;stroke-dashoffset:0;stroke-opacity:1"/></svg>