<svg xmlns="http://www.w3.org/2000/svg" width="300" height="168.75" viewBox="0 0 79.375 44.648"><path d="m39.292.944-.473 18.505c-5.312 3.84-10.878 7.661-16.282 11.505-1.27.892-2.532 1.799-3.811 2.679a38.826 38.826 0 0 1-6.048-2.892c-2.4-1.545-4.957-3.385-6.358-5.834L7.583 11.16c-1.242 1.307-2.273 2.797-2.975 4.508-1.118 3.21-.46 6.662-.636 9.988.13 4.832 3.839 8.609 7.676 11.079 7.445 4.677 16.345 6.43 25.022 6.87 2.137.063 4.277-.023 6.415-.02 8.526-.5 17.27-2.27 24.57-6.9 3.84-2.468 7.468-6.246 7.627-11.063-.042-3.342.437-6.815-.68-10.036-2.15-5.049-7.072-8.15-11.89-10.32C55.34 2.143 47.278.894 39.293.944Zm.56.193c2.997.064 5.99.257 8.962.648 3.8.522 7.686 1.428 11.213 2.756-4.213 3.093-8.65 6.068-12.94 9.13-2.412 1.699-4.831 3.386-7.234 5.097zm20.73 3.568c4.734 1.862 9.498 4.428 12.433 8.729-6.69 1.187-13.425 2.204-20.126 3.357l-10.413 1.732c-.439-.029-2.915.748-1.553-.045 6.569-4.563 13.053-9.283 19.658-13.773Zm12.191 8.976c.74.005.868 1.167 1.39 1.615.905 2.66 1.006 5.737-.391 8.248l-.517 1.013c-10.878-1.74-21.746-3.595-32.617-5.403l31.514-5.269c.248-.145.45-.205.621-.204zm-32.348 5.776c10.856 1.815 21.717 3.606 32.571 5.436-2.333 3.55-6.092 5.91-9.885 7.634-.855.42-1.714.822-2.629 1.098-6.665-4.751-13.407-9.402-20.057-14.168Zm-1.068.119v17.548c-6.845-.037-13.73-.994-20.182-3.332 6.708-4.763 13.477-9.447 20.182-14.216Zm.496.01c6.77 4.702 13.492 9.478 20.245 14.208-4.871 1.711-9.966 2.783-15.119 3.122-1.704.159-3.417.166-5.126.233z" style="fill:#bcbcbc;stroke-width:1"/><path d="M39.7.959a80.892 80.892 0 0 0-2.749.035c-8.626.41-17.46 2.115-24.925 6.65-3.853 2.414-7.632 6.033-7.998 10.823-.041 2.972-.241 5.99.166 8.942.454 1.946 1.395 3.645 2.627 5.133.037-.012.092-.036.19-.086a16.669 16.669 0 0 1-.957-1.264c-.233-1.933 0-4.008-.06-5.994 1.178 1.68 2.64 3.09 4.267 4.3.075-.065.155-.132.222-.192-1.653-1.241-3.13-2.695-4.3-4.428 8.965-1.598 18.018-3.017 27.016-4.546 1.878-.272 4.001-.749 5.726-.892-.513.376-1.03.75-1.548 1.121l.465.023 1.523-1.071c.024.375.039.757.052 1.143.154.003.309.011.464.018l.013-1.163 1.576 1.108c.009-.097.02-.194.034-.291-.516-.347-.97-.676-1.09-.898.406.065.813.132 1.22.199.014-.088.028-.176.04-.265-.416-.078-.832-.158-1.247-.241.433-.07.865-.142 1.298-.213a5.845 5.845 0 0 1-.042-.18 42.08 42.08 0 0 1-1.45.204c.446-.32.894-.635 1.34-.953-.012-.042-.014-.088-.02-.132a5.085 5.085 0 0 1-.024-.194l-.784.551c-.283.176-.552.43-.848.563-.103-5.79-.014-11.772-.044-17.635.59.003 1.18.015 1.77.033A1.441 1.441 0 0 1 41.61.99a76.634 76.634 0 0 0-1.91-.032zm1.896 16.99c-.002-.006-.004.008-.006.02l.006-.004v-.015zm-2.157 11.653v.343c.005-.11.01-.221.011-.332l-.01-.01z" style="fill:#6fba41;stroke-width:1"/><path d="M37.538 43.604c-8.104-.289-16.344-1.79-23.585-5.566-4.346-2.334-8.74-5.802-9.812-10.877-.284-2.953-.214-5.947-.083-8.906.5-4.82 4.378-8.39 8.29-10.796C19.835 3.04 28.622 1.362 37.216.994c8.516-.249 17.165.885 25.085 4.122 4.943 2.199 10.055 5.3 12.265 10.482 1.167 3.26.495 6.774.672 10.158-.218 4.803-3.894 8.528-7.725 10.984-6.677 4.193-14.58 5.995-22.359 6.666-2.532.21-5.077.232-7.616.198zm1.901-3.16c-.22-.931.455-2.7-.363-3.07-6.825-.141-13.699-1.052-20.142-3.39.03 2.052-.058 4.221.044 6.2 6.567 2.234 13.518 3.396 20.461 3.307v-3.047zm5.333 2.883c5.283-.39 10.609-1.365 15.545-3.24l.055-6.128c-6.562 2.396-13.57 3.284-20.523 3.433-.184 1.885-.026 4.09-.079 6.099 1.672.008 3.338.025 5.002-.164zm-26.2-9.392c-3.618-1.602-7.412-3.333-10.33-6.152-.825-.794-1.6-1.654-2.248-2.602.061 2.01-.177 4.115.064 6.067 2.972 4.296 7.74 6.895 12.504 8.755-.01-2.02.077-4.058.01-6.068zm44.832 4.91c3.843-1.769 7.544-4.224 9.935-7.788-.025-1.961.05-4.022-.037-5.922-3.047 4.25-7.863 6.854-12.655 8.734.04 2.042-.136 4.122.033 6.14a37.043 37.043 0 0 0 2.724-1.164zM39.419 28.33l.021-8.835c-6.814 4.634-13.514 9.48-20.281 14.198.66.633 2.032.718 2.975 1.109 5.594 1.643 11.44 2.378 17.264 2.364l.021-8.836zm5.147 8.662c5.324-.34 10.636-1.36 15.64-3.22-6.789-4.736-13.535-9.605-20.35-14.259-.201 1.77-.028 3.915-.086 5.829.034 3.928-.067 7.912.05 11.805 1.538.074 3.18-.049 4.746-.155zM19.6 33.102c6.48-4.563 12.976-9.105 19.453-13.672-2.236.136-4.621.737-6.914 1.051-8.634 1.466-17.318 2.834-25.92 4.36 1.421 2.56 4.081 4.473 6.588 6.04 1.92 1.075 3.904 2.164 6.013 2.77l.78-.55zm41.64.31c4.333-1.788 8.73-4.153 11.5-8.054.906-1.01-1.462-.65-2.081-.968-10.146-1.657-20.327-3.424-30.451-5.013 6.026 4.375 12.375 8.706 18.512 13.083.826.378 1.534 1.68 2.52.951zm13.41-5.306c.697-2.257.332-4.652.383-6.977-.191 1.804-1.822 3.189-1.528 5.051l.007 4.536c.409-.86.948-1.662 1.138-2.61zM5.176 23.83c-.531-.452-.967-3.354-.926-1.727-.072 2.764-.24 5.687 1.24 8.157.393.67.083-1.88.195-2.5-.09-1.334.356-2.777-.51-3.93zm19.918-2.366c4.573-.78 9.166-1.464 13.725-2.306-10.894-1.8-21.78-3.676-32.679-5.43-.558.455-1.03 1.517-1.237 2.28-1.03 2.835-.526 6.107 1.128 8.602 6.355-1.043 12.709-2.096 19.063-3.146Zm48.73 2.101c1.27-2.322 1.343-5.23.507-7.718-.335-.612-.665-2.172-1.44-2.122-10.84 1.817-21.714 3.564-32.533 5.422 2.226.547 4.835.823 7.206 1.266 8.52 1.383 17.04 2.854 25.558 4.199.365-.058.467-.772.703-1.047zm-21.28-6.62c6.831-1.163 13.713-2.224 20.518-3.41-1.48-2.551-4.07-4.555-6.64-6.098-1.892-1.077-3.901-2.12-5.943-2.775-6.783 4.705-13.516 9.505-20.29 14.232.604.167 1.864-.3 2.703-.348l9.653-1.601zm-13.6 1.953C32.267 14.1 25.455 9.374 18.707 4.634c-4.784 1.892-9.693 4.531-12.567 8.893 10.926 1.766 21.865 3.655 32.802 5.407Zm4.588-2.626c5.56-3.919 11.146-7.802 16.684-11.75-6.53-2.39-13.511-3.357-20.446-3.387.037 5.88-.072 11.82.055 17.662 1.196-.652 2.488-1.724 3.707-2.525zM39.44 9.963V1.158c-6.897-.012-13.843 1.019-20.344 3.36 6.717 4.8 13.506 9.563 20.282 14.25.145-2.804.021-5.897.062-8.805z" style="fill:#232620;stroke-width:1"/><path transform="scale(.26458)" d="m150.686 4.348.005 29.427c.004 16.186.19 30.959.414 32.829l.409 3.398 3.972-2.781c2.185-1.53 17.714-12.438 34.51-24.24a25947.874 25947.874 0 0 1 33.277-23.36c1.506-1.045 2.749-2.058 2.762-2.25.036-.51-11.605-4.218-19.144-6.1-13.314-3.322-29.967-5.56-48.57-6.527l-7.635-.396zm78.074 14.086c-.141-.007-.244.008-.305.045-3.007 1.787-72.186 50.357-73.514 51.613-.34.321-.432.584-.207.584.701 0 117.7-19.445 119.27-19.822 1.442-.347 1.4-.47-1.455-4.18-5.226-6.792-13.266-13.301-23.969-19.412-7.032-4.015-17.706-8.734-19.82-8.828zm47.445 34.203c-.493-.19-27.913 4.158-60.934 9.66-33.02 5.502-59.816 10.07-59.548 10.152.268.082 24.17 4.083 53.117 8.889 28.947 4.806 55.994 9.31 60.103 10.012 4.11.701 7.565 1.308 7.678 1.347.533.187 4.606-9.746 5.246-12.793.98-4.661.89-10.599-.234-15.908-.985-4.646-3.915-10.779-5.428-11.36zM145.277 73.926c-.667 0-104.544 17.325-113.125 18.867-3.904.702-7.358 1.275-7.675 1.275-1.075 0 3.706 5.976 8.091 10.114 7.913 7.465 18.199 14.052 30.075 19.261 3.93 1.725 7.622 3.023 8.203 2.883.58-.14 15.922-10.714 34.091-23.498 37.154-26.14 41.007-28.902 40.34-28.902zm9.604.156c-.948.12 3.863 3.508 42.076 30.406 17.243 12.138 31.72 22.069 32.172 22.069 1.298 0 13.49-5.635 19.277-8.909 7.898-4.468 12.343-7.634 17.44-12.427 4.401-4.14 9.869-10.446 9.433-10.881-.113-.114-26.658-4.611-58.988-9.994s-59.66-9.962-60.732-10.174c-.29-.058-.543-.107-.678-.09zm-6.957.904c-.447.269-17.452 12.192-37.79 26.494l-36.976 26.004 2.16.883c4.032 1.645 17.766 5.377 25.63 6.963 9.504 1.918 21.325 3.484 31.464 4.172 4.154.282 9.527.554 11.94.605l4.384.094V107.35c0-26.109-.167-32.752-.812-32.364zm3.521.563c-.238.238-.519 14.92-.62 32.627l-.186 32.195 8.632-.443c24.264-1.245 45.267-4.828 62.002-10.58l5.286-1.817-8.86-6.209c-4.872-3.415-21.675-15.21-37.34-26.209-15.664-10.999-28.675-19.802-28.914-19.564z" style="opacity:1;vector-effect:none;fill:#fff;fill-opacity:1;fill-rule:nonzero;stroke:none;stroke-width:3.7795279;stroke-linecap:butt;stroke-linejoin:miter;stroke-miterlimit:4;stroke-dasharray:none;stroke-dashoffset:0;stroke-opacity:1"/></svg>