<svg xmlns="http://www.w3.org/2000/svg" xmlns:xlink="http://www.w3.org/1999/xlink" viewBox="0 0 52.917 16.24" height="61.38" width="200"><defs><linearGradient gradientUnits="userSpaceOnUse" y2="550.761" x2="112.241" y1="550.761" x1="94.234" id="e" xlink:href="#a" gradientTransform="matrix(.70227 0 0 .70227 -1402.998 584.665)"/><linearGradient id="a"><stop offset="0" style="stop-color:#4a0;stop-opacity:1"/><stop offset="1" style="stop-color:#6f0;stop-opacity:1"/></linearGradient><linearGradient gradientTransform="matrix(.70227 0 0 .70227 -1389.574 584.665)" y2="550.761" x2="112.241" y1="550.761" x1="94.234" gradientUnits="userSpaceOnUse" id="d" xlink:href="#a"/><linearGradient gradientTransform="matrix(.70227 0 0 .70227 -1376.15 584.665)" y2="550.761" x2="112.241" y1="550.761" x1="94.234" gradientUnits="userSpaceOnUse" id="c" xlink:href="#a"/><linearGradient gradientTransform="matrix(.70227 0 0 .70227 -1362.727 584.665)" y2="550.761" x2="112.241" y1="550.761" x1="94.234" gradientUnits="userSpaceOnUse" id="b" xlink:href="#a"/></defs><path style="opacity:1;vector-effect:none;fill:url(#b);fill-opacity:1;fill-rule:nonzero;stroke:none;stroke-width:.74323064;stroke-linecap:square;stroke-linejoin:miter;stroke-miterlimit:4;stroke-dasharray:none;stroke-dashoffset:0;stroke-opacity:1" d="M-1296.55 971.445v-3.988h12.646v7.976h-12.645z" transform="translate(1336.82 -967.457)"/><path d="M-1309.973 971.445v-3.988h12.645v7.976h-12.645z" style="opacity:1;vector-effect:none;fill:url(#c);fill-opacity:1;fill-rule:nonzero;stroke:none;stroke-width:.74323064;stroke-linecap:square;stroke-linejoin:miter;stroke-miterlimit:4;stroke-dasharray:none;stroke-dashoffset:0;stroke-opacity:1" transform="translate(1336.82 -967.457)"/><path style="opacity:1;vector-effect:none;fill:url(#d);fill-opacity:1;fill-rule:nonzero;stroke:none;stroke-width:.74323064;stroke-linecap:square;stroke-linejoin:miter;stroke-miterlimit:4;stroke-dasharray:none;stroke-dashoffset:0;stroke-opacity:1" d="M-1323.397 971.445v-3.988h12.646v7.976h-12.646z" transform="translate(1336.82 -967.457)"/><path d="M-1336.82 971.445v-3.988h12.645v7.976h-12.645z" style="opacity:1;vector-effect:none;fill:url(#e);fill-opacity:1;fill-rule:nonzero;stroke:none;stroke-width:.74323064;stroke-linecap:square;stroke-linejoin:miter;stroke-miterlimit:4;stroke-dasharray:none;stroke-dashoffset:0;stroke-opacity:1" transform="translate(1336.82 -967.457)"/><path transform="scale(.26458)" d="M23.896 39.344a10.954 10.842 0 0 0-10.953 10.843A10.954 10.842 0 0 0 23.896 61.03a10.954 10.842 0 0 0 10.956-10.842 10.954 10.842 0 0 0-10.956-10.843Zm152.575 0a10.954 10.842 0 0 0-10.953 10.843A10.954 10.842 0 0 0 176.47 61.03a10.954 10.842 0 0 0 10.955-10.842 10.954 10.842 0 0 0-10.955-10.843Z" style="opacity:1;vector-effect:none;fill:red;fill-opacity:1;fill-rule:nonzero;stroke:#000;stroke-width:.70226526;stroke-linecap:square;stroke-linejoin:miter;stroke-miterlimit:4;stroke-dasharray:none;stroke-dashoffset:0;stroke-opacity:1"/><path d="M-1314.176 980.736a2.898 2.869 0 0 1-2.898 2.868 2.898 2.869 0 0 1-2.898-2.868 2.898 2.869 0 0 1 2.898-2.87 2.898 2.869 0 0 1 2.898 2.87z" style="opacity:1;vector-effect:none;fill:green;fill-opacity:1;fill-rule:nonzero;stroke:#000;stroke-width:.18580769;stroke-linecap:square;stroke-linejoin:miter;stroke-miterlimit:4;stroke-dasharray:none;stroke-dashoffset:0;stroke-opacity:1" transform="translate(1336.82 -967.457)"/><path d="M-1300.655 980.736a2.898 2.869 0 0 1-2.898 2.868 2.898 2.869 0 0 1-2.898-2.868 2.898 2.869 0 0 1 2.898-2.87 2.898 2.869 0 0 1 2.898 2.87z" style="opacity:1;vector-effect:none;fill:#00f;fill-opacity:1;fill-rule:nonzero;stroke:#000;stroke-width:.18580769;stroke-linecap:square;stroke-linejoin:miter;stroke-miterlimit:4;stroke-dasharray:none;stroke-dashoffset:0;stroke-opacity:1" transform="translate(1336.82 -967.457)"/><path transform="scale(.26458)" d="M125.768 44.451c-.868.04-1.72.307-2.395.863-.71.57-1.066 1.446-1.228 2.319.257.05.51.109.771.146.58.186 1.124-.123 1.264-.718.267-.63.906-1.064 1.595-1.041.653-.04 1.455.18 1.682.869.193.635.216 1.447-.31 1.935-.554.44-1.293.58-1.987.553v1.297c.658.07 1.35.087 1.934.435.85.505.89 1.786.306 2.51-.751.978-2.418 1.056-3.2.07-.358-.325-.448-.911-.932-1.09-.522-.065-.99.24-1.467.405.117.297.227.597.37.883a3.533 3.533 0 0 0 2.33 1.933h.003c.46.115.942.11 1.414.098.935-.008 1.895-.254 2.61-.883.869-.699 1.24-1.864 1.11-2.951-.059-.98-.856-1.74-1.72-2.094-.136-.07-.443-.142-.137-.217.678-.264 1.295-.757 1.518-1.474.14-.549.094-1.13.053-1.688-.267-.96-1.08-1.746-2.041-2.002a5.318 5.318 0 0 0-1.543-.158zm-50.862.026c-1.112.007-2.302.36-3.05 1.226-.523.55-.79 1.275-.926 2.008.247.042.496.087.742.127.468.166 1.004.033 1.174-.477.232-.69.865-1.23 1.6-1.293.744-.106 1.618.24 1.849 1.01.28.942-.052 1.976-.672 2.711-1.26 1.532-2.74 2.865-4.094 4.31-.353.393-.872.756-.785 1.356h.006a12.82 12.82 0 0 0 0 .416h7.803c-.001-.275.001-.55-.002-.826a1.078 1.078 0 0 0-.319-.858h-1.957c-.837.02-1.689-.04-2.513.122-.54.204.069-.286.209-.465 1.225-1.327 2.568-2.553 3.654-4.002a3.291 3.291 0 0 0 .664-2.262c.007-.545-.09-1.099-.412-1.553-.604-1.035-1.824-1.49-2.97-1.55zm104.291.054c-.616.004-1.231.006-1.847.008l-5.38 7.129c-.018.157.077.34.077.506-.014.514.335.953.885.875 1.54.045 3.084.016 4.625.023v1.395l-.002.002v1.396h1.642v-2.793c.432-.019.886.06 1.297-.097.159-.439.06-.92.098-1.38h-1.395zm-155.367.006c-1.119.944-2.25 1.873-3.348 2.842-.018.393.428.917.825 1.082.49-.006.827-.46 1.205-.719.298-.192.726-.718.957-.662.09 2.464.052 4.93.052 7.395h-2.38v.699h-.002l.002.697h6.324v-1.396H25.41v-9.938zm153.68 2.328c.083.758.047 1.526.047 2.287v2.442c-1.177-.012-2.358.035-3.532-.051.824-1.196 1.691-2.362 2.545-3.537.313-.342.6-.982.94-1.14z" style="opacity:1;vector-effect:none;fill:#fff;fill-opacity:1;fill-rule:nonzero;stroke:none;stroke-width:.08212626;stroke-linecap:butt;stroke-linejoin:miter;stroke-miterlimit:4;stroke-dasharray:none;stroke-dashoffset:0;stroke-opacity:1"/></svg>