<svg xmlns="http://www.w3.org/2000/svg" viewBox="0 0 52.917 24.292" height="91.811" width="200"><g transform="translate(1269.888 -846.842)"><path transform="matrix(.26458 0 0 .26458 -1269.888 846.841)" d="M0 30.832v30.147h47.795V30.832Zm50.734 0v30.147H98.53V30.832Z" style="opacity:1;vector-effect:none;fill:#f60;fill-opacity:1;fill-rule:nonzero;stroke:none;stroke-width:2.80906081;stroke-linecap:square;stroke-linejoin:miter;stroke-miterlimit:4;stroke-dasharray:none;stroke-dashoffset:0;stroke-opacity:1"/><path transform="matrix(.26458 0 0 .26458 -1269.888 846.841)" d="M102.205 30.832v30.147h47.059V30.832Zm50.736 0v30.147H200V30.832Z" style="opacity:1;vector-effect:none;fill:#fca;fill-opacity:1;fill-rule:nonzero;stroke:none;stroke-width:2.80906081;stroke-linecap:square;stroke-linejoin:miter;stroke-miterlimit:4;stroke-dasharray:none;stroke-dashoffset:0;stroke-opacity:1"/><path transform="matrix(.26458 0 0 .26458 -1269.888 846.842)" d="M23.896 69.775a10.954 10.842 0 0 0-10.953 10.842A10.954 10.842 0 0 0 23.896 91.46a10.954 10.842 0 0 0 10.956-10.842 10.954 10.842 0 0 0-10.956-10.842Zm152.575 0a10.954 10.842 0 0 0-10.955 10.842A10.954 10.842 0 0 0 176.47 91.46a10.954 10.842 0 0 0 10.953-10.842 10.954 10.842 0 0 0-10.953-10.842Z" style="opacity:1;vector-effect:none;fill:red;fill-opacity:1;fill-rule:nonzero;stroke:#000;stroke-width:.70226526;stroke-linecap:square;stroke-linejoin:miter;stroke-miterlimit:4;stroke-dasharray:none;stroke-dashoffset:0;stroke-opacity:1"/><ellipse ry="2.869" rx="2.898" style="opacity:1;vector-effect:none;fill:green;fill-opacity:1;fill-rule:nonzero;stroke:#000;stroke-width:.18580769;stroke-linecap:square;stroke-linejoin:miter;stroke-miterlimit:4;stroke-dasharray:none;stroke-dashoffset:0;stroke-opacity:1" cx="-1250.142" cy="868.172"/><ellipse ry="2.869" rx="2.898" cy="868.172" cx="-1236.621" style="opacity:1;vector-effect:none;fill:#00f;fill-opacity:1;fill-rule:nonzero;stroke:#000;stroke-width:.18580769;stroke-linecap:square;stroke-linejoin:miter;stroke-miterlimit:4;stroke-dasharray:none;stroke-dashoffset:0;stroke-opacity:1"/><path transform="matrix(.26458 0 0 .26458 -1269.888 846.841)" d="M23.896.352a10.955 10.843 0 0 0-10.953 10.841 10.955 10.843 0 0 0 10.953 10.844 10.955 10.843 0 0 0 10.956-10.844A10.955 10.843 0 0 0 23.896.352Zm50.737 0a10.955 10.843 0 0 0-10.955 10.841 10.955 10.843 0 0 0 10.955 10.844 10.955 10.843 0 0 0 10.953-10.844A10.955 10.843 0 0 0 74.633.352Z" style="opacity:1;vector-effect:none;fill:#000;fill-opacity:1;fill-rule:nonzero;stroke:#000;stroke-width:.70226526;stroke-linecap:square;stroke-linejoin:miter;stroke-miterlimit:4;stroke-dasharray:none;stroke-dashoffset:0;stroke-opacity:1"/><path transform="matrix(.26458 0 0 .26458 -1269.888 846.842)" d="M74.742 5.516c-1.752.046-3.52 1.13-3.73 3.01 1.69 1.458 1.86-1.423 3.379-1.434 2.954-.293 2.105 3.7.343 4.736-1.242 1.561-3.178 2.714-3.974 4.54l.002.48c2.58-.028 5.264.052 7.781-.037.523-2.335-2.508-1.444-3.88-1.557-2.62.646.674-1.608 1.218-2.451 1.505-1.348 2.995-3.27 2.18-5.403-.603-1.33-1.956-1.92-3.319-1.884Zm-49.637.045c-.326-.036-.776.051-1.1.013-1.2.762-2.26 1.908-3.42 2.783.039 2.023 2.19.68 2.968-.314v5.809c-.152.593.428 1.918-.576 1.658-.754.124-2.27-.472-1.723.896l-.002.498h5.324c1.05.308 1.03-.452.947-1.277-.444-.28-1.413-.035-2.054-.117V6.28c.166-.528-.037-.685-.364-.72Zm100.57 69.351c-.406.024-.808.104-1.187.238-1.028.308-1.73 1.228-2.101 2.196-.35.458.04.919.568.851.677.227 1.12-.41 1.361-.943.43-.875 1.614-1.048 2.44-.68 1.06.48 1.179 2.137.25 2.809-.454.418-1.121.278-1.635.555-.39.296-.312 1.162.283 1.173.577.067 1.193.16 1.637.573.68.554.609 1.607.178 2.293-.42.727-1.338.939-2.115.812-.645-.068-1.067-.598-1.47-1.047-.295-.213-.463-.844-.886-.697-.337.185-.924.093-1.057.527.244 1.123 1.108 2.098 2.178 2.516.087.03.179.057.27.084 1.191.297 2.513.173 3.595-.422 1.284-.688 1.992-2.35 1.453-3.729-.26-.73-.891-1.23-1.56-1.574-.38-.124-.24-.244.078-.357 1.422-.619 1.897-2.625.98-3.85-.775-.967-2.038-1.4-3.26-1.328zm-50.728.035a4.593 4.593 0 0 0-2.103.453c-.956.417-1.567 1.37-1.801 2.358-.302.57.432.414.787.5.623.175 1.017-.384 1.229-.881.379-.71 1.248-.99 2.007-.865.535.033 1.037.371 1.196.894a2.959 2.959 0 0 1-.381 2.508c-1.214 1.602-2.725 2.946-4.1 4.404-.373.47-.983.851-1.021 1.506h-.01v.479h7.533c.39.11.215-.357.264-.6.049-.472-.123-1.058-.666-1.135a42.89 42.89 0 0 0-3.733.135c-.528.206-.542-.238-.144-.49 1.153-1.278 2.461-2.42 3.504-3.797.606-.688.802-1.63.742-2.525.035-.935-.477-1.828-1.248-2.338a3.984 3.984 0 0 0-2.055-.606zm102.551.04c-.12.022-.198.132-.271.25-1.513 2.01-3.066 3.992-4.536 6.034-.292.468-.772.979-.556 1.573.081.505.647.622 1.076.644 1.447.081 2.899.036 4.348.047v1.315h-.002v1.314h1.642v-2.412c-.08-.245.14-.211.31-.223.305-.056.714.05.9-.252.086-.398.083-.814.124-1.22h-1.332v-7.063h-1.566a.292.292 0 0 0-.137-.008zm-152.15.05-1.567.002-3.379 2.844c.02.12.2.254.28.379.222.244.46.618.826.592.747-.376 1.336-.987 1.982-1.506v7.56h-2.324v.698h.002v.697h6.271v-1.395h-2.091zm152.146 2.108c.064.803.065 1.614.065 2.421v2.49c-.689 0-1.377.002-2.065 0-.453-.064-1.139.119-1.445-.199a252.094 252.094 0 0 1 3.445-4.712z" style="opacity:1;vector-effect:none;fill:#fff;fill-opacity:1;fill-rule:nonzero;stroke:none;stroke-width:.15519926;stroke-linecap:butt;stroke-linejoin:miter;stroke-miterlimit:4;stroke-dasharray:none;stroke-dashoffset:0;stroke-opacity:1"/></g></svg>