<svg xmlns="http://www.w3.org/2000/svg" width="300" height="168.75" viewBox="0 0 79.375 44.648"><path d="M36.67 43.605c-8.618-.425-17.429-2.188-24.86-6.758-3.652-2.358-7.22-5.772-7.764-10.3a96.208 96.208 0 0 1 0-8.48c.547-4.53 4.098-7.976 7.774-10.315C19.22 3.182 28.003 1.442 36.588.97 41.745.873 46.93 1.024 52 2.068 58.476 3.341 65.026 5.5 70.16 9.783c2.96 2.398 5.217 5.946 5.159 9.856-.102 3.63.522 7.535-1.415 10.819-2.959 4.928-8.281 7.837-13.524 9.79-7.018 2.55-14.54 3.527-21.986 3.378-.576.005-1.152.021-1.725-.021zm8.31-6.689c7.106-.53 14.237-2.19 20.542-5.576 3.768-2.088 7.41-5.034 8.874-9.217.246-.944.42-1.874.48-2.858H39.852v17.884c1.71-.067 3.422-.074 5.126-.233zm29.802-18.747c.01-.947-.387-1.95-.647-2.765-1.154-2.173-2.666-4.286-4.68-5.793-5.725-4.522-12.958-6.59-20.052-7.757a85.396 85.396 0 0 0-9.55-.717v17.88H74.84l-.06-.848z" style="fill:#bcbcbc;stroke-width:1"/><path d="M37.496 43.605c-8.098-.276-16.321-1.8-23.562-5.556-4.26-2.292-8.538-5.653-9.721-10.578-.457-2.897-.19-5.868-.209-8.79.285-4.646 3.795-8.316 7.53-10.703 6.471-4.164 14.168-5.984 21.747-6.736C39.837.697 46.487.924 52.94 2.275c6.635 1.421 13.376 3.807 18.374 8.564 2.549 2.467 4.258 5.941 3.927 9.55-.102 3.352.518 6.977-1.342 9.988-2.62 4.56-7.403 7.353-12.134 9.313-7.68 3.068-16.038 4.122-24.268 3.915zm7.649-.324c7.718-.642 15.545-2.454 22.182-6.58 3.611-2.328 7.117-5.731 7.64-10.2.216-1.756.051-3.53.092-5.293-1.255 4.93-5.512 8.343-9.822 10.624-7.803 4.03-16.681 5.426-25.384 5.565v6.12c1.765-.066 3.532-.065 5.292-.236zm-.414-6.322c7.696-.554 15.457-2.382 22.139-6.342 3.059-1.952 5.925-4.455 7.35-7.875.444-1.095.537-2.31.696-3.477H39.88c-.051 5.953-.135 11.906-.11 17.86 1.659.013 3.31.016 4.961-.166zM74.88 18.79c-.134-1.476-.358-3.007-1.188-4.237C71.243 9.93 66.474 7.16 61.815 5.16c-6.95-2.83-14.487-3.975-21.962-4.026v17.883h35.07l-.031-.163z" style="fill:#6cb53f;stroke-width:1"/><path d="M37.538 43.604c-8.04-.278-16.196-1.779-23.403-5.466-3.998-2.14-8.004-5.123-9.58-9.543-1.015-3.054-.43-6.33-.586-9.489.136-4.55 3.377-8.29 6.986-10.723 6.404-4.352 14.143-6.23 21.746-7.09 8.762-.808 17.73-.17 26.13 2.55 5.214 1.768 10.499 4.303 13.96 8.729 1.879 2.297 2.687 5.292 2.448 8.231-.074 3.13.43 6.477-1.214 9.317-2.48 4.55-7.166 7.37-11.796 9.37-7.788 3.205-16.312 4.319-24.691 4.114zm1.901-3.16v-3.046c-9.503-.156-19.309-1.767-27.545-6.76-3.395-2.188-6.674-5.195-7.636-9.265.015 2.91-.43 6.023 1.131 8.652 2.297 4.358 6.712 7.116 11.088 9.08 7.212 3.13 15.135 4.36 22.962 4.386v-3.047zm5.375 2.882c7.761-.607 15.628-2.4 22.337-6.481 3.63-2.307 7.144-5.656 7.8-10.097.25-1.864.058-3.748.083-5.623-1.143 4.87-5.337 8.255-9.546 10.53-7.196 3.827-15.411 5.352-23.494 5.635-.745.181-2.49-.426-2.224.771v5.43c1.686.012 3.365.02 5.044-.165zm-.248-6.333c7.13-.476 14.288-2.099 20.651-5.417 3.71-2.012 7.269-4.769 8.992-8.74.473-1.145.576-2.428.701-3.654l-35.098.042c.011 5.957-.081 11.933-.004 17.878 1.426.194 3.224-.042 4.758-.109zm-5.127-8.798v-8.93H4.361c-.03 1.158.37 2.363.59 3.404 1.14 2.291 2.687 4.514 4.815 6.045 5.583 4.476 12.678 6.515 19.627 7.696 3.327.474 6.683.778 10.046.714v-8.93zm35.442-9.447c-.128-1.507-.355-3.036-1.21-4.279-2.575-4.72-7.493-7.539-12.322-9.508-6.843-2.698-14.243-3.838-21.579-3.803.037 5.954-.073 11.97.055 17.886 6.313.129 12.724.019 19.075.056h16.029l-.048-.352zm-35.442-8.66v-8.93c-7.88.002-15.865 1.288-23.103 4.488-4.551 2.03-9 5.056-11.22 9.663-.422 1.153-.755 2.434-.754 3.708H39.44v-8.93z" style="fill:#1f261a;stroke-width:1"/><path transform="scale(.26458)" d="M151.088 4.475v66.903h131.68l-.444-3.546c-.631-5.054-1.748-8.39-4.385-13.105-3.5-6.261-9.5-13.32-15.12-17.791C239.082 18.05 203.547 6.972 160.054 4.9l-8.967-.425zm0 68.793v66.711l5.506-.006c16.696-.02 41.238-3.627 58.191-8.553 37.124-10.789 62.473-30.217 66.903-51.274.514-2.444.935-4.992.935-5.662 0-1.196-1.16-1.216-65.768-1.216h-65.767z" style="opacity:1;vector-effect:none;fill:#fff;fill-opacity:1;fill-rule:nonzero;stroke:none;stroke-width:3.77952766;stroke-linecap:butt;stroke-linejoin:miter;stroke-miterlimit:4;stroke-dasharray:none;stroke-dashoffset:0;stroke-opacity:1"/></svg>