<svg xmlns="http://www.w3.org/2000/svg" width="500" height="975.754" viewBox="0 0 132.292 258.168"><defs><linearGradient id="a"><stop offset="0" style="stop-color:#b3ff80;stop-opacity:1"/><stop offset="1" style="stop-color:teal;stop-opacity:1"/></linearGradient><linearGradient id="b"><stop offset="0" style="stop-color:#ffb380;stop-opacity:1"/><stop offset="1" style="stop-color:#f0f;stop-opacity:1"/></linearGradient><linearGradient id="c"><stop offset="0" style="stop-color:#0f0;stop-opacity:1"/><stop offset="1" style="stop-color:green;stop-opacity:1"/></linearGradient></defs><path d="M0 0v84.97h56.681V66.145h75.596L132.157 0Zm0 88.124v81.92h37.751l.054-15.722 94.352-.052V88.124ZM0 173.2v84.97h37.753v-18.824h94.524l-.12-66.146z" style="fill:#fff;stroke-width:.10516018"/><path d="M0 0v321.145h214.229V250h285.716l-.453-250H0zm11.924 11.924h47.695V59.22H11.924V11.924zm71.543 0h47.693V59.22H83.467V11.924zm71.144 0h47.694V59.22H154.61V11.924zm71.541 0h47.696V59.22h-47.696V11.924zm71.543 0h47.297V59.22h-47.297V11.924zm71.145 0h47.693V59.22H368.84V11.924zm71.54 0h47.696V59.22h-47.695V11.924zM107.122 23.02c-.56.028-1.11.276-1.662.384-.711.27-1.574.25-2.164.748-.77.825-1.89 1.41-2.307 2.494-.293.889-.956 1.7-.83 2.68.583.146 1.166.291 1.748.438.84.102 1.866-.258 2.01-1.196.355-.535.337-1.437 1.055-1.613.632-.238 1.208-.675 1.892-.725.948-.159 1.793.17 2.569.686.707.463.702 1.56 1.113 2.285l-.992 3.59-8.916 9.104c-.625.503-1.082 1.11-.875 1.955v1.062h14.705V42.23l-1.203-.999-7.916.381 7.084-7.41c.498-.745.784-1.63 1.181-2.437.55-.84.454-1.835.45-2.795.22-1.112-.426-2.031-.918-2.967-.598-1.068-1.8-1.648-2.657-2.504l-2.804-.42a1.739 1.739 0 0 0-.563-.058zm71.654.025c-.887.047-1.75.397-2.62.584-1.175.29-2.014 1.255-2.915 2.004-.623.999-1.17 2.15-1.416 3.31.267.867 1.75.497 2.528.871 1.133.013.962-1.557 1.634-2.156.642-.527 1.325-1.358 2.182-1.426.746.06 1.575-.188 2.22.3.823.837 2.04 1.62 1.579 2.952-.1 1.072-.46 2.31-1.639 2.614-.884.443-1.885.297-2.797.552-.42.624-.386 2.016.274 2.563.86.245 1.791.103 2.652.377 1.377.319 2.006 1.89 1.916 3.181-.226 1.25-.966 2.635-2.281 2.987-1.07.654-2.3.248-3.422-.057l-2.19-2.51c-.69-1.257-2.014-.173-2.978.024l-.227 1.166c.649.888 1.174 1.871 1.91 2.691.946.853 2.014 1.716 3.335 1.844.955.358 1.956.311 2.947.129 1.166-.072 2.36-.266 3.357-.922 1.225-.794 2.348-1.923 2.791-3.344.57-1.124.36-2.407.39-3.617l-1.112-1.826c-.38-.975-1.476-1.203-2.323-1.606.535-.883 1.484-1.383 2.215-2.084.908-.875.625-2.258.844-3.386.095-.886-.709-1.649-.945-2.506-.254-.808-1.074-1.136-1.713-1.578-.973-.677-2.139-.93-3.297-1.06a3.256 3.256 0 0 0-.899-.071zm148.729.383-10.488.22c-.468 2.611-.896 5.228-1.375 7.836.07.815-.946 2.031.117 2.453 1.005.448 2.152.718 3.201.196.85-.46 1.842-.317 2.742-.117 1.025.048 1.974.5 2.406 1.492.388.454.745.864.614 1.488-.054.812.16 1.672-.223 2.428-.33.941-.808 1.872-1.855 2.168-.786.597-1.754.582-2.69.539-1.378-.54-2.722-1.164-4.088-1.736-.36.449-.73.892-1.082 1.347-.985.81.301 1.843 1.117 2.088.77.56 1.648.964 2.598 1.1.514.114 1.023.264 1.545.343 1.469-.106 2.893-.581 4.344-.837l2.06-1.809c1.091-.734 1.287-2.105 1.83-3.205.038-.97.024-1.943.02-2.914.141-1.423-.966-2.492-1.479-3.717l-2.603-1.537c-1.738-.24-3.517-.287-5.27-.451l.67-4.174h5.594c.802.109 1.572-.158 2.295-.483v-2.718zm-291.69.021-5.855 4.963c-.323.186-.455.508-.563.848l1.973 1.853c1.376-.93 2.696-1.938 4.004-2.96V42.13h-4.371V44.912h11.924v-2.781H38.95V23.449h-3.137zm219.352 0-3.775.035-9.895 13.28.104 1.261c-.084.732.539 1.195.945 1.721h9.441v5.166h3.18v-5.166h2.139c.705-.554.673-1.873.644-2.783h-2.783V23.449zm138.707 0-3.494 4.688c-1.164 1.753-2.676 3.267-3.668 5.134-.921 1.483-1.121 3.273-.979 4.981-.252 1.203.299 2.38.877 3.402.77 1.879 2.749 2.854 4.623 3.283.4.1.8.197 1.202.295.948-.16 1.92-.155 2.859-.377 1.744-.334 3.067-1.633 4.103-2.996 1.082-.926 1.097-2.451 1.282-3.752-.084-.807-.171-1.64-.346-2.441-.534-1.848-2.239-2.98-3.713-4.055h-2.492c-.635-.23-1.634.445-1.994-.324 1.945-2.71 4.221-5.163 6.213-7.838h-4.473zm62.805 0v1.397c-.088.64.297 1.193.482 1.783h10.344c.517-.135.278.232.144.527-2.81 5.458-5.653 10.901-8.476 16.354-.155.408-.523.763-.508 1.213.003.075.001.155.002.232l3.775-.242 9.286-18.633c.065-.866.026-1.756.054-2.63h-15.103zm-204.889 4.356.17 6.062c-.05.854.24 1.77-.143 2.572h-.002l-.199.524h-5.476c-.889.217-.387-.522-.194-1.049 1.925-2.719 3.9-5.404 5.844-8.11zm141.434 6.363c.161.003.324.017.484.043 1.032.32 2.232.741 2.736 1.783.25 1.034.91 2.18.332 3.219-.433.94-.772 2.223-1.941 2.465-1.417.797-3.248.646-4.467-.448-.993-.685-1.126-1.893-1.246-2.996-.101-1.038.43-2.027 1.002-2.855.837-.734 1.97-1.234 3.1-1.211zM83.467 71.138l47.494.206.205 47.496h-47.7V71.139zm118.838 0v47.702h-47.701l.205-47.496 47.496-.205zm23.847 0 47.496.206.206 47.496h-47.702V71.139zm190.381 0v47.702h-47.699l.203-47.496 47.496-.205zm-404.61.007H59.62v47.695H11.924V71.145zm285.772 0h47.297v47.695h-47.297V71.145zm142.686 0h47.695v47.695h-47.695V71.145zM107.34 82.666a6.259 6.259 0 0 0-1.38.166c-.965.169-1.933.263-2.688.963-.88.676-2.138 1.063-2.43 2.266-.45 1.122-1.197 2.179-1.1 3.453-.174 1.313.311 2.542 1.003 3.638.546 1.398 2.131 1.81 3.19 2.705l4.9-.302c-1.78 2.228-3.565 4.451-5.33 6.691l-1.81 2.285h3.474c.852.23 1.438-.488 1.937-1.056.793-.996 1.48-2.085 2.225-3.121 1.268-1.907 2.744-3.683 3.754-5.75.394-.964 1.205-1.83 1.13-2.926-.092-1.27.1-2.546-.044-3.81-.374-1.219-.935-2.481-1.951-3.302-.962-.91-2.217-1.447-3.518-1.654a3.695 3.695 0 0 0-1.361-.246zm-70.577.016a6.8 6.8 0 0 0-1.79.177c-1.153-.12-2.22.474-3.146 1.092-1.225.533-1.699 1.864-2.357 2.914-.113 1.047-.049 2.122-.065 3.18.008 1.396 1.522 1.946 2.285 2.892.44 1.04-1.23 1.127-1.783 1.663-.818.978-1.317 2.255-1.34 3.537-.053 1.079.073 2.19.71 3.105.84 1.925 2.869 3.01 4.865 3.328.296.053.589.128.884.186 2.006.193 3.987-.447 5.871-1.069l2.23-2.54c.532-1.457.23-3.053.145-4.565-.235-.848-.852-1.578-1.492-2.176-.408-.664-1.848-.56-1.62-1.482.93-.276 1.799-.812 2.028-1.862.54-.949 1.07-2.093.573-3.181-.098-1.887-1.468-3.579-3.217-4.229-.79-.642-1.777-.932-2.781-.97zm150.394.002c-1.731.08-3.414.904-4.681 2.084-1.512 1.173-2.007 3.095-2.526 4.841-.235 1.984-.038 4.006-.092 6.004-.2 1.754.23 3.52 1.123 5.033.93 1.921 2.618 3.655 4.829 3.913.2.078.408.136.619.173 2.408.192 5.12-.561 6.547-2.648 1.445-1.398 1.94-3.433 2.158-5.367.344-1.896.548-3.863.045-5.754-.114-2.001-.987-3.853-1.94-5.574-1.127-1.266-2.68-2.193-4.35-2.524a5.695 5.695 0 0 0-1.732-.181zm143.662.02c-2.342-.113-4.779.825-6.271 2.64-1.032 1.05-1.965 3.15-.258 4.05 1.945.737 2.664-1.664 3.613-2.808 1.454-1.1 4.044-1.08 5.04.644 1.001 1.65-.03 3.51-.419 5.178l-6.984 7.131c-.906 1.317-2.935 2.075-2.807 3.93v1.062c2.781-.004 5.561 0 8.342 0 1.784-.042 3.569.059 5.348-.04 1.89-.175 1.164-3.09-.188-3.643l-7.761.375c.12-.497 1.405-1.522 1.966-2.213 2.13-2.42 4.915-4.43 6.135-7.518.921-2.147.61-4.77-.949-6.543-1.22-1.437-2.985-2.159-4.807-2.246zm70.53.025c-2.194.103-4.427.978-5.715 2.816-.375 1.05-1.88 2.396-.813 3.453 1.237.727 2.988.555 3.44-1.05.635-1.786 2.95-2.704 4.623-1.827 1.144.702 2.087 1.948 1.63 3.367-.148 1.28-1.05 2.49-2.437 2.432-1.303-.152-2.88.853-2.158 2.297.925 1.26 2.76.53 3.9 1.394 1.278.95 1.48 2.85.668 4.164-.866 1.85-3.403 2.37-5.144 1.569-.879-.793-1.58-1.767-2.36-2.656-1.04-1.304-3.506.092-2.935 1.652 1.111 1.894 2.755 3.827 5.045 4.195.971.351 2.028.27 3.033.147 2.65-.056 5.145-1.788 6.074-4.278.975-2.22.262-5.003-1.695-6.441-1.934-.261-.645-1.9.54-2.315 1.356-1.488 1.485-3.81.606-5.57-.895-2.114-3.22-3.103-5.369-3.348a9.397 9.397 0 0 0-.933-.001zm-87.211.26c-.943-.02-2.02.293-2.678.81-1.596 1.921-4.055 2.955-5.436 5.078l1.973 1.853c1.375-.93 2.696-1.937 4.004-2.959v13.977h-4.371v2.783h11.924v-2.783h-3.975c-.003-6.113.007-12.231-.008-18.34-.349-.277-.866-.408-1.431-.42h-.002zm71.187.04c-.61 0-1.214.084-1.744.354-1.576 1.46-3.284 2.77-4.904 4.181-1.833.908-.185 2.431.863 3.166 1.375-.93 2.696-1.937 4.004-2.959v13.977h-4.373v1.393h.002v1.39h11.924v-2.783h-3.975V86.332c-.019-1.049.03-2.133-.023-3.154-.55-.064-1.164-.148-1.774-.149zm-215.568.04c-1.63 1.374-3.25 2.763-4.883 4.134-1.855.543-1.362 2.668.19 3.297 1.774-.232 2.79-1.893 4.251-2.729v13.977h-2.265c-.947-.2-2.676.017-2.108 1.393v1.39h11.924v-2.783h-3.974v-18.68h-3.135zm71.54 0-4.948 4.193c-.511.523-1.306.844-1.47 1.615l1.974 1.853c1.375-.93 2.695-1.936 4.003-2.959v13.977h-4.37v2.783h11.923v-2.783h-3.974v-18.68h-3.137zm17.093 0-4.95 4.193c-.51.523-1.305.844-1.468 1.615l1.972 1.853c1.376-.93 2.696-1.936 4.004-2.959v13.977h-4.373v2.783H265.5v-2.783h-3.975v-18.68h-3.134zm197.138 0c-1.648 1.394-3.294 2.793-4.943 4.187-1.954.594-.967 2.898.496 3.474 1.375-.93 2.696-1.936 4.004-2.959v13.977h-4.371v2.783h11.924v-2.783h-3.975v-18.68h-3.135zm22.61 0-3.776.035-8.668 11.632c-1.37 1.133-1.688 3.457-.177 4.627h9.441v2.584l.002 2.584h3.18v-2.023c.148-1.021-.325-2.14.224-3.08 1.638.63 3.23-1.32 2.557-2.846h-2.783V83.068zm-442.46 2.4c.617-.01 1.247.158 1.83.33.733.297 1.702.822 1.63 1.736-.12 1.147.409 2.695-.756 3.451l-.748.826h-1.801c-.831.215-1.65-.24-2.18-.865-.914-.69-.629-1.835-.668-2.84-.197-1.24 1.165-1.99 2.084-2.564.2-.049.404-.071.61-.074zm151.856.342c1.006-.051 2.007.318 2.621 1.216.828 1.515 1.229 3.29 1.48 4.994-.13 1.805-.144 3.621-.312 5.424-.416 1.397-.805 3.315-2.37 3.852l-.268.142-.28.124c-1.844.809-3.777-.839-4.35-2.526-.915-2.16-.41-4.525-.595-6.787.023-1.77.303-3.702 1.418-5.133.637-.785 1.65-1.256 2.656-1.306zm-79.492.021c.819.073 1.351.899 1.963 1.389 1.004.782.61 2.177.963 3.244l-1.069 1.27c-.228.37-.496.726-.851.984-.885.643-1.996.109-2.994.277-1.194.012-2.12-.942-2.307-2.086-.616-1.123-.272-2.338.078-3.482l2.004-1.578h1.844c.13-.024.252-.028.369-.018zm366.531 1.852c.44.367.158 2.027.262 2.894-.074 1.824.38 3.678-.049 5.48-.067.175-.132.35-.2.524h-3.39c-.79-.171-2.606.552-2.459-.754 1.881-2.76 3.895-5.427 5.836-8.144zM34.182 94.992h2.892c1.267-.06 1.791 1.303 2.672 1.951v1.44c.213.905-.176 1.898-.976 2.39l-.975.975h-2.3c-1.248.369-1.98-.909-2.725-1.654-.385-1.133-.229-2.343-.178-3.512l1.59-1.59zm-22.258 35.772h47.695v47.693H11.924v-47.693zm71.543 0h47.693v47.693H83.467v-47.693zm71.144 0h47.694v47.693H154.61v-47.693zm71.541 0h47.696v47.693h-47.696v-47.693zm71.543 0h47.297v47.693h-47.297v-47.693zm71.145 0h47.693v47.693H368.84v-47.693zm71.54 0h47.696v47.693h-47.695v-47.693zm-109.99 11.091c-1.267.264-2.705.133-3.785.926-1.176.809-2.626 1.402-2.978 2.93-.584 1.135-1.073 2.303-.885 3.607-.213 1.232.602 2.238 1.094 3.297.6 1.202 2.081 1.618 3.072 2.463 1.634-.1 3.267-.202 4.9-.303-1.78 2.228-3.564 4.452-5.33 6.692-.604.76-1.207 1.523-1.81 2.285h4.291c1.21-.886 1.945-2.23 2.82-3.418 1.511-2.326 3.355-4.451 4.52-6.986.82-1.212 1.028-2.58.883-4.026.094-1.462.045-2.91-.873-4.123-.367-1.062-1.425-1.562-2.23-2.252-1.097-.623-2.466-.834-3.688-1.092zm-71.658.045a7.13 7.13 0 0 0-.947.047c-2.343.242-4.74 1.564-5.553 3.887-.395 1.5-.578 3.294.268 4.674.87.651 2.457 1.67 1.11 2.818-1.535.505-2.246 1.97-2.426 3.543-.604 3.362 2.235 6.603 5.535 6.922.432.129.883.19 1.334.205 2.087-.065 4.36-.292 6.006-1.725 1.389-1.11 2.248-2.888 1.972-4.68-.217-1.174-.094-2.582-1.078-3.44-.522-.663-3.178-1.647-1.562-2.204 2.266-1.546 2.712-4.981 1.105-7.162-1.301-1.806-3.544-2.848-5.764-2.885zm125.65.004c-1.962.027-3.932.784-5.306 2.17-.894 1.016-2.044 2.43-1.61 3.86.874 1.192 3.081.779 3.616-.553.48-2.683 4.7-3.196 5.953-.854.96 1.64-.098 3.452-.455 5.102-2.351 2.438-4.782 4.809-7.084 7.289-.98 1.179-2.814 1.995-2.709 3.771h.002c.004.354 0 .709.002 1.063 4.604-.011 9.208.022 13.813-.014 1.69.01 1.04-3.228-.311-3.67l-7.916.383c1.473-1.537 2.94-3.081 4.414-4.619 1.882-1.792 3.813-3.835 4.232-6.512.592-2.291-.565-4.684-2.359-6.103-1.233-.912-2.755-1.334-4.281-1.313zm71.868.016c-2.38-.057-4.806.943-6.24 2.865-.6.925-1.488 2.14-.955 3.268.897 1.042 2.922.684 3.46-.57.49-2.697 4.744-3.359 6.057-.967.978 1.64-.096 3.46-.45 5.113l-7.058 7.205c-.878 1.289-2.905 2.035-2.734 3.855.004.355 0 .709.002 1.063 4.66-.007 9.322.016 13.98-.016 1.491-.221.82-3.214-.476-3.668l-7.916.381c1.473-1.513 2.903-3.066 4.371-4.584 1.905-1.796 3.84-3.866 4.275-6.554.614-2.628-.864-5.402-3.197-6.645a7.475 7.475 0 0 0-3.119-.746zm-55.271.023c-1.726.077-3.409.744-4.61 2.05-1.358.91-1.844 2.54-2.344 4.009-.556 1.06-.27 2.29-.35 3.441.126 2.303-.34 4.682.415 6.914.941 2.456 2.73 5.082 5.553 5.422.811.315 1.697.238 2.54.125 3.067-.306 5.595-2.82 6.358-5.734.426-1.997.837-4.042.727-6.094-.254-2.645-.75-5.429-2.368-7.61-1.416-1.745-3.704-2.622-5.921-2.523zm-372.797.31c-1.083.003-2.058.591-2.76 1.435-1.48 1.589-3.607 2.525-4.77 4.41l1.973 1.853c1.375-.93 2.696-1.937 4.004-2.959v13.977h-4.371v2.783h11.924v-2.783h-3.975v-18.68h-1.555a3.023 3.023 0 0 0-.47-.035zm22.295.013-9.34.197c-1.666-.477-1.24 1.472-1.59 2.539-.322 1.482-.43 3.016-.77 4.482-.375 1.1-.854 2.673.264 3.498 1.829.809 3.699-.646 5.564-.23 1.698.166 3.112 1.673 3.141 3.385.08 1.676-.474 3.558-2.092 4.353-1.506.93-3.345.38-4.799-.365-1.12-1.173-3.122-.651-3.378 1.03.398 1.604 2.53 2.184 3.994 2.615 1.33.509 2.785.217 4.133-.09 1.37-.16 2.497-.998 3.51-1.875 1.78-1.461 2.36-3.88 2.2-6.092-.015-2.1-1.223-4.12-3.1-5.076-1.656-1.065-3.674-.585-5.497-.975-1.575-.743.073-2.876-.13-4.193h1.89c1.995-.156 4.116.403 6-.483v-2.72zm192.748.004c-1.037-.012-2.095.013-2.91.75-1.596 1.921-4.056 2.955-5.434 5.078l1.973 1.853c1.375-.93 2.696-1.937 4.003-2.959v13.977h-4.37v2.783h11.923v-2.783h-3.974v-17.15c-.087-.502.194-1.224-.192-1.55-.331.014-.674.004-1.02 0zm-144.612.02c-1.649 1.394-3.294 2.792-4.943 4.187-1.954.594-.964 2.897.498 3.474 1.375-.93 2.696-1.937 4.004-2.959v13.977h-4.373v2.783h11.924v-2.783h-3.975v-18.68h-3.135zm18.235 0c-.973 1.312-1.956 2.616-2.932 3.927-1.744 2.662-4.323 4.916-5.086 8.115-.233 1.96-.448 4.127.582 5.912.794 1.97 2.804 3.098 4.793 3.533.8.318 1.682.25 2.518.15 2.155-.053 4.168-1.213 5.443-2.927 1.315-1.371 1.61-3.37 1.373-5.19-.059-2.432-2.078-4.123-3.945-5.359h-1.53c-.952-.269-2.227.549-2.931-.377 1.958-2.677 4.202-5.13 6.19-7.785h-4.475zm52.91 0c-2.003 1.693-4.001 3.396-6.006 5.085-1.021 1.055 1.03 1.734 1.56 2.576 1.375-.931 2.697-1.937 4.004-2.959v13.977h-4.373v2.783h11.924v-2.783h-3.974v-18.68h-3.135zm10.75 0c-1.048.317-.308 2.342.021 3.179h8.793c.62.057 1.322-.127 1.881.094-2.259 4.548-4.668 9.056-7 13.582-.687 1.485-1.65 2.874-2.168 4.417.73.491 2.639-.087 3.776-.01l8.84-17.738c.74-1.035.406-2.339.5-3.525h-14.643zm131.935 0-4.226 3.581c-.74.734-1.823 1.211-2.192 2.227l1.973 1.853c1.375-.93 2.696-1.937 4.004-2.959v13.977h-4.371v2.783h11.924v-2.783h-3.975v-18.68h-3.137zm160.176 0c-1.597 1.35-3.192 2.707-4.789 4.058-1.927.494-1.285 3.116.344 3.603 1.375-.93 2.696-1.937 4.004-2.959v13.977h-4.373v2.783h11.924v-2.783h-3.975v-18.68h-3.135zm-213.807 2.425c.8.026 1.593.295 2.19.8 1.085 1.283 1.106 3.428-.043 4.692-.98 1.387-2.966.958-4.3.422-1.164-.925-1.466-2.64-.983-3.998.46-1.327 1.804-1.959 3.137-1.916zm142.342.32c.447-.045.906.002 1.352.16 1.809.592 2.31 2.637 2.586 4.3.671 2.12.164 4.337.11 6.503-.23 1.688-.682 3.768-2.419 4.52-.751.517-1.749.61-2.592.271-2.248-.998-2.89-3.7-2.878-5.943.108-2.482-.333-5.116.74-7.45.52-1.264 1.761-2.226 3.101-2.36zm-72.351.037h2.554c.481.263.881.742 1.33 1.088.528.401 1.021.82.942 1.559.35 1.223.395 2.424-.756 3.236-.731 1.008-1.139 1.504-2.45 1.26-1.19.066-2.759.049-3.366-1.12-.325-1.183-1.097-2.366-.473-3.593.088-1.24 1.444-1.652 2.219-2.43zm-212.848 7.96c.84-.029 1.687.19 2.387.675 2.288 1.58 2.04 5.67-.533 6.81-1.166.655-2.782.694-3.938-.015-1.806-1.089-2.208-3.58-1.332-5.39.636-1.307 2.016-2.034 3.416-2.08zm142.227 1.073c.437-.013.872.031 1.271.122 2.717.063 4.036 4.113 1.893 5.767-1.036 1.497-2.87.976-4.371.809-1.767-.745-2.317-3.009-1.735-4.705.313-1.392 1.63-1.952 2.942-1.993zM11.924 190.381h47.695v47.695H11.924v-47.695zm71.543 0h47.699l-.205 47.496-47.494.205v-47.701zm71.144 0h47.694v47.695l-47.43-.265-.264-47.43zm71.541 0h47.702l-.206 47.496-47.496.205v-47.701zm71.543 0h47.297v47.695h-47.297v-47.695zm71.145 0h47.693v47.695l-47.43-.265-.263-47.43zm71.54 0h47.696v47.695h-47.695v-47.695zM99.446 201.52a8.242 8.242 0 0 0-4.021.904c-1.594.79-2.697 2.263-3.4 3.851-.71 1.401 1.228 2.356 2.384 1.928 1.367-.819 1.626-3.167 3.549-3.44 1.93-.682 4.084.916 4.24 2.895l-.992 3.59-7.455 7.613c-.82 1.095-2.56 1.846-2.336 3.448v1.062l13.762-.002c1.734.035 1.134-3.255-.258-3.681l-7.67.369c.499-1.066 1.522-1.764 2.299-2.62 1.76-2.142 4.17-3.79 5.396-6.337 1.284-2.431 1.128-5.763-1-7.678-1.17-1.252-2.814-1.847-4.498-1.902zm213.635.017c-1.909-.024-3.844.638-5.277 1.877-1.014 1.157-2.848 2.845-1.643 4.445 1.313 1.151 3.165-.111 3.621-1.539 1.024-2.272 4.715-2.207 5.791-.023.934 1.589-.244 3.28-.513 4.875-2.305 2.51-4.796 4.85-7.098 7.355-.967 1.194-2.836 1.994-2.715 3.782v1.062c4.565.01 9.129-.019 13.693.012 1.824.062 1.202-3.234-.191-3.696l-5.271.254c-.623-.174-2.69.593-2.207-.34a153.11 153.11 0 0 0 3.138-3.318c2.252-2.198 4.863-4.593 5.162-7.926.32-2.439-1.077-4.848-3.195-6.011-1.013-.534-2.15-.794-3.295-.809zm-285.7.002a8.977 8.977 0 0 0-4.232 1.285c-1.238 1.022-2.464 2.355-2.707 4.004-.223 1.988 3.183 1.826 3.623.193.572-2.639 4.766-3.257 6.055-.875.973 1.64-.106 3.451-.455 5.102l-7.123 7.272c-.866 1.26-2.856 1.994-2.668 3.789-.002.354 0 .708 0 1.062 4.813 0 9.633 0 14.44-.004.633-1 .419-3.158-.938-3.68l-7.916.381c1.74-1.835 3.505-3.644 5.242-5.482 1.575-1.488 2.939-3.314 3.365-5.482.73-2.661-.788-5.489-3.11-6.811a6.96 6.96 0 0 0-2.938-.754 8.134 8.134 0 0 0-.637 0zm88.934 0c-2.19-.026-4.404.829-5.783 2.535-.67.91-1.322 1.989-1.402 3.12.465 1.194 2.295 1.44 3.215.626.422-1.016.929-2.146 2.01-2.662.928-.447 2.178-.91 3.113-.262 1.136.891 2.314 2.229 1.578 3.768-.28 2.129-2.413 2.072-4.004 2.426-1.822 1.384.57 3.284 2.195 2.937 1.867.017 2.744 2.33 2.166 3.891-.422 1.6-2.004 2.653-3.627 2.625-1.682.2-2.787-1.25-3.675-2.451-.862-2.044-4.204-.759-3.405 1.273 1.287 1.701 2.736 3.708 5.026 4.008.888.334 1.857.269 2.783.174 2.459-.005 4.858-1.371 5.992-3.574 1.367-2.309.892-5.677-1.433-7.182-2.101-.823.453-2.253 1.25-3.025.831-1.713.594-3.852-.364-5.471-1.28-1.82-3.445-2.73-5.635-2.756zm125.346 0c-2.376.055-4.746 1.15-6.076 3.147-.506.861-1.264 1.958-.768 2.972.89 1.059 2.93.703 3.471-.556.492-2.701 4.761-3.366 6.063-.956.961 1.64-.1 3.453-.457 5.102l-7.194 7.346c-.856 1.227-2.795 1.966-2.597 3.715-.002.354 0 .708 0 1.062 4.55-.005 9.1.01 13.65-.014 1.898.204 1.239-3.197-.148-3.67l-7.917.381c1.647-1.719 3.289-3.442 4.932-5.164 1.588-1.438 2.987-3.176 3.545-5.285 1.05-2.89-.598-6.279-3.36-7.496a7.597 7.597 0 0 0-3.144-.584zm143.121 0a8.632 8.632 0 0 0-4.586 1.215c-1.396.963-2.592 2.464-2.857 4.172-.064 1.977 3.399 1.628 3.734-.074.653-2.545 4.723-3.007 5.963-.706.973 1.64-.106 3.451-.455 5.102l-7.01 7.156c-.883 1.313-2.957 2.057-2.783 3.905.004.354.003.708.004 1.062 4.81.001 9.63-.004 14.434 0 .647-.99.424-3.164-.932-3.684l-6.95.334c-1.032.314-.58-.447-.095-.896 1.481-1.458 2.86-3.01 4.332-4.479 1.655-1.534 3.044-3.465 3.451-5.726.471-2.067-.335-4.264-1.904-5.656-1.176-1.154-2.741-1.685-4.346-1.725zm71.272.004c-1.544.002-3.104.447-4.37 1.273-1.368.95-2.578 2.414-2.806 4.106.07 1.903 3.193 1.66 3.705.094.507-2.668 4.727-3.233 5.994-.87.95 1.642-.09 3.454-.455 5.102-2.35 2.439-4.785 4.808-7.084 7.291-.974 1.184-2.816 1.988-2.707 3.77-.002.354 0 .708 0 1.062l10.32-.002c1.377-.145 2.93.32 4.182-.289.711-1.086.186-2.855-.996-3.393l-4.399.211c-.9-.295-2.817.781-3.027-.31 1.134-1.252 2.319-2.457 3.485-3.678 1.784-1.8 3.775-3.614 4.468-6.15.693-1.992.319-4.299-1.095-5.889-1.27-1.6-3.23-2.33-5.215-2.328zm-410.969.016a8.601 8.601 0 0 0-.643.007c-1.03.051-2.06.28-2.99.618-1.908.758-3.216 2.49-3.947 4.347-.58 1.633 1.977 2.158 3.016 1.395.658-1.397 1.613-3 3.296-3.22 1.87-.508 3.762 1.105 3.93 2.952l-.992 3.59-7.627 7.79c-.783 1.02-2.422 1.759-2.164 3.27v1.063c4.813 0 9.635 0 14.441-.004.634-1 .42-3.158-.937-3.68-2.639.128-5.28.254-7.918.381 2.326-2.462 4.717-4.865 6.996-7.37.866-1.307 1.567-2.805 1.738-4.384.291-1.977-.645-3.931-2.133-5.205-1.112-1.066-2.569-1.512-4.066-1.55zm125.398 0c-2.809-.139-5.7 1.341-6.918 3.935-1.547 1.531.614 3.627 2.286 2.545 1.007-1.135 1.578-2.884 3.207-3.285 1.943-.663 4.124.899 4.285 2.904l-.992 3.59-7.405 7.56c-.831 1.118-2.603 1.87-2.386 3.5-.002.355 0 .709 0 1.063 4.569.017 9.138-.035 13.707.022 1.806-.02 1.196-3.246-.203-3.706l-7.917.381c1.917-1.973 3.77-4.005 5.715-5.949 2.3-2.148 3.827-5.594 2.627-8.687-.984-2.35-3.455-3.944-6.006-3.873zm302.09.029c-1.452.072-2.91.397-4.09 1.266-2.141 1.454-2.944 4.468-1.964 6.83.276 1.256 2.683 1.518 1.552 3.015-1.47.745-2.586 2.05-2.67 3.836-.558 3.344 2.265 6.557 5.547 6.873 1.572.437 3.211.14 4.764-.224 2.458-.57 4.7-2.817 4.564-5.457-.1-1.2-.108-2.512-.777-3.553-.542-.967-2.298-1.561-2.486-2.233 2.923-1.432 3.605-5.834 1.261-8.091-1.164-1.12-2.642-2.037-4.261-2.262a15.238 15.238 0 0 0-1.44 0zm-77.578.273c-.981.043-1.572 1.08-1.045 2.08.045.974.59 1.328 1.461 1.147 3.208.043 6.422-.11 9.625.09-1.526 3.081-3.12 6.13-4.71 9.177-1.446 2.962-3.169 5.79-4.46 8.825v.002l.002.232 3.776-.242 7.904-15.861c1.03-1.603 1.695-3.468 1.435-5.403h-13.545a1.59 1.59 0 0 0-.443-.047zm-130.289.024-10.158.215c-.844.547-.55 2.417-.938 3.488-.356 1.68-.45 3.405-.949 5.049-.82 1.902 1.838 2.658 3.197 2.027 1.9-.753 4.536-.42 5.674 1.443.728 1.596.582 3.658-.498 5.069-1.28 1.637-3.683 1.707-5.433.851-1.09-1.087-3.364-1.438-3.793.506.044 1.942 2.428 2.346 3.892 2.854 1.558.61 3.262.108 4.826-.217 2.445-.908 4.656-3.005 4.92-5.715.503-2.608-.273-5.731-2.765-7.062-1.54-1.043-3.436-.886-5.194-.997-2.168-.26-.745-2.747-.65-4.052-.058-.538.91-.128 1.295-.256 2.186-.181 4.494.435 6.574-.483v-2.72zm-71.94.023-3.775.033-8.478 11.381c-1.45 1.112-1.968 3.67-.367 4.881h9.44v5.168h2.942c.511.031.114-.845.239-1.2.095-1.18-.166-2.377.066-3.544 1.33-.045 3.581-1.396 2.717-3.205h-2.783v-13.514zm138.311 0-2.351 3.155c-1.787 2.693-4.262 4.975-5.413 8.052-.551 2.058-.737 4.382.141 6.381.773 2.119 2.834 3.475 4.98 3.9.284.111.585.178.887.211 1.627.033 3.354-.098 4.787-.947 1.598-1.02 3.081-2.497 3.532-4.396.434-2.042.282-4.428-1.215-6.024-.926-.862-1.875-2.117-3.211-2.181-1.284-.241-2.755.487-3.897-.313 1.976-2.693 4.232-5.165 6.235-7.838h-4.475zm142.057 2.41c.562.03 1.116.187 1.594.479 1.657 1.028 1.71 3.648.46 5.027-.626.818-1.75 1.058-2.728.908-2.076-.075-3.287-2.386-2.627-4.238.332-1.29 1.496-2.038 2.738-2.162.187-.018.376-.023.563-.014zm-283.916 2.407c.122.024.209.217.236.673-.178 2.5.41 5.015-.039 7.498h.002l-.102.264-.1.262h-2.978c-.915-.256-2.744.676-2.877-.744 1.437-2.11 2.952-4.164 4.453-6.229.355-.358 1.039-1.798 1.405-1.724zm140.855 5.92c.57-.04 1.15.038 1.688.253 3.045 1.027 3.184 5.959.277 7.237-.775.393-1.664.59-2.531.484-2.295-.217-3.632-2.796-3.09-4.902.3-1.77 1.945-2.954 3.656-3.072zm142.688 1.091c.48.006.953.065 1.377.155 2.44.513 3.438 4.16 1.437 5.722-.844 1.364-2.526.985-3.85.934-2.139-.353-2.892-2.994-2.267-4.828.368-1.542 1.864-2 3.303-1.983zM11.924 261.924h47.695v47.297H11.924v-47.297zm71.543 0h47.693v47.297H83.467v-47.297zm32.703 11.152a6.773 6.773 0 0 0-2.02.225c-3.25.818-5.4 3.958-5.812 7.168.075 2.546-.237 5.117.07 7.66.523 3.05 2.599 6.286 5.86 6.81 3.374.939 7.046-1.175 8.421-4.293 1.5-4.008 1.643-8.594.114-12.619-.787-2.918-3.69-4.842-6.633-4.95zm-16.85.002c-2.344-.045-4.726.942-6.14 2.867-.886 1.019-1.857 3.109-.041 3.748 1.785.86 2.561-1.17 3.22-2.38 1.275-1.262 3.697-1.725 4.914-.127 1.697 1.496.792 4.755-1.437 5.156-1.695-.79-3.498 2.096-1.621 2.922 1.322.432 3.284.05 3.933 1.619 1.15 2.14-.598 4.848-2.86 5.224-1.75.38-3.218-.94-4.106-2.302-.632-1.953-4.095-1.25-3.666.822 1.179 1.9 2.766 3.915 5.115 4.289 1.207.323 2.484.314 3.709.096 2.215-.286 4.259-1.675 5.187-3.729.953-1.94.903-4.581-.687-6.162-1.146-.648-2.163-2.329-.453-3.004 2.066-1.75 1.678-5.223-.135-7.013-1.307-1.33-3.108-1.99-4.932-2.026zm71.145 0a7.686 7.686 0 0 1 2.18.356c2.456.707 4.452 3.049 4.275 5.681.051 1.59-1.053 2.794-2.201 3.664-.525 1.655 1.652 2.169 2.094 3.512 1.497 3.231-.593 7.323-3.91 8.379-2.49.782-5.5.752-7.637-.904-1.075-.915-2.058-2.054-2.635-3.33-.147-1.667 2.303-2.361 3.338-1.243.661 1.181 1.58 2.36 2.914 2.823 2.717.908 5.693-2.295 4.51-4.932-.622-1.91-2.95-1.252-4.344-1.998-1.356-1.117.441-3.484 1.931-2.744 2.15-.388 3.082-3.45 1.588-5.012-.795-1.138-2.36-1.436-3.605-.928-1.583.345-1.836 2.073-2.842 3.07-1.13 1.127-3.472-.209-2.767-1.786 1.012-2.892 4.104-4.716 7.11-4.608zm-143.012.01c-1.89.037-3.809.7-5.183 2.008-.858 1.075-1.962 2.316-1.891 3.761.544 1.34 3.006 1.295 3.533-.07.514-2.714 4.799-3.583 6.207-1.139.946 1.655-.075 3.483-.455 5.141l-7.344 7.5c-.84 1.148-2.654 1.898-2.447 3.56-.002.355 0 .709 0 1.063 4.586.013 9.17-.025 13.756.016 1.72.047 1.147-3.28-.254-3.7l-7.916.383c1.595-1.65 3.162-3.33 4.758-4.98 1.987-1.766 3.737-4.06 3.963-6.799.363-2.031-.726-4.007-2.262-5.268-.959-.997-2.332-1.31-3.658-1.453a8.555 8.555 0 0 0-.807-.023zm16.897.008c-1.297.003-2.591.316-3.715.949-1.287.677-2.424 1.684-2.912 3.092-1.645 2.772-.668 6.819 2.228 8.338 1.787 1.356 4.072.367 6.088.46-1.78 2.228-3.567 4.452-5.332 6.692-.453.57-.905 1.141-1.357 1.713-.831.678-.084.593.53.572 1.348-.112 2.885.405 4.022-.545 1.44-1.9 2.794-3.877 4.176-5.824 1.588-2.446 3.672-5.048 3.361-8.148.175-1.686-.254-3.46-1.373-4.772-1.39-1.678-3.556-2.533-5.716-2.527zm142.525.289h3.137v18.681h3.974v2.782h-11.923v-2.782h4.37v-13.978c-1.308 1.022-2.628 2.03-4.003 2.96-.525-.837-2.496-1.47-1.62-2.536 2.036-1.692 4.041-3.421 6.065-5.127zm-142.354 2.744c.844.011 1.664.31 2.276.965 1.352 1.231 1.895 3.756.307 5.023-.602 1.595-2.437 1.266-3.778 1.272-1.946-.041-2.81-2.298-2.701-3.963.078-1.965 2.042-3.322 3.896-3.297zm71.788.037c1.1.086 2.127.812 2.63 1.818 1.213 2.521 1.245 5.438.948 8.17-.094 2.024-.452 4.523-2.477 5.524a2.716 2.716 0 0 1-1.27.457c-2.176.146-3.639-2.009-4.003-3.928a38.655 38.655 0 0 1-.104-6.996c.027-2.038 1.082-4.296 3.166-4.904.368-.128.743-.17 1.11-.141z" style="fill:#fe5f5f;stroke-width:.39745575" transform="scale(.26458)"/><path d="m0 654.61.002 321.144h142.685v-71.145h357.258l-.453-250H0zm11.924 11.923h47.701l-.205 47.496-47.496.205v-47.7zm71.54 0h47.702l-.205 47.496-47.496.205v-47.7zm71.145 0h47.696v47.696l-47.43-.266-.266-47.43zm71.543 0h47.702l-.206 47.496-47.228-.062-.268-47.434zm71.543 0h47.297v47.696h-47.297v-47.696zm71.145 0h47.7l-.206 47.496-47.227-.062-.267-47.434zm71.54 0h47.702l-.205 47.496-47.496.205v-47.7zm-261.247 11.14c-.756-.026-1.511.121-2.238.343a6.87 6.87 0 0 0-3.659 2.254c-.655.975-1.11 2.11-1.42 3.246.735.871 2.091 1.066 3.121.656.497-.64.715-1.445 1.208-2.086.625-.642 1.423-1.252 2.363-1.264 1.17-.202 2.178.452 2.93 1.293.934.892.496 2.274.24 3.36-.509 1.211-1.945 1.532-3.125 1.627-.987-.194-1.56.872-1.262 1.72.098 1.104 1.27 1.2 2.152 1.219 1.068-.013 2.17.487 2.584 1.527.634 1.134.395 2.539-.341 3.56-1.068 1.58-3.375 2.058-5 1.07-.937-.678-1.516-1.73-2.327-2.548-.818-.894-2.637-.238-3.029.834.037 1.159.959 1.976 1.606 2.842.88 1.104 2.155 2.01 3.584 2.2 1.06.423 2.245.218 3.367.103 2.69-.14 5.163-2.102 5.902-4.692.345-1.352.477-2.944-.346-4.154-.534-.795-.96-1.837-1.996-2.064-1.516-.354.003-1.46.678-1.875 1.11-.627 1.415-1.905 1.412-3.094.307-1.105-.197-2.182-.748-3.115-.381-1.012-1.322-1.622-2.252-2.074-.79-.52-1.737-.633-2.648-.797a4.573 4.573 0 0 0-.756-.09zm-72.34.003c-.93.274-1.903.437-2.826.75-.965.375-1.621 1.272-2.4 1.93-.627.95-1.235 2.032-1.383 3.185.608.903 1.906 1 2.857.658 1.052-.432.922-1.852 1.729-2.539 1.124-.707 2.63-1.164 3.906-.572 1.216.327 1.474 1.706 1.867 2.723-.326 1.18-.65 2.36-.977 3.539-2.609 2.753-5.304 5.42-7.94 8.148-.727.88-2.167 1.617-1.864 2.961-.002.354 0 .71 0 1.064h14.705v-1.628c.308-.929-.524-1.593-1.203-2.055l-7.916.38c2.063-2.14 4.093-4.312 6.168-6.44.942-.78 1.448-1.898 1.92-2.995.752-1.177.673-2.628.63-3.965-.348-2.108-2.028-3.728-3.822-4.734-1.14-.2-2.286-.454-3.451-.41zm220.71.363-10.487.22c-.322 1.793-.623 3.588-.936 5.382-.229.967-.222 1.973-.539 2.918-.376.876-.363 2.11.818 2.23a3.53 3.53 0 0 0 2.893-.164c1.123-.375 2.357-.064 3.47.21.959.327 1.436 1.355 1.966 2.151.04 1.132.183 2.328-.311 3.389-.31 1.15-1.404 1.825-2.465 2.19-1.164.468-2.435.085-3.502-.444-.954-.32-2.11-1.455-3.072-.588-.687.556-1.185 1.769-.377 2.438 1.144.577 2.226 1.415 3.537 1.568v.002c.039.008.078.018.117.025 1.219.477 2.544.246 3.768-.084 1.144-.173 2.348-.467 3.13-1.4.965-.797 1.977-1.687 2.333-2.941.566-1.098.485-2.363.44-3.559.243-1.194-.4-2.303-1-3.281-.516-1.38-2.086-1.698-3.161-2.489l-5.18-.398.67-4.174h3.426c1.492-.064 3.093.27 4.463-.482v-2.719zm-72.337.018c-1.259.011-2.517.025-3.775.037-3.107 4.15-6.18 8.326-9.303 12.463-1.027 1.092-.604 2.894.457 3.798h9.441v5.163h3.18v-5.166c.642-.027 1.298.056 1.932-.05 1.077-.43.832-1.802.851-2.732h-2.783v-13.513zm205.596 0c-1.251-.001-2.502.002-3.752.027-.786.61-.231 2.267.15 3.156h8.451c.698.209 1.641-.422 2.143.3-2.172 4.255-4.385 8.49-6.586 12.73-.785 1.712-1.87 3.282-2.504 5.062l.002.115v.117l3.775-.242 8.67-17.4c.844-1.113.636-2.56.67-3.863h-7.265c-1.251.005-2.503-.001-3.754-.002zm-424.948.002c-1.292 1.098-2.59 2.191-3.88 3.293-.65.728-1.614 1.116-2.174 1.927-.65 1.188 1.117 1.625 1.61 2.444 1.374-.931 2.695-1.94 4.003-2.961v13.978h-4.371V699.521h11.924v-2.78H38.95v-18.682h-3.137zm358.057.002-3.318 4.449c-1.169 1.653-2.494 3.192-3.594 4.892-.535 1.083-1.152 2.191-1.256 3.418.163 1.256-.175 2.542.131 3.785.515 1.153.963 2.4 1.885 3.305 1.086.685 2.21 1.451 3.513 1.637 1.259.436 2.685.196 3.955-.078 1.26-.276 2.444-.902 3.268-1.91.6-.786 1.456-1.4 1.781-2.366a8.59 8.59 0 0 0 .094-4.886c-.525-1.87-2.226-3.008-3.713-4.086h-2.549c-.61-.193-1.723.462-1.918-.42 2.007-2.627 4.199-5.105 6.194-7.74h-4.473zm-142.082 4.353.123 4.377c-.112 1.417.348 2.872-.098 4.258l-.199.523h-4.232c-.565.009-1.975.257-1.62-.718 1.914-2.88 4.03-5.618 6.026-8.44zm141.176 6.373c.497-.011.996.077 1.467.264.711.272 1.547.645 1.861 1.379.376 1.077 1.138 2.313.486 3.435-.483.903-.775 2.196-1.945 2.422-1.016.517-2.247.676-3.334.291-1.08-.57-2.199-1.527-2.273-2.836-.225-.913-.081-1.883.316-2.732.294-.921 1.115-1.522 1.97-1.887.46-.213.955-.324 1.452-.336zM11.924 726.152h47.695v47.297H11.924v-47.297zm71.54 0h47.696v47.297H83.465v-47.297zm71.145 0h47.696v47.297h-47.696v-47.297zm71.543 0h47.696v47.297h-47.696v-47.297zm71.543 0h47.297v47.297h-47.297v-47.297zm71.145 0h47.693v47.297H368.84v-47.297zm71.54 0h47.696v47.297h-47.695v-47.297zm-403.64 11.1c-1.476.213-3.083.121-4.396.937-.985.6-1.922 1.325-2.383 2.436-.579.747-.634 1.723-.555 2.629.116.833-.228 1.767.395 2.47.512.825 1.676 1.139 1.949 2.104-.287 1.098-2.075.954-2.354 2.176-1.415 2.19-.98 5.239.694 7.166 1.105 1.042 2.53 1.817 4.053 2.01 2.095.582 4.248-.077 6.246-.72.77-.133 1.093-.948 1.629-1.439.413-.618 1.23-1.06 1.31-1.826.117-1.756.335-3.72-.693-5.27a4.168 4.168 0 0 0-2.08-1.64c-1.162-.787.863-.953 1.127-1.697.765-1.072 1.422-2.383 1.193-3.74-.123-1.638-.978-3.216-2.377-4.106-1.196-.603-2.355-1.505-3.758-1.49zm70.705.041c-1.224.022-2.487.203-3.605.732-1.012.658-2.184 1.212-2.85 2.266-.622 1.405-1.501 2.884-1.207 4.482-.203 1.416.845 2.544 1.346 3.772.906.683 1.876 1.274 2.807 1.922l4.9-.303c-1.78 2.228-3.565 4.452-5.33 6.691v.002c-.604.76-1.207 1.522-1.81 2.284.99.005 1.982-.015 2.972.004 1.11.245 2.076-.434 2.662-1.336 1.23-1.763 2.456-3.527 3.711-5.272 1.09-1.504 1.969-3.14 2.809-4.79.5-.913.348-1.96.336-2.952.181-1.443-.006-2.963-.793-4.213-1.203-2.096-3.629-3.103-5.948-3.289zm222.875.01c-1.796.036-3.599.681-4.943 1.838-1.022.96-1.992 2.218-2.08 3.66.182 1.789 3.075 1.532 3.623.07.487-2.694 4.747-3.358 6.057-.967.966 1.642-.088 3.462-.452 5.114-2.331 2.415-4.73 4.766-7.025 7.218-.95 1.237-2.891 2.034-2.766 3.842v1.063c3.424-.005 6.846.007 10.27 0 1.378-.118 2.875.233 4.174-.22.833-1.06.21-2.884-.942-3.462l-7.763.373c.224-.577 1.573-1.683 2.213-2.47 2.098-2.414 4.94-4.37 5.996-7.522.89-2.287.317-5.029-1.467-6.727-1.312-1.274-3.099-1.846-4.895-1.81zm71.557.006c-2.046-.07-4.137.64-5.566 2.082-.771 1.121-2.125 2.393-1.69 3.88.922 1.325 3.077.83 3.645-.578.59-2.127 3.704-3.14 5.298-1.48 1.244 1.052 1.225 2.856.565 4.215-.833 1.351-2.642.917-3.861 1.562-1.128.894-.068 2.489 1.06 2.754 1.207.003 2.62-.061 3.211 1.318 1.274 2.14-.497 5.03-2.873 5.254-1.876.358-3.44-1.132-4.281-2.65-.814-1.597-3.733-.714-3.381 1.096 1.001 2.022 2.763 3.97 5.09 4.383 1.183.4 2.458.236 3.668.066 3.749-.257 6.747-4.355 5.629-7.992-.081-1.831-2.22-2.29-2.965-3.727.994-.714 2.024-1.514 2.515-2.674.517-1.627.277-3.54-.773-4.918-1.244-1.675-3.245-2.523-5.291-2.591zm-214.875.02a6.717 6.717 0 0 0-2.711.753c-3.037 1.418-4.488 4.877-4.47 8.082.21 2.347-.284 4.741.28 7.055.839 2.67 2.709 5.55 5.71 5.949 1.902.481 4.062.074 5.675-1.04 1.981-1.365 3.224-3.612 3.53-5.978.672-3.102.585-6.38-.465-9.39-.551-1.69-1.467-3.352-3.065-4.254a7.41 7.41 0 0 0-4.484-1.178zm57.123.298a.933.933 0 0 0-.277.057c-1.218.034-2.635-.313-3.494.789-1.51 1.167-2.81 2.643-4.471 3.586-1.27.933-.267 2.852.97 3.28 1.375-.93 2.697-1.936 4.004-2.958v13.978h-4.37V759.14h11.923v-2.783h-3.974v-17.494c-.067-.45.213-1.247-.311-1.236zm17.09 0a.933.933 0 0 0-.277.057c-1.219.034-2.633-.313-3.493.789-1.508 1.167-2.808 2.643-4.47 3.586-1.27.933-.267 2.852.97 3.28 1.375-.93 2.696-1.936 4.004-2.958v13.978h-4.373V759.14H265.5v-2.783h-3.975v-17.494c-.067-.45.214-1.247-.31-1.236zm215.473.004c-.778-.015-1.702.197-2.325.082l-8.668 11.633c-1.383 1.075-1.658 3.514-.177 4.627h9.441v2.584l.002 2.58h2.797c.654.184.29-.652.383-1.03.127-1.296-.24-2.627.134-3.894 1.565.252 3.423-1.433 2.647-3.025h-2.783V738.9c-.042-1.015-.674-1.255-1.452-1.27zm-304.065.012a.895.895 0 0 0-.393.035c-.983.087-2.084-.258-2.935.383-1.3 1.075-2.546 2.221-3.867 3.271-1.86.346-2.327 3.24-.362 3.777 1.77-.242 2.793-1.887 4.25-2.728v13.978h-1.568c-1.032-.2-3.256-.219-2.805 1.391v1.39h11.924v-2.783h-3.974v-17.906c.071-.43.031-.75-.27-.808zm142.592.01c-.243.01-.545.082-.719.025-.736.075-1.52-.175-2.205.15-1.527 1.202-2.942 2.552-4.478 3.748-1.957.55-1.592 3.226.185 3.764 1.375-.93 2.696-1.937 4.004-2.96v13.98h-4.371v2.78h11.924v-2.783h-3.975v-18.375c.062-.292-.122-.341-.365-.33zm69.406.003c-.793.033-1.459.612-1.998 1.174-1.098.938-2.193 1.887-3.318 2.795-1.985.536-1.47 3.197.236 3.715 1.375-.93 2.696-1.937 4.004-2.96v13.977h-4.373v2.783h11.924v-2.783h-3.975v-18.68h-2.152a1.718 1.718 0 0 0-.348-.02zm71.213.022c-.997.232-1.676 1.338-2.55 1.902-.975.729-1.796 1.726-2.876 2.272-1.544.741-.773 3.118.674 3.488 1.375-.931 2.696-1.937 4.004-2.96v13.977h-4.371v2.783h11.924v-2.783h-3.975v-18.68h-2.83zM35.49 740.074c1.203-.103 2.468.308 3.313 1.186.43.266.32.74.328 1.16-.03 1.084.297 2.457-.748 3.176l-.748.826h-1.668c-.911.173-1.813-.194-2.367-.947-1.003-.789-.476-2.105-.63-3.166.177-1.244 1.468-1.847 2.52-2.235zm152.426.348c.248.015.496.057.74.13 1.626.486 2.13 2.33 2.53 3.784.668 2.19.31 4.484.205 6.725-.17 1.8-.609 4.02-2.438 4.845-.574.355-1.269.54-1.943.45-2.269-.449-3.355-2.915-3.492-5.014.08-2.683-.4-5.47.513-8.06.423-1.715 2.149-2.966 3.885-2.86zm-81.754.012a.81.81 0 0 1 .197.027c.807.067 1.688-.202 2.42.238.75.755 2.018 1.387 1.916 2.623.452 1.028.153 2.377-.795 3.022v.002a2.23 2.23 0 0 1-1.93 1.32c-1.214-.093-2.7.194-3.622-.824-.668-1.104-1.211-2.478-.807-3.774.095-.903.808-1.542 1.525-2.013.366-.238.659-.624 1.096-.621zm368.285 2.097c.26.025.501.487.408.93-.249 2.399.409 4.823-.068 7.207-.067.174-.132.349-.2.523h-2.929c-.938-.253-2.723.678-2.918-.754 1.705-2.501 3.518-4.925 5.287-7.38.1-.398.264-.54.42-.526zm-440.265 7.07h3.613l1.912 1.915c.09.451.013.971.04 1.449.22.913-.173 1.916-.977 2.418l-.975.976h-2.088c-.717.11-1.537.014-2.016-.601-.958-.785-1.314-2.081-1.195-3.281-.183-1.243.862-2.125 1.686-2.875zm49.283 35.766 47.496.205.205 47.496H83.465v-47.7zm118.84 0v47.7h-47.701l.205-47.497 47.496-.203zm-142.686.006v47.693H11.924v-47.691l47.695-.002zm166.533.002h47.696v47.693h-47.696v-47.693zm71.543 0h47.297v47.693h-47.297v-47.693zm71.145 0h47.693v47.693H368.84v-47.693zm71.54 0h47.696v47.693h-47.695v-47.693zm15.774 11.15c-1.86-.02-3.753.615-5.148 1.809-1.039.961-2.02 2.232-2.111 3.687.182 1.79 3.073 1.533 3.62.07.488-2.693 4.748-3.358 6.057-.966.967 1.642-.088 3.461-.45 5.113-2.403 2.488-4.88 4.912-7.233 7.442-.933 1.124-2.704 1.918-2.559 3.619.006.353 0 .71.002 1.064 3.423-.004 6.845.008 10.268 0 1.378-.116 2.873.23 4.173-.218.837-1.059.215-2.887-.937-3.465l-7.764.375c.206-.563 1.546-1.656 2.172-2.428 2.097-2.41 4.916-4.365 6.014-7.488.844-2.17.458-4.768-1.153-6.487-1.263-1.43-3.09-2.106-4.95-2.127zm-71.884.01c-1.63.044-3.261.586-4.532 1.569-1.188.963-2.259 2.328-2.406 3.89.194 1.89 3.378 1.523 3.746-.139.644-2.555 4.712-3.022 5.957-.718.95 1.641-.09 3.453-.455 5.101-2.25 2.33-4.561 4.6-6.78 6.96-.99 1.358-3.096 2.164-3.01 4.1.005.348 0 .708.001 1.061 3.453-.007 6.906.012 10.36.004 1.37-.15 2.93.313 4.167-.312.67-1.097.127-2.815-1.025-3.371l-7.758.373c.2-.572 1.568-1.685 2.205-2.467 2.113-2.415 4.955-4.388 5.998-7.557.783-2.025.465-4.42-.949-6.091-1.328-1.697-3.423-2.46-5.52-2.403zm17.193.008c-1.208-.027-2.417.236-3.48.814-1.23.768-2.438 1.726-3.108 3.04-.585 1.456-1.371 2.939-1.195 4.56.147 2.526-.329 5.104.28 7.59.853 2.63 2.722 5.453 5.683 5.842l.152.054.154.045c2.603.483 5.429-.596 7.055-2.693 1.688-1.997 1.914-4.703 2.23-7.19.175-2.726-.307-5.524-1.423-8.02-1.047-2.528-3.692-3.983-6.348-4.042zm-71.11.004a7.703 7.703 0 0 0-3.271.611c-3.035 1.124-4.855 4.598-4.268 7.74.321 2.255 2.24 3.741 4.094 4.79l4.9-.303c-1.78 2.228-3.564 4.451-5.33 6.691l-.1.125-.099.125c-.23.607-2.209 2.028-.974 2.043 1.434-.193 3.105.47 4.34-.535 1.685-2.302 3.41-4.577 4.959-6.975 1.021-1.743 2.412-3.408 2.57-5.504.092-1.786.25-3.722-.682-5.335-1.228-2.208-3.67-3.403-6.138-3.473zm-71.591.004c-2.468-.09-5.104 1.031-6.266 3.306-.698 1.57-.884 3.536-.076 5.104.48 1.028 2.664 1.514 1.293 2.84-1.597.666-2.46 2.189-2.56 3.937-.441 3.285 2.363 6.345 5.566 6.662.418.133.853.202 1.29.225 1.746-.058 3.563-.286 5.147-1.07 1.11-.693 2.104-1.7 2.612-2.92.471-1.887.432-4.1-.725-5.744-.285-1.048-2.909-1.078-1.826-2.291 2.407-1.405 2.93-4.975 1.32-7.166-1.345-1.748-3.528-3.002-5.775-2.883zm-77.586.316c-1.514-.001-1.391 2.254-.647 3.211 3.558.044 7.12-.117 10.674.096a383.024 383.024 0 0 1-3.117 6.115c-1.967 3.985-4.237 7.82-6.05 11.88 1.22.508 2.516-.116 3.775-.007l7.85-15.748c1.056-1.617 1.751-3.561 1.49-5.516H181.5a1.826 1.826 0 0 0-.325-.03zm-130.7.008-6.331.133c-1.36.255-3.022-.367-4.163.396-.382 1.549-.588 3.15-.859 4.727-.078 1.363-.696 2.624-.775 3.98-.05 2.014 2.412 1.93 3.761 1.442 1.732-.579 3.915-.265 5.02 1.31 1.086 1.754.754 4.31-.744 5.735-1.507 1.46-3.861 1.082-5.533.138-1.04-1.342-3.5-.378-3.416 1.297.904 1.358 2.519 1.962 4.035 2.346.334.123.691.204 1.049.242 2.05.08 4.253-.333 5.902-1.62 1.961-1.305 2.977-3.683 2.926-5.997.119-2.028-.738-4.096-2.403-5.303-1.493-1.25-3.496-1.256-5.336-1.275-1.973.098-1.686-2.15-1.097-3.371-.15-.954.272-1.093 1.08-.977 2.289-.2 4.7.46 6.885-.482v-2.721zm48.774.002c-.794.032-1.459.61-1.998 1.174-1.098.937-2.194 1.887-3.318 2.795-1.986.535-1.472 3.197.234 3.715 1.375-.93 2.696-1.938 4.004-2.96v13.98h-4.373v2.78h11.924v-2.783h-3.975v-18.68h-2.15a1.72 1.72 0 0 0-.348-.021zm142.686 0c-.794.032-1.46.61-1.999 1.174-1.098.937-2.193 1.887-3.318 2.795-1.985.535-1.472 3.197.235 3.715 1.375-.93 2.696-1.938 4.003-2.96v13.98h-4.37v2.78h11.923v-2.783h-3.974v-18.68h-2.15a1.74 1.74 0 0 0-.35-.021zm71.142 0c-.793.032-1.457.614-1.996 1.176-1.099.938-2.193 1.884-3.318 2.793-1.985.536-1.47 3.196.234 3.715 1.375-.931 2.696-1.938 4.004-2.96v13.98h-4.371v2.78h11.924v-2.783h-3.975v-18.68h-2.154a1.716 1.716 0 0 0-.348-.021zm-285.783.021c-.982.38-1.727 1.406-2.62 2.03-.97.725-1.775 1.722-2.876 2.236-1.389.87-.522 2.992.826 3.397 1.375-.931 2.696-1.938 4.004-2.96v13.98h-4.371v2.78h11.924v-2.783h-3.975v-18.68h-2.912zm89.932 0c-1.187.358-1.673 2.112-2.604 2.983-1.755 2.706-4.23 4.96-5.457 7.992-.602 1.883-.751 3.983-.213 5.902.624 2.434 2.835 4.174 5.252 4.612l.25.088c1.585.314 3.29.105 4.781-.522 1.963-.904 3.666-2.64 4.196-4.773.405-1.979.252-4.254-1.145-5.832-.919-.922-1.9-2.195-3.266-2.297-1.274-.309-2.814.578-3.888-.367 1.958-2.678 4.202-5.13 6.19-7.786h-4.096zm52.53 0c-1.545 1.308-3.087 2.619-4.632 3.926-1.94.5-1.595 3.226.188 3.737 1.374-.932 2.696-1.937 4.003-2.96v13.98h-4.373v2.78h11.924v-2.783h-3.974v-18.68h-3.135zm303.169 0c-.998.232-1.676 1.338-2.551 1.903-.975.729-1.797 1.726-2.877 2.271-1.544.742-.77 3.119.676 3.489 1.375-.93 2.696-1.938 4.004-2.96v13.98h-4.373v2.78h11.924v-2.78h-3.975v-18.683h-2.828zm-214.319 2.418c.767-.017 1.542.195 2.157.64 1.373 1.165 1.383 3.546.195 4.86-1.048 1.388-3.18 1.018-4.506.276-.937-.99-1.24-2.519-.805-3.803.433-1.28 1.683-1.944 2.96-1.973zm71.567.297c.804 0 1.6.246 2.224.787 1.51 1.173 2.127 3.851.475 5.166-.8 1.305-2.36 1.53-3.756 1.248-1.99-.132-2.95-2.379-2.685-4.138.156-1.87 1.972-3.062 3.742-3.063zm71.228.014c.252-.005.508.02.766.08 1.879.375 2.61 2.405 2.87 4.08.656 2.087.316 4.28.177 6.414-.137 1.827-.586 4.081-2.432 4.926a2.78 2.78 0 0 1-2.27.379c-2.242-.711-3.108-3.266-3.187-5.408.082-2.398-.273-4.86.393-7.203.373-1.713 1.919-3.233 3.683-3.268zm-285.31 7.992c.442-.004.883.066 1.304.22 3.146.92 3.378 5.996.413 7.288a4.655 4.655 0 0 1-2.05.514c-2.351.124-4.04-2.4-3.642-4.58.157-2 2.06-3.422 3.975-3.442zm141.308 1.172c.104.002.21.012.317.031 1.208.067 2.777-.373 3.539.852 1.458 1.174 1.63 3.75.09 4.93-1.004 1.472-2.825.954-4.303.86-2.106-.886-2.573-3.824-1.371-5.612.368-.682 1.002-1.077 1.728-1.061zM83.465 844.984l47.496.205v47.297l-47.496.205v-47.707zm118.84 0v47.702h-47.323l-.173-47.497 47.496-.205zm285.771.006v47.697h-47.695v-47.695l47.695-.002zm-476.152.002h47.695v47.696H11.924v-47.696zm214.228 0h47.702l-.206 47.496-47.496.205v-47.7zm71.543 0h47.297v47.696h-47.297v-47.696zm71.145 0h47.693v47.696H368.84v-47.696zm-270.047 11.14c-2.061.091-4.113.98-5.441 2.55-.874 1.031-2.165 2.82-.768 3.95 1.576.995 2.85-.503 3.414-1.857 1.217-2.054 4.72-2.036 5.766.166.908 1.588-.28 3.254-.537 4.842-2.296 2.462-4.696 4.823-7.041 7.237-.911 1.288-2.888 2.07-2.772 3.898-.002.354 0 .708 0 1.062h10.32c1.377-.145 2.932.32 4.182-.289.71-1.086.184-2.855-.998-3.392l-7.684.369c-.197-.336 1.35-1.473 1.803-2.12 1.88-2.172 4.264-3.929 5.71-6.452 1.417-2.353 1.438-5.61-.454-7.717-1.368-1.627-3.439-2.336-5.5-2.246zm374.064.003c-1.451-.008-2.906.376-4.12 1.166-2.293 1.364-3.226 4.465-2.255 6.908.233 1.317 2.724 1.573 1.588 3.1-1.47.745-2.586 2.05-2.67 3.836-.558 3.343 2.265 6.558 5.547 6.875 1.38.42 2.842.195 4.217-.122 2.083-.273 3.94-1.708 4.807-3.61.39-1.484.4-3.128-.07-4.602-.222-1.649-2.209-1.87-2.801-3.223 2.546-1.205 3.364-4.757 1.863-7.072-1.273-2.137-3.686-3.243-6.106-3.256zm-445.123.002c-2.002-.032-4.044.706-5.482 2.076-.906.964-1.831 2.176-1.813 3.555.375 1.695 3.176 1.32 3.688-.141.505-2.668 4.726-3.235 5.992-.871.95 1.64-.09 3.454-.455 5.101-2.387 2.474-4.851 4.881-7.19 7.397-.944 1.14-2.733 1.943-2.601 3.664v1.064h10.322c1.376-.145 2.93.32 4.18-.29.707-1.087.181-2.854-1-3.391-2.613.125-5.225.25-7.838.377.454-.646 1.471-1.56 2.135-2.313 2.181-2.499 5.138-4.536 6.203-7.814.952-2.393.104-5.242-1.844-6.875-1.206-1.024-2.74-1.514-4.297-1.54zm17.065 0c-1.994-.026-4.026.713-5.457 2.078-.905.964-1.83 2.174-1.81 3.553.373 1.695 3.173 1.32 3.685-.141.505-2.668 4.728-3.235 5.994-.871.95 1.64-.092 3.454-.457 5.101-2.387 2.474-4.851 4.881-7.19 7.397-.945 1.14-2.733 1.943-2.601 3.664v1.064h10.324c1.376-.145 2.928.32 4.178-.29.707-1.087.183-2.854-.998-3.391-2.613.125-5.227.25-7.84.377.504-.704 1.574-1.67 2.293-2.477 2.183-2.477 5.127-4.54 6.103-7.844.87-2.367-.02-5.126-1.937-6.709-1.208-1.01-2.736-1.492-4.287-1.511zm125.797.002c-1.903-.08-3.862.533-5.301 1.752-1.083 1.04-2.421 2.42-2.121 4.039.73 1.738 3.176.912 3.703-.582.813-2.49 4.756-2.851 5.97-.522.995 1.563-.17 3.29-.454 4.88-2.188 2.502-4.648 4.745-6.899 7.189-.982 1.318-3.028 2.126-2.935 4.023-.002.352 0 .707 0 1.06 3.422.008 6.845-.005 10.267.002 1.387-.136 2.93.316 4.203-.263.762-1.078.207-2.862-.966-3.418-2.355.138-4.723.172-7.065.389-1.194-.759 1.194-1.73 1.56-2.524 2.008-2.28 4.599-4.194 5.803-7.07.97-2.127.699-4.744-.806-6.555-1.21-1.55-3.057-2.32-4.96-2.4zm71.125 0c-1.908.03-3.829.747-5.2 2.043-.915.947-1.807 2.146-1.863 3.505.26 1.738 3.08 1.47 3.63.024.488-2.697 4.764-3.365 6.062-.955.95 1.64-.093 3.454-.457 5.101-2.388 2.475-4.854 4.882-7.192 7.399-.944 1.14-2.732 1.94-2.6 3.662v1.059c3.556-.003 7.111.005 10.667-.002 1.29-.203 2.905.438 3.957-.432.503-1.12-.003-2.7-1.121-3.248l-7.917.38c1.031-1.072 2.056-2.15 3.083-3.228 1.872-2.092 4.306-3.864 5.216-6.638.951-2.19.478-4.855-1.15-6.596-1.314-1.45-3.208-2.105-5.115-2.074zm214.556.002a8.188 8.188 0 0 0-4.234 1.047c-1.511.973-2.952 2.487-3.12 4.36-.011 1.86 3.056 1.666 3.59.167.486-2.7 4.765-3.37 6.063-.96.95 1.642-.09 3.455-.455 5.102-2.35 2.44-4.785 4.808-7.084 7.291-.974 1.185-2.816 1.989-2.707 3.77.005.354 0 .708.002 1.062h10.32c1.377-.145 2.93.32 4.18-.289.71-1.086.186-2.856-.996-3.394l-7.684.371c-.106-.435 1.541-1.678 2.088-2.422 2.078-2.39 4.853-4.335 5.987-7.406.867-2.112.534-4.654-.997-6.38-1.208-1.537-3.056-2.267-4.953-2.32zm-71.76.002c-1.32-.011-2.652.308-3.79.937-1.666.908-3.119 2.54-3.358 4.467.063 1.918 3.165 1.633 3.662.07.527-2.657 4.734-3.224 6.004-.861.95 1.64-.09 3.454-.455 5.101-2.298 2.384-4.67 4.698-6.93 7.12-.974 1.276-2.968 2.084-2.86 3.941.005.355 0 .71.001 1.064h10.318c1.377-.145 2.93.319 4.182-.289.712-1.086.185-2.856-.998-3.394l-7.682.37c-.109-.44 1.549-1.69 2.104-2.435 1.944-2.225 4.457-4.044 5.723-6.787.973-2.028 1.018-4.555-.32-6.437-1.223-1.92-3.398-2.85-5.6-2.867zm-71.796.011c-1.629.046-3.257.585-4.526 1.567-1.188.963-2.256 2.33-2.404 3.892.193 1.89 3.376 1.52 3.744-.14.644-2.556 4.712-3.023 5.957-.72.95 1.642-.09 3.456-.455 5.104-2.299 2.384-4.67 4.7-6.93 7.122-.974 1.275-2.97 2.082-2.86 3.939-.002.35 0 .706 0 1.059 3.423.009 6.845-.002 10.269.002 1.386-.138 2.93.315 4.203-.266.758-1.079.202-2.86-.971-3.416l-7.758.373c.19-.56 1.548-1.662 2.174-2.434 2.13-2.43 4.988-4.422 6.035-7.615.778-2.023.453-4.411-.963-6.076-1.33-1.69-3.422-2.45-5.515-2.39zm-196.07.006c-2.86-.13-5.816 1.272-7.028 3.96-1.28 1.311.207 3.271 1.818 2.69 1.508-.433 1.532-2.286 2.733-3.054 1.894-1.34 5.025-.01 5.064 2.406.096 1.513-.846 3-2.424 3.21-1.393-.055-3.276.982-1.978 2.513 1.194 1.342 3.741.032 4.465 2.207 1.044 2.15-.697 4.756-2.955 5.064-1.918.413-3.426-1.19-4.387-2.633-.767-1.698-3.7-.674-3.324 1.114 1.01 2.017 2.77 3.927 5.086 4.345v.002c.716.279 1.502.287 2.258.22 2.15-.002 4.38-.767 5.76-2.49 2.01-2.198 2.071-6.023-.245-8.028-1.933-.256-1.128-2.58.408-2.825 1.737-2.363.934-6.069-1.586-7.55-1.086-.716-2.366-1.092-3.666-1.15zm74.685.313c-.783-.025-1.718.182-2.346.078-2.89 3.88-5.78 7.76-8.672 11.64-1.397 1.066-1.638 3.508-.173 4.621h9.44v5.164h1.99c.763.12 1.573-.043 1.165-1.044.386-1.164-.7-3.364.625-3.776 1.347-.268 2.923-1.654 2.184-3.129h-2.783v-12.244c-.018-1.03-.647-1.286-1.43-1.31zm73.37.021-8.52.182c-1.06.017-2.39-.278-2.178 1.224-.451 2.266-.665 4.574-1.266 6.805-.975 2.129 1.429 3.368 3.203 2.568 1.801-.692 4.14-.45 5.389 1.147 1.08 1.768.808 4.327-.69 5.785-1.489 1.315-3.984 1.287-5.503.06-1.143-1.066-3.712-.413-3.262 1.385.546 1.6 2.433 1.846 3.82 2.346v.002c1.011.401 2.128.319 3.176.127 2.368-.266 4.589-1.656 5.805-3.717 1.157-2.209 1.249-5.038.101-7.273-1.089-2.098-3.51-3.113-5.789-3.065-1.142.06-3.062-.013-2.68-1.697.429-.889-.021-3.066 1.446-2.658 2.305-.244 4.74.453 6.947-.5v-2.72zm130.439.02c-1.803-.162-1.765 2.731-.325 3.216 3.405-.027 6.813-.128 10.215.057a323.13 323.13 0 0 1-2.44 4.813c-2.196 4.42-4.687 8.693-6.73 13.19 1.222.507 2.52-.117 3.778-.009l7.298-14.646c1.106-2.023 2.433-4.206 2.041-6.617-4.612-.002-9.226.003-13.837-.004zm-63.28.004c-1.56-.026-1.914 1.875-2.822 2.79-1.417 2.009-3.072 3.86-4.443 5.909-1.637 2.318-2.168 5.383-1.43 8.119.604 2.457 2.826 4.233 5.264 4.67.574.243 1.197.232 1.808.209 2.082.04 4.13-.77 5.567-2.283 1.782-1.593 2.346-4.147 1.912-6.434-.298-1.949-1.84-3.373-3.358-4.469-1.553-1-3.507.292-5.047-.674 1.976-2.693 4.232-5.165 6.235-7.837h-3.686zm141.074 2.425c.81.04 1.633.351 2.32.805 1.028 1.329 1.09 3.418-.072 4.688-.476.821-.953.907-1.785.824a3.219 3.219 0 0 1-3.302-1.229c-.543-.404-.22-1.126-.307-1.697-.128-.95-.029-2.033.904-2.57.636-.63 1.433-.86 2.242-.82zm-283.87 2.516c.119-.01.238.062.353.254-.12 2.594.421 5.212-.008 7.795-.066.173-.132.349-.2.523h-2.74c-1-.293-2.813.724-3.115-.744 1.347-1.978 2.764-3.907 4.172-5.842.475-.328 1.02-1.942 1.537-1.986zm141.183 5.777c.44-.012.882.05 1.305.198 3.202.858 3.474 6.012.48 7.312-.63.32-1.334.508-2.043.512-2.335.125-4.022-2.36-3.656-4.531.137-1.991 2.007-3.439 3.914-3.49zm142.508 1.11c.48.006.954.065 1.377.154 2.44.514 3.438 4.16 1.437 5.723-.846 1.362-2.528.983-3.851.933-2.14-.352-2.89-2.994-2.266-4.828.368-1.543 1.864-2 3.303-1.982zM11.924 916.533h47.695v47.297H11.924v-47.297zm71.54 0h47.696v47.297H83.465v-47.297zm-55.62 11.149c-2.014-.056-4.079.669-5.537 2.033-.923.95-1.826 2.155-1.877 3.523.269 1.73 3.079 1.457 3.629.014.489-2.697 4.765-3.363 6.062-.953.953 1.64-.093 3.454-.457 5.101-2.388 2.475-4.853 4.882-7.191 7.399-.945 1.14-2.732 1.94-2.6 3.66v1.06c3.564-.002 7.126.008 10.69 0 1.284-.207 2.912.45 3.945-.449.485-1.12-.019-2.685-1.133-3.23l-7.916.38c1.447-1.496 2.87-3.015 4.309-4.519 1.656-1.632 3.438-3.329 4.091-5.642.906-2.342.16-5.124-1.718-6.766-1.196-1.053-2.73-1.568-4.297-1.611zm88.052.017c-1.197.005-2.391.296-3.435.9-1.16.776-2.328 1.685-2.963 2.96-.583 1.456-1.371 2.938-1.191 4.558.15 2.526-.33 5.102.28 7.588.853 2.63 2.72 5.455 5.68 5.844v-.002l.155.055.154.044c2.257.412 4.733-.312 6.358-1.955 1.442-1.344 2.25-3.205 2.523-5.134.824-3.67.468-7.622-1.123-11.037-1.143-2.458-3.802-3.831-6.438-3.82zm-71.515.006a7.715 7.715 0 0 0-2.578.42c-3.085.907-5.126 4.152-4.848 7.314.076 2.502 2.134 4.306 4.182 5.409l4.902-.303c-1.78 2.228-3.567 4.452-5.332 6.691l-.184.233-.185.232c-.133.532-2.043 1.782-.91 1.832 1.468-.208 3.169.476 4.44-.533 1.628-2.218 3.288-4.417 4.794-6.72 1.025-1.744 2.417-3.385 2.701-5.452.164-1.79.303-3.706-.502-5.377-1.18-2.435-3.84-3.733-6.48-3.746zm55.242.012a7.604 7.604 0 0 0-1.055.012c-2.511.117-4.899 1.59-6.03 3.855-1.258 1.495.266 3.377 1.995 2.707 1.479-.488 1.296-2.72 2.979-3.16 2.176-1.32 5.248 1.032 4.592 3.469-.163 1.495-1.636 2.304-2.999 2.476-1.745-.346-2.442 1.835-1.02 2.756 1.278.565 3.256-.136 3.983 1.604 1.344 2.165-.583 5.122-2.99 5.275-1.723.31-3.09-1.051-3.996-2.34-.613-1.872-3.766-1.287-3.576.684.983 2.067 2.768 4.047 5.125 4.47.158.054.32.1.484.133 2.635.398 5.64-.198 7.451-2.289 2.11-2.224 2.199-6.24-.285-8.223-1.89-.28-.946-2.33.436-2.638 1.083-1.34 1.274-3.246.717-4.846-.787-2.469-3.331-3.802-5.811-3.945zm-55.533 3.06c.99-.045 2.01.254 2.687.952 1.427 1.175 1.911 3.747.327 4.998-.365 1.078-1.66 1.403-2.676 1.28-1.662.406-3.513-.88-3.686-2.587-.568-1.593.34-3.31 1.678-4.201a3.954 3.954 0 0 1 1.67-.442zm71.94.008c.251-.005.509.021.767.08 1.879.375 2.608 2.408 2.867 4.082.658 2.087.315 4.28.178 6.414-.136 1.828-.587 4.08-2.432 4.924a2.812 2.812 0 0 1-2.271.38c-2.244-.71-3.108-3.267-3.186-5.41.084-2.397-.272-4.86.393-7.202.372-1.713 1.919-3.232 3.683-3.268z" style="fill:#5f5ffe;stroke-width:.39745575" transform="scale(.26458)"/><path d="M0 88.124v81.92h37.751l.054-15.722 94.352-.052V88.124Zm22.083 3.154 12.567.053v12.515l-12.567.054zm31.443 0v12.62h-12.52l-.046-12.567zm-50.371.001h12.62v12.62H3.154Zm56.681 0h12.62v12.62h-12.62Zm18.93 0h12.513v12.62H78.765Zm18.823 0h12.619v12.62h-12.62Zm18.928 0h12.62v12.619h-12.62zm-69.236 3.05c-.15.002-.297.026-.438.094-.313.032-.598.2-.818.42a.877.877 0 0 0-.381.54c-.046.208-.354.519-.032.638.28.044.698.232.799-.168.093-.34.395-.592.732-.671a.774.774 0 0 1 .805.263c.145.164.278.364.2.591-.02.294-.14.604-.448.69-.225.115-.484.075-.719.14-.137.159-.075.48.016.66.25.097.536.04.79.134.338.108.486.486.463.818-.054.304-.207.657-.525.764a.955.955 0 0 1-1.079-.086c-.179-.211-.364-.415-.536-.632-.213-.192-.57-.007-.748.156-.12.337.236.604.394.866.245.276.571.52.948.567.294.125.61.046.914.025a1.727 1.727 0 0 0 1.207-.62c.348-.396.476-.97.355-1.48a2.027 2.027 0 0 0-.405-.642c-.103-.168-.367-.126-.456-.263.12-.221.379-.332.551-.514.241-.216.199-.59.242-.887-.027-.257-.146-.5-.27-.725-.181-.283-.516-.435-.812-.574-.242-.04-.499-.105-.749-.103zm-18.949.002a1.003 1.003 0 0 0-.4.083c-.358.057-.674.196-.905.483-.313.249-.472.666-.528 1.05.228.16.82.29.962-.084.084-.46.535-.711.978-.693.463-.024.725.374.81.785l-.263.95-2.361 2.41c-.155.138-.298.286-.23.516v.281h3.891v-.48c.067-.245-.151-.358-.318-.494l-2.095.1 1.715-1.793c.179-.15.278-.356.364-.57.171-.305.27-.629.227-.981.056-.35-.17-.651-.338-.932-.273-.188-.478-.537-.83-.55-.227-.033-.454-.085-.679-.081zm58.32.097-2.775.058c-.114.637-.22 1.276-.334 1.912.01.256-.202.52-.08.76.247.15.567.231.85.136.23-.134.504-.134.756-.075.207.036.447.04.57.244.083.143.234.268.277.418-.014.255.04.52-.052.766-.09.23-.186.485-.45.562-.222.161-.493.191-.76.167-.296-.116-.587-.247-.879-.373-.187-.164-.292.006-.4.158-.242.17-.214.499.077.608.265.13.512.32.817.348.136.03.27.07.409.091.39-.028.765-.154 1.15-.221l.523-.46c.223-.15.329-.402.412-.646.157-.287.089-.62.095-.93.064-.32-.147-.593-.292-.857-.144-.338-.542-.404-.808-.61l-1.37-.105.177-1.104h1.398c.237.024.476-.019.69-.127zm-77.176.006c-.536.451-1.066.908-1.605 1.356-.232.282.29.45.429.671.364-.246.713-.512 1.06-.783v3.698H8.202v.737h3.154v-.737h-1.051v-4.942zm58.037 0-1 .009-2.617 3.514.027.333c-.022.194.143.316.25.455h2.498v1.368h.842v-1.368h.566c.186-.146.178-.495.17-.736h-.736zm36.699 0c-.54.722-1.077 1.445-1.616 2.167-.267.29-.376.675-.533 1.027-.008.277-.005.554-.004.831-.047.28.077.52.216.755.115.26.258.519.548.612.207.145.438.257.69.293a.95.95 0 0 0 .145.043c.316.06.637-.02.948-.067.296-.097.606-.227.8-.482.152-.213.38-.372.494-.61.039-.271.128-.54.11-.818-.053-.332-.072-.705-.337-.95-.175-.284-.484-.436-.735-.642h-.883c-.106-.021-.364.076-.298-.11.53-.695 1.111-1.352 1.639-2.049zm16.617 0v.508l.064.167.064.166h2.834l-.035.082-.035.083-1.183 2.28-1.183 2.28v.124l.5-.032.5-.032 1.23-2.471 1.232-2.472.004-.341.004-.342h-1.998zm-54.21 1.152.045 1.604c-.013.226.064.468-.038.68l-.053.14h-1.449c-.235.057-.102-.14-.051-.279.51-.719 1.032-1.43 1.546-2.145zm37.424 1.675c.3.058.642.168.824.43.04.292.289.582.14.88-.155.24-.203.628-.54.685a.684.684 0 0 1-.157.076c-.266.055-.588.11-.827-.047-.247-.186-.505-.392-.5-.734-.094-.316.044-.606.173-.89.219-.237.562-.39.887-.4zM3.155 107.053h12.62v12.62H3.154Zm18.928 0h12.621l-.054 12.567-12.567.054zm18.824 0h12.62v12.62l-12.55-.071zm18.93 0h12.619v12.62h-12.62Zm18.928 0H91.28v12.62H78.765Zm18.824 0h12.619v12.62h-12.62Zm18.928 0h12.62v12.62h-12.62ZM9.755 109.99a.864.864 0 0 0-.237.027c-.377.028-.8.046-1.092.324-.297.114-.43.424-.577.682-.149.267-.025.607-.07.903-.008.355.376.514.574.75.22.246-.24.352-.402.44-.22.277-.403.612-.392.976-.03.46.16.917.476 1.247.295.214.627.415.999.451.6.167 1.217-.05 1.787-.233l.37-.42c.108-.146.294-.257.28-.46.028-.335.031-.68-.038-1.01a1.226 1.226 0 0 0-.769-.793c-.239-.198.276-.195.333-.372a2.05 2.05 0 0 0 .367-.8c-.035-.313-.055-.657-.251-.92-.158-.263-.416-.433-.696-.55a1.24 1.24 0 0 0-.662-.242zm18.7.005c-.278-.013-.56.093-.837.113-.2.121-.394.253-.59.382-.275.11-.334.403-.453.646a1.284 1.284 0 0 0-.174.843c-.058.378.226.67.356.998.24.18.496.337.743.508l1.296-.08c-.47.59-.943 1.178-1.41 1.77l-.48.605h.976c.227.054.338-.183.484-.303.345-.488.684-.979 1.024-1.469.334-.424.56-.916.805-1.394.05-.171.008-.365.022-.546-.02-.265.047-.536-.033-.794-.126-.302-.26-.626-.544-.813-.248-.242-.576-.348-.91-.406a.8.8 0 0 0-.276-.06zm21.023.014a1.779 1.779 0 0 0-.718.2c-.803.375-1.187 1.29-1.183 2.137.056.622-.075 1.255.075 1.868.222.706.716 1.468 1.51 1.574.504.127 1.075.019 1.502-.276.524-.361.853-.955.934-1.581.178-.821.155-1.689-.123-2.485-.146-.447-.388-.887-.81-1.125a1.96 1.96 0 0 0-1.187-.312zm38.117 0c-.664-.048-1.359.214-1.76.753-.159.245-.394.566-.253.865.237.275.773.18.916-.151.129-.714 1.255-.89 1.602-.257.259.435-.025.916-.12 1.354-.636.66-1.293 1.302-1.917 1.972-.246.296-.713.506-.673.954v.281c1.234-.002 2.467.004 3.7-.004.393-.06.215-.85-.127-.97l-2.095.101c.398-.406.78-.828 1.178-1.235.487-.455.967-.98 1.1-1.658.191-.736-.229-1.538-.91-1.85a2 2 0 0 0-.641-.154zm18.743.001c-.58-.022-1.171.188-1.56.627-.201.267-.449.61-.368.957.272.321.818.216.967-.187.162-.507.86-.777 1.297-.444.375.196.453.69.298 1.054-.114.489-.667.378-1.023.517-.486.319.146.95.574.745.324.036.56.334.61.642.102.566-.396 1.12-.964 1.118-.455.044-.779-.317-1.006-.662-.215-.503-1.058-.232-.905.293.295.505.728 1.01 1.336 1.11.277.096.576.07.862.032.96-.02 1.802-.976 1.64-1.934-.07-.385-.295-.803-.675-.948-.404-.243.295-.523.418-.727.308-.54.176-1.287-.267-1.716a1.966 1.966 0 0 0-1.234-.477zm19.786.08c-.206-.005-.45.05-.615.02l-2.294 3.078c-.366.285-.439.93-.047 1.225h2.498v1.366h.74c.174.049.078-.172.102-.272.034-.343-.064-.696.036-1.03.414.066.905-.38.7-.8h-.736v-3.252c-.011-.269-.179-.332-.384-.336zm-80.45.002a.249.249 0 0 0-.105.01c-.26.022-.551-.069-.776.1-.344.285-.674.588-1.024.866-.492.092-.616.857-.096.999.469-.064.74-.499 1.125-.721v3.698h-.415c-.273-.053-.861-.058-.742.368v.367h3.155v-.735h-1.052v-4.739c.02-.114.009-.198-.07-.213zm37.106 0c-.196.01-.322.21-.48.321-.332.266-.64.573-.987.813-.45.173-.182.789.178.903a19.28 19.28 0 0 0 1.06-.783v3.698h-1.157v.736h3.155v-.736h-1.052v-4.942h-.628a.345.345 0 0 0-.089-.01zm-18.936.01-1.443 1.222c-.499.264.045.59.266.805.364-.246.714-.512 1.06-.783v3.698H62.57v.736h3.155v-.736h-1.051v-4.942zm4.522 0-1.443 1.222c-.5.264.046.59.267.805.363-.246.713-.512 1.06-.783v3.698h-1.158v.736h3.155v-.736h-1.052v-4.942zm33.31 0c-.27.067-.455.365-.693.52-.265.2-.492.465-.783.622-.4.21-.118.77.22.885.364-.246.714-.512 1.06-.783v3.698h-1.157v.736h3.154v-.736h-1.051v-4.942zm18.93 0c-.264.061-.443.353-.674.503-.258.192-.476.456-.761.6-.41.197-.205.826.178.924.363-.246.713-.512 1.06-.783v3.698h-1.157v.736h3.154v-.736h-1.051v-4.942zm-111.164.627a.5.5 0 0 1 .11.002c.31.03.62.159.801.426v.44c.026.215 0 .468-.198.6l-.197.219h-.583c-.283.05-.438-.226-.612-.393-.073-.062-.018-.186-.035-.275.023-.217-.066-.464.077-.652.188-.149.39-.345.637-.367zm40.277.099a.869.869 0 0 1 .196.034c.43.129.564.617.67 1.001.176.58.082 1.187.054 1.78-.045.476-.161 1.063-.645 1.281a.791.791 0 0 1-.514.12c-.6-.119-.888-.771-.924-1.327.02-.71-.106-1.447.136-2.133a1.025 1.025 0 0 1 1.027-.756zm-21.718.01h.682c.137.09.26.221.39.328.169.094.218.28.215.464.131.276.029.583-.21.765l-.283.336-.694-.005c-.297.037-.562-.2-.635-.478-.083-.243-.17-.498-.06-.752.033-.338.382-.453.595-.658zm97.53.548c.069.007.132.129.108.246-.066.635.108 1.276-.018 1.907l-.053.139h-.775c-.248-.068-.72.179-.772-.2.45-.662.93-1.303 1.399-1.953.026-.105.07-.143.11-.139zm-116.487 1.87H10l.516.517v.458c.063.224-.085.428-.258.555l-.258.258h-.694c-.203.06-.348-.113-.463-.245-.242-.195-.256-.529-.242-.812-.049-.32.24-.534.443-.73zm-5.89 9.57h12.62v12.514H3.154Zm18.93 0h12.619v12.514h-12.62Zm18.823 0h12.62v12.514h-12.62Zm18.93 0h12.619v12.514h-12.62Zm18.928 0H91.28v12.514H78.765Zm18.824 0h12.619v12.514h-12.62Zm18.928 0h12.62v12.514h-12.62zm-10.392 2.952c-.556.013-1.084.302-1.444.723a2.75 2.75 0 0 0-.526 1.348c.056.7-.08 1.412.066 2.105.206.725.715 1.495 1.518 1.608.36.109.763.053 1.111-.074.742-.267 1.217-1.003 1.32-1.763.188-.891.15-1.836-.192-2.686-.212-.704-.892-1.194-1.614-1.249a1.63 1.63 0 0 0-.24-.012zm14.591 0c-.63-.015-1.272.25-1.65.759-.16.244-.395.566-.254.864.238.276.773.181.916-.15.13-.714 1.255-.89 1.603-.257.258.434-.026.916-.12 1.353l-1.867 1.906c-.232.341-.769.538-.723 1.02v.282c1.233-.002 2.466.004 3.7-.004.394-.059.216-.85-.127-.97l-2.094.1c.39-.4.768-.812 1.156-1.213.504-.476 1.016-1.023 1.131-1.734.163-.695-.228-1.43-.846-1.758a1.978 1.978 0 0 0-.825-.197zm-18.961 0a2.063 2.063 0 0 0-.974.223c-.474.247-.918.711-.938 1.268.132.456.882.338.984-.082.171-.676 1.246-.8 1.576-.19.249.435-.022.914-.12 1.35-.611.64-1.254 1.25-1.846 1.907-.272.314-.764.54-.745 1.02.002.093 0 .186 0 .28.829-.002 1.657.002 2.485 0 .389-.024.78.033 1.167-.016.467-.086.269-.815-.078-.958l-1.797.086c-.48.11-.024-.277.127-.427.515-.602 1.168-1.09 1.586-1.771.368-.584.446-1.394.016-1.968-.326-.477-.88-.711-1.443-.721zm-14.492.004c-.175.006-.35.035-.515.087-.852.217-1.446 1.098-1.358 1.967.023.66.565 1.133 1.104 1.424l1.297-.08c-.47.59-.943 1.177-1.41 1.77-.113.206-.356.345-.414.569.39.03.893.147 1.251-.104.377-.514.76-1.022 1.117-1.55.302-.502.698-.97.845-1.549.06-.479.1-.989-.07-1.45-.297-.724-1.087-1.112-1.847-1.084zm-18.799.003c-.653-.024-1.35.273-1.658.875-.184.415-.234.935-.02 1.35.127.272.705.4.342.751-.422.176-.65.58-.677 1.042-.117.869.625 1.678 1.473 1.762.11.035.225.054.341.06.462-.015.943-.075 1.362-.283.293-.183.556-.45.69-.772.125-.5.115-1.085-.191-1.52-.075-.278-.77-.286-.483-.607.637-.371.775-1.316.35-1.896-.357-.462-.934-.794-1.529-.762zm14.448.083c-.222-.003-.427.115-.574.282-.33.268-.63.597-1 .804-.42.192-.252.85.153.95.364-.246.713-.513 1.06-.783v3.698h-1.157v.736h3.155v-.736h-1.052v-4.943h-.49a.625.625 0 0 0-.095-.009zm-75.58.002c-.2.006-.366.152-.507.289-.297.256-.592.516-.9.758-.51.136-.392.865.061.987.364-.246.714-.513 1.06-.783v3.698H5.889v.736h3.155v-.736H7.992v-4.943H7.42a.442.442 0 0 0-.088-.007zm6.023 0-1.597.034c-.39.073-.818-.102-1.18.106-.091.374-.144.755-.207 1.133-.02.43-.231.833-.22 1.264.056.372.51.407.805.34.4-.142.872-.195 1.247.043.564.356.55 1.226.14 1.695-.364.445-1.034.39-1.492.134-.278-.366-.965-.154-.946.32.24.359.666.52 1.067.62.122.044.25.07.38.067.814.029 1.692-.357 2.046-1.124.28-.636.286-1.453-.158-2.018-.311-.412-.826-.608-1.331-.608-.302 0-.797.051-.776-.395.087-.258-.015-.849.4-.763.606-.053 1.243.12 1.822-.128zm50.657 0c-.21.009-.386.162-.529.311-.29.248-.58.5-.878.74-.525.141-.389.846.062.983a19.29 19.29 0 0 0 1.06-.783v3.698H62.57v.736h3.155v-.736h-1.051v-4.943h-.57a.487.487 0 0 0-.092-.006zm-16.115.004c-.391.021-.295.594-.132.844.941.012 1.884-.03 2.824.025-.345.695-.701 1.383-1.06 2.07-.444.903-.962 1.769-1.366 2.692.324.135.667-.03 1-.002l2.109-4.234c.274-.405.422-.902.362-1.393h-3.652a.416.416 0 0 0-.085-.003zm-21.725.003c-.27.067-.456.364-.693.519-.265.2-.492.466-.783.623-.4.21-.12.77.22.885a19.29 19.29 0 0 0 1.059-.783v3.699h-1.157v.735h3.154v-.735h-1.051v-4.943zm4.744 0-.673.902c-.469.719-1.145 1.32-1.414 2.155-.103.524-.156 1.1.07 1.6.204.56.751.914 1.318 1.028.17.068.36.07.54.053a1.95 1.95 0 0 0 1.501-.704c.357-.354.494-.875.439-1.366.012-.61-.44-1.093-.915-1.414-.125-.148-.318-.08-.484-.095-.273-.076-.62.148-.836-.1.518-.708 1.112-1.357 1.638-2.06zm14 0-1.308 1.108c-.496.128-.256.807.13.92.365-.247.714-.514 1.06-.784v3.699h-1.157v.735h3.155v-.735h-1.052v-4.943zm80.131 0-1.267 1.073c-.51.131-.34.825.091.954a19.29 19.29 0 0 0 1.06-.783v3.699h-1.158v.735h3.155v-.735h-1.051v-4.943zm-56.624.64a.94.94 0 0 1 .57.168c.364.309.367.939.052 1.287-.276.366-.841.27-1.192.073a1.019 1.019 0 0 1-.213-1.007c.115-.338.445-.514.783-.522zm18.993.078a.872.872 0 0 1 .48.167c.44.296.628 1.04.177 1.408-.2.34-.638.408-.994.33-.487-.03-.755-.565-.72-1.006-.007-.553.543-.926 1.057-.899zm18.78.004a.814.814 0 0 1 .11.004c.513.033.775.563.846 1.013.166.544.12 1.117.069 1.675-.03.518-.129 1.16-.651 1.409a.733.733 0 0 1-.524.116c-.582-.119-.86-.747-.908-1.285-.001-.63-.067-1.269.049-1.892.059-.514.475-1.024 1.01-1.04zm-75.528 2.118c.152-.008.305.015.447.075.79.287.817 1.572.055 1.907a1.194 1.194 0 0 1-.672.13c-.612-.061-.963-.751-.81-1.311.083-.47.525-.778.98-.801zm37.646.286c.115-.003.23.009.335.032.718.018 1.065 1.089.499 1.526-.282.397-.78.265-1.182.203-.452-.211-.586-.8-.43-1.244.086-.365.433-.508.778-.517zm-46.23 9.491 12.566.055.054 12.566h-12.62Zm31.442 0v12.621h-12.62l.054-12.566zm-50.371.002h12.62v12.62H3.154Zm56.681 0h12.62v12.62h-12.62Zm18.93 0h12.513v12.62H78.765Zm18.823 0h12.619v12.62h-12.62Zm18.928 0h12.62v12.62h-12.62zM11.853 141.55c-.82-.011-1.663.481-1.901 1.292-.182.597.807.65.953.163.135-.705 1.252-.857 1.586-.23.249.434-.022.913-.12 1.349-.613.634-1.243 1.251-1.845 1.895-.256.332-.773.547-.746 1.031v.282h2.475c.39-.024.781.033 1.168-.013.472-.08.288-.823-.07-.961l-1.477.07c-.146-.037-.636.13-.524-.064.298-.315.592-.633.896-.942.588-.572 1.24-1.207 1.334-2.066.084-.833-.559-1.64-1.38-1.77a1.925 1.925 0 0 0-.349-.036zm113.257.001c-.384-.002-.769.1-1.09.309-.607.36-.853 1.181-.597 1.828.062.348.721.416.42.82-.388.197-.684.543-.706 1.015-.148.885.6 1.735 1.468 1.819.365.11.752.051 1.115-.032a1.669 1.669 0 0 0 1.272-.956 2.214 2.214 0 0 0-.018-1.217c-.059-.436-.585-.495-.741-.853.673-.319.89-1.258.493-1.871-.337-.566-.976-.858-1.616-.862zm-80.108.002c-.46.008-.923.166-1.268.462-.303.268-.609.665-.548 1.09.177.366.805.278.94-.083.124-.698 1.207-.876 1.576-.286.278.437.005.942-.101 1.388-.583.605-1.184 1.192-1.758 1.805-.268.377-.85.593-.833 1.122v.28c.906.003 1.811-.001 2.717 0 .367-.035.775.085 1.112-.068.202-.286.055-.757-.256-.905l-2.031.098c-.067-.08.341-.375.453-.537.452-.507.976-.95 1.387-1.493.437-.605.61-1.503.13-2.134-.338-.51-.928-.748-1.52-.739zm75.721 0c-.39-.01-.788.088-1.12.277-.4.258-.781.66-.825 1.155-.003.492.808.44.95.043.128-.714 1.26-.891 1.604-.253.251.434-.024.913-.12 1.35-.623.645-1.267 1.271-1.875 1.928-.258.314-.745.526-.716.998v.28h2.73c.365-.038.776.085 1.107-.076.188-.287.049-.756-.264-.898l-2.033.098c-.028-.115.408-.443.553-.64.55-.633 1.284-1.147 1.583-1.96.23-.559.142-1.231-.263-1.688-.32-.406-.809-.6-1.31-.613zm-113.512.001a2.072 2.072 0 0 0-1.198.434c-.29.25-.588.582-.607.982.043.57.856.41.994-.03.199-.682 1.287-.762 1.59-.125.238.42-.06.869-.136 1.29-.6.652-1.245 1.263-1.85 1.912-.254.334-.773.548-.746 1.034v.281h2.475c.39-.023.78.033 1.168-.014.472-.079.288-.822-.07-.96l-2.054.098c.057-.153.417-.447.587-.656.533-.61 1.24-1.103 1.542-1.882a1.65 1.65 0 0 0-.22-1.743c-.36-.447-.919-.643-1.475-.62zm94.47 0c-.6.014-1.197.283-1.552.766-.158.237-.354.536-.258.829.221.326.809.206.944-.147.14-.704 1.251-.852 1.588-.227.254.433-.026.913-.12 1.35l-1.855 1.893c-.236.346-.775.543-.736 1.033.002.094 0 .187 0 .281h3.64c.46.01.302-.86-.067-.974l-2.094.101 1.237-1.294c.45-.427.888-.916 1.027-1.54.21-.683-.132-1.445-.73-1.811a1.91 1.91 0 0 0-1.025-.26zm-18.872.001c-.52 0-1.044.19-1.42.544-.243.303-.698.727-.384 1.129.347.304.837-.03.958-.407.27-.601 1.247-.585 1.532-.006.247.42-.064.867-.136 1.29-.61.663-1.269 1.283-1.878 1.946-.255.315-.75.527-.718 1v.28c1.208.004 2.415-.003 3.623.005.483.016.318-.855-.05-.978l-1.679.081c-.113-.021-.46.102-.303-.103.285-.287.559-.582.833-.878.596-.582 1.287-1.216 1.366-2.098.085-.645-.285-1.282-.845-1.59a1.937 1.937 0 0 0-.899-.214zm-56.7.002a2.204 2.204 0 0 0-1.06.346c-.362.288-.757.727-.7 1.219.191.348.797.253.945-.094.13-.715 1.26-.892 1.604-.254.255.434-.026.914-.12 1.35l-1.855 1.894c-.236.346-.778.545-.736 1.033v.281h3.64c.46.01.301-.861-.067-.974l-2.095.1c.42-.432.829-.877 1.25-1.31.496-.46.959-1.021 1.053-1.714.12-.647-.248-1.286-.78-1.633a1.9 1.9 0 0 0-1.08-.244zm4.664 0c-.644-.004-1.293.282-1.647.83-.132.265-.459.663-.06.864.39.269.762-.102.895-.457.203-.426.779-.537 1.167-.306.333.17.506.574.38.931-.046.511-.597.592-1.006.65-.467.163-.14.813.273.783.434-.109.863.263.865.704.045.54-.431 1.006-.955 1.04-.507.05-.856-.405-1.112-.779-.266-.378-.967-.037-.819.407.287.506.732 1.007 1.335 1.109.234.09.491.073.735.043a1.795 1.795 0 0 0 1.518-.828c.426-.601.343-1.523-.25-1.984-.526-.086-.181-.617.161-.703.379-.517.306-1.3-.13-1.76-.352-.364-.85-.54-1.35-.543zm33.29.001a2.084 2.084 0 0 0-1.406.465c-.286.26-.588.612-.556 1.021.129.496.857.282.99-.11.189-.682 1.286-.751 1.582-.12.235.423-.059.87-.137 1.29-.592.643-1.225 1.245-1.821 1.883-.26.349-.793.563-.776 1.064v.28c1.164.004 2.327-.007 3.49.002.601.061.515-.807.083-.975l-1.815.087c-.5.114.014-.268.147-.43.562-.664 1.314-1.186 1.697-1.988.305-.58.258-1.326-.158-1.84-.324-.407-.815-.609-1.32-.629zm-13.439.083c-.207-.006-.454.05-.62.021l-2.256 3.028c-.383.288-.496.961-.085 1.274h2.498v1.367h.526c.202.031.417-.012.309-.277.102-.308-.186-.89.165-.999.357-.07.773-.437.578-.827h-.736v-3.24c-.005-.273-.172-.34-.379-.347zm19.413.006-1.665.035c-.372.087-.903-.163-1.156.186a24.365 24.365 0 0 1-.288 1.72c-.191.378-.134.936.386.972.468-.015.951-.306 1.42-.065.52.182.682.824.535 1.309-.097.463-.54.792-1.007.79-.359.053-.616-.198-.911-.335-.297-.127-.77.038-.713.415.116.454.638.533 1.016.662l.05.019c.516.125 1.077.015 1.544-.224.764-.37 1.147-1.282.996-2.098a1.553 1.553 0 0 0-1.095-1.297c-.397-.176-.877.044-1.241-.21-.138-.27-.113-.795.153-1.01.652-.11 1.346.12 1.976-.149zm34.755.005a3.564 3.564 0 0 0-.388.01c-.355.13-.245.744.059.842.899-.007 1.803-.034 2.703.015-.322.65-.655 1.294-.99 1.937-.471.946-1.008 1.86-1.437 2.826.323.135.667-.031 1-.002l2.026-4.065c.284-.466.53-1.001.445-1.561h-3.027c-.13.004-.26 0-.39-.002zm-17.07.002c-.34.053-.453.561-.709.784-.474.734-1.154 1.343-1.468 2.174-.148.547-.198 1.164.035 1.695.204.561.75.92 1.318 1.033.075.029.154.046.234.055.43.01.888-.025 1.267-.25.423-.27.815-.661.935-1.163.114-.54.074-1.172-.322-1.594-.245-.228-.496-.56-.85-.577-.339-.064-.728.129-1.03-.083.522-.713 1.12-1.367 1.65-2.074zm37.4.641a.93.93 0 0 1 .554.167c.363.31.366.938.05 1.287l-.049.054-.049.055c-.273.193-.789.182-1.08-.042-.344-.233-.265-.695-.22-1.049.135-.31.464-.47.794-.472zm-75.098.667c.032-.003.063.016.094.067-.032.687.111 1.379-.002 2.062l-.053.139h-.725c-.265-.078-.744.191-.824-.197.356-.524.73-1.034 1.104-1.546.125-.087.27-.514.406-.525zm37.308 1.533c.15-.01.304.01.446.068.806.271.843 1.576.073 1.914-.205.104-.44.156-.67.128-.606-.057-.96-.74-.817-1.297.08-.469.515-.782.968-.813zm37.752.289c.127.002.253.017.365.04.645.136.91 1.101.38 1.515-.224.36-.669.26-1.019.247-.566-.094-.765-.793-.6-1.278.098-.408.494-.53.874-.524zm-103 9.489 12.566.053.054 12.567h-12.62Zm-18.93.002h12.62v12.618H3.154Z" style="fill:#5fcb5f;stroke-width:.10516018"/></svg>