<svg xmlns="http://www.w3.org/2000/svg" viewBox="0 0 132.292 197.837" height="747.73" width="500"><path style="opacity:1;vector-effect:none;fill:#fff;fill-opacity:1;stroke-width:.08579215;stroke-linecap:butt;stroke-linejoin:miter;stroke-miterlimit:4;stroke-dasharray:none;stroke-dashoffset:0;stroke-opacity:1" d="M24.366 0v69.32h46.327V53.963h61.598V0H24.366Zm107.925 71.894-107.883.043-.041 53.92h107.925V71.894ZM24.366 128.43l.056 69.349 30.828.057v-15.443h77.042v-53.963H24.366Z"/><path style="fill:#fff;stroke-width:.08579215" d="M0 2.574v10.21h21.791V2.573Zm0 12.869v10.209h21.791v-10.21Zm0 12.783V38.52h21.791V28.226Zm0 12.868V51.39h21.791V41.094Zm0 33.373v10.296h21.791V74.467Zm0 12.87v10.295h21.791V87.336Zm0 12.868v10.21h21.791v-10.21zm0 12.87v10.208h21.791v-10.209Zm0 17.93V141.3h21.791v-10.295zm0 12.868v10.21h21.791v-10.21zm0 12.87v10.208h21.791v-10.209zm0 12.782v10.295h21.791v-10.295z"/><path style="fill:#5fcb5f;stroke-width:.08579215" d="m132.291 71.894-107.883.043-.041 53.92h107.925ZM26.94 74.468h10.295v10.295l-10.238-.057zm15.443 0h10.295v10.295H42.382Zm15.442 0h10.297l-.045 10.252-10.252.044zm15.443 0h10.21v10.295h-10.21Zm15.356 0h10.295v10.295H88.623Zm15.443 0h10.21v10.295h-10.21Zm15.357 0h10.295v10.295h-10.295Zm-71.74 2.492a1.707 1.707 0 0 0-.82.186c-.364.216-.852.612-.716 1.085.596.68.833-.741 1.502-.608.767.043.694.933.45 1.435l-1.346 1.374c-.232.354-.764.537-.768 1.013v.23h2.283c.31-.066.79.194.914-.207-.012-.959-1.28-.457-1.873-.496-.077-.232.697-.774.954-1.13.575-.513 1.093-1.377.673-2.138-.235-.492-.738-.732-1.253-.744zm15.35.003c-.493-.005-.996.194-1.288.582-.497.325-.172 1.127.386.783.174-.54.917-.981 1.363-.468.4.468.01 1.165-.584 1.128-.657.255-.063.747.386.684.723.174.465 1.288-.191 1.373-.704.283-.85-.788-1.473-.718-.646.43.297 1.28.835 1.348.138.052.29.043.435.05.767.052 1.57-.503 1.614-1.306.106-.537-.327-.918-.653-1.209.367-.343.765-.86.485-1.43-.21-.545-.756-.811-1.315-.817zM32.469 77a.824.824 0 0 0-.224.038c-.521.298-1.144.702-1.44 1.229.205.752.87.04 1.196-.209v2.56c-.045.157.12.523-.15.457-.28.043-.912-.171-.794.3v.3h2.574v-.6h-.858v-3.548c.065-.314-.026-.529-.304-.527zm91.062.008a.679.679 0 0 0-.063 0c-.36.022-.624.331-.338.721.767.01 1.535-.024 2.301.022-.633 1.308-1.36 2.567-1.976 3.884.265.108.544-.025.815-.002l1.313-2.634c.254-.64.807-1.22.703-1.956h-2.56a.712.712 0 0 0-.195-.035zm-44.554.007a1.077 1.077 0 0 0-.262.035l-1.594 2.138c-.32.348-.817.954-.316 1.372h1.933c.22 0 .054.388.105.558.075.207-.182.657.195.557.509.122.585-.192.49-.67-.24-.604.779-.327.622-.964-.085-.183-.43-.033-.62-.082v-2.296c.122-.441-.182-.65-.553-.648zm16.044.004a.356.356 0 0 0-.122.023c-.655.117-1.497-.163-2.044.169-.097.56-.159 1.124-.32 1.673-.062.801.847.39 1.303.41.724.04.937 1.033.483 1.508-.465.565-1.101.081-1.632-.026-.77.244.044.913.51.903.954.252 2.114-.407 2.127-1.46.13-.782-.532-1.614-1.346-1.536-.64.166-.769-.44-.533-.9.525-.176 1.198.103 1.697-.179-.041-.195.105-.58-.123-.585zm14.568.023c-.414-.028-.515.565-.8.799-.467.696-1.203 1.324-1.179 2.233-.076.746.447 1.5 1.204 1.606.506.112 1.104.017 1.489-.352.514-.4.685-1.133.443-1.727-.289-.752-1.045-.873-1.75-.827.4-.617.923-1.138 1.354-1.732zM78.72 78.122c.17.33.125 1.192.086 1.723-.137.267-.644.025-.899.12-.517.13-.392-.304-.146-.558.346-.41.606-.885.96-1.285zm30.528 1.226c.829-.021 1.113 1.293.344 1.628a.82.82 0 0 1-1-.13c-.52-.492-.151-1.483.574-1.492.028-.003.055-.006.082-.006zm-82.309 7.988h10.295V97.63H26.94Zm15.442 0h10.295V97.63H42.381Zm15.443 0h10.295V97.63H57.824Zm15.442 0h10.21V97.63h-10.21Zm15.357 0h10.295V97.63H88.623Zm15.443 0h10.21V97.63h-10.21Zm15.357 0h10.295V97.63h-10.295zm-8.307 2.39c-.746.005-1.737.648-1.342 1.424.714.086 1.26-1.445 1.939-.4.454.902-.772.868-.965 1.349.366.406 1.474.437 1.025 1.315-.53.955-1.342.096-1.866-.301-.905.243.112 1.313.69 1.344.424.091.883.057 1.28-.118 1.058-.478.85-1.856.153-2.377.989-.66.447-2.167-.692-2.217a1.12 1.12 0 0 0-.222-.02zm-78.906.014a1.522 1.522 0 0 0-.124 0 1.58 1.58 0 0 0-1.133.524c-.324.367-.344.974-.08 1.378.761.42-.286.644-.301 1.162-.24.755.388 1.601 1.163 1.661.36.116.73.003 1.086-.065.5-.13.958-.618.923-1.155.161-.593-.443-.969-.676-1.27.767-.38.705-1.601-.04-1.97a1.52 1.52 0 0 0-.818-.265zm15.397.001a1.435 1.435 0 0 0-.614.117c-.832.246-1.278 1.315-.85 2.073.302.664 1.081.707 1.704.593-.04.319-.757.984-1.054 1.44l-.147.184c-.599.477.533.334.824.205.4-.542.804-1.082 1.16-1.653.335-.46.567-1 .47-1.58.038-.81-.735-1.361-1.493-1.379zm48.05.001c-.615-.002-1.234.309-1.44.927-.117.853.816.32 1.04-.12 1.105-.633 1.4 1.177.545 1.662-.544.711-1.46 1.144-1.774 2.016v.115c.592.264 1.684.043 2.467.113.636.306 1.03-.644.305-.75-.355-.296-1.854.44-1.252-.306.694-.747 1.833-1.534 1.523-2.706-.19-.634-.8-.949-1.414-.95zm-30.783.003a1.505 1.505 0 0 0-.097.004c-1.108-.01-1.692 1.18-1.605 2.157-.096.988.156 2.32 1.3 2.556.305.08.634.048.925-.068 1.058-.442 1.252-1.78 1.116-2.792-.053-.904-.65-1.866-1.639-1.857zm62.198.044c-.538-.013-.983 1.07-1.364 1.452-.314.637-1.362 1.215-.946 2.012.259.188.657.041.975.088.453.03 1.391-.214 1.15.557-.04.139-.092.309-.008.444 1.048.702.328-1.115 1.166-1.098.638-.69-.711-.242-.472-.833-.018-.771.038-1.553-.026-2.314-.166-.215-.324-.305-.475-.308zm-65.656.013c-.402-.003-1.013.583-1.286.835-.913.756.554.914.868.201v2.27c.49.961-.767.49-.943 1.048v.3h1.764c.335-.03 1.007.166.802-.416.041-.374-.589-.102-.85-.184.006-1.2-.015-2.4.012-3.6-.045-.33-.184-.453-.367-.454zm15.316.018c-.49.009-1.057.682-1.406.984-.563.786.818.558 1.029.035v2.344c.396.925-.862.395-.944.973v.3h1.78c.333-.026.99.157.787-.417.034-.366-.585-.105-.851-.183-.004-1.288.01-2.579-.007-3.864a.509.509 0 0 0-.388-.172zm3.775 0c-.49.009-1.057.682-1.406.984-.563.786.817.558 1.029.035v2.344c.396.925-.862.395-.944.973v.3h1.78c.333-.026.99.157.787-.417.034-.366-.585-.105-.851-.183-.004-1.288.009-2.579-.007-3.864a.508.508 0 0 0-.388-.172zm27.059 0c-.444-.016-1.11.658-1.407.937-.661.786.813.664.996.082v2.334c.4.929-.852.409-.944.983v.3h1.769c.334-.03 1.002.163.797-.416.039-.372-.588-.103-.85-.184.012-1.211-.027-2.426.023-3.633-.07-.284-.21-.396-.384-.402zm15.443 0c-.444-.017-1.11.658-1.407.937-.662.786.813.664.995.082v2.33c.402.93-.848.414-.943.987v.3h1.763c.334-.03 1.008.166.803-.416.042-.374-.59-.102-.85-.184.011-1.21-.028-2.425.023-3.632-.07-.284-.21-.397-.384-.403zm-30.824.001c-.488-.006-1.07.68-1.416.982-.564.787.817.559 1.029.035v2.341c.397.926-.858.4-.944.977v.3h1.777c.333-.027.993.16.79-.417.034-.367-.586-.105-.851-.183-.003-1.281.005-2.565-.004-3.844a.495.495 0 0 0-.38-.191zm-60.072.498c.54 0 1.033.744.537 1.213l-.078.09-.1.06c-.728.345-1.374-.63-.801-1.166a.614.614 0 0 1 .442-.197zm15.482.073c.588.025 1.092.845.578 1.302-.173.38-.718.334-1.041.203-.542-.3-.46-1.224.132-1.43a.644.644 0 0 1 .33-.075zm17.193.033c.462-.01.936.475.892 1.018.019.772.21 1.806-.529 2.315-.432.295-.953-.106-1.07-.54-.153-.79-.25-1.695.134-2.433.155-.25.362-.356.573-.36zm61.9.604c.332.062.164 1.13.162 1.598-.303.254-.726.075-1.078.096-.36-.386.606-1.233.915-1.694zM32.04 92.38a.841.841 0 0 1 .142.016c.656-.124 1.063.847.55 1.248l-.157.158c-.558.266-1.386-.149-1.192-.868.03-.38.33-.564.658-.554zm-5.102 7.823h10.295v10.21H26.94Zm15.443 0h10.295v10.21H42.382Zm15.442 0H68.12v10.21H57.824Zm15.443 0h10.21v10.21h-10.21Zm15.356 0h10.295v10.21H88.623Zm15.443 0h10.21v10.21h-10.21Zm15.357 0h10.295v10.21h-10.295zM95.627 102.6c-.81.01-1.607.642-1.603 1.514-.083.897.847 1.52 1.668 1.306.301.364-.647.95-.856 1.412-.112.238-.57.43-.06.525 1.04.068 1.34-1.096 1.88-1.74.639-.798.811-2.274-.246-2.807a1.458 1.458 0 0 0-.783-.21zm15.395.004c-.971.025-1.694 1.082-1.616 2.044-.074 1.018.102 2.431 1.31 2.683l.117.028.119.016c1.056.1 1.783-.95 1.822-1.911.095-1.05-.108-2.506-1.321-2.804a1.435 1.435 0 0 0-.43-.056zm11.818.001c-.6-.017-1.222.286-1.495.853-.229.987.88.367 1.137-.103 1.097-.426 1.2 1.272.427 1.727-.542.711-1.456 1.143-1.77 2.014v.23h1.587c.544-.094 1.765.354 1.538-.517-.3-.79-2.433.395-1.504-.65.751-.722 1.974-1.767 1.27-2.907-.269-.426-.723-.633-1.19-.647zm-15.477.003c-.56-.005-1.132.266-1.425.771-.418.988.834.587 1.07-.009 1.085-.49 1.254 1.244.47 1.707-.553.705-1.462 1.147-1.782 2.02v.229h1.521c.557-.097 1.46.306 1.686-.33.01-1.083-2.267.208-1.58-.836.745-.717 1.923-1.73 1.295-2.87-.275-.46-.76-.678-1.255-.682zm-27.11.005c-.506-.007-1.007.201-1.263.663-.558.634.266 1.232.216 1.729-1.03.612-.473 2.283.659 2.33a2.198 2.198 0 0 0 .866-.004c.921-.087 1.512-1.24.946-2.004-.957-.387.203-.825.075-1.427-.01-.806-.76-1.276-1.499-1.287zm-16.06.052c-.33.001-.652.04-.95.197.275 1.07 1.648.256 2.394.538-.638 1.306-1.361 2.568-1.979 3.885.851.324 1.216-.643 1.425-1.268.42-1.06 1.247-1.977 1.403-3.134-.008-.387-.698-.104-1.012-.19-.419.036-.857-.028-1.281-.028zm-13.993.006a1.608 1.608 0 0 0-.285.022c-.893.297-1.36 1.5-1.93 2.257-.459.887-.052 2.237 1.032 2.381l.143.033.147.015c1.225.163 2.273-1.38 1.487-2.403-.21-.807-1.94-.187-1.282-1.014.227-.382 1.399-1.267.688-1.29zm-16.002.01c-.451-.003-.889.057-1.177.33.102.632-.736 1.751.109 2.007.667-.116 1.713-.135 1.63.835.013.786-.92 1.1-1.507.687-.969-.51-.623.991.15.79.58.177 1.292-.043 1.708-.475.735-.73.527-2.308-.613-2.48-.586.109-1.417-.392-.715-.916.451-.295 2.005.249 1.424-.72-.3-.012-.659-.054-1.01-.057zm42.563.005c-.463 0-1.127.675-1.416.977-.608.78.798.585 1.01.045v2.34c.398.929-.862.402-.943.978v.3h1.765c.335-.03 1.006.165.801-.416.04-.373-.589-.102-.85-.184.004-1.259-.01-2.518.007-3.776-.088-.189-.22-.264-.374-.264zm-30.796.005c-.444-.015-1.107.659-1.405.937-.66.785.814.663.996.08v2.337c.4.928-.854.406-.944.981v.3h1.773c.333-.029.998.162.794-.416.037-.37-.587-.104-.85-.184.011-1.212-.028-2.429.023-3.637-.072-.281-.213-.392-.387-.398zm-15.356 0c-.54-.005-1.05.638-1.432.98-.615.748.807.592 1.022.038v2.346c.396.924-.863.393-.944.971v.3h1.783c.331-.026.987.156.784-.417.033-.365-.585-.105-.85-.183.009-1.305-.02-2.616.015-3.916a.698.698 0 0 0-.378-.119zm61.6 0c-.54-.006-1.05.638-1.433.98-.616.748.808.593 1.022.038v2.343c.396.925-.86.397-.944.974v.3h1.779c.332-.027.99.158.788-.417.034-.367-.586-.104-.851-.183.01-1.305-.02-2.615.015-3.916a.696.696 0 0 0-.377-.119zm34.508.007c-.422-.002-1.1.538-1.328.853-.891.737.667.844.897.157v2.331c.402.93-.848.414-.943.987v.3h1.762c.335-.031 1.009.166.804-.417.043-.374-.59-.1-.85-.184.006-1.156-.013-2.316.01-3.469.02-.407-.13-.557-.352-.557zm-65.402.06c-.365-.002-.831.247-1.057.641-1.096.695.393 1.134.74.31v1.996c.341.876-.44.916-.943 1.32v.3c.741.005 1.483-.007 2.224.009.854-.148.053-.934-.509-.609l.001-3.087c.176-.62-.09-.876-.455-.88zm18.88.438c.531.01 1.121.685.585 1.206-.434.607-1.409-.094-1.161-.734.106-.346.335-.477.576-.472zm15.313.068c.604-.011 1.286.736.71 1.3-.58.8-1.786-.049-1.305-.882.133-.294.358-.414.595-.418zm15.517.036c.445-.012.913.404.887.94.039.797.23 1.85-.519 2.387-.412.287-.926-.079-1.054-.496-.183-.78-.248-1.667.08-2.417.146-.285.373-.409.606-.415zm-61.644 1.704c.047-.001.096.003.145.01.826.026.982 1.304.268 1.613a.82.82 0 0 1-1-.128c-.537-.51-.122-1.485.587-1.496zm30.847.201c.637.002 1.213.792.635 1.31l-.094.099-.12.07c-.9.476-1.627-.92-.774-1.392a.749.749 0 0 1 .354-.087zm-42.994 7.782v10.296H26.937l.044-10.252zm20.59 0 10.252.044.045 10.252H57.824Zm-15.442 0h10.295v10.296H42.382Zm30.885 0h10.21v10.296h-10.21Zm15.356 0h10.295v10.296H88.623Zm15.443 0h10.21v10.296h-10.21Zm15.357 0h10.295v10.296h-10.295zm-70.054 2.48c-.747.025-1.824.818-1.166 1.449.572-.104 1.186-1.406 1.801-.421.504.84-.631.85-.895 1.306.214.474 1.393.394 1.007 1.28-.414.962-1.341.336-1.79-.203-1.04.013-.056 1.342.586 1.317.184.046.374.06.562.048 1.022.076 1.937-1.215 1.282-2.084-.62-.2-.388-.662.013-.953.433-.778-.347-1.74-1.185-1.722a.833.833 0 0 0-.143-.017 1.043 1.043 0 0 0-.072 0zm11.84.01c-.56-.006-1.134.265-1.427.771-.418.988.834.585 1.071-.01 1.084-.489 1.252 1.246.47 1.708-.555.704-1.463 1.147-1.783 2.019v.229h1.644c.514-.096 1.505.311 1.547-.402-.13-.96-2.175.234-1.627-.69.734-.762 2.005-1.752 1.36-2.94-.274-.461-.76-.68-1.255-.685zm46.157 0c-.561-.006-1.135.265-1.428.771-.417.988.834.585 1.071-.01 1.084-.489 1.252 1.246.47 1.708-.554.704-1.463 1.147-1.783 2.019v.229h1.647c.513-.096 1.503.31 1.544-.402-.13-.96-2.175.234-1.627-.69.734-.762 2.005-1.752 1.36-2.94-.274-.461-.76-.68-1.255-.685zm-77.016.001c-.558.012-1.118.291-1.386.81-.298.99.859.46 1.109-.056 1.095-.456 1.221 1.263.439 1.719-.543.71-1.457 1.142-1.771 2.014v.229h1.711c.562.019 1.994.171 1.245-.71-.397-.375-1.986.434-1.46-.318.717-.778 2.001-1.678 1.482-2.894-.257-.55-.811-.806-1.37-.794zm3.675 0c-.553.017-1.106.297-1.372.81-.298.99.859.46 1.109-.056 1.095-.456 1.221 1.263.439 1.719-.543.71-1.457 1.142-1.771 2.014v.229h1.92c.533.125 1.773-.02 1.024-.744-.414-.249-2.135.447-1.28-.467.717-.692 1.819-1.625 1.303-2.737-.266-.538-.82-.785-1.372-.768zm11.716.002c-.565 0-1.137.273-1.416.795-.356 1.003.85.499 1.1-.048 1.086-.45 1.223 1.258.454 1.719-.553.705-1.462 1.147-1.781 2.018v.23h1.499c.538-.043 1.114.109 1.617-.083.531-1.348-1.835-.13-1.61-.956.721-.761 1.931-1.636 1.5-2.837-.244-.567-.8-.839-1.363-.838zm30.8 0c-.565 0-1.138.273-1.416.795-.357 1.003.85.5 1.1-.048 1.086-.45 1.223 1.257.454 1.719-.554.705-1.463 1.147-1.782 2.018v.23h1.447c.555-.043 1.148.107 1.67-.083.531-1.348-1.836-.131-1.61-.956.72-.761 1.93-1.636 1.5-2.837-.244-.567-.8-.839-1.364-.838zm46.243 0c-.565 0-1.139.272-1.417.794-.357 1.003.85.5 1.1-.047 1.085-.45 1.223 1.257.454 1.719-.554.705-1.463 1.146-1.782 2.018v.23h1.443c.556-.043 1.15.107 1.673-.082.524-1.341-1.82-.146-1.621-.945.722-.765 1.94-1.64 1.513-2.847-.243-.567-.799-.84-1.363-.84zm3.555.001c-.558.017-1.094.297-1.277.876-.485.667.465 1.021.27 1.584-1.024.581-.398 2.229.689 2.261a1.823 1.823 0 0 0 .674.034c1.058.01 1.798-1.31 1.064-2.135-.906-.38.424-.808.147-1.465-.094-.766-.85-1.177-1.567-1.155zm-34.327.006c-.575-.006-1.167.264-1.46.776-.346.87.809.697.98.05 1.04-.75 1.49 1.124.601 1.624-.559.705-1.47 1.151-1.794 2.027v.23h1.722c.475-.085 1.008.222 1.398-.149.337-1.227-1.49-.162-1.69-.798.715-.808 1.969-1.633 1.6-2.884-.225-.59-.783-.87-1.357-.876zm-26.569.036c-.506.032-.943 1.036-1.297 1.406-.32.643-1.26 1.153-1.048 1.956.19.36.674.127 1.008.193.459.037 1.424-.227 1.182.558.013.155-.02.31-.006.465.647.482.801-.341.703-.854.553-.107.893-.978-.01-.77-.017-.876.032-1.762-.024-2.63-.158-.219-.311-.314-.459-.324a.413.413 0 0 0-.049 0zm44.742.016c-.249.002-.487.04-.694.182.05 1.03 1.682.298 2.388.545-.635 1.307-1.363 2.569-1.979 3.886l.1.031.1.012c1.028.135 1.024-1.258 1.536-1.892.334-.924 1.128-1.714 1.095-2.742h-1.579c-.31.032-.647-.025-.967-.022zm-30.343.004c-.861.033-.613 1.31-.887 1.89.275 1.067 1.633-.197 1.975.861.372.741-.451 1.577-1.204 1.221-.998-.808-1.085.824-.081.682.962.261 2.085-.402 2.131-1.445.185-1.152-.94-1.64-1.875-1.642-.55-1.01.91-.895 1.518-.892.686-.963-.98-.553-1.49-.674a.982.982 0 0 0-.087 0zm16.578.017c-1.142-.031-1.509 1.475-2.174 2.206-.486.892-.095 2.284 1.013 2.432a1.668 1.668 0 0 0 .605.036c1.12-.06 1.858-1.462 1.177-2.388-.163-.822-1.968-.13-1.267-1.068.145-.32 1.388-1.155.646-1.218zm29.925.498c.535-.01 1.123.7.591 1.211-.518.636-1.45-.14-1.126-.811.123-.28.325-.396.535-.4zm-61.256.708c.332.061.164 1.13.162 1.598-.3.25-.724.073-1.074.098-.365-.395.604-1.233.912-1.696zm30.548 1.073c.716.032 1.3 1.239.4 1.656-.897.501-1.633-.671-1.002-1.364.19-.218.402-.301.602-.292zm30.72.234c.638-.009 1.252.776.662 1.309l-.067.093-.083.061c-.834.458-1.676-.689-.943-1.317a.734.734 0 0 1 .43-.146z"/><path style="fill:#010101;stroke-width:.08579215" d="M0 2.574v10.21h21.791V2.573Zm18.097 2.741c.117.002.237.013.348.004v3.604h.463c.195-.019.405-.021.31.257v.258H16.9v-.515h.772c-.002-.785.005-1.57-.004-2.354.072-.444-.332-.028-.475.096-.245.298-.467-.134-.64-.287l1.025-.867c.133-.176.322-.198.518-.195zm-11.062.39h.515V6.97c.024.196-.111.631.222.538l.468-.614c.126-.261.443-.324.697-.21.051.285-.54.632-.698.973l.716 1.019c.1.126.206.255-.033.204-.24 0-.549.055-.635-.248-.196-.23-.352-.811-.737-.685v.934h-.515Zm-3.486.917a.516.516 0 0 1 .352.11c.557.396.613 1.274.231 1.812-.242.4-.76.45-1.162.29-.246-.137-.1.25-.139.389v.429h-.515v-2.48c-.147-.358.276-.812.495-.35.207-.02.473-.188.738-.2Zm8.142.01a.475.475 0 0 1 .19.049c.117.02.083.145.152.2.095-.02.164-.104.241-.158.2-.133.448-.054.671-.074l.477.41.067 1.82h-.62V7.807c-.007-.125.002-.25.004-.374a.364.364 0 0 0-.324-.367c-.224-.012-.426.144-.538.327V8.88h-.515V6.937c-.002-.08-.051-.17.015-.241a.241.241 0 0 1 .18-.064zm-6.004.01c.329 0 .658.134.81.448.17.223.092.504.109.76h-.894c-.203.031-.574-.123-.552.207.072.432.623.497.954.327.29-.328.726.303.256.353-.344.185-.758.262-1.128.1-.479-.169-.671-.705-.64-1.176-.008-.486.353-.969.86-.998a1.222 1.222 0 0 1 .225-.022zm4.571.002c.127 0 .25.01.361.074.336.188.484.476.422.857-.001.371.029.74.043 1.109-.045.5-.481-.004-.72.086-.34.245-.984.257-1.137-.215-.085-.212-.103-.473.131-.582.207-.207.46-.346.765-.34.335.075.436-.23.282-.473-.298-.116-.648.074-.969.01-.264-.254.243-.445.444-.52.123.01.252-.004.378-.006zm-4.588.424c-.175.004-.353.085-.416.246l-.069.105c-.15.152.142.066.234.088.222-.025.484.075.67-.068.027-.25-.194-.375-.42-.37Zm-2.373.004a.464.464 0 0 0-.342.155c-.191.297-.191.796-.02 1.121.064.122.22.108.336.103.424.07.546-.515.516-.842a.488.488 0 0 0-.49-.537Zm6.916.903c-.268.01-.603.188-.436.429l.026.045c.26.273.843-.06.634-.424a.37.37 0 0 0-.224-.05zM0 15.443v10.209h21.791v-10.21Zm17.925 2.648a1.213 1.213 0 0 1 .442.077c.374.129.653.422.817.772.132.428-.042.86-.225 1.244l-1.401 1.432c.073.1.616-.009.872.01.328-.065.965-.063.873.433v.247h-2.51c-.27.032-.532.012-.407-.359l1.449-1.494c.29-.269.61-.555.6-.989.159-.396-.281-.816-.645-.74-.497-.002-.439.733-.9.665-.54.113-.344-.468-.141-.712a1.55 1.55 0 0 1 1.176-.587zm-10.89.483h.515v1.264c.024.196-.111.63.222.538l.468-.614c.126-.261.443-.325.697-.211.051.286-.54.632-.698.974l.716 1.018c.1.127.206.256-.033.205-.24 0-.549.055-.635-.248-.196-.231-.352-.811-.737-.686v.934h-.515Zm-3.486.917a.516.516 0 0 1 .352.11c.557.396.613 1.274.231 1.812-.242.4-.76.45-1.162.29-.246-.137-.1.25-.139.388v.43h-.515v-2.48c-.147-.358.276-.812.495-.35.207-.02.473-.188.738-.2zm8.142.01a.47.47 0 0 1 .19.048c.117.02.083.146.152.2.095-.02.164-.104.241-.157.2-.134.448-.055.671-.075l.477.41.067 1.82h-.62v-1.073c-.007-.125.002-.25.004-.374a.364.364 0 0 0-.324-.367c-.224-.012-.426.144-.538.327v1.488h-.515v-1.943c-.002-.08-.051-.17.015-.241a.241.241 0 0 1 .18-.064zm-6.004.008c.329 0 .658.135.81.449.17.222.092.504.109.76h-.894c-.203.031-.574-.123-.552.207.072.432.623.497.954.327.29-.328.726.303.256.353-.344.185-.758.261-1.128.1-.479-.169-.671-.706-.64-1.176-.008-.486.353-.97.86-.999a1.222 1.222 0 0 1 .225-.02zm4.571.003c.127 0 .25.01.361.074.336.188.484.476.422.857-.001.37.029.74.043 1.109-.045.5-.481-.005-.72.086-.34.245-.984.256-1.137-.215-.085-.213-.103-.473.131-.582.207-.208.46-.347.765-.34.335.075.436-.23.282-.473-.298-.116-.648.074-.969.01-.264-.254.243-.445.444-.52.123.01.252-.004.378-.006zm-4.588.424c-.175.003-.353.085-.416.246l-.069.104c-.15.153.142.067.234.089.222-.026.484.075.67-.068.027-.251-.194-.375-.42-.37zm-2.373.004a.464.464 0 0 0-.342.155c-.191.297-.191.796-.02 1.121.064.122.22.108.336.103.424.07.546-.515.516-.842a.488.488 0 0 0-.49-.537zm6.916.902c-.268.01-.603.189-.436.43l.026.045c.26.273.843-.06.634-.424a.37.37 0 0 0-.224-.05zM0 28.226V38.52h21.791V28.226Zm17.957 2.74c.216.002.431.053.627.163.228.155.55.368.59.648-.021.348.11.779-.252 1-.525.207.138.369.205.629.441.656-.063 1.628-.814 1.76-.453.195-.956.047-1.364-.178-.239-.202-.825-.85-.307-.978.488-.227.594.39.918.564.431.087 1.026-.061.972-.611.064-.473-.468-.598-.827-.656-.22-.003-.077-.306-.117-.457.168-.15.87-.014.854-.525.082-.397-.18-.79-.613-.728-.257-.029-.418.136-.505.353-.092.327-.451.418-.733.25-.129-.372.214-.859.563-1.02a1.614 1.614 0 0 1 .803-.215zM7.035 31.4h.515v1.263c.024.197-.111.632.222.539l.468-.614c.126-.262.443-.325.697-.211.051.285-.54.632-.698.974l.716 1.019c.1.126.206.255-.033.204-.24 0-.549.055-.635-.248-.196-.231-.352-.811-.737-.685v.934h-.515Zm-3.486.917a.516.516 0 0 1 .352.11c.557.396.613 1.274.231 1.812-.242.4-.76.449-1.162.29-.246-.137-.1.25-.139.388v.43h-.515v-2.48c-.147-.358.276-.812.495-.35.207-.02.473-.188.738-.2zm8.142.01a.47.47 0 0 1 .19.048c.117.02.083.146.152.2.095-.019.164-.103.241-.157.2-.133.448-.054.671-.074l.477.41.067 1.82h-.62v-1.073c-.007-.125.002-.25.004-.374a.364.364 0 0 0-.324-.367c-.224-.012-.426.144-.538.327v1.487h-.515v-1.942c-.002-.08-.051-.17.015-.241a.241.241 0 0 1 .18-.064zm-6.004.01c.329 0 .658.134.81.448.17.222.092.503.109.76h-.894c-.203.031-.574-.123-.552.207.072.432.623.497.954.327.29-.328.726.302.256.353-.344.185-.758.261-1.128.1-.479-.169-.671-.706-.64-1.176-.008-.486.353-.97.86-.999a1.222 1.222 0 0 1 .225-.02zm4.571.002c.127 0 .25.01.361.074.336.188.484.476.422.857-.001.37.029.739.043 1.109-.045.5-.481-.005-.72.086-.34.245-.984.256-1.137-.215-.085-.213-.103-.473.131-.582.207-.208.46-.346.765-.34.335.075.436-.23.282-.473-.298-.116-.648.074-.969.01-.264-.254.243-.445.444-.521.123.011.252-.003.378-.005zm-4.588.424c-.175.003-.353.085-.416.246l-.069.104c-.15.152.142.067.234.089.222-.026.484.074.67-.068.027-.25-.194-.375-.42-.37zm-2.373.004a.464.464 0 0 0-.342.155c-.191.297-.191.796-.02 1.12.064.123.22.11.336.104.424.07.546-.516.516-.842a.488.488 0 0 0-.49-.537Zm6.916.903c-.268.01-.603.188-.436.428l.026.046c.26.273.843-.061.634-.425a.367.367 0 0 0-.224-.05zM0 41.095V51.39h21.791V41.095Zm18.552 2.731c.106-.003.216.003.322.014v2.574h.515v.514h-.515v.952c.004.165-.283.039-.404.078-.399-.111-.13-.685-.24-.987l-1.85-.048-.172-.453c.525-.73 1.065-1.45 1.602-2.172.126-.359.422-.461.742-.472zm-11.517.443h.515v1.263c.024.197-.111.632.222.539l.468-.615c.126-.26.443-.324.697-.21.051.285-.54.632-.698.974l.716 1.018c.1.127.206.255-.033.205-.24 0-.549.055-.635-.249-.196-.23-.352-.81-.737-.685v.934h-.515Zm11.22.47c-.066.004-.223.24-.285.331-.274.445-.667.811-.894 1.283.32.15.732-.006 1.085.015.173-.339.05-.992.11-1.452.026-.13.015-.177-.016-.176zm-14.706.447a.516.516 0 0 1 .352.11c.557.396.613 1.274.231 1.812-.242.4-.76.449-1.162.29-.246-.137-.1.25-.139.388v.43h-.515v-2.48c-.147-.358.276-.812.495-.35.207-.02.473-.188.738-.2zm8.142.01a.47.47 0 0 1 .19.048c.117.02.083.146.152.2.095-.019.164-.103.241-.157.2-.133.448-.054.671-.074l.477.41.067 1.82h-.62V46.37c-.007-.125.002-.25.004-.374a.364.364 0 0 0-.324-.367c-.224-.012-.426.143-.538.326v1.488h-.515v-1.942c-.002-.08-.051-.171.015-.241a.242.242 0 0 1 .18-.064zm-6.004.009c.329 0 .658.135.81.448.17.223.092.504.109.76h-.894c-.203.032-.574-.122-.552.207.072.432.623.497.954.328.29-.329.726.302.256.352-.344.186-.758.262-1.128.1-.479-.169-.671-.705-.64-1.175-.008-.487.353-.97.86-1 .073-.013.149-.02.225-.02zm4.571.003c.127-.001.25.01.361.073.336.188.484.477.422.857-.001.371.029.74.043 1.109-.045.5-.481-.004-.72.087-.34.244-.984.255-1.137-.215-.085-.213-.103-.474.131-.583.207-.207.46-.346.765-.34.335.075.436-.23.282-.473-.298-.116-.648.075-.969.01-.264-.253.243-.445.444-.52.123.01.252-.004.378-.006zm-4.588.424c-.175.004-.353.085-.416.245l-.069.105c-.15.152.142.067.234.088.222-.025.484.075.67-.068.027-.25-.194-.375-.42-.37zm-2.373.004a.464.464 0 0 0-.342.155c-.191.296-.191.795-.02 1.12.064.122.22.108.336.103.424.07.546-.515.516-.841a.488.488 0 0 0-.49-.537zm6.916.902c-.268.01-.603.188-.436.429l.026.046c.26.272.843-.062.634-.425a.37.37 0 0 0-.224-.05zM0 74.468v10.295h21.791V74.467Zm18.148 2.819c.098-.004.198 0 .297.012v3.333c-.013.167-.028.336.192.27.22.024.7-.119.58.257v.258h-2.316v-.515h.772v-1.695c-.06-.244.19-1.121-.287-.737-.2.358-.586.305-.763-.041-.03-.275.556-.515.764-.776.189-.263.466-.354.76-.366zm-11.113.334h.515v1.263c.024.196-.111.631.222.538l.468-.614c.126-.26.443-.324.697-.21.051.285-.54.632-.698.973l.716 1.019c.1.126.206.255-.033.205-.24-.001-.549.055-.635-.249-.196-.23-.352-.811-.737-.685v.934h-.515Zm-3.486.916a.516.516 0 0 1 .352.11c.557.396.613 1.274.231 1.812-.242.4-.76.45-1.162.29-.246-.137-.1.25-.139.389v.429h-.515v-2.479c-.147-.359.276-.812.495-.35.207-.02.473-.189.738-.2zm8.142.01a.475.475 0 0 1 .19.049c.117.02.083.146.152.2.095-.02.164-.103.241-.157.2-.134.448-.054.671-.075l.477.41.067 1.82h-.62v-1.072c-.007-.125.002-.25.004-.375a.364.364 0 0 0-.324-.367c-.224-.011-.426.144-.538.327v1.488h-.515v-1.942c-.002-.08-.051-.171.015-.242a.242.242 0 0 1 .18-.064zm-6.004.01c.329 0 .658.134.81.449.17.222.092.503.109.76h-.894c-.203.03-.574-.124-.552.207.072.431.623.496.954.327.29-.329.726.302.256.352-.344.185-.758.262-1.128.1-.479-.169-.671-.705-.64-1.175-.008-.487.353-.97.86-1 .073-.013.149-.02.225-.02Zm4.571.002c.127 0 .25.01.361.074.336.188.484.476.422.857-.001.371.029.74.043 1.109-.045.5-.481-.005-.72.087-.34.244-.984.255-1.137-.215-.085-.213-.103-.474.131-.583.207-.207.46-.346.765-.34.335.075.436-.23.282-.473-.298-.116-.648.075-.969.01-.264-.253.243-.445.444-.52.123.01.252-.004.378-.006zm-4.588.425c-.175.003-.353.085-.416.245l-.069.105c-.15.152.142.067.234.088.222-.025.484.075.67-.068.027-.25-.194-.375-.42-.37zm-2.373.004a.464.464 0 0 0-.342.154c-.191.297-.191.796-.02 1.121.064.122.22.109.336.103.424.07.546-.515.516-.841a.488.488 0 0 0-.49-.537zm6.916.902c-.268.01-.603.188-.436.429l.026.046c.26.272.843-.061.634-.425a.37.37 0 0 0-.224-.05zM0 87.336v10.296h21.791V87.336Zm17.925 2.735c.15-.001.3.023.442.077.374.129.653.421.817.771.132.429-.042.86-.225 1.245l-1.375 1.405c-.074.17.627-.003.846.037.328-.065.965-.063.873.433v.247h-2.51c-.27.032-.532.012-.407-.359l1.325-1.366c.234-.288.62-.496.68-.885.126-.355.078-.892-.38-.957-.557-.166-.662.497-1.019.666-.557.12-.528-.418-.243-.728.271-.35.726-.583 1.176-.586zm-10.89.418h.515v1.264c.024.196-.111.631.222.538l.468-.614c.126-.261.443-.324.697-.21.051.285-.54.631-.698.973l.716 1.019c.1.126.206.255-.033.205-.24-.001-.549.054-.635-.25-.196-.23-.352-.81-.737-.684v.934h-.515Zm-3.486.917a.516.516 0 0 1 .352.11c.557.396.613 1.274.231 1.812-.242.4-.76.45-1.162.29-.246-.137-.1.25-.139.389v.429h-.515v-2.48c-.147-.358.276-.812.495-.35.207-.02.473-.188.738-.2zm8.142.01a.47.47 0 0 1 .19.048c.117.02.083.146.152.2.095-.019.164-.103.241-.157.2-.134.448-.055.671-.075l.477.41.067 1.821h-.62V92.59c-.007-.125.002-.25.004-.375a.364.364 0 0 0-.324-.366c-.224-.012-.426.143-.538.326v1.488h-.515v-1.942c-.002-.08-.051-.171.015-.241a.242.242 0 0 1 .18-.065zm-6.004.008c.329 0 .658.135.81.45.17.222.092.503.109.76h-.894c-.203.03-.574-.124-.552.206.072.432.623.497.954.328.29-.33.726.302.256.352-.344.185-.758.261-1.128.1-.479-.169-.671-.706-.64-1.176-.008-.486.353-.969.86-.998.073-.014.149-.022.225-.022zm4.571.003a.7.7 0 0 1 .361.074c.336.188.484.476.422.857-.001.371.029.74.043 1.109-.045.5-.481-.005-.72.087-.34.244-.984.255-1.137-.216-.085-.212-.103-.473.131-.582.207-.208.46-.346.765-.34.335.075.436-.23.282-.473-.298-.116-.648.075-.969.01-.264-.253.243-.445.444-.52.123.01.252-.005.378-.006zm-4.588.425c-.175.003-.353.085-.416.245l-.069.104c-.15.153.142.067.234.089.222-.025.484.075.67-.068.027-.25-.194-.375-.42-.37zm-2.373.004a.464.464 0 0 0-.342.155c-.191.296-.191.795-.02 1.12.064.122.22.109.336.103.424.07.546-.515.516-.841a.488.488 0 0 0-.49-.537zm6.916.902c-.268.01-.603.188-.436.429l.026.046c.26.272.843-.061.634-.425a.37.37 0 0 0-.224-.05zM0 100.205v10.21h21.791v-10.21zm17.944 2.655c.102.001.202.012.3.033.397.083.683.37.93.672v.625c.17.386-.705.542-.377.783.46.26.602.857.41 1.33-.156.35-.499.693-.894.756-.453.196-.956.048-1.364-.177-.239-.202-.825-.85-.307-.978.45-.203.602.318.868.541.405.109 1.029.019 1.021-.523.099-.47-.388-.663-.766-.709-.283.04-.147-.265-.177-.432.123-.25.778.005.84-.473.153-.427-.17-.893-.638-.828-.482-.033-.427.733-.855.672-.553.16-.409-.515-.151-.763.262-.341.72-.53 1.16-.529zm-10.909.455h.515v1.264c.024.196-.111.631.222.538l.468-.614c.126-.261.443-.324.697-.211.051.286-.54.632-.698.974l.716 1.019c.1.126.206.255-.033.204-.24 0-.549.055-.635-.248-.196-.231-.352-.811-.737-.685v.933h-.515Zm-3.486.917a.516.516 0 0 1 .352.11c.557.396.613 1.274.231 1.812-.242.4-.76.45-1.162.29-.246-.137-.1.25-.139.389v.429h-.515v-2.48c-.147-.358.276-.812.495-.35.207-.02.473-.188.738-.2zm8.142.01a.475.475 0 0 1 .19.048c.117.02.083.146.152.2.095-.018.164-.103.241-.157.2-.133.448-.054.671-.074l.477.41.067 1.82h-.62v-1.073c-.007-.125.002-.25.004-.374a.364.364 0 0 0-.324-.367c-.224-.012-.426.144-.538.327v1.488h-.515v-1.943c-.002-.08-.051-.17.015-.24a.242.242 0 0 1 .18-.065zm-6.004.01c.329 0 .658.134.81.448.17.223.092.504.109.76h-.894c-.203.032-.574-.123-.552.207.072.432.623.497.954.327.29-.328.726.303.256.353-.344.185-.758.261-1.128.1-.479-.169-.671-.706-.64-1.176-.008-.486.353-.97.86-.998.073-.014.149-.022.225-.022zm4.571.002c.127 0 .25.01.361.074.336.188.484.476.422.857-.001.37.029.74.043 1.109-.045.5-.481-.005-.72.086-.34.245-.984.256-1.137-.215-.085-.213-.103-.473.131-.582.207-.208.46-.346.765-.34.335.075.436-.23.282-.473-.298-.116-.648.075-.969.01-.264-.254.243-.445.444-.52.123.01.252-.004.378-.006zm-4.588.424c-.175.003-.353.085-.416.246l-.069.104c-.15.153.142.067.234.09.222-.026.484.074.67-.069.027-.25-.194-.375-.42-.37zm-2.373.004a.464.464 0 0 0-.342.155c-.191.297-.191.796-.02 1.121.064.122.22.108.336.103.424.07.546-.515.516-.842a.488.488 0 0 0-.49-.537zm6.916.903c-.268.01-.603.188-.436.429l.026.046c.26.272.843-.062.634-.425a.37.37 0 0 0-.224-.05zM0 113.075v10.208h21.791v-10.209Zm18.552 2.73a2.43 2.43 0 0 1 .322.014v2.574h.515v.515h-.515v.795c.052.213-.045.276-.248.235-.353.1-.428-.321-.375-.59.17-.668-.701-.323-1.09-.425-.373.049-.94.037-.953-.473.525-.731 1.065-1.45 1.602-2.172.126-.36.422-.461.742-.472zm-11.517.379h.515v1.264c.024.196-.111.631.222.538l.468-.614c.126-.261.443-.325.697-.211.051.285-.54.632-.698.974l.716 1.018c.1.127.206.256-.033.205-.24 0-.549.055-.635-.248-.196-.231-.352-.812-.737-.685v.933h-.515Zm11.227.507c-.062.003-.22.285-.32.401-.276.423-.645.785-.866 1.24.341.156.78-.02 1.155.018l.04-1.447c.027-.157.019-.214-.01-.212zm-14.713.41a.516.516 0 0 1 .352.11c.557.396.613 1.274.231 1.812-.242.4-.76.45-1.162.29-.246-.137-.1.25-.139.389v.429h-.515v-2.48c-.147-.358.276-.812.495-.35.207-.02.473-.188.738-.2zm8.142.01a.475.475 0 0 1 .19.048c.117.02.083.146.152.2.095-.019.164-.103.241-.157.2-.133.448-.054.671-.074l.477.41.067 1.82h-.62v-1.073c-.007-.125.002-.25.004-.374a.364.364 0 0 0-.324-.367c-.224-.012-.426.143-.538.327v1.487h-.515v-1.942c-.002-.08-.051-.17.015-.241a.242.242 0 0 1 .18-.064zm-6.004.009c.329 0 .658.135.81.45.17.222.092.502.109.76h-.894c-.203.03-.574-.124-.552.206.072.432.623.497.954.327.29-.328.726.302.256.353-.344.185-.758.261-1.128.1-.479-.17-.671-.706-.64-1.176-.008-.486.353-.97.86-.999a1.24 1.24 0 0 1 .225-.021zm4.571.003c.127-.001.25.01.361.074.336.188.484.476.422.857-.001.37.029.739.043 1.109-.045.5-.481-.004-.72.086-.34.245-.984.256-1.137-.215-.085-.213-.103-.473.131-.582.207-.208.46-.347.765-.34.335.075.436-.23.282-.473-.298-.117-.648.074-.969.01-.264-.254.243-.446.444-.521.123.01.252-.003.378-.005zm-4.588.424c-.175.004-.353.085-.416.246l-.069.104c-.15.152.142.067.234.089.222-.025.484.074.67-.068.027-.25-.194-.375-.42-.37zm-2.373.004a.464.464 0 0 0-.342.155c-.191.296-.191.796-.02 1.12.064.123.22.109.336.104.424.07.546-.516.516-.842a.488.488 0 0 0-.49-.537zm6.916.903c-.268.01-.603.188-.436.429l.026.045c.26.273.843-.06.634-.425a.37.37 0 0 0-.224-.05zM0 131.004V141.3h21.791v-10.295zm18.148 2.82c.098-.004.198.001.297.012v3.332c-.013.168-.028.337.192.27.22.025.7-.118.58.258v.258h-2.316v-.515h.772v-1.695c-.06-.244.19-1.121-.287-.737-.2.358-.586.305-.763-.042-.03-.274.556-.514.764-.775.189-.263.466-.355.76-.366zm-11.113.333h.515v1.264c.024.196-.111.631.222.538l.468-.614c.126-.26.443-.324.697-.21.051.285-.54.632-.698.973l.716 1.019c.1.126.206.255-.033.205-.24 0-.549.054-.635-.249-.196-.23-.352-.81-.737-.685v.934h-.515Zm-3.486.917a.516.516 0 0 1 .352.11c.557.397.613 1.274.231 1.812-.242.4-.76.45-1.162.29-.246-.137-.1.25-.139.389v.429h-.515v-2.479c-.147-.358.276-.813.495-.35.207-.02.473-.189.738-.2zm8.142.01a.475.475 0 0 1 .19.049c.117.02.083.146.152.2.095-.019.164-.103.241-.158.2-.132.448-.054.671-.074l.477.41.067 1.821h-.62v-1.074c-.007-.124.002-.25.004-.374a.364.364 0 0 0-.324-.367c-.224-.011-.426.144-.538.327v1.488h-.515v-1.943c-.002-.08-.051-.17.015-.24a.242.242 0 0 1 .18-.065zm-6.004.01c.329 0 .658.134.81.448.17.223.092.503.109.76h-.894c-.203.032-.574-.123-.552.207.072.432.623.497.954.327.29-.328.726.303.256.353-.344.185-.758.261-1.128.1-.479-.169-.671-.706-.64-1.176-.008-.486.353-.969.86-.999.073-.013.149-.02.225-.02zm4.571.002c.127 0 .25.01.361.074.336.188.484.476.422.857-.001.37.029.74.043 1.109-.045.5-.481-.004-.72.087-.34.244-.984.255-1.137-.216-.085-.213-.103-.473.131-.582.207-.208.46-.346.765-.34.335.075.436-.23.282-.473-.298-.116-.648.074-.969.01-.264-.254.243-.446.444-.521.123.011.252-.003.378-.005zm-4.588.424c-.175.004-.353.085-.416.246l-.069.104c-.15.152.142.067.234.089.222-.025.484.074.67-.068.027-.25-.194-.375-.42-.37zm-2.373.004a.464.464 0 0 0-.342.155c-.191.297-.191.796-.02 1.12.064.123.22.11.336.104.424.07.546-.516.516-.842a.488.488 0 0 0-.49-.537zm6.916.903c-.268.01-.603.188-.436.429l.026.046c.26.272.843-.062.634-.426a.372.372 0 0 0-.224-.05zM0 143.873v10.21h21.791v-10.21zm17.925 2.649c.15-.001.3.023.442.077.374.13.653.422.817.771.132.428-.042.86-.225 1.245l-1.375 1.405c-.074.17.627-.003.846.038.328-.066.965-.064.873.432v.247h-2.51c-.27.032-.532.012-.407-.358l1.325-1.367c.234-.288.62-.496.68-.885.126-.355.078-.891-.38-.957-.557-.166-.662.497-1.019.666-.557.12-.528-.417-.243-.728a1.55 1.55 0 0 1 1.176-.586zm-10.89.504h.515v1.264c.024.196-.111.631.222.538l.468-.614c.126-.261.443-.324.697-.211.051.286-.54.632-.698.974l.716 1.019c.1.126.206.255-.033.204-.24 0-.549.055-.635-.248-.196-.23-.352-.811-.737-.685v.934h-.515Zm-3.486.917a.516.516 0 0 1 .352.11c.557.396.613 1.274.231 1.812-.242.4-.76.45-1.162.29-.246-.137-.1.25-.139.389v.429h-.515v-2.48c-.147-.358.276-.812.495-.35.207-.02.473-.188.738-.2zm8.142.01a.47.47 0 0 1 .19.049c.117.02.083.146.152.2.095-.02.164-.104.241-.158.2-.133.448-.054.671-.074l.477.41.067 1.82h-.62v-1.073c-.007-.124.002-.25.004-.374a.364.364 0 0 0-.324-.367c-.224-.012-.426.144-.538.327v1.488h-.515v-1.943c-.002-.08-.051-.17.015-.24a.242.242 0 0 1 .18-.065zm-6.004.01c.329 0 .658.134.81.448.17.223.092.504.109.76h-.894c-.203.032-.574-.123-.552.207.072.432.623.497.954.328.29-.329.726.302.256.352-.344.185-.758.262-1.128.1-.479-.169-.671-.706-.64-1.176-.008-.486.353-.97.86-.998.073-.014.149-.022.225-.022zm4.571.002c.127 0 .25.01.361.074.336.188.484.476.422.857-.001.37.029.74.043 1.109-.045.5-.481-.005-.72.086-.34.245-.984.256-1.137-.214-.085-.214-.103-.474.131-.583.207-.208.46-.346.765-.34.335.075.436-.23.282-.473-.298-.116-.648.075-.969.01-.264-.254.243-.445.444-.52.123.01.252-.004.378-.006zm-4.588.424c-.175.003-.353.085-.416.246l-.069.104c-.15.153.142.067.234.09.222-.026.484.074.67-.069.027-.25-.194-.375-.42-.37zm-2.373.004a.464.464 0 0 0-.342.155c-.191.297-.191.796-.02 1.121.064.122.22.108.336.103.424.07.546-.515.516-.842a.488.488 0 0 0-.49-.537zm6.916.903c-.268.01-.603.188-.436.429l.026.046c.26.272.843-.062.634-.425a.37.37 0 0 0-.224-.05zM0 156.742v10.21h21.791v-10.21zm17.944 2.655c.102.001.202.012.3.033.397.082.683.37.93.672v.624c.17.387-.705.543-.377.784.46.26.602.857.41 1.33-.156.35-.499.693-.894.756-.36.154-.75.097-1.1-.051-.428-.128-.767-.616-.784-1.016.37-.27.804-.055.956.342.296.258.978.214 1.112-.228.164-.413-.115-.822-.551-.854-.3.01-.42-.121-.358-.404-.054-.408.718.005.81-.462.116-.335.049-.858-.392-.883-.26-.049-.568.013-.654.292-.118.156-.159.445-.417.357-.553.16-.409-.515-.151-.763.262-.34.72-.53 1.16-.528zm-10.909.455h.515v1.264c.024.196-.111.631.222.538l.468-.614c.126-.261.443-.324.697-.21.051.285-.54.632-.698.973l.716 1.019c.1.126.206.255-.033.204-.24 0-.549.055-.635-.248-.196-.23-.352-.811-.737-.685v.934h-.515Zm-3.486.917a.516.516 0 0 1 .352.11c.557.396.613 1.274.231 1.812-.242.4-.76.45-1.162.29-.246-.137-.1.25-.139.389v.429h-.515v-2.48c-.147-.358.276-.812.495-.35.207-.02.473-.188.738-.2zm8.142.01a.475.475 0 0 1 .19.049c.117.02.083.145.152.2.095-.02.164-.104.241-.158.2-.133.448-.054.671-.074l.477.41.067 1.82h-.62v-1.073c-.007-.125.002-.25.004-.374a.364.364 0 0 0-.324-.367c-.224-.012-.426.144-.538.327v1.488h-.515v-1.943c-.002-.08-.051-.17.015-.24a.242.242 0 0 1 .18-.065zm-6.004.01c.329 0 .658.134.81.448.17.223.092.504.109.76h-.894c-.203.031-.574-.123-.552.207.072.432.623.497.954.327.29-.328.726.303.256.353-.344.185-.758.262-1.128.1-.479-.169-.671-.706-.64-1.176-.008-.486.353-.969.86-.998.073-.014.149-.022.225-.022zm4.571.002c.127 0 .25.01.361.074.336.188.484.476.422.857-.001.371.029.74.043 1.109-.045.5-.481-.005-.72.086-.34.245-.984.256-1.137-.215-.085-.212-.103-.473.131-.582.207-.208.46-.346.765-.34.335.075.436-.23.282-.473-.298-.116-.648.074-.969.01-.264-.254.243-.445.444-.52.123.01.252-.004.378-.006zm-4.588.424c-.175.004-.353.085-.416.246l-.069.105c-.15.152.142.066.234.088.222-.025.484.075.67-.068.027-.25-.194-.375-.42-.37zm-2.373.004a.464.464 0 0 0-.342.155c-.191.297-.191.796-.02 1.121.064.122.22.108.336.103.424.07.546-.515.516-.842a.488.488 0 0 0-.49-.537zm6.916.903c-.268.01-.603.188-.436.429l.026.045c.26.273.843-.06.634-.424a.37.37 0 0 0-.224-.05zM0 169.525v10.295h21.791v-10.295zm18.552 2.818a2.38 2.38 0 0 1 .322.013v2.574h.515v.515h-.515v.795c.052.213-.045.277-.248.234-.353.1-.428-.32-.375-.59.17-.667-.701-.321-1.09-.424-.373.049-.94.037-.953-.473.525-.731 1.065-1.45 1.602-2.172.126-.359.422-.462.742-.472zm-11.517.378h.515v1.264c.024.196-.111.63.222.538l.468-.614c.126-.261.443-.325.697-.211.051.286-.54.632-.698.974l.716 1.018c.1.127.206.256-.033.205-.24 0-.549.055-.635-.248-.196-.231-.352-.811-.737-.685v.933h-.515Zm11.227.507c-.062.003-.22.284-.32.401-.276.423-.645.785-.866 1.24.341.156.78-.02 1.155.018l.04-1.448c.027-.156.019-.213-.01-.211zm-14.713.41a.516.516 0 0 1 .352.11c.557.396.613 1.274.231 1.812-.242.4-.76.45-1.162.29-.246-.137-.1.25-.139.388v.43h-.515v-2.48c-.147-.358.276-.812.495-.35.207-.02.473-.188.738-.2zm8.142.01a.47.47 0 0 1 .19.048c.117.02.083.146.152.2.095-.019.164-.103.241-.157.2-.133.448-.054.671-.074l.477.41.067 1.82h-.62v-1.073c-.007-.125.002-.25.004-.374a.364.364 0 0 0-.324-.367c-.224-.012-.426.144-.538.327v1.488h-.515v-1.943c-.002-.08-.051-.17.015-.241a.242.242 0 0 1 .18-.064zm-6.004.009c.329 0 .658.135.81.449.17.222.092.503.109.76h-.894c-.203.031-.574-.123-.552.207.072.431.623.496.954.327.29-.329.726.302.256.352-.344.186-.758.262-1.128.101-.479-.17-.671-.706-.64-1.176-.008-.487.353-.97.86-.999.073-.014.149-.021.225-.021zm4.571.003a.7.7 0 0 1 .361.073c.336.189.484.477.422.857-.001.371.029.74.043 1.11-.045.5-.481-.006-.72.086-.34.245-.984.256-1.137-.215-.085-.213-.103-.474.131-.583.207-.207.46-.346.765-.34.335.075.436-.229.282-.473-.298-.116-.648.075-.969.01-.264-.253.243-.445.444-.52.123.01.252-.003.378-.005zm-4.588.424c-.175.003-.353.085-.416.245l-.069.105c-.15.152.142.067.234.088.222-.025.484.075.67-.068.027-.25-.194-.375-.42-.37zm-2.373.004a.464.464 0 0 0-.342.155c-.191.297-.191.796-.02 1.12.064.123.22.11.336.104.424.07.546-.516.516-.842a.488.488 0 0 0-.49-.537zm6.916.902c-.268.01-.603.189-.436.43l.026.045c.26.273.843-.06.634-.424a.37.37 0 0 0-.224-.05z"/><path style="fill:#fe5f5f;stroke-width:.08579215" d="M24.366 0v69.32h46.327V53.963h61.598V0Zm2.573 2.574h10.295v10.21H26.939Zm15.442 0h10.295v10.21H42.381Zm15.443 0h10.295v10.21H57.824Zm15.442 0h10.21v10.21h-10.21Zm15.357 0h10.295v10.21H88.623Zm15.443 0h10.21v10.21h-10.21Zm15.357 0h10.295v10.21h-10.295ZM47.614 4.979c-.547.014-1.1.294-1.384.766-.471.532.488 1.044.677.339.29-.608 1.36-.567 1.369.184.055.79-.625 1.244-1.106 1.757-.356.504-1.058.817-1.185 1.44v.23h2.313c.377 0 1.106.128.843-.473-.359-.706-1.343-.049-1.89-.277.458-.593 1.083-1.048 1.514-1.667.427-.57.451-1.447-.121-1.932a1.44 1.44 0 0 0-1.03-.367zm15.427.006c-.563-.008-1.141.25-1.407.755-.507.438.297 1.007.599.497.11-.557.922-.815 1.28-.329.37.466-.031 1.156-.606 1.087-.709.331.053.719.477.733.613.254.345 1.19-.223 1.325-.703.322-.894-.724-1.5-.713-.703.397.261 1.293.806 1.355.203.044.413.058.62.043.821-.006 1.566-.775 1.424-1.608.126-.524-.749-.636-.592-1.014.45-.259.632-.812.447-1.294-.211-.556-.76-.829-1.325-.837Zm60.49.041a.678.678 0 0 0-.063.001c-.36.02-.625.33-.338.72.767.01 1.535-.023 2.301.023-.633 1.307-1.361 2.567-1.976 3.883v.05l.815-.052 1.312-2.633c.255-.64.808-1.22.704-1.957h-2.56a.713.713 0 0 0-.195-.035zm-91.088.007c-.222.01-.492.122-.615.242-.3.4-.942.573-1.054 1.074.344.647.872-.029 1.227-.273v2.559c-.047.155.12.523-.146.458-.282.044-.915-.172-.798.3v.3h2.574v-.6h-.858V5.4c.067-.285-.108-.377-.33-.367Zm46.534 0a1.085 1.085 0 0 0-.263.035l-1.593 2.139c-.321.348-.817.953-.316 1.372h1.933c.22 0 .053.388.105.557.075.207-.182.657.195.558.509.122.584-.192.49-.67-.24-.605.779-.327.622-.965-.085-.182-.43-.033-.62-.081V5.68c.122-.441-.183-.65-.553-.648Zm16.167.023-2.264.048c-.115.646-.215 1.302-.363 1.934.1.637.798.29 1.203.27.649-.042 1.052.732.747 1.276-.299.73-1.115.527-1.645.222-.883-.026-.199.994.377.891.954.253 2.114-.406 2.126-1.46.113-.72-.424-1.497-1.172-1.534-.503.1-1.02-.11-.776-.69.248-.593 1.164-.05 1.676-.337.19-.094.045-.425.09-.62zm14.445.005c-.414-.028-.516.565-.8.799-.467.696-1.203 1.324-1.18 2.233-.075.746.448 1.5 1.205 1.606.506.112 1.103.016 1.489-.352.514-.4.685-1.133.442-1.727-.288-.752-1.045-.873-1.749-.827.4-.617.923-1.138 1.354-1.732zM78.72 6.142c.17.33.124 1.192.086 1.723-.138.267-.644.025-.9.12-.516.13-.392-.304-.145-.558.346-.41.606-.885.96-1.285Zm30.466 1.228c.069 0 .14.009.211.029.776.094.878 1.301.194 1.597-.356.196-.818.14-1.059-.21-.463-.536-.007-1.415.654-1.416zm-71.952 7.985V25.65H26.937l.044-10.252zm20.59 0 10.252.044.045 10.252H57.824Zm30.8 0 10.252.044.044 10.252H88.624Zm41.094 0V25.65h-10.296l.044-10.252zm-87.336 0h10.295v10.296H42.382Zm30.885 0h10.21v10.296h-10.21Zm30.8 0h10.208v10.296h-10.209Zm7.151 2.481a1.06 1.06 0 0 0-.178.019c-.668-.062-1.892.897-1.138 1.45.563-.162 1.184-1.395 1.78-.456.574 1-.946.799-.88 1.469.416.232 1.293.327 1.015 1.106-.413 1.01-1.365.33-1.846-.187-.997.103.015 1.328.626 1.326.77.2 1.714-.125 1.983-.93.603-.827-1.028-1.308-.23-1.947.646-.792-.239-1.867-1.132-1.85zm-79.064.001a1.436 1.436 0 0 0-.496.08c-.807.162-1.278 1.242-.742 1.897.736.368-.395.628-.343 1.095-.24.756.388 1.602 1.162 1.662.536.108 1.213.003 1.63-.37.614-.536.498-1.67-.259-2.021-.027-.23.662-.58.526-1.033-.01-.776-.747-1.301-1.478-1.31zm15.454.01a1.435 1.435 0 0 0-.615.117c-.831.246-1.277 1.315-.848 2.073.301.664 1.08.707 1.702.593-.039.319-.757.984-1.054 1.44l-.147.184c-.599.477.533.334.824.205.4-.542.805-1.082 1.161-1.653.334-.46.566-1 .47-1.58.037-.81-.736-1.361-1.493-1.379zm48.027.005c-.62.01-1.238.337-1.425.962-.105.912.892.186 1.124-.205 1.103-.49 1.263 1.249.465 1.712-.542.71-1.457 1.142-1.77 2.013v.229h1.613c.536-.088 1.751.34 1.52-.52-.289-.765-2.35.376-1.518-.646.703-.677 1.729-1.508 1.425-2.612-.193-.638-.815-.944-1.434-.933zm-30.734.001a1.695 1.695 0 0 0-.124.003c-1.107-.01-1.692 1.18-1.604 2.157-.096.988.156 2.32 1.3 2.556.158.042.324.054.487.038 1.1-.077 1.605-1.271 1.592-2.242.078-1.067-.404-2.494-1.651-2.512zm62.171.042c-.538-.013-.982 1.07-1.364 1.452-.313.637-1.361 1.216-.945 2.013.258.188.657.041.975.087.452.032 1.39-.213 1.149.558-.04.139-.091.309-.008.444 1.049.701.329-1.116 1.166-1.098.639-.69-.711-.243-.471-.833-.019-.771.037-1.553-.026-2.314-.166-.215-.325-.305-.475-.309zm-19.505.033c-.444-.018-1.11.657-1.407.936-.662.786.812.664.995.081v2.333c.401.93-.85.41-.944.985v.3h1.767c.335-.03 1.004.164.8-.417.04-.371-.589-.102-.851-.184.012-1.21-.027-2.425.024-3.631-.07-.284-.21-.397-.384-.403zm15.443 0c-.445-.018-1.111.657-1.408.936-.661.786.813.664.995.081v2.331c.402.93-.848.414-.943.987v.3h1.763c.335-.031 1.008.166.803-.417.042-.374-.59-.1-.85-.184.012-1.21-.027-2.424.023-3.631-.07-.284-.21-.397-.383-.403zm-30.824 0c-.488-.006-1.071.68-1.417.982-.564.787.817.559 1.029.035v2.34c.398.926-.857.402-.944.978v.3h1.775c.333-.028.995.16.792-.417.036-.369-.587-.104-.851-.184-.003-1.28.005-2.564-.003-3.843a.494.494 0 0 0-.381-.191zm-15.403.007c-.443-.004-1.17.59-1.413.933-.685.756.75.646.986.077v2.343c.396.925-.86.397-.944.974v.3h1.78c.332-.026.99.157.786-.417.034-.366-.585-.105-.85-.183.004-1.135-.01-2.272.006-3.406.034-.453-.12-.62-.351-.621zm3.775 0c-.443-.004-1.17.59-1.413.933-.685.756.75.646.985.077v2.343c.397.925-.86.397-.943.974v.3h1.78c.332-.026.99.157.786-.417.034-.366-.585-.105-.85-.183.004-1.135-.01-2.272.006-3.406.034-.453-.12-.62-.351-.621zm-19.184.005c-.465.03-1.192.662-1.429 1.007-.514.768.828.49 1.054-.001v2.391c.446.936-.89.316-.944.926v.3h1.362c.435-.07 1.256.264 1.247-.417-.042-.372-.613-.1-.893-.183.006-1.148-.013-2.298.01-3.443.008-.444-.163-.595-.407-.58zm-29.286.487a.541.541 0 0 1 .056 0c.529.025.992.757.506 1.212-.083.116-.183.198-.335.185-.718.207-1.158-.77-.612-1.23a.61.61 0 0 1 .385-.167zm15.507.072c.59.025 1.092.845.578 1.302-.173.38-.717.334-1.04.202-.542-.298-.461-1.223.132-1.429a.645.645 0 0 1 .33-.075zm17.218.037c.452.01.911.467.868 1.007.018.775.21 1.812-.53 2.322-.405.283-.92-.073-1.05-.485-.191-.786-.25-1.685.083-2.44.158-.293.392-.41.629-.404zm61.875.6c.332.062.164 1.13.162 1.598-.303.254-.725.075-1.078.096-.36-.386.607-1.233.916-1.695zm-94.646 1.352a.746.746 0 0 1 .141.016c.657-.124 1.063.846.55 1.248l-.157.158c-.558.266-1.386-.15-1.192-.868.03-.38.33-.564.658-.554zm-5.103 7.737h10.295V38.52H26.939Zm15.442 0h10.295V38.52H42.381Zm15.443 0h10.295V38.52H57.824Zm15.442 0h10.21V38.52h-10.21Zm15.357 0h10.295V38.52H88.623Zm15.443 0h10.21V38.52h-10.21Zm15.357 0h10.295V38.52h-10.295zm-23.797 2.397c-.809.01-1.607.64-1.602 1.513-.084.897.846 1.52 1.667 1.306.302.364-.646.95-.855 1.412-.112.238-.57.43-.06.525 1.04.068 1.34-1.096 1.88-1.74.638-.798.811-2.274-.246-2.807a1.458 1.458 0 0 0-.784-.21zm15.396.003c-.972.025-1.695 1.08-1.617 2.043-.073 1.018.103 2.432 1.31 2.683l.118.028.119.016c1.055.1 1.782-.949 1.821-1.91.096-1.051-.107-2.507-1.32-2.805a1.435 1.435 0 0 0-.43-.055zm11.817 0c-.6-.017-1.221.286-1.494.853-.23.988.88.368 1.137-.103 1.096-.425 1.199 1.273.427 1.728-.542.71-1.457 1.142-1.77 2.013v.23h1.586c.545-.094 1.765.354 1.538-.516-.299-.79-2.432.395-1.503-.65.75-.722 1.973-1.768 1.269-2.907-.268-.427-.722-.634-1.19-.647zm-15.476.004c-.56-.005-1.132.265-1.425.77-.418.988.833.587 1.07-.008 1.084-.49 1.253 1.244.47 1.707-.553.704-1.463 1.146-1.782 2.019v.229h1.52c.558-.096 1.461.306 1.686-.33.01-1.083-2.266.208-1.579-.836.745-.717 1.923-1.73 1.295-2.87-.276-.46-.76-.677-1.255-.681zm-27.178.003c-.485.009-.954.218-1.195.674-.557.644.234 1.19.223 1.714-1.04.608-.487 2.284.651 2.334.158.043.324.05.487.04 1.04.109 1.95-1.072 1.359-2.005-.843-.304-.108-.824.053-1.328.083-.898-.77-1.443-1.578-1.43zm-29.985.06a1.618 1.618 0 0 0-.284.02c-.895.297-1.36 1.5-1.931 2.258-.459.887-.053 2.237 1.031 2.381l.144.032.147.016c1.225.163 2.273-1.381 1.487-2.404-.21-.806-1.94-.186-1.282-1.014.227-.382 1.4-1.266.688-1.29zm13.71 0c-.241.003-.471.042-.667.19.073 1.02 1.685.288 2.394.538-.639 1.306-1.362 2.569-1.98 3.885l.1.03.101.013c1.028.134 1.024-1.258 1.536-1.893.334-.923 1.128-1.714 1.095-2.742h-1.64c-.3.032-.629-.025-.939-.021zm-29.708.01c-.45-.004-.886.057-1.176.327.09.63-.74 1.753.104 2.009.667-.116 1.713-.135 1.63.835.013.786-.92 1.1-1.508.687-.968-.51-.622.991.15.79.616.179 1.386-.057 1.784-.565.652-.75.404-2.228-.688-2.39-.586.108-1.417-.392-.716-.916.451-.297 2.003.25 1.427-.72-.3-.013-.658-.055-1.007-.057zm57.973.008c-.49.008-1.058.681-1.407.984-.563.786.818.558 1.03.035v2.343c.396.925-.861.397-.944.974v.3h1.78c.332-.027.99.157.786-.417.034-.366-.585-.105-.85-.183-.004-1.288.008-2.578-.007-3.864a.507.507 0 0 0-.388-.172zm34.54.01c-.461-.02-1.236.658-1.483 1.01-.508.772.827.488 1.054-.001v2.33c.401.93-.848.414-.944.987v.3h1.763c.335-.03 1.009.167.804-.416.043-.375-.59-.1-.85-.184.005-1.156-.014-2.315.01-3.468 0-.395-.145-.55-.354-.558zm-49.93 0c-.46-.022-1.237.657-1.485 1.01-.51.771.829.49 1.055-.001v2.337c.399.93-.86.405-.944.98v.3h1.763c.335-.031 1.009.166.804-.416.042-.375-.59-.101-.851-.185.007-1.154-.013-2.312.011-3.465.001-.396-.143-.55-.352-.56zm-46.183.004c-.443.01-1.145.587-1.37.919-.736.737.773.699.967.086v2.345c.396.924-.862.395-.944.972v.3h1.783c.332-.025.987.156.784-.417.032-.364-.585-.105-.85-.183.004-1.151-.01-2.306.006-3.455.016-.422-.144-.572-.376-.567zm30.804 0c-.442.007-1.148.583-1.375.918-.739.737.776.703.967.087v2.337c.4.928-.854.406-.943.98v.3h1.774c.333-.027.996.16.792-.416.036-.369-.586-.104-.85-.184.004-1.148-.01-2.3.006-3.446.02-.426-.14-.579-.371-.575zm-15.441 0c-.442.006-1.15.582-1.377.918-.739.737.776.703.968.087v2.335c.4.928-.852.408-.944.982v.3h1.771c.334-.029 1 .163.795-.416.038-.37-.587-.103-.85-.184.004-1.148-.009-2.298.006-3.444.021-.426-.138-.58-.37-.577zm34.218.493c.534.004 1.138.678.596 1.206-.417.6-1.401-.086-1.165-.72.1-.351.327-.488.57-.486zm15.36.066c.597.013 1.237.756.674 1.301l-.06.094-.077.073c-.697.516-1.637-.364-1.142-1.092.145-.275.372-.381.605-.376zm15.481.037c.445-.012.914.405.887.94.04.798.23 1.851-.518 2.388-.412.287-.927-.079-1.054-.496-.183-.78-.248-1.668.08-2.417.146-.285.373-.409.606-.415zM49.441 33c.771.009 1.174 1.28.353 1.648l-.109.055-.116.037c-1.008.267-1.4-1.304-.479-1.66a.814.814 0 0 1 .35-.08zm30.787.226c.637.002 1.212.792.635 1.31l-.093.101-.118.071c-.901.47-1.631-.92-.777-1.395a.75.75 0 0 1 .353-.087zM26.94 41.094h10.295V51.39l-10.238-.058zm15.443 0h10.295V51.39H42.382Zm15.442 0h10.297l-.045 10.253-10.252.044zm15.443 0h10.21V51.39h-10.21Zm15.356 0H98.92l-.044 10.253-10.252.044zm15.443 0h10.21V51.39h-10.21Zm15.357 0h10.295V51.39l-10.238-.058zm-58.214 2.404c-.56-.005-1.134.265-1.427.772-.418.987.834.584 1.071-.01 1.084-.49 1.252 1.244.47 1.707-.554.705-1.463 1.147-1.783 2.019v.23h1.644c.514-.097 1.505.31 1.547-.403-.13-.96-2.175.234-1.627-.69.734-.763 2.005-1.752 1.36-2.94-.274-.461-.76-.68-1.255-.685zm46.157 0c-.561-.005-1.135.265-1.428.772-.417.987.834.584 1.071-.01 1.084-.49 1.252 1.244.47 1.707-.554.705-1.463 1.147-1.783 2.019v.23h1.647c.513-.097 1.503.31 1.544-.403-.13-.96-2.175.234-1.627-.69.734-.763 2.005-1.752 1.36-2.94-.274-.461-.76-.68-1.255-.685zm19 0c-.36.002-.715.118-.98.37-.768.578-.21 1.434-.01 2-1.032.62-.51 2.302.645 2.356a1.769 1.769 0 0 0 .631.036c1.052.039 1.817-1.241 1.145-2.097-.827-.292.095-.757.122-1.258.06-.864-.76-1.411-1.553-1.407zm-76.834 0a1.177 1.177 0 0 0-.154.01c-.633.015-1.487.514-1.432 1.191.573.737.769-.372 1.255-.491.96-.318 1.314 1.258.252 1.303-1.085.58.923.585.724 1.402-.235 1.132-1.34.614-1.863.041-1.033-.095-.032 1.31.598 1.262a2.099 2.099 0 0 0 .827.021c.968-.106 1.636-1.364.952-2.147-.68-.276-.035-.628.148-1.06.254-.8-.534-1.527-1.307-1.53zM30.35 43.5c-.558.012-1.118.292-1.386.811-.298.99.859.46 1.109-.057 1.095-.455 1.221 1.264.439 1.72-.543.71-1.457 1.142-1.771 2.013v.23h1.712c.562.019 1.993.17 1.244-.71-.397-.375-1.986.433-1.46-.319.717-.777 2.001-1.677 1.482-2.893-.257-.551-.811-.807-1.369-.794zm3.69 0c-.559.012-1.119.292-1.387.811-.298.99.859.46 1.109-.057 1.095-.455 1.221 1.264.439 1.72-.542.71-1.457 1.142-1.771 2.013v.23h1.712c.562.019 1.993.17 1.244-.71-.397-.375-1.986.433-1.46-.319.717-.777 2.001-1.677 1.483-2.893-.258-.551-.812-.807-1.37-.794zm11.7.002c-.564 0-1.136.274-1.415.796-.356 1.002.85.499 1.1-.048 1.086-.45 1.223 1.257.454 1.719-.553.704-1.462 1.146-1.781 2.018v.23h1.5c.537-.043 1.113.108 1.616-.083.531-1.348-1.835-.131-1.61-.956.721-.761 1.931-1.636 1.5-2.837-.244-.567-.8-.839-1.363-.839zm30.797 0c-.563.002-1.134.275-1.412.796-.357 1.002.85.499 1.1-.048 1.086-.45 1.223 1.257.454 1.719-.554.704-1.463 1.146-1.782 2.018.064.526 1.43.084 1.914.227.551.185 1.848-.063.977-.749-.36-.29-2.155.46-1.309-.365.704-.736 1.855-1.606 1.422-2.766-.247-.564-.801-.833-1.364-.831zm46.247 0c-.565 0-1.139.273-1.417.795-.357 1.003.85.5 1.1-.047 1.085-.45 1.223 1.257.454 1.719-.554.704-1.463 1.146-1.782 2.018v.23h1.84c.44-.048.946.113 1.337-.098.307-1.332-1.849-.122-1.683-.929.723-.765 1.941-1.64 1.514-2.847-.243-.567-.799-.84-1.363-.84zm-30.772.008c-.575-.006-1.167.264-1.46.777-.346.869.809.696.98.05 1.04-.75 1.49 1.123.601 1.624-.559.704-1.47 1.151-1.794 2.026v.23h1.722c.475-.084 1.008.223 1.398-.148.337-1.227-1.49-.163-1.69-.798.715-.81 1.969-1.633 1.6-2.885-.225-.589-.783-.87-1.357-.875zm-26.508.033c-.422.019-.929.742-1.156 1.138-.367.74-1.35 1.27-1.259 2.161.13.452.67.19 1.017.26.459.036 1.424-.227 1.182.557.013.156-.02.31-.006.466.647.481.801-.342.703-.855.553-.107.893-.977-.01-.77.005-.816-.014-1.635.017-2.449-.122-.38-.296-.517-.488-.508zm15.544.012c-.45-.008-1.071.166-1.396.02-.632.396-.552 1.4-.646 2.039.435.81 1.639-.328 1.936.732.34.747-.481 1.546-1.224 1.19-.997-.8-1.07.83-.073.684 1.16.33 2.404-.713 2.105-1.932-.064-1.19-1.449-.808-1.991-1.365-.034-1.115 1.244-.385 1.807-.781.078-.464-.168-.58-.518-.587zm29.137.007c-.249.002-.487.04-.694.182.05 1.03 1.682.298 2.388.545-.635 1.308-1.363 2.569-1.979 3.886l.1.031.1.012c1.028.135 1.024-1.258 1.536-1.893.334-.923 1.128-1.713 1.095-2.741h-1.58c-.309.032-.646-.024-.966-.022zm-13.934.001c-1.016.226-1.427 1.529-2.038 2.3-.439.888-.029 2.216 1.046 2.358.148.038.3.053.453.048 1.114.033 1.993-1.277 1.407-2.267-.175-.854-1.344-.368-1.537-.907.104-.479 1.798-1.522.67-1.532zm30.133.52c.522.03 1.074.705.552 1.21-.463.623-1.433-.122-1.143-.773.122-.33.353-.45.59-.437zm-61.295.706c.332.061.164 1.13.162 1.598-.3.25-.724.074-1.074.098-.365-.395.604-1.233.912-1.696zm30.612 1.08c.76.02 1.153 1.291.336 1.649l-.127.061-.133.037c-1.012.223-1.352-1.351-.422-1.672a.78.78 0 0 1 .346-.074zm30.656.227c.638-.01 1.252.776.663 1.309l-.066.096-.082.063c-.836.45-1.68-.69-.946-1.322a.734.734 0 0 1 .43-.146zm-95.959 12.83c.83-.01 1.63.758 1.408 1.63-.146 1.022-1.213 1.482-1.694 2.275.499.345 1.696-.416 1.803.538v.29h-2.402c-1.07.345-.71-.937-.056-1.204.592-.665 1.607-1.264 1.576-2.253-.33-1.114-1.273-.292-1.77.177-.95-.203.15-1.396.78-1.4.117-.034.237-.052.355-.053zm3.703.006c.934 0 1.668.95 1.448 1.871-.222 1.055-1.031 1.866-1.631 2.728-.173.265-.555.048-.805.15-.393-.449.871-1.143 1.069-1.7-.086-.53-1.18.069-1.442-.637-.822-.892.032-2.388 1.172-2.399a1.4 1.4 0 0 1 .19-.013zm15.327.002c.855.016 1.588.847 1.624 1.728.202 1.094-.034 2.637-1.269 2.992-.999.334-1.95-.564-2.02-1.54-.09-1.083-.164-2.566 1.06-3.051a1.386 1.386 0 0 1 .605-.129Zm-3.668.01c.142 0 .284.017.422.054 1.048.185 1.381 1.571.471 2.155.75.492.882 1.967-.155 2.377-.76.364-1.788.227-2.242-.545-.367-1.086.878-.385 1.238.035.843.325 1.442-1.117.515-1.404-.665.078-.826-.68-.09-.701 1.118-.271.11-1.846-.697-1.121-.029.612-1.062.886-.96.061.262-.56.88-.906 1.498-.91zm15.52.004c.329.008.651.11.906.318.717.486.477 1.372-.042 1.899.654.47.85 1.973-.203 2.365-.242.141-.527.166-.8.179-.717.249-2.143-.972-1.18-1.39.523.355 1.227 1.231 1.815.388.72-.981-.82-.874-.929-1.57.553-.176 1.42-.606.79-1.331-.739-.953-1.33 1.307-1.952.31.117-.752.87-1.187 1.594-1.168zm3.96.06a1.184 1.184 0 0 1 .22.019v3.295c-.428.875.72.51.857 1.037v.3h-1.716c-.299-.065-.962.2-.861-.309-.142-.513.513-.212.8-.291.355-.52.041-1.708.147-2.477.199-1.043-1.26.754-1.126-.435.424-.502.983-1.132 1.678-1.14zm-31.2.574c-.655.007-1.175 1.008-.518 1.482.902.572 1.763-.614.98-1.31a.717.717 0 0 0-.462-.172zm15.29.069c-.272.005-.538.17-.702.566-.103.862-.328 1.96.33 2.666 1.245.745 1.393-1.205 1.305-1.984.12-.682-.416-1.258-.934-1.248z"/><path style="fill:#5f5ffe;stroke-width:.08579215" d="m24.366 128.43.056 69.35 30.828.057v-15.443h77.042v-53.963zm2.744 2.575h10.295V141.3l-10.295-.115zm15.443 0h10.295V141.3H42.553Zm15.442 0h10.297l-.044 10.252-10.253.044zm15.443 0h10.21V141.3h-10.21Zm15.357 0H99.09l-.044 10.252-10.252-.072zm15.443 0h10.209V141.3h-10.21zm15.356 0h10.297l-.045 10.252-10.252-.072zm-71.997 2.404a1.53 1.53 0 0 0-.094 0c-.201.06-.411.095-.61.163-.209.08-.35.274-.52.416-.134.206-.265.439-.298.688.132.195.412.216.618.142.227-.093.199-.4.372-.548.244-.152.568-.251.843-.124.263.071.32.369.404.588l-.214.775c-.603.617-1.208 1.232-1.81 1.85-.148.14-.365.304-.303.537v.23h3.174v-.352c.066-.2-.113-.344-.26-.443l-1.708.082c.444-.463.884-.93 1.332-1.39.203-.17.312-.41.413-.647.163-.254.145-.567.136-.856-.075-.455-.438-.805-.825-1.021-.215-.039-.43-.085-.65-.09zm15.336.002c-.032 0-.064 0-.096.003-.322.08-.689.143-.917.41-.182.104-.274.305-.344.494-.043.162-.26.428.028.477.216.058.535.166.622-.137.067-.222.238-.383.428-.507.18-.086.405-.076.594-.025.13.09.244.206.342.33.144.192.037.44-.017.644-.102.262-.412.321-.66.342-.288-.058-.342.268-.25.473.102.239.42.108.62.188.295.051.454.367.45.644-.025.293-.196.612-.494.698-.228.14-.503.053-.74-.012-.142-.164-.285-.329-.429-.491-.102-.232-.359-.215-.546-.1-.296.107-.149.432.001.598.216.327.54.63.942.686-.003.006.026-.003.02.005.24.094.498.035.746.013a1.425 1.425 0 0 0 1.227-.982c.085-.313.123-.696-.098-.962-.089-.23-.301-.392-.53-.468-.138-.112.206-.234.267-.342.216-.114.31-.343.314-.573.082-.33-.068-.653-.24-.925a1.7 1.7 0 0 0-.58-.376 2.263 2.263 0 0 0-.66-.104zm32.21.077-2.263.048c-.118.657-.224 1.317-.35 1.973-.136.206.13.266.274.316.224.116.443-.035.658-.08.241-.017.5.003.72.105.198.145.394.373.366.636-.007.192-.002.387-.092.563-.112.291-.42.44-.713.478-.188.04-.358-.051-.524-.123-.205-.057-.386-.246-.608-.204-.204.106-.395.436-.154.607.244.113.467.294.742.322l.037.008.036.01c.288.108.59.01.874-.057a.839.839 0 0 0 .585-.298c.218-.16.42-.366.493-.635.125-.237.092-.512.088-.77.054-.26-.103-.491-.227-.704-.114-.288-.447-.348-.67-.518l-1.119-.085.145-.901h.995c.24.004.49.02.707-.104zm28.128.003a1.134 1.134 0 0 0-.23.016c-.05.21-.014.47.089.672h1.858c.139.041.339-.089.43.065-.493.963-.995 1.922-1.493 2.882-.146.325-.357.62-.47.958v.05l.815-.052 1.886-3.785c.173-.233.118-.534.13-.804h-2.783c-.077.003-.155 0-.232-.002zm-91.153.002c-.3.212-.572.474-.857.71-.156.152-.36.261-.489.439-.092.25.26.33.364.505.297-.201.582-.418.865-.639v3.017h-.944v.6h2.574v-.6h-.858v-4.032zm47.411 0-.815.007c-.668.896-1.335 1.794-2.005 2.69-.222.233-.134.626.096.82h2.038v1.115h.686v-1.115h.368c.28-.038.232-.394.233-.6h-.6zm29.855 0-.882 1.182c-.21.302-.46.575-.645.894-.096.226-.23.45-.237.702.038.272-.043.551.036.818.118.245.21.52.418.706.234.134.465.301.74.336a.917.917 0 0 0 .241.05c.3.003.608-.04.886-.157.284-.105.46-.36.653-.577.224-.205.224-.528.256-.807-.018-.274-.042-.574-.217-.8-.164-.25-.422-.408-.656-.585h-.584c-.12-.035-.368.09-.38-.091.433-.567.906-1.102 1.337-1.671zm-30.584.94.028 1.008c-.022.284.073.578-.022.856l-.043.113h-.95c-.116.003-.403.046-.313-.155.413-.622.87-1.213 1.3-1.822zm30.43 1.371c.243.03.503.12.661.314.072.238.248.495.143.748-.124.2-.172.51-.443.561a.932.932 0 0 1-.747.055c-.22-.138-.469-.344-.463-.63-.072-.252.032-.518.155-.734a.99.99 0 0 1 .695-.314zm-82.12 8.07h10.295v10.295l-10.295-.115zm15.443 0h10.295v10.295H42.553Zm15.442 0h10.297l-.044 10.252-10.253.044zm15.443 0h10.21v10.295h-10.21Zm15.357 0H99.09l-.044 10.252-10.252-.071zm15.443 0h10.209v10.295h-10.21zm15.356 0h10.297l-.045 10.252-10.252-.071zm-87.27 2.397a.687.687 0 0 0-.194.021c-.308.023-.653.038-.89.264-.28.11-.376.416-.526.647v.748c.099.22.32.367.491.525.136.251-.279.24-.381.38-.17.219-.307.487-.293.772-.02.372.132.74.388 1.006.241.175.513.338.816.369.49.136.993-.042 1.458-.19l.515-.588c.037-.316.05-.642-.015-.955a1 1 0 0 0-.628-.647c-.195-.16.225-.159.272-.303.138-.193.256-.417.3-.652-.03-.256-.046-.537-.206-.751-.129-.215-.34-.354-.568-.45a1.01 1.01 0 0 0-.54-.196zm15.235.004a.75.75 0 0 0-.174.024c-.258.029-.513.094-.716.268-.22.112-.43.287-.494.536-.13.24-.23.515-.189.792-.038.305.185.548.294.813.195.147.404.275.605.415l1.059-.066c-.385.481-.77.961-1.152 1.444l-.39.494h.58c.128-.015.265.042.381-.032.246-.181.39-.46.568-.7.325-.494.717-.948.965-1.488.124-.207.249-.433.203-.683-.013-.28.058-.576-.054-.842a1.373 1.373 0 0 0-.974-.889c-.168-.041-.34-.09-.512-.086zm17.256.006a1.506 1.506 0 0 0-.88.3c-.31.201-.53.515-.629.87-.188.463-.106.97-.116 1.457-.029.37-.014.755.158 1.092.21.468.58.939 1.125 1 .436.12.934-.005 1.294-.27.295-.255.55-.582.638-.97.1-.53.223-1.08.109-1.618a2.843 2.843 0 0 0-.307-1.031c-.139-.364-.488-.593-.837-.728a1.428 1.428 0 0 0-.555-.102zm30.866.005a1.945 1.945 0 0 0-.531.083c-.429.115-.768.452-.945.85-.23.273.132.62.427.51.38-.067.295-.66.694-.688.298-.17.732-.082.907.222.222.356-.014.755-.091 1.116l-1.539 1.57c-.188.273-.613.428-.575.817v.23h2.473c.226-.01.459.02.68-.02.072-.249.054-.65-.238-.776l-1.709.083 1.106-1.158c.423-.388.781-.91.782-1.504.028-.345-.13-.672-.373-.91-.268-.307-.668-.431-1.068-.425zm15.44 0a1.688 1.688 0 0 0-1.066.386c-.222.201-.373.49-.456.774.017.34.652.396.767.076.113-.425.652-.733 1.053-.492.365.15.456.63.282.955-.108.283-.449.274-.697.326-.476.054-.228.721.172.654.269-.056.546.11.637.366.202.485-.23 1.05-.737 1.059-.358.03-.638-.237-.813-.52-.144-.38-.848-.262-.764.162.216.443.586.88 1.098.964.194.078.408.06.61.035a1.463 1.463 0 0 0 1.298-.796c.288-.511.152-1.244-.366-1.554-.325-.021-.13-.308.048-.392.386-.222.449-.742.31-1.13-.121-.503-.632-.784-1.112-.853a1.65 1.65 0 0 0-.265-.02zm16.173.061c-.175-.002-.392.066-.536.023l-1.871 2.511c-.296.245-.364.747-.039.999h2.039V150.995h.686v-.437c.032-.22-.07-.461.048-.664.354.136.698-.285.553-.615h-.601v-2.718c-.032-.17-.143-.213-.28-.214zm-65.524.015h-.676c-.356.3-.71.603-1.066.903-.422.128-.211.627.106.751.297-.2.582-.418.864-.639v3.017h-.443c-.203-.049-.624-.005-.5.3v.3h2.573v-.6h-.858zm15.357 0h-.677c-.356.302-.711.604-1.068.905-.421.13-.206.624.109.75.297-.202.582-.419.864-.64v3.017h-.944v.6h2.574v-.6h-.858zm3.775 0h-.677l-1.068.905c-.421.13-.206.624.108.75.297-.202.582-.419.865-.64v3.017h-.944v.6h2.574v-.6h-.858zm11.668 0h-.677l-1.068.905c-.421.129-.206.624.108.749.297-.2.582-.418.865-.639v3.017h-.944v.6h2.574v-.6h-.858zm15.356 0h-.676l-1.067.904c-.422.128-.209.626.107.75.297-.2.582-.418.865-.639v3.017h-.944v.6h2.574v-.6h-.858zm15.443 0h-.677c-.356.301-.71.603-1.067.904-.421.128-.208.626.108.75.296-.2.582-.418.864-.639v3.017h-.943v.6h2.573v-.6h-.858zm-91.257.51a.357.357 0 0 1 .045.003c.253.024.507.13.655.347v.36c.02.175 0 .382-.162.489l-.161.178h-.476c-.23.042-.357-.183-.5-.32-.058-.05-.013-.152-.027-.225.018-.176-.055-.378.062-.531.165-.13.342-.305.564-.301zm32.76.081a.637.637 0 0 1 .485.197c.229.322.302.727.368 1.11a29.37 29.37 0 0 1-.053 1.1c-.062.346-.156.79-.521.937a.606.606 0 0 1-.602.038c-.467-.238-.59-.816-.579-1.297.021-.54-.077-1.117.185-1.618.115-.28.42-.461.717-.467zm-17.39.006c.073.001.147.006.217.002.269.001.476.237.608.45.12.261.132.644-.134.822-.09.1-.163.24-.305.274-.165.004-.332-.006-.5-.005a.505.505 0 0 1-.467-.284c-.102-.213-.167-.465-.104-.699.03-.21.2-.336.36-.45.088-.097.204-.11.326-.11zm79.321.4c.095.079.035.437.057.624-.016.394.082.794-.01 1.183l-.044.113h-.731c-.17-.037-.563.12-.531-.163.406-.595.84-1.17 1.26-1.757zm-95.06 1.577h.619c.275-.018.392.28.582.421v.374c.051.183-.07.35-.21.453l-.211.21h-.554c-.165.046-.293-.083-.387-.196-.196-.161-.214-.433-.2-.666-.04-.26.195-.436.361-.596zm-4.633 7.807h10.295v10.21H27.11Zm15.443 0h10.295v10.21H42.553Zm15.442 0H68.29v10.21H57.995Zm15.443 0h10.21v10.21h-10.21Zm15.357 0H99.09v10.21H88.795Zm15.443 0h10.209v10.21h-10.21zm15.356 0h10.295v10.21h-10.295zM80.3 159.151c-.132.004-.265.02-.394.04-.566.092-1.12.604-1.06 1.212-.094.303.077.623.314.81.406.187-.001.447-.243.538a1.38 1.38 0 0 0-.214 1.152c.135.53.632.899 1.161.97.159.05.327.058.492.044.384-.065.819-.09 1.11-.384.307-.258.475-.64.396-1.045.034-.363-.167-.717-.475-.903-.303-.065-.255-.272.02-.36.298-.254.403-.697.31-1.073-.08-.41-.422-.69-.78-.864a1.201 1.201 0 0 0-.637-.137zm27.047 0a1.64 1.64 0 0 0-1.144.45c-.204.222-.44.533-.365.848.179.254.654.184.768-.1.096-.57.986-.714 1.285-.234.233.358.001.767-.081 1.133l-1.512 1.543c-.192.284-.64.444-.602.844-.007.076 0 .153-.003.23h.503c.86.003 1.72-.01 2.578.006.208-.17.118-.695-.166-.802l-1.709.083c.403-.413.789-.842 1.197-1.25.359-.332.626-.78.691-1.269.085-.54-.253-1.057-.709-1.32a1.68 1.68 0 0 0-.73-.161zm15.513.002a1.942 1.942 0 0 0-.797.16c-.386.183-.708.545-.804.964-.07.438.663.412.783.075.109-.585 1.023-.723 1.307-.208.214.356-.022.745-.097 1.104l-1.538 1.57c-.187.272-.615.429-.575.817-.006.076-.001.153-.003.23h2.43c.24-.01.485.019.72-.02.075-.246.056-.65-.236-.776l-1.709.083c.364-.373.715-.76 1.08-1.13.412-.372.767-.863.807-1.433.071-.54-.28-1.06-.751-1.3a1.54 1.54 0 0 0-.617-.136zm-27.19 0a1.718 1.718 0 0 0-1.333.592c-.273.413-.432.97-.22 1.444.124.385.49.6.812.802l1.058-.064c-.384.48-.77.96-1.15 1.444l-.391.493h.57c.2.024.421.008.554-.17.479-.683 1.002-1.342 1.397-2.08.245-.386.19-.863.174-1.297-.083-.57-.579-.999-1.125-1.116a1.542 1.542 0 0 0-.346-.048zm15.481.002c-.434-.019-.875.136-1.168.471-.342.224-.39.66-.549 1.004-.012.384-.006.768-.005 1.152-.023.377-.01.772.172 1.113.21.458.58.915 1.114.974.165.063.334.055.507.032.434-.04.846-.262 1.096-.623.32-.354.371-.839.439-1.29a2.916 2.916 0 0 0-.015-1.047c-.084-.52-.233-1.084-.658-1.432-.26-.22-.595-.34-.933-.354zm-75.805.07-2.263.049c-.074.439-.158.876-.23 1.315.014.307-.277.659-.022.923.394.225.823-.114 1.237-.02.397.015.696.4.691.782.012.357-.135.74-.48.896-.34.196-.741.05-1.061-.115-.26-.26-.679-.04-.687.306.195.294.545.422.871.506.289.108.6.048.891-.019.289-.034.526-.205.74-.389.398-.313.53-.845.494-1.33a1.255 1.255 0 0 0-.7-1.112c-.351-.214-.774-.11-1.156-.195-.34-.16.016-.62-.027-.905h.41c.43-.033.887.087 1.292-.104zm-5.052.006-1.103.934c-.406.13-.13.605.144.72.296-.2.582-.418.864-.639v3.017h-.944v.6h2.574v-.6h-.858v-4.032zm15.357 0-1.067.904c-.422.128-.208.626.107.75.297-.201.582-.418.865-.639v3.017h-.944v.6h2.574v-.6h-.858v-4.032zm3.936 0c-.21.283-.422.565-.633.848-.377.575-.933 1.06-1.098 1.751-.05.424-.097.891.126 1.277.171.425.605.668 1.034.762.173.069.363.054.544.033a1.54 1.54 0 0 0 1.175-.632c.284-.296.348-.728.296-1.12-.012-.526-.448-.89-.851-1.157h-.33c-.206-.058-.481.118-.633-.082.422-.577.907-1.107 1.336-1.68zm11.507 0-1.068.905c-.422.128-.207.624.108.749.297-.201.582-.418.864-.639v3.017h-.943v.6h2.573v-.6h-.858v-4.032zm2.38 0c-.393-.019-.252.472-.141.686h.674c.544.011 1.088-.026 1.63.021-.352.708-.72 1.408-1.085 2.11-.287.596-.639 1.162-.894 1.775.264.11.543-.026.815-.002l1.748-3.508c.219-.314.309-.703.268-1.082zm12.976 0-1.066.904c-.422.127-.21.625.107.75.297-.201.582-.418.864-.639v3.017h-.944v.6h2.574v-.6h-.858v-4.032zm15.443 0-1.068.905c-.421.129-.206.624.108.749.297-.201.582-.418.865-.639v3.017h-.944v.6h2.574v-.6h-.858v-4.032zm34.488 0c-.356.301-.71.603-1.067.904-.421.128-.208.626.108.75a15.726 15.726 0 0 0 .864-.639v3.017h-.943v.6h2.573v-.6h-.858v-4.032zm-46.138.518a.93.93 0 0 1 .58.205c.183.26.202.744-.044.986l-.161.178h-.66l-.331-.331c-.028-.142-.004-.304-.012-.454-.04-.204.122-.361.278-.466a.593.593 0 0 1 .35-.118zm15.373.068a.77.77 0 0 1 .558.23c.28.261.38.799.042 1.054a.527.527 0 0 1-.608.277c-.371.088-.749-.218-.77-.592a.732.732 0 0 1 .214-.744.803.803 0 0 1 .563-.224zm15.5.005a.634.634 0 0 1 .482.196c.224.312.297.705.364 1.076.006.377-.028.757-.048 1.134-.061.347-.156.791-.521.938a.555.555 0 0 1-.5.076c-.494-.162-.668-.719-.679-1.19.016-.59-.089-1.22.186-1.767.116-.279.42-.458.716-.463zm-61.722 1.728a.853.853 0 0 1 .515.146c.495.341.44 1.224-.115 1.47-.242.123-.546.159-.794.03-.431-.212-.548-.787-.343-1.196.137-.283.435-.44.737-.45zm30.763.243a.877.877 0 0 1 .114.013c.295-.06.57.097.721.35.15.252.148.716-.129.897l-.105.105c-.18.203-.51.075-.756.095-.452-.105-.604-.684-.44-1.075.078-.29.33-.399.595-.385zm-53.047 7.733h10.295v10.295H27.11Zm15.443 0h10.295v10.295H42.553Zm15.442 0H68.29v10.295H57.995Zm15.443 0h10.21v10.295h-10.21Zm15.357 0H99.09v10.295H88.795Zm15.443 0h10.209v10.295h-10.21zm15.356 0h10.295v10.295h-10.295zm-27.636 2.408c-.542.015-1.081.276-1.351.76-.248.257-.18.762.26.697.449.025.334-.616.72-.678.302-.189.766-.124.954.196.226.357-.01.76-.088 1.121l-1.513 1.545c-.19.283-.639.444-.601.843v.229c1.043-.003 2.088.006 3.13-.005.116-.228.074-.67-.215-.79l-1.709.083c.407-.423.807-.851 1.216-1.27.494-.451.831-1.179.602-1.842-.159-.387-.499-.717-.903-.832a1.729 1.729 0 0 0-.502-.057zm34.481 0a2.115 2.115 0 0 0-.257.02c-.58.062-1.17.512-1.186 1.131-.07.326.035.69.302.9.394.163.086.443-.186.523-.268.296-.353.744-.265 1.131.12.552.628.945 1.174 1.016.366.107.753.016 1.112-.076a1.36 1.36 0 0 0 .838-.734c.08-.38.107-.816-.102-1.161-.117-.254-.412-.31-.59-.498.456-.165.719-.712.61-1.177-.06-.4-.354-.718-.709-.89a1.354 1.354 0 0 0-.74-.185zm-96.05 0a1.935 1.935 0 0 0-.942.278c-.267.22-.531.508-.584.864-.048.429.687.395.782.042.123-.57 1.029-.703 1.307-.189.21.354-.023.745-.098 1.101l-1.506 1.537c-.194.286-.644.451-.608.85v.23h3.117c.137-.216.091-.682-.202-.795l-1.709.082c.374-.398.758-.786 1.133-1.183.338-.322.632-.715.725-1.182.157-.574-.169-1.187-.671-1.472a1.531 1.531 0 0 0-.745-.163zm3.688 0a1.935 1.935 0 0 0-.94.278c-.268.22-.532.508-.585.864-.048.429.687.395.782.042.123-.57 1.029-.703 1.307-.189.21.354-.023.745-.098 1.101l-1.516 1.548c-.193.28-.63.444-.597.84v.229h3.116c.137-.216.091-.682-.202-.795l-1.709.082c.374-.398.758-.786 1.133-1.183.338-.322.632-.715.725-1.182.157-.574-.168-1.187-.671-1.472a1.531 1.531 0 0 0-.745-.163zm73.299 0a1.887 1.887 0 0 0-.947.264c-.3.209-.557.531-.614.899-.014.426.733.352.805-.015.14-.55 1.02-.65 1.288-.153.21.353-.023.745-.098 1.101l-1.489 1.52c-.197.294-.658.458-.625.867-.007.076 0 .153-.003.23 1.043-.003 2.087.006 3.128-.005.118-.228.076-.67-.213-.79l-1.709.082c.362-.374.717-.756 1.08-1.13.378-.34.706-.775.788-1.29.116-.472-.103-.969-.474-1.265a1.387 1.387 0 0 0-.917-.316zm-46.134 0a1.877 1.877 0 0 0-.97.263c-.298.21-.557.532-.614.9-.013.426.734.352.806-.015.14-.55 1.02-.65 1.288-.153.21.353-.023.744-.099 1.1l-1.488 1.52c-.197.295-.658.458-.625.868v.23c1.042-.004 2.087.005 3.128-.006.118-.227.076-.67-.214-.79l-1.709.082c.398-.413.79-.83 1.188-1.241.337-.302.59-.708.677-1.155.115-.463-.079-.957-.438-1.26a1.372 1.372 0 0 0-.93-.344zm-15.52 0a1.756 1.756 0 0 0-.92.284c-.282.205-.512.513-.588.856-.048.424.668.392.786.062.11-.586 1.026-.726 1.309-.207.21.354-.023.745-.098 1.101l-1.537 1.57c-.187.272-.617.43-.577.817v.23h3.116c.138-.215.091-.683-.201-.795l-1.71.082c.44-.453.866-.92 1.314-1.364.408-.437.704-1.067.529-1.67-.11-.346-.377-.636-.685-.82a1.692 1.692 0 0 0-.738-.145Zm30.8 0a1.756 1.756 0 0 0-.921.284c-.282.205-.512.513-.588.856-.047.425.668.392.787.062.109-.586 1.025-.726 1.309-.207.21.354-.024.745-.1 1.101l-1.536 1.57c-.187.272-.617.43-.577.817v.23h3.117c.138-.215.091-.683-.202-.795l-1.709.082c.44-.452.863-.92 1.312-1.362.409-.437.705-1.068.53-1.672-.11-.346-.377-.636-.685-.82a1.692 1.692 0 0 0-.737-.145zm46.241 0a1.756 1.756 0 0 0-.92.283c-.282.206-.512.514-.588.857-.048.424.668.392.787.062.109-.586 1.026-.726 1.308-.207.21.354-.023.745-.098 1.101l-1.537 1.57c-.187.272-.617.43-.576.817-.006.077-.001.154-.003.23h3.116c.138-.215.091-.683-.202-.795l-1.709.082c.449-.463.885-.94 1.342-1.395.401-.444.685-1.083.49-1.682a1.573 1.573 0 0 0-.672-.777 1.692 1.692 0 0 0-.738-.145zm-73.3.004c-.157 0-.312.02-.459.06-.504.13-.945.523-1.065 1.04-.122.416.658.463.764.108.111-.442.7-.716 1.083-.432.345.167.386.634.219.942-.118.298-.481.246-.734.314-.458.152-.104.735.282.65.283-.045.546.173.6.445.143.506-.34 1.023-.85.973-.348-.002-.578-.29-.75-.557-.196-.377-.895-.146-.734.275.272.382.59.825 1.093.892.25.096.524.04.782.018.58-.05 1.095-.49 1.23-1.058.145-.464-.043-1.013-.46-1.269-.415-.08-.032-.37.168-.474.324-.366.318-.957.045-1.352-.271-.387-.747-.574-1.215-.576zm16.235.061c-.175-.003-.394.066-.539.023l-1.84 2.47c-.308.241-.411.782-.07 1.04h2.039v1.115h.686v-.402c.027-.22-.053-.451.028-.663.318.064.74-.275.573-.65h-.6v-2.714c-.03-.173-.14-.217-.277-.22zm15.89.01-2.263.049c-.066.364-.128.73-.192 1.096-.032.299-.105.586-.174.88.026.418.582.387.869.26.366-.075.825-.029 1.045.317.191.322.163.762-.036 1.075-.302.445-.98.459-1.374.133-.265-.24-.752 0-.642.363.15.306.53.366.823.469.139.04.282.076.427.068.312-.059.647-.077.923-.257.275-.19.55-.422.668-.745.17-.514.178-1.144-.172-1.589a1.349 1.349 0 0 0-.965-.471c-.238-.047-.54.048-.726-.131-.1-.276.101-.546.086-.825h.375c.442-.034.91.088 1.328-.104zm14.241.006c-.206.278-.415.555-.623.833-.372.569-.916 1.049-1.098 1.724-.063.435-.111.918.115 1.317.172.425.605.671 1.035.764.2.078.418.052.624.022.404-.017.771-.236 1.027-.541.325-.302.422-.767.366-1.193-.009-.478-.377-.837-.745-1.09-.105-.12-.266-.061-.404-.075-.223-.047-.488.1-.676-.07.426-.581.912-1.114 1.345-1.691zm13.88 0c-.39-.013-.244.485-.129.686.766.01 1.534-.023 2.299.02-.329.664-.673 1.321-1.016 1.979-.313.64-.684 1.25-.963 1.906.264.112.543-.026.815-.002l1.706-3.424c.225-.34.365-.753.31-1.165zm16.739.518a.87.87 0 0 1 .509.19c.215.249.225.754-.021 1-.217.297-.777.246-1.032-.003-.208-.275-.229-.751.047-.993a.643.643 0 0 1 .497-.194zm-61.247.498c.079-.006.057.353.057.505-.017.427.086.86-.007 1.282l-.044.114h-.716c-.175-.04-.57.124-.547-.161.367-.54.759-1.063 1.14-1.592.054-.104.091-.146.117-.148zm30.478 1.301a.865.865 0 0 1 .416.11c.551.309.52 1.251-.059 1.507-.243.117-.552.17-.796.025-.43-.207-.546-.783-.343-1.189.144-.296.464-.457.782-.453zm30.652.244a.916.916 0 0 1 .116.013c.298-.062.57.12.717.372.122.26.13.7-.145.875l-.105.106c-.178.202-.508.074-.754.095-.452-.104-.606-.684-.442-1.076.08-.299.342-.398.613-.385zm-95.933 12.782c.83-.01 1.63.758 1.408 1.63-.146 1.022-1.213 1.482-1.694 2.274.499.346 1.696-.415 1.803.539v.29h-2.402c-1.07.345-.71-.937-.056-1.204.592-.665 1.607-1.264 1.576-2.253-.33-1.114-1.273-.292-1.77.177-.95-.203.15-1.396.78-1.4.117-.035.237-.052.355-.053zm3.703.006c.934 0 1.668.949 1.448 1.87-.222 1.056-1.031 1.867-1.631 2.729-.173.265-.555.048-.804.15-.394-.449.87-1.143 1.068-1.7-.086-.53-1.18.069-1.442-.637-.822-.892.032-2.388 1.172-2.4.064-.007.127-.012.19-.012zm15.327.002c.855.016 1.588.847 1.624 1.728.202 1.094-.034 2.636-1.269 2.992-.999.334-1.95-.564-2.02-1.54-.09-1.083-.164-2.567 1.06-3.051a1.387 1.387 0 0 1 .605-.129zm-3.668.015c.37-.006.738.103 1.013.342.67.51.442 1.335-.058 1.863.578.48.884 1.96-.217 2.376-.22.123-.474.163-.723.178-.718.227-2.156-.802-1.331-1.38.628.244 1.326 1.305 1.94.326.666-1.021-1.079-.873-.916-1.523.495-.269 1.405-.587.74-1.282-.818-1.014-1.286 1.245-1.953.275.084-.736.798-1.164 1.505-1.175zm-11.74.632c-.648.024-1.146 1.018-.498 1.482l.086.06.097.037c.869.33 1.522-.877.775-1.421a.71.71 0 0 0-.46-.158zm15.31.07c-.272.004-.538.17-.702.566-.103.861-.327 1.96.33 2.665 1.246.746 1.393-1.204 1.305-1.984.12-.682-.416-1.258-.934-1.248z"/></svg>