<svg xmlns="http://www.w3.org/2000/svg" width="501.16" height="599.093" viewBox="0 0 132.599 158.51"><path d="M48.39 158.51c11.66-1.964 21.879-8.532 32.871-12.472 8.807-3.381 4.509-19.052 15.423-15.704 8.204-2.288 15.42-4.244 23.886-2.074 8.783-2.26 13.276-11.645 11.727-20.16-.257-14.668-.21-29.586-3.477-43.942-2.253-10.67-12.88-13.227-21.558-16.184-6.982-5.295-13.704-12.584-23.456-10.257-9.706 0-15.846-11.723-26.476-8.453-9.2 4.925-19.19 4.944-29.398 5.207-11.425 3.115-14.023 15.943-16.63 25.75-4.888 14.038-.286 29.65-6.437 43.433-3.52 11.118-8.72 25.174-.386 35.352 8.84 8.8 21.677 11.273 32.493 16.874 3.624 1.483 7.466 2.662 11.419 2.63zm-2.399-1.864c-11.559-3.352-21.92-9.765-33.1-14.094-9.826-4.29-12.695-16.045-9.24-25.536 2.53-4.499 3.14-18.06 7.627-17.341.529 3.711 3.778 19.908 2.506 7.42-1.242-15.155-5.385-31.027-.518-45.883 2.488 1.37 2.342 9.97 2.512 1.37-.767-10.258 2.498-22.823 13.575-26.075 8.093-5.165 16.083 8.004 20.212-2.04 9.654-6.85 25.33-1.916 28.04 9.989 1.567-4.277 15.214-7.356 21.34-1.69 4.832 4.154 4.412 15.045 12.42 9.079 11.642.737 16.987 13.277 17.495 23.474.945 5.002.884 18.283-2.37 6.572-1.78-3.27 1.6 9.961 2.587 12.86 2.058 9.178 2.923 20.933-4.267 28.124-8.755 7.484-17.145-3.217-13.503-12.124-.93-12.567.553-25.442-2.736-37.766-.282 10.754.821 21.556.35 32.351.803 9.208.628 23.071-12.14 22.45-11.769 1.344-11.87-12.683-10.932-20.845-.405-12.28.37-24.645-1.384-36.858-1.252 6.377-1.318 14.092-.845 21.886-.057 10.299.456 20.62-.435 30.897-6.12 7.952-17.331 3.572-23.644-.972-5.656-8.427-2.817-19.218-4.709-28.687-.369-6.984-1.742-20.677-3.466-23.247.288 15.188 1.32 30.393 2.785 45.471 2.811 8.75-16.355 6.559-12.694 8.564 3.765-.66 15.106-1.679 5.69 1.14-9.191 2.849-22.376 1.46-24.382-9.99-2.99-6.95-1.197-19.429-2.208-23.675-1.4 12.044-2.03-5.681-1.402-9.46.175-8.73-1.609 5.225-4.072-1.533 1.692 12.915 1.6 26.237 5.524 38.78-6.582 6.374 9.35 7.056 13.665 9.384 8.548 2.068 16.654-3.225 25.072-2.155 7.64 6.426 18.067-1.13 25.733 4.44 5.21 4.203-3.051 12.096-2.53 3.03-3.565-7.892-18.138-.509-17.17 7.113 3.55 7.226-6.767 15.67-9.627 8.006.721 5.595-4.835 8.771-9.759 7.571zm1.785-1.577c-3.705-3.404-2.127-22.205-3.78-8.835.076 3.252 1.113 6.76 3.78 8.835zm-15.262-6.316c-2.799-2.822-16.087-8.127-13.5-5.072 4.427 1.867 8.795 3.98 13.5 5.072zm66.348-23.231c3.172-.963-15.217-3.9-6.057-.916 1.866.379 4.16 1.845 6.057.916zM81.088 54.807c-.613-4.448 11.16-16.526 2.204-8.42-1.802 2.356-2.852 5.456-2.204 8.42zM48.493 51.08c-2.194-6.682 6.045-15.75 7.534-16.978-7.128 1.78-8.674 10.776-7.534 16.978zm19.784 96.885c-5.49-7.535 4.002-20.23 12.333-14.83 6.842 7.611-3.173 13.572-10.15 14.343l-1.086.267z" style="fill:#999;stroke-width:.15818377"/><path d="M61.236 23.397a6.53 6.53 0 0 0-6.531 6.53 6.53 6.53 0 0 0 6.53 6.531 6.53 6.53 0 0 0 6.531-6.53 6.53 6.53 0 0 0-6.53-6.531zm-32.13 5.725c-2.157-.04-4.34.91-5.54 2.815-2.522 3.403-.63 8.827 3.46 9.926 3.995 1.4 8.622-2.004 8.46-6.239a6.54 6.54 0 0 0-1.415-4.06c-1.175-1.6-3.06-2.407-4.964-2.442zm63.27 2.63a6.53 6.53 0 0 0-6.531 6.53 6.53 6.53 0 0 0 6.53 6.53 6.53 6.53 0 0 0 6.531-6.53 6.53 6.53 0 0 0-6.53-6.53zm26.962 13.671a6.53 6.53 0 0 0-6.53 6.53 6.53 6.53 0 0 0 6.53 6.531 6.53 6.53 0 0 0 6.53-6.53 6.53 6.53 0 0 0-6.53-6.53z" style="opacity:1;vector-effect:none;fill:#fff;fill-opacity:1;stroke:#00f;stroke-width:.83705574;stroke-linecap:butt;stroke-linejoin:miter;stroke-miterlimit:4;stroke-dasharray:none;stroke-dashoffset:0;stroke-opacity:1"/><path d="M45.286 35.55a6.53 6.53 0 0 0-6.53 6.53 6.53 6.53 0 0 0 6.53 6.53 6.53 6.53 0 0 0 6.53-6.53 6.53 6.53 0 0 0-6.53-6.53zm30 0a6.53 6.53 0 0 0-6.53 6.53 6.53 6.53 0 0 0 6.53 6.53 6.53 6.53 0 0 0 6.53-6.53 6.53 6.53 0 0 0-6.53-6.53zm27.343 9.873a6.53 6.53 0 0 0-6.53 6.53 6.53 6.53 0 0 0 6.53 6.531 6.53 6.53 0 0 0 6.53-6.53 6.53 6.53 0 0 0-6.53-6.53z" style="opacity:1;vector-effect:none;fill:#fff;fill-opacity:1;stroke:#f60;stroke-width:.83705574;stroke-linecap:butt;stroke-linejoin:miter;stroke-miterlimit:4;stroke-dasharray:none;stroke-dashoffset:0;stroke-opacity:1"/><path d="M28.956 10.56v18.476zm32.28 0v12.886zm31.14 0v21.151zm26.914 0v34.82z" style="fill:none;stroke:#00f;stroke-width:.83705574;stroke-linecap:butt;stroke-linejoin:miter;stroke-miterlimit:4;stroke-dasharray:none;stroke-opacity:1"/><path d="M47.107 39.76a1.66 1.66 0 0 0-.9.258c-.372.24-.582.696-.513 1.134.031.376.301.702.652.831-.225.072-.443.19-.59.38-.286.38-.29.935-.063 1.345.279.492.875.697 1.414.688.359.002.727-.078 1.03-.279.44-.28.63-.85.511-1.349-.075-.391-.407-.679-.779-.785.32-.123.58-.406.638-.75a1.169 1.169 0 0 0-.5-1.215 1.673 1.673 0 0 0-.9-.257zm-3.593.003c-.213 0-.427.034-.628.107-.514.174-.857.68-.917 1.207l.396.07c.194.065.385-.07.412-.266.116-.35.522-.53.87-.448.289.042.487.323.481.607.023.46-.257.86-.56 1.179-.506.524-1.027 1.033-1.54 1.55-.168.146-.135.379-.137.577H45v-.386c.017-.135-.039-.293-.187-.324-.194-.021-.39-.006-.585-.01-.414.008-.837-.04-1.238.09l.683-.696c.331-.347.693-.67.963-1.07.295-.426.392-1.008.157-1.483-.224-.478-.772-.714-1.28-.704zm29.995 0c-.191 0-.383.027-.565.085-.502.144-.87.603-.96 1.11-.084.144.06.13.155.15.176.02.39.117.534-.03.109-.15.126-.358.284-.476.29-.261.827-.264 1.062.073a.784.784 0 0 1-.004.785c-.203.258-.563.283-.867.291v.373c.002.1-.034.235.125.18.293.015.647.041.832.303a.844.844 0 0 1-.006.768c-.239.425-.896.496-1.24.163-.153-.125-.2-.33-.332-.467-.173-.12-.371-.008-.54.06-.113.034-.207.078-.106.206.147.42.44.818.876.96.534.17 1.157.135 1.634-.176.45-.288.654-.863.552-1.377-.061-.393-.394-.679-.76-.787.106-.07.424-.19.524-.388.203-.321.222-.75.071-1.097-.21-.485-.765-.72-1.27-.709zm3.506.001a1.449 1.449 0 0 0-1.007.43c-.448.47-.576 1.148-.589 1.776-.011.657.078 1.367.501 1.897.54.697 1.721.706 2.285.034.426-.499.535-1.185.536-1.82 0-.6-.098-1.242-.466-1.735-.286-.4-.778-.598-1.26-.582zm-29.954.581c.14-.007.284.02.404.084.293.153.364.532.275.826-.058.286-.353.461-.633.443a.665.665 0 0 1-.48-.17c-.208-.217-.234-.567-.127-.836.1-.221.327-.334.561-.347zm29.989.063a.664.664 0 0 1 .563.255c.297.405.322.933.329 1.417-.005.459-.032.953-.282 1.353-.213.377-.807.434-1.088.103-.297-.362-.337-.856-.353-1.307-.003-.516.001-1.074.29-1.524a.655.655 0 0 1 .54-.297zm-30.015 1.897c.171-.01.346.023.498.09.324.156.404.568.323.889-.076.332-.424.527-.749.508-.276.008-.576-.113-.699-.374-.135-.303-.109-.718.155-.944a.852.852 0 0 1 .472-.169zm53.816 7.332c-.19 0-.382.026-.563.085-.503.144-.871.602-.961 1.11-.084.144.06.13.155.15.176.02.39.117.534-.03.109-.15.126-.359.284-.476.29-.262.827-.264 1.062.072a.787.787 0 0 1-.005.786c-.203.258-.563.282-.866.29v.373c.002.1-.035.236.124.181.293.015.647.041.832.303a.843.843 0 0 1-.005.768c-.24.424-.897.496-1.241.163-.152-.125-.199-.33-.332-.468-.173-.12-.37-.007-.54.062-.113.033-.206.077-.106.205.147.42.44.817.876.96.534.17 1.158.135 1.635-.176.449-.288.654-.863.551-1.377-.06-.393-.393-.68-.76-.788.106-.07.424-.189.524-.387.203-.322.222-.75.072-1.097-.21-.485-.765-.72-1.27-.709zm3.507 0a1.448 1.448 0 0 0-1.008.43c-.447.47-.576 1.149-.588 1.776-.012.658.077 1.368.5 1.898.541.697 1.722.706 2.285.034.427-.499.536-1.185.537-1.821 0-.6-.099-1.242-.466-1.735-.286-.4-.778-.597-1.26-.581zm.034.645a.664.664 0 0 1 .564.254c.296.405.322.933.328 1.418-.005.458-.032.953-.282 1.352-.213.378-.807.435-1.087.104-.297-.362-.338-.856-.353-1.307-.003-.516 0-1.075.289-1.525a.655.655 0 0 1 .541-.296zM47.15 72.736v4.812h.436c.13.017.291-.027.29-.186.023-.054.004-.255.073-.146.233.298.63.42.996.373.537-.045.977-.47 1.135-.97a2.596 2.596 0 0 0 .003-1.603c-.141-.432-.522-.8-.99-.835-.43-.057-.858.138-1.143.456v-1.9Zm34.078 0v4.812h.8v-4.812Zm-1.17.013a.517.517 0 0 0-.529.308c-.12.265.04.6.316.68.31.107.674-.151.669-.48a.511.511 0 0 0-.251-.436.456.456 0 0 0-.205-.072zm27.749 0a.517.517 0 0 0-.529.308c-.12.265.04.6.317.68.309.107.673-.151.668-.48a.512.512 0 0 0-.25-.436.456.456 0 0 0-.206-.072zm-67.36.117v4.682h.874V75.64h1.754v-.696h-1.754v-1.386h2.078v-.693Zm29.94 0-1.842 4.682h.444c.18-.003.409.037.505-.161.126-.329.243-.661.365-.992h1.94l.246.673c.077.18.104.444.34.477.243.007.486 0 .728.003l-1.839-4.682zm27.971 0v2.618c-.01.373.05.775-.148 1.11-.147.254-.466.31-.734.281-.17-.053-.466-.08-.44.184.031.147-.141.442.05.474.524.109 1.123.117 1.569-.22.436-.331.578-.906.574-1.43v-3.017Zm-27.54.834c.025-.023.05.134.077.207.218.627.455 1.248.68 1.873h-1.492c.04-.112.082-.223.123-.335.195-.55.418-1.092.587-1.652.009-.058.017-.085.025-.093zm7.947.464a1.12 1.12 0 0 0-.136.014c-.333.057-.567.341-.719.624l-.037-.305c-.008-.107-.03-.253-.163-.265-.183-.013-.368-.003-.551-.006v3.322h.8v-2.03c.032-.117.097-.227.167-.326a.646.646 0 0 1 .61-.25c.121.004.328.097.369-.078l.051-.6a.639.639 0 0 0-.39-.1zm-3.555.001a1.293 1.293 0 0 0-.76.306c-.08.014-.221.315-.23.134-.039-.132-.022-.32-.182-.37-.185-.02-.374-.004-.56-.009v4.406h.8v-1.327c.046-.028.21.173.325.196.38.157.838.124 1.19-.087.526-.32.747-.962.741-1.553.001-.528-.118-1.114-.545-1.465a1.12 1.12 0 0 0-.779-.231zm-30.098.009c-.255 0-.514.048-.743.164-.435.206-.733.64-.819 1.109-.088.514-.015 1.076.286 1.512.28.414.78.635 1.271.637.515.011 1.07-.136 1.413-.543-.086-.108-.17-.218-.257-.324-.132-.105-.29.011-.41.077-.316.185-.727.24-1.064.08-.33-.165-.457-.554-.477-.899h1.974c.1.006.242.004.255-.126.049-.37-.026-.76-.223-1.078-.249-.411-.738-.617-1.206-.61zm60.364 0c-.395-.02-.78.161-1.047.447-.032.014-.027-.1-.044-.136-.015-.11-.056-.249-.19-.257-.176-.005-.351 0-.527-.002v3.322h.8v-2.403c.228-.236.56-.41.896-.333.255.042.395.308.397.548.005.73.001 1.458.002 2.188h.8v-1.875c.006-.327-.002-.669-.164-.964-.17-.34-.548-.538-.923-.535zm-25.876.052v3.322h.803v-3.322zm20.38 0v1.924c-.008.356.018.736.238 1.031.203.298.573.438.925.418.372.001.722-.183.974-.45.033-.012.027.102.045.14.016.11.05.25.186.257.176.005.351 0 .527.002v-3.322h-.8v2.251c-.01.065.029.15-.04.19-.228.226-.562.37-.883.284-.243-.053-.365-.31-.37-.54-.004-.728 0-1.457-.001-2.185h-.8zm7.37 0v3.322h.803v-3.322zm-62.222.52c.094 0 .19.014.277.048.294.098.437.42.432.711h-1.509c.02-.135.058-.27.125-.39.124-.249.405-.378.675-.368zm3.55.05a.74.74 0 0 1 .233.034c.305.094.431.426.456.718.03.406.032.862-.226 1.201-.299.353-.924.307-1.191-.062v-1.478c.16-.232.432-.425.728-.414zm26.354 0a.588.588 0 0 1 .424.158c.24.261.252.642.252.978-.008.356-.09.775-.423.97-.33.167-.785.093-1.007-.215v-1.48c.162-.243.45-.426.754-.412z" style="fill:#f60;fill-opacity:1;stroke:none;stroke-width:.04185279"/><path d="M75.286 48.459v22Zm-30 .113V70.46Zm57.343 10.107v11.78Z" style="fill:none;stroke:#f60;stroke-width:.83705568;stroke-linecap:butt;stroke-linejoin:miter;stroke-miterlimit:4;stroke-dasharray:none;stroke-opacity:1"/><path d="M121.364 0v4.812h.8V0Zm2.08.013a.517.517 0 0 0-.528.307c-.12.265.04.6.316.681.31.107.673-.151.668-.48a.512.512 0 0 0-.25-.436.456.456 0 0 0-.206-.072zM97.062.016a.516.516 0 0 0-.528.308c-.12.265.04.6.316.68.31.107.674-.151.669-.48a.511.511 0 0 0-.251-.436.458.458 0 0 0-.206-.072zM60.02.127c-.087.003-.169.022-.226.098-.313.571-.614 1.15-.922 1.723-.226.443-.49.868-.673 1.331-.065-.021-.127-.297-.206-.41L56.723.512c-.088-.128-.122-.32-.283-.374-.265-.017-.532-.004-.798-.008v4.682h.768V3.03c-.008-.547.019-1.095-.023-1.64l1.261 2.348c.105.164.155.382.337.48.18.044.43.061.544-.12.466-.86.922-1.727 1.384-2.59.074-.174.055-.034.042.095-.007 1.07-.001 2.139-.003 3.209h.767V.13h-.436c-.082.008-.175-.006-.263-.003zM25.704.13v2.618c-.01.373.05.775-.149 1.11-.147.254-.465.31-.734.28-.17-.053-.465-.078-.44.185.032.147-.141.442.05.474.524.109 1.123.117 1.57-.221.435-.331.577-.906.574-1.429V.13zm90.34 0v2.618c-.01.373.05.775-.148 1.11-.147.254-.465.31-.733.28-.17-.053-.466-.078-.441.185.032.147-.14.442.051.474.523.109 1.122.117 1.568-.221.436-.331.578-.906.574-1.429l.001-3.017zm-24.433 0c-.088.003-.17.023-.227.098-.312.572-.614 1.15-.922 1.723-.226.443-.49.868-.673 1.331-.064-.02-.127-.296-.206-.41L88.312.515c-.087-.128-.12-.32-.282-.373-.265-.018-.532-.005-.798-.01v4.683H88V3.034c-.008-.547.019-1.096-.023-1.642l1.261 2.349c.105.164.156.383.337.48.18.045.43.062.545-.119.465-.86.921-1.727 1.383-2.59.075-.175.055-.035.042.094-.007 1.07-.001 2.14-.003 3.209h.767V.133h-.436c-.082.008-.175-.006-.262-.003zM66.445 1.428a1.09 1.09 0 0 0-.136.013c-.334.057-.569.342-.72.625l-.037-.305c-.008-.107-.031-.253-.163-.265-.183-.013-.368-.004-.552-.007v3.323h.8V2.78c.033-.116.098-.227.168-.325a.646.646 0 0 1 .61-.25c.121.004.328.097.369-.078l.051-.6a.637.637 0 0 0-.39-.1Zm-37.955.003a1.975 1.975 0 0 0-1.235.521l.117.21c.054.128.19.225.332.186.181-.053.325-.19.507-.243.227-.065.506-.084.697.078.202.185.18.475.18.725a5.538 5.538 0 0 0-.582.04c-.42.061-.863.171-1.18.471-.301.29-.297.805-.046 1.125.234.293.643.35.995.308.341-.03.643-.219.888-.449l.063.212c.02.135.15.214.28.197h.363V3.234c-.01-.337.034-.683-.074-1.009a1.114 1.114 0 0 0-.852-.766 1.925 1.925 0 0 0-.453-.028zm34.215 0a1.974 1.974 0 0 0-1.234.521l.117.21c.054.128.19.225.332.186.181-.053.325-.19.507-.243.227-.065.506-.084.697.078.202.185.18.475.18.725a5.538 5.538 0 0 0-.582.04c-.42.061-.863.171-1.18.471-.301.29-.297.805-.046 1.125.234.293.643.35.995.308.341-.03.643-.219.888-.449l.063.212c.02.135.15.214.28.197h.363V3.234c-.01-.337.034-.683-.074-1.009a1.114 1.114 0 0 0-.852-.766 1.93 1.93 0 0 0-.454-.028Zm-30.275.007c-.396-.02-.78.16-1.048.447-.032.014-.026-.1-.044-.137-.015-.11-.056-.248-.19-.256-.176-.005-.351-.001-.527-.003v3.323h.8V2.409c.228-.236.56-.41.896-.333.255.042.395.307.397.547.005.73.001 1.46.002 2.189h.8V2.937c.006-.328 0-.67-.163-.965-.171-.34-.55-.537-.923-.534Zm62.112.003c-.256 0-.514.047-.743.163-.435.207-.733.641-.82 1.11-.086.507-.016 1.062.275 1.495.273.417.77.647 1.262.653.52.016 1.087-.13 1.434-.542-.086-.108-.17-.218-.258-.324-.132-.106-.29.01-.41.076-.316.185-.726.24-1.063.08-.33-.164-.457-.553-.477-.898h1.974c.1.006.241.003.254-.127.05-.37-.025-.76-.222-1.078-.25-.41-.738-.616-1.206-.608zm23.125.048v1.925c-.01.356.017.735.237 1.031.203.298.573.438.925.418.372 0 .722-.184.975-.45.032-.012.027.101.045.14.016.11.05.25.186.257.175.005.351 0 .527.002V1.489h-.8v2.252c-.01.065.028.15-.041.19-.228.226-.562.37-.883.284-.243-.053-.365-.31-.37-.54-.004-.729 0-1.457-.001-2.186zm5.32 0v3.323h.803V1.489zm-26.381.004v3.322h.803V1.493Zm-2.048.52c.094 0 .189.014.277.048.294.098.436.42.432.71h-1.509c.02-.134.058-.268.124-.388.124-.25.405-.38.676-.37Zm-65.47 1.38v.402c-.01.069.03.159-.043.203a.971.971 0 0 1-.734.315c-.172.002-.388-.06-.433-.25a.389.389 0 0 1 .198-.471c.311-.159.67-.176 1.012-.198zm34.216 0v.402c-.01.069.03.159-.043.203a.971.971 0 0 1-.734.315c-.172.002-.388-.06-.433-.25a.389.389 0 0 1 .198-.471c.311-.159.67-.176 1.012-.198zm-3.729 24.218c-.19 0-.382.026-.564.085-.502.144-.87.603-.96 1.11-.084.144.06.13.155.15.176.02.39.116.534-.03.108-.15.126-.358.284-.476.29-.261.827-.264 1.062.072a.785.785 0 0 1-.004.786c-.204.258-.563.283-.867.29v.373c.002.1-.035.236.124.181.293.015.647.041.832.303a.844.844 0 0 1-.005.767c-.24.425-.897.497-1.24.164-.153-.125-.2-.331-.333-.468-.173-.12-.37-.007-.54.062-.113.032-.206.077-.105.205.147.419.439.817.875.96.534.17 1.158.135 1.635-.176.45-.288.654-.863.551-1.378-.06-.392-.393-.678-.76-.787.106-.07.424-.189.525-.387.203-.322.221-.75.07-1.097-.21-.485-.765-.72-1.269-.709zm3.546.044-1.382 1.176.2.274c.067.134.245.2.374.11.202-.162.398-.332.597-.497.076-.082.102-.067.077.055-.008.947-.001 1.894-.004 2.841h-.918v.58h2.507v-.58h-.815v-3.959zm-35.825 5.653c-.19 0-.382.026-.564.084-.502.144-.871.603-.96 1.11-.085.144.06.13.155.15.175.02.39.117.533-.03.11-.15.126-.358.285-.476.29-.261.827-.264 1.062.073a.784.784 0 0 1-.004.785c-.204.258-.564.283-.868.291v.373c.002.1-.034.235.125.18.293.015.647.041.831.303a.844.844 0 0 1-.004.768c-.24.425-.897.496-1.241.163-.152-.125-.199-.33-.332-.467-.173-.12-.37-.008-.54.06-.113.034-.207.078-.106.206.147.42.44.818.876.96.534.17 1.157.135 1.635-.175.449-.288.654-.864.551-1.378-.06-.392-.393-.679-.76-.787.106-.07.424-.19.524-.388.203-.321.222-.75.072-1.097-.21-.485-.766-.72-1.27-.708zm3.546.043-1.383 1.176.2.275c.067.134.245.2.374.109.203-.162.398-.332.598-.497.076-.081.102-.067.077.056-.008.947-.002 1.894-.004 2.84h-.919v.58h2.508v-.58h-.815v-3.959zm59.873 2.615c-.19 0-.382.026-.564.085-.502.143-.87.602-.96 1.109-.085.145.06.13.155.15.175.02.39.117.534-.03.109-.15.126-.358.284-.476.29-.26.827-.263 1.062.073a.784.784 0 0 1-.004.785c-.204.258-.564.283-.867.291v.373c.001.1-.035.236.124.18.293.015.647.042.832.304a.844.844 0 0 1-.005.767c-.24.425-.896.496-1.24.163-.153-.125-.2-.33-.332-.467-.174-.12-.371-.007-.54.061-.114.033-.207.077-.106.206.146.419.439.817.876.96.534.17 1.157.135 1.634-.176.45-.288.654-.863.551-1.378-.06-.392-.393-.679-.76-.787.106-.07.425-.19.525-.388.203-.321.221-.75.071-1.097-.21-.485-.765-.719-1.27-.708zm3.546.044-1.382 1.175.2.275c.067.134.245.2.373.109.203-.161.399-.332.599-.497.075-.081.101-.066.076.056-.008.947-.001 1.894-.003 2.84h-.92v.581h2.509v-.58h-.815v-3.96zm23.417 13.627c-.19 0-.382.026-.564.085-.502.143-.87.602-.96 1.109-.084.145.06.131.155.15.176.02.39.118.534-.03.109-.149.126-.358.284-.476.29-.26.827-.263 1.062.073a.787.787 0 0 1-.005.786c-.203.258-.563.282-.866.29v.373c.002.1-.035.236.124.181.293.015.647.041.832.303a.843.843 0 0 1-.005.767c-.24.425-.897.497-1.241.164-.153-.125-.2-.33-.332-.468-.173-.12-.37-.007-.54.062-.114.032-.207.077-.106.205.147.419.44.817.876.96.534.17 1.157.135 1.635-.176.449-.288.654-.863.551-1.378-.06-.392-.393-.679-.76-.787.106-.07.424-.189.524-.387.203-.322.222-.75.072-1.097-.21-.485-.766-.72-1.27-.709zm3.546.044-1.382 1.175.2.275c.067.134.245.2.373.11.203-.162.398-.333.598-.498.076-.081.102-.066.077.056-.008.947-.002 1.894-.004 2.841h-.918v.58h2.507v-.58h-.815v-3.959Z" style="fill:#00f;fill-opacity:1;stroke:none;stroke-width:.04185279"/></svg>