<svg xmlns="http://www.w3.org/2000/svg" width="501.16" height="599.093" viewBox="0 0 132.599 158.51"><path d="M48.39 158.51c11.66-1.964 21.879-8.532 32.871-12.473 8.807-3.38 4.509-19.05 15.423-15.703 8.204-2.288 15.42-4.244 23.886-2.074 8.783-2.26 13.276-11.645 11.727-20.16-.257-14.668-.21-29.586-3.477-43.942-2.253-10.67-12.88-13.227-21.558-16.184-6.982-5.296-13.704-12.584-23.456-10.257-9.706 0-15.846-11.723-26.476-8.453-9.2 4.925-19.19 4.944-29.398 5.207-11.425 3.115-14.023 15.943-16.63 25.75-4.888 14.038-.286 29.65-6.437 43.433-3.52 11.118-8.72 25.173-.386 35.352 8.84 8.8 21.677 11.273 32.493 16.874 3.624 1.483 7.466 2.662 11.419 2.63zm-2.399-1.864c-11.559-3.352-21.92-9.765-33.1-14.094-9.826-4.29-12.695-16.045-9.24-25.536 2.53-4.499 3.14-18.06 7.627-17.341.529 3.711 3.778 19.908 2.506 7.42-1.242-15.155-5.385-31.027-.518-45.883 2.488 1.37 2.342 9.97 2.512 1.37-.767-10.258 2.498-22.823 13.575-26.075 8.093-5.165 16.083 8.004 20.212-2.04 9.654-6.85 25.33-1.916 28.04 9.989 1.567-4.277 15.214-7.356 21.34-1.69 4.832 4.154 4.412 15.045 12.42 9.079 11.642.737 16.987 13.277 17.495 23.474.945 5.002.884 18.283-2.37 6.572-1.78-3.27 1.6 9.961 2.587 12.86 2.058 9.178 2.923 20.933-4.267 28.124-8.755 7.484-17.145-3.217-13.503-12.125-.93-12.566.553-25.44-2.736-37.765-.282 10.754.821 21.556.35 32.351.803 9.208.628 23.071-12.14 22.45-11.769 1.344-11.87-12.683-10.932-20.845-.405-12.28.37-24.645-1.384-36.858-1.252 6.377-1.318 14.092-.845 21.886-.057 10.299.456 20.62-.435 30.897-6.12 7.951-17.331 3.572-23.644-.972-5.656-8.427-2.817-19.218-4.709-28.687-.369-6.984-1.742-20.677-3.466-23.247.288 15.188 1.32 30.393 2.785 45.471 2.811 8.75-16.355 6.559-12.694 8.564 3.765-.66 15.106-1.679 5.69 1.14-9.191 2.849-22.376 1.46-24.382-9.99-2.99-6.95-1.197-19.429-2.208-23.675-1.4 12.043-2.03-5.681-1.402-9.46.175-8.73-1.609 5.225-4.072-1.533 1.692 12.914 1.6 26.237 5.524 38.78-6.582 6.374 9.35 7.056 13.665 9.384 8.548 2.068 16.654-3.225 25.072-2.155 7.64 6.426 18.067-1.13 25.733 4.44 5.21 4.203-3.051 12.096-2.53 3.03-3.565-7.892-18.138-.509-17.17 7.113 3.55 7.226-6.767 15.67-9.627 8.006.788 5.511-4.915 8.827-9.759 7.571zm1.785-1.577c-3.705-3.404-2.127-22.205-3.78-8.835.076 3.252 1.113 6.76 3.78 8.835zm-15.262-6.316c-2.799-2.822-16.087-8.127-13.5-5.072 4.427 1.867 8.795 3.98 13.5 5.072zm66.348-23.231c3.172-.963-15.217-3.9-6.057-.916 1.866.379 4.16 1.845 6.057.916zM81.088 54.807c-.613-4.448 11.16-16.526 2.204-8.42-1.802 2.356-2.852 5.456-2.204 8.42zm-32.595-3.728c-2.194-6.682 6.045-15.75 7.534-16.978-7.128 1.78-8.674 10.776-7.534 16.978zm19.784 96.885c-5.49-7.535 4.002-20.23 12.333-14.83 6.842 7.611-3.173 13.572-10.15 14.343l-1.086.267z" style="fill:#999;stroke-width:.15818375"/><path d="M231.441 88.43a24.682 24.682 0 0 0-24.681 24.683 24.682 24.682 0 0 0 24.681 24.682 24.682 24.682 0 0 0 24.682-24.682 24.682 24.682 0 0 0-24.682-24.683zm-122 21.529a24.682 24.682 0 0 0-24.681 24.684 24.682 24.682 0 0 0 24.681 24.681 24.682 24.682 0 0 0 24.682-24.681 24.682 24.682 0 0 0-24.682-24.684zm239.696 10.049a24.682 24.682 0 0 0-24.684 24.681 24.682 24.682 0 0 0 24.684 24.682 24.682 24.682 0 0 0 24.681-24.682 24.682 24.682 0 0 0-24.681-24.681z" style="opacity:1;vector-effect:none;fill:#fff;fill-opacity:1;stroke:#00f;stroke-width:3.16367483;stroke-linecap:butt;stroke-linejoin:miter;stroke-miterlimit:4;stroke-dasharray:none;stroke-dashoffset:0;stroke-opacity:1" transform="scale(.26458)"/><path d="M171.158 134.36a24.682 24.682 0 0 0-24.681 24.683 24.682 24.682 0 0 0 24.681 24.682 24.682 24.682 0 0 0 24.684-24.682 24.682 24.682 0 0 0-24.684-24.684zm113.389 0a24.682 24.682 0 0 0-24.682 24.683 24.682 24.682 0 0 0 24.682 24.682 24.682 24.682 0 0 0 24.683-24.682 24.682 24.682 0 0 0-24.683-24.684z" style="opacity:1;vector-effect:none;fill:#fff;fill-opacity:1;stroke:#f60;stroke-width:3.16367483;stroke-linecap:butt;stroke-linejoin:miter;stroke-miterlimit:4;stroke-dasharray:none;stroke-dashoffset:0;stroke-opacity:1" transform="scale(.26458)"/><path d="M231.441 31.3v57.315-57.314zm117.694 0v88.554V31.3zM109.44 39.913v69.83-69.83z" style="fill:none;stroke:#00f;stroke-width:3.16367483;stroke-linecap:butt;stroke-linejoin:miter;stroke-miterlimit:4;stroke-dasharray:none;stroke-opacity:1" transform="scale(.26458)"/><path d="M284.547 183.15v83.15-83.15zm-113.389.43v82.72-82.72z" style="fill:none;stroke:#f60;stroke-width:3.16367459;stroke-linecap:butt;stroke-linejoin:miter;stroke-miterlimit:4;stroke-dasharray:none;stroke-opacity:1" transform="scale(.26458)"/><path d="M164.44 150.287c-.722 0-1.444.099-2.131.32-1.899.545-3.291 2.276-3.631 4.192-.318.547.23.496.588.57.663.076 1.473.44 2.017-.113.41-.566.474-1.354 1.072-1.799 1.099-.988 3.128-1 4.016.272.518.884.527 2.097-.017 2.97-.77.975-2.128 1.07-3.276 1.1v1.408c.006.377-.13.89.47.684 1.108.055 2.446.154 3.143 1.144.446.886.465 2.023-.02 2.9-.903 1.607-3.385 1.877-4.687.618-.576-.472-.754-1.25-1.255-1.768-.656-.453-1.403-.026-2.042.233-.428.124-.779.292-.398.777.554 1.583 1.658 3.088 3.309 3.627 2.018.643 4.376.51 6.18-.664 1.697-1.09 2.47-3.262 2.081-5.207-.23-1.482-1.486-2.565-2.87-2.975.4-.266 1.601-.715 1.98-1.465.767-1.215.837-2.836.27-4.146-.795-1.833-2.892-2.718-4.798-2.678h-.002zm113.388 0c-.721 0-1.443.099-2.13.32-1.899.545-3.292 2.276-3.632 4.192-.318.547.23.496.588.57.663.076 1.473.44 2.018-.113.41-.566.474-1.354 1.072-1.799 1.098-.987 3.128-1 4.016.272.518.884.527 2.097-.018 2.97-.77.975-2.128 1.07-3.275 1.1v1.408c.006.377-.132.89.469.684 1.106.055 2.446.154 3.144 1.144.445.886.465 2.023-.02 2.9-.904 1.607-3.386 1.877-4.687.618-.576-.472-.754-1.25-1.256-1.768-.655-.453-1.402-.026-2.04.233-.429.124-.78.292-.4.777.555 1.583 1.659 3.088 3.31 3.627 2.018.643 4.375.51 6.179-.664 1.698-1.09 2.47-3.262 2.082-5.207-.23-1.482-1.487-2.565-2.871-2.975.4-.266 1.602-.715 1.98-1.465.768-1.215.838-2.836.27-4.146-.794-1.833-2.892-2.718-4.797-2.678h-.002zm-100.137.002c-1.418.047-2.814.584-3.806 1.627-1.692 1.777-2.175 4.337-2.223 6.709-.044 2.484.291 5.17 1.89 7.172 2.044 2.633 6.505 2.67 8.636.129 1.611-1.885 2.023-4.478 2.027-6.883-.001-2.266-.37-4.693-1.758-6.555-1.081-1.512-2.942-2.26-4.766-2.199zm113.39 0c-1.42.047-2.816.584-3.808 1.627-1.691 1.777-2.174 4.337-2.222 6.709-.044 2.484.29 5.17 1.89 7.172 2.043 2.633 6.505 2.67 8.635.129 1.612-1.885 2.024-4.478 2.028-6.883-.002-2.266-.372-4.693-1.76-6.555-1.082-1.512-2.94-2.26-4.764-2.199zm-113.257 2.436c.81-.03 1.634.288 2.13.96 1.12 1.532 1.218 3.527 1.241 5.358-.017 1.734-.12 3.6-1.064 5.111-.808 1.426-3.053 1.642-4.113.393-1.122-1.37-1.274-3.236-1.332-4.94-.012-1.951.004-4.061 1.091-5.761.44-.715 1.237-1.092 2.047-1.121zm113.389 0c.81-.03 1.634.288 2.129.96 1.12 1.532 1.219 3.527 1.242 5.358-.017 1.734-.12 3.6-1.064 5.111-.808 1.426-3.053 1.642-4.114.393-1.121-1.37-1.273-3.236-1.332-4.94-.01-1.951.005-4.061 1.092-5.761.44-.715 1.236-1.092 2.047-1.121zm-137.826 122.48c-2.142-.112-4.447.88-5.446 2.856-.724 1.43-.735 3.23-.005 4.658.712 1.387 2.224 2.045 3.636 2.488 1.284.456 2.841.608 3.71 1.785.649 1.158.128 2.89-1.169 3.348-1.438.527-3.1.246-4.347-.625-.575-.344-1.32-1.112-1.979-.485-.426.535-.731 1.162-1.107 1.735.63.646 1.399 1.148 2.215 1.53 2.186.983 4.877 1.16 7.021-.03 2.182-1.172 3.165-3.93 2.564-6.274-.376-1.437-1.626-2.439-2.968-2.943-1.403-.635-2.997-.836-4.285-1.713-1.072-.68-.947-2.392.023-3.1 1.301-.865 3.071-.648 4.367.118.543.396 1.5.94 1.893.064h.002l.818-1.555c-1.32-1.246-3.151-1.83-4.943-1.857zm113.388.184a.992.992 0 0 0-.244.01h-1.726v17.695h2.9v-6.33c-.024-2.006.061-4.016-.074-6.018l8.441 10.766c.466.517.785 1.22 1.444 1.513.725.133 1.471.042 2.207.069v-17.696h-2.9v6.545c.026 1.943-.07 3.89.085 5.828l-8.933-11.41c-.315-.414-.658-.924-1.2-.972zm-76 1.306c-.466.032-1.119-.15-1.345.399-.255 1.173-.445 2.363-.674 3.543l-1.871.306c-.285-.016-.093.373-.149.551.036.437-.15 1.05.362 1.268.496.083 1.008.021 1.511.04v5.296c.042 1.213-.173 2.503.41 3.625.53 1.107 1.808 1.609 2.98 1.568 1.175-.002 2.381-.352 3.292-1.115l-.809-1.309c-.24-.659-.872-.314-1.308-.074-.718.285-1.584-.239-1.537-1.043-.01-2.316-.003-4.632-.006-6.947h3.353v-2.155h-3.353v-3.953h-.856zm-10.132 3.614c-1.049.066-2.086.472-2.872 1.156-.308.053-.838 1.191-.873.506-.145-.497-.083-1.21-.687-1.399-.7-.074-1.412-.015-2.117-.033v16.654h3.023v-5.015c.174-.106.798.651 1.23.74a5.124 5.124 0 0 0 4.495-.33c1.988-1.206 2.827-3.637 2.804-5.87.002-1.994-.447-4.208-2.062-5.534-.833-.67-1.893-.942-2.941-.875zm-14.252.033c-.965-.002-1.942.179-2.807.617-1.645.78-2.77 2.423-3.094 4.193-.334 1.943-.059 4.069 1.08 5.715 1.055 1.564 2.948 2.403 4.805 2.408 1.945.043 4.046-.512 5.34-2.052-.326-.408-.64-.824-.973-1.225-.5-.397-1.094.045-1.549.291-1.195.7-2.746.905-4.021.3-1.248-.62-1.726-2.09-1.803-3.394h7.46c.377.021.912.013.962-.478.185-1.397-.097-2.871-.842-4.074-.94-1.554-2.788-2.332-4.558-2.301zm121.992 0c-1.701-.02-3.457.571-4.627 1.844-1.493 1.624-1.827 3.999-1.477 6.109.299 1.877 1.487 3.65 3.264 4.41 1.657.725 3.606.763 5.303.149 1.748-.623 3.052-2.2 3.482-3.987.472-1.992.323-4.235-.808-5.988-1.093-1.703-3.156-2.577-5.137-2.537zm8.103.193c-.456.002-.913.01-1.369.004l4.98 12.555h2.743l4.98-12.555h-1.636c-.535.022-1.228-.135-1.532.445-.525 1.375-1.02 2.763-1.535 4.143-.583 1.637-1.283 3.241-1.611 4.957A27.542 27.542 0 0 0 301 288.1c-.73-2.094-1.503-4.173-2.25-6.26-.206-.482-.267-1.172-.896-1.28-.455-.024-.911-.027-1.368-.025zm-130.033 1.973c.355 0 .715.05 1.047.18 1.112.368 1.65 1.582 1.633 2.685h-5.703c.077-.51.22-1.017.47-1.47.468-.945 1.531-1.434 2.553-1.395zm122.043.144c.325.012.647.064.947.153 1.147.327 1.745 1.523 1.907 2.625.186 1.396.195 2.913-.475 4.191-.46.912-1.503 1.371-2.492 1.332a3.46 3.46 0 0 1-1.31-.232c-1.107-.423-1.603-1.64-1.735-2.737-.146-1.404-.142-2.95.637-4.183.542-.846 1.546-1.183 2.521-1.149zm-108.527.04c.582-.006 1.186.176 1.603.597.905.988.95 2.43.95 3.697-.03 1.346-.339 2.931-1.6 3.666-1.244.633-2.964.354-3.805-.812v-5.59c.615-.92 1.704-1.612 2.852-1.559z" style="fill:#f60;fill-opacity:1;stroke:none;stroke-width:.15818377" transform="scale(.26458)"/><path d="M230.715 0v18.186h3.023v-5.752c.472.038 1.032-.125 1.416.22.982 1.397 1.914 2.831 2.875 4.242.37.452.567 1.158 1.215 1.262 1.017.06 2.041.012 3.06.028-.678-.99-1.357-1.979-2.036-2.967-.885-1.255-1.707-2.558-2.643-3.774-.599-.309-.061-.467.232-.777 1.417-1.673 2.817-3.36 4.227-5.04h-1.688c-.645.051-1.391-.164-1.925.302-1.115 1.316-2.178 2.678-3.272 4.013-.288.56-.937.469-1.46.471V0h-3.024zm-11.35.285c-2.175.027-4.336.758-5.97 2.213-2.631 2.353-3.41 6.275-2.49 9.6.692 2.615 2.695 4.839 5.26 5.73 2.656.906 5.752.746 8.189-.707 2.695-1.565 4.166-4.725 4.115-7.783 0-.16-.003-.322-.01-.483-.076-2.952-1.62-5.902-4.236-7.363-1.465-.823-3.166-1.227-4.858-1.207zM84.932.49l-6.963 17.696h1.68c.677-.011 1.545.138 1.906-.61.478-1.242.92-2.5 1.382-3.748h7.33l.93 2.543c.292.679.395 1.676 1.29 1.8.915.03 1.833.006 2.75.015L88.284.49h-3.353zm248.39.01c-1.248.002-2.496.009-3.744.002v17.695h5.986c2.032.076 4.135-.254 5.872-1.37 2.534-1.549 3.911-4.559 3.855-7.477.007-1.575-.34-3.162-1.105-4.545-1.373-2.59-4.241-4.144-7.122-4.28A168.695 168.695 0 0 0 333.322.5zM137.055 1.787c-.466.032-1.12-.15-1.346.399-.255 1.173-.444 2.361-.674 3.54l-1.873.307c-.284-.016-.09.373-.146.551.035.437-.15 1.051.361 1.27.496.082 1.009.02 1.512.039v5.295c.042 1.213-.173 2.505.41 3.626.53 1.108 1.808 1.608 2.978 1.567 1.176-.002 2.382-.35 3.293-1.113-.269-.437-.54-.874-.808-1.311-.24-.659-.872-.312-1.309-.072-.718.284-1.584-.24-1.537-1.045-.01-2.316-.003-4.632-.006-6.947h3.354V5.74h-3.354V1.787h-.855zm109.718 0c-.466.032-1.117-.15-1.343.399-.255 1.173-.445 2.361-.674 3.54l-1.873.307c-.285-.016-.09.373-.147.551.036.437-.15 1.051.362 1.27.496.082 1.008.02 1.511.039v5.295c.042 1.213-.173 2.505.41 3.626.53 1.108 1.808 1.608 2.98 1.567 1.175-.002 2.381-.35 3.292-1.113l-.809-1.311c-.24-.659-.872-.312-1.308-.072-.718.284-1.584-.24-1.537-1.045-.01-2.316-.003-4.632-.006-6.947h3.353V5.74h-3.353V1.787h-.858zm-26.921 1.309a6.33 6.33 0 0 1 2.363.603c2.065 1.018 2.936 3.458 2.889 5.639.005 1.451-.31 2.953-1.167 4.15-1.447 2.061-4.373 2.521-6.632 1.701-1.884-.66-3.064-2.547-3.301-4.468-.326-2.294.086-4.988 1.998-6.512 1.087-.836 2.481-1.193 3.85-1.113zm115.959.021c1.2.004 2.406.084 3.455.737 1.913 1.083 2.687 3.402 2.648 5.496 0 .935-.123 1.878-.441 2.761-.586 1.84-2.304 3.206-4.217 3.409-1.454.116-2.915.035-4.373.058V3.121h1.734c.393.002.793-.005 1.194-.004zm-249.248.524c.094-.088.187.506.29.783.824 2.37 1.716 4.719 2.569 7.08h-5.64l.464-1.268c.74-2.081 1.58-4.129 2.22-6.244.033-.218.065-.322.097-.351zm14.64 1.767c-.43 0-.86.035-1.283.112-1.671.25-3.324 1.431-3.627 3.173-.3 1.448.261 3.059 1.521 3.88.88.303-.136.496-.43.884-.934.782-1.069 2.442-.02 3.19.71.277-.227.368-.483.632-.854.49-1.341 1.518-1.111 2.487.284 1.398 1.675 2.19 2.953 2.521 2 .494 4.212.472 6.097-.432 1.53-.695 2.792-2.298 2.565-4.046-.077-1.184-1.095-2.072-2.201-2.329-1.656-.473-3.399-.256-5.079-.544-.928.024-1.18-1.216-.285-1.536 1.355.26 2.813.166 4.063-.449 1.427-.644 2.378-2.197 2.217-3.767.138-.364-.513-1.119-.026-1.172.492-.137 1.103-.068 1.463-.483.172-.464.059-.981.092-1.47h-3.568c-.883-.42-1.871-.664-2.858-.65zm26.133.024a6.172 6.172 0 0 0-2.268.486c-1.269.516-2.213 1.771-2.254 3.154-.088 1.076.342 2.206 1.237 2.842 1.139.84 2.583 1.036 3.863 1.57.57.227 1.187.72 1.068 1.409-.064.87-.986 1.353-1.777 1.363-.88.085-1.745-.2-2.48-.672-.4-.318-1.035-.496-1.438-.078-.325.413-.558.892-.844 1.334 1.044.921 2.423 1.387 3.793 1.517 1.66.124 3.517-.216 4.662-1.521.86-1.02 1.168-2.526.713-3.787-.411-1.036-1.435-1.634-2.437-1.99-1.048-.445-2.258-.559-3.16-1.301-.602-.528-.317-1.573.38-1.871.99-.459 2.167-.252 3.112.224.447.251 1.18.574 1.492-.035l.686-1.088c-.573-.563-1.29-.962-2.045-1.226a6.912 6.912 0 0 0-2.303-.33zm237.268.011c-.78.022-1.554.18-2.27.489-1.27.516-2.211 1.77-2.252 3.152-.088 1.076.342 2.206 1.236 2.842 1.14.84 2.583 1.036 3.864 1.57.57.226 1.187.72 1.068 1.408-.065.87-.986 1.355-1.777 1.366-.88.085-1.746-.2-2.48-.672-.4-.318-1.035-.499-1.438-.08-.325.413-.559.892-.844 1.334 1.044.921 2.423 1.387 3.793 1.517 1.659.124 3.517-.216 4.662-1.521.86-1.02 1.168-2.526.713-3.787-.411-1.036-1.435-1.633-2.438-1.989-1.048-.444-2.26-.558-3.162-1.3-.602-.528-.316-1.575.381-1.874.99-.458 2.167-.249 3.111.227.448.25 1.18.574 1.493-.035l.685-1.09c-.573-.563-1.288-.963-2.043-1.227a6.912 6.912 0 0 0-2.302-.33zm-11.704.002c-.964-.002-1.941.18-2.806.617-1.645.781-2.77 2.423-3.094 4.194-.33 1.918-.065 4.014 1.037 5.652 1.032 1.577 2.912 2.445 4.768 2.469 1.97.059 4.107-.49 5.42-2.05-.326-.408-.641-.824-.973-1.225-.5-.398-1.095.042-1.549.289-1.196.699-2.746.907-4.021.302-1.249-.62-1.726-2.091-1.803-3.394h7.459c.378.02.913.012.963-.479.185-1.396-.097-2.87-.842-4.074-.941-1.553-2.788-2.332-4.559-2.3zm-243.502.184v7.273c-.034 1.345.066 2.78.897 3.899.768 1.124 2.167 1.654 3.496 1.578 1.407.003 2.73-.693 3.686-1.7.123-.046.102.383.168.528.06.413.19.944.703.97.663.02 1.328.003 1.992.009V5.629h-3.024v8.51c-.036.246.108.57-.154.72-.861.852-2.123 1.394-3.336 1.073-.92-.2-1.382-1.173-1.396-2.043-.02-2.753-.003-5.507-.008-8.26h-3.024zm-8.439 1.898a3.77 3.77 0 0 1 1.217.137c1.007.288 1.441 1.466 1.197 2.418-.168 1.002-1.21 1.59-2.17 1.52-.33 0-.664-.04-.978-.147-1.212-.383-1.558-1.973-.989-3.004.362-.623 1.029-.884 1.723-.924zm252.004.084c.355 0 .714.049 1.047.178 1.112.369 1.65 1.585 1.633 2.688h-5.704c.078-.51.22-1.018.471-1.471.468-.944 1.531-1.433 2.553-1.395zM99.479 17.354c1.179.148 2.374.104 3.552.261.647.088 1.579.324 1.586 1.133.004.33-.125.659-.351.898-.932.83-2.288.822-3.467.786-.849-.079-1.952-.194-2.358-1.069-.35-.838.314-1.656 1.038-2.01zm125.689 87.003c-.721 0-1.445.1-2.133.32-1.898.545-3.29 2.278-3.63 4.194-.319.547.229.495.587.568.663.076 1.473.441 2.018-.113.41-.566.474-1.353 1.072-1.799 1.098-.987 3.128-.999 4.016.272.518.884.527 2.097-.018 2.97-.77.975-2.128 1.07-3.275 1.1v1.408c.006.378-.13.891.47.684 1.107.055 2.445.155 3.143 1.144.445.886.465 2.023-.02 2.9-.904 1.607-3.386 1.877-4.687.618-.576-.472-.752-1.25-1.254-1.768-.655-.453-1.402-.026-2.041.233-.428.124-.781.292-.4.777.554 1.583 1.658 3.088 3.308 3.627 2.018.643 4.376.51 6.18-.664 1.698-1.089 2.47-3.262 2.082-5.207-.23-1.482-1.487-2.565-2.871-2.975.4-.265 1.602-.715 1.98-1.464.767-1.216.838-2.837.27-4.147-.795-1.833-2.892-2.718-4.797-2.678zm13.4.166-5.224 4.444.758 1.037c.252.506.923.756 1.41.412.766-.61 1.506-1.254 2.261-1.877.285-.307.383-.251.288.211-.031 3.578-.006 7.158-.014 10.736h-3.47v2.192h9.478v-2.192h-3.08v-14.963h-2.407zm-135.402 21.364a6.94 6.94 0 0 0-2.133.32c-1.898.544-3.289 2.278-3.629 4.193-.318.547.23.495.588.569.663.075 1.471.44 2.016-.114.41-.566.476-1.353 1.074-1.798 1.098-.988 3.128-.998 4.016.273.518.884.527 2.096-.018 2.969-.77.974-2.128 1.07-3.275 1.1v1.408c.006.377-.132.89.468.683 1.107.055 2.447.155 3.145 1.145.445.885.465 2.023-.02 2.9-.904 1.606-3.388 1.876-4.689.617-.576-.472-.752-1.247-1.254-1.765-.655-.454-1.402-.028-2.04.23-.43.125-.78.292-.4.778.555 1.582 1.659 3.09 3.31 3.628 2.017.643 4.375.51 6.179-.664 1.698-1.089 2.47-3.264 2.082-5.209-.23-1.482-1.487-2.565-2.871-2.974.4-.266 1.602-.716 1.98-1.465.767-1.215.838-2.837.27-4.147-.795-1.833-2.894-2.718-4.799-2.677zm13.402.166-5.224 4.443.758 1.04c.252.505.923.753 1.41.41.766-.61 1.504-1.254 2.26-1.878.284-.307.384-.25.289.211-.031 3.579-.006 7.158-.014 10.737h-3.47v2.191h9.476v-2.191h-3.08v-14.963h-2.405zm226.293 9.88a6.94 6.94 0 0 0-2.132.32c-1.899.545-3.29 2.278-3.63 4.194-.317.547.23.495.589.569.663.075 1.47.44 2.015-.114.41-.566.476-1.353 1.074-1.798 1.098-.988 3.128-.998 4.016.273.518.884.527 2.095-.018 2.969-.77.974-2.127 1.07-3.275 1.1v1.408c.006.377-.132.89.469.683 1.107.055 2.447.155 3.144 1.145.446.885.465 2.023-.02 2.9-.903 1.606-3.387 1.876-4.689.617-.576-.472-.752-1.247-1.254-1.765-.655-.454-1.402-.029-2.04.23-.429.124-.78.292-.4.777.555 1.583 1.66 3.09 3.31 3.63 2.018.642 4.376.509 6.18-.665 1.697-1.089 2.47-3.264 2.081-5.209-.23-1.482-1.486-2.565-2.87-2.974.399-.266 1.601-.716 1.98-1.465.767-1.215.837-2.837.27-4.147-.795-1.833-2.894-2.718-4.8-2.677zm13.403.167-5.225 4.443.758 1.039c.252.506.924.754 1.41.41.766-.61 1.504-1.254 2.26-1.877.284-.307.384-.25.289.211-.031 3.579-.005 7.158-.014 10.737h-3.47v2.19h9.476v-2.19h-3.08V136.1h-2.404z" style="fill:#00f;fill-opacity:1;stroke:none;stroke-width:.15818377" transform="scale(.26458)"/></svg>