<svg xmlns="http://www.w3.org/2000/svg" xmlns:xlink="http://www.w3.org/1999/xlink" width="449.974" height="701.938" viewBox="0 0 119.056 185.721"><defs><linearGradient xlink:href="#a" id="f" x1="-10766.805" x2="-10156.52" y1="9514.147" y2="9514.147" gradientTransform="matrix(.02272 .07455 -.07455 .02272 1033.251 587.567)" gradientUnits="userSpaceOnUse"/><linearGradient id="a"><stop offset="0" style="stop-color:#b3ff80;stop-opacity:1"/><stop offset="1" style="stop-color:teal;stop-opacity:1"/></linearGradient><linearGradient xlink:href="#b" id="g" x1="-10766.805" x2="-10156.52" y1="9514.147" y2="9514.147" gradientTransform="scale(-.07793) rotate(73.048 1194.243 11379.027)" gradientUnits="userSpaceOnUse"/><linearGradient id="b"><stop offset="0" style="stop-color:#ffb380;stop-opacity:1"/><stop offset="1" style="stop-color:#f0f;stop-opacity:1"/></linearGradient><linearGradient xlink:href="#c" id="d" x1="-11160.672" x2="-10156.52" y1="9514.147" y2="9514.147" gradientTransform="matrix(0.03025,.00002,-.00002,0.030,381.990,-104.223)" gradientUnits="userSpaceOnUse"/><linearGradient id="c"><stop offset="0" style="stop-color:#0f0;stop-opacity:1"/><stop offset="1" style="stop-color:green;stop-opacity:1"/></linearGradient><linearGradient xlink:href="#c" id="e" x1="-11160.672" x2="-10156.52" y1="9514.147" y2="9514.147" gradientTransform="matrix(0.03025,.00002,-.00002,0.030,381.990,-104.223)" gradientUnits="userSpaceOnUse"/></defs><path d="M.943 67.118h53.124c-.082 8.327.701 16.935-2.611 24.81-2.706 7.243-10.166 10.637-16.506 14.07-2.902 2.465-1.656 7.208 1.415 8.953 4.661 2.281 9.469 4.814 12.7 9.024 2.82 5.309 4.793 11.257 5.05 17.306-.07 3.588-.043 7.177-.048 10.766H1.896c-.25-8.762-.442-18.076 3.714-26.056 2.275-4.423 6.029-7.937 10.532-10.03 3.173-1.405 7.49-4.246 5.786-8.35-2.096-3.655-7.12-3.783-10.027-6.712-7.663-5.19-10.166-15.01-10.41-23.758-.134-3.344-.365-6.683-.548-10.023ZM64.991 67.118h53.124c-.082 8.327.7 16.935-2.611 24.81-2.707 7.243-10.166 10.637-16.507 14.07-2.901 2.465-1.655 7.208 1.416 8.953 4.661 2.281 9.469 4.814 12.7 9.024 2.82 5.309 4.793 11.257 5.05 17.306-.07 3.588-.043 7.177-.048 10.766H65.944c-.251-8.762-.443-18.076 3.714-26.056 2.275-4.423 6.029-7.937 10.532-10.03 3.173-1.405 7.49-4.246 5.785-8.35-2.095-3.655-7.119-3.783-10.026-6.712-7.663-5.19-10.167-15.01-10.41-23.758-.134-3.344-.365-6.683-.548-10.023Z" style="fill:none;stroke:#000;stroke-width:1.78603673;stroke-linecap:butt;stroke-linejoin:miter;stroke-miterlimit:4;stroke-dasharray:none;stroke-opacity:1"/><path d="M4.49 73.675c.042 5.352.221 10.827 2.006 15.929h42.186c1.625-5.14 2.315-10.55 2.406-15.929H4.491zm2.357 16.836c1.292 2.99 3.179 5.807 5.684 7.905 3.452 2.368 7.71 3.375 10.9 6.17 1.196.597 1.865 2.196 3.342 1.853h3.571c1.613-1.538 3.192-3.167 5.256-4.114 3.372-1.796 6.877-3.546 9.661-6.206 1.437-1.612 2.37-3.598 3.108-5.608H6.847zM26.35 108.016c.373 3.335.083 6.725.178 10.08v27.886H4.157v3.46h47.336v-3.46H29.08c.023-12.391-.054-24.783.056-37.173.622-1.31-1.12-.625-1.867-.793h-.92z" style="fill:#00f;stroke-width:.2250125"/><path d="M68.227 73.675c.001 2.506.074 5.014.302 7.51h45.737c.333-2.489.546-4.997.558-7.51H68.227zm.392 8.418c.28 2.549.74 5.093 1.613 7.51h42.187c.798-2.444 1.33-4.97 1.717-7.51H68.619zm1.965 8.418a22.513 22.513 0 0 0 5.186 7.51h30.926c2.763-1.644 4.36-4.574 5.41-7.51H70.584zm6.437 8.418c3.418 1.997 7.334 3.174 10.361 5.815 1.127.642 1.797 2.061 3.241 1.695h3.458c1.612-1.538 3.191-3.167 5.255-4.114 2.042-1.061 4.081-2.137 6.01-3.396H77.021zM90.085 108.016c.37 3.192.087 6.438.18 9.65v28.316H67.893v3.46h47.335v-3.46H92.816c.024-12.391-.054-24.783.056-37.173.622-1.31-1.12-.625-1.867-.793h-.92z" style="fill:#f60;stroke-width:.2250125"/><path d="M32.658 106.893a4.844 4.838 0 0 1-4.845 4.838 4.844 4.838 0 0 1-4.844-4.838 4.844 4.838 0 0 1 4.844-4.837 4.844 4.838 0 0 1 4.845 4.837z" style="opacity:1;vector-effect:none;fill:#fff;fill-opacity:1;stroke:none;stroke-width:.72334343;stroke-linecap:butt;stroke-linejoin:miter;stroke-miterlimit:4;stroke-dasharray:none;stroke-dashoffset:0;stroke-opacity:1"/><path d="M26.653 108.689h.977c.002-1.006-.005-2.013.004-3.019.027-.13-.001-.146-.081-.06-.213.176-.421.357-.637.528-.137.097-.326.027-.397-.115l-.213-.292 1.47-1.25h.678v4.208h.867v.616h-2.668v-.616z" style="shape-padding:0;vector-effect:none;fill:#000;fill-opacity:1;stroke:none;stroke-width:.0482229;stroke-linecap:butt;stroke-linejoin:miter;stroke-miterlimit:4;stroke-dasharray:none;stroke-dashoffset:0;stroke-opacity:1"/><path d="M95.475 106.893a3.924 3.919 0 0 1-3.924 3.919 3.924 3.919 0 0 1-3.924-3.919 3.924 3.919 0 0 1 3.924-3.918 3.924 3.919 0 0 1 3.924 3.918z" style="opacity:1;vector-effect:none;fill:#fff;fill-opacity:1;stroke:none;stroke-width:.58590931;stroke-linecap:butt;stroke-linejoin:miter;stroke-miterlimit:4;stroke-dasharray:none;stroke-dashoffset:0;stroke-opacity:1"/><path d="M89.781 106.36c-.044.06-.218.227-.05.13.5-.2 1.155-.036 1.431.447.323.546.162 1.327-.363 1.69a1.533 1.533 0 0 1-1.563.09c-.421-.219-.642-.7-.638-1.162-.016-.498.248-.944.545-1.322.292-.388.577-.78.873-1.165.16-.165.401-.118.608-.125h.316l-1.159 1.416zm-.543 1.26c-.011.274.123.572.394.671.336.129.775.019.943-.318.18-.34.073-.851-.308-1.005-.323-.137-.76-.05-.934.277a.754.754 0 0 0-.095.374zM94.504 106.893c0 .548-.095 1.139-.462 1.568-.487.579-1.503.57-1.97-.03-.364-.455-.44-1.067-.43-1.633.01-.54.12-1.123.506-1.528.518-.543 1.516-.482 1.955.13.316.425.4.977.401 1.493zm-.689 0c-.005-.417-.027-.871-.283-1.22-.226-.306-.752-.289-.952.037-.248.387-.252.868-.25 1.312.014.388.049.813.305 1.125.242.285.753.235.937-.09.216-.343.24-.769.243-1.164z" style="shape-padding:0;vector-effect:none;fill:#000;fill-opacity:1;stroke:none;stroke-width:.03906062;stroke-linecap:butt;stroke-linejoin:miter;stroke-miterlimit:4;stroke-dasharray:none;stroke-dashoffset:0;stroke-opacity:1"/><path d="M95.475 81.64a3.924 3.919 0 0 1-3.924 3.918 3.924 3.919 0 0 1-3.924-3.918 3.924 3.919 0 0 1 3.924-3.919 3.924 3.919 0 0 1 3.924 3.919z" style="opacity:1;vector-effect:none;fill:#fff;fill-opacity:1;stroke:none;stroke-width:.58590931;stroke-linecap:butt;stroke-linejoin:miter;stroke-miterlimit:4;stroke-dasharray:none;stroke-dashoffset:0;stroke-opacity:1"/><path d="M89.025 83.072h.791c.002-.815-.004-1.63.003-2.445.022-.105 0-.118-.066-.048-.172.142-.34.289-.515.428-.111.078-.264.021-.322-.094l-.173-.237 1.192-1.011h.548v3.407h.703v.5h-2.162v-.5zM94.223 79.953c.016.19-.162.329-.34.32-.375.003-.75 0-1.124.001l-.14.815c.455-.099.984-.084 1.355.233.414.355.476.99.273 1.472-.193.493-.71.795-1.227.817a1.68 1.68 0 0 1-1.26-.455c.087-.112.158-.24.259-.34.153-.104.304.05.436.115.303.167.722.186.995-.05.238-.227.29-.603.192-.907-.09-.265-.377-.395-.641-.393-.213-.012-.424.042-.624.099l-.407-.116.324-1.894h1.93v.283z" style="shape-padding:0;vector-effect:none;fill:#000;fill-opacity:1;stroke:none;stroke-width:.03906062;stroke-linecap:butt;stroke-linejoin:miter;stroke-miterlimit:4;stroke-dasharray:none;stroke-dashoffset:0;stroke-opacity:1"/><path d="M95.475 90.058a3.924 3.919 0 0 1-3.924 3.918 3.924 3.919 0 0 1-3.924-3.918 3.924 3.919 0 0 1 3.924-3.919 3.924 3.919 0 0 1 3.924 3.919z" style="opacity:1;vector-effect:none;fill:#fff;fill-opacity:1;stroke:none;stroke-width:.58590931;stroke-linecap:butt;stroke-linejoin:miter;stroke-miterlimit:4;stroke-dasharray:none;stroke-dashoffset:0;stroke-opacity:1"/><path d="M90.019 88.064c.434-.01.913.192 1.094.61.13.298.114.667-.061.944-.087.17-.361.273-.452.333.315.093.602.34.655.678.088.443-.088.938-.475 1.186-.412.267-.949.298-1.41.151-.375-.123-.627-.466-.754-.826-.087-.11-.006-.149.091-.177.146-.059.316-.156.466-.053.114.118.154.295.286.402.297.287.862.226 1.069-.14.11-.2.106-.459.004-.66-.159-.226-.464-.249-.717-.261-.137.047-.105-.07-.107-.156v-.32c.262-.008.572-.029.747-.251a.675.675 0 0 0 .004-.677c-.203-.289-.665-.287-.915-.062-.137.102-.152.281-.245.41-.124.126-.309.043-.46.026-.058-.024-.199.01-.14-.096.069-.45.389-.862.834-.989.156-.05.322-.073.486-.072zM94.528 90.058c0 .547-.095 1.138-.462 1.567-.486.579-1.503.57-1.97-.03-.364-.455-.44-1.067-.43-1.632.01-.54.121-1.124.507-1.528.517-.543 1.515-.483 1.954.13.317.424.401.976.401 1.493zm-.689 0c-.005-.417-.027-.872-.283-1.22-.225-.307-.751-.29-.952.036-.248.387-.251.868-.249 1.312.013.388.048.813.304 1.125.242.285.753.236.938-.09.215-.343.239-.769.242-1.163z" style="shape-padding:0;vector-effect:none;fill:#000;fill-opacity:1;stroke:none;stroke-width:.03906062;stroke-linecap:butt;stroke-linejoin:miter;stroke-miterlimit:4;stroke-dasharray:none;stroke-dashoffset:0;stroke-opacity:1"/><path d="M95.475 98.475a3.924 3.919 0 0 1-3.924 3.919 3.924 3.919 0 0 1-3.924-3.919 3.924 3.919 0 0 1 3.924-3.918 3.924 3.919 0 0 1 3.924 3.918z" style="opacity:1;vector-effect:none;fill:#fff;fill-opacity:1;stroke:none;stroke-width:.58590931;stroke-linecap:butt;stroke-linejoin:miter;stroke-miterlimit:4;stroke-dasharray:none;stroke-dashoffset:0;stroke-opacity:1"/><path d="M91.06 98.936h.492c-.005.145.01.292-.009.436-.049.12-.193.072-.293.082h-.19v.952h-.58v-.952c-.56-.002-1.121.003-1.682-.003-.156-.023-.158-.196-.186-.316-.007-.057-.036-.119-.029-.172l1.845-2.461h.632v2.434zm-.58-1.277c-.015-.106.038-.356.006-.372l-1.195 1.649h1.188v-1.277zM94.39 96.788c.015.19-.163.328-.341.32-.375.003-.75 0-1.124 0l-.14.816c.455-.099.984-.085 1.355.233.414.354.476.99.273 1.472-.193.492-.71.794-1.226.816a1.68 1.68 0 0 1-1.262-.455c.088-.112.159-.239.26-.339.153-.104.304.05.436.115.303.167.722.186.995-.05.238-.227.29-.603.192-.907-.09-.266-.377-.396-.641-.394-.213-.011-.424.043-.624.1l-.407-.117.324-1.894h1.93v.284z" style="shape-padding:0;vector-effect:none;fill:#000;fill-opacity:1;stroke:none;stroke-width:.03906062;stroke-linecap:butt;stroke-linejoin:miter;stroke-miterlimit:4;stroke-dasharray:none;stroke-dashoffset:0;stroke-opacity:1"/><path d="M32.658 90.058a4.844 4.838 0 0 1-4.845 4.837 4.844 4.838 0 0 1-4.844-4.837 4.844 4.838 0 0 1 4.844-4.838 4.844 4.838 0 0 1 4.845 4.838z" style="opacity:1;vector-effect:none;fill:#fff;fill-opacity:1;stroke:none;stroke-width:.72334343;stroke-linecap:butt;stroke-linejoin:miter;stroke-miterlimit:4;stroke-dasharray:none;stroke-dashoffset:0;stroke-opacity:1"/><path d="M26.73 92.232c-.094.188-.308.257-.505.237h-.259c.935-1.526 1.866-3.053 2.802-4.578a.507.507 0 0 1 .501-.239h.263l-2.802 4.58zm-.907-2.495h.463c.005-.42-.008-.843.007-1.263.036-.13-.019-.095-.092-.025-.107.08-.23.227-.375.133-.088-.083-.147-.193-.223-.287l.777-.646h.497v2.088h.383v.38h-1.437v-.38zm3.289.237c.366-.02.767.223.806.611.063.383-.212.701-.466.95l-.45.458c.267-.08.549-.055.824-.054.177.022.154.218.153.35-.016.065.046.21-.065.18h-1.74c-.002-.164-.017-.355.134-.463.277-.282.576-.544.832-.844.146-.184.308-.54.042-.696-.29-.136-.346.266-.566.315-.145-.006-.288-.039-.432-.058.036-.353.308-.669.664-.723.087-.018.175-.026.264-.026z" style="shape-padding:0;vector-effect:none;fill:#000;fill-opacity:1;stroke:none;stroke-width:.0482229;stroke-linecap:butt;stroke-linejoin:miter;stroke-miterlimit:4;stroke-dasharray:none;stroke-dashoffset:0;stroke-opacity:1"/><path d="M28.45 172.506c-.002 1.35.003 2.7-.003 4.05-.01.426-.23.876-.65 1.024-.33.126-.704.126-1.041.026.021-.186.007-.379.054-.558.192-.122.537.025.657-.243.096-.269.044-.56.057-.839v-3.46h.926zm.126-1.116c.01.422-.512.727-.875.508-.338-.169-.407-.67-.132-.926.273-.298.811-.182.959.187a.56.56 0 0 1 .048.231zM31.892 176.333c-.15.02-.3-.07-.322-.226l-.073-.244c-.282.266-.63.482-1.023.517-.405.049-.876-.017-1.146-.355-.289-.369-.294-.962.053-1.296.365-.346.876-.472 1.36-.542.222-.028.446-.042.67-.047 0-.288.025-.622-.207-.835-.22-.187-.543-.165-.804-.09-.21.06-.375.22-.583.28-.165.045-.32-.067-.383-.214l-.135-.242a2.284 2.284 0 0 1 1.945-.569c.456.088.851.434.98.883.126.376.075.775.086 1.163v1.817h-.418zm-1.376-.574c.32.014.627-.135.845-.364.084-.05.039-.153.05-.233v-.463c-.394.026-.808.046-1.166.228a.448.448 0 0 0-.228.543c.052.219.3.292.499.289zM33.178 176.333v-3.827c.215.006.432-.012.645.01.189.061.166.286.213.441.311-.381.834-.61 1.321-.473.32.09.547.375.653.678.23-.52.834-.77 1.378-.71.438.02.867.283 1.029.7.196.454.122.956.137 1.435v1.747h-.921c-.002-.842.003-1.684-.003-2.525 0-.275-.157-.579-.449-.628-.33-.087-.72.092-.81.434-.07.279-.03.569-.04.853v1.866h-.926c-.001-.843.004-1.687-.002-2.53.003-.27-.141-.578-.433-.624-.33-.08-.685.1-.87.365v2.789h-.922zM20.324 185.66v-3.827c.215.006.432-.012.646.01.188.061.165.285.213.441.31-.382.833-.61 1.32-.473.32.089.547.375.653.678.23-.52.834-.77 1.378-.71.438.02.867.283 1.029.7.196.454.123.955.137 1.435v1.746h-.921c-.002-.841.003-1.683-.003-2.524.001-.275-.156-.579-.449-.628-.33-.087-.72.092-.81.434-.07.279-.03.569-.04.853v1.865h-.925c-.002-.843.003-1.686-.003-2.529.003-.27-.14-.578-.433-.625-.33-.079-.684.101-.87.366v2.788h-.922zM28.207 181.773c.54-.01 1.103.228 1.39.701.226.367.313.817.256 1.242-.015.15-.178.152-.294.146h-2.274c.024.397.17.846.55 1.035.388.184.861.121 1.226-.092.138-.075.32-.21.472-.089.101.123.197.25.297.374-.4.476-1.052.643-1.653.625-.566-.007-1.139-.272-1.453-.753-.336-.5-.417-1.138-.316-1.723.098-.54.442-1.04.943-1.278.264-.133.562-.188.856-.188zm.018.66c-.311-.012-.635.137-.778.425-.076.138-.12.293-.143.448h1.738c.006-.336-.158-.706-.497-.818a.88.88 0 0 0-.32-.055zM30.555 185.66v-3.827c.202.002.404-.003.606.003.155.01.202.168.22.295.02.042.013.174.05.157.309-.329.752-.538 1.207-.514.431-.004.867.224 1.064.616.187.34.195.733.188 1.111v2.16h-.921c-.002-.84.003-1.681-.003-2.522-.002-.276-.163-.582-.458-.63-.386-.088-.77.111-1.032.384v2.768h-.921zM35.722 181.833v3.827h-.926v-3.827h.926zm.126-1.116c.007.378-.413.676-.77.553-.318-.093-.503-.48-.364-.784.127-.321.556-.463.846-.272a.59.59 0 0 1 .288.503zM37.937 185.72c-.357.012-.747-.14-.908-.478-.178-.342-.113-.735-.125-1.105v-1.614c-.154-.006-.31.013-.461-.012-.156-.067-.1-.254-.11-.387.017-.054-.042-.173.045-.168l.57-.094c.07-.36.128-.722.206-1.08.069-.166.268-.111.41-.12h.261v1.204h1.022v.657h-1.022c.001.706-.002 1.412.001 2.118-.014.245.25.405.47.318.132-.073.325-.178.398.022l.247.4c-.278.232-.646.339-1.004.339z" style="shape-padding:0;vector-effect:none;fill:#00f;fill-opacity:1;stroke:none;stroke-width:.2250125;stroke-linecap:butt;stroke-linejoin:miter;stroke-miterlimit:4;stroke-dasharray:none;stroke-dashoffset:0;stroke-opacity:1"/><path d="M80.115 176.333v-3.827c.215.006.432-.012.645.01.188.061.166.286.213.441.311-.381.833-.61 1.321-.473.32.09.547.375.652.678.23-.52.834-.77 1.378-.71.439.02.868.283 1.03.7.196.454.122.956.137 1.435v1.747h-.922c-.001-.842.004-1.684-.002-2.525 0-.275-.157-.579-.45-.628-.329-.087-.72.092-.81.434-.069.279-.029.569-.04.853v1.866h-.925c-.002-.843.003-1.687-.002-2.53.003-.27-.141-.578-.434-.624-.33-.08-.684.1-.87.365v2.789h-.921zM87.997 172.446c.54-.009 1.103.228 1.39.701.227.367.313.817.257 1.243-.016.15-.18.152-.294.145h-2.274c.023.397.169.846.55 1.035.388.184.86.121 1.225-.092.139-.075.32-.21.472-.089.102.123.198.25.297.374-.394.47-1.035.639-1.628.626-.566-.002-1.143-.258-1.465-.735-.347-.501-.43-1.15-.329-1.742.099-.54.442-1.04.944-1.278.263-.133.561-.189.855-.188zm.019.66c-.312-.011-.636.138-.778.425-.077.139-.12.293-.144.448h1.739c.005-.336-.159-.706-.498-.818a.88.88 0 0 0-.32-.055zM90.345 176.333v-3.827c.202.002.405-.003.606.003.155.01.203.168.22.295.02.042.014.174.05.157.31-.329.752-.538 1.208-.514.43-.004.866.224 1.063.616.187.34.195.733.189 1.111v2.16h-.922c-.002-.84.003-1.681-.002-2.521-.003-.277-.164-.583-.458-.631-.386-.088-.77.111-1.032.384v2.768h-.922zM95.512 172.506v3.827h-.925v-3.827h.925zm.127-1.116c.006.378-.413.676-.77.553-.318-.093-.503-.48-.364-.784.126-.321.555-.463.845-.271a.59.59 0 0 1 .289.502zM97.727 176.393c-.356.013-.746-.14-.908-.478-.178-.342-.112-.735-.125-1.105v-1.614c-.153-.006-.31.013-.46-.012-.157-.067-.1-.254-.11-.387.016-.054-.043-.173.044-.168l.57-.093c.07-.36.128-.723.206-1.08.07-.167.268-.112.41-.122h.262v1.205h1.022v.657h-1.022c0 .706-.002 1.412 0 2.118-.013.245.25.405.47.318.133-.073.326-.178.399.022l.246.4c-.278.232-.645.339-1.004.34zM82.876 185.66c-.182.02-.245-.165-.262-.31-.029-.054-.016-.262-.078-.194-.398.472-1.09.7-1.676.474-.542-.205-.828-.781-.904-1.326-.107-.714-.018-1.52.493-2.068.488-.538 1.407-.652 1.976-.179.124.163.089-.015.092-.117v-1.824h.922v5.544h-.563zm-1.228-.675c.35.02.663-.191.87-.459v-1.716c-.332-.449-1.125-.482-1.432.01-.252.411-.24.922-.188 1.385.043.328.215.71.58.764a.897.897 0 0 0 .17.016zM85.986 181.773c.54-.01 1.103.228 1.39.701.227.367.313.817.256 1.242-.015.15-.178.152-.293.146h-2.275c.024.397.17.846.55 1.035.389.184.862.121 1.226-.092.139-.075.32-.21.472-.089.101.123.198.25.297.374-.4.476-1.052.643-1.653.625-.565-.007-1.138-.272-1.453-.753-.336-.5-.417-1.138-.316-1.723.099-.54.442-1.04.943-1.278.264-.133.562-.188.856-.188zm.019.66c-.312-.012-.636.137-.778.425-.077.138-.12.293-.144.448h1.739c.005-.336-.16-.706-.498-.818a.88.88 0 0 0-.32-.055zM89.566 185.72c-.391.017-.815-.18-.95-.569-.13-.357-.068-.743-.083-1.115v-1.513c-.163-.012-.336.026-.491-.027-.13-.105-.063-.291-.08-.437-.04-.123.084-.106.168-.123l.448-.074c.07-.36.127-.722.205-1.08.079-.177.296-.106.45-.12.066.02.223-.048.221.042v1.162h2.698v3.794h-.922v-3.137h-1.776c.004.72-.007 1.44.006 2.159.007.243.29.363.493.266.154-.144.341-.095.408.094l.21.339c-.279.232-.646.339-1.005.34zm2.746-5.018c.012.413-.486.719-.85.525-.335-.15-.438-.625-.194-.898.227-.31.737-.272.939.045.067.096.107.21.105.328zM94.007 180.116v3.175c.16 0 .357.028.445-.143.334-.407.658-.823.997-1.224.163-.142.39-.076.587-.091h.515c-.43.511-.857 1.026-1.288 1.536-.09.095-.254.143-.071.237.285.37.536.768.805 1.15l.621.904c-.31-.005-.623.01-.933-.008-.197-.032-.258-.247-.37-.384-.293-.43-.577-.868-.877-1.294-.117-.105-.287-.055-.431-.067v1.754h-.922v-5.544h.922z" style="shape-padding:0;vector-effect:none;fill:#f60;fill-opacity:1;stroke:none;stroke-width:.2250125;stroke-linecap:butt;stroke-linejoin:miter;stroke-miterlimit:4;stroke-dasharray:none;stroke-dashoffset:0;stroke-opacity:1"/><path d="M67.392 170.8c.386.54.687 1.12.9 1.721l-23.999-.012-.002 4.617h30.375z" style="color:#000;shape-padding:0;clip-rule:nonzero;display:inline;overflow:visible;visibility:visible;opacity:1;isolation:auto;mix-blend-mode:normal;color-interpolation:sRGB;color-interpolation-filters:linearRGB;solid-color:#000;solid-opacity:1;vector-effect:none;fill:url(#d);fill-opacity:1;fill-rule:nonzero;stroke:none;stroke-width:1.78603673;stroke-linecap:butt;stroke-linejoin:miter;stroke-miterlimit:4;stroke-dasharray:none;stroke-dashoffset:0;stroke-opacity:1;color-rendering:auto;image-rendering:auto;shape-rendering:auto;text-rendering:auto;enable-background:accumulate"/><path d="M67.343 179.395c.386.539.686 1.119.9 1.72l-24-.012-.001 4.617h30.374z" style="color:#000;shape-padding:0;clip-rule:nonzero;display:inline;overflow:visible;visibility:visible;opacity:1;isolation:auto;mix-blend-mode:normal;color-interpolation:sRGB;color-interpolation-filters:linearRGB;solid-color:#000;solid-opacity:1;vector-effect:none;fill:url(#e);fill-opacity:1;fill-rule:nonzero;stroke:none;stroke-width:1.78603673;stroke-linecap:butt;stroke-linejoin:miter;stroke-miterlimit:4;stroke-dasharray:none;stroke-dashoffset:0;stroke-opacity:1;color-rendering:auto;image-rendering:auto;shape-rendering:auto;text-rendering:auto;enable-background:accumulate"/><path d="M47.74 11.098c-.001 1.668.005 3.335-.002 5.002-.012.524-.284 1.08-.803 1.262a2.02 2.02 0 0 1-1.285.033c.026-.229.008-.467.067-.689.236-.15.662.031.811-.3.118-.332.054-.69.07-1.035v-4.273h1.143zm.157-1.377c.013.521-.632.898-1.08.627-.418-.208-.503-.827-.163-1.143.337-.368 1.002-.224 1.184.23.04.09.06.188.06.286zM51.991 15.824c-.185.024-.37-.087-.398-.28l-.09-.3c-.348.327-.777.594-1.263.638-.5.06-1.081-.022-1.415-.439-.356-.455-.363-1.187.066-1.6.45-.426 1.081-.582 1.679-.669a7.87 7.87 0 0 1 .827-.058c0-.356.031-.768-.256-1.03-.272-.232-.67-.204-.992-.112-.259.075-.463.27-.72.345-.203.057-.396-.081-.473-.264l-.166-.298a2.82 2.82 0 0 1 2.4-.702 1.584 1.584 0 0 1 1.212 1.09c.154.463.092.956.105 1.435v2.244h-.516zm-1.7-.71c.397.019.775-.165 1.045-.448.103-.062.047-.19.061-.288v-.571c-.487.031-.997.056-1.44.281a.553.553 0 0 0-.28.67c.063.27.37.36.615.357zM53.579 15.824v-4.726c.265.007.533-.014.796.013.233.076.205.353.263.545.384-.471 1.029-.753 1.631-.585.395.11.675.463.805.838.285-.642 1.03-.95 1.701-.877.542.024 1.071.35 1.27.865.243.56.153 1.179.17 1.771v2.156h-1.137c-.002-1.039.004-2.078-.003-3.117 0-.34-.194-.714-.554-.775-.408-.107-.89.114-1.001.536-.086.344-.036.702-.05 1.053v2.303h-1.142c-.002-1.04.004-2.081-.003-3.122.004-.334-.174-.715-.535-.772-.407-.097-.844.125-1.074.451v3.443H53.58z" style="fill:#00f;fill-opacity:1;stroke:none;stroke-width:.05953456"/><path d="M49.218 27.952v-4.726c.266.007.533-.014.797.013.233.076.205.353.263.545.384-.471 1.029-.753 1.631-.585.394.11.675.463.805.838.284-.642 1.03-.95 1.701-.877.541.024 1.071.35 1.27.865.243.56.152 1.179.17 1.771v2.156h-1.137c-.002-1.039.004-2.078-.003-3.117 0-.34-.194-.714-.555-.775-.407-.107-.888.114-1 .536-.086.344-.036.702-.05 1.053v2.303h-1.142c-.002-1.04.004-2.082-.003-3.122.004-.334-.174-.715-.535-.772-.407-.097-.844.125-1.074.451v3.443h-1.138zM58.95 23.153c.666-.012 1.361.281 1.715.866.28.453.387 1.007.317 1.533-.018.185-.22.188-.363.18h-2.807c.029.49.209 1.044.678 1.278.48.227 1.064.149 1.514-.114.171-.093.395-.26.583-.11.125.151.244.308.366.461-.487.58-1.278.79-2.01.773-.698-.002-1.41-.318-1.808-.906-.428-.62-.532-1.42-.407-2.151.122-.667.546-1.284 1.165-1.578a2.325 2.325 0 0 1 1.057-.232zm.023.815c-.385-.015-.785.17-.961.525-.095.17-.148.36-.177.553h2.146c.007-.415-.196-.872-.614-1.011a1.086 1.086 0 0 0-.394-.067zM61.849 27.952v-4.726c.249.002.499-.004.748.004.191.012.25.207.271.365.025.051.017.214.062.193.381-.406.928-.664 1.49-.635.533-.004 1.07.277 1.314.76.23.42.24.906.232 1.373v2.666H64.83c-.002-1.038.004-2.075-.003-3.113-.003-.341-.202-.718-.566-.779-.476-.108-.95.138-1.274.474v3.418H61.85zM68.227 23.226v4.726h-1.142v-4.726h1.142zm.157-1.377c.007.467-.51.835-.95.683-.393-.115-.622-.592-.45-.968.156-.397.685-.571 1.044-.335.214.127.36.369.356.62zM70.962 28.026c-.44.015-.921-.173-1.12-.59-.22-.422-.14-.908-.155-1.365V24.08c-.19-.008-.383.016-.57-.015-.192-.083-.122-.313-.135-.478.02-.067-.052-.214.055-.207l.705-.116c.086-.444.157-.891.253-1.333.086-.206.331-.138.507-.15h.322v1.488h1.262v.81h-1.262c.001.872-.002 1.744.002 2.615-.018.303.308.5.579.393.164-.09.402-.22.492.028l.304.493c-.342.287-.796.418-1.239.419z" style="fill:purple;fill-opacity:1;stroke:none;stroke-width:.05953456"/><path d="M56.44 39.297c-.225.023-.302-.205-.323-.383-.036-.067-.02-.323-.097-.24-.49.583-1.345.863-2.069.586-.67-.253-1.022-.965-1.115-1.637-.132-.882-.023-1.876.608-2.554.602-.664 1.737-.805 2.44-.22.152.2.109-.02.113-.145v-2.251h1.138v6.844h-.695zm-1.516-.834c.433.024.818-.236 1.073-.566v-2.119c-.41-.554-1.387-.596-1.767.013-.311.507-.295 1.138-.232 1.709.053.405.265.876.716.944.069.013.14.02.21.02zM60.28 34.498c.666-.012 1.361.28 1.715.865.28.453.387 1.008.317 1.534-.019.185-.22.188-.363.18h-2.807c.029.49.209 1.044.678 1.277.48.228 1.064.15 1.514-.113.171-.093.395-.26.583-.11.125.151.244.308.366.461-.494.588-1.299.795-2.04.773-.698-.01-1.406-.337-1.794-.93-.415-.617-.515-1.405-.39-2.127.121-.667.545-1.284 1.164-1.578a2.327 2.327 0 0 1 1.057-.232zm.023.815c-.385-.015-.785.17-.961.524-.095.171-.148.362-.177.554h2.146c.007-.416-.196-.873-.614-1.011a1.087 1.087 0 0 0-.394-.067zM64.7 39.37c-.484.022-1.006-.22-1.173-.701-.162-.442-.085-.918-.103-1.378v-1.868c-.201-.014-.414.033-.606-.033-.16-.13-.078-.36-.099-.54-.05-.151.104-.13.208-.152l.552-.09c.087-.444.158-.892.254-1.333.097-.22.365-.132.554-.15.083.026.276-.058.275.052v1.436h3.33v4.684h-1.138v-3.874h-2.192c.004.889-.01 1.778.006 2.666.009.3.358.447.61.328.189-.177.42-.117.503.116l.258.418c-.343.288-.797.419-1.24.42zm3.39-6.194c.014.51-.6.887-1.05.647-.414-.184-.54-.772-.24-1.108.281-.383.91-.335 1.16.055.082.119.132.26.13.406zM70.182 32.453v3.92c.196-.002.441.033.55-.178.411-.502.811-1.015 1.23-1.51.202-.176.482-.095.726-.114h.635c-.53.632-1.058 1.267-1.59 1.897-.111.117-.314.176-.088.292.352.458.661.948.994 1.42l.767 1.117c-.384-.006-.769.012-1.152-.01-.244-.04-.319-.305-.457-.475-.362-.532-.713-1.071-1.082-1.597-.145-.13-.356-.068-.533-.083v2.165h-1.138v-6.844h1.138z" style="fill:red;fill-opacity:1;stroke:none;stroke-width:.05953456"/><path d="M97.636 25.683a17.923 17.923 0 0 1-3.562 3.514L83.83 0 72.452 3.47l15.072 44.895Z" style="color:#000;shape-padding:0;clip-rule:nonzero;display:inline;overflow:visible;visibility:visible;opacity:1;isolation:auto;mix-blend-mode:normal;color-interpolation:sRGB;color-interpolation-filters:linearRGB;solid-color:#000;solid-opacity:1;vector-effect:none;fill:url(#f);fill-opacity:1;fill-rule:nonzero;stroke:none;stroke-width:1.78603673;stroke-linecap:butt;stroke-linejoin:miter;stroke-miterlimit:4;stroke-dasharray:none;stroke-dashoffset:0;stroke-opacity:1;color-rendering:auto;image-rendering:auto;shape-rendering:auto;text-rendering:auto;enable-background:accumulate"/><path d="m84.085 13.644-1.868-.995-1.041 1.954-.745-.404 1.039-1.949-1.962-1.048.392-.75c.656.348 1.311.698 1.966 1.047l1.003-1.876.748.398-1.003 1.876 1.867.99-.396.757zM85.272 18.721c-.121-.042-.481-.242-.24-.017.576.716.634 1.867-.017 2.557-.732.798-2.085.925-2.94.25-.754-.586-1.12-1.63-.913-2.559.172-.796.87-1.375 1.631-1.584.804-.25 1.649-.03 2.408.264.765.278 1.534.544 2.296.83.355.183.394.607.512.945l.152.5-2.89-1.186zm-2.328-.258c-.475.119-.906.522-.904 1.037-.016.594.379 1.217.99 1.32.647.124 1.427-.306 1.489-1.003.065-.595-.297-1.264-.916-1.385a1.288 1.288 0 0 0-.659.03zM86.747 26.689c-.914.277-1.954.418-2.848-.001-1.146-.533-1.607-2.159-.873-3.199.574-.836 1.558-1.266 2.504-1.53.892-.246 1.908-.344 2.752.11 1.114.605 1.475 2.25.683 3.25-.538.71-1.385 1.116-2.218 1.37zm-.342-1.123c.678-.217 1.409-.479 1.851-1.07.388-.52.098-1.37-.533-1.534-.755-.212-1.542.022-2.267.247-.627.215-1.303.483-1.685 1.056-.345.536-.01 1.345.612 1.484.668.18 1.376.007 2.022-.183z" style="fill:#fff;fill-opacity:1;stroke:none;stroke-width:.05953456"/><path d="M21.42 22.681a17.921 17.921 0 0 1 3.561-3.514l10.244 29.197 11.379-3.468L31.532 0Z" style="color:#000;shape-padding:0;clip-rule:nonzero;display:inline;overflow:visible;visibility:visible;opacity:1;isolation:auto;mix-blend-mode:normal;color-interpolation:sRGB;color-interpolation-filters:linearRGB;solid-color:#000;solid-opacity:1;vector-effect:none;fill:url(#g);fill-opacity:1;fill-rule:nonzero;stroke:none;stroke-width:1.78603673;stroke-linecap:butt;stroke-linejoin:miter;stroke-miterlimit:4;stroke-dasharray:none;stroke-dashoffset:0;stroke-opacity:1;color-rendering:auto;image-rendering:auto;shape-rendering:auto;text-rendering:auto;enable-background:accumulate"/><path d="m32.475 21.952 1.31 4.296-.807.246-1.31-4.296.807-.246zm1.613 1.122c.381-.138.821.142.887.535.092.403-.24.83-.654.835-.401.026-.749-.349-.724-.744a.673.673 0 0 1 .491-.626zm-3.137.956c.382-.138.822.142.887.535.092.403-.24.83-.654.835-.401.027-.749-.349-.724-.744a.673.673 0 0 1 .491-.626zM35.957 30.88c-.12-.042-.48-.242-.239-.017.575.716.633 1.867-.017 2.557-.733.797-2.086.925-2.941.249-.753-.585-1.12-1.63-.913-2.558.172-.796.87-1.375 1.632-1.585.804-.25 1.648-.028 2.407.265.765.278 1.535.544 2.297.83.354.182.394.607.511.945l.152.499-2.889-1.185zm-2.327-.258c-.475.118-.906.522-.904 1.037-.016.594.378 1.216.99 1.32.647.124 1.427-.306 1.488-1.003.065-.596-.297-1.264-.915-1.385a1.289 1.289 0 0 0-.66.03zM37.433 38.848c-.915.277-1.954.418-2.849-.001-1.146-.533-1.606-2.16-.872-3.199.574-.837 1.557-1.266 2.504-1.53.892-.246 1.908-.344 2.752.11 1.113.604 1.475 2.25.683 3.25-.539.71-1.385 1.115-2.218 1.37zm-.343-1.124c.678-.216 1.41-.478 1.852-1.069.388-.52.097-1.37-.533-1.535-.756-.211-1.543.022-2.267.248-.627.215-1.304.483-1.686 1.055-.344.537-.01 1.346.613 1.485.668.18 1.375.006 2.021-.184z" style="fill:#fff;fill-opacity:1;stroke:none;stroke-width:.05953456"/></svg>
