<svg xmlns="http://www.w3.org/2000/svg" xmlns:xlink="http://www.w3.org/1999/xlink" width="450" height="846.808" viewBox="0 0 119.062 224.051"><defs><linearGradient id="a"><stop offset="0" style="stop-color:#b3ff80;stop-opacity:1"/><stop offset="1" style="stop-color:teal;stop-opacity:1"/></linearGradient><linearGradient id="b"><stop offset="0" style="stop-color:#ffb380;stop-opacity:1"/><stop offset="1" style="stop-color:#f0f;stop-opacity:1"/></linearGradient><linearGradient id="c"><stop offset="0" style="stop-color:#0f0;stop-opacity:1"/><stop offset="1" style="stop-color:green;stop-opacity:1"/></linearGradient><linearGradient xlink:href="#c" id="f" x1="-11160.672" x2="-10156.52" y1="9514.147" y2="9514.147" gradientTransform="matrix(.11433 .00006 -.00006 .11433 1444.21 -422.513)" gradientUnits="userSpaceOnUse"/><linearGradient xlink:href="#a" id="d" x1="-11160.672" x2="-10156.52" y1="9514.147" y2="9514.147" gradientTransform="matrix(.02272 .07455 -.07455 .02272 1051.711 617.516)" gradientUnits="userSpaceOnUse"/><linearGradient xlink:href="#b" id="e" x1="-11160.672" x2="-10156.52" y1="9514.147" y2="9514.147" gradientTransform="scale(-.07793) rotate(73.048 1312.62 11538.864)" gradientUnits="userSpaceOnUse"/></defs><path d="M116.095 55.631a17.923 17.923 0 0 1-3.561 3.515L94.504 0 83.127 3.469l22.857 74.843Z" style="color:#000;shape-padding:0;clip-rule:nonzero;display:inline;overflow:visible;visibility:visible;opacity:1;isolation:auto;mix-blend-mode:normal;color-interpolation:sRGB;color-interpolation-filters:linearRGB;solid-color:#000;solid-opacity:1;vector-effect:none;fill:url(#d);fill-opacity:1;fill-rule:nonzero;stroke:none;stroke-width:1.7860378;stroke-linecap:butt;stroke-linejoin:miter;stroke-miterlimit:4;stroke-dasharray:none;stroke-dashoffset:0;stroke-opacity:1;color-rendering:auto;image-rendering:auto;shape-rendering:auto;text-rendering:auto;enable-background:accumulate"/><path d="M2.967 22.681a17.922 17.922 0 0 1 3.562-3.514l18.029 59.145 11.378-3.468L13.08 0Z" style="color:#000;shape-padding:0;clip-rule:nonzero;display:inline;overflow:visible;visibility:visible;opacity:1;isolation:auto;mix-blend-mode:normal;color-interpolation:sRGB;color-interpolation-filters:linearRGB;solid-color:#000;solid-opacity:1;vector-effect:none;fill:url(#e);fill-opacity:1;fill-rule:nonzero;stroke:none;stroke-width:1.7860378;stroke-linecap:butt;stroke-linejoin:miter;stroke-miterlimit:4;stroke-dasharray:none;stroke-dashoffset:0;stroke-opacity:1;color-rendering:auto;image-rendering:auto;shape-rendering:auto;text-rendering:auto;enable-background:accumulate"/><path d="M95.404 5.318v25.868h4.301v-8.182c.672.054 1.467-.177 2.014.314 1.396 1.987 2.721 4.026 4.09 6.034.524.642.808 1.646 1.73 1.794 1.447.085 2.901.018 4.352.04l-2.899-4.22c-1.257-1.785-2.426-3.637-3.758-5.366-.851-.44-.087-.664.33-1.106 2.015-2.38 4.007-4.78 6.012-7.168h-2.4c-.92.072-1.979-.237-2.739.426-1.585 1.873-3.098 3.812-4.654 5.71-.41.798-1.334.667-2.078.67V5.319h-4.3zm45.852.975a4.374 4.374 0 0 0-1.504.256c-1.23.415-2.05 1.626-2.193 2.888.316.056.632.11.949.167.463.156.918-.167.982-.637.278-.838 1.25-1.27 2.082-1.072.693.1 1.167.774 1.153 1.453.054 1.102-.613 2.058-1.34 2.82-1.21 1.255-2.458 2.472-3.684 3.71-.402.348-.325.907-.33 1.382h7.441v-.924c.042-.323-.092-.703-.447-.777-.463-.05-.932-.012-1.398-.024-.99.022-2.003-.093-2.963.217l1.635-1.666c.792-.83 1.658-1.603 2.302-2.559.706-1.019.94-2.414.377-3.55-.537-1.145-1.848-1.709-3.062-1.684zm11.738 10.762a15.053 15.053 0 0 0-2.47 8.136c-.097 3.108.75 6.242 2.47 8.838.221-.134.443-.267.664-.402.334-.182.78-.452.594-.904-1.155-2.207-1.82-4.682-1.807-7.18a15.115 15.115 0 0 1 1.164-5.805c.151-.633.84-1.198.608-1.873-.34-.354-.818-.537-1.223-.81zm107.842.082a.488.488 0 0 0-.19.117c-.362.263-1.07.444-.964 1.017 1.168 2.235 1.848 4.742 1.836 7.272.013 2.037-.441 4.047-1.192 5.934-.192.575-1.01 1.353-.402 1.904.394.14.975.937 1.273.336.833-1.395 1.488-2.91 1.846-4.5.826-3.67.43-7.663-1.37-10.994-.274-.287-.434-1.2-.837-1.086zm-104.918.674v13.375h2.223v-4.23c.347.027.76-.093 1.043.161.721 1.027 1.406 2.083 2.113 3.121.271.333.418.851.894.928.748.044 1.5.008 2.25.02l-1.498-2.182c-.65-.923-1.254-1.88-1.943-2.774-.44-.227-.044-.344.172-.572 1.041-1.23 2.07-2.472 3.107-3.707h-1.242c-.475.037-1.023-.122-1.416.22-.82.97-1.602 1.972-2.406 2.954-.212.412-.69.344-1.074.346v-7.66h-2.223zm14.23 0v13.375h2.223V17.81h-2.223zm-3.253.035c-.6-.063-1.24.276-1.47.857-.334.735.112 1.665.88 1.89.86.297 1.872-.421 1.857-1.333a1.423 1.423 0 0 0-.697-1.213 1.268 1.268 0 0 0-.57-.201zm90.144 0c-.6-.063-1.24.276-1.469.857-.334.735.111 1.665.88 1.89.86.297 1.871-.421 1.857-1.333a1.42 1.42 0 0 0-.696-1.213 1.276 1.276 0 0 0-.572-.201zm-30.592 3.935a3.05 3.05 0 0 0-.379.037c-.927.159-1.579.948-2 1.735-.034-.283-.07-.565-.103-.848-.023-.298-.086-.703-.453-.736-.51-.037-1.02-.01-1.532-.018v9.235h2.223V25.54c.091-.322.27-.63.465-.904.379-.535 1.059-.777 1.697-.694.337.012.91.268 1.024-.218l.144-1.666c-.316-.222-.703-.29-1.086-.278zm-19.48.002a3.592 3.592 0 0 0-2.112.85c-.226.04-.616.875-.642.37-.107-.365-.062-.887-.506-1.026-.515-.055-1.038-.012-1.557-.026v12.25h2.223v-3.69c.128-.077.588.48.906.546a3.772 3.772 0 0 0 3.307-.244c1.462-.888 2.077-2.675 2.06-4.317.002-1.467-.327-3.095-1.515-4.07-.613-.493-1.393-.692-2.164-.643zm42.613.006c-.316 0-.634.026-.945.082-1.23.185-2.444 1.053-2.666 2.334-.22 1.065.19 2.248 1.117 2.852.647.223-.099.366-.315.652-.687.575-.786 1.796-.015 2.346.523.204-.167.27-.356.465-.628.36-.987 1.118-.818 1.83.21 1.028 1.234 1.61 2.174 1.853 1.47.363 3.098.346 4.484-.318 1.126-.512 2.054-1.69 1.887-2.977-.056-.87-.808-1.522-1.621-1.71-1.218-.35-2.5-.19-3.735-.403a.578.578 0 0 1-.208-1.129c.996.19 2.067.124 2.986-.328 1.05-.474 1.751-1.619 1.633-2.774.102-.267-.379-.822-.02-.86.362-.101.812-.052 1.076-.356.127-.342.042-.722.067-1.082h-2.625a4.787 4.787 0 0 0-2.1-.477zm-17.943.016a4.543 4.543 0 0 0-1.668.36c-.934.378-1.627 1.302-1.656 2.32-.065.79.25 1.621.908 2.09.837.617 1.9.76 2.841 1.154.42.166.873.529.786 1.035-.048.64-.725.996-1.307 1.004-.647.062-1.283-.148-1.824-.495-.294-.233-.76-.366-1.057-.058-.239.304-.411.655-.62.98.767.678 1.78 1.022 2.788 1.117 1.22.092 2.588-.159 3.43-1.119.633-.75.858-1.857.523-2.785-.302-.762-1.056-1.2-1.793-1.463-.77-.326-1.66-.41-2.324-.957-.443-.388-.234-1.157.28-1.377.728-.337 1.594-.184 2.288.166.33.185.869.423 1.098-.025l.504-.8c-.421-.415-.949-.71-1.504-.903a5.083 5.083 0 0 0-1.693-.244zm-52.963.002c-1.251-.015-2.544.42-3.404 1.355-1.098 1.195-1.344 2.942-1.086 4.494.22 1.38 1.093 2.685 2.4 3.244 1.219.533 2.653.56 3.9.108 1.286-.458 2.245-1.617 2.56-2.932.348-1.465.239-3.115-.593-4.404-.803-1.253-2.32-1.894-3.777-1.865zm37.64 0c-.709-.002-1.426.133-2.062.455-1.21.574-2.04 1.78-2.277 3.082-.243 1.41-.048 2.953.763 4.158.76 1.16 2.141 1.799 3.506 1.816 1.449.044 3.021-.36 3.986-1.51-.239-.299-.47-.605-.714-.9-.368-.292-.807.032-1.141.213-.88.514-2.02.667-2.957.223-.918-.457-1.27-1.538-1.326-2.496h5.486c.278.015.672.01.71-.352.135-1.027-.072-2.111-.62-2.996-.692-1.143-2.052-1.716-3.354-1.693zm24.225 0c-.71-.002-1.428.133-2.064.455-1.21.574-2.037 1.78-2.276 3.082-.242 1.41-.049 2.953.762 4.158.759 1.16 2.14 1.799 3.506 1.816 1.449.044 3.023-.36 3.988-1.51-.24-.299-.473-.605-.717-.9-.367-.292-.804.032-1.138.213-.88.514-2.02.667-2.957.223-.918-.457-1.27-1.538-1.327-2.496h5.487c.278.015.672.01.709-.352.136-1.027-.072-2.111-.62-2.996-.692-1.143-2.051-1.716-3.353-1.693zm-74.916.144v9.235h2.232V21.95h-2.232zm90.147 0v9.235H258V21.95h-2.23zm-6.063 1.397c.204.012.404.048.588.1.74.211 1.06 1.078.88 1.779-.123.737-.889 1.169-1.595 1.117a2.23 2.23 0 0 1-.72-.108c-.892-.281-1.146-1.45-.727-2.209.319-.55.962-.717 1.574-.68zm-33.348.052c.262 0 .527.036.772.131.818.271 1.214 1.164 1.201 1.975h-4.195c.057-.375.16-.747.345-1.08.345-.695 1.126-1.054 1.877-1.026zm24.225 0c.261 0 .525.036.77.131.818.271 1.214 1.164 1.2 1.975h-4.193c.057-.375.161-.747.346-1.08.344-.695 1.125-1.054 1.877-1.026zm-61.828.106c.239.008.476.048.697.113.844.241 1.282 1.12 1.4 1.93.138 1.027.144 2.144-.35 3.084-.338.67-1.102 1.007-1.83.978a2.55 2.55 0 0 1-.964-.17c-.814-.31-1.18-1.207-1.277-2.013-.108-1.033-.102-2.17.47-3.078.4-.622 1.137-.87 1.854-.844zm27.715.03c.428-.005.873.129 1.18.439.665.726.699 1.786.699 2.718-.022.99-.248 2.155-1.176 2.696-.915.465-2.183.26-2.801-.598v-4.11c.452-.676 1.253-1.185 2.098-1.146zm-90.489 2.653c-.5.01-.996.157-1.414.436-.733.466-1.174 1.329-1.158 2.193 0 .08.004.16.01.24.046.88.6 1.71 1.396 2.085a2.718 2.718 0 0 0 2.428 0c.852-.405 1.438-1.309 1.44-2.254a2.616 2.616 0 0 0-1.272-2.315 2.602 2.602 0 0 0-1.43-.385zm8.297 0c-.5.01-.998.157-1.416.436-.734.466-1.173 1.329-1.156 2.193 0 .08.002.16.008.24.046.88.601 1.71 1.398 2.085a2.714 2.714 0 0 0 2.426 0c.852-.405 1.44-1.309 1.441-2.254a2.618 2.618 0 0 0-1.273-2.315 2.596 2.596 0 0 0-1.428-.385zm8.295 0c-.5.01-.996.157-1.414.436-.734.466-1.175 1.329-1.158 2.193 0 .08.004.16.01.24.046.88.599 1.71 1.396 2.085a2.718 2.718 0 0 0 2.428 0c.852-.405 1.437-1.309 1.44-2.254a2.616 2.616 0 0 0-1.272-2.315 2.602 2.602 0 0 0-1.43-.385zm53.526 2.422a1.354 1.354 0 0 0-.774.143c-.45.218-.738.709-.726 1.207 0 .237.05.482.173.687.286.513.932.762 1.495.63.47-.106.879-.468 1.007-.936.15-.51-.029-1.099-.449-1.428a1.356 1.356 0 0 0-.726-.303zm4.289 0a1.354 1.354 0 0 0-.774.143c-.45.218-.738.709-.726 1.207 0 .237.05.482.173.687.286.513.932.762 1.495.63.47-.106.88-.468 1.007-.936.15-.51-.029-1.099-.449-1.428a1.356 1.356 0 0 0-.726-.303zm4.29 0a1.36 1.36 0 0 0-.775.143c-.45.218-.738.709-.726 1.207 0 .237.05.482.174.687.285.513.933.762 1.496.63.47-.106.877-.468 1.006-.936a1.362 1.362 0 0 0-1.174-1.73zm53.632 1.963c.867.11 1.746.076 2.613.192.475.064 1.16.239 1.166.834a.955.955 0 0 1-.258.66c-.685.61-1.684.605-2.55.578-.625-.058-1.435-.142-1.733-.785-.258-.617.23-1.219.762-1.479z" style="fill:#00f;fill-opacity:1;stroke:none;stroke-width:.22501262" transform="scale(.26458)"/><path d="M108.893 48.172v25.867h4.298V61.123c1.113-1.15 2.68-2.028 4.325-1.87 1.421-.004 2.493 1.294 2.605 2.64.076 4.047.015 8.097.035 12.146h4.3v-5.51c-.028-2.303.069-4.61-.065-6.91-.151-2.13-1.266-4.312-3.303-5.185-2.647-1.198-5.904-.369-7.897 1.677v-9.94h-4.298zm46.87.976c-.51 0-1.023.08-1.503.254-1.23.416-2.05 1.627-2.194 2.889l.95.168c.463.157.917-.168.982-.639.278-.837 1.25-1.27 2.082-1.072.693.101 1.167.774 1.152 1.453.054 1.103-.612 2.059-1.34 2.82-1.209 1.255-2.458 2.472-3.683 3.711-.402.348-.325.906-.33 1.381h7.441v-.924c.042-.323-.093-.703-.447-.777-.463-.05-.932-.012-1.398-.023-.99.022-2.003-.094-2.963.216l1.634-1.666c.793-.83 1.658-1.603 2.303-2.558.706-1.02.94-2.415.377-3.55-.537-1.145-1.848-1.708-3.062-1.683zm11.739 10.76a15.06 15.06 0 0 0-2.47 8.139c-.097 3.107.75 6.242 2.47 8.838l.664-.405c.333-.182.78-.451.594-.904-1.155-2.206-1.82-4.682-1.807-7.18a15.111 15.111 0 0 1 1.164-5.804c.151-.634.84-1.198.608-1.873-.341-.354-.818-.538-1.223-.81zm125.387 0-.662.399c-.336.182-.804.443-.604.902 1.17 2.203 1.81 4.69 1.807 7.187a15.24 15.24 0 0 1-1.114 5.696c-.16.648-.766 1.195-.705 1.875.176.348.591.461.893.681.278.249.505.257.629-.15 1.555-2.494 2.297-5.451 2.22-8.383a14.998 14.998 0 0 0-2.464-8.207zm-102.705.756V74.04h2.224v-4.23c.347.028.758-.092 1.041.162.722 1.027 1.408 2.083 2.115 3.12.272.333.416.852.893.929.748.044 1.5.008 2.25.02l-1.496-2.18c-.65-.924-1.255-1.882-1.943-2.776-.44-.227-.047-.344.17-.572 1.041-1.23 2.072-2.473 3.109-3.707h-1.242c-.475.037-1.023-.122-1.416.22-.82.969-1.602 1.972-2.407 2.954-.212.412-.689.343-1.074.345v-7.66h-2.224zm-19.758.002v13.373h2.222v-6.678c.616-.635 1.497-1.11 2.405-.943.75.078 1.19.84 1.19 1.539.013 2.027.001 4.055.005 6.082h2.225v-4.254c-.032-1.146.136-2.344-.352-3.422-.417-1.025-1.482-1.686-2.576-1.697-1.082-.089-2.134.39-2.897 1.139v-5.139h-2.222zm118.222.035c-.5.056-.975.371-1.166.856-.334.735.111 1.666.88 1.892.86.297 1.871-.424 1.857-1.336.006-.491-.278-.962-.698-1.21a1.317 1.317 0 0 0-.873-.202zm-86.652 1.278c-.343.023-.824-.11-.99.292-.188.863-.325 1.739-.494 2.606l-1.377.227c-.21-.012-.068.273-.11.404.027.321-.11.773.266.933.365.061.741.015 1.111.03v3.894c.031.893-.126 1.841.303 2.666.39.814 1.33 1.182 2.191 1.153.865-.002 1.75-.257 2.42-.819l-.593-.963c-.177-.484-.642-.23-.963-.054-.528.21-1.165-.176-1.131-.768-.007-1.703 0-3.406-.002-5.11h2.465v-1.583h-2.465v-2.908h-.63zm56.361 2.656a3.02 3.02 0 0 0-.377.037c-.927.158-1.58.95-2.001 1.736-.035-.283-.068-.566-.102-.85-.023-.297-.086-.703-.453-.736-.51-.036-1.023-.009-1.533-.017v9.234h2.224v-5.644c.091-.323.27-.63.465-.905.38-.535 1.059-.777 1.697-.693.337.012.91.268 1.024-.219l.144-1.664c-.316-.221-.705-.292-1.088-.28zm-19.478.002a3.598 3.598 0 0 0-2.113.85c-.227.039-.615.874-.641.37-.107-.365-.062-.888-.506-1.027-.515-.054-1.038-.012-1.556-.025v12.25h2.222v-3.69c.128-.077.587.48.904.545a3.772 3.772 0 0 0 3.307-.244c1.462-.887 2.08-2.675 2.063-4.316 0-1.468-.33-3.095-1.518-4.07-.612-.493-1.391-.692-2.162-.643zm42.611.006c-.316 0-.632.026-.943.082-1.23.184-2.445 1.052-2.668 2.334-.22 1.064.192 2.248 1.119 2.851.647.223-.1.367-.316.653-.688.575-.787 1.796-.016 2.345.523.204-.167.27-.355.465-.628.36-.986 1.118-.817 1.83.21 1.028 1.232 1.61 2.172 1.854 1.47.363 3.098.346 4.484-.319 1.126-.511 2.055-1.69 1.887-2.976-.056-.87-.805-1.523-1.619-1.711-1.217-.349-2.499-.19-3.734-.403a.577.577 0 0 1-.211-1.127c.996.191 2.069.123 2.988-.33 1.05-.473 1.75-1.616 1.63-2.771.103-.268-.377-.824-.019-.863.362-.1.812-.05 1.076-.354.127-.341.043-.722.067-1.082h-2.623a4.799 4.799 0 0 0-2.102-.478zm-17.941.017a4.55 4.55 0 0 0-1.67.358c-.934.379-1.626 1.303-1.656 2.32-.065.791.25 1.622.908 2.09.837.617 1.9.761 2.842 1.154.42.166.874.531.787 1.037-.048.64-.725.995-1.307 1.002-.647.063-1.283-.147-1.824-.494-.294-.234-.762-.366-1.059-.059-.239.304-.41.658-.62.983.767.678 1.783 1.02 2.79 1.115 1.22.091 2.586-.16 3.428-1.12.633-.75.858-1.856.523-2.784-.302-.762-1.055-1.201-1.793-1.463-.77-.327-1.66-.411-2.324-.957-.442-.388-.232-1.158.281-1.377.729-.337 1.593-.184 2.288.166.328.184.868.422 1.097-.026l.504-.8c-.421-.414-.949-.709-1.504-.903a5.07 5.07 0 0 0-1.691-.242zm-79.03.002c-.709-.001-1.428.131-2.064.453-1.21.574-2.037 1.782-2.275 3.084-.243 1.411-.05 2.951.761 4.156.76 1.16 2.141 1.8 3.506 1.817 1.449.043 3.023-.361 3.989-1.51-.24-.3-.473-.605-.717-.9-.368-.293-.805.033-1.139.215-.88.514-2.02.665-2.957.22-.918-.456-1.27-1.538-1.326-2.496h5.486c.278.015.673.01.71-.351.135-1.028-.072-2.112-.62-2.996-.692-1.143-2.052-1.715-3.353-1.692zm26.065 0c-1.251-.014-2.542.42-3.402 1.356-1.098 1.194-1.346 2.94-1.088 4.492.22 1.38 1.095 2.685 2.402 3.244 1.219.533 2.65.561 3.899.11 1.285-.458 2.246-1.62 2.562-2.934.347-1.465.236-3.114-.596-4.403-.803-1.252-2.32-1.894-3.777-1.865zm37.643 0c-.71-.001-1.429.131-2.065.453-1.21.574-2.037 1.782-2.275 3.084-.243 1.411-.05 2.951.761 4.156.76 1.16 2.141 1.8 3.506 1.817 1.449.043 3.021-.361 3.987-1.51-.24-.3-.471-.605-.715-.9-.368-.293-.805.033-1.139.215-.88.514-2.021.665-2.959.22-.918-.456-1.268-1.538-1.324-2.496h5.486c.278.015.67.01.707-.351.137-1.028-.071-2.112-.619-2.996-.692-1.143-2.05-1.715-3.351-1.692zm24.224 0c-.71-.001-1.428.131-2.064.453-1.21.574-2.04 1.782-2.278 3.084-.242 1.411-.047 2.951.764 4.156.759 1.16 2.141 1.8 3.506 1.817 1.449.043 3.02-.361 3.986-1.51-.24-.3-.47-.605-.715-.9-.367-.293-.804.033-1.138.215-.88.514-2.021.665-2.96.22-.917-.456-1.269-1.538-1.325-2.496h5.486c.278.015.672.01.709-.351.136-1.028-.072-2.112-.62-2.996-.691-1.143-2.049-1.715-3.35-1.692zm15.229.143v9.234h2.232v-9.234h-2.232zm-6.06 1.396c.203.013.402.048.585.1.74.212 1.06 1.079.88 1.78-.122.736-.889 1.168-1.595 1.116-.243 0-.49-.028-.72-.107-.891-.282-1.146-1.451-.727-2.21.319-.549.965-.717 1.576-.679zm-97.056.053c.262 0 .526.036.77.13.818.272 1.214 1.166 1.201 1.977h-4.193c.057-.375.16-.748.345-1.082.345-.694 1.126-1.053 1.877-1.025zm63.707 0c.262 0 .526.036.77.13.818.272 1.214 1.166 1.201 1.977h-4.193c.057-.375.16-.748.346-1.082.344-.694 1.125-1.053 1.876-1.025zm24.225 0c.261 0 .525.036.77.13.818.272 1.214 1.166 1.2 1.977h-4.195c.058-.375.161-.748.346-1.082.344-.694 1.128-1.053 1.88-1.025zm-61.83.107c.239.009.476.047.697.112.844.24 1.284 1.12 1.403 1.93.137 1.026.143 2.144-.35 3.083-.339.67-1.105 1.008-1.832.979a2.55 2.55 0 0 1-.965-.17c-.814-.31-1.178-1.207-1.275-2.014-.108-1.033-.104-2.17.469-3.078.399-.622 1.136-.867 1.853-.842zm27.717.028c.428-.004.873.13 1.18.44.665.726.699 1.785.699 2.718-.022.99-.25 2.157-1.178 2.697-.915.465-2.18.26-2.799-.598v-4.11c.452-.678 1.254-1.186 2.098-1.147zM130.49 69.045c-.5.01-.996.155-1.414.434-.734.465-1.175 1.328-1.158 2.193 0 .08.004.16.01.24.046.879.599 1.711 1.396 2.086a2.719 2.719 0 0 0 2.428 0c.852-.404 1.437-1.31 1.44-2.256a2.613 2.613 0 0 0-1.272-2.312 2.602 2.602 0 0 0-1.43-.385zm8.297 0c-.5.01-.998.155-1.416.434-.734.465-1.173 1.328-1.156 2.193 0 .08.002.16.008.24a2.494 2.494 0 0 0 1.398 2.086 2.714 2.714 0 0 0 2.426 0c.851-.404 1.44-1.31 1.441-2.256a2.615 2.615 0 0 0-1.273-2.312 2.596 2.596 0 0 0-1.428-.385zm8.295 0c-.5.01-.996.155-1.414.434-.734.465-1.175 1.328-1.158 2.193 0 .08.003.16.01.24.046.879.599 1.711 1.396 2.086a2.719 2.719 0 0 0 2.428 0c.851-.404 1.437-1.31 1.44-2.256a2.613 2.613 0 0 0-1.272-2.312 2.602 2.602 0 0 0-1.43-.385zm70.93 2.42a1.354 1.354 0 0 0-.774.142c-.45.219-.74.711-.728 1.21 0 .237.05.48.174.685.29.523.956.77 1.527.621.456-.114.85-.47.975-.928a1.362 1.362 0 0 0-1.174-1.73zm4.289 0a1.354 1.354 0 0 0-.774.142c-.45.219-.74.711-.728 1.21 0 .237.05.48.174.685.29.523.958.77 1.529.621.456-.114.85-.47.975-.928.149-.51-.03-1.098-.45-1.427a1.356 1.356 0 0 0-.726-.303zm4.289 0a1.354 1.354 0 0 0-.774.142 1.33 1.33 0 0 0-.726 1.21c0 .237.047.48.172.685.29.523.958.77 1.529.621.456-.114.85-.47.975-.928a1.363 1.363 0 0 0-1.176-1.73zm53.63 1.963c.868.11 1.747.076 2.614.191.476.065 1.163.24 1.168.834a.962.962 0 0 1-.26.662c-.685.61-1.682.603-2.549.576-.624-.057-1.436-.142-1.734-.785-.258-.616.23-1.218.762-1.478z" style="fill:#2b00d5;fill-opacity:1;stroke:none;stroke-width:.22501262" transform="scale(.26458)"/><path d="M134.514 91.025v8.51c-.017.474.146 1.307-.432.547-2.655-2.21-6.942-1.676-9.219.834-2.385 2.561-2.798 6.32-2.299 9.652.354 2.54 1.687 5.23 4.217 6.186 2.737 1.05 5.963-.009 7.819-2.211.288-.317.23.65.365.904.081.675.372 1.535 1.22 1.448h2.63v-25.87h-4.301zm53.476.977a4.361 4.361 0 0 0-1.502.254c-1.23.415-2.052 1.626-2.195 2.889l.95.168c.462.156.919-.167.984-.637.277-.838 1.248-1.27 2.08-1.072.692.1 1.167.774 1.152 1.453.054 1.102-.613 2.058-1.34 2.82-1.21 1.255-2.458 2.472-3.683 3.71-.403.348-.325.907-.33 1.382h7.44v-.926c.043-.323-.09-.701-.444-.775-.464-.05-.935-.014-1.4-.026-.991.022-2.004-.091-2.964.219l1.637-1.666c.792-.83 1.656-1.603 2.3-2.559.707-1.019.942-2.414.38-3.55-.538-1.145-1.85-1.709-3.065-1.684zm-38.681 6.719c-2.445.138-4.846 1.119-6.635 2.802l.627 1.127c.29.69 1.02 1.212 1.787.998.971-.28 1.743-1.022 2.72-1.306 1.22-.346 2.724-.452 3.75.422 1.086.991.968 2.551.97 3.894a29.784 29.784 0 0 0-3.13.223c-2.257.325-4.64.913-6.341 2.527-1.623 1.559-1.598 4.326-.252 6.047 1.262 1.575 3.458 1.883 5.35 1.656 1.834-.164 3.459-1.172 4.773-2.41l.342 1.135c.105.728.8 1.15 1.501 1.059h1.952v-8.48c-.05-1.813.185-3.674-.399-5.427-.604-2.094-2.446-3.71-4.576-4.119a10.373 10.373 0 0 0-2.44-.148zm-18.178 3.25c1.297.013 2.609.577 3.383 1.625v8.006c-.965 1.248-2.42 2.232-4.055 2.142-.267 0-.535-.023-.797-.074-1.703-.255-2.505-2.035-2.705-3.568-.24-2.158-.299-4.541.877-6.457.718-1.15 2-1.688 3.297-1.674zm68.598.793a15.054 15.054 0 0 0-2.471 8.136c-.096 3.108.75 6.242 2.47 8.838l.665-.404c.333-.182.78-.45.593-.902-1.155-2.207-1.82-4.682-1.806-7.18a15.111 15.111 0 0 1 1.164-5.805c.15-.633.839-1.198.607-1.873-.34-.354-.818-.537-1.222-.81zm117.09 0-.663.396c-.335.183-.803.445-.603.904 1.17 2.203 1.81 4.691 1.806 7.188a15.24 15.24 0 0 1-1.113 5.695c-.16.648-.766 1.194-.705 1.873.176.348.591.463.893.684.278.248.505.256.628-.15 1.556-2.494 2.298-5.452 2.221-8.383a14.998 14.998 0 0 0-2.465-8.207zm-108.862.756v4.4c-.009.245.074.674-.225.281-1.372-1.142-3.588-.866-4.765.432-1.233 1.324-1.448 3.267-1.19 4.99.183 1.313.874 2.705 2.182 3.2 1.415.542 3.083-.007 4.043-1.145.149-.164.118.337.187.468.042.35.192.794.631.749h1.36V103.52h-2.223zm14.033 0v13.375h2.223v-4.23c.347.027.758-.093 1.04.161.723 1.027 1.409 2.081 2.116 3.12.271.332.418.852.895.929.748.044 1.5.009 2.25.02l-1.498-2.182c-.65-.923-1.255-1.881-1.944-2.775-.44-.228-.046-.343.17-.57 1.042-1.231 2.073-2.473 3.11-3.708h-1.243c-.475.037-1.023-.122-1.416.22-.82.97-1.601 1.97-2.406 2.952-.212.412-.69.346-1.074.348v-7.66h-2.223zm90.89.035c-.6-.063-1.239.274-1.468.855-.335.735.11 1.667.879 1.893.86.296 1.872-.422 1.857-1.334a1.423 1.423 0 0 0-.697-1.213 1.268 1.268 0 0 0-.57-.201zm-30.593 3.935a3.02 3.02 0 0 0-.377.037c-.927.159-1.58.948-2.002 1.735l-.101-.848c-.023-.298-.086-.703-.453-.736-.51-.037-1.023-.01-1.534-.018v9.235h2.223v-5.645c.091-.322.272-.63.467-.904.379-.535 1.059-.777 1.697-.694.337.012.91.268 1.023-.218l.145-1.666c-.316-.222-.705-.29-1.088-.278zm-19.48.002a3.592 3.592 0 0 0-2.112.85c-.226.04-.615.875-.64.37-.108-.365-.062-.887-.506-1.026-.515-.055-1.038-.012-1.557-.026v12.25h2.223v-3.69c.128-.077.586.478.904.544a3.771 3.771 0 0 0 3.307-.243c1.462-.887 2.079-2.674 2.062-4.316.001-1.467-.33-3.095-1.517-4.07-.613-.493-1.393-.692-2.164-.643zm-27.97.006c-1.263.072-2.506.579-3.43 1.45l.323.581c.15.357.528.626.924.516.502-.146.903-.527 1.409-.674.63-.179 1.406-.235 1.937.217.561.513.501 1.32.502 2.014-.54.012-1.081.045-1.617.115-1.167.168-2.4.472-3.28 1.306-.839.806-.826 2.238-.13 3.127.652.814 1.787.975 2.765.858.949-.085 1.79-.608 2.469-1.248l.176.588c.054.376.414.594.777.547h1.008v-4.385c-.026-.937.097-1.899-.205-2.805-.312-1.083-1.266-1.92-2.367-2.13a5.35 5.35 0 0 0-1.26-.077zm70.583 0c-.316 0-.632.024-.943.08-1.23.185-2.446 1.055-2.668 2.336-.22 1.065.192 2.248 1.119 2.852.647.223-.1.366-.317.652-.687.575-.786 1.796-.015 2.346.523.204-.167.27-.356.465-.628.36-.985 1.116-.816 1.828.21 1.028 1.232 1.611 2.172 1.855 1.47.363 3.098.346 4.484-.318 1.126-.512 2.054-1.69 1.887-2.977-.056-.87-.806-1.524-1.62-1.713-1.217-.348-2.498-.188-3.734-.4a.578.578 0 0 1-.21-1.129c.996.19 2.069.122 2.988-.33 1.05-.474 1.749-1.617 1.63-2.772.103-.267-.378-.822-.019-.86.362-.101.811-.052 1.076-.356.127-.342.042-.722.067-1.082h-2.624a4.797 4.797 0 0 0-2.101-.477zm-17.941.016a4.553 4.553 0 0 0-1.67.36c-.934.378-1.627 1.302-1.657 2.32-.064.79.25 1.621.909 2.09.837.617 1.9.76 2.841 1.153.42.167.875.53.787 1.036-.047.64-.726.996-1.308 1.004-.647.062-1.284-.148-1.824-.495-.295-.233-.76-.366-1.057-.058-.239.304-.411.655-.621.98.767.678 1.783 1.022 2.79 1.117 1.221.092 2.587-.159 3.429-1.119.632-.75.858-1.857.523-2.785-.302-.762-1.056-1.2-1.793-1.463-.77-.326-1.66-.41-2.324-.957-.443-.388-.232-1.157.281-1.377.728-.337 1.592-.184 2.287.166.33.185.869.423 1.098-.025l.504-.8c-.422-.415-.95-.71-1.504-.903a5.071 5.071 0 0 0-1.691-.244zm-71.155.002c-.71-.002-1.428.132-2.064.455-1.21.574-2.037 1.78-2.276 3.082-.242 1.41-.047 2.953.764 4.158.759 1.16 2.141 1.799 3.506 1.816 1.449.044 3.02-.361 3.986-1.51-.24-.299-.472-.605-.717-.9-.367-.292-.804.032-1.138.213-.88.514-2.02.667-2.957.223-.918-.457-1.27-1.538-1.326-2.496h5.486c.278.015.672.01.709-.352.136-1.027-.072-2.111-.62-2.996-.691-1.143-2.05-1.716-3.353-1.693zm55.832 0c-.71-.002-1.428.132-2.064.455-1.21.574-2.04 1.78-2.278 3.082-.242 1.41-.047 2.953.764 4.158.76 1.16 2.141 1.799 3.506 1.816 1.449.044 3.02-.361 3.986-1.51-.239-.299-.47-.605-.715-.9-.367-.292-.804.032-1.138.213-.88.514-2.021.667-2.96.223-.917-.457-1.267-1.538-1.323-2.496h5.484c.278.015.672.01.709-.352.136-1.027-.072-2.111-.62-2.996-.691-1.143-2.049-1.716-3.35-1.693zm24.223 0c-.71-.002-1.426.132-2.063.455-1.21.574-2.039 1.78-2.277 3.082-.243 1.41-.047 2.953.764 4.158.759 1.16 2.14 1.799 3.506 1.816 1.448.044 3.02-.361 3.986-1.51-.24-.299-.47-.605-.715-.9-.368-.292-.806.032-1.14.213-.88.514-2.02.667-2.958.223-.918-.457-1.27-1.538-1.326-2.496h5.487c.278.015.672.01.709-.352.136-1.027-.072-2.111-.62-2.996-.692-1.143-2.051-1.716-3.353-1.693zm15.23.144v9.235h2.233v-9.235h-2.233zm-6.06 1.397c.204.012.402.048.586.1.74.211 1.06 1.078.88 1.779-.123.736-.89 1.169-1.595 1.117-.243 0-.49-.03-.72-.11-.892-.281-1.146-1.449-.727-2.207.319-.55.964-.717 1.576-.68zm-89.18.052c.261 0 .525.036.77.131.818.271 1.214 1.164 1.2 1.975h-4.193c.058-.375.161-.747.346-1.08.344-.695 1.126-1.054 1.877-1.026zm55.832 0c.261 0 .525.036.77.131.818.271 1.214 1.164 1.2 1.975h-4.192c.057-.375.16-.747.345-1.08.344-.695 1.126-1.054 1.877-1.026zm24.225 0c.261 0 .525.036.77.131.817.271 1.213 1.164 1.2 1.975h-4.195c.057-.375.161-.747.346-1.08.344-.695 1.127-1.054 1.879-1.026zm-90.219.07c.67.008 1.35.297 1.75.839v4.14c-.498.646-1.252 1.154-2.098 1.108-.138 0-.276-.013-.412-.04-.88-.131-1.295-1.05-1.398-1.843-.124-1.116-.155-2.35.453-3.34.371-.595 1.034-.87 1.705-.863zm56.106.065c.427-.004.872.128 1.18.438.665.726.699 1.788.698 2.72-.021.99-.25 2.155-1.177 2.696-.915.465-2.18.26-2.8-.598v-4.11c.453-.676 1.254-1.185 2.099-1.146zm-109.786.026v2.158c-.052.373.157.854-.232 1.09-1.02 1.068-2.448 1.762-3.945 1.695-.924.012-2.088-.326-2.329-1.348-.317-.969.12-2.099 1.063-2.531 1.673-.85 3.603-.945 5.443-1.064zm10.192 2.628c-.5.01-.999.157-1.416.436-.734.466-1.175 1.329-1.158 2.193 0 .08.003.16.01.24.046.88.599 1.71 1.396 2.085a2.719 2.719 0 0 0 2.428 0c.851-.405 1.437-1.31 1.439-2.256a2.613 2.613 0 0 0-1.272-2.313 2.596 2.596 0 0 0-1.427-.385zm8.295 0c-.5.01-.999.157-1.416.436-.734.466-1.173 1.329-1.157 2.193 0 .08.002.16.008.24.047.88.601 1.71 1.399 2.085a2.719 2.719 0 0 0 2.427 0c.852-.405 1.438-1.31 1.44-2.256a2.613 2.613 0 0 0-1.272-2.313 2.603 2.603 0 0 0-1.43-.385zm8.297 0c-.5.01-.999.157-1.416.436-.734.466-1.175 1.329-1.159 2.193 0 .08.004.16.01.24.047.88.6 1.71 1.397 2.085a2.719 2.719 0 0 0 2.427 0c.852-.405 1.438-1.31 1.44-2.256a2.613 2.613 0 0 0-1.272-2.313 2.596 2.596 0 0 0-1.427-.385zm57.19 1.055v1.115c-.026.193.08.44-.12.563-.528.552-1.265.911-2.04.877-.477.006-1.078-.169-1.202-.697-.164-.501.06-1.085.548-1.31.865-.439 1.863-.486 2.815-.548zm5.44 1.365a1.355 1.355 0 0 0-.773.145c-.45.218-.74.709-.729 1.207.001.237.05.48.174.685.291.524.957.773 1.528.624.456-.115.849-.473.974-.93a1.362 1.362 0 0 0-1.174-1.73zm4.29 0a1.355 1.355 0 0 0-.774.145c-.45.218-.74.709-.728 1.207 0 .237.05.48.173.685.291.524.96.773 1.53.624.456-.115.849-.473.974-.93a1.363 1.363 0 0 0-1.176-1.73zm4.289 0a1.355 1.355 0 0 0-.774.145c-.45.218-.738.709-.726 1.207 0 .237.047.48.171.685.291.524.96.773 1.53.624.456-.115.849-.473.974-.93a1.363 1.363 0 0 0-1.175-1.73zm53.63 1.965c.868.11 1.747.076 2.614.192.475.064 1.162.239 1.168.834a.957.957 0 0 1-.26.66c-.686.61-1.682.605-2.549.578-.624-.058-1.436-.142-1.734-.785-.258-.617.23-1.219.761-1.479z" style="fill:#50a;fill-opacity:1;stroke:none;stroke-width:.22501262" transform="scale(.26458)"/><path d="M161.488 176.734v8.51c-.017.474.147 1.305-.431.545-2.656-2.21-6.943-1.674-9.22.836-2.384 2.561-2.797 6.318-2.298 9.65.353 2.54 1.687 5.23 4.217 6.186 2.736 1.05 5.964-.009 7.82-2.211.288-.317.229.65.363.904.082.675.372 1.537 1.221 1.45h2.63v-25.87h-4.302zm35.797.977a4.36 4.36 0 0 0-1.502.254c-1.23.415-2.052 1.626-2.195 2.889l.95.167c.462.157.919-.168.983-.638.278-.838 1.25-1.268 2.08-1.07.693.1 1.168.774 1.153 1.453.054 1.102-.613 2.058-1.34 2.82-1.21 1.255-2.458 2.472-3.684 3.71-.402.348-.324.905-.33 1.38h7.442v-.924c.042-.323-.091-.703-.446-.777-.463-.05-.934-.012-1.4-.024-.99.022-2.003-.093-2.963.217l1.635-1.664c.792-.83 1.658-1.605 2.303-2.56.706-1.02.941-2.415.379-3.551-.538-1.145-1.85-1.707-3.065-1.682zm-39.178 9.969c1.298.013 2.607.575 3.381 1.623v8.008c-.964 1.248-2.42 2.23-4.054 2.14-.267 0-.535-.023-.797-.074-1.703-.255-2.505-2.034-2.705-3.566-.24-2.158-.299-4.541.877-6.457.717-1.15 2.001-1.688 3.298-1.674zm50.916.793a15.053 15.053 0 0 0-2.47 8.136c-.096 3.108.75 6.242 2.47 8.838l.665-.404c.333-.182.78-.452.593-.904-1.155-2.207-1.82-4.682-1.806-7.18a15.102 15.102 0 0 1 1.164-5.803c.15-.633.839-1.2.607-1.875-.34-.354-.818-.535-1.223-.808zm110.797 0-.662.396c-.335.183-.803.443-.603.902 1.17 2.203 1.81 4.691 1.806 7.188a15.245 15.245 0 0 1-1.113 5.697c-.16.648-.766 1.194-.705 1.873.176.348.59.461.89.682.28.248.506.258.63-.149 1.555-2.493 2.299-5.451 2.222-8.382a14.998 14.998 0 0 0-2.465-8.207zm-102.568.756v4.398c-.009.245.074.676-.225.283-1.372-1.142-3.588-.866-4.765.432-1.234 1.324-1.448 3.267-1.19 4.99.183 1.313.872 2.703 2.18 3.197 1.415.543 3.085-.004 4.045-1.142.149-.164.118.335.187.467.042.349.192.795.631.75h1.36v-13.375h-2.223zm22.984.035c-.5.055-.977.371-1.168.855-.334.735.111 1.667.88 1.893.86.296 1.871-.422 1.857-1.334a1.42 1.42 0 0 0-.696-1.213 1.317 1.317 0 0 0-.873-.201zm75.344 0c-.5.055-.977.371-1.168.855-.335.735.113 1.667.881 1.893.86.296 1.87-.422 1.855-1.334a1.42 1.42 0 0 0-.695-1.213 1.317 1.317 0 0 0-.873-.201zm-30.29 3.933a3.05 3.05 0 0 0-.38.037c-.927.159-1.579.95-2 1.737l-.101-.85c-.023-.298-.086-.701-.454-.734-.509-.037-1.022-.012-1.533-.02v9.237h2.223v-5.645c.091-.322.272-.63.467-.904.379-.535 1.057-.78 1.695-.696.337.012.912.268 1.025-.218l.143-1.664c-.316-.222-.704-.292-1.086-.28zm-19.481.002a3.594 3.594 0 0 0-2.112.852c-.227.04-.617.875-.642.37-.108-.365-.062-.89-.506-1.028-.515-.055-1.038-.012-1.557-.026v12.25h2.225v-3.69c.127-.077.586.48.904.546a3.772 3.772 0 0 0 3.307-.244c1.462-.888 2.079-2.673 2.062-4.315.001-1.467-.33-3.095-1.517-4.07-.613-.493-1.393-.694-2.164-.645zm42.613.008a5.34 5.34 0 0 0-.945.08c-1.23.185-2.444 1.053-2.666 2.334-.22 1.065.192 2.25 1.119 2.854.647.223-.1.364-.317.65-.687.575-.786 1.796-.015 2.346.523.204-.167.272-.356.466-.628.36-.987 1.117-.818 1.829.21 1.028 1.234 1.61 2.174 1.853 1.47.363 3.097.348 4.484-.316 1.126-.512 2.054-1.69 1.887-2.977-.056-.87-.808-1.524-1.621-1.713-1.218-.348-2.5-.19-3.735-.402a.577.577 0 0 1-.209-1.127c.996.19 2.07.122 2.989-.33 1.05-.474 1.749-1.617 1.63-2.772.102-.267-.378-.822-.02-.86.363-.101.812-.052 1.077-.356.127-.342.042-.723.066-1.082h-2.625a4.789 4.789 0 0 0-2.1-.477zm-74.195.016a4.55 4.55 0 0 0-1.67.357c-.934.38-1.627 1.303-1.657 2.32-.064.792.253 1.622.91 2.09.838.618 1.899.762 2.84 1.155.42.166.875.53.787 1.037-.047.64-.724.994-1.306 1.002-.647.062-1.284-.148-1.824-.495-.295-.233-.763-.366-1.059-.058-.239.304-.411.657-.621.982.767.678 1.783 1.022 2.791 1.117 1.22.092 2.586-.16 3.428-1.12.632-.751.858-1.858.523-2.786-.302-.762-1.054-1.2-1.79-1.463-.772-.326-1.663-.409-2.327-.955-.443-.388-.232-1.157.281-1.377.729-.337 1.593-.186 2.287.164.33.185.869.423 1.098-.025l.504-.8c-.421-.415-.947-.71-1.502-.903a5.082 5.082 0 0 0-1.693-.242zm56.252 0a4.54 4.54 0 0 0-1.668.357c-.934.38-1.627 1.303-1.657 2.32-.064.792.25 1.622.909 2.09.837.618 1.9.762 2.841 1.155.42.166.873.53.785 1.037-.047.64-.724.994-1.306 1.002-.647.062-1.284-.148-1.824-.495-.295-.233-.76-.366-1.057-.058-.239.304-.411.657-.621.982.767.678 1.781 1.022 2.789 1.117 1.22.092 2.587-.16 3.43-1.12.632-.751.858-1.858.523-2.786-.302-.762-1.056-1.2-1.793-1.463-.77-.326-1.66-.409-2.324-.955-.443-.388-.232-1.157.281-1.377.728-.337 1.592-.186 2.287.164.329.185.869.423 1.098-.025l.504-.8c-.422-.415-.95-.71-1.504-.903a5.082 5.082 0 0 0-1.693-.242zm-64.86.002c-.71-.002-1.428.13-2.064.453-1.21.574-2.037 1.782-2.276 3.084-.242 1.41-.047 2.95.764 4.156.759 1.16 2.141 1.799 3.506 1.816 1.449.044 3.02-.359 3.986-1.507-.24-.3-.473-.608-.717-.903-.367-.292-.804.034-1.138.215-.88.514-2.02.667-2.957.223-.918-.457-1.27-1.54-1.327-2.498h5.487c.278.015.672.01.709-.352.136-1.027-.072-2.111-.62-2.996-.692-1.143-2.05-1.714-3.353-1.691zm49.54 0c-.71-.002-1.429.13-2.065.453-1.21.574-2.04 1.782-2.278 3.084-.242 1.41-.047 2.95.764 4.156.76 1.16 2.141 1.799 3.506 1.816 1.449.044 3.02-.359 3.986-1.507-.239-.3-.47-.608-.715-.903-.367-.292-.804.034-1.138.215-.88.514-2.021.667-2.96.223-.917-.457-1.269-1.54-1.325-2.498h5.486c.278.015.672.01.709-.352.136-1.027-.072-2.111-.62-2.996-.691-1.143-2.049-1.714-3.35-1.691zm24.222 0c-.71-.002-1.428.13-2.065.453-1.21.574-2.037 1.782-2.275 3.084-.243 1.41-.047 2.95.764 4.156.759 1.16 2.14 1.799 3.506 1.816 1.448.044 3.02-.359 3.986-1.507-.24-.3-.473-.608-.717-.903-.368-.292-.804.034-1.139.215-.879.514-2.019.667-2.957.223-.918-.457-1.27-1.54-1.326-2.498h5.487c.278.015.672.01.709-.352.136-1.027-.072-2.111-.62-2.996-.692-1.143-2.051-1.714-3.353-1.691zm-60.113.142v9.237h2.232v-9.237h-2.232zm75.343 0v9.237h2.233v-9.237h-2.233zm-6.062 1.399c.204.012.404.048.588.1.74.211 1.06 1.076.88 1.777-.123.737-.89 1.169-1.595 1.117a2.23 2.23 0 0 1-.72-.108c-.892-.281-1.146-1.45-.727-2.209.319-.55.962-.715 1.574-.677zm-82.885.05c.261 0 .525.036.77.131.818.271 1.214 1.166 1.2 1.977h-4.193c.058-.375.161-.749.346-1.082.344-.695 1.125-1.054 1.877-1.026zm49.54 0c.26 0 .524.036.769.131.818.271 1.214 1.166 1.2 1.977h-4.194c.057-.375.16-.749.345-1.082.344-.695 1.128-1.054 1.88-1.026zm24.222 0c.261 0 .525.036.77.131.817.271 1.213 1.166 1.2 1.977h-4.193c.057-.375.161-.749.346-1.082.344-.695 1.125-1.054 1.877-1.026zm-83.924.07c.67.008 1.35.299 1.75.84v4.141c-.499.645-1.252 1.152-2.098 1.106-.138 0-.276-.011-.412-.037-.88-.132-1.295-1.054-1.398-1.846-.124-1.116-.155-2.347.453-3.338.37-.595 1.034-.872 1.705-.865zm49.81.067c.428-.004.873.128 1.18.438.666.726.7 1.788.7 2.72-.022.99-.249 2.155-1.176 2.696-.915.465-2.18.26-2.8-.598v-4.111c.453-.677 1.252-1.184 2.096-1.145zm-93.3 2.654c-.5.01-.997.155-1.414.434-.734.466-1.175 1.329-1.159 2.193 0 .08.004.16.01.24.047.88.6 1.712 1.397 2.087a2.719 2.719 0 0 0 2.427 0c.852-.405 1.438-1.31 1.44-2.256a2.613 2.613 0 0 0-1.272-2.313 2.602 2.602 0 0 0-1.43-.385zm8.297 0c-.5.01-.999.155-1.416.434-.734.466-1.173 1.329-1.157 2.193 0 .08.002.16.008.24a2.494 2.494 0 0 0 1.399 2.087 2.714 2.714 0 0 0 2.425 0c.852-.405 1.44-1.31 1.442-2.256a2.613 2.613 0 0 0-1.272-2.313 2.602 2.602 0 0 0-1.43-.385zm8.296 0c-.5.01-.998.155-1.416.434-.733.466-1.174 1.329-1.158 2.193 0 .08.004.16.01.24.047.88.6 1.712 1.397 2.087a2.719 2.719 0 0 0 2.427 0c.852-.405 1.438-1.31 1.44-2.256a2.613 2.613 0 0 0-1.272-2.313 2.596 2.596 0 0 0-1.428-.385zm56.338 2.42a1.36 1.36 0 0 0-.775.143 1.33 1.33 0 0 0-.727 1.209c.001.237.05.48.174.685.291.524.957.771 1.528.622.456-.115.849-.47.974-.928a1.362 1.362 0 0 0-1.174-1.73zm4.29 0a1.36 1.36 0 0 0-.776.143 1.33 1.33 0 0 0-.727 1.209c.001.237.05.48.174.685.291.524.957.771 1.528.622.456-.115.849-.47.974-.928a1.362 1.362 0 0 0-1.174-1.73zm4.288 0a1.354 1.354 0 0 0-.773.143c-.45.218-.74.711-.728 1.209 0 .237.05.48.173.685.291.524.957.771 1.528.622.456-.115.849-.47.974-.928a1.362 1.362 0 0 0-1.174-1.73zm53.631 1.963c.868.11 1.747.078 2.614.194.475.064 1.16.239 1.166.834h.002a.957.957 0 0 1-.26.66c-.686.61-1.682.605-2.549.578-.624-.058-1.436-.144-1.734-.787-.258-.617.23-1.219.761-1.479z" style="fill:#a05;fill-opacity:1;stroke:none;stroke-width:.22501262" transform="scale(.26458)"/><path d="M207.816 220.076a4.371 4.371 0 0 0-1.504.254c-1.23.415-2.05 1.627-2.193 2.889l.95.168c.462.157.917-.166.982-.637.277-.838 1.25-1.27 2.082-1.072.692.1 1.167.774 1.152 1.453.054 1.103-.613 2.059-1.34 2.82-1.209 1.255-2.458 2.472-3.683 3.711-.402.347-.325.906-.33 1.381h7.441v-.926c.042-.323-.093-.701-.447-.775-.463-.05-.932-.014-1.399-.026-.99.022-2.002-.091-2.963.22l1.635-1.667c.792-.83 1.658-1.603 2.303-2.558.706-1.02.94-2.415.377-3.551-.538-1.145-1.849-1.709-3.063-1.684zm-36.244 6.748c-1.44-.017-2.884.26-4.181.885-2.406 1.13-3.971 3.594-4.371 6.176-.481 2.962-.05 6.255 1.923 8.62 1.526 1.895 4.005 2.873 6.412 2.716 2.454-.038 4.965-.985 6.547-2.916-.462-.58-.912-1.17-1.382-1.743-.581-.507-1.34-.068-1.807.37-1.226 1.018-2.963 1.276-4.467.81-1.79-.572-2.71-2.48-2.904-4.232-.21-2-.143-4.235 1.094-5.918 1.392-1.766 4.14-1.901 5.968-.768.627.486 1.674.952 2.192.06l1.133-1.566c-.997-1-2.238-1.767-3.598-2.156a10.944 10.944 0 0 0-2.559-.338zm47.983 4.014a15.054 15.054 0 0 0-2.471 8.137c-.096 3.107.75 6.242 2.47 8.838l.665-.405c.333-.182.78-.45.594-.902-1.155-2.207-1.82-4.682-1.807-7.18a15.112 15.112 0 0 1 1.164-5.805c.151-.633.84-1.198.607-1.873-.34-.353-.818-.537-1.222-.81zm117.757 0-.662.396c-.335.183-.803.445-.603.905 1.17 2.202 1.81 4.69 1.807 7.187a15.235 15.235 0 0 1-1.114 5.695c-.16.648-.766 1.194-.705 1.874.176.347.59.463.89.683.28.248.506.257.63-.15 1.555-2.494 2.299-5.452 2.222-8.383a14.998 14.998 0 0 0-2.464-8.207zm-79.283.756c-.437-.025-.881.139-1.156.513-.586.658-.34 1.807.469 2.166.879.469 2.078-.269 2.05-1.265a1.362 1.362 0 0 0-.253-.793c-.244-.382-.673-.596-1.11-.621zm75.346.035c-.6-.062-1.24.274-1.469.855-.335.736.111 1.667.88 1.893.86.296 1.87-.422 1.855-1.334a1.42 1.42 0 0 0-.696-1.213 1.268 1.268 0 0 0-.57-.201zm-81.082 1.27c-.114.007-.25.035-.33.01-.37.034-.894-.137-1.084.292-.188.863-.325 1.738-.494 2.606l-1.08.175c-.204.042-.505.002-.407.3.04.35-.12.799.194 1.052.375.13.79.037 1.183.064v3.65c.036.9-.114 1.83.204 2.692.324.94 1.346 1.415 2.29 1.373.865-.001 1.75-.259 2.42-.82l-.503-.816c-.162-.456-.614-.573-.985-.227-.49.233-1.172-.056-1.19-.643-.03-1.735-.005-3.473-.013-5.209h4.285v7.57h2.223v-9.154h-6.508v-2.804c.002-.108-.09-.12-.205-.112zm50.488 2.665a3.02 3.02 0 0 0-.377.038c-.927.158-1.58.948-2.002 1.734l-.101-.848c-.023-.297-.086-.703-.453-.736-.51-.037-1.023-.01-1.534-.018v9.235h2.223v-5.645c.091-.322.272-.63.467-.904.379-.535 1.057-.78 1.695-.695.337.011.912.27 1.026-.217l.142-1.666c-.316-.221-.703-.29-1.086-.278zm-19.48.002a3.592 3.592 0 0 0-2.112.85c-.226.04-.614.875-.64.371-.107-.365-.064-.888-.508-1.027-.515-.055-1.036-.012-1.555-.026v12.25h2.223v-3.691c.128-.078.586.48.904.545a3.772 3.772 0 0 0 3.307-.242c1.462-.887 2.079-2.675 2.062-4.317.002-1.467-.33-3.094-1.517-4.07-.613-.492-1.393-.692-2.164-.643zm42.613.006c-.316 0-.634.024-.945.08-1.23.185-2.444 1.055-2.666 2.336-.22 1.065.192 2.249 1.119 2.852.647.223-.1.366-.317.652-.687.576-.786 1.796-.015 2.346.523.204-.167.27-.356.465-.628.36-.985 1.116-.816 1.828.21 1.028 1.232 1.612 2.172 1.855 1.47.364 3.098.346 4.484-.318 1.126-.512 2.054-1.69 1.887-2.977-.056-.87-.808-1.524-1.621-1.712-1.218-.349-2.5-.188-3.735-.4a.578.578 0 0 1-.209-1.13c.997.191 2.07.123 2.989-.33 1.05-.473 1.749-1.617 1.63-2.771.103-.268-.378-.822-.019-.862.362-.1.812-.05 1.076-.355.127-.342.042-.722.067-1.082h-2.623a4.797 4.797 0 0 0-2.102-.477zm-100.81.016a4.542 4.542 0 0 0-1.668.36c-.934.379-1.627 1.3-1.657 2.318-.064.791.25 1.624.909 2.091.837.618 1.9.762 2.841 1.155.42.166.873.53.785 1.035-.047.64-.724.996-1.306 1.004-.647.063-1.284-.148-1.824-.494-.295-.234-.763-.366-1.059-.059-.239.304-.411.656-.621.98.767.678 1.783 1.022 2.79 1.118 1.221.09 2.588-.16 3.43-1.12.633-.75.859-1.857.524-2.785-.302-.761-1.056-1.2-1.793-1.462-.77-.327-1.66-.411-2.324-.958-.443-.387-.234-1.157.28-1.376.727-.338 1.593-.185 2.288.166.329.184.868.42 1.098-.026v-.002l.504-.799c-.422-.414-.95-.708-1.504-.902a5.083 5.083 0 0 0-1.693-.244zm82.869 0a4.553 4.553 0 0 0-1.67.36c-.934.379-1.627 1.3-1.657 2.318-.064.791.25 1.624.909 2.091.837.618 1.9.762 2.841 1.155.42.166.873.53.786 1.035-.048.64-.725.996-1.307 1.004-.647.063-1.283-.148-1.824-.494-.294-.234-.76-.366-1.057-.059-.239.304-.411.656-.621.98.768.678 1.781 1.022 2.79 1.118 1.22.09 2.587-.16 3.429-1.12.633-.75.858-1.857.523-2.785-.302-.761-1.056-1.2-1.793-1.462-.77-.327-1.66-.411-2.324-.958-.443-.387-.232-1.157.281-1.376.729-.338 1.593-.185 2.287.166.329.184.868.42 1.098-.026v-.002l.504-.799c-.421-.414-.949-.708-1.504-.902a5.071 5.071 0 0 0-1.691-.244zm-73.967.002c-.71-.002-1.428.133-2.065.455-1.21.574-2.037 1.78-2.275 3.082-.243 1.41-.05 2.951.762 4.156.759 1.16 2.14 1.8 3.506 1.819 1.448.043 3.022-.362 3.988-1.51-.24-.3-.473-.606-.717-.9-.368-.293-.804.031-1.139.212-.879.514-2.019.667-2.957.223-.918-.457-1.27-1.538-1.326-2.496h5.487c.278.015.672.01.709-.352.136-1.027-.072-2.113-.62-2.998-.692-1.142-2.051-1.714-3.353-1.691zm58.644 0c-.709-.002-1.428.133-2.064.455-1.21.574-2.04 1.78-2.277 3.082-.243 1.41-.048 2.951.763 4.156.76 1.16 2.141 1.8 3.506 1.819 1.449.043 3.021-.362 3.986-1.51-.239-.3-.47-.606-.714-.9-.368-.293-.805.031-1.14.212-.878.514-2.02.667-2.958.223-.918-.457-1.27-1.538-1.326-2.496h5.486c.278.015.672.01.71-.352.135-1.027-.072-2.113-.62-2.998-.692-1.142-2.05-1.714-3.352-1.691zm24.223 0c-.71-.002-1.426.133-2.062.455-1.21.574-2.04 1.78-2.278 3.082-.242 1.41-.047 2.951.764 4.156.759 1.16 2.14 1.8 3.506 1.819 1.448.043 3.02-.362 3.986-1.51-.24-.3-.47-.606-.715-.9-.367-.293-.806.031-1.14.212-.88.514-2.02.667-2.957.223-.918-.457-1.27-1.538-1.327-2.496h5.487c.278.015.672.01.709-.352.136-1.027-.072-2.113-.62-2.998-.692-1.142-2.051-1.714-3.353-1.691zm-72.176.002c-1.098-.056-2.167.446-2.912 1.24-.089.04-.075-.278-.123-.379-.042-.308-.156-.69-.53-.713-.486-.014-.975-.002-1.462-.006v9.235h2.225v-6.678c.633-.657 1.556-1.14 2.488-.928.71.118 1.1.856 1.105 1.524.014 2.027.002 4.054.006 6.082h2.223v-5.211c.016-.912-.004-1.86-.455-2.68-.476-.945-1.525-1.495-2.565-1.486zm87.407.142v9.235h2.232v-9.235h-2.232zm-6.063 1.397c.204.012.404.048.588.1.74.211 1.06 1.078.88 1.779-.123.737-.889 1.169-1.595 1.117-.243 0-.49-.03-.72-.11-.892-.281-1.146-1.449-.727-2.206.319-.55.962-.718 1.574-.68zm-91.99.053c.261 0 .525.035.77.13.817.272 1.214 1.164 1.2 1.975h-4.193c.057-.375.161-.747.346-1.08.344-.694 1.125-1.054 1.877-1.025zm58.644 0c.261 0 .525.035.77.13.818.272 1.214 1.164 1.201 1.975h-4.195a3.22 3.22 0 0 1 .347-1.08c.345-.694 1.126-1.054 1.877-1.025zm24.223 0c.261 0 .527.035.771.13.818.272 1.215 1.164 1.202 1.975h-4.196c.057-.375.161-.747.346-1.08.344-.694 1.125-1.054 1.877-1.025zm-34.113.134c.428-.003.872.128 1.18.438.665.727.699 1.788.699 2.72-.022.99-.248 2.155-1.176 2.696-.915.465-2.18.26-2.799-.598v-4.11c.452-.676 1.251-1.185 2.096-1.146zm-100.262 2.655c-.5.01-.996.156-1.414.435-.734.466-1.175 1.329-1.158 2.194 0 .08.003.16.01.24.046.879.599 1.71 1.396 2.084a2.719 2.719 0 0 0 2.428 0c.851-.404 1.437-1.31 1.44-2.256a2.613 2.613 0 0 0-1.272-2.313 2.602 2.602 0 0 0-1.43-.384zm8.297 0c-.5.01-.998.156-1.416.435-.734.466-1.173 1.329-1.156 2.194 0 .08.001.16.007.24.047.879.602 1.71 1.399 2.084a2.714 2.714 0 0 0 2.426 0c.851-.404 1.439-1.31 1.441-2.256a2.615 2.615 0 0 0-1.273-2.313 2.596 2.596 0 0 0-1.428-.384zm8.297 0c-.5.01-.999.156-1.416.435-.734.466-1.175 1.329-1.159 2.194 0 .08.004.16.01.24.047.879.6 1.71 1.397 2.084a2.719 2.719 0 0 0 2.427 0c.852-.404 1.438-1.31 1.44-2.256a2.613 2.613 0 0 0-1.272-2.313 2.596 2.596 0 0 0-1.427-.384zm63.299 2.42a1.361 1.361 0 0 0-.776.144c-.45.218-.738.71-.726 1.207 0 .238.05.48.173.686.291.523.957.772 1.528.623.456-.114.849-.473.974-.93a1.362 1.362 0 0 0-1.173-1.73zm4.289 0a1.355 1.355 0 0 0-.774.144c-.45.218-.74.71-.728 1.207 0 .238.05.48.173.686.292.523.957.772 1.528.623.456-.114.849-.473.974-.93a1.362 1.362 0 0 0-1.173-1.73zm4.289 0a1.355 1.355 0 0 0-.774.144c-.45.218-.74.71-.728 1.207 0 .238.05.48.174.686.29.523.958.772 1.529.623.456-.114.849-.473.974-.93a1.363 1.363 0 0 0-1.175-1.73zm53.63 1.964c.868.11 1.747.077 2.614.192.475.064 1.162.239 1.168.834a.957.957 0 0 1-.26.66c-.686.61-1.682.605-2.549.578-.624-.058-1.436-.144-1.734-.787-.258-.617.23-1.216.762-1.477z" style="fill:#d5002b;fill-opacity:1;stroke:none;stroke-width:.22501262" transform="scale(.26458)"/><path d="M232.723 262.932a4.371 4.371 0 0 0-1.504.254c-1.23.415-2.05 1.626-2.194 2.888l.95.168c.463.157.917-.168.982-.638.278-.838 1.25-1.27 2.082-1.073.693.101 1.167.775 1.152 1.453.054 1.103-.612 2.06-1.34 2.82-1.209 1.255-2.458 2.473-3.683 3.712-.402.347-.325.906-.33 1.38h7.441v-.923c.042-.323-.093-.704-.447-.778-.463-.05-.932-.011-1.398-.023-.99.022-2.003-.093-2.963.217l1.634-1.666c.793-.83 1.658-1.604 2.303-2.559.706-1.02.94-2.414.377-3.55-.537-1.145-1.848-1.707-3.062-1.682zm-37.711 6.742c-2.254.07-4.528 1.227-5.467 3.351-.493-1.415-1.554-2.75-3.045-3.166-2.276-.636-4.712.429-6.164 2.21-.22-.727-.115-1.773-.994-2.057-.996-.105-2.007-.023-3.01-.05v17.86h4.299v-13.011c.867-1.235 2.52-2.075 4.06-1.706 1.364.217 2.036 1.656 2.022 2.916.026 3.934.004 7.868.012 11.801h4.316v-8.705c.05-1.326-.136-2.678.188-3.976.422-1.597 2.242-2.433 3.78-2.03 1.364.231 2.1 1.65 2.096 2.932.027 3.926.005 7.852.012 11.78h4.299v-8.147c-.068-2.24.276-4.579-.64-6.696-.755-1.946-2.758-3.175-4.803-3.267a6.875 6.875 0 0 0-.961-.04zm49.449 4.017a15.053 15.053 0 0 0-2.47 8.137c-.097 3.108.75 6.244 2.47 8.84l.664-.404c.333-.183.78-.452.594-.905-1.155-2.206-1.82-4.682-1.807-7.18a15.112 15.112 0 0 1 1.164-5.804c.151-.634.84-1.198.608-1.873-.341-.354-.818-.538-1.223-.81zm107.668 0-.662.399c-.335.183-.805.443-.606.902 1.17 2.203 1.811 4.69 1.807 7.188a15.24 15.24 0 0 1-1.113 5.695c-.161.648-.765 1.193-.703 1.873.176.348.589.463.89.684.279.248.505.256.63-.15 1.554-2.495 2.296-5.452 2.22-8.384a14.996 14.996 0 0 0-2.463-8.207zm-85.065.756v13.375h2.225v-13.375h-2.225zm-3.253.035c-.6-.062-1.24.277-1.47.858-.334.735.112 1.667.88 1.892.86.297 1.872-.423 1.857-1.336a1.423 1.423 0 0 0-.697-1.212 1.268 1.268 0 0 0-.57-.202zm9.035 0c-.6-.062-1.24.277-1.469.858-.335.735.11 1.667.879 1.892.86.297 1.872-.423 1.857-1.336a1.423 1.423 0 0 0-.697-1.212 1.268 1.268 0 0 0-.57-.202zm75.343 0c-.6-.062-1.239.277-1.468.858-.335.735.11 1.667.879 1.892.86.297 1.872-.423 1.857-1.336a1.42 1.42 0 0 0-.695-1.212 1.276 1.276 0 0 0-.573-.202zm-30.591 3.936a3.05 3.05 0 0 0-.38.037c-.927.159-1.578.95-2 1.736-.033-.283-.069-.566-.103-.85-.022-.297-.085-.703-.453-.736-.51-.036-1.02-.009-1.531-.017v9.234h2.223v-5.644c.09-.322.27-.63.464-.905.38-.534 1.06-.777 1.698-.693.336.012.91.268 1.023-.219l.145-1.664c-.317-.221-.704-.291-1.086-.279zm-19.48.002a3.592 3.592 0 0 0-2.112.85c-.227.039-.617.875-.643.37-.107-.365-.061-.888-.506-1.027-.515-.054-1.038-.012-1.556-.025v12.25h2.224v-3.69c.128-.077.587.48.905.545a3.772 3.772 0 0 0 3.306-.244c1.462-.887 2.077-2.674 2.06-4.316.002-1.467-.327-3.095-1.515-4.07-.612-.493-1.393-.692-2.164-.643zm42.612.006c-.94-.003-1.921.218-2.656.838-1.232.935-1.345 2.918-.303 4.035.084.321 1.005.413.577.736-.764.37-1.217 1.337-.862 2.139-.03.363.781.507.508.754-.7.244-1.294.887-1.303 1.656-.028.996.81 1.763 1.684 2.082 1.43.504 3.041.568 4.484.076 1.246-.393 2.393-1.468 2.436-2.838.062-.761-.374-1.503-1.05-1.845-1.274-.61-2.731-.399-4.09-.59-.688.17-1.223-.817-.503-1.14.575.032 1.186.134 1.774.028 1.173-.143 2.36-.828 2.756-1.996.181-.555.26-1.191.023-1.74-.097-.527.74-.23 1.016-.498.397-.263.176-.82.234-1.219h-2.594c-.668-.287-1.393-.496-2.13-.478zm-83.687.013c-1.165.036-2.34.634-2.826 1.733-.255-.732-.804-1.422-1.574-1.637-1.177-.329-2.437.222-3.188 1.143-.113-.376-.06-.918-.514-1.065-.515-.054-1.038-.012-1.556-.025v9.234h2.222v-6.726c.449-.639 1.304-1.074 2.1-.883.705.112 1.052.856 1.045 1.508.014 2.033.002 4.068.006 6.101h2.232v-4.5c.026-.685-.071-1.385.096-2.056.218-.826 1.16-1.258 1.955-1.05.705.12 1.085.853 1.084 1.516.014 2.03.002 4.06.006 6.09h2.223v-4.213c-.036-1.157.143-2.366-.33-3.46-.39-1.007-1.427-1.643-2.485-1.69a3.546 3.546 0 0 0-.496-.02zm50.422.004c-.71-.001-1.426.133-2.063.455-1.21.575-2.039 1.78-2.277 3.082-.243 1.411-.047 2.954.764 4.159.759 1.16 2.14 1.798 3.506 1.816 1.448.044 3.02-.361 3.986-1.51-.24-.3-.47-.605-.715-.9-.368-.292-.806.034-1.14.215-.88.514-2.02.665-2.958.22-.918-.456-1.27-1.537-1.326-2.496h5.487c.278.016.672.01.709-.351.136-1.027-.072-2.111-.62-2.996-.692-1.143-2.051-1.716-3.353-1.694zm15.322 0a4.54 4.54 0 0 0-1.668.358c-.933.38-1.626 1.303-1.656 2.32-.065.792.25 1.622.908 2.09.838.617 1.9.761 2.842 1.154.42.167.873.53.785 1.035-.047.64-.725.997-1.307 1.004-.647.063-1.283-.147-1.824-.494-.294-.234-.76-.366-1.056-.058-.24.304-.412.655-.622.98.768.678 1.782 1.021 2.79 1.117 1.22.091 2.587-.159 3.43-1.119.632-.75.857-1.857.523-2.785-.303-.762-1.056-1.201-1.793-1.463-.771-.327-1.66-.41-2.325-.957-.442-.388-.233-1.158.28-1.377.728-.337 1.594-.184 2.289.166.329.184.868.422 1.097-.025l.504-.801c-.421-.414-.949-.708-1.504-.902a5.081 5.081 0 0 0-1.693-.243zm8.902 0c-.709-.001-1.428.133-2.064.455-1.21.575-2.037 1.78-2.275 3.082-.243 1.411-.05 2.954.761 4.159.76 1.16 2.143 1.798 3.508 1.816 1.449.044 3.021-.361 3.986-1.51-.239-.3-.472-.605-.716-.9-.368-.292-.805.034-1.139.215-.88.514-2.02.665-2.957.22-.918-.456-1.27-1.537-1.326-2.496h5.486c.278.016.672.01.71-.351.135-1.027-.072-2.111-.62-2.996-.692-1.143-2.052-1.716-3.354-1.694zm-69.15.145v9.234h2.232v-9.234h-2.232zm9.035 0v9.234h2.233v-9.234h-2.233zm75.346 0v9.234h2.232v-9.234h-2.232zm-6.27 1.389c.2-.005.399.016.582.056.797.085 1.264.957 1.122 1.697-.063.788-.872 1.32-1.624 1.25-.182 0-.366-.017-.544-.058-.934-.158-1.33-1.31-.973-2.111.235-.583.84-.82 1.437-.834zm-33.14.06c.26 0 .527.036.771.131.818.271 1.215 1.163 1.201 1.975h-4.195c.057-.376.161-.747.346-1.08.344-.695 1.125-1.054 1.877-1.026zm24.224 0c.262 0 .525.036.77.131.818.271 1.214 1.163 1.201 1.975h-4.193c.057-.376.16-.747.345-1.08.345-.695 1.126-1.054 1.877-1.026zm-34.113.135c.428-.004.873.13 1.18.44.665.726.7 1.786.699 2.718-.022.99-.248 2.157-1.176 2.697-.915.465-2.182.26-2.8-.597v-4.112c.452-.676 1.253-1.185 2.097-1.146zm-90.172 2.656c-.5.01-.996.155-1.414.434-.734.465-1.175 1.328-1.158 2.193 0 .08.004.16.01.24.046.88.599 1.712 1.396 2.086a2.719 2.719 0 0 0 2.428 0c.852-.404 1.437-1.31 1.44-2.256a2.616 2.616 0 0 0-1.272-2.314 2.6 2.6 0 0 0-1.43-.383zm8.297 0c-.5.01-.998.155-1.416.434-.734.465-1.173 1.328-1.156 2.193 0 .08.002.16.008.24a2.494 2.494 0 0 0 1.398 2.086 2.714 2.714 0 0 0 2.426 0c.851-.404 1.44-1.31 1.441-2.256a2.618 2.618 0 0 0-1.273-2.314 2.594 2.594 0 0 0-1.428-.383zm8.297 0c-.5.01-.998.155-1.416.434-.734.465-1.175 1.328-1.158 2.193 0 .08.003.16.01.24.046.88.599 1.712 1.396 2.086a2.719 2.719 0 0 0 2.428 0c.851-.404 1.437-1.31 1.44-2.256a2.616 2.616 0 0 0-1.272-2.314 2.594 2.594 0 0 0-1.428-.383zm53.207 2.42a1.354 1.354 0 0 0-.773.143 1.33 1.33 0 0 0-.727 1.209c0 .237.05.48.174.685.29.523.957.77 1.527.621.456-.114.85-.47.975-.927.15-.51-.03-1.099-.45-1.428a1.356 1.356 0 0 0-.726-.303zm4.29 0a1.354 1.354 0 0 0-.774.143 1.33 1.33 0 0 0-.727 1.209c.001.237.05.48.174.685.29.523.957.77 1.527.621.456-.114.85-.47.975-.927a1.362 1.362 0 0 0-1.176-1.731zm4.29 0a1.36 1.36 0 0 0-.775.143 1.33 1.33 0 0 0-.727 1.209c.001.237.05.48.174.685.291.523.957.77 1.527.621.456-.114.85-.47.975-.927a1.362 1.362 0 0 0-1.174-1.731zm53.63 1.963c.787.1 1.582.082 2.37.164.545.052 1.372.173 1.41.861a.958.958 0 0 1-.146.518c-.528.66-1.463.731-2.248.73-.708-.026-1.563-.026-2.051-.629-.442-.6.072-1.387.666-1.644z" style="fill:red;fill-opacity:1;stroke:none;stroke-width:.22501262" transform="scale(.26458)"/><path d="M163.715 134.13c-.51 0-1.024.08-1.504.255-1.23.415-2.05 1.626-2.193 2.888l.947.168c.463.157.92-.168.984-.638.278-.838 1.249-1.268 2.08-1.07.693.1 1.17.774 1.155 1.453.053 1.102-.615 2.058-1.342 2.82-1.21 1.254-2.458 2.472-3.684 3.71-.402.348-.323.905-.328 1.38h7.44v-.924c.041-.323-.091-.703-.446-.777-.463-.05-.934-.012-1.4-.024-.99.022-2.003-.093-2.963.217l1.637-1.664c.792-.83 1.658-1.605 2.302-2.56.706-1.02.94-2.415.377-3.552-.537-1.144-1.848-1.706-3.062-1.681zm11.738 11.237a15.056 15.056 0 0 0-2.473 8.137c-.096 3.108.753 6.242 2.473 8.838l.662-.405c.334-.182.782-.451.596-.904-1.155-2.206-1.82-4.682-1.807-7.18a15.1 15.1 0 0 1 1.162-5.802c.151-.634.84-1.2.608-1.875-.34-.354-.816-.536-1.22-.809zm78.979 0-.662.397c-.336.182-.806.443-.606.902 1.17 2.203 1.81 4.69 1.807 7.188a15.24 15.24 0 0 1-1.114 5.695c-.16.648-.766 1.195-.705 1.875.176.348.592.461.893.681.279.249.505.259.629-.148 1.555-2.494 2.297-5.451 2.22-8.383a14.996 14.996 0 0 0-2.462-8.207zm-4.24.791c-.501.056-.977.372-1.169.856-.334.735.111 1.666.88 1.892.86.297 1.872-.422 1.857-1.334a1.423 1.423 0 0 0-.697-1.213 1.311 1.311 0 0 0-.872-.2zm-30.294 3.934a3.018 3.018 0 0 0-.377.037c-.927.158-1.578.95-2 1.736l-.103-.85c-.023-.297-.086-.7-.453-.734-.51-.036-1.023-.011-1.533-.02v9.237h2.224v-5.644c.092-.323.27-.63.465-.905.38-.535 1.059-.779 1.697-.695.337.012.91.268 1.024-.219l.144-1.664c-.316-.221-.705-.292-1.088-.28zm-19.478.002a3.594 3.594 0 0 0-2.111.851c-.227.04-.617.875-.643.371-.107-.365-.062-.89-.506-1.029-.515-.054-1.038-.012-1.556-.025v12.25h2.222v-3.69c.128-.077.587.48.904.545a3.772 3.772 0 0 0 3.307-.244c1.462-.887 2.08-2.673 2.063-4.314 0-1.468-.33-3.095-1.518-4.07-.612-.493-1.391-.694-2.162-.645zm42.611.008c-.316 0-.632.024-.943.08-1.23.184-2.445 1.052-2.668 2.334-.22 1.064.192 2.25 1.12 2.853.646.223-.101.365-.317.65-.688.576-.787 1.797-.016 2.346.523.204-.167.272-.355.467-.628.36-.986 1.116-.817 1.828.21 1.028 1.232 1.61 2.172 1.854 1.47.363 3.1.347 4.486-.317 1.126-.512 2.053-1.69 1.885-2.976-.056-.87-.805-1.525-1.619-1.713-1.217-.349-2.499-.19-3.734-.403a.577.577 0 0 1-.211-1.126c.996.19 2.069.122 2.988-.33 1.05-.474 1.75-1.617 1.63-2.772.103-.268-.375-.822-.017-.861.362-.1.81-.051 1.074-.356.127-.341.045-.722.069-1.082h-2.625a4.797 4.797 0 0 0-2.102-.476zm-17.941.015a4.55 4.55 0 0 0-1.67.358c-.934.379-1.626 1.303-1.656 2.32-.065.791.252 1.622.91 2.09.837.617 1.898.761 2.84 1.154.42.167.874.531.787 1.037-.048.64-.725.995-1.307 1.002-.647.063-1.283-.147-1.824-.494-.294-.234-.762-.366-1.059-.059-.239.305-.41.658-.62.983.767.678 1.783 1.021 2.79 1.117 1.22.091 2.586-.161 3.428-1.121.633-.75.86-1.857.525-2.785-.302-.762-1.055-1.201-1.793-1.463-.77-.327-1.662-.409-2.326-.955-.442-.388-.231-1.158.281-1.377.729-.337 1.593-.186 2.288.164.328.184.868.422 1.097-.025l.504-.801c-.421-.414-.947-.709-1.502-.903a5.081 5.081 0 0 0-1.693-.242zm-15.322.002c-.71-.001-1.429.131-2.065.453-1.21.574-2.037 1.782-2.275 3.084-.243 1.411-.05 2.951.761 4.156.76 1.16 2.141 1.8 3.506 1.817 1.449.043 3.023-.36 3.989-1.508-.24-.3-.473-.607-.717-.902-.368-.293-.805.033-1.139.215-.88.514-2.02.667-2.957.222-.918-.456-1.27-1.54-1.326-2.498h5.486c.278.015.673.01.71-.351.135-1.028-.072-2.112-.62-2.996-.692-1.143-2.051-1.715-3.353-1.692zm24.224 0c-.71-.001-1.428.131-2.064.453-1.21.574-2.04 1.782-2.278 3.084-.242 1.411-.047 2.951.764 4.156.759 1.16 2.141 1.8 3.506 1.817 1.449.043 3.02-.36 3.986-1.508-.239-.3-.47-.607-.715-.902-.367-.293-.804.033-1.138.215-.88.514-2.021.667-2.96.222-.917-.456-1.269-1.54-1.325-2.498h5.486c.278.015.672.01.709-.351.136-1.028-.072-2.112-.62-2.996-.691-1.143-2.049-1.715-3.35-1.692zm15.229.143v9.236h2.232v-9.236h-2.232zm-6.06 1.398c.203.013.404.048.587.1.74.211 1.059 1.077.879 1.777-.123.737-.89 1.17-1.596 1.117-.243 0-.487-.028-.719-.107-.89-.282-1.145-1.451-.726-2.21.319-.549.963-.715 1.574-.677zm-33.349.05c.262 0 .526.037.77.132.818.27 1.214 1.165 1.201 1.976h-4.193c.057-.375.16-.748.346-1.082.344-.694 1.125-1.053 1.876-1.025zm24.225 0c.261 0 .525.037.77.132.818.27 1.214 1.165 1.2 1.976h-4.195a3.23 3.23 0 0 1 .348-1.082c.344-.694 1.126-1.053 1.877-1.025zm-34.113.138c.428-.004.873.127 1.18.437.665.727.699 1.788.699 2.72-.022.99-.25 2.156-1.178 2.696-.915.465-2.18.26-2.799-.597v-4.112c.452-.677 1.254-1.183 2.098-1.144zm-61.483 2.654c-.5.01-.998.155-1.416.434-.733.465-1.174 1.328-1.158 2.193h.002c0 .08.002.16.008.24.046.879.6 1.711 1.396 2.086a2.719 2.719 0 0 0 2.428 0c.852-.404 1.44-1.31 1.442-2.256a2.615 2.615 0 0 0-1.274-2.312 2.596 2.596 0 0 0-1.428-.385zm8.295 0c-.5.01-.996.155-1.414.434-.734.465-1.175 1.328-1.158 2.193 0 .08.004.16.01.24.046.879.6 1.711 1.396 2.086a2.719 2.719 0 0 0 2.428 0c.852-.404 1.437-1.31 1.44-2.256a2.613 2.613 0 0 0-1.272-2.312 2.602 2.602 0 0 0-1.43-.385zm8.297 0c-.5.01-.998.155-1.416.434-.734.465-1.173 1.328-1.156 2.193 0 .08.002.16.008.24a2.494 2.494 0 0 0 1.398 2.086 2.714 2.714 0 0 0 2.426 0c.852-.404 1.44-1.31 1.441-2.256a2.615 2.615 0 0 0-1.273-2.312 2.596 2.596 0 0 0-1.428-.385zm24.52 2.42a1.354 1.354 0 0 0-.774.142c-.45.219-.74.711-.728 1.21 0 .237.05.48.174.685.29.523.958.77 1.529.621.456-.114.849-.47.975-.928a1.363 1.363 0 0 0-1.176-1.73zm4.289 0a1.354 1.354 0 0 0-.774.142 1.33 1.33 0 0 0-.726 1.21c0 .237.047.48.172.685.29.523.958.77 1.529.621.456-.114.85-.47.975-.928a1.363 1.363 0 0 0-1.176-1.73zm4.289 0a1.354 1.354 0 0 0-.774.142 1.33 1.33 0 0 0-.726 1.21c0 .237.05.48.174.685.29.523.956.77 1.527.621.456-.114.85-.47.975-.928.15-.51-.03-1.098-.45-1.427a1.356 1.356 0 0 0-.726-.303zm53.63 1.963c.868.11 1.747.078 2.614.193.476.065 1.163.24 1.168.834a.957.957 0 0 1-.26.66c-.685.61-1.682.605-2.549.578-.624-.057-1.436-.143-1.734-.787-.258-.616.23-1.218.762-1.478z" style="fill:purple;fill-opacity:1;stroke:none;stroke-width:.22501262" transform="scale(.26458)"/><path d="M.008 363.488c.054 71.476-.143 142.954.205 214.43 71.416.482 142.834.082 214.25.082l.152-214.512H.008zM142.86 645.66v.002a5.338 5.338 0 0 0-1.836.31c-1.503.508-2.506 1.988-2.681 3.53l1.16.205c.566.192 1.122-.204 1.201-.78.34-1.023 1.527-1.552 2.543-1.31.846.124 1.426.948 1.408 1.778.066 1.347-.75 2.514-1.638 3.445-1.478 1.533-3.003 3.021-4.5 4.535-.492.424-.398 1.105-.405 1.686h9.094v-1.13c.051-.394-.112-.858-.545-.949-.566-.06-1.141-.014-1.71-.029-1.211.027-2.447-.113-3.62.266l1.998-2.035c.968-1.014 2.027-1.96 2.815-3.127.862-1.246 1.148-2.952.46-4.34-.656-1.399-2.26-2.087-3.744-2.057zm-42.445 3.729v20.953h3.484v-6.627c.544.044 1.188-.144 1.631.254 1.13 1.609 2.205 3.26 3.313 4.886.425.521.654 1.335 1.4 1.456 1.172.068 2.35.01 3.526.029l-2.346-3.416c-1.019-1.446-1.966-2.947-3.045-4.348-.69-.356-.07-.539.267-.896 1.632-1.928 3.245-3.873 4.87-5.807h-1.944c-.744.058-1.603-.191-2.218.346-1.285 1.516-2.51 3.087-3.77 4.625-.333.645-1.08.54-1.684.543v-11.998h-3.484zm30.225 6.252c-1.826.056-3.67.993-4.43 2.714-.4-1.146-1.257-2.227-2.465-2.564-1.843-.515-3.818.347-4.994 1.79-.178-.589-.093-1.436-.805-1.667-.807-.085-1.627-.018-2.44-.04v14.466l3.485.002V659.8c.703-1 2.04-1.68 3.287-1.381 1.105.175 1.65 1.342 1.639 2.363.021 3.186.002 6.373.008 9.559h3.498v-7.053c.04-1.074-.112-2.169.15-3.22.342-1.294 1.818-1.972 3.065-1.645 1.104.187 1.7 1.336 1.697 2.375.022 3.18.002 6.362.008 9.543h3.484v-6.602c-.055-1.813.221-3.707-.521-5.422-.611-1.576-2.232-2.572-3.889-2.646a5.558 5.558 0 0 0-.777-.031zm12.22 25.271a5.338 5.338 0 0 0-1.836.31c-1.503.508-2.506 1.988-2.681 3.53l1.16.207c.566.192 1.122-.204 1.201-.78.34-1.023 1.527-1.552 2.543-1.31.846.124 1.426.946 1.408 1.776.066 1.347-.75 2.516-1.638 3.447-1.478 1.533-3.003 3.021-4.5 4.535-.492.424-.398 1.105-.405 1.686h9.094v-1.13c.051-.394-.112-.858-.545-.949-.566-.06-1.141-.016-1.71-.03-1.211.026-2.447-.114-3.62.265l1.998-2.035c.968-1.014 2.027-1.96 2.815-3.127.862-1.246 1.148-2.95.46-4.338-.656-1.399-2.26-2.087-3.744-2.057zM99.59 684.64v20.953h3.484v-10.463c.965-.996 2.344-1.74 3.766-1.477 1.174.123 1.865 1.314 1.863 2.41.022 3.177.004 6.353.01 9.53h3.484v-6.664c-.05-1.796.216-3.674-.549-5.364-.652-1.606-2.325-2.639-4.039-2.658-1.695-.14-3.34.611-4.535 1.783v-8.05H99.59zm31.05 6.254c-1.825.056-3.668.993-4.43 2.714-.398-1.146-1.256-2.227-2.464-2.564-1.843-.515-3.818.345-4.994 1.787-.178-.588-.093-1.435-.805-1.666-.807-.085-1.627-.016-2.44-.039v14.467h3.485v-10.54c.703-1 2.04-1.68 3.287-1.38 1.105.175 1.65 1.34 1.639 2.361.021 3.186.002 6.373.008 9.559h3.498v-7.051c.04-1.074-.112-2.171.15-3.223.342-1.293 1.818-1.97 3.065-1.642 1.104.187 1.7 1.336 1.697 2.375.022 3.18.002 6.36.008 9.54h3.484v-6.599c-.055-1.813.221-3.707-.521-5.422-.611-1.576-2.232-2.574-3.889-2.648a5.554 5.554 0 0 0-.777-.03zm12.221 25.27v.001a5.338 5.338 0 0 0-1.836.31c-1.503.508-2.506 1.987-2.681 3.53l1.16.205c.566.192 1.122-.204 1.201-.78.34-1.023 1.527-1.55 2.543-1.308.847.123 1.426.946 1.408 1.775.066 1.348-.75 2.515-1.638 3.446-1.478 1.533-3.003 3.021-4.5 4.535-.492.424-.398 1.105-.405 1.686h9.094v-1.13c.051-.394-.112-.858-.545-.949-.566-.06-1.141-.014-1.71-.029-1.211.027-2.447-.113-3.62.266l1.998-2.035c.968-1.014 2.027-1.96 2.815-3.127.862-1.246 1.148-2.952.46-4.34-.656-1.399-2.26-2.087-3.744-2.057zm-48.62 3.728v6.892c-.014.384.118 1.057-.35.442-2.151-1.79-5.625-1.358-7.47.675-1.931 2.075-2.265 5.12-1.86 7.819.286 2.057 1.366 4.235 3.416 5.01 2.216.85 4.83-.008 6.334-1.792.233-.256.186.528.294.733.066.547.301 1.244.989 1.174h2.129V719.89H94.24zm11.984 6.232c-1.98.112-3.926.906-5.375 2.27l.507.912c.236.559.826.981 1.448.808.786-.227 1.413-.828 2.205-1.058.988-.28 2.205-.365 3.037.343.88.804.782 2.067.783 3.155a24.16 24.16 0 0 0-2.533.18c-1.828.263-3.758.74-5.137 2.046-1.315 1.263-1.295 3.505-.205 4.899 1.022 1.275 2.802 1.526 4.334 1.342 1.486-.134 2.8-.951 3.865-1.954l.278.92c.085.59.648.932 1.216.858h1.58v-6.87c-.04-1.468.151-2.974-.322-4.394-.489-1.697-1.982-3.006-3.707-3.338a8.39 8.39 0 0 0-1.974-.119zm24.416.022c-1.826.056-3.67.991-4.43 2.712-.4-1.146-1.257-2.227-2.465-2.564-1.843-.515-3.818.347-4.994 1.789-.178-.588-.093-1.435-.805-1.666-.807-.085-1.627-.02-2.44-.04v14.468h3.485v-10.54c.703-1 2.04-1.681 3.287-1.382 1.105.175 1.65 1.342 1.639 2.363.021 3.186.002 6.373.008 9.559h3.498v-7.051c.04-1.074-.112-2.171.15-3.223.342-1.293 1.818-1.969 3.065-1.642 1.104.187 1.7 1.334 1.697 2.373.022 3.18.002 6.362.008 9.543h3.484v-6.6c-.055-1.813.221-3.709-.521-5.424-.611-1.576-2.232-2.572-3.889-2.646a5.554 5.554 0 0 0-.777-.03zm-39.141 2.61c1.05.012 2.113.467 2.74 1.315v6.487c-.78 1.01-1.96 1.807-3.285 1.734-.216 0-.432-.019-.644-.06-1.38-.207-2.03-1.648-2.192-2.89-.194-1.747-.243-3.678.71-5.23.58-.932 1.62-1.366 2.671-1.355zm17.33 5.913v1.746c-.043.302.127.692-.187.883-.827.865-1.985 1.429-3.198 1.375-.748.01-1.69-.264-1.884-1.092-.257-.785.097-1.7.86-2.05 1.356-.69 2.918-.765 4.41-.862zm34.031 16.746a5.323 5.323 0 0 0-1.836.313c-1.503.507-2.506 1.986-2.681 3.529l1.16.205c.566.192 1.122-.204 1.201-.78.34-1.023 1.527-1.552 2.543-1.31.846.124 1.426.946 1.408 1.775.066 1.348-.75 2.517-1.638 3.448-1.478 1.533-3.003 3.02-4.5 4.535-.492.424-.398 1.105-.405 1.685h9.094v-1.128c.051-.395-.112-.859-.545-.95-.566-.06-1.141-.016-1.71-.03-1.211.026-2.447-.114-3.62.265l1.998-2.035c.968-1.014 2.027-1.96 2.815-3.127.862-1.246 1.148-2.95.46-4.338-.656-1.399-2.26-2.087-3.744-2.057zm-12.22 9.98c-1.826.057-3.669.994-4.43 2.715-.4-1.146-1.257-2.227-2.465-2.564-1.843-.516-3.818.347-4.994 1.789-.178-.588-.093-1.435-.805-1.666-.807-.085-1.627-.022-2.44-.041v14.467l3.485.002v-10.541c.703-1 2.04-1.68 3.287-1.381 1.105.175 1.65 1.342 1.639 2.363.021 3.186.002 6.373.008 9.559h3.498v-7.053c.04-1.074-.112-2.17.15-3.22.342-1.294 1.818-1.972 3.065-1.645 1.104.187 1.7 1.336 1.697 2.375.022 3.18.002 6.362.008 9.543h3.484v-6.602c-.055-1.813.221-3.707-.521-5.422-.611-1.576-2.232-2.572-3.889-2.646a5.554 5.554 0 0 0-.777-.031zm12.22 25.272a5.33 5.33 0 0 0-1.836.31c-1.503.508-2.506 1.987-2.681 3.53l1.16.205c.566.192 1.122-.204 1.201-.78.34-1.023 1.527-1.55 2.543-1.308.846.124 1.426.946 1.408 1.775.066 1.348-.75 2.517-1.638 3.448-1.478 1.533-3.003 3.019-4.5 4.533-.492.424-.398 1.107-.405 1.687h9.094v-1.13c.051-.395-.112-.857-.545-.948-.566-.06-1.141-.016-1.71-.031-1.211.027-2.447-.113-3.62.266l1.998-2.035c.968-1.014 2.027-1.96 2.815-3.127.862-1.246 1.148-2.95.46-4.338-.656-1.399-2.26-2.087-3.744-2.057zm-34.3 3.727v6.892c-.014.384.118 1.057-.35.442-2.15-1.79-5.625-1.356-7.469.677-1.932 2.075-2.266 5.117-1.861 7.817.286 2.057 1.366 4.237 3.416 5.011 2.216.851 4.83-.007 6.334-1.79.233-.257.186.527.295.732.066.547.3 1.242.988 1.172h2.129v-20.953h-3.482zm22.08 6.253c-1.826.057-3.669.994-4.43 2.715-.4-1.146-1.257-2.227-2.465-2.564-1.843-.516-3.818.345-4.994 1.787-.178-.588-.093-1.435-.805-1.666-.807-.085-1.627-.016-2.44-.04v14.468h3.485v-10.54c.703-1 2.04-1.68 3.287-1.38 1.105.175 1.65 1.34 1.639 2.361.021 3.186.002 6.373.008 9.559h3.498v-7.051c.04-1.074-.112-2.171.15-3.223.342-1.293 1.818-1.97 3.065-1.642 1.104.187 1.7 1.336 1.697 2.375.022 3.18.002 6.36.008 9.54h3.484v-6.599c-.055-1.814.221-3.707-.521-5.422-.611-1.576-2.232-2.574-3.889-2.648a5.556 5.556 0 0 0-.777-.03zm-24.82 2.612c1.05.01 2.113.466 2.74 1.314v6.487c-.781 1.01-1.961 1.807-3.286 1.734-.216 0-.432-.017-.644-.059-1.38-.206-2.03-1.649-2.192-2.89-.193-1.748-.24-3.679.711-5.23.582-.933 1.62-1.367 2.67-1.356zm37.04 22.658v.002a5.321 5.321 0 0 0-1.836.31c-1.503.508-2.506 1.987-2.681 3.53l1.16.205c.566.192 1.122-.204 1.201-.78.34-1.023 1.527-1.552 2.543-1.31.846.124 1.426.948 1.408 1.777.066 1.348-.75 2.515-1.638 3.446-1.478 1.533-3.003 3.02-4.5 4.535-.492.424-.398 1.107-.405 1.687h9.094v-1.13c.051-.395-.112-.859-.545-.95-.566-.06-1.141-.014-1.71-.029-1.211.027-2.447-.113-3.62.266l1.998-2.036c.968-1.013 2.027-1.96 2.815-3.126.862-1.246 1.148-2.952.46-4.34-.656-1.399-2.26-2.087-3.744-2.057zm-12.22 9.98c-1.826.057-3.669.994-4.43 2.715-.4-1.146-1.257-2.227-2.465-2.564-1.843-.516-3.818.347-4.994 1.789-.178-.588-.093-1.436-.805-1.666-.807-.085-1.627-.018-2.44-.041v14.469h3.485v-10.54c.703-1 2.04-1.681 3.287-1.382 1.105.175 1.65 1.342 1.639 2.363.021 3.186.002 6.373.008 9.559h3.498v-7.051c.04-1.074-.112-2.171.15-3.223.342-1.293 1.818-1.97 3.065-1.642 1.104.187 1.7 1.334 1.697 2.373.022 3.18.002 6.362.008 9.543h3.484v-6.6c-.055-1.814.221-3.709-.521-5.424-.611-1.576-2.232-2.572-3.889-2.646a5.556 5.556 0 0 0-.777-.032zm-22.444.002c-1.167-.014-2.334.21-3.385.717-1.948.916-3.216 2.913-3.54 5.004-.39 2.4-.04 5.066 1.558 6.983 1.236 1.533 3.244 2.326 5.193 2.199 1.987-.03 4.02-.797 5.301-2.362-.374-.469-.738-.947-1.119-1.41-.47-.411-1.085-.058-1.463.297-1.016.843-2.469 1.047-3.705.627-1.4-.499-2.109-2.006-2.266-3.396-.169-1.62-.116-3.432.885-4.795 1.128-1.43 3.355-1.54 4.836-.621.508.393 1.357.77 1.776.048l.916-1.27c-.808-.809-1.812-1.43-2.914-1.745a8.864 8.864 0 0 0-2.073-.276z" style="shape-padding:0;vector-effect:none;fill:#00f;fill-opacity:1;stroke:none;stroke-width:.85044134;stroke-linecap:butt;stroke-linejoin:miter;stroke-miterlimit:4;stroke-dasharray:none;stroke-dashoffset:0;stroke-opacity:1" transform="scale(.26458)"/><path d="M62.28 96.173c0 1.702-.004 3.404.004 5.106 1.7.011 3.401.002 5.102.002l.004-5.108zm5.741 0c0 1.701-.003 3.404.005 5.106 1.7.011 3.4.002 5.101.002l.004-5.108zm5.742 0c0 1.7-.004 3.404.004 5.106 1.7.011 3.401.002 5.102.002l.004-5.108zm5.741 0c0 1.701-.004 3.404.004 5.106 1.7.011 3.402.002 5.102.002l.004-5.108zm5.741 0c0 1.701-.004 3.404.005 5.106 1.7.011 3.401.002 5.102.002l.004-5.108zm5.742 0c0 1.701-.004 3.404.004 5.106 1.701.011 3.401.002 5.102.002l.004-5.108zm5.74 0c.002 1.702-.003 3.404.006 5.106 1.7.011 3.401.002 5.102.002l.002-2.554.002-2.554zm5.742 0c0 1.701-.003 3.404.005 5.106 1.7.011 3.402.002 5.102.002l.004-5.108zm5.741 0c.001 1.702-.003 3.404.005 5.106 1.701.011 3.402.002 5.102.002l.002-2.554.002-2.554h-5.11zm5.742 0c0 1.701-.003 3.404.005 5.106 1.7.011 3.4.002 5.101.002l.004-5.108h-5.11zm-51.672 5.743c0 1.7-.004 3.404.004 5.106 1.7.01 3.401.002 5.102.002l.004-5.108zm5.741 0c0 1.7-.003 3.404.005 5.106 1.7.01 3.4.002 5.101.002l.004-5.108zm5.742 0c0 1.7-.004 3.404.004 5.106 1.7.01 3.401.002 5.102.002l.004-5.108zm5.741 0c0 1.7-.004 3.404.004 5.106 1.7.01 3.402.002 5.102.002l.004-5.108zm5.741 0c0 1.7-.004 3.404.005 5.106 1.7.01 3.401.002 5.102.002l.004-5.108zm5.742 0c0 1.7-.004 3.404.004 5.106 1.701.01 3.401.002 5.102.002l.004-5.108zm5.74 0c.001 1.701-.003 3.404.006 5.106 1.7.01 3.401.002 5.102.002 0-1.703.003-3.406.004-5.108zm5.742 0c0 1.7-.003 3.404.005 5.106 1.7.01 3.402.002 5.102.002l.004-5.108zm5.741 0c0 1.7-.003 3.404.005 5.106 1.701.01 3.402.002 5.102.002l.004-5.108h-5.11zm5.742 0c0 1.7-.003 3.404.005 5.106 1.7.01 3.4.002 5.101.002l.004-5.108h-5.11zm-51.672 5.743c0 1.7-.004 3.404.004 5.106 1.7.01 3.401.002 5.102.002l.004-5.109zm5.741 0c0 1.7-.003 3.404.005 5.106 1.7.01 3.4.002 5.101.002l.004-5.109zm5.742 0c0 1.7-.004 3.404.004 5.106 1.7.01 3.401.002 5.102.002l.004-5.109zm5.741 0c0 1.7-.004 3.404.004 5.106 1.7.01 3.402.002 5.102.002l.004-5.109zm5.741 0c0 1.7-.004 3.404.005 5.106 1.7.01 3.401.002 5.102.002l.004-5.109zm5.742 0c0 1.7-.004 3.404.004 5.106 1.701.01 3.401.002 5.102.002l.004-5.109zm5.74 0c.001 1.701-.003 3.404.006 5.106 1.7.01 3.401.002 5.102.002 0-1.703.003-3.406.004-5.109zm5.742 0c0 1.7-.003 3.404.005 5.106 1.7.01 3.402.002 5.102.002l.004-5.109zm5.741 0c0 1.7-.003 3.404.005 5.106 1.701.01 3.402.002 5.102.002l.004-5.109h-5.11zm5.742 0c0 1.7-.003 3.404.005 5.106 1.7.01 3.4.002 5.101.002l.004-5.109h-5.11zM62.28 113.4c0 1.701-.004 3.405.004 5.107 1.7.01 3.401.002 5.102.002l.004-5.109zm5.741 0c0 1.701-.003 3.405.005 5.107 1.7.01 3.4.002 5.101.002l.004-5.109zm5.742 0c0 1.701-.004 3.405.004 5.107 1.7.01 3.401.002 5.102.002l.004-5.109zm5.741 0c0 1.701-.004 3.405.004 5.107 1.7.01 3.402.002 5.102.002l.004-5.109zm5.741 0c0 1.701-.004 3.405.005 5.107 1.7.01 3.401.002 5.102.002l.004-5.109zm5.742 0c0 1.701-.004 3.405.004 5.107 1.701.01 3.401.002 5.102.002l.004-5.109zm5.74 0c.001 1.702-.003 3.405.006 5.107 1.7.01 3.401.002 5.102.002 0-1.703.003-3.406.004-5.109zm5.742 0c0 1.701-.003 3.405.005 5.107 1.7.01 3.402.002 5.102.002l.004-5.109zm5.741 0c0 1.701-.003 3.405.005 5.107 1.701.01 3.402.002 5.102.002l.004-5.109h-5.11zm5.742 0c0 1.701-.003 3.405.005 5.107 1.7.01 3.4.002 5.101.002l.004-5.109h-5.11zm-23.207 5.154a2.458 2.458 0 0 0-1.68.59h-3.82c0 1.7-.004 3.404.005 5.106.78.005 1.56.005 2.341.004l-.006.385.005.247h-2.345c0 1.701-.004 3.405.005 5.106 1.258.008 2.518.006 3.777.004.39.351.887.578 1.419.61a2.505 2.505 0 0 0 1.894-.61c1.25.001 2.502-.002 3.753-.002l.004-5.107h-2.305l.005-.303c0-.11-.003-.22-.005-.33.767 0 1.534-.003 2.3-.003l.005-5.107h-3.803a2.467 2.467 0 0 0-1.55-.59zm13.103 0a2.463 2.463 0 0 0-2.01.927v-.337h-5.11c0 1.701-.004 3.404.005 5.106 1.32.009 2.641.005 3.962.003l-.006.386c0 .082.003.165.005.247h-3.966c0 1.702-.004 3.405.005 5.107 1.7.01 3.401.002 5.102.002v-.315c.413.53 1.035.886 1.714.925a2.507 2.507 0 0 0 1.892-.607c.712-.001 1.423-.003 2.135-.003l.004-5.108h-.685l.006-.303-.006-.331.68-.001.005-5.108h-2.183a2.467 2.467 0 0 0-1.55-.59zm-41.568.59c0 1.7-.004 3.404.004 5.106 1.7.01 3.401.002 5.102.002l.004-5.108zm5.741 0c0 1.7-.003 3.404.005 5.106 1.7.01 3.4.002 5.101.002l.004-5.108zm5.742 0c0 1.7-.004 3.404.004 5.106 1.7.01 3.401.002 5.102.002l.004-5.108zm5.741 0c0 1.7-.004 3.404.004 5.106 1.7.01 3.402.002 5.102.002l.004-5.108zm28.706 0c0 1.7-.003 3.404.005 5.106 1.701.01 3.402.002 5.102.002l.004-5.108h-5.11zm5.742 0c0 1.7-.003 3.404.005 5.106 1.7.01 3.4.002 5.101.002l.004-5.108h-5.11zm-51.672 5.742c0 1.701-.004 3.405.004 5.107 1.7.01 3.401.002 5.102.002l.004-5.108zm5.741 0c0 1.702-.003 3.405.005 5.107 1.7.01 3.4.002 5.101.002l.004-5.108zm5.742 0c0 1.701-.004 3.405.004 5.107 1.7.01 3.401.002 5.102.002l.004-5.108zm5.741 0c0 1.702-.004 3.405.004 5.107 1.7.01 3.402.002 5.102.002l.004-5.108zm28.706 0c0 1.702-.003 3.405.005 5.107 1.701.01 3.402.002 5.102.002l.004-5.108h-5.11zm5.742 0c0 1.702-.003 3.405.005 5.107 1.7.01 3.4.002 5.101.002l.004-5.108h-5.11zM62.28 130.63c0 1.7-.004 3.405.004 5.106 1.7.011 3.401.002 5.102.002l.004-5.108zm5.741 0c0 1.701-.003 3.405.005 5.106 1.7.011 3.4.002 5.101.002l.004-5.108zm5.742 0c0 1.7-.004 3.405.004 5.106 1.7.011 3.401.002 5.102.002l.004-5.108zm5.741 0c0 1.701-.004 3.405.004 5.106 1.7.011 3.402.002 5.102.002l.004-5.108zm5.741 0c0 1.701-.004 3.405.005 5.106 1.7.011 3.401.002 5.102.002l.004-5.108zm5.742 0c0 1.701-.004 3.405.004 5.106 1.701.011 3.401.002 5.102.002l.004-5.108zm5.74 0c.001 1.702-.003 3.405.006 5.106 1.7.011 3.401.002 5.102.002 0-1.702.003-3.405.004-5.108zm5.742 0c0 1.701-.003 3.405.005 5.106 1.7.011 3.402.002 5.102.002l.004-5.108zm5.741 0c0 1.701-.003 3.405.005 5.106 1.701.011 3.402.002 5.102.002l.004-5.108h-5.11zm5.742 0c0 1.701-.003 3.405.005 5.106 1.7.011 3.4.002 5.101.002l.004-5.108h-5.11zm-51.672 5.743c0 1.7-.004 3.404.004 5.106 1.7.011 3.401.002 5.102.002l.004-5.108zm5.741 0c0 1.701-.003 3.404.005 5.106 1.7.011 3.4.002 5.101.002l.004-5.108zm5.742 0c0 1.7-.004 3.404.004 5.106 1.7.011 3.401.002 5.102.002l.004-5.108zm5.741 0c0 1.701-.004 3.404.004 5.106 1.7.011 3.402.002 5.102.002l.004-5.108zm5.741 0c0 1.701-.004 3.404.005 5.106 1.7.011 3.401.002 5.102.002l.004-5.108zm5.742 0c0 1.701-.004 3.404.004 5.106 1.701.011 3.401.002 5.102.002l.004-5.108zm5.74 0c.001 1.701-.003 3.404.006 5.106 1.7.011 3.401.002 5.102.002 0-1.702.003-3.405.004-5.108zm5.742 0c0 1.701-.003 3.404.005 5.106 1.7.011 3.402.002 5.102.002l.004-5.108zm5.741 0c0 1.701-.003 3.404.005 5.106 1.701.011 3.402.002 5.102.002l.004-5.108h-5.11zm5.742 0c0 1.701-.003 3.404.005 5.106 1.7.011 3.4.002 5.101.002l.004-5.108h-5.11zm-51.672 5.743c0 1.7-.004 3.404.004 5.106 1.7.011 3.401.002 5.102.002l.004-5.108zm5.741 0c0 1.7-.003 3.404.005 5.106 1.7.011 3.4.002 5.101.002l.004-5.108zm5.742 0c0 1.7-.004 3.404.004 5.106 1.7.011 3.401.002 5.102.002l.004-5.108zm5.741 0c0 1.7-.004 3.404.004 5.106 1.7.011 3.402.002 5.102.002l.004-5.108zm5.741 0c0 1.7-.004 3.404.005 5.106 1.7.011 3.401.002 5.102.002l.004-5.108zm5.742 0c0 1.7-.004 3.404.004 5.106 1.701.011 3.401.002 5.102.002l.004-5.108zm5.74 0c.001 1.701-.003 3.404.006 5.106 1.7.011 3.401.002 5.102.002 0-1.703.003-3.405.004-5.108zm5.742 0c0 1.7-.003 3.404.005 5.106 1.7.011 3.402.002 5.102.002l.004-5.108zm5.741 0c0 1.7-.003 3.404.005 5.106 1.701.011 3.402.002 5.102.002l.004-5.108h-5.11zm5.742 0c0 1.7-.003 3.404.005 5.106 1.7.011 3.4.002 5.101.002l.004-5.108h-5.11zm-51.672 5.743c0 1.7-.004 3.404.004 5.106 1.7.01 3.401.002 5.102.002l.004-5.108zm5.741 0c0 1.7-.003 3.404.005 5.106 1.7.01 3.4.002 5.101.002l.004-5.108zm5.742 0c0 1.7-.004 3.404.004 5.106 1.7.01 3.401.002 5.102.002l.004-5.108zm5.741 0c0 1.7-.004 3.404.004 5.106 1.7.01 3.402.002 5.102.002l.004-5.108zm5.741 0c0 1.7-.004 3.404.005 5.106 1.7.01 3.401.002 5.102.002l.004-5.108zm5.742 0c0 1.7-.004 3.404.004 5.106 1.701.01 3.401.002 5.102.002l.004-5.108zm5.74 0c.001 1.701-.003 3.404.006 5.106 1.7.01 3.401.002 5.102.002 0-1.703.003-3.406.004-5.108zm5.742 0c0 1.7-.003 3.404.005 5.106 1.7.01 3.402.002 5.102.002l.004-5.108zm5.741 0c0 1.7-.003 3.404.005 5.106 1.701.01 3.402.002 5.102.002l.004-5.108h-5.11zm5.742 0c0 1.7-.003 3.404.005 5.106 1.7.01 3.4.002 5.101.002l.004-5.108h-5.11zM91.76 170.83c-.165 0-.331.026-.486.083-.398.134-.664.525-.71.933l.307.055c.15.05.297-.054.318-.206.09-.271.404-.411.673-.347.224.032.378.25.373.47.017.357-.199.665-.434.912-.39.405-.794.799-1.19 1.2-.13.112-.106.292-.107.446h2.405v-.3c.014-.104-.03-.226-.144-.25-.15-.016-.302-.004-.452-.008-.32.007-.648-.03-.958.07l.528-.538c.256-.269.537-.519.745-.828.228-.33.304-.78.122-1.148-.174-.37-.598-.552-.99-.544zm-11.45.986v5.544h.922v-2.768c.255-.263.62-.46.997-.391.31.032.494.347.493.637.006.84.001 1.681.003 2.522h.921v-1.763c-.013-.475.057-.972-.145-1.419-.173-.425-.615-.699-1.068-.704-.449-.037-.885.162-1.2.473v-2.131zm8.216 1.655c-.483.014-.97.263-1.172.718-.105-.304-.333-.59-.652-.679-.488-.136-1.01.092-1.322.474-.047-.156-.024-.38-.213-.441-.213-.022-.43-.005-.644-.011v3.828h.92v-2.789c.187-.264.541-.444.871-.365.292.046.436.355.433.625.006.843.001 1.686.003 2.53h.925v-1.867c.01-.284-.03-.574.04-.852.09-.342.48-.522.81-.435.293.05.45.353.45.628.005.842 0 1.684.002 2.525h.921v-1.746c-.014-.48.06-.981-.137-1.435-.162-.417-.59-.68-1.029-.7a1.506 1.506 0 0 0-.206-.008zm7.052 6.686c-.165 0-.33.026-.486.082-.398.134-.663.526-.71.934l.307.055c.15.05.297-.054.318-.206.09-.271.404-.411.673-.347.224.033.377.25.373.47.017.356-.199.665-.434.912-.391.405-.794.799-1.19 1.2-.13.112-.105.292-.107.446h2.405v-.3c.014-.104-.03-.226-.144-.25-.15-.016-.301-.004-.452-.008-.32.007-.648-.03-.958.07l.529-.538c.256-.269.536-.519.744-.828.229-.33.304-.78.122-1.147-.173-.37-.597-.553-.99-.545zm-12.865.986v1.824c-.003.101.032.28-.092.116-.57-.473-1.488-.358-1.976.18-.511.549-.6 1.354-.493 2.068.076.544.362 1.121.904 1.326.587.225 1.278-.002 1.676-.474.062-.068.05.14.078.194.017.144.08.329.261.31h.564v-5.544zm3.171 1.649c-.524.03-1.039.24-1.422.6l.134.242c.063.148.219.26.383.214.208-.06.374-.219.584-.28.261-.074.583-.097.803.09.233.213.207.547.208.835a6.338 6.338 0 0 0-.67.048c-.484.07-.995.196-1.36.542-.348.334-.342.927-.054 1.296.27.337.741.403 1.147.354.393-.035.74-.251 1.022-.516l.074.243c.022.156.172.247.322.227h.418v-1.818c-.01-.388.04-.787-.086-1.162a1.283 1.283 0 0 0-.98-.883 2.22 2.22 0 0 0-.523-.032zm6.46.006c-.483.015-.97.263-1.172.718-.105-.303-.332-.59-.652-.678-.488-.137-1.01.091-1.321.473-.047-.156-.025-.38-.213-.441-.214-.023-.43-.004-.645-.01v3.827h.921V183.9c.186-.265.54-.445.87-.366.292.047.437.355.434.625.005.843 0 1.686.002 2.53h.925v-1.866c.01-.284-.03-.575.04-.853.09-.342.481-.521.81-.435.293.05.45.354.45.629.006.841 0 1.683.002 2.524h.922v-1.746c-.015-.48.059-.98-.138-1.434-.161-.418-.59-.682-1.029-.701a1.565 1.565 0 0 0-.206-.008zm-10.356.69c.278.004.56.124.725.349v1.716c-.206.267-.518.478-.869.459a.937.937 0 0 1-.17-.016c-.365-.054-.537-.436-.58-.765-.051-.462-.064-.973.188-1.383.154-.247.428-.362.706-.36zm4.586 1.565v.463c-.012.08.033.183-.05.233a1.12 1.12 0 0 1-.845.364c-.198.003-.448-.07-.5-.29a.448.448 0 0 1 .228-.542c.359-.182.772-.202 1.167-.228zm.974 4.43v.001c-.165 0-.33.026-.486.083-.398.134-.663.525-.71.933l.307.055c.15.05.297-.054.318-.207.09-.27.404-.41.673-.346.224.033.377.25.373.47.017.357-.198.665-.433.912-.391.405-.795.799-1.192 1.2-.13.112-.104.292-.106.445h2.405v-.298c.014-.105-.03-.227-.144-.251-.15-.016-.301-.004-.452-.008-.32.007-.648-.03-.958.07l.529-.539c.256-.268.536-.518.744-.827.229-.33.304-.78.122-1.148-.173-.37-.597-.552-.99-.544zm-3.234 2.642c-.483.015-.97.262-1.172.718-.105-.304-.332-.59-.652-.679-.488-.136-1.01.092-1.321.474-.047-.156-.025-.38-.213-.441-.214-.023-.43-.005-.645-.01v3.827h.921v-2.788c.186-.265.54-.445.87-.366.293.046.437.355.434.625.005.843 0 1.686.002 2.53h.925v-1.866c.01-.284-.029-.575.04-.853.091-.342.481-.52.81-.435.293.05.45.354.45.628.006.842 0 1.684.002 2.525h.922v-1.746c-.015-.48.059-.981-.138-1.435-.161-.417-.59-.68-1.029-.7a1.573 1.573 0 0 0-.206-.008zm7.475 6.686c-.165 0-.33.026-.486.083-.398.134-.663.525-.71.933l.307.055c.15.05.297-.054.318-.206.09-.271.404-.411.673-.347.224.032.377.25.373.47.017.356-.199.665-.434.912-.39.405-.794.799-1.19 1.2-.13.112-.106.292-.108.446h2.407v-.3c.013-.104-.03-.226-.145-.25-.15-.016-.302-.004-.452-.008-.32.007-.647-.03-.958.07l.529-.538c.256-.269.536-.519.744-.828.229-.33.304-.78.122-1.148-.174-.37-.598-.552-.99-.544zm-9.076.986v1.824c-.003.101.032.28-.092.117-.57-.474-1.488-.36-1.976.179-.511.549-.6 1.354-.493 2.068.076.545.362 1.12.904 1.326.587.225 1.278-.002 1.676-.474.062-.068.05.14.078.194.017.144.08.328.261.31h.564v-5.544zm5.842 1.655c-.483.015-.97.263-1.172.718-.105-.304-.332-.59-.652-.679-.488-.136-1.01.092-1.321.474-.047-.156-.025-.38-.213-.441-.214-.022-.43-.006-.646-.01v3.827h.922v-2.789c.186-.264.54-.444.87-.365.292.046.437.355.434.625.005.843 0 1.686.002 2.53h.925v-1.867c.011-.284-.03-.574.04-.852.09-.342.481-.521.81-.435.293.05.45.354.45.628.006.842 0 1.684.002 2.525h.922v-1.746c-.015-.48.058-.981-.138-1.435-.162-.417-.59-.68-1.029-.7a1.499 1.499 0 0 0-.206-.008zm-6.567.69c.278.004.56.124.725.349v1.716c-.206.267-.518.478-.869.459a.895.895 0 0 1-.17-.016c-.365-.055-.537-.436-.58-.765-.051-.462-.064-.973.188-1.384.154-.246.428-.361.706-.358zm9.16 5.996c-.166 0-.33.026-.486.082-.398.135-.664.526-.71.934l.307.054c.15.051.297-.054.318-.206.09-.27.404-.41.673-.346.224.033.377.25.372.47.018.356-.198.666-.433.912-.391.405-.795.799-1.19 1.2-.13.111-.106.292-.107.446h2.405v-.3c.014-.104-.03-.226-.144-.25-.15-.016-.302-.004-.453-.008-.32.007-.647-.03-.957.07l.528-.538c.257-.269.537-.519.745-.828.228-.33.304-.78.122-1.147-.174-.37-.598-.553-.99-.545zm-3.234 2.64c-.483.016-.97.264-1.172.719-.106-.303-.333-.59-.652-.679-.488-.136-1.01.092-1.321.473-.048-.155-.025-.38-.213-.44-.214-.023-.43-.004-.645-.01v3.827h.921v-2.789c.186-.264.54-.444.87-.365.292.046.436.355.433.625.006.843.001 1.686.003 2.529h.925v-1.866c.01-.284-.03-.574.04-.852.09-.342.48-.521.81-.435.293.05.45.354.45.629.005.841 0 1.682.002 2.524h.922v-1.746c-.015-.48.059-.981-.138-1.435-.162-.417-.59-.68-1.03-.7a1.565 1.565 0 0 0-.205-.009zm-5.938.001a2.005 2.005 0 0 0-.896.19c-.515.242-.85.77-.937 1.323-.103.635-.01 1.341.413 1.848.327.406.858.616 1.374.582.526-.008 1.064-.211 1.403-.625-.1-.124-.196-.25-.297-.373-.124-.11-.287-.015-.387.079a1.035 1.035 0 0 1-.98.165c-.37-.132-.558-.53-.6-.898-.044-.429-.03-.908.235-1.27.299-.378.888-.406 1.28-.163.134.104.358.203.469.012l.242-.335a1.797 1.797 0 0 0-.77-.462 2.343 2.343 0 0 0-.549-.073zm11.824 6.686c-.165 0-.33.026-.486.082-.398.135-.663.526-.71.934l.307.054c.15.051.297-.054.318-.206.09-.27.404-.41.673-.347.224.033.378.251.373.47.017.357-.199.666-.434.912-.39.406-.794.8-1.19 1.2-.13.113-.106.293-.107.447h2.405v-.3c.014-.104-.029-.227-.143-.25-.15-.017-.302-.005-.453-.009-.32.007-.648-.03-.958.07l.529-.538c.256-.268.536-.518.744-.827.228-.33.304-.781.122-1.148-.174-.37-.598-.553-.99-.545zm-9.486 2.64c-.483.015-.97.263-1.172.719-.105-.304-.332-.59-.652-.679-.488-.136-1.01.092-1.321.473-.047-.155-.025-.38-.213-.44-.214-.023-.43-.005-.645-.011v3.828h.921v-2.789c.186-.264.54-.445.87-.365.293.046.437.355.434.625.005.843 0 1.686.002 2.529h.925v-1.866c.01-.284-.029-.574.04-.852.091-.342.481-.521.81-.435.293.05.45.353.45.628.006.841 0 1.683.002 2.525h.922v-1.746c-.015-.48.059-.982-.138-1.435-.161-.417-.59-.68-1.029-.7a1.506 1.506 0 0 0-.206-.009zm6.252 0c-.483.015-.97.263-1.171.719-.106-.304-.333-.59-.653-.679-.487-.136-1.01.092-1.32.473-.048-.155-.025-.38-.214-.44-.213-.023-.43-.005-.645-.011v3.828h.921v-2.789c.186-.264.54-.445.87-.365.293.046.436.355.433.625.006.843.001 1.686.003 2.529h.926v-1.866c.01-.284-.03-.574.04-.852.09-.342.48-.521.81-.435.292.05.45.353.449.628.005.841 0 1.683.002 2.525h.922v-1.746c-.015-.48.059-.982-.138-1.435-.161-.417-.59-.68-1.029-.7a1.506 1.506 0 0 0-.206-.009z" style="shape-padding:0;vector-effect:none;fill:#f60;fill-opacity:1;stroke:none;stroke-width:.22501262;stroke-linecap:butt;stroke-linejoin:miter;stroke-miterlimit:4;stroke-dasharray:none;stroke-dashoffset:0;stroke-opacity:1"/><path d="M254.99 649.43a26.294 26.294 0 0 1 3.405 6.502l-90.707-.047-.01 17.45H282.48l-27.49-23.905zm-.187 34.695a26.294 26.294 0 0 1 3.404 6.502l-90.707-.047-.008 17.45h114.801l-27.49-23.905zm0 34.693a26.306 26.306 0 0 1 3.404 6.504l-90.707-.049-.008 17.452h114.801l-27.49-23.907zm0 34.696a26.294 26.294 0 0 1 3.404 6.502l-90.707-.047-.008 17.45h114.801l-27.49-23.905zm0 34.695a26.294 26.294 0 0 1 3.404 6.502l-90.707-.049-.008 17.451h114.801l-27.49-23.904zm0 34.693a26.294 26.294 0 0 1 3.404 6.502l-90.707-.047-.008 17.452h114.801l-27.49-23.907z" style="color:#000;shape-padding:0;clip-rule:nonzero;display:inline;overflow:visible;visibility:visible;opacity:1;isolation:auto;mix-blend-mode:normal;color-interpolation:sRGB;color-interpolation-filters:linearRGB;solid-color:#000;solid-opacity:1;vector-effect:none;fill:url(#f);fill-opacity:1;fill-rule:nonzero;stroke:none;stroke-width:6.75037909;stroke-linecap:butt;stroke-linejoin:miter;stroke-miterlimit:4;stroke-dasharray:none;stroke-dashoffset:0;stroke-opacity:1;color-rendering:auto;image-rendering:auto;shape-rendering:auto;text-rendering:auto;enable-background:accumulate" transform="scale(.26458)"/><path d="m343.766 46.098-1.961 3.666-3.842-2.047-.766 1.465 3.832 2.05c-.676 1.27-1.35 2.538-2.027 3.807l1.453.791 2.035-3.82 3.65 1.945.774-1.478-3.648-1.936 1.96-3.664-1.46-.78zm4.976 14.013-.527.702c-.297.297-.446.798-.113 1.13.555.428 1.171.779 1.752 1.174.236.16.674.351.09.375-2.608.77-5.203 1.58-7.805 2.367-.257-.84-.512-1.68-.768-2.521-.53.162-1.063.322-1.594.484l2.1 6.887 1.592-.484-.682-2.239 10.873-3.314-.531-1.748-4.387-2.813zm2.947 9.688c-.92-.003-1.853.164-2.724.404-1.85.517-3.77 1.355-4.893 2.99-1.434 2.032-.533 5.21 1.705 6.25 1.748.82 3.78.546 5.567.004 1.627-.496 3.282-1.289 4.334-2.677 1.547-1.955.842-5.17-1.334-6.35-.825-.444-1.734-.618-2.655-.621zm.446 2.203a4.49 4.49 0 0 1 1.115.16c1.233.323 1.802 1.982 1.043 3-.865 1.154-2.294 1.667-3.62 2.09-1.262.371-2.645.711-3.95.36-1.215-.272-1.869-1.855-1.196-2.903.748-1.119 2.068-1.642 3.293-2.063 1.062-.33 2.193-.67 3.315-.644zM42.762 73.631l-1.575.48 2.56 8.395 1.573-.48-2.558-8.395zm3.435 2.127c-.095.01-.19.03-.283.064-.549.146-.944.66-.959 1.225-.05.771.63 1.505 1.414 1.453.811-.009 1.457-.846 1.277-1.633-.111-.672-.783-1.174-1.449-1.11zm-6.129 1.869c-.095.01-.19.029-.283.062-.548.146-.944.66-.959 1.225-.049.772.63 1.507 1.414 1.455.811-.008 1.457-.846 1.278-1.633-.112-.672-.784-1.174-1.45-1.109zm315.373 6.775-1.959 3.666-3.841-2.047-.768 1.467 3.834 2.05-2.03 3.808 1.454.789 2.035-3.82 3.652 1.945.772-1.477-3.649-1.937 1.961-3.664-1.46-.78zM49.85 87.311l-.528.7c-.297.298-.446.801-.113 1.134.556.427 1.17.776 1.75 1.171.237.16.677.351.092.375-2.607.77-5.202 1.583-7.805 2.37l-.77-2.524-1.591.484 2.1 6.89 1.591-.487-.681-2.238 10.873-3.315-.534-1.748-4.384-2.812zm2.947 9.687c-.92-.003-1.853.166-2.725.406-1.85.517-3.77 1.355-4.892 2.99-1.435 2.032-.536 5.21 1.703 6.25 1.748.82 3.78.544 5.566.002 1.628-.496 3.285-1.289 4.336-2.677 1.548-1.955.842-5.17-1.334-6.35-.825-.444-1.734-.618-2.654-.621zm307.621 1.418-.527.701c-.297.298-.446.799-.114 1.131.556.427 1.172.778 1.752 1.174.237.16.677.35.092.375-2.607.77-5.204 1.58-7.807 2.367-.256-.84-.51-1.68-.767-2.521l-1.594.484 2.1 6.889 1.593-.487-.683-2.238 10.875-3.314-.533-1.748-4.387-2.813zm-307.176.785c.374.009.746.059 1.115.162 1.233.323 1.8 1.982 1.041 3-.864 1.154-2.291 1.666-3.617 2.088-1.262.372-2.646.712-3.95.36-1.216-.272-1.871-1.855-1.198-2.903.747-1.118 2.07-1.642 3.295-2.062 1.061-.33 2.193-.67 3.314-.645zm310.123 8.903c-.92-.004-1.853.164-2.724.404-1.85.516-3.77 1.357-4.893 2.992-1.434 2.032-.534 5.21 1.705 6.25 1.748.82 3.78.544 5.567.002 1.627-.497 3.282-1.29 4.334-2.678 1.547-1.955.842-5.17-1.334-6.35-.825-.443-1.734-.617-2.655-.62zm.446 2.203c.373.008.746.058 1.115.162 1.232.323 1.801 1.982 1.043 3-.865 1.153-2.294 1.665-3.62 2.088-1.262.371-2.643.711-3.949.359-1.215-.272-1.87-1.854-1.197-2.902.747-1.119 2.068-1.643 3.293-2.063 1.062-.33 2.193-.67 3.315-.644zm-309.372 1.629-1.576.48 2.559 8.395 1.576-.48-2.559-8.395zm3.434 2.126c-.095.01-.19.031-.283.065-.549.145-.942.66-.957 1.225-.05.771.628 1.504 1.412 1.453.81-.009 1.459-.844 1.28-1.631-.113-.673-.786-1.177-1.452-1.112zm-6.129 1.87c-.095.009-.19.03-.283.064-.549.145-.944.66-.959 1.225-.05.771.63 1.504 1.414 1.453.81-.009 1.457-.846 1.277-1.633-.111-.673-.783-1.174-1.449-1.11zm314.906 7.03-1.576.481 2.326 7.63 1.575-.481-2.325-7.63zm-3.03.925c-.529.16-1.057.323-1.585.484l2.324 7.627 1.586-.482-2.326-7.63zm-302.095 1.728-.527.701c-.297.298-.446.8-.113 1.133.556.428 1.171.777 1.752 1.172.236.16.674.35.09.375-2.608.77-5.203 1.583-7.805 2.37-.256-.842-.511-1.683-.768-2.524l-1.593.486 2.1 6.887 1.591-.485-.682-2.24 10.873-3.314-.53-1.746-4.388-2.815zm2.948 9.688c-.92-.003-1.853.166-2.725.406-1.85.516-3.77 1.355-4.893 2.99-1.434 2.032-.533 5.21 1.706 6.25 1.748.82 3.78.544 5.566.002 1.628-.496 3.282-1.289 4.334-2.678 1.548-1.954.842-5.169-1.334-6.35-.825-.443-1.734-.617-2.654-.62zm.445 2.205a4.49 4.49 0 0 1 1.115.16c1.233.323 1.802 1.982 1.043 3-.864 1.154-2.294 1.665-3.619 2.088-1.263.371-2.646.711-3.951.36-1.215-.273-1.868-1.853-1.195-2.901.747-1.119 2.067-1.644 3.293-2.065 1.061-.33 2.192-.668 3.314-.642zm316.035 1.812-3.79 7.09-7.43-3.959-1.483 2.836 7.414 3.963-3.926 7.365 2.815 1.528 3.935-7.387 7.06 3.762c.5-.953.999-1.905 1.497-2.858l-7.057-3.746 3.79-7.088-2.825-1.506zM67.758 150.164l-1.576.48 2.324 7.627 1.576-.48-2.324-7.627zm-3.031.924-1.584.482 2.324 7.63 1.584-.485-2.324-7.627zm325.853 15.336-1.02 1.357c-.573.576-.864 1.545-.22 2.188 1.075.826 2.264 1.502 3.387 2.267.457.31 1.308.68.177.727-5.043 1.49-10.062 3.059-15.095 4.58l-1.489-4.879-3.078.938 4.06 13.322 3.08-.94-1.32-4.328 21.032-6.412-1.031-3.379-8.483-5.441zm-312.6.74-3.046.93 4.947 16.234 3.049-.928-4.95-16.236zm6.643 4.115a2.25 2.25 0 0 0-.547.123c-1.061.282-1.826 1.278-1.855 2.37-.095 1.492 1.219 2.91 2.734 2.81 1.568-.017 2.82-1.635 2.473-3.156-.216-1.301-1.518-2.273-2.805-2.147zm-11.855 3.614a2.25 2.25 0 0 0-.547.123c-1.062.28-1.826 1.277-1.856 2.369-.095 1.492 1.22 2.91 2.735 2.81 1.568-.016 2.82-1.634 2.472-3.156-.216-1.3-1.517-2.272-2.804-2.146zm323.511 10.267c-1.78-.006-3.584.319-5.27.783-3.577 1-7.292 2.623-9.462 5.786-2.774 3.93-1.033 10.075 3.297 12.087 3.38 1.587 7.31 1.054 10.765.006 3.149-.96 6.351-2.494 8.385-5.18 2.993-3.78 1.627-9.998-2.582-12.28-1.595-.86-3.352-1.196-5.133-1.202zm.862 4.262c.723.016 1.444.11 2.158.31 2.384.625 3.48 3.834 2.014 5.803-1.673 2.231-4.433 3.224-6.997 4.041-2.441.718-5.115 1.374-7.64.694-2.35-.526-3.618-3.585-2.317-5.612 1.445-2.163 4.004-3.177 6.373-3.99 2.054-.639 4.24-1.295 6.409-1.246zm-305.454 4.203-1.021 1.355c-.574.576-.862 1.545-.219 2.188 1.075.827 2.265 1.505 3.387 2.27.458.308 1.309.677.178.724-5.043 1.49-10.063 3.059-15.096 4.58-.496-1.626-.993-3.252-1.488-4.879l-3.08.94 4.06 13.32 3.08-.937-1.318-4.33 21.031-6.41-1.031-3.382-8.483-5.439zm310.481 10.854c-1.78-.006-3.584.318-5.27.783-3.577.999-7.292 2.622-9.462 5.785-2.774 3.93-1.034 10.075 3.296 12.088 3.381 1.586 7.31 1.054 10.766.006 3.15-.962 6.35-2.494 8.385-5.18 2.993-3.78 1.627-9.998-2.582-12.281-1.596-.86-3.353-1.196-5.133-1.201zm.861 4.261a8.697 8.697 0 0 1 2.159.313c2.383.625 3.48 3.832 2.013 5.8-1.672 2.232-4.432 3.224-6.996 4.042-2.442.718-5.116 1.374-7.64.693-2.35-.526-3.619-3.584-2.317-5.611 1.445-2.164 4.003-3.178 6.373-3.99 2.054-.64 4.239-1.296 6.408-1.247zm-305.642 3.621c-1.78-.006-3.584.32-5.27.784-3.577.998-7.292 2.62-9.463 5.783-2.774 3.93-1.033 10.077 3.297 12.09 3.381 1.586 7.31 1.052 10.766.003 3.148-.96 6.35-2.494 8.385-5.18 2.993-3.78 1.627-9.996-2.582-12.279-1.596-.858-3.353-1.195-5.133-1.2zm.861 4.262c.723.016 1.444.11 2.158.31 2.384.625 3.481 3.835 2.014 5.803-1.672 2.231-4.435 3.222-6.998 4.04-2.442.718-5.116 1.376-7.64.695-2.35-.526-3.617-3.586-2.315-5.614 1.445-2.163 4.001-3.177 6.37-3.99 2.054-.639 4.242-1.293 6.411-1.244zm5.027 15.057c-1.78-.006-3.584.319-5.27.783-3.576.999-7.292 2.62-9.462 5.783-2.774 3.93-1.033 10.077 3.297 12.09 3.38 1.586 7.31 1.052 10.765.004 3.149-.96 6.351-2.492 8.385-5.178 2.993-3.78 1.627-9.998-2.582-12.281-1.595-.859-3.352-1.195-5.133-1.201zm.862 4.261c.723.017 1.444.111 2.158.31 2.384.626 3.48 3.835 2.014 5.804-1.673 2.23-4.435 3.221-6.998 4.039-2.443.718-5.116 1.376-7.641.695-2.35-.526-3.616-3.586-2.315-5.613 1.446-2.164 4.002-3.176 6.372-3.988 2.053-.64 4.24-1.296 6.41-1.247zm2.23 173.07-37.65 32.016 5.459 7.487c1.817 3.647 6.662 5.436 10.166 2.96 5.521-4.39 10.844-9.038 16.289-13.529 2.05-2.213 2.767-1.802 2.08 1.528-.224 25.786-.04 51.578-.1 77.367H77.596v15.793h68.3V516.84H123.7V409.012h-17.332zm236.62 30.313c-5.48-.086-10.984 1.84-14.813 5.867-6.095 6.402-7.84 15.633-8.012 24.178-.158 8.949 1.049 18.629 6.813 25.842 7.36 9.488 23.438 9.614 31.113.46 5.806-6.79 7.294-16.134 7.307-24.8-.005-8.163-1.337-16.91-6.34-23.619-3.68-5.146-9.86-7.83-16.069-7.928zm49.523 0c-5.48-.086-10.981 1.84-14.81 5.867-6.096 6.402-7.842 15.633-8.014 24.178-.159 8.949 1.05 18.629 6.814 25.842 7.36 9.488 23.437 9.614 31.111.46 5.807-6.79 7.296-16.134 7.307-24.8-.004-8.163-1.337-16.91-6.34-23.619-3.68-5.146-9.859-7.83-16.068-7.928zm-99.604.217-14.119 12.006c-1.21 1.804-6.043 3.179-3.683 5.406 1.413 1.993 3.093 5.302 6.105 4.186 2.192-1.33 4.022-3.205 6.035-4.795 1.136-.552 4.392-4.875 3.834-1.573-.112 12.895-.02 25.79-.05 38.684H278.52v7.897h34.15v-7.897h-11.1v-53.914h-8.664zm49.457 8.568c2.921-.106 5.893 1.037 7.676 3.46 4.038 5.517 4.386 12.705 4.47 19.302-.062 6.248-.429 12.976-3.833 18.418-2.911 5.138-10.997 5.918-14.819 1.418-4.041-4.937-4.59-11.659-4.802-17.799-.04-7.03.016-14.638 3.933-20.763 1.585-2.574 4.455-3.93 7.375-4.036zm49.524 0c2.92-.106 5.892 1.037 7.675 3.46 4.038 5.517 4.387 12.705 4.471 19.302-.062 6.248-.428 12.976-3.832 18.418-2.91 5.138-10.999 5.918-14.82 1.418-4.042-4.937-4.591-11.659-4.803-17.799-.04-7.03.016-14.638 3.934-20.763 1.584-2.574 4.454-3.93 7.375-4.036z" style="fill:#fff;fill-opacity:1;stroke:none;stroke-width:.22501262" transform="scale(.26458)"/></svg>