<svg xmlns="http://www.w3.org/2000/svg" xmlns:xlink="http://www.w3.org/1999/xlink" width="449.997" height="757.014" viewBox="0 0 119.062 200.293"><defs><linearGradient id="a"><stop offset="0" style="stop-color:#b3ff80;stop-opacity:1"/><stop offset="1" style="stop-color:teal;stop-opacity:1"/></linearGradient><linearGradient id="b"><stop offset="0" style="stop-color:#ffb380;stop-opacity:1"/><stop offset="1" style="stop-color:#f0f;stop-opacity:1"/></linearGradient><linearGradient id="c"><stop offset="0" style="stop-color:#0f0;stop-opacity:1"/><stop offset="1" style="stop-color:green;stop-opacity:1"/></linearGradient><linearGradient xlink:href="#c" id="f" x1="-11160.672" x2="-10156.52" y1="9514.147" y2="9514.147" gradientTransform="matrix(0.03025,.00002,-.00002,0.030,381.990,-104.223)" gradientUnits="userSpaceOnUse"/><linearGradient xlink:href="#a" id="d" x1="-11160.672" x2="-10156.52" y1="9514.147" y2="9514.147" gradientTransform="matrix(.02272 .07455 -.07455 .02272 1042.185 618.205)" gradientUnits="userSpaceOnUse"/><linearGradient xlink:href="#b" id="e" x1="-11160.672" x2="-10156.52" y1="9514.147" y2="9514.147" gradientTransform="scale(-.07793) rotate(73.048 1251.511 11456.352)" gradientUnits="userSpaceOnUse"/></defs><path d="M130.99 2.71v25.87h4.301v-8.182c.672.055 1.468-.178 2.016.313 1.395 1.986 2.72 4.028 4.088 6.035.524.643.808 1.646 1.73 1.795 1.447.085 2.901.018 4.352.04l-2.897-4.22c-1.258-1.785-2.428-3.637-3.76-5.367-.851-.44-.085-.664.332-1.105 2.015-2.38 4.007-4.782 6.012-7.17h-2.4c-.92.071-1.98-.235-2.74.427-1.586 1.873-3.099 3.81-4.655 5.71-.41.796-1.334.666-2.078.67V2.71h-4.3zm48.889 11.74a15.054 15.054 0 0 0-2.47 8.136c-.097 3.108.75 6.242 2.47 8.838l.664-.404c.333-.183.78-.45.594-.903-1.155-2.206-1.82-4.682-1.807-7.18a15.115 15.115 0 0 1 1.164-5.804c.151-.634.84-1.198.608-1.873-.341-.354-.818-.538-1.223-.81zm45.508 0c-.22.132-.442.263-.662.396-.335.182-.804.445-.604.904 1.17 2.203 1.81 4.69 1.807 7.188a15.234 15.234 0 0 1-1.114 5.695c-.16.648-.766 1.193-.705 1.873.176.348.59.463.891.683.279.249.505.257.629-.15 1.555-2.494 2.299-5.451 2.223-8.383a14.998 14.998 0 0 0-2.465-8.207zm-42.584.755V28.58h2.222v-4.23c.348.028.76-.092 1.043.162.722 1.027 1.406 2.08 2.114 3.119.27.332.418.853.894.93.748.044 1.5.008 2.25.02l-1.498-2.183c-.65-.923-1.255-1.88-1.943-2.775-.44-.227-.044-.342.172-.57 1.041-1.23 2.07-2.473 3.107-3.707h-1.24c-.475.037-1.025-.122-1.418.22-.82.969-1.6 1.97-2.404 2.952-.213.412-.692.345-1.077.347v-7.66h-2.222zm14.23 0V28.58h2.223V15.205h-2.223zm-3.254.035c-.6-.062-1.24.275-1.468.856-.335.735.11 1.666.878 1.892.86.297 1.873-.422 1.858-1.334a1.423 1.423 0 0 0-.697-1.213 1.268 1.268 0 0 0-.57-.2zm11.78 3.961c-1.252-.014-2.544.42-3.405 1.356-1.097 1.194-1.343 2.942-1.086 4.494.22 1.38 1.094 2.685 2.4 3.244 1.22.533 2.653.56 3.901.107 1.286-.457 2.245-1.617 2.56-2.931.347-1.465.239-3.116-.593-4.405-.804-1.252-2.32-1.894-3.777-1.865zm-13.051.145v9.234h2.232v-9.234h-2.232zM205.64 20.9c.239.009.476.047.697.112.844.24 1.282 1.12 1.4 1.93.137 1.026.145 2.144-.347 3.083-.34.67-1.105 1.01-1.832.98-.328 0-.66-.046-.965-.171-.814-.31-1.18-1.205-1.278-2.012-.107-1.033-.101-2.17.471-3.078.4-.622 1.137-.869 1.854-.844zm-54.07 2.684c-.5.01-.999.157-1.417.436-.734.465-1.175 1.328-1.158 2.193 0 .08.004.16.01.24.046.879.6 1.71 1.396 2.084a2.718 2.718 0 0 0 2.428 0c.852-.404 1.437-1.31 1.44-2.256a2.613 2.613 0 0 0-1.272-2.312 2.596 2.596 0 0 0-1.428-.385zm8.294 0c-.5.01-.996.157-1.414.436-.734.465-1.175 1.328-1.158 2.193 0 .08.002.16.008.24.046.879.601 1.71 1.398 2.084a2.718 2.718 0 0 0 2.428 0c.852-.404 1.437-1.31 1.44-2.256a2.613 2.613 0 0 0-1.272-2.312 2.602 2.602 0 0 0-1.43-.385zm8.297 0c-.5.01-.998.157-1.416.436-.734.465-1.175 1.328-1.158 2.193 0 .08.004.16.01.24.046.879.599 1.71 1.396 2.084a2.718 2.718 0 0 0 2.428 0c.851-.404 1.44-1.31 1.441-2.256a2.615 2.615 0 0 0-1.273-2.312 2.596 2.596 0 0 0-1.428-.385zm44.822 2.42a1.355 1.355 0 0 0-.773.144c-.45.219-.738.71-.727 1.207.001.238.05.481.174.686.286.513.931.763 1.494.63.47-.105.88-.468 1.008-.937.15-.51-.03-1.098-.45-1.427a1.356 1.356 0 0 0-.726-.303zm4.29 0a1.355 1.355 0 0 0-.774.144c-.45.219-.738.71-.727 1.207.001.238.05.481.174.686.286.513.931.763 1.494.63.47-.105.88-.468 1.008-.937a1.362 1.362 0 0 0-1.176-1.73zm4.29 0a1.362 1.362 0 0 0-.775.144c-.45.219-.738.71-.726 1.207 0 .238.05.481.173.686.286.513.933.763 1.496.63.47-.105.878-.468 1.006-.937a1.362 1.362 0 0 0-1.174-1.73z" style="fill:#00f;fill-opacity:1;stroke:none;stroke-width:.22501257" transform="scale(.26458)"/><path d="M144.479 46.129v25.867h4.3V59.08c1.19-1.229 2.895-2.149 4.65-1.824 1.45.152 2.303 1.623 2.301 2.976.028 3.922.005 7.843.012 11.764h4.299V63.77c-.06-2.217.268-4.536-.676-6.622-.806-1.982-2.87-3.262-4.986-3.283-2.094-.172-4.125.756-5.6 2.203v-9.94h-4.3zm49.908 11.736a15.06 15.06 0 0 0-2.471 8.139c-.096 3.108.75 6.242 2.47 8.838l.665-.404c.333-.183.78-.452.594-.905-1.155-2.206-1.82-4.682-1.807-7.18a15.112 15.112 0 0 1 1.164-5.804c.151-.634.84-1.198.607-1.873-.34-.354-.818-.538-1.222-.81zm62.912 0-.662.399c-.335.182-.805.443-.606.902 1.17 2.203 1.811 4.69 1.807 7.188a15.24 15.24 0 0 1-1.113 5.695c-.161.648-.767 1.195-.705 1.875.176.348.59.461.892.681.279.249.505.257.629-.15 1.555-2.494 2.297-5.451 2.22-8.383a14.996 14.996 0 0 0-2.462-8.207zm-40.23.756v13.375h2.224v-4.23c.347.028.758-.092 1.041.162.722 1.027 1.408 2.083 2.115 3.12.272.333.416.852.893.929.748.044 1.5.008 2.25.02l-1.496-2.18c-.65-.924-1.255-1.882-1.944-2.776-.44-.227-.046-.344.17-.572 1.042-1.23 2.073-2.473 3.11-3.707h-1.243c-.475.037-1.023-.122-1.416.22-.82.969-1.601 1.972-2.406 2.954-.212.412-.69.343-1.074.345v-7.66h-2.225zm-19.758.002v13.373h2.222v-6.678c.616-.635 1.497-1.11 2.405-.943.75.079 1.19.84 1.189 1.54.014 2.026.002 4.054.006 6.081h2.224v-4.254c-.031-1.146.137-2.344-.351-3.422-.417-1.025-1.482-1.686-2.576-1.697-1.083-.089-2.134.39-2.897 1.139v-5.139h-2.222zm31.57 1.313c-.343.023-.824-.11-.99.293-.188.862-.326 1.738-.495 2.605l-1.376.227c-.21-.012-.069.273-.11.404.026.321-.11.773.266.933.365.061.741.015 1.111.03v3.894c.031.893-.126 1.841.303 2.666.39.814 1.33 1.182 2.191 1.153.865-.002 1.75-.257 2.42-.819l-.594-.963c-.176-.484-.641-.23-.962-.054-.529.21-1.166-.176-1.131-.768-.008-1.703 0-3.406-.002-5.11h2.465v-1.583h-2.465v-2.908h-.631zm-17.477 2.683c-.71-.001-1.428.131-2.064.453-1.21.574-2.037 1.782-2.276 3.084-.242 1.411-.049 2.951.762 4.156.76 1.16 2.141 1.8 3.506 1.817 1.449.043 3.023-.361 3.988-1.51-.239-.3-.472-.605-.716-.9-.368-.293-.805.033-1.14.215-.879.514-2.018.665-2.956.22-.918-.456-1.27-1.538-1.326-2.496h5.486c.278.015.672.01.709-.351.136-1.028-.072-2.112-.62-2.996-.691-1.143-2.05-1.715-3.353-1.692zm26.065 0c-1.251-.014-2.542.42-3.403 1.356-1.097 1.194-1.345 2.94-1.087 4.492.219 1.38 1.095 2.685 2.402 3.244 1.218.533 2.65.561 3.898.11 1.286-.458 2.247-1.62 2.563-2.934.347-1.465.236-3.114-.596-4.403-.804-1.252-2.32-1.894-3.777-1.865zm-26.02 1.592c.261 0 .525.036.77.13.818.272 1.214 1.166 1.2 1.977h-4.192c.057-.375.16-.748.345-1.082.345-.694 1.126-1.053 1.877-1.025zm26.102.107c.239.009.476.047.697.112.844.24 1.284 1.12 1.402 1.93.137 1.026.143 2.144-.35 3.083-.338.67-1.104 1.008-1.831.979a2.55 2.55 0 0 1-.965-.17c-.814-.31-1.178-1.205-1.275-2.012-.108-1.033-.104-2.17.468-3.078.4-.622 1.137-.869 1.854-.844zm-71.473 2.684c-.5.01-.998.155-1.416.434-.734.465-1.175 1.328-1.158 2.193 0 .08.004.16.01.24.046.879.599 1.711 1.396 2.086a2.719 2.719 0 0 0 2.428 0c.851-.404 1.437-1.31 1.44-2.256a2.613 2.613 0 0 0-1.272-2.312 2.596 2.596 0 0 0-1.428-.385zm8.295 0c-.5.01-.996.155-1.414.434-.734.465-1.175 1.328-1.158 2.193 0 .08.002.16.008.24a2.494 2.494 0 0 0 1.398 2.086 2.719 2.719 0 0 0 2.428 0c.851-.404 1.437-1.31 1.44-2.256a2.613 2.613 0 0 0-1.272-2.312 2.602 2.602 0 0 0-1.43-.385zm8.297 0c-.5.01-.998.155-1.416.434-.734.465-1.175 1.328-1.158 2.193 0 .08.003.16.01.24.046.879.599 1.711 1.396 2.086a2.719 2.719 0 0 0 2.428 0c.851-.404 1.439-1.31 1.441-2.256a2.615 2.615 0 0 0-1.273-2.312 2.596 2.596 0 0 0-1.428-.385zm62.226 2.42a1.354 1.354 0 0 0-.773.142c-.45.219-.74.712-.728 1.21 0 .237.05.48.173.685.291.523.96.77 1.53.621.456-.114.849-.47.974-.928a1.363 1.363 0 0 0-1.176-1.73zm4.29 0a1.354 1.354 0 0 0-.774.142c-.45.219-.74.712-.728 1.21 0 .237.05.48.173.685.291.523.96.77 1.53.621.456-.114.849-.47.974-.928.15-.51-.03-1.098-.449-1.427a1.356 1.356 0 0 0-.726-.303zm4.289 0a1.354 1.354 0 0 0-.774.142 1.33 1.33 0 0 0-.726 1.21c0 .237.047.48.171.685.292.523.96.77 1.53.621.456-.114.849-.47.974-.928.15-.51-.029-1.098-.449-1.427a1.356 1.356 0 0 0-.726-.303z" style="fill:#2b00d5;fill-opacity:1;stroke:none;stroke-width:.22501257" transform="scale(.26458)"/><path d="M170.1 89.545v8.51c-.017.473.146 1.306-.432.547-2.655-2.21-6.943-1.677-9.219.834-2.385 2.56-2.798 6.32-2.299 9.652.354 2.54 1.687 5.23 4.217 6.185 2.737 1.05 5.963-.008 7.819-2.21.288-.317.23.65.365.904.08.675.371 1.534 1.22 1.447h2.63v-25.87H170.1zm14.795 7.695c-2.445.139-4.846 1.12-6.635 2.803l.627 1.125c.29.69 1.02 1.212 1.787.998.971-.281 1.743-1.02 2.72-1.305 1.22-.346 2.724-.452 3.75.422 1.086.992.968 2.552.97 3.895a29.786 29.786 0 0 0-3.13.222c-2.257.326-4.64.914-6.341 2.528-1.624 1.558-1.598 4.326-.252 6.047 1.262 1.574 3.458 1.883 5.35 1.656 1.834-.165 3.459-1.173 4.773-2.41l.341 1.134c.106.729.8 1.15 1.502 1.06h1.952v-8.481c-.05-1.813.185-3.674-.399-5.426-.604-2.095-2.446-3.712-4.576-4.121a10.372 10.372 0 0 0-2.44-.147zm-18.178 3.25c1.297.013 2.609.576 3.383 1.623v8.008c-.965 1.248-2.42 2.232-4.055 2.143-.267 0-.535-.023-.797-.075-1.703-.254-2.505-2.035-2.705-3.568-.24-2.157-.299-4.54.877-6.457.718-1.15 2-1.687 3.297-1.674zm59.896.793a15.053 15.053 0 0 0-2.47 8.137c-.096 3.108.75 6.242 2.47 8.838l.664-.404c.334-.183.78-.45.594-.903-1.155-2.206-1.82-4.682-1.807-7.18a15.111 15.111 0 0 1 1.165-5.804c.15-.634.839-1.198.607-1.873-.34-.354-.818-.538-1.223-.81zm54.614 0-.663.397c-.335.182-.803.445-.603.904 1.17 2.203 1.81 4.69 1.807 7.187a15.24 15.24 0 0 1-1.114 5.696c-.16.648-.766 1.193-.705 1.873.176.348.591.463.893.683.278.249.505.257.629-.15 1.555-2.494 2.297-5.451 2.22-8.383a14.998 14.998 0 0 0-2.464-8.207zm-46.385.756v4.4c-.009.245.074.674-.225.282-1.373-1.143-3.589-.867-4.765.431-1.234 1.325-1.448 3.267-1.19 4.99.183 1.314.872 2.705 2.18 3.2 1.415.543 3.083-.006 4.043-1.145.149-.163.12.338.19.469.041.35.191.793.63.748h1.36V102.04h-2.223zm14.031 0v13.375h2.225v-4.23c.347.028.758-.092 1.04.162.722 1.027 1.409 2.08 2.116 3.119.271.332.416.85.892.928.749.044 1.5.01 2.25.021l-1.498-2.182c-.65-.923-1.252-1.88-1.941-2.775-.44-.227-.046-.344.17-.572 1.041-1.23 2.07-2.47 3.107-3.705h-1.24c-.475.037-1.023-.122-1.416.22-.82.969-1.602 1.97-2.406 2.952-.212.412-.69.345-1.074.347v-7.66h-2.225zm12.85 3.979c-1.264.071-2.507.578-3.432 1.449l.324.582c.15.356.527.626.924.515.502-.145.903-.528 1.408-.675.63-.18 1.407-.233 1.938.218.561.513.5 1.32.5 2.014-.54.013-1.08.046-1.615.115-1.167.169-2.402.473-3.282 1.307-.839.806-.825 2.237-.129 3.127.653.814 1.788.973 2.766.855.948-.085 1.787-.606 2.467-1.246l.178.588c.054.377.414.594.777.547h1.008v-4.385c-.026-.937.097-1.898-.205-2.804-.313-1.083-1.266-1.92-2.368-2.131a5.35 5.35 0 0 0-1.26-.076zm-18.514.017c-.71-.001-1.428.133-2.064.455-1.21.574-2.038 1.78-2.276 3.082-.243 1.411-.049 2.951.762 4.157.759 1.16 2.14 1.8 3.506 1.818 1.448.043 3.023-.361 3.988-1.51-.24-.3-.473-.605-.717-.9-.367-.293-.804.031-1.138.213-.88.514-2.02.667-2.958.222-.917-.456-1.27-1.538-1.326-2.496h5.487c.278.015.672.01.709-.351.136-1.028-.072-2.114-.62-2.998-.692-1.143-2.051-1.715-3.353-1.692zm.045 1.594c.261 0 .525.036.77.13.817.272 1.214 1.164 1.2 1.975h-4.193c.057-.375.161-.746.346-1.08.344-.694 1.125-1.053 1.877-1.025zm-10.162.068c.67.007 1.35.298 1.75.84v4.14c-.499.646-1.252 1.155-2.098 1.108-.138 0-.276-.012-.412-.039-.88-.132-1.295-1.051-1.398-1.844-.124-1.115-.155-2.349.453-3.34.37-.594 1.034-.872 1.705-.865zm-44.979.092v2.158c-.053.373.157.854-.232 1.09-1.02 1.069-2.448 1.762-3.945 1.695-.924.013-2.088-.325-2.329-1.347-.317-.97.12-2.099 1.063-2.531 1.673-.851 3.603-.946 5.443-1.065zm10.192 2.629c-.5.01-.999.157-1.416.436-.734.465-1.175 1.328-1.159 2.193 0 .08.004.16.01.24.047.879.6 1.71 1.397 2.084a2.719 2.719 0 0 0 2.427 0c.852-.404 1.438-1.31 1.44-2.256a2.613 2.613 0 0 0-1.272-2.312 2.596 2.596 0 0 0-1.427-.385zm8.295 0c-.5.01-.997.157-1.414.436-.734.465-1.175 1.328-1.159 2.193 0 .08.002.16.008.24.047.879.601 1.71 1.399 2.084a2.719 2.719 0 0 0 2.427 0c.852-.404 1.438-1.31 1.44-2.256a2.613 2.613 0 0 0-1.272-2.312 2.603 2.603 0 0 0-1.43-.385zm8.296 0c-.5.01-.998.157-1.416.436-.733.465-1.174 1.328-1.158 2.193 0 .08.004.16.01.24.047.879.6 1.71 1.397 2.084a2.719 2.719 0 0 0 2.427 0c.852-.404 1.44-1.31 1.442-2.256a2.615 2.615 0 0 0-1.274-2.312 2.596 2.596 0 0 0-1.428-.385zm48.489 1.053v1.117c-.028.193.082.44-.12.562-.527.553-1.266.912-2.04.877-.478.007-1.08-.168-1.204-.697-.163-.5.064-1.085.551-1.309.865-.44 1.861-.489 2.813-.55zm5.441 1.367a1.361 1.361 0 0 0-.775.144c-.45.219-.738.71-.727 1.207.001.238.05.481.174.686.291.523.957.773 1.527.623.457-.114.85-.472.975-.93a1.362 1.362 0 0 0-1.174-1.73zm4.29 0a1.361 1.361 0 0 0-.776.144c-.45.219-.738.71-.727 1.207.001.238.05.481.174.686.291.523.957.773 1.527.623.457-.114.85-.472.975-.93a1.362 1.362 0 0 0-1.174-1.73zm4.288 0a1.355 1.355 0 0 0-.773.144c-.45.219-.74.71-.729 1.207.001.238.05.481.174.686.291.523.959.773 1.53.623.456-.114.849-.472.974-.93a1.363 1.363 0 0 0-1.176-1.73z" style="fill:#50a;fill-opacity:1;stroke:none;stroke-width:.22501257" transform="scale(.26458)"/><path d="M202.338 138.832a15.056 15.056 0 0 0-2.473 8.137c-.096 3.107.753 6.242 2.473 8.838l.662-.405c.333-.182.782-.452.596-.904-1.155-2.206-1.82-4.682-1.807-7.18a15.1 15.1 0 0 1 1.162-5.802c.151-.634.84-1.2.608-1.875-.341-.354-.816-.536-1.221-.809zm16.502 0-.662.397c-.335.182-.805.442-.606.902 1.17 2.203 1.811 4.69 1.807 7.187a15.24 15.24 0 0 1-1.113 5.696c-.161.647-.767 1.195-.705 1.875.176.347.59.46.892.681.279.249.505.259.629-.148 1.555-2.494 2.297-5.452 2.22-8.383a14.996 14.996 0 0 0-2.462-8.207zm-44.813 9.135c-.5.01-.998.155-1.416.433-.733.466-1.173 1.329-1.156 2.194 0 .08.002.16.008.24a2.494 2.494 0 0 0 1.398 2.086 2.719 2.719 0 0 0 2.428 0c.852-.404 1.437-1.31 1.44-2.256a2.613 2.613 0 0 0-1.272-2.312 2.602 2.602 0 0 0-1.43-.385zm8.297 0c-.5.01-.998.155-1.416.433-.734.466-1.175 1.329-1.158 2.194 0 .08.004.16.01.24.046.879.6 1.711 1.396 2.086a2.719 2.719 0 0 0 2.428 0c.852-.404 1.437-1.31 1.44-2.256a2.613 2.613 0 0 0-1.272-2.312 2.596 2.596 0 0 0-1.428-.385zm8.295 0c-.5.01-.996.155-1.414.433-.734.466-1.175 1.329-1.158 2.194 0 .08.004.16.01.24.046.879.599 1.711 1.396 2.086a2.719 2.719 0 0 0 2.428 0c.851-.404 1.437-1.31 1.44-2.256a2.613 2.613 0 0 0-1.272-2.312 2.603 2.603 0 0 0-1.43-.385zm15.819 2.42a1.354 1.354 0 0 0-.774.142c-.45.219-.74.711-.728 1.21 0 .237.05.48.173.685.291.523.96.77 1.53.62.456-.113.849-.47.974-.927a1.363 1.363 0 0 0-1.175-1.73zm4.289 0a1.354 1.354 0 0 0-.774.142 1.33 1.33 0 0 0-.726 1.21c0 .237.047.48.171.685.291.523.96.77 1.53.62.456-.113.849-.47.974-.927a1.363 1.363 0 0 0-1.175-1.73zm4.289 0a1.354 1.354 0 0 0-.774.142 1.33 1.33 0 0 0-.726 1.21c0 .237.05.48.173.685.292.523.957.77 1.528.62.456-.113.849-.47.974-.927a1.363 1.363 0 0 0-1.175-1.73z" style="fill:purple;fill-opacity:1;stroke:none;stroke-width:.22501257" transform="scale(.26458)"/><path d="M197.076 176.379v8.51c-.017.473.147 1.306-.431.547-2.656-2.21-6.945-1.677-9.221.834-2.385 2.56-2.798 6.32-2.299 9.652.353 2.54 1.687 5.23 4.217 6.185 2.736 1.05 5.964-.008 7.82-2.21.288-.317.23.65.365.904.082.675.37 1.534 1.22 1.447h2.628v-25.87h-4.299zm-3.383 10.945c1.298.013 2.61.576 3.383 1.623v8.008c-.964 1.248-2.421 2.232-4.056 2.143-.267 0-.535-.023-.797-.075-1.703-.254-2.505-2.035-2.705-3.568-.24-2.157-.299-4.54.877-6.457.717-1.15 2.001-1.687 3.298-1.674zm42.215.793a15.053 15.053 0 0 0-2.47 8.137c-.097 3.108.75 6.242 2.47 8.838l.664-.405c.334-.182.78-.45.594-.902-1.155-2.206-1.82-4.684-1.807-7.181a15.102 15.102 0 0 1 1.164-5.803c.151-.634.84-1.198.608-1.873-.34-.354-.818-.538-1.223-.81zm48.32 0-.662.397c-.335.182-.803.445-.603.904 1.17 2.203 1.81 4.689 1.807 7.186a15.25 15.25 0 0 1-1.114 5.697c-.16.648-.766 1.193-.705 1.873.176.348.591.463.893.683.278.249.505.257.629-.15 1.555-2.494 2.297-5.451 2.22-8.383a14.998 14.998 0 0 0-2.464-8.207zm-40.091.756v4.398c-.009.246.074.676-.225.284-1.373-1.143-3.589-.867-4.766.431-1.233 1.325-1.447 3.267-1.189 4.99.183 1.314.871 2.704 2.18 3.198 1.415.543 3.085-.004 4.045-1.143.149-.163.118.338.187.469.042.35.192.793.631.748h1.36v-13.375h-2.223zm23.285.035c-.6-.062-1.24.275-1.469.856-.335.735.11 1.666.879 1.892.86.297 1.872-.422 1.857-1.334a1.42 1.42 0 0 0-.695-1.213 1.276 1.276 0 0 0-.572-.2zm-6.31 3.96a4.553 4.553 0 0 0-1.67.359c-.934.379-1.627 1.3-1.657 2.318-.065.791.252 1.622.91 2.09.838.617 1.899.761 2.84 1.154.42.167.875.531.787 1.037-.047.64-.725.997-1.306 1.004-.648.063-1.284-.147-1.825-.494-.294-.234-.762-.366-1.058-.059-.24.304-.411.656-.621.98.767.679 1.783 1.022 2.79 1.118 1.221.091 2.586-.16 3.428-1.12.633-.75.858-1.856.524-2.784-.303-.762-1.054-1.201-1.791-1.463-.771-.327-1.663-.411-2.326-.957-.443-.388-.232-1.158.281-1.377.728-.337 1.592-.184 2.287.166.329.184.868.42 1.098-.026v-.001l.504-.801c-.422-.414-.947-.707-1.502-.9a5.083 5.083 0 0 0-1.694-.245zm-8.608.001c-.71-.002-1.428.133-2.065.455-1.21.574-2.037 1.78-2.275 3.082-.243 1.411-.047 2.951.764 4.156.759 1.16 2.14 1.801 3.506 1.819 1.448.043 3.02-.361 3.986-1.51-.24-.3-.473-.605-.717-.9-.367-.293-.804.031-1.139.213-.879.514-2.019.667-2.957.222-.918-.456-1.27-1.538-1.326-2.496h5.487c.278.015.672.01.709-.351.136-1.028-.072-2.114-.62-2.998-.692-1.143-2.051-1.715-3.353-1.692zm13.648.145v9.234h2.233v-9.234h-2.233zm-13.603 1.449c.261 0 .525.036.77.13.817.272 1.213 1.164 1.2 1.975h-4.193c.057-.375.161-.746.346-1.08.344-.694 1.125-1.053 1.877-1.025zm-10.162.068c.67.007 1.35.298 1.75.84v4.14c-.499.646-1.253 1.155-2.098 1.108-.138 0-.277-.012-.412-.039-.88-.132-1.295-1.051-1.398-1.844-.124-1.115-.155-2.349.453-3.34.37-.594 1.034-.872 1.705-.865zm-34.787 2.72c-.5.01-.999.158-1.416.436-.734.466-1.175 1.329-1.159 2.194 0 .08.004.16.01.24.047.879.6 1.71 1.397 2.084a2.719 2.719 0 0 0 2.427 0c.852-.404 1.44-1.31 1.442-2.256a2.615 2.615 0 0 0-1.274-2.312 2.596 2.596 0 0 0-1.427-.385zm8.295 0c-.5.01-.997.158-1.415.436-.733.466-1.174 1.329-1.158 2.194 0 .08.004.16.01.24.046.879.6 1.71 1.397 2.084a2.719 2.719 0 0 0 2.427 0c.852-.404 1.438-1.31 1.44-2.256a2.613 2.613 0 0 0-1.272-2.312 2.602 2.602 0 0 0-1.43-.385zm8.296 0c-.5.01-.998.158-1.416.436-.733.466-1.172 1.329-1.156 2.194 0 .08.002.16.008.24.046.879.601 1.71 1.398 2.084a2.714 2.714 0 0 0 2.426 0c.852-.404 1.44-1.31 1.442-2.256a2.615 2.615 0 0 0-1.274-2.312 2.596 2.596 0 0 0-1.428-.385zm47.637 2.42a1.361 1.361 0 0 0-.775.145c-.45.219-.739.71-.727 1.207.001.238.05.481.174.686.291.523.957.773 1.527.623.456-.114.85-.472.975-.93a1.362 1.362 0 0 0-1.174-1.73zm4.29 0a1.361 1.361 0 0 0-.776.145c-.45.219-.738.71-.727 1.207.001.238.05.481.174.686.291.523.957.773 1.527.623.457-.114.85-.472.975-.93a1.362 1.362 0 0 0-1.174-1.73zm4.288 0a1.355 1.355 0 0 0-.773.145c-.45.219-.74.71-.729 1.207.001.238.05.481.174.686.291.523.957.773 1.527.623.457-.114.85-.472.975-.93a1.362 1.362 0 0 0-1.174-1.73z" style="fill:#a05;fill-opacity:1;stroke:none;stroke-width:.22501257" transform="scale(.26458)"/><path d="M207.158 223.654c-1.44-.017-2.884.26-4.181.885-2.406 1.13-3.971 3.594-4.372 6.176-.48 2.962-.048 6.257 1.926 8.623 1.526 1.894 4.005 2.872 6.412 2.715 2.453-.038 4.963-.985 6.545-2.916-.462-.58-.912-1.17-1.383-1.742-.58-.508-1.34-.071-1.806.367-1.255 1.04-3.048 1.291-4.574.773-1.729-.616-2.603-2.476-2.797-4.193-.21-2-.143-4.235 1.093-5.918 1.393-1.766 4.142-1.901 5.971-.768.627.486 1.672.952 2.19.06l1.132-1.566c-.996-1-2.237-1.767-3.597-2.156-.83-.211-1.695-.33-2.559-.34zm39.281 4.016a15.055 15.055 0 0 0-2.472 8.137c-.096 3.107.753 6.242 2.472 8.838l.665-.405c.333-.182.78-.452.593-.904-1.155-2.206-1.82-4.682-1.806-7.18a15.102 15.102 0 0 1 1.164-5.802c.15-.634.839-1.2.607-1.875-.34-.354-.818-.536-1.223-.81zm55.282 0-.662.396c-.336.183-.804.443-.604.903 1.17 2.202 1.81 4.69 1.807 7.187a15.24 15.24 0 0 1-1.114 5.696c-.16.647-.766 1.195-.705 1.875.176.347.59.46.891.681.279.248.505.259.629-.148 1.555-2.494 2.299-5.452 2.223-8.383a14.998 14.998 0 0 0-2.465-8.207zm-16.807.756c-.437-.025-.881.137-1.156.512-.587.657-.34 1.806.469 2.166.878.468 2.078-.27 2.05-1.266a1.356 1.356 0 0 0-.254-.791c-.243-.382-.672-.596-1.109-.621zm-5.736 1.303c-.114.007-.25.035-.33.01-.37.035-.894-.135-1.084.294-.188.863-.328 1.736-.496 2.604-.36.059-.719.119-1.079.177-.203.042-.504 0-.406.297.04.351-.122.8.192 1.053.374.13.792.039 1.185.066v3.65c.036.9-.114 1.83.203 2.692.325.94 1.347 1.413 2.291 1.371.864-.002 1.75-.257 2.42-.818l-.504-.818c-.161-.455-.614-.573-.984-.227-.49.233-1.173-.054-1.19-.64-.03-1.736-.005-3.474-.013-5.21h4.285v7.57h2.223v-9.154h-6.508v-2.804c.001-.108-.091-.121-.205-.113zm-27.19 2.69a4.55 4.55 0 0 0-1.67.358c-.933.38-1.626 1.304-1.656 2.32-.065.792.252 1.623.91 2.09.838.618 1.9.762 2.842 1.155.42.166.873.531.785 1.037-.047.64-.725.994-1.306 1.002-.648.063-1.284-.148-1.825-.494-.294-.234-.762-.366-1.058-.059-.24.304-.411.658-.621.983.767.677 1.783 1.02 2.79 1.117 1.22.09 2.586-.161 3.428-1.121.633-.75.86-1.858.526-2.786-.303-.761-1.056-1.2-1.793-1.462-.771-.327-1.66-.41-2.324-.955-.443-.388-.234-1.158.279-1.377.728-.338 1.594-.186 2.289.164.329.184.866.422 1.096-.026l.506-.8c-.422-.415-.95-.709-1.504-.903a5.081 5.081 0 0 0-1.694-.242zm8.903.003c-.71-.002-1.429.13-2.065.453-1.21.574-2.039 1.782-2.277 3.084-.243 1.41-.047 2.951.764 4.156.758 1.16 2.14 1.799 3.505 1.817 1.45.043 3.021-.362 3.987-1.51-.24-.3-.471-.605-.715-.9-.368-.293-.805.033-1.139.214-.88.515-2.021.667-2.959.223-.918-.457-1.27-1.54-1.326-2.498h5.486c.278.015.673.01.71-.352.136-1.027-.072-2.11-.62-2.996-.692-1.142-2.05-1.714-3.351-1.691zm10.691 0c-1.099-.056-2.168.448-2.912 1.242-.09.04-.075-.278-.123-.379-.042-.308-.156-.69-.53-.713-.486-.014-.975-.004-1.462-.008v9.237h2.222v-6.68c.633-.657 1.56-1.137 2.49-.926.71.118 1.1.854 1.106 1.522.014 2.027.002 4.056.006 6.084h2.223v-5.211c.015-.912-.005-1.862-.456-2.682-.475-.945-1.524-1.495-2.564-1.486zm-10.646 1.592c.26 0 .525.035.77.13.817.272 1.213 1.166 1.2 1.977h-4.193c.057-.375.16-.749.346-1.082.344-.694 1.125-1.054 1.877-1.025zm-42.807 2.79c-.5.01-.996.155-1.414.434-.734.466-1.175 1.329-1.158 2.194 0 .08.003.16.01.24.046.879.599 1.711 1.396 2.086a2.719 2.719 0 0 0 2.428 0c.851-.404 1.437-1.31 1.44-2.256a2.613 2.613 0 0 0-1.272-2.313 2.602 2.602 0 0 0-1.43-.384zm8.297 0c-.5.01-.999.155-1.416.434-.734.466-1.173 1.329-1.156 2.194 0 .08.001.16.007.24a2.494 2.494 0 0 0 1.399 2.086 2.714 2.714 0 0 0 2.426 0c.851-.404 1.439-1.31 1.44-2.256a2.615 2.615 0 0 0-1.272-2.313 2.596 2.596 0 0 0-1.428-.384zm8.297 0c-.5.01-.999.155-1.416.434-.734.466-1.175 1.329-1.159 2.194 0 .08.004.16.01.24.047.879.6 1.711 1.397 2.086a2.719 2.719 0 0 0 2.427 0c.852-.404 1.438-1.31 1.44-2.256a2.613 2.613 0 0 0-1.272-2.313 2.596 2.596 0 0 0-1.427-.384zm54.595 2.42a1.354 1.354 0 0 0-.773.143 1.33 1.33 0 0 0-.727 1.21c.001.237.05.48.174.685.291.523.957.77 1.528.62.456-.113.849-.47.974-.927.15-.51-.03-1.098-.45-1.428a1.356 1.356 0 0 0-.726-.302zm4.291 0a1.36 1.36 0 0 0-.775.143 1.33 1.33 0 0 0-.727 1.21c.001.237.05.48.174.685.291.523.957.77 1.528.62.456-.113.849-.47.974-.927a1.362 1.362 0 0 0-1.174-1.73zm4.29 0a1.36 1.36 0 0 0-.776.143 1.33 1.33 0 0 0-.727 1.21c.001.237.05.48.174.685.291.523.957.77 1.528.62.456-.113.849-.47.974-.927a1.362 1.362 0 0 0-1.174-1.73z" style="fill:#d5002b;fill-opacity:1;stroke:none;stroke-width:.22501257" transform="scale(.26458)"/><path d="M230.598 267.068c-2.254.07-4.528 1.227-5.467 3.352-.493-1.416-1.552-2.75-3.043-3.166-2.276-.636-4.714.428-6.166 2.209-.22-.726-.115-1.774-.994-2.059-.996-.104-2.007-.023-3.01-.049v17.862h4.299v-13.012c.867-1.235 2.52-2.074 4.06-1.705 1.364.216 2.036 1.656 2.022 2.916.026 3.933.004 7.867.012 11.8h4.316v-8.704c.05-1.326-.136-2.68.187-3.979.423-1.597 2.243-2.43 3.782-2.027 1.363.23 2.098 1.647 2.095 2.93.027 3.926.005 7.854.012 11.78h4.299v-8.148c-.068-2.239.276-4.576-.64-6.693-.755-1.947-2.758-3.178-4.803-3.27a6.875 6.875 0 0 0-.961-.037zm40.748 4.018a15.055 15.055 0 0 0-2.473 8.137c-.096 3.107.753 6.242 2.473 8.838l.664-.405c.333-.182.78-.45.594-.902-1.155-2.206-1.82-4.682-1.807-7.18a15.116 15.116 0 0 1 1.164-5.804c.151-.634.84-1.199.607-1.874-.34-.353-.818-.537-1.222-.81zm45.191 0-.662.396c-.335.183-.805.445-.605.905 1.17 2.202 1.81 4.69 1.806 7.187a15.24 15.24 0 0 1-1.113 5.696c-.16.647-.764 1.193-.703 1.873.176.347.589.463.89.683.279.248.506.257.63-.15 1.554-2.494 2.296-5.452 2.22-8.383a14.996 14.996 0 0 0-2.463-8.207zm-22.588.756v13.375h2.223v-13.375h-2.223zm-3.254.035c-.6-.062-1.24.274-1.468.855-.335.736.11 1.667.878 1.893.86.297 1.873-.422 1.858-1.334a1.423 1.423 0 0 0-.697-1.213 1.269 1.269 0 0 0-.57-.201zm9.035 0c-.6-.062-1.239.274-1.468.855-.335.736.11 1.667.879 1.893.86.297 1.872-.422 1.857-1.334a1.423 1.423 0 0 0-.697-1.213 1.269 1.269 0 0 0-.57-.201zm-15.802 3.957c-1.166.036-2.343.634-2.828 1.732-.255-.732-.802-1.421-1.573-1.636-1.176-.33-2.436.222-3.187 1.142-.114-.375-.06-.917-.514-1.064-.515-.054-1.038-.012-1.556-.026v9.235h2.222v-6.727c.449-.638 1.302-1.073 2.098-.883.705.112 1.054.857 1.047 1.508.013 2.034.002 4.068.006 6.102h2.232v-4.5c.026-.686-.072-1.386.096-2.057.218-.825 1.16-1.26 1.955-1.05.705.119 1.085.852 1.084 1.515.014 2.03.002 4.062.006 6.092h2.222v-4.213c-.035-1.158.142-2.366-.332-3.461-.39-1.006-1.425-1.642-2.482-1.69a3.544 3.544 0 0 0-.496-.019zm5.496.148v9.235h2.232v-9.235h-2.232zm9.035 0v9.235h2.232v-9.235h-2.232zm-55.424 4.239c-.5.01-.996.156-1.414.435-.734.466-1.175 1.329-1.158 2.194 0 .08.004.16.01.24.046.879.599 1.71 1.396 2.084a2.719 2.719 0 0 0 2.428 0c.851-.404 1.437-1.31 1.44-2.256a2.613 2.613 0 0 0-1.272-2.313 2.602 2.602 0 0 0-1.43-.384zm8.297 0c-.5.01-.998.156-1.416.435-.734.466-1.173 1.329-1.156 2.194 0 .08.002.16.008.24.046.879.6 1.71 1.398 2.084a2.714 2.714 0 0 0 2.426 0c.851-.404 1.44-1.31 1.441-2.256a2.615 2.615 0 0 0-1.273-2.313 2.596 2.596 0 0 0-1.428-.384zm8.297 0c-.5.01-.998.156-1.416.435-.734.466-1.175 1.329-1.158 2.194 0 .08.003.16.01.24.046.879.599 1.71 1.396 2.084a2.719 2.719 0 0 0 2.428 0c.851-.404 1.437-1.31 1.44-2.256a2.613 2.613 0 0 0-1.272-2.313 2.596 2.596 0 0 0-1.428-.384zm44.506 2.42a1.355 1.355 0 0 0-.774.144c-.45.218-.738.71-.726 1.207 0 .238.05.48.174.686.29.523.956.772 1.527.623.456-.114.85-.473.975-.93a1.363 1.363 0 0 0-1.176-1.73zm4.289 0a1.355 1.355 0 0 0-.774.144c-.45.218-.738.71-.726 1.207 0 .238.05.48.174.686.29.523.956.772 1.527.623.456-.114.85-.473.975-.93.15-.51-.03-1.098-.45-1.428a1.356 1.356 0 0 0-.726-.302zm4.289 0a1.355 1.355 0 0 0-.774.144c-.45.218-.738.71-.726 1.207 0 .238.05.48.174.686.29.523.956.772 1.527.623.456-.114.85-.473.975-.93.15-.51-.03-1.098-.45-1.428a1.356 1.356 0 0 0-.726-.302zm85.234 83.449V757.014h4.502V726.77h20.344v-4.504h-20.344V693.02h20.344v-4.504h-20.344v-29.254h20.344v-4.496h-20.344v-29.254h20.344v-4.502h-20.344v-29.248h20.344v-4.502h-20.344v-29.256h20.344v-4.494h-20.344v-29.256h20.344v-4.502h-20.344v-29.248h20.344v-4.502h-20.344v-29.256h20.344v-4.494h-20.344v-29.256h20.344v-4.494h-20.344v-29.256h20.344v-4.502h-20.344V366.09h-4.502zm41.078 12.767c-1.204.04-2.391.495-3.234 1.381-1.437 1.51-1.848 3.685-1.889 5.7-.037 2.11.249 4.39 1.608 6.091 1.735 2.237 5.524 2.268 7.334.11 1.369-1.601 1.72-3.805 1.722-5.848 0-1.925-.314-3.987-1.494-5.568-.918-1.285-2.498-1.917-4.047-1.866zm.112 2.069c.688-.027 1.388.243 1.808.814.952 1.3 1.036 2.996 1.055 4.551-.015 1.473-.102 3.059-.904 4.342-.687 1.211-2.592 1.395-3.492.334-.953-1.164-1.083-2.748-1.133-4.196-.008-1.657.003-3.45.927-4.894.374-.607 1.05-.926 1.739-.951zm-.026 31.943-4.437 3.774.642.882c.215.43.786.641 1.2.35.65-.518 1.278-1.066 1.92-1.596.241-.26.327-.212.246.18-.027 3.04-.005 6.081-.012 9.121h-2.95v1.861h8.051v-1.86h-2.617v-12.712h-2.043zm.262 33.793v.002a5.85 5.85 0 0 0-2.018.342c-1.65.557-2.75 2.181-2.943 3.875l1.274.224c.62.211 1.233-.224 1.32-.855.373-1.124 1.675-1.703 2.79-1.438.93.136 1.567 1.039 1.548 1.95.072 1.48-.824 2.763-1.8 3.785-1.622 1.683-3.296 3.316-4.94 4.978-.54.466-.436 1.215-.444 1.852h9.985v-1.24c.055-.434-.123-.942-.598-1.041-.622-.068-1.254-.02-1.879-.035-1.329.03-2.686-.124-3.975.293l2.194-2.237c1.063-1.113 2.225-2.152 3.09-3.433.947-1.368 1.26-3.24.505-4.764-.72-1.535-2.48-2.292-4.109-2.258zm-133.521 16.18v20.955h3.482v-10.463c.964-.995 2.345-1.741 3.768-1.479 1.174.123 1.864 1.314 1.863 2.41.022 3.177.004 6.355.01 9.532h3.482v-6.666c-.05-1.796.216-3.672-.549-5.361-.653-1.606-2.325-2.642-4.039-2.66-1.696-.14-3.34.613-4.535 1.785v-8.053h-3.482zm31.048 6.254c-1.825.056-3.668.993-4.43 2.715-.398-1.147-1.257-2.228-2.464-2.565-1.844-.515-3.818.347-4.994 1.79-.178-.589-.093-1.436-.805-1.667-.807-.085-1.625-.019-2.437-.04v14.468h3.482v-10.54c.703-1 2.042-1.681 3.289-1.382 1.104.175 1.648 1.342 1.637 2.363.02 3.186.004 6.373.01 9.559h3.496v-7.053c.04-1.074-.11-2.169.152-3.22.342-1.294 1.816-1.972 3.062-1.645 1.105.187 1.7 1.336 1.698 2.375.022 3.18.004 6.362.01 9.543h3.482v-6.6c-.055-1.813.223-3.709-.52-5.424-.61-1.576-2.234-2.572-3.89-2.646a5.666 5.666 0 0 0-.778-.03v-.001zm102.684 11.35a5.83 5.83 0 0 0-1.81.27c-1.613.463-2.796 1.936-3.085 3.563-.27.465.194.42.498.483.564.064 1.253.375 1.715-.096.35-.48.404-1.15.912-1.53.933-.838 2.656-.846 3.41.233.44.751.448 1.782-.015 2.524-.653.828-1.809.907-2.783.933v1.195c.004.32-.11.759.4.583.94.046 2.077.131 2.67.972.38.752.395 1.718-.016 2.463-.767 1.364-2.877 1.593-3.982.524-.49-.402-.64-1.06-1.066-1.5-.557-.385-1.19-.023-1.733.197-.362.106-.663.248-.34.66.471 1.344 1.41 2.624 2.81 3.082 1.715.546 3.719.432 5.25-.565 1.443-.924 2.098-2.771 1.769-4.423-.196-1.26-1.262-2.18-2.438-2.528.34-.225 1.36-.605 1.682-1.242.651-1.032.71-2.41.228-3.523-.675-1.557-2.456-2.308-4.074-2.274l-.002-.002zm-124.652 17.648v6.892c-.014.384.118 1.059-.35.444-2.15-1.79-5.625-1.358-7.469.675-1.932 2.075-2.265 5.117-1.861 7.817.286 2.057 1.366 4.237 3.416 5.012 2.217.85 4.83-.008 6.334-1.791.233-.257.186.527.295.732.066.547.3 1.243.988 1.172h2.13v-20.953h-3.483zm11.984 6.232c-1.98.112-3.926.906-5.375 2.27l.508.914c.235.559.826.98 1.447.806.787-.227 1.413-.826 2.205-1.056.988-.28 2.205-.366 3.037.342.88.803.782 2.066.783 3.154-.846.019-1.693.07-2.533.18-1.828.263-3.758.741-5.136 2.048-1.315 1.263-1.296 3.505-.206 4.899 1.023 1.275 2.803 1.524 4.334 1.34 1.486-.134 2.801-.95 3.866-1.952l.277.918c.085.59.648.932 1.217.858h1.58v-6.87c-.04-1.467.15-2.974-.322-4.394-.49-1.697-1.982-3.006-3.707-3.338a8.391 8.391 0 0 0-1.975-.119zm24.416.02v.004c-1.826.056-3.669.993-4.43 2.714-.399-1.146-1.257-2.227-2.464-2.564-1.844-.516-3.819.347-4.995 1.79-.178-.589-.092-1.438-.804-1.669-.807-.085-1.628-.02-2.44-.04v14.466h3.485v-10.54c.702-1 2.04-1.679 3.287-1.38 1.104.175 1.65 1.34 1.638 2.361.022 3.186.002 6.373.008 9.559h3.498v-7.05c.04-1.075-.112-2.172.15-3.224.343-1.293 1.819-1.97 3.065-1.642 1.104.187 1.7 1.336 1.697 2.375.022 3.18.002 6.36.008 9.54h3.485v-6.599c-.056-1.813.22-3.707-.522-5.422-.61-1.576-2.232-2.574-3.889-2.648a5.916 5.916 0 0 0-.777-.031zm-39.14 2.615c1.05.011 2.113.468 2.74 1.316v6.485c-.781 1.01-1.961 1.807-3.286 1.734-.216 0-.432-.019-.644-.058-1.38-.207-2.03-1.65-2.191-2.891-.194-1.748-.244-3.679.709-5.23.58-.932 1.62-1.367 2.671-1.356zm17.33 5.912v1.748c-.043.302.127.692-.188.883-.827.865-1.984 1.427-3.197 1.373-.748.011-1.69-.264-1.885-1.092-.257-.785.097-1.7.861-2.05 1.355-.69 2.918-.765 4.408-.862zm111.058 1.598-6.871 9.177c-.026.2.083.432.105.643.106.45.113 1.095.696 1.18 2.086.019 4.175-.002 6.261.006v3.55h2.165v-3.55h.705c.373-.038.913.141 1.093-.303.073-.536.015-1.087.034-1.63h-1.832v-9.073h-2.356zm.219 2.924c.119.06-.08.993-.028 1.39h.002v4.76h-4.427l4.453-6.15zM320.982 539.6v.002c-1.825.056-3.668.991-4.43 2.712-.398-1.146-1.257-2.227-2.464-2.564-1.844-.515-3.818.347-4.994 1.79-.178-.589-.093-1.436-.805-1.667-.807-.085-1.625-.017-2.437-.041v14.467h3.482v-10.54c.703-1 2.04-1.679 3.287-1.38 1.105.175 1.65 1.34 1.639 2.361.02 3.186.004 6.373.01 9.559h3.496v-7.05c.04-1.075-.112-2.172.15-3.224.342-1.293 1.818-1.97 3.064-1.642 1.105.187 1.7 1.334 1.698 2.373.022 3.18.004 6.362.01 9.543h3.482v-6.6c-.055-1.813.223-3.707-.52-5.422-.61-1.576-2.234-2.574-3.89-2.648a5.914 5.914 0 0 0-.778-.03zm115.483 8.656-1.207 7.064 1.515.434c.745-.211 1.534-.413 2.325-.371.986-.008 2.052.479 2.386 1.467.364 1.134.175 2.538-.713 3.386-1.016.879-2.579.807-3.705.184-.494-.243-1.057-.817-1.627-.428-.376.374-.64.848-.966 1.266 1.242 1.181 2.987 1.821 4.699 1.697 1.922-.083 3.85-1.209 4.57-3.045.753-1.8.526-4.169-1.017-5.492-1.381-1.184-3.353-1.237-5.051-.87l.521-3.038c1.396-.002 2.792.007 4.188-.004.666.034 1.328-.484 1.267-1.192V548.256h-7.185zm-121.533 20.342v6.892c-.014.384.118 1.059-.35.444-2.15-1.79-5.625-1.358-7.469.675-1.932 2.075-2.265 5.12-1.861 7.819.286 2.057 1.366 4.235 3.416 5.01 2.217.85 4.83-.008 6.334-1.792.233-.256.186.528.295.733.066.547.3 1.242.988 1.172l2.13.002v-20.955h-3.483zm22.078 6.254c-1.826.056-3.667.993-4.428 2.714-.4-1.146-1.257-2.227-2.465-2.564-1.843-.516-3.818.347-4.994 1.789-.178-.588-.093-1.435-.805-1.666-.807-.085-1.627-.019-2.44-.041V589.553h3.483v-10.54c.703-1 2.042-1.681 3.29-1.382 1.104.175 1.647 1.342 1.636 2.363.021 3.186.004 6.373.01 9.559h3.498V582.5c.04-1.074-.112-2.169.15-3.22.343-1.294 1.816-1.972 3.063-1.645 1.104.187 1.7 1.336 1.697 2.375.022 3.18.004 6.362.01 9.543h3.482v-6.6c-.055-1.813.223-3.709-.52-5.424-.61-1.576-2.231-2.572-3.888-2.646a5.694 5.694 0 0 0-.78-.031zm-24.819 2.61c1.051.012 2.114.469 2.74 1.317v6.487c-.78 1.01-1.96 1.807-3.285 1.734-.216 0-.432-.019-.644-.06-1.38-.207-2.03-1.65-2.191-2.891-.194-1.748-.244-3.677.709-5.229.58-.932 1.62-1.368 2.671-1.357zm129.588 4.66c-.77.026-1.668-.15-2.265.466-1.101 1.434-2.166 2.9-3.252 4.346-1.108 1.41-2.089 3.074-2.03 4.93-.015 1.72.807 3.516 2.375 4.335 1.799.955 4.154.845 5.825-.336 1.957-1.357 2.55-4.267 1.351-6.306-1.028-1.8-3.469-2.41-5.332-1.664-.624.362.023-.262.188-.489l4.318-5.283h-1.178zm-2.289 7.33c.332.022.66.096.961.224 1.417.573 1.818 2.477 1.147 3.748-.627 1.255-2.26 1.667-3.512 1.185-1.013-.37-1.51-1.481-1.469-2.505a2.819 2.819 0 0 1 .356-1.397c.485-.913 1.521-1.323 2.517-1.256zm-104.902 20.65v.002c-1.826.056-3.669.993-4.43 2.714-.399-1.146-1.257-2.227-2.465-2.564-1.843-.516-3.818.346-4.994 1.789-.178-.588-.092-1.437-.804-1.668-.807-.085-1.628-.019-2.44-.04v14.468h3.484v-10.54c.703-1 2.04-1.68 3.288-1.38 1.104.175 1.65 1.34 1.638 2.361.021 3.186.002 6.373.008 9.559h3.498v-7.051c.04-1.074-.112-2.171.15-3.223.343-1.293 1.818-1.969 3.065-1.642 1.104.187 1.698 1.336 1.695 2.375.022 3.18.004 6.36.01 9.54h3.482v-6.599c-.055-1.813.224-3.707-.52-5.422-.61-1.576-2.231-2.574-3.888-2.648a5.916 5.916 0 0 0-.777-.031zm-22.443.003c-1.167-.015-2.336.211-3.387.717-1.949.916-3.215 2.911-3.54 5.002-.389 2.4-.04 5.068 1.56 6.985 1.235 1.534 3.243 2.326 5.193 2.199 1.987-.03 4.019-.797 5.3-2.362-.374-.469-.738-.948-1.119-1.412-.47-.411-1.087-.055-1.464.3-.993.824-2.398 1.032-3.616.655-1.45-.463-2.197-2.007-2.353-3.427-.17-1.62-.117-3.43.885-4.793 1.127-1.43 3.354-1.541 4.835-.623.508.393 1.357.772 1.776.05l.916-1.269c-.808-.81-1.812-1.433-2.914-1.748a8.85 8.85 0 0 0-2.072-.274zm122.062 5.961v1.291c-.045.408.05.967.572.963h6.848c.116.139-.499.674-.588 1.01-1.915 3.758-3.808 7.526-5.715 11.287h1.623c.59.069 1.189-.214 1.451-.758 1.843-3.778 3.676-7.563 5.514-11.343.459-.742.329-1.623.348-2.45h-10.053zm-113.225 29.288v.001c-1.825.057-3.668.992-4.43 2.713-.398-1.146-1.257-2.227-2.464-2.564-1.844-.516-3.818.347-4.994 1.789-.178-.588-.093-1.436-.805-1.666-.807-.085-1.625-.02-2.437-.04v14.468h3.482v-10.54c.703-1 2.04-1.68 3.287-1.38 1.105.175 1.65 1.34 1.639 2.361.02 3.186.004 6.373.01 9.559h3.496v-7.051c.04-1.074-.112-2.171.15-3.223.342-1.293 1.818-1.969 3.064-1.642 1.105.187 1.7 1.334 1.698 2.373.022 3.18.004 6.362.01 9.543h3.482v-6.6c-.055-1.813.223-3.709-.52-5.424-.61-1.576-2.234-2.572-3.89-2.646a5.914 5.914 0 0 0-.778-.031zm23.63 0v.001c-1.827.057-3.67.992-4.43 2.713-.4-1.146-1.258-2.227-2.465-2.564-1.844-.516-3.818.347-4.994 1.789-.178-.588-.093-1.436-.805-1.666-.807-.085-1.625-.02-2.438-.04v14.468h3.483v-10.54c.702-1 2.042-1.68 3.289-1.38 1.104.175 1.648 1.34 1.637 2.361.02 3.186.004 6.373.01 9.559h3.496v-7.051c.04-1.074-.11-2.171.152-3.223.342-1.293 1.816-1.969 3.062-1.642 1.105.187 1.7 1.334 1.698 2.373.022 3.18.004 6.362.01 9.543h3.482v-6.6c-.055-1.813.223-3.709-.52-5.424-.61-1.576-2.232-2.572-3.888-2.646a5.944 5.944 0 0 0-.78-.031zm94.62 4.406c-1.018 0-2.038.274-2.89.826-1.192.768-1.868 2.235-1.645 3.64.1 1.208.965 2.253 2.09 2.667-.72.23-1.419.613-1.89 1.218-.922 1.223-.933 3.004-.204 4.32.895 1.579 2.808 2.238 4.54 2.212 1.15.003 2.335-.253 3.304-.897 1.417-.897 2.023-2.732 1.643-4.332-.241-1.257-1.31-2.18-2.502-2.521 1.03-.395 1.866-1.304 2.049-2.407.329-1.473-.334-3.085-1.604-3.9-.853-.549-1.872-.826-2.89-.826zm-.146 1.877c.45-.027.909.065 1.295.267.94.491 1.17 1.708.885 2.655-.188.916-1.136 1.477-2.034 1.418-.557.01-1.136-.147-1.545-.545-.665-.694-.749-1.818-.404-2.684.324-.708 1.052-1.07 1.803-1.111zm-.082 6.29a3.417 3.417 0 0 1 1.596.292c1.039.496 1.3 1.822 1.039 2.851-.243 1.066-1.363 1.69-2.407 1.63-.885.026-1.849-.36-2.244-1.2-.434-.97-.349-2.306.498-3.031.435-.336.97-.508 1.518-.541zm.498 25.784c-1.375-.066-2.776.369-3.79 1.31-1.612 1.469-1.968 4.158-.714 5.958 1.138 1.684 3.581 2.07 5.33 1.173.657-.453-.127.381-.29.627l-4.518 5.647h1.26c.753-.03 1.635.153 2.216-.457 1.114-1.54 2.187-3.112 3.285-4.664.967-1.295 1.712-2.818 1.766-4.46.125-1.731-.618-3.609-2.188-4.476a5.39 5.39 0 0 0-2.357-.658zm-.336 2.03c.31-.008.62.038.908.136 1.032.28 1.652 1.353 1.604 2.385.011.874-.409 1.784-1.221 2.18-.969.462-2.287.428-3.096-.338-.712-.787-.775-2.016-.408-2.973.353-.898 1.283-1.373 2.213-1.39zm5.29 31.757c-1.206.04-2.39.497-3.233 1.383-1.437 1.509-1.85 3.685-1.891 5.7-.038 2.109.249 4.39 1.607 6.09 1.736 2.237 5.525 2.268 7.334.11 1.37-1.6 1.72-3.804 1.723-5.847 0-1.925-.315-3.987-1.494-5.569-.919-1.284-2.498-1.919-4.047-1.867zm-11.55.139-4.437 3.775.642.881c.214.43.786.641 1.2.35.65-.518 1.278-1.065 1.92-1.594.241-.261.326-.213.246.18-.027 3.039-.005 6.079-.012 9.119h-2.95v1.861h8.051v-1.861h-2.617v-12.711h-2.043zm11.66 1.931c.689-.026 1.39.244 1.811.815.952 1.3 1.034 2.995 1.053 4.55-.015 1.473-.1 3.06-.903 4.342-.686 1.212-2.593 1.395-3.494.334-.953-1.163-1.083-2.747-1.133-4.195-.007-1.657.004-3.45.928-4.894.374-.607 1.05-.927 1.738-.952z" style="fill:red;fill-opacity:1;stroke:none;stroke-width:.22501257" transform="scale(.26458)"/><path d="M106.569 56.32a17.923 17.923 0 0 1-3.562 3.515L84.98.689l-11.38 3.469 22.858 74.844Z" style="color:#000;shape-padding:0;clip-rule:nonzero;display:inline;overflow:visible;visibility:visible;opacity:1;isolation:auto;mix-blend-mode:normal;color-interpolation:sRGB;color-interpolation-filters:linearRGB;solid-color:#000;solid-opacity:1;vector-effect:none;fill:url(#d);fill-opacity:1;fill-rule:nonzero;stroke:none;stroke-width:1.78603756;stroke-linecap:butt;stroke-linejoin:miter;stroke-miterlimit:4;stroke-dasharray:none;stroke-dashoffset:0;stroke-opacity:1;color-rendering:auto;image-rendering:auto;shape-rendering:auto;text-rendering:auto;enable-background:accumulate"/><path d="M12.492 22.681a17.921 17.921 0 0 1 3.562-3.514l18.028 59.145 11.38-3.468L22.603 0Z" style="color:#000;shape-padding:0;clip-rule:nonzero;display:inline;overflow:visible;visibility:visible;opacity:1;isolation:auto;mix-blend-mode:normal;color-interpolation:sRGB;color-interpolation-filters:linearRGB;solid-color:#000;solid-opacity:1;vector-effect:none;fill:url(#e);fill-opacity:1;fill-rule:nonzero;stroke:none;stroke-width:1.78603756;stroke-linecap:butt;stroke-linejoin:miter;stroke-miterlimit:4;stroke-dasharray:none;stroke-dashoffset:0;stroke-opacity:1;color-rendering:auto;image-rendering:auto;shape-rendering:auto;text-rendering:auto;enable-background:accumulate"/><path d="M13.607 96.861v5.159H8.224v1.19h5.383v87.89H8.224v1.191h5.383v8.002h1.19V96.861zM2.455 99.043c-.718-.004-1.439.31-1.832.93-.62.92-.676 2.084-.593 3.156.082.881.395 1.824 1.148 2.354.986.678 2.53.4 3.137-.657.445-.704.565-1.56.566-2.378.003-.993-.188-2.074-.91-2.81-.4-.395-.957-.591-1.516-.595zm-.123.948c.437-.034.9.21 1.054.635.283.561.314 1.206.32 1.822-.007.732-.049 1.53-.519 2.13-.445.535-1.432.386-1.68-.272-.39-.774-.346-1.668-.307-2.509.05-.606.186-1.302.716-1.675a.95.95 0 0 1 .416-.13zm27.661 22.47v5.544h.922v-1.754c.143.012.314-.038.432.067.299.426.583.863.876 1.293.112.138.173.353.37.385.31.018.622.003.933.008l-.62-.904c-.27-.383-.52-.78-.806-1.15-.183-.095-.019-.143.07-.238.432-.51.86-1.024 1.289-1.536h-.514c-.197.016-.424-.05-.587.092-.34.401-.664.816-.998 1.223-.088.171-.286.143-.445.144v-3.174zm7.997 1.654c-.483.015-.97.263-1.172.718-.106-.303-.333-.59-.652-.678-.488-.137-1.01.091-1.322.473-.047-.156-.024-.38-.212-.44-.214-.023-.431-.006-.646-.012v3.829h.922v-2.789c.186-.264.54-.445.87-.366.292.047.436.355.433.626.006.842 0 1.686.002 2.529h.926v-1.866c.01-.285-.03-.574.04-.853.09-.342.48-.521.81-.435.293.05.45.354.45.629.005.841 0 1.683.002 2.525h.922v-1.747c-.015-.48.058-.98-.138-1.435-.162-.417-.59-.68-1.03-.7a1.499 1.499 0 0 0-.205-.008zm-8.215 7.672v5.544h.92v-2.768c.256-.264.621-.46.998-.39.31.032.493.347.493.637.006.84 0 1.68.002 2.521h.922v-1.763c-.013-.475.057-.972-.145-1.42-.173-.424-.615-.697-1.069-.702-.448-.037-.884.161-1.2.471v-2.13zm8.215 1.655c-.483.015-.97.263-1.172.718-.106-.303-.333-.589-.652-.678-.488-.137-1.01.091-1.322.473-.047-.155-.024-.38-.212-.441-.214-.023-.431-.005-.646-.01v3.827h.922v-2.788c.186-.265.54-.445.87-.366.292.047.436.355.433.625.006.843 0 1.686.002 2.53h.926v-1.866c.01-.285-.03-.575.04-.853.09-.342.48-.521.81-.435.293.05.45.354.45.629.005.841 0 1.683.002 2.524h.922v-1.746c-.015-.48.058-.98-.138-1.435-.162-.417-.59-.68-1.03-.7a1.565 1.565 0 0 0-.205-.008zm-9.63 7.672v1.824c-.004.102.03.28-.093.117-.57-.474-1.489-.36-1.977.179-.51.549-.599 1.354-.492 2.068.076.545.362 1.12.904 1.326.586.225 1.278-.002 1.676-.474.061-.068.049.14.078.194.017.144.08.329.261.31h.563v-5.544zm3.17 1.65c-.524.029-1.039.239-1.422.6l.134.241c.062.148.219.26.383.214.208-.06.374-.219.584-.28.261-.074.583-.096.803.091.233.212.207.547.207.835a6.311 6.311 0 0 0-.67.047c-.484.07-.994.196-1.359.542-.348.334-.343.927-.054 1.296.27.337.741.403 1.146.355.394-.036.741-.252 1.023-.517.025.08.05.162.073.243.023.156.172.247.322.227h.419v-1.817c-.011-.389.04-.787-.086-1.163a1.283 1.283 0 0 0-.98-.883 2.22 2.22 0 0 0-.523-.032zm6.46.005c-.483.015-.97.263-1.172.718-.106-.303-.333-.59-.652-.678-.488-.137-1.01.091-1.322.473-.047-.156-.024-.38-.212-.44-.214-.023-.431-.005-.646-.011v3.827h.922v-2.788c.186-.265.54-.444.87-.365.292.046.436.354.433.624.006.843 0 1.687.002 2.53h.926v-1.866c.01-.284-.03-.574.04-.853.09-.342.48-.52.81-.434.293.05.45.353.45.628.005.841 0 1.683.002 2.524h.922v-1.746c-.015-.48.058-.98-.138-1.434-.162-.417-.59-.681-1.03-.7a1.565 1.565 0 0 0-.205-.009zm-10.356.691c.278.003.56.124.725.348v1.716c-.207.268-.519.478-.87.46a.901.901 0 0 1-.17-.017c-.365-.054-.537-.436-.58-.764-.05-.463-.064-.973.188-1.384.154-.247.43-.362.707-.359zm4.585 1.565v.462c-.011.08.034.183-.05.234a1.12 1.12 0 0 1-.845.363c-.198.003-.447-.07-.499-.289a.448.448 0 0 1 .228-.543c.358-.182.772-.202 1.166-.227zm5.771 7.07c-.483.016-.97.264-1.172.72-.106-.304-.333-.59-.652-.68-.488-.136-1.01.092-1.322.474-.047-.155-.024-.38-.212-.44-.214-.023-.431-.006-.646-.012v3.828h.922v-2.788c.186-.265.54-.445.87-.366.292.047.436.355.433.626.006.842 0 1.686.002 2.529h.926v-1.866c.01-.285-.03-.574.04-.853.09-.342.48-.521.81-.435.293.05.45.354.45.629.005.841 0 1.683.002 2.525h.922v-1.747c-.015-.48.058-.98-.138-1.435-.162-.417-.59-.68-1.03-.7a1.499 1.499 0 0 0-.205-.008zm-5.842 7.673v1.824c-.004.101.031.28-.092.117-.57-.473-1.489-.359-1.977.18-.51.548-.6 1.353-.492 2.067.076.545.361 1.121.904 1.326.586.225 1.278-.002 1.676-.474.061-.067.049.14.078.194.017.145.08.329.261.31h.563v-5.544zm5.842 1.655c-.483.015-.97.263-1.172.718-.106-.303-.333-.59-.652-.678-.488-.137-1.01.092-1.322.473-.047-.155-.024-.38-.212-.441-.214-.023-.431-.005-.646-.01v3.827h.922v-2.788c.186-.265.54-.445.87-.366.292.047.436.355.433.625.006.843 0 1.686.002 2.53h.926v-1.866c.01-.284-.03-.575.04-.853.09-.342.48-.52.81-.435.293.05.45.354.45.629.005.841 0 1.683.002 2.524h.922v-1.746c-.015-.48.058-.98-.138-1.434-.162-.418-.59-.681-1.03-.701a1.565 1.565 0 0 0-.205-.008zm-6.567.69c.278.004.56.124.725.349v1.716c-.207.267-.519.478-.87.459a.937.937 0 0 1-.17-.016c-.365-.054-.537-.436-.58-.765-.05-.462-.063-.973.189-1.383.153-.247.428-.362.706-.36zm6.567 8.637c-.483.015-.97.263-1.172.718-.106-.304-.333-.59-.652-.679-.488-.136-1.01.092-1.322.474-.047-.156-.024-.38-.212-.441-.214-.022-.431-.005-.646-.01v3.827h.922v-2.788c.186-.265.54-.445.87-.366.292.047.436.355.433.625.006.843 0 1.686.002 2.53h.926v-1.866c.01-.284-.03-.575.04-.853.09-.342.48-.52.81-.434.293.049.45.353.45.627.005.842 0 1.684.002 2.525h.922v-1.746c-.015-.48.058-.981-.138-1.435-.162-.417-.59-.68-1.03-.7a1.565 1.565 0 0 0-.205-.008zm-5.938 0a2.004 2.004 0 0 0-.896.19c-.516.242-.85.77-.937 1.324-.103.634-.01 1.34.413 1.847.327.406.858.616 1.374.582.526-.008 1.063-.21 1.402-.625-.099-.124-.195-.25-.296-.373-.124-.109-.287-.015-.387.08a1.035 1.035 0 0 1-.98.165c-.37-.132-.558-.531-.6-.899-.044-.428-.03-.908.235-1.269.298-.378.887-.407 1.28-.164.133.104.358.204.469.013l.242-.336a1.796 1.796 0 0 0-.77-.462 2.347 2.347 0 0 0-.55-.072zM2.385 188.363l-1.177 1.001c-.234.186-.439.405-.69.57-.302.234.154.588.339.751.348.125.58-.275.837-.443.145-.052.484-.57.494-.236-.012 1.392-.002 2.783-.006 4.174H.832v.853h3.686v-.853H3.32v-5.817z" style="color:#000;shape-padding:0;clip-rule:nonzero;display:inline;overflow:visible;visibility:visible;opacity:1;isolation:auto;mix-blend-mode:normal;color-interpolation:sRGB;color-interpolation-filters:linearRGB;solid-color:#000;solid-opacity:1;vector-effect:none;fill:green;fill-opacity:1;fill-rule:nonzero;stroke:none;stroke-width:1.19069183;stroke-linecap:butt;stroke-linejoin:miter;stroke-miterlimit:4;stroke-dasharray:none;stroke-dashoffset:0;stroke-opacity:1;color-rendering:auto;image-rendering:auto;shape-rendering:auto;text-rendering:auto;enable-background:accumulate"/><path d="M68.2 122.472a6.96 6.96 0 0 1 .901 1.72l-24-.012-.001 4.617h30.374Zm-.049 9.18c.386.538.686 1.118.9 1.72l-23.999-.013-.002 4.618h30.374zm0 9.18c.386.538.686 1.118.9 1.72l-23.999-.013-.002 4.617h30.374zm0 9.178c.386.54.686 1.119.9 1.72l-23.999-.012-.002 4.618h30.374zm0 9.18c.386.539.686 1.119.9 1.72l-23.999-.012-.002 4.617h30.374zm0 9.18a6.96 6.96 0 0 1 .9 1.72l-23.999-.012-.002 4.617h30.374z" style="color:#000;shape-padding:0;clip-rule:nonzero;display:inline;overflow:visible;visibility:visible;opacity:1;isolation:auto;mix-blend-mode:normal;color-interpolation:sRGB;color-interpolation-filters:linearRGB;solid-color:#000;solid-opacity:1;vector-effect:none;fill:url(#f);fill-opacity:1;fill-rule:nonzero;stroke:none;stroke-width:1.78603768;stroke-linecap:butt;stroke-linejoin:miter;stroke-miterlimit:4;stroke-dasharray:none;stroke-dashoffset:0;stroke-opacity:1;color-rendering:auto;image-rendering:auto;shape-rendering:auto;text-rendering:auto;enable-background:accumulate"/><path d="m97.994 115.99-3.047.93 4.95 16.234c1.015-.31 2.03-.618 3.046-.927l-4.949-16.237zm239.97 1.764-3.788 7.088-7.432-3.96-1.482 2.837 7.414 3.965-3.924 7.365 2.812 1.527 3.936-7.387 7.06 3.762 1.497-2.857-7.057-3.746 3.791-7.088-2.826-1.506zm-233.325 2.351a2.25 2.25 0 0 0-.547.124c-1.062.28-1.826 1.277-1.856 2.369-.095 1.492 1.22 2.91 2.735 2.81 1.568-.017 2.818-1.634 2.47-3.156-.216-1.3-1.515-2.272-2.802-2.147zm-11.856 3.614a2.265 2.265 0 0 0-.549.123c-1.061.281-1.824 1.277-1.853 2.369-.095 1.492 1.219 2.91 2.734 2.81 1.568-.016 2.818-1.634 2.47-3.156-.215-1.3-1.515-2.272-2.802-2.146zm18.918 18.732-1.02 1.356c-.573.575-.861 1.545-.218 2.187 1.075.827 2.264 1.505 3.387 2.27.457.309 1.306.678.175.724-5.042 1.49-10.062 3.059-15.095 4.58-.496-1.626-.99-3.252-1.487-4.879l-3.08.94 4.06 13.32 3.08-.937-1.32-4.33 21.032-6.41-1.03-3.381-8.484-5.44zm235.89 2.406-1.019 1.356c-.574.575-.864 1.547-.22 2.19 1.075.826 2.266 1.502 3.388 2.267.458.309 1.307.678.176.725-5.043 1.489-10.062 3.06-15.096 4.582l-1.486-4.88c-1.027.314-2.055.625-3.082.938l4.06 13.322 3.083-.939-1.32-4.33 21.03-6.41-1.03-3.381-8.483-5.44zm-230.19 16.33c-1.78-.005-3.583.32-5.268.784-3.578.999-7.295 2.62-9.465 5.783-2.774 3.93-1.033 10.077 3.297 12.09 3.38 1.586 7.312 1.052 10.767.004 3.149-.961 6.35-2.494 8.383-5.18 2.993-3.78 1.63-9.996-2.58-12.28-1.595-.858-3.354-1.195-5.135-1.2zm235.89 2.407c-1.78-.006-3.582.319-5.268.783-3.577.999-7.294 2.622-9.464 5.785-2.774 3.93-1.034 10.075 3.296 12.088 3.381 1.586 7.311 1.052 10.766.004 3.148-.96 6.35-2.492 8.385-5.178 2.993-3.78 1.627-9.998-2.582-12.281-1.595-.859-3.353-1.195-5.133-1.201zm-235.03 1.855c.724.017 1.445.11 2.159.31 2.384.626 3.483 3.835 2.016 5.804-1.673 2.23-4.435 3.221-6.999 4.039-2.442.718-5.115 1.376-7.64.695-2.35-.526-3.616-3.586-2.315-5.613 1.446-2.164 4.002-3.178 6.372-3.99 2.053-.64 4.238-1.294 6.408-1.245zm235.891 2.406c.723.017 1.445.111 2.159.311 2.383.625 3.482 3.834 2.015 5.803-1.672 2.23-4.434 3.221-6.998 4.039-2.442.718-5.116 1.376-7.64.695-2.35-.526-3.619-3.584-2.317-5.611 1.445-2.164 4.003-3.178 6.373-3.99 2.054-.64 4.239-1.296 6.408-1.247z" style="fill:#fff;fill-opacity:1;stroke:none;stroke-width:.22501262" transform="scale(.26458)"/></svg>
