<svg xmlns="http://www.w3.org/2000/svg" width="500" height="2756.11" viewBox="0 0 132.292 729.221"><defs><linearGradient id="a"><stop offset="0" style="stop-color:#b3ff80;stop-opacity:1"/><stop offset="1" style="stop-color:teal;stop-opacity:1"/></linearGradient><linearGradient id="b"><stop offset="0" style="stop-color:#ffb380;stop-opacity:1"/><stop offset="1" style="stop-color:#f0f;stop-opacity:1"/></linearGradient><linearGradient id="c"><stop offset="0" style="stop-color:#0f0;stop-opacity:1"/><stop offset="1" style="stop-color:green;stop-opacity:1"/></linearGradient></defs><path d="M25.917 0v124.045l.001 55.723h-.002v179.769h91.153-91.153V536.77h106.3l.064-68.323h-30.431l30.337-.217.095-55.506h-.369l.27-68.405H117.07v-.001h15.116l.062-55.68h-.025l-.04-55.682h.035l-.035-68.407H117.07l15.117-.217.095-55.506h-.097l.062-55.681-60.754-.042h60.688V0ZM86.67 288.636v.183zM25.917 536.77v68.406h-.001V660.9h75.933-75.932v68.322h15.116l.035-15.135h91.136l.077-68.407H101.85l30.337-.218.095-55.506h-.005l-.096-53.186z" style="fill:#fff;stroke-width:.08455714"/><path d="M71.493 53.102v15.22H25.917v55.723h45.576v-15.22h60.693l.061-55.681zm48.113 2.621h10.147v10.062h-10.147zm6.258 2.452-.804.007c-.68.912-1.359 1.826-2.04 2.737-.137.227-.038.558.158.723h2.009v1.1h.677v-1.1h.385c.254-.055.2-.393.206-.591h-.591zm-.72.927.031 1.085c-.016.25.065.51-.025.752l-.042.111h-.981c-.119.002-.352.042-.264-.153.407-.612.857-1.195 1.282-1.795zm-5.538 11.757h10.147v10.146h-10.147zm3.223 2.537-1.088.92c-.427.171-.125.552.142.71.292-.199.573-.413.852-.63v2.973h-.93v.593h2.536v-.593h-.845v-3.973zm3.636 0-1.088.92c-.427.171-.125.552.142.71.292-.199.573-.413.852-.63v2.973h-.93v.593h2.536v-.593h-.845v-3.973zm-6.859 10.146h10.147V93.69h-10.147zm6.804 2.37a1.54 1.54 0 0 0-.266.036c-.63.094-1.14.718-1.058 1.359-.072.383.394.542.471.877-.247.254-.632.477-.623.879-.144.715.461 1.448 1.175 1.506.534.104 1.13.014 1.568-.324.436-.327.497-.941.348-1.43.044-.4-.669-.383-.502-.782.39-.245.534-.773.398-1.2-.213-.614-.882-.952-1.511-.92zm-3.29.064a.922.922 0 0 0-.225.04c-.428.145-.662.592-1.063.79-.372.114-.328.747.051.819.293-.198.573-.412.852-.63v2.974h-.93v.591h2.537v-.591h-.846c.002-1.207-.005-2.414.002-3.62.1-.303-.14-.386-.377-.373zm3.374.526a.63.63 0 0 1 .15.01c.54.047.729.81.367 1.167-.093.132-.257.192-.413.2-.394.069-.784-.282-.764-.68-.034-.372.305-.677.66-.697zm-.095 2c.1-.007.201.004.293.032.575.013.857.876.401 1.227-.215.315-.635.215-.95.164-.326-.156-.453-.566-.377-.903.037-.318.333-.498.633-.52zm-97.946 7.724H38.6v10.062H28.453Zm15.22 0h10.063v10.062H43.674Zm15.136 0h10.147v10.062H58.81Zm15.22 0h10.148v10.062H74.03Zm15.221 0h10.062v10.062H89.25Zm15.136 0h10.146v10.062h-10.146zm15.22 0h10.147v10.062h-10.147zm3.245 2.372c-.425.02-.847.2-1.126.522-.191.2-.392.51-.253.79.203.252.638.082.742-.19.15-.551 1.039-.624 1.28-.107.19.339-.046.698-.11 1.036-.475.517-.984 1-1.463 1.514-.209.28-.638.452-.624.855v.226c.935.004 1.87-.006 2.805.001.485.05.416-.65.068-.785l-1.428.07c-.392.088-.036-.24.096-.351.39-.466.886-.84 1.226-1.349.367-.524.411-1.317-.062-1.794-.295-.319-.725-.459-1.15-.438zm4.957.075-1.441.03c-.27.056-.674-.132-.826.185-.071.477-.147.955-.248 1.428-.177.323.035.779.443.7.336-.096.713-.209 1.048-.048.476.203.549.842.326 1.258-.243.48-.95.566-1.337.21-.253-.199-.813-.048-.682.335.127.32.512.377.8.477.356.106.743.054 1.085-.077.644-.21 1.066-.888 1.018-1.556.03-.58-.39-1.145-.956-1.278-.308-.141-.828.068-1.013-.184.06-.253-.058-.594.185-.77.524-.114 1.09.093 1.598-.132zM58.81 111.362h10.147v10.146H58.81zm6.914 2.442a1.331 1.331 0 0 0-.528.096c-.72.17-1.146 1.088-.782 1.732.545.252.305.65-.11.875-.527.747.105 1.917 1.01 1.966a1.99 1.99 0 0 0 1.3-.163c.783-.317.914-1.437.334-2-.755-.26.24-.52.209-1.017.161-.837-.647-1.475-1.433-1.489zm-3.54.014a1.62 1.62 0 0 0-.763.152c-.452.163-1.236 1.092-.453 1.289.503-.266.995-1.238 1.645-.544.502.763-.335 1.565-.888 2.032-.344.547-1.08.83-1.223 1.491v.227c1.013-.005 2.032.01 3.042-.01.458-.813-.744-.894-1.28-.701-.88.19-.145-.478.14-.744.616-.577 1.37-1.338 1.097-2.266-.183-.583-.74-.902-1.316-.926zm3.545.574c.516.043.965.73.486 1.19-.092.136-.183.205-.355.173-.67.228-1.07-.715-.638-1.16a.618.618 0 0 1 .507-.203zm.004 1.993c.617.007 1.101.806.564 1.28-.133.292-.474.187-.72.216-.75-.01-.876-1.363-.115-1.447a.734.734 0 0 1 .27-.049zm-24.68 116.57v15.136H25.918l-.001 55.723H86.67v-15.178h45.552l-.04-55.681zm78.554 2.537h10.147v10.062h-10.147zm5.326 2.452-.94 1.26c-.21.314-.494.585-.636.941-.17.285-.173.626-.156.948-.058.274.08.535.211.766.166.381.579.563.96.656.084.022.17.042.255.063.263-.044.54-.03.788-.14.308-.099.514-.36.712-.6.228-.204.21-.527.258-.803-.056-.258-.027-.56-.22-.768-.154-.255-.417-.41-.648-.587h-.62c-.102-.033-.35.075-.334-.07.414-.576.898-1.097 1.322-1.666zm-.108 2.278c.152.01.296.084.425.164.158.05.231.159.252.32.037.192.194.398.05.578-.09.205-.16.486-.415.537a.945.945 0 0 1-.668.08c-.196-.117-.465-.25-.5-.502-.044-.23-.1-.495.05-.703.073-.287.384-.422.652-.461a.502.502 0 0 1 .154-.013zm-5.218 10.404 10.105.043.043 10.105h-10.148zm6.99 2.458a1.616 1.616 0 0 0-.919.256c-.302.23-.718.604-.544 1.025.35.428.783-.144.953-.456.377-.4 1.09-.08 1.128.441.074.388-.267.722-.642.718-.553-.072-.403.785.09.656.51-.015.804.575.535.993-.253.495-1.016.566-1.339.106-.136-.397-.705-.64-.903-.151.073.494.592.953 1.088 1.06.212.08.442.046.662.033.802-.008 1.486-.797 1.347-1.593.014-.436-.5-.557-.593-.926.379-.32.696-.849.436-1.372-.221-.516-.757-.78-1.3-.79zm-3.377.054a.641.641 0 0 0-.127.021c-.43-.046-.627.396-.95.587-.287.193-.797.512-.476.903.43.285.722-.331 1.069-.485v2.782c.062.211-.088.211-.256.192-.254.008-.777-.108-.675.296v.296h2.538v-.592h-.846v-3.509c.047-.28-.01-.505-.277-.491zm-54.263 10.171v10.149H58.808l.044-10.105zm5.074 0 10.104.044.044 10.105H74.03Zm45.576 0 10.105.044.043 10.105h-10.148zm-91.152.001 10.104.043.044 10.105H28.454Zm60.796.001h10.062v10.147H89.25Zm-45.576 0h10.062v10.147H43.674Zm60.754.042h10.062l.044 10.105h-10.15zm18.469 2.329c-.453.005-.91.185-1.213.522-.22.187-.352.615-.08.814.41.172.623-.35.913-.53.346-.32.985-.052 1.04.405.057.691-.465 1.245-.964 1.648-.382.562-1.104.87-1.296 1.562.003.07-.052.192.042.227.837.029 1.68-.06 2.514.048.397.163.743-.408.455-.703-.37-.265-.836-.098-1.245-.055-.458.154-.378-.53-.032-.603.37-.308.718-.648.985-1.05.38-.493.471-1.243.074-1.752-.29-.366-.74-.538-1.193-.533zm3.647.008c-.496-.007-.996.206-1.28.626-.453.652-.402 1.483-.374 2.238-.024.778.475 1.614 1.27 1.78.456.125.96-.013 1.32-.312.57-.517.753-1.332.727-2.076-.045-.644-.129-1.363-.617-1.835a1.499 1.499 0 0 0-1.046-.421zm.007.664c.13 0 .258.034.373.115.443.4.465 1.042.46 1.596.02.56-.046 1.235-.556 1.576-.376.256-.85-.047-1.016-.408a4.465 4.465 0 0 1-.069-2.146c.031-.398.421-.73.808-.733zm-6.945 9.64h10.149l-.044 10.105-10.105.044zm3.287 2.37a1.566 1.566 0 0 0-.762.198c-.35.202-.939.716-.583 1.132.415.305.654-.38.99-.526.383-.34.975-.027 1.017.452.056.718-.541 1.246-1.034 1.675-.346.547-1.066.82-1.223 1.491v.227c.57 0 1.139.003 1.709-.003.397-.031.801.053 1.185.019.492-.198.175-.831-.275-.793-.401-.116-.846.19-1.207.006.053-.438.574-.682.836-1.021.52-.495.995-1.242.728-1.981-.198-.58-.792-.881-1.381-.877zm2.727.056c-.367-.016-.886.132-.617.571.722.35 1.545-.005 2.304.151-.626 1.289-1.344 2.531-1.95 3.83.26.106.536-.023.803-.004.363-.74.745-1.472 1.1-2.216.298-.765.95-1.438.887-2.307-.794-.004-1.588.01-2.38-.008a.943.943 0 0 0-.147-.017zm-51.616 12.646h10.062v10.062H74.005Zm3.262 2.372c-.67-.003-1.37.416-1.5 1.102-.035.376.574.451.726.152.08-.412.55-.695.95-.566.501.144.626.938.17 1.204-.285.044-.883.125-.687.554.204.326.688.115.92.4.318.435-.005 1.1-.517 1.189-.403.116-.77-.197-.955-.527-.145-.362-.8-.192-.74.197.212.441.59.848 1.088.942.503.12 1.085.048 1.498-.282.507-.372.706-1.152.348-1.687-.192-.185-.549-.364-.319-.683.271-.206.468-.504.402-.873-.03-.58-.553-1.013-1.1-1.096a1.542 1.542 0 0 0-.284-.027zm3.953.068c-.127.004-.262.028-.365.046-.364.203-.611.566-.975.773-.383.106-.349.75.037.824.293-.199.574-.412.852-.63v2.464c-.007.196.092.612-.248.505-.251-.04-.7-.062-.682.3v.296h2.537v-.591h-.845v-.966c.003-.98-.007-1.963.005-2.942-.07-.066-.19-.083-.316-.08zM56.273 412.723v15.221H25.916v55.638h75.934v-15.136l30.337-.217.095-55.506zm63.333 2.537h10.147v10.147h-10.147zm6.426 2.448-2.231.047c-.122.649-.204 1.306-.36 1.948.007.275.342.405.574.323.28-.073.575-.16.862-.069.304.079.564.347.569.672.047.373-.103.803-.466.964a.88.88 0 0 1-.96-.103c-.206-.123-.528-.16-.685.058-.131.214.058.474.267.545.347.163.734.294 1.122.227.371-.042.742-.174 1.01-.442.313-.289.491-.71.482-1.136.016-.41-.113-.851-.453-1.106-.199-.166-.443-.303-.71-.294l-.841-.065c.044-.279.091-.558.132-.837.23-.13.496-.02.742-.048.317.014.648.02.946-.105v-.579zM28.453 430.48H38.6v10.063H28.453Zm15.22 0h10.063v10.063H43.674Zm15.136 0h10.147v10.063H58.81Zm15.22 0h10.147v10.063H74.03Zm15.221 0h10.062v10.063H89.25Zm15.136 0h10.146v10.063h-10.146zm15.22 0h10.147v10.063h-10.147zm6.967 2.371a1.581 1.581 0 0 0-1.476.935c-.219.313.267.664.54.45.225-.234.325-.64.691-.697.398-.128.907.186.872.627-.036.412-.184.837-.52 1.099-.464.458-.903.941-1.37 1.395-.241.167-.55.591-.29.84.285.01.572-.018.86-.001.682 0 1.364.001 2.046-.002.35-.186.11-.834-.271-.774l-1.534.074c.48-.521.999-1.01 1.464-1.544.375-.478.56-1.181.226-1.73a1.387 1.387 0 0 0-1.238-.671zm-3.077.08-.499.001c-.468.089-.725.531-1.088.792-.363.042-.518.642-.117.75.354.076.57-.28.813-.47.18-.151.12.132.13.235v2.668c-.292.03-.609-.064-.882.043-.096.13-.098.5.016.548h2.472v-.592h-.845zm-3.89 10.149h10.147v10.146h-10.147zm6.958 2.459a1.73 1.73 0 0 0-.152.003c-.804.013-1.533.743-1.49 1.557.006.419.243.807.58 1.045.28.272.688.17 1.035.147.193-.044.399-.004.174.17-.42.523-.829 1.056-1.258 1.571.065.333.54.099.773.126.337-.155.464-.533.695-.798.376-.538.797-1.066 1.022-1.69.174-.6.119-1.356-.403-1.772a1.609 1.609 0 0 0-.976-.36zm-3.43.06c-.396-.017-.652.331-.934.551-.233.238-.745.387-.612.814.156.32.602.192.774-.047.093-.154.44-.417.374-.06-.005.91 0 1.822-.002 2.733-.293.064-.73-.176-.913.153-.124.206-.016.516.254.44h2.266v-.593h-.845v-3.813c-.033-.161-.227-.185-.362-.177zm3.4.59c.604-.021 1 .805.6 1.26-.24.347-.764.376-1.11.184-.44-.292-.435-1.055.046-1.307a.859.859 0 0 1 .465-.137zm-6.928 9.574h10.147v10.147h-10.147zm3.193 2.46c-.611.05-1.21.448-1.377 1.055.001.57.81.376.866-.083.265-.404.938-.435 1.181.007.274.512-.071 1.096-.44 1.459-.491.45-.914.969-1.417 1.405-.23.194-.522.77-.034.818.59-.052 1.184-.009 1.777-.017.354-.067.945.237 1.078-.244.096-.62-.668-.627-1.08-.498-.266.12-.971.012-.528-.345.39-.361.77-.74 1.109-1.151.464-.53.59-1.415.082-1.96a1.4 1.4 0 0 0-.955-.445 1.474 1.474 0 0 0-.262-.001zm4.125.075c-.458.034-.554.57-.83.848-.541.664-1.196 1.389-1.147 2.307.015.72.583 1.379 1.309 1.454.902.157 1.924-.544 1.9-1.505.01-.619-.425-1.332-1.09-1.365-.327.123-.853-.097-.457-.45.376-.407.707-.852 1.05-1.287-.245 0-.491-.004-.735-.002zm-.424 2.276a.66.66 0 0 1 .102.005c.7.004 1.02 1.01.52 1.467-.427.451-1.333.225-1.422-.417-.117-.492.297-1.04.8-1.055zm-37.25 10.41h10.062v10.062H89.25Zm3.261 2.37c-.672-.015-1.395.441-1.5 1.138.025.4.723.4.76.005.158-.506.968-.675 1.254-.194.192.292.15.756-.167.944-.306.006-.881.177-.664.584.234.292.732.078.927.425.28.447-.077 1.075-.58 1.145-.396.083-.745-.214-.922-.541-.15-.369-.84-.17-.718.226.288.73 1.152 1.122 1.901.936.609-.117 1.158-.627 1.188-1.268.028-.308-.058-.672-.348-.833a.455.455 0 0 1 .074-.782c.403-.515.12-1.323-.444-1.592a1.571 1.571 0 0 0-.76-.192zm3.954.069c-.457-.04-.763.358-1.068.632-.275.158-.687.403-.516.784.223.406.59.032.812-.158.139-.143.403-.31.322.017v2.568c-.185.351-.677-.074-.874.254-.229.296.054.603.38.482.7-.002 1.4 0 2.1 0v-.592h-.845c.003-1.303-.007-2.605.005-3.907-.086-.077-.208-.081-.317-.08zM71.493 589.955v15.22H25.916V660.9h75.934v-15.22l30.337-.217.095-55.507zm2.536 2.536 10.105.043.043 10.105H74.03Zm15.221.002h10.062v10.146H89.25Zm15.136 0h10.146v10.146h-10.146zm15.22 0h10.147v10.146h-10.147zm6.035 2.53c-.192-.012-.39.04-.581.014l-1.944 2.609c-.247.226-.187.65.062.85h2.008v1.098h.677c-.002-.282.003-.565 0-.847-.086-.25.147-.301.338-.245.306-.014.252-.386.254-.599h-.592v-2.397c-.016-.148.037-.309-.033-.446a.655.655 0 0 0-.19-.037zm-.517.96c.05.055.018.38.036.538-.021.424.084.852-.01 1.271l-.043.112h-.894c-.123.002-.442.06-.354-.155.408-.599.845-1.176 1.265-1.765zm-5.518 11.73h10.147v10.146h-10.147zm3.222 2.452-1.087.921c-.427.17-.126.551.142.709.292-.198.573-.412.851-.63v2.974h-.93v.592h2.537v-.592h-.845v-3.974zm3.636 0-1.087.921c-.427.17-.126.551.142.709.292-.198.573-.412.851-.63v2.974h-.93v.592h2.537v-.592h-.846v-3.974zm-6.859 10.231h10.149l-.044 10.105-10.105.043zm6.855 2.37a1.516 1.516 0 0 0-.26.028c-.64.073-1.183.684-1.119 1.337-.06.381.348.578.475.891-.212.276-.616.459-.618.853-.165.725.44 1.49 1.17 1.548.21.06.431.054.645.025.565-.03 1.162-.37 1.31-.947.057-.389.042-.84-.224-1.157-.347-.066-.453-.558-.069-.687.207-.272.243-.646.147-.968-.2-.6-.844-.94-1.457-.924zm-3.34.063a.901.901 0 0 0-.224.04c-.429.147-.663.592-1.064.79-.372.115-.328.748.05.82.293-.198.574-.413.852-.63v2.974h-.93v.591h2.537v-.592h-.845c.002-1.205-.005-2.41.002-3.616.102-.303-.138-.39-.377-.377zm3.382.525a.65.65 0 0 1 .145.011c.539.048.725.811.364 1.167-.116.189-.362.214-.561.188-.379.026-.659-.368-.608-.722-.015-.36.32-.63.66-.644zm-.094 2.003a.824.824 0 0 1 .284.031c.574.014.856.876.401 1.227-.216.314-.635.215-.95.163-.337-.162-.461-.59-.37-.934.052-.307.343-.47.635-.487zm-6.803 7.723h10.148l-.043 10.105-10.105.043zm3.406 2.371a1.588 1.588 0 0 0-.512.047c-.45.128-.88.448-1.04.9-.194.373.354.619.61.368.185-.273.385-.618.753-.656.501-.082.878.503.722.95-.196.715-.88 1.101-1.32 1.647-.292.4-.847.63-.927 1.165-.031.076-.009.186.075.216.669.037 1.34-.01 2.01.011.342 0 .776.198 1.013-.16.24-.418-.355-.69-.7-.646-.347-.037-.783.305-1.053-.04.304-.4.694-.722 1.038-1.086.511-.465.83-1.234.564-1.907-.203-.495-.713-.773-1.233-.809zm4.798.076-2.231.047c-.085.41-.127.829-.22 1.238-.08.319-.25.763.083.996.327.124.657-.061.986-.071.47-.032.83.432.81.877.011.435-.319.874-.772.892-.26.044-.481-.098-.696-.216-.232-.11-.602-.088-.673.207.052.377.451.578.796.605.643.166 1.39-.057 1.794-.596.485-.604.427-1.586-.177-2.088-.308-.3-.758-.263-1.153-.279-.4-.04-.442-.627-.192-.868.355-.158.745-.03 1.115-.044.37.095.696-.372.53-.7zm-99.356 12.689H38.6v10.147H28.453Zm15.22 0h10.062v10.147H43.673Zm15.136 0h10.147v10.147H58.809Zm15.22 0h10.147v10.147H74.03Zm15.221 0h10.062v10.147H89.25Zm6.87 2.376c-.48.015-.956.241-1.224.651-.442.64-.388 1.454-.361 2.193-.038.785.468 1.633 1.268 1.804.449.12.941-.01 1.302-.293.578-.527.777-1.354.748-2.112-.042-.672-.149-1.429-.699-1.885a1.47 1.47 0 0 0-1.033-.358zm-3.555.003a1.65 1.65 0 0 0-1.294.512c-.234.2-.39.61-.072.816.315.183.657-.12.79-.396.113-.29.495-.348.75-.222.383.148.598.709.262 1.012-.237.258-.915.18-.78.689.176.254.555.152.775.352.369.33.223.963-.184 1.193-.334.223-.765.042-.99-.25-.152-.346-.776-.516-.902-.07.075.522.556.891 1.046 1.004.418.097.874.073 1.26-.123.648-.297 1.016-1.195.597-1.815-.37-.18-.453-.768-.081-.99.345-.378.186-.981-.169-1.294a1.54 1.54 0 0 0-1.008-.418zm3.67.663a.617.617 0 0 1 .356.132c.454.463.466 1.16.425 1.768.019.503-.081 1.101-.545 1.389a.458.458 0 0 1-.105.059c-.432.164-.857-.224-.971-.62-.105-.68-.176-1.392.016-2.064.052-.388.448-.683.825-.664z" style="fill:#5fcb5f;stroke-width:.08455714"/><path d="M25.917 0v68.322h45.576v-15.22h60.689V0Zm93.689 2.537h10.147v10.062h-10.147zm3.552 2.452v.297c-.019.136.063.254.102.38h2.201c.11-.03.059.049.03.111-.597 1.162-1.202 2.32-1.802 3.48-.033.087-.111.162-.108.258.002.015 0 .033 0 .05l.803-.052 1.976-3.965c.013-.184.006-.373.011-.56zm-3.552 10.145 10.144.004.004 10.145h-10.148zm3.223 2.538-1.246 1.056c-.069.04-.097.108-.12.18l.42.395c.293-.198.573-.412.852-.63v2.974h-.93v.591h2.536v-.591h-.845v-3.975zm4.81 0-.803.008-1.875 2.516c-.077.143-.27.253-.22.432a.6.6 0 0 0 .213.511h2.009v1.1h.676v-1.1h.455c.15-.118.143-.398.137-.591h-.592zm-.719.927.037 1.29c-.011.181.05.376-.031.547l-.043.112h-1.165c-.189.046-.082-.112-.04-.224.409-.579.829-1.15 1.242-1.725zm-7.314 9.22h10.147v10.147h-10.147zm3.26 2.361c-.128.006-.254.063-.38.088-.156.06-.349.05-.468.18-.161.173-.397.296-.472.532-.049.173-.233.388-.137.548.181.026.366.148.546.06.24-.029.233-.33.347-.5.136-.104.33-.19.506-.225.202-.034.382.036.547.146.15.098.149.331.236.486l-.21.763-1.898 1.937c-.132.107-.23.237-.186.416v.227h3.128v-.448c.043-.172-.159-.23-.255-.336l-1.685.081 1.507-1.576c.106-.159.168-.347.252-.52.117-.178.097-.39.096-.593.047-.237-.09-.433-.195-.632-.127-.227-.383-.35-.566-.532l-.583-.088a.4.4 0 0 0-.13-.014zm3.599.092c-.358.303-.716.605-1.073.909-.092.091-.222.15-.274.273.017.178.285.294.4.447.293-.198.574-.412.853-.629v2.973h-.93v.593h2.536v-.593h-.845v-3.973ZM28.453 40.503H38.6V50.65H28.453Zm15.22 0h10.063V50.65H43.673Zm15.136 0h10.147V50.65H58.809Zm15.22 0h10.149l-.044 10.105-10.104.043zm15.221 0h10.062V50.65H89.25Zm15.135 0h10.149l-.044 10.105-10.105.043zm15.22 0h10.149l-.044 10.105-10.104.043zm7.23 2.355-.714.069c-.238-.01-.411.182-.61.286-.211.118-.27.385-.41.571v.738c.008.135.18.202.254.31.082.11.303.243.294.34-.172.123-.44.147-.522.36-.11.203-.239.403-.195.645-.035.268.04.512.193.733.069.24.295.335.495.448.14.114.317.14.489.171.2.059.395.069.6.023.29-.02.562-.125.837-.21l.508-.579c.033-.25.039-.505.012-.756.012-.173-.064-.32-.167-.453-.095-.208-.327-.278-.504-.4-.173-.058-.006-.095.079-.137.253-.046.311-.291.41-.495.176-.217.063-.475.033-.721-.025-.22-.224-.366-.33-.55l-.751-.393zm-3.969.006c-.128.006-.254.062-.38.087-.156.06-.349.05-.468.18-.161.174-.397.296-.472.532-.049.174-.233.388-.137.549.181.026.366.148.546.06.24-.029.233-.33.347-.5.136-.104.33-.19.506-.225.202-.034.382.036.547.145.15.099.149.332.236.487l-.21.763-1.898 1.937c-.132.107-.23.237-.186.416v.226h3.128v-.447c.043-.172-.159-.23-.255-.336l-1.685.08c.503-.524 1.005-1.05 1.507-1.575.106-.16.168-.347.252-.52.117-.178.097-.39.096-.594.047-.236-.09-.432-.195-.63-.127-.228-.383-.352-.566-.534l-.583-.087a.4.4 0 0 0-.13-.014zm3.501.599c.134-.01.285.048.424.059.174.001.255.184.379.281v.524c.031.135-.074.224-.16.313l-.158.175h-.616c-.145-.063-.245-.234-.373-.338v-.562c-.033-.173.2-.218.291-.33a.277.277 0 0 1 .213-.122zm-.25 2.029h.735c.17.088.295.286.449.415v.47c.037.158-.114.243-.208.345l-.208.207h-.728c-.121-.1-.223-.24-.341-.352-.074-.2-.052-.425-.043-.635-.004-.203.234-.298.344-.45zM58.809 55.723h10.147v10.063H58.809Zm3.266 2.367a.683.683 0 0 0-.286.056c-.266.059-.534.141-.718.355-.259.152-.314.45-.424.708-.174.233.152.283.316.274.209.137.397-.02.439-.242.076-.235.306-.338.49-.474h.409c.215.063.329.303.503.436-.03.191-.065.382-.091.574-.085.17-.286.249-.463.29-.15.066-.375-.014-.479.114.038.166-.064.461.155.51.288.025.625.028.83.265.048.09.05.205.08.305.036.122.055.255-.038.36-.088.22-.22.42-.478.46-.215.151-.454.017-.678-.023l-.397-.455c-.107-.182-.302-.296-.493-.141-.236.007-.317.266-.176.442.147.211.273.448.498.588a.976.976 0 0 0 .536.25l.035.008c.174.066.352.056.532.027.22-.033.456-.026.652-.145.255-.093.43-.309.598-.51.123-.212.21-.456.207-.704a.78.78 0 0 0-.169-.593c-.098-.195-.235-.37-.462-.414-.28-.061.094-.219.173-.33.187-.125.371-.314.336-.561.087-.26.02-.55-.13-.774-.044-.221-.26-.331-.44-.433-.166-.126-.372-.173-.576-.19a1.753 1.753 0 0 0-.291-.033zm3.593.085-1.073.91c-.091.09-.221.15-.274.273.018.178.285.294.401.448.293-.198.574-.413.852-.63v2.974h-.93v.591h2.537v-.591h-.846v-3.975Zm51.401 106.373v15.22H25.917v68.323h15.136v-15.136h91.166l-.036-68.407zm2.537 2.537h10.147v10.147h-10.147zm5.083 2.452-1.246 1.056c-.069.04-.097.108-.12.18l.42.394c.293-.198.574-.412.852-.63v2.974h-.93v.592h2.537v-.592h-.846v-3.974zm-5.083 12.768h10.147v10.147h-10.147zm5.454 2.356-.88.083c-.186.102-.365.225-.548.334-.11.162-.203.34-.306.509v.794l.579.578-.491.253-.252.487c-.012.212 0 .43-.005.644.093.2.21.392.31.59.146.101.311.185.465.28.115.087.266.082.401.119l.293.059c.182-.015.365-.047.547-.069.203-.04.397-.121.597-.178l.508-.579c.02-.07.011-.152.02-.227.029-.246-.009-.49-.024-.736-.07-.134-.165-.26-.245-.391-.16-.112-.337-.207-.504-.312l.396-.181.299-.63-.097-.596c-.094-.15-.21-.292-.312-.439l-.75-.392zm-.507.588.569.093c.097.075.18.178.272.263v.65c-.037.068-.108.124-.159.187l-.159.176h-.65l-.339-.339v-.664l.466-.366zm-.212 2.045h.77l.414.415v.596c-.053.08-.141.145-.208.219l-.207.208h-.74l-.29-.314c-.067-.045-.072-.117-.075-.19-.034-.198-.01-.397-.002-.595l.338-.339zm-4.735 7.695h10.147v10.062h-10.147zm8.202 2.447-2.231.047c-.128.714-.242 1.431-.383 2.143l.48.167c.184-.031.37-.106.554-.153.216.019.433.068.649.099l.33.418c.023.173.002.363.01.542-.04.16-.136.306-.196.46-.104.081-.242.13-.359.197-.132.1-.302.045-.455.06-.294-.111-.583-.25-.875-.37l-.26.32c-.1.063-.025.158-.003.244.112.094.262.158.39.24.127.098.28.128.433.16.123.028.244.064.37.079.29-.049.578-.122.867-.18.21-.16.404-.351.608-.523.09-.172.154-.363.234-.542.014-.268.002-.541.006-.81-.088-.202-.208-.394-.308-.592-.176-.127-.38-.227-.566-.344-.368-.045-.745-.06-1.116-.093l.142-.888h1.25c.154.024.29-.05.429-.102zm-4.98.005-1.05.891c-.11.112-.28.18-.315.345l.42.394c.293-.198.573-.411.852-.629v2.974h-.93v.591h2.536v-.591h-.845v-3.975zm-94.374 10.147H38.6v10.147H28.454Zm15.22 0h10.062v10.147H43.674Zm15.135 0h10.147v10.147H58.81Zm15.22 0h10.148v10.147H74.03Zm15.221 0h10.062v10.147H89.25Zm15.136 0h10.146v10.147h-10.146zm15.22 0h10.147v10.147h-10.147zm3.267 2.446c-.129.004-.255.06-.382.086-.149.057-.33.05-.451.161-.155.166-.371.286-.471.494-.043.192-.276.445-.149.61.191.037.39.15.58.042.196-.047.19-.32.295-.471.14-.12.341-.22.534-.24a.67.67 0 0 1 .496.133c.183.086.174.338.266.5l-.211.763-1.84 1.88c-.133.132-.304.258-.243.473v.226h3.128v-.448c.043-.172-.159-.23-.255-.336l-1.685.081 1.504-1.572c.108-.157.17-.345.253-.518.115-.179.1-.39.098-.594.045-.236-.086-.434-.194-.632-.121-.227-.374-.347-.554-.526-.194-.046-.393-.067-.59-.096a.407.407 0 0 0-.129-.016zm3.635 0c-.128.004-.255.06-.381.086-.15.057-.33.05-.451.161-.155.166-.371.286-.471.494-.043.192-.276.445-.149.61.191.037.39.15.579.042.197-.047.19-.32.296-.471.14-.12.341-.22.534-.24a.668.668 0 0 1 .496.133c.182.086.174.338.266.5l-.211.763-1.84 1.88c-.133.132-.304.258-.243.473v.226h3.128v-.448c.043-.172-.159-.23-.255-.336l-1.685.081 1.504-1.572c.108-.157.17-.345.253-.518.115-.179.1-.39.098-.594.045-.236-.086-.434-.194-.632-.121-.227-.375-.347-.554-.526-.194-.046-.393-.067-.59-.096a.41.41 0 0 0-.13-.016zm-6.902 10.238h10.147v10.146h-10.147zm6.957 2.444c-.27.056-.576.028-.805.197-.25.172-.56.298-.634.623-.125.242-.228.49-.189.768-.046.262.128.476.232.701.128.256.443.344.654.524l1.043-.064c-.379.474-.759.947-1.134 1.423-.126.163-.256.324-.384.486h.913c.258-.188.414-.474.6-.726.321-.495.714-.947.962-1.486.174-.258.218-.55.187-.857.02-.312.01-.62-.186-.877-.078-.226-.303-.333-.475-.48-.233-.133-.524-.177-.784-.232zm-3.73.015c-.147.01-.292.044-.436.098-.266.02-.447.206-.625.385-.212.136-.249.401-.358.61-.09.159-.026.284.151.28.2.073.507.087.588-.143.061-.339.356-.521.676-.562.407-.065.7.256.762.633l-.206.747c-.544.582-1.118 1.145-1.673 1.72-.155.207-.487.345-.415.65v.226h3.128V227c.051-.197-.116-.304-.255-.41l-1.685.082 1.36-1.422c.24-.198.31-.51.446-.776.088-.236.044-.512.038-.758-.105-.194-.17-.426-.351-.563-.21-.176-.403-.395-.7-.381a1.375 1.375 0 0 0-.445-.041zm3.391.67h.56c.142.122.284.246.426.37.046.127.047.28.077.417.083.193-.078.33-.197.464-.074.092-.152.181-.227.272l-.524-.005c-.186.019-.403-.08-.486-.237-.069-.251-.233-.503-.101-.764.019-.264.307-.352.472-.518zm-97.77 12.091H38.6v10.062H28.454Zm6.794 2.37c-.13.008-.26.04-.386.102-.293.053-.479.297-.697.477-.248.22-.272.595-.42.883-.01.372-.007.744-.006 1.115.025.287-.064.593.072.86.096.255.202.506.389.709.157.3.49.445.807.508.09.017.174.058.268.053.235-.035.486-.035.703-.143.222-.092.415-.23.547-.434.17-.17.297-.372.36-.606.109-.368.12-.76.187-1.139-.008-.385-.099-.774-.17-1.153-.158-.276-.217-.647-.49-.83-.241-.152-.463-.359-.764-.36a1.271 1.271 0 0 0-.4-.042zm-3.618.004c-.26.088-.569.088-.775.287-.284.184-.459.451-.545.778-.224.276.134.316.344.338.281.155.33-.157.442-.348.178-.33.563-.44.916-.384l.436.435-.095.588c-.157.225-.437.292-.7.312-.378-.054-.197.33-.198.567l.405.054c.223.008.46.089.564.3.119.277.099.554-.087.794-.084.231-.377.233-.567.344-.417.015-.668-.276-.9-.58-.135-.329-.46-.144-.686-.026-.128.306.203.537.345.784.218.174.433.379.725.403.218.081.438.06.662.024.341-.016.686-.134.924-.385.224-.199.356-.465.426-.753-.004-.22.061-.468-.068-.66-.141-.272-.307-.528-.63-.595-.01-.158.395-.37.548-.55l.074-.561c.049-.21-.127-.389-.194-.577-.079-.258-.376-.322-.571-.472-.251-.073-.534-.134-.795-.117zm3.73.656a.64.64 0 0 1 .423.14c.351.193.293.677.448 1.01.036.272-.014.553-.019.828-.037.254.025.53-.103.763-.124.206-.155.507-.434.56-.214.13-.514.156-.696-.042-.223-.125-.33-.338-.382-.582-.128-.284-.07-.6-.084-.902.023-.333-.054-.68.069-1 .072-.234.132-.483.37-.602a.574.574 0 0 1 .409-.173zm81.71 105.795v15.22H25.916v68.407h30.356v-15.22h75.64l.27-68.407zm2.536 2.537h10.147v10.147h-10.147zm5.083 2.537-1.073.909c-.091.091-.222.151-.274.274.017.177.285.294.401.447.293-.198.574-.412.852-.63v2.974h-.93v.592h2.537v-.592h-.846v-3.974zm-5.083 12.683h10.147v10.148h-10.147zm5.454 2.356-.66.063c-.218-.01-.403.111-.57.236-.273.108-.353.406-.504.627v.794c.182.18.36.365.544.54-.02.17-.353.158-.455.312-.134.223-.305.471-.258.746-.03.216.019.44.126.628.1.204.223.403.447.49.181.124.383.213.603.235.169.05.35.066.523.037.315-.028.616-.125.914-.225l.508-.579c.04-.311.039-.63-.008-.94-.083-.204-.204-.413-.403-.522-.067-.077-.45-.16-.241-.252.269-.044.397-.293.481-.526.156-.185.084-.439.044-.652-.005-.254-.217-.42-.34-.62l-.751-.392zm-.405.605c.107.005.222.04.333.054.189-.005.28.18.406.285v.457a.392.392 0 0 1-.159.38l-.159.176h-.582c-.18-.032-.266-.236-.407-.338v-.528c-.03-.175.168-.263.281-.357.08-.108.18-.134.287-.129zm-.314 2.028h.7c.21.056.317.29.484.416v.436c.045.167-.101.278-.208.378l-.207.208h-.626c-.15.032-.22-.134-.316-.219-.206-.149-.185-.421-.177-.649-.052-.267.201-.401.35-.57zm-95.887 7.695h10.148l-.044 10.105-10.104.043zm15.22 0h10.062v10.147H43.674Zm15.135 0h10.147v10.147l-10.09-.056zm15.22 0h10.149l-.044 10.105-10.104.043zm15.221 0h10.062v10.147H89.25Zm15.136 0h10.148l-.044 10.105-10.047-.014zm15.22 0h10.148l-.044 10.105-10.104.043zm8.202 2.447-2.231.048c-.126.703-.239 1.408-.377 2.108.172.13.504.263.75.13.233-.115.482-.066.724-.016.257-.024.34.242.49.399.1.19.044.444.035.654-.074.374-.396.608-.757.66-.383.025-.705-.23-1.055-.35-.129.026-.364.273-.353.443.167.275.546.422.858.5.14.022.282.09.424.068.32-.098.71-.062.968-.296.2-.2.484-.341.56-.632.144-.251.148-.532.133-.814.057-.296-.113-.539-.25-.785-.117-.24-.42-.3-.624-.455-.37-.045-.744-.059-1.115-.092l.142-.888h1.074c.208.008.417.002.604-.103zm-4.98.005-1.279 1.084c-.213.224.222.367.334.546.292-.198.573-.412.852-.63v2.974h-.93v.592h2.536v-.592h-.845v-3.974zm-3.222 10.232h10.148l-.044 10.104-10.104.044zm3.284 2.367c-.262 0-.515.136-.773.18-.177.15-.358.304-.51.478-.076.212-.224.41-.229.641.186.13.659.236.775-.061.06-.34.356-.521.676-.563.407-.065.7.256.762.633l-.206.748c-.544.58-1.118 1.145-1.673 1.719-.155.207-.487.345-.415.65v.226h3.128v-.39c.054-.197-.124-.285-.255-.394l-1.685.08.788-.822c.25-.275.53-.528.76-.816.103-.266.3-.514.306-.804-.011-.235.053-.49-.097-.694-.088-.231-.259-.4-.457-.543-.192-.238-.51-.207-.783-.259a.716.716 0 0 0-.112-.009zm3.636 0c-.262 0-.515.136-.774.18-.176.15-.357.304-.51.478-.076.212-.223.41-.228.641.186.13.658.236.775-.061.06-.34.356-.521.676-.563.407-.065.7.256.762.633l-.206.748c-.544.58-1.118 1.145-1.673 1.719-.155.207-.487.345-.415.65v.226h3.128v-.39c.054-.197-.124-.285-.255-.394l-1.685.08.788-.822c.25-.275.53-.528.76-.816.103-.266.3-.514.306-.804-.011-.235.053-.49-.097-.694-.088-.231-.259-.4-.457-.543-.192-.238-.51-.207-.783-.259a.716.716 0 0 0-.112-.009zm-6.92 10.316h10.147v10.063h-10.147zm6.957 2.36c-.27.056-.576.028-.805.197-.25.172-.56.298-.634.623-.125.241-.228.49-.189.767-.046.262.128.477.232.702.128.256.443.344.654.524l1.043-.064c-.379.474-.759.946-1.134 1.423-.126.162-.256.324-.384.486h.913c.258-.188.414-.474.6-.726.321-.495.714-.947.962-1.487.174-.258.218-.55.187-.857.02-.31.01-.619-.186-.877-.078-.226-.303-.332-.475-.479-.233-.132-.524-.177-.784-.232zm-3.73.015c-.147.01-.292.044-.436.098-.266.02-.447.205-.625.384-.212.137-.249.402-.358.611-.09.159-.026.283.151.28.2.073.507.087.588-.142.061-.34.356-.522.676-.563.407-.065.7.256.762.633l-.206.748c-.544.58-1.118 1.144-1.673 1.718-.155.208-.487.346-.415.65v.226h3.128v-.375c.051-.196-.116-.303-.255-.408l-1.685.081 1.36-1.423c.24-.197.31-.51.446-.776.088-.235.044-.512.038-.757-.105-.194-.17-.426-.351-.563-.21-.176-.403-.396-.7-.382a1.374 1.374 0 0 0-.445-.04zm3.391.669h.51c.187.062.322.265.488.38l.065.408c.083.193-.078.33-.197.464-.074.092-.152.18-.227.271l-.524-.005c-.186.02-.403-.08-.486-.236-.069-.252-.233-.504-.101-.765.019-.264.307-.352.472-.517zM43.59 415.26h10.147v10.147l-10.09-.057zm3.359 2.37a1.08 1.08 0 0 0-.406.083c-.28.03-.486.207-.683.39-.209.13-.228.397-.332.6-.207.254.101.312.307.326.234.108.354-.005.424-.229.114-.285.414-.527.728-.498.31-.08.448.245.655.41.01.203-.01.513-.134.693-.2.21-.491.21-.758.254-.246.013-.04.372-.073.548l.655.087c.313.099.425.48.381.764-.117.17-.143.437-.37.496-.264.165-.55.149-.835.04l-.573-.656c-.148-.01-.57.037-.555.288.008.241.245.441.37.65.217.174.433.379.726.403v-.001l.033.008c.25.097.513.025.77-.002.304-.02.603-.167.806-.392.224-.198.346-.475.405-.762-.008-.223.059-.473-.092-.66-.132-.294-.346-.503-.663-.587l.565-.49c.105-.204.074-.481.127-.712-.117-.228-.175-.52-.377-.682-.22-.128-.422-.311-.688-.32a1.672 1.672 0 0 0-.413-.05zm3.584.082c-.426.36-.85.722-1.277 1.081-.218.225.219.37.332.549.292-.198.573-.412.851-.63v2.974h-.93v.592h2.537v-.592h-.846v-3.975ZM25.917 536.769v68.407h45.576v-15.22h60.784l-.095-53.187zm2.537 2.621H38.6v10.063H28.454Zm15.22 0h10.062v10.063H43.674Zm15.135 0h10.147v10.063H58.81Zm15.22 0h10.148v10.063H74.03Zm15.221 0h10.062v10.063H89.25Zm15.136 0h10.146v10.063h-10.146zm15.22 0h10.147v10.063h-10.147zm3.552 2.452v.298c-.019.136.063.253.102.379h2.201c.11-.029.059.05.03.112-.597 1.161-1.202 2.32-1.802 3.48-.033.086-.111.162-.108.257.002.015 0 .034 0 .05l.803-.052 1.976-3.964c.013-.184.006-.373.01-.56zm-3.552 10.148h10.147v10.146h-10.147zm8.033 2.535-.803.008-2.095 2.812c-.018.1.014.216.015.322-.014.141.13.217.198.326h2.009v1.098h.676v-1.083c.066-.038.2-.005.293-.016.1-.003.23.036.236-.103.087-.15.06-.323.063-.489h-.592zm-4.81.001-1.046.886c-.11.114-.284.183-.32.35l.42.394c.292-.198.573-.412.852-.629v2.973h-.93v.592h2.536v-.592h-.845v-3.974zm4.091.927.038 1.317c-.012.173.05.359-.032.52l-.042.111h-1.227c-.133.023.015-.148.018-.219.408-.58.832-1.152 1.245-1.73zm-7.314 9.22h10.147v10.147h-10.147zm3.26 2.356c-.25.05-.5.13-.75.191-.139.105-.261.239-.394.355-.101.066-.144.173-.185.282-.06.17-.184.33-.155.518l.326.082c.134.064.262-.035.392-.062.07-.156.14-.312.208-.468.084-.066.204-.097.302-.15.108-.074.235-.062.36-.06.165-.023.29.114.435.172.08.138.121.31.186.46l-.211.763-2.014 2.057c-.108.064-.058.193-.069.296v.226h3.129v-.555c-.06-.088-.176-.15-.256-.229l-1.685.082 1.528-1.597c.115-.223.21-.46.318-.688.016-.21.004-.428.01-.64-.065-.165-.162-.32-.24-.481-.16-.154-.341-.29-.51-.437-.234-.056-.484-.076-.725-.117zm3.599.096-1.047.887c-.11.114-.283.183-.319.35l.42.394c.293-.198.573-.413.852-.63v2.974h-.93v.591h2.536v-.592h-.845v-3.974zm-6.859 10.232h10.147v10.062h-10.147zm3.26 2.355c-.25.05-.5.13-.75.192-.13.096-.244.223-.368.33a.545.545 0 0 0-.204.29c-.061.177-.19.34-.162.535l.309.077c.14.068.273-.024.41-.057l.207-.468c.083-.067.202-.096.299-.149.108-.075.236-.063.361-.061.166-.024.292.113.437.171.08.138.121.31.186.46l-.211.764-2.013 2.056c-.11.064-.059.193-.07.297v.226h3.129v-.571l-.256-.213-1.685.081 1.516-1.585c.128-.22.216-.468.33-.7.016-.21.004-.427.01-.64-.064-.164-.162-.32-.24-.48-.16-.154-.34-.29-.509-.437-.234-.056-.485-.076-.726-.118zm3.97 0-.875.083c-.188.096-.365.224-.549.331-.112.155-.199.334-.301.498-.02.265-.002.54-.008.808l.577.578-.476.246c-.102.149-.173.329-.263.49-.018.21-.003.429-.008.643.087.2.207.393.307.591.123.096.274.164.408.249.132.106.3.12.46.154l.126.025c.162.06.327.016.491-.005.28-.014.54-.123.805-.203.121-.108.221-.248.335-.368.075-.11.227-.188.203-.338.03-.274.007-.547-.017-.82-.052-.146-.167-.27-.244-.407-.158-.117-.34-.21-.507-.317l.396-.181.292-.615c-.01-.2-.063-.405-.089-.606-.087-.15-.204-.286-.303-.43-.243-.147-.509-.27-.76-.406zm-.508.589.564.092c.103.069.183.18.278.264v.56c.033.126-.096.188-.16.276l-.158.176h-.65l-.339-.338v-.664l.465-.366zm-.211 2.044h.769l.415.415v.591c-.046.085-.142.148-.208.224l-.208.208h-.74l-.352-.38a2.911 2.911 0 0 1-.015-.703c.09-.128.23-.235.339-.355zm-57.16 10.146v10.148H58.807l.044-10.105zm-40.503.003H38.6v10.147H28.454Zm15.22 0h10.062v10.147H43.674Zm18.4 2.437c-.235.047-.47.124-.704.183-.173.124-.332.276-.5.41-.082.157-.136.333-.207.496-.008.082-.13.188-.047.25.202.06.424.083.633.128l.258-.499c.111-.1.25-.178.37-.27.158-.02.33-.002.492-.008l.435.435-.098.605c-.073.088-.194.146-.285.223-.214.052-.442.073-.661.113l.051.527.672.089c.107.036.182.144.277.208.058.153.076.33.119.493l-.249.482c-.153.09-.338.144-.504.22-.16-.015-.323-.073-.484-.104l-.604-.694-.433.144c-.113.016-.07.17-.107.253.07.15.192.29.282.435.086.176.266.262.413.38.111.116.27.128.417.166.09.02.18.043.27.064.237-.015.474-.055.712-.08.165-.028.304-.144.458-.208.14-.111.249-.262.377-.388.085-.143.124-.315.19-.47.028-.18.004-.368.012-.552-.093-.19-.222-.37-.329-.555-.13-.084-.289-.135-.43-.206l.602-.524.09-.678c-.076-.208-.191-.41-.282-.615-.164-.126-.357-.224-.532-.34-.22-.05-.45-.074-.674-.114zm3.594.098-1.045.886c-.11.114-.284.183-.32.35l.42.395c.292-.199.573-.412.851-.63v2.974h-.93v.591h2.537v-.591h-.846v-3.975z" style="fill:#fd5f5f;stroke-width:.08455714"/><path d="M71.493 108.825v15.22H25.916l.002 55.723h91.153v-15.22l15.117-.217.094-55.506zm48.113 2.537h10.147v10.146h-10.147zm6.257 2.535-.803.008-1.875 2.517c-.092.153-.285.277-.216.476-.025.188.082.34.209.467h2.009v1.098h.677v-1.099h.42c.208-.086.167-.4.171-.592h-.592zm-.718.928.033 1.197c-.011.213.057.436-.028.64l-.042.111h-1.097c-.163.047-.217-.068-.118-.202.402-.59.837-1.163 1.252-1.746zm-5.539 11.757h10.147v10.147h-10.147zm3.635 2.433c-.154-.007-.342.04-.457.064-.345.24-.619.569-.972.797-.384.122-.285.7.07.788.293-.198.574-.412.853-.63v2.974h-.93v.592h2.537v-.592h-.846c.001-1.243-.003-2.486.001-3.73.018-.195-.102-.256-.256-.263zm3.636 0c-.154-.007-.341.04-.456.064-.345.24-.62.569-.973.798-.384.122-.285.7.07.787.293-.198.574-.412.853-.63v2.974h-.93v.592h2.537v-.592h-.846c.001-1.243-.003-2.486.001-3.73.018-.195-.102-.256-.256-.263zm-7.271 10.25h10.148l-.044 10.105-10.104.044zm6.943 2.37a1.588 1.588 0 0 0-.562.078c-.588.149-.986.773-.898 1.369-.078.382.48.485.458.853-.247.216-.58.426-.606.787-.176.732.427 1.512 1.168 1.57.502.102 1.058.02 1.489-.265.475-.299.583-.93.449-1.439.005-.384-.537-.422-.581-.784.436-.244.608-.826.442-1.286-.215-.547-.786-.861-1.36-.883zm-3.429.063a.905.905 0 0 0-.224.04c-.428.147-.663.592-1.064.79-.372.115-.328.748.051.82.292-.198.573-.413.852-.63v2.974h-.93v.592h2.537v-.593h-.846c.002-1.206-.005-2.412.002-3.619.1-.303-.14-.386-.378-.374zm3.385.526a.591.591 0 0 1 .14.01c.54.047.728.812.366 1.168-.124.2-.388.215-.597.182-.38.01-.634-.402-.568-.75-.005-.348.33-.598.66-.61zm-.105 2.002a.8.8 0 0 1 .292.031c.575.014.857.877.401 1.227-.216.314-.635.216-.95.163-.326-.156-.453-.566-.377-.902.038-.318.334-.497.634-.52zm-97.947 7.723h10.148l-.043 10.105-10.105.043zm15.22 0h10.063v10.147H43.673Zm15.136 0h10.147v10.147H58.922Zm15.22 0h10.149l-.044 10.105-10.104.043zm15.22 0h10.063v10.147H89.25Zm15.137 0h10.147l-.043 10.104-9.99.044zm15.22 0h10.148l-.044 10.105-10.104.043zm3.471 2.377a1.691 1.691 0 0 0-1.103.289c-.265.22-.566.511-.55.885.062.423.677.265.79-.056.155-.555 1.035-.624 1.28-.109.192.34-.048.699-.11 1.037-.482.525-1 1.016-1.486 1.538-.205.269-.622.441-.6.831l-.001.227h2.059c.305-.028.615.036.917-.02.329-.122.16-.646-.103-.764l-1.651.08c.03-.112.312-.337.436-.49.382-.444.868-.804 1.167-1.315.29-.487.333-1.162-.05-1.614-.24-.319-.608-.487-.995-.52zm4.731.07-1.441.03c-.296.056-.811-.16-.85.296-.053.49-.157.97-.25 1.453-.16.35.188.65.534.55.334-.108.722-.192 1.045-.001.431.229.469.829.265 1.225-.226.438-.847.561-1.24.28-.232-.205-.717-.244-.803.122.001.422.507.515.824.62.415.125.887.032 1.27-.158.569-.27.887-.916.828-1.533.016-.6-.468-1.161-1.061-1.24-.297-.09-.65.03-.918-.111.092-.26-.08-.849.326-.85.49-.047 1.003.096 1.471-.104zm-23.423 12.688h10.147v10.148h-10.147zm3.323 2.374a1.606 1.606 0 0 0-1.04.378c-.227.234-.607.612-.358.947.242.242.641.026.747-.25.112-.42.68-.533 1.01-.3.404.23.379.872 0 1.113-.264.124-.756.027-.72.476.12.41.685.177.934.45.363.407.051 1.1-.449 1.214-.413.137-.795-.187-1-.515-.13-.37-.774-.21-.733.173.194.457.587.86 1.087.96a1.86 1.86 0 0 0 1.376-.196c.662-.363.888-1.379.34-1.934-.396-.045-.325-.668.047-.683.237-.362.224-.855.004-1.222-.275-.415-.76-.616-1.246-.611zm3.75.075a.615.615 0 0 0-.384.214c-.258.21-.491.471-.783.628-.345.146-.264.716.092.792.292-.198.574-.412.852-.63v2.71c.004.137.037.332-.174.264-.26-.012-.804-.118-.756.296v.296h2.537v-.592h-.846v-3.974h-.387a.51.51 0 0 0-.151-.004zM86.672 288.636l-.043 15.178H25.917v55.723h91.153v-15.22h15.116l.062-55.68zm32.934 2.578h10.147v10.148h-10.147zm5.214 2.374a1.807 1.807 0 0 0-.188 0c-.256.06-.523.117-.747.263-.178.148-.378.291-.455.523-.036.175-.307.483-.04.58.21.027.54.159.638-.115.04-.283.304-.436.52-.58h.32c.278-.014.399.292.593.435-.075.246.002.583-.25.74-.202.157-.466.13-.696.176-.144.145-.138.538.107.579.253.015.537.028.738.205a.958.958 0 0 1 .148.624c-.104.217-.223.489-.484.545-.223.138-.493.05-.725-.014-.149-.175-.31-.342-.448-.526-.13-.202-.393-.14-.563-.032-.257.156-.049.434.074.6.21.309.523.59.905.643.244.1.507.038.758.015.447-.028.848-.305 1.08-.68.175-.31.252-.702.138-1.047-.093-.184-.197-.372-.352-.512-.092-.115-.454-.082-.25-.285.142-.105.29-.206.407-.342.121-.117.124-.287.142-.44.072-.317-.08-.623-.243-.884a1.686 1.686 0 0 0-.57-.37 2.298 2.298 0 0 0-.557-.101zm-5.214 12.762h10.147v10.147h-10.147zm6.954 2.46a1.466 1.466 0 0 0-.754.179c-.63.31-.924 1.036-.921 1.707.045.498-.06 1.007.06 1.499.178.567.576 1.18 1.214 1.264.508.134 1.073-.04 1.437-.415.307-.29.467-.692.526-1.103.15-.706.113-1.458-.164-2.129a1.38 1.38 0 0 0-.653-.784 1.53 1.53 0 0 0-.745-.218zm-3.666.077c-.212.05-.356.284-.542.404-.208.155-.382.367-.612.483-.329.157-.166.665.143.743.292-.198.573-.412.852-.63v2.974h-.339c-.218-.044-.689-.044-.592.296v.296h2.537v-.592h-.845v-3.974zm3.713.584a.683.683 0 0 1 .158.028c.346.103.453.495.538.805.142.467.066.956.044 1.434-.038.381-.13.853-.52 1.027a.628.628 0 0 1-.421.093c-.48-.099-.705-.622-.735-1.066.017-.57-.085-1.163.11-1.713a.824.824 0 0 1 .826-.608zm-57.65 9.561v10.149H58.807l.044-10.105zm5.073 0 10.104.044.044 10.105H74.03Zm15.22.002h10.062v10.147H89.25Zm15.136 0h10.146v10.147h-10.146Zm15.22 0h10.147v10.147h-10.147zm-91.152 0H38.6v10.148H28.454Zm15.22 0h10.062v10.148H43.674Zm79.155 2.537-1.086.92c-.428.17-.129.553.14.71.292-.198.573-.412.852-.63v2.974h-.93v.592h2.536v-.592h-.845v-3.974zm2.299 0c-.356.023-.175.473-.092.677h1.1c.39.01.783-.025 1.17.02-.396.798-.811 1.585-1.222 2.375-.231.49-.529.949-.728 1.454l.001.05.803-.052 1.75-3.513c.212-.296.267-.654.237-1.01zm-5.522 10.147h10.147v10.147h-10.147zm3.311 2.37c-.468.006-.937.207-1.232.57-.169.224-.434.567-.16.816.286.155.61-.041.714-.327.199-.513 1.018-.526 1.255-.043.198.338-.052.698-.11 1.037-.49.534-1.02 1.032-1.51 1.565-.205.254-.603.424-.577.804v.227c.98-.003 1.96.004 2.939-.004.36.002.221-.686-.066-.78l-1.685.08c.292-.303.582-.608.873-.912.387-.384.806-.785.942-1.334.177-.559-.087-1.192-.581-1.494a1.532 1.532 0 0 0-.802-.205zm4.403.07c-.164.003-.355.051-.484.02l-1.814 2.434c-.306.233-.401.773-.068 1.025h2.009v1.098h.625c.106.001.026-.183.051-.262.02-.25-.036-.502.014-.748.284-.006.76-.296.578-.68h-.592v-2.641c-.02-.209-.156-.25-.32-.247zm-.471 1.032a.04.04 0 0 1 .026.003c.055.025.088.174.06.28-.037.487.09.978-.01 1.46-.04 0-.003.112-.043.112h-.655c-.188-.05-.572.139-.59-.158.362-.532.748-1.048 1.124-1.57.03-.082.06-.12.087-.126zm-22.463 11.664h10.146v10.147h-10.146Zm3.332 2.459c-.283 0-.567.07-.81.208-.306.21-.652.49-.677.892-.02.433.666.422.776.063.08-.378.533-.601.89-.473.457.116.61.758.3 1.094-.226.26-.808.089-.852.524.072.436.627.275.905.466.346.345.169.98-.245 1.187-.41.245-.926-.027-1.142-.405-.097-.394-.787-.288-.766.115.185.468.586.87 1.09.973.17.05.354.056.53.05.641-.008 1.302-.415 1.453-1.065.108-.4.026-.921-.347-1.154-.377-.155-.083-.637.195-.73a1.24 1.24 0 0 0-.081-1.156c-.274-.397-.746-.59-1.219-.589zm3.779.001a1.473 1.473 0 0 0-.266.003c-.771.064-1.35.767-1.459 1.503-.006.512-.043 1.028-.01 1.54.055.71.518 1.474 1.262 1.603.658.18 1.38-.182 1.715-.759a3.77 3.77 0 0 0 .12-2.792c-.152-.616-.743-1.048-1.362-1.098zm-.117.661a.622.622 0 0 1 .491.176c.423.546.407 1.284.35 1.938-.02.432-.1.964-.53 1.18a.509.509 0 0 1-.305.1c-.505-.015-.818-.54-.835-1.001-.016-.629-.112-1.292.136-1.89.098-.286.396-.484.693-.503zm-9.531 118.471v15.136H25.917v53.187h106.3l.063-68.323zm17.757 2.537h10.147v10.063h-10.147zm5.066 2.366a.552.552 0 0 0-.168.04c-.19.07-.403.075-.578.18-.165.178-.399.302-.504.53-.034.189-.29.444-.119.599.21.065.462.149.651-.013.146-.186.137-.493.414-.557.231-.122.522-.157.752-.012.234.083.237.353.332.542l-.211.764-1.808 1.846c-.138.133-.341.286-.276.507v.226h3.128v-.414c.054-.186-.147-.266-.256-.37l-1.684.081c.37-.385.738-.771 1.107-1.157.17-.2.4-.358.504-.607.077-.22.237-.416.243-.657.002-.255.046-.527-.113-.75a1.173 1.173 0 0 0-.42-.493c-.142-.126-.28-.24-.482-.227-.17-.018-.342-.072-.512-.058zM74.03 486.117l10.104.044.044 10.104H74.03Zm-5.074 0v10.149H58.808l.044-10.105zm35.43 0 10.105.044.043 10.105h-10.148zm15.22 0 10.105.044.043 10.105h-10.148zm-30.356.002h10.062v10.147H89.25Zm-60.796 0H38.6v10.147H28.454Zm15.22 0h10.062v10.147H43.674Zm81.108 2.451a1.262 1.262 0 0 0-.303.035c-.206.036-.412.056-.573.205-.187.144-.455.226-.517.482-.096.239-.255.463-.235.734-.038.28.066.542.213.775.116.297.453.384.679.575l1.042-.064c-.379.474-.758.947-1.134 1.423-.126.164-.256.324-.383.486h.75c.191.053.304-.13.423-.243.255-.362.507-.725.76-1.089.299-.38.512-.816.728-1.247v-.534c-.013-.218.047-.457-.085-.65a1.26 1.26 0 0 0-.409-.543c-.183-.164-.417-.246-.657-.287a.814.814 0 0 0-.299-.058zm-.037.674c.091-.002.182.001.27.023.191.12.39.279.465.501.078.25.078.568-.165.731-.13.13-.186.328-.402.27-.236-.025-.506.062-.707-.1-.197-.17-.257-.453-.277-.701.021-.182.066-.384.226-.496.106-.07.208-.172.317-.225.09.005.182-.001.273-.003zm-5.139 9.558 10.105.043.043 10.105h-10.148zm3.223 2.453-1.052.89c-.416.127-.205.617.106.74.292-.198.573-.413.852-.63v2.974h-.93v.592h2.536v-.592h-.845v-3.974zm3.879 0c-.207.279-.417.556-.624.835-.371.567-.92 1.046-1.082 1.727-.05.417-.095.878.124 1.258.17.418.596.658 1.02.75.17.068.357.054.535.033a1.516 1.516 0 0 0 1.158-.623c.28-.292.343-.717.292-1.104-.012-.517-.442-.877-.84-1.14h-.325c-.202-.057-.474.117-.623-.08.416-.57.894-1.092 1.316-1.656zm-.212 2.279a.733.733 0 0 1 .17.01c.328.054.631.268.66.625.117.354-.065.814-.414.963a.82.82 0 0 1-.841-.012c-.294-.167-.42-.524-.364-.847.027-.405.396-.72.79-.739zm-6.89 7.953h10.147v10.146h-10.147zm7.002 2.368a1.513 1.513 0 0 0-.243.013c-.58.06-1.137.488-1.268 1.066-.06.44.648.435.777.087a.726.726 0 0 1 .759-.509c.537.038.779.812.386 1.163-.239.19-.736.078-.81.461.029.446.602.312.876.492.347.31.216.911-.147 1.153-.413.306-1.015.042-1.226-.384-.117-.383-.803-.25-.757.152.2.453.588.857 1.088.956.66.185 1.461-.056 1.833-.652.274-.445.291-1.127-.145-1.475-.406-.148-.184-.689.148-.775.116-.26.132-.562.054-.836-.163-.57-.754-.897-1.325-.912zm-3.619.002c-.458-.019-.93.148-1.235.491-.2.222-.474.577-.235.865.309.214.733-.08.78-.417.274-.374.928-.366 1.176.032.205.346-.006.734-.09 1.082-.472.52-.991.994-1.46 1.516-.227.265-.627.456-.628.853v.026c.026.301.417.211.629.192.705.003 1.416.016 2.123.005.483.113.537-.65.128-.76-.36-.031-.722.01-1.081.033-.287.25-.652-.251-.241-.367.311-.349.668-.653.972-1.009.494-.48.703-1.311.321-1.92-.254-.398-.7-.603-1.159-.622zm-3.383 10.313h10.147v10.147h-10.147zm3.295 2.372a1.607 1.607 0 0 0-.996.366c-.23.21-.468.491-.455.82.094.361.66.3.776-.021.101-.433.686-.657 1.048-.395.416.234.407.973-.055 1.145-.28.02-.789.125-.625.518.192.305.625.133.875.351.362.36.146 1.025-.299 1.208-.423.208-.903-.094-1.113-.468-.125-.375-.794-.22-.74.172.209.447.589.855 1.09.951.63.152 1.394-.016 1.783-.57.31-.443.359-1.147-.07-1.532a.353.353 0 0 1-.02-.682c.356-.346.307-.945.02-1.318-.289-.38-.755-.557-1.219-.545zm3.558 0c-.795.014-1.429.726-1.546 1.48-.014.567-.06 1.138 0 1.704.095.664.55 1.346 1.246 1.468.63.177 1.317-.154 1.667-.685.454-.854.487-1.898.187-2.808-.15-.698-.852-1.19-1.554-1.159zm.07.662a.65.65 0 0 1 .52.226c.375.55.369 1.257.306 1.895-.016.431-.101.959-.527 1.175l-.047.029c-.36.203-.783-.064-.946-.399-.192-.375-.161-.816-.174-1.226.012-.499-.036-1.079.346-1.465a.716.716 0 0 1 .522-.235zm-24.68 118.475v15.22H25.917v68.322h15.116l.035-15.136h91.136l.077-68.406zm2.537 2.537h10.146v10.147h-10.146zm15.22 0h10.147v10.147h-10.147zm5.024 2.371c-.23.084-.485.098-.704.214-.146.158-.34.269-.459.45-.07.193-.213.373-.22.582.12.204.493.23.689.1.161-.169.148-.49.407-.565.217-.107.482-.165.71-.055.267.073.31.36.399.578l-.211.764-1.724 1.76c-.148.17-.43.327-.36.593v.226h3.128v-.38c.062-.193-.13-.303-.256-.404l-1.684.081c.437-.457.875-.914 1.31-1.371.22-.172.317-.43.43-.674.135-.223.12-.489.12-.739-.002-.237-.136-.445-.268-.632a2.118 2.118 0 0 0-.55-.442c-.247-.043-.503-.1-.757-.086zm-5.024 12.85h10.147v10.146h-10.147zm5.177 2.366c-.257.022-.525.046-.762.158-.167.14-.382.221-.533.383-.102.132-.139.302-.222.447-.191.384-.153.866.088 1.22.116.307.457.407.692.598l1.042-.064c-.379.474-.758.947-1.134 1.423-.126.164-.256.324-.383.486h.627c.156.019.325.012.434-.123.283-.323.504-.695.755-1.043.334-.428.599-.904.834-1.391.024-.106.004-.222.011-.332-.013-.232.024-.467-.014-.697-.116-.378-.378-.722-.743-.889a2.608 2.608 0 0 0-.692-.176zm.078.673c.081 0 .16.012.228.065.151.16.411.282.397.54.086.222.038.513-.171.651-.111.236-.329.317-.577.268-.23.021-.514-.002-.646-.219-.108-.236-.225-.514-.121-.772.02-.23.245-.345.409-.47.055-.087.153-.053.237-.059.08.007.163-.004.244-.004zm-5.255 9.644h10.147v10.062h-10.147zm3.223 2.452-1.052.89c-.416.127-.205.618.106.74.292-.198.573-.412.852-.63v2.974h-.93v.592h2.536v-.592h-.845v-3.974zm3.879 0-.619.829c-.366.557-.898 1.03-1.078 1.691-.06.43-.109.906.115 1.299.168.42.596.66 1.02.752.17.068.357.053.535.032a1.516 1.516 0 0 0 1.158-.623c.28-.291.343-.716.292-1.103-.012-.518-.442-.878-.84-1.14h-.325c-.202-.058-.474.116-.623-.08.416-.57.894-1.092 1.316-1.657zm-.212 2.28a.737.737 0 0 1 .17.01c.328.053.631.267.66.624.117.355-.065.814-.414.964a.82.82 0 0 1-.841-.013c-.294-.166-.42-.524-.364-.847.027-.405.396-.72.79-.739zm-6.89 7.867h10.147v10.147h-10.147zm3.428 2.454a1.701 1.701 0 0 0-1.206.418c-.204.24-.575.58-.34.914.282.285.677-.03.787-.33.227-.47.995-.441 1.22.015.197.34-.052.697-.11 1.037-.488.522-.997 1.025-1.496 1.536-.189.28-.625.44-.592.833v.226h2.928c.369.007.24-.693-.055-.784a9352 9352 0 0 1-1.685.081c.312-.318.612-.647.922-.967.377-.361.768-.753.893-1.28a1.321 1.321 0 0 0-.532-1.46 1.438 1.438 0 0 0-.734-.239zm3.548.003a1.63 1.63 0 0 0-1.01.335c-.23.162-.352.42-.48.659-.16.348.37.581.61.374.165-.275.313-.601.662-.682.49-.188 1.036.415.797.883-.054.377-.492.388-.785.454-.377.128-.114.654.219.629.349-.088.693.212.695.566.036.435-.347.809-.768.836-.408.04-.688-.326-.894-.626-.214-.305-.778-.03-.658.326.23.408.588.81 1.073.892.172.07.362.054.542.04.596.013 1.192-.353 1.397-.922.224-.504.03-1.193-.488-1.426-.251-.268.348-.423.413-.67.135-.35.08-.771-.118-1.087-.277-.389-.74-.58-1.207-.58zm-57.626 10.225v10.148H58.808l.044-10.104zm5.074 0 10.104.043.044 10.105H74.03Zm-45.576 0H38.6v10.148H28.454Zm15.22 0h10.062v10.148H43.674Zm45.576.001h10.062v10.147H89.25Zm15.136 0h10.146v10.147h-10.146Zm15.22 0h10.147v10.147h-10.147zm6.822 2.46a1.383 1.383 0 0 0-.619.178c-.546.272-.844.865-.919 1.45.035.557-.06 1.122.039 1.676.148.606.569 1.246 1.23 1.345.705.197 1.475-.236 1.777-.882.35-.88.366-1.899.015-2.781-.2-.639-.876-1.02-1.523-.986zm-3.621.006c-.3.023-.595.124-.834.299-.262.214-.565.509-.513.878.125.455.702.218.814-.124.14-.361.608-.505.942-.324.494.194.47.975.011 1.192-.285-.005-.799.098-.642.51.196.323.672.084.902.365.369.384.095 1.06-.38 1.207-.415.169-.84-.14-1.045-.489-.123-.37-.769-.228-.745.153.184.46.589.872 1.09.97.155.052.32.057.481.049.56.01 1.142-.269 1.394-.786.297-.51.158-1.25-.371-1.548-.252-.267.215-.47.347-.668.159-.362.093-.814-.126-1.14-.308-.408-.825-.583-1.325-.544zm3.762.651c.377-.005.624.351.699.685.141.466.141.958.087 1.438-.023.43-.094.964-.527 1.175a.589.589 0 0 1-.367.099c-.466-.05-.722-.536-.776-.958-.016-.516-.058-1.04.022-1.554.034-.443.39-.896.862-.885zm-98.115 12.103H38.6v10.062H28.454Zm3.38 2.374a1.634 1.634 0 0 0-1.162.425c-.165.22-.389.448-.39.742.066.39.675.313.795-.013a.708.708 0 0 1 .595-.493c.453-.077.869.403.738.842-.073.319-.4.51-.715.493-.349-.068-.406.61-.059.616.33-.02.767.077.84.458.167.56-.455 1.134-1.003.948-.35-.084-.462-.456-.705-.66-.24-.14-.662.019-.596.336.214.44.577.865 1.082.95.17.07.357.05.535.045.51-.008 1.031-.242 1.292-.697.32-.481.26-1.204-.212-1.565-.4-.076-.216-.43.064-.521.36-.376.313-1 .017-1.399-.277-.33-.693-.496-1.117-.507zm3.478.078-1.018.862c-.41.105-.275.664.072.768.293-.198.574-.412.852-.63v2.974h-.93v.592h2.537v-.592h-.846v-3.974z" style="fill:#5f5ffd;stroke-width:.08455714"/><path d="M.16 153.082v38.35h88.205v-38.35H.16zm0 210.607v38.352l88.045-.162.166-38.19H.161zm0 210.608v38.03h88.205v-38.03H.16zm0 210.285v38.352h88.211l-.166-38.192-88.045-.16zm0 210.61v38.349h88.205v-38.35H.16zm0 210.607v38.351l88.045-.162.166-38.19H.161zm0 210.605v38.352h88.205v-38.352H.16zm0 210.608v38.031h88.205v-38.031H.16zm0 210.607v38.031h88.205v-38.03H.16zm0 200.7v38.35h88.211l-.166-38.19-88.045-.16zm0 201.34v38.03h88.205v-38.03H.16zm0 210.288v38.35h88.205v-38.35H.16zm0 201.02v38.35h88.205v-38.35H.16z" style="fill:#010101;stroke-width:.31958601" transform="scale(.26458)"/><path d="m67.912 163.309-2.717.023c-2.405 3.259-4.853 6.487-7.215 9.777.367.55.226 1.656 1.104 1.696l6.432.17.191 3.673h2.205V174.814h1.918v-1.918h-1.918v-9.587zm-42.824 2.236v11.826h1.918V173.893l.58-.36c.57.706 1.2 1.367 1.728 2.104.342.577.683 1.156 1.024 1.734h2.435l-3.199-4.559c.66-.81 1.277-1.658 1.963-2.443.268-.302.778-.489.9-.86-.041-.135.093-.448-.083-.448H30.27l-2.438 3.197h-.826v-6.713h-1.918zm40.607.799-.18 6.392-4.314.19.01-.254c.282-.943 1.11-1.567 1.59-2.399l2.894-3.93zm-44.775 2.635-2.64.353-1.565 1.564c-.146.728-.315 1.452-.447 2.182l.431 2.408 1.483 1.578 1.953.543c.678-.14 1.379-.186 2.04-.39l.755-.38c.33-.23 1.003-.272.884-.831-.158-.406-.626-.72-1-.871-.331.147-.636.357-.964.517-.321.199-.706.094-1.06.12H19.37c-.324-.493-.71-.954-.994-1.465v-.772h5.432v-1.95l-.928-1.794-1.961-.812zm-13.41.082v11.185h1.918V177.051c.327-.005.632.157.949.224l1.363.391 2.112-.88c.314-.508.652-1.007.95-1.52.142-.71.311-1.418.434-2.127l-.4-2.141-1.63-1.937h-2.358l-1.356.949-.363-.95h-1.62zm28.092 0-1.926.996c.167.33-.025 1.184.539 1.039 1.157-.183 2.328-.217 3.496-.276l.197 1.713-2.959.444-1.87 1.574c.044.47-.097.974.083 1.422l.596 1.115 1.396.568c.64-.12 1.28-.239 1.918-.36.138-.11.275-.222.412-.333l.414-.332c.303.225.49.654.873.74h1.395l-.217-6.77-1.795-1.54h-2.552zm6.103 0v8.31h1.918V171.828l1.059-1.168h1.37l.768.766v5.945h2.309l-.252-6.783-1.773-1.527h-2.06l-1.356.95-.364-.95h-1.619zm-20.734 1.552c.28.317.791.485.922.903v.742h-3.594l.474-.72c.24-.27.329-.788.784-.757l1.414-.168zm-10.373.045h1.341l1.004 1.006v2.688l-.994 1.42h-1.754l-.384-.383c-.122-.14-.294-.258-.383-.41v-3.262l1.17-1.059zm27.273 3.213v1.559c-.453.208-.863.534-1.348.662h-.81l-.412-.496c-.206-.213-.59-.588-.121-.764.323-.356.71-.704 1.22-.69l1.471-.27zm26.45 200.033c-.427-.036-.851-.01-1.262.149-.56.09-1.21.07-1.61.545l-1.826 1.603c-.11.966-.585 1.947-.223 2.916.045.642.388 1.195.887 1.584.343.401 1.228.876.361 1.201-.636.399-1.426.822-1.517 1.657-.224.814-.663 1.717-.242 2.545.13.87.497 1.783 1.271 2.269.709.864 1.885 1.007 2.854 1.432.818.183 1.646-.106 2.47-.114.667.012 1.227-.267 1.786-.593 1.063-.279 1.511-1.385 2.052-2.225.381-.763.106-1.628.182-2.437-.209-.985-.643-2.088-1.666-2.465-.572-.148-.553-.702-.127-.979l1.092-1.164c.083-.862.655-1.776.172-2.615-.383-.773-.488-1.813-1.434-2.131-.638-.344-1.207-.892-1.957-.947-.412-.095-.838-.194-1.264-.23zm-39.233 1.61v11.826h1.918v-3.479l.58-.359c.57.706 1.2 1.367 1.728 2.103l1.024 1.735h2.435l-3.199-4.559c.66-.81 1.277-1.658 1.963-2.443.268-.302.778-.489.9-.86-.041-.136.093-.448-.083-.449H30.27l-2.438 3.198h-.826v-6.713h-1.918zm38.951.636c.405-.01.816.015 1.217.002.373.532 1.156.92 1.058 1.672v1.403c-.405.68-.981 1.27-1.814 1.302-.468.11-.99.02-1.36-.299-.809-.137-.991-1.052-1.142-1.724-.15-.75.134-1.752.856-2.133.38-.162.78-.211 1.185-.223zm-43.12 2.797-2.64.354-1.564 1.564c-.146.728-.315 1.451-.447 2.182l.431 2.408 1.483 1.578 1.953.543c.678-.14 1.379-.186 2.04-.39l.755-.38c.33-.231 1.003-.272.884-.831-.158-.407-.626-.72-1-.871-.331.147-.636.357-.964.517-.321.199-.706.094-1.06.12H19.37c-.324-.493-.71-.954-.994-1.466v-.771h5.432v-1.95l-.928-1.794-1.961-.813zm-13.41.082v11.186h1.919V387.02c.327-.004.632.156.949.224l1.363.39 2.112-.88c.314-.507.652-1.006.95-1.52.142-.709.311-1.417.434-2.127l-.4-2.14c-.543-.646-1.088-1.292-1.63-1.938h-2.358l-1.356.95-.363-.95h-1.62zm28.093 0-1.926.996c.167.33-.025 1.184.539 1.04 1.157-.183 2.328-.217 3.496-.276l.197 1.713-2.959.443-1.87 1.575c.044.47-.097.974.083 1.421l.596 1.116 1.396.568 1.918-.36c.138-.11.275-.222.412-.333l.414-.332c.303.224.49.653.873.74h1.395l-.217-6.77-1.795-1.54h-2.552zm6.103 0v8.31h1.918v-5.542l1.059-1.168h1.37l.768.766v5.945h2.309l-.252-6.783-1.773-1.528h-2.06l-1.356.951-.364-.95h-1.619zm-20.734 1.553c.28.316.791.485.922.902v.743h-3.594l.474-.721c.24-.27.329-.788.784-.756l1.414-.168zm-10.373.045h1.341l1.004 1.006v2.687l-.994 1.42h-1.754l-.384-.383c-.122-.139-.294-.257-.383-.41v-3.261l1.17-1.059zm54.615 2.21c.742.22 1.452.968 1.422 1.776-.05.743.18 1.615-.405 2.21-.674.52-1.512.945-2.394.85-.48.082-.908-.206-1.26-.495-.796-.284-.868-1.234-1.01-1.944-.066-.855.497-1.787 1.223-2.242.78-.278 1.623-.03 2.424-.154zM37.87 383.84v1.558c-.453.21-.863.535-1.348.663h-.81l-.412-.497c-.206-.212-.59-.587-.121-.763.323-.357.71-.704 1.22-.69l1.471-.271zM76.924 584.19c-.233.003-.466.011-.697.012-1.168.05-2.113.941-3.186 1.352-.58.868-1.44 2.126-1.463 3.127.23.544.86.245 1.31.318h1.061c.42-.624.484-1.604 1.217-1.934.577-.137 1.14-.85 1.729-.554l1.572.65c.425 1.042.359 2.117.074 3.182-.09 1.045-1.168 1.554-1.754 2.328l-5.68 5.857v1.336h10.868v-.922c.264-.907-.636-1.824-1.53-1.677l-5.142.199 5.39-5.506c.294-.924.95-1.777.957-2.762.019-.905.15-1.875-.57-2.564-.471-.934-1.18-1.626-2.176-1.969-.593-.438-1.283-.48-1.98-.473zm-12.106.31c-.5-.012-.973.046-1.336.405l-4.21 3.563c.607.446.976 1.477 1.765 1.488.688-.338 1.2-.982 1.824-1.436.711-.607.589.498.577.944v8.484h-2.876v1.918h8.627v-.963c.113-.617-.01-1.151-.716-.959h-2.159v-13.422c-.467.077-.995-.008-1.496-.021zm-39.73 1.46v11.826h1.918V594.31l.58-.36c.57.706 1.2 1.367 1.728 2.104.342.577.683 1.156 1.024 1.734h2.435l-3.199-4.558c.66-.81 1.277-1.659 1.963-2.444.268-.302.778-.489.9-.86-.041-.135.093-.448-.083-.448H30.27l-2.438 3.197h-.826v-6.713h-1.918zm-4.168 3.434-2.64.353-1.565 1.564c-.146.728-.315 1.452-.447 2.182l.431 2.408 1.483 1.578 1.953.543c.678-.14 1.379-.186 2.04-.39l.755-.38c.33-.23 1.003-.272.884-.831-.158-.406-.626-.72-1-.871-.331.147-.636.357-.964.517-.321.199-.706.094-1.06.12H19.37c-.324-.493-.71-.954-.994-1.465v-.772h5.432v-1.95l-.928-1.794-1.961-.812zm-13.41.082v11.185h1.918V597.467c.327-.004.632.157.949.224l1.363.391 2.112-.88c.314-.508.652-1.007.95-1.52.142-.71.311-1.418.434-2.127l-.4-2.14-1.63-1.938h-2.358l-1.356.949-.363-.95h-1.62zm28.092 0-1.926.996c.167.33-.025 1.184.539 1.039 1.157-.182 2.328-.217 3.496-.276l.197 1.713-2.959.444-1.87 1.574c.044.47-.097.975.083 1.422l.596 1.115 1.396.568c.64-.12 1.28-.239 1.918-.36.138-.11.275-.222.412-.333l.414-.332c.303.225.49.654.873.74h1.395l-.217-6.77-1.795-1.54h-2.552zm6.103 0v8.31h1.918V592.244l1.059-1.168h1.37l.768.766v5.945h2.309l-.252-6.783-1.773-1.527h-2.06l-1.356.95-.364-.95h-1.619zm-20.734 1.552c.28.317.791.485.922.903v.742h-3.594l.474-.72c.24-.27.329-.788.784-.757l1.414-.168zm-10.373.045h1.341l1.004 1.006v2.688l-.994 1.42h-1.754l-.384-.383c-.122-.14-.294-.258-.383-.41v-3.262l1.17-1.059zm27.273 3.213v1.559c-.453.208-.863.534-1.348.662h-.81l-.412-.496c-.206-.213-.59-.588-.121-.764.323-.356.71-.704 1.22-.69l1.471-.27zm41.865 200.79c-.448-.032-1.002.16-1.422.054H77.18c-1.636 2.322-3.515 4.48-4.97 6.924-.487.792-.916 1.679-.782 2.634v2.49c.723 1.018 1.273 2.39 2.597 2.743 1.211.879 2.86 1.18 4.237.515l.148-.056.149-.055c1.553-.354 2.776-1.633 3.246-3.127.94-1.72.288-4.022-1.143-5.27-.834-.567-1.792-1.215-2.855-1.046h-1.938l4.506-5.395c-.14-.293-.37-.393-.639-.412zm-14.334.042c-.927-.019-1.86.023-2.468.86l-3.663 3.095c.654.68 1.514 2.13 2.514 1.018.342-.524 1.729-1.73 1.643-.393.026 2.952 0 5.905.01 8.858h-2.876v1.918h8.63v-.963h-.003c.396-.977-.844-1.086-1.503-.96h-1.372v-13.421c-.294.007-.603-.006-.912-.012zm-40.314 1.287v11.826h1.918V804.754l.58-.36c.57.707 1.2 1.367 1.728 2.104l1.024 1.734h2.435l-3.199-4.558c.66-.81 1.277-1.659 1.963-2.444.268-.302.778-.488.9-.859-.041-.136.093-.448-.083-.45H30.27l-2.438 3.198h-.826v-6.713h-1.918zm-4.168 3.434-2.64.353-1.565 1.565c-.146.727-.315 1.451-.447 2.181l.431 2.409 1.483 1.578 1.953.543c.678-.14 1.379-.187 2.04-.39l.755-.38c.33-.231 1.003-.273.884-.832-.158-.406-.626-.719-1-.87-.331.146-.636.356-.964.517-.321.198-.706.093-1.06.119H19.37c-.324-.493-.71-.954-.994-1.465v-.772h5.432v-1.949l-.928-1.795-1.961-.812zm-13.41.082v11.185h1.918V807.912c.327-.004.632.157.949.225l1.363.39 2.112-.88c.314-.508.652-1.007.95-1.52.142-.71.311-1.418.434-2.127l-.4-2.14-1.63-1.938h-2.358l-1.356.95-.363-.95h-1.62zm28.092 0-1.926.996c.167.33-.025 1.184.539 1.039 1.157-.182 2.328-.217 3.496-.275l.197 1.713-2.959.443-1.87 1.574c.044.47-.097.975.083 1.422l.596 1.115 1.396.569 1.918-.36c.138-.11.275-.223.412-.334l.414-.332c.303.225.49.654.873.74h1.395l-.217-6.77-1.795-1.54h-2.552zm6.103 0v8.31h1.918V802.69l1.059-1.168h1.37l.768.766v5.945h2.309l-.252-6.783-1.773-1.527h-2.06l-1.356.951-.364-.951h-1.619zm-20.734 1.553c.28.316.791.484.922.902v.742h-3.594l.474-.72c.24-.27.329-.788.784-.756l1.414-.168zm-10.373.045h1.341l1.004 1.005v2.688l-.994 1.42h-1.754l-.384-.383c-.122-.14-.294-.257-.383-.41v-3.262l1.17-1.058zm66.002 1.277c1.383-.066 2.6 1.027 2.804 2.375.498 2.057-2.191 4.153-4.013 2.916-1.195-.165-1.56-1.575-1.42-2.6.025-1.404 1.21-2.664 2.629-2.691zm-38.729 1.935v1.559c-.453.209-.863.535-1.348.662h-.81l-.412-.496c-.206-.212-.59-.588-.121-.764.323-.356.71-.703 1.22-.69l1.471-.27zm26.154 200.653a4.388 4.388 0 0 0-1.877.547c-1.042.474-2.112 1.18-2.488 2.322-.864.736-.512 2.344.776 2.084 1.572.165 1.463-2.035 2.771-2.367 1.2-.63 3.009.054 3.115 1.506.044 1.252-.139 2.668-1.125 3.55-2.228 2.194-4.362 4.483-6.552 6.715v1.336H69.51v-.92c.333-1.256-1.233-2.026-2.272-1.65l-4.4.172 5.39-5.508c.718-1.529 1.515-3.391.62-5.02-.838-1.807-2.871-2.892-4.823-2.767zm12.434.013c-1.019.012-2.027.324-2.846.971-2.016 1.511-2.715 4.195-2.568 6.611.014 1.1.023 2.201.045 3.301.736 1.456 1.025 3.38 2.627 4.182 1.6.972 3.711 1.177 5.385.273l.164-.119.152-.138v.001c1.562-1.106 2.49-2.969 2.78-4.83.179-1.606.171-3.249-.055-4.85-.316-1.79-1.14-3.626-2.778-4.568a5.277 5.277 0 0 0-2.906-.834zm-51.371 1.618v11.826h1.918v-3.479l.58-.36c.57.707 1.2 1.368 1.728 2.104l1.024 1.735h2.435l-3.199-4.559c.66-.81 1.277-1.658 1.963-2.443.268-.302.778-.489.9-.86-.041-.136.093-.448-.083-.449H30.27l-2.438 3.198h-.826v-6.713h-1.918zm51.734.734a2.164 2.164 0 0 1 1.397.613c.725.678.86 1.73 1.136 2.637.237 1.37-.044 2.764-.043 4.144.031 1.002-.086 2.027-.777 2.817-.605.917-1.797.82-2.756.84a1.058 1.058 0 0 1-.572-.285v.002c-1.153-.867-1.236-2.454-1.344-3.772.055-1.965-.252-4.089.78-5.869.43-.784 1.322-1.184 2.18-1.127zm-55.902 2.7-2.64.353-1.565 1.564c-.146.728-.315 1.451-.447 2.182l.431 2.408 1.483 1.578 1.953.543c.678-.14 1.379-.186 2.04-.39l.755-.38c.33-.231 1.003-.272.884-.831-.158-.407-.626-.72-1-.871-.331.147-.636.357-.964.517-.321.198-.706.094-1.06.12H19.37c-.324-.493-.71-.954-.994-1.466v-.771h5.432v-1.95l-.928-1.794-1.961-.813zm-13.41.081v11.186h1.918v-3.196c.327-.003.632.157.949.225l1.363.39 2.112-.88c.314-.507.652-1.006.95-1.52.142-.709.311-1.417.434-2.127l-.4-2.14c-.543-.646-1.088-1.292-1.63-1.938h-2.358l-1.356.95-.363-.95h-1.62zm28.092 0-1.926.996c.167.33-.025 1.184.539 1.04 1.157-.183 2.328-.217 3.496-.276l.197 1.713-2.959.443-1.87 1.574c.044.47-.097.975.083 1.422l.596 1.116 1.396.568 1.918-.36c.138-.11.275-.222.412-.333l.414-.332c.303.224.49.653.873.74h1.395l-.217-6.77-1.795-1.54h-2.552zm6.103 0v8.31h1.918v-5.542l1.059-1.168h1.37l.768.765v5.946h2.309l-.252-6.783-1.773-1.528h-2.06l-1.356.951-.364-.95h-1.619zm-20.734 1.553c.28.316.791.485.922.902v.743h-3.594l.474-.721c.24-.27.329-.788.784-.756l1.414-.168zm-10.373.045h1.341l1.004 1.006v2.687l-.994 1.42h-1.754l-.384-.383c-.122-.14-.294-.257-.383-.41v-3.261l1.17-1.06zm27.273 3.213v1.558c-.453.209-.863.535-1.348.663h-.81l-.412-.497c-.206-.212-.59-.587-.121-.763.323-.357.71-.704 1.22-.69l1.471-.271zm26.367 200.648a4.59 4.59 0 0 0-2.398.684c-1.244.534-2.088 1.716-2.65 2.9-.339 1.356 1.888 1.979 2.455.785.495-.975 1.205-2.08 2.447-2.025 1.158-.074 2.366.884 2.226 2.111.05 1.302-.422 2.649-1.45 3.487-2.05 2.147-4.189 4.23-6.173 6.43-.243.818-.093 1.641.914 1.323h9.9v-.92c.304-1.38-1.463-2.037-2.556-1.663-1.368.125-2.745.103-4.115.185l5.39-5.508c.759-1.55 1.518-3.493.567-5.13-.829-1.694-2.709-2.68-4.557-2.659zm16.137.354-2.715.023c-2.404 3.26-4.857 6.484-7.217 9.776-.033 1.288 1.487 2.198 2.643 1.736l4.893.129.19 3.676h2.206V1227.85h1.918v-1.918h-1.918v-9.588zm-55.287 1.279v11.826h1.918V1225.971l.58-.36c.57.706 1.2 1.367 1.728 2.104l1.024 1.734h2.435l-3.199-4.558c.66-.81 1.277-1.659 1.963-2.444.268-.302.778-.489.9-.86-.041-.135.093-.447-.083-.448H30.27l-2.438 3.197h-.826v-6.713h-1.918zm52.803 2.287c.547-.116.102 1.325.203 1.77l-.115 4.091-4.315.19.006-.127.006-.127c1.039-2.059 2.775-3.649 3.914-5.645a.866.866 0 0 1 .3-.152zm-56.971 1.147-2.64.353-1.565 1.565c-.146.727-.315 1.45-.447 2.181l.431 2.409 1.483 1.578 1.953.543c.678-.14 1.379-.187 2.04-.391l.755-.379c.33-.232 1.003-.273.884-.832-.158-.406-.626-.72-1-.871-.331.147-.636.357-.964.517-.321.199-.706.094-1.06.12H19.37c-.324-.493-.71-.954-.994-1.465v-.772h5.432v-1.949l-.928-1.795-1.961-.812zm-13.41.082v11.185h1.918V1229.13c.327-.004.632.157.949.225l1.363.39 2.112-.88c.314-.508.652-1.007.95-1.52.142-.71.311-1.418.434-2.127l-.4-2.14-1.63-1.938h-2.358l-1.356.949-.363-.95h-1.62zm28.092 0-1.926.996c.167.33-.025 1.184.539 1.039 1.157-.182 2.328-.217 3.496-.276l.197 1.713-2.959.444-1.87 1.574c.044.47-.097.975.083 1.422l.596 1.115 1.396.568 1.918-.359.412-.334.414-.332c.303.225.49.654.873.74h1.395l-.217-6.77-1.795-1.54h-2.552zm6.103 0v8.31h1.918V1223.906l1.059-1.168h1.37l.768.766v5.945h2.309l-.252-6.783-1.773-1.527h-2.06l-1.356.95-.364-.95h-1.619zm-20.734 1.552c.28.317.791.485.922.903v.742h-3.594l.474-.72c.24-.27.329-.788.784-.757l1.414-.168zm-10.373.045h1.341l1.004 1.006v2.688l-.994 1.42h-1.754l-.384-.383c-.122-.14-.294-.258-.383-.41v-3.262l1.17-1.059zm27.273 3.213v1.559c-.453.208-.863.534-1.348.662h-.81l-.412-.496c-.206-.213-.59-.588-.121-.764.323-.356.71-.704 1.22-.69l1.471-.27zm26.701 200.33a4.916 4.916 0 0 0-.742.018c-.657.065-1.3.267-1.877.621-1.228.455-1.973 1.53-2.603 2.58-.781 1.277.959 2.294 1.976 1.516.772-.617.836-1.941 1.928-2.194 1.125-.485 2.82.026 3.008 1.37.178 1.394-.129 2.94-1.239 3.89-2.046 2.002-3.973 4.12-5.988 6.154-.531.274-.37.828-.39 1.309-.156.507.247.454.623.43H69.51v-.92c.318-1.245-1.246-1.992-2.283-1.69-1.458.156-2.927.123-4.39.211l5.392-5.508c.75-1.556 1.527-3.487.566-5.129-.781-1.582-2.489-2.568-4.223-2.658zm11.735.032c-1.319.066-2.607.61-3.51 1.605-1.5 1.459-1.464 4.353.348 5.553.446 1.373-1.877 1.42-1.729 2.803-.477 1.712.008 3.72 1.49 4.79 1.824 1.392 4.409 1.49 6.479.631l.177-.093.172-.106c1.83-.774 2.56-3.02 2.178-4.861.175-1.374-1.642-1.788-1.883-2.889.49-1.107 1.856-1.81 1.559-3.226-.021-1.86-1.482-3.45-3.234-3.916a5.306 5.306 0 0 0-2.047-.292zm-51.22 1.92v11.826h1.919v-3.479l.58-.36c.57.707 1.2 1.367 1.728 2.104l1.024 1.735h2.435l-3.199-4.559c.66-.81 1.277-1.658 1.963-2.443.268-.302.778-.49.9-.86-.041-.136.093-.448-.083-.449H30.27l-2.438 3.197h-.826v-6.713h-1.918zm51.712.255c.864.056 1.681.523 1.93 1.414.434 1.235-.263 2.909-1.68 3.032-.495.083-1.038.002-1.445-.305-1.301-.533-1.488-2.384-.754-3.44.4-.422.983-.656 1.578-.699.124-.009.247-.01.37-.002zm-55.88 3.178-2.64.354-1.564 1.564c-.146.728-.315 1.451-.447 2.182l.431 2.408 1.483 1.578 1.953.543c.678-.14 1.379-.186 2.04-.39l.755-.38c.33-.231 1.003-.272.884-.832-.158-.406-.626-.719-1-.87-.331.146-.636.357-.964.517-.321.198-.706.094-1.06.119H19.37c-.324-.492-.71-.953-.994-1.465v-.771h5.432v-1.95l-.928-1.794-1.961-.813zm-13.41.082v11.186h1.919v-3.196c.327-.004.632.157.949.225l1.363.39 2.112-.88c.314-.508.652-1.006.95-1.52.142-.709.311-1.418.434-2.127l-.4-2.14-1.63-1.938h-2.358l-1.356.95-.363-.95h-1.62zm28.093 0-1.926.996c.167.33-.025 1.184.539 1.04 1.157-.183 2.328-.218 3.496-.276l.197 1.713-2.959.443-1.87 1.574c.044.47-.097.975.083 1.422l.596 1.115 1.396.569 1.918-.36c.138-.11.275-.224.412-.335.138-.112.277-.22.414-.33.303.224.49.653.873.74h1.395l-.217-6.77-1.795-1.54h-2.552zm6.103 0v8.31h1.918v-5.542l1.059-1.168h1.37l.768.765v5.946h2.309l-.252-6.784c-.592-.508-1.182-1.018-1.773-1.527h-2.06l-1.356.951-.364-.95h-1.619zm-20.734 1.553c.28.316.791.485.922.902v.742h-3.594l.474-.72c.24-.27.329-.788.784-.756l1.414-.168zm-10.373.045h1.341l1.004 1.006v2.687l-.994 1.42h-1.754l-.384-.383c-.122-.14-.294-.257-.383-.41v-3.262l1.17-1.058zm66.263 1.836c.93.038 1.876.413 2.157 1.361.317 1.138.114 2.697-1.108 3.205-.888.437-2.084.52-2.87-.172-1.742-.994-1.116-4.178.923-4.33.281-.053.588-.077.898-.064zm-38.99 1.377v1.558c-.453.209-.863.535-1.348.662h-.81l-.412-.496c-.206-.212-.59-.587-.121-.763.323-.357.71-.704 1.22-.69l1.471-.271zm39.164 200.65a4.916 4.916 0 0 0-.742.018 4.41 4.41 0 0 0-1.875.62c-1.228.455-1.975 1.529-2.606 2.579-.78 1.276.96 2.296 1.977 1.517.772-.616.837-1.94 1.93-2.193 1.124-.486 2.82.027 3.006 1.371.178 1.395-.129 2.94-1.239 3.889-2.046 2.001-3.973 4.12-5.988 6.154-.53.273-.37.825-.39 1.305-.155.505.243.46.62.433h10.247v-.922c.318-1.244-1.249-1.991-2.286-1.689-1.457.157-2.925.125-4.386.213l5.388-5.508c.75-1.556 1.528-3.49.567-5.13-.782-1.583-2.489-2.568-4.223-2.657zm-12.742.014a5.889 5.889 0 0 0-3.568 1.306c-.746.713-1.376 1.651-1.524 2.684.142 1.178 2.178 1.264 2.57.223.478-.999 1.403-2.112 2.641-1.875 1.191.022 2.081 1.085 1.928 2.26.112 1.33-1.116 2.34-2.397 2.12-1.195-.185-1.187 1.755-.297 2.045 1.023.238 2.384.31 2.825 1.463.547 1.236-.123 3.103-1.617 3.186-1.255.324-2.59-.083-3.094-1.352-.578-1.058-2.608-1.33-2.953.04.03.842.762 1.48 1.181 2.199.563.736 1.427 1.108 2.291 1.35 1.13.406 2.428.498 3.541-.005v-.002c1.371-.114 2.213-1.326 3.127-2.2.675-1.579.8-3.706-.566-4.962-1.098-.276-1.31-1.702-.072-1.902 1-.845.737-2.277.75-3.434-.244-1.28-1.457-2.085-2.514-2.687a5.112 5.112 0 0 0-2.252-.457zm-39.205 1.457v11.826h1.918v-3.479l.58-.359c.57.706 1.2 1.367 1.728 2.104.342.577.683 1.156 1.024 1.734h2.435l-3.199-4.559c.66-.81 1.277-1.658 1.963-2.443.268-.302.778-.489.9-.86-.041-.136.093-.448-.083-.449H30.27l-2.438 3.198h-.826v-6.713h-1.918zm-4.168 3.433-2.64.354-1.565 1.564c-.146.728-.315 1.451-.447 2.182l.431 2.408 1.483 1.578 1.953.543c.678-.14 1.379-.186 2.04-.39l.755-.38c.33-.231 1.003-.272.884-.831-.158-.406-.626-.72-1-.871-.331.147-.636.357-.964.517-.321.199-.706.094-1.06.12H19.37c-.324-.493-.71-.954-.994-1.466v-.771h5.432v-1.95l-.928-1.794-1.961-.813zm-13.41.082v11.186h1.918V1650.184c.327-.004.632.157.949.224l1.363.39 2.112-.88c.314-.507.652-1.006.95-1.52.142-.709.311-1.417.434-2.126l-.4-2.141c-.543-.646-1.088-1.292-1.63-1.938h-2.358l-1.356.95-.363-.95h-1.62zm28.092 0-1.926.996c.167.33-.025 1.184.539 1.04 1.157-.183 2.328-.217 3.496-.276l.197 1.713-2.959.443-1.87 1.575c.044.47-.097.974.083 1.421l.596 1.116 1.396.568 1.918-.36c.138-.11.275-.222.412-.333l.414-.332c.303.225.49.653.873.74h1.395l-.217-6.77-1.795-1.54h-2.552zm6.103 0v8.31h1.918v-5.542l1.059-1.168h1.37l.768.766v5.945h2.309l-.252-6.783-1.773-1.528h-2.06l-1.356.952-.364-.952h-1.619zm-20.734 1.553c.28.316.791.485.922.902v.743h-3.594l.474-.721c.24-.27.329-.788.784-.756l1.414-.168zm-10.373.045h1.341l1.004 1.006v2.687l-.994 1.42h-1.754l-.384-.382c-.122-.14-.294-.258-.383-.41v-3.262l1.17-1.059zm27.273 3.213v1.559c-.453.208-.863.534-1.348.662h-.81l-.412-.496c-.206-.213-.59-.588-.121-.764.323-.357.71-.704 1.22-.69l1.471-.271zm26.744 200.52c-1.021-.057-2.06.16-2.941.666-1.264.671-2.376 1.946-2.4 3.431.426 1.465 2.498.802 2.851-.406.393-.9 1.293-1.572 2.303-1.39 1.263.117 2.236 1.401 1.963 2.65-.16.999-1.142 1.976-2.207 1.673-1.445-.175-1.591 2.486-.002 2.225 1.054.052 2.165.627 2.418 1.725.356 1.193-.386 2.675-1.686 2.838-1.296.399-2.628-.25-3.227-1.432-.567-.918-2.178-1.25-2.746-.193-.276 1.077.624 1.9 1.198 2.68.996 1.006 2.471 1.332 3.828 1.5a4.082 4.082 0 0 0 1.853-.339c1.368-.124 2.22-1.322 3.13-2.205.69-1.578.79-3.73-.602-4.966-1.29-.216-.933-2.04.193-2.141.758-1.111.682-2.607.252-3.824-.818-1.543-2.476-2.398-4.178-2.493zm13.948.236a3.335 3.335 0 0 0-1.77.607c-1.752 2.583-4.033 4.862-5.223 7.79-.335 1.156-.045 2.363-.144 3.542.545 1.438 1.63 2.681 3.072 3.26 1.24.654 2.808.767 4.06.084 2.497-.61 4.027-3.46 3.587-5.908-.477-2.19-2.773-3.972-5.036-3.496-.748.219-1.359-.504-.494-.955 1.287-1.465 2.492-2.997 3.76-4.479a3.117 3.117 0 0 0-1.813-.445zm-53.475 1.525v11.826h1.918V1857.633l.58-.36c.57.707 1.2 1.367 1.728 2.104l1.024 1.734h2.435l-3.199-4.558c.66-.81 1.277-1.659 1.963-2.444.268-.302.778-.488.9-.859-.041-.136.093-.448-.083-.45H30.27l-2.438 3.198h-.826v-6.713h-1.918zm-4.168 3.432v.002l-2.64.353-1.565 1.565c-.146.727-.315 1.451-.447 2.181l.431 2.409 1.483 1.578 1.953.543c.678-.14 1.379-.187 2.04-.391l.755-.379c.33-.232 1.003-.273.884-.832-.158-.406-.626-.719-1-.871-.331.147-.636.357-.964.518-.321.198-.706.091-1.06.117H19.37c-.324-.493-.71-.954-.994-1.465v-.772h5.432v-1.949l-.928-1.795-1.961-.812zm-13.41.084v11.185h1.918V1860.791c.327-.004.632.157.949.225l1.363.39 2.112-.88c.314-.508.652-1.007.95-1.52.142-.71.311-1.418.434-2.127l-.4-2.14-1.63-1.938h-2.358l-1.356.949-.363-.95h-1.62zm28.092 0-1.926.996c.167.33-.025 1.184.539 1.039 1.157-.182 2.328-.217 3.496-.275l.197 1.712c-.986.149-1.972.296-2.959.444l-1.87 1.574c.044.47-.097.973.083 1.42l.596 1.117c.465.19.93.377 1.396.567l1.918-.36.412-.334.414-.332c.303.225.49.656.873.742h1.395l-.217-6.771c-.598-.514-1.197-1.025-1.795-1.54h-2.552zm6.103 0v8.31h1.918V1855.568l1.059-1.168h1.37l.768.766v5.945h2.309l-.252-6.783-1.773-1.527h-2.06l-1.356.951-.364-.951h-1.619zm-20.734 1.553c.28.316.791.484.922.902v.742h-3.594l.474-.72c.24-.27.329-.788.784-.756l1.414-.168zm-10.373.044h1.341l1.004 1.006v2.688l-.994 1.42h-1.754l-.384-.383c-.122-.14-.294-.257-.383-.41v-3.262l1.17-1.059zm66.386 1.12a2.28 2.28 0 0 1 1.41.59c1.44 1.096 1.4 3.655-.24 4.552-.792.55-1.941.743-2.763.145-1.371-.29-1.645-1.983-1.385-3.149.239-1.15 1.33-1.982 2.467-2.123.17-.02.342-.027.511-.015zm-39.113 2.093v1.559c-.453.209-.863.534-1.348.662h-.81l-.412-.496c-.206-.213-.59-.588-.121-.764.323-.356.71-.703 1.22-.69l1.471-.27zm38.41 190.934c-1.425.083-2.812.73-3.664 1.918-1.587 1.938-1.706 4.58-1.543 6.969-.173 1.258.128 2.465.678 3.586.461 1.248 1.28 2.47 2.6 2.908 1.595.707 3.625.789 5.066-.317 2.24-1.606 3.072-4.538 2.885-7.185.08-1.335-.124-2.656-.553-3.918-.394-1.534-1.558-2.812-2.969-3.492a5.203 5.203 0 0 0-2.5-.47zm-8.369.32-2.717.024c-2.404 3.26-4.854 6.483-7.215 9.775-.034 1.326 1.552 2.192 2.72 1.738l4.816.127c.202 1.217-.13 2.508.365 3.676h2.031V2060.371h1.918v-1.918h-1.918v-9.588zm-42.824 1.278v11.826h1.918v-3.479l.58-.36c.57.707 1.2 1.368 1.728 2.104l1.024 1.735h2.435l-3.199-4.559c.66-.81 1.277-1.658 1.963-2.443.268-.302.778-.49.9-.86-.041-.136.093-.448-.083-.449H30.27l-2.438 3.198h-.826v-6.713h-1.918zm51.523.738c.944.005 1.896.54 2.2 1.484 1.06 2.204.434 4.687.486 7.022-.061 1.348-1.335 2.521-2.656 2.613-.483-.034-1.027-.06-1.434-.354-1.379-1.13-1.309-3.093-1.338-4.712-.017-1.857-.125-3.978 1.192-5.463.42-.405.984-.593 1.55-.59zm-11.13 1.469c.485-.096.04 1.29.154 1.697l-.12 4.246c-1.442.05-2.882.155-4.326.17-.025-.083.075-.155.022-.235 1.07-2.088 2.814-3.724 4-5.74a.736.736 0 0 1 .27-.138zm-44.561 1.226-2.64.354-1.565 1.564c-.146.728-.315 1.451-.447 2.182l.431 2.408 1.483 1.578 1.953.543c.678-.14 1.379-.186 2.04-.39l.755-.38c.33-.231 1.003-.272.884-.831-.158-.407-.626-.72-1-.872-.331.147-.636.358-.964.518-.321.198-.706.094-1.06.12H19.37c-.324-.493-.71-.954-.994-1.466v-.771h5.432v-1.95l-.928-1.794-1.961-.813zm-13.41.082v11.186h1.918v-3.196c.327-.003.632.157.949.225l1.363.39 2.112-.88c.314-.507.652-1.006.95-1.52.142-.709.311-1.417.434-2.127l-.4-2.14c-.543-.646-1.088-1.292-1.63-1.938h-2.358l-1.356.95-.363-.95h-1.62zm28.092 0-1.926.996c.167.33-.025 1.184.539 1.04 1.157-.183 2.328-.217 3.496-.276l.197 1.713-2.959.443-1.87 1.574c.044.47-.097.975.083 1.422l.596 1.115 1.396.569 1.918-.36c.138-.11.275-.222.412-.333.138-.112.277-.222.414-.332.303.224.49.653.873.74h1.395l-.217-6.77-1.795-1.54h-2.552zm6.103 0v8.31h1.918v-5.542l1.059-1.168h1.37l.768.765v5.946h2.309l-.252-6.784c-.592-.508-1.182-1.018-1.773-1.527h-2.06l-1.356.951-.364-.95h-1.619zm-20.734 1.553c.28.316.791.485.922.902v.743h-3.594l.474-.721c.24-.27.329-.788.784-.756l1.414-.168zm-10.373.045h1.341l1.004 1.006v2.687l-.994 1.42h-1.754l-.384-.383c-.122-.14-.294-.257-.383-.41v-3.262l1.17-1.058zm27.273 3.213v1.558c-.453.209-.863.535-1.348.662h-.81l-.412-.496c-.206-.212-.59-.587-.121-.763.323-.357.71-.704 1.22-.69l1.471-.271zm30.041 191.416-2.717.023c-2.404 3.26-4.854 6.484-7.215 9.776-.024 1.254 1.394 2.18 2.547 1.734l4.989.13.191 3.677h2.205V2261.39h1.918v-1.918h-1.918v-9.588zm12.463 0-2.715.023c-2.404 3.26-4.857 6.484-7.217 9.776-.024 1.254 1.393 2.18 2.547 1.734l4.989.13.19 3.677h2.206V2261.39h1.918v-1.918h-1.918v-9.588zm-55.287 1.44v11.825h1.918V2259.672l.58-.36c.57.707 1.2 1.367 1.728 2.104l1.024 1.734h2.435l-3.199-4.558c.66-.81 1.277-1.659 1.963-2.444.268-.302.778-.488.9-.859-.041-.136.093-.448-.083-.45H30.27l-2.438 3.198h-.826v-6.713h-1.918zm40.52 1.78c.034-.014.061-.011.081.016l-.173 6.191-4.315.19.006-.127.004-.127c.843-1.727 2.245-3.086 3.28-4.691.318-.33.875-1.348 1.116-1.451zm12.462 0c.035-.014.062-.011.082.016l-.173 6.191-4.315.19.006-.127.006-.127c.842-1.727 2.245-3.086 3.28-4.691.318-.33.873-1.348 1.114-1.451zm-57.15 1.653-2.64.353-1.565 1.565c-.146.727-.315 1.451-.447 2.181l.431 2.409 1.483 1.578 1.953.543c.678-.14 1.379-.187 2.04-.39l.755-.38c.33-.232 1.003-.273.884-.832-.158-.406-.626-.719-1-.87-.331.146-.636.356-.964.517-.321.198-.706.094-1.06.119H19.37c-.324-.493-.71-.954-.994-1.465v-.771h5.432v-1.95l-.928-1.795-1.961-.812zm-13.41.082v11.185h1.918V2262.83c.327-.004.632.157.949.225l1.363.39 2.112-.88c.314-.508.652-1.007.95-1.52.142-.71.311-1.418.434-2.127l-.4-2.14-1.63-1.938h-2.358c-.452.316-.904.632-1.356.95l-.363-.95h-1.62zm28.092 0-1.926.996c.167.33-.025 1.184.539 1.039 1.157-.182 2.328-.217 3.496-.275l.197 1.713-2.959.443-1.87 1.574c.044.47-.097.975.083 1.422l.596 1.115 1.396.568 1.918-.359c.138-.11.275-.223.412-.334l.414-.332c.303.225.49.654.873.74h1.395l-.217-6.77-1.795-1.54h-2.552zm6.103 0v8.31h1.918V2257.607l1.059-1.168h1.37l.768.766v5.945h2.309l-.252-6.783-1.773-1.527h-2.06l-1.356.951-.364-.951h-1.619zm-20.734 1.553c.28.316.791.484.922.902v.742h-3.594l.474-.72c.24-.27.329-.788.784-.756.472-.057.942-.113 1.414-.168zm-10.373.044h1.341l1.004 1.006v2.688l-.994 1.42h-1.754l-.384-.383c-.122-.14-.294-.257-.383-.41v-3.262l1.17-1.059zm27.273 3.213v1.559c-.453.209-.863.535-1.348.662h-.81l-.412-.496c-.206-.212-.59-.588-.121-.764.323-.356.71-.703 1.22-.69l1.471-.27zm38.975 200.53c-1.745-.07-3.514.633-4.465 2.154-.7 1.115-.977 2.688-.252 3.848.71.596 1.677 1.922.33 2.398-1.666 1.465-1.644 4.262-.115 5.818 1.565 1.707 4.122 2.018 6.265 1.418.395-.094.787-.232 1.125-.46 2.329-1.048 2.958-4.372 1.536-6.376-.694-.539-1.93-1.508-.622-2.164 1.602-1.614 1.042-4.563-.87-5.687-.848-.588-1.886-.907-2.932-.95zm-8.934.312-2.717.024c-2.404 3.26-4.854 6.483-7.215 9.775-.04 1.398 1.667 2.188 2.86 1.742 1.558.041 3.117.083 4.676.123.2 1.218-.125 2.507.365 3.676h2.031V2471.998h1.918v-1.918h-1.918v-9.588zm-42.824 1.28v11.826h1.918v-3.479l.58-.36c.57.707 1.2 1.367 1.728 2.104l1.024 1.735h2.435l-3.199-4.559c.66-.81 1.277-1.658 1.963-2.443.268-.302.778-.49.9-.86-.041-.136.093-.448-.083-.449H30.27l-2.438 3.197h-.826v-6.713h-1.918zm51.373.558c1.176-.06 2.415.8 2.396 2.059.135 1.314-1.05 2.702-2.43 2.421a1.739 1.739 0 0 1-.823-.322c-1.722-.703-1.546-3.752.36-4.076.162-.047.329-.073.497-.082zm-10.951 1.703c.435.109.02 1.234.125 1.66l-.12 4.227-4.314.19.01-.255c1.095-2.106 2.832-3.777 4.055-5.8a.467.467 0 0 1 .244-.022zm-44.59 1.172-2.64.354-1.565 1.564c-.146.728-.315 1.451-.447 2.182l.431 2.408 1.483 1.578 1.953.543c.678-.14 1.379-.186 2.04-.39l.755-.38c.33-.231 1.003-.272.884-.832-.158-.406-.626-.719-1-.87-.331.146-.636.356-.964.517-.321.198-.706.094-1.06.119H19.37c-.324-.492-.71-.953-.994-1.465v-.771h5.432v-1.95l-.928-1.794-1.961-.813zm-13.41.082v11.186h1.918v-3.196c.327-.003.632.157.949.225l1.363.39 2.112-.88c.314-.508.652-1.006.95-1.52.142-.709.311-1.418.434-2.127l-.4-2.14-1.63-1.938h-2.358l-1.356.95-.363-.95h-1.62zm28.092 0-1.926.996c.167.33-.025 1.184.539 1.04 1.157-.183 2.328-.217 3.496-.276l.197 1.713-2.959.443-1.87 1.574c.044.47-.097.975.083 1.422l.596 1.115 1.396.569 1.918-.36c.138-.11.275-.222.412-.334.138-.11.277-.22.414-.332.303.225.49.654.873.74h1.395l-.217-6.769-1.795-1.54h-2.552zm6.103 0v8.31h1.918v-5.542l1.059-1.168h1.37l.768.765v5.946h2.309l-.252-6.784c-.592-.508-1.182-1.018-1.773-1.527h-2.06l-1.356.951-.364-.95h-1.619zm-20.734 1.553c.28.316.791.485.922.902v.742h-3.594l.474-.72c.24-.27.329-.788.784-.756l1.414-.168zm-10.373.045h1.341l1.004 1.006v2.687l-.994 1.42h-1.754l-.384-.383c-.122-.14-.294-.257-.383-.41v-3.262l1.17-1.058zm66.261 2.134c.99.045 1.986.543 2.198 1.577.383 1.265-.223 2.946-1.643 3.199-.784.247-1.744.235-2.375-.36-1.719-.983-1.14-4.093.861-4.314.3-.082.63-.116.96-.102zm-38.988 1.079v1.558c-.453.21-.863.535-1.348.662h-.81l-.412-.496c-.206-.212-.59-.587-.121-.763.323-.357.71-.704 1.22-.69l1.471-.271zm39.258 191.068c-.93-.062-1.872.138-2.678.646-1.49.5-2.469 1.95-2.797 3.436.397 1.419 2.59.93 2.813-.377.652-1.295 2.542-1.877 3.66-.832.938.894.765 2.391.328 3.492-.552 1.357-1.835 2.169-2.756 3.25-1.39 1.46-2.787 2.914-4.256 4.295-.938 1.082.226 2.328 1.416 1.793 3.038-.023 6.078-.004 9.116-.012v-.923c.273-1.325-1.391-1.993-2.467-1.727-1.202.092-2.41.335-3.615.156-.11-1.26 1.557-1.572 2.037-2.59l2.761-2.822c.895-1.652 1.526-3.856.346-5.533-.832-1.322-2.357-2.15-3.908-2.252zm-9.895.184c-.135.019-.27.066-.4.148-1.856.046-3.714.013-5.57-.017-1.016.877-.353 2.383-.871 3.496-.183 1.145-.581 2.281-.606 3.435.466 1.259 2.075 1.133 3.127.819 1.1-.21 2.552-.147 3.164.949.494 1.08.36 2.349-.078 3.424-1.07 1.321-3.243 1.496-4.53.394-.83-.538-2.453-.063-2.302 1.096.356 1.225 1.765 1.568 2.861 1.812 1 .28 2.111.386 3.076-.068 3.16-.63 5.11-4.534 3.67-7.43-.813-1.794-2.902-2.916-4.845-2.468-1.1.316-1.785-.913-1.37-1.825.274-.897 1.218-1.532 2.15-1.34 1.209-.155 2.592.258 3.653-.486.77-.807-.182-2.075-1.129-1.94zm-42.146 1.441v11.826h1.918V2671.14l.58-.36c.57.706 1.2 1.367 1.728 2.104.342.577.683 1.157 1.024 1.734h2.435l-3.199-4.558c.66-.81 1.277-1.659 1.963-2.444.268-.302.778-.489.9-.86-.041-.135.093-.447-.083-.448H30.27l-2.438 3.197h-.826v-6.713h-1.918zm-4.168 3.434-2.64.353-1.565 1.565c-.146.727-.315 1.45-.447 2.181l.431 2.408 1.483 1.579 1.953.543c.678-.14 1.379-.187 2.04-.391l.755-.379c.33-.232 1.003-.273.884-.832-.158-.406-.626-.72-1-.871-.331.147-.636.357-.964.517-.321.199-.706.094-1.06.12H19.37c-.324-.493-.71-.954-.994-1.465v-.772h5.432v-1.949l-.928-1.795-1.961-.812zm-13.41.082v11.185h1.918V2674.297c.327-.004.632.157.949.224l1.363.391 2.112-.88c.314-.508.652-1.007.95-1.52.142-.71.311-1.418.434-2.127l-.4-2.14-1.63-1.938h-2.358l-1.356.949-.363-.95h-1.62zm28.092 0-1.926.996c.167.33-.025 1.184.539 1.039 1.157-.182 2.328-.217 3.496-.276l.197 1.713-2.959.444-1.87 1.574c.044.47-.097.974.083 1.422l.596 1.115 1.396.568 1.918-.359.412-.334.414-.332c.303.225.49.654.873.74h1.395l-.217-6.77-1.795-1.54h-2.552zm6.103 0v8.31h1.918V2669.074l1.059-1.168h1.37l.768.766v5.945h2.309l-.252-6.783-1.773-1.527h-2.06l-1.356.95-.364-.95h-1.619zm-20.734 1.552c.28.317.791.485.922.903v.742h-3.594l.474-.72c.24-.27.329-.788.784-.757l1.414-.168zm-10.373.045h1.341l1.004 1.006v2.688l-.994 1.42h-1.754l-.384-.383c-.122-.14-.294-.258-.383-.41v-3.262l1.17-1.059zm27.273 3.213v1.559c-.453.208-.863.534-1.348.662h-.81l-.412-.496c-.206-.213-.59-.588-.121-.764.323-.356.71-.704 1.22-.69l1.471-.27z" style="fill:#fff;stroke-width:.31958601" transform="scale(.26458)"/></svg>