<svg xmlns="http://www.w3.org/2000/svg" width="500" height="338.596" viewBox="0 0 132.292 89.587"><defs><linearGradient id="a"><stop offset="0" style="stop-color:#b3ff80;stop-opacity:1"/><stop offset="1" style="stop-color:teal;stop-opacity:1"/></linearGradient><linearGradient id="b"><stop offset="0" style="stop-color:#ffb380;stop-opacity:1"/><stop offset="1" style="stop-color:#f0f;stop-opacity:1"/></linearGradient><linearGradient id="c"><stop offset="0" style="stop-color:#0f0;stop-opacity:1"/><stop offset="1" style="stop-color:green;stop-opacity:1"/></linearGradient></defs><path d="M40.81 0a54.126 54.126 0 0 0-3.253.068c-.039.863-.017 1.728-.023 2.592h-3.692v25.151h30.765V2.661h-3.691c-.005-.865.015-1.73-.024-2.593C58.731-.055 56.55.032 54.38.007l-.02 2.634-1.866.02V.008h-6.537v2.655l-1.865-.02-.02-2.635C42.984.02 41.896.004 40.81 0zm-2.315.93 4.634.02.01 1.855.01 1.856h-4.654zm21.46 0V4.66H55.3L55.32.95l4.633-.02zM46.897.95h4.653l.01 1.855.01 1.856h-4.693Zm-11.21 7.748h27.074l-.01 8.374-.01 8.374c-9.01 0-18.02.032-27.029-.006-.044-5.58-.02-11.16-.026-16.741zm16.25 6.204c-.305 0-.61.005-.914.002v4.302h.837c.533-.018 1.089.067 1.594-.148.485-.18.808-.694.755-1.21-.01-.407-.347-.726-.725-.823-.337-.044.128-.115.22-.233.379-.246.47-.762.318-1.165-.167-.483-.706-.671-1.171-.708a17.284 17.284 0 0 0-.914-.017zm-7.701.002v4.302h.803v-1.753h1.612v-.64H45.04V15.54h1.91v-.636zm3.37 0v4.302h2.713v-.64h-1.91v-1.217h1.506v-.616H48.41V15.54h1.91v-.636zm4.217.618h.633c.305-.01.721.042.807.397.086.294-.01.68-.334.777-.357.114-.737.055-1.106.07zm.387.78c-.002 0-.003.003-.004.004a.015.015 0 0 0 .005-.004zm-.004.004v-.001l-.005.005.005-.004zm.118 1.012c.167 0 .334.001.5.012.302.011.609.234.596.559a.611.611 0 0 1-.493.662c-.364.055-.736.02-1.104.03v-1.262c.167.003.334 0 .501 0zM6.969 30.888a54.177 54.177 0 0 0-3.254.067c-.039.864-.018 1.73-.023 2.593H0V58.7h30.766v-25.15h-3.692c-.005-.865.015-1.73-.024-2.594-2.161-.123-4.343-.035-6.513-.06l-.02 2.634-1.865.02v-2.654h-6.539v2.655l-1.865-.021-.02-2.634c-1.085.013-2.173-.003-3.26-.006zm101.526 0a54.16 54.16 0 0 0-3.253.067c-.04.864-.019 1.73-.024 2.593h-3.692V58.7h30.766v-25.15H128.6c-.005-.865.016-1.73-.023-2.594-2.162-.123-4.343-.035-6.514-.06l-.02 2.634-1.865.02v-2.654h-6.538v2.655l-1.866-.021-.02-2.634c-1.085.013-2.173-.003-3.26-.006zm-103.842.93 4.634.02.01 1.855.01 1.856H4.653Zm21.46 0v3.731h-4.655l.02-3.712 4.634-.02zm80.067 0 4.633.02.01 1.855.01 1.856h-4.653zm21.458 0v3.731h-4.654l.02-3.712 4.634-.02zm-114.582.02h4.654l.01 1.855c.002.619.006 1.237.01 1.856h-4.694zm101.526 0h4.654l.01 1.855.01 1.856h-4.693zM1.846 39.585H28.92l-.01 8.374-.01 8.374c-9.01 0-18.02.031-27.029-.006-.044-5.58-.019-11.161-.026-16.742zm101.526 0h27.074l-.01 8.374-.01 8.374c-9.01 0-18.02.031-27.029-.006-.044-5.58-.02-11.161-.026-16.742zm13.735 6.182a3.012 3.012 0 0 0-.531.03c-.652.088-1.272.482-1.562 1.083a2.474 2.474 0 0 0-.07 1.994c.24.608.803 1.05 1.431 1.205.74.18 1.578.09 2.197-.38v-1.74h-1.428v.243c.012.119-.047.29.094.348.202.022.408.004.611.01v.574c-.012.07.026.172-.023.22-.485.235-1.09.242-1.564-.024-.49-.277-.696-.87-.674-1.408-.003-.533.248-1.106.752-1.339.438-.199.963-.173 1.4.018.173.063.344.284.538.16.117-.128.193-.29.291-.433-.392-.375-.926-.543-1.462-.56zm-102.417.045c-.08.003-.155.02-.208.09-.287.525-.563 1.056-.847 1.583-.207.407-.45.797-.619 1.223-.059-.02-.117-.272-.189-.377l-1.167-2.166c-.08-.118-.112-.294-.26-.343-.244-.017-.488-.005-.732-.008v4.302h.704v-1.636c-.006-.503.018-1.007-.02-1.509l1.158 2.158c.097.152.143.352.31.442.166.04.395.056.5-.11.428-.79.847-1.587 1.271-2.38.07-.16.05-.032.04.087-.008.982-.002 1.966-.003 2.948h.704v-4.302h-.4c-.076.007-.162-.005-.242-.002zm1.603.002v4.302h2.713v-.64h-1.91v-1.216H18.6v-.616h-1.505V46.45h1.91v-.636zm3.416 0v4.302h.803v-4.302zm92.488 0-1.693 4.302h.409c.164-.002.375.034.463-.148.116-.302.223-.608.336-.911h1.782l.227.618c.07.165.096.408.313.438.222.007.445.001.668.003l-1.69-4.302zm7.099 0v1.913c.01.374-.03.752.047 1.121.11.56.529 1.044 1.074 1.216.495.153 1.056.14 1.527-.085.561-.259.895-.865.916-1.47.007-.898 0-1.797.003-2.695h-.8v2.036c-.013.354.044.724-.096 1.06-.13.359-.513.575-.887.56-.142 0-.285-.021-.417-.077-.365-.142-.558-.54-.566-.914-.005-.888 0-1.777-.002-2.665zm-6.702.766c.023-.021.045.124.07.19.2.577.418 1.148.625 1.722h-1.371l.117-.32c.178-.502.381-.996.535-1.506.008-.053.016-.079.024-.086zm-94.225.608-.004.005a.02.02 0 0 0 .005-.005zm-.004.005v-.002l-.005.006a.02.02 0 0 0 .005-.004zm56.287 14.582a53.325 53.325 0 0 0-3.253.067c-.039.864-.017 1.729-.023 2.593h-3.692v25.151H98.45V64.436h-3.692c-.005-.864.015-1.73-.024-2.593-2.161-.123-4.343-.035-6.513-.06l-.02 2.634-1.865.02v-2.655h-6.538v2.655l-1.865-.02-.02-2.635c-1.086.013-2.173-.002-3.26-.005zm-2.315.93 4.635.02.01 1.855c.002.619.006 1.237.01 1.855h-4.655zm21.46 0v3.73h-4.655l.02-3.71c1.545-.008 3.09-.014 4.634-.02zm-13.057.02h4.653l.01 1.855c.005.619.007 1.237.01 1.855H80.72zm-11.21 7.748h27.074l-.01 8.374-.01 8.374c-9.01 0-18.019.031-27.029-.006-.043-5.58-.019-11.161-.025-16.742zm13.971 6.183c-.586-.035-1.186.141-1.627.534-.64.572-.829 1.526-.606 2.334a2.043 2.043 0 0 0 1.279 1.393c.646.22 1.399.181 1.991-.172.655-.38 1.013-1.148 1-1.892 0-.052-.001-.104-.004-.156-.03-.705-.404-1.403-1.028-1.751a2.343 2.343 0 0 0-1.005-.29zm-6.177.044a.24.24 0 0 0-.06.002h-.419v4.302h.705v-1.539c-.006-.488.015-.976-.018-1.463l2.052 2.617c.113.126.19.297.35.368.177.033.359.01.538.017v-4.302h-.706v1.591c.007.472-.016.946.021 1.417l-2.172-2.774c-.076-.1-.16-.224-.291-.236zm11.928 0c-.14-.001-.283.008-.354.15-.245.627-.483 1.256-.726 1.883-.16.442-.366.87-.458 1.334-.038.016-.091-.308-.144-.425-.316-.835-.643-1.667-.964-2.5-.075-.164-.1-.407-.318-.437-.23-.007-.461-.001-.692-.003l1.737 4.302h.723l1.738-4.302h-.405c-.043.001-.09 0-.137-.001zm-5.808.635c.2.012.396.062.574.147.502.248.713.84.702 1.371.001.353-.075.718-.283 1.01-.352.5-1.064.612-1.613.413-.458-.161-.745-.62-.803-1.087-.079-.557.022-1.213.487-1.583.264-.204.603-.29.936-.27zm2.61.741-.005.004.005-.004zm-.005.004-.005.004a.02.02 0 0 0 .005-.004z" style="opacity:1;vector-effect:none;fill:green;fill-opacity:1;stroke:none;stroke-width:.03845686;stroke-linecap:butt;stroke-linejoin:miter;stroke-miterlimit:4;stroke-dasharray:none;stroke-dashoffset:0;stroke-opacity:1"/><path d="M6.969 0a54.144 54.144 0 0 0-3.254.068c-.039.863-.018 1.728-.023 2.592H0v25.151h30.766V2.661h-3.692c-.005-.865.015-1.73-.024-2.593-2.161-.123-4.343-.036-6.513-.061l-.02 2.634-1.865.02V.008h-6.539v2.655l-1.865-.02-.02-2.635C9.143.02 8.055.004 6.968 0zm101.526 0a54.126 54.126 0 0 0-3.253.068c-.04.863-.019 1.728-.024 2.592h-3.692v25.151h30.766V2.661H128.6c-.005-.865.016-1.73-.023-2.593-2.162-.123-4.343-.036-6.514-.061l-.02 2.634-1.865.02V.008h-6.538v2.655l-1.865-.02-.02-2.635c-1.086.013-2.174-.003-3.26-.006zM4.653.93l4.634.02.01 1.855.01 1.856H4.653Zm21.46 0V4.66h-4.655l.02-3.711 4.634-.02zm80.067 0 4.633.02.01 1.855.01 1.856h-4.653zm21.458 0V4.66h-4.654l.02-3.711 4.634-.02zM13.056.95h4.654l.01 1.855c.002.619.006 1.237.01 1.856h-4.694zm101.526 0h4.654l.01 1.855.01 1.856h-4.693zM1.846 8.698H28.92l-.01 8.374-.01 8.374c-9.01 0-18.02.032-27.029-.006-.044-5.58-.019-11.16-.026-16.741zm101.526 0h27.074l-.01 8.374-.01 8.374c-9.01 0-18.02.032-27.029-.006-.044-5.58-.02-11.16-.026-16.741zm-85.805 6.203a.24.24 0 0 0-.059.003h-.42v4.302h.706v-1.54c-.006-.487.015-.976-.018-1.462l2.052 2.617c.113.125.19.297.35.368.177.032.358.01.537.017v-4.302h-.705v1.59c.007.473-.017.946.02 1.417l-2.171-2.773c-.077-.101-.16-.225-.292-.237zm98.824.002c-.268 0-.536.002-.804 0v4.303h.8V17.69h.65c.525-.002 1.105-.168 1.406-.629a1.52 1.52 0 0 0 .042-1.491c-.257-.453-.797-.636-1.29-.661a29.484 29.484 0 0 0-.804-.007zm3.655 0c-.258 0-.516.002-.774 0v4.303h.8v-1.681h.102c.172.012.382-.048.505.107.266.395.525.796.788 1.194.105.139.17.346.367.374.265.012.532.002.797.006l-.832-1.228c-.154-.205-.263-.457-.489-.597.066-.058.296-.119.406-.217.53-.347.679-1.123.36-1.66-.264-.421-.788-.564-1.256-.593a24.627 24.627 0 0 0-.774-.009zm-108.743 0v2.407c-.01.342.046.711-.137 1.02-.135.232-.427.284-.674.258-.156-.05-.428-.074-.405.168.03.135-.129.406.047.436.481.1 1.031.108 1.442-.203.4-.304.53-.832.527-1.313v-2.772zm2.829 0-1.692 4.303h.3c.186-.013.423.055.553-.117.133-.308.234-.63.354-.943h1.674c.202-.04.16.267.25.387.102.207.114.474.294.632.243.086.517.02.772.04l-1.69-4.301zm98.5 0-1.694 4.303h.409c.164-.003.376.033.463-.149.116-.302.223-.607.336-.91h1.782l.227.617c.07.165.096.408.313.438.223.008.445.002.668.004l-1.69-4.302zm7.912.618c.157.002.313.013.466.057a.61.61 0 0 1 .448.623.687.687 0 0 1-.493.693c-.29.09-.596.046-.893.056v-1.428c.156.005.315-.003.472 0zm-4.034.001c.327.012.671-.045.977.098.313.138.414.516.357.828-.032.313-.3.556-.605.597-.282.039-.568.014-.851.021v-1.47c-.03-.096.057-.074.122-.074zm-3.482.147c.023-.02.045.124.07.191.2.576.418 1.147.625 1.72h-1.372l.113-.307c.18-.506.385-1.004.54-1.518.008-.053.016-.079.024-.086zm-98.488.002c.207.643.457 1.273.684 1.91h-1.372c.178-.498.371-.99.545-1.49.056-.133.084-.309.143-.42zM74.652 30.89a54.16 54.16 0 0 0-3.253.066c-.039.864-.017 1.73-.023 2.593h-3.692V58.7H98.45v-25.15h-3.692c-.005-.865.015-1.73-.024-2.594-2.161-.123-4.343-.035-6.513-.06l-.02 2.634-1.865.02v-2.654h-6.538v2.655l-1.865-.021-.02-2.634c-1.086.013-2.173-.003-3.26-.006zm-2.315.929 4.635.02.01 1.855c.002.619.006 1.237.01 1.856h-4.655zm21.46 0v3.731h-4.655l.02-3.712 4.634-.02zm-13.057.02h4.653l.01 1.855c.005.619.007 1.237.01 1.856H80.72zm-11.21 7.748h27.074l-.01 8.374-.01 8.374c-9.01 0-18.02.031-27.029-.006-.043-5.58-.019-11.161-.025-16.742zm9.825 6.229v2.406c-.01.342.046.712-.137 1.02-.135.233-.427.285-.673.258-.157-.049-.428-.073-.405.169.03.135-.13.406.046.436.482.1 1.032.107 1.442-.203.4-.304.531-.833.528-1.313v-2.773zm1.664 0v1.913c.01.374-.03.752.048 1.121.11.56.529 1.044 1.075 1.216.495.153 1.055.14 1.527-.085.56-.26.894-.865.914-1.47.008-.898.002-1.797.004-2.695h-.8v2.036c-.012.354.045.724-.095 1.06-.131.359-.514.575-.887.56-.142 0-.285-.021-.417-.077-.365-.142-.558-.54-.566-.914-.005-.888 0-1.777-.002-2.665zm4.47 0v4.302h2.52v-.66h-1.72v-3.642ZM40.81 61.776a53.325 53.325 0 0 0-3.253.067c-.039.864-.017 1.729-.023 2.593h-3.692v25.151h30.765V64.436h-3.691c-.005-.864.015-1.73-.024-2.593-2.161-.123-4.343-.035-6.513-.06l-.02 2.634-1.866.02v-2.655h-6.537v2.655l-1.865-.02-.02-2.635c-1.086.013-2.174-.002-3.26-.005zm-2.315.93 4.634.02.01 1.855.01 1.855h-4.654zm21.46 0v3.73H55.3l.02-3.71c1.544-.008 3.089-.014 4.633-.02zm-13.057.02h4.653l.01 1.855.01 1.855h-4.693Zm-11.21 7.748h27.074l-.01 8.374-.01 8.374c-9.01 0-18.02.031-27.029-.006-.044-5.58-.02-11.161-.026-16.742zm9.851 6.183c-.586-.035-1.186.141-1.627.534-.64.572-.83 1.526-.606 2.334a2.043 2.043 0 0 0 1.279 1.393c.646.22 1.399.181 1.991-.172.655-.38 1.013-1.148 1-1.892 0-.052-.001-.104-.004-.156-.03-.705-.404-1.403-1.028-1.751a2.343 2.343 0 0 0-1.005-.29zm2.746.046v4.302h.8v-1.893c.192.013.421-.048.569.11.37.48.739.964 1.109 1.446.106.116.171.298.342.327.276.02.554.005.83.01l-1.258-1.697c-.146-.179-.254-.396-.448-.529-.21-.058.015-.11.086-.212.508-.619 1.008-1.243 1.513-1.864h-.408c-.206.01-.453-.05-.607.125-.405.504-.802 1.014-1.204 1.52-.112.187-.339.156-.524.158v-1.803zm3.69 0v.657h1.297v3.645h.8V77.36h1.297v-.657Zm-6.494.633c.2.012.397.062.575.147.502.247.713.84.702 1.371.001.353-.075.718-.283 1.01-.352.5-1.064.612-1.613.413-.458-.161-.745-.62-.803-1.087-.079-.558.022-1.213.487-1.583.264-.204.603-.29.935-.27zm6.73.741-.004.004.005-.004z" style="opacity:1;vector-effect:none;fill:red;fill-opacity:1;stroke:none;stroke-width:.03845686;stroke-linecap:butt;stroke-linejoin:miter;stroke-miterlimit:4;stroke-dasharray:none;stroke-dashoffset:0;stroke-opacity:1"/><path d="M74.652 0A54.126 54.126 0 0 0 71.4.069c-.039.863-.017 1.728-.023 2.592h-3.692v25.151H98.45V2.661h-3.692c-.005-.865.015-1.73-.024-2.593-2.161-.123-4.343-.036-6.513-.061l-.02 2.634-1.865.02V.008h-6.538v2.655l-1.865-.02-.02-2.635C76.827.02 75.74.004 74.653 0zm-2.315.93 4.635.02.01 1.855c.002.619.006 1.237.01 1.856h-4.655zm21.46 0V4.66h-4.655l.02-3.711 4.634-.02zM80.74.95h4.653l.01 1.855c.005.619.007 1.237.01 1.856H80.72ZM69.53 8.698h27.074l-.01 8.374-.01 8.374c-9.01 0-18.02.032-27.029-.006-.043-5.58-.019-11.16-.025-16.741zm7.516 6.2c-.137.004-.276.018-.408.006v4.302h.705v-1.04c-.007-.702.02-1.405-.021-2.105l.979 1.822c.13.23.238.473.384.692.141.155.438.154.585.004.249-.437.478-.886.717-1.33.208-.382.405-.778.62-1.153-.021 1.034-.004 2.074-.01 3.11h.706v-4.302h-.325c-.167.019-.363-.053-.505.064-.202.336-.376.692-.564 1.037-.288.56-.61 1.102-.873 1.674-.09.273-.157-.167-.239-.259l-1.058-1.962c-.106-.165-.164-.362-.297-.507a.953.953 0 0 0-.396-.053Zm10.128.004c-.258.001-.516.003-.774.001v4.302h.8v-1.68h.102c.172.012.383-.049.506.106.266.396.524.797.787 1.195.106.139.17.346.368.374.265.012.53.002.796.006l-.832-1.228c-.154-.205-.263-.457-.488-.597.066-.058.295-.119.405-.217.53-.347.679-1.123.36-1.66-.264-.421-.787-.564-1.256-.593a24.66 24.66 0 0 0-.774-.009zm-3.73.001c-.565 1.434-1.13 2.868-1.693 4.302h.408c.165-.002.376.034.464-.148.116-.302.223-.607.336-.91h1.782l.226.617c.07.165.096.408.313.438.223.008.446.001.669.003l-1.69-4.302zm4.228.618c.157.002.314.013.466.057a.61.61 0 0 1 .449.623.687.687 0 0 1-.494.692c-.289.09-.595.047-.893.057v-1.428c.157.005.315-.003.472-.001zm-3.832.148c.023-.021.045.124.07.191.2.576.418 1.147.625 1.72h-1.371l.113-.307c.18-.506.385-1.004.54-1.518.008-.053.016-.079.023-.086zm2.213.633c-.002 0-.003.002-.004.003a.015.015 0 0 0 .005-.003zm-.004.003-.005.005a.017.017 0 0 0 .005-.005zM40.81 30.89a54.16 54.16 0 0 0-3.253.066c-.039.864-.017 1.73-.023 2.593h-3.692V58.7h30.765v-25.15h-3.691c-.005-.865.015-1.73-.024-2.594-2.161-.123-4.343-.035-6.513-.06l-.02 2.634-1.866.02v-2.654h-6.537v2.655l-1.865-.021-.02-2.634c-1.086.013-2.174-.003-3.26-.006zm-2.315.929 4.634.02.01 1.855.01 1.856h-4.654zm21.46 0v3.731H55.3l.02-3.712 4.633-.02zm-13.057.02h4.653l.01 1.855.01 1.856h-4.693zm-11.21 7.748h27.074l-.01 8.374-.01 8.374c-9.01 0-18.02.031-27.029-.006-.044-5.58-.02-11.161-.026-16.742zm9.076 6.229v2.406c-.01.342.045.712-.137 1.02-.135.233-.428.285-.674.258-.156-.049-.428-.073-.405.169.029.135-.13.406.047.436.48.1 1.03.107 1.441-.203.4-.304.531-.833.528-1.313v-2.773zm1.664 0v1.913c.01.374-.03.752.047 1.121.11.56.53 1.044 1.075 1.216.495.153 1.055.14 1.527-.085.561-.26.894-.865.915-1.47.007-.898 0-1.797.003-2.695h-.8v2.036c-.012.354.045.724-.095 1.06-.13.359-.514.575-.887.56-.142 0-.285-.021-.416-.077-.366-.142-.559-.54-.567-.914-.005-.888 0-1.777-.002-2.665zm4.89 0h-.42v4.302h.705v-.988c-.008-.671.018-1.343-.018-2.014l1.705 2.175c.213.257.399.54.632.778.186.088.402.034.602.05v-4.303h-.705v1.062c.009.649-.02 1.298.021 1.946l-2.057-2.627c-.138-.145-.228-.403-.466-.381ZM6.967 61.776a53.342 53.342 0 0 0-3.253.067c-.039.864-.018 1.729-.023 2.593H0v25.151h30.766V64.436h-3.692c-.005-.864.015-1.73-.024-2.593-2.161-.123-4.343-.035-6.513-.06l-.02 2.634-1.865.02v-2.655h-6.539v2.655l-1.865-.02-.02-2.635c-1.085.013-2.173-.002-3.26-.005zm101.527 0a53.326 53.326 0 0 0-3.253.067c-.04.864-.019 1.729-.024 2.593h-3.692v25.151h30.766V64.436H128.6c-.005-.864.016-1.73-.023-2.593-2.162-.123-4.343-.035-6.514-.06l-.02 2.634-1.865.02v-2.655h-6.538v2.655l-1.866-.02-.02-2.635c-1.085.013-2.173-.002-3.26-.005zm-103.842.93 4.634.02.01 1.855.01 1.855H4.653Zm21.46 0v3.73h-4.655l.02-3.71c1.545-.008 3.09-.014 4.634-.02zm80.067 0 4.633.02.01 1.855.01 1.855h-4.653zm21.458 0v3.73h-4.654l.02-3.71c1.545-.008 3.09-.014 4.634-.02zm-114.582.02h4.654l.01 1.855c.002.619.006 1.237.01 1.855h-4.694zm101.526 0h4.654l.01 1.855.01 1.855h-4.693zM1.846 70.473H28.92l-.01 8.374-.01 8.374c-9.01 0-18.02.031-27.029-.006-.044-5.58-.019-11.161-.026-16.742zm101.526 0h27.074l-.01 8.374-.01 8.374c-9.01 0-18.02.031-27.029-.006-.044-5.58-.02-11.161-.026-16.742zm-91.196 6.182c-.52-.028-1.08.214-1.323.694a1.276 1.276 0 0 0-.001 1.133c.173.337.54.496.883.604.312.11.691.148.902.434.158.282.032.703-.284.814-.35.128-.753.06-1.056-.152-.14-.083-.321-.27-.482-.118-.103.13-.177.283-.269.422.154.157.34.28.538.372.532.239 1.186.282 1.708-.007.53-.285.77-.955.623-1.525-.091-.35-.396-.593-.722-.716-.341-.154-.728-.203-1.041-.416-.261-.165-.23-.582.005-.754.316-.21.747-.157 1.062.029.132.096.365.228.46.015l.2-.378c-.321-.303-.767-.445-1.203-.451Zm108.835 0c-.521-.028-1.081.214-1.324.694a1.277 1.277 0 0 0-.001 1.133c.173.337.54.496.884.604.312.11.69.148.902.434.158.282.031.703-.284.814-.35.128-.754.06-1.057-.152-.14-.083-.321-.27-.481-.118-.104.13-.178.283-.27.422.154.157.34.28.539.372.531.239 1.185.282 1.707-.007.53-.285.77-.955.623-1.525-.091-.35-.395-.593-.721-.716-.342-.154-.729-.203-1.042-.416-.26-.166-.23-.582.006-.754.316-.21.747-.157 1.062.029.132.096.364.228.46.015l.199-.378c-.321-.303-.767-.445-1.202-.451zm-102.587.046c-.285 0-.57.004-.853 0v4.303h.8v-1.514c.57-.007 1.178.057 1.683-.267.557-.334.709-1.09.498-1.671-.178-.53-.75-.798-1.276-.836a16.093 16.093 0 0 0-.852-.015zm94.271 0c-.303 0-.607.002-.91 0v4.303h1.456c.494.018 1.005-.062 1.427-.333.616-.377.951-1.108.937-1.818a2.26 2.26 0 0 0-.268-1.105c-.334-.63-1.031-1.007-1.732-1.04a41.824 41.824 0 0 0-.91-.007zm-98.541 0v4.303h2.713v-.64h-1.91V79.15h1.506v-.616h-1.506V77.34h1.91v-.637zm102.152 0v4.303h2.714v-.64h-1.91V79.15h1.505v-.616h-1.506V77.34h1.91v-.637zm-97.822.616c.053.003.112.014.152.004.368.001.81-.041 1.064.282.257.365.173.992-.269 1.177-.336.135-.706.069-1.06.085v-1.513c.014-.035.06-.039.113-.035zm94.817.02c.292.001.584.021.84.18.465.263.652.827.643 1.336 0 .228-.03.457-.107.671-.142.448-.56.78-1.025.829-.353.028-.71.009-1.064.014V77.34h.712z" style="opacity:1;vector-effect:none;fill:#00f;fill-opacity:1;stroke:none;stroke-width:.03845686;stroke-linecap:butt;stroke-linejoin:miter;stroke-miterlimit:4;stroke-dasharray:none;stroke-dashoffset:0;stroke-opacity:1"/></svg>