<svg xmlns="http://www.w3.org/2000/svg" width="425" height="285.811" viewBox="0 0 112.448 75.621"><path d="M84.07 55.994v8.342h8.34v-8.342h-8.34zm5.55 1.64.056.868c-.704-.13-1.947.456-1.926 1.047.702-.224 1.626-.064 2.04.598.505.87.084 2.158-.907 2.46-.747.23-1.706.035-2.1-.699-.404-.74-.373-1.654-.137-2.442.3-1.011 1.28-1.644 2.283-1.776.229-.036.46-.053.69-.055zm-1.458 2.645c-.348-.03-.745.065-.614.479.015.414.136.99.632 1.05.52.098.856-.493.76-.946-.032-.404-.404-.609-.778-.583z" style="opacity:1;vector-effect:none;fill:red;fill-opacity:1;fill-rule:nonzero;stroke:none;stroke-width:.9477163;stroke-linecap:square;stroke-linejoin:miter;stroke-miterlimit:4;stroke-dasharray:none;stroke-dashoffset:0;stroke-opacity:1"/><path d="M82.695 22.855q0 .298-.185.448-.185.15-.42.15-.234 0-.419-.15-.185-.15-.185-.448 0-.299.185-.448.185-.15.42-.15.234 0 .419.15.185.15.185.448zm0 2.879q0 .298-.185.447-.185.15-.42.15-.234 0-.419-.15-.185-.15-.185-.447 0-.299.185-.448.185-.15.42-.15.234 0 .419.15.185.15.185.447zm-2.282-1.884h3.341v.888h-3.34zM94.85 22.855q0 .298-.186.448-.185.15-.419.15-.234 0-.42-.15-.184-.15-.184-.448 0-.299.185-.448.185-.15.42-.15.233 0 .418.15.185.15.185.448zm0 2.879q0 .298-.186.447-.185.15-.419.15-.234 0-.42-.15-.184-.15-.184-.447 0-.299.185-.448.185-.15.42-.15.233 0 .418.15.185.15.185.447zm-2.283-1.884h3.341v.888h-3.34z" style="fill:#000;fill-opacity:1;stroke:none;stroke-width:.11846452" aria-label="÷"/><path d="M11.85 21.418c-.635.706-1.036 1.719-1.579 2.542-3.436 5.928-6.89 11.846-10.27 17.807h23.712l-.001-3.393c-2.27-.22-3.792-2.887-2.828-4.952.335-1.357 2.01-1.81 2.825-2.343l-.001-3.018-2.75-1.584c-1.304 1.837-4.322 1.864-5.658.05-1.033-.984-.661-2.694-.688-3.694-.912-.48-1.786-1.08-2.763-1.415zm2.253 9.183c1.18-.14 2.426.783 2.2 2.055-.245 1.548-1.873 2.232-2.617 3.48h2.824v1.184h-4.379c-.227-1.314.69-2.424 1.64-3.212.59-.502 1.663-1.516.737-2.198-.802-.718-1.7 1.08-2.118.211-.94-.728.307-1.263 1.055-1.446.215-.051.438-.074.658-.074z" style="opacity:1;vector-effect:none;fill:#55d400;fill-opacity:1;fill-rule:nonzero;stroke:none;stroke-width:.9477163;stroke-linecap:square;stroke-linejoin:miter;stroke-miterlimit:4;stroke-dasharray:none;stroke-dashoffset:0;stroke-opacity:1"/><path d="m36.55 21.222-2.963 1.711c.98 2.142-.713 4.867-3.066 4.943-1.289.325-2.417-.924-3.256-1.294l-2.56 1.478v3.21c2.253.244 3.747 2.897 2.79 4.948-.326 1.348-1.993 1.794-2.79 2.34v3.209h23.711c-3.982-6.833-7.92-13.691-11.865-20.545Zm-2.59 9.211c1.16-.12 2.444.773 2.222 2.041-.034.846-1.317 1.084-.157 1.545.954 1.045.277 2.956-1.14 3.16-.884.162-2.489.258-2.92-.437.174-.288.014-1.209.511-.883.846.377 2.748.479 2.535-.912-.275-.79-1.253-.666-1.933-.676v-1.137c.587-.014 1.48.127 1.682-.587.218-.716-.666-1.074-1.232-.889-.694.303-1.152.53-1.347-.338-.517-.684 1.448-.833 1.778-.887z" style="opacity:1;vector-effect:none;fill:#00f;fill-opacity:1;fill-rule:nonzero;stroke:none;stroke-width:.9477163;stroke-linecap:square;stroke-linejoin:miter;stroke-miterlimit:4;stroke-dasharray:none;stroke-dashoffset:0;stroke-opacity:1"/><path d="M16.336 23.853h3.554v.882h-3.554z" style="fill:#000;fill-opacity:1;stroke:none;stroke-width:.11846452" aria-label="–"/><path d="M22.52 34.376h1.186V33.06h.967v1.315h1.187v.888h-1.187v1.315h-.967v-1.315H22.52z" style="fill:#000;fill-opacity:1;stroke:none;stroke-width:.11846452" aria-label="+"/><path d="M28.49 23.853h3.554v.882H28.49z" style="fill:#000;fill-opacity:1;stroke:none;stroke-width:.11846452" aria-label="–"/><path d="M20.098 44.71v8.341h8.342V44.71h-8.342zm4.079 1.651c.607-.017 1.337.194 1.556.824.241.584.03 1.243-.372 1.699-.46.577-1.116.99-1.497 1.628h2.118v.888H22.7c-.065-.532.04-1.094.383-1.52.448-.632 1.145-1.042 1.572-1.688.23-.34.063-.906-.394-.913-.463-.136-.921.385-1.219.432l-.485-.682c.438-.401 1.019-.676 1.62-.668z" style="opacity:1;vector-effect:none;fill:#55d400;fill-opacity:1;fill-rule:nonzero;stroke:none;stroke-width:.9477163;stroke-linecap:square;stroke-linejoin:miter;stroke-miterlimit:4;stroke-dasharray:none;stroke-dashoffset:0;stroke-opacity:1"/><path d="M31.735 48.202h1.814v-2.01h1.478v2.01h1.813v1.358h-1.813v2.01h-1.478v-2.01h-1.814v-1.358z" style="fill:#000;fill-opacity:1;stroke:none;stroke-width:.11846452"/><path d="M40.136 44.71v8.341h8.341V44.71h-8.341zm3.996 1.597c.638-.018 1.393.236 1.601.902.204.533.002 1.21-.527 1.465.58.209.9.864.786 1.458-.05.665-.635 1.15-1.264 1.258-.708.14-1.454.04-2.124-.213l.206-.882c.549.24 1.199.363 1.775.152.486-.195.468-.984-.029-1.153-.344-.138-.722-.102-1.085-.108v-.853c.4-.018.892.087 1.179-.259.227-.294.065-.777-.312-.835-.439-.11-.9.053-1.272.284l-.377-.775c.43-.269.934-.44 1.443-.44z" style="opacity:1;vector-effect:none;fill:#00f;fill-opacity:1;fill-rule:nonzero;stroke:none;stroke-width:.9477163;stroke-linecap:square;stroke-linejoin:miter;stroke-miterlimit:4;stroke-dasharray:none;stroke-dashoffset:0;stroke-opacity:1"/><path d="M.061 44.71v8.341h8.342V44.71H.06zm3.002 1.655h2.665v.888H3.951c-.029.303-.034.608-.071.91.723.043 1.584.254 1.901.984.311.724.049 1.701-.71 2.025-.788.368-1.72.234-2.513-.03l.192-.875c.522.215 1.124.31 1.674.152.504-.146.568-.909.116-1.154-.513-.275-1.117-.264-1.684-.277a39.18 39.18 0 0 0 .207-2.623Z" style="opacity:1;vector-effect:none;fill:red;fill-opacity:1;fill-rule:nonzero;stroke:none;stroke-width:.9477163;stroke-linecap:square;stroke-linejoin:miter;stroke-miterlimit:4;stroke-dasharray:none;stroke-dashoffset:0;stroke-opacity:1"/><path d="M16.803 49.391h-5.105v1.358h5.105zm0-2.378h-5.105v1.357h5.105z" style="fill:#000;fill-opacity:1;stroke:none;stroke-width:.11846452" aria-label="="/><path d="M20.098 55.994v8.342h8.342v-8.342h-8.342zM23.1 57.65h2.666v.888h-1.778c.073.31-.29.969.18.933.695.066 1.496.374 1.705 1.11.222.702-.059 1.575-.765 1.877-.788.367-1.72.233-2.513-.031l.192-.875c.522.215 1.124.31 1.673.152.505-.146.57-.908.117-1.154-.513-.275-1.117-.264-1.683-.277.104-.872.162-1.747.206-2.623z" style="opacity:1;vector-effect:none;fill:red;fill-opacity:1;fill-rule:nonzero;stroke:none;stroke-width:.9477163;stroke-linecap:square;stroke-linejoin:miter;stroke-miterlimit:4;stroke-dasharray:none;stroke-dashoffset:0;stroke-opacity:1"/><path d="M40.136 55.994v8.342h8.341v-8.342h-8.341zm4.078 1.651c.607-.017 1.337.195 1.557.825.24.584.03 1.242-.373 1.698-.46.577-1.116.99-1.497 1.628h2.118v.888h-3.284c-.07-.559.06-1.144.43-1.582.451-.626 1.173-1.02 1.561-1.694.202-.368-.046-.878-.49-.851-.443-.103-.873.405-1.158.438l-.485-.681c.438-.402 1.02-.677 1.62-.669z" style="opacity:1;vector-effect:none;fill:#55d400;fill-opacity:1;fill-rule:nonzero;stroke:none;stroke-width:.9477163;stroke-linecap:square;stroke-linejoin:miter;stroke-miterlimit:4;stroke-dasharray:none;stroke-dashoffset:0;stroke-opacity:1"/><path d="M.061 55.994v8.342h8.342v-8.342H.06zm3.997 1.598c.638-.02 1.393.235 1.601.902.203.532.004 1.209-.528 1.465.582.208.9.863.787 1.457-.05.666-.635 1.15-1.265 1.258-.707.14-1.453.04-2.123-.213l.206-.882c.549.24 1.198.363 1.775.152.486-.195.468-.984-.029-1.152-.343-.138-.722-.103-1.085-.109v-.852c.4-.018.892.086 1.179-.26.227-.293.064-.776-.312-.835-.439-.11-.9.054-1.272.284l-.377-.774a2.75 2.75 0 0 1 1.443-.44Z" style="opacity:1;vector-effect:none;fill:#00f;fill-opacity:1;fill-rule:nonzero;stroke:none;stroke-width:.9477163;stroke-linecap:square;stroke-linejoin:miter;stroke-miterlimit:4;stroke-dasharray:none;stroke-dashoffset:0;stroke-opacity:1"/><path d="M16.803 60.675h-5.105v1.358h5.105zm0-2.378h-5.105v1.358h5.105z" style="fill:#000;fill-opacity:1;stroke:none;stroke-width:.11846452" aria-label="="/><path d="M20.098 67.279v8.341h8.342v-8.341h-8.342zm3.002 1.654h2.666v.888h-1.778c.073.31-.29.97.18.933.695.066 1.496.374 1.705 1.11.222.702-.06 1.575-.765 1.877-.788.368-1.72.233-2.513-.031l.192-.874c.522.215 1.124.308 1.673.152.505-.146.569-.91.117-1.155-.513-.274-1.117-.264-1.683-.277a38.46 38.46 0 0 0 .206-2.623z" style="opacity:1;vector-effect:none;fill:red;fill-opacity:1;fill-rule:nonzero;stroke:none;stroke-width:.9477163;stroke-linecap:square;stroke-linejoin:miter;stroke-miterlimit:4;stroke-dasharray:none;stroke-dashoffset:0;stroke-opacity:1"/><path d="M40.136 67.279v8.341h8.341v-8.341h-8.341zm3.996 1.597c.638-.019 1.393.235 1.601.902.204.532.003 1.21-.527 1.465.581.208.9.864.786 1.457-.05.666-.635 1.151-1.264 1.258-.708.14-1.454.041-2.124-.213l.206-.881c.55.239 1.198.364 1.775.152.486-.196.468-.985-.029-1.153-.343-.14-.722-.103-1.085-.108v-.853c.4-.019.892.087 1.179-.26.227-.293.065-.777-.312-.835-.439-.11-.9.054-1.272.285l-.377-.775c.43-.27.933-.438 1.443-.44z" style="opacity:1;vector-effect:none;fill:#00f;fill-opacity:1;fill-rule:nonzero;stroke:none;stroke-width:.9477163;stroke-linecap:square;stroke-linejoin:miter;stroke-miterlimit:4;stroke-dasharray:none;stroke-dashoffset:0;stroke-opacity:1"/><path d="M.061 67.279v8.341h8.342v-8.341H.06zm4.079 1.65c.607-.017 1.337.195 1.556.825.24.584.03 1.242-.372 1.698-.458.578-1.121.988-1.497 1.628h2.118v.89H2.661c-.06-.533.032-1.097.384-1.522.448-.63 1.145-1.041 1.571-1.688.232-.34.063-.905-.393-.913-.463-.132-.92.384-1.22.432-.16-.227-.322-.454-.484-.681.438-.401 1.018-.676 1.62-.669Z" style="opacity:1;vector-effect:none;fill:#55d400;fill-opacity:1;fill-rule:nonzero;stroke:none;stroke-width:.9477163;stroke-linecap:square;stroke-linejoin:miter;stroke-miterlimit:4;stroke-dasharray:none;stroke-dashoffset:0;stroke-opacity:1"/><path d="M16.803 71.96h-5.105v1.357h5.105zm0-2.38h-5.105v1.359h5.105z" style="fill:#000;fill-opacity:1;stroke:none;stroke-width:.11846452" aria-label="="/><path d="M32.51 71.008h3.555v.882H32.51zM32.51 59.724h3.555v.882H32.51z" style="fill:#000;fill-opacity:1;stroke:none;stroke-width:.11846452" aria-label="–"/><path d="M88.145 0a822.658 822.658 0 0 0-10.94 18.94c-.414.755-1.242 1.733.079 2.009.967.412 1.982 1.767 2.746.404 1.898-1.445 4.966-.339 5.513 1.98.423 1.208-.701 2.596.975 2.956.949.663 1.93 1.216 2.876.247.804-.499 1.995-.756 1.268-1.918-.324-2.439 2.322-4.576 4.637-3.753 1.068.075 1.568 1.835 2.53.808l2.212-1.277C96.21 13.812 92.46 7.18 88.566.635c-.14-.212-.258-.442-.421-.635Zm1.934 11.42c.092.743.196 1.437-.834 1.25-.825-.142-2.68 1.813-.93 1.175 1.367-.165 2.582 1.114 2.24 2.47-.213 1.87-2.897 2.498-4.05 1.103-1.23-1.77-.626-4.726 1.46-5.58.663-.294 1.392-.413 2.114-.419zm-1.943 3.525c-1.504-.355-.805 2.427.38 2.023 1.035-.318.845-2.218-.38-2.023z" style="opacity:1;vector-effect:none;fill:red;fill-opacity:1;fill-rule:nonzero;stroke:none;stroke-width:.9477163;stroke-linecap:square;stroke-linejoin:miter;stroke-miterlimit:4;stroke-dasharray:none;stroke-dashoffset:0;stroke-opacity:1"/><path d="M75.82 21.418c-.635.706-1.035 1.719-1.578 2.542-3.436 5.928-6.89 11.846-10.27 17.807h23.712l-.001-3.393c-2.27-.22-3.792-2.887-2.828-4.952.335-1.357 2.01-1.81 2.825-2.343l-.001-3.018-2.75-1.584c-1.304 1.837-4.322 1.864-5.658.05-1.033-.984-.661-2.694-.688-3.694-.912-.48-1.786-1.08-2.763-1.415zm2.254 9.183c1.18-.14 2.426.783 2.2 2.055-.245 1.548-1.874 2.232-2.617 3.48h2.824v1.184h-4.379c-.227-1.314.69-2.424 1.64-3.212.59-.502 1.662-1.516.737-2.198-.802-.718-1.701 1.08-2.118.211-.94-.728.307-1.263 1.055-1.446.215-.051.438-.074.658-.074z" style="opacity:1;vector-effect:none;fill:#55d400;fill-opacity:1;fill-rule:nonzero;stroke:none;stroke-width:.9477163;stroke-linecap:square;stroke-linejoin:miter;stroke-miterlimit:4;stroke-dasharray:none;stroke-dashoffset:0;stroke-opacity:1"/><path d="m100.522 21.222-2.964 1.711c.98 2.142-.713 4.867-3.066 4.943-1.29.325-2.418-.924-3.256-1.294l-2.56 1.478v3.21c2.253.244 3.747 2.897 2.79 4.948-.326 1.348-1.993 1.794-2.79 2.34v3.209h23.711c-3.982-6.833-7.92-13.691-11.865-20.545zm-2.592 9.211c1.161-.12 2.445.773 2.223 2.041-.034.846-1.317 1.084-.157 1.545.954 1.046.277 2.956-1.14 3.16-.884.162-2.489.258-2.92-.437.174-.288.014-1.209.511-.883.846.377 2.748.479 2.535-.912-.275-.79-1.253-.666-1.933-.676v-1.137c.586-.014 1.48.127 1.682-.587.218-.716-.666-1.074-1.232-.889-.673.302-1.136.569-1.32-.282-.626-.748 1.359-.878 1.751-.943z" style="opacity:1;vector-effect:none;fill:#00f;fill-opacity:1;fill-rule:nonzero;stroke:none;stroke-width:.9477163;stroke-linecap:square;stroke-linejoin:miter;stroke-miterlimit:4;stroke-dasharray:none;stroke-dashoffset:0;stroke-opacity:1"/><path d="M84.07 44.71v8.341h8.34V44.71h-8.34zm4.078 1.651c.607-.018 1.337.195 1.556.824.241.584.03 1.243-.372 1.699-.46.577-1.115.99-1.497 1.628h2.118v.888H86.67c-.07-.559.06-1.144.429-1.582.45-.627 1.172-1.021 1.562-1.695.201-.367-.046-.878-.49-.85-.443-.107-.874.408-1.158.438l-.485-.682c.438-.401 1.018-.676 1.62-.668z" style="opacity:1;vector-effect:none;fill:#55d400;fill-opacity:1;fill-rule:nonzero;stroke:none;stroke-width:.9477163;stroke-linecap:square;stroke-linejoin:miter;stroke-miterlimit:4;stroke-dasharray:none;stroke-dashoffset:0;stroke-opacity:1"/><path d="m99.736 46.453.944.945-1.477 1.477 1.478 1.467-.945.944-1.477-1.476-1.467 1.477-.944-.945 1.477-1.467-1.478-1.477.945-.945 1.467 1.477z" style="fill:#000;fill-opacity:1;stroke:none;stroke-width:.11846452" aria-label="×"/><path d="M104.107 44.71v8.341h8.341V44.71h-8.341zm3.996 1.597c.638-.018 1.393.236 1.601.902.204.533.002 1.21-.528 1.465.581.209.9.864.788 1.458-.052.665-.636 1.15-1.266 1.258-.707.14-1.453.04-2.123-.213l.206-.882c.548.24 1.198.363 1.775.152.487-.195.468-.984-.029-1.153-.344-.138-.722-.102-1.085-.108v-.853c.4-.018.892.087 1.179-.259.227-.294.064-.777-.312-.835-.439-.11-.9.053-1.272.284l-.377-.775c.43-.269.933-.44 1.443-.44z" style="opacity:1;vector-effect:none;fill:#00f;fill-opacity:1;fill-rule:nonzero;stroke:none;stroke-width:.9477163;stroke-linecap:square;stroke-linejoin:miter;stroke-miterlimit:4;stroke-dasharray:none;stroke-dashoffset:0;stroke-opacity:1"/><path d="M64.032 44.71v8.341h8.341V44.71h-8.34zm5.55 1.64.057.868c-.734.007-1.594.207-1.94.927-.22.349.41-.104.561.025.682-.028 1.464.313 1.635 1.03.272.869-.227 1.928-1.138 2.15-.73.183-1.634-.019-2.012-.726-.403-.74-.372-1.655-.136-2.442.328-1.099 1.444-1.728 2.534-1.809a4.95 4.95 0 0 1 .439-.023zm-1.457 2.645c-.392-.049-.758.102-.61.54.015.412.18.98.678.993.564.058.848-.64.675-1.1-.092-.327-.436-.446-.743-.433z" style="opacity:1;vector-effect:none;fill:red;fill-opacity:1;fill-rule:nonzero;stroke:none;stroke-width:.9477163;stroke-linecap:square;stroke-linejoin:miter;stroke-miterlimit:4;stroke-dasharray:none;stroke-dashoffset:0;stroke-opacity:1"/><path d="M80.774 49.391h-5.105v1.358h5.105zm0-2.378h-5.105v1.357h5.105z" style="fill:#000;fill-opacity:1;stroke:none;stroke-width:.11846452" aria-label="="/><path d="M104.107 55.994v8.342h8.341v-8.342h-8.341zm4.078 1.651c.607-.017 1.337.195 1.556.825.24.584.03 1.242-.372 1.698-.46.577-1.116.99-1.497 1.628h2.118v.888h-3.284c-.07-.559.06-1.144.429-1.582.448-.597 1.114-1 1.527-1.626.23-.34.062-.905-.394-.913-.463-.129-.921.377-1.219.432l-.485-.681c.438-.402 1.02-.677 1.62-.669z" style="opacity:1;vector-effect:none;fill:#55d400;fill-opacity:1;fill-rule:nonzero;stroke:none;stroke-width:.9477163;stroke-linecap:square;stroke-linejoin:miter;stroke-miterlimit:4;stroke-dasharray:none;stroke-dashoffset:0;stroke-opacity:1"/><path d="M64.032 55.994v8.342h8.341v-8.342h-8.34zm3.997 1.598c.638-.02 1.393.235 1.601.902.202.532.004 1.209-.528 1.465.582.208.9.863.787 1.457-.05.666-.636 1.15-1.265 1.258-.708.14-1.453.04-2.124-.213.07-.294.138-.588.206-.882.55.24 1.199.363 1.776.152.486-.195.468-.984-.03-1.152-.343-.14-.721-.103-1.084-.109v-.852c.399-.018.892.086 1.179-.26.227-.293.064-.776-.312-.835-.44-.11-.9.054-1.272.284l-.377-.774a2.75 2.75 0 0 1 1.443-.44z" style="opacity:1;vector-effect:none;fill:#00f;fill-opacity:1;fill-rule:nonzero;stroke:none;stroke-width:.9477163;stroke-linecap:square;stroke-linejoin:miter;stroke-miterlimit:4;stroke-dasharray:none;stroke-dashoffset:0;stroke-opacity:1"/><path d="M80.774 60.675h-5.105v1.358h5.105zm0-2.378h-5.105v1.358h5.105z" style="fill:#000;fill-opacity:1;stroke:none;stroke-width:.11846452" aria-label="="/><path d="M84.07 67.279v8.341h8.34v-8.341h-8.34zm5.55 1.64.056.867c-.734.008-1.594.207-1.94.928-.153.303.545-.108.783.032.642.024 1.312.428 1.432 1.097.242.885-.321 1.93-1.25 2.098-.709.142-1.558-.07-1.919-.749-.403-.74-.372-1.654-.136-2.442.346-1.162 1.56-1.781 2.706-1.822.089-.005.178-.008.267-.01zm-1.458 2.644c-.358-.042-.74.071-.614.479.015.414.136.99.632 1.05.52.098.856-.493.76-.946-.032-.404-.404-.608-.778-.583z" style="opacity:1;vector-effect:none;fill:red;fill-opacity:1;fill-rule:nonzero;stroke:none;stroke-width:.9477163;stroke-linecap:square;stroke-linejoin:miter;stroke-miterlimit:4;stroke-dasharray:none;stroke-dashoffset:0;stroke-opacity:1"/><path d="M104.107 67.279v8.341h8.341v-8.341h-8.341zm3.996 1.597c.638-.019 1.393.235 1.601.902.204.532.002 1.21-.528 1.465.582.208.9.863.788 1.457-.052.666-.636 1.151-1.266 1.258-.707.14-1.453.041-2.123-.213l.206-.881c.549.239 1.198.364 1.775.152.486-.196.468-.985-.029-1.153-.344-.14-.722-.103-1.085-.108v-.853c.4-.019.892.087 1.179-.26.227-.293.065-.777-.312-.835-.439-.11-.9.054-1.272.285l-.377-.775c.43-.27.933-.438 1.443-.44z" style="opacity:1;vector-effect:none;fill:#00f;fill-opacity:1;fill-rule:nonzero;stroke:none;stroke-width:.9477163;stroke-linecap:square;stroke-linejoin:miter;stroke-miterlimit:4;stroke-dasharray:none;stroke-dashoffset:0;stroke-opacity:1"/><path d="M64.032 67.279v8.341h8.341v-8.341h-8.34zm4.079 1.65c.607-.017 1.337.195 1.556.825.24.584.03 1.242-.372 1.698-.46.577-1.117.99-1.497 1.628h2.118v.89h-3.284c-.074-.586.07-1.198.476-1.644.447-.596 1.14-.981 1.514-1.634.203-.368-.045-.878-.49-.85-.442-.103-.872.4-1.157.437l-.485-.681c.438-.401 1.018-.676 1.62-.669z" style="opacity:1;vector-effect:none;fill:#55d400;fill-opacity:1;fill-rule:nonzero;stroke:none;stroke-width:.9477163;stroke-linecap:square;stroke-linejoin:miter;stroke-miterlimit:4;stroke-dasharray:none;stroke-dashoffset:0;stroke-opacity:1"/><path d="M80.774 71.96h-5.105v1.357h5.105zm0-2.38h-5.105v1.359h5.105z" style="fill:#000;fill-opacity:1;stroke:none;stroke-width:.11846452" aria-label="="/><path d="M98.626 70.013a.548.548 0 0 1-.356.55c-.325.142-.788-.035-.841-.41-.048-.244.03-.537.269-.653.318-.192.827-.045.91.341a.771.771 0 0 1 .018.172zm0 2.88a.548.548 0 0 1-.356.55c-.325.14-.788-.036-.841-.41-.048-.245.03-.538.269-.654.318-.193.827-.045.91.341a.77.77 0 0 1 .018.172zm-2.282-1.884h3.34v.888h-3.34v-.888zM98.626 58.73a.548.548 0 0 1-.356.549c-.325.142-.788-.036-.841-.41-.048-.245.03-.537.269-.653.318-.193.827-.045.91.341a.77.77 0 0 1 .018.172zm0 2.878a.548.548 0 0 1-.356.55c-.325.14-.788-.036-.841-.41-.048-.245.03-.537.269-.653.318-.194.827-.045.91.341a.771.771 0 0 1 .018.172zm-2.282-1.884h3.34v.889h-3.34v-.889z" style="fill:#000;fill-opacity:1;stroke:none;stroke-width:.11846452"/><path d="m89.124 33.238.618.62-.966.966.966.96-.618.617-.967-.966-.96.967-.618-.619.967-.96-.967-.966.619-.618.96.966z" style="fill:#000;fill-opacity:1;stroke:none;stroke-width:.11846452" aria-label="×"/><path d="M24.174 0a822.655 822.655 0 0 0-10.94 18.94c-.414.755-1.242 1.733.079 2.009.967.412 1.982 1.767 2.746.404 1.898-1.445 4.967-.339 5.513 1.98.423 1.208-.7 2.596.975 2.956.949.663 1.93 1.216 2.876.247.804-.499 1.995-.756 1.269-1.918-.325-2.439 2.321-4.576 4.636-3.753 1.068.075 1.568 1.835 2.53.808l2.212-1.277C32.239 13.812 28.49 7.18 24.595.635c-.14-.212-.258-.442-.421-.635ZM22.71 11.438h3.554c-.09.352.185 1.07-.144 1.185h-2.225c-.246.915-.106 1.383.84 1.349 1.515.163 2.288 2.057 1.403 3.259-.974 1.21-2.787 1.027-4.1.576.19-.33.01-1.34.53-1.062 1.012.664 3.478-.097 2.112-1.44-.911-.632-2.832.206-2.129-1.483.07-.793.12-1.59.159-2.384z" style="opacity:1;vector-effect:none;fill:red;fill-opacity:1;fill-rule:nonzero;stroke:none;stroke-width:.9477163;stroke-linecap:square;stroke-linejoin:miter;stroke-miterlimit:4;stroke-dasharray:none;stroke-dashoffset:0;stroke-opacity:1"/></svg>