<svg xmlns="http://www.w3.org/2000/svg" width="500" height="45.955" viewBox="0 0 132.292 12.159"><path d="M40.379 33.94c-.923.015-1.838.34-2.537 1.023-1.663 1.814-1.867 4.545-1.444 6.873.141 2.415 2.4 4.524 4.87 4.023 2.64-.517 3.658-3.541 3.533-5.933-.014-1.25-.13-2.542-.69-3.68-.633-1.493-2.194-2.332-3.732-2.307zm-7.254.056c-.126.008-.268.031-.428.072-1.71.204-2.25 2.741-3.515 3.828-.76 1.504-2.803 2.56-2.524 4.438 1.45 1.567 4.397-.255 5.54.91.196.788-.493 2.346.429 2.53 2.369.64.44-2.082 1.846-2.713 1.547-.58 1.102-2.287-.537-1.696v-5.699c.177-1.004.073-1.727-.811-1.67zm425.352.002c-1.305-.05-2.056 1.055-1.836 2.49-.348 1.22-1.247 3.937.988 3.563 1.71-.877 4.19.423 3.498 2.521-.561 2.344-3.04 1.62-4.606 1-2.292.687.558 2.562 1.834 2.301 2.596.556 5.17-1.896 4.836-4.5-.093-2.296-2.588-3.566-4.625-3.146-.716-.6-.648-2.788.688-2.323 1.194-.137 3.112.595 3.525-.96.003-.284.002-.567.002-.85h-3.713a2.64 2.64 0 0 0-.591-.096zm9.384 0c-1.305-.05-2.055 1.055-1.836 2.49-.347 1.22-1.246 3.935.989 3.56 1.71-.876 4.19.426 3.498 2.524-.562 2.344-3.042 1.62-4.608 1-2.292.687.56 2.562 1.836 2.301 2.596.556 5.17-1.896 4.836-4.5-.094-2.296-2.588-3.566-4.625-3.146-.717-.6-.648-2.788.688-2.323 1.194-.137 3.112.595 3.525-.96.003-.284.001-.567.002-.85h-3.713a2.64 2.64 0 0 0-.592-.096zm-292.488.02a3.434 3.434 0 0 0-.39.05c-1.654.478-2.325 2.917-3.616 4.12-.651 1.382-3.096 2.724-2.05 4.357 1.45 1.277 4.429-.57 5.285.795.174.779-.414 2.11.38 2.484 2.56.587.24-2.516 2.184-2.963 1.423-.663.498-2.036-.824-1.496v-5.928c.292-1.087-.116-1.477-.969-1.42zm6.092.007c-.625.022-1.115.23-1.115 1.067.185 1.57-1.734 4.169.168 4.955 1.651-.472 4.362-.434 4.216 1.974-.02 2.313-2.716 2.714-4.263 1.563-2.512-.137-.68 2.552.966 2.209 2.216.628 4.693-.82 5.19-3.072.67-2.208-1.16-4.688-3.5-4.56-1.659 1.056-2.094-2.663-.512-2.272 1.253-.15 3.228.629 3.692-.963v-.848h-2.914c-.542.091-1.303-.074-1.928-.053zM40.348 35.656c1.824-.211 2.644 2.655 2.39 4.27-.025.964-.028 1.954-.396 2.863-.625 2.367-3.988 1.435-3.881-.832-.217-1.982-.577-4.514 1.043-6.01.301-.168.583-.26.844-.29zm134.021 1.35c.13-.009.217.14.233.533v3.826h-3.559l1.803-2.49c.36-.412 1.133-1.844 1.523-1.87zm-142.459.027c.143-.026.248.112.287.506v3.826H28.64l1.66-2.293c.405-.421 1.182-1.962 1.611-2.039z" style="fill:#00f;fill-opacity:1;stroke:none;stroke-width:.49753615" transform="matrix(.26458 0 0 .26458 0 0)"/><path d="M87.456 10.568c.031.629-.23 1.424-.924 1.567-.643.138-1.246-.398-1.293-1.03-.119-.61-.07-1.32.34-1.815.467-.505 1.376-.362 1.67.26.167.31.202.67.207 1.018zm-.546 0c.077-.489-.218-1.41-.856-1.053-.43.4-.336 1.078-.273 1.606-.017.606.884.816 1.031.189.089-.237.092-.493.098-.742zm-2.175-1.323c-.122.42-.644.215-.975.255-.42-.105-.307.88.134.6.619-.033 1.103.623.926 1.207-.132.596-.787.979-1.373.813-.438.091-.92-.624-.253-.584.406.3 1.108.201 1.125-.402.054-.602-.63-.691-1.06-.53-.576-.152-.072-.993-.061-1.418.004-.284.34-.124.525-.166h1.012v.225z" style="shape-padding:0;vector-effect:none;fill:green;fill-opacity:1;stroke:none;stroke-width:.13164011;stroke-linecap:butt;stroke-linejoin:miter;stroke-miterlimit:4;stroke-dasharray:none;stroke-dashoffset:0;stroke-opacity:1"/><path d="M9.44 1.169v6.465M47.215 1.169v6.465M84.989 1.169v6.465M122.763 1.169v6.465M1.243 1.498h129.806" style="fill:none;stroke:#000;stroke-width:.65820056;stroke-linecap:butt;stroke-linejoin:miter;stroke-miterlimit:4;stroke-dasharray:none;stroke-opacity:1"/><path d="m0 1.498 3.876 1.498V0ZM132.292 1.498l-3.876 1.498V0Z" style="opacity:1;vector-effect:none;fill:#000;fill-opacity:1;stroke:none;stroke-width:.26328027;stroke-linecap:butt;stroke-linejoin:miter;stroke-miterlimit:4;stroke-dasharray:none;stroke-dashoffset:0;stroke-opacity:1"/><path d="M50.992 1.169V4.4M54.77 1.169V4.4M58.547 1.169V4.4M62.324 1.169V4.4M66.102 1.169V4.4M69.88 1.169V4.4M73.657 1.169V4.4M77.434 1.169V4.4M81.212 1.169V4.4" style="fill:none;stroke:#000;stroke-width:.65820056;stroke-linecap:butt;stroke-linejoin:miter;stroke-miterlimit:4;stroke-dasharray:none;stroke-opacity:1"/><path d="M78.75 9.516c-.642.091-1.298-.597-1.033-1.227.246-.23.541-.515.124-.76-.302-.62.374-1.31 1.01-1.177.554-.003 1.155.687.76 1.189-.482.412.396.642.22 1.148-.051.534-.572.866-1.08.827zm0-.413c.695.082.7-1.129-.017-1.032-.593-.007-.717.91-.126 1.028l.07.008zm0-1.43c.746.036.466-1.273-.218-.884-.397.216-.278.934.218.885zm-1.74.643c.476-.166.52.33.114.467-.256.244.055.967-.574.66v-.716c-.45-.12-1.407.308-1.471-.362.182-.456.596-.779.847-1.2.289-.242.39-.863.841-.78.397-.114.198.367.243.604v1.327zm-.46-1.013c-.032-.42-.35.24-.488.386l-.453.627h.941V7.303z" style="fill:red;fill-opacity:1;stroke:none;stroke-width:.13164011"/></svg>