<svg xmlns="http://www.w3.org/2000/svg" width="500" height="45.919" viewBox="0 0 132.292 12.149"><path d="M316.982 33.916a2.526 2.526 0 0 0-.437.031 3.925 3.925 0 0 0-2.024.463c-1.617.209-2.636 3.848-.367 2.93.714-1.689 3.483-2.654 3.967-.285.724 2.146-2.853 1.267-2.424 3.12 1.472.186 3.613 1.52 2.233 3.274-1.21 1.677-3.355.405-4.07-1.013-2.59-.293-1.048 2.746.492 3.07 2.255 1.126 5.652.007 5.949-2.744.928-1.948-2.83-2.713-.72-4.17 1.528-1.855-.421-4.643-2.599-4.676zm-285.29.012a2.91 2.91 0 0 0-.45.02 3.76 3.76 0 0 0-1.931.413c-1.502.265-2.957 3.69-.483 2.996.967-.891 2.05-2.743 3.526-1.203 1.51 1.97-.957 4.138-2.284 5.463-1.01 1.34-3.175 2.223-3.017 4.156 1.564.02 3.13-.013 4.695-.007 1.166-.04 4.16.59 3.127-1.471-1.3-1.15-3.224.057-4.66-.389 1.355-1.803 3.515-3.052 4.379-5.236 1.095-2.065-.687-4.667-2.903-4.742zm436.949.025c-.923.015-1.838.342-2.537 1.026-1.663 1.815-1.867 4.547-1.444 6.875.141 2.415 2.4 4.521 4.87 4.021 2.64-.517 3.658-3.542 3.533-5.934-.015-1.25-.13-2.542-.69-3.68-.633-1.492-2.195-2.333-3.732-2.308zm-7.252.059a2.314 2.314 0 0 0-.428.074c-1.71.204-2.25 2.739-3.516 3.826-.759 1.504-2.802 2.559-2.523 4.438 1.45 1.566 4.397-.256 5.539.91.197.787-.493 2.345.43 2.53 2.369.639.436-2.084 1.843-2.714 1.548-.58 1.103-2.286-.537-1.695.004-1.9.002-3.8.002-5.7.178-1.004.074-1.726-.81-1.67zm-136.166.02c-1.19-.056-2.489.276-2.127 1.835.007 1.313-1.59 3.828.437 4.194 1.596-.527 4.153-.374 4.051 1.9.02 2.307-2.686 2.796-4.25 1.639-2.75-.106-.388 2.676 1.28 2.244 2.286.525 4.662-1.245 4.933-3.545.474-2.332-1.844-4.611-4.16-4.069-1.292.287-1.22-2.835.113-2.341 1.24-.146 3.198.62 3.648-.963v-.85h-3.427a5.905 5.905 0 0 0-.498-.045zm-287.096.044-.488 2.86c-.136 1.132-1.06 3.283.882 3.105 1.666-.72 4.239.041 3.782 2.268-.314 2.327-2.911 2.152-4.453 1.246-2.387.203-.196 2.516 1.232 2.246 2.161.578 4.567-.797 5.111-2.973.749-2.233-1.101-4.82-3.496-4.668-1.674 1.024-2.04-2.699-.449-2.271 1.242-.147 3.202.621 3.654-.963v-.85h-5.775zm430.482 1.596c1.824-.212 2.64 2.656 2.391 4.27-.023.962-.027 1.954-.395 2.863-.624 2.367-3.988 1.436-3.882-.83-.218-1.982-.577-4.517 1.043-6.012.301-.169.583-.26.843-.291zm-8.361 1.371c.104.036.179.19.211.512v3.826h-2.207c-1.888.425-.56-1.338.184-2.072.368-.357 1.36-2.423 1.812-2.266z" style="fill:#00f;fill-opacity:1;stroke:none;stroke-width:.49753618" transform="matrix(.26458 0 0 .26458 0 0)"/><path d="M49.7 10.568c.033.63-.232 1.429-.929 1.569-.652.135-1.253-.418-1.292-1.057-.114-.616-.059-1.333.372-1.819.492-.49 1.403-.299 1.67.338.144.3.174.64.18.969zm-.545 0c.077-.489-.218-1.41-.856-1.053-.429.398-.334 1.07-.274 1.596-.026.602.87.836 1.028.208.094-.239.095-.498.102-.751zm-3.027-1.582c.623-.102 1.24.717.798 1.237-.538.373.457.602.194 1.116-.109.772-1.11 1.033-1.7.635-.465-.13-.498-.995.08-.678.15.499.964.569 1.09.018.18-.562-.578-.487-.726-.792.274-.258 1.013-.433.557-.957-.438-.481-.726.259-1.095.38-.533-.261.16-.92.557-.94a.9.9 0 0 1 .245-.019z" style="shape-padding:0;vector-effect:none;fill:green;fill-opacity:1;stroke:none;stroke-width:.13164011;stroke-linecap:butt;stroke-linejoin:miter;stroke-miterlimit:4;stroke-dasharray:none;stroke-dashoffset:0;stroke-opacity:1"/><path d="M9.44 1.169v6.465M47.215 1.169v6.465M84.989 1.169v6.465M122.763 1.169v6.465M1.243 1.498h129.806" style="fill:none;stroke:#000;stroke-width:.65820056;stroke-linecap:butt;stroke-linejoin:miter;stroke-miterlimit:4;stroke-dasharray:none;stroke-opacity:1"/><path d="m-167.408 524.439-25.414 14.673v-29.346z" style="opacity:1;vector-effect:none;fill:#000;fill-opacity:1;stroke:none;stroke-width:2.11016917;stroke-linecap:butt;stroke-linejoin:miter;stroke-miterlimit:4;stroke-dasharray:none;stroke-dashoffset:0;stroke-opacity:1" transform="matrix(-.1525 0 0 .10208 -25.53 -52.036)"/><path d="m-167.408 524.439-25.414 14.673v-29.346z" style="opacity:1;vector-effect:none;fill:#000;fill-opacity:1;stroke:none;stroke-width:2.11016917;stroke-linecap:butt;stroke-linejoin:miter;stroke-miterlimit:4;stroke-dasharray:none;stroke-dashoffset:0;stroke-opacity:1" transform="matrix(.1525 0 0 .10208 157.822 -52.036)"/><path d="M50.992 1.169V4.4M54.77 1.169V4.4M58.547 1.169V4.4M62.324 1.169V4.4M66.102 1.169V4.4M69.88 1.169V4.4M73.657 1.169V4.4M77.434 1.169V4.4M81.212 1.169V4.4" style="fill:none;stroke:#000;stroke-width:.65820056;stroke-linecap:butt;stroke-linejoin:miter;stroke-miterlimit:4;stroke-dasharray:none;stroke-opacity:1"/><path d="M56.069 6.353c.658-.082 1.215.709.868 1.292-.24.565-.814.883-1.152 1.365.392.019.845-.13 1.23.055.33.49-.48.476-.783.404-.423.023-.848.01-1.272.013-.041-.512.531-.745.799-1.1.35-.35 1.004-.924.603-1.445-.475-.484-.682.267-1.08.365-.557-.158.098-.888.468-.914a.946.946 0 0 1 .319-.035zm-2.468 0c.621-.097 1.23.704.806 1.232-.582.366.419.564.191 1.07-.056.734-.954 1.06-1.56.764-.35-.071-.848-.826-.226-.825.322.221.678.755 1.12.327.376-.375-.012-.856-.456-.862-.46-.462.78-.319.558-.886-.161-.594-.865-.377-1.033.069-.679.259-.348-.685.071-.77a.984.984 0 0 1 .529-.119z" style="fill:red;fill-opacity:1;stroke:none;stroke-width:.13164011"/></svg>