<svg xmlns="http://www.w3.org/2000/svg" width="500" height="87.643" viewBox="0 0 132.292 23.189"><path d="M160.453 63.307c-.553-.053-1.167.346-1.078 1.021.053 1.153 1.936 1.012 1.889-.1l-.012-.154-.037-.148a.85.85 0 0 0-.762-.62zm214.074 0c-.552-.053-1.169.346-1.08 1.021.053 1.153 1.936 1.012 1.889-.1l-.01-.154-.037-.148a.85.85 0 0 0-.762-.62zm-245.181.086c-1.171-.022-2.283.755-2.725 1.847-.584 1.598-.639 3.434-.035 5.035.46 1.601 2.438 2.403 3.922 1.733 1.568-.714 2.02-2.61 1.992-4.184a7.55 7.55 0 0 0-.188-1.752c-.226-1.256-1.16-2.412-2.462-2.62a2.55 2.55 0 0 0-.504-.06zm214.074 0c-1.17-.022-2.282.755-2.725 1.847-.584 1.598-.639 3.434-.035 5.035.46 1.601 2.438 2.403 3.922 1.733 1.568-.714 2.02-2.61 1.992-4.184a7.55 7.55 0 0 0-.187-1.752c-.227-1.256-1.16-2.412-2.463-2.62a2.55 2.55 0 0 0-.504-.06zm-220.887.02a3.015 3.015 0 0 0-1.842.55c-.533.431-1.175 1.168-.994 1.869.941.833 1.452-.458 2.04-.992.936-.686 2.317.323 1.927 1.431-.054 1.183-1.677.427-1.83 1.319-.161 1.24 1.556.285 1.871 1.338.534.959-.364 2.18-1.43 2.078-1.192.205-1.28-1.868-2.496-1.281-.859.524.26 1.714.86 2.091 1.323.74 3.278.558 4.207-.726.822-1.061.588-2.893-.756-3.41-.003-.352 1.349-1.15 1.068-2.037.01-1.348-1.35-2.326-2.625-2.23zm214.074 0a3.014 3.014 0 0 0-1.841.55c-.534.431-1.176 1.168-.995 1.869.941.833 1.452-.458 2.04-.992.936-.686 2.317.323 1.927 1.431-.054 1.183-1.679.427-1.832 1.319-.161 1.24 1.556.285 1.871 1.338.535.959-.362 2.18-1.427 2.078-1.192.205-1.28-1.868-2.496-1.281-.86.524.26 1.714.859 2.091 1.323.74 3.278.558 4.207-.726.822-1.061.586-2.893-.758-3.41-.003-.352 1.35-1.15 1.07-2.037.01-1.348-1.35-2.326-2.625-2.23zm-172.662.657c-.142.002-.306.066-.482.211-.518.597.045 1.94-1.084 1.893-.888.122-.075 1.361.572.945.007 1.092-.012 2.185.008 3.277-.167.961.644 1.96 1.646 1.84.505-.025 1.566-.094 1.485-.816-.202-.99-1.426.074-1.65-.772-.032-1.176-.006-2.352-.014-3.529h1.637v-1.05h-1.637v-.926c.183-.534-.053-1.079-.48-1.073zm214.075 0c-.143.002-.308.066-.485.211-.517.597.047 1.94-1.082 1.893-.887.122-.075 1.361.572.945.007 1.092-.011 2.185.008 3.277-.167.961.645 1.96 1.647 1.84.504-.025 1.565-.094 1.484-.816-.202-.99-1.424.073-1.648-.772-.034-1.176-.008-2.352-.016-3.529h1.637v-1.05H378.5v-.926c.183-.534-.053-1.079-.48-1.073zm-248.834.57a1.38 1.38 0 0 1 .392.01c1.316.377 1.384 2.037 1.399 3.174-.014.856-.057 1.77-.498 2.526-.574 1.063-2.185.736-2.493-.37a8.128 8.128 0 0 1-.203-3.449c.059-.828.544-1.787 1.403-1.89zm214.074 0c.122-.014.253-.013.39.01 1.316.377 1.386 2.037 1.4 3.174-.012.856-.056 1.77-.497 2.526-.574 1.063-2.185.736-2.492-.37a8.128 8.128 0 0 1-.204-3.449c.06-.828.544-1.787 1.403-1.89zm-200.381 1.262a2.06 2.06 0 0 0-.404.047c-.743-.105-1.17.972-1.64.889-.463-1.246-2.292-1.128-2.987-.156-.085-.675-.89-.76-1.428-.668v6.127h1.475c-.004-1.312.006-2.625-.006-3.936-.232-1.1 1.572-1.595 2.004-.611.198 1.499.04 3.034.091 4.547h1.48c.013-1.345-.016-2.692.01-4.034-.05-1.089 1.618-1.46 2.005-.443.152 1.481.03 2.986.07 4.477h1.209c.455.133.202-.443.265-.702-.036-1.312.098-2.633-.087-3.935-.12-1.004-1.104-1.62-2.057-1.602zm214.074 0a2.06 2.06 0 0 0-.404.047c-.742-.105-1.17.972-1.639.889-.464-1.246-2.292-1.128-2.988-.156-.085-.675-.89-.76-1.428-.668v6.127h1.475c-.004-1.312.006-2.625-.006-3.936-.232-1.1 1.572-1.595 2.004-.611.199 1.499.04 3.034.092 4.547h1.48c.012-1.345-.017-2.692.01-4.034-.051-1.089 1.617-1.46 2.004-.443.152 1.481.029 2.986.068 4.477h1.21c.454.133.2-.443.265-.702-.036-1.312.099-2.633-.086-3.935-.12-1.004-1.104-1.62-2.057-1.602zm-200.795.006c-.125-.006-.25 0-.375.018-.647-.022-1.094.498-1.603.713-.05-.759-.842-.645-1.389-.625v6.127h1.475v-3.832c-.068-.445.103-.91.582-1.038.574-.376 1.525-.272 1.75.46.121 1.463.026 2.94.056 4.41h1.475v-1.635c-.041-1.017.104-2.049-.1-3.053-.142-.905-.994-1.504-1.87-1.545zm214.074 0c-.125-.006-.25 0-.375.018-.647-.022-1.094.498-1.603.713-.05-.759-.841-.645-1.389-.625v6.127h1.475v-3.832c-.068-.445.102-.91.58-1.038.575-.376 1.527-.272 1.752.46.121 1.463.026 2.94.057 4.41h1.474v-1.635c-.04-1.017.104-2.049-.1-3.053-.142-.905-.994-1.504-1.87-1.545zm-221.199.012c-.558-.007-1.122.115-1.594.424-1.445.883-1.687 2.93-.966 4.357.626 1.348 2.32 1.79 3.666 1.408.501-.213 1.575-.388 1.312-1.144-.516-.91-1.462.244-2.209.146-1 .054-1.708-.915-1.683-1.85 1.03-.002 2.06.006 3.091-.001.816.309 1.29-.452 1.002-1.184-.146-1.26-1.364-2.236-2.619-2.156zm214.074 0c-.558-.007-1.122.115-1.593.424-1.446.883-1.688 2.93-.967 4.357.626 1.348 2.32 1.79 3.666 1.408.501-.213 1.573-.388 1.31-1.144-.516-.91-1.46.244-2.207.146-1 .054-1.708-.915-1.683-1.85 1.03-.002 2.061.006 3.092-.001.815.309 1.29-.452 1.002-1.184-.147-1.26-1.365-2.236-2.62-2.156zm-203.527.094v6.127h1.48v-6.127h-1.48zm214.072 0v6.127h1.483v-6.127h-1.483zm-224.867.95a.66.66 0 0 1 .278.013c.757-.074 1.364.676 1.308 1.396-.838.008-1.68-.017-2.516.014-.59-.361.25-1.316.93-1.422zm214.074 0a.66.66 0 0 1 .278.013c.757-.074 1.364.676 1.308 1.396-.838.008-1.679-.017-2.515.014-.591-.361.248-1.316.93-1.422zM31.545 72.747c-.566.02-1.12.368-1.223 1.022-.43 1.763 2.611 1.958 2.545.23l-.008-.162-.029-.158c-.142-.648-.719-.953-1.285-.932zm428.262.016c-.567.02-1.121.367-1.223 1.021-.43 1.764 2.612 1.96 2.545.23l-.008-.161-.03-.159c-.141-.647-.718-.952-1.284-.931zm-438.868.101c-1.586-.029-3.094 1.024-3.693 2.504-.792 2.164-.863 4.653-.045 6.822.622 2.169 3.302 3.254 5.313 2.346 2.124-.966 2.734-3.535 2.697-5.668-.002-.796-.064-1.595-.252-2.37-.307-1.703-1.573-3.27-3.338-3.554a3.445 3.445 0 0 0-.682-.08zm428.36.043c-.765.001-1.556.154-2.219.55-.829.5-2.604 2.497-1.055 3.036 1.586.441 1.342-1.924 2.85-1.885 1.667-.396 2.512 1.666 1.756 2.938-.837 1.615-2.303 2.781-3.55 4.07-.797.909-2.245 1.706-1.972 3.115h6.807c1.1.325 1.583-.396 1.133-1.457-1.087-.881-2.907-.23-4.27-.341-1.631.554.173-.723.588-1.27 1.432-1.546 3.457-3.017 3.578-5.314.191-1.976-1.755-3.593-3.646-3.442zM20.723 74.555c.166-.02.342-.018.529.013 1.782.51 1.877 2.759 1.896 4.3-.018 1.158-.075 2.396-.673 3.421-.777 1.44-2.963.998-3.38-.5-.431-1.505-.51-3.125-.273-4.674.08-1.122.737-2.42 1.9-2.56zM37.54 76.26c-.408.02-.812.094-1.182.215-.644.312-2.273.656-1.672 1.636.715 1.049 1.764-.21 2.641-.287 1.236-.258 1.919 1.08 1.686 2.135-1.27.044-2.594.156-3.723.789-1.267.502-1.639 2.263-.8 3.295 1.017 1.121 2.846.977 4.036.213.66-1.148.806.56 1.53.459h.906c-.002-.992 0-1.983 0-2.975-.081-1.312.235-2.713-.375-3.937-.552-1.164-1.822-1.601-3.047-1.543zm14.053.004a2.783 2.783 0 0 0-.547.064c-1.006-.142-1.583 1.316-2.219 1.203-.628-1.688-3.106-1.527-4.049-.21-.115-.916-1.206-1.03-1.935-.905v8.299h1.998c-.005-1.777.009-3.555-.008-5.33-.314-1.491 2.13-2.161 2.715-.828.27 2.03.054 4.108.123 6.158h2.006c.016-1.821-.023-3.646.013-5.463-.069-1.476 2.191-1.977 2.715-.6.207 2.007.043 4.044.096 6.063h1.709c.555.119.18-.695.289-1.022-.049-1.753.132-3.52-.12-5.26-.161-1.359-1.495-2.194-2.786-2.17zm414.275.007c-.412.014-.82.083-1.193.204-.67.335-2.118.524-1.766 1.564.627 1.179 1.801-.083 2.664-.201 1.24-.261 1.934 1.074 1.7 2.137-1.253.04-2.554.156-3.676.761-1.209.466-1.674 2.089-.971 3.153.952 1.31 2.955 1.196 4.184.353.739-1.115.747.686 1.507.488h.903c0-.97.003-1.94.004-2.912-.08-1.303.223-2.682-.332-3.912-.516-1.196-1.789-1.674-3.024-1.635zm13.986.008a2.783 2.783 0 0 0-.546.065c-1.006-.143-1.583 1.316-2.22 1.203-.628-1.688-3.105-1.527-4.048-.211-.115-.915-1.206-1.03-1.936-.904v8.298h1.999c-.005-1.776.009-3.554-.006-5.33-.314-1.49 2.13-2.16 2.714-.828.27 2.03.054 4.109.122 6.158h2.005c.018-1.82-.022-3.643.016-5.46-.069-1.476 2.191-1.98 2.715-.602.205 2.007.04 4.044.094 6.062h1.636c.617.18.275-.599.362-.949-.049-1.778.132-3.568-.12-5.332-.162-1.36-1.495-2.194-2.787-2.17zm-449.27.137c0 1.91.003 3.82 0 5.73-.162 1.24.35 2.655-.302 3.778-.873.027-2.015.844-.994 1.678 1.276.323 2.958-.38 3.234-1.8.152-3.122.029-6.258.069-9.386h-2.006zm428.265.016c-.002 1.91.002 3.822 0 5.732-.164 1.24.346 2.653-.305 3.775-.874.027-2.014.845-.992 1.678 1.275.323 2.958-.377 3.234-1.797.15-3.123.027-6.26.067-9.388h-2.004zm-420.588 4.75c.336-.012.625.078.787.373.242 1.173-.889 1.991-1.977 1.914l-.154.01c-1.036.061-1.354-1.519-.352-1.846.447-.128 1.136-.432 1.696-.451zm428.263.015c.336-.011.624.08.786.375.24 1.174-.889 1.992-1.977 1.914l-.154.008c-1.037.061-1.355-1.518-.352-1.846.447-.128 1.137-.432 1.697-.45z" style="fill:#00f;fill-opacity:1;stroke:none;stroke-width:.49753618" transform="matrix(.26458 0 0 .26458 0 0)"/><path d="M245.482 72.762c-.566.02-1.12.365-1.222 1.02-.43 1.763 2.61 1.96 2.545.232l-.008-.162-.03-.159c-.141-.647-.718-.952-1.285-.931zm-10.685.256-2.498 2.125c-.556.419-1.414 1.089-.502 1.71 1.038.816 1.787-.832 2.652-1.218-.015 2.533-.005 5.066-.008 7.6h-2.37v1.495h6.47v-1.496h-2.102V73.018h-1.642zm16.68 3.257c-.409.02-.81.095-1.18.215-.645.313-2.273.655-1.672 1.635.715 1.049 1.763-.207 2.64-.285 1.237-.259 1.917 1.08 1.684 2.135-1.269.043-2.591.154-3.72.787-1.268.501-1.64 2.265-.801 3.297 1.017 1.121 2.847.975 4.037.21.659-1.147.806.562 1.53.461h.905c-.002-.991 0-1.984 0-2.976-.08-1.312.236-2.712-.375-3.936-.552-1.163-1.824-1.6-3.048-1.543zm14.054.004a2.78 2.78 0 0 0-.547.063c-1.005-.143-1.582 1.318-2.218 1.205-.629-1.688-3.107-1.529-4.05-.213-.114-.915-1.205-1.027-1.935-.902v8.298h1.998c-.005-1.776.01-3.554-.008-5.33-.313-1.49 2.13-2.163 2.715-.83.27 2.03.055 4.11.123 6.16h2.006c.016-1.82-.022-3.645.014-5.462-.07-1.476 2.19-1.98 2.715-.602.207 2.007.042 4.046.095 6.064h1.71c.555.12.177-.694.287-1.021-.05-1.754.133-3.52-.118-5.26-.162-1.36-1.495-2.194-2.787-2.17zm-21.008.153c0 1.91.002 3.82 0 5.73-.163 1.24.35 2.655-.302 3.777-.874.027-2.016.843-.994 1.676 1.275.324 2.958-.377 3.234-1.797.151-3.123.028-6.258.068-9.386h-2.006zm7.676 4.763c.336-.011.626.08.787.375.243 1.174-.888 1.992-1.976 1.914l-.155.01c-1.036.062-1.356-1.518-.353-1.846.447-.128 1.137-.434 1.697-.453z" style="shape-padding:0;vector-effect:none;fill:green;fill-opacity:1;stroke:none;stroke-width:.49753618;stroke-linecap:butt;stroke-linejoin:miter;stroke-miterlimit:4;stroke-dasharray:none;stroke-dashoffset:0;stroke-opacity:1" transform="matrix(.26458 0 0 .26458 0 0)"/><path d="M9.44 11.472v6.465M66.102 11.472v6.465M122.763 11.472v6.465M1.243 11.801h129.806" style="fill:none;stroke:#000;stroke-width:.6582005;stroke-linecap:butt;stroke-linejoin:miter;stroke-miterlimit:4;stroke-dasharray:none;stroke-opacity:1"/><path d="m-167.408 524.439-25.414 14.673v-29.346z" style="opacity:1;vector-effect:none;fill:#000;fill-opacity:1;stroke:none;stroke-width:2.11016917;stroke-linecap:butt;stroke-linejoin:miter;stroke-miterlimit:4;stroke-dasharray:none;stroke-dashoffset:0;stroke-opacity:1" transform="matrix(-.1525 0 0 .10208 -25.53 -41.733)"/><path d="m-167.408 524.439-25.414 14.673v-29.346z" style="opacity:1;vector-effect:none;fill:#000;fill-opacity:1;stroke:none;stroke-width:2.11016917;stroke-linecap:butt;stroke-linejoin:miter;stroke-miterlimit:4;stroke-dasharray:none;stroke-dashoffset:0;stroke-opacity:1" transform="matrix(.1525 0 0 .10208 157.822 -41.733)"/><path d="M56.658 11.472v3.233" style="fill:none;stroke:#000;stroke-width:.6582005;stroke-linecap:butt;stroke-linejoin:miter;stroke-miterlimit:4;stroke-dasharray:none;stroke-opacity:1"/><path d="M280.885.025c-.566.021-1.121.368-1.223 1.022-.43 1.764 2.611 1.958 2.545.23l-.008-.162-.03-.158c-.141-.647-.718-.952-1.284-.932zm-10.686.258-2.508 2.133c-.703.406-1.327 1.246-.355 1.799 1.009.575 1.674-.957 2.516-1.315-.016 2.533-.005 5.065-.008 7.598h-2.371v1.498h6.47v-1.498h-2.101V.283h-1.643zm16.748 3.252c-.412.013-.82.085-1.193.205-.67.336-2.115.525-1.764 1.565.626 1.178 1.801-.085 2.664-.203 1.24-.262 1.934 1.074 1.698 2.136-1.27.044-2.592.156-3.721.79-1.267.501-1.639 2.262-.8 3.294 1.017 1.122 2.846.977 4.036.213.659-1.147.806.562 1.53.461h.906c-.003-.971 0-1.943 0-2.914-.081-1.304.224-2.682-.332-3.912-.515-1.196-1.788-1.674-3.024-1.635zm13.987.008a2.783 2.783 0 0 0-.547.064c-1.006-.142-1.583 1.317-2.219 1.204-.628-1.688-3.106-1.527-4.049-.211-.115-.915-1.206-1.028-1.935-.903v8.3h1.998c-.005-1.778.009-3.556-.008-5.331-.314-1.49 2.13-2.163 2.715-.83.269 2.03.054 4.11.123 6.16h2.006c.016-1.821-.023-3.645.013-5.463-.069-1.475 2.191-1.979 2.715-.601.207 2.006.043 4.045.096 6.064h1.709c.555.119.178-.694.287-1.021-.049-1.754.133-3.523-.117-5.262-.163-1.36-1.496-2.195-2.787-2.17zm-21.008.154c-.001 1.91.002 3.82 0 5.73-.163 1.24.346 2.653-.305 3.776-.873.027-2.013.845-.992 1.678 1.275.323 2.958-.378 3.234-1.797.152-3.123.029-6.259.069-9.387h-2.006zm7.676 4.764c.336-.011.625.08.787.375.242 1.174-.889 1.992-1.977 1.914l-.154.01c-1.037.061-1.356-1.52-.354-1.848.447-.128 1.138-.432 1.698-.451zm15.408 14.922c-.553-.053-1.17.346-1.08 1.021.052 1.153 1.936 1.012 1.888-.1l-.01-.154-.038-.148a.848.848 0 0 0-.76-.62zm-31.108.086c-1.17-.022-2.284.755-2.726 1.847-.585 1.598-.637 3.434-.033 5.036.459 1.6 2.438 2.402 3.921 1.732 1.568-.713 2.018-2.61 1.99-4.184a7.546 7.546 0 0 0-.185-1.752c-.226-1.256-1.16-2.412-2.463-2.62a2.55 2.55 0 0 0-.504-.06zm-6.986.101-1.844 1.569c-.41.309-1.044.804-.37 1.263.766.602 1.32-.615 1.958-.9-.01 1.87-.004 3.74-.006 5.61h-1.75v1.105h4.778V31.11h-1.553v-7.54h-1.213zm41.584.576c-.143.003-.306.066-.482.211-.518.597.047 1.94-1.082 1.893-.888.122-.075 1.361.572.945.007 1.093-.014 2.186.006 3.278-.167.96.644 1.959 1.646 1.84.504-.027 1.565-.095 1.485-.817-.203-.99-1.424.074-1.649-.771-.031-1.177-.005-2.353-.014-3.53h1.635v-1.05h-1.635v-.926c.184-.534-.054-1.079-.482-1.073zm-34.758.57c.123-.014.253-.012.39.01 1.316.377 1.387 2.037 1.401 3.174-.013.856-.056 1.77-.498 2.526-.573 1.063-2.187.736-2.494-.37a8.128 8.128 0 0 1-.203-3.449c.059-.828.545-1.787 1.404-1.89zm13.692 1.263a2.04 2.04 0 0 0-.403.046c-.742-.105-1.169.973-1.638.89-.464-1.247-2.293-1.129-2.989-.157-.084-.675-.89-.76-1.43-.668v6.127h1.475c-.003-1.312.009-2.625-.004-3.936-.231-1.1 1.572-1.595 2.004-.611.199 1.499.039 3.034.09 4.547h1.48c.012-1.344-.017-2.692.01-4.033-.05-1.09 1.617-1.46 2.004-.444.153 1.481.031 2.987.07 4.477h1.21c.455.133.201-.443.265-.701-.036-1.313.1-2.634-.086-3.936-.12-1.003-1.105-1.62-2.058-1.601zm13.28.005c-.124-.006-.25 0-.374.018-.647-.022-1.095.498-1.604.713-.049-.758-.841-.645-1.388-.625v6.127h1.474v-3.832c-.067-.445.102-.91.58-1.037.575-.377 1.528-.273 1.752.459.122 1.463.026 2.941.057 4.41h1.475v-1.635c-.041-1.017.102-2.048-.102-3.053-.142-.904-.993-1.503-1.87-1.545zm-7.124.012c-.559-.007-1.122.115-1.594.424-1.446.884-1.688 2.931-.967 4.357.626 1.348 2.32 1.79 3.666 1.409.502-.213 1.574-.389 1.31-1.145-.516-.91-1.461.245-2.208.146-1 .054-1.706-.914-1.682-1.85 1.03-.002 2.062.006 3.092-.001.815.309 1.29-.452 1.002-1.184-.146-1.259-1.365-2.235-2.62-2.156zm10.545.094v6.127h1.48V26.09h-1.48zm-10.793.951a.66.66 0 0 1 .277.012c.757-.074 1.365.677 1.309 1.396-.839.008-1.68-.017-2.516.014-.59-.361.249-1.316.93-1.422z" style="fill:red;fill-opacity:1;stroke:none;stroke-width:.49753618" transform="matrix(.26458 0 0 .26458 0 0)"/><path d="M37.771 11.472v3.233M94.433 11.472v3.233M47.215 11.472v3.233M28.328 11.472v3.233M18.884 11.472v3.233M84.989 11.472v3.233M75.545 11.472v3.233M113.32 11.472v3.233M103.876 11.472v3.233" style="fill:none;stroke:#000;stroke-width:.6582005;stroke-linecap:butt;stroke-linejoin:miter;stroke-miterlimit:4;stroke-dasharray:none;stroke-opacity:1"/></svg>