<svg xmlns="http://www.w3.org/2000/svg" width="500" height="87.643" viewBox="0 0 132.292 23.189"><path d="M160.24 63.309a.951.951 0 0 0-.777.49c-.743 1.366 1.826 1.892 1.8.43.022-.627-.51-.96-1.023-.92zm214.074 0a.951.951 0 0 0-.777.49c-.743 1.366 1.824 1.892 1.799.43.022-.627-.51-.96-1.022-.92zm-245.007.1c-.896.006-1.79.399-2.315 1.177-.97 1.585-1.035 3.633-.512 5.387.318 1.635 2.184 2.658 3.745 2.142 1.756-.574 2.327-2.627 2.275-4.29-.02-1.126-.145-2.354-.861-3.272-.537-.77-1.436-1.151-2.332-1.145zm214.074 0c-.896.006-1.79.399-2.317 1.177-.97 1.585-1.033 3.633-.51 5.387.319 1.635 2.184 2.658 3.745 2.142 1.756-.574 2.328-2.627 2.275-4.29-.02-1.126-.145-2.354-.861-3.272-.537-.77-1.436-1.151-2.332-1.145zm-220.848.003a2.915 2.915 0 0 0-2.44 1.147c-.986.714-.004 2.244.874 1.175.476-1.125 2.167-1.615 2.691-.25.565 1.449-1.028 1.443-1.78 1.957-.386 1.434 2.028.414 1.962 1.856.287 1.269-1.505 2.31-2.426 1.385-.278-.83-1.862-1.656-1.937-.317.51 1.662 2.604 2.263 4.115 1.666 1.577-.49 2.348-2.7 1.137-3.935-1.23-.452.088-1.091.38-1.809.452-1.514-1.056-3.042-2.576-2.875zm214.074 0a2.915 2.915 0 0 0-2.439 1.147c-.987.714-.005 2.244.873 1.175.476-1.125 2.167-1.615 2.691-.25.565 1.449-1.027 1.443-1.779 1.957-.387 1.434 2.027.414 1.961 1.856.287 1.269-1.506 2.31-2.428 1.385-.278-.83-1.86-1.656-1.935-.317.51 1.662 2.604 2.263 4.115 1.666 1.577-.49 2.348-2.7 1.137-3.935-1.23-.452.089-1.091.38-1.809.452-1.514-1.056-3.042-2.576-2.875zm-172.709.688c-.786-.05-.582 1.488-1.044 1.968-1.09-.207-1.027 1.29-.026 1.11.293.475.035 1.802.123 2.603-.232 1.09.323 2.6 1.654 2.455.502-.049 1.22-.03 1.463-.574.221-1.216-1.376-.214-1.629-1.014-.03-1.176-.005-2.352-.013-3.529h1.527c.255-.077.038-.626.11-.887 0-.344-.605-.082-.868-.164-.275-.07-.89.199-.77-.267-.086-.531.245-1.112-.124-1.574-.158-.08-.29-.12-.403-.127zm214.075 0c-.787-.05-.583 1.488-1.045 1.968-1.089-.207-1.026 1.29-.026 1.11.293.475.035 1.802.123 2.603-.232 1.09.323 2.6 1.655 2.455.501-.049 1.222-.03 1.465-.574.22-1.216-1.377-.214-1.63-1.014-.033-1.176-.007-2.352-.015-3.529h1.527c.255-.077.038-.626.11-.887 0-.344-.605-.082-.867-.164-.275-.07-.89.198-.77-.267-.086-.531.245-1.112-.125-1.574-.158-.08-.29-.12-.402-.127zm-248.662.552c1.434.017 1.734 1.999 1.666 3.172-.004.217-.01.432-.022.649-.048 1.007-.347 2.542-1.629 2.525-1.565-.088-1.592-1.99-1.64-3.166.03-1.125.05-2.708 1.322-3.156.106-.017.207-.025.303-.024zm214.074 0c1.434.017 1.734 1.999 1.666 3.172-.004.217-.009.432-.022.649-.047 1.007-.346 2.542-1.629 2.525-1.565-.088-1.592-1.99-1.64-3.166.03-1.125.05-2.708 1.322-3.156.106-.017.207-.025.303-.024zM143.09 65.891c-.78-.062-1.538.334-2.078.927-.577-.86-2.16-1.305-3.022-.308-.197.1-.883-.887-1.57-.496v6.127h1.29c.428-.697.066-2.193.185-3.198-.614-1.283 1.185-2.67 1.998-1.35.199 1.51.04 3.033.091 4.548h1.225c.637-.55.056-2.294.256-3.278-.565-1.287 1.33-2.585 2.014-1.199.124 1.208.067 2.425.062 3.637-.199.754.155.966.832.84 1.224.257.412-1.487.654-2.18-.053-1.31.327-3.182-1.156-3.848a2.06 2.06 0 0 0-.781-.222zm214.074 0c-.78-.062-1.538.334-2.078.927-.576-.86-2.16-1.305-3.022-.308-.197.1-.883-.887-1.57-.496v6.127h1.29c.427-.697.064-2.193.183-3.198-.613-1.283 1.187-2.67 2-1.35.199 1.51.04 3.033.092 4.548h1.224c.637-.55.056-2.294.256-3.278-.564-1.287 1.33-2.585 2.014-1.199.124 1.208.065 2.425.06 3.637-.198.754.157.966.834.84 1.224.257.412-1.487.655-2.18-.054-1.31.326-3.182-1.157-3.848a2.06 2.06 0 0 0-.78-.222zm-201.244.002c-.597.038-1.15.36-1.645.7-.142-.427-.88-.755-1.484-.58v6.128h1.475v-2.895c.053-.57-.142-1.197.17-1.707.557-.59 1.853-.735 2.162.191.121 1.468.026 2.941.056 4.41h1.475c.006-1.118-.016-2.238.012-3.357.096-1.154-.287-2.6-1.61-2.824a1.763 1.763 0 0 0-.611-.066zm214.074 0c-.597.038-1.149.36-1.644.7-.143-.427-.88-.755-1.485-.58v6.128h1.475v-2.895c.053-.57-.144-1.197.168-1.707.558-.59 1.856-.735 2.164.191.121 1.468.026 2.941.057 4.41h1.474c.006-1.118-.015-2.238.012-3.357.096-1.154-.289-2.6-1.611-2.824-.209-.06-.41-.08-.61-.066zm-220.96.027a3.113 3.113 0 0 0-1.03.152c-1.637.526-2.273 2.537-1.756 4.069.294 1.223 1.473 2.06 2.705 2.093.843.037 1.742-.194 2.41-.713.53-1.034-1.005-1.059-1.533-.519-1.053.479-2.252-.462-2.268-1.564.418-.408 1.6-.06 2.315-.174.782.145 2.157.15 1.82-1.051-.134-1.297-1.345-2.388-2.664-2.293zm214.073 0a3.114 3.114 0 0 0-1.029.152c-1.637.526-2.273 2.537-1.756 4.069.294 1.223 1.474 2.06 2.705 2.093.843.037 1.743-.194 2.41-.713.53-1.034-1.006-1.059-1.535-.519-1.053.479-2.25-.462-2.265-1.564.417-.408 1.6-.06 2.314-.174.782.145 2.157.15 1.82-1.051-.134-1.297-1.345-2.388-2.664-2.293zm-203.527.094v6.127h1.48v-6.127h-1.48zm214.072 0v6.127h1.483v-6.127h-1.483zm-224.925.933a.624.624 0 0 1 .335.03c.655-.07 1.216.507 1.3 1.127-.152.603-1.428.104-2.036.271-1.244.147-.404-1.29.4-1.428zm214.074 0a.624.624 0 0 1 .336.03c.654-.07 1.216.507 1.299 1.127-.152.603-1.427.104-2.036.271-1.244.147-.404-1.29.4-1.428zM31.664 72.748a1.297 1.297 0 0 0-1.059.414c-1.564 1.772 2.26 3.044 2.262.836.038-.747-.564-1.21-1.203-1.25zm428.262.016a1.3 1.3 0 0 0-1.06.414c-1.566 1.772 2.262 3.044 2.263.836.037-.746-.564-1.21-1.203-1.25zm-10.64.123c-1.477-.041-2.977.65-3.669 2.033-1.114 1.824-.204 4.608 1.994 5.057.576.716 2.81-.878 2.205.216-.962 1.183-1.885 2.397-2.865 3.567-1.575 1.245 1.325 1.275 1.977.576 1.057-1.136 1.749-2.564 2.75-3.758 1.27-1.748 2.031-4.367.615-6.248-.725-.937-1.86-1.412-3.008-1.443zm-431.077.015c-1.08-.075-1.908 1.155-.762 1.928h2.658c.887.102 1.982-.274 2.7.22-1.5 2.785-2.852 5.68-4.34 8.483-1.31 1.312.98 1.568 1.72.828 1.006-1.918 1.937-3.874 2.876-5.826.683-1.824 2.222-3.459 2.005-5.515h-6.384a1.432 1.432 0 0 0-.473-.118zm430.762 1.631c1.115-.034 2.319.771 2.164 2.03.076.785-.444 1.518-1.155 1.814-1.718.936-3.557-1.151-2.609-2.795.293-.706.93-1.028 1.6-1.049zM51.883 76.248c-1.057-.083-2.087.454-2.819 1.258-.78-1.165-2.923-1.77-4.091-.42-.268.137-1.199-1.2-2.13-.67v8.299h1.749c.579-.944.089-2.972.25-4.332-.831-1.738 1.606-3.616 2.707-1.826.27 2.043.054 4.106.123 6.158h1.66c.863-.744.077-3.107.348-4.44-.765-1.744 1.8-3.5 2.726-1.623.175 1.7.085 3.41.084 5.116-.336 1.056.426 1.013 1.201.947 1.595.266.458-2.086.815-2.998-.066-1.762.428-4.275-1.567-5.166a2.784 2.784 0 0 0-1.056-.303zm428.26.016c-1.058-.083-2.085.453-2.817 1.257-.78-1.164-2.924-1.768-4.092-.417-.267.136-1.198-1.202-2.129-.672v8.298h1.749c.579-.943.088-2.97.25-4.33-.83-1.738 1.608-3.617 2.709-1.828.269 2.044.053 4.106.12 6.158h1.66c.865-.743.077-3.106.348-4.439-.763-1.745 1.803-3.5 2.729-1.623.167 1.637.09 3.284.082 4.926-.27 1.021.212 1.307 1.129 1.136 1.658.349.558-2.012.887-2.95-.073-1.775.442-4.312-1.567-5.214a2.793 2.793 0 0 0-1.058-.302zm-442.702.004c-.66.049-1.315.24-1.877.527-1.538.107-.967 2.34.383 1.596.95-.721 2.708-.938 3.028.554.626 1.67-1.67.807-2.575 1.348-1.523.237-2.92 1.768-2.168 3.332.772 1.505 2.894 1.491 4.182.7.573-1.132.982.335 1.643.39 1.537.455.688-1.366.906-2.23-.135-1.69.396-3.58-.613-5.085-.699-.904-1.81-1.214-2.909-1.132zm428.288.013a4.956 4.956 0 0 0-1.83.496c-1.473.046-1.155 2.332.255 1.649.971-.701 2.74-1 3.08.531.622 1.73-1.836.777-2.763 1.412-1.48.26-2.708 1.85-1.961 3.313.813 1.464 2.908 1.461 4.183.638.635-1.14.934.452 1.625.41 1.57.468.664-1.488.905-2.367-.128-1.66.391-3.537-.649-4.996-.7-.859-1.777-1.16-2.845-1.086zm-435.143.135c.046 2.555-.08 5.114.031 7.664.381 1.514-.802 1.89-1.691 2.63.133 1.886 3.242.754 3.531-.65.298-3.195.058-6.432.135-9.644h-2.006zm428.264.016c.045 2.554-.08 5.113.03 7.664.382 1.513-.803 1.89-1.692 2.63.134 1.886 3.243.755 3.533-.648.297-3.196.056-6.434.133-9.646h-2.004zM37.943 81.244c.278-.02.545-.015.778.01 1.082.906-.524 2.472-1.649 2.215-.648.142-1.199-.464-1.11-1.092.24-.765 1.15-1.07 1.981-1.133zm428.262.016c.277-.021.545-.016.777.01 1.081.906-.523 2.474-1.648 2.216-.648.142-1.199-.466-1.11-1.093.24-.765 1.15-1.07 1.981-1.133z" style="fill:#00f;fill-opacity:1;stroke:none;stroke-width:.49753618" transform="matrix(.26458 0 0 .26458 0 0)"/><path d="M245.602 72.762a1.3 1.3 0 0 0-1.061.414c-1.565 1.772 2.263 3.045 2.264.838.037-.747-.565-1.212-1.203-1.252zm-10.967.119c-.795.032-1.575.28-2.196.76-1.67 1.079-1.683 3.79.03 4.83-.15.55-1.799 1.441-1.686 2.619-.298 2.236 1.988 3.971 4.078 3.77 1.45.072 2.972-.555 3.69-1.87.903-1.465.261-3.412-1.211-4.217.053-.73 1.719-1.86 1.176-3.156-.316-1.839-2.132-2.808-3.881-2.736zm.328 1.488c2.24-.049 2.08 3.74-.102 3.526l-.25.003-.24-.035c-1.977-.46-1.436-3.666.592-3.494zm30.855 1.895c-1.057-.083-2.084.453-2.816 1.257-.78-1.164-2.924-1.77-4.092-.42-.268.137-1.198-1.199-2.129-.67v8.3h1.748c.58-.945.087-2.972.248-4.333-.83-1.738 1.609-3.617 2.71-1.828.27 2.044.054 4.108.122 6.16h1.66c.864-.743.076-3.106.346-4.439-.764-1.745 1.803-3.502 2.729-1.625.175 1.7.084 3.412.084 5.117-.337 1.056.426 1.014 1.2.947 1.596.267.458-2.085.815-2.998-.066-1.762.429-4.274-1.566-5.166a2.793 2.793 0 0 0-1.059-.302zm-14.412.017a4.956 4.956 0 0 0-1.83.496c-1.472.046-1.157 2.33.254 1.647.97-.701 2.74-1 3.08.531.632 1.673-1.665.814-2.572 1.354-1.523.236-2.92 1.768-2.168 3.332.772 1.504 2.894 1.491 4.182.699.572-1.131.981.336 1.642.39 1.574.469.665-1.486.906-2.367-.128-1.66.393-3.54-.648-4.998-.7-.859-1.778-1.157-2.846-1.084zm-6.883.15c.046 2.555-.08 5.112.032 7.663.38 1.513-.804 1.892-1.694 2.633.134 1.885 3.245.752 3.534-.65.298-3.197.057-6.433.134-9.645h-2.006zm-9.75 2.975c.316-.02.642.037.956.192 2.008.64 1.178 4.003-.868 3.7-.717.095-1.43-.315-1.77-.943-.854-1.334.316-2.863 1.682-2.949zm17.108 1.852c.277-.021.545-.016.777.01 1.082.905-.523 2.474-1.648 2.216-.648.142-1.2-.463-1.11-1.091.24-.765 1.15-1.072 1.98-1.135z" style="shape-padding:0;vector-effect:none;fill:green;fill-opacity:1;stroke:none;stroke-width:.49753618;stroke-linecap:butt;stroke-linejoin:miter;stroke-miterlimit:4;stroke-dasharray:none;stroke-dashoffset:0;stroke-opacity:1" transform="matrix(.26458 0 0 .26458 0 0)"/><path d="M9.44 11.472v6.465M66.102 11.472v6.465M122.763 11.472v6.465M1.243 11.801h129.806" style="fill:none;stroke:#000;stroke-width:.6582005;stroke-linecap:butt;stroke-linejoin:miter;stroke-miterlimit:4;stroke-dasharray:none;stroke-opacity:1"/><path d="m-167.408 524.439-25.414 14.673v-29.346z" style="opacity:1;vector-effect:none;fill:#000;fill-opacity:1;stroke:none;stroke-width:2.11016917;stroke-linecap:butt;stroke-linejoin:miter;stroke-miterlimit:4;stroke-dasharray:none;stroke-dashoffset:0;stroke-opacity:1" transform="matrix(-.1525 0 0 .10208 -25.53 -41.733)"/><path d="m-167.408 524.439-25.414 14.673v-29.346z" style="opacity:1;vector-effect:none;fill:#000;fill-opacity:1;stroke:none;stroke-width:2.11016917;stroke-linecap:butt;stroke-linejoin:miter;stroke-miterlimit:4;stroke-dasharray:none;stroke-dashoffset:0;stroke-opacity:1" transform="matrix(.1525 0 0 .10208 157.822 -41.733)"/><path d="M56.658 11.472v3.233" style="fill:none;stroke:#000;stroke-width:.6582005;stroke-linecap:butt;stroke-linejoin:miter;stroke-miterlimit:4;stroke-dasharray:none;stroke-opacity:1"/><path d="M209.748.027a1.273 1.273 0 0 0-1.057.414c-1.564 1.772 2.26 3.044 2.262.836.046-.739-.563-1.207-1.205-1.25zm-13.643.194c-.988 0-1.645 1.19-.572 1.89h2.658c.887.103 1.982-.276 2.7.22-1.5 2.784-2.852 5.68-4.34 8.483-1.31 1.313.98 1.568 1.72.829 1.006-1.92 1.937-3.875 2.875-5.827.684-1.823 2.223-3.46 2.006-5.517h-6.607a1.31 1.31 0 0 0-.44-.078zm33.864 3.306c-1.057-.083-2.087.456-2.819 1.26-.78-1.165-2.923-1.77-4.091-.42-.268.137-1.199-1.2-2.13-.67v8.3h1.749c.579-.945.089-2.972.25-4.333-.83-1.738 1.606-3.618 2.707-1.828.27 2.044.056 4.108.125 6.16h1.658c.863-.743.077-3.107.348-4.44-.765-1.744 1.802-3.502 2.728-1.624.175 1.7.083 3.41.082 5.115-.336 1.056.428 1.015 1.203.95 1.595.266.458-2.087.815-2.999-.067-1.762.426-4.276-1.569-5.168a2.784 2.784 0 0 0-1.056-.303zm-13.783.02c-.87-.066-1.787.144-2.536.527-1.538.108-.967 2.34.383 1.596.95-.721 2.708-.938 3.028.555.626 1.669-1.67.806-2.575 1.347-1.523.237-2.92 1.77-2.168 3.334.772 1.505 2.894 1.492 4.182.7.572-1.132.982.335 1.643.39h.441c.998.1.215-1.582.465-2.232-.135-1.69.396-3.58-.613-5.084-.56-.723-1.381-1.067-2.25-1.133zm-7.514.15c.046 2.555-.08 5.112.031 7.662.381 1.514-.802 1.892-1.691 2.633.133 1.885 3.242.753 3.531-.65.298-3.196.06-6.433.137-9.645h-2.008zm7.357 4.826c.277-.02.545-.015.778.01 1.082.906-.524 2.475-1.649 2.217-.648.142-1.199-.466-1.11-1.094.24-.764 1.15-1.07 1.981-1.133zm15.514 14.862a.948.948 0 0 0-.775.49c-.743 1.366 1.823 1.893 1.798.43.022-.626-.51-.96-1.023-.92zm-30.934.1c-.896.006-1.788.399-2.314 1.177-.971 1.585-1.036 3.633-.512 5.387.318 1.635 2.184 2.658 3.744 2.142 1.757-.574 2.328-2.627 2.276-4.29-.02-1.125-.145-2.354-.862-3.272-.536-.77-1.435-1.151-2.332-1.145zm-8.345.08c-.243.004-.423.082-.383.421-.128 1.203-.538 2.423-.572 3.59.736 1.028 2.02-.254 2.943.404 1.283.607.935 2.732-.408 3.045-1.001.478-2.095-1.206-2.926-.052-.125 1.053 1.846 1.406 2.783 1.324 1.878-.036 3.25-2.102 2.711-3.86-.373-1.55-2.219-2.107-3.619-1.746-.09-.292-.126-1.91.785-1.808.86-.038 2.366.479 2.635-.672v-.627h-3.195c-.207.046-.512-.024-.754-.02zm42.937.61c-.786-.05-.583 1.489-1.045 1.97-1.088-.208-1.026 1.288-.025 1.109.293.475.035 1.802.123 2.603-.233 1.09.323 2.6 1.654 2.456.501-.05 1.22-.03 1.463-.575.22-1.216-1.376-.213-1.629-1.013-.031-1.177-.005-2.353-.013-3.53h1.527c.255-.077.038-.626.11-.886 0-.345-.605-.083-.868-.164-.275-.07-.89.198-.77-.268-.086-.53.245-1.112-.124-1.574-.158-.08-.29-.12-.403-.127zm-34.588.554c1.434.016 1.735 1.998 1.666 3.171-.003.217-.006.433-.02.649-.047 1.007-.348 2.542-1.63 2.525-1.565-.088-1.592-1.99-1.64-3.166.03-1.125.05-2.708 1.322-3.156.105-.017.207-.025.302-.023zm13.782 1.238c-.78-.062-1.54.334-2.08.928-.577-.86-2.16-1.306-3.022-.31-.198.102-.884-.886-1.57-.495v6.127h1.29c.428-.697.065-2.193.184-3.197-.613-1.284 1.186-2.671 1.998-1.35.2 1.508.04 3.032.092 4.547h1.225c.637-.549.056-2.294.256-3.278-.565-1.287 1.33-2.584 2.013-1.199.124 1.208.067 2.425.063 3.637-.199.754.155.966.832.84 1.224.257.412-1.487.654-2.18-.053-1.31.327-3.182-1.156-3.848a2.05 2.05 0 0 0-.78-.222zm12.828.002c-.597.038-1.15.36-1.645.7-.143-.426-.88-.755-1.484-.58v6.128h1.474v-2.895c.054-.57-.142-1.197.17-1.707.558-.59 1.854-.735 2.162.192.122 1.467.026 2.94.057 4.41h1.475c.005-1.12-.016-2.239.011-3.358.096-1.154-.286-2.6-1.609-2.824a1.763 1.763 0 0 0-.611-.066zm-6.887.027a3.11 3.11 0 0 0-1.03.152c-1.637.526-2.273 2.537-1.755 4.069.293 1.223 1.473 2.06 2.705 2.094.842.036 1.742-.195 2.41-.713.53-1.035-1.005-1.06-1.533-.52-1.053.479-2.253-.462-2.268-1.564.417-.407 1.6-.06 2.315-.174.781.146 2.157.15 1.82-1.05-.134-1.298-1.346-2.389-2.664-2.294zm10.547.094v6.127h1.48V26.09h-1.48zm-10.854.933a.631.631 0 0 1 .338.03c.655-.07 1.214.508 1.297 1.127-.151.603-1.427.105-2.035.271-1.245.147-.405-1.29.4-1.428z" style="fill:red;fill-opacity:1;stroke:none;stroke-width:.49753618" transform="matrix(.26458 0 0 .26458 0 0)"/><path d="M37.771 11.472v3.233M94.433 11.472v3.233M47.215 11.472v3.233M28.328 11.472v3.233M18.884 11.472v3.233M84.989 11.472v3.233M75.545 11.472v3.233M113.32 11.472v3.233M103.876 11.472v3.233" style="fill:none;stroke:#000;stroke-width:.6582005;stroke-linecap:butt;stroke-linejoin:miter;stroke-miterlimit:4;stroke-dasharray:none;stroke-opacity:1"/></svg>