<svg xmlns="http://www.w3.org/2000/svg" xmlns:xlink="http://www.w3.org/1999/xlink" width="232" height="228.753" viewBox="0 0 61.383 60.524"><defs><linearGradient id="a"><stop offset="0" style="stop-color:#338000;stop-opacity:1"/><stop offset="1" style="stop-color:#9f5;stop-opacity:1"/></linearGradient><linearGradient id="b"><stop offset="0" style="stop-color:#9f5;stop-opacity:1"/><stop offset="1" style="stop-color:#338000;stop-opacity:1"/></linearGradient><linearGradient xlink:href="#a" id="d" x1="-4535.859" x2="-3945.779" y1="16750.615" y2="16750.615" gradientTransform="matrix(.0836 0 0 .0836 385.209 -1370.03)" gradientUnits="userSpaceOnUse"/><linearGradient xlink:href="#b" id="c" x1="-4553.898" x2="-3920.205" y1="16754.506" y2="16754.506" gradientTransform="matrix(.0836 0 0 .0836 385.209 -1370.03)" gradientUnits="userSpaceOnUse"/></defs><path d="M169.533 14.943a56.796 56.796 0 0 1-.306 3.885c.724.01 1.465.02 2.158.258.449.11.82.533.79 1.008v.002c.008.397-.292.748-.657.873-.62.16-1.284.114-1.899-.05-.214 0-.604-.369-.592 0-.048.375-.234.76-.2 1.128.716.227 1.478.37 2.236.348.872-.017 1.816-.324 2.324-1.077.52-.835.497-2.028-.166-2.78-.628-.682-1.593-.866-2.477-.93.048-.449.077-.898.106-1.348h2.632v-1.317h-3.949zm-113.412.088a56.784 56.784 0 0 1-.307 3.887c.625.005 1.256.02 1.866.168.543.077 1.127.49 1.084 1.096a.925.925 0 0 1-.42.754c-.521.282-1.157.24-1.727.162-.383.057-1.054-.59-1.037.056.004.34-.46 1.021.092 1.067 1.15.302 2.453.454 3.543-.131 1.03-.515 1.369-1.884.943-2.902-.387-.975-1.492-1.363-2.457-1.46-.693-.014-.156-.951-.264-1.38h2.633V15.03h-3.949zm5.984 0a56.875 56.875 0 0 1-.304 3.887c.624.005 1.255.02 1.865.168.543.077 1.128.49 1.084 1.096a.927.927 0 0 1-.422.754c-.52.282-1.157.24-1.726.162-.383.057-1.052-.59-1.036.056.004.34-.459 1.021.092 1.067 1.15.302 2.454.454 3.543-.131 1.03-.515 1.367-1.884.942-2.902-.387-.975-1.491-1.363-2.456-1.46-.692-.014-.158-.951-.265-1.38h2.633V15.03h-3.95zm58.512 26.621a5.821 5.821 0 0 0-3.722 1.485c.148.657.727 1.566 1.285 1.713.857-.773 2.177-1.38 3.289-.791.825.618.536 1.864-.133 2.486-1.29 1.589-3.251 2.678-3.99 4.674-.179.686-.55 1.929-.065 2.37h7.604v-2.103c-1.575 0-3.149-.01-4.723.014-.416-.492.624-.999.867-1.45 1.264-1.288 2.866-2.438 3.389-4.255.392-1.406-.184-3.179-1.627-3.727-.68-.303-1.443-.423-2.174-.416zm-8.959.28c-1.083 1.085-2.449 1.838-3.853 2.423.384.633.378 2.24 1.517 1.67.52-.086 1.285-.85 1.578-.705v8.27h2.506V41.932h-1.748zm-34.191 8.72c-.89 1.245-3.146 1.744-3.713 2.672.118 1.015.77 2.2 1.863 1.196.693-.627 1.326-.528 1.094.41v7.38h2.506V50.653h-1.75zm9.56 0c-.889 1.245-3.145 1.744-3.713 2.672.119 1.015.77 2.2 1.864 1.196.693-.627 1.325-.528 1.093.41v7.38h2.506V50.653h-1.75zm59.72.002c-1.083 1.086-2.45 1.836-3.854 2.422l.757 1.934c.814-.282 1.621-.61 2.338-1.094v8.395h2.506V50.654h-1.748zm67.98 4.528a2.305 2.305 0 0 0-.827.172c-1.02.413-1.527 1.526-1.668 2.558-.133 1.267-.13 2.647.543 3.776.678 1.229 2.525 1.485 3.559.57.901-.818 1.096-2.11 1.096-3.268-.006-.903-.113-1.85-.59-2.638-.405-.77-1.266-1.191-2.113-1.17zm-191.16.103a2.302 2.302 0 0 0-.823.133c-1.08.372-1.632 1.534-1.771 2.6-.133 1.267-.132 2.645.54 3.773.678 1.229 2.527 1.486 3.561.57.902-.818 1.097-2.11 1.096-3.267-.006-.882-.108-1.801-.557-2.578-.38-.77-1.21-1.217-2.047-1.23zm185.402.07c-.678.68-1.533 1.151-2.412 1.518l.455 1.16c.547-.054 1.018-.367 1.482-.635v5.256h1.57v-7.299h-1.095zm-193.262.104a56.701 56.701 0 0 1-.305 3.887c.608.004 1.22.02 1.815.156.557.072 1.179.48 1.135 1.107h-.002a.925.925 0 0 1-.42.754c-.521.284-1.157.24-1.727.162-.38.054-1.05-.59-1.035.053.004.34-.46 1.024.092 1.07 1.114.293 2.362.445 3.435-.076 1.113-.483 1.51-1.942 1.03-3.006-.408-.943-1.487-1.312-2.436-1.41-.693-.015-.158-.951-.266-1.38h2.633v-1.317h-3.949zM214.9 56.537c.14.014.28.071.403.18.526.622.496 1.502.525 2.273-.011.552-.017 1.114-.18 1.647-.088.507-.577.976-1.115.777-.515-.236-.646-.87-.71-1.38-.07-.915-.129-1.866.152-2.753.07-.45.505-.787.925-.744zm-191.242.108a.691.691 0 0 1 .403.195c.52.626.479 1.488.507 2.254-.008.531-.019 1.07-.162 1.586-.08.5-.514 1.004-1.066.86-.54-.179-.7-.814-.768-1.317-.087-.938-.14-1.915.139-2.827.058-.462.518-.805.947-.751zm147.01 17.412a5.566 5.566 0 0 0-2.85.74c-1.007.263-1.328 1.165-.511 1.857.601 1.41 1.5-.385 2.515-.37 1.164-.43 2.452.673 1.88 1.868-.79 1.493-2.312 2.4-3.386 3.668a4.971 4.971 0 0 0-1.369 4.18h7.772v-2.104c-1.605 0-3.21.014-4.815-.011-.211-.45.922-1.323 1.362-1.823 1.322-1.296 3.024-2.647 3.101-4.658v-.002c.017-.883-.27-1.814-.933-2.425-.791-.614-1.771-.906-2.766-.92zm-106.656.277c-.21-.003-.422.01-.631.045-1.918.216-3.143 2.055-3.453 3.828-.325 2.05-.344 4.275.584 6.18.862 2.02 3.602 2.721 5.424 1.593 1.812-1.186 2.217-3.546 2.205-5.558-.015-1.28-.144-2.599-.704-3.768-.556-1.38-1.96-2.295-3.425-2.32zm-9.385.283c-1.082 1.085-2.448 1.836-3.852 2.422l.7 1.791c.647.174 1.7-.576 2.396-.95v8.395h2.506V74.617h-1.75zm9.365 1.877c.169.003.343.049.52.14 1.132.858.996 2.51 1.072 3.788-.003.199-.002.397-.014.596-.093 1.095-.04 2.567-1.1 3.212-1.176.583-1.984-.817-2.048-1.82-.162-1.48-.236-3.019.119-4.478.105-.74.72-1.458 1.451-1.438zm115.299 29.998a6.57 6.57 0 0 0-2.918.664c-.926.173-.516.757-.234 1.344.281 1.32 1.288.298 2.136.18 1.004-.315 2.48.197 2.29 1.457-.31 1.356-1.964 1.154-3.026 1.154v1.42c-.182.977 1.258.49 1.83.65 1.372-.059 2.243 1.757 1.176 2.701-1.081.705-2.498.546-3.682.202-1.158-.775-1.139.87-1.332 1.636.732.635 2.263.697 3.354.776.77.003 1.55-.078 2.28-.334 1.952-.52 2.932-2.93 2.1-4.715-.208-.754-1.107-1.182-1.49-1.59 1.644-.924 1.685-3.438.323-4.625-.81-.627-1.8-.905-2.807-.92zm-129.69.352a4.862 4.862 0 0 0-1.478.275c-2.57.938-3.349 4.868-1.19 6.613 1.267.825 2.972 1.003 4.38.438a3.601 3.601 0 0 1-.227.568c-.66 1.462-2.364 1.944-3.84 1.983-1.182-.133-.412 1.41-.564 2.107 1.113-.013 2.236-.116 3.302-.453 1.81-.498 3.28-1.966 3.746-3.79.454-1.863.54-3.962-.341-5.718-.696-1.426-2.261-2.071-3.787-2.023zm.262 2.082c.977.053 1.622 1.147 1.612 2.097.445 1.007-.41 1.727-1.39 1.514-.361-.001-.73-.041-1.07-.178-1.306-.663-1.057-3.074.41-3.388.153-.039.299-.053.438-.045zm173.936 1.617c-.678.68-1.533 1.15-2.412 1.518l.445 1.134c.559.012 1.022-.357 1.492-.61v5.257h1.57v-7.299H223.8zm3.984 0a56.849 56.849 0 0 1-.304 3.887c.604.004 1.214.018 1.806.154.56.065 1.186.484 1.143 1.11h-.002a.886.886 0 0 1-.178.52c-.37.47-1.045.471-1.59.436-.465.032-.875-.242-1.316-.257-.094.374-.412.93-.17 1.294 1.127.315 2.389.503 3.498.016.871-.326 1.376-1.275 1.326-2.18-.01-.829-.524-1.62-1.299-1.935-.495-.286-1.105-.24-1.61-.445-.233-.4.103-.858.013-1.284h2.632v-1.316h-3.949zm-224.582.12C1.91 111.992.857 113.54 0 115.181v1.146h3.148v1.633h1.54v-1.633h.779v-1.283h-.78v-4.383H3.202zm3.723 0a56.783 56.783 0 0 1-.307 3.886c.624.004 1.256.02 1.865.168.544.077 1.127.49 1.084 1.096a.925.925 0 0 1-.42.753c-.52.283-1.156.24-1.726.163-.382.056-1.053-.589-1.037.056.003.34-.46 1.021.092 1.067 1.132.297 2.408.449 3.49-.104 1.08-.504 1.442-1.934.974-2.978-.407-.944-1.486-1.313-2.435-1.41-.693-.016-.156-.952-.264-1.381h2.633v-1.317h-3.95zm-3.776 1.917v2.465H1.496c.42-.903 1.063-1.672 1.652-2.465zm56.01 26.725a4.809 4.809 0 0 0-.62.006 4.445 4.445 0 0 0-.686.103c-1.697.266-3.078 1.897-2.893 3.633-.228 1.055 1.3 1.695 1.17 2.47-1.3.904-1.877 2.796-1.006 4.182.948 1.665 3.131 1.99 4.863 1.664 1.661-.171 3.077-1.683 2.983-3.377a2.604 2.604 0 0 0-.073-.738c-.019-1.045-1.38-1.568-1.51-2.293 1.053-.745 1.56-2.16 1.155-3.393-.46-1.44-1.926-2.177-3.383-2.257zm-.258 2.029c.68.035 1.338.452 1.36 1.219.025.641-.319 1.337-.862 1.683-.975.33-2.12-.829-1.984-1.826.106-.763.807-1.111 1.486-1.076zm-.4 4.895a.937.937 0 0 1 .365.125c.861.288 1.887 1.02 1.608 2.06-.436 1.572-3.258 1.331-3.325-.328-.01-.7.538-1.945 1.352-1.857zm86 17.251c-.1 2.009-.233 4.016-.465 6.014.443.454 1.82.078 2.61.385.962.104 2.15.699 2.078 1.826.012 1.023-1.003 1.515-1.895 1.543-1.029.098-2.023-.174-2.98-.453-.199.57-.691 1.502-.297 2.09 1.76.506 3.718.794 5.463.074 1.811-.618 2.634-2.819 2.04-4.56-.487-1.676-2.295-2.429-3.89-2.594-1.245.084-.427-1.479-.56-2.223h4.205v-2.102H144.5zm-66.357.088v2.137h5.062a13.83 13.83 0 0 0-.775 1.236c-1.399 2.561-2.337 5.394-2.621 8.303h2.539c.07-1.128.29-2.245.609-3.328.728-2.342 1.737-4.653 3.344-6.531v-1.817h-8.158zm130.511 2.172a3.656 3.656 0 0 0-2.357.93c-.027.36.51.78.705 1.164.461-.43 1.068-.797 1.723-.725.635-.002.94.766.648 1.282-.587.96-1.594 1.554-2.273 2.44-.561.651-.783 1.54-.666 2.386h4.865V171.9h-2.35c-.25-.032-.568.076-.765-.056.323-.497.756-.909 1.183-1.315.769-.732 1.678-1.554 1.711-2.695.018-.71-.275-1.419-.93-1.756a3.122 3.122 0 0 0-1.494-.338zm6.287.006a2.323 2.323 0 0 0-.802.098c-1.14.328-1.731 1.532-1.871 2.63-.134 1.268-.13 2.648.543 3.776.677 1.229 2.524 1.486 3.558.57.902-.818 1.097-2.111 1.096-3.27-.006-.88-.108-1.8-.557-2.577-.368-.744-1.157-1.187-1.967-1.227zm-191.724.104a2.326 2.326 0 0 0-.799.093c-1.148.321-1.746 1.531-1.887 2.635-.132 1.266-.134 2.642.537 3.77.675 1.233 2.527 1.493 3.563.576.901-.818 1.097-2.112 1.096-3.27-.006-.881-.106-1.8-.555-2.578-.367-.739-1.15-1.183-1.955-1.226zm-5.688.171c-1.291 1.33-2.344 2.878-3.2 4.518v1.149h3.148v1.632h1.537v-1.632h.779v-1.286h-.78v-4.38H17.53zm197.424 1.08c.143.018.283.081.402.198.522.626.48 1.486.508 2.252-.009.531-.019 1.07-.162 1.586-.08.5-.512 1.004-1.064.86-.54-.178-.701-.814-.768-1.317-.088-.938-.143-1.913.137-2.825.058-.462.518-.807.947-.753zm-191.738.104c.143.018.282.08.402.197.521.626.481 1.487.51 2.252-.008.511-.02 1.03-.148 1.528-.083.485-.435 1.015-.993.935-.58-.101-.774-.766-.847-1.271-.098-.957-.154-1.955.129-2.887.058-.462.518-.807.947-.754zm-5.738.732v2.465h-1.653c.42-.902 1.063-1.671 1.653-2.464zm100.43 4.21a.608.608 0 0 0-.31.015c-2.441.091-5.063 1.206-6.126 3.543-.91 1.95-1.024 4.341-.127 6.316.78 1.74 2.917 2.405 4.677 1.99 2.237-.385 3.552-2.951 2.924-5.052-.378-1.724-2.255-2.599-3.892-2.512-.315-.212-1.57.61-1.34-.078.828-1.62 2.774-2.155 4.467-2.17.067-.549.32-1.9-.274-2.053zm-3.526 6.226c.114-.002.232.006.351.025v.002c.202.002.407.013.606.051 1.664.265 1.677 2.994.154 3.494-1.295.52-2.221-.949-2.185-2.088-.345-.92.274-1.467 1.074-1.484zm53.793 27.922a3.65 3.65 0 0 0-2.356.928c-.027.36.509.782.703 1.166.462-.43 1.07-.8 1.723-.727.636-.002.94.766.649 1.281-.596.974-1.623 1.573-2.303 2.479-.543.646-.75 1.519-.637 2.348h4.867v-1.317h-2.363c-.246-.034-.56.075-.754-.057.324-.496.756-.908 1.184-1.314.768-.732 1.677-1.552 1.71-2.693.018-.71-.275-1.42-.929-1.758a3.122 3.122 0 0 0-1.494-.336zm-110.96.037a4.108 4.108 0 0 0-1.88.5c-.51.319.233.894.295 1.305.508-.315 1.11-.542 1.717-.455.627-.029 1.023.802.627 1.277-.44.494-1.157.358-1.744.377v1.184c.387.212 1.179-.05 1.664.271.653.25.675 1.268.105 1.621-.823.373-1.784.22-2.598-.105-.404.124-.269.876-.457 1.242.675.272 1.405.391 2.13.41.575.003 1.163-.068 1.69-.31 1.167-.477 1.59-2.077.913-3.11-.055-.42-.85-.432-.701-.809.964-.608.919-2.147.082-2.845-.54-.396-1.187-.562-1.842-.553zm115.294.139a56.873 56.873 0 0 1-.305 3.886c.624.005 1.256.02 1.865.168.544.078 1.127.49 1.084 1.096a.924.924 0 0 1-.422.752c-.52.283-1.156.24-1.726.162-.382.056-1.05-.588-1.035.057.003.34-.46 1.02.092 1.066 1.132.298 2.408.451 3.49-.101 1.08-.505 1.441-1.934.974-2.979-.407-.944-1.487-1.312-2.435-1.41-.693-.015-.158-.952-.266-1.38h2.633v-1.317h-3.95zm-110.703.03a56.88 56.88 0 0 1-.307 3.888c.585.004 1.177.017 1.752.14.575.061 1.24.473 1.197 1.123a.881.881 0 0 1-.177.522c-.37.471-1.043.471-1.588.437-.465.03-.876-.237-1.317-.26-.083.373-.421.93-.172 1.295 1.093.306 2.309.49 3.397.06.802-.269 1.353-1.05 1.418-1.882.11-.901-.352-1.86-1.201-2.236-.502-.274-1.08-.327-1.627-.434-.372-.355.049-.9-.059-1.336h2.633v-1.316h-3.95zm57.263 14.622a2.308 2.308 0 0 0-.818.125c-1.092.364-1.651 1.534-1.791 2.606-.132 1.265-.134 2.641.537 3.769.674 1.234 2.527 1.493 3.563.576.901-.818 1.096-2.111 1.095-3.27-.006-.88-.106-1.8-.554-2.577-.378-.763-1.2-1.209-2.032-1.229zm-6.623.008a4.155 4.155 0 0 0-1.898.588c-.152.316.35.82.455 1.21.508-.314 1.113-.539 1.719-.452.639-.009 1.013.782.625 1.277-.434.497-1.157.354-1.742.377v1.264c.555.014 1.147-.062 1.664.19.682.269.67 1.326.048 1.653-.841.335-1.805.177-2.619-.168-.235.206-.235.884-.379 1.274.675.272 1.403.391 2.127.41.586.005 1.19-.075 1.723-.33 1.182-.505 1.569-2.18.809-3.19-.05-.35-1.093-.492-.52-.783.88-.69.767-2.188-.105-2.836-.568-.375-1.238-.52-1.907-.484zm6.698 1.35c.143.017.282.08.402.197.521.626.481 1.486.51 2.252-.01.53-.021 1.07-.164 1.586-.08.5-.513 1.004-1.065.859-.54-.178-.7-.813-.767-1.316-.088-.938-.143-1.913.136-2.825.058-.462.519-.807.948-.754z" style="fill:#b3b3b3;fill-opacity:1;stroke:none;stroke-width:.31595439" transform="matrix(.26458 0 0 .26458 0 0)"/><path d="M116.242.002a2.295 2.295 0 0 0-1.305.342c-.868.557-1.256 1.612-1.353 2.6-.105 1.252-.068 2.612.65 3.695.785 1.202 2.741 1.327 3.674.236.738-.832.897-1.997.897-3.068-.006-.94-.122-1.934-.653-2.737-.392-.673-1.147-1.044-1.91-1.068zm.115 1.37a.673.673 0 0 1 .338.18c.521.626.481 1.49.51 2.255-.01.63-.025 1.282-.262 1.877-.128.472-.733.755-1.16.486-.508-.386-.566-1.073-.615-1.66-.038-.877-.084-1.795.264-2.621.109-.39.55-.6.925-.518zm56.522 138.126c-.388-.006-.773.004-1.147.092-2.029 2.105-3.683 4.548-5.035 7.135v1.832h5.03v2.607h2.455v-2.607h1.246v-2.051h-1.246v-6.998h-.143c-.384.02-.773-.004-1.16-.01zm-1.152 3.07v3.938h-2.641c.67-1.442 1.699-2.67 2.64-3.938z" style="shape-padding:0;opacity:1;vector-effect:none;fill:#000;fill-opacity:1;stroke:none;stroke-width:.31595439;stroke-linecap:butt;stroke-linejoin:miter;stroke-miterlimit:4;stroke-dasharray:none;stroke-dashoffset:0;stroke-opacity:1" transform="matrix(.26458 0 0 .26458 0 0)"/><path d="M29.877 8.463v1.84h1.588v-1.84Zm-1.454.079c-.011 0-.023.003-.034.004-.068 0-.138.003-.206 0 .056.601.079 1.207.19 1.801.036.104.172.14.264.09.094-.035.098-.15.097-.236a9.914 9.914 0 0 0-.045-.971c-.02-.19-.039-.38-.077-.566a.198.198 0 0 0-.189-.123zm4.659 0c-.049.003-.108.013-.136.004-.259-.03-.247.307-.268.481-.045.436-.129.873-.105 1.311.116.25.453.098.42-.152.097-.526.107-1.063.161-1.594.015-.045-.024-.052-.072-.05zm-6.934.336c-.17-.003-.204.211-.15.345.063.472.157.942.297 1.397.039.224.353.196.385-.014-.02-.432-.136-.854-.216-1.278-.044-.144-.026-.354-.187-.425a.298.298 0 0 0-.094-.021.14.14 0 0 0-.036-.004zm9.055 0c-.014 0-.03 0-.045.003-.188-.004-.249.205-.261.356-.094.442-.203.882-.25 1.331.006.149.226.3.344.178.071-.177.115-.366.166-.55.09-.369.17-.743.21-1.121a.17.17 0 0 0-.164-.196zm-11.238.586c-.183.017-.167.283-.12.42.117.483.28.957.468 1.417.07.163.289-.026.334-.132.03-.184-.068-.358-.11-.533-.122-.369-.218-.753-.412-1.093-.028-.04-.07-.075-.12-.079h-.04zm13.372 0c-.18.05-.204.27-.278.415-.14.378-.265.763-.368 1.153-.045.169.108.306.26.335.158-.06.15-.302.23-.444.144-.413.267-.835.357-1.263.01-.112-.092-.205-.201-.196zm2.109.819c-.191.082-.245.305-.343.47-.19.39-.362.788-.53 1.188.105.09.28.186.415.123.135-.161.181-.38.284-.564.151-.343.28-.698.408-1.049.004-.117-.14-.16-.234-.168zm-17.582.003c-.152.008-.254.175-.169.314.112.35.294.672.433 1.012.077.148.118.322.22.452.121.067.339.008.376-.13-.025-.144-.099-.277-.145-.416a7.9 7.9 0 0 0-.54-1.126.275.275 0 0 0-.143-.105h-.032zm-1.427.731-1.352.717.93 1.597 1.307-.771zm20.467 0-.86 1.632 1.166.639 1.042-1.557zM18.011 12.48c-.134.056-.352.17-.246.348.168.303.38.58.578.863.134.163.25.358.43.473.176.092.341-.137.25-.292-.184-.348-.428-.66-.662-.974-.115-.14-.22-.293-.35-.418zm25.319 0c-.26.261-.457.576-.68.868-.134.186-.264.376-.384.571-.048.168.203.379.335.23.365-.418.696-.868.995-1.336.077-.17-.137-.285-.266-.333zm-27.087 1.434c-.13.055-.309.196-.219.353.158.255.377.466.568.695.183.2.36.41.564.585.173.004.341-.242.208-.393a13.504 13.504 0 0 0-1.098-1.231zm28.855.003c-.18.126-.306.314-.462.466-.242.272-.495.539-.7.84-.054.147.104.335.253.317.16-.118.278-.291.423-.43.244-.267.49-.536.708-.823.087-.167-.079-.317-.222-.37zm-30.5 1.639c-.162.036-.288.256-.125.375.3.318.626.612.952.903.124.11.348.35.464.1.131-.174-.038-.352-.173-.455-.322-.304-.643-.613-.998-.878a.363.363 0 0 0-.12-.045zm32.146 0c-.248.078-.41.298-.609.452-.24.222-.497.432-.71.68-.067.138.046.378.208.364.127-.08.233-.191.352-.284.326-.284.646-.578.939-.896.077-.133-.054-.282-.18-.316zm-33.529 1.77c-.014 0-.04.013-.04 0-.122.031-.31.187-.202.314.418.35.853.688 1.319.975.159.125.442-.139.297-.292-.202-.227-.472-.377-.707-.567-.212-.152-.418-.324-.66-.425 0-.005-.003-.007-.007-.007zm34.951 0c-.259.054-.444.263-.663.398-.26.195-.534.378-.768.604-.102.172.156.419.319.283.456-.314.915-.63 1.339-.987.09-.14-.122-.259-.227-.299zm-36 1.328-.745 1.366 1.545.884.852-1.268zm37.01 0-1.649.98.754 1.244 1.59-.849zM10.85 21.17c-.142.117-.194.388.022.456.434.254.9.448 1.35.667.187.104.324-.141.321-.298-.07-.151-.29-.151-.42-.248-.42-.201-.842-.4-1.273-.577zm39.675.042c-.341.082-.655.246-.98.373a7.847 7.847 0 0 0-.73.349c-.057.141.053.315.18.375.19-.012.35-.154.53-.21.353-.158.709-.313 1.039-.514.114-.1.06-.284-.039-.373zM10.084 23.38c-.135-.011-.254.157-.154.271.123.13.311.17.471.241.358.126.717.264 1.092.33.174.037.34-.202.212-.338-.392-.198-.823-.305-1.241-.435a2.073 2.073 0 0 0-.38-.07zm41.144.005c-.463.054-.895.244-1.335.39-.153.044-.39.152-.264.346.067.224.304.096.449.044.43-.132.87-.252 1.273-.455.149-.076.11-.333-.07-.325h-.026zM9.43 25.552c-.171.07-.165.385.04.403.376.113.764.176 1.147.259.152.02.314.063.464.02.122-.063.224-.306.06-.375-.146-.035-.292-.063-.438-.098-.42-.089-.844-.17-1.273-.209Zm42.481 0c-.53.047-1.05.16-1.569.275-.213-.018-.296.21-.148.354.1.154.294.052.436.038.427-.077.856-.154 1.274-.266.147-.07.189-.356.008-.401zM8.977 27.75c.014.147-.06.386.142.43.274.057.556.065.832.112.27.034.548.066.817.01.18-.067.147-.355-.054-.36-.463-.097-.937-.114-1.406-.162l-.33-.03zm43.387 0c-.588.062-1.183.077-1.762.2-.165.022-.216.234-.102.343.133.092.31.023.463.036.423-.023.844-.081 1.263-.143.19-.064.131-.286.138-.436zm-43.47 1.695v1.588h1.839v-1.588zm41.714 0v1.588h1.84v-1.588zm.102 2.725c-.127.005-.257.04-.261.193.003.202.247.182.388.203.46.045.917.153 1.38.124.178.01.186-.244.1-.343-.155-.112-.36-.08-.539-.116-.314-.033-.63-.05-.946-.058-.037-.003-.08-.004-.122-.003zm-40.202.003c-.47.018-.943.036-1.406.124-.167.058-.14.286-.109.419.143.017.294-.03.442-.03.439-.038.882-.063 1.313-.156.15-.028.195-.245.062-.322-.092-.05-.203-.03-.302-.035zm39.837 2.052c-.164-.008-.31.232-.151.341.205.114.446.144.671.206.31.062.62.148.937.154.177.013.28-.213.184-.35-.247-.138-.538-.145-.807-.214-.266-.052-.531-.109-.801-.131a.15.15 0 0 0-.033-.006zm-39.346.003-.035.004c-.491.045-.97.178-1.453.262-.221.037-.292.414-.045.459.207-.006.408-.075.613-.108.343-.07.69-.135 1.021-.253.19-.066.114-.345-.066-.36zm38.746 1.989c-.114.081-.229.295-.073.391.25.135.53.205.795.307.244.082.494.165.752.187.17.017.29-.216.144-.324-.197-.125-.43-.182-.646-.264-.322-.105-.645-.21-.972-.297zm-38.135.031c-.493.086-.969.254-1.434.435-.164.046-.378.2-.231.383.16.146.394-.012.575-.044.389-.126.784-.239 1.157-.408.139-.083.07-.33-.067-.366zm.717 1.948c-.32.062-.595.248-.892.37-.228.111-.464.214-.67.364-.095.112-.02.349.13.365.153-.044.29-.135.442-.189.394-.18.787-.368 1.168-.575.113-.102-.054-.336-.178-.335zm36.725.003c-.013 0-.039.012-.039 0-.137.01-.283.226-.176.333.135.1.295.161.442.243.377.183.76.362 1.156.495.147-.008.249-.237.147-.346-.188-.163-.432-.24-.65-.355-.285-.133-.57-.274-.872-.365 0-.004-.003-.006-.008-.006zM13.02 39.563l-1.577.894.824 1.31 1.548-.917zm35.304 0-.77 1.22 1.59 1.026.724-1.369zm-33.88 2.3c-.27.03-.468.237-.689.375-.271.197-.552.389-.8.613-.055.15.119.305.251.33.153-.023.245-.168.374-.24.34-.253.7-.488 1-.788.076-.117-.003-.268-.136-.29zm32.48.003c-.283.02-.189.377.014.45.336.288.699.544 1.068.786.149.116.35.005.403-.155-.004-.17-.229-.218-.329-.337-.335-.259-.673-.521-1.05-.715a.477.477 0 0 0-.106-.03zm-31.156 1.55c-.285.151-.505.396-.749.603-.21.2-.432.392-.612.618-.065.168.157.363.312.252.355-.275.682-.586 1.012-.892.143-.113.32-.32.122-.475a2.934 2.934 0 0 0-.085-.106zm29.832.02c-.12.059-.28.229-.188.363.231.236.483.454.727.677.187.146.349.345.566.439.188.014.338-.24.166-.37-.384-.372-.763-.754-1.193-1.076l-.037-.02zm-1.435 1.493c-.136.053-.308.204-.205.36.168.261.389.484.588.721.174.184.332.39.526.551.14.017.294-.166.264-.303-.114-.23-.314-.403-.474-.602a11.16 11.16 0 0 0-.677-.718l-.022-.009zm-26.985.003c-.209.158-.366.372-.551.555-.217.24-.445.473-.628.739-.051.15.109.32.25.331.182-.102.293-.3.447-.44.24-.271.492-.537.698-.835.083-.165-.083-.292-.216-.35zm1.688 1.364c-.236.054-.35.296-.497.464a9.36 9.36 0 0 0-.619.92c-.066.162.14.338.292.287.175-.141.28-.363.433-.532.195-.27.404-.534.55-.833a.216.216 0 0 0-.16-.306zm23.608 0c-.188.028-.229.267-.113.396.198.356.458.673.7 1 .094.093.16.263.288.291.146-.02.321-.173.228-.329a11.799 11.799 0 0 0-.65-.955c-.133-.144-.245-.364-.453-.403zm-22.416.904-.919 1.526 1.235.73.958-1.525zm21.211.01-1.254.666.897 1.634 1.249-.782zm-2.435 1.198c-.153.008-.255.175-.17.314.113.35.294.673.433 1.012.077.148.118.322.22.453.121.067.339.008.376-.131-.026-.144-.098-.276-.145-.415a7.895 7.895 0 0 0-.537-1.12c-.037-.05-.085-.099-.146-.112h-.031zm-16.36 0c-.175.06-.222.264-.313.406-.196.387-.354.79-.538 1.182-.02.18.246.213.376.208.119-.102.144-.275.223-.407.183-.408.352-.824.488-1.25-.017-.11-.15-.122-.235-.139zm1.886.685c-.129.182-.171.407-.252.613-.122.367-.226.74-.309 1.119-.014.21.32.259.362.047.193-.384.297-.804.433-1.21.03-.144.129-.337-.018-.45a.755.755 0 0 0-.216-.12zm12.62 0c-.147.052-.34.162-.288.35.08.348.205.686.316 1.026.088.176.11.423.287.53.203.075.293-.171.212-.325a10.104 10.104 0 0 0-.48-1.515c.01-.035-.048-.039-.048-.066zm-10.584.586c-.11.135-.123.32-.18.48-.112.428-.209.862-.242 1.302.043.196.354.176.416 0 .058-.198.09-.405.138-.606.065-.313.136-.627.165-.945-.011-.146-.166-.223-.297-.231zm8.547 0c-.152.01-.333.118-.288.294.035.366.129.724.2 1.084.056.163.031.372.165.495.153.128.412-.003.338-.208a8.064 8.064 0 0 0-.353-1.568.224.224 0 0 0-.062-.097zm-2.172.345c-.167.01-.185.238-.165.372.015.47.03.944.122 1.405.04.18.297.147.41.115.03-.196-.034-.394-.031-.592-.035-.39-.05-.785-.144-1.166-.022-.067-.075-.144-.156-.133-.013 0-.024-.003-.036 0zm-4.238 0c-.172.006-.179.22-.204.348-.077.498-.09 1.003-.145 1.501.05.126.304.073.395-.008.065-.125.055-.278.082-.415.048-.416.087-.835.074-1.253-.004-.11-.098-.179-.202-.173zm1.343.154v1.84h1.588v-1.84z" style="fill:#000;stroke-width:.31595522"/><path d="M31.005 4.09c-10.912-.227-21.366 7.184-24.95 17.464-3.553 9.652-.907 21.282 6.711 28.256 7.951 7.822 21.017 9.526 30.764 4.145 8.736-4.59 14.446-14.366 13.954-24.251-.14-10.844-7.787-20.978-18.077-24.293-2.7-.914-5.555-1.327-8.402-1.32Zm-.336 1.514c9.621-.182 18.945 5.965 22.642 14.843 4.153 9.189 1.785 20.744-5.584 27.611-7.182 7.118-18.88 8.913-27.893 4.358C11.059 48.237 5.31 38.511 6.05 28.795 6.469 18.889 13.559 9.7 23.042 6.789c2.46-.798 5.033-1.272 7.627-1.185z" style="fill:url(#c);fill-opacity:1;stroke-width:.31595522"/><path d="M30.669 5.604c-10.193-.215-20.006 6.746-23.252 16.4-3.285 8.922-.756 19.622 6.229 26.092 7.466 7.355 19.788 8.986 28.895 3.783 8.982-4.805 14.274-15.545 12.49-25.59-1.438-9.362-8.709-17.526-17.923-19.85-2.097-.6-4.258-.898-6.44-.835Zm.003 2.237c8.749-.165 17.226 5.424 20.589 13.497 3.775 8.354 1.623 18.861-5.078 25.106-6.53 6.472-17.168 8.104-25.363 3.963-7.98-3.8-13.206-12.645-12.534-21.48.382-9.12 6.993-17.558 15.764-20.107 2.144-.669 4.37-1.053 6.622-.98z" style="fill:url(#d);fill-opacity:1;stroke-width:.31595522"/><path d="M30.356 29.975V15.584" style="opacity:1;vector-effect:none;fill:#000;fill-opacity:1;stroke:#000;stroke-width:.8359648;stroke-linecap:round;stroke-linejoin:miter;stroke-miterlimit:4;stroke-dasharray:none;stroke-dashoffset:0;stroke-opacity:1"/><path d="m30.356 30.107 8.854 5.111" style="fill:#000;stroke:#000;stroke-width:.8359648;stroke-linecap:round;stroke-linejoin:miter;stroke-miterlimit:4;stroke-dasharray:none;stroke-opacity:1"/><circle cx="30.356" cy="29.975" r="1.005" style="opacity:1;vector-effect:none;fill:#fff;fill-opacity:1;stroke:#000;stroke-width:.4179824;stroke-linecap:round;stroke-linejoin:miter;stroke-miterlimit:4;stroke-dasharray:none;stroke-dashoffset:0;stroke-opacity:1"/><path d="M32.77 39.661c-.001.349-.055.727-.295.996-.297.325-.892.291-1.138-.078-.198-.277-.23-.632-.23-.963.006-.342.072-.711.32-.965a.747.747 0 0 1 1.047.018c.24.269.295.645.295.992zm-.506 0c-.008-.24-.002-.504-.147-.708-.107-.119-.332-.093-.393.06-.12.222-.105.483-.11.727.005.21.018.436.135.618.089.115.284.126.372.004.114-.143.12-.336.138-.51.003-.064.005-.127.005-.19zm-3.326-1.04.496-.08v.522h.595v.417h-.595c.005.252-.011.505.01.756.013.118.111.22.234.21.12.01.239-.014.35-.055l.07.39c-.262.108-.57.13-.836.024a.574.574 0 0 1-.31-.489c-.028-.254-.006-.51-.014-.764v-.93zm-.448 2.211h-.496v-1.77h.496v1.77zm.046-2.28c.016.185-.186.336-.362.29a.29.29 0 0 1-.23-.315.293.293 0 0 1 .318-.272c.15.012.286.14.274.296zm-2.502.571c.318-.08.65-.13.978-.08.195.035.386.157.457.35.103.25.067.525.074.789v.65h-.495c-.004-.362.008-.725-.008-1.087-.008-.108-.045-.239-.16-.275-.11-.04-.227-.013-.339-.005-.027.059-.006.126-.012.19v1.177h-.495v-1.709zm-2.024.838c-.01-.32.13-.66.414-.83a.864.864 0 0 1 .922.034c.19.142.283.378.299.608.01.113.007.227-.003.34h-1.124c.013.19.201.32.38.329.195.021.396-.009.578-.078.022.04.018.093.03.14l.043.264a1.71 1.71 0 0 1-.612.112c-.278.003-.575-.089-.75-.316a.985.985 0 0 1-.177-.603zm1.163-.192c-.001-.148-.094-.31-.25-.334-.153-.033-.334.053-.373.211-.036.055-.048.15.043.123h.58zm-2.982.124c-.005-.136-.002-.295-.11-.396a.38.38 0 0 0-.356-.013v1.348h-.495v-1.709c.312-.072.64-.14.958-.073.107.006.202.133.288.12.278-.184.673-.21.949-.009.198.167.223.445.22.686.004.329 0 .657.001.985h-.495c-.005-.372.011-.745-.01-1.117-.007-.136-.106-.28-.256-.264-.12-.01-.287.057-.211.202.026.245.006.493.012.739v.44h-.495v-.939zm9.864-4.985c-.186.253-.39.5-.522.787h.522v-.787zm.485-.612v1.4h.246v.41h-.246v.52h-.485v-.52h-.994v-.367c.265-.515.592-1 .989-1.422.076-.047.172-.008.256-.021h.234zm-4.014 1.392c-.004-.136 0-.295-.109-.396a.38.38 0 0 0-.356-.013v1.348h-.495v-1.71c.312-.072.64-.139.958-.072.107.006.202.133.288.119.278-.183.673-.208.949-.008.198.166.223.445.22.686.004.329 0 .657.001.985h-.495c-.005-.372.011-.746-.01-1.117-.007-.136-.106-.28-.256-.264-.12-.011-.287.057-.211.202.025.245.006.492.012.739v.44h-.495v-.939zm-2.13.589c.078-.021.214.043.247-.056v-.338c-.158-.024-.337-.044-.479.046-.104.09-.072.296.07.327.052.017.108.02.163.021zm-.04-1.467c.214-.001.45.036.603.2.146.157.162.385.16.59l-.001.976c-.363.075-.743.132-1.109.047-.174-.045-.335-.175-.374-.357-.05-.191-.026-.426.131-.563.182-.158.437-.182.667-.174.068-.005.162.033.21.017.01-.12-.045-.268-.175-.296-.167-.047-.342-.014-.509.014-.083.051-.156.01-.14-.086l-.044-.284c.19-.053.386-.08.582-.084zm-1.75 2.44c-.1-.02-.315.03-.298-.13.05-.089-.017-.315.114-.308.116.032.289.023.326-.116.039-.188.013-.38.02-.57v-1.269h.495c-.003.61.006 1.22-.004 1.83-.014.236-.164.478-.406.53a.906.906 0 0 1-.248.032zm.704-2.904c.017.204-.222.356-.404.28-.202-.065-.257-.36-.099-.496.133-.135.382-.095.47.072a.252.252 0 0 1 .033.144z" style="fill:red;fill-opacity:1;stroke:none;stroke-width:.08359647"/></svg>