<svg xmlns="http://www.w3.org/2000/svg" xmlns:xlink="http://www.w3.org/1999/xlink" width="200" height="199.901" viewBox="0 0 52.917 52.89"><defs><linearGradient xlink:href="#a" id="d" x1="-4535.859" x2="-3945.779" y1="16750.615" y2="16750.615" gradientTransform="matrix(.08344 0 0 .08344 379.997 -1371.537)" gradientUnits="userSpaceOnUse"/><linearGradient id="a"><stop offset="0" style="stop-color:#338000;stop-opacity:1"/><stop offset="1" style="stop-color:#9f5;stop-opacity:1"/></linearGradient><linearGradient xlink:href="#b" id="c" x1="-4553.898" x2="-3920.205" y1="16754.506" y2="16754.506" gradientTransform="matrix(.08344 0 0 .08344 379.997 -1371.537)" gradientUnits="userSpaceOnUse"/><linearGradient id="b"><stop offset="0" style="stop-color:#9f5;stop-opacity:1"/><stop offset="1" style="stop-color:#338000;stop-opacity:1"/></linearGradient></defs><path d="M25.331 4.37v1.836h1.586V4.37zm-1.45.078c-.012 0-.023.004-.034.005-.069 0-.138.003-.206 0 .056.6.079 1.204.19 1.798.035.103.172.14.263.09.094-.036.098-.151.097-.236a9.896 9.896 0 0 0-.045-.97c-.02-.189-.039-.378-.077-.564a.198.198 0 0 0-.188-.123zm4.65 0c-.049.004-.108.014-.135.004-.26-.03-.247.307-.268.481-.045.434-.129.871-.105 1.309.116.248.452.097.42-.153.096-.524.106-1.06.16-1.59.014-.046-.024-.052-.072-.05zm-6.922.336c-.168-.003-.203.21-.149.344.063.472.157.94.297 1.395.038.223.352.195.384-.015-.02-.43-.136-.852-.216-1.274-.043-.145-.025-.354-.187-.425a.297.297 0 0 0-.093-.021.14.14 0 0 0-.036-.004zm9.039 0c-.015 0-.03 0-.045.003-.188-.004-.248.204-.26.356-.095.44-.203.88-.25 1.328.006.149.225.3.343.177.071-.176.115-.364.166-.548.09-.369.17-.742.209-1.12a.17.17 0 0 0-.163-.195zM19.43 5.37c-.183.017-.167.283-.12.418.117.484.279.956.467 1.415.07.163.289-.026.334-.132.03-.183-.068-.357-.11-.53-.122-.37-.218-.753-.412-1.093-.027-.04-.07-.074-.12-.078h-.04zm13.347 0c-.18.05-.204.27-.277.414-.141.377-.266.762-.368 1.15-.045.17.108.306.259.336.159-.061.15-.302.23-.444.144-.412.266-.833.357-1.26.01-.112-.092-.205-.201-.196zm2.105.817c-.19.082-.245.304-.342.47-.19.389-.361.786-.53 1.185.106.09.28.186.414.123.135-.16.182-.38.284-.563.151-.343.279-.697.408-1.047.003-.116-.14-.16-.234-.168zm-17.549.003c-.152.008-.253.175-.169.313.112.35.293.672.433 1.01.076.149.117.322.22.452.12.067.337.008.375-.13-.026-.144-.1-.276-.146-.415a7.884 7.884 0 0 0-.539-1.124.275.275 0 0 0-.143-.105h-.03zm-1.424.73-1.35.715.928 1.595 1.305-.77zm20.429 0-.86 1.629 1.164.637 1.04-1.554zm-22.85 1.459c-.135.056-.352.17-.246.347.167.303.379.579.576.862.135.163.25.358.43.472.176.092.34-.137.248-.292-.182-.347-.426-.658-.66-.972-.114-.14-.218-.292-.349-.417zm25.27 0c-.259.26-.456.575-.679.866-.133.186-.262.376-.383.57-.047.168.203.378.335.23.364-.417.694-.866.993-1.333.077-.17-.137-.285-.265-.333zM11.725 9.809c-.13.055-.309.196-.22.353.158.254.377.465.568.694.182.198.358.41.563.584.172.003.34-.243.208-.393a13.479 13.479 0 0 0-1.097-1.229zm28.8.004c-.18.126-.305.313-.461.465-.242.271-.494.538-.698.838-.054.147.104.334.252.317.16-.118.278-.291.422-.43.244-.266.488-.534.707-.821.086-.167-.079-.317-.222-.37zm-30.443 1.635c-.161.036-.287.256-.124.375.3.317.624.61.95.901.123.11.347.349.463.1.131-.174-.037-.351-.172-.454-.322-.303-.642-.612-.997-.876a.363.363 0 0 0-.12-.046zm32.086 0c-.247.078-.41.298-.608.452-.24.22-.496.43-.708.679-.067.137.046.377.208.362.126-.08.232-.19.35-.282.326-.284.646-.578.937-.896.078-.132-.053-.28-.179-.314zM8.701 13.215c-.013 0-.04.014-.04 0-.122.032-.31.188-.202.314.418.35.852.687 1.317.973.159.125.44-.138.297-.291-.202-.226-.472-.376-.707-.566-.211-.151-.416-.323-.657-.424 0-.005-.004-.007-.008-.007zm34.886 0c-.259.055-.444.263-.662.399-.26.194-.533.377-.767.602-.101.172.156.418.318.282.456-.313.914-.627 1.337-.985.09-.139-.122-.258-.226-.298zM7.653 14.541l-.742 1.363 1.542.883.85-1.267zm36.942 0-1.646.977.752 1.243 1.588-.848zM6.34 17.053c-.14.117-.193.387.023.455.433.254.897.447 1.348.666.186.103.322-.141.32-.298-.071-.15-.29-.15-.42-.247-.42-.201-.84-.399-1.27-.576zm39.601.042c-.34.081-.653.245-.978.372a7.832 7.832 0 0 0-.728.348c-.057.141.052.314.179.375.19-.013.349-.154.53-.21.351-.158.707-.312 1.036-.513.113-.1.06-.284-.039-.372zM5.576 19.259c-.134-.011-.254.157-.154.27.123.13.31.17.47.241.358.125.716.263 1.09.329.174.037.34-.201.212-.337-.391-.197-.822-.305-1.24-.435a2.07 2.07 0 0 0-.378-.068zm41.067.004c-.463.055-.894.244-1.332.39-.153.044-.39.151-.265.345.067.223.304.096.449.044.429-.131.868-.251 1.27-.454.149-.076.111-.332-.069-.324h-.027zm-41.72 2.164c-.17.07-.164.384.04.402.375.113.763.176 1.145.258.152.02.314.063.463.02.122-.062.223-.305.06-.374-.145-.034-.292-.063-.437-.098-.42-.088-.843-.17-1.27-.208zm42.402 0c-.529.047-1.05.16-1.566.274-.213-.018-.296.209-.149.353.1.155.294.052.436.038.426-.076.854-.153 1.272-.265.146-.07.188-.355.007-.4zM4.47 23.62c.014.146-.06.384.142.429.273.057.555.064.83.111.27.034.547.067.816.01.18-.067.147-.354-.055-.36-.46-.096-.935-.113-1.403-.16l-.33-.03zm43.306 0c-.587.061-1.18.076-1.76.199-.164.022-.214.234-.1.343.132.091.309.023.46.035.424-.022.844-.08 1.262-.142.19-.065.131-.286.138-.435zM4.388 25.312v1.585h1.836v-1.585zm41.636 0v1.585h1.836v-1.585zm.102 2.72c-.127.005-.257.04-.261.193.003.202.247.181.388.203.458.045.915.153 1.378.123.177.01.185-.244.098-.342-.154-.112-.359-.08-.537-.116a11.99 11.99 0 0 0-.945-.058c-.037-.003-.079-.004-.12-.003zM6 28.036c-.47.017-.942.036-1.405.123-.165.058-.138.286-.108.418.143.017.293-.029.44-.029.44-.039.881-.064 1.312-.156.15-.029.195-.245.062-.322-.092-.05-.203-.029-.301-.034zm39.761 2.048c-.163-.009-.309.231-.15.34.205.114.445.143.67.205.309.062.618.149.934.154.177.013.28-.213.184-.35-.246-.137-.537-.144-.805-.212-.265-.053-.53-.11-.8-.132a.15.15 0 0 0-.033-.006zm-39.271.003-.036.003c-.49.045-.967.178-1.45.262-.22.037-.29.413-.045.458.207-.006.407-.075.612-.107.342-.07.689-.136 1.02-.253.19-.067.113-.344-.067-.36zm38.672 1.984c-.113.082-.228.295-.072.391.25.135.529.205.793.307.244.081.494.164.751.186.17.017.29-.215.144-.324-.197-.124-.429-.181-.646-.263-.321-.105-.643-.21-.97-.297zM7.1 32.103c-.492.086-.967.253-1.431.433-.164.047-.377.201-.231.383.16.146.393-.012.574-.044.388-.125.783-.238 1.155-.407.138-.083.07-.329-.067-.365zm.716 1.944c-.319.062-.594.247-.891.37-.227.11-.463.213-.668.362-.096.112-.02.349.129.365.153-.044.29-.135.441-.189.394-.18.786-.367 1.167-.574.112-.101-.054-.335-.178-.334zm36.656.003c-.013 0-.04.012-.039 0-.137.01-.282.226-.176.333.135.099.295.16.442.242.376.182.758.361 1.154.494.146-.008.248-.236.147-.346-.188-.162-.432-.238-.65-.354-.284-.132-.569-.273-.87-.364 0-.004-.004-.006-.008-.006zM8.506 35.41l-1.574.893.821 1.308 1.546-.916zm35.237 0-.769 1.218 1.588 1.024.722-1.366zM9.926 37.706c-.268.031-.467.238-.686.375-.271.197-.552.388-.8.612-.055.15.119.304.251.33.153-.024.245-.168.373-.24.34-.252.7-.487.999-.786.075-.118-.003-.268-.137-.29zm32.42.004c-.282.02-.188.377.014.45.335.287.697.542 1.066.784.148.116.348.005.402-.155-.003-.17-.228-.217-.328-.337-.334-.257-.672-.52-1.048-.713a.477.477 0 0 0-.106-.03zm-31.098 1.547c-.284.151-.504.396-.747.602-.21.2-.431.39-.61.617-.066.167.156.362.31.251.355-.274.681-.585 1.01-.89.143-.112.32-.32.123-.474a2.926 2.926 0 0 0-.086-.106zm29.777.02c-.12.059-.28.229-.188.363.23.235.482.452.725.675.186.145.348.344.565.438.188.014.338-.24.166-.368-.383-.372-.762-.754-1.19-1.075l-.038-.02zm-1.433 1.49c-.136.053-.308.204-.204.36.167.26.387.483.586.72.174.183.332.388.525.55.14.016.294-.167.264-.303-.114-.23-.314-.403-.473-.6a11.14 11.14 0 0 0-.676-.718l-.022-.008zm-26.934.004c-.209.157-.366.37-.55.553-.217.239-.444.472-.627.738-.051.15.108.32.249.33.182-.101.293-.299.446-.44.24-.27.492-.535.697-.833.083-.164-.082-.29-.215-.348zm1.684 1.36c-.235.054-.348.296-.496.464a9.343 9.343 0 0 0-.617.919c-.066.16.138.336.291.286.174-.141.279-.363.432-.532.194-.268.404-.532.55-.831a.216.216 0 0 0-.16-.305zm23.564 0c-.188.028-.228.267-.113.396.198.356.457.672.698.999.095.092.16.261.289.29.145-.02.32-.173.227-.328-.195-.331-.422-.644-.648-.954-.134-.144-.245-.364-.453-.402zm-22.373.903-.918 1.524 1.233.728.956-1.522zm21.17.01-1.251.665.896 1.63 1.246-.78zm-2.43 1.196c-.152.008-.254.174-.17.313.113.35.294.672.433 1.01.077.148.117.322.22.452.12.067.337.008.375-.13-.026-.144-.099-.276-.145-.415a7.88 7.88 0 0 0-.536-1.118c-.037-.049-.085-.098-.146-.111h-.031zm-16.329 0c-.175.06-.222.263-.312.405-.196.386-.354.789-.538 1.18-.02.179.246.212.376.207.118-.101.143-.274.222-.406.183-.408.352-.822.487-1.248-.017-.109-.149-.121-.235-.138zm1.882.683c-.128.182-.17.407-.251.612-.122.367-.226.74-.308 1.117-.015.209.318.258.361.047.192-.383.296-.802.432-1.207.029-.144.128-.337-.018-.45a.754.754 0 0 0-.216-.119zm12.596 0c-.147.052-.34.162-.287.35.079.348.204.685.316 1.024.088.175.109.422.286.53.203.074.292-.172.211-.325a10.081 10.081 0 0 0-.479-1.513c.011-.035-.047-.039-.047-.066zm-10.563.585c-.111.135-.124.32-.18.48-.112.426-.209.86-.242 1.3.044.195.354.175.416 0 .057-.199.088-.405.138-.606.064-.312.134-.626.164-.943-.011-.146-.166-.222-.296-.23zm8.53 0c-.151.01-.332.118-.287.294.035.365.128.722.199 1.082.056.162.032.371.165.494.153.128.412-.003.338-.208a8.048 8.048 0 0 0-.353-1.564.223.223 0 0 0-.062-.098zm-2.167.345c-.168.01-.186.237-.165.371.015.469.03.942.122 1.403.04.178.296.146.41.114.029-.196-.035-.393-.032-.59-.035-.39-.05-.785-.144-1.165-.022-.067-.075-.143-.156-.132-.012 0-.024-.003-.035 0zm-4.231 0c-.172.006-.178.22-.203.348-.077.496-.09 1-.145 1.498.05.125.304.072.394-.008.065-.126.055-.278.083-.415.047-.415.086-.833.073-1.25-.004-.11-.098-.179-.202-.173zm1.34.154v1.836h1.586v-1.836Zm2.033-39.085c-.36.01-.716.15-.983.392.04.174.193.414.34.452.226-.204.575-.364.869-.208.218.163.141.492-.036.656-.34.42-.858.708-1.053 1.235-.047.181-.146.51-.018.626h2.008V9.52c-.415 0-.83-.004-1.247.003-.11-.13.165-.264.23-.383.333-.34.756-.644.894-1.124.103-.37-.049-.839-.43-.983a1.388 1.388 0 0 0-.574-.111ZM25 6.996c-.286.287-.647.485-1.018.64.101.167.1.592.4.441.138-.022.34-.224.418-.186v2.184h.662V6.996ZM15.969 9.3c-.235.328-.83.46-.98.705.03.268.203.58.492.316.183-.166.35-.14.288.108v1.949h.662V9.3Zm2.525 0c-.235.328-.831.46-.98.705.03.268.203.58.492.316.183-.166.35-.14.288.108v1.949h.662V9.3Zm15.77 0c-.285.286-.646.485-1.017.64l.2.51c.215-.075.428-.161.618-.289v2.217h.662V9.3Zm6.318 6.18a1.47 1.47 0 0 0-.752.195c-.266.07-.35.308-.135.49.159.373.396-.1.664-.097.307-.113.647.178.496.493-.208.394-.61.634-.894.97a1.313 1.313 0 0 0-.361 1.103h2.052v-.556c-.424 0-.848.004-1.271-.003-.056-.118.243-.349.359-.48.35-.343.799-.7.819-1.231.005-.234-.071-.48-.246-.641a1.214 1.214 0 0 0-.73-.243zm-28.167.074c-.055 0-.11.003-.166.011-.506.057-.83.543-.912 1.011-.086.541-.09 1.13.154 1.632.228.534.952.719 1.433.42.478-.312.585-.936.582-1.467-.004-.338-.038-.686-.186-.995a1.004 1.004 0 0 0-.905-.612zm-2.478.074c-.285.287-.646.485-1.017.64l.185.473c.17.045.449-.152.632-.251v2.217h.662v-3.08zm2.474.496a.3.3 0 0 1 .137.037c.3.226.263.662.283 1 0 .052 0 .105-.004.157-.024.29-.01.678-.29.849-.31.154-.524-.216-.541-.481-.043-.391-.063-.797.031-1.183.028-.195.19-.385.384-.38zm30.449 7.922a1.737 1.737 0 0 0-.772.175c-.244.046-.135.2-.061.355.074.348.34.078.564.047.265-.083.655.053.604.385-.081.359-.518.305-.798.305v.375c-.048.258.332.13.483.172.363-.016.593.464.31.714-.285.186-.659.143-.971.052-.306-.204-.302.23-.353.432.193.168.598.185.886.205.203.001.41-.02.602-.088.516-.137.775-.773.555-1.245-.055-.199-.293-.312-.394-.42.434-.244.445-.908.086-1.222a1.225 1.225 0 0 0-.741-.242zm-34.25.093a1.284 1.284 0 0 0-.39.072c-.679.248-.885 1.286-.315 1.747a1.29 1.29 0 0 0 1.157.115.954.954 0 0 1-.06.15c-.174.387-.624.514-1.014.524-.312-.035-.109.373-.15.557.295-.004.592-.031.874-.12.477-.132.865-.52.988-1 .12-.493.143-1.047-.09-1.511-.183-.377-.597-.547-1-.534Zm.07.55c.257.014.428.302.425.553.117.266-.109.457-.367.4a.761.761 0 0 1-.283-.047c-.345-.175-.279-.812.109-.895a.386.386 0 0 1 .116-.011zm2.29 8.024a1.169 1.169 0 0 0-.181.027c-.448.07-.813.501-.764.96-.06.278.343.447.309.652-.343.239-.496.738-.266 1.104.25.44.827.526 1.284.44.439-.045.813-.445.788-.892a.69.69 0 0 0-.019-.195c-.005-.276-.365-.414-.399-.606a.811.811 0 0 0 .305-.895c-.139-.435-.624-.628-1.057-.595zm30.196.05a1.226 1.226 0 0 0-.302.024 8.122 8.122 0 0 0-1.33 1.884v.484h1.328v.688h.648v-.688h.329v-.542h-.329v-1.848h-.038c-.1.005-.204-.001-.306-.003zm-30.1.484c.179.01.353.12.36.322a.524.524 0 0 1-.229.444c-.257.087-.56-.219-.524-.482.028-.202.213-.293.393-.284zm29.796.326v1.04h-.698c.177-.38.449-.705.698-1.04zm-29.902.966c.03.004.063.014.096.034.228.076.499.269.425.544-.115.415-.86.352-.878-.087-.003-.184.142-.514.357-.49zm22.711 4.556c-.026.53-.06 1.061-.122 1.589.117.12.48.02.689.102.254.027.568.184.549.482.003.27-.265.4-.5.408-.272.025-.535-.047-.788-.12-.052.15-.182.396-.078.551.465.134.982.21 1.443.02.478-.163.695-.744.539-1.204-.13-.443-.607-.641-1.028-.685-.329.022-.113-.39-.148-.587h1.11v-.556zm-17.524.024v.564h1.337a3.653 3.653 0 0 0-.204.327 5.774 5.774 0 0 0-.693 2.192h.67a3.98 3.98 0 0 1 .162-.878c.192-.619.458-1.23.883-1.725v-.48zm10.502 2.266a.16.16 0 0 0-.082.003c-.645.024-1.337.319-1.618.936-.24.515-.27 1.146-.034 1.668.207.46.771.635 1.236.526.59-.102.938-.78.772-1.335-.1-.455-.596-.686-1.028-.663-.083-.056-.414.161-.354-.02.219-.428.733-.57 1.18-.574.018-.145.084-.501-.072-.541zm-.932 1.644c.03 0 .062.001.093.007.054 0 .107.003.16.013.44.07.443.79.04.923-.341.137-.586-.25-.576-.551-.091-.243.072-.388.283-.392z" style="fill:#000;stroke-width:.31536254"/><path d="M26.458.005C15.566-.222 5.13 7.175 1.554 17.437c-3.546 9.633-.904 21.24 6.7 28.202 7.935 7.807 20.976 9.508 30.705 4.138 8.72-4.582 14.42-14.34 13.928-24.206-.14-10.823-7.772-20.939-18.043-24.248C32.15.411 29.3-.001 26.458.005Zm-.336 1.511c9.604-.182 18.91 5.954 22.6 14.816 4.145 9.17 1.782 20.704-5.574 27.558-7.168 7.105-18.845 8.896-27.84 4.35C6.548 44.07.812 34.362 1.549 24.664 1.967 14.776 9.044 5.605 18.51 2.7c2.456-.797 5.024-1.27 7.613-1.183z" style="fill:url(#c);fill-opacity:1;stroke-width:.31536254"/><path d="M26.122 1.516C15.948 1.302 6.154 8.249 2.914 17.886-.366 26.79 2.16 37.47 9.13 43.927c7.453 7.341 19.751 8.97 28.841 3.776C46.937 42.91 52.22 32.188 50.44 22.163c-1.436-9.346-8.693-17.494-17.89-19.814-2.093-.598-4.25-.895-6.427-.833Zm.003 2.233c8.733-.165 17.194 5.414 20.55 13.471 3.769 8.34 1.62 18.826-5.068 25.06-6.518 6.46-17.136 8.088-25.315 3.955-7.964-3.793-13.181-12.62-12.51-21.439.38-9.104 6.98-17.526 15.734-20.07 2.14-.667 4.362-1.05 6.61-.977z" style="fill:url(#d);fill-opacity:1;stroke-width:.31536254"/><path d="M25.81 25.841V11.477" style="opacity:1;vector-effect:none;fill:#000;fill-opacity:1;stroke:#000;stroke-width:.83439666;stroke-linecap:round;stroke-linejoin:miter;stroke-miterlimit:4;stroke-dasharray:none;stroke-dashoffset:0;stroke-opacity:1"/><path d="m25.81 25.973 8.837 5.102" style="fill:#000;stroke:#000;stroke-width:.83439666;stroke-linecap:round;stroke-linejoin:miter;stroke-miterlimit:4;stroke-dasharray:none;stroke-opacity:1"/><circle cx="25.81" cy="25.841" r="1.003" style="opacity:1;vector-effect:none;fill:#fff;fill-opacity:1;stroke:#000;stroke-width:.41719833;stroke-linecap:round;stroke-linejoin:miter;stroke-miterlimit:4;stroke-dasharray:none;stroke-dashoffset:0;stroke-opacity:1"/></svg>