<svg xmlns="http://www.w3.org/2000/svg" xmlns:xlink="http://www.w3.org/1999/xlink" width="200" height="199.901" viewBox="0 0 52.917 52.89"><defs><linearGradient id="a"><stop offset="0" style="stop-color:#338000;stop-opacity:1"/><stop offset="1" style="stop-color:#9f5;stop-opacity:1"/></linearGradient><linearGradient id="b"><stop offset="0" style="stop-color:#9f5;stop-opacity:1"/><stop offset="1" style="stop-color:#338000;stop-opacity:1"/></linearGradient><linearGradient xlink:href="#a" id="d" x1="-4535.859" x2="-3945.779" y1="16750.615" y2="16750.615" gradientTransform="matrix(.08344 0 0 .08344 379.997 -1371.537)" gradientUnits="userSpaceOnUse"/><linearGradient xlink:href="#b" id="c" x1="-4553.898" x2="-3920.205" y1="16754.506" y2="16754.506" gradientTransform="matrix(.08344 0 0 .08344 379.997 -1371.537)" gradientUnits="userSpaceOnUse"/></defs><path d="M26.458.005C15.566-.222 5.13 7.175 1.554 17.436-1.992 27.07.65 38.678 8.254 45.64c7.935 7.807 20.976 9.508 30.705 4.138 8.72-4.582 14.42-14.34 13.928-24.206-.14-10.823-7.772-20.939-18.043-24.248C32.15.411 29.3-.001 26.458.005Zm-.336 1.51c9.604-.18 18.91 5.955 22.6 14.817 4.145 9.17 1.782 20.704-5.574 27.558-7.168 7.105-18.845 8.896-27.84 4.35C6.548 44.07.812 34.36 1.549 24.664 1.967 14.776 9.044 5.605 18.51 2.7c2.456-.797 5.024-1.27 7.613-1.183Z" style="fill:url(#c);fill-opacity:1;stroke-width:.31536257"/><path d="M26.122 1.516C15.948 1.302 6.154 8.249 2.914 17.886-.366 26.79 2.16 37.47 9.13 43.927c7.453 7.341 19.751 8.97 28.841 3.776C46.937 42.91 52.22 32.188 50.44 22.163c-1.436-9.346-8.693-17.494-17.89-19.814-2.093-.598-4.25-.895-6.427-.833Zm.003 2.232c8.733-.164 17.194 5.415 20.55 13.472 3.769 8.34 1.62 18.826-5.068 25.06-6.518 6.46-17.136 8.088-25.315 3.955-7.964-3.793-13.181-12.62-12.51-21.439.38-9.104 6.98-17.526 15.734-20.07 2.14-.667 4.362-1.05 6.61-.978Z" style="fill:url(#d);fill-opacity:1;stroke-width:.31536257"/><path d="M8.738 25.642c.258.056.484-.134.367-.4.003-.286-.22-.623-.541-.542-.388.083-.454.72-.109.895a.76.76 0 0 0 .283.047zm.324.431a1.29 1.29 0 0 1-1.157-.115c-.57-.461-.364-1.499.315-1.746.492-.177 1.145-.041 1.39.46.233.465.21 1.019.09 1.511a1.418 1.418 0 0 1-.989 1c-.281.09-.578.117-.872.12.04-.183-.163-.591.15-.556.389-.01.839-.137 1.013-.523a.956.956 0 0 0 .06-.15zm7.525 16.129a5.775 5.775 0 0 1 .693-2.192c.062-.112.13-.222.204-.327h-1.337v-.564h2.155v.48c-.424.496-.691 1.106-.883 1.724-.085.286-.143.581-.161.879h-.67zM41.56 16.364c-.02.53-.47.888-.819 1.23-.116.132-.415.362-.36.481.424.007.848.003 1.272.004v.555H39.6c-.06-.4.077-.815.361-1.104.284-.335.686-.574.894-.969.151-.315-.189-.607-.496-.493-.268-.004-.506.47-.664.098-.216-.183-.131-.421.135-.49.446-.26 1.065-.277 1.483.047.175.161.25.407.246.64zm-8.312-6.425c.371-.155.732-.353 1.018-.64h.462v3.079h-.662v-2.217c-.19.128-.403.214-.618.289l-.2-.51zm-20.832 5.614c-.055 0-.11.004-.166.012-.506.057-.83.543-.912 1.011-.086.541-.09 1.13.154 1.632.228.534.951.719 1.433.42.478-.312.585-.936.582-1.467-.004-.338-.038-.687-.186-.995a1.004 1.004 0 0 0-.905-.613zm-2.478.075c-.286.287-.646.485-1.017.64l.185.472c.17.046.449-.152.632-.25v2.217h.662v-3.08zm2.474.496a.3.3 0 0 1 .137.037c.299.226.263.662.283 1 0 .052 0 .105-.004.157-.025.29-.01.678-.29.849-.311.154-.524-.216-.541-.481-.043-.391-.063-.797.031-1.183.028-.195.19-.385.384-.38zm3.558-6.825c-.235.33-.83.46-.98.706.03.268.203.58.492.316.183-.166.35-.14.288.108v1.949h.662V9.299h-.462zm2.525 0c-.235.33-.83.46-.98.706.03.268.203.58.491.316.184-.166.35-.14.289.108v1.949h.662V9.299h-.462zm8.87-2.377c-.36.01-.716.15-.983.392.04.174.193.414.34.453.226-.204.575-.365.868-.21.218.164.142.493-.035.657-.34.42-.858.708-1.053 1.235-.047.181-.146.51-.018.626h2.009V9.52c-.416 0-.832-.004-1.248.003-.11-.13.165-.264.23-.383.333-.34.756-.644.894-1.124.104-.371-.049-.839-.43-.984-.18-.08-.38-.112-.574-.11Zm-2.366.074c-.286.287-.646.485-1.017.64.101.167.1.592.4.441.138-.022.34-.224.417-.186v2.184h.662V6.996h-.462zM12.14 35.004c.025.447-.349.846-.788.892-.457.086-1.034 0-1.284-.44-.23-.366-.077-.866.266-1.104.034-.205-.37-.374-.309-.652-.049-.459.316-.89.764-.96.468-.11 1.08.07 1.238.567a.811.811 0 0 1-.305.896c.034.192.394.33.4.606.015.063.021.13.018.195zm-1.537.026c.018.438.763.502.878.087.074-.275-.197-.469-.425-.545-.266-.152-.456.247-.453.458zm.822-1.461c-.012-.405-.696-.441-.752-.038-.036.263.267.57.525.482a.524.524 0 0 0 .227-.444zm23.362 7.699c.019-.298-.295-.455-.55-.483-.208-.08-.571.018-.688-.101.06-.528.096-1.058.123-1.589h1.665v.556h-1.11c.035.196-.18.609.148.587.421.044.899.242 1.028.685.156.46-.061 1.04-.54 1.204-.46.19-.977.114-1.442-.02-.104-.155.026-.401.078-.552.253.074.516.146.787.12.236-.007.504-.137.5-.407zm6.075-7.695c-.25.335-.52.659-.698 1.04h.698v-1.04zm.648-.808v1.848h.329v.542h-.329v.688h-.648v-.688h-1.329v-.485a8.122 8.122 0 0 1 1.33-1.884c.198-.046.407-.01.61-.021h.037zm-15.7 10.27c-.252-.041-.48.108-.376.386-.01.3.235.688.577.551.402-.132.399-.853-.04-.923a.878.878 0 0 0-.16-.013zm.085-.515c.432-.023.928.208 1.028.663.166.555-.182 1.233-.772 1.335-.465.11-1.03-.066-1.236-.526-.237-.522-.206-1.153.034-1.668.28-.617.973-.912 1.618-.936.259-.07.174.372.154.538-.447.004-.961.146-1.18.574-.06.181.27-.036.354.02zm16.857-15.257c-.288-.02-.693-.037-.886-.205.051-.202.047-.636.352-.432.313.091.687.133.973-.053.281-.25.052-.729-.31-.713-.152-.043-.532.086-.484-.172v-.375c.28 0 .717.053.799-.305.05-.333-.34-.468-.605-.385-.224.032-.49.301-.564-.047-.074-.155-.183-.31.062-.355.467-.227 1.084-.263 1.511.068.36.313.35.977-.084 1.22.1.108.338.222.393.421.22.472-.04 1.108-.555 1.245a1.793 1.793 0 0 1-.602.088zM25.332 4.37v1.836h1.585V4.37Zm-1.451.078c-.012 0-.023.004-.034.005-.069 0-.138.003-.206 0 .056.6.079 1.204.19 1.797.035.104.172.14.263.09.094-.035.098-.15.097-.235a9.896 9.896 0 0 0-.045-.97c-.02-.189-.039-.379-.077-.564a.197.197 0 0 0-.188-.123zm4.65 0c-.049.004-.108.014-.135.004-.26-.03-.247.307-.268.48-.045.435-.129.872-.105 1.31.116.248.452.097.42-.153.096-.525.106-1.06.16-1.59.014-.046-.024-.053-.072-.05zm-6.922.336c-.168-.003-.203.21-.149.344.063.471.157.94.297 1.395.038.223.352.195.384-.015-.02-.43-.136-.852-.216-1.275-.043-.144-.025-.353-.187-.424a.297.297 0 0 0-.093-.021.14.14 0 0 0-.036-.004zm9.039 0c-.015 0-.03 0-.045.003-.188-.004-.248.204-.26.356-.095.44-.203.88-.25 1.328.006.148.225.3.343.177.071-.176.115-.365.166-.548.09-.369.17-.742.209-1.12a.17.17 0 0 0-.163-.195zM19.43 5.37c-.183.017-.167.283-.12.418.117.484.279.956.467 1.415.07.163.289-.026.334-.132.03-.183-.068-.357-.11-.53-.122-.37-.218-.753-.412-1.093-.027-.04-.07-.074-.12-.078h-.04zm13.347 0c-.18.05-.204.27-.277.414-.141.377-.266.762-.368 1.15-.045.17.108.306.259.336.159-.061.15-.302.23-.444.144-.412.266-.833.357-1.26.01-.112-.092-.205-.201-.196zm2.105.817c-.19.082-.245.304-.342.47-.19.389-.361.786-.53 1.185.106.09.28.186.414.123.135-.16.182-.38.284-.563.151-.343.279-.697.408-1.047.003-.116-.14-.16-.234-.168Zm-17.549.003c-.152.008-.253.175-.169.313.112.35.293.672.433 1.01.076.149.117.322.22.452.12.067.337.008.375-.13-.026-.144-.1-.276-.146-.416a7.884 7.884 0 0 0-.539-1.123.275.275 0 0 0-.143-.105h-.03zm-1.424.73-1.35.715.928 1.595 1.305-.77zm20.429 0-.86 1.628 1.164.638 1.04-1.554Zm-22.85 1.459c-.135.056-.352.17-.246.347.167.303.379.579.576.862.135.163.25.358.43.472.176.092.34-.137.248-.292-.182-.347-.426-.658-.66-.972-.114-.14-.218-.292-.349-.417Zm25.27 0c-.259.26-.456.575-.679.866-.133.186-.262.376-.383.57-.047.168.203.378.335.23.364-.417.694-.866.993-1.333.077-.17-.137-.285-.265-.333zM11.725 9.809c-.13.055-.309.196-.22.353.158.254.377.465.568.694.182.198.358.41.563.584.172.003.34-.243.208-.393a13.479 13.479 0 0 0-1.097-1.229zm28.8.003c-.18.127-.305.314-.461.466-.242.271-.494.537-.698.838-.054.147.104.334.252.317.16-.118.278-.291.422-.43.244-.266.488-.534.707-.821.086-.167-.079-.317-.222-.37zm-30.443 1.636c-.161.036-.287.256-.124.375.3.317.624.61.95.901.123.11.347.349.463.1.131-.174-.037-.351-.172-.454-.322-.303-.642-.612-.997-.877a.363.363 0 0 0-.12-.045zm32.086 0c-.247.078-.41.298-.608.452-.24.22-.496.43-.708.679-.067.137.046.376.208.362.126-.08.232-.19.35-.282.326-.284.646-.578.937-.896.078-.132-.053-.28-.179-.315zM8.701 13.214c-.013 0-.04.014-.04 0-.122.032-.31.187-.202.314.418.35.852.687 1.317.973.159.125.44-.138.297-.291-.202-.226-.472-.377-.707-.566-.211-.151-.416-.323-.657-.424 0-.005-.004-.007-.008-.007zm34.886 0c-.259.055-.444.263-.662.398-.26.194-.533.377-.767.603-.101.172.156.418.318.282.456-.313.914-.628 1.337-.985.09-.139-.122-.258-.226-.298zM7.653 14.541l-.742 1.362 1.542.884.85-1.267zm36.942 0-1.646.977.752 1.243 1.588-.848zM6.34 17.053c-.14.117-.193.387.023.455.433.254.897.447 1.348.666.186.103.322-.141.32-.298-.071-.15-.29-.15-.42-.248-.42-.2-.84-.398-1.27-.575zm39.601.042c-.34.081-.653.245-.978.372a7.833 7.833 0 0 0-.728.348c-.057.141.052.314.179.375.19-.013.349-.154.53-.21.351-.158.707-.312 1.036-.513.113-.1.06-.284-.039-.372zM5.576 19.258c-.134-.01-.254.158-.154.271.123.13.31.17.47.24.358.126.716.264 1.09.33.174.037.34-.201.212-.337-.391-.197-.822-.305-1.24-.435a2.07 2.07 0 0 0-.378-.068zm41.067.005c-.463.055-.894.244-1.332.39-.153.044-.39.151-.265.345.067.223.304.096.449.044.429-.131.868-.252 1.27-.454.149-.076.111-.332-.069-.324h-.027zm-41.72 2.163c-.17.07-.164.385.04.403.375.113.763.175 1.145.258.152.02.314.063.463.02.122-.062.223-.305.06-.374-.145-.035-.292-.063-.437-.098-.42-.088-.843-.17-1.27-.208zm42.402 0c-.529.047-1.05.16-1.566.275-.213-.018-.296.209-.149.353.1.155.294.052.436.038.426-.076.854-.153 1.272-.266.146-.07.188-.354.007-.4zM4.47 23.622c.014.146-.06.384.142.429.273.057.555.064.83.111.27.034.547.067.816.01.18-.067.147-.354-.055-.36-.46-.096-.935-.113-1.403-.16l-.33-.03zm43.306 0c-.587.061-1.18.076-1.76.199-.164.022-.214.234-.1.343.132.091.309.022.46.035.424-.022.844-.08 1.262-.142.19-.065.131-.286.138-.435zM4.388 25.312v1.585h1.836v-1.585zm41.636 0v1.585h1.836v-1.585zm.102 2.72c-.127.005-.257.04-.261.193.003.202.247.181.388.203.458.045.915.153 1.378.123.177.01.185-.244.098-.342-.154-.112-.359-.08-.537-.116a11.99 11.99 0 0 0-.945-.058c-.037-.003-.079-.004-.12-.003zM6 28.035c-.47.018-.942.037-1.405.124-.165.058-.138.286-.108.418.143.017.293-.029.44-.029.44-.039.881-.064 1.312-.156.15-.029.195-.245.062-.322-.092-.05-.203-.029-.301-.034zm39.761 2.049c-.163-.009-.309.231-.15.34.205.114.445.143.67.205.309.062.618.149.934.154.177.013.28-.213.184-.35-.246-.137-.537-.144-.805-.212-.265-.053-.53-.11-.8-.132a.15.15 0 0 0-.033-.006zm-39.271.003-.036.003c-.49.045-.967.178-1.45.262-.22.037-.29.413-.045.458.207-.006.407-.075.612-.107.342-.07.689-.136 1.02-.253.19-.067.113-.344-.067-.36zm38.672 1.984c-.113.082-.228.295-.072.391.25.135.529.205.793.307.244.081.494.164.751.186.17.017.29-.215.144-.324-.197-.125-.429-.181-.646-.263-.321-.105-.643-.21-.97-.297zM7.1 32.103c-.492.086-.967.253-1.431.433-.164.047-.377.201-.231.383.16.146.393-.012.574-.044.388-.125.783-.238 1.155-.407.138-.083.07-.329-.067-.365zm.716 1.943c-.319.063-.594.248-.891.37-.227.111-.463.214-.668.363-.096.112-.02.349.129.365.153-.044.29-.135.441-.189.394-.18.786-.367 1.167-.574.112-.102-.054-.335-.178-.335zm36.656.004c-.013 0-.04.012-.039 0-.137.01-.282.225-.176.333.135.099.295.16.442.242.376.182.758.36 1.154.494.146-.008.248-.236.147-.346-.188-.162-.432-.238-.65-.354-.284-.132-.569-.273-.87-.364 0-.004-.004-.006-.008-.006zM8.506 35.41l-1.574.892.821 1.309 1.546-.916zm35.237 0-.769 1.218 1.588 1.024.722-1.366zM9.926 37.706c-.268.031-.467.238-.686.375-.271.197-.552.388-.8.612-.055.15.119.304.251.33.153-.024.245-.168.373-.24.34-.252.7-.487.999-.787.075-.117-.003-.267-.137-.29zm32.42.004c-.282.02-.188.376.014.45.335.287.697.542 1.066.784.148.116.348.005.402-.155-.003-.17-.228-.217-.328-.337-.334-.258-.672-.52-1.048-.713a.477.477 0 0 0-.106-.03zm-31.098 1.547c-.284.151-.504.396-.747.602-.21.199-.431.39-.61.617-.066.167.156.362.31.251.355-.274.681-.585 1.01-.89.143-.112.32-.32.123-.474a2.925 2.925 0 0 0-.086-.106zm29.777.02c-.12.059-.28.229-.188.363.23.235.482.452.725.675.186.145.348.344.565.438.188.014.338-.24.166-.368-.383-.372-.762-.754-1.19-1.076l-.038-.02zm-1.433 1.49c-.136.053-.308.204-.204.36.167.26.387.483.586.72.174.183.332.388.525.55.14.016.294-.167.264-.303-.114-.23-.314-.403-.473-.6a11.14 11.14 0 0 0-.676-.718l-.022-.008zm-26.934.004c-.209.156-.366.37-.55.553-.217.239-.444.472-.627.738-.051.15.108.32.249.33.182-.101.293-.3.446-.44.24-.27.492-.535.697-.833.083-.164-.082-.29-.215-.348zm1.684 1.36c-.235.054-.348.296-.496.464a9.343 9.343 0 0 0-.617.919c-.066.16.138.336.291.286.174-.142.279-.363.432-.532.194-.268.404-.532.55-.831a.216.216 0 0 0-.16-.306zm23.564 0c-.188.028-.228.267-.113.396.198.356.457.672.698.999.095.092.16.261.289.29.145-.02.32-.173.227-.328-.195-.331-.422-.644-.648-.954-.134-.144-.245-.364-.453-.403zm-22.373.903-.918 1.524 1.233.728.956-1.522zm21.17.01-1.251.665.896 1.63 1.246-.78zm-2.43 1.196c-.152.008-.254.174-.17.313.113.35.294.671.433 1.01.077.148.117.321.22.452.12.067.337.008.375-.13-.026-.144-.099-.276-.145-.415a7.88 7.88 0 0 0-.536-1.118c-.037-.05-.085-.098-.146-.111h-.031zm-16.329 0c-.175.06-.222.263-.312.405-.196.386-.354.789-.538 1.18-.02.179.246.212.376.207.118-.101.143-.274.222-.406.183-.408.352-.822.487-1.248-.017-.109-.149-.121-.235-.138zm1.882.683c-.128.182-.17.407-.251.612-.122.366-.226.74-.308 1.117-.015.209.318.258.361.047.192-.383.296-.802.432-1.207.029-.144.128-.337-.018-.45a.754.754 0 0 0-.216-.12zm12.596 0c-.147.052-.34.162-.287.349.079.349.204.686.316 1.025.088.175.109.422.286.53.203.074.292-.172.211-.325a10.086 10.086 0 0 0-.479-1.513c.011-.035-.047-.039-.047-.066zm-10.563.585c-.111.135-.124.32-.18.48-.112.426-.209.86-.242 1.3.044.195.354.175.416 0 .057-.199.088-.405.138-.606.064-.313.134-.626.164-.943-.011-.146-.166-.222-.296-.23zm8.53 0c-.151.01-.332.118-.287.294.035.365.128.722.199 1.082.056.162.032.371.165.494.153.127.412-.003.338-.208a8.048 8.048 0 0 0-.353-1.564.223.223 0 0 0-.062-.098zm-2.167.345c-.168.01-.186.237-.165.371.015.469.03.942.122 1.403.04.178.296.146.41.114.029-.196-.035-.393-.032-.59-.035-.39-.05-.785-.144-1.165-.022-.067-.075-.143-.156-.132-.012 0-.024-.003-.035 0zm-4.231 0c-.172.006-.178.22-.203.347-.077.497-.09 1-.145 1.499.05.125.304.072.394-.008.065-.126.055-.278.083-.415.047-.415.086-.833.073-1.251-.004-.109-.098-.178-.202-.172zm1.34.154v1.835h1.586v-1.835z" style="opacity:1;vector-effect:none;fill:#000;fill-opacity:1;stroke:none;stroke-width:.08343966;stroke-linecap:butt;stroke-linejoin:miter;stroke-miterlimit:4;stroke-dasharray:none;stroke-dashoffset:0;stroke-opacity:1"/><path d="M25.81 25.841v14.365" style="opacity:1;vector-effect:none;fill:#000;fill-opacity:1;stroke:#000;stroke-width:.83439672;stroke-linecap:round;stroke-linejoin:miter;stroke-miterlimit:4;stroke-dasharray:none;stroke-dashoffset:0;stroke-opacity:1"/><path d="m25.81 25.973 7.215 7.215" style="fill:#000;stroke:#000;stroke-width:.83439672;stroke-linecap:round;stroke-linejoin:miter;stroke-miterlimit:4;stroke-dasharray:none;stroke-opacity:1"/><circle cx="25.81" cy="25.841" r="1.003" style="opacity:1;vector-effect:none;fill:#fff;fill-opacity:1;stroke:#000;stroke-width:.41719836;stroke-linecap:round;stroke-linejoin:miter;stroke-miterlimit:4;stroke-dasharray:none;stroke-dashoffset:0;stroke-opacity:1"/></svg>