<svg xmlns="http://www.w3.org/2000/svg" xmlns:xlink="http://www.w3.org/1999/xlink" width="232" height="228.753" viewBox="0 0 61.383 60.524"><defs><linearGradient id="a"><stop offset="0" style="stop-color:#338000;stop-opacity:1"/><stop offset="1" style="stop-color:#9f5;stop-opacity:1"/></linearGradient><linearGradient id="b"><stop offset="0" style="stop-color:#9f5;stop-opacity:1"/><stop offset="1" style="stop-color:#338000;stop-opacity:1"/></linearGradient><linearGradient xlink:href="#a" id="d" x1="-4535.859" x2="-3945.779" y1="16750.615" y2="16750.615" gradientTransform="matrix(.0836 0 0 .0836 385.216 -1370.022)" gradientUnits="userSpaceOnUse"/><linearGradient xlink:href="#b" id="c" x1="-4553.898" x2="-3920.205" y1="16754.506" y2="16754.506" gradientTransform="matrix(.0836 0 0 .0836 385.216 -1370.022)" gradientUnits="userSpaceOnUse"/></defs><path d="M31.012 4.097C20.101 3.87 9.646 11.281 6.062 21.562c-3.552 9.651-.906 21.28 6.712 28.255 7.95 7.822 21.016 9.526 30.763 4.145 8.736-4.59 14.447-14.366 13.955-24.251-.14-10.843-7.787-20.978-18.077-24.293-2.7-.914-5.556-1.327-8.403-1.32Zm-.336 1.514c9.622-.182 18.945 5.966 22.643 14.843 4.152 9.189 1.785 20.744-5.584 27.611-7.182 7.118-18.881 8.913-27.894 4.358C11.066 48.244 5.32 38.518 6.057 28.802c.42-9.906 7.51-19.094 16.992-22.005 2.46-.799 5.033-1.273 7.627-1.186Z" style="fill:url(#c);fill-opacity:1;stroke-width:.3159551"/><path d="M30.676 5.611c-10.193-.215-20.005 6.746-23.252 16.4-3.285 8.922-.755 19.622 6.23 26.092 7.466 7.355 19.788 8.986 28.895 3.783 8.982-4.804 14.274-15.545 12.49-25.59-1.438-9.362-8.71-17.526-17.923-19.85-2.097-.6-4.258-.897-6.44-.835Zm.003 2.237c8.75-.165 17.227 5.424 20.59 13.497 3.775 8.354 1.622 18.861-5.079 25.106-6.53 6.472-17.168 8.104-25.363 3.963-7.979-3.8-13.205-12.644-12.534-21.479.383-9.121 6.994-17.559 15.765-20.108 2.144-.668 4.37-1.053 6.621-.98Z" style="fill:url(#d);fill-opacity:1;stroke-width:.3159551"/><path d="M30.363 29.982v14.392" style="opacity:1;vector-effect:none;fill:#000;fill-opacity:1;stroke:#000;stroke-width:.83596444;stroke-linecap:round;stroke-linejoin:miter;stroke-miterlimit:4;stroke-dasharray:none;stroke-dashoffset:0;stroke-opacity:1"/><path d="m30.363 30.114 7.23 7.229" style="fill:#000;stroke:#000;stroke-width:.83596444;stroke-linecap:round;stroke-linejoin:miter;stroke-miterlimit:4;stroke-dasharray:none;stroke-opacity:1"/><circle cx="30.363" cy="29.982" r="1.005" style="opacity:1;vector-effect:none;fill:#fff;fill-opacity:1;stroke:#000;stroke-width:.41798222;stroke-linecap:round;stroke-linejoin:miter;stroke-miterlimit:4;stroke-dasharray:none;stroke-dashoffset:0;stroke-opacity:1"/><path d="M32.188 59.513c0 .306-.051.648-.29.865-.274.242-.764.174-.943-.153-.177-.298-.177-.662-.142-.997.037-.284.185-.593.474-.69.278-.097.62.023.754.293.119.205.145.449.147.682zm-.424 0c-.007-.203.004-.43-.134-.596-.127-.124-.337-.016-.357.147-.074.241-.06.5-.037.748.018.133.06.3.203.348.146.038.261-.095.282-.228.038-.136.041-.279.043-.42zm-2.013 1.011a1.617 1.617 0 0 1-.562-.108c.038-.103.037-.283.1-.337.215.09.47.133.692.045.165-.087.168-.367-.012-.438-.137-.067-.294-.047-.44-.05V59.3c.154-.006.346.032.46-.1.103-.13.004-.34-.165-.338-.16-.022-.32.038-.455.12-.027-.103-.16-.236-.12-.32.298-.18.706-.226 1.007-.027.23.171.26.568.027.75-.151.077.125.114.138.207.201.267.099.71-.214.844-.141.067-.3.089-.456.087zm.133-52.054v1.84h1.588V8.47Zm-1.453.079c-.012 0-.023.003-.034.004-.069 0-.139.004-.206 0 .055.601.078 1.207.19 1.801.035.104.172.14.263.09.094-.035.098-.15.097-.236a9.917 9.917 0 0 0-.045-.971c-.02-.19-.038-.38-.077-.566a.198.198 0 0 0-.188-.123Zm4.658 0c-.048.003-.107.013-.135.004-.26-.03-.247.307-.268.481-.046.436-.13.873-.105 1.311.116.25.452.098.42-.152.097-.526.107-1.063.161-1.594.014-.045-.024-.052-.073-.05zm-6.934.336c-.169-.003-.204.211-.15.345.064.472.158.942.298 1.398.038.223.352.195.385-.015-.02-.431-.136-.854-.216-1.277-.044-.145-.026-.354-.188-.426a.298.298 0 0 0-.093-.021.14.14 0 0 0-.036-.004zm9.056 0c-.015 0-.03 0-.045.004-.188-.005-.25.204-.262.356-.094.44-.202.881-.249 1.33.006.15.225.3.343.178.072-.176.115-.365.167-.55.09-.369.17-.743.209-1.121a.17.17 0 0 0-.163-.196Zm-11.238.586c-.184.017-.168.284-.12.42.116.484.279.957.467 1.417.071.163.29-.026.335-.132.03-.184-.068-.358-.11-.532-.123-.37-.219-.754-.413-1.094-.028-.04-.07-.075-.12-.079h-.04zm13.372 0c-.18.05-.204.27-.278.415-.141.378-.266.763-.369 1.153-.045.169.109.306.26.336.159-.062.15-.303.23-.445.144-.413.267-.835.358-1.263.01-.112-.092-.205-.201-.196zm2.108.82c-.19.08-.245.304-.342.469-.19.39-.362.788-.531 1.188.106.09.281.186.415.123.135-.16.182-.38.284-.564.152-.343.28-.698.409-1.049.003-.116-.14-.16-.235-.168zm-17.581.002c-.152.008-.254.175-.17.314.113.35.294.673.434 1.012.077.148.118.322.22.453.12.067.339.007.376-.131-.026-.144-.1-.277-.146-.416a7.9 7.9 0 0 0-.54-1.126.275.275 0 0 0-.143-.105h-.031zm-1.427.731-1.352.717.93 1.597 1.306-.771zm20.467 0-.861 1.632 1.166.639 1.042-1.557zm-22.893 1.462c-.135.056-.352.17-.246.348.167.303.38.58.577.863.135.163.25.359.431.473.176.092.34-.137.249-.292-.183-.348-.427-.66-.661-.974-.115-.14-.22-.293-.35-.418zm25.319 0c-.26.261-.458.576-.681.868-.134.186-.263.376-.384.571-.047.168.204.379.336.23.364-.418.695-.868.995-1.336.077-.17-.138-.285-.266-.333zM16.25 13.92c-.13.055-.31.196-.22.353.158.255.378.466.568.696.184.198.36.41.565.584.172.004.34-.242.208-.393a13.504 13.504 0 0 0-1.099-1.231zm28.854.003c-.18.126-.306.314-.462.467-.242.271-.494.538-.699.84-.054.146.104.334.252.316.161-.118.279-.291.424-.43.244-.267.489-.535.707-.823.087-.167-.078-.317-.222-.37zm-30.5 1.64c-.162.035-.287.255-.124.374.3.318.625.612.951.904.124.11.348.349.465.099.13-.174-.038-.352-.173-.455-.322-.303-.643-.612-.999-.878a.363.363 0 0 0-.12-.045zm32.147 0c-.248.077-.41.297-.61.451-.24.222-.497.432-.709.68-.067.138.046.378.208.364.126-.08.232-.191.352-.283.326-.285.646-.579.938-.897.077-.133-.054-.282-.18-.316zm-33.53 1.768c-.013 0-.04.014-.04 0-.122.032-.31.188-.202.315.418.351.853.688 1.32.975.158.125.441-.139.297-.292-.203-.227-.473-.377-.708-.567-.212-.152-.417-.324-.659-.425 0-.005-.003-.007-.008-.007zm34.952 0c-.26.056-.445.264-.663.4-.26.194-.534.377-.768.603-.102.172.156.42.318.283.457-.314.916-.63 1.34-.987.09-.14-.122-.259-.227-.299zm-36.001 1.33-.744 1.365 1.545.885.852-1.27zm37.01 0-1.648.978.753 1.245 1.591-.848zm-38.326 2.516c-.141.117-.194.388.023.456.433.254.899.448 1.35.667.187.104.323-.141.32-.298-.07-.151-.29-.151-.42-.248-.42-.201-.842-.4-1.273-.577zm39.676.042c-.341.082-.655.246-.98.373a7.847 7.847 0 0 0-.73.349c-.057.141.053.315.18.375.19-.012.349-.154.53-.21.352-.158.708-.313 1.038-.514.114-.1.061-.284-.038-.373zM10.09 23.387c-.134-.011-.254.157-.154.271.124.13.312.17.472.241.358.126.716.264 1.091.33.175.037.341-.202.212-.338-.392-.197-.823-.305-1.24-.435a2.073 2.073 0 0 0-.38-.069zm41.145.005c-.464.054-.896.244-1.335.39-.153.044-.39.152-.265.346.067.224.304.096.45.044.43-.132.87-.252 1.272-.455.15-.076.111-.333-.069-.325h-.027zM9.438 25.559c-.172.07-.165.386.04.403.375.114.764.176 1.147.259.152.02.314.063.464.02.122-.063.223-.306.059-.375-.145-.035-.292-.063-.437-.098-.42-.088-.845-.17-1.273-.209zm42.48 0c-.529.047-1.05.16-1.568.275-.213-.018-.297.21-.149.354.1.154.294.052.437.038.426-.077.855-.154 1.274-.266.146-.07.188-.356.007-.401zM8.986 27.757c.014.147-.06.386.142.43.273.058.556.065.831.112.27.034.549.066.817.01.18-.067.148-.355-.054-.36-.462-.097-.937-.114-1.405-.162l-.331-.03Zm43.387 0c-.588.062-1.183.077-1.763.2-.164.022-.215.235-.101.343.133.092.31.023.462.036.424-.022.845-.081 1.264-.143.19-.064.13-.286.138-.436zm-43.47 1.695v1.588h1.838v-1.588zm41.714 0v1.588h1.84v-1.588zm.102 2.725c-.127.005-.258.04-.262.193.003.202.248.182.389.203.46.045.917.154 1.38.124.178.01.186-.244.099-.343-.155-.112-.36-.08-.538-.116-.315-.033-.631-.05-.947-.058-.037-.003-.079-.004-.121-.003zm-40.202.003c-.47.018-.943.037-1.407.124-.166.058-.139.286-.108.419.143.017.293-.029.441-.029.44-.039.882-.064 1.314-.157.15-.028.195-.245.062-.322-.093-.05-.203-.03-.302-.035zm39.836 2.052c-.163-.008-.309.232-.15.341.205.114.446.144.67.206.31.062.62.149.937.154.178.013.28-.213.184-.35-.247-.137-.538-.145-.807-.213-.265-.053-.53-.11-.8-.132a.15.15 0 0 0-.034-.006zm-39.345.004-.036.003c-.49.045-.969.178-1.453.262-.22.037-.291.414-.044.459.207-.005.408-.075.612-.107.344-.071.69-.136 1.022-.253.19-.067.114-.345-.067-.36zm38.745 1.988c-.114.081-.228.295-.072.391.25.135.53.205.794.307.245.082.495.165.753.187.17.017.29-.216.144-.324-.197-.125-.43-.182-.647-.264-.322-.105-.645-.21-.972-.297zm-38.135.031c-.493.086-.968.254-1.433.435-.165.046-.378.2-.232.383.16.146.395-.012.575-.044.39-.126.785-.239 1.158-.408.138-.083.07-.33-.068-.366zm.718 1.948c-.32.062-.595.248-.893.37-.228.111-.464.214-.669.364-.096.112-.021.349.129.365.153-.044.29-.135.442-.189.395-.18.788-.368 1.169-.575.113-.102-.054-.335-.178-.335zm36.725.003c-.013 0-.04.013-.04 0-.137.01-.282.226-.176.333.136.1.296.161.443.243.377.183.76.362 1.156.495.147-.008.248-.237.147-.346-.188-.163-.433-.24-.65-.355-.286-.133-.57-.274-.873-.365 0-.004-.003-.006-.007-.006zM13.027 39.57l-1.577.894.823 1.31 1.548-.917zm35.303 0-.77 1.22 1.591 1.026.723-1.368zm-33.88 2.3c-.269.03-.468.237-.688.375-.271.197-.553.389-.8.613-.056.15.118.305.25.33.154-.023.245-.168.375-.24.34-.253.7-.487 1-.788.076-.117-.003-.268-.137-.29zm32.48.003c-.282.02-.188.377.015.45.335.288.698.544 1.067.786.15.117.35.005.403-.155-.003-.17-.228-.217-.328-.337-.335-.258-.673-.521-1.05-.715a.477.477 0 0 0-.107-.03zm-31.155 1.55c-.286.152-.505.396-.75.603-.209.2-.431.392-.611.618-.065.168.157.363.311.252.356-.275.683-.586 1.013-.892.142-.113.319-.32.122-.475a2.934 2.934 0 0 0-.085-.106zm29.832.02c-.12.06-.28.23-.188.363.23.236.482.454.726.677.187.146.35.345.566.439.189.014.339-.24.167-.37-.385-.372-.763-.754-1.193-1.076l-.038-.02zm-1.436 1.493c-.135.053-.308.204-.204.36.168.261.388.484.588.721.173.184.332.39.526.551.14.017.294-.166.264-.303-.114-.23-.315-.403-.474-.602a11.16 11.16 0 0 0-.678-.718l-.021-.009zm-26.984.004c-.21.157-.367.371-.552.554-.216.24-.444.473-.627.739-.052.15.108.32.249.331.183-.102.294-.3.447-.44.241-.27.492-.537.698-.835.084-.165-.082-.292-.215-.35zm1.687 1.363c-.236.054-.35.296-.497.464a9.36 9.36 0 0 0-.618.92c-.066.162.139.338.292.287.174-.141.279-.363.432-.532.195-.27.405-.534.55-.833a.216.216 0 0 0-.159-.306zm23.608 0c-.188.028-.228.267-.113.396.198.356.458.673.7 1 .095.093.16.263.289.291.145-.02.32-.173.228-.328a11.799 11.799 0 0 0-.65-.955c-.134-.145-.246-.365-.454-.404zm-22.415.904-.92 1.527 1.236.73.957-1.526zm21.21.01-1.253.666.897 1.634 1.248-.782zm-2.435 1.198c-.152.008-.254.175-.17.314.113.35.294.673.434 1.012.077.148.117.322.22.453.12.067.338.008.376-.131-.026-.144-.099-.276-.145-.415a7.896 7.896 0 0 0-.537-1.12c-.037-.05-.086-.099-.147-.112h-.03zm-16.359 0c-.176.06-.223.264-.313.406-.196.387-.354.79-.539 1.182-.019.18.247.213.377.208.118-.102.143-.275.223-.407.183-.408.352-.824.488-1.25-.017-.11-.15-.122-.236-.139zm1.885.685c-.128.182-.17.407-.251.613-.122.367-.227.74-.309 1.119-.015.21.32.259.362.047.193-.384.297-.803.432-1.21.03-.144.13-.337-.018-.45a.754.754 0 0 0-.216-.12zm12.62 0c-.147.052-.34.162-.287.35.079.348.204.686.316 1.026.088.176.109.423.286.53.204.075.293-.171.212-.324a10.105 10.105 0 0 0-.48-1.516c.011-.035-.047-.039-.047-.066zm-10.583.586c-.111.135-.124.32-.18.48-.113.428-.21.862-.243 1.302.044.196.355.176.417 0 .057-.198.089-.404.138-.606.064-.313.135-.627.165-.945-.012-.146-.167-.223-.297-.231zm8.547 0c-.152.01-.333.118-.289.294.036.366.13.724.2 1.084.056.163.032.372.165.495.154.128.413-.003.339-.208a8.063 8.063 0 0 0-.353-1.567.224.224 0 0 0-.062-.098zm-2.172.345c-.168.01-.186.238-.165.372.015.47.03.944.122 1.405.04.18.297.147.41.115.03-.196-.035-.394-.032-.592-.034-.39-.049-.785-.143-1.166-.023-.067-.076-.143-.156-.133-.013 0-.025-.003-.036 0zm-4.239 0c-.172.006-.178.22-.203.349-.078.497-.09 1.002-.145 1.5.05.126.304.073.394-.008.065-.125.056-.277.083-.415.047-.416.087-.835.074-1.253-.005-.11-.098-.178-.203-.173zm1.343.154v1.84h1.588v-1.84zM46.41 38.528c-.196-.025-.476.05-.383.304.006.247.075.561.342.647.24.07.5-.12.524-.365.06-.236-.063-.547-.332-.574a.868.868 0 0 0-.15-.012zm.085-.516c.42-.022.905.194 1.02.631.17.521-.106 1.178-.65 1.339-.467.16-1.072.02-1.318-.436-.242-.431-.23-.96-.117-1.428.13-.486.492-.907.97-1.078.292-.117.609-.164.923-.167-.047.172.148.448-.064.546-.425.014-.91.162-1.113.57-.085.2.219-.023.308.02l.04.003zm-3.522-.476c.371-.155.732-.354 1.019-.64h.463v3.083h-.664v-2.22c-.19.096-.443.302-.638.237l-.18-.46z" style="opacity:1;vector-effect:none;fill:#000;fill-opacity:1;stroke:none;stroke-width:.08359644;stroke-linecap:butt;stroke-linejoin:miter;stroke-miterlimit:4;stroke-dasharray:none;stroke-dashoffset:0;stroke-opacity:1"/><path d="M57.528 15.608c0 .306-.051.648-.29.864-.273.242-.762.175-.941-.15-.178-.299-.179-.664-.143-1 .037-.272.17-.567.44-.676.278-.116.635-.008.778.264.127.208.155.459.156.698zm-.423 0c-.008-.205 0-.437-.14-.602-.13-.114-.326-.01-.35.15-.075.234-.06.486-.041.727.017.136.052.303.188.366.142.052.272-.071.295-.206.043-.14.045-.29.048-.435zm-2.453-.56c.232-.098.459-.222.638-.402h.29v1.931h-.416v-1.39c-.122.07-.247.154-.392.168l-.12-.308zM6.807 44.887c0 .306-.051.648-.29.865-.274.242-.764.174-.942-.153-.178-.298-.178-.662-.143-.997.037-.292.196-.612.5-.697.273-.083.599.039.728.3.119.205.145.449.147.682zm-.424 0c-.007-.203.004-.43-.134-.596-.127-.124-.337-.016-.357.147-.075.247-.06.51-.034.764.019.133.07.31.224.336.147.021.24-.119.263-.247.033-.132.036-.269.038-.404zm-1.759-.454c-.156.21-.326.413-.437.652h.437v-.652zm.407-.507v1.159h.206v.34h-.206v.432h-.407v-.432h-.833v-.304c.227-.434.505-.843.847-1.195h.393zm40.524-38.61c.008-.127-.09-.238-.21-.267-.182-.063-.379-.066-.57-.068.04-.342.064-.685.08-1.029h1.046v.349h-.697c-.008.119-.015.238-.028.356.234.017.49.066.655.246.176.2.182.515.045.736-.135.2-.385.28-.616.285-.2.006-.402-.032-.591-.092-.01-.097.04-.2.053-.298-.003-.098.1 0 .157 0a1 1 0 0 0 .502.013c.096-.033.176-.126.174-.231zM17.052 56c.011-.173-.165-.281-.317-.297a2.288 2.288 0 0 0-.463-.038c.04-.341.063-.685.08-1.028h1.045v.348h-.696c.028.116-.083.26.015.354.145.028.298.042.43.114.225.1.348.354.319.592a.573.573 0 0 1-.376.498c-.288.114-.609.065-.898-.016-.066-.097.023-.244.045-.343.117.006.226.078.349.07.144.008.322.008.42-.116a.234.234 0 0 0 .047-.139zm-1.952.61a1.617 1.617 0 0 1-.563-.109c.05-.097.014-.295.12-.328.216.086.47.126.688.028.151-.094.145-.363-.028-.43-.128-.084-.337-.015-.44-.071v-.313c.156-.005.345.031.462-.1.104-.125 0-.345-.166-.338-.16-.023-.32.037-.455.12-.016-.108-.213-.26-.078-.345.3-.162.7-.195.986.014.221.185.233.592-.023.753-.039.1.172.103.186.214.18.273.067.697-.241.823-.14.064-.296.083-.448.082zM31.434 1.007c0 .284-.042.592-.237.812-.247.289-.765.256-.972-.062-.19-.287-.2-.647-.172-.978.025-.262.127-.54.357-.688.274-.174.685-.093.851.192.14.213.171.475.173.724zm-.424 0c-.007-.202.004-.43-.134-.596C30.775.31 30.58.362 30.54.5c-.092.218-.08.461-.07.693.013.156.029.337.163.44.113.07.274-.004.308-.13.062-.157.066-.329.068-.496zM17.132 5.34c.011-.16-.143-.27-.287-.29a2.15 2.15 0 0 0-.494-.045c.041-.341.064-.685.081-1.028h1.045v.348h-.696c.028.114-.114.362.07.366.255.025.547.128.65.386.112.27.023.631-.25.767-.288.155-.633.115-.937.035-.146-.012-.024-.192-.025-.282-.004-.171.173 0 .275-.015.15.02.319.032.456-.043a.245.245 0 0 0 .112-.2zm-1.584 0c.011-.16-.143-.27-.287-.29a2.15 2.15 0 0 0-.493-.045c.04-.341.063-.685.08-1.028h1.045v.348h-.696c.028.114-.113.362.07.366.255.025.547.128.65.386.112.27.023.631-.25.767-.288.155-.633.115-.937.035-.146-.012-.023-.192-.024-.282-.005-.171.173 0 .274-.015.15.02.319.032.457-.043a.245.245 0 0 0 .111-.2zM46.342 55.99c.012-.16-.143-.269-.286-.29a2.15 2.15 0 0 0-.494-.044c.04-.342.064-.685.08-1.028h1.046v.348h-.697c.029.114-.113.362.07.365.251.026.537.124.645.374.123.276.027.654-.258.788-.286.146-.624.105-.924.027-.145-.012-.023-.193-.024-.283-.004-.17.173 0 .274-.015.151.02.32.032.457-.043a.245.245 0 0 0 .111-.199zm-1.204-.855c-.01.302-.25.52-.453.713a2.008 2.008 0 0 0-.314.348c.052.035.135.006.2.015h.625v.348H43.91a.801.801 0 0 1 .168-.621c.18-.24.452-.398.61-.656.076-.136-.004-.34-.172-.34-.173-.018-.334.08-.456.193-.052-.102-.194-.213-.186-.308.268-.244.691-.326 1.018-.157.173.09.251.277.247.465zM6.924 15.635c0 .306-.051.648-.29.865-.274.242-.762.174-.942-.151-.178-.298-.178-.664-.143-.999.037-.282.183-.589.468-.687.28-.101.626.018.76.29.119.205.145.449.147.682zm-.424 0c-.007-.203.004-.43-.134-.596-.127-.124-.337-.016-.357.147-.074.242-.06.5-.036.748.017.133.06.3.203.348.146.038.26-.095.281-.227.038-.137.041-.28.043-.42zm-1.645.401c.012-.166-.152-.274-.3-.293a2.21 2.21 0 0 0-.48-.041c.04-.342.064-.685.081-1.029h1.045v.349h-.697c.029.113-.113.361.07.365.251.026.537.124.645.373.127.282.022.668-.272.796-.284.137-.615.097-.91.02-.145-.013-.023-.193-.024-.283-.004-.17.173 0 .274-.015.15.02.32.032.457-.042a.245.245 0 0 0 .111-.2zM57.538 44.86c0 .307-.052.649-.29.865-.274.242-.763.175-.942-.15-.178-.299-.178-.664-.143-1 .037-.29.193-.608.495-.695.274-.086.603.036.733.298.118.206.145.45.147.682zm-.424 0c-.007-.202.003-.43-.135-.596-.126-.123-.336-.015-.357.148-.074.241-.059.5-.036.747.018.133.06.301.203.348.146.039.26-.094.282-.227.038-.136.04-.28.043-.42zm-1.266-.454c-.009.302-.25.52-.453.713a2.007 2.007 0 0 0-.313.348c.052.035.136.006.203.015h.622v.348h-1.288a.803.803 0 0 1 .176-.631c.18-.234.446-.392.602-.646.077-.136-.004-.34-.172-.339-.173-.02-.334.079-.456.192-.051-.101-.193-.213-.186-.308.268-.244.692-.326 1.019-.157.173.09.25.278.246.465zM2.531 30.642c.012-.16-.143-.27-.287-.29a2.15 2.15 0 0 0-.493-.044c.04-.342.064-.685.08-1.029h1.046v.349H2.18c.028.113-.113.361.07.365.251.026.537.124.644.373.124.277.028.655-.257.788-.287.147-.624.106-.924.028-.146-.012-.023-.193-.024-.283-.004-.17.173 0 .274-.015.15.02.319.032.457-.042a.245.245 0 0 0 .111-.2zm-1.698-.855c-.156.21-.326.413-.437.652h.437v-.652zm.407-.508v1.16h.206v.34H1.24v.432H.833v-.432H0v-.304c.227-.434.505-.844.847-1.196h.393zm59.727 1.332c.012-.166-.154-.277-.302-.294a2.213 2.213 0 0 0-.478-.041c.04-.342.064-.685.08-1.028h1.046v.348h-.697c.024.113-.065.234-.003.34.133.054.295.042.426.117a.566.566 0 0 1 .344.513c.013.239-.12.49-.351.576-.294.129-.628.08-.926-.004-.064-.097.02-.244.045-.343.117.004.226.077.348.069.145.01.323.009.42-.116a.234.234 0 0 0 .048-.138zm-2.392-.962c.233-.097.46-.221.639-.401h.29v1.931h-.416v-1.39c-.124.066-.247.164-.395.16l-.118-.3zm-44.787-.652c.371-.155.733-.353 1.019-.64h.463v3.084h-.663V29.22c-.19.128-.404.214-.619.29l-.2-.513zm-.634.17c-.012.433-.332.766-.627 1.047-.212.203-.435.4-.597.647.127.055.273.012.41.024h.908v.556H11.19a1.293 1.293 0 0 1 .31-1.044c.288-.358.699-.607.938-1.005.096-.187.021-.482-.21-.519-.277-.07-.55.08-.756.254-.174.003-.194-.263-.33-.352-.055-.18.206-.236.318-.325.425-.217.973-.24 1.383.024.219.157.32.431.31.693zm9.834 15.584c.177.015.452-.028.377-.271-.003-.253-.07-.574-.34-.666-.225-.073-.492.085-.522.324-.068.229.022.546.286.593.065.015.132.02.199.02zm.325.432a1.302 1.302 0 0 1-1.141-.101c-.409-.306-.44-.932-.192-1.348.21-.358.643-.537 1.047-.482.365.026.724.238.863.586.204.455.176.98.065 1.456-.12.443-.457.821-.895.968-.31.117-.643.15-.971.154.047-.175-.117-.395.03-.54.214-.036.443-.027.65-.115a.854.854 0 0 0 .544-.578zm-3.83-1.22c.372-.155.733-.354 1.02-.64h.463v3.084h-.664v-2.221c-.2.101-.395.275-.635.247l-.184-.47zm20.07 2.417c.093-.857.369-1.705.844-2.428.082-.156-.184-.08-.276-.095h-1.009v-.565h2.16v.48c-.53.637-.847 1.428-1.003 2.234-.066.11.049.403-.132.374h-.584zm-2.85-2.443c.371-.155.733-.354 1.02-.641h.462v3.084h-.663v-2.22c-.2.105-.395.262-.63.258-.064-.16-.126-.32-.189-.481zM49.09 30.396c.018-.264-.246-.442-.483-.47a3.534 3.534 0 0 0-.763-.065 24.01 24.01 0 0 0 .129-1.642h1.669v.556h-1.113c.038.18-.104.374-.004.543.213.086.471.067.68.188a.904.904 0 0 1 .55.818c.02.382-.193.783-.561.92-.469.206-1.002.127-1.478-.006-.103-.155.031-.39.071-.547.187.008.36.122.557.11.23.014.515.013.671-.185a.365.365 0 0 0 .075-.22zm-3.82-1.536c.37-.155.732-.354 1.019-.64h.463v3.084h-.664v-2.221c-.199.106-.394.262-.63.258l-.189-.481zm1.253-8.411c-.25.335-.521.66-.699 1.042h.699v-1.042zm.65-.81v1.852h.33v.542h-.33v.69h-.65v-.69h-1.33v-.485a8.138 8.138 0 0 1 1.352-1.909h.628zm-4.288.64c.372-.154.733-.353 1.02-.64h.462v3.084h-.663v-2.22c-.2.1-.396.275-.635.247l-.184-.47zm-3.33-3.716a2.587 2.587 0 0 1-.9-.174c.08-.154.022-.472.193-.524.343.137.748.2 1.095.045.254-.154.231-.603-.065-.697-.214-.095-.453-.063-.68-.07v-.534c.249-.008.551.05.737-.159.165-.2 0-.548-.262-.54-.257-.036-.513.059-.728.192-.027-.173-.34-.415-.126-.55.472-.258 1.1-.31 1.557.007.365.285.397.937-.004 1.207-.128.15.246.163.265.327.31.434.133 1.135-.37 1.34a1.69 1.69 0 0 1-.713.13zm-3.233-2.51c.371-.155.732-.354 1.019-.641h.463v3.084h-.663v-2.22c-.2.106-.395.262-.632.257l-.187-.48zM32.7 47.826c.024.442-.343.845-.778.891-.427.084-.944.022-1.233-.338-.255-.312-.23-.81.072-1.083.135-.102.227-.21.042-.308A.806.806 0 0 1 30.7 46c.234-.39.73-.535 1.159-.45.373.059.736.347.761.743a.8.8 0 0 1-.315.709c-.098.198.286.231.3.436a.76.76 0 0 1 .095.39zm-1.54.027c.003.27.318.406.553.356.274-.009.452-.386.252-.59-.152-.136-.459-.388-.627-.18a.567.567 0 0 0-.178.414zm.823-1.464c-.009-.346-.55-.447-.71-.154-.138.243.07.517.296.609.254.069.429-.236.414-.455zm-3.86-.147c.371-.155.733-.354 1.02-.641h.462v3.084h-.663v-2.22c-.19.094-.446.305-.64.237l-.179-.46zm-10.194-7.77c0 .49-.083 1.036-.463 1.382-.45.401-1.265.266-1.53-.286-.271-.498-.262-1.09-.19-1.637.075-.449.348-.924.819-1.036.453-.123.978.113 1.163.55.161.316.198.678.2 1.028zm-.677 0c-.012-.33.006-.71-.234-.969-.2-.17-.528.007-.551.253-.125.427-.1.883-.037 1.318.022.251.27.559.54.4.235-.148.244-.458.272-.706.007-.098.008-.197.01-.295zm-2.022-.725c-.016.491-.41.841-.74 1.155-.175.166-.351.336-.484.54.142.055.3.012.45.023h.867v.557h-2.056a1.31 1.31 0 0 1 .34-1.08c.291-.349.702-.596.923-1.002.097-.218-.065-.522-.32-.502-.268-.017-.513.133-.702.31-.06-.175-.413-.37-.236-.546.455-.37 1.16-.471 1.661-.137.21.157.305.427.297.682zm2.73-17.155c-.016.493-.411.843-.743 1.158a3.094 3.094 0 0 0-.48.536c.139.055.295.012.442.024h.875v.556h-2.056c-.058-.388.07-.794.34-1.08.291-.348.702-.595.923-1 .097-.22-.065-.524-.32-.503-.268-.018-.513.133-.702.31-.06-.175-.413-.37-.236-.546.455-.37 1.16-.471 1.661-.137.21.156.305.427.297.682zm-2.529 0c-.016.493-.412.843-.743 1.158a3.092 3.092 0 0 0-.48.536c.138.055.294.012.441.024h.876v.556h-2.056c-.058-.388.07-.794.34-1.08.29-.348.701-.595.922-1 .098-.22-.065-.524-.32-.503-.268-.018-.513.133-.702.31-.06-.175-.413-.37-.236-.546.456-.37 1.16-.471 1.662-.137.21.156.305.427.296.682zm7.133-4.028a2.587 2.587 0 0 1-.9-.173c.08-.155.022-.472.193-.525.344.138.75.202 1.098.044.25-.154.227-.6-.065-.694-.211-.104-.476-.05-.682-.082v-.523c.248-.009.55.05.736-.16.167-.2-.003-.55-.264-.54-.256-.035-.511.06-.726.193-.027-.174-.34-.417-.124-.551.477-.26 1.118-.312 1.573.022.355.295.37.947-.038 1.202-.07.157.261.155.284.322.304.435.128 1.13-.373 1.334a1.69 1.69 0 0 1-.712.131zm-1.337-2.34c-.017.492-.412.842-.744 1.157a3.093 3.093 0 0 0-.48.537c.139.055.294.012.441.023h.876v.557h-2.056c-.058-.39.07-.795.34-1.08.291-.348.702-.596.922-1.002.099-.218-.064-.523-.32-.502-.267-.017-.512.133-.701.31-.06-.175-.413-.37-.236-.546.455-.37 1.16-.471 1.661-.137.21.156.305.427.297.682zm10.955-2.312c-.25.335-.521.66-.699 1.041h.7v-1.041zm.65-.81v1.851h.33v.543h-.33v.69h-.65v-.69h-1.33v-.485a8.138 8.138 0 0 1 1.352-1.91h.628zm-2.392.81c-.014.482-.398.83-.723 1.139-.18.171-.363.345-.5.555.084.056.217.01.322.024h.995v.556h-2.056a1.274 1.274 0 0 1 .254-.973c.288-.393.732-.648.988-1.066.123-.218-.004-.543-.274-.542-.276-.03-.533.126-.728.307-.082-.162-.31-.34-.298-.492.429-.39 1.105-.52 1.627-.25.276.142.402.442.393.742z" style="vector-effect:none;fill:#b3b3b3;fill-opacity:1;stroke:none;stroke-width:.08359644;stroke-linecap:butt;stroke-linejoin:miter;stroke-miterlimit:4;stroke-dasharray:none;stroke-dashoffset:0;stroke-opacity:1"/><path d="M37.174 24.964c0 .348-.054.726-.295.996-.296.325-.891.29-1.138-.078-.198-.278-.23-.633-.23-.963.006-.342.072-.712.32-.965a.747.747 0 0 1 1.047.018c.241.268.295.644.296.992zm-.505 0c-.008-.24-.002-.504-.148-.708-.106-.12-.331-.093-.393.06-.12.221-.104.483-.11.727.005.21.018.436.136.617.088.115.283.126.371.005.114-.143.121-.336.138-.51.004-.064.005-.127.006-.191zm-2.401 1.221a1.914 1.914 0 0 1-.672-.131l.097-.417c.253.113.55.168.818.078a.305.305 0 0 0 .145-.42c-.07-.136-.233-.17-.372-.18-.094-.006-.188-.001-.282-.003v-.404c.178-.006.385.033.53-.096.12-.122.077-.37-.099-.413-.183-.062-.38-.004-.545.082-.114.095-.137-.125-.188-.19-.024-.064-.108-.148.001-.173.34-.194.788-.24 1.134-.038.278.182.353.618.13.87-.024.06-.213.115-.077.154.221.122.335.39.297.636a.66.66 0 0 1-.429.564 1.29 1.29 0 0 1-.488.081zm-2.814-2.26.495-.081v.521h.595v.417h-.595c.005.252-.01.505.01.757.013.118.112.22.234.21.12.01.24-.014.35-.055l.07.39c-.262.107-.569.13-.836.024a.574.574 0 0 1-.31-.489c-.028-.254-.006-.51-.013-.765v-.93zm-.45 2.21h-.494v-1.77h.495v1.77zm.047-2.281c.016.186-.186.337-.362.29a.29.29 0 0 1-.23-.314.293.293 0 0 1 .318-.272c.15.011.287.14.274.296zm-2.502.572c.318-.08.651-.13.978-.081.195.036.387.157.457.35.103.25.067.526.074.79v.65h-.495c-.004-.363.008-.725-.008-1.087-.008-.108-.045-.24-.16-.275-.11-.04-.227-.013-.339-.006-.026.06-.006.127-.012.19v1.178h-.495v-1.71zm-2.024.837c-.012-.337.15-.699.461-.855.301-.152.705-.117.95.125.175.179.233.438.23.68.001.068-.003.135-.01.202h-1.123c.014.197.214.328.4.331.188.018.38-.012.558-.08.028.08.03.166.047.248l.026.157a1.726 1.726 0 0 1-.717.108c-.272-.018-.555-.142-.694-.387a1.034 1.034 0 0 1-.128-.529zm1.163-.191c.001-.159-.11-.33-.279-.34-.144-.017-.308.07-.343.217-.052.056-.026.16.062.123h.56zm-2.982.124c-.004-.136-.001-.295-.11-.396a.38.38 0 0 0-.355-.013v1.348h-.496v-1.71c.312-.072.64-.139.959-.072.107.005.201.132.287.119.278-.183.674-.208.95-.008.197.166.222.445.22.686.003.328 0 .656 0 .985h-.495c-.005-.373.012-.746-.01-1.118-.006-.135-.106-.28-.256-.263-.12-.011-.287.057-.211.201.026.246.007.493.012.74v.44h-.495v-.939zm11.604-4.363c-.094.014-.216-.015-.28.072-.023.105-.002.218.011.324.025.147.117.316.283.33a.302.302 0 0 0 .325-.213c.066-.165.03-.402-.147-.481a.505.505 0 0 0-.192-.032zm.063-.39c.264-.007.558.089.698.328.216.38.072.937-.334 1.126a.924.924 0 0 1-.826-.034c-.251-.157-.368-.459-.383-.744-.037-.416.069-.87.382-1.164.255-.24.606-.348.95-.369.095-.037.168.028.14.125-.004.09.031.213.004.281-.275.009-.576.06-.775.269-.048.057-.163.18-.114.227a.733.733 0 0 1 .258-.045zm-2.63-.36c.277-.118.547-.268.76-.485h.346v2.332h-.495v-1.68a1.96 1.96 0 0 1-.462.22l-.15-.387zm-2.701.908c-.004-.136-.001-.295-.11-.396a.38.38 0 0 0-.356-.013v1.348h-.495v-1.71c.312-.072.64-.139.959-.072.107.005.201.132.287.119.278-.183.674-.209.95-.008.197.166.222.445.219.686.004.328 0 .656.002.985h-.496c-.005-.373.012-.746-.01-1.118-.006-.135-.106-.28-.256-.263-.12-.011-.287.057-.211.201.026.246.007.493.012.74v.44h-.495v-.939zm-2.13.589c.077-.022.214.043.246-.057v-.337c-.158-.025-.337-.045-.479.046-.104.09-.071.295.07.327.053.017.108.02.163.02zm-.04-1.467c.213-.001.45.035.602.2.147.157.162.385.16.59v.976c-.363.074-.743.131-1.11.047-.174-.045-.335-.175-.374-.357-.05-.192-.026-.427.131-.563.182-.158.437-.183.668-.175.067-.004.161.033.21.018.01-.121-.046-.268-.176-.296-.167-.047-.342-.014-.509.013-.083.052-.156.01-.14-.085l-.043-.284c.189-.053.385-.08.581-.084zm-1.752 2.439c-.098-.02-.314.03-.297-.13.05-.088-.016-.314.114-.307.116.032.289.022.327-.117.038-.187.012-.38.02-.569V20.16h.494c-.002.61.006 1.22-.004 1.83-.014.236-.164.478-.405.53a.906.906 0 0 1-.249.032zm.705-2.903c.018.203-.221.356-.404.28-.202-.065-.257-.36-.099-.496.134-.135.382-.095.47.072a.252.252 0 0 1 .033.144z" style="fill:red;fill-opacity:1;stroke:none;stroke-width:.08359644"/></svg>