<svg xmlns="http://www.w3.org/2000/svg" xmlns:xlink="http://www.w3.org/1999/xlink" width="200" height="199.901" viewBox="0 0 52.917 52.891"><defs><linearGradient id="a"><stop offset="0" style="stop-color:#338000;stop-opacity:1"/><stop offset="1" style="stop-color:#9f5;stop-opacity:1"/></linearGradient><linearGradient id="b"><stop offset="0" style="stop-color:#9f5;stop-opacity:1"/><stop offset="1" style="stop-color:#338000;stop-opacity:1"/></linearGradient><linearGradient xlink:href="#a" id="d" x1="-4535.859" x2="-3945.779" y1="16750.615" y2="16750.615" gradientTransform="matrix(.08344 0 0 .08344 379.997 -1371.537)" gradientUnits="userSpaceOnUse"/><linearGradient xlink:href="#b" id="c" x1="-4553.898" x2="-3920.205" y1="16754.506" y2="16754.506" gradientTransform="matrix(.08344 0 0 .08344 379.997 -1371.537)" gradientUnits="userSpaceOnUse"/></defs><path d="M49.589 19.47a24.618 24.618 0 0 1-6.372 23.779 24.618 24.618 0 0 1-23.779 6.372A24.618 24.618 0 0 1 2.03 32.213" style="opacity:1;vector-effect:none;fill:#faa;fill-opacity:1;stroke:none;stroke-width:.08343966;stroke-linecap:butt;stroke-linejoin:miter;stroke-miterlimit:4;stroke-dasharray:none;stroke-dashoffset:0;stroke-opacity:1"/><path d="M27.364 6.922c-.36.01-.716.15-.983.392.04.174.193.414.34.452.226-.204.575-.364.869-.208.218.163.141.492-.036.656-.34.42-.858.708-1.053 1.235-.047.181-.146.51-.018.626h2.008V9.52c-.415 0-.83-.004-1.247.003-.11-.13.165-.264.23-.383.333-.34.756-.644.894-1.124.103-.37-.049-.839-.43-.983a1.388 1.388 0 0 0-.574-.111ZM25 6.996c-.286.287-.647.485-1.018.64.101.167.1.592.4.441.138-.022.34-.224.418-.186v2.184h.662V6.996ZM15.969 9.3c-.235.329-.83.461-.98.706.03.268.203.58.492.316.183-.166.35-.14.288.108v1.949h.662V9.299Zm2.525 0c-.235.329-.831.46-.98.706.03.268.203.58.492.316.183-.166.35-.14.288.108v1.949h.662V9.299Zm15.77 0c-.285.287-.646.486-1.017.64l.2.511c.215-.075.428-.161.618-.289v2.217h.662V9.3Zm-21.849 6.255c-.055 0-.11.003-.166.011-.506.057-.83.543-.912 1.011-.086.541-.09 1.13.154 1.632.228.534.952.719 1.433.42.478-.312.585-.936.582-1.467-.004-.338-.038-.686-.186-.995a1.004 1.004 0 0 0-.905-.612zm-2.478.074c-.285.287-.646.485-1.017.64l.185.473c.17.045.449-.152.632-.251v2.217h.662v-3.08zm2.474.496a.3.3 0 0 1 .137.037c.3.226.263.662.283 1 0 .052 0 .105-.004.157-.024.29-.01.678-.29.849-.31.154-.524-.216-.541-.481-.043-.391-.063-.797.031-1.183.028-.195.19-.385.384-.38zm-3.8 8.015a1.284 1.284 0 0 0-.391.072c-.679.248-.885 1.286-.315 1.747a1.29 1.29 0 0 0 1.157.115.954.954 0 0 1-.06.15c-.174.387-.624.514-1.014.524-.312-.035-.109.373-.15.557.295-.004.592-.031.874-.12.477-.132.865-.52.988-1 .12-.493.143-1.047-.09-1.511-.183-.377-.597-.547-1-.534Zm.069.55c.257.013.428.302.425.553.117.266-.109.457-.367.4a.761.761 0 0 1-.283-.047c-.345-.175-.279-.812.109-.895a.387.387 0 0 1 .116-.012z" style="fill:#b3b3b3;fill-opacity:1;stroke:none;stroke-width:.08343966"/><path d="M25.331 4.37v1.836h1.586V4.37Zm-1.45.078c-.012 0-.023.004-.034.005-.069 0-.138.003-.206 0 .056.6.079 1.205.19 1.798.036.103.172.14.263.09.094-.036.098-.151.097-.236a9.899 9.899 0 0 0-.045-.97c-.02-.189-.039-.378-.077-.564a.198.198 0 0 0-.188-.123zm4.65 0c-.049.003-.108.014-.135.004-.259-.03-.247.307-.268.48-.045.435-.129.872-.105 1.31.116.248.452.097.42-.153.096-.525.106-1.06.16-1.59.014-.046-.024-.053-.072-.05zm-6.921.336c-.17-.003-.204.21-.15.344.063.471.158.94.297 1.395.039.223.352.195.384-.015-.02-.43-.136-.852-.216-1.274-.043-.145-.025-.354-.187-.425a.298.298 0 0 0-.093-.021.137.137 0 0 0-.035-.004zm9.038 0c-.015 0-.03 0-.045.003-.187-.004-.249.205-.261.356-.094.44-.202.88-.249 1.328.006.149.225.3.343.177.072-.176.115-.365.166-.548.09-.369.17-.742.209-1.12a.17.17 0 0 0-.163-.195zM19.43 5.37c-.183.017-.167.283-.119.418.116.483.278.956.466 1.416.07.162.289-.027.334-.133.03-.183-.068-.357-.11-.53-.122-.37-.218-.753-.411-1.093-.028-.04-.07-.074-.12-.078h-.04zm13.347 0c-.18.05-.204.27-.278.414-.14.377-.265.762-.367 1.15-.045.17.108.306.259.336.159-.061.15-.302.23-.444.144-.412.267-.833.357-1.26.01-.112-.092-.205-.201-.196zm2.105.817c-.19.082-.245.304-.342.469-.19.39-.362.787-.53 1.186.106.09.28.186.414.123.136-.16.182-.38.284-.563.152-.343.279-.697.408-1.047.003-.117-.14-.16-.234-.168zm-17.549.003c-.152.008-.253.175-.169.313.112.35.293.672.432 1.01.077.148.118.322.22.452.12.067.338.008.376-.13-.026-.144-.1-.276-.145-.415a7.883 7.883 0 0 0-.54-1.123.275.275 0 0 0-.143-.106h-.03Zm-1.424.73-1.35.715.928 1.594 1.305-.77Zm20.428 0-.859 1.629 1.164.637 1.04-1.553zm-22.85 1.459c-.134.056-.351.17-.245.347.167.303.379.579.576.862.135.163.25.358.43.472.175.092.34-.137.248-.292-.182-.347-.425-.658-.66-.972-.114-.14-.219-.292-.349-.417Zm25.271 0c-.259.26-.456.575-.68.866-.132.187-.261.376-.382.57-.047.168.204.378.335.23.364-.417.694-.867.993-1.333.077-.17-.137-.285-.266-.333zM11.724 9.809c-.13.055-.309.196-.22.353.158.254.377.465.568.694.182.199.358.41.563.584.172.003.34-.242.208-.393a13.477 13.477 0 0 0-1.097-1.23zm28.8.004c-.18.126-.305.312-.461.465-.242.27-.494.537-.698.838-.055.147.104.334.252.316.16-.117.278-.29.423-.429.243-.266.487-.534.705-.821.087-.167-.078-.317-.22-.37zm-30.443 1.635c-.161.036-.287.256-.124.374.3.318.624.611.95.902.123.11.347.349.463.1.131-.173-.037-.351-.172-.454-.322-.303-.643-.612-.997-.877a.36.36 0 0 0-.12-.045zm32.087 0c-.248.078-.41.298-.609.452-.24.221-.496.43-.708.678-.067.138.046.377.208.363.126-.08.231-.19.35-.282.326-.284.646-.577.937-.895.078-.132-.053-.282-.178-.316zM8.7 13.213v.002c-.013 0-.04.013-.04 0-.122.031-.31.186-.202.313.418.35.852.687 1.317.973.158.125.44-.138.297-.291-.202-.226-.472-.376-.707-.565-.211-.152-.416-.324-.657-.425 0-.005-.004-.007-.008-.007zm34.886.002c-.259.055-.444.262-.662.397-.26.194-.533.377-.767.603-.102.172.156.418.319.282.455-.313.913-.627 1.336-.985.09-.138-.122-.258-.226-.297zM7.653 14.54l-.742 1.362 1.542.884.85-1.267zm36.942 0-1.646.977.752 1.243 1.588-.847zm-4.013.94a1.47 1.47 0 0 0-.752.194c-.266.07-.35.308-.135.49.159.373.396-.101.664-.097.307-.114.647.178.496.493-.208.394-.61.634-.894.97a1.313 1.313 0 0 0-.361 1.103h2.052v-.556c-.424 0-.848.004-1.271-.003-.056-.118.243-.349.359-.48.35-.343.799-.7.819-1.231.005-.234-.071-.48-.246-.641a1.214 1.214 0 0 0-.73-.243zM6.34 17.052c-.141.117-.193.387.023.454.433.254.897.448 1.348.667.186.104.322-.141.32-.298-.072-.151-.29-.151-.42-.248-.42-.2-.84-.398-1.27-.575zm39.601.042c-.34.081-.654.245-.978.372a7.831 7.831 0 0 0-.728.348c-.058.14.052.314.178.374.19-.012.35-.153.53-.209.352-.158.707-.312 1.037-.513.113-.1.06-.284-.039-.372zM5.576 19.258c-.134-.01-.254.157-.154.271.123.13.31.17.47.24.358.126.716.264 1.09.33.174.037.34-.201.211-.337-.39-.198-.821-.305-1.238-.435a2.066 2.066 0 0 0-.38-.068zm41.067.005c-.463.055-.894.244-1.332.389-.153.045-.39.152-.265.346.067.224.304.095.449.044.43-.131.868-.251 1.27-.454.149-.075.111-.332-.069-.324h-.027zm-41.72 2.164c-.17.07-.164.384.04.402.375.113.763.175 1.145.258.152.02.313.063.463.02.122-.062.224-.305.06-.374-.145-.034-.292-.063-.437-.098-.42-.088-.843-.17-1.27-.208zm42.402 0c-.529.047-1.05.16-1.566.274-.213-.018-.297.209-.149.353.1.154.294.052.436.038.426-.076.854-.153 1.272-.265.146-.07.188-.355.007-.4zM4.472 23.62c.013.147-.061.385.141.43.273.057.555.064.83.111.27.034.547.066.816.01.18-.067.147-.354-.055-.36-.461-.096-.935-.113-1.403-.16l-.33-.03zm43.305 0c-.587.062-1.18.077-1.759.2-.164.022-.215.234-.101.343.132.091.308.022.46.035.423-.022.844-.081 1.262-.143.19-.064.13-.285.138-.434zm-4.917.426a1.737 1.737 0 0 0-.772.175c-.244.046-.135.2-.061.355.074.348.34.078.564.047.265-.083.655.053.604.385-.081.359-.518.305-.798.305v.375c-.048.258.332.13.483.172.363-.016.593.464.31.713-.285.186-.659.144-.971.053-.306-.204-.302.23-.353.432.193.168.598.185.886.205.203.001.41-.02.602-.088.516-.137.775-.773.555-1.245-.055-.199-.293-.312-.394-.42.434-.244.445-.908.086-1.222a1.225 1.225 0 0 0-.741-.242ZM4.388 25.312v1.586h1.836v-1.586zm41.636 0v1.586h1.836v-1.586zm.102 2.72c-.127.005-.257.04-.261.193.003.202.247.181.388.203.458.045.915.153 1.378.123.177.01.185-.244.098-.342-.154-.112-.359-.08-.537-.116a11.992 11.992 0 0 0-1.066-.061zM6 28.035c-.47.017-.942.037-1.404.124-.166.058-.14.286-.109.418.143.017.293-.029.44-.029.44-.039.881-.064 1.312-.156.15-.029.195-.245.062-.322-.093-.05-.203-.029-.301-.035zm39.761 2.048c-.163-.008-.309.232-.15.34.205.115.445.145.67.207.309.061.618.148.934.153.177.013.28-.213.184-.35-.246-.137-.537-.145-.805-.213-.265-.052-.53-.108-.8-.13a.153.153 0 0 0-.033-.007zm-39.271.004-.036.003c-.49.046-.967.178-1.45.262-.22.037-.29.413-.045.458.207-.005.408-.075.612-.108.343-.07.689-.135 1.02-.252.19-.066.113-.344-.067-.36zm38.672 1.984c-.113.082-.228.295-.072.391.25.135.53.205.793.306.244.082.494.165.751.187.17.017.29-.215.144-.323-.197-.125-.429-.182-.646-.264-.321-.105-.643-.21-.97-.297ZM7.1 32.103c-.492.086-.966.254-1.431.433-.164.047-.377.201-.231.383.16.146.393-.012.574-.044.388-.125.783-.239 1.155-.407.138-.083.07-.329-.067-.365zm3.87.61a1.168 1.168 0 0 0-.18.027c-.448.07-.813.501-.764.96-.06.278.343.447.309.652-.343.239-.496.738-.266 1.104.25.44.827.526 1.284.44.439-.046.813-.445.788-.892a.687.687 0 0 0-.019-.195c-.005-.276-.365-.414-.399-.606a.811.811 0 0 0 .305-.896c-.139-.434-.624-.627-1.057-.595zm30.197.05a1.226 1.226 0 0 0-.302.024 8.12 8.12 0 0 0-1.33 1.883v.484h1.328v.69h.648v-.69h.329v-.541h-.329v-1.848h-.037c-.102.005-.205-.001-.307-.003zm-30.1.484c.179.01.353.119.36.321a.525.525 0 0 1-.229.445c-.257.087-.56-.219-.524-.482.028-.202.213-.293.393-.284zm29.796.326v1.04h-.698c.177-.38.449-.705.698-1.04zm-33.047.473c-.319.063-.594.248-.89.371-.228.11-.464.213-.669.362-.095.112-.02.349.129.365.153-.044.29-.135.441-.189.394-.18.786-.367 1.167-.574.113-.102-.054-.335-.178-.335zm36.656.003c-.013 0-.04.013-.039 0-.137.01-.283.226-.176.333.135.1.295.161.442.243.376.182.758.361 1.154.494.146-.008.247-.236.146-.346-.187-.162-.431-.238-.648-.354-.285-.132-.57-.273-.871-.364 0-.004-.004-.006-.008-.006zm-33.51.49c.03.004.062.014.095.034.228.076.499.269.425.544-.115.415-.86.352-.878-.087-.003-.184.142-.514.357-.49zm-2.456.872-1.574.893.823 1.308 1.545-.916zm35.238 0-.769 1.218 1.588 1.025.722-1.367zM9.927 37.706c-.269.031-.467.238-.687.375-.271.197-.552.388-.8.612-.055.15.119.304.251.33.153-.024.245-.168.374-.24.34-.252.699-.486.998-.786.076-.117-.003-.268-.136-.29zm32.418.004c-.282.02-.187.376.015.45.335.287.697.542 1.066.784.149.116.348.005.402-.155-.003-.17-.228-.217-.328-.337-.334-.258-.672-.52-1.048-.713a.479.479 0 0 0-.107-.03zm-8.674 1.385c-.026.53-.06 1.06-.122 1.588.117.12.48.022.689.103.254.027.568.184.549.482.003.27-.265.4-.5.407-.272.026-.535-.046-.788-.12-.052.151-.182.397-.078.552.465.134.982.21 1.443.02.478-.163.695-.744.539-1.204-.13-.443-.607-.641-1.028-.685-.329.022-.113-.39-.148-.587h1.11v-.556zm-17.524.024v.564h1.337a3.644 3.644 0 0 0-.204.326 5.776 5.776 0 0 0-.693 2.193h.67a3.98 3.98 0 0 1 .162-.878c.192-.619.458-1.23.883-1.725v-.48zm-4.899.139c-.284.15-.504.395-.747.601-.21.2-.431.39-.61.617-.066.167.156.362.31.251.355-.274.681-.585 1.01-.89.143-.113.32-.32.123-.475a2.916 2.916 0 0 0-.086-.104zm29.776.019c-.12.059-.28.229-.187.363.23.235.482.452.725.675.186.145.349.344.565.438.188.014.338-.24.167-.368-.384-.372-.763-.754-1.191-1.075l-.038-.02zm-1.432 1.49c-.136.053-.308.204-.205.36.168.26.388.483.587.719.174.184.332.389.525.55.14.017.294-.166.264-.302-.114-.23-.314-.403-.473-.6-.217-.248-.438-.49-.676-.718zm-26.934.004c-.209.156-.366.37-.55.553-.217.24-.444.472-.627.738-.051.15.108.32.249.33.182-.101.293-.3.447-.44.24-.27.49-.535.696-.833.083-.164-.083-.29-.215-.348zm13.99.614a.16.16 0 0 0-.081.003c-.645.024-1.337.319-1.618.936-.24.515-.27 1.146-.034 1.668.207.46.771.635 1.236.526.59-.102.938-.78.772-1.335-.1-.455-.596-.686-1.028-.663-.083-.056-.414.161-.354-.02.219-.428.733-.57 1.18-.574.018-.145.084-.501-.072-.541zm-12.306.747c-.235.054-.349.295-.496.463a9.337 9.337 0 0 0-.617.919c-.066.16.138.336.291.286.174-.141.279-.363.432-.531.195-.269.404-.533.549-.832a.215.215 0 0 0-.159-.305zm23.564 0c-.188.028-.228.266-.113.395.198.355.457.672.698.999.095.092.16.261.289.29.145-.02.32-.173.228-.328-.196-.33-.423-.644-.65-.954-.133-.144-.244-.363-.452-.402zm-12.189.896c.03 0 .062.002.093.008.054 0 .107.003.16.013.44.07.443.79.04.923-.341.137-.586-.25-.576-.551-.091-.243.072-.388.283-.393zm-10.184.007-.918 1.522 1.233.73.956-1.523zm21.17.01-1.25.664.895 1.63 1.246-.78zM17.945 44.24c-.175.06-.223.263-.312.405-.196.386-.354.789-.538 1.18-.02.18.246.212.376.207.118-.101.143-.274.223-.406.182-.408.35-.822.486-1.248-.017-.109-.15-.12-.235-.138zm16.328 0c-.152.008-.253.174-.169.313.113.35.294.671.433 1.01.077.148.117.322.22.452.12.067.337.008.375-.13-.026-.144-.099-.276-.145-.415a7.879 7.879 0 0 0-.536-1.118c-.037-.049-.086-.098-.147-.111h-.03zm-14.446.683c-.129.182-.17.407-.25.612-.123.367-.227.74-.31 1.117-.014.21.32.259.362.047.192-.383.296-.802.431-1.207.03-.144.13-.337-.017-.45a.756.756 0 0 0-.216-.12zm12.596 0c-.147.052-.34.162-.287.35.079.348.205.685.316 1.024.088.176.108.422.286.53.203.074.292-.172.211-.325a10.085 10.085 0 0 0-.48-1.512c.012-.036-.046-.04-.046-.067zm-10.563.585c-.111.135-.123.32-.18.48-.112.426-.209.86-.242 1.3.044.195.354.175.416 0 .057-.199.088-.405.137-.606.064-.313.135-.626.165-.943-.011-.146-.166-.222-.296-.23zm8.53 0c-.151.01-.332.118-.287.294.035.365.128.722.199 1.082.056.162.032.371.165.494.153.127.412-.003.338-.208a8.047 8.047 0 0 0-.353-1.564.223.223 0 0 0-.062-.098zm-6.398.345c-.172.006-.178.22-.203.347-.077.497-.09 1.001-.145 1.499.05.125.303.072.394-.008.065-.126.055-.278.083-.415.047-.415.086-.833.073-1.25-.005-.11-.098-.179-.202-.173zm4.23 0c-.167.01-.185.237-.164.372.015.468.03.94.122 1.402.04.178.296.146.41.114.029-.196-.035-.393-.033-.59-.034-.39-.048-.785-.143-1.165-.022-.067-.075-.143-.156-.132-.012 0-.024-.003-.035 0zm-2.89.154v1.836h1.586v-1.836z" style="shape-padding:0;vector-effect:none;fill:#000;fill-opacity:1;stroke:none;stroke-width:.08343966;stroke-linecap:butt;stroke-linejoin:miter;stroke-miterlimit:4;stroke-dasharray:none;stroke-dashoffset:0;stroke-opacity:1"/><path d="M26.458.005C15.566-.222 5.13 7.175 1.554 17.436-1.992 27.07.65 38.678 8.254 45.64c7.935 7.807 20.976 9.508 30.705 4.138 8.72-4.582 14.42-14.34 13.928-24.206-.14-10.823-7.772-20.939-18.043-24.248C32.15.411 29.3-.001 26.458.005Zm-.336 1.51c9.604-.18 18.91 5.955 22.6 14.817 4.145 9.17 1.782 20.704-5.574 27.558-7.168 7.105-18.845 8.896-27.84 4.35C6.548 44.07.812 34.36 1.549 24.664 1.967 14.776 9.044 5.605 18.51 2.7c2.456-.797 5.024-1.27 7.613-1.183Z" style="fill:url(#c);fill-opacity:1;stroke-width:.31536257"/><path d="M26.122 1.516C15.948 1.302 6.154 8.249 2.914 17.886-.366 26.79 2.16 37.47 9.13 43.927c7.453 7.341 19.751 8.97 28.841 3.776C46.937 42.91 52.22 32.188 50.44 22.163c-1.436-9.346-8.693-17.494-17.89-19.814-2.093-.598-4.25-.895-6.427-.833Zm.003 2.232c8.733-.164 17.194 5.415 20.55 13.472 3.769 8.34 1.62 18.826-5.068 25.06-6.518 6.46-17.136 8.088-25.315 3.955-7.964-3.793-13.181-12.62-12.51-21.439.38-9.104 6.98-17.526 15.734-20.07 2.14-.667 4.362-1.05 6.61-.978Z" style="fill:url(#d);fill-opacity:1;stroke-width:.31536257"/></svg>