<svg xmlns="http://www.w3.org/2000/svg" xmlns:xlink="http://www.w3.org/1999/xlink" width="200" height="199.901" viewBox="0 0 52.917 52.89"><defs><linearGradient id="a"><stop offset="0" style="stop-color:#338000;stop-opacity:1"/><stop offset="1" style="stop-color:#9f5;stop-opacity:1"/></linearGradient><linearGradient id="b"><stop offset="0" style="stop-color:#9f5;stop-opacity:1"/><stop offset="1" style="stop-color:#338000;stop-opacity:1"/></linearGradient><linearGradient xlink:href="#a" id="d" x1="-4535.859" x2="-3945.779" y1="16750.615" y2="16750.615" gradientTransform="matrix(.08344 0 0 .08344 379.997 -1371.537)" gradientUnits="userSpaceOnUse"/><linearGradient xlink:href="#b" id="c" x1="-4553.898" x2="-3920.205" y1="16754.506" y2="16754.506" gradientTransform="matrix(.08344 0 0 .08344 379.997 -1371.537)" gradientUnits="userSpaceOnUse"/></defs><path d="M103.424 26.162a5.81 5.81 0 0 0-3.715 1.483c.149.656.726 1.563 1.283 1.709.856-.772 2.174-1.377 3.283-.79.824.617.535 1.862-.132 2.483-1.287 1.586-3.245 2.673-3.983 4.666-.178.685-.55 1.924-.066 2.365h7.59V35.98c-1.572 0-3.142-.012-4.713.012-.415-.491.622-.997.865-1.447 1.262-1.286 2.859-2.433 3.38-4.246.392-1.404-.182-3.172-1.622-3.719-.679-.302-1.44-.425-2.17-.418zm-8.942.281c-1.08 1.083-2.444 1.834-3.845 2.418.383.632.376 2.237 1.513 1.668.52-.086 1.283-.849 1.577-.705v8.254h2.502V26.443h-1.747zm-34.127 8.703c-.887 1.243-3.14 1.742-3.707 2.668.118 1.013.77 2.196 1.862 1.194.692-.626 1.32-.528 1.09.408v7.367h2.502V35.146h-1.747zm9.543 0c-.887 1.243-3.14 1.742-3.707 2.668.118 1.013.77 2.196 1.862 1.194.692-.626 1.32-.528 1.09.408v7.367h2.502V35.146h-1.747zm59.606.002c-1.08 1.084-2.444 1.834-3.846 2.418l.756 1.93c.812-.281 1.618-.609 2.334-1.092v8.38h2.502V35.147h-1.746zm23.877 23.36a5.554 5.554 0 0 0-2.844.738c-1.006.262-1.325 1.163-.51 1.854.6 1.407 1.497-.386 2.51-.371 1.161-.43 2.447.672 1.875 1.865-.787 1.49-2.306 2.395-3.377 3.662a4.962 4.962 0 0 0-1.367 4.172h7.758v-2.1c-1.602-.001-3.206.013-4.807-.012-.21-.448.919-1.32 1.358-1.818 1.32-1.294 3.019-2.642 3.095-4.65.018-.882-.268-1.812-.93-2.422-.789-.613-1.768-.903-2.761-.918zm-106.457.277c-.209 0-.418.012-.627.045-1.914.216-3.14 2.05-3.45 3.82-.324 2.046-.341 4.267.585 6.168.86 2.018 3.596 2.716 5.414 1.59 1.809-1.184 2.213-3.54 2.2-5.549-.013-1.277-.143-2.593-.702-3.76-.555-1.377-1.958-2.289-3.42-2.314zm-9.365.281c-1.08 1.084-2.445 1.834-3.846 2.418l.7 1.787c.645.174 1.695-.574 2.39-.947v8.38h2.502V59.065h-1.746zm9.347 1.873c.169 0 .344.05.52.141 1.13.855.992 2.504 1.068 3.78 0 .198 0 .397-.014.595-.093 1.094-.04 2.563-1.097 3.207-1.174.582-1.98-.817-2.045-1.818-.162-1.478-.236-3.012.119-4.469.105-.739.719-1.456 1.45-1.436zm115.082 29.942a6.566 6.566 0 0 0-2.914.664c-.924.172-.513.753-.232 1.34.28 1.317 1.286.297 2.133.18 1.001-.315 2.472.197 2.283 1.455-.31 1.354-1.958 1.152-3.018 1.152v1.418c-.182.975 1.255.489 1.826.648 1.37-.059 2.24 1.753 1.174 2.696-1.079.703-2.492.545-3.674.2-1.155-.772-1.14.87-1.332 1.634.73.633 2.26.696 3.348.775.768.003 1.547-.078 2.275-.334 1.95-.519 2.928-2.923 2.098-4.705-.208-.752-1.106-1.181-1.488-1.588 1.64-.923 1.682-3.432.322-4.617-.808-.626-1.795-.903-2.8-.918zm-129.445.351a4.859 4.859 0 0 0-1.477.276c-2.564.936-3.343 4.858-1.187 6.6 1.264.823 2.966 1.001 4.371.437a3.605 3.605 0 0 1-.227.568c-.658 1.46-2.359 1.939-3.832 1.977-1.18-.133-.412 1.41-.564 2.105 1.111-.013 2.235-.116 3.299-.453 1.805-.497 3.271-1.962 3.736-3.781.453-1.861.54-3.956-.34-5.709-.694-1.423-2.256-2.068-3.779-2.02zm.262 2.079c.974.053 1.618 1.145 1.607 2.093.444 1.005-.41 1.724-1.387 1.512-.36-.001-.73-.041-1.068-.178-1.304-.662-1.055-3.069.41-3.383.152-.038.298-.052.438-.044z" style="opacity:1;vector-effect:none;fill:#b3b3b3;fill-opacity:1;stroke:none;stroke-width:.31536174;stroke-linecap:butt;stroke-linejoin:miter;stroke-miterlimit:4;stroke-dasharray:none;stroke-dashoffset:0;stroke-opacity:1" transform="matrix(.26458 0 0 .26458 0 0)"/><path d="M45.34 40.828a24.618 24.618 0 0 1-16.317 9.42 24.618 24.618 0 0 1-18.2-4.876l14.987-19.53Z" style="opacity:1;vector-effect:none;fill:#faa;fill-opacity:1;stroke:none;stroke-width:.08343966;stroke-linecap:butt;stroke-linejoin:miter;stroke-miterlimit:4;stroke-dasharray:none;stroke-dashoffset:0;stroke-opacity:1"/><path d="M26.458.005C15.566-.222 5.13 7.175 1.554 17.436-1.992 27.07.65 38.678 8.254 45.64c7.935 7.807 20.976 9.508 30.705 4.138 8.72-4.582 14.42-14.34 13.928-24.206-.14-10.823-7.772-20.939-18.043-24.248C32.15.411 29.3-.001 26.458.005Zm-.336 1.51c9.604-.18 18.91 5.955 22.6 14.817 4.145 9.17 1.782 20.704-5.574 27.558-7.168 7.105-18.845 8.896-27.84 4.35C6.548 44.07.812 34.36 1.549 24.664 1.967 14.776 9.044 5.605 18.51 2.7c2.456-.797 5.024-1.27 7.613-1.183z" style="fill:url(#c);fill-opacity:1;stroke-width:.31536257"/><path d="M26.122 1.516C15.948 1.302 6.154 8.249 2.914 17.886-.366 26.79 2.16 37.47 9.13 43.927c7.453 7.341 19.751 8.97 28.841 3.776C46.937 42.91 52.22 32.188 50.44 22.163c-1.436-9.346-8.693-17.494-17.89-19.814-2.093-.598-4.25-.895-6.427-.833zm.003 2.232c8.733-.164 17.194 5.415 20.55 13.472 3.769 8.34 1.62 18.826-5.068 25.06-6.518 6.46-17.136 8.088-25.315 3.955-7.964-3.793-13.181-12.62-12.51-21.439.38-9.104 6.98-17.526 15.734-20.07 2.14-.667 4.362-1.05 6.61-.978z" style="fill:url(#d);fill-opacity:1;stroke-width:.31536257"/><path d="M95.74 16.516v6.94h5.992v-6.94H95.74zm-5.482.295v.002c-.043 0-.087.013-.13.017-.258 0-.52.012-.776 0 .21 2.268.297 4.553.718 6.795.134.391.649.527.994.338.354-.134.37-.568.366-.889.014-1.223-.065-2.447-.17-3.666-.074-.713-.147-1.43-.291-2.133a.747.747 0 0 0-.711-.464zm17.574.002c-.183.012-.406.05-.51.015-.977-.114-.933 1.158-1.011 1.817-.172 1.642-.487 3.292-.397 4.945.438.94 1.707.369 1.586-.576.364-1.983.4-4.008.605-6.01.054-.172-.09-.199-.273-.192zm-26.158 1.269c-.638-.012-.77.796-.565 1.3.238 1.782.595 3.555 1.121 5.272.147.842 1.332.738 1.454-.056-.074-1.626-.516-3.22-.817-4.817-.165-.545-.097-1.337-.707-1.605a1.126 1.126 0 0 0-.353-.08.518.518 0 0 0-.133-.014zm34.16 0c-.055 0-.11 0-.168.012-.71-.018-.94.772-.988 1.343-.354 1.665-.764 3.326-.94 5.02.022.562.85 1.134 1.295.67.27-.664.434-1.378.63-2.072.338-1.393.641-2.803.786-4.23a.64.64 0 0 0-.615-.741v-.002zm-42.395 2.211c-.69.063-.629 1.068-.449 1.58.438 1.827 1.051 3.613 1.762 5.35.267.615 1.09-.1 1.262-.5.113-.692-.257-1.35-.414-2.008-.465-1.393-.825-2.844-1.557-4.127-.105-.152-.264-.282-.455-.295h-.149zm50.446 0c-.679.19-.77 1.02-1.05 1.562a45.907 45.907 0 0 0-1.388 4.352c-.17.636.41 1.153.979 1.266.6-.231.566-1.142.87-1.676a39.435 39.435 0 0 0 1.349-4.766c.035-.421-.348-.773-.76-.738zm7.955 3.088c-.72.309-.926 1.149-1.293 1.771-.715 1.472-1.365 2.976-2.002 4.483.4.344 1.062.702 1.566.465.511-.608.686-1.437 1.073-2.13.572-1.293 1.054-2.633 1.54-3.954.013-.441-.528-.608-.884-.635zm-66.324.012c-.575.03-.96.66-.639 1.183.423 1.32 1.106 2.538 1.633 3.819.29.558.446 1.213.832 1.707.455.252 1.277.03 1.418-.493-.098-.544-.374-1.044-.55-1.57-.591-1.453-1.221-2.901-2.036-4.244-.137-.179-.322-.344-.541-.399h-.117v-.003zm-5.385 2.76-5.1 2.7 3.508 6.026 4.93-2.91-3.338-5.817zm77.21 0-3.247 6.154 4.4 2.41 3.93-5.873-5.082-2.692zM50.98 31.663c-.508.214-1.328.646-.928 1.315.63 1.142 1.433 2.185 2.18 3.255.508.616.943 1.353 1.624 1.786.662.346 1.286-.518.938-1.104-.69-1.312-1.61-2.488-2.492-3.674-.433-.529-.83-1.105-1.322-1.578zm95.513 0c-.98.987-1.726 2.175-2.568 3.275-.504.704-.992 1.42-1.447 2.157-.178.633.769 1.427 1.267.869a42.992 42.992 0 0 0 3.752-5.043c.292-.639-.518-1.075-1.004-1.258zm-102.181 5.41c-.492.209-1.168.74-.829 1.334.595.96 1.423 1.756 2.143 2.623.691.75 1.356 1.547 2.129 2.205.652.014 1.285-.915.785-1.482-1.298-1.618-2.657-3.197-4.144-4.647l-.084-.033zm108.851.014c-.679.476-1.155 1.181-1.744 1.758-.914 1.024-1.866 2.031-2.637 3.168-.207.554.391 1.26.951 1.195.608-.445 1.052-1.097 1.598-1.621.92-1.007 1.844-2.02 2.668-3.106.328-.63-.295-1.195-.836-1.394zM38.102 43.27c-.61.135-1.084.964-.47 1.414 1.132 1.2 2.36 2.308 3.589 3.408.468.413 1.313 1.318 1.754.375.493-.653-.144-1.326-.653-1.715-1.215-1.146-2.427-2.312-3.767-3.313a1.363 1.363 0 0 0-.453-.17zm121.271 0c-.935.293-1.549 1.124-2.299 1.707-.908.835-1.875 1.625-2.676 2.564-.255.519.172 1.425.784 1.371.476-.304.876-.72 1.326-1.068 1.23-1.072 2.438-2.18 3.54-3.383.292-.499-.201-1.063-.675-1.191zM32.885 49.94l.002.005c-.052 0-.155.052-.155 0-.457.12-1.17.706-.76 1.186 1.578 1.324 3.218 2.595 4.975 3.678.6.471 1.668-.523 1.123-1.102-.763-.854-1.783-1.422-2.67-2.137-.799-.572-1.574-1.223-2.486-1.603 0-.02-.013-.028-.03-.028zm131.851.005c-.977.208-1.676.993-2.5 1.504-.983.733-2.016 1.425-2.898 2.278-.385.649.589 1.58 1.203 1.066 1.721-1.185 3.453-2.372 5.05-3.723.342-.524-.458-.975-.855-1.125zm-135.81 5.012-2.807 5.15 5.828 3.34 3.215-4.787-6.236-3.703zm139.62 0-6.22 3.693 2.844 4.698 6.002-3.202-2.625-5.189zM23.964 64.453c-.534.441-.73 1.461.086 1.717 1.636.96 3.39 1.693 5.094 2.52.704.391 1.219-.535 1.209-1.127-.269-.571-1.097-.57-1.586-.936-1.586-.758-3.178-1.505-4.803-2.174zm149.674.158c-1.287.307-2.472.926-3.7 1.405-.934.4-1.86.821-2.75 1.316-.218.533.197 1.188.674 1.416.717-.046 1.32-.581 2.004-.791 1.328-.598 2.672-1.18 3.916-1.94.43-.375.23-1.072-.144-1.406zM21.074 72.79c-.506-.042-.959.593-.582 1.022.467.492 1.175.644 1.778.91 1.352.473 2.704.997 4.119 1.244.658.142 1.284-.761.799-1.276-1.478-.745-3.105-1.15-4.682-1.64a7.81 7.81 0 0 0-1.33-.242.374.374 0 0 0-.102-.018zm155.213.018c-1.748.207-3.377.919-5.035 1.468-.578.169-1.471.576-.998 1.309.253.844 1.149.362 1.695.166 1.622-.496 3.28-.95 4.801-1.717.562-.285.419-1.255-.262-1.224h-.101l-.1-.002zm-157.68 8.175c-.646.266-.622 1.455.153 1.522 1.416.427 2.881.664 4.326.976.573.077 1.184.237 1.75.075.46-.237.844-1.153.225-1.414-.548-.13-1.102-.24-1.65-.371-1.588-.333-3.187-.643-4.804-.788zm160.258 0c-1.998.178-3.965.606-5.92 1.04-.804-.07-1.119.788-.56 1.333.375.584 1.109.197 1.646.143 1.61-.29 3.228-.58 4.807-1.004.553-.264.712-1.34.03-1.512h-.003zM16.9 89.273v.002c.053.554-.228 1.454.536 1.621 1.031.217 2.096.244 3.136.422 1.019.128 2.068.252 3.082.037.68-.25.557-1.338-.205-1.359-1.743-.364-3.534-.43-5.303-.61-.415-.036-.83-.073-1.246-.113zm163.672.002c-2.217.234-4.46.29-6.646.752-.622.084-.813.887-.383 1.297.502.346 1.167.086 1.742.133 1.598-.083 3.187-.306 4.768-.539.716-.242.494-1.077.52-1.643zM16.584 95.668v5.992h6.94v-5.992h-6.94zm157.365 0v5.992h6.94v-5.992h-6.94zm.385 10.28v.001c-.48.017-.97.152-.986.727.012.763.933.687 1.464.767 1.734.17 3.46.58 5.21.467.668.04.699-.922.37-1.295-.583-.42-1.355-.303-2.029-.437a45.327 45.327 0 0 0-3.57-.219 4.098 4.098 0 0 0-.459-.012zm-151.658.013c-1.775.064-3.558.137-5.307.467-.627.22-.525 1.08-.41 1.58.54.065 1.108-.11 1.666-.11 1.657-.147 3.328-.24 4.957-.59.564-.108.734-.925.232-1.218-.349-.185-.765-.108-1.138-.13zm150.28 7.74c-.618-.032-1.168.877-.571 1.287.776.431 1.685.543 2.533.778 1.169.233 2.336.559 3.533.578.67.05 1.057-.803.695-1.319-.931-.519-2.03-.549-3.044-.806-1.001-.2-2.004-.411-3.022-.496a.579.579 0 0 0-.125-.022zm-148.429.014-.134.012c-1.853.171-3.655.673-5.48.988-.834.142-1.1 1.562-.169 1.732.782-.02 1.54-.282 2.31-.406 1.296-.267 2.605-.512 3.854-.953.719-.252.43-1.302-.25-1.36l-.13-.013zm146.164 7.5c-.429.308-.862 1.114-.273 1.476.943.509 2 .773 2.998 1.159.923.307 1.865.621 2.838.705.642.065 1.093-.813.543-1.223-.744-.472-1.62-.687-2.44-.996-1.214-.396-2.432-.793-3.666-1.121zm-143.86.119c-1.861.324-3.653.959-5.41 1.639-.618.175-1.425.758-.872 1.447.602.55 1.487-.046 2.17-.168 1.467-.474 2.958-.901 4.365-1.54.523-.312.262-1.24-.254-1.378zm14.63 2.303a4.43 4.43 0 0 0-.684.105c-1.693.266-3.072 1.895-2.888 3.627-.228 1.053 1.297 1.691 1.168 2.465-1.297.902-1.874 2.79-1.004 4.174.946 1.661 3.124 1.985 4.853 1.66 1.658-.171 3.073-1.68 2.979-3.371h-.002a2.594 2.594 0 0 0-.07-.736c-.02-1.043-1.38-1.566-1.508-2.29 1.05-.743 1.557-2.154 1.152-3.384-.524-1.643-2.36-2.373-3.996-2.25zm114.127.19c-.387-.007-.77.003-1.143.091-2.025 2.1-3.677 4.538-5.027 7.12v1.83h5.02v2.603h2.45v-2.604h1.243v-2.047h-1.242v-6.984h-.143c-.383.02-.771-.003-1.158-.01zm-113.766 1.831c.679.035 1.338.45 1.36 1.215.025.64-.32 1.336-.862 1.682-.974.328-2.116-.83-1.98-1.825.105-.761.804-1.107 1.482-1.072zm112.615 1.233v3.93h-2.636c.67-1.44 1.696-2.665 2.637-3.93zm-124.9 1.789c-1.205.237-2.245.936-3.367 1.4-.86.418-1.749.806-2.524 1.37-.362.422-.08 1.317.485 1.378.579-.166 1.095-.51 1.668-.713 1.49-.68 2.973-1.388 4.41-2.172.426-.383-.205-1.264-.672-1.263zm138.543.007v.004c-.05 0-.149.048-.148 0-.518.037-1.068.855-.666 1.26.512.375 1.115.606 1.67.914 1.42.69 2.865 1.366 4.36 1.87.555-.03.938-.895.556-1.31-.71-.612-1.632-.9-2.452-1.337-1.078-.5-2.153-1.032-3.293-1.375 0-.017-.011-.024-.027-.025zm-126.656 1.856a.93.93 0 0 1 .363.125c.86.287 1.884 1.018 1.606 2.057-.435 1.569-3.252 1.33-3.319-.327-.01-.698.538-1.942 1.35-1.855zm-9.278 3.295-5.949 3.373 3.108 4.943 5.84-3.46-2.999-4.856zm133.18 0-2.904 4.603 6.002 3.871 2.726-5.164-5.824-3.31zm-127.808 8.674c-1.015.118-1.765.899-2.596 1.418-1.024.745-2.086 1.464-3.022 2.312-.208.563.449 1.15.95 1.244.576-.088.923-.632 1.41-.908 1.286-.95 2.641-1.835 3.773-2.969.286-.442-.011-1.01-.515-1.097zm122.527.013c-1.065.077-.708 1.424.057 1.702 1.266 1.084 2.634 2.05 4.027 2.964.562.438 1.317.017 1.52-.586-.013-.64-.863-.82-1.239-1.273-1.264-.973-2.54-1.966-3.963-2.697a1.81 1.81 0 0 0-.402-.11zm-32.783 5.237c-.1 2.004-.232 4.008-.463 6.002.442.453 1.815.08 2.603.386.961.104 2.147.698 2.075 1.823.012 1.02-1 1.513-1.891 1.54-1.027.098-2.02-.174-2.975-.452-.198.569-.69 1.497-.297 2.084 1.757.505 3.713.794 5.454.076 1.807-.617 2.63-2.814 2.037-4.553-.487-1.673-2.291-2.422-3.883-2.588-1.243.084-.427-1.476-.56-2.219h4.197v-2.1h-6.297zm-66.233.09v2.132h5.053c-.28.397-.536.809-.773 1.233-1.396 2.556-2.333 5.384-2.618 8.287h2.536c.069-1.126.288-2.24.607-3.32.727-2.338 1.734-4.645 3.338-6.52v-1.812h-8.143zm-18.515.523c-1.077.57-1.906 1.494-2.827 2.273-.79.753-1.628 1.478-2.306 2.332-.247.631.59 1.37 1.174.95 1.34-1.037 2.574-2.211 3.82-3.364.537-.425 1.204-1.21.46-1.795a11.016 11.016 0 0 0-.321-.396zm112.539.074c-.455.224-1.058.864-.71 1.371.873.89 1.821 1.71 2.741 2.553.705.548 1.318 1.3 2.137 1.654.71.053 1.276-.904.629-1.392-1.45-1.406-2.881-2.848-4.502-4.063l-.143-.074-.152-.049zm-5.414 5.633c-.513.2-1.165.77-.774 1.36.634.982 1.466 1.825 2.219 2.718.655.696 1.253 1.468 1.984 2.078.53.063 1.11-.629.996-1.144-.43-.868-1.185-1.52-1.787-2.27-.819-.933-1.657-1.851-2.556-2.709l-.082-.033zm-101.8.012c-.787.592-1.38 1.402-2.08 2.092-.816.903-1.676 1.785-2.366 2.789-.194.565.409 1.209.939 1.248.69-.384 1.11-1.132 1.69-1.662.908-1.021 1.856-2.025 2.632-3.149.315-.62-.312-1.101-.814-1.318zm52.88 2.32a.606.606 0 0 0-.309.014c-2.437.09-5.054 1.204-6.115 3.537-.908 1.946-1.022 4.333-.127 6.305.78 1.736 2.913 2.4 4.67 1.986 2.232-.385 3.545-2.948 2.918-5.045-.378-1.721-2.253-2.593-3.887-2.506-.314-.212-1.565.61-1.336-.076.826-1.618 2.77-2.154 4.46-2.168.066-.548.319-1.895-.274-2.047zm-46.512 2.824c-.89.204-1.319 1.116-1.875 1.75-.824 1.125-1.65 2.26-2.334 3.473-.247.61.524 1.272 1.102 1.082.657-.534 1.053-1.37 1.632-2.008.735-1.015 1.525-2.014 2.075-3.144.235-.48-.072-1.078-.6-1.153zm89.059 0c-.709.105-.862 1.007-.426 1.492.746 1.345 1.728 2.54 2.639 3.776.358.348.603.99 1.09 1.098.548-.076 1.211-.654.86-1.24-.738-1.25-1.595-2.432-2.452-3.604-.504-.545-.926-1.375-1.711-1.522zm-46.067 3.389c.114-.002.233.008.352.027.201.001.404.013.603.051 1.661.264 1.674 2.989.155 3.488-1.293.519-2.218-.947-2.182-2.084-.345-.918.274-1.465 1.072-1.482zm-38.492.023-3.469 5.756 4.66 2.754 3.612-5.754-4.803-2.756zm80.016.04-4.73 2.51 3.384 6.163 4.709-2.95-3.363-5.724zm-70.903 4.517c-.663.228-.841.994-1.181 1.531-.74 1.458-1.337 2.981-2.032 4.46-.072.676.93.8 1.42.782.449-.383.543-1.037.842-1.535.691-1.54 1.328-3.108 1.84-4.718-.064-.41-.564-.456-.889-.52zm61.713 0c-.574.03-.959.658-.638 1.182.423 1.32 1.108 2.537 1.634 3.818.29.559.444 1.216.83 1.709.455.253 1.277.03 1.418-.494-.097-.543-.372-1.042-.547-1.567-.59-1.445-1.214-2.888-2.025-4.224-.14-.186-.324-.372-.555-.422h-.117v-.002zm-54.601 2.58c-.485.687-.644 1.54-.948 2.315a40.659 40.659 0 0 0-1.166 4.22c-.054.79 1.204.978 1.366.178.726-1.447 1.12-3.03 1.63-4.56.111-.546.488-1.274-.066-1.7a2.857 2.857 0 0 0-.816-.453zm47.607 0c-.554.198-1.282.615-1.084 1.32.298 1.318.773 2.592 1.193 3.875.333.662.411 1.594 1.08 1.998.768.283 1.106-.646.801-1.224-.478-1.94-1.034-3.873-1.812-5.717.042-.133-.178-.148-.178-.252zM82.615 172c-.419.51-.465 1.208-.677 1.814-.426 1.61-.79 3.25-.917 4.91.166.74 1.338.662 1.573 0 .216-.75.334-1.528.52-2.288.241-1.182.51-2.364.622-3.565-.044-.55-.628-.84-1.12-.871zm32.242 0c-.573.034-1.256.445-1.087 1.11.134 1.38.485 2.73.751 4.09.214.613.122 1.404.625 1.868.579.482 1.557-.014 1.278-.787a30.415 30.415 0 0 0-1.332-5.914.843.843 0 0 0-.235-.367zm-24.183 1.303c-.65.022-.672.831-.766 1.314-.293 1.876-.339 3.781-.549 5.662.192.473 1.147.271 1.489-.03.245-.475.209-1.048.312-1.567.179-1.568.328-3.15.278-4.729-.017-.41-.37-.672-.764-.65zm15.99 0c-.633.04-.7.896-.623 1.404.056 1.77.116 3.557.46 5.299.153.674 1.122.554 1.55.431.11-.738-.133-1.484-.121-2.23-.132-1.47-.185-2.965-.541-4.402-.086-.253-.285-.539-.59-.498-.048 0-.092-.012-.135 0v-.004zm-10.924.582v6.937h5.992v-6.937H95.74z" style="shape-padding:0;opacity:1;vector-effect:none;fill:#000;fill-opacity:1;stroke:none;stroke-width:.31536174;stroke-linecap:butt;stroke-linejoin:miter;stroke-miterlimit:4;stroke-dasharray:none;stroke-dashoffset:0;stroke-opacity:1" transform="matrix(.26458 0 0 .26458 0 0)"/></svg>