<svg xmlns="http://www.w3.org/2000/svg" width="500" height="87.643" viewBox="0 0 132.292 23.189"><path d="M160.4 63.29a.837.837 0 0 0-.457.073c-1.816.965 1.124 2.898 1.32.866.016-.487-.404-.888-.863-.94zm214.075 0a.837.837 0 0 0-.457.073c-1.817.965 1.121 2.898 1.318.866.015-.487-.403-.888-.861-.94zm-245.407.108a2.68 2.68 0 0 0-.703.164c-2.104.778-2.35 3.396-2.135 5.317.092 1.767 1.476 3.652 3.424 3.34 2.126-.173 2.93-2.565 2.846-4.395a7.78 7.78 0 0 0-.139-1.531c-.178-1.64-1.664-3.046-3.293-2.895zm214.075 0a2.68 2.68 0 0 0-.704.164c-2.104.778-2.35 3.396-2.134 5.317.091 1.767 1.475 3.652 3.424 3.34 2.126-.173 2.93-2.565 2.845-4.395a7.78 7.78 0 0 0-.138-1.531c-.179-1.64-1.664-3.046-3.293-2.895zm-220.61.014c-.776-.002-1.584.234-2.14.797-1.12.818-.883 2.482.584 1.664.246-1.863 3.434-1.391 2.638.547-.425 1.082-2.27.254-1.767 1.732 1.954-.511 2.909 2.796.49 2.842-1.29.111-1.575-2.124-2.91-1.082.036 1.53 1.96 2.692 3.508 2.281 1.927-.08 3.207-2.683 1.777-4.109-1.722-.612.096-.617.328-1.717.558-1.566-.935-3.113-2.508-2.955zm214.074 0c-.776-.002-1.584.234-2.14.797-1.12.818-.883 2.482.584 1.664.246-1.863 3.432-1.391 2.637.547-.426 1.082-2.268.254-1.766 1.732 1.954-.511 2.907 2.796.488 2.842-1.29.111-1.573-2.124-2.908-1.082.036 1.53 1.96 2.692 3.508 2.281 1.928-.08 3.208-2.683 1.777-4.109-1.721-.612.096-.617.328-1.717.558-1.566-.935-3.113-2.508-2.955zm-172.689.703c-.46.072-.759.426-.72 1.008-.017.67-.213 1.159-.971 1.07-.584.308.048 1.253.724.926v2.371c-.101 1.17.07 2.876 1.654 2.746.574 0 1.162-.172 1.606-.545-.27-.966-.938-.682-1.649-.804-.283-.92-.07-1.944-.136-2.908-.178-.755.127-1.028.873-.86.813.24.856-.29.763-.955-.345-.232-1.13-.025-1.636-.096v-1.927a1.361 1.361 0 0 0-.508-.026zm214.074 0c-.46.072-.759.426-.72 1.008-.017.67-.213 1.159-.971 1.07-.584.308.049 1.253.724.926v2.371c-.1 1.17.07 2.876 1.655 2.746.571 0 1.161-.172 1.605-.545-.27-.966-.938-.682-1.648-.804-.283-.92-.072-1.944-.137-2.908-.178-.755.127-1.028.873-.86.813.24.857-.29.764-.955-.345-.232-1.13-.025-1.637-.096v-1.927a1.361 1.361 0 0 0-.508-.026zm-248.765.533c1.234-.125 2.015 1.946 1.75 3.176 0 .22-.006.438-.02.656.477 1.853-2.196 3.704-2.973 1.448-.4-1.543-.525-3.387.323-4.805.326-.3.635-.446.92-.475zm214.074 0c1.234-.125 2.015 1.946 1.75 3.176 0 .22-.006.438-.02.656.477 1.853-2.195 3.704-2.972 1.448-.4-1.543-.526-3.387.322-4.805.326-.3.635-.446.92-.475zm-194.268 1.27c-.321 0-.645.04-.953.135-2.738.774-2.616 5.373.117 6.058.889.397 4.203-.135 3.01-1.422-1.248.318-3.722.854-3.648-1.427 1.32-.018 2.645.038 3.96-.028.697-1.504-.79-3.495-2.486-3.314v-.002zm214.074 0c-.321 0-.645.04-.953.135-2.738.774-2.616 5.373.117 6.058.889.397 4.203-.135 3.01-1.422-1.248.318-3.722.854-3.648-1.427 1.32-.018 2.645.038 3.96-.028.697-1.504-.79-3.495-2.486-3.314v-.002zm-207.164.002c-.586.013-1.174.23-1.584.664-.264.13-.722-.97-1.568-.57v6.127h1.475v-3.762c-.356-1.245 1.97-1.894 2.324-.635.137 1.36.03 2.74.064 4.11-.018.605 1.033.141 1.475.287-.037-1.539.081-3.09-.078-4.62-.153-1.073-1.13-1.622-2.108-1.601zm214.075 0c-.587.013-1.175.23-1.584.664-.265.13-.723-.97-1.569-.57v6.127h1.475v-3.762c-.356-1.245 1.97-1.894 2.324-.635.137 1.36.03 2.74.065 4.11-.019.605 1.032.141 1.474.287-.037-1.539.081-3.09-.078-4.62-.153-1.073-1.13-1.622-2.107-1.601zm-226.903.006c-.871-.075-1.798.297-2.164 1.138-.341-1.344-2.182-1.474-2.994-.5-.203.039-.744-.898-1.537-.55v6.127h1.475v-3.53c-.472-1.242 1.508-2.252 2.027-.9.133 1.372.03 2.762.062 4.143-.015.604 1.036.142 1.48.287v-3.422c-.469-1.281 1.474-2.419 2.02-.99.137 1.365.031 2.75.065 4.125-.019.605 1.033.141 1.474.287-.037-1.553.083-3.119-.082-4.662-.14-.954-.955-1.478-1.826-1.553zm214.074 0c-.87-.075-1.798.297-2.164 1.138-.34-1.344-2.182-1.474-2.994-.5-.203.039-.744-.898-1.537-.55v6.127h1.475v-3.53c-.472-1.242 1.507-2.252 2.025-.9.133 1.372.03 2.762.063 4.143-.016.604 1.038.142 1.482.287v-3.422c-.47-1.281 1.474-2.419 2.02-.99.136 1.365.028 2.75.062 4.125-.018.605 1.033.141 1.475.287-.037-1.553.084-3.119-.08-4.662-.141-.954-.955-1.478-1.827-1.553zm-197.609.088v5.84c-.015.604 1.036.142 1.48.287v-6.127h-1.48zm214.072 0v5.84c-.015.604 1.038.142 1.483.287v-6.127h-1.483zm-224.59.963c.778-.054 1.352.655 1.31 1.396h-1.733c-1.65.511-.833-1.56.423-1.396zm214.075 0c.777-.054 1.352.655 1.308 1.396h-1.732c-1.65.511-.833-1.56.424-1.396zM31.562 72.729a1.154 1.154 0 0 0-1.033.548c-1.22 1.806 2.304 2.872 2.338.721.025-.757-.643-1.256-1.304-1.27zm428.262.017a1.154 1.154 0 0 0-1.033.549c-1.22 1.806 2.304 2.87 2.338.719.024-.757-.643-1.254-1.305-1.268zm-438.787.143c-1.76-.065-3.454 1.029-3.863 2.789-.538.911.776.671 1.29.804.881-.674 1.45-2.413 2.997-1.847 1.581.43 1.326 2.51.553 3.552-1.32 1.714-2.975 3.135-4.467 4.696-.593.429-.784 1.131-.7 1.832h8.024c-.064-.664.286-1.799-.703-1.86-1.494.06-3.021-.167-4.48.235l1.566-1.596c1.465-1.574 3.513-3.085 3.42-5.457.008-1.883-1.84-3.264-3.637-3.148zm429.063.138-5.393 7.203c-.256.454.005 1.315.422 1.616 1.703.07 3.418.009 5.125.029v2.855h1.738v-2.363c-.242-.734.546-.44.987-.492.767-.024.401-.971.486-1.47-.328-.191-1.009-.029-1.473-.083v-7.295H450.1zm.16 2.446c.087.062.021.546-.006 1.025v3.824h-3.559l3.2-4.416c.205-.357.312-.471.365-.433zm-403.096.756a1.04 1.04 0 0 0-.41.064c-.939-.406-2.125 1.9-2.18.486-.323-.626-1.157-.268-1.73-.363v8.299h1.998v-5.75c.082-1.307 2.651-1.623 2.783-.094.106 1.942.019 3.897.047 5.844h2.006v-5.12c-.404-1.705 2.46-2.538 2.775-.7.11 1.934.02 3.88.049 5.82H54.5v-2.123c-.064-1.497.16-3.028-.195-4.494-.612-2.272-4.14-2.405-5.22-.457-.274-.085-.993-1.368-1.92-1.412zm428.26.019a1.033 1.033 0 0 0-.408.06c-.938-.408-2.126 1.907-2.18.489-.321-.626-1.159-.271-1.73-.365v8.298h1.998v-5.746c.076-1.31 2.651-1.626 2.783-.095.106 1.942.02 3.895.047 5.841h2.005v-5.117c-.404-1.706 2.46-2.542 2.776-.703.109 1.935.018 3.881.049 5.82h1.998v-2.082c-.065-1.51.162-3.053-.196-4.533-.611-2.272-4.14-2.404-5.218-.457-.276-.083-.998-1.36-1.924-1.41zm-437.887.014a4.928 4.928 0 0 0-2.15.62c-1.214.202-.996 1.465-.006 1.694 1.122-.7 3.573-1.39 3.627.695.255 1.412-2.02.405-2.826 1.092-1.41.295-2.664 1.753-1.965 3.211.746 1.631 3.088 1.556 4.367.623.89-1.248.516.639 1.473.518h.906v-2.406c-.079-1.473.224-3.01-.324-4.414-.569-1.242-1.83-1.698-3.102-1.633zm428.547.013a4.829 4.829 0 0 0-2.023.418c-1.061.258-1.8 1.246-.612 1.873 1.178-.332 3.485-1.598 3.803.536.471 1.572-1.735.626-2.588 1.21-1.48.257-2.929 1.714-2.185 3.278.746 1.63 3.088 1.555 4.367.623.891-1.252.515.64 1.472.517h.905v-2.37c-.08-1.485.227-3.033-.323-4.45-.509-1.145-1.644-1.618-2.816-1.635zm-435.498.141v7.61c-.051.746.267 1.992-.783 2.105-1.001-.28-.825.73-.883 1.342 1.476.532 3.542-.183 3.637-1.95.082-3.032.012-6.072.035-9.107h-2.006zm428.26.016v7.597c-.053.75.271 2.002-.784 2.117-1.003-.28-.824.733-.882 1.344 1.476.532 3.542-.185 3.636-1.95.084-3.034.015-6.073.038-9.108H458.846zM38.41 81.142c.377-.014.641.113.604.538.296 1.13-.927 1.832-1.942 1.789-1.056.174-1.587-1.268-.627-1.78.394-.1 1.337-.522 1.965-.546zm428.258.016c.377-.017.64.107.605.528.299 1.134-.916 1.845-1.939 1.8-1.056.175-1.587-1.27-.627-1.78.39-.098 1.332-.519 1.961-.548z" style="fill:#00f;fill-opacity:1;stroke:none;stroke-width:.49753618" transform="matrix(.26458 0 0 .26458 0 0)"/><path d="M245.5 72.744a1.154 1.154 0 0 0-1.033.549c-1.22 1.806 2.303 2.872 2.338.72.024-.756-.644-1.255-1.305-1.269zm-10.469.16c-.996-.001-2.03.285-2.78.967-.547.525-1.56 1.983-.954 2.467 1.036.406 1.912-.08 2.207-1.168 1.034-1.227 3.436-.423 3.098 1.289.13 1.515-1.94 1.332-2.5 1.781.008.672-.225 1.546.798 1.25 1.37-.122 2.317 1.272 1.766 2.498-.617 1.634-3.223 1.545-3.836-.058-.193-1.03-1.918-.535-2.064.017.442 1.609 1.88 2.919 3.595 2.9 1.91.225 4.13-.907 4.387-2.96.332-1.452-.556-3.023-2.043-3.344 1.054-.275 1.853-1.249 1.846-2.35.248-1.956-1.704-3.407-3.52-3.289zm26.07 3.34a1.036 1.036 0 0 0-.41.063c-.938-.406-2.124 1.902-2.18.488-.323-.627-1.157-.269-1.73-.363v8.298h1.998v-5.75c.082-1.307 2.652-1.623 2.784-.093.106 1.942.018 3.897.046 5.843h2.006v-5.119c-.403-1.705 2.46-2.539 2.776-.7.11 1.934.02 3.88.048 5.82h1.997v-2.118c-.064-1.498.162-3.032-.194-4.5-.611-2.272-4.14-2.404-5.219-.457-.275-.084-.993-1.367-1.921-1.412zm-9.628.033a4.918 4.918 0 0 0-2.149.62c-1.214.2-.995 1.466-.006 1.695 1.123-.7 3.573-1.391 3.627.695.256 1.411-2.019.405-2.826 1.092-1.41.294-2.664 1.752-1.965 3.21.747 1.632 3.089 1.556 4.367.624.891-1.249.516.639 1.473.517h.906v-2.402c-.079-1.474.224-3.011-.324-4.418-.568-1.242-1.832-1.697-3.103-1.633zm-6.95.155v7.607c-.051.747.267 1.994-.785 2.107-1-.28-.823.731-.88 1.342 1.476.532 3.54-.183 3.634-1.949.083-3.033.015-6.072.037-9.107h-2.006zm7.825 4.726c.376-.015.638.111.601.535.297 1.132-.923 1.835-1.94 1.791-1.055.175-1.586-1.267-.626-1.779.393-.1 1.337-.521 1.965-.547z" style="shape-padding:0;vector-effect:none;fill:green;fill-opacity:1;stroke:none;stroke-width:.49753618;stroke-linecap:butt;stroke-linejoin:miter;stroke-miterlimit:4;stroke-dasharray:none;stroke-dashoffset:0;stroke-opacity:1" transform="matrix(.26458 0 0 .26458 0 0)"/><path d="M9.44 11.472v6.465M66.102 11.472v6.465M122.763 11.472v6.465M1.243 11.801h129.806" style="fill:none;stroke:#000;stroke-width:.6582005;stroke-linecap:butt;stroke-linejoin:miter;stroke-miterlimit:4;stroke-dasharray:none;stroke-opacity:1"/><path d="m-167.408 524.439-25.414 14.673v-29.346z" style="opacity:1;vector-effect:none;fill:#000;fill-opacity:1;stroke:none;stroke-width:2.11016917;stroke-linecap:butt;stroke-linejoin:miter;stroke-miterlimit:4;stroke-dasharray:none;stroke-dashoffset:0;stroke-opacity:1" transform="matrix(-.1525 0 0 .10208 -25.53 -41.733)"/><path d="m-167.408 524.439-25.414 14.673v-29.346z" style="opacity:1;vector-effect:none;fill:#000;fill-opacity:1;stroke:none;stroke-width:2.11016917;stroke-linecap:butt;stroke-linejoin:miter;stroke-miterlimit:4;stroke-dasharray:none;stroke-dashoffset:0;stroke-opacity:1" transform="matrix(.1525 0 0 .10208 157.822 -41.733)"/><path d="M56.658 11.472v3.233" style="fill:none;stroke:#000;stroke-width:.6582005;stroke-linecap:butt;stroke-linejoin:miter;stroke-miterlimit:4;stroke-dasharray:none;stroke-opacity:1"/><path d="M227.496.01a1.154 1.154 0 0 0-1.033.549c-1.22 1.805 2.301 2.87 2.336.718.024-.756-.642-1.254-1.303-1.267zm-10.525.16c-1.76-.065-3.456 1.027-3.866 2.787-.537.912.779.674 1.293.807.88-.675 1.449-2.414 2.997-1.848 1.581.43 1.324 2.51.55 3.553-1.32 1.713-2.974 3.132-4.466 4.693-.593.429-.783 1.134-.698 1.834h8.024c-.064-.664.284-1.8-.705-1.861-1.494.06-3.021-.167-4.48.234l1.566-1.596c1.465-1.574 3.512-3.084 3.42-5.457.008-1.883-1.838-3.261-3.635-3.146zm26.125 3.338a1.03 1.03 0 0 0-.409.064c-.938-.405-2.124 1.902-2.18.489-.323-.627-1.157-.269-1.73-.364v8.3h1.996V6.243c.083-1.307 2.652-1.621 2.784-.092.106 1.943.02 3.897.048 5.844h2.006V6.875c-.403-1.706 2.458-2.539 2.774-.701.11 1.934.02 3.883.049 5.822h1.998V9.871c-.064-1.496.162-3.026-.194-4.492-.611-2.272-4.14-2.404-5.218-.457-.276-.084-.996-1.37-1.924-1.414zm-9.627.035a4.926 4.926 0 0 0-2.15.62c-1.214.2-.994 1.463-.005 1.692 1.123-.7 3.571-1.388 3.625.698.256 1.411-2.019.405-2.826 1.092-1.41.294-2.664 1.752-1.965 3.21.747 1.631 3.09 1.554 4.37.622.89-1.249.513.64 1.47.52h.907v-2.41c-.08-1.471.223-3.006-.325-4.411-.568-1.242-1.83-1.697-3.101-1.633zm-6.95.154v7.61c-.05.746.266 1.99-.785 2.103-1-.28-.823.733-.88 1.344 1.476.532 3.54-.183 3.634-1.95.083-3.032.015-6.071.037-9.107h-2.005zm7.825 4.727c.376-.015.639.112.601.537.297 1.13-.926 1.832-1.941 1.789-1.056.175-1.587-1.27-.627-1.781.394-.101 1.339-.52 1.967-.545zm15.205 14.941a.838.838 0 0 0-.457.074c-1.817.966 1.124 2.899 1.32.866.015-.487-.405-.888-.863-.94zm-39.752.219-.526 3.064c-.03.524-.506 1.326.362 1.284 1.558-.467 4.162.187 3.008 2.388-.872 1.908-2.862-.502-3.748.592-.454 1.373 2.775 1.758 3.816 1.057 2.19-.887 2.248-4.685-.203-5.25-1.006-.293-2.492.49-1.813-1.047-.105-.837.514-.817 1.168-.752.755-.1 2.048.36 2.198-.71v-.626h-4.262zm6.926 0-.524 3.064c-.03.524-.506 1.326.362 1.284 1.558-.467 4.162.187 3.007 2.388-.871 1.908-2.862-.502-3.748.592-.453 1.373 2.774 1.758 3.815 1.057 2.19-.887 2.248-4.685-.203-5.25-1.006-.293-2.49.49-1.81-1.047-.106-.837.511-.817 1.165-.752.755-.1 2.05.36 2.2-.71v-.626h-4.264zm36.343.607c-.46.072-.758.43-.72 1.012-.016.67-.214 1.154-.971 1.067-.583.308.049 1.251.725.925v2.373c-.102 1.17.07 2.875 1.654 2.744.573 0 1.161-.172 1.605-.544-.27-.967-.935-.683-1.646-.805-.283-.921-.074-1.945-.139-2.91-.178-.756.132-1.024.875-.858.812.24.854-.29.762-.955-.346-.23-1.13-.026-1.637-.095v-1.928a1.353 1.353 0 0 0-.508-.026zm-14.884 1.805c-.322 0-.644.038-.952.133-2.738.774-2.618 5.374.116 6.058.889.397 4.201-.135 3.01-1.421-1.249.317-3.723.854-3.649-1.428 1.32-.018 2.647.038 3.963-.027.696-1.505-.792-3.496-2.488-3.315zm6.91 0c-.587.013-1.173.23-1.582.664-.264.129-.725-.968-1.57-.57v6.127h1.474v-3.764c-.354-1.244 1.971-1.89 2.324-.633.137 1.36.031 2.743.065 4.112-.017.603 1.032.14 1.474.285-.036-1.539.083-3.09-.076-4.62-.153-1.072-1.131-1.622-2.11-1.6zm-12.828.006c-.872-.075-1.799.298-2.164 1.139-.342-1.345-2.182-1.475-2.995-.5-.203.037-.744-.898-1.537-.551v6.127h1.475v-3.533c-.471-1.242 1.51-2.247 2.027-.897.133 1.373.03 2.764.063 4.145-.013.602 1.035.141 1.48.285v-3.424c-.469-1.281 1.475-2.414 2.02-.986.136 1.365.031 2.75.064 4.125-.016.603 1.033.14 1.475.285-.037-1.553.084-3.119-.08-4.662-.14-.954-.957-1.478-1.828-1.553zm16.465.088v5.842c-.014.602 1.035.141 1.48.285V26.09h-1.48zm-10.516.963c.778-.054 1.35.656 1.307 1.396h-1.735c-1.649.51-.826-1.561.428-1.396z" style="fill:red;fill-opacity:1;stroke:none;stroke-width:.49753618" transform="matrix(.26458 0 0 .26458 0 0)"/><path d="M37.771 11.472v3.233M94.433 11.472v3.233M47.215 11.472v3.233M28.328 11.472v3.233M18.884 11.472v3.233M84.989 11.472v3.233M75.545 11.472v3.233M113.32 11.472v3.233M103.876 11.472v3.233" style="fill:none;stroke:#000;stroke-width:.6582005;stroke-linecap:butt;stroke-linejoin:miter;stroke-miterlimit:4;stroke-dasharray:none;stroke-opacity:1"/></svg>