<svg xmlns="http://www.w3.org/2000/svg" xmlns:xlink="http://www.w3.org/1999/xlink" width="232" height="228.753" viewBox="0 0 61.383 60.524"><defs><linearGradient id="a"><stop offset="0" style="stop-color:#338000;stop-opacity:1"/><stop offset="1" style="stop-color:#9f5;stop-opacity:1"/></linearGradient><linearGradient id="b"><stop offset="0" style="stop-color:#9f5;stop-opacity:1"/><stop offset="1" style="stop-color:#338000;stop-opacity:1"/></linearGradient><linearGradient xlink:href="#a" id="d" x1="-4535.859" x2="-3945.779" y1="16750.615" y2="16750.615" gradientTransform="matrix(.0836 0 0 .0836 385.216 -1370.022)" gradientUnits="userSpaceOnUse"/><linearGradient xlink:href="#b" id="c" x1="-4553.898" x2="-3920.205" y1="16754.506" y2="16754.506" gradientTransform="matrix(.0836 0 0 .0836 385.216 -1370.022)" gradientUnits="userSpaceOnUse"/></defs><path d="M30.756 0a.609.609 0 0 0-.346.09c-.23.148-.332.427-.357.688-.028.332-.018.692.172.978.207.318.725.351.972.063.195-.22.237-.529.237-.812-.002-.249-.032-.512-.173-.724A.602.602 0 0 0 30.756 0Zm-.046.36a.212.212 0 0 1 .076.002.178.178 0 0 1 .09.049c.138.165.127.393.135.596-.003.167-.007.34-.07.496-.034.126-.194.2-.307.13-.134-.103-.15-.285-.162-.44-.01-.232-.023-.475.07-.694A.203.203 0 0 1 30.71.36Zm14.146 3.593c-.017.344-.04.687-.081 1.028.191.003.387.005.57.069.12.029.218.14.21.266.002.106-.077.199-.174.232-.164.042-.34.03-.502-.013-.057 0-.16-.098-.157 0-.013.099-.062.2-.053.298.19.06.39.098.59.092.232-.005.482-.086.616-.285.138-.22.132-.536-.044-.736-.166-.18-.42-.229-.655-.246a8.45 8.45 0 0 0 .028-.356h.697v-.349Zm-30.007.024c-.017.343-.04.687-.081 1.028.165.001.332.005.493.045.144.02.298.13.287.29 0 .079-.045.155-.111.199-.138.075-.306.063-.457.043-.101.015-.278-.156-.274.015 0 .09-.122.27.024.282.304.08.649.12.937-.035.273-.136.363-.498.25-.768-.102-.257-.395-.36-.65-.386-.183-.004-.042-.251-.07-.365h.697v-.348zm1.583 0c-.017.343-.04.687-.08 1.028.165.001.332.005.493.045.144.02.299.13.287.29 0 .079-.045.155-.111.199-.138.075-.306.063-.457.043-.101.015-.279-.156-.275.015.001.09-.121.27.025.282.304.08.649.12.937-.035.273-.136.362-.498.25-.768-.103-.257-.395-.36-.65-.386-.184-.004-.042-.251-.07-.365h.696v-.348zm12.984 7.05c-.363.007-.728.15-.995.393-.012.152.214.33.297.492.195-.181.452-.337.728-.307.27 0 .397.324.274.542-.256.418-.7.673-.988 1.066-.221.27-.3.631-.255.973h2.057v-.556h-.995c-.105-.014-.238.032-.322-.024.137-.21.32-.384.5-.555.325-.31.709-.657.723-1.14.009-.299-.116-.6-.393-.742a1.32 1.32 0 0 0-.631-.142zm2.788.075a8.135 8.135 0 0 0-1.353 1.909v.485h1.331v.69h.65v-.69h.33v-.543h-.33v-1.851zm-.022.81v1.041h-.699c.178-.381.45-.706.7-1.041zm-12.016 1.427a1.551 1.551 0 0 0-.897.339c-.177.177.176.371.235.545.19-.176.435-.327.703-.309.255-.02.417.284.32.502-.221.406-.632.653-.923 1-.27.287-.398.693-.34 1.081h2.056v-.556h-.876c-.147-.011-.303.032-.441-.023.132-.202.306-.372.48-.537.332-.315.727-.665.744-1.158.008-.255-.086-.526-.296-.682a1.241 1.241 0 0 0-.765-.202zm19.437 0a1.735 1.735 0 0 0-.784.212c-.213.136.099.377.125.55.216-.133.472-.227.729-.19.262-.01.427.338.262.539-.186.209-.489.15-.737.16v.533c.227.006.466-.025.68.07.296.094.318.543.065.697-.347.156-.752.092-1.095-.046-.17.053-.113.37-.192.525.285.115.592.165.898.174.242.002.49-.03.712-.131.504-.204.68-.905.37-1.34-.018-.163-.392-.175-.264-.327.401-.27.369-.921.003-1.206a1.297 1.297 0 0 0-.772-.22zm-16.978.002a1.735 1.735 0 0 0-.795.211c-.216.135.097.378.124.551.215-.133.47-.227.726-.191.261-.012.431.34.264.54-.186.208-.488.15-.737.159v.522c.207.032.472-.021.683.083.292.094.315.54.065.694-.347.158-.754.094-1.098-.044-.17.053-.112.37-.192.525.285.115.592.165.899.173a1.69 1.69 0 0 0 .712-.131c.5-.204.677-.899.373-1.334-.023-.167-.355-.165-.284-.322.408-.255.393-.907.038-1.202a1.275 1.275 0 0 0-.778-.234Zm14.716.07c-.286.288-.648.487-1.02.642l.188.48c.237.004.433-.152.631-.258v2.22h.664v-3.084ZM6.235 14.627a.61.61 0 0 0-.217.035c-.286.099-.432.406-.469.688-.035.335-.035.7.143.999.18.325.669.393.942.15.239-.216.29-.558.29-.864-.001-.233-.028-.477-.147-.682a.614.614 0 0 0-.542-.326Zm-2.08.046c-.016.344-.04.687-.08 1.029.16 0 .323.005.48.041.148.02.312.127.3.293a.245.245 0 0 1-.111.2c-.138.074-.306.063-.457.042-.1.015-.278-.156-.274.014.001.09-.121.271.024.283.295.078.626.118.91-.02.294-.128.399-.514.272-.795-.108-.25-.394-.347-.645-.373-.183-.004-.041-.252-.07-.365h.697v-.349zm2.105.314c.037.005.074.02.106.052.138.165.126.393.134.596-.002.14-.005.283-.042.42-.022.132-.137.265-.283.227-.142-.047-.185-.215-.203-.348-.023-.248-.037-.507.037-.748a.235.235 0 0 1 .25-.2zm37.644 4.652c-.286.287-.647.486-1.019.64l.184.47c.24.029.434-.145.635-.247v2.221h.663V19.64Zm2.641 0a8.138 8.138 0 0 0-1.353 1.91v.485h1.33v.69h.65v-.69h.33v-.544h-.33V19.64Zm-.022.81v1.041h-.699c.178-.381.45-.706.699-1.041zm-.234 7.77c-.287.287-.648.486-1.02.641l.189.481c.236.004.431-.153.63-.259v2.221h.663V28.22Zm1.683 0a24.017 24.017 0 0 1-.128 1.643c.255.001.513.007.763.065.237.027.5.204.483.468a.366.366 0 0 1-.075.221c-.156.198-.44.199-.671.184-.196.013-.37-.1-.557-.11-.04.159-.174.393-.071.548.476.133 1.01.212 1.478.006.368-.138.582-.538.56-.92a.905.905 0 0 0-.548-.819c-.21-.12-.467-.1-.68-.188-.1-.168.04-.362.003-.542h1.113v-.556Zm-35.814.063c-.24 0-.484.06-.697.168-.112.09-.373.145-.317.325.135.088.155.355.33.352.205-.174.478-.324.755-.254.231.036.306.332.21.52-.24.397-.65.646-.938 1.003-.254.28-.363.672-.31 1.045h2.057v-.557h-.909c-.136-.011-.282.032-.408-.024.161-.247.384-.443.595-.646.296-.281.616-.614.628-1.048.01-.261-.091-.535-.31-.692a1.266 1.266 0 0 0-.686-.192zm2.649.074c-.287.287-.648.486-1.02.641.068.17.134.341.2.512.216-.075.43-.161.62-.29v2.222h.663v-3.085zm44.407.892c-.18.18-.406.304-.639.401l.118.3c.148.004.27-.094.395-.16v1.39h.415v-1.931zm1.054 0c-.017.343-.04.686-.08 1.028.16.001.32.005.477.04.148.018.314.129.302.294 0 .05-.018.099-.047.138-.098.125-.276.125-.42.116-.124.008-.232-.065-.349-.069-.025.1-.11.246-.045.343.298.083.632.133.926.004.23-.086.364-.337.35-.577a.566.566 0 0 0-.343-.512c-.131-.075-.293-.063-.426-.118-.062-.105.027-.226.003-.34h.697v-.347Zm-59.421.031c-.342.352-.62.762-.847 1.196v.303h.833v.432h.407v-.432h.206v-.34H1.24V29.28zm.985 0c-.017.344-.04.687-.081 1.028.165.002.332.006.493.045.144.02.299.13.287.29 0 .079-.045.156-.111.2-.138.074-.306.063-.457.042-.1.015-.278-.155-.274.015 0 .09-.122.27.024.282.3.079.637.12.924-.027.285-.133.381-.512.257-.788-.107-.25-.393-.347-.644-.373-.183-.004-.041-.252-.07-.366h.697v-.348zm-.999.508v.652H.396c.11-.24.281-.442.437-.652Zm13.474 7.077c-.369-.02-.75.107-1.035.338-.177.177.176.371.236.545.19-.176.434-.326.702-.309.255-.02.417.283.32.502-.22.406-.632.653-.924 1.001a1.31 1.31 0 0 0-.34 1.08h2.058v-.556h-.869c-.15-.012-.307.031-.449-.024a3.11 3.11 0 0 1 .484-.54c.33-.313.724-.663.74-1.154.009-.255-.087-.526-.297-.682a1.24 1.24 0 0 0-.626-.2zm2.43 0a.927.927 0 0 0-.173.03c-.47.112-.743.588-.818 1.036-.072.547-.081 1.14.19 1.638.265.552 1.08.687 1.53.286.38-.347.463-.892.463-1.382-.003-.35-.04-.711-.201-1.027-.162-.383-.584-.611-.991-.58zm30.584.009c-.314.003-.63.05-.922.167-.477.171-.84.592-.97 1.078-.114.468-.126.996.117 1.428.246.455.85.596 1.318.436.544-.161.82-.818.65-1.339-.115-.437-.6-.653-1.02-.631l-.04-.004c-.09-.042-.394.18-.31-.02.203-.407.689-.555 1.114-.569.212-.098.017-.375.063-.546zm-3.33.022c-.287.287-.648.486-1.02.641l.18.46c.196.064.448-.14.64-.238v2.221h.663v-3.084zm-27.14.541c.059.004.117.024.167.067.24.26.222.64.234.97-.002.098-.003.197-.01.295-.028.248-.037.558-.273.706-.27.159-.517-.15-.539-.4-.062-.436-.088-.89.037-1.318.017-.184.206-.33.384-.32zm29.558 1.092a.85.85 0 0 1 .151.012c.269.026.391.338.332.574-.024.244-.284.435-.524.365-.267-.086-.336-.4-.342-.647-.093-.255.187-.33.383-.304zm-23.534 4.714c-.356.002-.711.18-.895.492-.248.416-.217 1.042.192 1.347.336.204.774.25 1.14.102a.854.854 0 0 1-.543.578c-.206.088-.436.079-.65.115-.147.145.017.365-.03.54.328-.004.662-.037.972-.154.437-.147.774-.525.894-.968.11-.475.139-1-.065-1.456-.14-.348-.498-.56-.862-.587a1.07 1.07 0 0 0-.153-.01zm16.237.05v.565h1.01c.09.014.357-.061.275.095-.475.723-.75 1.57-.844 2.428h.584c.18.029.065-.264.131-.374.157-.807.475-1.598 1.003-2.234v-.48zm-1.39.004c-.286.287-.648.486-1.02.64l.19.482c.236.004.43-.153.63-.259v2.222h.663v-3.085zm-17.22.026c-.286.287-.647.486-1.018.641.06.157.122.314.184.47.239.028.433-.146.634-.247v2.22h.664v-3.084zm2.437.475a.367.367 0 0 1 .086.017c.27.092.337.413.34.665.075.244-.2.287-.377.272a.877.877 0 0 1-.2-.02c-.263-.047-.353-.364-.285-.593.026-.209.234-.356.436-.34zm32.268.055a.967.967 0 0 0-.624.246c-.007.095.135.206.186.308.122-.114.283-.211.456-.192.168 0 .249.203.172.34-.155.253-.422.41-.602.645a.803.803 0 0 0-.176.631h1.287v-.348h-.621c-.067-.009-.15.02-.203-.015.086-.132.2-.24.313-.348.204-.194.444-.411.453-.713.005-.188-.073-.375-.246-.465a.826.826 0 0 0-.395-.089zm1.663.002a.615.615 0 0 0-.212.025c-.302.087-.458.406-.495.697-.036.335-.035.7.143.998.18.326.668.394.942.151.238-.216.29-.558.29-.865-.002-.233-.029-.476-.148-.682a.612.612 0 0 0-.52-.324zm-50.727.027a.615.615 0 0 0-.212.025c-.303.085-.462.405-.499.697-.035.335-.035.699.142.997.179.327.669.395.943.153.238-.217.29-.559.29-.865-.002-.234-.028-.477-.147-.682a.612.612 0 0 0-.517-.325zm-1.505.045c-.342.352-.62.762-.847 1.196v.304h.833v.432h.407v-.432h.206v-.34H5.03v-1.16zm52.235.286a.184.184 0 0 1 .107.052c.137.166.126.394.134.596-.002.14-.005.283-.043.42-.021.132-.135.265-.282.227-.142-.047-.185-.215-.203-.348-.023-.248-.037-.506.037-.747a.235.235 0 0 1 .25-.2zm-50.73.027a.184.184 0 0 1 .106.053c.137.165.127.393.135.596a1.729 1.729 0 0 1-.04.404c-.021.128-.115.268-.262.247-.154-.027-.205-.203-.224-.336-.026-.253-.041-.517.034-.764a.235.235 0 0 1 .25-.2zm-1.519.194v.652h-.437c.11-.238.281-.442.437-.652zm27.071 1.095c-.385-.024-.79.13-.994.471a.805.805 0 0 0 .102.99c.185.096.093.205-.041.307-.302.272-.328.77-.073 1.083.289.36.806.422 1.233.338.435-.047.802-.45.778-.89a.76.76 0 0 0-.095-.39c-.014-.205-.398-.239-.3-.436a.8.8 0 0 0 .315-.709c-.025-.396-.388-.684-.761-.743a1.225 1.225 0 0 0-.164-.02zm-2.553.073c-.286.287-.648.485-1.02.64l.18.46c.194.07.45-.142.64-.237v2.221h.663v-3.084zm2.423.463c.199-.012.412.108.418.324.015.22-.16.525-.414.455-.226-.091-.434-.365-.296-.608a.345.345 0 0 1 .292-.171zm-.08 1.296c.165-.01.366.157.48.259.2.204.022.58-.252.59-.235.05-.55-.086-.553-.356a.567.567 0 0 1 .178-.415.2.2 0 0 1 .147-.078zm13.01 7.222a.966.966 0 0 0-.623.246c-.007.095.135.206.187.307.122-.113.283-.21.456-.191.168 0 .248.202.171.339-.157.257-.429.416-.609.656a.801.801 0 0 0-.168.62h1.287v-.348h-.625c-.065-.008-.148.02-.2-.015.086-.131.2-.24.314-.347.203-.194.444-.411.452-.713.005-.188-.072-.376-.246-.465a.828.828 0 0 0-.395-.089zm-29.357.01c-.173.002-.348.05-.498.132-.135.084.062.237.079.345.134-.083.293-.143.454-.12.166-.008.27.212.166.338-.117.13-.306.095-.462.1v.313c.103.056.312-.013.44.072.173.066.18.335.028.429-.217.098-.472.058-.687-.028-.107.032-.071.231-.12.328.178.072.37.104.562.109.153 0 .308-.018.448-.082.308-.126.42-.55.241-.823-.014-.111-.225-.114-.185-.214.255-.16.243-.568.021-.753a.796.796 0 0 0-.487-.146zm30.505.037c-.017.343-.04.686-.08 1.028.164.001.331.005.493.044.143.02.298.13.287.29 0 .08-.046.156-.112.2-.138.074-.306.063-.457.042-.101.015-.278-.156-.274.015.001.09-.121.27.024.282.3.079.638.12.924-.027.286-.133.381-.511.258-.788-.108-.25-.394-.347-.645-.373-.183-.004-.041-.252-.07-.365h.697v-.348zm-29.29.008c-.018.343-.041.687-.082 1.028.155.001.312.005.464.037.152.017.328.125.317.298 0 .05-.018.098-.047.138-.098.124-.276.124-.42.115-.123.008-.232-.062-.349-.068-.022.098-.11.245-.045.342.29.081.61.13.898.016a.573.573 0 0 0 .376-.498.574.574 0 0 0-.318-.592c-.133-.072-.286-.086-.43-.114-.1-.094.012-.239-.016-.354h.696v-.348zm15.15 3.868a.61.61 0 0 0-.216.033c-.289.097-.437.406-.474.69-.035.335-.035.699.142.997.179.327.669.395.943.153.238-.217.29-.56.29-.865-.002-.234-.028-.477-.147-.683a.614.614 0 0 0-.537-.325zm-1.752.002a1.1 1.1 0 0 0-.502.156c-.04.084.093.217.12.32.135-.083.294-.142.455-.12.169-.002.268.208.165.338-.114.132-.305.094-.46.1v.335c.147.003.303-.017.44.05.18.071.177.35.013.437-.223.089-.478.047-.693-.044-.063.054-.063.234-.1.337.178.072.37.103.562.108.155.001.315-.02.456-.087.313-.133.415-.577.214-.844-.013-.093-.29-.13-.137-.207.233-.183.203-.579-.028-.75a.828.828 0 0 0-.505-.129zm1.772.358a.184.184 0 0 1 .107.052c.138.165.127.393.135.596-.003.14-.006.283-.044.42-.021.132-.135.265-.281.227-.143-.047-.186-.216-.204-.349-.023-.248-.037-.506.037-.747a.235.235 0 0 1 .25-.2z" style="vector-effect:none;fill:#b3b3b3;fill-opacity:1;stroke:none;stroke-width:.08359643;stroke-linecap:butt;stroke-linejoin:miter;stroke-miterlimit:4;stroke-dasharray:none;stroke-dashoffset:0;stroke-opacity:1"/><path d="M29.884 8.47v1.84h1.589V8.47Zm-1.453.078c-.011 0-.023.004-.034.005-.069 0-.139.003-.206 0 .055.601.078 1.207.19 1.801.035.104.172.14.263.09.094-.035.098-.15.097-.236a9.912 9.912 0 0 0-.045-.971c-.02-.19-.038-.38-.076-.566a.198.198 0 0 0-.19-.123zm4.659 0c-.05.004-.108.014-.136.005-.259-.03-.247.307-.268.481-.045.436-.13.873-.105 1.311.115.25.452.098.42-.153.097-.525.107-1.062.16-1.593.015-.045-.023-.052-.071-.05zm-6.935.337c-.169-.003-.204.211-.15.345.064.472.158.942.298 1.398.039.223.353.195.385-.015-.02-.432-.136-.854-.216-1.277-.044-.145-.026-.355-.188-.426a.298.298 0 0 0-.093-.021.141.141 0 0 0-.036-.004zm9.055 0c-.014 0-.029 0-.044.004-.188-.005-.249.204-.262.355-.093.441-.202.882-.249 1.33.006.15.225.302.343.179.072-.177.115-.366.167-.55.09-.369.17-.743.209-1.121a.17.17 0 0 0-.164-.197Zm-11.237.586c-.183.017-.167.283-.12.42.116.483.28.957.468 1.417.07.163.289-.027.334-.133.03-.183-.068-.357-.11-.531-.123-.37-.219-.754-.413-1.094-.027-.04-.07-.075-.12-.078l-.04-.001zm13.372 0c-.18.051-.205.27-.278.414-.141.379-.266.764-.368 1.154-.046.168.108.305.259.335.159-.06.15-.302.231-.444.144-.413.267-.835.357-1.263.01-.112-.092-.205-.201-.195zm2.109.82c-.191.08-.246.304-.343.469-.19.39-.362.788-.53 1.188.105.091.28.186.414.123.136-.161.182-.381.284-.564.152-.343.28-.699.41-1.049.002-.117-.141-.16-.235-.168zm-17.582.002c-.152.008-.254.175-.17.313.113.35.294.673.434 1.013.077.148.117.322.22.452.12.067.339.008.376-.13-.026-.145-.1-.277-.146-.416a7.904 7.904 0 0 0-.54-1.126.275.275 0 0 0-.143-.105h-.03zm-1.427.731-1.352.717.93 1.597 1.306-.772zm20.467 0-.861 1.632 1.166.639 1.042-1.557zm-22.893 1.461c-.135.057-.352.171-.246.349.167.303.38.58.577.863.135.163.25.358.431.473.176.092.34-.137.248-.292-.182-.348-.426-.66-.66-.974-.115-.14-.22-.293-.35-.419zm25.319 0c-.26.262-.458.577-.681.868-.134.187-.263.377-.384.572-.047.168.204.378.336.23.364-.419.695-.868.995-1.336.077-.17-.138-.285-.266-.334zM16.25 13.92c-.13.056-.31.197-.22.354.158.255.378.466.569.695.183.2.359.41.563.585.173.004.342-.242.21-.393a13.503 13.503 0 0 0-1.1-1.231zm28.854.004c-.18.126-.305.314-.462.467-.242.271-.494.538-.699.84-.055.146.104.334.252.316.161-.118.279-.291.424-.43.244-.267.489-.535.707-.823.087-.167-.078-.317-.222-.37zm11.708.677a.609.609 0 0 0-.218.045c-.27.11-.404.404-.441.677-.035.336-.035.7.143 1 .18.324.668.392.942.15.238-.216.29-.558.29-.864-.002-.24-.03-.49-.157-.699a.613.613 0 0 0-.559-.31zm-1.523.046c-.18.18-.406.304-.638.401l.12.307c.145-.014.27-.097.392-.168v1.391h.416v-1.931zm1.57.313a.189.189 0 0 1 .106.047c.139.165.131.397.139.602-.003.146-.005.294-.048.435-.023.134-.153.258-.295.206-.136-.063-.171-.23-.188-.365-.018-.242-.034-.494.04-.729a.236.236 0 0 1 .245-.196zm-42.255.603c-.162.036-.287.256-.124.375.3.318.625.612.951.904.124.11.348.348.465.098.13-.173-.038-.351-.173-.454-.322-.304-.644-.613-.999-.878a.363.363 0 0 0-.12-.045zm32.147 0c-.248.078-.41.298-.61.452-.24.222-.497.431-.709.68-.068.138.046.378.208.364.126-.081.232-.191.352-.284.326-.284.646-.578.938-.897.077-.132-.054-.28-.18-.315zm-33.53 1.768v.002c-.013 0-.04.013-.04 0-.122.031-.31.187-.202.314.418.35.854.688 1.32.975.158.125.441-.139.297-.292-.202-.227-.473-.377-.708-.567-.212-.152-.417-.324-.659-.425 0-.005-.003-.007-.008-.007zm34.951.002c-.259.055-.444.262-.662.398-.26.194-.534.378-.768.604-.102.172.156.419.318.283.457-.314.916-.63 1.34-.987.09-.14-.123-.259-.228-.298zm-36 1.328-.744 1.365 1.544.886.467-.696c.05.127.228.257.269.377.19-.176.434-.327.702-.31.255-.02.418.285.32.503-.22.406-.631.653-.923 1.001a1.31 1.31 0 0 0-.34 1.08h2.057v-.556h-.876c-.147-.012-.303.031-.442-.024.132-.202.307-.37.48-.536.332-.315.728-.666.744-1.158.009-.255-.087-.526-.296-.682-.45-.3-1.061-.247-1.512.033l.203-.302zm37.01 0-1.648.98.753 1.244 1.591-.849zM17.039 19.71c-.369-.02-.75.106-1.035.338-.177.176.176.37.235.545.19-.176.435-.327.703-.31.255-.02.417.285.32.503-.221.406-.632.653-.923 1.001a1.31 1.31 0 0 0-.34 1.08h2.056v-.556h-.875c-.147-.012-.303.031-.442-.024.132-.202.306-.37.48-.536.332-.315.727-.666.744-1.158.008-.255-.086-.526-.296-.682a1.241 1.241 0 0 0-.627-.201zm-6.18 1.468c-.142.117-.194.388.022.456.434.254.899.448 1.35.667.187.104.323-.141.32-.298-.07-.152-.29-.151-.42-.248-.42-.2-.842-.4-1.273-.577zm39.675.042c-.341.082-.655.246-.98.373a7.848 7.848 0 0 0-.73.349c-.057.14.053.314.18.375.19-.013.349-.154.53-.21.352-.158.708-.312 1.038-.514.114-.1.061-.284-.038-.373zm-40.442 2.168c-.134-.011-.254.157-.154.27.124.131.312.172.472.242.358.126.716.264 1.091.33.175.038.34-.202.212-.338-.392-.198-.823-.305-1.24-.435a2.074 2.074 0 0 0-.38-.069zm41.145.005c-.464.054-.896.244-1.335.39-.153.044-.39.152-.265.346.067.224.305.095.45.043.43-.131.87-.251 1.272-.454.15-.076.111-.333-.069-.325h-.027zM9.438 25.559c-.172.07-.165.385.04.403.376.113.764.176 1.147.259.152.02.314.063.464.02.122-.063.223-.306.06-.375-.146-.035-.292-.063-.438-.098a10.98 10.98 0 0 0-1.273-.21zm42.48 0c-.529.047-1.05.16-1.568.275-.214-.018-.297.21-.149.354.1.155.294.052.437.038.427-.077.855-.154 1.274-.267.146-.07.188-.355.007-.4zM8.986 27.757c.014.147-.06.386.142.43.273.058.556.065.832.112.27.034.548.066.817.01.18-.067.147-.356-.055-.361-.462-.097-.936-.114-1.405-.161l-.331-.03zm43.387 0c-.588.062-1.183.077-1.763.2-.164.021-.215.235-.101.343.133.092.31.023.462.036.424-.023.845-.081 1.264-.143.19-.064.131-.286.138-.436zm-43.47 1.695v1.588h1.838v-1.588zm41.714 0v1.588h1.84v-1.588zm.102 2.725c-.127.005-.258.04-.262.193.003.202.248.182.389.203.46.045.917.154 1.38.124.178.01.186-.244.1-.343-.156-.112-.36-.08-.54-.116a12.012 12.012 0 0 0-1.067-.061zm-40.202.003c-.47.017-.943.036-1.407.124-.166.058-.139.287-.108.419.143.017.293-.03.441-.03.44-.038.882-.063 1.314-.156.15-.028.195-.245.062-.323-.092-.049-.203-.028-.302-.034zm39.837 2.052c-.164-.008-.31.232-.152.34.206.115.447.145.671.207.31.062.62.148.937.154.178.013.28-.213.184-.35-.247-.137-.538-.146-.807-.214-.265-.053-.53-.109-.8-.132a.148.148 0 0 0-.033-.005zm-39.346.003-.036.004c-.491.045-.969.178-1.453.262-.22.037-.291.414-.045.459.208-.005.409-.075.613-.108.344-.07.69-.136 1.022-.253.19-.067.114-.345-.067-.36zm38.745 1.989c-.114.082-.228.295-.072.391.25.135.53.205.794.308.245.081.495.163.753.186.17.017.29-.216.144-.324-.198-.125-.43-.182-.647-.264-.322-.105-.645-.21-.972-.297zm-38.135.031c-.493.086-.968.254-1.434.435-.164.046-.377.2-.23.383.159.146.394-.012.575-.044.388-.126.784-.24 1.157-.408.138-.083.07-.33-.068-.366zm.718 1.948c-.32.062-.595.248-.893.37-.228.111-.464.214-.669.363-.096.113-.021.35.129.366.153-.044.29-.135.442-.189.395-.18.787-.368 1.168-.576.113-.101-.054-.335-.177-.334zm36.725.002c-.013 0-.04.013-.04 0-.137.01-.282.227-.176.334.136.1.296.161.443.243.377.183.759.362 1.156.495.146-.008.248-.237.147-.347-.188-.162-.433-.239-.65-.354-.286-.133-.57-.274-.873-.365 0-.004-.003-.006-.007-.006zm-36.033 1.364-1.577.895.823 1.31 1.548-.917zm35.303 0-.77 1.221 1.591 1.026.723-1.369zm-33.88 2.3c-.269.031-.468.238-.688.376-.271.197-.552.388-.8.613-.056.15.118.305.25.33.154-.024.245-.168.374-.24.341-.253.7-.488 1-.788.076-.117-.002-.268-.136-.29zm32.48.003c-.282.02-.188.377.015.45.335.288.698.545 1.067.787.15.116.35.005.403-.155-.003-.17-.228-.218-.328-.338-.335-.258-.673-.521-1.05-.715a.48.48 0 0 0-.107-.03zm-31.155 1.55c-.285.152-.505.397-.75.604-.21.2-.431.391-.61.618-.066.167.156.363.31.251.356-.275.683-.586 1.013-.892.143-.112.32-.32.122-.475a2.863 2.863 0 0 0-.085-.105zm29.832.02c-.12.06-.28.23-.188.363.231.236.482.454.726.678.187.145.35.344.566.438.189.014.339-.24.167-.369-.385-.372-.763-.755-1.193-1.077l-.038-.02zm-1.435 1.494c-.136.052-.31.204-.206.36.168.26.389.484.588.72.174.185.333.39.527.552.14.016.294-.167.264-.304-.114-.23-.315-.403-.474-.601-.217-.248-.44-.491-.678-.719zm-26.985.003c-.21.157-.366.37-.552.554-.216.24-.444.473-.627.74-.052.149.108.32.249.33.183-.101.294-.3.447-.44.241-.27.493-.537.699-.835.083-.164-.083-.292-.216-.35zm1.687 1.363c-.236.054-.35.296-.497.464-.218.298-.437.6-.618.92-.066.162.139.338.292.287.174-.141.278-.363.432-.532.195-.27.405-.533.55-.833a.216.216 0 0 0-.159-.306zm23.608 0c-.188.028-.228.267-.112.396.197.356.457.673.699 1 .095.093.16.263.289.291.145-.02.321-.173.228-.328a11.796 11.796 0 0 0-.65-.955c-.134-.145-.246-.365-.454-.404zm-22.415.904-.92 1.527 1.236.73.957-1.526zm21.21.011-1.254.665.898 1.634 1.248-.782zm-18.794 1.197c-.176.06-.223.264-.313.406-.196.387-.354.79-.539 1.182-.019.18.247.213.376.208.12-.102.144-.275.224-.407.183-.408.352-.824.488-1.25-.017-.11-.15-.122-.236-.139zm16.36 0c-.153.008-.255.175-.17.314.112.35.293.672.433 1.012.077.148.117.322.22.453.12.067.339.008.376-.131-.026-.144-.099-.277-.145-.416a7.893 7.893 0 0 0-.537-1.12c-.037-.049-.086-.098-.147-.111h-.03zm-14.475.685c-.128.182-.17.407-.251.613-.122.367-.227.74-.31 1.119-.014.21.32.259.363.047.193-.384.297-.803.432-1.209.03-.144.129-.338-.018-.45a.754.754 0 0 0-.216-.12zm12.62 0c-.147.052-.34.162-.287.35.079.349.204.686.316 1.026.088.176.109.423.286.53.204.075.293-.171.213-.325a10.107 10.107 0 0 0-.481-1.515c.011-.035-.047-.039-.047-.066zm-10.583.586c-.111.135-.124.32-.18.48a7.29 7.29 0 0 0-.243 1.302c.044.196.355.176.417 0 .057-.198.089-.405.138-.606.064-.313.135-.627.165-.945-.012-.146-.167-.222-.297-.23zm8.546 0c-.152.01-.332.118-.288.294.036.366.129.724.2 1.084.056.163.032.372.165.495.154.128.413-.003.339-.208a8.065 8.065 0 0 0-.354-1.568.223.223 0 0 0-.062-.097zm-6.41.345c-.172.006-.178.22-.203.349-.078.497-.09 1.002-.145 1.5.05.126.304.073.394-.007.066-.126.056-.279.083-.416.048-.416.087-.835.074-1.254-.005-.108-.099-.177-.203-.172zm4.239 0c-.168.01-.186.238-.165.372.014.47.03.944.122 1.406.04.178.297.146.41.114.03-.196-.035-.394-.032-.592-.034-.39-.049-.785-.143-1.166-.023-.067-.075-.143-.156-.133-.013 0-.025-.003-.036 0zm-2.896.154v1.84h1.589v-1.84z" style="shape-padding:0;opacity:1;vector-effect:none;fill:#000;fill-opacity:1;stroke:none;stroke-width:.08359643;stroke-linecap:butt;stroke-linejoin:miter;stroke-miterlimit:4;stroke-dasharray:none;stroke-dashoffset:0;stroke-opacity:1"/><path d="M31.012 4.097C20.101 3.87 9.646 11.281 6.062 21.561c-3.552 9.652-.906 21.281 6.712 28.256 7.95 7.822 21.016 9.526 30.763 4.145 8.736-4.59 14.447-14.367 13.955-24.251-.14-10.844-7.787-20.978-18.077-24.293-2.7-.914-5.556-1.327-8.403-1.32Zm-.336 1.514c9.622-.182 18.945 5.965 22.643 14.843 4.152 9.188 1.785 20.744-5.584 27.61-7.182 7.12-18.881 8.914-27.894 4.36-8.775-4.18-14.522-13.906-13.784-23.622.42-9.906 7.51-19.094 16.992-22.006 2.46-.798 5.033-1.272 7.627-1.185z" style="fill:url(#c);fill-opacity:1;stroke-width:.31595507"/><path d="M30.676 5.61c-10.193-.214-20.005 6.747-23.252 16.4-3.285 8.923-.755 19.623 6.23 26.093 7.466 7.355 19.788 8.986 28.895 3.783 8.982-4.805 14.274-15.545 12.49-25.59-1.438-9.362-8.71-17.526-17.923-19.85-2.097-.6-4.258-.898-6.44-.835Zm.003 2.238c8.75-.165 17.227 5.424 20.59 13.497 3.775 8.354 1.622 18.861-5.079 25.106-6.53 6.472-17.168 8.104-25.363 3.963-7.979-3.8-13.205-12.645-12.534-21.48.383-9.12 6.994-17.558 15.765-20.108 2.144-.668 4.37-1.052 6.621-.978z" style="fill:url(#d);fill-opacity:1;stroke-width:.31595507"/><path d="m30.363 29.982 12.463-7.196" style="opacity:1;vector-effect:none;fill:#000;fill-opacity:1;stroke:#000;stroke-width:.83596438;stroke-linecap:round;stroke-linejoin:miter;stroke-miterlimit:4;stroke-dasharray:none;stroke-dashoffset:0;stroke-opacity:1"/><path d="m30.363 30.114-8.375-5.865" style="fill:#000;stroke:#000;stroke-width:.83596438;stroke-linecap:round;stroke-linejoin:miter;stroke-miterlimit:4;stroke-dasharray:none;stroke-opacity:1"/><circle cx="30.363" cy="29.982" r="1.005" style="opacity:1;vector-effect:none;fill:#fff;fill-opacity:1;stroke:#000;stroke-width:.41798219;stroke-linecap:round;stroke-linejoin:miter;stroke-miterlimit:4;stroke-dasharray:none;stroke-dashoffset:0;stroke-opacity:1"/><path d="M37.174 38.769c0 .348-.054.726-.295.996-.296.325-.891.29-1.138-.078-.198-.278-.23-.633-.23-.963.006-.342.072-.712.32-.966a.747.747 0 0 1 1.047.019c.241.268.295.644.296.992zm-.505 0c-.008-.24-.002-.504-.148-.708-.106-.12-.331-.093-.393.06-.12.221-.104.483-.11.727.005.21.018.436.136.617.088.115.283.126.371.005.114-.143.121-.336.138-.51.004-.064.005-.128.006-.191zm-2.927-.676c.278-.118.548-.268.762-.485h.345v2.332h-.495v-1.68a1.96 1.96 0 0 1-.462.22l-.15-.387zm-2.288-.364.495-.08v.521h.595v.417h-.595c.005.252-.01.505.01.757.013.118.112.219.234.21.12.01.24-.014.35-.055l.07.39c-.262.107-.569.13-.836.024a.574.574 0 0 1-.31-.489c-.028-.254-.006-.51-.013-.765v-.93zm-.45 2.21h-.494V38.17h.495v1.77zm.047-2.28c.016.186-.186.337-.362.29a.29.29 0 0 1-.23-.314.293.293 0 0 1 .318-.273c.15.012.287.14.274.297zm-2.502.572c.318-.08.651-.13.978-.081.195.036.387.157.457.35.103.25.067.526.074.79v.65h-.495c-.004-.363.008-.725-.008-1.087-.008-.108-.045-.24-.16-.276-.11-.039-.227-.012-.339-.005-.026.06-.006.127-.012.19v1.178h-.495v-1.71zm-2.024.837c-.012-.337.15-.699.461-.855.301-.152.705-.117.95.125.175.179.233.437.23.68.001.068-.003.135-.01.202h-1.122c.013.197.213.328.398.331.19.018.382-.012.559-.08.028.08.03.166.047.248l.026.157a1.726 1.726 0 0 1-.717.108c-.272-.018-.555-.143-.694-.388a1.035 1.035 0 0 1-.128-.528zm1.163-.191c.001-.159-.11-.33-.279-.34-.144-.017-.308.07-.343.217-.052.056-.026.16.062.123h.56zM24.706 39c-.004-.136-.001-.295-.11-.396a.38.38 0 0 0-.355-.013v1.348h-.496v-1.71c.312-.072.64-.139.959-.072.107.005.201.132.287.119.278-.183.674-.208.95-.008.197.166.222.445.22.686.003.328 0 .656 0 .985h-.495c-.005-.373.012-.746-.01-1.118-.006-.135-.106-.28-.256-.263-.12-.011-.287.057-.211.201.026.246.007.493.012.74v.44h-.495V39zm12.341-4.986c-.002.272-.18.5-.36.686-.19.193-.403.368-.555.594.024.042.11.01.161.019h.824v.42h-1.535c-.025-.22.003-.456.13-.645.192-.313.512-.516.738-.8.097-.122.14-.319.02-.44-.145-.113-.355-.072-.504.014-.087.016-.146.166-.229.123-.07-.11-.148-.213-.222-.32.232-.22.556-.348.877-.313.237.014.499.121.596.354a.77.77 0 0 1 .06.308zm-1.889 0c-.003.277-.185.507-.37.695-.187.19-.395.362-.545.585.06.043.142.01.213.019h.772v.42h-1.535a.964.964 0 0 1 .177-.716c.205-.292.519-.487.725-.778.073-.12.092-.304-.027-.4-.148-.101-.346-.061-.491.023-.087.012-.169.206-.249.092-.065-.098-.135-.192-.202-.29.247-.237.603-.36.944-.305.228.027.468.153.544.383.031.087.045.18.044.272zm-4.116.78c-.004-.136-.001-.295-.11-.395a.38.38 0 0 0-.356-.013v1.347h-.495v-1.708c.312-.073.64-.14.959-.073.107.005.201.132.287.119.278-.184.674-.209.95-.008.197.166.222.445.22.686.003.328 0 .656 0 .984h-.495c-.005-.372.012-.745-.01-1.117-.006-.136-.106-.28-.256-.264-.12-.01-.287.057-.211.202.026.246.007.493.012.74v.44h-.495v-.94zm-2.13.59c.077-.022.214.043.246-.057v-.337c-.158-.025-.337-.045-.479.046-.104.09-.071.295.07.327.053.017.108.02.163.02zm-.04-1.467c.213-.001.45.035.602.199.147.158.162.386.16.59v.977c-.363.074-.743.131-1.11.047-.174-.045-.335-.175-.374-.357-.05-.192-.026-.427.131-.563.182-.158.437-.183.668-.175.067-.005.161.033.21.017.01-.12-.046-.267-.176-.295-.167-.047-.342-.014-.509.013-.083.052-.156.01-.14-.085l-.043-.284c.189-.053.385-.08.581-.084zm-1.752 2.439c-.098-.02-.314.03-.297-.13.05-.088-.016-.314.114-.307.116.032.289.022.327-.117.038-.187.012-.38.02-.569v-1.269h.494c-.002.61.006 1.22-.004 1.83-.014.236-.164.477-.405.53a.906.906 0 0 1-.249.032zm.705-2.903c.018.203-.221.356-.404.28-.202-.065-.257-.36-.099-.496.134-.135.382-.096.47.072a.252.252 0 0 1 .033.144z" style="fill:red;fill-opacity:1;stroke:none;stroke-width:.08359643"/></svg>