<svg xmlns="http://www.w3.org/2000/svg" xmlns:xlink="http://www.w3.org/1999/xlink" width="200" height="199.901" viewBox="0 0 52.917 52.89"><defs><linearGradient id="a"><stop offset="0" style="stop-color:#338000;stop-opacity:1"/><stop offset="1" style="stop-color:#9f5;stop-opacity:1"/></linearGradient><linearGradient id="b"><stop offset="0" style="stop-color:#9f5;stop-opacity:1"/><stop offset="1" style="stop-color:#338000;stop-opacity:1"/></linearGradient><linearGradient xlink:href="#a" id="d" x1="-4535.859" x2="-3945.779" y1="16750.615" y2="16750.615" gradientTransform="matrix(.08344 0 0 .08344 379.997 -1371.537)" gradientUnits="userSpaceOnUse"/><linearGradient xlink:href="#b" id="c" x1="-4553.898" x2="-3920.205" y1="16754.506" y2="16754.506" gradientTransform="matrix(.08344 0 0 .08344 379.997 -1371.537)" gradientUnits="userSpaceOnUse"/></defs><path d="M129.504 35.148c-1.08 1.084-2.444 1.834-3.846 2.418l.756 1.93c.812-.281 1.618-.609 2.334-1.092v8.38h2.502V35.147h-1.746zm23.877 23.36a5.554 5.554 0 0 0-2.844.738c-1.006.262-1.325 1.163-.51 1.854.6 1.407 1.497-.386 2.51-.371 1.161-.43 2.447.672 1.875 1.865-.787 1.49-2.306 2.395-3.377 3.662a4.962 4.962 0 0 0-1.367 4.172h7.758v-2.1c-1.602-.001-3.206.013-4.807-.012-.21-.448.919-1.32 1.358-1.818 1.32-1.294 3.019-2.642 3.095-4.65.018-.882-.268-1.812-.93-2.422-.789-.613-1.768-.903-2.761-.918zm8.607 32.373a6.566 6.566 0 0 0-2.914.664c-.924.172-.513.753-.232 1.34.28 1.317 1.286.297 2.133.18 1.001-.315 2.472.197 2.283 1.455-.31 1.354-1.958 1.152-3.018 1.152v1.418c-.182.975 1.255.489 1.826.648 1.37-.059 2.24 1.753 1.174 2.696-1.079.703-2.492.545-3.674.2-1.155-.772-1.14.87-1.332 1.634.73.633 2.26.696 3.348.775.768.003 1.547-.078 2.275-.334 1.95-.519 2.928-2.923 2.098-4.705-.208-.752-1.106-1.181-1.488-1.588 1.64-.923 1.682-3.432.322-4.617-.808-.626-1.795-.903-2.8-.918zm-6.4 32.945c-.387-.006-.77.004-1.143.092-2.025 2.1-3.677 4.538-5.027 7.12v1.83h5.02v2.603h2.45v-2.604h1.243v-2.047h-1.242v-6.984h-.143c-.383.02-.771-.003-1.158-.01zm-1.15 3.065v3.93H151.8c.67-1.44 1.696-2.665 2.637-3.93zm-27.176 20.87c-.1 2.005-.232 4.009-.463 6.003.442.453 1.815.08 2.603.386.961.104 2.147.698 2.075 1.823.012 1.02-1 1.513-1.891 1.54-1.027.098-2.02-.174-2.975-.452-.198.569-.69 1.497-.297 2.084 1.757.505 3.713.794 5.454.076 1.807-.617 2.63-2.814 2.037-4.553-.487-1.673-2.291-2.422-3.883-2.588-1.243.084-.427-1.476-.56-2.219h4.197v-2.1h-6.297zm-66.233.09v2.133h5.053c-.28.397-.536.809-.773 1.233-1.396 2.556-2.333 5.384-2.618 8.287h2.536c.069-1.126.288-2.24.607-3.32.727-2.338 1.734-4.645 3.338-6.52v-1.812h-8.143zm39.69 8.563a.606.606 0 0 0-.309.014c-2.437.09-5.054 1.204-6.115 3.537-.908 1.946-1.022 4.333-.127 6.305.78 1.736 2.913 2.4 4.67 1.986 2.232-.385 3.545-2.948 2.918-5.045-.378-1.721-2.253-2.593-3.887-2.506-.314-.212-1.565.61-1.336-.076.826-1.618 2.77-2.154 4.46-2.168.066-.548.319-1.895-.274-2.047zm-3.52 6.213c.114-.002.233.008.352.027.201.002.404.013.603.051 1.661.264 1.674 2.989.155 3.488-1.293.519-2.218-.947-2.182-2.084-.345-.918.274-1.465 1.072-1.482z" style="opacity:1;vector-effect:none;fill:#b3b3b3;fill-opacity:1;stroke:none;stroke-width:.31536174;stroke-linecap:butt;stroke-linejoin:miter;stroke-miterlimit:4;stroke-dasharray:none;stroke-dashoffset:0;stroke-opacity:1" transform="matrix(.26458 0 0 .26458 0 0)"/><path d="M4.49 38.15a24.618 24.618 0 0 1 0-24.618A24.618 24.618 0 0 1 25.81 1.223v24.618z" style="opacity:1;vector-effect:none;fill:#faa;fill-opacity:1;stroke:none;stroke-width:.08343966;stroke-linecap:butt;stroke-linejoin:miter;stroke-miterlimit:4;stroke-dasharray:none;stroke-dashoffset:0;stroke-opacity:1"/><path d="M25.331 4.37v1.836h1.586V4.37Zm-1.45.078c-.012 0-.023.004-.034.005-.069 0-.138.003-.206 0 .056.6.079 1.205.19 1.798.036.103.172.14.263.09.094-.036.098-.151.097-.236a9.899 9.899 0 0 0-.045-.97c-.02-.189-.039-.378-.077-.564a.198.198 0 0 0-.188-.123zm4.65 0c-.049.003-.108.014-.135.004-.259-.03-.247.307-.268.48-.045.435-.129.872-.105 1.31.116.248.452.097.42-.153.096-.525.106-1.06.16-1.59.014-.046-.024-.053-.072-.05zm-6.921.336c-.17-.003-.204.21-.15.344.063.471.158.94.297 1.395.039.223.352.195.384-.015-.02-.43-.136-.852-.216-1.274-.043-.145-.025-.354-.187-.425a.298.298 0 0 0-.093-.021.137.137 0 0 0-.035-.004zm9.038 0c-.015 0-.03 0-.045.003-.187-.004-.249.205-.261.356-.094.44-.202.88-.249 1.328.006.149.225.3.343.177.072-.176.115-.365.166-.548.09-.369.17-.742.209-1.12a.17.17 0 0 0-.163-.195zM19.43 5.37c-.183.017-.167.283-.119.418.116.483.278.956.466 1.416.07.162.289-.027.334-.133.03-.183-.068-.357-.11-.53-.122-.37-.218-.753-.411-1.093-.028-.04-.07-.074-.12-.078h-.04zm13.347 0c-.18.05-.204.27-.278.414-.14.377-.265.762-.367 1.15-.045.17.108.306.259.336.159-.061.15-.302.23-.444.144-.412.267-.833.357-1.26.01-.112-.092-.205-.201-.196zm2.105.817c-.19.082-.245.304-.342.469-.19.39-.362.787-.53 1.186.106.09.28.186.414.123.136-.16.182-.38.284-.563.152-.343.279-.697.408-1.047.003-.117-.14-.16-.234-.168zm-17.549.003c-.152.008-.253.175-.169.313.112.35.293.672.432 1.01.077.148.118.322.22.452.12.067.338.008.376-.13-.026-.144-.1-.276-.145-.415a7.884 7.884 0 0 0-.54-1.123.275.275 0 0 0-.143-.106h-.03zm-1.424.73-1.35.715.928 1.594 1.305-.77zm20.428 0-.859 1.629 1.164.637 1.04-1.553zm-8.974.003c-.36.01-.716.15-.983.392.04.174.193.414.34.452.226-.204.575-.364.869-.208.218.163.141.492-.036.656-.34.42-.858.708-1.053 1.235-.047.181-.146.51-.018.626h2.008V9.52c-.415 0-.83-.004-1.247.003-.11-.13.165-.264.23-.383.333-.34.756-.644.894-1.124.103-.37-.049-.839-.43-.983a1.388 1.388 0 0 0-.574-.111zM25 6.996c-.286.287-.647.485-1.018.64.101.167.1.592.4.441.138-.022.34-.224.418-.186v2.184h.662V6.996Zm-11.51 1.382c-.135.056-.352.17-.246.347.167.303.379.579.576.862.135.163.25.358.43.472.175.092.34-.137.248-.292-.182-.347-.426-.658-.66-.972-.114-.14-.219-.292-.349-.417zm25.27 0c-.259.26-.456.575-.68.866-.132.187-.261.376-.382.57-.047.168.204.378.335.23.364-.417.694-.867.993-1.333.077-.17-.137-.285-.266-.333zm-22.79.921c-.235.329-.83.461-.98.706.03.268.203.58.492.316.183-.166.35-.14.288.108v1.949h.662V9.299Zm2.525 0c-.235.329-.831.46-.98.706.03.268.203.58.492.316.183-.166.35-.14.288.108v1.949h.662V9.299Zm-6.77.51c-.13.055-.309.196-.22.353.158.254.377.465.568.694.182.199.358.41.563.584.172.003.34-.242.208-.393a13.477 13.477 0 0 0-1.097-1.23zm28.8.004c-.18.126-.305.312-.461.465-.242.27-.494.537-.698.838-.055.147.104.334.252.316.16-.117.278-.29.423-.429.243-.266.487-.534.705-.821.087-.167-.078-.317-.22-.37zm-30.443 1.635c-.161.036-.287.256-.124.374.3.318.624.611.95.902.123.11.347.349.463.1.131-.173-.037-.351-.172-.454-.322-.303-.643-.612-.997-.877a.36.36 0 0 0-.12-.045zm32.087 0c-.248.078-.41.298-.609.452-.24.221-.496.43-.708.678-.067.138.046.377.208.363.126-.08.231-.19.35-.282.326-.284.646-.577.937-.895.078-.132-.053-.282-.178-.316zM8.7 13.213v.002c-.013 0-.04.013-.04 0-.122.031-.31.186-.202.313.418.35.852.687 1.317.973.159.125.44-.138.297-.291-.202-.226-.472-.376-.707-.565-.211-.152-.416-.324-.657-.425 0-.005-.003-.007-.008-.007zm34.886.002c-.259.055-.444.262-.662.397-.26.194-.533.377-.767.603-.102.172.156.418.319.282.455-.313.913-.627 1.336-.985.09-.138-.122-.258-.226-.297zM7.653 14.54l-.742 1.362 1.542.884.85-1.267zm36.942 0-1.646.977.752 1.243 1.588-.847zm-32.18 1.013c-.055 0-.11.003-.166.011-.506.057-.83.543-.912 1.011-.086.541-.09 1.13.154 1.632.228.534.951.719 1.432.42.479-.312.586-.936.583-1.467-.004-.338-.038-.686-.186-.995a1.004 1.004 0 0 0-.905-.612zm-2.478.074c-.285.287-.646.485-1.017.64l.185.473c.17.045.449-.152.632-.251v2.217h.662v-3.08zm2.473.496a.3.3 0 0 1 .138.037c.3.226.263.662.283 1 0 .052 0 .105-.004.157-.025.29-.011.678-.29.849-.311.154-.524-.216-.541-.481-.043-.391-.063-.797.031-1.183.028-.195.19-.385.383-.38zm-6.07.93c-.141.116-.193.386.023.453.433.254.897.448 1.348.667.186.104.322-.141.32-.298-.071-.151-.29-.151-.42-.248-.42-.2-.84-.398-1.27-.575Zm39.601.041c-.34.081-.654.245-.978.372a7.832 7.832 0 0 0-.728.348c-.058.141.052.314.178.375.19-.013.35-.154.53-.21.352-.158.707-.312 1.037-.513.113-.1.06-.284-.039-.372zM5.576 19.259c-.134-.011-.254.156-.154.27.123.13.31.17.47.24.358.126.716.265 1.09.33.174.038.34-.201.211-.337-.39-.198-.821-.305-1.238-.435a2.066 2.066 0 0 0-.38-.068zm41.067.004c-.463.055-.894.244-1.332.389-.153.045-.39.152-.265.346.067.224.304.096.449.044.43-.131.868-.251 1.27-.454.149-.075.111-.332-.069-.324h-.027Zm-41.72 2.164c-.17.07-.164.384.04.402.375.113.763.176 1.145.259.152.02.313.062.463.02.122-.063.224-.306.06-.375-.145-.034-.292-.063-.437-.098-.42-.088-.843-.17-1.27-.208Zm42.402 0c-.529.047-1.05.16-1.566.274-.213-.018-.297.21-.149.353.1.155.294.052.436.038.426-.076.854-.153 1.272-.265.146-.07.188-.355.007-.4zM4.472 23.62c.013.147-.06.385.141.43.273.057.555.064.83.111.27.034.547.067.816.01.18-.066.147-.354-.055-.36-.461-.096-.935-.113-1.403-.16l-.33-.03zm43.305 0c-.587.062-1.18.077-1.759.2-.164.022-.215.234-.101.343.132.091.308.022.46.035.423-.022.844-.081 1.262-.143.19-.064.13-.285.138-.434zM8.61 24.14a1.284 1.284 0 0 0-.39.072c-.679.248-.885 1.286-.315 1.747a1.29 1.29 0 0 0 1.157.115.96.96 0 0 1-.06.15c-.174.387-.624.514-1.014.524-.312-.035-.11.373-.15.557.295-.004.592-.031.873-.12.478-.132.866-.52.99-1 .12-.493.142-1.047-.09-1.511-.184-.377-.598-.547-1-.534Zm.07.55c.257.013.428.302.425.553.117.266-.109.457-.367.4a.761.761 0 0 1-.283-.047c-.345-.175-.279-.812.109-.895a.387.387 0 0 1 .116-.012zm-4.292.623v1.586h1.836v-1.586zm41.636 0v1.586h1.836v-1.586zm.102 2.72c-.127.005-.257.04-.261.193.003.202.247.181.388.203.458.045.915.153 1.378.123.177.01.185-.244.098-.342-.154-.112-.359-.08-.537-.116a11.992 11.992 0 0 0-1.066-.061zM6 28.035c-.47.017-.942.037-1.404.124-.166.058-.14.286-.109.418.143.017.293-.029.44-.029.44-.039.881-.064 1.312-.156.15-.029.195-.245.062-.322-.092-.05-.203-.029-.301-.035zm39.761 2.048c-.163-.008-.309.232-.15.34.205.115.445.145.67.207.309.061.618.148.934.153.177.013.28-.213.184-.35-.246-.137-.537-.145-.805-.213-.265-.052-.53-.108-.8-.13a.153.153 0 0 0-.033-.007zm-39.271.004-.036.003c-.49.046-.967.178-1.45.262-.22.037-.29.413-.045.458.207-.005.408-.075.612-.108.343-.07.689-.135 1.02-.252.19-.066.113-.344-.067-.36zm38.672 1.984c-.113.082-.228.295-.072.391.25.135.53.205.793.306.244.082.494.165.751.187.17.017.29-.215.144-.323-.197-.125-.429-.182-.646-.264a18.42 18.42 0 0 0-.97-.297zM7.1 32.103c-.492.086-.966.254-1.431.433-.164.047-.377.201-.231.383.16.146.393-.012.574-.044.388-.125.783-.239 1.155-.407.138-.083.07-.329-.067-.365zm3.87.61a1.17 1.17 0 0 0-.18.027c-.448.07-.813.501-.764.96-.06.278.343.447.309.652-.343.239-.496.738-.266 1.104.25.44.827.526 1.284.44.439-.046.813-.445.788-.892a.683.683 0 0 0-.019-.195c-.005-.276-.365-.414-.399-.606a.811.811 0 0 0 .305-.895c-.139-.435-.624-.628-1.057-.596zm.097.534c.179.01.353.119.36.321a.525.525 0 0 1-.229.445c-.257.087-.56-.219-.524-.482.028-.202.213-.293.392-.284zm-3.251.8c-.319.062-.594.247-.89.37-.228.11-.464.213-.669.362-.095.112-.02.349.129.365.153-.044.29-.135.441-.189.394-.18.786-.367 1.167-.574.113-.102-.054-.335-.178-.335zm36.656.002c-.013 0-.04.013-.039 0-.137.01-.283.227-.176.334.135.1.295.16.442.242.376.182.758.361 1.154.494.146-.008.247-.236.146-.346-.187-.162-.431-.238-.648-.354-.285-.132-.57-.273-.871-.364 0-.004-.004-.006-.008-.006zm-33.51.49c.03.004.062.014.095.034.228.076.499.269.425.544-.115.415-.86.352-.878-.087-.003-.184.142-.514.357-.49zm-2.456.872-1.574.893.823 1.308 1.545-.916Zm35.238 0-.769 1.218 1.588 1.025.722-1.367zM9.927 37.706c-.269.031-.467.238-.687.375-.271.197-.552.388-.8.612-.055.15.119.304.251.33.153-.024.245-.168.374-.24.34-.252.699-.486.998-.786.076-.117-.003-.268-.136-.29zm32.418.004c-.282.02-.187.376.015.45.335.287.697.543 1.066.784.149.116.348.005.402-.155-.003-.17-.228-.217-.328-.337-.334-.257-.672-.52-1.048-.713a.479.479 0 0 0-.107-.03zm-31.097 1.548c-.284.15-.504.395-.747.601-.21.2-.431.39-.61.617-.066.167.156.362.31.251.355-.274.681-.585 1.01-.89.143-.112.32-.32.123-.475a2.885 2.885 0 0 0-.086-.104zm29.776.02c-.12.058-.28.228-.187.362.23.235.482.452.725.675.186.145.349.344.565.438.188.014.338-.24.167-.368-.384-.372-.763-.754-1.191-1.075l-.038-.02zm-1.432 1.49c-.136.052-.308.203-.205.36.168.26.388.482.587.719.174.184.332.388.525.55.14.016.294-.167.264-.303-.114-.23-.314-.403-.473-.6-.217-.248-.438-.49-.676-.718zm-26.934.003c-.209.156-.366.37-.55.553-.217.24-.444.472-.627.738-.051.15.108.32.249.33.182-.101.293-.3.447-.44.24-.27.49-.535.696-.833.083-.164-.083-.29-.215-.348zm1.684 1.36c-.235.055-.349.296-.496.464a9.338 9.338 0 0 0-.617.919c-.066.16.138.336.291.286.174-.141.279-.363.432-.531.195-.269.404-.533.549-.832a.215.215 0 0 0-.159-.305zm23.564 0c-.188.029-.228.267-.113.396.198.355.457.672.698.999.095.092.16.261.289.29.145-.02.32-.173.228-.328-.196-.33-.423-.644-.65-.954-.133-.144-.244-.363-.452-.402Zm-22.373.904-.918 1.522 1.233.73.956-1.523zm21.17.01-1.25.664.895 1.63 1.246-.78zM17.945 44.24c-.175.06-.223.263-.312.405-.196.386-.354.789-.538 1.18-.02.18.246.212.376.207.118-.101.143-.274.223-.406.182-.408.35-.822.486-1.248-.017-.109-.15-.12-.235-.138zm16.328 0c-.152.008-.253.174-.169.313.113.35.294.671.433 1.01.077.148.117.322.22.452.12.067.337.008.375-.13-.026-.144-.099-.276-.145-.415a7.879 7.879 0 0 0-.536-1.118c-.037-.049-.086-.098-.147-.111h-.03zm-14.446.683c-.129.182-.17.407-.25.612-.123.367-.227.74-.31 1.117-.014.21.32.259.362.047.192-.383.296-.802.431-1.207.03-.144.13-.337-.017-.45a.756.756 0 0 0-.216-.12zm12.596 0c-.147.052-.34.162-.287.35.079.348.205.685.316 1.024.088.176.108.422.286.53.203.074.292-.172.211-.325a10.085 10.085 0 0 0-.48-1.512c.012-.036-.046-.04-.046-.067zm-10.563.585c-.111.135-.123.32-.18.48-.112.426-.209.86-.242 1.3.044.195.354.175.416 0 .057-.199.088-.405.137-.606.064-.313.135-.626.165-.943-.011-.146-.166-.222-.296-.23zm8.53 0c-.151.01-.332.118-.287.294.035.365.128.722.199 1.082.056.162.032.372.165.495.153.127.412-.004.338-.209a8.047 8.047 0 0 0-.353-1.565.223.223 0 0 0-.062-.097zm-6.398.345c-.172.006-.178.22-.203.348-.077.496-.09 1-.145 1.498.05.125.303.072.394-.008.065-.126.055-.277.083-.415a8.64 8.64 0 0 0 .073-1.25c-.005-.11-.098-.179-.202-.173zm4.23 0c-.167.01-.185.237-.164.372.015.468.03.94.122 1.402.04.178.296.146.41.114.029-.196-.035-.393-.033-.59-.034-.39-.048-.785-.143-1.165-.022-.067-.075-.143-.156-.132-.012 0-.024-.003-.035 0zm-2.89.154v1.836h1.586v-1.836z" style="opacity:1;vector-effect:none;fill:#000;fill-opacity:1;stroke:none;stroke-width:.08343966;stroke-linecap:butt;stroke-linejoin:miter;stroke-miterlimit:4;stroke-dasharray:none;stroke-dashoffset:0;stroke-opacity:1"/><path d="M26.458.005C15.566-.222 5.13 7.175 1.554 17.436-1.992 27.07.65 38.678 8.254 45.64c7.935 7.807 20.976 9.508 30.705 4.138 8.72-4.582 14.42-14.34 13.928-24.206-.14-10.823-7.772-20.939-18.043-24.248C32.15.411 29.3-.001 26.458.005Zm-.336 1.51c9.604-.18 18.91 5.955 22.6 14.817 4.145 9.17 1.782 20.704-5.574 27.558-7.168 7.105-18.845 8.896-27.84 4.35C6.548 44.07.812 34.36 1.549 24.664 1.967 14.776 9.044 5.605 18.51 2.7c2.456-.797 5.024-1.27 7.613-1.183z" style="fill:url(#c);fill-opacity:1;stroke-width:.31536257"/><path d="M26.122 1.516C15.948 1.302 6.154 8.249 2.914 17.886-.366 26.79 2.16 37.47 9.13 43.927c7.453 7.341 19.751 8.97 28.841 3.776C46.937 42.91 52.22 32.188 50.44 22.163c-1.436-9.346-8.693-17.494-17.89-19.814-2.093-.598-4.25-.895-6.427-.833Zm.003 2.232c8.733-.164 17.194 5.415 20.55 13.472 3.769 8.34 1.62 18.826-5.068 25.06-6.518 6.46-17.136 8.088-25.315 3.955-7.964-3.793-13.181-12.62-12.51-21.439.38-9.104 6.98-17.526 15.734-20.07 2.14-.667 4.362-1.05 6.61-.978z" style="fill:url(#d);fill-opacity:1;stroke-width:.31536257"/></svg>