<svg xmlns="http://www.w3.org/2000/svg" xmlns:xlink="http://www.w3.org/1999/xlink" width="232" height="228.753" viewBox="0 0 61.383 60.524"><defs><linearGradient id="a"><stop offset="0" style="stop-color:#338000;stop-opacity:1"/><stop offset="1" style="stop-color:#9f5;stop-opacity:1"/></linearGradient><linearGradient id="b"><stop offset="0" style="stop-color:#9f5;stop-opacity:1"/><stop offset="1" style="stop-color:#338000;stop-opacity:1"/></linearGradient><linearGradient xlink:href="#a" id="d" x1="-4535.859" x2="-3945.779" y1="16750.615" y2="16750.615" gradientTransform="matrix(.0836 0 0 .0836 385.209 -1370.03)" gradientUnits="userSpaceOnUse"/><linearGradient xlink:href="#b" id="c" x1="-4553.898" x2="-3920.205" y1="16754.506" y2="16754.506" gradientTransform="matrix(.0836 0 0 .0836 385.209 -1370.03)" gradientUnits="userSpaceOnUse"/></defs><path d="M116.242.002a2.295 2.295 0 0 0-1.305.342c-.868.557-1.256 1.612-1.353 2.6-.105 1.252-.068 2.612.65 3.695.785 1.202 2.741 1.327 3.674.236.738-.832.897-1.997.897-3.068-.006-.94-.122-1.934-.653-2.737-.392-.673-1.147-1.044-1.91-1.068zm.115 1.37a.673.673 0 0 1 .338.18c.521.626.481 1.49.51 2.255-.01.63-.025 1.282-.262 1.877-.128.472-.733.755-1.16.486-.508-.386-.566-1.073-.615-1.66-.038-.877-.084-1.795.264-2.621.109-.39.55-.6.925-.518zm53.176 13.571a56.822 56.822 0 0 1-.306 3.885c.724.01 1.465.02 2.158.258.449.11.82.533.79 1.008v.002c.008.397-.292.748-.657.873-.62.16-1.284.114-1.899-.05-.214 0-.604-.369-.592 0-.048.375-.234.76-.2 1.128.716.227 1.478.37 2.236.348.872-.017 1.816-.324 2.324-1.077.52-.835.497-2.028-.166-2.78-.628-.682-1.593-.866-2.477-.93.048-.449.077-.898.106-1.348h2.632v-1.317h-3.949zm-113.412.088a56.784 56.784 0 0 1-.307 3.887c.625.005 1.256.02 1.866.168.543.077 1.127.49 1.084 1.096a.925.925 0 0 1-.42.754c-.521.282-1.157.24-1.727.162-.383.057-1.054-.59-1.037.056.004.34-.46 1.021.092 1.067 1.15.302 2.453.454 3.543-.131 1.03-.515 1.369-1.884.943-2.902-.387-.975-1.492-1.363-2.457-1.46-.693-.014-.156-.951-.264-1.38h2.633V15.03h-3.949zm5.984 0a56.875 56.875 0 0 1-.304 3.887c.624.005 1.255.02 1.865.168.543.077 1.128.49 1.084 1.096a.927.927 0 0 1-.422.754c-.52.282-1.157.24-1.726.162-.383.057-1.052-.59-1.036.056.004.34-.459 1.021.092 1.067 1.15.302 2.454.454 3.543-.131 1.03-.515 1.367-1.884.942-2.902-.387-.975-1.491-1.363-2.456-1.46-.692-.014-.158-.951-.265-1.38h2.633V15.03h-3.95zm58.512 26.621a5.821 5.821 0 0 0-3.722 1.485c.148.657.727 1.566 1.285 1.713.857-.773 2.177-1.38 3.289-.791.825.618.536 1.864-.133 2.486-1.29 1.589-3.251 2.678-3.99 4.674-.179.686-.55 1.929-.065 2.37h7.604v-2.103c-1.575 0-3.149-.01-4.723.014-.416-.492.624-.999.867-1.45 1.264-1.288 2.866-2.438 3.389-4.255.392-1.406-.184-3.179-1.627-3.727-.68-.303-1.443-.423-2.174-.416zm-8.959.28c-1.083 1.085-2.449 1.838-3.853 2.423.384.633.378 2.24 1.517 1.67.52-.086 1.285-.85 1.578-.705v8.27h2.506V41.932h-1.748zm-34.191 8.72c-.89 1.245-3.146 1.744-3.713 2.672.118 1.015.77 2.2 1.863 1.196.693-.627 1.326-.528 1.094.41v7.38h2.506V50.653h-1.75zm9.56 0c-.889 1.245-3.145 1.744-3.713 2.672.119 1.015.77 2.2 1.864 1.196.693-.627 1.325-.528 1.093.41v7.38h2.506V50.653h-1.75zm59.72.002c-1.083 1.086-2.45 1.836-3.854 2.422l.757 1.934c.814-.282 1.621-.61 2.338-1.094v8.395h2.506V50.654h-1.748zm67.98 4.528a2.305 2.305 0 0 0-.827.172c-1.02.413-1.527 1.526-1.668 2.558-.133 1.267-.13 2.647.543 3.776.678 1.229 2.525 1.485 3.559.57.901-.818 1.096-2.11 1.096-3.268-.006-.903-.113-1.85-.59-2.638-.405-.77-1.266-1.191-2.113-1.17zm-191.16.103a2.302 2.302 0 0 0-.823.133c-1.08.372-1.632 1.534-1.771 2.6-.133 1.267-.132 2.645.54 3.773.678 1.229 2.527 1.486 3.561.57.902-.818 1.097-2.11 1.096-3.267-.006-.882-.108-1.801-.557-2.578-.38-.77-1.21-1.217-2.047-1.23zm185.402.07c-.678.68-1.533 1.151-2.412 1.518l.455 1.16c.547-.054 1.018-.367 1.482-.635v5.256h1.57v-7.299h-1.095zm-193.262.104a56.702 56.702 0 0 1-.305 3.887c.608.004 1.22.02 1.815.156.557.072 1.179.48 1.135 1.107h-.002a.925.925 0 0 1-.42.754c-.521.284-1.157.24-1.727.162-.38.054-1.05-.59-1.035.053.004.34-.46 1.024.092 1.07 1.114.293 2.362.445 3.435-.076 1.113-.483 1.51-1.942 1.03-3.006-.408-.943-1.487-1.312-2.436-1.41-.693-.015-.158-.951-.266-1.38h2.633v-1.317h-3.949zM214.9 56.537c.14.014.28.071.403.18.526.622.496 1.502.525 2.273-.011.552-.017 1.114-.18 1.647-.088.507-.577.976-1.115.777-.515-.236-.646-.87-.71-1.38-.07-.915-.129-1.866.152-2.753.07-.45.505-.787.925-.744zm-191.242.108a.691.691 0 0 1 .403.195c.52.626.479 1.488.507 2.254-.008.531-.019 1.07-.162 1.586-.08.5-.514 1.004-1.066.86-.54-.179-.7-.814-.768-1.317-.087-.938-.14-1.915.139-2.827.058-.462.518-.805.947-.751zm147.01 17.412a5.566 5.566 0 0 0-2.85.74c-1.007.263-1.328 1.165-.511 1.857.601 1.41 1.5-.385 2.515-.37 1.164-.43 2.452.673 1.88 1.868-.79 1.493-2.312 2.4-3.386 3.668a4.971 4.971 0 0 0-1.369 4.18h7.772v-2.104c-1.605 0-3.21.014-4.815-.011-.211-.45.922-1.323 1.362-1.823 1.322-1.296 3.024-2.647 3.101-4.658v-.002c.017-.883-.27-1.814-.933-2.425-.791-.614-1.771-.906-2.766-.92zm-106.656.277c-.21 0-.422.014-.631.047-1.918.216-3.143 2.053-3.453 3.826-.325 2.05-.344 4.275.584 6.18.862 2.02 3.602 2.721 5.424 1.593 1.812-1.186 2.217-3.546 2.205-5.558-.015-1.28-.144-2.599-.704-3.768-.556-1.38-1.96-2.293-3.425-2.318v-.002zm-9.385.283c-1.082 1.086-2.448 1.836-3.852 2.422l.7 1.791c.647.174 1.7-.576 2.396-.95v8.395h2.506V74.617h-1.75zm9.365 1.877c.17 0 .345.048.522.14 1.132.858.994 2.51 1.07 3.788 0 .199 0 .397-.014.596-.093 1.095-.04 2.567-1.1 3.212-1.176.583-1.984-.817-2.048-1.82-.162-1.48-.237-3.019.119-4.478.105-.74.72-1.458 1.451-1.438zm115.299 29.998a6.57 6.57 0 0 0-2.918.664c-.926.173-.516.757-.234 1.344.281 1.32 1.288.298 2.136.18 1.004-.315 2.48.197 2.29 1.457-.31 1.356-1.964 1.154-3.026 1.154v1.42c-.182.977 1.258.49 1.83.65 1.372-.059 2.243 1.757 1.176 2.701-1.081.705-2.498.546-3.682.202-1.158-.775-1.139.87-1.332 1.636.732.635 2.263.697 3.354.776.77.003 1.55-.078 2.28-.334 1.952-.52 2.932-2.93 2.1-4.715-.208-.754-1.107-1.182-1.49-1.59 1.644-.924 1.685-3.438.323-4.625-.81-.627-1.8-.905-2.807-.92zm-129.69.352a4.862 4.862 0 0 0-1.478.275c-2.57.938-3.349 4.868-1.19 6.613 1.267.825 2.972 1.003 4.38.438a3.601 3.601 0 0 1-.227.568c-.66 1.462-2.364 1.944-3.84 1.983-1.182-.133-.412 1.41-.564 2.107 1.113-.013 2.236-.116 3.302-.453 1.81-.498 3.28-1.966 3.746-3.79.454-1.863.54-3.962-.341-5.718-.696-1.426-2.261-2.071-3.787-2.023zm.262 2.082c.977.053 1.622 1.147 1.612 2.097.445 1.007-.41 1.727-1.39 1.514-.361-.001-.73-.041-1.07-.178-1.306-.663-1.057-3.074.41-3.388.153-.039.299-.053.438-.045zm-46.662 1.736c-1.291 1.33-2.344 2.88-3.201 4.52v1.146h3.148v1.633h1.54v-1.633h.779v-1.283h-.78v-4.383H3.202zm3.723 0a56.784 56.784 0 0 1-.307 3.887c.624.004 1.256.02 1.865.168.544.077 1.127.49 1.084 1.096a.925.925 0 0 1-.42.753c-.52.283-1.156.24-1.726.163-.382.056-1.053-.589-1.037.056.003.34-.46 1.021.092 1.067 1.132.297 2.408.449 3.49-.104 1.08-.504 1.442-1.934.974-2.978-.407-.944-1.486-1.313-2.435-1.41-.693-.016-.156-.952-.264-1.381h2.633v-1.317h-3.95zm-3.776 1.918v2.465H1.496c.42-.903 1.063-1.672 1.652-2.465zm169.73 26.918c-.387-.006-.772.004-1.146.092-2.029 2.105-3.683 4.548-5.035 7.135v1.832h5.03v2.607h2.455v-2.607h1.246v-2.051h-1.246v-6.998h-.143c-.384.02-.773-.004-1.16-.01zm-1.151 3.07v3.938h-2.641c.67-1.442 1.699-2.67 2.64-3.938zM144.5 163.48c-.1 2.009-.233 4.016-.465 6.014.443.454 1.82.078 2.61.385.962.104 2.15.699 2.078 1.826.012 1.023-1.003 1.517-1.895 1.543-1.029.098-2.023-.174-2.98-.453-.199.57-.69 1.502-.297 2.09 1.76.506 3.718.794 5.463.074 1.811-.618 2.634-2.819 2.04-4.56-.487-1.676-2.295-2.429-3.89-2.594-1.245.084-.427-1.479-.56-2.223h4.205v-2.102H144.5zm-66.357.088v2.137h5.062c-.28.397-.538.812-.775 1.236-1.399 2.561-2.337 5.394-2.621 8.303h2.539c.07-1.128.29-2.245.609-3.328.728-2.342 1.737-4.653 3.344-6.531v-1.817h-8.158zm130.511 2.172a3.656 3.656 0 0 0-2.357.93c-.027.36.51.78.705 1.164.461-.429 1.068-.798 1.723-.725.635-.002.94.766.648 1.282-.587.96-1.594 1.554-2.273 2.44-.561.651-.783 1.54-.666 2.386h4.865V171.9h-2.35c-.25-.033-.568.076-.765-.056.323-.497.756-.909 1.183-1.315.769-.732 1.678-1.553 1.711-2.695.018-.71-.275-1.418-.93-1.756a3.121 3.121 0 0 0-1.494-.338zm6.287.006a2.323 2.323 0 0 0-.802.098c-1.14.328-1.731 1.532-1.871 2.63-.134 1.268-.13 2.648.543 3.776.677 1.229 2.524 1.486 3.558.57.902-.818 1.097-2.111 1.096-3.27-.006-.88-.108-1.8-.557-2.577-.368-.744-1.157-1.187-1.967-1.227zm-191.724.104a2.327 2.327 0 0 0-.799.093c-1.148.321-1.746 1.531-1.887 2.635-.132 1.266-.134 2.642.537 3.77.675 1.233 2.527 1.493 3.563.576.901-.818 1.097-2.112 1.096-3.27-.006-.881-.106-1.8-.555-2.578-.367-.739-1.15-1.183-1.955-1.226zm-5.688.171c-1.291 1.33-2.344 2.878-3.2 4.518v1.149h3.148v1.632h1.537v-1.632h.779v-1.286h-.78v-4.38H17.53zm197.424 1.08c.143.018.283.081.402.198.522.626.48 1.486.508 2.252-.009.531-.019 1.07-.162 1.586-.08.501-.512 1.004-1.064.86-.54-.178-.701-.814-.768-1.317-.088-.938-.143-1.913.137-2.825.058-.462.518-.807.947-.753zm-191.738.104c.143.018.282.08.402.197.521.626.481 1.487.51 2.252-.008.511-.02 1.03-.148 1.528-.083.485-.435 1.015-.993.935-.58-.1-.774-.766-.847-1.271-.099-.957-.154-1.955.129-2.887.058-.462.518-.807.947-.754zm-5.738.732v2.465h-1.653c.42-.902 1.063-1.671 1.653-2.464zm100.43 4.21a.608.608 0 0 0-.31.015c-2.441.091-5.063 1.206-6.126 3.543-.91 1.95-1.024 4.341-.127 6.316.78 1.74 2.917 2.405 4.677 1.99 2.237-.385 3.552-2.951 2.924-5.052-.378-1.724-2.255-2.599-3.892-2.512-.315-.212-1.57.61-1.34-.078.828-1.62 2.774-2.155 4.467-2.17.067-.549.32-1.9-.274-2.053zm-3.526 6.226c.114-.002.232.006.351.025.202.002.407.015.606.053 1.664.265 1.677 2.994.154 3.494-1.295.52-2.221-.949-2.185-2.088-.345-.92.274-1.467 1.074-1.484zm53.793 27.92a3.651 3.651 0 0 0-2.356.93c-.027.36.509.78.703 1.164.462-.429 1.07-.798 1.723-.725.636-.002.94.766.649 1.281-.596.974-1.623 1.573-2.303 2.479-.543.646-.75 1.519-.637 2.348h4.867v-1.317h-2.363c-.246-.033-.56.075-.754-.057.324-.496.756-.908 1.184-1.314.768-.732 1.677-1.552 1.71-2.693.018-.71-.275-1.423-.929-1.76a3.122 3.122 0 0 0-1.494-.336zm-110.96.039a4.108 4.108 0 0 0-1.88.5c-.51.319.233.894.295 1.305.509-.315 1.11-.542 1.717-.455.627-.029 1.023.802.627 1.277-.44.494-1.157.358-1.744.377v1.184c.387.212 1.179-.05 1.664.271.653.25.675 1.268.105 1.621-.823.373-1.784.22-2.598-.105-.404.124-.269.876-.457 1.242.675.272 1.405.391 2.13.41.575.003 1.163-.068 1.69-.31 1.167-.477 1.59-2.077.913-3.11-.055-.42-.85-.432-.701-.809.964-.608.919-2.147.082-2.845-.54-.396-1.187-.562-1.842-.553zm115.294.139a56.85 56.85 0 0 1-.305 3.886c.624.005 1.256.02 1.865.168.544.078 1.127.49 1.084 1.096a.924.924 0 0 1-.422.752c-.52.283-1.156.24-1.726.162-.382.056-1.05-.588-1.035.057.003.34-.46 1.02.092 1.066 1.132.298 2.408.451 3.49-.101 1.08-.505 1.441-1.934.974-2.979-.407-.944-1.487-1.312-2.435-1.41-.693-.015-.158-.952-.266-1.38h2.633v-1.317h-3.95zm-110.703.03a56.88 56.88 0 0 1-.307 3.888c.585.005 1.177.017 1.752.14.575.061 1.24.473 1.197 1.123a.881.881 0 0 1-.177.522c-.37.471-1.043.471-1.588.437-.465.03-.876-.237-1.317-.26-.083.373-.421.93-.172 1.295 1.093.306 2.309.49 3.397.06.802-.269 1.353-1.05 1.418-1.882.11-.901-.352-1.86-1.201-2.236-.502-.274-1.08-.327-1.627-.434-.372-.355.049-.9-.059-1.336h2.633v-1.316h-3.95zm57.263 14.622a2.308 2.308 0 0 0-.818.125c-1.092.364-1.651 1.534-1.791 2.606-.132 1.265-.134 2.641.537 3.769.674 1.234 2.527 1.493 3.563.576.901-.818 1.095-2.111 1.095-3.27-.006-.88-.106-1.8-.554-2.577-.378-.763-1.2-1.209-2.032-1.229zm-6.623.008a4.155 4.155 0 0 0-1.898.588c-.152.316.35.82.455 1.21.508-.313 1.113-.539 1.719-.452.639-.009 1.013.782.625 1.277-.434.497-1.157.354-1.742.377v1.264c.555.014 1.147-.062 1.664.19.682.269.67 1.326.048 1.653-.841.334-1.805.177-2.619-.168-.235.206-.235.884-.379 1.274.675.272 1.403.391 2.127.41v-.002c.586.005 1.19-.073 1.723-.328 1.182-.505 1.569-2.18.809-3.19-.05-.35-1.093-.492-.52-.783.88-.69.768-2.188-.105-2.836-.568-.375-1.238-.52-1.907-.484zm6.698 1.35c.143.017.282.08.402.197.521.626.481 1.486.51 2.252-.01.53-.021 1.07-.164 1.586-.08.5-.513 1.004-1.065.859-.54-.178-.7-.813-.767-1.316-.088-.938-.143-1.913.136-2.825.058-.462.519-.807.948-.754z" style="fill:#b3b3b3;fill-opacity:1;stroke:none;stroke-width:.31595439" transform="matrix(.26458 0 0 .26458 0 0)"/><path d="M112.918 31.988v6.95h6.004v-6.95h-6.004zm-5.492.293v.004c-.043 0-.087.011-.13.016-.258 0-.522.012-.778 0 .21 2.272.299 4.56.72 6.806.134.392.65.532.996.342.355-.134.37-.571.366-.892.014-1.226-.065-2.451-.17-3.672-.074-.715-.147-1.433-.291-2.137a.75.75 0 0 0-.713-.467zm17.607.004c-.184.012-.407.05-.512.014-.979-.115-.935 1.16-1.013 1.82-.172 1.645-.487 3.3-.397 4.955.439.943 1.71.371 1.588-.576.365-1.986.404-4.017.61-6.023.053-.172-.092-.197-.276-.19zm-26.209 1.272c-.639-.012-.768.796-.562 1.302.238 1.785.593 3.56 1.12 5.282.148.843 1.334.739 1.456-.057-.074-1.63-.515-3.226-.817-4.826-.165-.547-.097-1.339-.709-1.608a1.128 1.128 0 0 0-.353-.082c-.048-.012-.092-.011-.135-.011zm34.227 0c-.055 0-.112 0-.17.011-.711-.017-.94.774-.988 1.346-.355 1.667-.765 3.332-.942 5.03.022.562.852 1.134 1.297.67.271-.666.435-1.382.63-2.077.34-1.396.643-2.808.788-4.238a.641.641 0 0 0-.615-.742zM90.576 35.77c-.692.063-.631 1.07-.451 1.584.438 1.83 1.053 3.619 1.766 5.359.267.616 1.092-.099 1.263-.5.114-.694-.256-1.352-.414-2.012-.465-1.395-.827-2.85-1.56-4.135-.105-.152-.264-.281-.455-.295l-.149-.001zm50.54.001c-.68.191-.77 1.022-1.05 1.565a45.995 45.995 0 0 0-1.392 4.36c-.171.637.41 1.156.98 1.269.603-.231.568-1.144.873-1.68a39.485 39.485 0 0 0 1.35-4.773c.036-.423-.348-.776-.762-.74zm7.97 3.094c-.721.31-.927 1.152-1.295 1.776-.717 1.475-1.368 2.98-2.006 4.49.4.344 1.063.703 1.569.465.511-.609.686-1.44 1.074-2.133.573-1.296 1.057-2.637 1.545-3.961.012-.442-.53-.61-.887-.637zm-66.45.012c-.575.03-.959.661-.638 1.185.424 1.324 1.11 2.544 1.637 3.827.291.56.445 1.214.832 1.709.455.253 1.278.028 1.42-.494-.098-.546-.374-1.046-.55-1.573-.592-1.455-1.224-2.907-2.04-4.252-.137-.178-.322-.345-.541-.4h-.12v-.002zm-5.394 2.764-5.11 2.707 3.514 6.037 4.94-2.916-3.344-5.828zm77.358 0-3.254 6.166 4.406 2.414 3.94-5.883-5.092-2.697zm-86.526 5.523c-.508.214-1.33.646-.93 1.316.633 1.145 1.435 2.19 2.182 3.262.51.617.947 1.356 1.63 1.79.662.347 1.287-.52.939-1.106-.691-1.314-1.614-2.494-2.499-3.682-.433-.53-.829-1.106-1.322-1.58zm95.692 0c-.982.99-1.729 2.179-2.573 3.281a38.929 38.929 0 0 0-1.449 2.16c-.178.635.768 1.43 1.268.872a43.084 43.084 0 0 0 3.76-5.053c.292-.64-.52-1.077-1.006-1.26zm-102.373 5.42c-.493.209-1.17.741-.83 1.336.595.962 1.425 1.758 2.146 2.627.692.751 1.359 1.551 2.133 2.21.653.014 1.288-.917.787-1.486-1.3-1.62-2.662-3.202-4.152-4.654l-.084-.033zm109.056.012c-.68.477-1.158 1.186-1.748 1.763-.915 1.026-1.868 2.035-2.64 3.174-.208.555.39 1.264.95 1.197.61-.445 1.053-1.1 1.6-1.625.923-1.008 1.85-2.024 2.676-3.11.328-.633-.296-1.2-.838-1.4zM55.17 58.79c-.61.136-1.084.966-.468 1.416 1.134 1.202 2.365 2.315 3.596 3.416.469.414 1.317 1.318 1.758.373.494-.654-.144-1.327-.655-1.717-1.218-1.148-2.43-2.316-3.773-3.318a1.38 1.38 0 0 0-.457-.17zm121.5 0c-.936.294-1.548 1.125-2.3 1.709-.91.837-1.879 1.63-2.681 2.57-.256.52.172 1.427.785 1.373.477-.304.877-.721 1.328-1.07 1.233-1.074 2.442-2.186 3.547-3.39.292-.5-.204-1.064-.678-1.192zM49.946 65.473l.002.006c-.051 0-.154.05-.154 0-.459.119-1.173.708-.762 1.189 1.58 1.327 3.224 2.599 4.985 3.684.6.472 1.67-.524 1.125-1.104-.765-.856-1.788-1.426-2.676-2.143-.8-.573-1.577-1.224-2.49-1.605 0-.02-.013-.027-.03-.027zm132.1.006c-.98.208-1.681.995-2.506 1.507-.985.735-2.018 1.428-2.902 2.282-.386.65.588 1.583 1.203 1.068 1.724-1.187 3.46-2.377 5.06-3.73.342-.526-.458-.977-.855-1.127zM45.979 70.5l-2.813 5.16 5.84 3.346 3.22-4.797L45.98 70.5zm139.884 0-6.232 3.701 2.848 4.705 6.013-3.207-2.629-5.199zM41.008 80.014c-.535.442-.734 1.464.084 1.72 1.639.963 3.396 1.696 5.103 2.524.706.392 1.223-.533 1.213-1.127-.269-.572-1.1-.572-1.59-.938-1.588-.759-3.182-1.51-4.81-2.18zm149.953.158c-1.29.307-2.476.928-3.705 1.408-.936.401-1.866.823-2.756 1.318-.218.535.198 1.192.676 1.42.718-.046 1.323-.583 2.008-.793 1.33-.598 2.675-1.182 3.921-1.943.431-.376.232-1.076-.144-1.41zM38.11 88.365c-.507-.042-.96.596-.582 1.026.468.493 1.178.643 1.782.91 1.354.474 2.709.998 4.127 1.246.659.142 1.287-.762.8-1.277-1.48-.747-3.111-1.154-4.691-1.645a7.839 7.839 0 0 0-1.334-.242.376.376 0 0 0-.102-.018zm155.506.018c-1.751.207-3.384.922-5.045 1.472-.579.17-1.474.577-1 1.311.254.845 1.15.362 1.698.166 1.625-.497 3.287-.953 4.81-1.72.563-.286.42-1.256-.262-1.225h-.101l-.1-.004zM35.641 96.574c-.648.266-.624 1.458.152 1.526 1.42.427 2.889.663 4.336.976.574.077 1.185.24 1.752.076.461-.236.845-1.156.224-1.418-.548-.13-1.102-.238-1.652-.37-1.59-.334-3.193-.645-4.812-.79zm160.558 0c-2.002.178-3.97.607-5.93 1.041-.805-.069-1.121.79-.562 1.336.376.585 1.112.199 1.65.145 1.613-.29 3.235-.584 4.817-1.008.554-.265.711-1.342.027-1.514h-.002zm-162.27 8.307v.002c.053.555-.228 1.457.538 1.625 1.034.217 2.1.243 3.142.422 1.02.128 2.072.252 3.088.037.681-.252.558-1.34-.205-1.362-1.747-.365-3.54-.43-5.312-.61-.417-.038-.834-.075-1.25-.114zm163.981.002c-2.221.234-4.47.29-6.66.754-.623.083-.814.887-.383 1.299.503.346 1.17.085 1.746.132 1.601-.083 3.192-.305 4.776-.539.718-.243.496-1.08.521-1.646zm25.889 5.66c-.678.68-1.533 1.15-2.412 1.518l.445 1.134c.559.012 1.022-.357 1.492-.61v5.257h1.57v-7.299H223.8zm3.984 0a56.874 56.874 0 0 1-.304 3.887c.604.004 1.214.018 1.806.154.56.065 1.186.484 1.143 1.11h-.002a.886.886 0 0 1-.178.52c-.37.47-1.045.471-1.59.436-.465.032-.875-.242-1.316-.257-.094.374-.412.93-.17 1.294 1.127.315 2.389.503 3.498.016.871-.326 1.376-1.275 1.326-2.18-.01-.829-.524-1.62-1.299-1.935-.495-.286-1.105-.24-1.61-.445-.233-.4.103-.858.013-1.284h2.632v-1.316h-3.949zm-194.168.744v6.004h6.95v-6.004h-6.95zm157.66 0v6.004h6.952v-6.004h-6.952zm.385 10.299v.002c-.481.017-.972.153-.988.728.012.765.936.687 1.469.768 1.737.17 3.463.58 5.216.469.67.04.702-.923.373-1.297-.584-.422-1.358-.305-2.033-.44a45.444 45.444 0 0 0-3.578-.216 4.076 4.076 0 0 0-.459-.014zm-151.943.014v.002c-1.778.064-3.564.136-5.317.466-.628.22-.525 1.083-.41 1.582.542.066 1.11-.109 1.668-.109 1.66-.147 3.333-.242 4.965-.592.565-.108.739-.925.236-1.219-.35-.185-.768-.11-1.142-.13zm150.562 7.755c-.618-.032-1.17.878-.572 1.29.777.431 1.69.542 2.54.777 1.17.233 2.339.56 3.538.58.67.05 1.058-.804.695-1.32-.933-.52-2.033-.551-3.05-.809-1.003-.2-2.006-.413-3.026-.498a.574.574 0 0 0-.125-.02zm-148.707.012-.135.012c-1.856.172-3.662.677-5.492.992-.835.142-1.1 1.564-.168 1.734.784-.02 1.542-.282 2.315-.406 1.298-.267 2.61-.513 3.861-.955.72-.253.432-1.305-.25-1.363l-.13-.014zm146.438 7.516c-.43.308-.862 1.117-.272 1.48.946.51 2.003.774 3.002 1.16.925.309 1.87.622 2.844.706.644.065 1.096-.817.545-1.227-.745-.473-1.625-.687-2.445-.996-1.217-.397-2.438-.794-3.674-1.123zm-144.131.119c-1.864.325-3.659.96-5.418 1.64-.62.176-1.429.761-.875 1.452.603.55 1.49-.046 2.174-.168 1.47-.475 2.964-.904 4.373-1.543.524-.313.263-1.244-.254-1.381zm14.658 2.309a4.445 4.445 0 0 0-.685.103c-1.697.266-3.078 1.897-2.893 3.633-.228 1.055 1.3 1.695 1.17 2.47-1.3.904-1.877 2.796-1.006 4.182.948 1.665 3.131 1.99 4.863 1.664 1.661-.171 3.077-1.683 2.983-3.377a2.604 2.604 0 0 0-.073-.738c-.019-1.045-1.38-1.568-1.51-2.293 1.053-.745 1.56-2.16 1.155-3.393-.525-1.645-2.365-2.374-4.004-2.251zm.363 2.023c.68.035 1.338.452 1.36 1.219.025.641-.319 1.337-.862 1.683-.975.33-2.12-.829-1.984-1.826.106-.763.807-1.111 1.486-1.076zm-12.308 3.027c-1.208.238-2.25.938-3.375 1.403-.861.418-1.752.808-2.528 1.373-.363.424-.08 1.32.487 1.38.58-.166 1.098-.511 1.672-.714 1.492-.682 2.976-1.391 4.416-2.176.427-.384-.205-1.266-.672-1.266zm138.803.008v.004c-.05 0-.15.048-.149 0-.519.037-1.069.856-.666 1.262.513.375 1.117.607 1.672.916 1.424.691 2.87 1.367 4.37 1.87.554-.029.938-.893.556-1.308-.711-.614-1.636-.902-2.457-1.34-1.08-.501-2.157-1.035-3.3-1.378.001-.017-.011-.025-.026-.026zM58.5 146.23c.116.012.239.05.365.123.861.288 1.887 1.021 1.608 2.062-.436 1.572-3.258 1.331-3.325-.328-.01-.7.538-1.945 1.352-1.857zm-9.295 3.3-5.959 3.38 3.111 4.952 5.852-3.466-3.004-4.866zm133.432 0-2.912 4.612 6.013 3.879 2.733-5.174-5.834-3.317zm-128.051 8.69c-1.016.118-1.77.9-2.602 1.42-1.026.746-2.088 1.469-3.025 2.318-.209.564.45 1.15.951 1.246.578-.088.924-.632 1.412-.908 1.289-.952 2.648-1.841 3.782-2.977.286-.443-.013-1.012-.518-1.1zm122.76.013c-1.068.077-.712 1.427.054 1.706 1.27 1.086 2.64 2.053 4.036 2.968.563.439 1.318.02 1.521-.586-.012-.642-.863-.824-1.24-1.277-1.267-.975-2.545-1.967-3.97-2.7a1.794 1.794 0 0 0-.401-.11zm-117.754 5.862c-1.078.571-1.908 1.496-2.83 2.277-.793.754-1.633 1.48-2.313 2.336-.247.632.591 1.372 1.176.951 1.343-1.039 2.58-2.216 3.828-3.37.539-.427 1.206-1.21.461-1.796a10.94 10.94 0 0 0-.322-.398zm112.752.072c-.456.224-1.06.867-.711 1.375.873.892 1.825 1.713 2.746 2.559.706.548 1.318 1.3 2.139 1.656.712.052 1.28-.906.63-1.395-1.453-1.408-2.885-2.853-4.51-4.07l-.142-.074-.152-.051zm-5.426 5.645c-.513.2-1.165.772-.773 1.363.635.984 1.468 1.828 2.222 2.722.657.697 1.256 1.471 1.988 2.083.53.063 1.112-.629.999-1.145-.431-.87-1.189-1.525-1.792-2.275-.82-.935-1.66-1.854-2.56-2.713l-.082-.035h-.002zm-101.988.011c-.79.594-1.386 1.405-2.086 2.096-.818.905-1.68 1.787-2.371 2.793-.194.566.41 1.213.941 1.252.691-.385 1.112-1.133 1.691-1.664.911-1.023 1.86-2.03 2.64-3.156.314-.622-.313-1.103-.815-1.32zm6.377 5.155c-.892.204-1.32 1.116-1.877 1.752-.826 1.126-1.655 2.264-2.34 3.48-.248.61.527 1.274 1.105 1.084.66-.535 1.054-1.373 1.635-2.012.736-1.017 1.528-2.017 2.078-3.15.236-.48-.072-1.08-.601-1.154zm89.226 0c-.71.105-.862 1.01-.426 1.496.748 1.347 1.73 2.544 2.643 3.78.36.35.605.993 1.092 1.1.55-.075 1.214-.654.863-1.242-.74-1.252-1.598-2.435-2.457-3.609-.505-.546-.928-1.378-1.715-1.525zm-84.719 3.418-3.474 5.767 4.668 2.758 3.619-5.764-4.813-2.761zm80.168.039-4.74 2.515 3.39 6.174 4.72-2.955-3.37-5.734zm-71.035 4.525c-.664.228-.843.997-1.183 1.535-.741 1.46-1.34 2.986-2.035 4.467-.073.678.93.803 1.421.785.45-.384.542-1.038.842-1.537.693-1.544 1.333-3.115 1.846-4.729-.065-.41-.566-.457-.89-.521zm61.828 0c-.575.03-.96.66-.638 1.184.424 1.323 1.11 2.545 1.636 3.828.292.56.443 1.217.83 1.71.456.254 1.28.03 1.422-.495-.098-.544-.372-1.043-.546-1.569-.592-1.448-1.22-2.894-2.032-4.232-.14-.187-.323-.374-.554-.424h-.118v-.002zm-54.703 2.586c-.486.688-.647 1.543-.95 2.318a40.724 40.724 0 0 0-1.167 4.229c-.055.792 1.206.979 1.367.178.728-1.45 1.124-3.036 1.635-4.569.111-.546.487-1.275-.068-1.701a2.855 2.855 0 0 0-.817-.455zm47.696 0c-.556.198-1.285.615-1.086 1.322.298 1.32.774 2.597 1.195 3.883.333.663.411 1.596 1.082 2.002.769.283 1.108-.647.803-1.227-.48-1.944-1.035-3.88-1.815-5.728.042-.133-.18-.148-.18-.252zm-39.998 2.217c-.42.51-.467 1.21-.68 1.818-.426 1.613-.792 3.253-.918 4.918.166.74 1.34.665 1.574.002.216-.751.336-1.531.522-2.293.242-1.183.512-2.37.625-3.572-.045-.552-.63-.841-1.123-.873zm32.302 0c-.575.034-1.258.445-1.09 1.111.135 1.384.487 2.736.754 4.098.215.615.12 1.405.625 1.87.58.483 1.56-.009 1.28-.784-.254-2.01-.686-4.007-1.334-5.926-.052-.136-.12-.276-.235-.37zm-24.228 1.304c-.65.023-.676.833-.77 1.317-.293 1.879-.338 3.789-.549 5.674.192.473 1.15.272 1.493-.032.245-.475.208-1.05.312-1.57.18-1.57.33-3.155.28-4.736-.017-.411-.371-.674-.766-.653zm16.02 0c-.635.04-.703.9-.626 1.409.056 1.774.117 3.563.463 5.308.152.676 1.122.557 1.551.434.111-.74-.13-1.49-.12-2.237-.13-1.473-.185-2.97-.542-4.41-.086-.253-.286-.54-.592-.5-.048 0-.092-.011-.135 0v-.004zm-10.946.584v6.952h6.004v-6.952h-6.004z" style="shape-padding:0;vector-effect:none;fill:#000;fill-opacity:1;stroke:none;stroke-width:.31595439;stroke-linecap:butt;stroke-linejoin:miter;stroke-miterlimit:4;stroke-dasharray:none;stroke-dashoffset:0;stroke-opacity:1" transform="matrix(.26458 0 0 .26458 0 0)"/><path d="M31.005 4.09c-10.912-.227-21.366 7.184-24.95 17.464-3.553 9.652-.907 21.282 6.711 28.256 7.951 7.822 21.017 9.526 30.764 4.145 8.736-4.59 14.446-14.366 13.954-24.251-.14-10.844-7.787-20.978-18.077-24.293-2.7-.914-5.555-1.327-8.402-1.32Zm-.336 1.514c9.621-.182 18.945 5.965 22.642 14.843 4.153 9.189 1.785 20.744-5.584 27.611-7.182 7.118-18.88 8.913-27.893 4.358C11.059 48.237 5.31 38.511 6.05 28.795 6.469 18.889 13.559 9.7 23.042 6.789c2.46-.798 5.033-1.272 7.627-1.185z" style="fill:url(#c);fill-opacity:1;stroke-width:.31595522"/><path d="M30.669 5.604c-10.193-.215-20.006 6.746-23.252 16.4-3.285 8.922-.756 19.622 6.229 26.092 7.466 7.355 19.788 8.986 28.895 3.783 8.982-4.805 14.274-15.545 12.49-25.59-1.438-9.362-8.709-17.526-17.923-19.85-2.097-.6-4.258-.898-6.44-.835Zm.003 2.237c8.749-.165 17.226 5.424 20.589 13.497 3.775 8.354 1.623 18.861-5.078 25.106-6.53 6.472-17.168 8.104-25.363 3.963-7.98-3.8-13.206-12.645-12.534-21.48.382-9.12 6.993-17.558 15.764-20.107 2.144-.669 4.37-1.053 6.622-.98z" style="fill:url(#d);fill-opacity:1;stroke-width:.31595522"/><path d="M30.356 29.975h14.391" style="opacity:1;vector-effect:none;fill:#000;fill-opacity:1;stroke:#000;stroke-width:.8359648;stroke-linecap:round;stroke-linejoin:miter;stroke-miterlimit:4;stroke-dasharray:none;stroke-dashoffset:0;stroke-opacity:1"/><path d="m30.356 30.107-9.446 3.912" style="fill:#000;stroke:#000;stroke-width:.8359648;stroke-linecap:round;stroke-linejoin:miter;stroke-miterlimit:4;stroke-dasharray:none;stroke-opacity:1"/><circle cx="30.356" cy="29.975" r="1.005" style="opacity:1;vector-effect:none;fill:#fff;fill-opacity:1;stroke:#000;stroke-width:.4179824;stroke-linecap:round;stroke-linejoin:miter;stroke-miterlimit:4;stroke-dasharray:none;stroke-dashoffset:0;stroke-opacity:1"/><path d="M107.62 70.682a1.055 1.055 0 0 0-.696.304c-.599.516-.388 1.627.373 1.871.691.29 1.594-.286 1.527-1.056a.95.95 0 0 0-.125-.543c-.207-.396-.653-.602-1.08-.576zm26.347.72c-.65-.01-1.3.156-1.846.512-1.056.65-1.49 2.18-.826 3.25.088.387.715.481.635.897-.671.453-1.134 1.236-1.133 2.054-.017.985.671 1.878 1.57 2.233a4.514 4.514 0 0 0 2.867.047c1.045-.289 1.782-1.352 1.735-2.426.05-.918-.578-1.732-1.332-2.188.392-.25.708-.617.904-1.039.48-.949.123-2.182-.734-2.787a3.483 3.483 0 0 0-1.84-.553zm-.17 1.52c.548-.031 1.142.357 1.148.94.038.58-.34 1.115-.828 1.398-.44-.155-.898-.379-1.146-.793-.386-.533-.044-1.376.595-1.504.075-.022.153-.037.23-.041zm-21.016.635a8.813 8.813 0 0 0-2.197.316l.168 1.072c-.064.364.213.52.527.325.63-.104 1.293-.23 1.922-.051.492.107.703.66.664 1.117-.184.059-.54-.083-.795-.065-.872-.03-1.835.063-2.521.659-.596.516-.683 1.404-.496 2.129.147.688.757 1.179 1.416 1.35 1.383.318 2.819.102 4.19-.179l.001-3.689c.011-.773-.048-1.636-.601-2.232-.576-.62-1.472-.757-2.278-.752zm11.076.021a3.452 3.452 0 0 0-1.796.559c-.325.05-.682-.43-1.086-.45-1.205-.252-2.444.002-3.623.276v6.459h1.87v-5.094c.415-.201.95-.195 1.346.049.409.381.399.982.414 1.498v3.547h1.872v-1.664c-.021-.931.053-1.865-.045-2.793-.288-.547.343-.803.798-.762.565-.06.941.483.965.996.083 1.406.022 2.816.041 4.223h1.871c-.005-1.24.01-2.48-.005-3.72.01-.913-.084-1.966-.833-2.595-.52-.379-1.153-.544-1.789-.529zm-17.08.156v4.797c-.028.717.071 1.443-.074 2.15-.142.526-.797.563-1.234.442-.495-.027-.245.827-.432 1.162-.064.602.751.413 1.123.488.316 0 .635-.032.94-.119.912-.2 1.48-1.112 1.53-2.002.039-2.305.008-4.612.018-6.918h-1.87zm26.805 2.909c.237.001.49.106.674.267.464.157.85.59.879 1.09.052.627-.574 1.104-1.162 1.078-.618.072-1.355-.358-1.352-1.033-.02-.381.14-.753.377-1.045a.608.608 0 0 1 .584-.357zm-20.648.892c.31-.012.63.03.93.076v1.276c-.123.375-.64.132-.93.213a2.18 2.18 0 0 1-.618-.08c-.534-.12-.656-.896-.263-1.235.268-.17.57-.238.88-.25zm-.315 9.037c-.514.055-.962.504-.982 1.032-.072.547.331 1.091.873 1.19.666.176 1.428-.394 1.369-1.099.046-.589-.472-1.076-1.035-1.12a.993.993 0 0 0-.225-.003zm14.307.932c-.806.818-1.827 1.387-2.877 1.83l.566 1.463c.608-.214 1.212-.461 1.746-.826v6.343h1.871v-8.81h-1.306zm4.754 0a69.496 69.496 0 0 1-.366 4.691c.838.012 1.692.021 2.497.284.566.119 1.062.642 1.021 1.242.01.43-.285.823-.664 1.004-.649.235-1.368.198-2.037.072-.356.034-.739-.373-1.04-.207-.039.504-.29.979-.255 1.492.787.246 1.604.417 2.432.422 1.066.022 2.232-.292 2.912-1.166.728-1.012.722-2.538-.102-3.496-.746-.817-1.898-1.046-2.955-1.121.057-.542.092-1.084.127-1.627h3.14v-1.59h-4.71zm-14.409.152-1.873.305v3.516c.028.963-.054 1.93.051 2.89.044.762.468 1.518 1.174 1.848 1.008.4 2.167.315 3.16-.09l-.263-1.475c-.423.154-.876.243-1.327.207-.463.034-.836-.348-.882-.794-.081-.951-.021-1.907-.04-2.86h2.249v-1.576h-2.249v-1.97zm-17.365 1.791a3.302 3.302 0 0 0-1.392.344c-1.178.589-1.787 1.955-1.743 3.23-.003.69.131 1.396.483 1.997.525.926 1.597 1.397 2.625 1.464.915.036 1.855-.06 2.709-.408l-.098-.594c-.063-.31-.072-.636-.18-.933a4.72 4.72 0 0 1-2.11.299c-.7-.012-1.456-.508-1.507-1.252h4.246c.024-.253.038-.506.038-.76.01-.919-.212-1.898-.875-2.572-.579-.572-1.39-.836-2.196-.815zm-7.136.026a3.45 3.45 0 0 0-1.797.556c-.325.051-.682-.427-1.086-.447-1.205-.253-2.442 0-3.621.273v6.46h1.87V91.22c.415-.202.95-.195 1.346.049.409.38.397.982.413 1.498l.001 3.546h1.872v-1.662c-.021-.93.05-1.867-.047-2.795-.288-.546.345-.803.8-.761.565-.06.942.483.965.996.083 1.405.02 2.815.04 4.222h1.872c-.005-1.24.01-2.48-.005-3.72.01-.913-.084-1.966-.832-2.594-.521-.379-1.156-.543-1.791-.527zm14.283.004c-.888.007-1.773.159-2.631.378v6.46h1.871V91.67c.023-.172-.056-.383.045-.524.45-.03.93-.14 1.36.053.44.202.512.744.54 1.174.034 1.313.005 2.627.014 3.941h1.873v-2.689c-.015-.964.093-1.98-.338-2.877-.32-.724-1.093-1.126-1.848-1.228a7.507 7.507 0 0 0-.886-.043zm4.777.15v6.687h1.873v-6.687h-1.873zm-11.717 1.389c.637.038 1.06.683 1.055 1.28h-2.12c-.33.139-.428-.25-.234-.462.135-.559.752-.885 1.3-.818z" style="fill:red;fill-opacity:1;stroke:none;stroke-width:.31595439" transform="matrix(.26458 0 0 .26458 0 0)"/></svg>