<svg xmlns="http://www.w3.org/2000/svg" width="50" height="50" viewBox="0 0 13.229 13.229"><path d="M-942.666 695.187h-12.58M-955.246 695.187v-12.58M-955.246 682.608h12.58M-942.666 682.608v12.58" style="opacity:1;vector-effect:none;fill:#fff;fill-opacity:1;fill-rule:nonzero;stroke:red;stroke-width:.64951491;stroke-linecap:square;stroke-linejoin:miter;stroke-miterlimit:4;stroke-dasharray:none;stroke-dashoffset:0;stroke-opacity:1" transform="translate(955.57 -682.283)"/><path d="M-942.99 684.696h-1.765v-1.763h1.764zM-942.99 694.863h-1.765v-1.764h1.764zM-953.157 684.696h-1.764v-1.763h1.764zM-953.157 694.863h-1.764v-1.764h1.764z" style="opacity:1;vector-effect:none;fill:#0080ff;fill-opacity:1;fill-rule:nonzero;stroke:none;stroke-width:.32475746;stroke-linecap:square;stroke-linejoin:miter;stroke-miterlimit:4;stroke-dasharray:none;stroke-dashoffset:0;stroke-opacity:1" transform="translate(955.57 -682.283)"/><path d="M-942.666 695.187h-12.58M-955.246 695.187v-12.58M-955.246 682.608h12.58M-942.666 682.608v12.58" style="opacity:1;vector-effect:none;fill:#fff;fill-opacity:1;fill-rule:nonzero;stroke:red;stroke-width:.64951491;stroke-linecap:square;stroke-linejoin:miter;stroke-miterlimit:4;stroke-dasharray:none;stroke-dashoffset:0;stroke-opacity:1" transform="translate(955.57 -682.283)"/><path d="M-942.99 684.696h-1.765v-1.763h1.764zM-942.99 694.863h-1.765v-1.764h1.764zM-953.157 684.696h-1.764v-1.763h1.764zM-953.157 694.863h-1.764v-1.764h1.764z" style="opacity:1;vector-effect:none;fill:#0080ff;fill-opacity:1;fill-rule:nonzero;stroke:none;stroke-width:.32475746;stroke-linecap:square;stroke-linejoin:miter;stroke-miterlimit:4;stroke-dasharray:none;stroke-dashoffset:0;stroke-opacity:1" transform="translate(955.57 -682.283)"/></svg>