<svg xmlns="http://www.w3.org/2000/svg" width="125" height="51.191" viewBox="0 0 33.073 13.544"><path d="M-676.956 530.081a15.73 15.73 0 0 1-8.487-14.691l15.713.72zM-871.655 583.778a15.73 15.73 0 0 1 9.222 14.044l-15.727.278zM-727.793 598.002a15.73 15.73 0 0 1 7.51-13.314 15.73 15.73 0 0 1 15.273-.648l-7.053 14.06zM-820.097 516.11a15.73 15.73 0 0 1-7.886 13.634 15.73 15.73 0 0 1-15.75-.036l7.906-13.599z" style="opacity:1;vector-effect:none;fill:#0080ff;fill-opacity:1;fill-rule:nonzero;stroke:none;stroke-width:4.23333263;stroke-linecap:square;stroke-linejoin:miter;stroke-miterlimit:4;stroke-dasharray:none;stroke-dashoffset:0;stroke-opacity:1" transform="matrix(.15445 0 0 .15445 136.072 -79.272)"/><path d="M-712.063 598.1H-878.16" style="opacity:1;vector-effect:none;fill:#fff;fill-opacity:1;fill-rule:nonzero;stroke:green;stroke-width:4.23333263;stroke-linecap:square;stroke-linejoin:miter;stroke-miterlimit:4;stroke-dasharray:none;stroke-dashoffset:0;stroke-opacity:1" transform="matrix(.15445 0 0 .15445 136.072 -79.272)"/><path d="m-878.16 598.1 42.333-81.99" style="opacity:1;vector-effect:none;fill:none;fill-opacity:1;fill-rule:nonzero;stroke:red;stroke-width:4.23333263;stroke-linecap:square;stroke-linejoin:miter;stroke-miterlimit:4;stroke-dasharray:none;stroke-dashoffset:0;stroke-opacity:1" transform="matrix(.15445 0 0 .15445 136.072 -79.272)"/><path d="M-835.827 516.11h166.097" style="opacity:1;vector-effect:none;fill:#fff;fill-opacity:1;fill-rule:nonzero;stroke:green;stroke-width:4.23333263;stroke-linecap:square;stroke-linejoin:miter;stroke-miterlimit:4;stroke-dasharray:none;stroke-dashoffset:0;stroke-opacity:1" transform="matrix(.15445 0 0 .15445 136.072 -79.272)"/><path d="m-669.73 516.11-42.333 81.99" style="opacity:1;vector-effect:none;fill:none;fill-opacity:1;fill-rule:nonzero;stroke:red;stroke-width:4.23333263;stroke-linecap:square;stroke-linejoin:miter;stroke-miterlimit:4;stroke-dasharray:none;stroke-dashoffset:0;stroke-opacity:1" transform="matrix(.15445 0 0 .15445 136.072 -79.272)"/></svg>