<svg xmlns="http://www.w3.org/2000/svg" width="100" height="51.263" viewBox="0 0 26.458 13.563"><path d="M-1211.113 850.276a2.433 2.433 0 0 1-2.38-.059 2.433 2.433 0 0 1-1.19-2.06l2.433-.032zM-1208.135 860.827a2.433 2.433 0 0 1 1.374-2.21l1.059 2.19z" style="opacity:1;vector-effect:none;fill:#0080ff;fill-opacity:1;fill-rule:nonzero;stroke:none;stroke-width:.65475899;stroke-linecap:square;stroke-linejoin:miter;stroke-miterlimit:4;stroke-dasharray:none;stroke-dashoffset:0;stroke-opacity:1" transform="translate(1231.72 -847.684)"/><path d="M-1205.703 860.807h-25.69" style="opacity:1;vector-effect:none;fill:none;fill-opacity:1;fill-rule:nonzero;stroke:#ff8000;stroke-width:.65475905;stroke-linecap:square;stroke-linejoin:miter;stroke-miterlimit:4;stroke-dasharray:none;stroke-dashoffset:0;stroke-opacity:1" transform="translate(1231.72 -847.684)"/><path d="M-1231.392 860.807v-12.682" style="opacity:1;vector-effect:none;fill:none;fill-opacity:1;fill-rule:nonzero;stroke:red;stroke-width:.65475899;stroke-linecap:square;stroke-linejoin:miter;stroke-miterlimit:4;stroke-dasharray:none;stroke-dashoffset:0;stroke-opacity:1" transform="translate(1231.72 -847.684)"/><path d="M-1231.392 848.125h19.142" style="opacity:1;vector-effect:none;fill:#fff;fill-opacity:1;fill-rule:nonzero;stroke:green;stroke-width:.65475899;stroke-linecap:square;stroke-linejoin:miter;stroke-miterlimit:4;stroke-dasharray:none;stroke-dashoffset:0;stroke-opacity:1" transform="translate(1231.72 -847.684)"/><path d="m-1212.25 848.125 6.548 12.682" style="opacity:1;vector-effect:none;fill:none;fill-opacity:1;fill-rule:nonzero;stroke:#f0f;stroke-width:.65475899;stroke-linecap:square;stroke-linejoin:miter;stroke-miterlimit:4;stroke-dasharray:none;stroke-dashoffset:0;stroke-opacity:1" transform="translate(1231.72 -847.684)"/><path d="M-1229.287 860.48h-1.778V858.7h1.778z" style="opacity:1;vector-effect:none;fill:#0080ff;fill-opacity:1;fill-rule:nonzero;stroke:none;stroke-width:.32737952;stroke-linecap:square;stroke-linejoin:miter;stroke-miterlimit:4;stroke-dasharray:none;stroke-dashoffset:0;stroke-opacity:1" transform="translate(1231.72 -847.684)"/><path d="M-1229.287 850.23h-1.778v-1.777h1.778z" style="opacity:1;vector-effect:none;fill:#0080ff;fill-opacity:1;fill-rule:nonzero;stroke:none;stroke-width:.32737949;stroke-linecap:square;stroke-linejoin:miter;stroke-miterlimit:4;stroke-dasharray:none;stroke-dashoffset:0;stroke-opacity:1" transform="translate(1231.72 -847.684)"/></svg>