<svg xmlns="http://www.w3.org/2000/svg" width="70" height="94.244" viewBox="0 0 18.521 24.935"><path d="M-853.238 522.974a15.73 15.73 0 0 1-11.36 4.47 15.73 15.73 0 0 1-11.136-5.002l11.508-10.723zM-911.321 558.335a15.73 15.73 0 0 1 4.736 13.24 15.73 15.73 0 0 1-7.743 11.737l-7.874-13.617zM-814.956 582.796a15.73 15.73 0 0 1-6.963-11.714 15.73 15.73 0 0 1 4.796-12.754l10.873 11.367zM-872.247 656.473a15.73 15.73 0 0 1 15.702-.196l-7.681 13.727z" style="opacity:1;vector-effect:none;fill:#0080ff;fill-opacity:1;fill-rule:nonzero;stroke:none;stroke-width:4.23333263;stroke-linecap:square;stroke-linejoin:miter;stroke-miterlimit:4;stroke-dasharray:none;stroke-dashoffset:0;stroke-opacity:1" transform="matrix(.15189 0 0 .15189 140.525 -77.269)"/><path d="m-806.25 569.695-57.976 100.309M-864.226 670.004l-57.976-100.31" style="opacity:1;vector-effect:none;fill:#fff;fill-opacity:1;fill-rule:nonzero;stroke:green;stroke-width:4.23333263;stroke-linecap:square;stroke-linejoin:miter;stroke-miterlimit:4;stroke-dasharray:none;stroke-dashoffset:0;stroke-opacity:1" transform="matrix(.15189 0 0 .15189 140.525 -77.269)"/><path d="m-922.202 569.695 57.976-57.976M-864.226 511.72l57.976 57.975" style="opacity:1;vector-effect:none;fill:none;fill-opacity:1;fill-rule:nonzero;stroke:red;stroke-width:4.23333263;stroke-linecap:square;stroke-linejoin:miter;stroke-miterlimit:4;stroke-dasharray:none;stroke-dashoffset:0;stroke-opacity:1" transform="matrix(.15189 0 0 .15189 140.525 -77.269)"/></svg>