<svg xmlns="http://www.w3.org/2000/svg" viewBox="0 0 79.375 40.871" height="154.473" width="300"><path d="M7.213 35.072a35.878 35.878 0 0 1 12.809-27.63L43.09 34.92Z" style="opacity:1;vector-effect:none;fill:#ff0;fill-opacity:1;fill-rule:nonzero;stroke:none;stroke-width:1.50158525;stroke-linecap:butt;stroke-linejoin:miter;stroke-miterlimit:4;stroke-dasharray:none;stroke-dashoffset:0;stroke-opacity:1"/><path style="fill:#000;fill-opacity:1;stroke-width:.04038412" d="M42.614 38.73h2.467c-.022.384-.135.771-.39 1.066-.247-.052-.435-.32-.693-.294-.192.14-.11.413.135.407.334.138-.092.236-.252.191-.267.018-.54-.037-.757-.203-.222-.204-.425-.455-.468-.764-.02-.134-.023-.269-.042-.402zm.933-1.513c.267.013.555-.051.796.099.348.137.582.473.673.827.095.214.047.42-.21.345h-2.18c-.02-.245.089-.479.168-.705.156-.258.412-.436.692-.538l.03-.014zm-40.215.464h1.29c.3.054.55.33.512.645a.59.59 0 0 1-.591.628c-.404.01-.808.02-1.211.019V37.68zm-.445-.445v3.635h.445c.003-.491.014-.983.02-1.474.469-.023.939-.01 1.407-.033a.996.996 0 0 0 .821-.695c.15-.464-.003-1.051-.465-1.276-.316-.165-.687-.103-1.03-.148-.398-.014-.798-.003-1.198-.009Zm71.616-1.23c.23.002.461.002.692.003.22.043.42.313.21.496-.202.191-.497.092-.744.124-.195.008-.461-.072-.488-.296.016-.177.174-.276.33-.326zm.006-.198c-.196.092-.485.156-.48.43a.46.46 0 0 0 .354.545c.253.076.523.039.783.036.28-.024.545-.272.49-.567-.037-.33-.405-.465-.696-.444-.15.002-.3 0-.451 0zm.638-.954c.324-.098.5.397.183.513-.251.09-.46-.283-.244-.448l.03-.032zm-.781-.057c.118.017.265-.046.352.06.18.163.124.534-.145.568-.296.088-.515-.293-.327-.513.04-.039.087-.07.12-.115zm.09-.233c-.216.064-.43.225-.436.47-.042.255.128.532.38.59.118-.028.28.052.358-.065.108-.226.26-.104.389.011.316.086.595-.278.497-.573-.027-.228-.283-.397-.505-.345-.114.132-.297.23-.365.005-.088-.076-.211-.066-.318-.093zm.778-1.091c-.422-.046.23.415-.048.411h-1.142c-.072.214.083.219.236.202h1.38c.002-.254-.322-.333-.394-.564l-.032-.05zm-61.524 2.39c.03.26.343.381.435.605.36.072-.064-.281-.035-.402.404-.002.81 0 1.216 0 .073-.216-.085-.218-.238-.203H13.71zm.339-1.292c.266-.06.463.333.21.485-.227.18-.53-.191-.328-.385.04-.033.082-.061.118-.1zm.671-.04c.178-.035.466.014.46.245.004.12.022.253-.113.312-.176.17-.552.036-.508-.225-.041-.155.062-.24.161-.332zm-.048-.202c-.1.138-.27.308-.383.083-.286-.167-.634.166-.574.465-.006.26.262.48.516.42.12-.107.268-.259.35-.03.27.263.755.007.771-.346.043-.283-.174-.627-.485-.592h-.195zm.172-1.05c.216.027.483.264.277.473-.176.196-.464.14-.698.161-.205-.013-.529-.046-.548-.307.015-.25.299-.353.517-.321.15-.002.301-.005.452-.006zm-.132-.212c-.303.033-.672-.048-.892.22-.214.225-.105.639.183.747.338.105.717.107 1.054-.006.275-.087.358-.44.239-.674-.12-.215-.37-.238-.584-.287zm56.56 1.728.693.003c.094.067.253.086.283.214.053.128-.033.249-.126.328-.165.107-.37.062-.556.074-.128-.009-.265.03-.38-.04-.132-.027-.26-.142-.24-.286.02-.12.119-.2.222-.249.03-.025.069-.03.104-.044zm.006-.198c-.136.086-.344.094-.418.246-.061.074-.064.166-.06.256v.2c.109.097.184.25.344.268.138.06.288.049.435.047.141.013.277-.008.417-.014.127-.021.237-.116.34-.19.072-.117.127-.263.077-.4.008-.135-.111-.23-.203-.31a.954.954 0 0 0-.434-.102c-.166.001-.332 0-.498-.001zm-59.665-.066c.11.064.282.064.323.21.1.145-.058.3-.181.366-.127.06-.273.03-.408.052a1.091 1.091 0 0 1-.48-.05c-.142-.035-.264-.173-.213-.324.062-.117.158-.236.303-.238.182-.022.366-.007.55-.015l.106-.001zm-.131-.212c-.24.03-.5-.027-.721.09-.129.06-.234.156-.265.3-.043.123-.002.276.047.385a.54.54 0 0 0 .399.234c.146.018.293.06.44.03.147-.023.306.003.433-.083.154-.046.291-.175.294-.342v-.283c-.107-.09-.177-.245-.331-.26l-.296-.071zm2.511-3.553c-.007.251.275.401.309.643.388.12-.058-.314.095-.387.377.074.757.165 1.141.197.153-.311-.4-.203-.576-.288a76.688 76.688 0 0 0-.969-.165zm.294-1.56c-.054.346-.133.688-.171 1.036.33.086.19-.413.277-.597.103-.253.301.188.454.239.24.195.53.306.82.4.206-.29-.368-.273-.513-.44-.282-.15-.514-.372-.733-.603-.047.002-.09-.018-.134-.034zm.595-.902c.296.04.639.031.872.245.167.182-.01.484-.248.453-.302-.014-.628-.03-.888-.204-.197-.154-.057-.495.186-.484l.04-.005zm-.061-.204c-.282.054-.54.324-.444.625.088.322.46.386.738.45.294.055.695.055.844-.259.067-.259-.007-.57-.29-.657-.27-.113-.56-.135-.848-.16zm60.184 2.15a.294.294 0 0 1 .03.548c-.3.123-.638.174-.961.122-.404-.283.09-.655.418-.635.17-.02.341-.035.513-.035zm-.201-.212c-.341.06-.753.07-.98.374-.195.283.027.723.375.724.356.011.751-.024 1.037-.256.193-.18.213-.54-.022-.693-.104-.117-.268-.123-.41-.15zm.048-1.323c-.052.235.176.62.052.743-.233-.08-.454-.199-.705-.226-.21 0-.56-.137-.689.043.06.28.455.033.655.153.252.056.513.101.724.26.21.166.38-.06.25-.263-.059-.226-.024-.547-.174-.71-.038-.002-.075.002-.113 0zm-.568-1.01c.02.162.446.382.1.406-.317.071-.646.09-.961.172-.241.22.18.195.324.14.369-.065.738-.132 1.107-.19.292-.147-.249-.28-.312-.461-.066-.072-.169-.073-.258-.066zm-2.59 2.464c.153.083.31.271.152.43-.106.18-.334.175-.51.235-.179.038-.363.016-.544.022-.17-.073-.25-.308-.116-.45.139-.135.347-.168.529-.207.162-.013.325-.029.488-.03zm-.202-.212c-.245.053-.51.046-.73.177-.177.07-.334.24-.316.44.003.15.065.333.207.405.202.11.444.086.664.058.205-.03.398-.092.574-.204a.488.488 0 0 0 .132-.597c-.102-.137-.244-.253-.422-.259l-.109-.02zm-.277-1.08c.013.149.301.268.22.378-.27.067-.546.097-.818.148-.144-.005-.469.071-.28.247.501-.082 1.004-.173 1.506-.258.181-.151-.196-.197-.252-.33-.098-.103-.218-.23-.376-.185zm-60.291.718c-.07.184.176.259.211.419-.016.136.208.373.266.174-.017-.11-.263-.395 0-.32.33.063.661.132.995.18.18.053.128-.275-.042-.208-.476-.082-.953-.168-1.43-.245zm.687-1.25c.303.04.659.032.89.263.063.076.03.179.038.269-.087.161-.277.183-.44.159-.23 0-.46-.054-.67-.145-.21-.083-.237-.395-.032-.5.064-.037.142-.04.214-.046zm-.061-.205c-.134.069-.316.084-.376.246-.125.131-.099.335-.025.486.097.164.278.242.457.283.228.071.47.107.707.074.18-.04.382-.157.388-.364.007-.169.026-.366-.14-.467-.155-.138-.375-.161-.567-.213-.147-.023-.297-.025-.444-.045zm25.038-.756c1.984 2.382 3.992 4.745 5.957 7.141-.235.46-1.004.088-1.457.208H33.17c.055-2.757 1.274-5.456 3.348-7.28l.065-.064zm-6.42-7.67c2.11 2.483 4.176 5.007 6.277 7.497-2.15 1.875-3.47 4.662-3.484 7.522h-9.72c-.03-5.712 2.6-11.308 6.927-15.019zm-1.755-2.442c-.344.316.457.713.606 1.064.41.709.595.052.07-.268-.227-.264-.434-.546-.676-.796zm15.134-2.374c6.116.074 12.103 3.167 15.685 8.127 2.5 3.353 3.875 7.526 3.88 11.708l-19.318-.002c-.118-.446-.71-.647-1.076-.366-4.12-4.933-8.24-9.836-12.35-14.78 2.187-1.913 4.912-3.287 7.739-4.04 1.778-.468 3.604-.667 5.44-.647zm.754-.21c-3.355-.147-6.754.472-9.786 1.939-5.717 2.68-10.002 8.194-11.147 14.41a19.379 19.379 0 0 0-.349 3.918l19.396.02c.022.82 1.322.872 1.408.065.542-.152 1.3-.023 1.926-.067l17.573-.018c.104-5.542-2.303-11.043-6.346-14.822-3.42-3.235-7.98-5.162-12.675-5.445Zm-18.033-.002c-.395.278.37.624.484.933.1.39.844.677.393.122-.292-.352-.586-.702-.877-1.055zm-11.116 11.08c-.025.187.184.877.342.623-.24-.608.52-.018.785-.004.21.193.532.012.196-.155-.454-.117-.878-.316-1.323-.464zm1.25-.928c.563-.194.71.841.059.637-.285-.081-.351-.513-.06-.637zm-.422-.412c-.432-.002-.653.597-.33.884.303.236.73.457 1.121.33.405-.13.432-.765.034-.93-.347-.245-.873.1-.755.516.015.352-.748-.434-.21-.545.09-.055.32-.156.14-.255zm-3.34-.52c-.458.057-.545 1.04-.066.894-.138-.241-.308-.655.152-.676.415.106.428.66.62.981.366.482.453-.417.593-.65-.23-.523-.313.921-.55.298-.115-.364-.277-.867-.749-.847zm.4-.93c.379.027 1.095.162 1.017.654-.295.36-.796.022-1.107-.147-.202-.143-.12-.42.09-.508zm-.097-.176c-.371.197-.385.779.037.929.337.172.855.404 1.167.078.36-.443-.196-.871-.61-.95a1.765 1.765 0 0 0-.594-.057zm3.328.7c.383.03.98.144 1.042.59-.186.42-.73.142-1.023-.002-.276-.137-.324-.439-.019-.588zm-.097-.175c-.354.194-.394.754.01.917.323.155.735.37 1.081.182.463-.273.129-.87-.29-.971a1.804 1.804 0 0 0-.8-.128zm54.079 1.998c.22-.042.56.03.474.327-.07.234-.352.282-.544.379-.192.036-.428.176-.6.017-.22-.126-.053-.412.114-.501.17-.11.376-.136.556-.222zm.044-.211c-.252.09-.527.134-.74.308-.283.135-.324.573-.084.768.155.16.394.115.59.083.227-.078.488-.115.654-.307.235-.153.255-.535.043-.714-.102-.16-.303-.099-.463-.138zm-.216-1.207c-.149-.055-.346.129-.148.207.238-.05.436.21.356.432-.09.241-.403.201-.577.083-.233-.12-.464-.255-.705-.354h-.253c.037.25.164.477.235.72.034.13.13.445.264.207-.02-.188-.133-.355-.183-.537-.11-.277.275-.024.38.038.224.084.433.288.692.205.28-.055.446-.409.29-.654a.52.52 0 0 0-.35-.347zm3.403.893c.239-.075.603.085.458.38-.124.193-.371.258-.574.338-.214.064-.507.166-.64-.089-.098-.277.252-.466.477-.527.094-.03.186-.067.279-.102zm.043-.211c-.32.107-.69.177-.906.46-.22.301.058.81.442.72.268-.003.548-.096.769-.238.152-.1.329-.242.293-.447.025-.162-.026-.32-.18-.402-.123-.08-.275-.091-.418-.093zm-.771-.799c.316.033.383.531.06.614-.22.137-.595-.044-.492-.326a.461.461 0 0 1 .432-.288zm.362-.372c-.335.118-.802.165-.94.55a.507.507 0 0 0 .364.667c.336.087.718-.204.688-.553-.009-.19-.293-.36-.325-.41.222-.065.565-.108.672.156.09.173-.31.491.021.458.307-.224.144-.732-.197-.825-.09-.037-.189-.022-.283-.043zm-.393-1.054c-.413.08.494.38-.01.429-.294.143-.729.182-.933.39.133.28.506-.102.73-.108.249-.131.634-.149.798-.351-.124-.187-.425-.189-.585-.36zm-55.544-1.29c-.138.192.139.436.045.672.272.306.08-.392.237-.302l.952.561c.348-.167-.235-.353-.382-.462-.285-.151-.559-.345-.852-.47zm.782-1.318c-.064.26-.535.594-.24.82.135.155.592.605.58.144-.075-.271.256-.463.478-.329.235.088.336.409.142.588-.099.111-.55-.022-.382.239.245.102.54-.067.615-.314.154-.29-.082-.642-.36-.742-.275-.08-.633.08-.643.394-.028.246-.472-.191-.244-.34.066-.15.38-.385.054-.46zm.62-.73c.35-.049.665.18.92.392.256.18.079.561-.22.502a1.537 1.537 0 0 1-.71-.39c-.194-.102-.198-.414.01-.505zm-.01-.211c-.214.127-.413.383-.29.64.114.288.421.416.67.56.254.147.639.134.788-.152.154-.247.002-.556-.227-.693a1.456 1.456 0 0 0-.94-.355zm49.914 1.866c.208-.004.308.265.199.425-.16.232-.44.327-.682.451-.192.132-.502.008-.462-.245-.026-.168.179-.246.273-.36.208-.117.428-.256.672-.271zm-.21-.173c-.236.117-.5.194-.686.39-.192.126-.312.392-.183.605a.394.394 0 0 0 .432.272c.224.013.415-.13.612-.214.207-.15.463-.328.463-.612-.015-.254-.254-.492-.519-.44-.04 0-.08.002-.12 0zm-.64-1.079c-.138.197.13.225.262.2.156.041.182.209.168.346-.02.187-.338.216-.435.06-.066-.173-.322-.045-.146.077.13.183-.025.445-.241.452-.224.049-.464-.207-.342-.42.149-.08.107-.379-.077-.281-.113.162-.199.385-.077.57.067.193.245.345.457.33.2.04.38-.104.472-.269-.037-.166.067-.25.227-.175.2.025.368-.207.362-.397-.021-.178-.103-.36-.27-.446-.099-.095-.242-.026-.36-.047zm3.96.202c.323.017.298.495.033.596-.259.125-.564.429-.861.291-.264-.19-.053-.506.17-.62.201-.123.416-.25.658-.267zm-.21-.173c-.343.154-.754.308-.907.681-.076.28.155.623.464.594a1.58 1.58 0 0 0 .95-.505c.225-.215.133-.605-.136-.735-.113-.063-.25-.024-.372-.035zm-.278-1.12c-.23.113-.706.102-.755.354.177.126.486.273.353.55-.11.242-.45.325-.643.131-.309-.191.252-.481-.078-.633-.204.175-.253.496-.074.708.207.362.823.275.954-.11.16-.215-.01-.488-.186-.627.14-.143.442-.24.481.054.01.188.377.471.297.128-.138-.173-.205-.39-.35-.555zm-.967-.958c-.386.17.529.296.047.443-.258.2-.724.315-.852.563.208.211.479-.206.713-.26.255-.147.512-.293.767-.441-.157-.192-.455-.116-.632-.285l-.043-.02zm-55.06 1.473c-.253-.01-.504.156-.553.412-.073.168.126.608.3.355 0-.14-.26-.253-.092-.426.081-.187.389-.177.447.019.039.125-.14.485.113.355.062-.232.357-.286.519-.117a.318.318 0 0 1-.081.52c-.122.064-.405-.078-.329.177.173.123.437.008.558-.142.12-.17.186-.399.075-.592-.103-.183-.359-.37-.562-.226-.202.113-.114-.273-.316-.283l-.04-.025zm.392-.878c.324-.044.625.149.861.35.192.09.26.375.07.505-.217.11-.463-.03-.655-.134-.185-.122-.466-.273-.424-.53-.018-.097.103-.127.148-.19zm-.01-.21c-.166.11-.326.261-.332.474.037.172.1.362.265.448.246.169.51.375.823.37.323.016.578-.358.432-.65-.055-.186-.25-.268-.382-.391-.209-.113-.42-.246-.666-.238-.047-.005-.094-.01-.14-.013zm4.544-1.012c-.09.235-.106.579.014.785.191.048.007-.562.24-.315.3.196.543.588.88.656.162-.227-.306-.346-.418-.528-.238-.201-.477-.4-.716-.598zm.993-.67c.123.19.653.33.419.588-.084.206-.29.255-.28-.022-.05-.188-.11-.373-.14-.566Zm-.134-.368c-.21.24.07.546.082.813.054.185.093.762.384.551.135-.16.298-.587.522-.282.27.241.2-.224-.021-.289.013-.054.19-.26-.027-.272-.245.3-.497-.248-.731-.347l-.209-.174zm1.014-.688c.277.164.556.356.719.64.149.272-.22.486-.441.332-.228-.148-.469-.312-.61-.552-.165-.25.084-.463.332-.42zm-.114-.174c-.36-.016-.58.458-.364.738.177.232.385.46.666.564.193.137.466.1.616-.084.225-.246.083-.62-.15-.804-.222-.191-.451-.42-.768-.414zm43.89 1.628c.194.021.353.258.219.432-.102.193-.292.317-.452.457-.156.097-.381.254-.55.09-.133-.123-.112-.379.055-.47.185-.173.344-.4.603-.462.042-.015.083-.03.124-.047zm-.083-.17c-.315.071-.578.282-.781.525-.106.12-.188.258-.158.422-.008.1-.008.196.088.255.082.096.183.207.32.18.099-.011.213.03.293-.045.222-.142.46-.283.617-.498.101-.163.203-.37.096-.557-.068-.162-.224-.304-.41-.273l-.033-.003zm-.558-.475c-.191.122-.337.42-.56.427-.082-.084-.28-.248-.225-.346.262-.02.526-.03.785-.08zm.278-.167-1.234.1c-.311.134.055.335.15.49.158.111.14.226-.033.3-.21.076-.009.363.12.167.077-.184.264-.073.344-.006.246-.079-.153-.28.11-.379.22-.162.412-.36.626-.532.087-.035-.071-.098-.083-.14zm3.27-.763c.417.061.245.604-.043.73-.195.192-.635.514-.811.137-.059-.348.337-.554.57-.751.089-.05.185-.088.284-.116zm-.083-.17c-.395.097-.726.395-.925.741-.003.145-.062.333.048.452.21.279.612.233.847.013.26-.18.542-.41.548-.754-.004-.262-.248-.496-.518-.452zm-.597-.515c-.204.113-.442.623-.673.31-.174-.118-.165-.304.08-.243.198-.016.398-.027.593-.067zm.277-.167-1.233.1c-.358.187.196.41.25.631-.009.136-.398.266-.142.404.147-.148.362-.235.502-.089.183-.08-.178-.29.078-.366.19-.199.539-.392.63-.595l-.085-.085zM66.71 13c-.297.192.549.215.12.41l-.74.618c.061.382.378-.105.54-.194l.752-.634c-.04-.257-.502-.058-.672-.2zm-48.616 1.505c.159.159.417.298.518.465-.098.079-.232.431-.346.255-.046-.24-.123-.473-.18-.711l.006-.007.002-.002zm-.134-.368c-.207.196.045.475.05.706.112.23.041.674.344.731.14-.164.271-.343.414-.507.107.083.33.366.39.1-.083-.127-.35-.238-.142-.388-.003-.194-.201-.079-.272.002-.266-.203-.523-.43-.784-.644zm1.055-.728c.21.13.427.256.58.455.157.121.262.413.044.528-.236.113-.44-.058-.613-.201-.18-.141-.409-.325-.39-.58.035-.182.226-.204.379-.202zm-.114-.174c-.157-.031-.255.087-.35.187-.135.104-.1.31-.064.453.077.212.284.336.427.5.173.112.373.239.588.245.32-.02.547-.418.375-.698-.088-.22-.305-.336-.464-.497-.155-.1-.322-.199-.512-.19zm4.512-.19c.022.246-.15.554-.024.754.154-.063.16-.54.338-.206.199.253.415.494.618.745.366-.06-.106-.392-.198-.548l-.626-.745h-.108zm1.64-.161c.267.032.424.445.177.598-.213.122-.11-.009-.086-.13-.081-.157-.528-.424-.09-.468zm-.506-.485c.28-.064.345.566.098.345-.07-.09-.341-.278-.098-.345zm-.437-.285c-.24.076-.126.233-.004.346-.006.156-.031.66.214.419.016-.12-.082-.283.058-.1.168.236.504.527.565.733-.186-.136-.383.12-.124.191a.538.538 0 0 0 .651-.262c.214-.287-.056-.822-.432-.702-.156-.074.034-.402-.23-.451-.26-.192-.546.216-.698-.174zm1.4-.523c.307.075.49.369.666.609.213.223.034.628-.29.514-.225-.128-.373-.364-.546-.552-.154-.2-.155-.557.17-.57zm.065-.17c-.29-.02-.604.245-.51.552.081.379.38.672.69.882.26.104.611-.008.675-.306.061-.25-.09-.471-.236-.658-.145-.219-.36-.405-.619-.47zm36.529 1.463c.239-.072.432.202.323.413a2.097 2.097 0 0 1-.541.646c-.178.143-.51.028-.448-.23.02-.252.232-.42.374-.609.083-.093.189-.154.292-.22zm.058-.193c-.305.022-.496.29-.693.49-.1.19-.252.393-.22.62.053.305.452.489.712.307.229-.105.372-.333.523-.523.143-.21.239-.533.025-.732-.088-.11-.212-.149-.347-.162zm-.96-.857c-.186.186-.484.328-.598.543.111.19.404.016.492.263.164.187-.02.46-.21.543-.221.118-.534-.116-.428-.364.073-.228-.22-.279-.217-.033-.048.337.284.646.617.582.203.026.356-.174.457-.322a.505.505 0 0 0-.196-.646c-.113-.028-.299-.074-.101-.183.165-.233.388-.065.519.105.08.178.402.097.208-.087-.192-.118-.334-.32-.543-.401zm3.446-1.05c.165-.044.359.075.35.256.011.212-.162.366-.278.522-.15.156-.312.383-.558.339-.268-.076-.203-.456-.037-.604.139-.205.302-.394.523-.513zm.27-.162c.106-.018-.013.114 0 0zm-1.175-.82c-.154-.017-.427.201-.167.272.155-.105.368-.12.461.074.097.168-.073.424-.27.35-.095-.042-.34-.151-.272.049.235.095.23.435.027.558-.187.132-.467-.008-.506-.22.065-.143.088-.427-.144-.302a.516.516 0 0 0 .126.594c.151.11.35.209.537.127.242-.061.42-.352.288-.585-.095-.1.106-.04.168-.056.163-.03.272-.24.247-.402.023-.217-.181-.345-.342-.441-.05-.014-.105.008-.153-.018zm-41.535.38c.056.112.342.272.212.368-.16.034-.332.107-.397.27-.112.186-.2-.152-.251-.235.044-.159.26-.222.369-.348l.067-.054zm.757-.65c.27.052.423.302.592.491.075.137.19.276.171.442-.046.11-.153.223-.283.198-.094.014-.171-.008-.223-.094-.134-.144-.29-.273-.404-.432-.066-.142-.204-.328-.08-.476a.265.265 0 0 1 .227-.13zm.066-.17c-.181 0-.386.08-.475.246-.085.165-.044.356.034.515.078.18.224.323.351.47.142.095.27.261.458.231h.215c.12-.121.313-.228.275-.43.039-.205-.098-.364-.205-.52-.138-.174-.271-.374-.492-.447-.054-.025-.102-.059-.161-.065zm4.565.57c-.164.197-.207.508-.275.73.166.245.238-.502.376-.16.214.275.338.746.59.91.235-.218-.222-.494-.265-.738-.142-.247-.283-.495-.426-.742zm1.136-.617c-.272.048-.55.286-.486.586.024.27.289.056.178-.121.027-.346.604-.402.6-.017.017.407-.276.757-.25 1.161.129.284.455-.154.668-.201.171-.027.44-.317.12-.306-.17.067-.444.384-.572.253.07-.376.363-.763.168-1.147-.094-.171-.248-.201-.426-.208zm1.072-.418c.37.075.473.487.63.774.159.246-.155.559-.397.388-.247-.186-.369-.49-.483-.767-.05-.181.05-.38.25-.395zm.105-.173c-.325-.047-.642.284-.531.608.118.37.307.786.691.94.308.083.637-.218.57-.534a1.682 1.682 0 0 0-.513-.9c-.07-.044-.146-.073-.217-.114Zm28.14 1.171h.234c.21.148.153.446.032.633a1.37 1.37 0 0 1-.425.534c-.195.123-.405-.108-.368-.306.04-.225.17-.44.301-.627.074-.08.146-.16.226-.234zm-1.375-.12c.098.011.222-.042.28.068.248.163.123.475-.084.605-.202.175-.461-.066-.445-.289-.012-.176.144-.271.249-.385zm1.463-.087c-.184.084-.402.137-.487.346-.111.196-.283.39-.299.62l-.004.325c.133.183.34.352.58.26.26-.07.397-.329.533-.54.093-.199.183-.408.16-.632a.547.547 0 0 0-.415-.356l-.068-.023zm-1.053-.566c-.256-.03-.437.197-.584.372-.133.227-.309.473-.265.752.067.218.245.415.487.421.243.033.45-.178.531-.39.093-.224-.01-.512-.243-.599-.117-.115-.517.07-.28-.175.125-.109.283-.272.463-.2.276.031.064.534.356.423.078-.223-.05-.462-.257-.556a.348.348 0 0 0-.208-.048zM53.52 7.635c.087.014.202-.04.257.051.181.185.109.466.027.678-.11.186-.165.494-.415.523-.224.065-.349-.192-.296-.379.042-.243.127-.485.258-.692.053-.063.116-.118.17-.181zm-.076-.173c-.153.154-.344.299-.395.519-.093.21-.15.431-.14.661-.017.312.371.527.641.393.258-.117.365-.408.451-.657.068-.178.12-.366.065-.555a.452.452 0 0 0-.423-.343c-.066-.01-.133-.01-.199-.018Zm-1.321-.508c-.19.258.264.26.414.347.114.043.31.09.112.183-.201.15-.424.287-.55.514a2.363 2.363 0 0 0-.315.496c.224.217.3-.196.419-.315a2.67 2.67 0 0 1 .724-.668c.24-.076.114-.309-.086-.299-.24-.086-.478-.174-.718-.258Zm-19.94.638c-.057.243-.314.451-.284.688.127.13.327-.503.388-.113l.342.961c.35.002.029-.421-.002-.602l-.333-.911c-.03-.03-.076-.017-.112-.023zm1.009-.364c-.056.244-.314.452-.283.689.127.129.326-.504.388-.113l.342.96c.349.003.029-.42-.003-.602l-.332-.91c-.03-.03-.076-.018-.112-.024zm1.1-.199c.257-.062.423.177.494.388.063.246.27.554.068.78-.226.25-.497-.095-.573-.31-.083-.25-.252-.571-.055-.81l.03-.025.036-.023zm-.066-.161a.564.564 0 0 0-.28.608c.058.264.146.526.302.748.18.318.715.283.843-.063.091-.298-.041-.596-.134-.876-.118-.194-.286-.455-.546-.427-.06.019-.124.006-.185.01zm-7.487.686H27c.194.126.316.46.111.626-.165.129-.42.053-.501-.137-.116-.196-.064-.374.13-.489zm-.023-.699c-.23-.023-.49.07-.578.3a.802.802 0 0 0 .077.64c.111.234.257.48.5.592.197.04.432.028.57-.139.169-.183.146-.468.01-.664-.087-.196-.316-.25-.512-.232-.172.012-.295.199-.36.346-.034.118-.158-.237-.148-.341-.027-.204.208-.411.397-.287.237.117.323-.16.066-.203zm.905-.461c.29.052.43.346.54.587.094.172.226.422.016.57-.174.139-.386-.013-.49-.164-.143-.169-.23-.383-.307-.588-.071-.196.035-.376.241-.405Zm-.215-.132c.106-.003-.043.094 0 0zm.074-.04c.112-.025-.026.113 0 0zm32.707 1.21h.234c.041.062.125.103.134.18v.25c-.074.14-.138.289-.218.426l-.287.31c-.08.02-.169.067-.241-.001a.227.227 0 0 1-.145-.242.505.505 0 0 1 .084-.319c.06-.113.108-.236.184-.339.085-.088.165-.181.255-.264zm-12.753-.766c.174.023.395.128.363.338.022.181-.13.32-.304.323-.189.034-.358-.163-.347-.343a.374.374 0 0 1 .288-.318zm1.285-.445c.101-.002.211-.017.27.09.176.159.07.395.069.595-.027.21-.08.45-.253.588a.421.421 0 0 1-.275 0c-.192-.132-.132-.378-.112-.57.028-.223.041-.485.232-.634a.974.974 0 0 0 .069-.069Zm.185-.165c-.215-.005-.421.075-.534.268a2.09 2.09 0 0 0-.17.72c-.019.197.018.443.19.562.158.09.38.113.54.03a.77.77 0 0 0 .276-.475c.053-.201.081-.41.083-.619a.611.611 0 0 0-.385-.486Zm-1.393-.037c.195-.053.466.205.312.384-.108.201-.426.166-.47-.061-.046-.143.06-.24.158-.323zm.001-.171c-.184.037-.344.175-.369.368-.063.146.162.288.124.37-.249.011-.381.337-.296.552.06.217.266.331.477.356a.544.544 0 0 0 .487-.232c.069-.155.122-.377-.033-.5-.238-.168.198-.187.164-.406a.437.437 0 0 0-.257-.452c-.094-.035-.199-.035-.297-.056Zm-10.468.272c-.104.25-.417.383-.436.656.12.08.424-.431.416.017.058.311.107.627.157.938.299.146.157-.269.128-.433-.057-.367-.125-.731-.187-1.097l-.039-.04zm1.023-.02c.237-.052.43.17.45.39.087.24.069.492.07.741-.173.318-.615.107-.604-.219-.045-.25-.162-.56-.01-.793l.094-.119zm.165-.177c-.316-.025-.571.3-.533.603.035.364.078.819.444 1.008.24.082.59-.04.619-.322.077-.353-.001-.737-.17-1.053a.548.548 0 0 0-.36-.236Zm1.046-.025c.237-.052.43.17.451.39.086.24.068.492.069.741-.173.318-.615.107-.604-.219-.045-.25-.161-.559-.01-.793l.094-.119zm.166-.177c-.317-.025-.572.3-.534.603.035.364.079.819.444 1.009.24.081.59-.041.62-.323.076-.353-.001-.737-.17-1.053a.548.548 0 0 0-.36-.236Zm15.692-.913h.204c.062.102.204.183.163.322-.022.126-.007.262-.073.376l-.17.372c-.07.055-.112.16-.202.182h-.221c-.069-.083-.169-.175-.135-.295.015-.132.028-.266.086-.387.049-.124.085-.256.158-.368l.19-.202zm-23.234-.485-.9.329c.027.311.363.039.53.008.121-.048.316-.159.22.054-.115.304-.078.634-.086.951.02.135.01.517.222.35.067-.21-.055-.432-.045-.65.005-.26.088-.514.126-.771.005-.089.128-.316-.067-.271zm.774-.161a.364.364 0 0 1 .428.26c.118.216.196.456.22.7.001.174-.176.365-.357.28a.877.877 0 0 1-.35-.522c-.078-.184-.134-.398-.067-.59.03-.053.079-.092.126-.128zm4.331-.485h.25c.079.095.228.167.198.314.045.166-.103.278-.24.33-.172.053-.306-.071-.4-.197-.012-.082-.003-.166-.006-.249l.198-.198zm-.09-.646h.203c.113.08.15.2.133.332-.031.118-.164.173-.282.153-.118.019-.225-.123-.202-.235-.022-.098.028-.164.11-.217l.019-.016zm1.19-.202h.192c.094.093.235.162.238.314.047.176.104.353.09.538v.279c-.098.178-.351.226-.486.062-.1-.146-.14-.329-.172-.501-.004-.155-.038-.31-.025-.465.03-.089.113-.149.163-.227zm11.783.323c.058.01.137-.02.182.017.122.094.24.217.18.387-.015.234-.03.474-.13.69-.072.103-.145.233-.29.198-.108.026-.187-.058-.237-.146-.076-.167.012-.355.003-.532.024-.153.047-.317.129-.452.054-.053.11-.107.163-.162zm-1.212-.202c.059.01.137-.02.182.017.123.094.24.217.18.387-.015.234-.03.474-.13.69-.071.103-.145.233-.289.199-.109.025-.187-.06-.238-.147-.075-.167.012-.355.003-.531.025-.154.047-.318.13-.452.054-.054.109-.108.162-.163zm-4.624-.403c.291-.023.51.263.517.535.028.314.004.63.006.945-.034.183-.117.352-.326.296h-.445c-.146-.145-.142-.373-.163-.564-.01-.258.007-.516.027-.774.086-.162.135-.386.349-.424l.035-.014zm-1.708 0c.23.067.398.3.357.54.054.221-.075.425-.266.524-.29.128-.653-.099-.657-.417-.027-.269.113-.565.388-.638a.395.395 0 0 1 .178-.01zm.46-.235c.361 0 .721-.004 1.081.012a.878.878 0 0 0-.462.48c-.103.28-.032.587-.076.88-.033.201.085.418.049.597-.153.004-.307.001-.46.002.076-.298.138-.612.123-.919-.042-.276-.044-.584-.252-.797-.05-.133-.525-.266-.19-.249l.188-.006zm1.576.032h.16l.161.001.586.04.586.041.784.084.785.085.083.03.084.032-.141.087-.128.078-.02.01-.08.022-.087.022-.019.098-.019.097h.045l.045-.001.172-.078.156-.071.005.004.009.009-.1.541-.1.545V4.161h.181l.128-.73.127-.729.024-.024.024-.023.353.051.354.052.06.034.06.034-.024.001H48.6l-.063.002-.105.111-.104.111-.067.2-.067.2-.023.248-.013.134v.002l-.01.112.048.147.049.147.103.082.104.081h.263l.088.01.01-.01h.038l.115-.115.115-.115.072-.239.071-.238.002-.289.002-.29-.092-.124-.022-.03-.023-.045-.014-.005-.033-.045h.103l.33.066.329.065-.131.115-.011.01-.03.015-.009.019-.08.07-.07.214-.016.048-.004.009-.001.009-.048.148-.024.246-.012.13v.005l-.01.111.048.147.048.147.104.082.103.081h.263l.088.01.01-.01h.038l.115-.115.114-.114.067-.219.066-.218.006-.073v-.015l.015-.175.021-.262-.08-.152-.079-.151h.026l.026.001.767.196.768.196.646.192.646.192.035.02.026.016v.011l-.066.038-.076.043-.202.066-.113.037-.06.001-.007.022-.022.007-.013.066-.006.033-.002.005-.005.029h.034l.003.002.01-.002h.156l.103-.04.104-.039v.062l-.204.559-.203.558.012.01.011.01.021.007v.003h.011l.05.015.08.025.258-.716.258-.717.016-.028.015-.028.423.148.423.148v.049l-.01.006-.141.06-.152.064-.12.036-.025.007-.071.012-.004.011-.022.007-.013.067-.007.034-.001.004v.001l-.005.028h.034l.002.003.012-.003h.154l.104-.039.104-.04v.062l-.204.559-.203.559.011.01.012.01.021.006v.004h.011l.049.015.08.024.258-.716.258-.716.025-.027.025-.026.396.147.396.147-.12.031-.121.032-.048.055-.015.005-.04.058-.033.04-.136.159-.091.258-.091.259-.005.21-.005.21.081.109.081.11.098.031.03.03h.06l.147.047.097-.048h.024l.03-.026.152-.075.09-.135.09-.135.089-.228.089-.229.003-.226.002-.227-.054-.066-.055-.066h.083l.478.204.478.204.879.429.878.428v.06l-.127.044-.12.042-.012.002h-.303l-.044.081-.043.08.113.005.112.004.116-.007.01-.001h.097v.009l-.125.22-.133.235-.176.3-.176.3.058.058.059.058.032-.02.005.004.006-.01.032-.02.377-.658.377-.658.011-.015.012-.015.355.191.356.19.03.029.03.028-.131-.014-.025-.002-.016-.005-.005.002-.085-.009-.132.082-.13.082V6.816l-.005.005.027.015.039.032.06.05.022-.017.008.004.048-.052.063-.054.07-.025.069-.024.123.043.085.03.022.018.036.03.02.038.04.074v.193l-.092.082-.09.082-.045.025-.044.024-.4.086-.4.087-.058.035h-.001l-.074.046-.133.081.013.04-.019.016.03.018.006.017.426.25.427.248.034-.033.007.001.006-.014.042-.043V8.14l-.32-.18-.32-.181.017-.026.016-.027.253-.047.254-.048.207-.059.208-.058.078-.089.06-.039.022-.054.091-.104v-.114l.005-.011-.005-.014v-.123l-.063-.09-.014-.02-.009-.028-.023-.018-.017-.023h.053l.38.223.38.224v.035l-.058-.022-.058-.022-.18.079-.18.08-.12.176-.12.176-.094.181-.093.182-.003.21-.003.209.117.122.116.122.116.025.115.025.14-.046h.024l.013-.012.105-.035.143-.167.143-.168.105-.214.105-.213.02-.18.02-.181-.066-.102-.067-.101.415.268.415.268.404.284.403.285.46.343.458.343-.095.037-.058.022h-.188l-.073-.008-.224-.022-.048.076-.009.006v.01l-.039.062.191.025.19.026.03.007.03.007-.388.46-.39.462.012.018-.006.006.028.044.027.044.01-.002.002.004.04.007.04.006.51-.609.509-.609.278.223.278.223.446.373.445.373.07.079.072.078h-.325l-.157.104-.157.104-.145.176-.145.177-.081.18-.081.179v.202l.053.093.051.093.119.078.118.078H64.242l.072.001h.046l.138-.065.138-.066.184-.204.184-.205.062-.121.063-.122.028-.096.003-.006v-.005l.002-.006.032-.114-.034-.119v-.05l-.02-.02-.017-.057.23.2.23.202.83.84.83.842.345.384.344.383.34.409.342.408.407.522.406.522.475.665.474.665.436.686.435.687.37.646.37.646.424.837.423.838.266.596.266.596.294.747.295.747.229.667.229.666.222.767.222.768.156.646.155.646.122.606.122.605.082.485.082.485.08.605.079.606.063.687.063.686.04.768.027.513.001.059.013.497v.517l.064.025.064.024h3.062v3.271H45.577l-.025-.151-.026-.152-.066-.207-.006-.034-.013-.027-.07-.218-.14-.209-.02-.04-.02-.019-.105-.156-.19-.14-.19-.14-.223-.089-.222-.088-.301-.002-.123-.018-.112.016-.272-.002-.212.074-.213.074-.124.094-.035.016-.042.041-.01.008-.212.16-.112.167-.034.033-.025.054-.13.194-.077.25-.013.025-.005.03-.068.222v.181l-.01.053H7.37v-3.19h2.665v-.121h.162v-.513l.013-.507v-.026l.027-.53.04-.787.042-.464.042-.464.06-.525.061-.525.102-.667.101-.666.1-.525.101-.525.163-.707.163-.707.122-.444.121-.444.18-.598.181-.598.216-.614.216-.613.18-.464.181-.465.232-.545.231-.545.402-.828.402-.828.308-.565.308-.566.35-.585.35-.586.385-.586.386-.587.376-.524.375-.524.345-.444.345-.444.49-.586.49-.586.484-.525.485-.525.762-.747.763-.748.565-.493.563-.491.017.013.026.027.041.042-.122.108-.121.109-.17.141-.17.141.199.344.198.343.014-.001.008.014.035-.018.028-.003.04-.006.041-.006v-.126l.059-.113.03-.06.029-.028.044-.044.071-.03.108-.044h.016l.095.036.103.04.086.109.08.102.006.015V11.275l-.04.074-.035.067-.026.014-.096.034-.118.04-.112-.058-.113-.058-.078.078-.079.079.133.068.133.07.033-.005.004.002.053-.01.069-.009.159-.021.1-.095.101-.094.034-.064.046-.047-.002-.038.03-.059-.008-.244-.006-.174.014-.022-.016-.019v-.028l-.393-.468-.393-.469v-.034l.596-.464.596-.464.453-.328.453-.329.603-.402.603-.401.7-.42.701-.418.235-.13.234-.13-.066.09-.013.007-.01.025-.088.118v.321l.106.228.023.065.026.038.09.191.14.157.034.05.029.019.093.103.134.044.134.045.11-.044h.001l.053-.022.164-.065.063-.097.063-.096V7.13l-.116-.245-.116-.245-.132-.15-.025-.028-.06-.08-.016-.008-.03-.034-.086-.046-.086-.046-.12-.026-.122-.025.848-.424.848-.424.571-.25.571-.25.681-.268.681-.268.323-.111.323-.112.081-.031.08-.031-.074.082-.009.005-.007.012-.005.006-.095.105-.02.18-.021.18.088.273.089.274.116.169.116.17.124.05.124.052.076-.012.052.001.031-.014.143-.023.07-.079.024-.011.015-.032.002-.001.11-.124V5.18l.01-.02-.01-.067V4.89l-.088-.272-.09-.27-.127-.134-.057-.091-.06-.03L32.989 4h-.232l.038-.034.038-.034.687-.207.686-.208.707-.18.707-.181.484-.103.485-.102.09-.02.087-.021h.002l-.1.099-.1.1v.364l.085.062.01.023.03.007.115.085-.044.052-.037.014-.025.06-.093.11v.203l.066.14.066.138.114.06.114.058h.014l.01.007.062-.007h.208l.063-.03h.009l.018-.012.04-.02.128-.06.07-.117.068-.117v-.057l.017-.035-.017-.047v-.115l-.057-.111-.058-.111-.109-.05-.109-.05.066-.072.065-.072v-.261l-.043-.081-.043-.08-.12-.073-.12-.073.315-.05.314-.05.12-.023.121-.024-.061.073-.033.016-.033.062-.09.108-.027.144-.027.144.046.282.047.283.078.154.08.154.025.02.01.022.052.027.02.016.107.084h.067l.013.007.036-.007h.16l.122-.063.123-.063.054-.13.013-.014.004-.028.043-.103v-.187l.006-.038-.006-.027v-.11l-.044-.214-.044-.214-.097-.17-.097-.168-.081-.026-.08-.025V2.64l.373-.048.373-.048.566-.058.565-.059.586-.041.585-.041h.259l.258-.001-.137.092-.136.092-.065.114-.027.024-.013.046-.077.136v.14l-.012.044.011.099v.225l.038.09.017.042.055.131.095.08.03.045.054.026.078.066.14.037.01.005h.007l.011.003.168.045.151-.045.152-.045.123-.104.123-.103v.135l-.001.134-.04.142-.04.141-.032.048-.031.049-.375.028-.214.016h-.164l-.02-.074-.022-.087H41.526l.009.034v.122l-.212.02-.212.022-.586.044-.585.044-.667.082-.666.081-.687.117-.686.117-.586.124-.585.125-.404.102-.404.101-.686.197-.687.198-.666.228-.667.229-.646.253-.646.253-.592.266-.592.265-.656.329-.655.328-.49.274-.488.274-.424.253-.424.253-.687.454-.686.454-.646.482-.646.482-.485.399-.485.398-.343.302-.343.301-.637.604-.636.604-.583.632-.582.633-.471.565-.472.565-.474.626-.474.626-.384.566-.385.565-.307.492-.307.493-.34.598-.34.598-.383.767-.383.767-.232.525-.233.525-.262.667-.263.666-.295.888-.295.889-.206.767-.205.767-.139.647-.139.646-.1.573-.1.573-.083.618-.082.618-.06.626-.06.626-.042.869-.041.868v.464h.229l.027-.918.026-.92.041-.504.04-.505.062-.545.061-.545.102-.667.102-.666.141-.707.14-.706.186-.727.185-.727.218-.719.217-.718.247-.675.247-.675.24-.583.241-.584.32-.688.321-.688.367-.687.367-.687.348-.585.349-.586.488-.73.488-.73.467-.623.468-.623.454-.545.455-.545.347-.384.347-.383.546-.56.545-.56.576-.526.576-.527.553-.46.552-.46.627-.472.627-.472.728-.486.728-.487.485-.288.485-.287.605-.335.606-.335.687-.33.686-.331.424-.183.424-.182.344-.141.343-.141.669-.243.669-.243.663-.204.664-.204.707-.182.707-.183.565-.12.565-.12.747-.123.748-.124.686-.08.687-.081.727-.047.726-.046.198.107.036.019.016.012.011.002.135.074.166-.001.165-.001.167-.076.167-.076.027-.044.026-.042.004-.003h.785l.023.002.132.1.134.103.205.024.205.024.167-.081.074-.016.028-.034.167-.082h.158l.474.038.611.048.525.06.525.06.666.1.667.1.707.142.706.142.793.202.793.2.661.205.66.204.723.262.723.262.772.327.771.327 1.01.51 1.01.511.605.357.606.357.505.327.505.326.404.28.403.28.485.364.485.363.522.428.523.427.446.4.447.4.639.63.639.63.512.565.513.565.223.263.224.262.244.303.243.303.423.566.422.565.225.323.224.323.368.574.369.574.385.67.386.67.398.795.398.796.232.525.232.525.243.606.243.605.315.95.315.948.205.768.205.767.14.646.139.646.12.707.12.707.062.505.064.504.063.667.062.666.025 1 .024 1h.23v-.354l-.001-.354-.04-.787-.042-.788-.08-.807-.081-.808-.102-.666-.103-.667-.16-.807-.16-.808-.184-.707-.183-.706-.183-.606-.184-.606-.22-.623-.222-.623-.202-.508-.202-.507-.247-.566-.247-.565-.43-.848-.43-.848-.368-.632-.366-.632-.333-.52-.333-.518-.323-.465-.323-.464-.304-.404-.303-.404-.324-.404-.324-.403-.345-.404-.345-.403-.49-.525-.489-.526-.52-.505-.52-.505-.383-.344-.384-.344-.262-.224-.263-.223-.404-.324-.404-.325-.545-.403-.545-.404-.612-.408-.611-.409-.701-.42-.701-.42-.646-.347-.646-.346-.623-.288-.623-.29-.55-.233-.549-.234-.604-.224-.605-.223-.626-.204-.626-.203-.424-.121-.424-.121-.565-.142-.566-.14-.606-.126-.605-.126-.599-.098-.598-.098-.472-.06-.472-.062-.646-.06-.646-.062h-.292l-.137-.01.022-.056.025-.066.044-.175.044-.175-.004-.116.005-.029-.018-.31v-.001l-.016-.456-.095-.214-.095-.215-.145-.098Zm-24.453-.45c.478.008.955.019 1.433.03.27.104.51.335.465.646-.02.373-.42.562-.755.532-.342-.014-.683.01-1.024.017-.199-.023-.093-.251-.12-.386v-.838zm-.485-.398v3.635h.485V3.516c.356.04.794-.093 1.082.173.398.375.626.885.942 1.324.103.179.46.151.63.064-.323-.476-.577-1.01-.991-1.416-.168-.063-.313-.244-.038-.226a.937.937 0 0 0 .762-1.024.982.982 0 0 0-.343-.692c-.265-.212-.613-.159-.927-.204-.533-.034-1.068-.01-1.602-.019ZM13.914 0l.042.111.013.036.002.035.001.05-.016.005-.042.014.078.108.078.108.35 1.11.35 1.11.027.051.015.027.012.024.175-.485.175-.485.025.002.026.002.99 1.19.989 1.191-.012.09-.011.09-.01.108-.037.113.018.095-.012.128.093.16.093.162.161.093.16.094.072-.005.01.005.105-.012.056-.004.243-.016 1.837 2.2 1.837 2.2.012.047.011.047-.554.483-.555.483-.764.746-.33.322-.007.007-.002.002-.424.415-.53.58-.53.58-.542.653-.542.652-.516.69-.516.69-.482.724-.482.723-.364.606-.363.606-.31.565-.311.565-.36.731-.358.732-.31.722-.31.723-.232.606-.232.606-.265.807-.266.808-.142.506-.142.506-.164.665-.164.665-.118.586-.118.585-.101.606-.102.606-.083.666-.083.667-.062.686-.063.687-.024 1-.022.915-.003.084H7.7l-.013-.04-.014-.04-1.434-.043-1.433-.043-.04-.069-.041-.068-.115-.119-.054-.088-.058-.027-.098-.102-.188-.028-.188-.028-.147.048-.147.049-.106.106-.007.004-.005.008-.02.02-.14.14V34.821l-.02.03h-.035l-.257-.003-.313-.004-.353-.026-.353-.026.308-.476.307-.477-.015-.01-.015-.011-1.353.487L0 34.793l.013.09.008.055v.037H.357l.85.39.852.389.292.134.293.134-.232-.453-.231-.453-.015-.031-.014-.032.618.012.619.01.034.174.034.173.136.136.136.136.147.048.147.049.182-.027.182-.028.156-.14.055-.05.063-.048.004-.013.034-.03.054-.165.055-.164.443.005.442.005.737.026.737.026V38.73l17.476.01 17.477.01.025.234.025.232.071.192.072.191.126.19.034.071.03.028.088.134.128.108.128.108.262.123.262.124.039.001.002.001h.02l.323.014.384.015.098-.033h.023l.126-.05.054-.018.301-.1.123.092.123.093.177.09.003.002.006.002.055.028.24.122.03-.018.028-.017.048-.144.047-.143-.014-.013-.014-.013-.202-.102-.202-.103-.076-.057-.075-.056.163-.216.164-.216.082-.266.034-.108.013-.036.002-.012.034-.11.026-.191.026-.192h33.792v-3.715h-.072l-1.533-.01-1.606-.01-.02-.737v-.03l-.002-.033-.004-.15-.027-.949-.066-.747-.066-.747-.08-.626-.08-.626-.138-.808-.14-.807-.1-.465-.101-.464-.125-.52-.124-.52-.218-.752-.219-.752-.188-.566-.188-.565-.242-.641-.241-.642-.24-.56-.238-.561-.305-.656-.305-.655-.363-.678-.363-.678-.226-.393-.225-.392-.365-.585-.364-.586-.345-.505-.345-.505-.402-.545-.403-.545-.37-.466-.371-.466-.542-.624-.541-.625-.767-.782-.142-.144-.192-.204-.085-.078-.349-.356-.565-.516-.566-.516-.565-.473-.565-.473-.768-.574-.767-.574-.384-.264-.383-.263-.606-.385-.606-.385-.686-.395-.687-.395-.908-.454-.91-.455-.524-.23-.525-.231-.687-.274-.686-.274-.788-.268-.787-.269-.687-.197-.686-.198-.505-.127-.505-.126-.747-.156-.747-.155-.626-.102-.626-.103-.646-.081-.646-.081-.788-.07-.787-.071h-.722l-.41-.022h-1.502l-.41.02h-.672l-.646.052-.646.052-.856.1-.856.1-.81.141-.808.14-.576.122-.576.123-.707.182-.707.182-.716.22-.716.22-.637.226-.637.226-.591.237-.592.236-.585.263-.585.262-.817.409-.818.409-.464.263-.464.264-.409.244-.41.244-.752.495-.752.495-.54.394-.54.395-.476.379-.477.38-.048.014-.049.016-.324-.391-.324-.391-1.524-1.824-1.523-1.822v-.005l.1-.147.102-.15.005-.126.004-.126-.009-.1v-.008l.003-.054-.01-.016-.001-.024-.053-.1-.052-.102-.05-.046-.02-.033-.047-.026-.073-.066-.095-.05-.096-.049-.195.002-.194.001-.12.062-.121.063-.983-1.182-.982-1.18-.05-.065-.05-.063.564-.095.565-.095v-.027l.015-.003-.015-.008v-.019l-1.2-.636-1.202-.635-.07-.036Z"/></svg>