<svg xmlns="http://www.w3.org/2000/svg" viewBox="0 0 26.458 26.462" height="100.015" width="100"><path d="M-1022.354 827.445c-.406 1.537-.445 1.837-1.543.878-1.236 1.594-.116 4.512-.5 6.616-.025 14.96-.211 29.921-.297 44.882-1.546.055-5.505-3.674-3.481-.056 1.373 3.02 2.748 6.04 4.115 9.063 1.392-3.696 2.734-7.41 4.107-11.113-1.786.785-4.004 2.896-3.257-.694-.032-15.482-.216-30.968.269-46.446l34.396 11.08c.256 1.094-4.004 2.97-.803 2.489 3.457-.318 6.93-.44 10.384-.8-2.9-2.65-5.942-5.157-8.982-7.651.232 1.35.824 3.585-1.28 2.255-10.878-3.388-21.672-7.05-32.557-10.405l-.57-.098zm35.989-65.648c-1.377-.405-1.937 1.19-2.647 2.004-.932 1.118-2.655 1.365-3.39 2.594-.375 1.134.091 2.252 1.209 1.1 1.09-.292 1.856-1.36 2.842-1.7.304.571.058 1.339.133 1.999v11.2h1.853v-17.197zm-43.39-8.996c-1.947-.382-2.153 2.34-3.749 2.897-1.333.272-3.404 2.494-1.884 3.299 1.298-.317 2.8-2.324 3.776-1.877.01 4.284 0 8.587 0 12.879.547-.146 1.682.296 1.852-.228v-16.97zm12.837.155c-1.76.03-3.654-.269-5.167.875-1.333.756-3.336 4.517-.465 4.131 1.032-.866 1.314-3.703 3.534-3.165 2.153-.658 4.335 1.68 3.362 3.755-.837 2.554-3.36 3.876-5.13 5.708-1.713 1.248-3.177 2.956-3.699 5.038.692 1.558 3.46.305 5.017.701h6.117v-2.117l-8.335-.01c2.429-2.293 4.864-4.578 7.3-6.863 1.189-1.957 1.722-4.855-.185-6.56-.657-.67-1.493-1.129-2.35-1.493zm-47.498 5.93c-1.847-.435-2.079 2.096-3.472 2.725-1.332.608-3.465 1.874-2.398 3.544 1.388-.313 2.893-2.178 3.945-2.012.19 1.8-.013 3.644.072 5.468v7.473c.567-.14 1.717.304 1.852-.268v-16.93zm13.23 0c-1.848-.435-2.08 2.096-3.473 2.725-1.332.608-3.465 1.874-2.398 3.544 1.41-.459 2.683-1.788 3.934-2.196.22.912.015 1.916.083 2.874v10.251c.567-.14 1.718.304 1.852-.268v-16.93zm97.239 26.878c-1.552.109-3.249-.34-4.632.607-1.553.643-2.375 2.322-2.519 3.918.512.858 2.616.633 2.323-.84.409-1.397 1.84-2.087 3.214-1.86 1.475-.338 2.848.9 3.086 2.295.1 1.4-.687 2.724-1.548 3.771-1.99 1.836-4.062 3.59-6.053 5.428-.49 1.172-1.64 2.247-1.405 3.595.622.293 1.384.055 2.069.13h9.03c.08-1.078.224-2.609-1.384-2.12l-6.951-.008c2.428-2.293 4.864-4.577 7.299-6.863.472-1.11 1.193-2.174 1.057-3.44.137-1.207-.515-2.301-1.236-3.2-.654-.664-1.583-.916-2.35-1.413zm-129.05-.191c-2.698.005-5.053 2.15-5.397 4.801-.795 2.556-.172 5.241-.134 7.857.582 1.944 1.513 4.12 3.705 4.629 2.58.953 5.542-.671 6.368-3.234.973-2.333.554-4.867.629-7.32-.028-1.754-.681-3.528-1.69-4.956-.858-1.173-2.131-1.482-3.482-1.777zm-11.316.036c-1.947-.381-2.153 2.34-3.75 2.898-1.333.27-3.404 2.495-1.883 3.298 1.297-.314 2.805-2.333 3.776-1.872.01 4.283 0 8.584 0 12.874.544-.15 1.69.303 1.852-.229V785.61zm10.34 1.852c1.64-.294 3.223.788 3.624 2.39.422 1.952.593 3.99.436 5.986-.228 1.882-.21 4.333-2.227 5.256-2.101 1.03-4.197-1.188-4.32-3.218-.036-2.523-.193-5.083.102-7.598.29-1.249 1.176-2.356 2.385-2.816zm138.486 37.996c-1.21.575-2.562 1.138-3.02 2.526-1.328 1.21.365 2.937 1.627 1.777.058-1.592 1.695-3.012 3.325-2.599 1.534.055 2.533 1.515 2.37 2.974-.17 1.322-1.528 2.285-2.792 2.423-1.455-.492-1.681 2.444-.087 1.734 1.262-.258 2.574.396 3.163 1.524a3.217 3.217 0 0 1 .009 3.473c-.693.962-1.7 1.852-2.979 1.733-1.666.19-3.138-1.337-3.247-2.924-.953-1.154-3.073.268-1.823 1.564.888 1.965 3.009 3.301 5.178 3.091 1.494.109 2.946-.625 4.01-1.627 1.075-1.255 1.876-2.98 1.427-4.65-.125-1.488-1.295-2.67-2.644-3.177.22-.699 1.974-1.527 1.888-2.849.338-2.037-1.038-4.155-3.013-4.741-1.054-.467-2.27-.166-3.393-.252zm-158.963-.022c-1.367.119-2.893-.307-4.069.635-1.38.522-2.032 1.847-2.52 3.132-.538 1.78-.33 3.8.764 5.336.494 1.079 1.734 1.747 2.828 2.022 1.64.344 3.514-.037 4.636-1.346 1.26-.63.174 2.219.114 2.937-.317 1.103-1.228 2.31-2.385 2.664-1.28.592-2.845.13-3.471-1.165-.176-.987-.66-1.295-1.596-1.124-1.425-.382-.604 1.11-.289 1.887.547 1.31 1.943 1.914 3.2 2.332 2.354.378 4.87-.832 5.974-2.966.853-1.55.943-3.36 1.178-5.073-.06-1.54-.074-3.104-.298-4.622-.677-1.329-1.008-3.097-2.527-3.713-.513-.311-1.024-.627-1.54-.936zm-2.022 1.714c2.235-.522 4.324 1.751 3.956 3.927.042 1.335-.404 2.638-1.649 3.3-1.024.81-2.718.525-3.727-.261-.755-.853-1.416-1.838-1.266-3.029-.065-1.284.65-2.521 1.571-3.364.358-.214.743-.386 1.115-.573zm147.15 37.042-7.729 10.958v2.006h7.408v3.97c.948.044 2.506.294 2.117-1.095v-2.844c.964-.064 2.646.168 2.25-1.257.426-1.516-1.76-.309-2.25-1.19v-10.548h-1.796zm-.32 3.368v7.48h-5.292c1.751-2.501 3.472-5.029 5.291-7.48zm-131.606-3.468c-1.523.08-3.206-.33-4.517.704-1.257.822-1.899 2.358-1.94 3.81.215 1.096.49 2.413 1.744 2.732 1.368.967-1.39 1.104-1.624 2.105-.89 1.332-.895 3.135-.468 4.628.59 1.162 1.498 2.342 2.743 2.827 1.582.636 3.358.652 4.97.094 1.154-.469 2.224-1.38 2.7-2.567.528-1.009.604-2.146.36-3.253-.053-1.639-1.724-2.358-2.715-3.311.983-.668 2.123-1.439 2.062-2.869 0-1.463-.193-3.12-1.603-3.931-.524-.402-1.135-.657-1.712-.97zm-2.53 1.687c1.597-.35 3.407.401 3.722 2.132.297 1.413-.728 3.147-2.295 3.056-1.3.497-2.505-.56-3.068-1.652-.48-1.588.356-2.65 1.641-3.536zm-.291 7.144c1.213.087 2.685-.372 3.57.762 1.544 1.187 1.577 3.585.296 4.97-1.608 1.657-4.831 1.226-5.737-.979-.703-1.683-.042-3.907 1.709-4.647l.162-.106zm34.68 15.07-10.981.143c-.061.87-.533 2.387.956 1.991l7.115.126c-1.21 1.57-2.338 3.205-3.08 5.054-.803 1.567-1.601 3.15-1.87 4.908-.365 1.561-.717 3.13-.919 4.722h2.107c.584-1.189.116-2.605.754-3.795.496-1.926 1.096-3.827 2.025-5.593.814-1.836 2.012-3.465 3.157-5.104.854-.405.761-1.225.735-2.013v-.439zm68.51.011c-.703 2.315-.933 4.744-1.45 7.104-.411 1.027-.402 2.324 1.057 1.879 1.14.084 1.654-1.27 2.915-1.428 1.16-.302 2.523.087 3.401.897 1.449 1.716 1.362 4.654-.329 6.178-.7.711-1.615.91-2.57.804-1.173.192-2.141-.822-2.622-1.792-.027-1.217-1.054-1.326-2.011-1.206-1.084-.187-.212 1.504-.004 2.018 1.044 1.75 3.076 2.964 5.144 2.735 1.344.13 2.666-.588 3.67-1.42 1.068-1.165 2.012-2.674 1.81-4.323.198-1.692-.414-3.617-1.845-4.615-.892-.836-2.167-1.102-3.32-1.235-1.113.008-2.231.621-3.147.844.21-1.292.443-2.632.775-3.908.867-.726 2.277-.12 3.375-.358 1.123-.027 2.246-.05 3.369-.057v-2.117h-8.219zm-32.397 7.847c-1.44.12-3.042-.341-4.296.61-1.632.695-2.47 2.446-2.868 4.082-.73 1.966-.316 4.1-.41 6.146.069 1.838.639 3.722 1.931 5.067 1.132.758 2.447 1.458 3.84 1.38 1.257.235 2.355-.494 3.383-1.1 1.264-1.117 2.015-2.844 1.955-4.543.38-1.242-.514-2.366-.894-3.49-.66-1.073-1.867-1.723-3.035-2.095-1.268-.3-2.637.038-3.76.647-.545.548-1.932 2.004-1.442.312.14-1.384.405-2.852 1.28-3.962.87-1.102 2.248-1.791 3.64-1.263 1.134.364 1.72 1.825 2.061 2.567 1.148.1 2.566-.53 1.457-1.773-.477-1.295-1.613-2.085-2.842-2.585zm-2.402 7.764c1.57-.167 2.974.78 3.624 2.166.31 1.413.39 3.085-.532 4.296-.77.925-1.92 1.669-3.169 1.27-1.688-.42-2.891-2.179-2.68-3.896v-1.679c.705-.878 1.4-1.852 2.581-2.085zm-.772-167.555c-24.645.749-49.035 11.08-65.976 29.114-21.993 22.06-31.343 55.57-24.605 85.915 6.408 30.872 29.364 57.592 58.879 68.64 31.346 12.315 69.028 6.105 94.684-15.745 20.857-17.23 33.648-43.662 34.152-70.72.82-28.79-12.397-57.55-34.81-75.654-17.358-14.402-39.83-21.868-62.324-21.55zm-2.276 6.425c25.693-1.311 51.773 9.047 69.18 28.064 15.964 16.777 24.84 40.155 23.82 63.312-.37 21.194-9.13 42.102-23.6 57.545-16.829 18.382-41.753 28.923-66.662 28.276-27.847-.274-54.932-14.857-70.809-37.68-10.767-15.263-16.457-33.968-16.07-52.643.318-27.898 14.876-55.069 37.824-70.91 13.534-9.6 29.78-15.013 46.317-15.964z" style="fill:#000;fill-opacity:1;stroke-width:.26458335" transform="matrix(.13933 0 0 .13933 155.933 -102.552)"/></svg>