<svg xmlns="http://www.w3.org/2000/svg" viewBox="0 0 26.458 26.462" height="100.015" width="100"><path d="M-1025.678 903.614c1.57-.167 2.974.78 3.624 2.166.31 1.413.39 3.085-.532 4.296-.77.925-1.92 1.669-3.169 1.27-1.688-.42-2.891-2.179-2.68-3.896v-1.679c.705-.878 1.4-1.852 2.581-2.085zm2.402-7.764c-1.44.12-3.042-.341-4.296.61-1.632.695-2.47 2.446-2.868 4.082-.73 1.966-.316 4.1-.41 6.146.069 1.838.639 3.722 1.931 5.067 1.132.758 2.447 1.458 3.84 1.38 1.257.235 2.355-.494 3.383-1.1 1.264-1.117 2.015-2.844 1.955-4.543.38-1.242-.514-2.366-.894-3.49-.66-1.073-1.867-1.723-3.035-2.095-1.268-.3-2.637.038-3.76.647-.545.548-1.932 2.004-1.442.312.14-1.384.405-2.852 1.28-3.962.87-1.102 2.248-1.791 3.64-1.263 1.134.364 1.72 1.825 2.061 2.567 1.148.1 2.566-.53 1.457-1.773-.477-1.295-1.613-2.085-2.842-2.585zm32.396-7.847c-.702 2.315-.932 4.744-1.45 7.104-.41 1.027-.4 2.324 1.058 1.879 1.14.084 1.654-1.27 2.915-1.428 1.16-.302 2.523.087 3.401.897 1.449 1.716 1.362 4.654-.329 6.178-.7.711-1.615.91-2.57.804-1.173.192-2.141-.822-2.622-1.792-.027-1.217-1.054-1.326-2.011-1.206-1.084-.187-.212 1.504-.004 2.018 1.044 1.75 3.076 2.964 5.144 2.735 1.344.13 2.666-.588 3.67-1.42 1.068-1.165 2.012-2.674 1.81-4.323.198-1.692-.414-3.617-1.845-4.615-.892-.836-2.167-1.102-3.32-1.235-1.113.008-2.231.621-3.147.844.21-1.292.443-2.632.775-3.908.867-.726 2.277-.12 3.375-.358 1.123-.027 2.246-.05 3.369-.057v-2.117h-8.219zm-68.51-.01-10.98.142c-.061.87-.534 2.387.956 1.991l7.115.126c-1.21 1.57-2.338 3.205-3.08 5.054-.803 1.567-1.601 3.15-1.87 4.908-.366 1.561-.717 3.13-.919 4.722h2.107c.584-1.189.116-2.605.754-3.795.496-1.926 1.096-3.827 2.025-5.593.814-1.836 2.012-3.465 3.157-5.104.854-.405.761-1.225.735-2.013v-.439zm-34.68-15.071c1.214.087 2.686-.372 3.571.762 1.544 1.187 1.577 3.585.296 4.97-1.608 1.657-4.831 1.226-5.737-.979-.703-1.683-.042-3.907 1.709-4.647l.162-.106zm.292-7.144c1.597-.35 3.407.401 3.722 2.132.297 1.413-.728 3.147-2.295 3.056-1.3.497-2.505-.56-3.068-1.652-.48-1.588.356-2.65 1.641-3.536zm2.53-1.687c-1.523.08-3.206-.33-4.517.704-1.257.822-1.899 2.358-1.94 3.81.215 1.096.49 2.413 1.744 2.732 1.368.967-1.39 1.104-1.624 2.105-.89 1.332-.895 3.135-.469 4.628.592 1.162 1.5 2.342 2.744 2.827 1.582.637 3.358.652 4.97.094 1.154-.469 2.224-1.38 2.7-2.567.528-1.009.604-2.146.36-3.253-.053-1.639-1.725-2.358-2.715-3.311.983-.668 2.123-1.439 2.062-2.869 0-1.463-.194-3.12-1.603-3.931-.525-.402-1.135-.657-1.712-.97zm131.605 3.468v7.48h-5.291c1.751-2.501 3.472-5.029 5.291-7.48zm.32-3.368-7.728 10.958v2.006h7.408v3.97c.948.044 2.506.294 2.117-1.095v-2.844c.964-.064 2.646.168 2.25-1.257.426-1.516-1.76-.309-2.25-1.19v-10.548h-1.796zm-147.149-37.042c2.235-.522 4.324 1.751 3.956 3.927.042 1.335-.404 2.638-1.649 3.3-1.024.81-2.718.525-3.728-.261-.754-.853-1.415-1.838-1.265-3.029-.065-1.284.65-2.521 1.571-3.364.358-.214.743-.386 1.115-.573zm2.022-1.714c-1.367.119-2.893-.307-4.069.635-1.38.522-2.032 1.847-2.52 3.132-.538 1.78-.33 3.8.764 5.336.494 1.079 1.734 1.747 2.828 2.022 1.64.344 3.514-.037 4.636-1.346 1.26-.63.174 2.219.114 2.937-.317 1.103-1.228 2.31-2.385 2.664-1.28.592-2.845.13-3.471-1.165-.176-.987-.66-1.295-1.597-1.124-1.424-.382-.603 1.11-.288 1.887.547 1.31 1.943 1.914 3.2 2.333 2.354.377 4.87-.833 5.974-2.967.853-1.55.943-3.36 1.178-5.073-.06-1.54-.074-3.104-.298-4.622-.677-1.329-1.008-3.097-2.527-3.713-.513-.311-1.024-.627-1.54-.936zm158.963.022c-1.21.575-2.562 1.138-3.02 2.526-1.328 1.21.365 2.937 1.627 1.777.058-1.592 1.695-3.012 3.325-2.599 1.534.055 2.533 1.515 2.37 2.974-.17 1.322-1.528 2.285-2.792 2.423-1.455-.492-1.681 2.444-.087 1.734 1.262-.258 2.574.396 3.163 1.524a3.217 3.217 0 0 1 .009 3.473c-.693.962-1.7 1.852-2.979 1.733-1.666.19-3.138-1.337-3.247-2.924-.953-1.154-3.073.268-1.823 1.564.888 1.965 3.009 3.301 5.178 3.091 1.494.109 2.946-.625 4.01-1.627 1.075-1.255 1.876-2.98 1.427-4.65-.125-1.488-1.295-2.67-2.644-3.177.22-.699 1.974-1.527 1.888-2.849.338-2.037-1.038-4.155-3.014-4.741-1.053-.467-2.27-.166-3.392-.252zm-138.486-37.996c1.64-.294 3.223.788 3.624 2.39.422 1.952.592 3.99.436 5.986-.228 1.882-.21 4.333-2.227 5.256-2.101 1.03-4.197-1.188-4.32-3.218-.036-2.523-.193-5.083.102-7.598.29-1.249 1.176-2.356 2.385-2.816zm-10.34-1.852c-1.947-.381-2.153 2.34-3.75 2.898-1.333.27-3.404 2.495-1.883 3.298 1.297-.314 2.805-2.333 3.775-1.872.01 4.283 0 8.584 0 12.874.545-.15 1.69.303 1.853-.229V785.61zm11.315-.036c-2.697.005-5.052 2.15-5.396 4.801-.795 2.556-.172 5.241-.134 7.857.582 1.944 1.513 4.12 3.705 4.629 2.58.953 5.541-.671 6.368-3.234.973-2.333.554-4.867.629-7.32-.028-1.754-.681-3.528-1.69-4.956-.858-1.173-2.131-1.482-3.482-1.777zm129.05.191c-1.55.109-3.248-.34-4.631.607-1.553.643-2.375 2.322-2.519 3.918.511.858 2.616.633 2.323-.84.409-1.397 1.84-2.087 3.214-1.86 1.475-.338 2.848.9 3.086 2.295.1 1.4-.687 2.724-1.548 3.771-1.99 1.836-4.062 3.59-6.053 5.428-.49 1.172-1.64 2.247-1.405 3.595.622.293 1.384.055 2.069.13h9.03c.08-1.078.224-2.609-1.384-2.12l-6.951-.008c2.428-2.293 4.864-4.577 7.299-6.863.472-1.11 1.193-2.174 1.057-3.44.137-1.207-.515-2.301-1.236-3.2-.654-.664-1.583-.916-2.35-1.413zm-69.654-6.505c-1.24 3.54-2.628 7.03-3.778 10.601 1.133.154 3.837-3.065 3.185.134-.01 16.539-.014 33.078-.022 49.617.836 1.76 1.99 2.62 3.438.75l27.928-20.099c.513 1.135.076 4.995 1.315 2.294l5.487-8.671c-2.77.016-5.637 1.265-8.445 1.718-1.204.16-4.391.88-1.516 1.448 2.296 1.129-2.323 2.484-3.015 3.586-7.952 5.718-15.927 11.406-23.854 17.16V787.72c1.251.462 3.682 2.193 4.168 1.83-1.438-3.465-3.06-6.849-4.565-10.284-.107-.002-.222-.003-.327-.006zm37.237-17.462c-1.377-.405-1.937 1.19-2.647 2.004-.932 1.118-2.655 1.365-3.39 2.594-.375 1.134.091 2.252 1.209 1.1 1.09-.292 1.856-1.36 2.842-1.7.304.571.058 1.339.133 1.999v11.2h1.853v-17.197zm-64.822-2.91c-1.847-.436-2.079 2.095-3.472 2.724-1.332.608-3.465 1.874-2.398 3.544 1.41-.459 2.683-1.788 3.934-2.196.22.912.015 1.916.083 2.874v10.251c.567-.14 1.718.304 1.852-.268v-16.93zm-13.229 0c-1.847-.436-2.079 2.095-3.472 2.724-1.332.608-3.465 1.874-2.398 3.544 1.388-.313 2.893-2.178 3.945-2.012.19 1.8-.013 3.644.072 5.468v7.473c.567-.14 1.717.304 1.852-.268v-16.93zm47.498-5.93c-1.76.03-3.655-.27-5.167.874-1.333.756-3.336 4.517-.465 4.131 1.032-.866 1.314-3.703 3.534-3.165 2.153-.658 4.335 1.68 3.362 3.755-.837 2.554-3.36 3.876-5.13 5.708-1.713 1.248-3.177 2.956-3.699 5.038.692 1.558 3.46.305 5.017.701h6.116v-2.117l-8.334-.01c2.428-2.293 4.864-4.578 7.3-6.863 1.189-1.957 1.722-4.855-.185-6.56-.657-.67-1.493-1.129-2.35-1.493zm-12.838-.156c-1.946-.382-2.152 2.34-3.748 2.897-1.333.272-3.404 2.494-1.884 3.299 1.298-.317 2.8-2.324 3.775-1.877.01 4.284 0 8.587 0 12.879.548-.146 1.683.296 1.853-.228v-16.97zm1.03-10.317c25.693-1.311 51.773 9.047 69.18 28.064 15.964 16.777 24.84 40.155 23.82 63.312-.37 21.194-9.13 42.102-23.6 57.545-16.829 18.382-41.753 28.923-66.663 28.276-27.846-.274-54.93-14.857-70.808-37.68-10.767-15.263-16.457-33.968-16.07-52.643.318-27.898 14.876-55.069 37.824-70.91 13.534-9.6 29.78-15.013 46.317-15.964zm2.276-6.425c-24.645.749-49.035 11.08-65.976 29.114-21.993 22.06-31.343 55.57-24.605 85.915 6.408 30.872 29.364 57.592 58.879 68.64 31.346 12.315 69.028 6.105 94.684-15.745 20.857-17.23 33.648-43.662 34.152-70.72.82-28.79-12.397-57.55-34.81-75.654-17.358-14.402-39.83-21.868-62.324-21.55z" style="opacity:1;vector-effect:none;fill:#000;fill-opacity:1;stroke-width:.26458335;stroke-linecap:butt;stroke-linejoin:miter;stroke-miterlimit:4;stroke-dasharray:none;stroke-dashoffset:0;stroke-opacity:1" transform="matrix(.13933 0 0 .13933 155.933 -102.552)"/></svg>