<svg xmlns="http://www.w3.org/2000/svg" viewBox="0 0 26.458 26.456" height="99.992" width="100"><path d="M19.938 2.275a13.004 13.004 0 0 1 4.657 4.96l-11.478 6.112Z" style="opacity:1;vector-effect:none;fill:#99f;fill-opacity:1;fill-rule:nonzero;stroke:none;stroke-width:.51582634;stroke-linecap:butt;stroke-linejoin:miter;stroke-miterlimit:4;stroke-dasharray:none;stroke-dashoffset:0;stroke-opacity:1"/><path transform="scale(.26458)" d="M49.576 1.295v49.148L75.305 8.568a49.149 49.149 0 0 0-25.729-7.273zm0 49.148L90.23 78.064a49.149 49.149 0 0 0 8.442-25.35l-49.096-2.27z" style="opacity:1;vector-effect:none;fill:#f99;fill-opacity:1;fill-rule:nonzero;stroke:none;stroke-width:1.94957983;stroke-linecap:butt;stroke-linejoin:miter;stroke-miterlimit:4;stroke-dasharray:none;stroke-dashoffset:0;stroke-opacity:1"/><path style="opacity:1;vector-effect:none;fill:#9f9;fill-opacity:1;fill-rule:nonzero;stroke:none;stroke-width:.51582634;stroke-linecap:butt;stroke-linejoin:miter;stroke-miterlimit:4;stroke-dasharray:none;stroke-dashoffset:0;stroke-opacity:1" d="M24.618 7.278a13.004 13.004 0 0 1 1.488 6.7l-12.989-.631z"/><path d="M-938.587 823.454c1.573-.166 2.983.784 3.626 2.177.309 1.41.382 3.077-.533 4.285-.772.925-1.92 1.67-3.17 1.27-1.688-.42-2.891-2.179-2.679-3.896v-1.68c.703-.878 1.4-1.85 2.58-2.083zm2.403-7.764c-1.44.12-3.042-.34-4.296.61-1.568.663-2.405 2.32-2.818 3.887-.76 1.938-.384 4.045-.471 6.07.029 1.927.581 3.926 1.94 5.338 1.131.758 2.446 1.458 3.84 1.38 1.262.236 2.364-.498 3.396-1.109a5.958 5.958 0 0 0 1.89-3.57c.228-1.25.192-2.527-.51-3.64-.37-1.51-1.84-2.367-3.194-2.865-1.423-.38-3.06-.037-4.23.85-.496.67-1.647 1.534-1.146.07.169-1.473.414-3.108 1.51-4.187.847-1.113 2.287-1.494 3.584-.995 1.387.287 1.217 2.735 2.508 2.422 2.092.2.78-2.242-.052-3.034-.491-.62-1.298-.83-1.951-1.227zm32.13-7.847c-.702 2.315-.93 4.744-1.449 7.105-.41 1.026-.401 2.324 1.057 1.878 1.14.085 1.654-1.27 2.915-1.428 1.16-.302 2.524.088 3.402.898 1.449 1.716 1.361 4.653-.33 6.178-.7.71-1.615.909-2.569.803-1.173.192-2.141-.821-2.622-1.791-.027-1.218-1.054-1.327-2.011-1.207-1.085-.187-.212 1.504-.004 2.018 1.044 1.75 3.075 2.964 5.143 2.735 1.275.143 2.505-.542 3.502-1.264.947-.948 1.79-2.169 1.968-3.52.096-1.534.1-3.082-.734-4.44a5.243 5.243 0 0 0-3.566-2.23c-1.124-.298-2.418.035-3.433.582-1.323.492.154-2.017-.049-2.773-.152-1.75 1.622-1.297 2.744-1.349 1.418-.034 2.837-.069 4.256-.078v-2.117h-8.219zm-68.245-.01-10.98.143c-.062.87-.533 2.385.956 1.99l7.115.126c-1.209 1.57-2.338 3.206-3.08 5.054-.802 1.567-1.602 3.15-1.87 4.908-.366 1.562-.713 3.13-.919 4.723h2.106c.585-1.19.117-2.607.755-3.797.495-1.925 1.096-3.826 2.025-5.591.788-1.798 1.968-3.383 3.07-4.994.89-.472.882-1.405.822-2.286v-.276zm-34.68-15.07c1.143.12 2.573-.406 3.41.665 1.126.726 1.563 2.098 1.308 3.372-.263 1.44-1.412 2.444-2.837 2.667-1.68.303-3.57-.758-3.931-2.494-.283-1.471.152-3.294 1.648-3.937l.21-.13zm.292-7.145c1.597-.349 3.407.401 3.722 2.132.298 1.413-.728 3.147-2.295 3.055-1.3.498-2.505-.559-3.068-1.65-.479-1.59.355-2.652 1.641-3.537zm2.53-1.687c-1.523.08-3.206-.33-4.517.705-1.257.821-1.898 2.358-1.94 3.81.215 1.096.49 2.413 1.744 2.732 1.368.967-1.39 1.104-1.624 2.105-.89 1.332-.895 3.135-.469 4.628.591 1.162 1.5 2.341 2.743 2.827 1.582.636 3.358.652 4.97.094 1.155-.469 2.224-1.38 2.7-2.567.528-1.009.605-2.147.36-3.253-.053-1.64-1.725-2.357-2.714-3.312.982-.668 2.123-1.438 2.062-2.868 0-1.464-.195-3.12-1.603-3.932-.524-.402-1.136-.656-1.712-.969zm131.341 3.468v7.48h-5.292c1.75-2.502 3.473-5.028 5.292-7.48zm.32-3.368a78833.82 78833.82 0 0 1-7.728 10.958v2.007h7.408v3.969c.948.044 2.506.294 2.117-1.095v-2.844c.964-.065 2.645.169 2.249-1.257.427-1.515-1.759-.31-2.25-1.189v-10.55h-1.796zm-146.885-37.042c2.226-.52 4.316 1.738 3.957 3.908.045 1.364-.44 2.712-1.714 3.382-.919.638-2.316.49-3.254-.058-1.029-.753-1.82-1.953-1.663-3.257-.132-1.304.645-2.549 1.568-3.4.331-.261.739-.38 1.106-.575zm2.022-1.713c-1.367.118-2.893-.308-4.069.634-1.379.523-2.032 1.847-2.52 3.133-.537 1.78-.33 3.798.764 5.335.494 1.08 1.734 1.746 2.828 2.022 1.64.344 3.515-.037 4.637-1.346 1.26-.63.174 2.22.114 2.937-.06.956-.953 1.485-1.475 2.204-.812.724-2.251.885-3.262.466-1.287-.355-.953-2.578-2.303-2.295-.594.063-1.757-.309-1.134.712.296 1.426 1.258 2.64 2.64 3.13 1.362.716 3.057.494 4.413-.14 2.183-1.006 3.317-3.409 3.484-5.713.492-1.958.075-3.967.059-5.948-.45-1.412-1.016-2.996-2.19-3.958-.64-.428-1.378-.698-1.986-1.173zm158.698.021c-1.21.574-2.562 1.139-3.02 2.527-1.328 1.209.366 2.936 1.627 1.776.06-1.592 1.695-3.012 3.325-2.599 1.535.054 2.533 1.515 2.37 2.974-.17 1.322-1.527 2.285-2.791 2.424-1.61-.404-1.567 2.568.13 1.721 1.46-.26 2.839.837 3.235 2.204.789 1.612-.458 3.519-1.893 4.284-1.507.638-3.564.178-4.222-1.45-.194-1.39-1.39-2.232-2.517-1.083-.177 1.291.987 2.627 1.92 3.49 1.42 1.069 3.339 1.255 5.027.89 1.325-.504 2.67-1.205 3.303-2.556.757-1.16.997-2.545.587-3.875-.018-1.499-1.556-2.288-2.632-3.056.885-.682 1.863-1.432 1.955-2.647.378-2.203-1.256-4.455-3.426-4.908-.962-.245-1.993-.055-2.978-.116zm-138.221-37.995c1.64-.295 3.223.787 3.624 2.389.421 1.952.593 3.99.437 5.984-.23 1.883-.211 4.335-2.228 5.258-2.1 1.03-4.197-1.187-4.32-3.217-.036-2.524-.193-5.085.102-7.6.29-1.248 1.175-2.354 2.385-2.814zm-10.34-1.852c-1.947-.382-2.154 2.34-3.75 2.897-1.333.271-3.404 2.495-1.883 3.298 1.297-.313 2.804-2.333 3.775-1.872.01 4.283 0 8.584 0 12.875.545-.15 1.69.302 1.852-.23V705.45zm11.315-.037c-2.697.005-5.052 2.15-5.396 4.802-.796 2.555-.172 5.24-.134 7.856.582 1.944 1.513 4.12 3.705 4.629 2.581.954 5.54-.672 6.368-3.234.973-2.333.553-4.867.628-7.32-.028-1.753-.68-3.528-1.69-4.955-.857-1.173-2.13-1.483-3.481-1.778zm128.786.192c-1.551.108-3.248-.34-4.632.607-1.552.643-2.375 2.322-2.519 3.917.512.859 2.617.633 2.323-.84.41-1.398 1.841-2.086 3.215-1.86 1.475-.338 2.848.9 3.085 2.295.1 1.4-.687 2.724-1.547 3.771-1.99 1.837-4.063 3.59-6.054 5.429-.49 1.171-1.64 2.247-1.405 3.595.623.293 1.385.054 2.07.129h9.03c.08-1.078.223-2.608-1.385-2.12l-6.951-.007a3527.13 3527.13 0 0 1 7.299-6.864c.473-1.109 1.192-2.173 1.058-3.44.137-1.207-.515-2.3-1.237-3.2-.653-.664-1.583-.915-2.35-1.413zm-70.145-11.268c-1.634 3.549-3.383 7.047-4.944 10.627 1.273-.624 2.532-1.31 3.815-1.896l-.357 47.493c-.892.991-.951 1.893.475 2.312 9.671 5.908 19.424 11.705 29.045 17.684.194.641-1.672 1.08-2.288 1.643-.575.45 1.861.372 2.44.625 3.013.454 6.031 1.06 9.043 1.416-2.233-3.293-4.714-6.42-7.042-9.65-.172 1.021-.134 2.13-.265 3.25-9.975-6.104-20.012-12.127-29.948-18.281-.328-1.186-.03-2.64-.126-3.925.138-14.035.171-28.074.392-42.105.108-1.156 1.585.752 2.23.901.952.838 2.156 1.378 1.215-.328l-3.396-9.764h-.145zm37.727-12.7c-1.377-.405-1.937 1.19-2.648 2.004-.93 1.119-2.654 1.365-3.388 2.594-.375 1.134.091 2.252 1.208 1.1 1.098-.202 1.936-1.605 2.88-1.582.287 1.081-.032 2.26.096 3.388v9.694h1.852v-17.198zm-64.823-2.91c-1.846-.437-2.078 2.092-3.47 2.723-1.332.607-3.465 1.875-2.399 3.545 1.389-.313 2.893-2.177 3.946-2.012.19 1.8-.014 3.644.071 5.468v7.474c.567-.14 1.718.303 1.852-.27 0-5.642.001-11.285 0-16.928zm-13.23 0c-1.845-.437-2.077 2.092-3.469 2.723-1.333.607-3.465 1.875-2.399 3.545 1.389-.313 2.893-2.177 3.945-2.012.191 1.8-.013 3.644.072 5.468v7.474c.567-.14 1.718.303 1.852-.27v-16.928zm47.765-5.93c-1.76.03-3.654-.27-5.167.874-1.332.756-3.337 4.517-.465 4.131 1.031-.866 1.314-3.703 3.534-3.165 2.153-.657 4.335 1.68 3.362 3.755-.838 2.553-3.36 3.876-5.13 5.708a10.171 10.171 0 0 0-3.465 4.215c-.9 1.439.566 1.714 1.629 1.524h9.267c.54-1.69-.598-2.654-2.183-2.12-1.793-.146-5.034.282-5.925-.222 2.353-2.22 4.712-4.434 7.071-6.648 1.188-1.956 1.73-4.854-.18-6.56-.657-.67-1.494-1.128-2.348-1.493zm-12.84-.156c-1.945-.383-2.15 2.337-3.744 2.895-1.335.272-3.405 2.496-1.886 3.301 1.267-.346 2.792-2.225 3.698-1.894.206 1.852 0 3.74.081 5.61v7.286c.608-.188 2.067.474 1.852-.537v-16.66zm13.722-10.182c21.03 2.206 41.362 11.746 55.808 27.292 17.064 17.547 26.063 42.56 24.235 66.962-1.496 27.997-17.61 54.661-41.477 69.321-26.532 17.014-62.296 17.87-89.731 2.42-24.48-13.381-41.92-38.865-45.141-66.625-3.694-28.057 7.12-57.54 28.227-76.425 14.564-13.429 33.893-21.811 53.68-22.932l14.399-.013zm-8.334-6.569c-23.835-.041-47.503 9.286-64.864 25.637-20.36 18.884-31.769 47.06-29.808 74.808 1.28 30.935 19.448 60.37 46.067 76.045 16.018 9.6 34.932 14.33 53.589 13.132 29.583-1.021 57.9-17.544 74.126-42.2 11.4-17.102 16.94-37.948 15.63-58.44-1.72-31.332-20.3-61.015-47.614-76.44-14.276-8.182-30.685-12.506-47.126-12.542z" style="opacity:1;vector-effect:none;fill:#000;fill-opacity:1;stroke-width:.26458335;stroke-linecap:butt;stroke-linejoin:miter;stroke-miterlimit:4;stroke-dasharray:none;stroke-dashoffset:0;stroke-opacity:1" transform="matrix(.13939 0 0 .13939 143.871 -91.423)"/></svg>