<svg xmlns="http://www.w3.org/2000/svg" viewBox="0 0 26.458 26.461" height="100.01" width="100"><path d="M19.305 24.284a12.614 12.614 0 0 1-6.017 1.56l-.059-12.832z" style="opacity:1;vector-effect:none;fill:#f99;fill-opacity:1;fill-rule:nonzero;stroke:none;stroke-width:.51582633;stroke-linecap:butt;stroke-linejoin:miter;stroke-miterlimit:4;stroke-dasharray:none;stroke-dashoffset:0;stroke-opacity:1;font-variant-east_asian:normal"/><path d="M23.777 20.148a12.614 12.614 0 0 1-4.354 4.071l-6.194-11.207Z" style="opacity:1;vector-effect:none;fill:#9f9;fill-opacity:1;fill-rule:nonzero;stroke:none;stroke-width:.51582633;stroke-linecap:butt;stroke-linejoin:miter;stroke-miterlimit:4;stroke-dasharray:none;stroke-dashoffset:0;stroke-opacity:1;font-variant-east_asian:normal"/><path d="M25.374 16.638a12.614 12.614 0 0 1-1.654 3.597l-10.49-7.223Z" style="opacity:1;vector-effect:none;fill:#99f;fill-opacity:1;fill-rule:nonzero;stroke:none;stroke-width:.51582633;stroke-linecap:butt;stroke-linejoin:miter;stroke-miterlimit:4;stroke-dasharray:none;stroke-dashoffset:0;stroke-opacity:1;font-variant-east_asian:normal"/><path d="M-814.414 726.963c1.573-.166 2.983.784 3.626 2.178.31 1.41.383 3.077-.533 4.285-.771.924-1.92 1.669-3.17 1.27-1.688-.42-2.891-2.18-2.679-3.896v-1.68c.703-.879 1.4-1.851 2.58-2.084zm2.403-7.763c-1.44.119-3.041-.341-4.296.61-1.568.662-2.404 2.32-2.817 3.886-.76 1.943-.384 4.053-.472 6.083.03 1.922.584 3.917 1.94 5.326 1.132.758 2.446 1.457 3.84 1.38 1.262.236 2.364-.499 3.396-1.11a5.957 5.957 0 0 0 1.89-3.57c.228-1.25.192-2.527-.51-3.64-.378-1.53-1.879-2.396-3.258-2.883-1.875-.494-3.91.307-5.116 1.788-.64-.503.13-2.307.263-3.238.326-1.256 1.322-2.167 2.366-2.853a2.993 2.993 0 0 1 3.296.92c.61.732.538 2.214 1.901 1.496 1.734-.096.038-2.374-.566-3.091-.503-.525-1.246-.731-1.857-1.104zm32.396-7.847c-.703 2.314-.932 4.744-1.45 7.104-.41 1.027-.402 2.324 1.057 1.879 1.14.084 1.653-1.27 2.914-1.429 1.263-.312 2.794.128 3.625 1.158 1.316 1.945 1.027 5.118-1.147 6.335-.77.664-1.826.29-2.75.387-1.27-.47-1.871-1.748-2.308-2.89-.644-.244-1.37-.049-2.052-.109-.067 2.014 1.545 3.722 3.32 4.42 1.121.465 2.408.446 3.578.231 1.566-.454 2.948-1.496 3.625-3.008.844-1.183.55-2.678.624-4.03-.313-1.72-1.364-3.237-2.988-3.946-1.093-.381-2.226-.683-3.362-.314-.824-.027-2.526 1.57-1.863-.244.541-1.048-.044-2.88 1.225-3.381 2.045.126 4.114-.077 6.17-.046v-2.117h-8.218zm-68.246-.01-10.98.142c-.063.87-.533 2.386.956 1.991 2.372.043 4.744.083 7.115.126-1.21 1.57-2.338 3.205-3.08 5.054-.803 1.566-1.601 3.15-1.87 4.908-.366 1.561-.718 3.13-.92 4.722h2.107c.585-1.189.117-2.606.755-3.796.495-1.925 1.096-3.826 2.024-5.592.815-1.836 2.013-3.466 3.157-5.104.855-.405.762-1.225.736-2.013v-.439zm-34.68-15.071c1.143.121 2.573-.405 3.41.665 1.126.727 1.563 2.1 1.307 3.373-.263 1.44-1.412 2.443-2.836 2.666-1.68.304-3.571-.758-3.932-2.493-.281-1.471.152-3.294 1.65-3.937l.208-.13zm.292-7.144c1.596-.35 3.406.4 3.722 2.131.298 1.414-.727 3.146-2.294 3.056-1.306.498-2.527-.566-3.075-1.674-.472-1.587.373-2.628 1.647-3.513zm2.522-1.687c-1.523.08-3.206-.33-4.517.704-1.256.821-1.897 2.358-1.94 3.809.221 1.094.487 2.414 1.743 2.733 1.38.966-1.379 1.105-1.615 2.105-.888 1.332-.899 3.135-.473 4.628.59 1.162 1.498 2.338 2.74 2.827 1.58.64 3.356.65 4.968.094 1.14-.467 2.206-1.364 2.686-2.535.518-1.006.637-2.138.374-3.243-.019-1.662-1.719-2.393-2.717-3.352.97-.668 2.108-1.42 2.064-2.836-.05-1.308-.072-2.824-1.24-3.682a9.025 9.025 0 0 0-2.073-1.252zm131.349 3.468v7.48h-5.292c1.752-2.501 3.472-5.029 5.292-7.48zm.32-3.369a79436.11 79436.11 0 0 1-7.728 10.958v2.007h7.408v3.97c.948.044 2.506.294 2.117-1.096v-2.844c.963-.064 2.645.17 2.249-1.257.427-1.515-1.76-.309-2.25-1.188v-10.55h-1.796zm-64.515-35.208c-.265.67-.657 2.219-.847 2.374.224-1.136-.272-1.527-1.368-1.297v51.783l-4.507-2.339c1.624 3.628 3.25 7.256 4.875 10.883.936-1.337 1.202-3.069 1.868-4.565l2.31-6.325c-.718-.3-1.584.923-2.362 1.24-1.173 1.142-.83-.747-.862-1.513v-47.104c8.581 2.895 17.24 5.567 25.852 8.375 3.026 1.027 6.146 1.873 9.114 3.01-.787.771-1.767 1.54-2.439 2.312 1.385.214 2.992-.172 4.464-.194 2.341-.18 4.785-.351 7.063-.528-.013-.655-1.363-1.262-1.896-1.9l-6.748-5.77c-.588.378.343 1.64.26 2.4-.34.759-1.598-.361-2.28-.348-10.83-3.508-21.685-6.94-32.497-10.494zm-82.37-1.833c2.235-.522 4.323 1.75 3.956 3.926.042 1.335-.403 2.639-1.65 3.3-1.022.812-2.717.525-3.727-.26-.754-.853-1.414-1.839-1.265-3.03-.065-1.284.65-2.52 1.571-3.364.358-.213.742-.385 1.115-.572zm2.022-1.714c-1.367.118-2.893-.307-4.069.635-1.38.522-2.033 1.847-2.52 3.132-.538 1.78-.33 3.799.764 5.336.494 1.079 1.734 1.746 2.828 2.022 1.64.344 3.514-.037 4.637-1.347 1.26-.629.174 2.22.113 2.937-.317 1.103-1.227 2.31-2.385 2.664-1.28.593-2.845.13-3.47-1.164-.176-.988-.66-1.295-1.597-1.124-1.425-.382-.604 1.11-.288 1.887.546 1.31 1.942 1.914 3.2 2.332 2.279.362 4.703-.752 5.865-2.764.94-1.595 1.048-3.487 1.286-5.275-.064-1.54-.08-3.104-.303-4.622-.638-1.322-1.05-3.006-2.467-3.713-.535-.305-1.109-.55-1.594-.936zm158.698.022c-1.21.574-2.562 1.138-3.02 2.526-1.328 1.209.365 2.936 1.627 1.776.059-1.591 1.695-3.011 3.325-2.598 1.535.054 2.533 1.515 2.37 2.973-.17 1.323-1.527 2.286-2.791 2.424-1.61-.404-1.567 2.568.13 1.722 1.46-.261 2.839.836 3.235 2.203.603 1.23.007 2.845-1.064 3.631-.887 1.162-2.71 1.094-3.904.503-1.567-.44-.946-3.173-2.677-2.89-1.968.226-.533 2.473.238 3.314 1.086 1.28 2.798 1.852 4.446 1.715 1.36.061 2.65-.625 3.664-1.476 1.089-1.197 2.04-2.912 1.587-4.574.032-1.635-1.289-2.838-2.663-3.448.48-.776 1.767-1.359 1.83-2.54.434-1.49-.288-3.21-1.432-4.164-1.175-1.031-2.715-1.251-4.214-1.097h-.687zm-138.221-37.996c1.64-.295 3.223.788 3.624 2.39.42 1.952.593 3.99.437 5.984-.23 1.882-.211 4.334-2.228 5.258-2.1 1.03-4.197-1.188-4.32-3.218-.036-2.524-.193-5.084.102-7.6.29-1.247 1.174-2.354 2.385-2.814zm-10.343-1.852c-2.028-.33-2.202 2.508-3.954 3.014-1.307.222-3.128 2.509-1.676 3.182 1.267-.345 2.793-2.227 3.698-1.893.205 1.853 0 3.742.08 5.613v7.282c.604-.193 2.074.48 1.853-.537v-16.66zm11.318-.037c-2.697.005-5.053 2.15-5.396 4.802-.796 2.556-.173 5.24-.135 7.857.582 1.944 1.514 4.12 3.706 4.628 2.58.955 5.54-.672 6.368-3.233.972-2.333.553-4.867.628-7.32-.028-1.754-.681-3.528-1.69-4.956-.858-1.173-2.13-1.483-3.481-1.778zm128.786.192c-1.551.109-3.248-.34-4.632.607-1.553.643-2.375 2.322-2.519 3.917.512.86 2.616.633 2.323-.84.41-1.397 1.841-2.086 3.214-1.86 1.476-.337 2.848.9 3.086 2.296.1 1.4-.687 2.723-1.547 3.77-1.99 1.837-4.063 3.59-6.055 5.429-.488 1.172-1.638 2.247-1.404 3.595.623.293 1.385.055 2.069.13h9.03c.08-1.078.224-2.609-1.384-2.12l-6.951-.009c2.429-2.292 4.864-4.577 7.299-6.862.473-1.11 1.192-2.174 1.058-3.44.137-1.207-.515-2.301-1.237-3.2-.653-.664-1.582-.916-2.35-1.413zm-32.418-23.967c-1.377-.406-1.938 1.19-2.648 2.004-.931 1.118-2.654 1.365-3.388 2.594-.375 1.133.09 2.252 1.208 1.1 1.098-.202 1.936-1.605 2.88-1.583.287 1.082-.032 2.261.096 3.388v9.695h1.852v-17.198zm-64.823-3.175c-1.846-.437-2.078 2.092-3.47 2.722-1.332.608-3.465 1.875-2.399 3.546 1.389-.313 2.893-2.177 3.945-2.013.191 1.802-.013 3.645.072 5.469v7.474c.567-.14 1.718.303 1.852-.27v-16.928zm-13.23 0c-1.845-.437-2.077 2.092-3.468 2.722-1.333.608-3.466 1.875-2.4 3.546 1.388-.313 2.893-2.177 3.945-2.013.19 1.802-.013 3.645.072 5.469v7.474c.567-.14 1.718.303 1.852-.27v-16.928zm47.765-5.666c-1.76.03-3.655-.269-5.167.874-1.333.757-3.337 4.518-.465 4.132 1.032-.867 1.314-3.704 3.534-3.165 2.153-.658 4.335 1.68 3.361 3.755-.855 2.584-3.417 3.918-5.205 5.779-1.649 1.13-2.861 2.761-3.574 4.616-.436 1.471 1.22.973 2.057 1.052h9.024c.616-1.871-.717-2.437-2.218-2.12l-6.117-.008c2.429-2.292 4.864-4.577 7.299-6.863 1.188-1.956 1.73-4.855-.18-6.56-.658-.669-1.493-1.128-2.349-1.492zm-13.104-.155c-2.028-.33-2.202 2.508-3.954 3.013-1.308.222-3.128 2.51-1.676 3.183 1.266-.345 2.793-2.228 3.698-1.893.205 1.853 0 3.741.08 5.612v7.283c.605-.192 2.072.479 1.852-.538v-16.66zm.748-10.382c8.971.013 17.995.161 26.698 2.613 25.937 6.47 48.382 25.36 59.126 49.843 5.398 12.07 8.188 25.374 7.473 38.613.127 14.892-4.652 29.574-11.975 42.427-13.613 23.337-38.33 39.732-65.165 43.025-6.64.652-13.423.58-20.084.28-27.803-2.62-53.75-19.306-67.704-43.485-16.591-27.668-16.072-64.52 1.33-91.694 14.546-23.62 40.749-39.553 68.446-41.448l1.855-.174zm6.528-6.355c-21.335-.394-42.712 6.632-59.588 19.723-21.243 16.26-35.152 41.879-36.713 68.614-.684 11.98.459 24.085 4.201 35.537 8.402 26.439 28.938 48.665 54.707 58.995 29.933 12.364 66.147 8.017 92.03-11.565 26.571-19.156 41.62-52.86 38.197-85.43-2.746-31.68-22.765-61.044-51.097-75.418-12.89-6.583-27.263-10.251-41.737-10.456z" style="opacity:1;vector-effect:none;fill:#000;fill-opacity:1;stroke-width:.26458335;stroke-linecap:butt;stroke-linejoin:miter;stroke-miterlimit:4;stroke-dasharray:none;stroke-dashoffset:0;stroke-opacity:1" transform="matrix(.1394 0 0 .1394 126.533 -77.98)"/></svg>