<svg xmlns="http://www.w3.org/2000/svg" viewBox="0 0 26.458 26.462" height="100.015" width="100"><path style="opacity:1;vector-effect:none;fill:#99f;fill-opacity:1;fill-rule:nonzero;stroke:none;stroke-width:.61029726;stroke-linecap:butt;stroke-linejoin:miter;stroke-miterlimit:4;stroke-dasharray:none;stroke-dashoffset:0;stroke-opacity:1" d="M26.028 13.528a12.802 12.802 0 0 1-2.2 6.882L13.23 13.231ZM13.26.43a12.802 12.802 0 0 1 6.39 1.727l-6.422 11.075Z"/><path style="opacity:1;vector-effect:none;fill:#9f9;fill-opacity:1;fill-rule:nonzero;stroke:none;stroke-width:.61029726;stroke-linecap:butt;stroke-linejoin:miter;stroke-miterlimit:4;stroke-dasharray:none;stroke-dashoffset:0;stroke-opacity:1" d="M23.843 20.39a12.802 12.802 0 0 1-4.445 4.059L13.23 13.23Zm-4.24-18.261a12.802 12.802 0 0 1 4.89 5.019L13.23 13.23Z"/><path style="opacity:1;vector-effect:none;fill:#f99;fill-opacity:1;fill-rule:nonzero;stroke:none;stroke-width:.61029726;stroke-linecap:butt;stroke-linejoin:miter;stroke-miterlimit:4;stroke-dasharray:none;stroke-dashoffset:0;stroke-opacity:1" d="M19.414 24.44a12.802 12.802 0 0 1-6.144 1.593l-.04-12.802Zm5.075-17.3a12.802 12.802 0 0 1 1.538 6.41L13.23 13.23Z"/><path style="opacity:1;vector-effect:none;fill:#000;fill-opacity:1;stroke-width:.13932773;stroke-linecap:butt;stroke-linejoin:miter;stroke-miterlimit:4;stroke-dasharray:none;stroke-dashoffset:0;stroke-opacity:1" d="M48.832.006C35.854.4 23.009 5.84 14.088 15.336 2.507 26.952-2.417 44.599 1.13 60.578c3.374 16.257 15.463 30.327 31.006 36.145 16.506 6.485 36.35 3.215 49.86-8.291 10.982-9.074 17.718-22.993 17.983-37.24.432-15.162-6.527-30.305-18.33-39.838C72.51 3.769 60.677-.162 48.832.006zM50.17 3.33c12.69.067 25.3 5.447 33.892 14.836C92.47 27 97.142 39.312 96.606 51.506c-.194 11.16-4.807 22.17-12.427 30.303-8.863 9.68-21.987 15.23-35.104 14.89-14.663-.144-28.926-7.823-37.287-19.842-5.67-8.037-8.666-17.888-8.463-27.722.168-14.691 7.834-28.998 19.918-37.34 7.127-5.056 15.683-7.905 24.39-8.406a45.093 45.093 0 0 1 2.538-.059zm-3.424 5.486c-.719.144-.894 1.273-1.629 1.53-.702.143-1.793 1.314-.992 1.738.683-.167 1.474-1.224 1.988-.988.006 2.256 0 4.52 0 6.781.289-.077.886.157.975-.12V8.82a.875.875 0 0 0-.342-.004zm6.4.08c-.708-.009-1.42.016-2.017.467-.702.398-1.756 2.38-.244 2.176.543-.456.692-1.95 1.861-1.666 1.134-.346 2.282.884 1.77 1.977-.441 1.344-1.77 2.04-2.702 3.005-.902.658-1.672 1.557-1.947 2.653.365.82 1.82.16 2.64.369h3.223v-1.115l-4.388-.004c1.279-1.208 2.561-2.412 3.844-3.615.626-1.03.906-2.556-.098-3.454-.346-.352-.788-.595-1.238-.787-.232.004-.467-.002-.704-.006zm-24.634 3.112c-.685.106-.86 1.163-1.502 1.453-.701.32-1.824.986-1.262 1.865.731-.165 1.522-1.146 2.076-1.058.1.948-.005 1.918.04 2.878v3.936c.298-.074.903.16.974-.14v-8.917a.843.843 0 0 0-.326-.017zm6.965 0c-.685.106-.858 1.163-1.5 1.453-.702.32-1.826.986-1.264 1.865.743-.241 1.413-.94 2.072-1.156.116.48.007 1.01.043 1.514v5.398c.299-.074.906.16.977-.14v-8.917a.853.853 0 0 0-.328-.017zm34.21 1.517c-.547.024-.815.714-1.142 1.088-.49.59-1.398.72-1.785 1.367-.198.597.048 1.185.636.579.575-.154.977-.715 1.497-.895.16.301.032.705.072 1.053v5.898h.974V13.56a.768.768 0 0 0-.251-.034zM50 19.94l-.287 1.004h-.21v.733L48 26.939l1.504-1.503v41.18L48 65.11l1.504 5.264v.734h.209L50 72.111l.287-1.002h.213v-.748l1.5-5.25-1.5 1.5V25.44l1.5 1.5-1.5-5.25v-.746h-.213L50 19.94zm-30.947 6.14c-1.42.002-2.66 1.132-2.842 2.528-.419 1.346-.09 2.76-.07 4.137.306 1.024.797 2.17 1.95 2.438 1.36.502 2.92-.354 3.354-1.703.512-1.23.293-2.562.332-3.854-.014-.923-.359-1.86-.89-2.611-.452-.618-1.123-.78-1.834-.936zm-6.303.015c-.719.143-.893 1.272-1.629 1.529-.702.143-1.793 1.316-.992 1.738.683-.165 1.477-1.229 1.988-.986.005 2.255 0 4.52 0 6.78.287-.08.89.158.975-.122v-8.935a.875.875 0 0 0-.342-.004zm73.008.08c-.417.01-.823.075-1.188.324-.817.339-1.25 1.224-1.326 2.064.27.453 1.38.332 1.225-.443.215-.736.968-1.097 1.691-.978.777-.178 1.5.474 1.625 1.209.053.737-.361 1.433-.814 1.984-1.048.967-2.14 1.891-3.188 2.86-.257.616-.863 1.182-.74 1.892.328.154.73.03 1.09.068h4.756c.042-.567.116-1.372-.73-1.115-1.22-.002-2.44-.005-3.661-.006 1.279-1.207 2.562-2.41 3.844-3.613.248-.584.628-1.144.556-1.81.073-.636-.27-1.213-.65-1.686-.344-.35-.834-.482-1.238-.744-.409.028-.836-.017-1.252-.006zm-66.897.875a1.692 1.692 0 0 1 1.586 1.281c.222 1.029.313 2.104.23 3.154-.12.991-.11 2.282-1.171 2.768-1.107.543-2.21-.626-2.276-1.695-.018-1.33-.102-2.676.053-4 .153-.658.62-1.243 1.256-1.485.108-.02.216-.026.322-.023zM7.756 47.07c-.72.063-1.524-.162-2.143.334-.726.275-1.07.972-1.326 1.649-.284.937-.173 2.001.402 2.81.26.568.913.92 1.489 1.065.864.181 1.85-.02 2.441-.71.663-.33.092 1.17.06 1.548-.166.58-.646 1.216-1.255 1.402-.674.312-1.498.068-1.828-.613-.093-.52-.347-.682-.84-.592-.75-.201-.318.585-.152.994.287.69 1.023 1.008 1.685 1.229 1.24.198 2.565-.44 3.147-1.563.449-.817.495-1.77.619-2.672-.032-.811-.038-1.634-.157-2.433-.356-.7-.532-1.631-1.332-1.956-.27-.163-.539-.33-.81-.492zm84.617.002c-.303.004-.613.033-.908.01-.637.303-1.349.6-1.59 1.33-.699.637.193 1.547.857.936.031-.839.892-1.587 1.75-1.37.808.03 1.334.799 1.248 1.567-.089.696-.803 1.202-1.468 1.275-.766-.26-.887 1.288-.047.914a1.557 1.557 0 0 1 1.666.803c.354.559.364 1.267.004 1.828-.365.507-.895.975-1.569.912-.877.1-1.651-.703-1.709-1.539-.502-.608-1.619.142-.96.825.467 1.034 1.584 1.737 2.726 1.626.787.058 1.551-.33 2.111-.857.567-.66.989-1.57.752-2.45-.066-.783-.682-1.404-1.392-1.671.115-.368 1.039-.804.994-1.5.178-1.073-.546-2.19-1.586-2.498-.277-.123-.576-.144-.879-.14zm-85.246.864c.996.06 1.818 1.103 1.648 2.105.023.703-.213 1.387-.869 1.736-.539.427-1.43.277-1.963-.136-.397-.45-.744-.97-.666-1.596-.034-.677.344-1.328.828-1.772.189-.112.39-.202.586-.3.148-.035.294-.046.436-.037zm6.352 19.486c-.409.02-.804.103-1.149.375-.662.432-1 1.241-1.021 2.006.113.577.258 1.271.918 1.44.72.509-.732.58-.856 1.107-.468.701-.47 1.65-.246 2.437.311.612.79 1.233 1.445 1.488a3.75 3.75 0 0 0 2.617.05c.608-.248 1.17-.727 1.42-1.352.279-.532.32-1.13.192-1.713-.028-.864-.908-1.24-1.43-1.742.518-.352 1.118-.76 1.086-1.512 0-.771-.102-1.644-.844-2.07-.276-.212-.598-.346-.902-.51-.401.02-.822-.023-1.23-.004zm70.7.057-4.07 5.769v1.057h3.903v2.09c.499.023 1.32.155 1.115-.577V74.32c.508-.033 1.392.091 1.184-.66.224-.798-.926-.163-1.184-.627V67.48h-.947zm-70.484.792c.748-.035 1.496.369 1.64 1.166.157.745-.383 1.656-1.208 1.608-.685.262-1.319-.294-1.615-.87-.253-.836.188-1.394.865-1.86.105-.024.211-.038.318-.044zm70.317.981v3.94h-2.787c.922-1.317 1.828-2.65 2.787-3.94zM14.229 72.07c.331.02.641.108.875.407.812.625.83 1.887.156 2.617-.847.872-2.544.647-3.022-.514-.37-.886-.021-2.057.9-2.447l.085-.057c.32.023.674-.026 1.006-.006zm17.255 7.942-5.78.076c-.033.458-.281 1.257.503 1.049l3.746.064c-.637.827-1.23 1.689-1.621 2.662-.423.825-.843 1.659-.984 2.584-.193.823-.379 1.65-.485 2.489h1.11c.307-.627.06-1.374.396-2 .261-1.014.578-2.016 1.067-2.946.428-.967 1.059-1.825 1.662-2.687.45-.214.4-.644.386-1.059v-.232zm36.078.006c-.37 1.218-.49 2.497-.763 3.74-.217.54-.212 1.224.556.99.6.044.872-.668 1.536-.752.61-.159 1.328.046 1.79.473.763.903.717 2.45-.173 3.254-.37.374-.851.477-1.354.422-.618.1-1.128-.433-1.38-.944-.015-.641-.555-.698-1.06-.635-.57-.098-.11.792-.001 1.063.55.921 1.62 1.56 2.709 1.44.708.068 1.403-.309 1.932-.747.562-.614 1.06-1.409.955-2.277.104-.89-.22-1.904-.973-2.43-.47-.44-1.141-.58-1.748-.65-.586.004-1.174.326-1.656.443.11-.68.23-1.384.406-2.056.456-.383 1.2-.064 1.777-.19.592-.014 1.184-.025 1.776-.03v-1.114h-4.329zm-18.228 4.128c-.388.01-.763.074-1.094.325-.86.366-1.3 1.289-1.51 2.15-.384 1.035-.167 2.16-.216 3.236.036.968.337 1.96 1.017 2.668.596.4 1.288.768 2.022.727.662.124 1.24-.26 1.781-.578a3.113 3.113 0 0 0 1.03-2.393c.2-.654-.271-1.246-.471-1.838-.348-.565-.983-.907-1.598-1.103-.668-.158-1.39.019-1.98.34-.288.288-1.019 1.055-.76.164.073-.73.213-1.502.674-2.086.459-.58 1.185-.943 1.917-.664.598.191.907.96 1.086 1.351.605.053 1.35-.279.766-.933-.25-.682-.849-1.098-1.496-1.362-.379.032-.78-.013-1.168-.004zm.209 4.086c.7.047 1.304.509 1.603 1.147.164.744.204 1.624-.28 2.262-.407.487-1.011.88-1.669.67-.889-.222-1.522-1.149-1.41-2.053v-.883c.37-.463.735-.977 1.358-1.1l.093-.037c.104-.01.205-.012.305-.006z" transform="scale(.26458)"/></svg>