<svg xmlns="http://www.w3.org/2000/svg" viewBox="0 0 74.472 80.744" height="305.174" width="281.47"><path transform="matrix(.26458 0 0 .26458 0 0)" d="M169.797 84.145c-1.143-.066-2.33.57-2.41 1.962-.604 3.09 4.793 3.403 4.558.274.093-1.406-1.005-2.171-2.148-2.236zm-45.94.005c-1.153-.065-2.35.569-2.41 1.957-.602 3.088 4.796 3.405 4.559.274.114-1.403-.995-2.166-2.149-2.23zm-6.476 5.99c0 1.12.003 2.24.004 3.358h12.623v-3.357H117.38zm45.937 0 .004 3.358h12.623v-3.357h-12.627zm-39.46 4.885c-1.145-.063-2.334.573-2.41 1.963-.6 3.083 4.793 3.4 4.558.274.096-1.41-1.004-2.173-2.149-2.237zm45.937 0c-1.143-.064-2.33.572-2.408 1.963-.601 3.085 4.79 3.398 4.558.274.092-1.408-1.007-2.172-2.15-2.237zm-19.49 30.598-3.65 3.656-3.63-3.652-2.34 2.336 3.655 3.65-3.654 3.63 2.335 2.339 3.63-3.654 3.654 3.65 2.336-2.332-3.65-3.629 3.65-3.65-2.336-2.344zm37.777 55.045-3.572 3.572 5.586 5.582-5.582 5.545 3.568 3.57 5.545-5.582 5.582 5.579 3.572-3.567-5.588-5.545 5.584-5.582-3.568-3.572-5.582 5.582-5.545-5.582zm-109.904 1.387v5.129H97.47v-5.13H78.178zm0 8.988v5.133H97.47v-5.133H78.178zm0 40.576v5.133H97.47v-5.133H78.178zm115.32.07c-1.686.087-2.844 2.312-1.654 3.735 1.231 1.602 4.314.692 4.115-1.44.08-1.053-.687-1.993-1.71-2.191a2.076 2.076 0 0 0-.75-.104zm-6.164 6.053v3.36h12.623v-3.36h-12.623zm-109.156 2.865v5.131H97.47v-5.13H78.178zM193.5 242.57c-1.685.088-2.846 2.313-1.656 3.735 1.234 1.599 4.318.694 4.115-1.442.074-1.06-.683-1.987-1.71-2.191a2.062 2.062 0 0 0-.749-.102zM78.178 280.492v5.137H97.47v-5.137H78.178zm115.32.076c-1.686.087-2.843 2.312-1.654 3.735 1.233 1.603 4.318.687 4.115-1.446.074-1.06-.683-1.984-1.71-2.187a2.073 2.073 0 0 0-.75-.102zm-6.164 6.055v3.356h12.623v-3.356h-12.623zm-109.156 2.863v5.13H97.47v-5.13H78.178zm115.32 1.961c-1.686.088-2.844 2.316-1.654 3.739 1.234 1.599 4.318.692 4.115-1.444.08-1.054-.687-1.994-1.71-2.191a2.075 2.075 0 0 0-.75-.104z" style="fill:#000;fill-opacity:1;stroke:none;stroke-width:.44773892"/><path transform="matrix(.26458 0 0 .26458 0 0)" d="M146.604 0a3109.25 3109.25 0 0 0-41.348 71.584c-1.565 2.854-4.694 6.55.299 7.594 3.654 1.557 7.491 6.677 10.379 1.525 7.173-5.461 18.768-1.28 20.836 7.484 1.598 4.566-2.65 9.812 3.685 11.172 3.587 2.506 7.294 4.596 10.87.934 3.038-1.886 7.54-2.856 4.792-7.248-1.224-9.218 8.776-17.296 17.526-14.186 4.036.284 5.926 6.937 9.562 3.055l8.361-4.826c-14.479-24.884-28.653-49.95-43.37-74.688-.53-.8-.976-1.67-1.592-2.4zm-5.118 42.412c1.29-.07 2.636 1.004 2.522 2.365.176 1.821-2.25 3.012-3.686 2.006-1.7-.895-1.287-3.912.62-4.267a2.08 2.08 0 0 1 .544-.104zm10.944 6.053c1.711-.01 3.61.277 4.841 1.582 1.175 1.249 1.306 3.07 1.282 4.697-.004 2.585-.001 5.169-.002 7.754-2.938.592-6.018 1.055-8.979.356-1.375-.367-2.646-1.397-2.953-2.836-.418-1.569-.171-3.503 1.178-4.559 1.486-1.173 3.482-1.355 5.31-1.281.521-.037 1.255.262 1.63.133.083-.964-.378-2.131-1.417-2.35-1.338-.375-2.745-.11-4.086.105-.662.411-1.26.094-1.125-.68l-.357-2.251c1.522-.422 3.1-.639 4.678-.67zm-12.778.375h3.983c-.03 4.928.06 9.86-.053 14.787-.177 1.997-1.742 3.893-3.799 4.096a8.005 8.005 0 0 1-1.441.123c-.812-.177-2.738.248-2.336-1.172.247-.82-.11-2.869 1.324-2.219 1.008.26 2.243-.309 2.236-1.453.197-1.585.026-3.189.084-4.781.002-3.127.002-6.254.002-9.381zm13.098 7.99c-.662.026-1.307.167-1.879.53-.85.726-.54 2.41.623 2.609.407.12.834.141 1.256.15.62-.171 1.714.345 1.979-.45v-2.677c-.638-.098-1.317-.187-1.979-.162zM0 171.494v35.24h69.824v-35.24H0zm50.451 9.076v7.825c1.013-1.1 2-2.227 2.953-3.38h3.147c-1.227 1.408-2.467 2.805-3.805 4.108 1.42 1.357 2.602 2.948 3.598 4.637.424.33.146.77-.323.61h-2.386c-.936-1.452-1.852-2.962-3.184-4.09v4.09h-2.648v-13.374l2.648-.426zm-33.535.174c.63-.017 1.276.317 1.537.922.093.201.137.425.12.647.09 1.086-1.19 1.88-2.16 1.48-1.078-.333-1.38-1.903-.526-2.623.28-.28.651-.416 1.029-.426zm7.26 4.024c1.139-.006 2.401.184 3.22 1.052.782.831.868 2.04.852 3.123-.003 1.72 0 3.44 0 5.16-1.954.395-4.003.7-5.973.235-.915-.244-1.762-.927-1.966-1.885-.278-1.043-.115-2.33.783-3.033.989-.78 2.319-.9 3.535-.852.347-.024.833.172 1.082.086.056-.641-.25-1.417-.941-1.562-.89-.25-1.827-.073-2.72.07-.44.273-.838.064-.747-.451-.08-.5-.16-1-.238-1.5a12.621 12.621 0 0 1 3.113-.443zm17.158 0c1.139-.006 2.402.184 3.22 1.052.782.831.868 2.04.852 3.123-.002 1.72.001 3.44 0 5.16-1.954.395-4.003.7-5.972.235-.915-.244-1.763-.927-1.967-1.885-.278-1.043-.115-2.33.783-3.033.989-.78 2.319-.9 3.535-.852.347-.024.833.172 1.082.086.056-.641-.25-1.417-.941-1.562-.89-.25-1.827-.073-2.719.07-.44.273-.839.064-.748-.451-.08-.5-.16-1-.238-1.5a12.621 12.621 0 0 1 3.113-.443zm-6.752.058c.445.011.891.059 1.332.149.447-.04 1.02.265.7.755l-.333 1.633c-.883-.233-1.809-.365-2.717-.222-.365.023-.267.462-.271.714v6.514h-2.648v-8.855c1.26-.432 2.6-.722 3.937-.688zm-18.908.19h2.65c-.014 3.225.028 6.452-.025 9.677-.074 1.253-.888 2.527-2.17 2.801a4.88 4.88 0 0 1-1.326.166c-.525-.12-1.561.173-1.604-.607.26-.505-.058-1.588.553-1.721.613.176 1.517.18 1.793-.521.245-.975.084-1.988.129-2.98v-6.815zm8.715 5.316c-.44.017-.87.11-1.25.352-.565.483-.36 1.604.414 1.736.27.08.555.094.836.1v.001c.412-.113 1.14.228 1.316-.3v-1.782c-.424-.065-.876-.124-1.316-.107zm17.158 0c-.44.017-.87.11-1.25.352-.565.483-.36 1.604.414 1.736.27.08.555.094.836.1v.001c.412-.113 1.14.228 1.316-.3v-1.782c-.424-.065-.876-.124-1.316-.107zm64.275 30.727v35.24h69.824v-35.24h-69.824zm50.453 9.074v7.824a84.444 84.444 0 0 0 2.952-3.379h3.148c-1.227 1.407-2.469 2.806-3.807 4.11 1.42 1.357 2.603 2.947 3.598 4.636.424.33.146.77-.322.61h-2.387c-.936-1.452-1.85-2.961-3.182-4.09v4.09h-2.65V230.56l2.65-.428zm-33.537.174c.63-.017 1.276.316 1.537.922.093.2.138.425.12.646.09 1.087-1.188 1.88-2.159 1.48-1.076-.333-1.38-1.903-.527-2.623.28-.28.651-.415 1.03-.425zm7.26 4.023c1.139-.006 2.402.184 3.22 1.053.782.83.87 2.04.854 3.123-.002 1.72 0 3.44-.002 5.16-1.954.394-4.003.702-5.972.236-.915-.243-1.763-.928-1.967-1.886-.278-1.044-.113-2.331.785-3.034.989-.78 2.317-.9 3.533-.851.347-.024.833.174 1.082.088.056-.642-.25-1.42-.941-1.565-.89-.25-1.827-.072-2.719.07-.44.274-.838.064-.748-.45-.08-.5-.157-.999-.236-1.499a12.608 12.608 0 0 1 3.111-.445zm17.158 0c1.14-.006 2.402.184 3.22 1.053.782.83.87 2.04.854 3.123-.002 1.72 0 3.44-.001 5.16-1.955.394-4.003.702-5.973.236-.915-.243-1.763-.928-1.967-1.886-.278-1.044-.112-2.331.785-3.034.99-.78 2.317-.9 3.533-.851.347-.024.835.174 1.084.088.056-.642-.252-1.42-.943-1.565-.89-.25-1.827-.072-2.719.07-.44.274-.838.064-.748-.45l-.236-1.499a12.608 12.608 0 0 1 3.111-.445zm-6.75.059c.446.011.89.058 1.33.148.447-.039 1.02.268.7.758l-.332 1.63c-.883-.233-1.81-.362-2.717-.22-.365.024-.268.46-.272.713v6.516h-2.648v-8.858c1.261-.432 2.603-.721 3.94-.687zm-18.91.191h2.65c-.014 3.226.03 6.45-.023 9.676-.073 1.252-.888 2.527-2.17 2.8a4.895 4.895 0 0 1-1.328.167c-.524-.12-1.561.172-1.604-.608.26-.505-.055-1.588.555-1.72.613.175 1.515.182 1.791-.52.245-.974.084-1.99.13-2.982v-6.813zm8.715 5.315c-.44.017-.87.11-1.25.351-.565.483-.36 1.605.414 1.736.27.08.555.096.836.102.412-.114 1.14.228 1.316-.3v-1.782c-.424-.065-.876-.124-1.316-.107zm17.158 0c-.44.017-.87.11-1.25.351-.565.483-.36 1.605.414 1.736.271.08.556.096.836.102.412-.114 1.14.228 1.317-.3v-1.782c-.424-.065-.876-.124-1.317-.107zm-41.547 30.039v35.24h69.824v-35.24h-69.824zm50.453 9.074v7.826a84.444 84.444 0 0 0 2.952-3.379h3.148c-1.227 1.407-2.469 2.804-3.807 4.108 1.42 1.357 2.603 2.947 3.598 4.636.424.33.146.77-.322.61h-2.387c-.936-1.452-1.85-2.961-3.182-4.09v4.09h-2.65v-13.373l2.65-.428zm-33.537.174c.63-.017 1.276.316 1.537.922.093.2.138.427.12.648.09 1.087-1.188 1.878-2.159 1.478-1.076-.333-1.38-1.903-.527-2.623.28-.28.651-.415 1.03-.425zm7.26 4.023c1.139-.006 2.402.184 3.22 1.053.782.83.87 2.042.854 3.125-.002 1.72 0 3.438-.002 5.158-1.954.394-4.003.702-5.972.236-.915-.243-1.763-.926-1.967-1.884-.278-1.044-.113-2.333.785-3.036.989-.78 2.317-.9 3.533-.851.347-.024.833.174 1.082.088.056-.642-.25-1.417-.941-1.563-.89-.25-1.827-.072-2.719.07-.44.274-.838.064-.748-.45-.08-.5-.157-1-.236-1.5a12.608 12.608 0 0 1 3.111-.446zm17.158 0c1.14-.006 2.402.184 3.22 1.053.782.83.87 2.042.854 3.125-.002 1.72 0 3.438-.001 5.158-1.955.394-4.003.702-5.973.236-.915-.243-1.763-.926-1.967-1.884-.278-1.044-.112-2.333.785-3.036.99-.78 2.317-.9 3.533-.851.347-.024.835.174 1.084.088.056-.642-.252-1.417-.943-1.563-.89-.25-1.827-.072-2.719.07-.44.274-.838.064-.748-.45l-.236-1.5a12.608 12.608 0 0 1 3.111-.446zm-6.75.059a7.6 7.6 0 0 1 1.33.15c.447-.039 1.02.266.7.756l-.332 1.633c-.883-.234-1.81-.365-2.717-.223-.365.024-.268.46-.272.713v6.516h-2.648v-8.856c1.261-.432 2.603-.723 3.94-.69zm-18.91.191h2.65c-.014 3.226.03 6.45-.023 9.676-.073 1.252-.888 2.527-2.17 2.8a4.897 4.897 0 0 1-1.328.169c-.524-.12-1.561.17-1.604-.61.26-.505-.055-1.588.555-1.72.613.175 1.515.182 1.791-.52.245-.974.084-1.988.13-2.98v-6.815zm8.715 5.315c-.44.017-.87.112-1.25.353-.565.483-.36 1.605.414 1.736.27.08.555.094.836.1.412-.114 1.14.23 1.316-.299v-1.781c-.424-.065-.876-.126-1.316-.11zm17.158 0c-.44.017-.87.112-1.25.353-.565.483-.36 1.605.414 1.736.271.08.556.094.836.1.412-.114 1.14.23 1.317-.299v-1.781c-.424-.065-.876-.126-1.317-.11z" style="font-style:normal;font-variant:normal;font-weight:700;font-stretch:normal;font-size:7.07224464px;line-height:1.25;font-family:Ubuntu;-inkscape-font-specification:Ubuntu;text-align:end;letter-spacing:0;word-spacing:0;text-anchor:end;fill:red;fill-opacity:1;stroke:none;stroke-width:1.54209709"/><path transform="matrix(.26458 0 0 .26458 0 0)" d="m193.383 80.209-11.201 6.467c3.704 8.096-2.695 18.394-11.588 18.681-4.876 1.229-9.14-3.492-12.307-4.89l-9.676 5.586v12.133c8.516.922 14.162 10.949 10.545 18.7-1.232 5.096-7.532 6.78-10.545 8.844v12.13h89.616c-15.05-25.826-29.934-51.746-44.844-77.651zm6.64 41.012c1.712-.01 3.611.276 4.842 1.582 1.175 1.248 1.304 3.067 1.28 4.695-.004 2.585 0 5.17 0 7.756-2.938.592-6.018 1.052-8.979.353-1.375-.366-2.648-1.394-2.955-2.834-.418-1.568-.171-3.504 1.178-4.56 1.486-1.173 3.484-1.355 5.312-1.281.521-.037 1.253.262 1.627.132.084-.964-.377-2.13-1.416-2.35-1.338-.374-2.745-.108-4.086.106-.662.411-1.26.096-1.125-.677l-.355-2.254a18.96 18.96 0 0 1 4.677-.668zm-26.83.66c.333-.022.77.048.987.017h2.71c.672 3.081 1.34 6.166 2.217 9.196a207.95 207.95 0 0 0 2.407-9.196h2.886c.707 3.082 1.448 6.158 2.327 9.196.89-3.029 1.541-6.12 2.244-9.196h4.144c-1.38 4.743-2.794 9.49-4.678 14.061h-3.101c-.87-2.678-1.779-5.346-2.486-8.072a156.278 156.278 0 0 1-2.405 8.072h-3.101c-1.802-4.407-3.191-8.967-4.504-13.54-.207-.402.02-.516.353-.538zm27.15 7.703c-.661.026-1.307.166-1.878.53-.85.726-.54 2.41.623 2.609.407.12.834.141 1.256.15.619-.171 1.714.345 1.978-.45v-2.677c-.637-.098-1.316-.188-1.978-.162zm11.302 42.598v35.24h69.824v-35.24h-69.825zm36.882 10.613v7.826a84.459 84.459 0 0 0 2.952-3.379h3.148c-1.227 1.407-2.469 2.804-3.807 4.108 1.42 1.357 2.603 2.947 3.598 4.636.424.33.146.77-.322.61h-2.385c-.936-1.451-1.851-2.961-3.184-4.09v4.09h-2.65v-13.373l2.65-.428zm10.053 1.69v2.757h3.184v2.205h-3.184c.028 1.336-.062 2.678.06 4.01.069.6.557 1.113 1.178 1.094.66.07 1.325-.067 1.946-.285l.373 2.062c-1.407.567-3.043.687-4.471.129-.995-.457-1.603-1.516-1.664-2.588-.15-1.344-.034-2.698-.072-4.047v-4.91l2.65-.428zm-19.172 2.507c1.139-.005 2.404.184 3.223 1.053.781.83.868 2.042.851 3.125-.002 1.72 0 3.438-.002 5.158-1.954.394-4.002.702-5.972.236-.915-.243-1.76-.926-1.965-1.884-.278-1.044-.114-2.333.783-3.035.99-.78 2.317-.901 3.533-.852.347-.024.835.174 1.084.088.056-.642-.252-1.417-.943-1.563-.89-.25-1.827-.072-2.719.07-.44.274-.838.064-.748-.45l-.236-1.5a12.61 12.61 0 0 1 3.111-.446zm-17.85.237c.222-.015.514.033.659.013h1.8c.448 2.05.894 4.101 1.477 6.117a138.28 138.28 0 0 0 1.602-6.117h1.92c.47 2.05.962 4.096 1.547 6.117.592-2.015 1.026-4.07 1.494-6.117h2.756c-.92 3.155-1.859 6.312-3.112 9.354h-2.062c-.58-1.782-1.184-3.557-1.655-5.371a103.993 103.993 0 0 1-1.601 5.37h-2.063c-1.198-2.931-2.122-5.965-2.996-9.007-.137-.268.013-.345.235-.36zm42.256.013h2.65c.023 1.895-.047 3.79.042 5.684.045.601.258 1.331.906 1.523.578.196 1.193.074 1.783.024.098-.377.025-.775.045-1.162v-6.069h2.649v9.033c-1.73.43-3.544.701-5.319.414-1.03-.207-2.008-.883-2.369-1.898-.541-1.348-.352-2.826-.387-4.242v-3.307zm-24.191 5.315c-.44.017-.87.112-1.25.353-.565.483-.36 1.605.414 1.736.27.08.556.094.836.1.412-.114 1.139.23 1.315-.299v-1.781c-.424-.065-.874-.126-1.315-.11zm-27.978 28.502v35.24h69.824v-35.24h-69.825zm36.882 10.613v7.824a84.459 84.459 0 0 0 2.952-3.379h3.148c-1.227 1.407-2.469 2.804-3.807 4.108 1.42 1.357 2.603 2.947 3.598 4.636.424.33.146.77-.322.61h-2.385c-.936-1.451-1.851-2.961-3.184-4.09v4.09h-2.65v-13.373c.883-.143 1.767-.284 2.65-.426zm10.053 1.69v2.755h3.184v2.205h-3.184c.028 1.336-.062 2.678.06 4.01.069.6.557 1.115 1.178 1.096.66.07 1.325-.067 1.946-.285l.373 2.062c-1.407.567-3.043.685-4.471.127-.995-.457-1.603-1.516-1.664-2.588-.15-1.344-.032-2.696-.07-4.045l-.002-4.912c.883-.142 1.767-.283 2.65-.426zm-19.172 2.507c1.139-.006 2.404.182 3.223 1.05.781.832.868 2.043.851 3.126-.002 1.72 0 3.44-.002 5.16-1.954.394-4.002.7-5.972.234-.915-.243-1.76-.926-1.965-1.884-.278-1.044-.114-2.331.783-3.034.99-.78 2.317-.902 3.533-.853.347-.024.835.174 1.084.088.056-.642-.252-1.417-.943-1.563-.89-.25-1.827-.072-2.719.07-.44.274-.838.064-.748-.45l-.236-1.5a12.609 12.609 0 0 1 3.111-.444zm-17.85.236c.222-.014.514.032.659.012h1.8c.448 2.05.894 4.101 1.477 6.117a138.28 138.28 0 0 0 1.602-6.117h1.92c.47 2.05.962 4.096 1.547 6.117.592-2.015 1.026-4.07 1.494-6.117h2.756c-.92 3.155-1.859 6.312-3.112 9.354h-2.062c-.58-1.782-1.184-3.555-1.655-5.37a103.92 103.92 0 0 1-1.601 5.37h-2.063c-1.198-2.932-2.122-5.966-2.996-9.008-.137-.268.013-.343.235-.358zm42.256.012h2.65c.023 1.895-.047 3.793.042 5.686.045.6.258 1.33.906 1.523.578.195 1.193.072 1.783.022.098-.377.025-.775.045-1.162v-6.069h2.649v9.033c-1.73.43-3.544.701-5.319.414-1.03-.207-2.006-.881-2.367-1.896-.541-1.348-.354-2.826-.389-4.242v-3.309zm-24.191 5.317c-.44.017-.87.11-1.25.351-.565.483-.36 1.605.414 1.736.27.08.556.094.836.1.412-.114 1.139.23 1.315-.299v-1.781c-.424-.065-.874-.124-1.315-.107zM0 269.934v35.24h69.824v-35.24H0zm36.88 10.613v7.824c1.014-1.1 2-2.226 2.954-3.379h3.146c-1.226 1.407-2.466 2.806-3.804 4.11 1.42 1.357 2.602 2.947 3.597 4.636.425.33.147.77-.322.61h-2.387c-.935-1.452-1.85-2.963-3.183-4.092v4.092h-2.649v-13.373l2.649-.428zm10.056 1.69v2.755h3.181v2.205h-3.181c.028 1.336-.064 2.68.058 4.012.068.6.558 1.113 1.18 1.094.66.07 1.324-.067 1.945-.285l.373 2.062c-1.407.567-3.045.685-4.472.127-.995-.457-1.601-1.514-1.663-2.586-.149-1.344-.033-2.698-.072-4.047v-4.91l2.65-.428zm-19.172 2.507c1.138-.006 2.401.184 3.22 1.053.782.83.87 2.04.854 3.123-.003 1.72-.001 3.44-.002 5.16-1.955.394-4.003.702-5.973.236-.915-.243-1.762-.928-1.967-1.886-.277-1.044-.114-2.331.784-3.034.989-.78 2.319-.9 3.535-.851.346-.024.833.174 1.082.088.056-.642-.25-1.42-.942-1.565-.89-.25-1.826-.072-2.718.07-.44.274-.839.064-.748-.45l-.239-1.5a12.624 12.624 0 0 1 3.114-.444zm-17.85.236c.221-.014.512.032.656.012h1.803c.447 2.05.893 4.103 1.477 6.12a138.342 138.342 0 0 0 1.6-6.12h1.92c.469 2.05.964 4.098 1.548 6.12.593-2.016 1.025-4.074 1.492-6.12h2.758c-.919 3.155-1.86 6.314-3.113 9.356h-2.063c-.579-1.782-1.183-3.557-1.654-5.371a103.976 103.976 0 0 1-1.6 5.37h-2.062c-1.199-2.931-2.123-5.965-2.996-9.007-.138-.268.013-.345.234-.36zm42.256.012h2.65c.023 1.895-.048 3.793.041 5.686.046.6.259 1.33.907 1.523.577.195 1.19.072 1.78.022.099-.377.026-.775.046-1.162v-6.069h2.65v9.035c-1.729.43-3.546.701-5.32.414-1.03-.207-2.006-.883-2.367-1.898-.542-1.348-.352-2.826-.387-4.242v-3.309zm-24.193 5.317c-.44.017-.87.11-1.25.351-.566.483-.36 1.605.414 1.736.27.08.555.096.836.102.411-.114 1.14.228 1.316-.3v-1.782c-.424-.065-.876-.124-1.316-.107z" style="font-style:normal;font-variant:normal;font-weight:700;font-stretch:normal;font-size:7.07224464px;line-height:1.25;font-family:Ubuntu;-inkscape-font-specification:Ubuntu;text-align:end;letter-spacing:0;word-spacing:0;text-anchor:end;fill:#00f;fill-opacity:1;stroke:none;stroke-width:1.54209709"/><path transform="matrix(.26458 0 0 .26458 0 0)" d="M100.021 80.95c-2.4 2.668-3.91 6.496-5.962 9.607-12.987 22.405-26.042 44.773-38.817 67.302h89.62l-.005-12.824c-8.58-.831-14.33-10.912-10.687-18.717 1.266-5.128 7.597-6.84 10.678-8.855l-.006-11.406-10.395-5.987c-4.928 6.943-16.335 7.046-21.385.19-3.904-3.72-2.497-10.184-2.6-13.963-3.446-1.814-6.749-4.082-10.44-5.348zm-5.511 33.896v11.761a126.967 126.967 0 0 0 4.437-5.078h4.73c-1.843 2.115-3.71 4.215-5.72 6.174 2.134 2.04 3.91 4.43 5.406 6.969.638.496.222 1.156-.482.916h-3.588c-1.406-2.181-2.78-4.45-4.783-6.147v6.147h-3.983v-20.1l3.983-.642zm16.449 6.304c1.654-.062 3.327.439 4.574 1.541 1.414 1.293 1.996 3.247 2.031 5.116.027.688-.003 1.375-.068 2.06h-9.035c.114 1.578 1.728 2.61 3.207 2.635 1.52.141 3.067-.094 4.492-.63.264.784.285 1.627.46 2.435.137.496.21.97-.462.996-1.728.549-3.573.742-5.38.62-2.161-.181-4.39-1.223-5.454-3.194-.69-1.232-.96-2.662-.953-4.063-.096-2.7 1.225-5.587 3.729-6.805a7.112 7.112 0 0 1 2.859-.71zm.414 3.287c-1.126-.09-2.371.586-2.654 1.731-.414.448-.2 1.266.496.975h4.512c.017-1.306-.966-2.691-2.354-2.706zm-5.55 47.057v35.24h69.823v-35.24h-69.824zm11.724 9.076v7.825a84.5 84.5 0 0 0 2.953-3.38h3.146c-1.226 1.408-2.466 2.805-3.804 4.108 1.42 1.357 2.6 2.948 3.596 4.637.424.33.148.77-.32.61h-2.388c-.935-1.452-1.85-2.962-3.183-4.09v4.09h-2.649v-13.374l2.649-.426zm10.945 4.194c1.1-.042 2.214.292 3.043 1.025.941.86 1.328 2.16 1.352 3.402.017.458-.004.918-.047 1.373h-6.01c.076 1.05 1.15 1.736 2.133 1.752a6.745 6.745 0 0 0 2.988-.42c.176.523.19 1.084.307 1.622.092.33.14.645-.307.662a9.731 9.731 0 0 1-3.58.414c-1.437-.121-2.921-.816-3.629-2.127-.459-.82-.638-1.771-.633-2.703-.064-1.797.815-3.716 2.48-4.526a4.734 4.734 0 0 1 1.903-.474zm18.824 0c1.1-.042 2.216.292 3.045 1.025.941.86 1.326 2.16 1.35 3.402.018.458-.001.918-.045 1.373h-6.012c.076 1.05 1.151 1.736 2.135 1.752a6.745 6.745 0 0 0 2.988-.42c.176.523.189 1.084.305 1.622.092.33.142.645-.305.662a9.741 9.741 0 0 1-3.582.414c-1.437-.121-2.92-.816-3.627-2.127-.459-.82-.64-1.771-.634-2.703-.064-1.797.814-3.716 2.48-4.526a4.734 4.734 0 0 1 1.902-.474zm-7.777.002c.785.026 1.57.202 2.293.492.035.498-.23.96-.32 1.441.004.36-.188.893-.608.553-.945-.282-2.097-.377-2.91.285-.841.777-.9 2.044-.71 3.102.13.704.599 1.4 1.331 1.57.789.233 1.629.128 2.422-.022.369-.252.812-.17.738.348l.278 1.604c-1.563.59-3.35.672-4.928.093-1.267-.512-2.242-1.686-2.48-3.037a7.35 7.35 0 0 1-.15-1.502c-.056-1.86.995-3.784 2.75-4.515a5.313 5.313 0 0 1 2.294-.412zm18.049.045c.43.007.857.042 1.283.11 1.487.295 2.86 1.359 3.29 2.847.209.618.303 1.273.3 1.925.017 1.527-.443 3.21-1.73 4.149-1.245.885-2.95.896-4.317.297v3.521h-2.65v-12.324c1.243-.318 2.536-.547 3.824-.525zm-28.82 2.14c-.75-.06-1.578.391-1.766 1.153-.275.297-.133.84.33.646h3.002c.012-.869-.643-1.79-1.566-1.799zm18.826 0c-.75-.06-1.58.391-1.768 1.153-.275.297-.133.84.33.646h3.002c.012-.869-.64-1.79-1.564-1.799zm9.738.1c-.355 0-.693.057-.918.193v4.69c.851.477 2.097.6 2.809-.184.458-.548.524-1.301.535-1.986.033-1.01-.364-2.216-1.4-2.58a4.09 4.09 0 0 0-1.026-.133zm7.361 4.293c.625-.088 1.288.192 1.641.719.182.263.238.587.238.902.018.519-.213 1.065-.666 1.342-.711.486-1.794.36-2.338-.32-.339-.463-.374-1.09-.216-1.626.184-.574.761-.946 1.341-1.017zM0 221.059v35.24h69.824v-35.24H0zm11.725 9.074v7.824a84.447 84.447 0 0 0 2.95-3.379h3.15c-1.227 1.407-2.468 2.806-3.805 4.11 1.42 1.357 2.6 2.947 3.595 4.636.425.33.146.77-.322.61h-2.385c-.935-1.452-1.851-2.961-3.183-4.09v4.09h-2.65V230.56l2.65-.428zm10.943 4.195c1.1-.041 2.215.29 3.045 1.024.94.86 1.328 2.16 1.351 3.404.018.458-.003.915-.046 1.37h-6.012c.076 1.05 1.15 1.736 2.135 1.753a6.745 6.745 0 0 0 2.988-.42c.175.522.188 1.084.305 1.621.091.33.142.645-.305.662a9.731 9.731 0 0 1-3.58.414c-1.438-.12-2.922-.813-3.63-2.125-.458-.82-.639-1.77-.634-2.703-.064-1.796.815-3.717 2.48-4.527a4.731 4.731 0 0 1 1.903-.473zm11.049 0a6.824 6.824 0 0 1 2.29.492c.036.499-.228.96-.318 1.442.005.36-.187.893-.607.552-.945-.281-2.097-.374-2.91.288-.842.776-.9 2.041-.711 3.1.132.703.598 1.402 1.33 1.571.789.234 1.63.126 2.424-.023.369-.252.812-.17.738.35l.276 1.601c-1.564.59-3.35.672-4.928.094-1.268-.513-2.24-1.685-2.479-3.035-.106-.493-.147-1-.15-1.504-.055-1.86.996-3.785 2.75-4.516a5.313 5.313 0 0 1 2.295-.412zm7.777 0c1.1-.041 2.213.29 3.043 1.024.94.86 1.328 2.16 1.352 3.404.017.458-.002.915-.045 1.37h-6.012c.076 1.05 1.151 1.736 2.135 1.753 1.01.094 2.04-.06 2.988-.418.176.522.189 1.082.305 1.62.092.33.14.644-.307.661a9.731 9.731 0 0 1-3.58.414c-1.438-.12-2.92-.813-3.627-2.125-.459-.82-.64-1.77-.635-2.703-.064-1.796.815-3.717 2.48-4.527a4.731 4.731 0 0 1 1.903-.473zm10.272.047c.429.007.857.04 1.283.11 1.486.294 2.86 1.357 3.289 2.845a5.92 5.92 0 0 1 .299 1.926c.017 1.527-.44 3.21-1.729 4.148-1.245.885-2.948.897-4.316.297v3.522h-2.65v-12.325c1.243-.317 2.536-.544 3.824-.523zm-28.82 2.14c-.75-.06-1.58.39-1.768 1.151-.276.298-.133.842.33.648h3.002c.011-.868-.641-1.789-1.565-1.798zm18.824 0c-.75-.06-1.578.39-1.766 1.151-.275.298-.133.842.33.648h3.002c.011-.868-.643-1.789-1.566-1.798zm9.74.1c-.355.001-.693.056-.918.192v4.691c.85.477 2.094.598 2.806-.185.458-.548.525-1.3.536-1.985.032-1.01-.364-2.217-1.4-2.582a4.078 4.078 0 0 0-1.024-.13zm7.36 4.291c.623-.087 1.29.194 1.642.72.181.265.238.587.238.901.018.52-.215 1.067-.668 1.344-.712.486-1.792.361-2.336-.32-.339-.462-.374-1.09-.217-1.627.185-.574.76-.947 1.34-1.018zm152.775 29.028v35.24h69.824v-35.24h-69.825zm11.724 9.074v7.826a84.5 84.5 0 0 0 2.953-3.379h3.147c-1.227 1.407-2.467 2.804-3.805 4.108 1.42 1.357 2.602 2.947 3.598 4.636.424.33.146.77-.323.61h-2.386c-.936-1.452-1.852-2.961-3.184-4.09v4.09h-2.648v-13.373l2.648-.428zm10.945 4.195c1.1-.041 2.214.292 3.043 1.026.941.86 1.328 2.159 1.352 3.402.018.458-.003.917-.047 1.373h-6.01c.076 1.05 1.15 1.733 2.133 1.75 1.011.094 2.04-.06 2.988-.418.176.522.191 1.082.307 1.62.092.33.14.646-.307.663a9.73 9.73 0 0 1-3.58.414c-1.437-.12-2.921-.815-3.629-2.127-.459-.82-.637-1.77-.632-2.703-.064-1.796.814-3.717 2.48-4.527a4.731 4.731 0 0 1 1.902-.473zm11.05 0a6.824 6.824 0 0 1 2.29.492c.036.499-.23.962-.32 1.444.005.36-.188.893-.607.552-.945-.281-2.096-.376-2.909.286-.841.776-.902 2.041-.713 3.1.132.703.6 1.402 1.333 1.571.788.234 1.628.126 2.421-.023.37-.252.814-.17.74.35.093.534.184 1.069.276 1.603-1.563.59-3.35.672-4.928.094-1.267-.513-2.242-1.687-2.48-3.037-.107-.493-.147-1-.15-1.504-.055-1.86.995-3.783 2.75-4.514a5.323 5.323 0 0 1 2.296-.414zm7.777 0c1.1-.041 2.213.292 3.043 1.026.94.86 1.328 2.159 1.351 3.402.018.458-.003.917-.047 1.373h-6.01c.076 1.05 1.15 1.733 2.133 1.75 1.011.094 2.04-.06 2.989-.418.175.522.19 1.082.306 1.62.092.33.14.646-.306.663a9.73 9.73 0 0 1-3.58.414c-1.438-.12-2.922-.815-3.63-2.127-.458-.82-.637-1.77-.632-2.703-.064-1.796.815-3.717 2.48-4.527a4.731 4.731 0 0 1 1.903-.473zm10.27.047c.428.007.858.043 1.284.111 1.487.295 2.858 1.356 3.287 2.844.21.619.304 1.274.301 1.926.018 1.527-.44 3.211-1.728 4.15-1.245.885-2.95.896-4.319.297v3.522h-2.648v-12.325c1.243-.317 2.535-.546 3.822-.525zm-28.821 2.14c-.75-.06-1.577.39-1.766 1.151-.275.298-.133.842.33.648h3.002c.012-.868-.643-1.789-1.566-1.798zm18.826 0c-.75-.06-1.58.39-1.768 1.151-.275.298-.132.842.33.648h3.002c.012-.868-.64-1.789-1.564-1.798zm9.738.1c-.355.001-.693.056-.918.192v4.691c.851.477 2.097.598 2.809-.185.458-.548.525-1.3.535-1.985.033-1.01-.363-2.217-1.4-2.582a4.094 4.094 0 0 0-1.026-.13zm7.362 4.293c.624-.087 1.29.192 1.642.719.182.264.237.588.237.902.018.52-.213 1.065-.666 1.342-.712.486-1.794.361-2.338-.32-.34-.462-.374-1.089-.217-1.625.184-.574.762-.947 1.342-1.018z" style="font-style:normal;font-variant:normal;font-weight:700;font-stretch:normal;font-size:7.07224464px;line-height:1.25;font-family:Ubuntu;-inkscape-font-specification:Ubuntu;text-align:end;letter-spacing:0;word-spacing:0;text-anchor:end;fill:#55d400;fill-opacity:1;stroke:none;stroke-width:1.54209709"/></svg>