<svg xmlns="http://www.w3.org/2000/svg" viewBox="0 0 182.427 129.377" height="488.984" width="689.489"><path d="M-149.212 255.845c-5.66-.543-10.698-3.985-13.842-8.589-2.59-4.01-3.428-8.698-3.002-13.4.907-5.718 4.26-11.203 9.39-14.074l24.177-91.811c1.25-2.84 5.057-.693 4.12 1.944l-4.034 93.828c6.251 6.925 6.338 18.283.253 25.336-4.061 4.923-10.706 7.627-17.062 6.766z" style="fill:#000;stroke-width:.26458332" transform="translate(233.133 -126.626)"/><path d="M-73.405 236.675c-.127-18.504-7.944-36.67-20.478-50.174-8.478-9.673-19.832-16.41-31.87-20.67l.199-13.676c13.567 2.784 26.468 8.79 37.517 17.102 17.15 13.476 29.785 32.676 34.718 53.974a97.048 97.048 0 0 1 2.613 19.088l-22.552.177-.147-5.821z" style="fill:red;stroke-width:.26458332" transform="translate(233.133 -126.626)"/><path d="M-233.013 233.368c.892-19.836 9.348-39.15 22.672-53.786 8.548-9.381 19.002-17.017 30.694-21.996 11.85-5.212 24.818-7.473 37.727-7.376l-3.096 11.588c-8.625-.03-17.364-.343-25.716 2.204-26.49 6.36-48.612 27.107-57.66 52.68-2.429 6.52-3.78 13.38-4.74 20.258l.119-3.572z" style="fill:green;stroke-width:.26458332" transform="translate(233.133 -126.626)"/></svg>