<svg xmlns="http://www.w3.org/2000/svg" width="200" height="200" viewBox="0 0 52.917 52.917"><path d="M-707.88 208.495c-2.016-.209-2.574-2.604-2.304-4.475-.006-8.214.016-16.427-.026-24.64-.27-1.608.04-3.25-.115-4.89.504-1.677-.443-3.705.886-5.138 1.699-1.524 4.158-.592 6.214-.848 2.503.003 5.007.016 7.509-.046-.188-2.069 2.083-2.869 3.788-2.634 4.384.117 8.791-.147 13.162.122 2.086.547 2.167 2.952 2.04 4.704.076 1.89-.034 3.798.182 5.674.09 1.828.058 3.693-.145 5.522.098 7.463-.024 14.919-.028 22.38.296 2.065-1.7 3.84-3.713 3.527-3.462.053-6.924-.028-10.386-.018-.444.303-1.625.887-1.023.152-.667-.04.7-.179-.34-.146-1.885.298-3.588 1.21-5.655.781-3.348 0-6.7.065-10.045-.027zm27.337-2.467c-2.338-.013.333.085 0 0zm-28.49-23.84c-.011-1.146-.024-1.684-.02-.368v5.07c.016-1.567.058-3.135.02-4.703z" style="fill:#f0d0c6;stroke-width:1" transform="translate(720.11 -161.293)"/><path d="M-706.398 208.494c-2.32.577-4.217-1.596-3.804-3.826.07-8.434.003-16.87.01-25.304-.17-1.841.011-3.009-.106-4.777.547-1.594-.476-3.703.83-5.165 1.382-1.455 3.584-.722 5.354-.914l8.43-.015c-.195-2.421 2.635-2.914 4.471-2.648 4.17.08 8.365-.174 12.52.132 1.721.507 2.118 2.502 1.983 4.064.042 2.442.005 4.884.034 7.325.404 1.725-.133 3.546-.027 5.375-.018 7.437.05 14.876-.039 22.312-.24 2.093-2.54 3.043-4.419 2.673-3.964.006-7.928-.005-11.893.002-1.836 1.297-4.208.557-6.329.776-2.338.02-4.677.038-7.015-.01zm11.324-1.248c1.942-1.014.922-3.557 1.195-5.319-.065-5.76.121-11.528-.06-17.283-.287-1.201-.91 1.568-1.986 1.075-3.611.163-7.236-.017-10.852 0-1.168-.5-1.55-1.449-2.254-1.97-.005-.744-.01-3.292-.023-2.733l.004 24.96c1.05 2.326 4.15 1.035 6.148 1.38 2.605-.058 5.24.07 7.828-.11zm-7.589-1.147c-1.292-2.01 2.268-1.008 2.094-1.395-1.14.555-3.058-.858-1.006-1.247-.066-1.474.899.955 1.305 1.208.69 2.089-1.095 1.382-2.393 1.434zm.516-.27c.28-.963-.95.28 0 0zm1.623-.129c-.513-.724-.644.754 0 0zm.104-.501c-.684-.32-3.184.122-1.161.115.364-.101.847.134 1.16-.115zm-1.487-.775c-.603-.32.828-.955-.301-.4-.451.424 1.012.73.301.4zm1.134.036c-.065-1.142-1.195-.536-.312.134zm3.367 1.574c-2.514-.98 1.13-4.889 1.882-2.044.858 1.198-.657 2.678-1.882 2.044zm.518-.971c-.087-1.498.189.058-.772-.259.18-.062.73.665.772.259zm.55.017c.164-1.316-.724.694 0 0zm-10.99.943c-.847-.63-.377-2.453.438-2.609.874-2.046 2.642.642 2.231 1.635.633 1.605-1.938.782-2.67.974zm2.515-.591c-.072-1.118-4.034-.373-2.139.397.534-.298 2.226.476 2.139-.397zm-.207-.8c.597-1.37-1.67.232-.412-1.136-.104-1.21-1.628-.221-1.268.52-2.567.213 1.122 1.295 1.68.616zm-2.019-4.196c-1.134-.816-.355-2.786.627-3.14 1.463-1.437 2.699 3.136 1.044 3.158-.556.022-1.118.075-1.67-.018zm.698-.403c.655-1.574-.464.807.812.191 1.282.223.69-2.067-.574-1.309-1.622-.705-1.404 2.13-.238 1.118zm-.7-.212c-.447-1.072.954-.265.312-.487-.811.197.74.694-.313.487zm2.077-1.192c.435-1.54-3.954-.221-1.54.124.507-.07 1.051-.011 1.54-.124zm-.54-1.026c-.165-.611-1.215.282.083.081zm3.116 2.767c-.425-1.238-.268-2.396.815-2.92.319-1.624 1.877 1.005 1.39 1.866.325 1.65-1.185 1.046-2.205 1.054zm2.032-1.844c-.298-1.108-1.264-.026-1.885-.35-.558.805 1.52.433 1.885.35zm-.59-.715c.445-1.765-1.538.13 0 0zm2.892 2.505c.003-1.015-.88-3.892.806-3.471.629-1.056 1.608-.908 1.253.445.27 1.772.171 3.995-2.06 3.026zm.627-1.675c.324-.86-.553-2.604-.548-.865-.098.676-.035 3.485.59 1.83-.02-.322-.105-.64-.041-.965zm.667.53c.098-.884-.121-3.52-.5-1.382-.084.66-.075 3.488.504 1.908l-.002-.263-.002-.262zm.546.969c.01-1.045.417-3.501-.315-3.73-.032.858-.607 3.737.315 3.73zm-6.324-5.565c-1.017-1.693 1.588-.748 1.007-2.233.932-.796.27 1.327 1.322 1.041.709 1.78-1.295 1.213-2.329 1.192zm.668-.347c-.52-.816-.436.828 0 0zm1.414-.034c-.614-.7-.399.742 0 0zm.111-.485c-.815-.577-3.126.204-.931.05.31-.028.624.017.931-.05zm-.775-.837c-.138-1.3-.264 1.28 0 0zm-6.1 1.535c-.71-1.485 1.28-2 1.511-2.753 1.19.453.576 1.894 1.06 2.74-.797.19-1.796.161-2.57.013zm.89-.351c-.954-.825-.76.893 0 0zm.552 0c-.512-.706-.474.73 0 0zm.896 0c-1.063-.82-.953.892 0 0zm-1.606-.765c-.63-1.434-.615 1.553 0 0zm.641-.234c-.54-2.159-.614 2.318 0 0zm.732.405c-.123-1.355-1.25.88.062.1zm-.094-.818c.319-1.39-1.437.274 0 0zm7.26 1.795c-1.709-.498.221-2.771 1.255-1.417 1.6-2.015 2.179 2.376.156 1.474-.47.003-.944.006-1.412-.057zm2.438-.969c.065-1.89-1.305.643 0 .649v-.649zm-11.765-4.066c-.892-1.507.817-1.19 1.489-1.723-.967-.423.394-.652.393-.38 1.584-.458-1.17 1.037.497.837 1.196 1.804-1.467 1.31-2.38 1.266zm.67-.326c-.785-.022.317-.807-.487-.134-.114.267.585.476.487.134zm.484.056c.619-.28-.672-.397 0 .064zm1.102-.177c-.42-.49-.392.875 0 0zm-.04-.49c-.509-.426-3.243.087-.917.038.305.007.617.04.917-.038zm6.756.753c-.698-1.31.66-2.054 1.14-1.926.635-1.948 2.33.289 1.64 1.548-.151.932-2.135.406-2.78.378zm.67-.694c-.206-.52.489 1.437.537-.068-.16-2.232-2.026.585-.616.627.164-.132.166-.384.078-.559zm1.296-.4c.103-2.578.04 2.62.611.416.738-1.228-1.288-2.755-1.2-.895-.483 1.035.731 2.649.589.48zm-6.201 1.074c-.688-1.128.827-2.136 1.594-2.04.93.565 1.524 2.477-.29 2.106-.435.014-.878.036-1.304-.066zm.689-.312c-.76-.94-.422.702 0 0zm.661.063c-.295-1.15-.925.616 0 0zm.792-.149c-.199-.584-.502.41-.648-.159-.2.392.632.705.648.16zm.1-.573c-.803-.545-3.2.184-.971.073.32-.061.674.116.97-.073zm21.037 17.61c1.115-.526 1.656-3.581-.186-2.998h-12.817c.25 1.462-.922 3.977 1.462 3.237l11.172-.033zm-7.403-.547c-1.983-1.196 1.732-2.705 1.286-.476-.21.443-.832.756-1.286.476zm.714-.422c.83-1.311-1.793-.698-.34.12l.168-.016zm4.722.317c-1.971-1.394 2.118-2.478 1.203-.247-.276.354-.813.518-1.203.247zm-10.281-.294c-.835-.552-.279-1.743.157-.426.467-.299 1.176-1.154.766.132-.28.371-.518 1.046-.923.294zm-4.462-19.592c2.276-.605 1.168-3.429 1.412-5.145l-.023-5.324c-.948-2.052-3.608-.829-5.365-1.18-2.296.02-4.61-.129-6.895.051-1.539.601-1.015 2.408-1.107 3.696v6.735c1.05 2.045 3.747.872 5.576 1.216 2.134.028 4.27.05 6.402-.05zm-6.43-.325c-.726-.583 1.42-1.944-.54-1.94.077-.159 2.544-.288 1.08.172-.487.605 1.188 2.082-.54 1.768zm.534-.157c.654-1.573-1.803.092 0 0zm2.812.155c-.294-.614.483-1.864.034-2.103 1.583-.45-.524.786.723 1.55.204.385-.433.877-.757.553zm.26-.201c-.326-.876.651.71.364-.43-.794-.815-.87 1.014-.365.43zm-5.4.084c-.603-2.222 2.063.506 0 0zm.576-.26c-.596-1.34-.765 1.108 0 0zm-.453.153c-.031-.76.846.341 0 0zm6.151-.829c.574-.735 2.612-2.435.97-.834-.163.088-1.174 1.155-.97.834zm-4.737-1.544c-.84-1.41-3.78.506-4.746-1.01-.44-1.31 1.404-1.08 1.591-.303.776-1.114-.165-4.81 1.861-3.107 1.664-.137 2.553-2.996 4.047-3.651-.755 1.24-2.132 2.41-3.1 3.642-.59 1.47-2.246-1.314-1.99.899-.169.93-.28 1.826.431.562.803-1.293 1.575 1.968 1.88-.066.423-1.92 1.077.104 1.2.952.671-.751.482-4.191 1.733-1.808.203-.789.734-3.963 1.446-1.667.256 1.425 1.555-2.017 1.335-.001-.134 1.69.001 3.417-.024 5.125-1.797.195-4.118-.405-5.6.273l-.053.399zm-3.635-.805c.32-2.366-2.194.175 0 0zm-.718-2.347c.848-1.045 2.224-2.793 2.66-3.456-.566 1.208-2.115 2.923-2.66 3.456zm10.816-2.165c-1.857-1.349 1.844-2.49 1.17-.31-.271.294-.797.682-1.17.31zm.754-.23c1.186-1.253-1.96-1.242-.665.027.207.09.474.127.665-.028zm16.609-2.436c.713-1.565-1.397-.746-1.466-1.937-1.38-.586-1.236.81-1.72 1.308.679.705-1.454-.566-.702.697 1.183.182 2.787.24 3.888-.068zm-25.27-3.933c1.255-1.293-2.058-2.241-1.733-1.09.727.255.683 1.575 1.734 1.09zm-.604-.388c-.48-1.754 1.722.174 0 0zm4.68.143c-.578-.632-3.49-.085-2.514.242.734-.187 1.996.275 2.514-.242zm15.238-2.693c-.224-.757-2.702-.484-3.317-.071.818.45 2.399.311 3.317.07z" style="fill:#b6dde5;stroke-width:1" transform="translate(720.11 -161.293)"/><path d="M-706.398 208.494c-2.32.577-4.217-1.596-3.804-3.826.07-8.434.003-16.87.01-25.304-.17-1.841.011-3.009-.106-4.777.547-1.594-.476-3.703.83-5.165 1.724-1.622 4.37-.57 6.505-.888l7.28-.04c-.196-2.422 2.634-2.915 4.47-2.649 4.17.08 8.365-.174 12.52.132 1.721.507 2.118 2.502 1.983 4.064.042 2.442.005 4.884.034 7.325.404 1.725-.133 3.546-.027 5.375-.018 7.437.05 14.876-.039 22.312-.24 2.093-2.54 3.043-4.419 2.672-3.964.006-7.928-.005-11.893.002-1.836 1.298-4.208.558-6.329.777-2.338.02-4.677.038-7.015-.01zm11.713-.588c1.272-.349 2.008-1.603 1.81-2.872.253.914.139-1.89.181-2.46.015-10.557-.022-21.113-.027-31.67-.25-.987-1.434-2.021-.44-.476.473 2.018.19 4.152.272 6.217-.06 9.756-.01 19.512-.092 29.268-.119 1.654-2.146 1.96-3.501 1.854h-11.19c-2.875-.907-1.705-4.443-1.947-6.686-.004-7.464.048-14.927.054-22.39-.334 2.173-.047 4.437-.15 6.647-.008 6.805-.018 13.61-.027 20.414-.186.842 1.571 2.857 3.218 2.271 3.854.016 7.71.044 11.565-.03l.274-.087zm-14.738-1.262c-.57-1.558.502.718 0 0zm14.49.576c2.332-.36 1.527-3.03 1.661-4.684 0-8.615 0-17.23.002-25.843l-.07 17.638-.071-6.752v17.777l.074-10.956c0 3.79-.003 7.58-.004 11.37-.725 1.557.228-1.278-.404.441-1.385 1.606.456-1.012-.12-1.854.01-11.08.03-22.164.042-33.245-.391-1.563-2.134-1.293-3.373-1.342-1.348-.557-.723 2.094-2.332 1.1-1.84.12-3.705.087-5.552-.02-.762-1.95-4.352-1.275-4.025 1.006.058 11.371.03 22.747.055 34.12 1.05 2.327 4.15 1.035 6.149 1.381 2.648-.076 5.342.103 7.968-.137zm-7.73-1.12c-1.386-2.062 2.513-.954 2.003-1.404-1.446.592-2.613-1.015-.91-1.274-.11-1.473.52.748 1.041.882 1.308 2.188-.663 1.905-2.134 1.795zm.606-.408c-.501-.716-.475.755 0 0zm1.516.117c.04-.91-1.238.404 0 0zm.137-.591c-.822-.371-3.191.138-.988.102.28-.105.843.197.988-.102zm-1.16-.769c.324-.265-1.255-.037-.154-.499.45-.869-1.838.76.155.5zm.791.01c-.065-1.141-1.195-.535-.312.135zm3.367 1.575c-2.514-.98 1.13-4.889 1.882-2.044.858 1.198-.657 2.678-1.882 2.044zm1.068-.924c.26-.395-.921-1.195-1.103-.354-.475.437.846.334.89.29-.115.203.313.327.213.064zm.069-1.713c-.405-.79-.678.435 0 0zm-11.06 2.626c-.846-.63-.376-2.453.439-2.609.874-2.046 2.642.642 2.231 1.635.633 1.605-1.938.782-2.67.974zm2.516-.591c-.072-1.118-4.034-.373-2.139.397.534-.298 2.226.476 2.139-.397zm-.207-.8c.574-1.396-1.67.253-.411-1.14-.116-1.206-1.626-.214-1.27.525-2.566.212 1.123 1.294 1.681.615zm-2.019-4.196c-1.134-.816-.355-2.786.627-3.14 1.463-1.437 2.699 3.136 1.044 3.158-.556.022-1.118.075-1.67-.018zm.698-.403c.655-1.574-.464.807.812.191 1.282.223.69-2.067-.574-1.309-1.622-.705-1.404 2.13-.238 1.118zm-.7-.212c-.447-1.072.954-.265.312-.487-.811.197.74.694-.313.487zm2.077-1.192c.411-1.571-3.96-.195-1.54.124.507-.07 1.051-.01 1.54-.124zm-.47-.981c-.211-1.15-1.467.43 0 0zm3.046 2.722c-.425-1.238-.268-2.396.815-2.92.319-1.624 1.877 1.005 1.39 1.866.325 1.65-1.185 1.046-2.205 1.054zm1.02-.802c.08-1.804-1.972.383-.377.714.519.11.372-.444.377-.714zm.92.465c.433-.85-.796-1.79-.602-.435-.175-2.202-.582 1.874.602.435zm.091-1.507c-.297-1.108-1.263-.026-1.884-.35-.558.805 1.52.433 1.884.35zm-.59-.715c.446-1.765-1.537.13 0 0zm2.893 2.505c.003-1.015-.88-3.892.806-3.471.629-1.056 1.608-.908 1.253.445.271 1.772.17 3.995-2.06 3.026zm.627-1.675c.323-.86-.553-2.604-.548-.865-.098.676-.035 3.485.59 1.83-.02-.322-.105-.64-.042-.965zm.675.766c.082-.937-.092-3.91-.507-1.582-.14.559.027 4.017.507 1.582zm.538.733c.01-1.045.417-3.501-.315-3.73-.032.858-.607 3.737.315 3.73zm-6.324-5.565c-1.017-1.693 1.588-.748 1.007-2.233.932-.796.27 1.327 1.322 1.041.709 1.78-1.295 1.213-2.33 1.192zm.687-.34c-.486-.878-.525.81 0 0zm1.422-.048c-.597-.704-.492.793 0 0zm.083-.476c-.796-.6-3.194.238-.931.06.31-.033.626.014.931-.06zm-.76-.838c-.17-1.267-.248 1.226 0 0zm-6.113 1.534c-.668-1.47 1.284-2.156 1.61-2.738.982.524.677 2 .873 2.794-.784.074-1.717.114-2.483-.056zm.89-.351c-.955-.825-.76.893 0 0zm.551 0c-.512-.706-.474.73 0 0zm.896 0c-1.063-.82-.953.893 0 0zm-1.585-.793c-.551-1.471-.763 1.651 0 0zm.62-.206c-.302-1.823-.795 1.801.062.21zm.758.275c-.158-1.167-1.344.971.016.25zm-.142-.689c.39-1.427-1.4.275 0 0zm7.281 1.796c-1.708-.498.222-2.771 1.256-1.417 1.6-2.015 2.178 2.376.156 1.474-.47.003-.944.006-1.412-.057zm1.092-.331c.329-1.776-2.347-1.126-1.147.103.301-.114 1.025.245 1.147-.103zm-1.027-.104c.56-1.32.116.44 0 0zm1.684-.43c-.169-1.913-1.046 1.837.06.27zm.758.112c.258-1.86-1.45-.271-.364.56.313.101.39-.337.364-.56zm-11.834-4.282c-.898-1.523.842-1.176 1.505-1.738-.995-.36.368-.683.362-.351 1.6-.496-1.312 1.141.643.877.777 1.888-1.509 1.163-2.51 1.212zm2.24-.23c.175-1.3-1.208.368 0 0zm-1.526-.217c-.704-.942-.453.98 0 0zm.785 0c-.667-.931-.398.97 0 0zm.827-.548c-.85-.406-3.316.118-1.103.1.342-.111.832.195 1.103-.1zm6.647.811c-.698-1.31.66-2.054 1.14-1.926.635-1.948 2.33.289 1.64 1.548-.151.932-2.135.406-2.78.378zm.67-.694c-.206-.52.489 1.437.537-.068-.16-2.232-2.026.585-.616.627.164-.132.166-.384.078-.558zm1.296-.4c.103-2.578.04 2.62.611.416.738-1.228-1.288-2.755-1.2-.895-.483 1.035.731 2.65.589.48zm-6.202 1.074c-.687-1.128.828-2.136 1.595-2.04.93.565 1.524 2.477-.29 2.106-.435.014-.878.036-1.305-.066zm.69-.312c-.76-.94-.422.702 0 0zm.661.064c-.295-1.151-.925.615 0 0zm.791-.15c-.198-.584-.501.41-.647-.159-.2.392.632.705.647.16zm.12-.62c-.854-.467-3.196.134-1.022.138.273-.147.925.2 1.021-.138zm-.746-.57c-.502-.725-.614.777 0 0zm-1.688-1.852c-1.688-.237-3.723.515-5.115-.697-1.07-1.56-.295-3.642-.537-5.438.047-1.708-.117-3.447.132-5.135.5-1.539 2.174-1.225 3.43-1.243h9.256c2.133.94 1.214 3.55 1.444 5.37-.015 1.874.159 3.771-.07 5.63-.594 1.894-2.846 1.533-4.375 1.546-1.388.005-2.777-.023-4.165-.033zm6.742-.46c2.275-.604 1.168-3.428 1.412-5.143l-.023-5.325c-.948-2.052-3.608-.829-5.365-1.18-2.296.02-4.61-.129-6.895.051-1.539.601-1.015 2.408-1.107 3.696v6.735c1.05 2.045 3.747.872 5.576 1.216 2.134.029 4.27.05 6.402-.05zm-6.43-.324c-.726-.583 1.42-1.944-.54-1.94.092-.154 2.547-.302 1.073.188-.486.622 1.206 2.056-.534 1.752zm.534-.157c.636-1.595-1.82.089 0 0zm2.812.155c-.294-.614.483-1.863.034-2.103 1.583-.45-.524.786.723 1.55.204.385-.433.877-.757.553zm.26-.201c-.314-.878.59.686.41-.39-.71-.978-.98.902-.41.39zm-5.4.084c-.603-2.222 2.063.507 0 0zm.609-.193c-.389-1.438-1.019.86 0 0zm-.486.086c-.031-.76.846.341 0 0zm6.151-.829c.574-.735 2.612-2.435.97-.834-.163.088-1.174 1.155-.97.834zm-4.737-1.544c-.84-1.41-3.78.506-4.746-1.01-.466-1.211 1.427-1.246 1.558-.2.797-1.254-.127-5.043 2.102-3.113 1.502-.585 2.511-3.303 3.888-3.644-1.244 1.338-2.421 2.792-3.709 4.111-.91-.804-1.63-.842-1.462.599-.306 1.287.008 1.024.628.11.84-.714 1.391 2.039 1.688.197.584-2.707 1.23 1.681 1.414.94.145-1.09.613-4.246 1.523-1.78.162-.819.819-4.04 1.434-1.828.087 1.833 1.625-2.04 1.351.09-.094 1.685.01 3.397-.006 5.095-1.797.195-4.117-.405-5.6.273l-.053.399-.01-.24zm5.423-3.122c.192-1.369-.093-3.404-.762-1.196.446 1.41-1.06-2.306-.546-.293-.003 1.304-.001 2.61-.001 3.916 1.99.653 1.131-1.305 1.309-2.427zm-.691.516c-.397-1.482 1.214.415 0 0zm.272-.133c-.215-.856-.475.532 0 0zm-8.64 1.934c.32-2.366-2.193.175 0 0zm2.336-.934c.116-.982-.203-1.73-.8-.49-1.267.999-.232 2.247.867 1.28-.064-.259-.047-.526-.067-.79zm1.478.55c.028-.742-.1-1.87-.388-.491-.665-.418-1.093-1.338-.874.122-.466 1.047 1.516 1.302 1.262.37zm1.042.4c-.16-.756-.904-3.755-.867-1.594.021.7-.395 2.252.867 1.594zm1.142-1.399c.062-1.012-.204-3.068-.457-1.001-.342.92-.885 3.612.54 2.074.011-.361-.117-.707-.083-1.073zm1.6.087c.041-1.113-.02-1.685-.453-.323.394-.783.457-3.64.196-3.316-.462.81-.198 2.884-1.17 2.323-.072 1.142-.352 3.676 1.474 2.495.057-.388-.109-.78-.048-1.18zm-8.315-1.051c.848-1.045 2.224-2.793 2.66-3.456-.566 1.208-2.115 2.923-2.66 3.456zm10.816-2.165c-1.857-1.349 1.844-2.49 1.17-.31-.271.294-.797.682-1.17.31zm.754-.23c1.186-1.253-1.96-1.242-.665.027.207.09.474.127.665-.028zm-12.216-4.545c-1.658-.159 1-1.415.02.14zm.54-.002c-.599-1.812 1.66.064 0 0zm.222-.186c.448-.782-.636-.006-.006.006zm3.137.109c.58-1.239 3.18-.239 4.494-.554 1.547.737-.964.825-1.705.734h-2.67l-.06-.091zm3.48-.14c1.324.046 1.164-.24.052-.162h-3.202c.723.526 2.246.02 3.15.161zm3.64-.702c-.927-1.184 1.348-.876.395.12l-.222.007zm1.04-.017c-.738-1.57 2.058-.297.33.12-.13.013-.23-.061-.33-.12zm2.796 35.92c4.507-.152 9.035.04 13.549-.09 2.17-.5 2.238-2.894 2.054-4.678.02-11.45-.018-22.9-.02-34.35-.553-1.886-2.792-2.026-4.416-1.858-3.94.038-7.896-.098-11.826.075-.88-.18-2.305 2.016-.838.626 1.763-.584 4.064-.538 5.64-.015.92-.47 2.036-.145 3.05-.241 1.043.093 1.917-.086 2.937-.06 1.664.14 3.942-.64 4.983 1.1.556 1.841.134 3.847.268 5.76l.032 31.12c.005 2.284-3.176 2.552-4.29 2.43.618.019 2.405.078.773.057l-11.957-.048c-.664.112.27.371.061.172zm13.535-.628c2.263-.803 1.374-3.512 1.557-5.33.027-10.915-.003-21.831.007-32.747-.479-2.068-4.386-2.028-5.263-1.123-.452 1.592-2.662.211-3.898.72-1.351.099-2.995.275-3.407-1.244-1.445.053-4.42-.268-4.308 1.346.809-1.378 4.229-1.788 4.512.153 1.39.945 3.46.175 5.122.46 1.25.218 2.429-.147 2.51-1.569 1.983-.438 5.33-.137 4.48 2.757.043 11.487.026 22.977.047 34.466l.07-31.282c.016 10.565.028 21.13.048 31.695-.271.708-1.57 1.737-3.01 1.566-3.917-.03-7.833.018-11.75.019 1.23.814 3.943.023 5.693.296 2.42 0 4.84.001 7.26-.062l.33-.121zm1.393-36.113c.227-.891-.56-4.047.076-1.775-.032 1.016-.027 3.623-.046 3.734l-.03-1.96zm-1.387 35.314c1.115-.527 1.656-3.582-.186-3h-12.827c.36 1.232-.978 3.785 1.075 3.239l11.568-.034zm-7.403-.548c-1.983-1.196 1.732-2.705 1.286-.476-.21.443-.832.756-1.286.476zm.74-.43c.59-2.228-2.174.355 0 0zm4.877.396c-2.32-1.086 1.768-2.8 1.051-.379-.263.292-.631.55-1.051.379zm.52-.5c.893-1.694-2.067.11 0 0zm-10.982.135c-.835-.552-.279-1.743.157-.426.467-.3 1.176-1.155.766.132-.28.37-.518 1.046-.923.294zm13.16-3.564c.021-8.979.016-17.958.028-26.937-1.097 1.024-3.513.69-4.795.247-.22-1.325 1.258-1.055 1.37-2.342 1.357-1.263 2.114.69 3.26 1.001.453.598.062-1.891.177-2.568.443-1.923-.619-3.642-2.774-3.164-1.565-.385-1.154 1.756-2.647 1.775-.752 1.183-2.701.274-3.942.575-1.2.113-1.708-.91-2.704-1.294-.109-1.736-4.633-1.252-3.59.255 1.805.56 1.807 2.787 1.687 4.334.16.85.388 1.652.28 2.608-.065.946.184 1.97-.238 2.816-.328 2.676 1.406-.685 2.152-1.327.547-.61 1.593-2.905 1.743-.885.408 1.702.959 5.718 1.343 5.963.357-2.334.795-4.671 1.107-7.003 1.171-.295.903 2.418 1.416 3.318.355 1.47.706 2.942 1.112 4.399.51-1.232.18-3.953 1.27-4.218.554 1.444 1.723 2.521 2.5.519-.684 1.106-1.26 1.767-.274 2.733-1.055-.378-1.638-1.64-2.31-2.678-.723 1.348-.206 3.558-1.318 4.48-.845-2.115-1.147-4.509-1.768-6.73-.192-1.108-.336-1.545-.429-.219-.355 2.453-.805 4.892-1.28 7.325-.991-1.464-.878-4.433-1.511-6.412-.19-.649-.175-2.538-.689-.959-.763 2.237-3.21 3.893-3.096 6.323l.002 6.78c1.156-.71-.566.957.005 1.647-.038 3.5.005 7.02-.013 10.508 1.888.765 4.495.034 6.643.283 2.331-.194 5.42.373 7.278-.296.001-.286.005-.572.005-.857zm-7.434-.896c-2.029.37-.631-2.332-.89-3.501 1.146-1.34 3.767-.353 3.012 1.673.393 1.781-.552 2.135-2.122 1.828zm1.703-.312c-.312-.51-3.942.027-1.417.016.472.017.948.062 1.417-.016zm-.546-1.435c.558-1.955-2.89-1.296-1.946.443-.134 1.112 2.652 1.05 1.946-.443zm-1.285.644c-1.484-1.441 2.022-1.292.507.03-.166-.03-.357.097-.507-.03zm.582-.224c.412-2.042-2.078.343 0 0zm1.405-.623c.78-1.777-2.022-2.102-2.61-1.175 2.097-.515 2.17.855 2.176 2.503.889.37.268-.946.434-1.328zm-7.709 1.833c.516-.824 3.017-.759 3.576-.16-.888.499-2.615.244-3.576.16zm3.355-.231c-1.074-.243-4.297.065-1.682.068.527-.048 1.273.095 1.682-.068zm5.667.298c-.083-.719 1.096-.944.474-1.938-.57-2.49 3.18-1.651 2.15.436-.745.956 1.618 1.026.214 1.623-.92-.204-1.9.02-2.838-.12zm3.084-.333c-.813-.24-4.198.043-1.843.096.6-.11 1.273.113 1.843-.096zm-.703-.666c-.154-.292-1.573-.074-1.71-.01.042.666 1.8.523 1.71.01zm-.296-.461c1.05-.796-2.138.285-.81-1.193 1.569-.756.252 1.593.314.271.691-1.013-1.236 1.064.423.481 1.532-1.409-1.932-1.995-1.279-.09-.072.836.832.983 1.352.53zm-10.71.214c-.973-.792 1.717-2.227 2.166-.898 2.097 1.243-1.582 1.142-2.165.898zm1.615-.24c1.352.358.652-.914-.32-.229-.84-.62-2.011.413-.447.277.255-.021.51-.05.767-.047zm-.105-.466c.42-1.117-1.419.177 0 0zm-1.876-3.591c-.543-.826 1.373-.443.402-1.458-.348-2.013 3.425-.651 1.82.88.951-.51 1.914.88.365.657-.79-.108-2.05.164-2.587-.079zm.81-.302c-.955-.428-.778.476 0 0zm2.376-.039c-.692-.207-3.277.08-1.184.077.355-.115.877.147 1.184-.077zm-1.49-.305c1.086-.739-1.28.152-.481-1.071-.235-2.05-1.358 1.693.48 1.071zm.26-.52c-.445-1.64-.787.588 0 0zm.199-.545c.726.834-.492-1.28-.674-.058.43-.805.94 1.228.674.058zm1.86 1.687c.28-1.152 3.076-2.237 2.587-2.785-.585.564-2.195 2.055-2.363 1.781.939-.502 2.72-3.298 3.165-1.46-1.13.063-1.804 1.444-2.872 1.876.882.265 3.526-.606 3.265.606-1.218.124-2.465.043-3.696.085l-.07-.084-.016-.019zm3.65-.272c-.768-.204-2.96-.145-2.958.041.933-.007 2.214.183 2.958-.041zm1.31.27c-.226-1.139-.017-3.16 1.45-2.14.893.096 1.84-1.03 1.555.629.191.877.578 1.966-.877 1.618-.702-.11-1.457.158-2.128-.107zm2.187-.233c1.72-.115-.747-.185-1.378-.146-1.852.093 1.15.243 1.378.146zm-1.154-.698c-.725-1.295-1.271 1.162.03.179zm.895 0c-.698-1.28-1.26 1.163.03.18zm.896-.516c.301-1.686-1.337.352-.292.069-1.612.26.907 1.812.292-.07zm-1.86-.345c-.574-1.317-1.184 1.269.034.19zm.885.086c-.24-1.045-1.227 1.057.053.144zm-4.571-3.149c-.864.364-2.77-.535-1.009-.704.984.21 1.584.07 1.386-1.016 1.551-1.033 1.502 2.119-.242 1.235-.441.028-2.397-.12-1.156.22.695.068 3.095-.361 2.648.298-.542.002-1.085-.026-1.627-.033zm1.175-.79c.83-1.43-1.749-.879-.354.104l.17-.006zm-.538-.225c-.464-1.696 1.281.118 0 0zm-5.818.869c-2.206-.544.924-3.594 1.085-1.58 1.925.175-.099 2.333-1.085 1.58zm.997-.366c1.142-.6.02-1.02-.638-.558-1.894-1.07-.26 1.42.638.558zm-.135-1.23c.069-1.593-1.676.8 0 0zm1.223 1.679c.29-.841.846.325 0 0zm5.938-.014c-.61-.92 1.387-.347.653-1.386.22-1.661 1.76.173 1.938-.986.729.435.077 1.624.577 2.343-1.027.18-2.157.138-3.168.029zm1.075-.305c-1.32-.485-.807.414 0 0zm.982-.213c.371-.73-.75.872-.784-.408-.147-.709 1.677-.37.291-1.024-1.47-.034-.14 2.471.493 1.432zm.897.158c-.693-.277-.94.341 0 0zm-.25-1.013c.061-1.925-.987 1.405.01.51-.013-.17-.01-.34-.01-.51zm-.824.478c-.08-1.141-1.06.776 0 0zm-5.425.061c-.982-2.177 2.335-.056 0 0zm-1.088-3.002c.096-.119-1.402-.037-.356-.672 1.296-.452 1.357.773.316.998v-.097l.04-.23zm.558-.264c-.277-.501-.357-.05-.074-.052l-.068.184.142-.133zm-3.9.262c-1.274.02.298-1.437.22-.273.648-1.378.56 1.19.258-.074-.191.019-.318.514-.479.347zm9.858-.007c-1.075-.055.358-1.223.217-.514 1.006-.79.739 1.01-.14.478-.008.034-.138.436-.077.036zm.717-.212c-.246-.903-.35.314 0 0zm-4.145.171c-.875-1.46 1.85.107.214.107l-.214-.107zm.184-.242c-.152-1.051-.1.763 0 0zm.804.298c.14-.342-.193-1.174.244-.648.109.116.568.8-.244.648zm-5.269-13.61c.364-.705-1.44-.471-.093-.844.725-.128 1.085-.89.91.116 1.025.524-.753-.033-.415.696-.089.132-.303.16-.402.032zm-.083-.932c-.892-.918 1.198.016 0 0zm6.715-2.393c-.81-1.535 3.187-.461 1.135.073-.452-1.412-.445.766-1.135-.073zm-10.987.06c.939-.685-1.639-.782.152-.85 1.221-.445.448 1.063-.152.85zm13.023-.098c-.628-1.283 1.965-.545.61.148l-.346-.009zm-13.73 16.901c-.038-1.212-.041 2.74.016.69.01-.23-.007-.46-.015-.69zm.001-9.615c-.007-1-.022-4.237-.018-1.78v10.72c.015-2.98.054-5.96.018-8.94zm1.996 3.721c.592-.859 2.106-3.41.602-1.35-.75.517-1.812 3.343-.602 1.35zm-18.229-4.392c-.148-1.237-.068 2.402.052.6l-.006-.254zm.056-2.742c-.935-2.576 2.38-4.813 4.268-3.071.722 1.556 1.487-.094 2.116-.457h3.31c.59 1.8.924-.874 2.255-.051 1.522-.666 4.157.89 4.144 1.113.324.768.141 3.63.219 1.346.418-2.029-1.69-3.17-3.43-2.857-3.732.057-7.474-.159-11.2.055-1.422.273-2.02 1.785-1.798 3.086l-.029 2.92c.262-.666.057-1.393.145-2.084zm4.865-2.879c-.48-1.754 1.722.174 0 0zm25.874 4.321c.713-1.565-1.397-.745-1.466-1.937-1.04-.672-1.504.717-1.488.944-.4.663.224.7-.874.437-.733 1.337 3.29.633 3.828.556zm-21.159-4.17c-.68-.316-3.16-.652-3.208.143.949.078 2.454.311 3.208-.142zm15.847-.8c-1.335-.213-3.574-.29-4.468.066 1.46.151 2.98.033 4.468.071v-.109zm-10.719-1.585c.887-1.833-.898 1.991 0 0zm10.165-.36c-.482-.611-2.942-.599-3.403.037.862.313 2.596.275 3.403-.036zm-4.104.044c.218-.931-.947.4 0 0z" style="fill:#7497a4;stroke-width:1" transform="translate(720.11 -161.293)"/><path d="M-708.45 208.283c-1.023-.443-1.72-1.507-1.696-2.632-.013-5.309.058-10.624.026-15.936-.048-3.472.1-6.981-.105-10.43-.074-.757-.01-1.572-.032-2.351.64-.3-.361-.486-.018-1.174.011-.694-.006-1.407.152-2.015.087-1.134-.116-2.325.163-3.42.362-1.271 1.74-1.928 2.994-1.755 3.766-.056 7.532-.035 11.298-.041-.117-1.151.686-2.257 1.808-2.521 1.737-.343 3.534-.085 5.296-.164 3.075.037 6.16-.072 9.23.059 1.313.026 2.345 1.122 2.513 2.39.137 3.03.08 6.085.142 9.125.339.304.04 1.235.124 1.79.097.713-.175 1.22-.163 1.88-.029 8.01.008 16.027-.062 24.031-.221 1.627-1.883 2.8-3.487 2.581l-13.024.017c-.695.58-1.538.92-2.45.774l-12.276-.009c-.144-.066-.289-.132-.433-.2zm13.386-.274c1.043-.137 1.979-.867 2.21-1.924.345-1.737.086-3.536.167-5.3l.003-29.677c-.16-.754-.553-1.507-1.277-1.848 1.295 1.104.962 2.91.998 4.418-.011 10.526.024 21.055-.017 31.579-.037 1.324-1.152 2.553-2.52 2.47-3.255.18-6.52-.023-9.778-.005-1.105-.129-2.377.287-3.325-.428-.745-.607-1.068-1.537-.931-2.478 0-11.086-.05-22.177-.02-33.26-.01-1.195 1.035-2.174 2.213-2.173.562-.042 1.216-.07 1.735.109.361.425.552 1.232 1.286 1.034.745.11.31-1.275 1.135-1.071 1.105.046 2.264-.14 3.333.055.41.407.493 1.372.685.257.304-.678 1.244-.343 1.843-.408 1.196.112 2.679-.269 3.52.826.598 1.007.22 2.225.325 3.338v32.04c-.097.414-.963 1.508-.428.562.106-4.004.04-8.049.08-12.069.019-7.591.067-15.188.011-22.776-.026-.985-1.08-1.646-2.01-1.485l-2.224-.04c-.023.565-.166 1.41-.928 1.253-.585-.229-.988-.15-1.632-.105-1.465-.038-2.965.06-4.409-.063-.64-.206-.56-1.346-1.383-1.071-.909-.05-2.072-.072-2.5.906-.438.858-.104 1.894-.209 2.83l-.006 32.334c.23.796.862 1.495 1.73 1.515 3.948-.01 7.902.073 11.845.008 1.032-.056 2.2-.582 2.31-1.73.01-11.28.074-22.562.048-33.84-.028-.78-.117-1.598-.744-2.146.492.285.185-.05-.029-.144-.236.039-1.02-.574-1.548-.507-2.868-.135-5.756-.026-8.631-.067-1.256.06-2.55-.13-3.78.096-1.26.23-2.032 1.574-1.825 2.795.023 1.694-.046 3.48.035 5.116.043 2.576-.112 5.3-.065 7.935l.03 21.314c.338 1.199 1.536 2.007 2.779 1.879 3.899-.019 7.805.058 11.699-.02l.108-.018zm-7.097-1.922c-.935.23-.54-.782-.62-1.351.836.14 1.68.181 2.523.083-.632-.39-1.61.207-2.213-.391-.287-.79.601-.788.919-.973.023-1.138-.013-.242.317.157.835.067.396 1.005 1.03 1.102-.076.456.313 1.49-.491 1.37-.49.031-.976.063-1.465.003zm.133-.321c.088-.784-1.082.09-.278.175.184.002.277.059.278-.175zm1.544-.058c-.01-.576-1.055-.093-.5.194.15-.073.522.057.5-.194zm-.872-.111c-.276-.535 1.596-.112.734-.546-.63.088-1.485-.092-1.974.165.146.329 1.436-.22 1 .467-.023.32.438.249.24-.086zm-.164-1.116c.043-.495.073-1.005.202-.193-.027.78 1.147-.085.28-.44-.396-.256-1.629-.163-1.222.544.103.234.584.235.74.089zm-.535-.225c.17-.465.537-.21.233.048.405.022-.256.137-.233-.048zm4.768 1.8c-1.016-.268-1.366-1.742-.45-2.347.565-.149.546-.949 1.232-.83.578.139.621.916 1.07 1.299.563 1.143-.734 2.346-1.852 1.878zm.454-.925c.321-.344.436.54.632-.263-.145-.338-.402-1.28-.312-.201-.494.003-.299-1.007-.97-.068-.707.65.525.288.514.708.155.046.116-.093.136-.176zm.564-1.76c-.126-.659-.942.18-.156.082.04-.04.239.088.156-.082zm-11.371 2.463c-.286-.698.349-1.31.174-.243.07.532 1.124.163 1.596.265.562-.021 1.465.042 1.064-.767.002-.436.52.804.023.854-.906.155-1.864.024-2.79.067l-.038-.102zm.325-.927c-.689-.087-.486-1.303.192-1.24.436-.01.27-.99.925-1.033.6-.15 1.137.445.971 1.034.7-.008.832.997.228 1.295-.755-.01-1.569.07-2.316-.056zm2.383-.355c.484-.57-.599-.966-.846-.333.396-.372.612-1.15-.117-1.31-.618-.138-1.05.71-.703 1.2-.373-.675-1.355.196-.686.602.687.136 1.485-.005 2.215.024.045-.06.091-.124.137-.183zm-2.347-4.243c-.326-.532-.104-1.327-.214-1.962.02-.771 1.145-.331 1.108-1.018.16-.744 1.293-.36 1.188.32.26.405.8.736.532 1.458-.032.543.197 1.594-.698 1.322-.61-.075-1.388.156-1.916-.12zm2.288-.085c.274-.267.448-1.69-.368-1.342-.635.044-1.29-.03-1.915.088.029.545-.207 1.487.667 1.31.532-.04 1.106.1 1.616-.056zm-2.109-.518c-.348-.917 1.188-.226.387-.445-.884.175.375.733-.308.617l-.045-.1zm2.198-1.049c.377-.632-.714-.864-1.226-.743-.513-.086-1.33.097-1.166.781.748.142 1.626.015 2.392-.038zm-.531-1.025c.032-.684-.971-.543-.767.076.195-.067.76.176.767-.076zm3.086 2.715c-.287-.533-.098-1.313-.205-1.942-.136-.847 1.28-.164.908-1.092-.028-.682 1.006-.508.966.11-.352.693.926.39.516 1.312-.103.544.142 1.21-.23 1.66-.632-.05-1.378.159-1.955-.048zm.979-.779c.422-.758-.764-1.013-.896-.505.029.546-.243 1.473.643 1.224.471.163.167-.484.253-.719zm.812.68c.188-.18.374-1.502-.209-1.385-.85-.296-.481.822-.492 1.32.031.228.54.08.7.064zm.221-1.811c.088-.769-.937-.29-1.394-.42-.641-.34-.922.905-.167.62.408-.129 1.52.267 1.561-.2zm-.518-.69c.285-.55-.634-1.068-.653-.318-.225.547.44.594.653.319zm2.77 2.563c-.093-1.137-.044-2.315-.081-3.468.536-.552.966.698 1.247-.216.152-.581 1.103-.9.888-.026v3.726c-.667-.027-1.44.103-2.055-.016zm.695-1.648c-.135-.564.27-1.403-.281-1.756-.638-.139-.19 1.034-.323 1.442v1.875c.974.29.519-.832.606-1.418l-.001-.11zm.636.227c.002-.73.023-1.46-.089-2.184-.81.612-.337 1.745-.462 2.613-.376.703.585 1.423.551.468v-.897zm.586-.664c-.07-.632.14-1.497-.107-1.983-.682.109-.32 1.085-.41 1.595v2.394c.887.171.39-.932.517-1.461v-.545zm-5.822-3.644c-.807.313-.803-1.087-.372-1.277.83.225.983-.235.854-.979.527-.567.746.49.62.898.654.012.893.447.764 1.232-.484.305-1.287.12-1.866.126zm.15-.387c-.204-.811-1.034.362-.124.24.246.058.12-.094.125-.24zm.608 0c-.282-.895-.345.868 0 .023zm.814.017c-.182-.835-1.197.398-.184.224.238.036.22-.013.184-.224zm.06-.45c-.066-.44-1.232-.125-1.736-.241-.88.223.384.4.781.294.307-.043.68.081.955-.054zm-.669-.721c.07-.93-.571-.558-.343.172-.053.262.552.15.343-.172zm-6.157 1.359c-.14-.472-.195-1.371.315-1.687.632-.126 1.115-.785 1.17-1.102.63.364.91.882.726 1.604-.144.458.855 1.102.003 1.29-.714-.071-1.576.14-2.214-.105zm1.404-.35c.063-.437-1.234-.23-1.31-.006-.135.395 1.517.391 1.31.006zm.753.204c.845-.295-.965-.841-.684-.091-.091.275.55.093.684.091zm-1.485-.576c.141-.284.156-1.326-.474-.67-.22.464-.193.928.474.67zm.705-.04c-.202-.312.26-1.676-.378-1.08-.385.303-.308 1.495.42 1.189l-.04-.102zm.716-.303c.131-.806-.984-.23-.62.392.342.02.778.166.62-.392zm-.177-.622c.674-.074-.493-1.2-.443-.362-.02.594-.068.45.443.362zm8.12 1.726c-.544-.039-1.503.16-1.445-.67-.184-.744.755-1.388 1.372-1.009.42.837.96-.392 1.604-.263.565.362.176 1.22.32 1.8-.425.324-1.29.109-1.851.142zm.267-.486c.038-.57-.44-1.343-1.054-.96-.43.174-.658 1.2-.054 1.22.33-.068 1.314.362 1.108-.26zm1.436-.4c.302-.537-.42-1.396-.614-.587.032.463-.105 1.848-.155.649.26-.915-.45-.78-.563-.083-.238.883.563.715 1.177.736.322.152.08-.549.155-.714zm-11.366-4.13c-.802.246-.734-.88-.496-1.281.379-.385 1.153.406 1.335-.262.718-.573-.079-.352-.167-.541.322-.749.755.732.96-.166.853-.186-.203.772-.566.89.776-.106 1.164.171 1.018.976.087.758-.966.31-1.414.411-.223-.002-.447-.018-.67-.027zm.273-.43c.006-.7-1.07-.138-.379.264.28-.014.452.13.38-.264zm.758-.018c.015-.91-1.05.29-.24.293.346.059.22-.037.24-.293zm.827.018c-.083-.924-1.216.428-.184.275.26.07.173-.104.184-.275zm.034-.611c-.446-.222-1.298-.04-1.9-.106-1.037.145.316.336.74.218.336-.074.99.116 1.16-.112zm7.338.893c-.95.253-.723-.64-.76-1.276-.127-.681.936-.925 1.178-.287.036-.26-.049-1.258.694-1.182.684-.041 1.086.58.895 1.22-.107.55.348 1.74-.59 1.558-.473.016-.946.004-1.417-.033zm-.05-.713c.103-1.248-.109.397.16.568.642.169.401-1.006.23-1.328-.348-.53-1.177-.172-.943.476-.33.506.336 1.297.538.634l.014-.35zm1.375-.413c.009-1.052.02-1.053.036 0-.166.482.166 1.48.47.729-.081-.644.237-1.47-.138-2-.435-.385-1.216-.102-1.073.531.136.51-.28 1.573.219 1.721.802.199.365-.485.486-.981zm-6.233 1.037c-.144-.318-.408-1.495.284-1.365.613.21.331-1.003 1.04-.758.635.042.146 1.05.896.758.386.256.243 1.034.076 1.413-.75-.045-1.598.15-2.296-.048zm.538-.096c.33-.9-.055.237.747.01.362-.646-.458-.667-1.016-.59-.382-.056-.225.906.269.58zm1.546-.15c.415-.656-1.036-.62-.612.063.003.073.725.15.612-.062zm.137-.774c-.329-.328-1.271-.042-1.831-.138-.916.268.591.34.981.276.212-.077.886.162.85-.138zm-.784-.398c.162-1.07-1.18.363 0 0zm-5.486-2.08c-1.16-.102-2.05-1.276-1.83-2.426.045-2.886-.19-5.801.13-8.666a1.905 1.905 0 0 1 2.194-1.348h10.427c1.071.335 1.62 1.502 1.447 2.567v8.458c-.4.932-1.337 1.658-2.388 1.448-3.325-.028-6.66.079-9.98-.033zm10.9-.428c.87-.353 1.278-1.303 1.122-2.204-.024-2.683.03-5.376-.042-8.052-.13-.891-.998-1.539-1.892-1.345l-10.251-.035c-1.058.266-1.41 1.437-1.284 2.414.02 2.664-.039 5.338.03 7.995.207 1.08 1.428 1.445 2.399 1.36l9.663-.018c.085-.038.171-.079.255-.115zm-6.846-.35c-.495-.4.225-.81.425-1.004.502-.788-1.147-.947-.782-.957.406.12 1.411.002 1.47.013-.76-.152-.784.774-.46 1.195.5.378.047 1.06-.532.84-.053.007-.08-.061-.121-.087zm.658-.072c.499-.488-.52-1.098-.697-.375-.143.386.442.63.697.375zm3.29.08c.654-.506-.485-.997-.51-.74.411-.11.358-1.28-.003-1.237-.768-.06 1.094-.103.843-.048-.833-.243-.584.874-.304 1.242.549.165-.08 1.148-.027.783zm-5.125-.065c.46-.444-.436-1.079-.582-.408-.422.463.383-1 .746-.082.077.208-.187.815-.164.49zm-3.05-2.94c-.638-.148-1.066-1.1-.392-1.476.59-.25 1.115.288 1.2.851.6-1.16.52-2.586.75-3.871.665-.081 1.228 1.004 1.85.537 1.113-1.218 2.156-2.581 3.318-3.707.365.415-.692.88-.906 1.298-.943.904-1.707 2.077-2.66 2.906-.465-.104-.948-.643-1.322-.723-.13.84-.18 1.694-.361 2.525.514-.296.663-1.248 1.351-1.182.314.204.806 1.656.988.939.228-.53.302-1.233.691-1.628.448.362.376 1.162.621 1.688.162.862.285 1.261.356.168.218-.913.22-1.89.608-2.752.394-.04.83 1.133.667 1.009-.51-1.096.122.76.245.172.304-.916.174-2.065.83-2.806.485.128.483 1.068.745 1.521-.07.324.664-.884.93-1.172.534-.2-.007 1.041.168 1.471l-.029 4.215h-8.854c.109-.636-.488.562-.793.017zm1.094-.31c.565-1.554-.7.797 0 0zm1.501.086c.435-.191.091-1.17.152-1.678.139-1.12-.402-.516-.758.078-.378.456-.836 1.097-.625 1.687.41-.026.82-.088 1.231-.087zm1.563.008c.185-.583.031-1.448.022-2.076-.155.42-.331 1.607-.788.738-.396-.849-.611-.666-.48.204-.047.676-.083 1.486.836 1.193.134-.025.304.057.41-.06zm1.007-.666c-.22-.713-.384-1.445-.673-2.133-.211.91-.07 1.857-.116 2.784.626.029 1.25.224.789-.651zm1.258-.91c-.06-.73.08-1.493-.206-2.188-.327 1.18-.501 2.42-.807 3.592.061.478 1.502.374 1.037-.422l-.024-.982zm1.598.069c-.046-.313.09-1.975-.096-1.25-.026-.91.087-1.829-.074-2.73a60.92 60.92 0 0 0-.771 2.997c-.59-.479-.59-.879-.501.127 0 .783 0 1.565.002 2.348.435-.119 1.527.425 1.445-.252 0-.413-.005-.828-.005-1.24zm1.485-.924c-.046-.84.05-1.74-.082-2.543-.367.282-.697 1.486-.967 1.148-.21-.402-.518-1.825-.362-.683l.092 4.57c.512-.119 1.63.362 1.341-.546l-.022-1.946zm-9.071 2.34c.28-.421-.078-1.233-.665-1.02-.631.404-.053 1.267.581 1.102l.078-.077.006-.006zm10.03-4.597c-.894-.33-.259-1.897.594-1.541.543.17 1.027.944.458 1.37-.22.374-.72.41-1.052.17zm.895-.218c.59-.396-.228-1.395-.779-.927-.618.25-.242 1.19.383 1.068.176.032.274-.016.396-.14zm-11.723-4.512c-.572-.327.336-1.166.467-.445.092.274-.175.765-.467.445zm.33-.059c.164-.2-.167-.935-.428-.298.056.228.215.44.427.298zm3.083.092c-.516-.577.414-.836.91-.683 1.282.048 2.613-.096 3.866.071.55.657-.564.812-1.065.686-1.228-.048-2.517.09-3.711-.074zm4.685-.322c-.403-.2-1.329-.019-1.934-.072l-2.55.02c.132.393 1.266.057 1.796.16l2.66-.021zm-8.66.236c-.393-.12-.816-.279-.183-.236.307-.383.306-.447.188.362l-.004-.109v-.017zm11.016-.862c-.2-.542.42-.276-.34-.531.4-.617 1.205-.177.895.573-.198.042-.408.182-.555-.042zm1.053-.05c-.582-.424.356-1.178.746-.597.455.493-.353.953-.746.598zm.462-.196c.043-.698-.847.462 0 0zm-9.557-1.043c-.636-.39.596-1.15.536-.343.11.265-.347.613-.536.343zm25.518 37.089c1.196-.341 2.045-1.48 1.998-2.73.066-8.348.009-16.703.027-25.053-.031-3.575.062-7.16-.047-10.729-.025-1.318-1.227-2.29-2.487-2.36-3.953-.09-7.922.009-11.88-.008-1.146.005-2.544-.183-3.306.873-.319.296-.772 1.35-.24 1.443.05-.48.345-1.083.827-1.41 1.133-.812 2.619-.44 3.933-.522.453-.045 1.365-.074 1.24.58-.606.504.6.451.498-.308.516-.376 1.312-.084 1.94-.19.742.028 1.496-.103 2.225.063.026.88.522-.602 1.172-.144 1.477.074 2.988-.166 4.439.155 1.204.376 1.491 1.786 1.376 2.9 0 11.74-.003 23.48-.004 35.22-.297 1.268-1.544 2.053-2.799 2.083-4.204.08-8.417.025-12.625.053-.696.54.942.158 1.339.266 4.04-.044 8.096.002 12.127-.099l.247-.083zm-.414-.434c1.162-.202 2.077-1.332 1.856-2.522v-35.714c-.252-1.16-1.552-1.668-2.636-1.525l-2.691-.035c.082.503.023 1.398-.69 1.237-1.898-.1-3.803-.022-5.704-.05-.639-.19-.232-1.286-1.018-1.188-1.074.074-2.197-.08-3.24.136a1.972 1.972 0 0 0-1.212 1.513c.572.266.286-.905.89-1 .989-.595 2.227-.207 3.327-.326.604.416.306 1.546 1.191 1.61 2.075-.003 4.15.03 6.225.006.625-.285.576-1.033.814-1.525.792-.21 1.717-.068 2.56-.147.841.12 1.97.53 1.908 1.552-.014 10.834.056 21.67-.012 32.504-.053 1.302.024 2.639-.111 3.92-.559 1.382-2.246 1.364-3.5 1.314l-10.928.002c-.544.786.842.299 1.258.424 3.812-.047 7.633-.023 11.44-.115.09-.023.183-.05.272-.07zm-1.416-.637c.843-.006 1.838.053 2.338-.77.509-.703.241-1.665.369-2.482-4.663-.018-9.327.06-13.989-.09-.084 1.123.053 2.283-.17 3.384 3.817-.026 7.639.066 11.452-.042zm-5.698-.836c-.787-.24-.637-1.58.216-1.61.78-.245 1.45.782.884 1.395-.226.307-.768.48-1.1.215zm.8-.461c.517-.437-.45-1.181-.752-.597-.479.437.434 1.168.752.597zm-5.486.233c-.259-.325-1.043-1.014-.386-1.286.287.604.578 1.45.846.341.467-.762.61.414.14.727-.14.235-.402.639-.6.218zm10.032.067c-.812-.384-.291-1.615.526-1.497.812-.08 1.274 1.155.493 1.547-.232.176-.794.178-1.019-.05zm.878-.358c.582-.382-.282-1.066-.7-.6-.485.501.273.954.7.6zm2.162-19.095.005-16.95c-.304-1.187-1.726-1.129-2.707-1.117-.606.01-1.436-.275-1.37.617-.17.674-.811.912-1.417 1.066.078.803-.895.55-1.43.578h-3.608c-.191-.597-.136-.891-.942-.798-.866-.069-.668-1.273-1.38-1.477-.918.138-2.023-.173-2.802.385-.74.454-.378.926.322 1.085 1.263.683 1.44 2.284 1.34 3.58.057.601-.185 1.368.276 1.745-.032 1.273.079 2.552-.089 3.818-.423.255-.072 1.284-.187 1.847.23-.108.75-.974 1.121-1.353.831-.99 1.625-2.02 2.334-3.087.518-.214.392.935.562 1.305.328 2.04.819 4.048 1.199 6.076.361-2.526.859-5.03 1.196-7.561.36-.742.712.485.758.845.492 2.236 1.16 4.436 1.638 6.67.198.699.287-.917.395-1.204.225-.956.276-2.003.608-2.904.539-.12.738.944 1.114 1.304.149.626.46.496.812.606.346-.307.773-1.422.959-1.28-.23.508-.756.975-.806 1.503-.454.018-.08.223.335.777.57.891-.541.05-.676-.412-.743-.081-.476-.15-.63-.64-.338-.427-.562-1.092-.928-1.39-.229 1.419-.535 2.849-.758 4.28-.203.808-.766.185-.75-.36-.605-2.435-1.176-4.879-1.766-7.317-.387 2.824-.92 5.624-1.436 8.427-.657.02-.243-.95-.455-1.36-.502-2.247-.884-4.549-1.367-6.78-.944 1.983-2.137 3.827-3.343 5.66-.271.384-.038 1.275-.116 1.854v6.407c.725-.7.523-.002 0 .349v12.094l13.72-.036c.577.352.12-.995.265-1.322l.004-15.53zm-13.253 14.742c-.313-.8.84-.541 1.31-.575.677.057 1.463-.117 2.072.084.415.774-.805.44-1.259.516-.699-.025-1.457.08-2.123-.025zm3.308-.256c-.27-.4-1.23-.078-1.774-.18-.296-.03-1.828-.02-1.116.218.956.024 1.958.035 2.89-.038zm1.4.163c-.358-.393.454-.466.137-1.188.064-.785-.296-1.663.172-2.36.54-.24.894-.519 1.563-.38.518-.023 1.163.297 1.222.873-.034.97.105 1.99-.03 2.928-.377.55-1.273.139-1.878.265-.373-.073-.914.158-1.187-.138zm2.861-.211c-.254-.307-1.234-.046-1.75-.14-.854-.17-1.24.36-.152.213.614-.052 1.36.104 1.902-.073zm-.588-1.408c.062-.706.122-1.41-.794-1.137-.669-.018-1.5-.056-1.204.852.086.55-.333 1.655.608 1.413.529-.113 1.657.377 1.39-.537v-.591zm-1.524.524c-.55-.456.18-1.338.748-.893.628.43.09 1.292-.587 1.023l-.085-.068zm.766-.076c.51-.436-.412-1.257-.766-.612-.335.485.391 1.027.766.612zm1.447-.52c-.077-.558.253-1.538-.448-1.741-.709.06-1.526-.11-2.17.089-.517.838.882.343 1.36.452.946-.312.57.723.638 1.307-.217.607.176 1.636.62.883v-.99zm1.278 1.736c-.487-.73.966-.284.548-1.074.054-.657-.108-1.404.077-2.007.589-.779 2.124-.333 2.016.717-.047.605-.023 1.242-.212 1.825.504-.348 1.257.344.63.629-.998-.039-2.057.089-3.02-.062zm3.132-.286c-.436-.239-1.31-.038-1.918-.104-.845-.163-1.48.29-.282.207h2.2zm-.784-.336c.176-.913.112-.782-.605-.433-.571.422-1.333-.816-1.07.204.033.698 1.05.117 1.52.248.02-.072.125.031.155-.019zm-.283-.763c.62-.33.273-1.07.279-1.616-.28-.158-.927-.464-1.331-.1-.525.393-.38 1.201-.208 1.752.352.282.93.27 1.26-.036zm-.932-.383c-.565-.504.616-1.422.966-.711.217.701-1.019.65-.594.114.413.056.718.281.276-.271-.653-.23-.996 1.085-.149.867.558-.015 1.008-.63.338.14-.266-.06-.669.137-.837-.139zm.677-.43c-.36-.69-.326.713 0 0zm-9.668 1.055c-.518.153-1.612-.288-.892-.808.639-.09.947-.821 1.606-.712.358.347.594.64 1.111.874.557.595-.552.83-1.03.686-.265-.012-.53-.027-.795-.04zm1.71-.293c.18-.42-.793-.666-1.113-.228-.703.057-.556-.592-1.264-.147-.845.33.518.565.88.447.488-.043 1.037.078 1.497-.072zm-.9-.528c.362-.651-.989-.597-.638.024.04.276.498.073.637-.024zm-.741-3.522c-.446-.108-1.665.27-1.269-.527.612-.065 1.095.06.511-.747-.172-.488.015-1.477.689-1.193.223.69.712-.275 1.1.286.469.439.334 1.194-.093 1.622.48.007 1.604-.101 1.134.567-.67.11-1.39-.031-2.072-.008zm-.38-.316c-.667-.338-1.134.296 0 .107zm2.33-.014c-.335-.262-1.099-.005-1.6-.077-1.23-.04-.245.343.43.198.284-.084 1.159.166 1.17-.12zm-1.259-.306c.558-.251.682-1.467-.052-1.562-.725.284-.452.942-.612.03-.493-.577-.735.423-.609.823.144.552.468.977 1.087.792.065.003.126-.078.186-.083zm-.272-.789c-.074-.972.99.158.133.114-.11.057-.106-.05-.133-.114zm.373-.128c-.374-.785-.36.751 0 0zm8.324 1.57c-.432-.127-1.638.309-1.367-.463.278-.62-.246-1.505.347-1.968.722-.323.734.88 1.277.186.47.293.624.176 1.104-.393.54.05.093 1.084.237 1.529-.141.469.88 1.058-.109 1.117-.494.03-.993-.012-1.489-.008zm1.775-.303c-.279-.4-1.25-.065-1.81-.145-.506-.113-1.84.207-.646.222.8-.053 1.73.105 2.456-.077zm-2.106-.681c.136-.79-1.283-.476-.827.327.17.126 1.092.273.827-.327zm1.056.345c.939.3.794-.458.743-1.125.223-1.071-.456-.37-.763.125.364.42.668.03-.072.35-.18 1.26.274-.35-.482-.108-.677-.202-.593 1.203.132.758h.442zm-1.056-1.132c.172-.805-1.097-.574-.827.138-.104.269 1.112.31.827-.138zm.883.043c.184-.772-.963-.249-.745.262.253-.087.898.221.745-.262zm-6.878 1.605c.417-.24 1.278-.035 1.866-.103.563-.064 1.477.124 1.838-.086-.604-.204-1.475-.042-2.182-.103-.54.018-1.897.097-.846-.516.803-.575 1.537-1.234 2.292-1.869-.437-.441-.904.647-1.365.833-.517.386-.979.855-1.568 1.133.869-.876 1.914-1.557 2.738-2.48.533.308 1.193 1.004.256.67-.827.736-1.664 1.46-2.609 2.04 1.116.036 2.283-.132 3.368.033.537.583-.487.642-.926.552h-2.862zm2.284-4.797c-.617-.132-1.438.21-1.904-.27.243-.697 1.16-.284 1.74-.424.976.169.292-.25.43-.888.273-.527 1.067-.431 1.184.165.291.667-.269 1.2-.946.933-.678.033-1.438-.17-2.066.011-.087.445 1.126.101 1.54.205.625.002 1.249-.016 1.872.001-.022.654-1.127.136-1.59.274l-.26-.007zm1.173-.794c.476-.396-.266-1.521-.686-.808-.403.477.156 1.266.686.808zm-.533-.397c.006-1.148.677.535.015.06zm-5.895 1.007c-.51-.197-1.213-.993-.532-1.413.733.105.31-.933 1.186-.875.786.073.134 1.065.888.8.75.514.037 1.431-.632 1.586-.316.167-.628.104-.91-.098zm1.08-.31c.571-.09.741-1.052.005-.875-.404.654-.947.039-1.428 0-.549.348.312.893.683 1.012.23.158.522-.04.74-.137zm-.178-1.147c.375-.568-.583-.909-.748-.271-.062.334.613.61.748.271zm1.286 1.584c-.206-.465.86-.021.023.008zm6.796.014c-.613.27-1.57-.386-.683-.639.912.25.491-.213.461-.82.004-.598.7-.809 1.213-.694.523.819.228.186.682-.231.519-.021.107 1.152.24 1.616.544.271.36 1.056-.427.804-.495-.017-.99-.025-1.486-.036zm.188-.28c-.076-.517-1.59-.111-.738.056.208-.046.635.088.738-.055zm1.706.013c.658-.444-1.305-.185-.38.042.133.003.255.01.38-.042zm-.825-.112c.306-.479.245-1.197-.174-1.58-.59-.2-1.223.38-.884.958.078.476.623.956 1.058.622zm-.562-.225c-.472-.313.988-.027.438-.634-.626.165-.894.307-.212-.226.728.003.31 1.236-.192.895l-.034-.035zm1.266-.79c.2-.984-.353-.85-.413-.005-.294.783.683 1.186.413.176v-.109zm-6.295.476c-.669-.408.54-1.408.783-.584.183.506-.368 1-.783.584zm.569-.039c.529-.433-.344-1.21-.667-.46-.16.31.42.789.667.46zm-.413-.155c-.073-.743.006-.327.19.027.056.237-.13.006-.19-.027zm-1.193-2.478c.215-1.134-.146.105-.587-.45-.236-.926.676-.135.903-.525.668-.205.434 1.065-.115.661.89-.091-.157-1.116-.015-.098-.053.126.102.69-.186.412zm-.193-.44c.35-.809-.821-.265-.155.085.086.043.114-.036.155-.086zm-3.152.137c-.771.01-.49-.549-.103-.619-.653 1.2.42-.613.162.102-.086.99.95-1.016.53.259-.152.372.547.023-.144.296.54-1.436-.328.333-.445-.038zm7.456.04c.035-.334.316-.043-.086-.716.66-.12-.025.14.482.56-.023.106-.272.269-.396.157zm2.397-.068c-.714.03-.373-.57.133-.592.124.149-.096.98-.133.592zm-3.512-.084c-.468-.742.927-.788.517.024-.016.09-.52.223-.517-.024zm.307-.083c.299-.941-.801.073-.002.097l.002-.097zm3.495.026c-.288-.805.957-.632.57.128-.16.002-.58.22-.57-.128zm.44.014c.175-.863-.759-.173-.134.103.11.06.11-.04.134-.103zm-3.062-11.08c-.56-.493.084-1.59.796-1.23-.065-.891.648-1.81 1.597-1.642.791-.06.66 1.1 1.317.964.99.075 1.348 1.626.392 2.067h-3.954l-.074-.08zm3.735-.182c.714-.04.776-1.132.17-1.395-.636-.128-.895.237-.966-.556-.432-.582-1.534-.463-1.748.292.163.545-.144.116-.215.881.226.34-1.132-.473-.829.526.28.584 1.219.207 1.775.314.6-.032 1.226.07 1.813-.062zm-9.109-2.153c.075-.578.248-.528-.538-.4-.367-.71.765-.185.903-.55.12-.606 1.098-.367.331.038-.427.035 1.17.484.026.483-.779-.497.165.794-.722.429zm-.1-.962c-.727-.737 1 .002.087.033l-.087-.032zm6.71-2.383c.473-.559-.52-.317.262-.764.46.362.904-.186 1.427.257.46.672-1.1.875-.618.183-.414-.428-.382.754-1.002.452l-.052-.096-.017-.032zm2.196.035c-.693-.38.424-1.22.758-.603.337.476-.369.871-.758.603zm.418-.262c.404-.578-1.064.21-.037.02zm-13.447.152c.68-.552-.265-.376-.653-.51-.017-.327 1.544-.297 1.279.076-.078.234-.645.927-.626.434zm.786 11.702c.641-1.066 1.362-2.085 1.911-3.204-.785 1.05-1.717 2.03-2.368 3.16-.034.81.098.653.457.044zm-8.208-10.362c.18-.785-1.02-.339-1.498-.442l-1.857.02c-.235.857.887.525 1.383.572l1.901-.023.053-.095zm15.688-.774c.697-.345-.555-.468-.875-.37h-3.53c-.307.71.822.314 1.2.413 1.065-.029 2.147.058 3.205-.043zm-.462-2c.485-.63-.644-.532-1.021-.507-.779.065-1.607-.143-2.348.127-.184.821 1.048.387 1.545.493.585-.076 1.317.154 1.824-.114zm6.818-.008c-.28-.546-.922-.723-1.49-.781.597.153 1.182.453 1.555.902l-.052-.096zm-5.658-.122c-.31-.605-.555.521 0 0z" style="fill:#21252f;stroke-width:1" transform="translate(720.11 -161.293)"/></svg>